<?xml version="1.0" encoding="utf-8"?>
<svg xmlns="http://www.w3.org/2000/svg" xmlns:xlink="http://www.w3.org/1999/xlink" width="600" height="400" viewBox="0 0 2400 1600">
<defs>
  <clipPath id="clip510">
    <rect x="0" y="0" width="2400" height="1600"/>
  </clipPath>
</defs>
<path clip-path="url(#clip510)" d="M0 1600 L2400 1600 L2400 0 L0 0  Z" fill="#ffffff" fill-rule="evenodd" fill-opacity="1"/>
<defs>
  <clipPath id="clip511">
    <rect x="480" y="0" width="1681" height="1600"/>
  </clipPath>
</defs>
<path clip-path="url(#clip510)" d="M249.542 1423.18 L2352.76 1423.18 L2352.76 47.2441 L249.542 47.2441  Z" fill="#ffffff" fill-rule="evenodd" fill-opacity="1"/>
<defs>
  <clipPath id="clip512">
    <rect x="249" y="47" width="2104" height="1377"/>
  </clipPath>
</defs>
<polyline clip-path="url(#clip512)" style="stroke:#000000; stroke-linecap:round; stroke-linejoin:round; stroke-width:2; stroke-opacity:0.1; fill:none" points="307.081,1423.18 307.081,47.2441 "/>
<polyline clip-path="url(#clip512)" style="stroke:#000000; stroke-linecap:round; stroke-linejoin:round; stroke-width:2; stroke-opacity:0.1; fill:none" points="803.618,1423.18 803.618,47.2441 "/>
<polyline clip-path="url(#clip512)" style="stroke:#000000; stroke-linecap:round; stroke-linejoin:round; stroke-width:2; stroke-opacity:0.1; fill:none" points="1300.16,1423.18 1300.16,47.2441 "/>
<polyline clip-path="url(#clip512)" style="stroke:#000000; stroke-linecap:round; stroke-linejoin:round; stroke-width:2; stroke-opacity:0.1; fill:none" points="1796.69,1423.18 1796.69,47.2441 "/>
<polyline clip-path="url(#clip512)" style="stroke:#000000; stroke-linecap:round; stroke-linejoin:round; stroke-width:2; stroke-opacity:0.1; fill:none" points="2293.23,1423.18 2293.23,47.2441 "/>
<polyline clip-path="url(#clip510)" style="stroke:#000000; stroke-linecap:round; stroke-linejoin:round; stroke-width:4; stroke-opacity:1; fill:none" points="249.542,1423.18 2352.76,1423.18 "/>
<polyline clip-path="url(#clip510)" style="stroke:#000000; stroke-linecap:round; stroke-linejoin:round; stroke-width:4; stroke-opacity:1; fill:none" points="307.081,1423.18 307.081,1404.28 "/>
<polyline clip-path="url(#clip510)" style="stroke:#000000; stroke-linecap:round; stroke-linejoin:round; stroke-width:4; stroke-opacity:1; fill:none" points="803.618,1423.18 803.618,1404.28 "/>
<polyline clip-path="url(#clip510)" style="stroke:#000000; stroke-linecap:round; stroke-linejoin:round; stroke-width:4; stroke-opacity:1; fill:none" points="1300.16,1423.18 1300.16,1404.28 "/>
<polyline clip-path="url(#clip510)" style="stroke:#000000; stroke-linecap:round; stroke-linejoin:round; stroke-width:4; stroke-opacity:1; fill:none" points="1796.69,1423.18 1796.69,1404.28 "/>
<polyline clip-path="url(#clip510)" style="stroke:#000000; stroke-linecap:round; stroke-linejoin:round; stroke-width:4; stroke-opacity:1; fill:none" points="2293.23,1423.18 2293.23,1404.28 "/>
<path clip-path="url(#clip510)" d="M307.081 1454.1 Q303.47 1454.1 301.641 1457.66 Q299.835 1461.2 299.835 1468.33 Q299.835 1475.44 301.641 1479.01 Q303.47 1482.55 307.081 1482.55 Q310.715 1482.55 312.521 1479.01 Q314.349 1475.44 314.349 1468.33 Q314.349 1461.2 312.521 1457.66 Q310.715 1454.1 307.081 1454.1 M307.081 1450.39 Q312.891 1450.39 315.946 1455 Q319.025 1459.58 319.025 1468.33 Q319.025 1477.06 315.946 1481.67 Q312.891 1486.25 307.081 1486.25 Q301.271 1486.25 298.192 1481.67 Q295.136 1477.06 295.136 1468.33 Q295.136 1459.58 298.192 1455 Q301.271 1450.39 307.081 1450.39 Z" fill="#000000" fill-rule="nonzero" fill-opacity="1" /><path clip-path="url(#clip510)" d="M767.311 1481.64 L783.63 1481.64 L783.63 1485.58 L761.686 1485.58 L761.686 1481.64 Q764.348 1478.89 768.931 1474.26 Q773.537 1469.61 774.718 1468.27 Q776.963 1465.74 777.843 1464.01 Q778.746 1462.25 778.746 1460.56 Q778.746 1457.8 776.801 1456.07 Q774.88 1454.33 771.778 1454.33 Q769.579 1454.33 767.125 1455.09 Q764.695 1455.86 761.917 1457.41 L761.917 1452.69 Q764.741 1451.55 767.195 1450.97 Q769.649 1450.39 771.686 1450.39 Q777.056 1450.39 780.25 1453.08 Q783.445 1455.77 783.445 1460.26 Q783.445 1462.39 782.635 1464.31 Q781.848 1466.2 779.741 1468.8 Q779.162 1469.47 776.061 1472.69 Q772.959 1475.88 767.311 1481.64 Z" fill="#000000" fill-rule="nonzero" fill-opacity="1" /><path clip-path="url(#clip510)" d="M793.491 1451.02 L811.847 1451.02 L811.847 1454.96 L797.773 1454.96 L797.773 1463.43 Q798.792 1463.08 799.81 1462.92 Q800.829 1462.73 801.848 1462.73 Q807.635 1462.73 811.014 1465.9 Q814.394 1469.08 814.394 1474.49 Q814.394 1480.07 810.922 1483.17 Q807.449 1486.25 801.13 1486.25 Q798.954 1486.25 796.686 1485.88 Q794.44 1485.51 792.033 1484.77 L792.033 1480.07 Q794.116 1481.2 796.338 1481.76 Q798.561 1482.32 801.037 1482.32 Q805.042 1482.32 807.38 1480.21 Q809.718 1478.1 809.718 1474.49 Q809.718 1470.88 807.38 1468.77 Q805.042 1466.67 801.037 1466.67 Q799.162 1466.67 797.287 1467.08 Q795.436 1467.5 793.491 1468.38 L793.491 1451.02 Z" fill="#000000" fill-rule="nonzero" fill-opacity="1" /><path clip-path="url(#clip510)" d="M833.607 1454.1 Q829.996 1454.1 828.167 1457.66 Q826.361 1461.2 826.361 1468.33 Q826.361 1475.44 828.167 1479.01 Q829.996 1482.55 833.607 1482.55 Q837.241 1482.55 839.046 1479.01 Q840.875 1475.44 840.875 1468.33 Q840.875 1461.2 839.046 1457.66 Q837.241 1454.1 833.607 1454.1 M833.607 1450.39 Q839.417 1450.39 842.472 1455 Q845.551 1459.58 845.551 1468.33 Q845.551 1477.06 842.472 1481.67 Q839.417 1486.25 833.607 1486.25 Q827.796 1486.25 824.718 1481.67 Q821.662 1477.06 821.662 1468.33 Q821.662 1459.58 824.718 1455 Q827.796 1450.39 833.607 1450.39 Z" fill="#000000" fill-rule="nonzero" fill-opacity="1" /><path clip-path="url(#clip510)" d="M1259.77 1451.02 L1278.13 1451.02 L1278.13 1454.96 L1264.06 1454.96 L1264.06 1463.43 Q1265.08 1463.08 1266.09 1462.92 Q1267.11 1462.73 1268.13 1462.73 Q1273.92 1462.73 1277.3 1465.9 Q1280.68 1469.08 1280.68 1474.49 Q1280.68 1480.07 1277.2 1483.17 Q1273.73 1486.25 1267.41 1486.25 Q1265.24 1486.25 1262.97 1485.88 Q1260.72 1485.51 1258.32 1484.77 L1258.32 1480.07 Q1260.4 1481.2 1262.62 1481.76 Q1264.84 1482.32 1267.32 1482.32 Q1271.33 1482.32 1273.66 1480.21 Q1276 1478.1 1276 1474.49 Q1276 1470.88 1273.66 1468.77 Q1271.33 1466.67 1267.32 1466.67 Q1265.45 1466.67 1263.57 1467.08 Q1261.72 1467.5 1259.77 1468.38 L1259.77 1451.02 Z" fill="#000000" fill-rule="nonzero" fill-opacity="1" /><path clip-path="url(#clip510)" d="M1299.89 1454.1 Q1296.28 1454.1 1294.45 1457.66 Q1292.64 1461.2 1292.64 1468.33 Q1292.64 1475.44 1294.45 1479.01 Q1296.28 1482.55 1299.89 1482.55 Q1303.52 1482.55 1305.33 1479.01 Q1307.16 1475.44 1307.16 1468.33 Q1307.16 1461.2 1305.33 1457.66 Q1303.52 1454.1 1299.89 1454.1 M1299.89 1450.39 Q1305.7 1450.39 1308.76 1455 Q1311.83 1459.58 1311.83 1468.33 Q1311.83 1477.06 1308.76 1481.67 Q1305.7 1486.25 1299.89 1486.25 Q1294.08 1486.25 1291 1481.67 Q1287.95 1477.06 1287.95 1468.33 Q1287.95 1459.58 1291 1455 Q1294.08 1450.39 1299.89 1450.39 Z" fill="#000000" fill-rule="nonzero" fill-opacity="1" /><path clip-path="url(#clip510)" d="M1330.05 1454.1 Q1326.44 1454.1 1324.61 1457.66 Q1322.81 1461.2 1322.81 1468.33 Q1322.81 1475.44 1324.61 1479.01 Q1326.44 1482.55 1330.05 1482.55 Q1333.69 1482.55 1335.49 1479.01 Q1337.32 1475.44 1337.32 1468.33 Q1337.32 1461.2 1335.49 1457.66 Q1333.69 1454.1 1330.05 1454.1 M1330.05 1450.39 Q1335.86 1450.39 1338.92 1455 Q1342 1459.58 1342 1468.33 Q1342 1477.06 1338.92 1481.67 Q1335.86 1486.25 1330.05 1486.25 Q1324.24 1486.25 1321.16 1481.67 Q1318.11 1477.06 1318.11 1468.33 Q1318.11 1459.58 1321.16 1455 Q1324.24 1450.39 1330.05 1450.39 Z" fill="#000000" fill-rule="nonzero" fill-opacity="1" /><path clip-path="url(#clip510)" d="M1754.97 1451.02 L1777.19 1451.02 L1777.19 1453.01 L1764.64 1485.58 L1759.76 1485.58 L1771.57 1454.96 L1754.97 1454.96 L1754.97 1451.02 Z" fill="#000000" fill-rule="nonzero" fill-opacity="1" /><path clip-path="url(#clip510)" d="M1786.36 1451.02 L1804.71 1451.02 L1804.71 1454.96 L1790.64 1454.96 L1790.64 1463.43 Q1791.66 1463.08 1792.68 1462.92 Q1793.7 1462.73 1794.71 1462.73 Q1800.5 1462.73 1803.88 1465.9 Q1807.26 1469.08 1807.26 1474.49 Q1807.26 1480.07 1803.79 1483.17 Q1800.32 1486.25 1794 1486.25 Q1791.82 1486.25 1789.55 1485.88 Q1787.31 1485.51 1784.9 1484.77 L1784.9 1480.07 Q1786.98 1481.2 1789.21 1481.76 Q1791.43 1482.32 1793.9 1482.32 Q1797.91 1482.32 1800.25 1480.21 Q1802.58 1478.1 1802.58 1474.49 Q1802.58 1470.88 1800.25 1468.77 Q1797.91 1466.67 1793.9 1466.67 Q1792.03 1466.67 1790.15 1467.08 Q1788.3 1467.5 1786.36 1468.38 L1786.36 1451.02 Z" fill="#000000" fill-rule="nonzero" fill-opacity="1" /><path clip-path="url(#clip510)" d="M1826.47 1454.1 Q1822.86 1454.1 1821.03 1457.66 Q1819.23 1461.2 1819.23 1468.33 Q1819.23 1475.44 1821.03 1479.01 Q1822.86 1482.55 1826.47 1482.55 Q1830.11 1482.55 1831.91 1479.01 Q1833.74 1475.44 1833.74 1468.33 Q1833.74 1461.2 1831.91 1457.66 Q1830.11 1454.1 1826.47 1454.1 M1826.47 1450.39 Q1832.28 1450.39 1835.34 1455 Q1838.42 1459.58 1838.42 1468.33 Q1838.42 1477.06 1835.34 1481.67 Q1832.28 1486.25 1826.47 1486.25 Q1820.66 1486.25 1817.58 1481.67 Q1814.53 1477.06 1814.53 1468.33 Q1814.53 1459.58 1817.58 1455 Q1820.66 1450.39 1826.47 1450.39 Z" fill="#000000" fill-rule="nonzero" fill-opacity="1" /><path clip-path="url(#clip510)" d="M2237.76 1481.64 L2245.4 1481.64 L2245.4 1455.28 L2237.09 1456.95 L2237.09 1452.69 L2245.35 1451.02 L2250.03 1451.02 L2250.03 1481.64 L2257.66 1481.64 L2257.66 1485.58 L2237.76 1485.58 L2237.76 1481.64 Z" fill="#000000" fill-rule="nonzero" fill-opacity="1" /><path clip-path="url(#clip510)" d="M2277.11 1454.1 Q2273.5 1454.1 2271.67 1457.66 Q2269.86 1461.2 2269.86 1468.33 Q2269.86 1475.44 2271.67 1479.01 Q2273.5 1482.55 2277.11 1482.55 Q2280.74 1482.55 2282.55 1479.01 Q2284.38 1475.44 2284.38 1468.33 Q2284.38 1461.2 2282.55 1457.66 Q2280.74 1454.1 2277.11 1454.1 M2277.11 1450.39 Q2282.92 1450.39 2285.97 1455 Q2289.05 1459.58 2289.05 1468.33 Q2289.05 1477.06 2285.97 1481.67 Q2282.92 1486.25 2277.11 1486.25 Q2271.3 1486.25 2268.22 1481.67 Q2265.16 1477.06 2265.16 1468.33 Q2265.16 1459.58 2268.22 1455 Q2271.3 1450.39 2277.11 1450.39 Z" fill="#000000" fill-rule="nonzero" fill-opacity="1" /><path clip-path="url(#clip510)" d="M2307.27 1454.1 Q2303.66 1454.1 2301.83 1457.66 Q2300.02 1461.2 2300.02 1468.33 Q2300.02 1475.44 2301.83 1479.01 Q2303.66 1482.55 2307.27 1482.55 Q2310.9 1482.55 2312.71 1479.01 Q2314.54 1475.44 2314.54 1468.33 Q2314.54 1461.2 2312.71 1457.66 Q2310.9 1454.1 2307.27 1454.1 M2307.27 1450.39 Q2313.08 1450.39 2316.14 1455 Q2319.21 1459.58 2319.21 1468.33 Q2319.21 1477.06 2316.14 1481.67 Q2313.08 1486.25 2307.27 1486.25 Q2301.46 1486.25 2298.38 1481.67 Q2295.33 1477.06 2295.33 1468.33 Q2295.33 1459.58 2298.38 1455 Q2301.46 1450.39 2307.27 1450.39 Z" fill="#000000" fill-rule="nonzero" fill-opacity="1" /><path clip-path="url(#clip510)" d="M2337.43 1454.1 Q2333.82 1454.1 2331.99 1457.66 Q2330.19 1461.2 2330.19 1468.33 Q2330.19 1475.44 2331.99 1479.01 Q2333.82 1482.55 2337.43 1482.55 Q2341.07 1482.55 2342.87 1479.01 Q2344.7 1475.44 2344.7 1468.33 Q2344.7 1461.2 2342.87 1457.66 Q2341.07 1454.1 2337.43 1454.1 M2337.43 1450.39 Q2343.24 1450.39 2346.3 1455 Q2349.38 1459.58 2349.38 1468.33 Q2349.38 1477.06 2346.3 1481.67 Q2343.24 1486.25 2337.43 1486.25 Q2331.62 1486.25 2328.54 1481.67 Q2325.49 1477.06 2325.49 1468.33 Q2325.49 1459.58 2328.54 1455 Q2331.62 1450.39 2337.43 1450.39 Z" fill="#000000" fill-rule="nonzero" fill-opacity="1" /><path clip-path="url(#clip510)" d="M1261.46 1522.08 L1261.46 1528.35 Q1257.8 1526.6 1254.55 1525.74 Q1251.31 1524.88 1248.28 1524.88 Q1243.03 1524.88 1240.17 1526.92 Q1237.33 1528.96 1237.33 1532.71 Q1237.33 1535.87 1239.21 1537.49 Q1241.12 1539.08 1246.4 1540.07 L1250.29 1540.86 Q1257.48 1542.23 1260.89 1545.7 Q1264.32 1549.14 1264.32 1554.93 Q1264.32 1561.84 1259.68 1565.4 Q1255.06 1568.97 1246.12 1568.97 Q1242.74 1568.97 1238.92 1568.2 Q1235.14 1567.44 1231.06 1565.94 L1231.06 1559.32 Q1234.98 1561.52 1238.73 1562.63 Q1242.49 1563.75 1246.12 1563.75 Q1251.62 1563.75 1254.62 1561.58 Q1257.61 1559.42 1257.61 1555.41 Q1257.61 1551.91 1255.44 1549.93 Q1253.31 1547.96 1248.41 1546.97 L1244.49 1546.21 Q1237.3 1544.78 1234.09 1541.72 Q1230.87 1538.67 1230.87 1533.22 Q1230.87 1526.92 1235.3 1523.29 Q1239.75 1519.66 1247.55 1519.66 Q1250.89 1519.66 1254.36 1520.27 Q1257.83 1520.87 1261.46 1522.08 Z" fill="#000000" fill-rule="nonzero" fill-opacity="1" /><path clip-path="url(#clip510)" d="M1279.89 1522.27 L1279.89 1532.4 L1291.95 1532.4 L1291.95 1536.95 L1279.89 1536.95 L1279.89 1556.3 Q1279.89 1560.66 1281.07 1561.9 Q1282.27 1563.14 1285.93 1563.14 L1291.95 1563.14 L1291.95 1568.04 L1285.93 1568.04 Q1279.16 1568.04 1276.58 1565.53 Q1274 1562.98 1274 1556.3 L1274 1536.95 L1269.7 1536.95 L1269.7 1532.4 L1274 1532.4 L1274 1522.27 L1279.89 1522.27 Z" fill="#000000" fill-rule="nonzero" fill-opacity="1" /><path clip-path="url(#clip510)" d="M1330.14 1548.76 L1330.14 1551.62 L1303.22 1551.62 Q1303.6 1557.67 1306.85 1560.85 Q1310.12 1564 1315.95 1564 Q1319.32 1564 1322.47 1563.17 Q1325.66 1562.35 1328.78 1560.69 L1328.78 1566.23 Q1325.63 1567.57 1322.31 1568.27 Q1319 1568.97 1315.6 1568.97 Q1307.07 1568.97 1302.07 1564 Q1297.11 1559.04 1297.11 1550.57 Q1297.11 1541.82 1301.82 1536.69 Q1306.56 1531.54 1314.58 1531.54 Q1321.77 1531.54 1325.94 1536.18 Q1330.14 1540.8 1330.14 1548.76 M1324.29 1547.04 Q1324.22 1542.23 1321.58 1539.37 Q1318.97 1536.5 1314.64 1536.5 Q1309.74 1536.5 1306.78 1539.27 Q1303.85 1542.04 1303.41 1547.07 L1324.29 1547.04 Z" fill="#000000" fill-rule="nonzero" fill-opacity="1" /><path clip-path="url(#clip510)" d="M1345.42 1562.7 L1345.42 1581.6 L1339.53 1581.6 L1339.53 1532.4 L1345.42 1532.4 L1345.42 1537.81 Q1347.27 1534.62 1350.07 1533.1 Q1352.9 1531.54 1356.82 1531.54 Q1363.31 1531.54 1367.35 1536.69 Q1371.43 1541.85 1371.43 1550.25 Q1371.43 1558.65 1367.35 1563.81 Q1363.31 1568.97 1356.82 1568.97 Q1352.9 1568.97 1350.07 1567.44 Q1347.27 1565.88 1345.42 1562.7 M1365.35 1550.25 Q1365.35 1543.79 1362.67 1540.13 Q1360.03 1536.44 1355.38 1536.44 Q1350.74 1536.44 1348.06 1540.13 Q1345.42 1543.79 1345.42 1550.25 Q1345.42 1556.71 1348.06 1560.4 Q1350.74 1564.07 1355.38 1564.07 Q1360.03 1564.07 1362.67 1560.4 Q1365.35 1556.71 1365.35 1550.25 Z" fill="#000000" fill-rule="nonzero" fill-opacity="1" /><polyline clip-path="url(#clip512)" style="stroke:#000000; stroke-linecap:round; stroke-linejoin:round; stroke-width:2; stroke-opacity:0.1; fill:none" points="249.542,1414.92 2352.76,1414.92 "/>
<polyline clip-path="url(#clip512)" style="stroke:#000000; stroke-linecap:round; stroke-linejoin:round; stroke-width:2; stroke-opacity:0.1; fill:none" points="249.542,1084.46 2352.76,1084.46 "/>
<polyline clip-path="url(#clip512)" style="stroke:#000000; stroke-linecap:round; stroke-linejoin:round; stroke-width:2; stroke-opacity:0.1; fill:none" points="249.542,754.013 2352.76,754.013 "/>
<polyline clip-path="url(#clip512)" style="stroke:#000000; stroke-linecap:round; stroke-linejoin:round; stroke-width:2; stroke-opacity:0.1; fill:none" points="249.542,423.561 2352.76,423.561 "/>
<polyline clip-path="url(#clip512)" style="stroke:#000000; stroke-linecap:round; stroke-linejoin:round; stroke-width:2; stroke-opacity:0.1; fill:none" points="249.542,93.109 2352.76,93.109 "/>
<polyline clip-path="url(#clip510)" style="stroke:#000000; stroke-linecap:round; stroke-linejoin:round; stroke-width:4; stroke-opacity:1; fill:none" points="249.542,1423.18 249.542,47.2441 "/>
<polyline clip-path="url(#clip510)" style="stroke:#000000; stroke-linecap:round; stroke-linejoin:round; stroke-width:4; stroke-opacity:1; fill:none" points="249.542,1414.92 268.44,1414.92 "/>
<polyline clip-path="url(#clip510)" style="stroke:#000000; stroke-linecap:round; stroke-linejoin:round; stroke-width:4; stroke-opacity:1; fill:none" points="249.542,1084.46 268.44,1084.46 "/>
<polyline clip-path="url(#clip510)" style="stroke:#000000; stroke-linecap:round; stroke-linejoin:round; stroke-width:4; stroke-opacity:1; fill:none" points="249.542,754.013 268.44,754.013 "/>
<polyline clip-path="url(#clip510)" style="stroke:#000000; stroke-linecap:round; stroke-linejoin:round; stroke-width:4; stroke-opacity:1; fill:none" points="249.542,423.561 268.44,423.561 "/>
<polyline clip-path="url(#clip510)" style="stroke:#000000; stroke-linecap:round; stroke-linejoin:round; stroke-width:4; stroke-opacity:1; fill:none" points="249.542,93.109 268.44,93.109 "/>
<path clip-path="url(#clip510)" d="M126.205 1400.72 Q122.593 1400.72 120.765 1404.28 Q118.959 1407.82 118.959 1414.95 Q118.959 1422.06 120.765 1425.62 Q122.593 1429.16 126.205 1429.16 Q129.839 1429.16 131.644 1425.62 Q133.473 1422.06 133.473 1414.95 Q133.473 1407.82 131.644 1404.28 Q129.839 1400.72 126.205 1400.72 M126.205 1397.01 Q132.015 1397.01 135.07 1401.62 Q138.149 1406.2 138.149 1414.95 Q138.149 1423.68 135.07 1428.28 Q132.015 1432.87 126.205 1432.87 Q120.394 1432.87 117.316 1428.28 Q114.26 1423.68 114.26 1414.95 Q114.26 1406.2 117.316 1401.62 Q120.394 1397.01 126.205 1397.01 Z" fill="#000000" fill-rule="nonzero" fill-opacity="1" /><path clip-path="url(#clip510)" d="M146.366 1426.32 L151.251 1426.32 L151.251 1432.2 L146.366 1432.2 L146.366 1426.32 Z" fill="#000000" fill-rule="nonzero" fill-opacity="1" /><path clip-path="url(#clip510)" d="M161.575 1431.48 L161.575 1427.22 Q163.334 1428.05 165.14 1428.49 Q166.945 1428.93 168.681 1428.93 Q173.311 1428.93 175.741 1425.83 Q178.195 1422.71 178.542 1416.36 Q177.2 1418.35 175.139 1419.42 Q173.079 1420.48 170.579 1420.48 Q165.394 1420.48 162.362 1417.36 Q159.353 1414.21 159.353 1408.77 Q159.353 1403.45 162.501 1400.23 Q165.649 1397.01 170.88 1397.01 Q176.876 1397.01 180.024 1401.62 Q183.195 1406.2 183.195 1414.95 Q183.195 1423.12 179.306 1428.01 Q175.44 1432.87 168.889 1432.87 Q167.13 1432.87 165.325 1432.52 Q163.519 1432.17 161.575 1431.48 M170.88 1416.83 Q174.028 1416.83 175.857 1414.67 Q177.709 1412.52 177.709 1408.77 Q177.709 1405.04 175.857 1402.89 Q174.028 1400.72 170.88 1400.72 Q167.732 1400.72 165.88 1402.89 Q164.052 1405.04 164.052 1408.77 Q164.052 1412.52 165.88 1414.67 Q167.732 1416.83 170.88 1416.83 Z" fill="#000000" fill-rule="nonzero" fill-opacity="1" /><path clip-path="url(#clip510)" d="M201.598 1400.72 Q197.987 1400.72 196.158 1404.28 Q194.352 1407.82 194.352 1414.95 Q194.352 1422.06 196.158 1425.62 Q197.987 1429.16 201.598 1429.16 Q205.232 1429.16 207.037 1425.62 Q208.866 1422.06 208.866 1414.95 Q208.866 1407.82 207.037 1404.28 Q205.232 1400.72 201.598 1400.72 M201.598 1397.01 Q207.408 1397.01 210.463 1401.62 Q213.542 1406.2 213.542 1414.95 Q213.542 1423.68 210.463 1428.28 Q207.408 1432.87 201.598 1432.87 Q195.787 1432.87 192.709 1428.28 Q189.653 1423.68 189.653 1414.95 Q189.653 1406.2 192.709 1401.62 Q195.787 1397.01 201.598 1397.01 Z" fill="#000000" fill-rule="nonzero" fill-opacity="1" /><path clip-path="url(#clip510)" d="M127.2 1070.26 Q123.589 1070.26 121.76 1073.83 Q119.955 1077.37 119.955 1084.5 Q119.955 1091.61 121.76 1095.17 Q123.589 1098.71 127.2 1098.71 Q130.834 1098.71 132.64 1095.17 Q134.468 1091.61 134.468 1084.5 Q134.468 1077.37 132.64 1073.83 Q130.834 1070.26 127.2 1070.26 M127.2 1066.56 Q133.01 1066.56 136.066 1071.17 Q139.144 1075.75 139.144 1084.5 Q139.144 1093.23 136.066 1097.83 Q133.01 1102.42 127.2 1102.42 Q121.39 1102.42 118.311 1097.83 Q115.256 1093.23 115.256 1084.5 Q115.256 1075.75 118.311 1071.17 Q121.39 1066.56 127.2 1066.56 Z" fill="#000000" fill-rule="nonzero" fill-opacity="1" /><path clip-path="url(#clip510)" d="M147.362 1095.87 L152.246 1095.87 L152.246 1101.74 L147.362 1101.74 L147.362 1095.87 Z" fill="#000000" fill-rule="nonzero" fill-opacity="1" /><path clip-path="url(#clip510)" d="M162.57 1101.03 L162.57 1096.77 Q164.329 1097.6 166.135 1098.04 Q167.94 1098.48 169.677 1098.48 Q174.306 1098.48 176.737 1095.38 Q179.19 1092.25 179.538 1085.91 Q178.195 1087.9 176.135 1088.97 Q174.075 1090.03 171.575 1090.03 Q166.39 1090.03 163.357 1086.91 Q160.348 1083.76 160.348 1078.32 Q160.348 1072.99 163.496 1069.78 Q166.644 1066.56 171.876 1066.56 Q177.871 1066.56 181.019 1071.17 Q184.19 1075.75 184.19 1084.5 Q184.19 1092.67 180.301 1097.55 Q176.436 1102.42 169.885 1102.42 Q168.126 1102.42 166.32 1102.07 Q164.515 1101.72 162.57 1101.03 M171.876 1086.37 Q175.024 1086.37 176.852 1084.22 Q178.704 1082.07 178.704 1078.32 Q178.704 1074.59 176.852 1072.44 Q175.024 1070.26 171.876 1070.26 Q168.727 1070.26 166.876 1072.44 Q165.047 1074.59 165.047 1078.32 Q165.047 1082.07 166.876 1084.22 Q168.727 1086.37 171.876 1086.37 Z" fill="#000000" fill-rule="nonzero" fill-opacity="1" /><path clip-path="url(#clip510)" d="M192.639 1067.18 L210.996 1067.18 L210.996 1071.12 L196.922 1071.12 L196.922 1079.59 Q197.94 1079.24 198.959 1079.08 Q199.977 1078.9 200.996 1078.9 Q206.783 1078.9 210.162 1082.07 Q213.542 1085.24 213.542 1090.66 Q213.542 1096.24 210.07 1099.34 Q206.598 1102.42 200.278 1102.42 Q198.102 1102.42 195.834 1102.05 Q193.588 1101.68 191.181 1100.93 L191.181 1096.24 Q193.264 1097.37 195.487 1097.93 Q197.709 1098.48 200.186 1098.48 Q204.19 1098.48 206.528 1096.37 Q208.866 1094.27 208.866 1090.66 Q208.866 1087.05 206.528 1084.94 Q204.19 1082.83 200.186 1082.83 Q198.311 1082.83 196.436 1083.25 Q194.584 1083.67 192.639 1084.55 L192.639 1067.18 Z" fill="#000000" fill-rule="nonzero" fill-opacity="1" /><path clip-path="url(#clip510)" d="M117.015 767.358 L124.654 767.358 L124.654 740.992 L116.343 742.659 L116.343 738.399 L124.607 736.733 L129.283 736.733 L129.283 767.358 L136.922 767.358 L136.922 771.293 L117.015 771.293 L117.015 767.358 Z" fill="#000000" fill-rule="nonzero" fill-opacity="1" /><path clip-path="url(#clip510)" d="M146.366 765.413 L151.251 765.413 L151.251 771.293 L146.366 771.293 L146.366 765.413 Z" fill="#000000" fill-rule="nonzero" fill-opacity="1" /><path clip-path="url(#clip510)" d="M171.436 739.812 Q167.825 739.812 165.996 743.376 Q164.19 746.918 164.19 754.048 Q164.19 761.154 165.996 764.719 Q167.825 768.26 171.436 768.26 Q175.07 768.26 176.876 764.719 Q178.704 761.154 178.704 754.048 Q178.704 746.918 176.876 743.376 Q175.07 739.812 171.436 739.812 M171.436 736.108 Q177.246 736.108 180.301 740.714 Q183.38 745.298 183.38 754.048 Q183.38 762.774 180.301 767.381 Q177.246 771.964 171.436 771.964 Q165.626 771.964 162.547 767.381 Q159.491 762.774 159.491 754.048 Q159.491 745.298 162.547 740.714 Q165.626 736.108 171.436 736.108 Z" fill="#000000" fill-rule="nonzero" fill-opacity="1" /><path clip-path="url(#clip510)" d="M201.598 739.812 Q197.987 739.812 196.158 743.376 Q194.352 746.918 194.352 754.048 Q194.352 761.154 196.158 764.719 Q197.987 768.26 201.598 768.26 Q205.232 768.26 207.037 764.719 Q208.866 761.154 208.866 754.048 Q208.866 746.918 207.037 743.376 Q205.232 739.812 201.598 739.812 M201.598 736.108 Q207.408 736.108 210.463 740.714 Q213.542 745.298 213.542 754.048 Q213.542 762.774 210.463 767.381 Q207.408 771.964 201.598 771.964 Q195.787 771.964 192.709 767.381 Q189.653 762.774 189.653 754.048 Q189.653 745.298 192.709 740.714 Q195.787 736.108 201.598 736.108 Z" fill="#000000" fill-rule="nonzero" fill-opacity="1" /><path clip-path="url(#clip510)" d="M118.01 436.906 L125.649 436.906 L125.649 410.54 L117.339 412.207 L117.339 407.948 L125.603 406.281 L130.279 406.281 L130.279 436.906 L137.917 436.906 L137.917 440.841 L118.01 440.841 L118.01 436.906 Z" fill="#000000" fill-rule="nonzero" fill-opacity="1" /><path clip-path="url(#clip510)" d="M147.362 434.961 L152.246 434.961 L152.246 440.841 L147.362 440.841 L147.362 434.961 Z" fill="#000000" fill-rule="nonzero" fill-opacity="1" /><path clip-path="url(#clip510)" d="M172.431 409.36 Q168.82 409.36 166.991 412.924 Q165.186 416.466 165.186 423.596 Q165.186 430.702 166.991 434.267 Q168.82 437.809 172.431 437.809 Q176.065 437.809 177.871 434.267 Q179.7 430.702 179.7 423.596 Q179.7 416.466 177.871 412.924 Q176.065 409.36 172.431 409.36 M172.431 405.656 Q178.241 405.656 181.297 410.262 Q184.376 414.846 184.376 423.596 Q184.376 432.322 181.297 436.929 Q178.241 441.512 172.431 441.512 Q166.621 441.512 163.542 436.929 Q160.487 432.322 160.487 423.596 Q160.487 414.846 163.542 410.262 Q166.621 405.656 172.431 405.656 Z" fill="#000000" fill-rule="nonzero" fill-opacity="1" /><path clip-path="url(#clip510)" d="M192.639 406.281 L210.996 406.281 L210.996 410.216 L196.922 410.216 L196.922 418.688 Q197.94 418.341 198.959 418.179 Q199.977 417.994 200.996 417.994 Q206.783 417.994 210.162 421.165 Q213.542 424.336 213.542 429.753 Q213.542 435.332 210.07 438.434 Q206.598 441.512 200.278 441.512 Q198.102 441.512 195.834 441.142 Q193.588 440.771 191.181 440.031 L191.181 435.332 Q193.264 436.466 195.487 437.021 Q197.709 437.577 200.186 437.577 Q204.19 437.577 206.528 435.471 Q208.866 433.364 208.866 429.753 Q208.866 426.142 206.528 424.035 Q204.19 421.929 200.186 421.929 Q198.311 421.929 196.436 422.346 Q194.584 422.762 192.639 423.642 L192.639 406.281 Z" fill="#000000" fill-rule="nonzero" fill-opacity="1" /><path clip-path="url(#clip510)" d="M117.015 106.454 L124.654 106.454 L124.654 80.0882 L116.343 81.7549 L116.343 77.4956 L124.607 75.829 L129.283 75.829 L129.283 106.454 L136.922 106.454 L136.922 110.389 L117.015 110.389 L117.015 106.454 Z" fill="#000000" fill-rule="nonzero" fill-opacity="1" /><path clip-path="url(#clip510)" d="M146.366 104.509 L151.251 104.509 L151.251 110.389 L146.366 110.389 L146.366 104.509 Z" fill="#000000" fill-rule="nonzero" fill-opacity="1" /><path clip-path="url(#clip510)" d="M162.246 106.454 L169.885 106.454 L169.885 80.0882 L161.575 81.7549 L161.575 77.4956 L169.839 75.829 L174.514 75.829 L174.514 106.454 L182.153 106.454 L182.153 110.389 L162.246 110.389 L162.246 106.454 Z" fill="#000000" fill-rule="nonzero" fill-opacity="1" /><path clip-path="url(#clip510)" d="M201.598 78.9077 Q197.987 78.9077 196.158 82.4725 Q194.352 86.0141 194.352 93.1437 Q194.352 100.25 196.158 103.815 Q197.987 107.357 201.598 107.357 Q205.232 107.357 207.037 103.815 Q208.866 100.25 208.866 93.1437 Q208.866 86.0141 207.037 82.4725 Q205.232 78.9077 201.598 78.9077 M201.598 75.204 Q207.408 75.204 210.463 79.8104 Q213.542 84.3937 213.542 93.1437 Q213.542 101.871 210.463 106.477 Q207.408 111.06 201.598 111.06 Q195.787 111.06 192.709 106.477 Q189.653 101.871 189.653 93.1437 Q189.653 84.3937 192.709 79.8104 Q195.787 75.204 201.598 75.204 Z" fill="#000000" fill-rule="nonzero" fill-opacity="1" /><path clip-path="url(#clip510)" d="M41.3104 920.709 L58.7206 920.709 L58.7206 910.396 Q58.7206 905.208 56.5881 902.726 Q54.4238 900.211 49.9996 900.211 Q45.5436 900.211 43.4429 902.726 Q41.3104 905.208 41.3104 910.396 L41.3104 920.709 M21.7677 920.709 L36.0905 920.709 L36.0905 911.192 Q36.0905 906.481 34.34 904.19 Q32.5576 901.866 28.9291 901.866 Q25.3325 901.866 23.5501 904.19 Q21.7677 906.481 21.7677 911.192 L21.7677 920.709 M16.4842 927.138 L16.4842 910.715 Q16.4842 903.362 19.5397 899.384 Q22.5952 895.405 28.2289 895.405 Q32.5894 895.405 35.1675 897.442 Q37.7456 899.479 38.3822 903.426 Q39.4007 898.683 42.6472 896.073 Q45.8619 893.432 50.6998 893.432 Q57.0655 893.432 60.5348 897.76 Q64.0042 902.089 64.0042 910.078 L64.0042 927.138 L16.4842 927.138 Z" fill="#000000" fill-rule="nonzero" fill-opacity="1" /><path clip-path="url(#clip510)" d="M32.4621 868.86 Q32.4621 873.571 36.1542 876.308 Q39.8145 879.045 46.212 879.045 Q52.6095 879.045 56.3017 876.34 Q59.9619 873.602 59.9619 868.86 Q59.9619 864.181 56.2698 861.444 Q52.5777 858.707 46.212 858.707 Q39.8781 858.707 36.186 861.444 Q32.4621 864.181 32.4621 868.86 M27.4968 868.86 Q27.4968 861.221 32.4621 856.861 Q37.4273 852.5 46.212 852.5 Q54.9649 852.5 59.9619 856.861 Q64.9272 861.221 64.9272 868.86 Q64.9272 876.531 59.9619 880.891 Q54.9649 885.22 46.212 885.22 Q37.4273 885.22 32.4621 880.891 Q27.4968 876.531 27.4968 868.86 Z" fill="#000000" fill-rule="nonzero" fill-opacity="1" /><path clip-path="url(#clip510)" d="M42.4881 813.16 L64.0042 813.16 L64.0042 819.016 L42.679 819.016 Q37.6183 819.016 35.1038 820.99 Q32.5894 822.963 32.5894 826.91 Q32.5894 831.652 35.6131 834.39 Q38.6368 837.127 43.8567 837.127 L64.0042 837.127 L64.0042 843.015 L28.3562 843.015 L28.3562 837.127 L33.8944 837.127 Q30.6797 835.026 29.0883 832.194 Q27.4968 829.329 27.4968 825.605 Q27.4968 819.462 31.3163 816.311 Q35.1038 813.16 42.4881 813.16 Z" fill="#000000" fill-rule="nonzero" fill-opacity="1" /><path clip-path="url(#clip510)" d="M33.7671 778.021 L14.479 778.021 L14.479 772.165 L64.0042 772.165 L64.0042 778.021 L58.657 778.021 Q61.8398 779.867 63.3994 782.7 Q64.9272 785.501 64.9272 789.448 Q64.9272 795.909 59.771 799.983 Q54.6147 804.025 46.212 804.025 Q37.8093 804.025 32.6531 799.983 Q27.4968 795.909 27.4968 789.448 Q27.4968 785.501 29.0564 782.7 Q30.5842 779.867 33.7671 778.021 M46.212 797.978 Q52.6732 797.978 56.3653 795.336 Q60.0256 792.662 60.0256 788.016 Q60.0256 783.369 56.3653 780.695 Q52.6732 778.021 46.212 778.021 Q39.7508 778.021 36.0905 780.695 Q32.3984 783.369 32.3984 788.016 Q32.3984 792.662 36.0905 795.336 Q39.7508 797.978 46.212 797.978 Z" fill="#000000" fill-rule="nonzero" fill-opacity="1" /><path clip-path="url(#clip510)" d="M14.479 739.382 L14.479 733.525 L64.0042 733.525 L64.0042 739.382 L14.479 739.382 Z" fill="#000000" fill-rule="nonzero" fill-opacity="1" /><path clip-path="url(#clip510)" d="M44.7161 690.779 L47.5806 690.779 L47.5806 717.706 Q53.6281 717.324 56.8109 714.078 Q59.9619 710.799 59.9619 704.975 Q59.9619 701.601 59.1344 698.45 Q58.3069 695.267 56.6518 692.148 L62.1899 692.148 Q63.5267 695.299 64.227 698.609 Q64.9272 701.919 64.9272 705.325 Q64.9272 713.855 59.9619 718.852 Q54.9967 723.817 46.5303 723.817 Q37.7774 723.817 32.6531 719.107 Q27.4968 714.364 27.4968 706.343 Q27.4968 699.15 32.1438 694.981 Q36.7589 690.779 44.7161 690.779 M42.9973 696.636 Q38.1912 696.699 35.3266 699.341 Q32.4621 701.951 32.4621 706.28 Q32.4621 711.181 35.2312 714.141 Q38.0002 717.07 43.0292 717.515 L42.9973 696.636 Z" fill="#000000" fill-rule="nonzero" fill-opacity="1" /><path clip-path="url(#clip510)" d="M42.4881 651.535 L64.0042 651.535 L64.0042 657.391 L42.679 657.391 Q37.6183 657.391 35.1038 659.365 Q32.5894 661.338 32.5894 665.285 Q32.5894 670.027 35.6131 672.764 Q38.6368 675.502 43.8567 675.502 L64.0042 675.502 L64.0042 681.39 L28.3562 681.39 L28.3562 675.502 L33.8944 675.502 Q30.6797 673.401 29.0883 670.568 Q27.4968 667.704 27.4968 663.98 Q27.4968 657.837 31.3163 654.686 Q35.1038 651.535 42.4881 651.535 Z" fill="#000000" fill-rule="nonzero" fill-opacity="1" /><path clip-path="url(#clip510)" d="M45.7664 616.396 Q39.4007 616.396 35.8996 619.038 Q32.3984 621.648 32.3984 626.39 Q32.3984 631.101 35.8996 633.743 Q39.4007 636.353 45.7664 636.353 Q52.1003 636.353 55.6014 633.743 Q59.1026 631.101 59.1026 626.39 Q59.1026 621.648 55.6014 619.038 Q52.1003 616.396 45.7664 616.396 M59.58 610.54 Q68.683 610.54 73.1071 614.582 Q77.5631 618.624 77.5631 626.963 Q77.5631 630.05 77.0857 632.788 Q76.6401 635.525 75.6852 638.103 L69.9879 638.103 Q71.3884 635.525 72.0568 633.011 Q72.7252 630.496 72.7252 627.886 Q72.7252 622.125 69.7015 619.261 Q66.7096 616.396 60.6303 616.396 L57.7339 616.396 Q60.885 618.21 62.4446 621.043 Q64.0042 623.876 64.0042 627.822 Q64.0042 634.379 59.0071 638.39 Q54.01 642.4 45.7664 642.4 Q37.491 642.4 32.4939 638.39 Q27.4968 634.379 27.4968 627.822 Q27.4968 623.876 29.0564 621.043 Q30.616 618.21 33.7671 616.396 L28.3562 616.396 L28.3562 610.54 L59.58 610.54 Z" fill="#000000" fill-rule="nonzero" fill-opacity="1" /><path clip-path="url(#clip510)" d="M18.2347 592.684 L28.3562 592.684 L28.3562 580.621 L32.9077 580.621 L32.9077 592.684 L52.2594 592.684 Q56.6199 592.684 57.8613 591.506 Q59.1026 590.297 59.1026 586.636 L59.1026 580.621 L64.0042 580.621 L64.0042 586.636 Q64.0042 593.416 61.4897 595.994 Q58.9434 598.572 52.2594 598.572 L32.9077 598.572 L32.9077 602.869 L28.3562 602.869 L28.3562 598.572 L18.2347 598.572 L18.2347 592.684 Z" fill="#000000" fill-rule="nonzero" fill-opacity="1" /><path clip-path="url(#clip510)" d="M42.4881 543.286 L64.0042 543.286 L64.0042 549.142 L42.679 549.142 Q37.6183 549.142 35.1038 551.116 Q32.5894 553.089 32.5894 557.036 Q32.5894 561.778 35.6131 564.516 Q38.6368 567.253 43.8567 567.253 L64.0042 567.253 L64.0042 573.141 L14.479 573.141 L14.479 567.253 L33.8944 567.253 Q30.6797 565.152 29.0883 562.319 Q27.4968 559.455 27.4968 555.731 Q27.4968 549.588 31.3163 546.437 Q35.1038 543.286 42.4881 543.286 Z" fill="#000000" fill-rule="nonzero" fill-opacity="1" /><polyline clip-path="url(#clip512)" style="stroke:#009af9; stroke-linecap:round; stroke-linejoin:round; stroke-width:4; stroke-opacity:1; fill:none" points="309.067,700.104 311.053,480.076 313.039,775.6 315.025,754.44 317.012,848.279 318.998,798.015 320.984,787.073 322.97,673.642 324.956,452.707 326.942,892.117 328.928,745.982 330.915,822.531 332.901,688.138 334.887,698.469 336.873,743.012 338.859,743.012 340.845,588.927 342.832,1017.44 344.818,375.512 346.804,1197.52 348.79,784.38 350.776,724.918 352.762,657.112 354.748,361.351 356.735,209.487 358.721,611.028 360.707,826.89 362.693,708.453 364.679,814.477 366.665,830.55 368.651,486.426 370.638,734.155 372.624,1017.07 374.61,875.05 376.596,773.944 378.582,675.046 380.568,673.97 382.555,812.928 384.541,822.43 386.527,560.26 388.513,518.569 390.499,948.501 392.485,492.873 394.471,695.199 396.458,1129.73 398.444,883.373 400.43,851.939 402.416,1080.2 404.402,796.822 406.388,547.68 408.374,920.915 410.361,1128.11 412.347,1016.38 414.333,1100.39 416.319,1019.63 418.305,185.886 420.291,875.976 422.278,645.425 424.264,635.17 426.25,852 428.236,845.016 430.222,652.98 432.208,595.475 434.194,640.666 436.181,447.723 438.167,989.096 440.153,646.832 442.139,628.022 444.125,534.516 446.111,888.028 448.097,586.068 450.084,1152.25 452.07,908.126 454.056,870.087 456.042,569.633 458.028,599.207 460.014,911.414 462.001,939.244 463.987,684.405 465.973,723.103 467.959,880.357 469.945,952.381 471.931,1070.23 473.917,696.629 475.904,983.075 477.89,610.441 479.876,696.077 481.862,971.949 483.848,954.906 485.834,603.275 487.82,845.288 489.807,693.968 491.793,787.725 493.779,999.56 495.765,904.677 497.751,935.95 499.737,495.275 501.724,677.163 503.71,917.208 505.696,488.795 507.682,947.629 509.668,975.107 511.654,817.934 513.64,824.57 515.627,934.999 517.613,275.667 519.599,944.074 521.585,1031.24 523.571,691.22 525.557,1203.23 527.543,963.302 529.53,725.058 531.516,869.62 533.502,856.902 535.488,495.377 537.474,706.6 539.46,647.419 541.447,511.554 543.433,671.664 545.419,1079.15 547.405,764.007 549.391,709.478 551.377,794.743 553.363,1055.31 555.35,845.142 557.336,677.044 559.322,834.282 561.308,976.105 563.294,315.226 565.28,823.755 567.266,730.084 569.253,670.924 571.239,666.977 573.225,1015.79 575.211,739.848 577.197,486.147 579.183,860.449 581.17,1031.07 583.156,1059.88 585.142,711.552 587.128,857.001 589.114,468.655 591.1,753.951 593.086,774.648 595.073,496.323 597.059,655.023 599.045,774.943 601.031,265.376 603.017,781.421 605.003,500.133 606.989,784.672 608.976,555.401 610.962,836.124 612.948,1008.98 614.934,856.116 616.92,701.517 618.906,1029.76 620.893,819.079 622.879,623.876 624.865,528.168 626.851,749.593 628.837,661.311 630.823,732.811 632.809,643.239 634.796,483.072 636.782,1035.95 638.768,623.943 640.754,669.534 642.74,973.953 644.726,803 646.712,940.074 648.699,664.639 650.685,607.635 652.671,639.269 654.657,392.82 656.643,678.735 658.629,918.531 660.616,731.444 662.602,1228.83 664.588,650.502 666.574,1065.89 668.56,872.622 670.546,765.571 672.532,945.923 674.519,1049.85 676.505,751.938 678.491,821.637 680.477,721.239 682.463,610.583 684.449,985.921 686.435,467.118 688.422,717.583 690.408,773.273 692.394,194.787 694.38,703.994 696.366,655.629 698.352,690.439 700.339,589.315 702.325,710.427 704.311,747.566 706.297,605.911 708.283,538.123 710.269,950.214 712.255,741.411 714.242,356.658 716.228,827.177 718.214,576.51 720.2,764.519 722.186,525.142 724.172,519.757 726.158,802.886 728.145,802.886 730.131,752.742 732.117,768.253 734.103,756.009 736.089,540.921 738.075,667.926 740.062,773.276 742.048,607.132 744.034,692.047 746.02,490.61 748.006,328.568 749.992,942.051 751.978,630.491 753.965,778.32 755.951,375.433 757.937,831.444 759.923,748.208 761.909,804.045 763.895,863.2 765.881,1057.1 767.868,967.029 769.854,691.863 771.84,634.456 773.826,646.814 775.812,508.414 777.798,716.648 779.785,915.548 781.771,535.858 783.757,534.018 785.743,1029.21 787.729,496.993 789.715,702.292 791.701,541.631 793.688,896.967 795.674,724.857 797.66,881.382 799.646,1086.24 801.632,728.902 803.618,507.638 805.604,772.134 807.591,696.668 809.577,696.11 811.563,786.192 813.549,533.825 815.535,871.727 817.521,763.449 819.508,753.365 821.494,439.948 823.48,363.621 825.466,341.401 827.452,828.605 829.438,616.888 831.424,758.736 833.411,602.813 835.397,995.587 837.383,556.569 839.369,837.889 841.355,880.374 843.341,486.003 845.328,552.663 847.314,952.799 849.3,1040.56 851.286,787.054 853.272,725.661 855.258,923.193 857.244,920.766 859.231,678.679 861.217,388.84 863.203,958.533 865.189,772.262 867.175,783.77 869.161,1126.6 871.147,1102.54 873.134,568.997 875.12,456.223 877.106,832.941 879.092,835.777 881.078,710.615 883.064,943.36 885.051,1198.21 887.037,676.524 889.023,848.451 891.009,662.677 892.995,724.985 894.981,417.119 896.967,402.255 898.954,973.364 900.94,714.742 902.926,671.523 904.912,688.001 906.898,556.508 908.884,866.947 910.87,660.576 912.857,601.188 914.843,978.351 916.829,692.709 918.815,692.709 920.801,441.868 922.787,745.676 924.774,745.676 926.76,926.711 928.746,821.272 930.732,686.141 932.718,983.313 934.704,864.817 936.69,454.456 938.677,591.525 940.663,543.779 942.649,563.38 944.635,584.588 946.621,1031.62 948.607,392.524 950.593,494.728 952.58,835.094 954.566,687.188 956.552,614.903 958.538,645.727 960.524,769.852 962.51,810.974 964.497,563.88 966.483,1051.52 968.469,654.293 970.455,659.163 972.441,808.325 974.427,828.397 976.413,797.176 978.4,824.799 980.386,863.5 982.372,1031.96 984.358,696.588 986.344,1104.8 988.33,1168.72 990.316,691.164 992.303,710.555 994.289,844.183 996.275,504.996 998.261,639.02 1000.25,612.968 1002.23,407.237 1004.22,671.38 1006.21,634.618 1008.19,557.79 1010.18,494.207 1012.16,1120.19 1014.15,952.855 1016.14,687.768 1018.12,1019.81 1020.11,757.361 1022.09,719.619 1024.08,722.924 1026.07,496.406 1028.05,670.205 1030.04,516.865 1032.03,384.155 1034.01,537.88 1036,309.175 1037.98,970.815 1039.97,444.779 1041.96,397.386 1043.94,593.072 1045.93,842.014 1047.91,183.04 1049.9,1045.83 1051.89,1004.96 1053.87,837.652 1055.86,850.712 1057.85,615.561 1059.83,793.427 1061.82,1234.56 1063.8,925.017 1065.79,546.625 1067.78,645.347 1069.76,1013 1071.75,626.72 1073.73,910.456 1075.72,816.956 1077.71,832.981 1079.69,889.663 1081.68,884.229 1083.67,894.042 1085.65,679.155 1087.64,545.522 1089.62,612.806 1091.61,642.94 1093.6,761.634 1095.58,520.845 1097.57,832.441 1099.55,1127.57 1101.54,964.875 1103.53,542.26 1105.51,706.561 1107.5,470.071 1109.49,749.886 1111.47,639.904 1113.46,870.815 1115.44,570.37 1117.43,905.502 1119.42,948.151 1121.4,825.447 1123.39,636.538 1125.37,896.49 1127.36,970.633 1129.35,1020.54 1131.33,383.271 1133.32,972.099 1135.31,392.837 1137.29,612.083 1139.28,574.315 1141.26,918.491 1143.25,441.198 1145.24,1121.17 1147.22,907.993 1149.21,568.464 1151.19,328.376 1153.18,1052.24 1155.17,938.092 1157.15,745.149 1159.14,637.749 1161.13,656.005 1163.11,392.207 1165.1,816.273 1167.08,1080.9 1169.07,791.547 1171.06,613.252 1173.04,1009.57 1175.03,484.272 1177.01,1033.06 1179,912.181 1180.99,334.22 1182.97,435.977 1184.96,744.102 1186.95,591.686 1188.93,753.566 1190.92,644.401 1192.9,571.874 1194.89,597.399 1196.88,719.434 1198.86,517.567 1200.85,315.676 1202.83,620.122 1204.82,1015.71 1206.81,775.017 1208.79,818.9 1210.78,824.614 1212.77,947.777 1214.75,785.423 1216.74,707.931 1218.72,626.175 1220.71,864.423 1222.7,793.506 1224.68,743.459 1226.67,766.638 1228.65,892.833 1230.64,589.794 1232.63,525.991 1234.61,632.845 1236.6,489.133 1238.59,695.847 1240.57,742.42 1242.56,933.724 1244.54,304.137 1246.53,587.874 1248.52,524.938 1250.5,803.374 1252.49,984.232 1254.47,823.881 1256.46,1062.37 1258.45,1053.78 1260.43,791.673 1262.42,561.379 1264.41,937.225 1266.39,426.641 1268.38,862.993 1270.36,696.248 1272.35,1008.7 1274.34,696.313 1276.32,883.146 1278.31,883.146 1280.29,809.699 1282.28,703.84 1284.27,702.256 1286.25,943.381 1288.24,686.284 1290.23,1187.89 1292.21,838.452 1294.2,511.163 1296.18,985.643 1298.17,310.025 1300.16,773.207 1302.14,924.194 1304.13,634.096 1306.11,565.668 1308.1,970.679 1310.09,679.639 1312.07,742.798 1314.06,580.433 1316.05,1097.73 1318.03,710.956 1320.02,958.399 1322,1054.44 1323.99,1159.99 1325.98,931.412 1327.96,525.713 1329.95,810.947 1331.93,405.513 1333.92,729.363 1335.91,906.772 1337.89,521.529 1339.88,898.17 1341.87,755.131 1343.85,643.215 1345.84,942.554 1347.82,519.864 1349.81,730.31 1351.8,609.758 1353.78,703.855 1355.77,770.107 1357.75,793.948 1359.74,1104.83 1361.73,528.209 1363.71,739.552 1365.7,518.669 1367.69,518.669 1369.67,565.71 1371.66,509.006 1373.64,538.896 1375.63,554.447 1377.62,871.164 1379.6,760.903 1381.59,561.931 1383.57,717.651 1385.56,472.931 1387.55,813.885 1389.53,556.841 1391.52,798.034 1393.5,298.317 1395.49,1133.6 1397.48,915.861 1399.46,997.11 1401.45,643.167 1403.44,373.064 1405.42,838.084 1407.41,655.683 1409.39,959.37 1411.38,1106.42 1413.37,423.549 1415.35,961.779 1417.34,794.135 1419.32,687.842 1421.31,983.797 1423.3,1057.01 1425.28,657.107 1427.27,821.812 1429.26,865.041 1431.24,443.497 1433.23,945.339 1435.21,538.681 1437.2,983.718 1439.19,773.831 1441.17,829.583 1443.16,410.58 1445.14,745.564 1447.13,554.65 1449.12,883.762 1451.1,977.66 1453.09,723.22 1455.08,723.22 1457.06,422.911 1459.05,604.891 1461.03,535.503 1463.02,946.662 1465.01,808.705 1466.99,608.221 1468.98,776.767 1470.96,776.767 1472.95,685.917 1474.94,673.716 1476.92,433.609 1478.91,758.006 1480.9,880.708 1482.88,595.606 1484.87,1151.59 1486.85,956.764 1488.84,828.109 1490.83,1123.96 1492.81,627.215 1494.8,888.128 1496.78,509.989 1498.77,338.103 1500.76,544.707 1502.74,731.331 1504.73,714.177 1506.72,949.464 1508.7,660.385 1510.69,671.043 1512.67,849.37 1514.66,550.156 1516.65,743.724 1518.63,820.807 1520.62,727.726 1522.6,416.314 1524.59,346.949 1526.58,590.538 1528.56,945.497 1530.55,576.102 1532.54,1063.12 1534.52,462.142 1536.51,707.973 1538.49,704.403 1540.48,737.563 1542.47,639.059 1544.45,388.784 1546.44,1073.89 1548.42,647.204 1550.41,964.867 1552.4,782.279 1554.38,310.306 1556.37,496.344 1558.36,508.599 1560.34,1023.66 1562.33,1095.49 1564.31,405.378 1566.3,520.944 1568.29,737.237 1570.27,1135.94 1572.26,706.8 1574.24,886.058 1576.23,794.926 1578.22,612.852 1580.2,830.077 1582.19,911.964 1584.18,807.93 1586.16,826.735 1588.15,813.747 1590.13,799.284 1592.12,913.277 1594.11,927.432 1596.09,845.223 1598.08,895.263 1600.06,158.803 1602.05,86.1857 1604.04,840.173 1606.02,910.596 1608.01,1094.66 1610,736.532 1611.98,836.24 1613.97,1209.94 1615.95,652.173 1617.94,660.277 1619.93,579.585 1621.91,691.782 1623.9,532.878 1625.88,626.983 1627.87,989.16 1629.86,573.074 1631.84,623.005 1633.83,322.47 1635.82,456.492 1637.8,695.889 1639.79,615.655 1641.77,788.234 1643.76,794.099 1645.75,1073.13 1647.73,468.027 1649.72,636.365 1651.7,598.14 1653.69,942.664 1655.68,874.683 1657.66,527.543 1659.65,836.513 1661.64,635.869 1663.62,532.974 1665.61,799.126 1667.59,973.825 1669.58,844.27 1671.57,584.781 1673.55,394.385 1675.54,751.294 1677.52,400.056 1679.51,985.358 1681.5,822.125 1683.48,1020.82 1685.47,1029.01 1687.46,693.201 1689.44,855.92 1691.43,904.919 1693.41,1087.96 1695.4,619.77 1697.39,576.374 1699.37,716.575 1701.36,888.494 1703.34,1135.24 1705.33,484.549 1707.32,1000.23 1709.3,590.811 1711.29,555.704 1713.28,606.672 1715.26,852.606 1717.25,1229.15 1719.23,498.528 1721.22,483.57 1723.21,764.057 1725.19,861.716 1727.18,802.576 1729.16,839.421 1731.15,532.419 1733.14,460.595 1735.12,940.712 1737.11,881.8 1739.1,860.99 1741.08,707.005 1743.07,1168.64 1745.05,671.421 1747.04,888.896 1749.03,860.736 1751.01,612.187 1753,1150.67 1754.98,782.91 1756.97,743.702 1758.96,671.301 1760.94,851.727 1762.93,454.789 1764.92,982.802 1766.9,735.398 1768.89,697.93 1770.87,956.068 1772.86,698.185 1774.85,933.197 1776.83,708.272 1778.82,751.069 1780.8,910.623 1782.79,789.002 1784.78,789.002 1786.76,515.405 1788.75,575.075 1790.73,696.376 1792.72,614.907 1794.71,739.909 1796.69,695.537 1798.68,255.171 1800.67,394.029 1802.65,803.842 1804.64,866.576 1806.62,707.602 1808.61,681.198 1810.6,346.181 1812.58,509.645 1814.57,1081.47 1816.55,505.471 1818.54,764.212 1820.53,758.172 1822.51,743.355 1824.5,1194.11 1826.49,689.677 1828.47,394.126 1830.46,634.505 1832.44,761.535 1834.43,734.031 1836.42,800.587 1838.4,551.631 1840.39,181.211 1842.37,878.75 1844.36,1056.44 1846.35,685.154 1848.33,484.702 1850.32,616.409 1852.31,757.918 1854.29,903.027 1856.28,1056.21 1858.26,530.424 1860.25,896.491 1862.24,665.918 1864.22,774.747 1866.21,825.414 1868.19,731.272 1870.18,657.963 1872.17,520.3 1874.15,828.994 1876.14,974.939 1878.13,721.133 1880.11,640.227 1882.1,702.391 1884.08,1006.85 1886.07,481.284 1888.06,827.035 1890.04,576.162 1892.03,436.022 1894.01,623.955 1896,908.65 1897.99,790.48 1899.97,564.383 1901.96,531.705 1903.95,635.017 1905.93,784.337 1907.92,671.188 1909.9,510.693 1911.89,543.315 1913.88,778.788 1915.86,725.196 1917.85,895.752 1919.83,614.537 1921.82,843.306 1923.81,526.252 1925.79,864.174 1927.78,933.354 1929.77,434.309 1931.75,745.405 1933.74,853.591 1935.72,767.135 1937.71,464.78 1939.7,938.014 1941.68,617.834 1943.67,469.892 1945.65,590.571 1947.64,810.068 1949.63,998.647 1951.61,707.529 1953.6,547.126 1955.59,746.402 1957.57,564.723 1959.56,302.319 1961.54,515.586 1963.53,602.594 1965.52,599.449 1967.5,1057.74 1969.49,572.284 1971.47,894.204 1973.46,788.513 1975.45,679.536 1977.43,685.227 1979.42,933.573 1981.41,815.763 1983.39,982.581 1985.38,899.106 1987.36,757.698 1989.35,474.443 1991.34,1384.24 1993.32,920.307 1995.31,292.786 1997.29,963.312 1999.28,801.067 2001.27,692.035 2003.25,803.744 2005.24,651.682 2007.23,681.922 2009.21,791.637 2011.2,904.958 2013.18,748.212 2015.17,906.406 2017.16,559.893 2019.14,563.846 2021.13,672.754 2023.11,682.812 2025.1,832.579 2027.09,544.43 2029.07,784.812 2031.06,782.595 2033.05,537.13 2035.03,897.875 2037.02,726.123 2039,669.978 2040.99,397.823 2042.98,610.187 2044.96,643.733 2046.95,772.953 2048.93,793.497 2050.92,981.272 2052.91,651.525 2054.89,733.167 2056.88,834.681 2058.87,577.916 2060.85,625.377 2062.84,885.289 2064.82,1051.72 2066.81,803.365 2068.8,551.172 2070.78,994.848 2072.77,849.527 2074.75,709.109 2076.74,1094.53 2078.73,970.312 2080.71,420.884 2082.7,891.886 2084.69,590.234 2086.67,915.58 2088.66,1034.9 2090.64,918.707 2092.63,743.483 2094.62,606.918 2096.6,718.574 2098.59,828.85 2100.57,1063.84 2102.56,664.593 2104.55,715.789 2106.53,486.522 2108.52,807.071 2110.51,600.259 2112.49,725.415 2114.48,838.394 2116.46,795.579 2118.45,955.83 2120.44,1095.42 2122.42,1132.84 2124.41,760.172 2126.39,821.406 2128.38,825.138 2130.37,706.728 2132.35,1179.33 2134.34,614.982 2136.33,789.171 2138.31,804.444 2140.3,594.91 2142.28,767.269 2144.27,920.176 2146.26,834.284 2148.24,865.537 2150.23,538.682 2152.21,729.506 2154.2,823.458 2156.19,684.994 2158.17,892.541 2160.16,899.262 2162.15,890.832 2164.13,1205.9 2166.12,656.482 2168.1,828.471 2170.09,686.62 2172.08,962.471 2174.06,684.627 2176.05,706.773 2178.03,747.859 2180.02,729.292 2182.01,480.276 2183.99,427.625 2185.98,715.927 2187.97,779.249 2189.95,795.276 2191.94,826.844 2193.92,918.081 2195.91,573.976 2197.9,656.803 2199.88,607.551 2201.87,906.879 2203.85,493.946 2205.84,971.837 2207.83,357.086 2209.81,880.103 2211.8,659.661 2213.78,761.045 2215.77,749.048 2217.76,660.117 2219.74,391.376 2221.73,490.751 2223.72,551.891 2225.7,605.568 2227.69,617.222 2229.67,664.279 2231.66,524.927 2233.65,636.182 2235.63,591.681 2237.62,777.023 2239.6,672.224 2241.59,503.287 2243.58,639.822 2245.56,1001.99 2247.55,460.563 2249.54,783.445 2251.52,599.961 2253.51,798.261 2255.49,678.93 2257.48,553.622 2259.47,421.943 2261.45,560.776 2263.44,593.87 2265.42,436.247 2267.41,630.429 2269.4,995.815 2271.38,624.302 2273.37,688.677 2275.36,628.202 2277.34,989.613 2279.33,511.254 2281.31,1275.22 2283.3,526.985 2285.29,977.04 2287.27,937.772 2289.26,1181.9 2291.24,694.624 2293.23,1157.86 "/>
<path clip-path="url(#clip510)" d="M2019.9 196.789 L2282.65 196.789 L2282.65 93.1086 L2019.9 93.1086  Z" fill="#ffffff" fill-rule="evenodd" fill-opacity="1"/>
<polyline clip-path="url(#clip510)" style="stroke:#000000; stroke-linecap:round; stroke-linejoin:round; stroke-width:4; stroke-opacity:1; fill:none" points="2019.9,196.789 2282.65,196.789 2282.65,93.1086 2019.9,93.1086 2019.9,196.789 "/>
<polyline clip-path="url(#clip510)" style="stroke:#009af9; stroke-linecap:round; stroke-linejoin:round; stroke-width:4; stroke-opacity:1; fill:none" points="2043.27,144.949 2183.48,144.949 "/>
<path clip-path="url(#clip510)" d="M2220.69 164.636 Q2218.89 169.266 2217.17 170.678 Q2215.46 172.09 2212.59 172.09 L2209.19 172.09 L2209.19 168.525 L2211.69 168.525 Q2213.45 168.525 2214.42 167.692 Q2215.39 166.858 2216.57 163.756 L2217.34 161.812 L2206.85 136.303 L2211.36 136.303 L2219.47 156.581 L2227.57 136.303 L2232.08 136.303 L2220.69 164.636 Z" fill="#000000" fill-rule="nonzero" fill-opacity="1" /><path clip-path="url(#clip510)" d="M2239.37 158.293 L2247.01 158.293 L2247.01 131.928 L2238.7 133.595 L2238.7 129.335 L2246.96 127.669 L2251.64 127.669 L2251.64 158.293 L2259.28 158.293 L2259.28 162.229 L2239.37 162.229 L2239.37 158.293 Z" fill="#000000" fill-rule="nonzero" fill-opacity="1" /></svg>
