<?xml version="1.0" encoding="utf-8"?>
<svg xmlns="http://www.w3.org/2000/svg" xmlns:xlink="http://www.w3.org/1999/xlink" width="600" height="400" viewBox="0 0 2400 1600">
<defs>
  <clipPath id="clip970">
    <rect x="0" y="0" width="2400" height="1600"/>
  </clipPath>
</defs>
<path clip-path="url(#clip970)" d="M0 1600 L2400 1600 L2400 0 L0 0  Z" fill="#ffffff" fill-rule="evenodd" fill-opacity="1"/>
<defs>
  <clipPath id="clip971">
    <rect x="480" y="0" width="1681" height="1600"/>
  </clipPath>
</defs>
<path clip-path="url(#clip970)" d="M193.936 1486.45 L2352.76 1486.45 L2352.76 47.2441 L193.936 47.2441  Z" fill="#ffffff" fill-rule="evenodd" fill-opacity="1"/>
<defs>
  <clipPath id="clip972">
    <rect x="193" y="47" width="2160" height="1440"/>
  </clipPath>
</defs>
<polyline clip-path="url(#clip972)" style="stroke:#000000; stroke-linecap:round; stroke-linejoin:round; stroke-width:2; stroke-opacity:0.1; fill:none" points="255.035,1486.45 255.035,47.2441 "/>
<polyline clip-path="url(#clip972)" style="stroke:#000000; stroke-linecap:round; stroke-linejoin:round; stroke-width:2; stroke-opacity:0.1; fill:none" points="933.909,1486.45 933.909,47.2441 "/>
<polyline clip-path="url(#clip972)" style="stroke:#000000; stroke-linecap:round; stroke-linejoin:round; stroke-width:2; stroke-opacity:0.1; fill:none" points="1612.78,1486.45 1612.78,47.2441 "/>
<polyline clip-path="url(#clip972)" style="stroke:#000000; stroke-linecap:round; stroke-linejoin:round; stroke-width:2; stroke-opacity:0.1; fill:none" points="2291.66,1486.45 2291.66,47.2441 "/>
<polyline clip-path="url(#clip970)" style="stroke:#000000; stroke-linecap:round; stroke-linejoin:round; stroke-width:4; stroke-opacity:1; fill:none" points="193.936,1486.45 2352.76,1486.45 "/>
<polyline clip-path="url(#clip970)" style="stroke:#000000; stroke-linecap:round; stroke-linejoin:round; stroke-width:4; stroke-opacity:1; fill:none" points="255.035,1486.45 255.035,1467.55 "/>
<polyline clip-path="url(#clip970)" style="stroke:#000000; stroke-linecap:round; stroke-linejoin:round; stroke-width:4; stroke-opacity:1; fill:none" points="933.909,1486.45 933.909,1467.55 "/>
<polyline clip-path="url(#clip970)" style="stroke:#000000; stroke-linecap:round; stroke-linejoin:round; stroke-width:4; stroke-opacity:1; fill:none" points="1612.78,1486.45 1612.78,1467.55 "/>
<polyline clip-path="url(#clip970)" style="stroke:#000000; stroke-linecap:round; stroke-linejoin:round; stroke-width:4; stroke-opacity:1; fill:none" points="2291.66,1486.45 2291.66,1467.55 "/>
<path clip-path="url(#clip970)" d="M255.035 1517.37 Q251.424 1517.37 249.595 1520.93 Q247.789 1524.47 247.789 1531.6 Q247.789 1538.71 249.595 1542.27 Q251.424 1545.82 255.035 1545.82 Q258.669 1545.82 260.474 1542.27 Q262.303 1538.71 262.303 1531.6 Q262.303 1524.47 260.474 1520.93 Q258.669 1517.37 255.035 1517.37 M255.035 1513.66 Q260.845 1513.66 263.9 1518.27 Q266.979 1522.85 266.979 1531.6 Q266.979 1540.33 263.9 1544.94 Q260.845 1549.52 255.035 1549.52 Q249.225 1549.52 246.146 1544.94 Q243.09 1540.33 243.09 1531.6 Q243.09 1522.85 246.146 1518.27 Q249.225 1513.66 255.035 1513.66 Z" fill="#000000" fill-rule="nonzero" fill-opacity="1" /><path clip-path="url(#clip970)" d="M878.435 1544.91 L886.073 1544.91 L886.073 1518.55 L877.763 1520.21 L877.763 1515.95 L886.027 1514.29 L890.703 1514.29 L890.703 1544.91 L898.342 1544.91 L898.342 1548.85 L878.435 1548.85 L878.435 1544.91 Z" fill="#000000" fill-rule="nonzero" fill-opacity="1" /><path clip-path="url(#clip970)" d="M917.786 1517.37 Q914.175 1517.37 912.346 1520.93 Q910.541 1524.47 910.541 1531.6 Q910.541 1538.71 912.346 1542.27 Q914.175 1545.82 917.786 1545.82 Q921.42 1545.82 923.226 1542.27 Q925.055 1538.71 925.055 1531.6 Q925.055 1524.47 923.226 1520.93 Q921.42 1517.37 917.786 1517.37 M917.786 1513.66 Q923.596 1513.66 926.652 1518.27 Q929.731 1522.85 929.731 1531.6 Q929.731 1540.33 926.652 1544.94 Q923.596 1549.52 917.786 1549.52 Q911.976 1549.52 908.897 1544.94 Q905.842 1540.33 905.842 1531.6 Q905.842 1522.85 908.897 1518.27 Q911.976 1513.66 917.786 1513.66 Z" fill="#000000" fill-rule="nonzero" fill-opacity="1" /><path clip-path="url(#clip970)" d="M947.948 1517.37 Q944.337 1517.37 942.508 1520.93 Q940.703 1524.47 940.703 1531.6 Q940.703 1538.71 942.508 1542.27 Q944.337 1545.82 947.948 1545.82 Q951.582 1545.82 953.388 1542.27 Q955.217 1538.71 955.217 1531.6 Q955.217 1524.47 953.388 1520.93 Q951.582 1517.37 947.948 1517.37 M947.948 1513.66 Q953.758 1513.66 956.814 1518.27 Q959.893 1522.85 959.893 1531.6 Q959.893 1540.33 956.814 1544.94 Q953.758 1549.52 947.948 1549.52 Q942.138 1549.52 939.059 1544.94 Q936.004 1540.33 936.004 1531.6 Q936.004 1522.85 939.059 1518.27 Q942.138 1513.66 947.948 1513.66 Z" fill="#000000" fill-rule="nonzero" fill-opacity="1" /><path clip-path="url(#clip970)" d="M978.11 1517.37 Q974.499 1517.37 972.67 1520.93 Q970.865 1524.47 970.865 1531.6 Q970.865 1538.71 972.67 1542.27 Q974.499 1545.82 978.11 1545.82 Q981.744 1545.82 983.55 1542.27 Q985.378 1538.71 985.378 1531.6 Q985.378 1524.47 983.55 1520.93 Q981.744 1517.37 978.11 1517.37 M978.11 1513.66 Q983.92 1513.66 986.976 1518.27 Q990.054 1522.85 990.054 1531.6 Q990.054 1540.33 986.976 1544.94 Q983.92 1549.52 978.11 1549.52 Q972.3 1549.52 969.221 1544.94 Q966.166 1540.33 966.166 1531.6 Q966.166 1522.85 969.221 1518.27 Q972.3 1513.66 978.11 1513.66 Z" fill="#000000" fill-rule="nonzero" fill-opacity="1" /><path clip-path="url(#clip970)" d="M1561.39 1544.91 L1577.71 1544.91 L1577.71 1548.85 L1555.77 1548.85 L1555.77 1544.91 Q1558.43 1542.16 1563.01 1537.53 Q1567.62 1532.88 1568.8 1531.53 Q1571.05 1529.01 1571.93 1527.27 Q1572.83 1525.51 1572.83 1523.82 Q1572.83 1521.07 1570.89 1519.33 Q1568.96 1517.6 1565.86 1517.6 Q1563.66 1517.6 1561.21 1518.36 Q1558.78 1519.13 1556 1520.68 L1556 1515.95 Q1558.82 1514.82 1561.28 1514.24 Q1563.73 1513.66 1565.77 1513.66 Q1571.14 1513.66 1574.33 1516.35 Q1577.53 1519.03 1577.53 1523.52 Q1577.53 1525.65 1576.72 1527.57 Q1575.93 1529.47 1573.82 1532.07 Q1573.25 1532.74 1570.14 1535.95 Q1567.04 1539.15 1561.39 1544.91 Z" fill="#000000" fill-rule="nonzero" fill-opacity="1" /><path clip-path="url(#clip970)" d="M1597.53 1517.37 Q1593.92 1517.37 1592.09 1520.93 Q1590.28 1524.47 1590.28 1531.6 Q1590.28 1538.71 1592.09 1542.27 Q1593.92 1545.82 1597.53 1545.82 Q1601.16 1545.82 1602.97 1542.27 Q1604.8 1538.71 1604.8 1531.6 Q1604.8 1524.47 1602.97 1520.93 Q1601.16 1517.37 1597.53 1517.37 M1597.53 1513.66 Q1603.34 1513.66 1606.39 1518.27 Q1609.47 1522.85 1609.47 1531.6 Q1609.47 1540.33 1606.39 1544.94 Q1603.34 1549.52 1597.53 1549.52 Q1591.72 1549.52 1588.64 1544.94 Q1585.58 1540.33 1585.58 1531.6 Q1585.58 1522.85 1588.64 1518.27 Q1591.72 1513.66 1597.53 1513.66 Z" fill="#000000" fill-rule="nonzero" fill-opacity="1" /><path clip-path="url(#clip970)" d="M1627.69 1517.37 Q1624.08 1517.37 1622.25 1520.93 Q1620.45 1524.47 1620.45 1531.6 Q1620.45 1538.71 1622.25 1542.27 Q1624.08 1545.82 1627.69 1545.82 Q1631.32 1545.82 1633.13 1542.27 Q1634.96 1538.71 1634.96 1531.6 Q1634.96 1524.47 1633.13 1520.93 Q1631.32 1517.37 1627.69 1517.37 M1627.69 1513.66 Q1633.5 1513.66 1636.56 1518.27 Q1639.63 1522.85 1639.63 1531.6 Q1639.63 1540.33 1636.56 1544.94 Q1633.5 1549.52 1627.69 1549.52 Q1621.88 1549.52 1618.8 1544.94 Q1615.75 1540.33 1615.75 1531.6 Q1615.75 1522.85 1618.8 1518.27 Q1621.88 1513.66 1627.69 1513.66 Z" fill="#000000" fill-rule="nonzero" fill-opacity="1" /><path clip-path="url(#clip970)" d="M1657.85 1517.37 Q1654.24 1517.37 1652.41 1520.93 Q1650.61 1524.47 1650.61 1531.6 Q1650.61 1538.71 1652.41 1542.27 Q1654.24 1545.82 1657.85 1545.82 Q1661.49 1545.82 1663.29 1542.27 Q1665.12 1538.71 1665.12 1531.6 Q1665.12 1524.47 1663.29 1520.93 Q1661.49 1517.37 1657.85 1517.37 M1657.85 1513.66 Q1663.66 1513.66 1666.72 1518.27 Q1669.8 1522.85 1669.8 1531.6 Q1669.8 1540.33 1666.72 1544.94 Q1663.66 1549.52 1657.85 1549.52 Q1652.04 1549.52 1648.96 1544.94 Q1645.91 1540.33 1645.91 1531.6 Q1645.91 1522.85 1648.96 1518.27 Q1652.04 1513.66 1657.85 1513.66 Z" fill="#000000" fill-rule="nonzero" fill-opacity="1" /><path clip-path="url(#clip970)" d="M2250.34 1530.21 Q2253.69 1530.93 2255.57 1533.2 Q2257.47 1535.47 2257.47 1538.8 Q2257.47 1543.92 2253.95 1546.72 Q2250.43 1549.52 2243.95 1549.52 Q2241.77 1549.52 2239.46 1549.08 Q2237.17 1548.66 2234.71 1547.81 L2234.71 1543.29 Q2236.66 1544.43 2238.97 1545.01 Q2241.29 1545.58 2243.81 1545.58 Q2248.21 1545.58 2250.5 1543.85 Q2252.81 1542.11 2252.81 1538.8 Q2252.81 1535.75 2250.66 1534.03 Q2248.53 1532.3 2244.71 1532.3 L2240.69 1532.3 L2240.69 1528.45 L2244.9 1528.45 Q2248.35 1528.45 2250.18 1527.09 Q2252 1525.7 2252 1523.11 Q2252 1520.45 2250.11 1519.03 Q2248.23 1517.6 2244.71 1517.6 Q2242.79 1517.6 2240.59 1518.01 Q2238.39 1518.43 2235.75 1519.31 L2235.75 1515.14 Q2238.42 1514.4 2240.73 1514.03 Q2243.07 1513.66 2245.13 1513.66 Q2250.45 1513.66 2253.56 1516.09 Q2256.66 1518.5 2256.66 1522.62 Q2256.66 1525.49 2255.01 1527.48 Q2253.37 1529.45 2250.34 1530.21 Z" fill="#000000" fill-rule="nonzero" fill-opacity="1" /><path clip-path="url(#clip970)" d="M2276.33 1517.37 Q2272.72 1517.37 2270.89 1520.93 Q2269.09 1524.47 2269.09 1531.6 Q2269.09 1538.71 2270.89 1542.27 Q2272.72 1545.82 2276.33 1545.82 Q2279.97 1545.82 2281.77 1542.27 Q2283.6 1538.71 2283.6 1531.6 Q2283.6 1524.47 2281.77 1520.93 Q2279.97 1517.37 2276.33 1517.37 M2276.33 1513.66 Q2282.14 1513.66 2285.2 1518.27 Q2288.28 1522.85 2288.28 1531.6 Q2288.28 1540.33 2285.2 1544.94 Q2282.14 1549.52 2276.33 1549.52 Q2270.52 1549.52 2267.44 1544.94 Q2264.39 1540.33 2264.39 1531.6 Q2264.39 1522.85 2267.44 1518.27 Q2270.52 1513.66 2276.33 1513.66 Z" fill="#000000" fill-rule="nonzero" fill-opacity="1" /><path clip-path="url(#clip970)" d="M2306.5 1517.37 Q2302.88 1517.37 2301.06 1520.93 Q2299.25 1524.47 2299.25 1531.6 Q2299.25 1538.71 2301.06 1542.27 Q2302.88 1545.82 2306.5 1545.82 Q2310.13 1545.82 2311.93 1542.27 Q2313.76 1538.71 2313.76 1531.6 Q2313.76 1524.47 2311.93 1520.93 Q2310.13 1517.37 2306.5 1517.37 M2306.5 1513.66 Q2312.31 1513.66 2315.36 1518.27 Q2318.44 1522.85 2318.44 1531.6 Q2318.44 1540.33 2315.36 1544.94 Q2312.31 1549.52 2306.5 1549.52 Q2300.68 1549.52 2297.61 1544.94 Q2294.55 1540.33 2294.55 1531.6 Q2294.55 1522.85 2297.61 1518.27 Q2300.68 1513.66 2306.5 1513.66 Z" fill="#000000" fill-rule="nonzero" fill-opacity="1" /><path clip-path="url(#clip970)" d="M2336.66 1517.37 Q2333.05 1517.37 2331.22 1520.93 Q2329.41 1524.47 2329.41 1531.6 Q2329.41 1538.71 2331.22 1542.27 Q2333.05 1545.82 2336.66 1545.82 Q2340.29 1545.82 2342.1 1542.27 Q2343.93 1538.71 2343.93 1531.6 Q2343.93 1524.47 2342.1 1520.93 Q2340.29 1517.37 2336.66 1517.37 M2336.66 1513.66 Q2342.47 1513.66 2345.52 1518.27 Q2348.6 1522.85 2348.6 1531.6 Q2348.6 1540.33 2345.52 1544.94 Q2342.47 1549.52 2336.66 1549.52 Q2330.85 1549.52 2327.77 1544.94 Q2324.71 1540.33 2324.71 1531.6 Q2324.71 1522.85 2327.77 1518.27 Q2330.85 1513.66 2336.66 1513.66 Z" fill="#000000" fill-rule="nonzero" fill-opacity="1" /><polyline clip-path="url(#clip972)" style="stroke:#000000; stroke-linecap:round; stroke-linejoin:round; stroke-width:2; stroke-opacity:0.1; fill:none" points="193.936,1476.19 2352.76,1476.19 "/>
<polyline clip-path="url(#clip972)" style="stroke:#000000; stroke-linecap:round; stroke-linejoin:round; stroke-width:2; stroke-opacity:0.1; fill:none" points="193.936,1239.18 2352.76,1239.18 "/>
<polyline clip-path="url(#clip972)" style="stroke:#000000; stroke-linecap:round; stroke-linejoin:round; stroke-width:2; stroke-opacity:0.1; fill:none" points="193.936,1002.17 2352.76,1002.17 "/>
<polyline clip-path="url(#clip972)" style="stroke:#000000; stroke-linecap:round; stroke-linejoin:round; stroke-width:2; stroke-opacity:0.1; fill:none" points="193.936,765.164 2352.76,765.164 "/>
<polyline clip-path="url(#clip972)" style="stroke:#000000; stroke-linecap:round; stroke-linejoin:round; stroke-width:2; stroke-opacity:0.1; fill:none" points="193.936,528.157 2352.76,528.157 "/>
<polyline clip-path="url(#clip972)" style="stroke:#000000; stroke-linecap:round; stroke-linejoin:round; stroke-width:2; stroke-opacity:0.1; fill:none" points="193.936,291.149 2352.76,291.149 "/>
<polyline clip-path="url(#clip972)" style="stroke:#000000; stroke-linecap:round; stroke-linejoin:round; stroke-width:2; stroke-opacity:0.1; fill:none" points="193.936,54.1414 2352.76,54.1414 "/>
<polyline clip-path="url(#clip970)" style="stroke:#000000; stroke-linecap:round; stroke-linejoin:round; stroke-width:4; stroke-opacity:1; fill:none" points="193.936,1486.45 193.936,47.2441 "/>
<polyline clip-path="url(#clip970)" style="stroke:#000000; stroke-linecap:round; stroke-linejoin:round; stroke-width:4; stroke-opacity:1; fill:none" points="193.936,1476.19 212.834,1476.19 "/>
<polyline clip-path="url(#clip970)" style="stroke:#000000; stroke-linecap:round; stroke-linejoin:round; stroke-width:4; stroke-opacity:1; fill:none" points="193.936,1239.18 212.834,1239.18 "/>
<polyline clip-path="url(#clip970)" style="stroke:#000000; stroke-linecap:round; stroke-linejoin:round; stroke-width:4; stroke-opacity:1; fill:none" points="193.936,1002.17 212.834,1002.17 "/>
<polyline clip-path="url(#clip970)" style="stroke:#000000; stroke-linecap:round; stroke-linejoin:round; stroke-width:4; stroke-opacity:1; fill:none" points="193.936,765.164 212.834,765.164 "/>
<polyline clip-path="url(#clip970)" style="stroke:#000000; stroke-linecap:round; stroke-linejoin:round; stroke-width:4; stroke-opacity:1; fill:none" points="193.936,528.157 212.834,528.157 "/>
<polyline clip-path="url(#clip970)" style="stroke:#000000; stroke-linecap:round; stroke-linejoin:round; stroke-width:4; stroke-opacity:1; fill:none" points="193.936,291.149 212.834,291.149 "/>
<polyline clip-path="url(#clip970)" style="stroke:#000000; stroke-linecap:round; stroke-linejoin:round; stroke-width:4; stroke-opacity:1; fill:none" points="193.936,54.1414 212.834,54.1414 "/>
<path clip-path="url(#clip970)" d="M51.9875 1476.64 L81.6633 1476.64 L81.6633 1480.57 L51.9875 1480.57 L51.9875 1476.64 Z" fill="#000000" fill-rule="nonzero" fill-opacity="1" /><path clip-path="url(#clip970)" d="M92.566 1489.53 L100.205 1489.53 L100.205 1463.17 L91.8947 1464.83 L91.8947 1460.57 L100.159 1458.91 L104.834 1458.91 L104.834 1489.53 L112.473 1489.53 L112.473 1493.47 L92.566 1493.47 L92.566 1489.53 Z" fill="#000000" fill-rule="nonzero" fill-opacity="1" /><path clip-path="url(#clip970)" d="M121.918 1487.59 L126.802 1487.59 L126.802 1493.47 L121.918 1493.47 L121.918 1487.59 Z" fill="#000000" fill-rule="nonzero" fill-opacity="1" /><path clip-path="url(#clip970)" d="M137.033 1458.91 L155.39 1458.91 L155.39 1462.84 L141.316 1462.84 L141.316 1471.31 Q142.334 1470.97 143.353 1470.81 Q144.371 1470.62 145.39 1470.62 Q151.177 1470.62 154.556 1473.79 Q157.936 1476.96 157.936 1482.38 Q157.936 1487.96 154.464 1491.06 Q150.992 1494.14 144.672 1494.14 Q142.496 1494.14 140.228 1493.77 Q137.982 1493.4 135.575 1492.66 L135.575 1487.96 Q137.658 1489.09 139.881 1489.65 Q142.103 1490.2 144.58 1490.2 Q148.584 1490.2 150.922 1488.1 Q153.26 1485.99 153.26 1482.38 Q153.26 1478.77 150.922 1476.66 Q148.584 1474.56 144.58 1474.56 Q142.705 1474.56 140.83 1474.97 Q138.978 1475.39 137.033 1476.27 L137.033 1458.91 Z" fill="#000000" fill-rule="nonzero" fill-opacity="1" /><path clip-path="url(#clip970)" d="M50.9921 1239.63 L80.6679 1239.63 L80.6679 1243.57 L50.9921 1243.57 L50.9921 1239.63 Z" fill="#000000" fill-rule="nonzero" fill-opacity="1" /><path clip-path="url(#clip970)" d="M91.5706 1252.52 L99.2095 1252.52 L99.2095 1226.16 L90.8993 1227.83 L90.8993 1223.57 L99.1632 1221.9 L103.839 1221.9 L103.839 1252.52 L111.478 1252.52 L111.478 1256.46 L91.5706 1256.46 L91.5706 1252.52 Z" fill="#000000" fill-rule="nonzero" fill-opacity="1" /><path clip-path="url(#clip970)" d="M120.922 1250.58 L125.807 1250.58 L125.807 1256.46 L120.922 1256.46 L120.922 1250.58 Z" fill="#000000" fill-rule="nonzero" fill-opacity="1" /><path clip-path="url(#clip970)" d="M145.992 1224.98 Q142.381 1224.98 140.552 1228.54 Q138.746 1232.09 138.746 1239.21 Q138.746 1246.32 140.552 1249.89 Q142.381 1253.43 145.992 1253.43 Q149.626 1253.43 151.431 1249.89 Q153.26 1246.32 153.26 1239.21 Q153.26 1232.09 151.431 1228.54 Q149.626 1224.98 145.992 1224.98 M145.992 1221.27 Q151.802 1221.27 154.857 1225.88 Q157.936 1230.46 157.936 1239.21 Q157.936 1247.94 154.857 1252.55 Q151.802 1257.13 145.992 1257.13 Q140.181 1257.13 137.103 1252.55 Q134.047 1247.94 134.047 1239.21 Q134.047 1230.46 137.103 1225.88 Q140.181 1221.27 145.992 1221.27 Z" fill="#000000" fill-rule="nonzero" fill-opacity="1" /><path clip-path="url(#clip970)" d="M51.9875 1002.62 L81.6633 1002.62 L81.6633 1006.56 L51.9875 1006.56 L51.9875 1002.62 Z" fill="#000000" fill-rule="nonzero" fill-opacity="1" /><path clip-path="url(#clip970)" d="M101.756 987.971 Q98.1447 987.971 96.316 991.536 Q94.5104 995.077 94.5104 1002.21 Q94.5104 1009.31 96.316 1012.88 Q98.1447 1016.42 101.756 1016.42 Q105.39 1016.42 107.196 1012.88 Q109.024 1009.31 109.024 1002.21 Q109.024 995.077 107.196 991.536 Q105.39 987.971 101.756 987.971 M101.756 984.267 Q107.566 984.267 110.621 988.874 Q113.7 993.457 113.7 1002.21 Q113.7 1010.93 110.621 1015.54 Q107.566 1020.12 101.756 1020.12 Q95.9456 1020.12 92.8669 1015.54 Q89.8114 1010.93 89.8114 1002.21 Q89.8114 993.457 92.8669 988.874 Q95.9456 984.267 101.756 984.267 Z" fill="#000000" fill-rule="nonzero" fill-opacity="1" /><path clip-path="url(#clip970)" d="M121.918 1013.57 L126.802 1013.57 L126.802 1019.45 L121.918 1019.45 L121.918 1013.57 Z" fill="#000000" fill-rule="nonzero" fill-opacity="1" /><path clip-path="url(#clip970)" d="M137.033 984.892 L155.39 984.892 L155.39 988.827 L141.316 988.827 L141.316 997.3 Q142.334 996.952 143.353 996.79 Q144.371 996.605 145.39 996.605 Q151.177 996.605 154.556 999.776 Q157.936 1002.95 157.936 1008.36 Q157.936 1013.94 154.464 1017.04 Q150.992 1020.12 144.672 1020.12 Q142.496 1020.12 140.228 1019.75 Q137.982 1019.38 135.575 1018.64 L135.575 1013.94 Q137.658 1015.08 139.881 1015.63 Q142.103 1016.19 144.58 1016.19 Q148.584 1016.19 150.922 1014.08 Q153.26 1011.98 153.26 1008.36 Q153.26 1004.75 150.922 1002.65 Q148.584 1000.54 144.58 1000.54 Q142.705 1000.54 140.83 1000.96 Q138.978 1001.37 137.033 1002.25 L137.033 984.892 Z" fill="#000000" fill-rule="nonzero" fill-opacity="1" /><path clip-path="url(#clip970)" d="M100.76 750.963 Q97.1493 750.963 95.3206 754.528 Q93.515 758.07 93.515 765.199 Q93.515 772.306 95.3206 775.87 Q97.1493 779.412 100.76 779.412 Q104.395 779.412 106.2 775.87 Q108.029 772.306 108.029 765.199 Q108.029 758.07 106.2 754.528 Q104.395 750.963 100.76 750.963 M100.76 747.259 Q106.571 747.259 109.626 751.866 Q112.705 756.449 112.705 765.199 Q112.705 773.926 109.626 778.532 Q106.571 783.116 100.76 783.116 Q94.9502 783.116 91.8715 778.532 Q88.816 773.926 88.816 765.199 Q88.816 756.449 91.8715 751.866 Q94.9502 747.259 100.76 747.259 Z" fill="#000000" fill-rule="nonzero" fill-opacity="1" /><path clip-path="url(#clip970)" d="M120.922 776.565 L125.807 776.565 L125.807 782.444 L120.922 782.444 L120.922 776.565 Z" fill="#000000" fill-rule="nonzero" fill-opacity="1" /><path clip-path="url(#clip970)" d="M145.992 750.963 Q142.381 750.963 140.552 754.528 Q138.746 758.07 138.746 765.199 Q138.746 772.306 140.552 775.87 Q142.381 779.412 145.992 779.412 Q149.626 779.412 151.431 775.87 Q153.26 772.306 153.26 765.199 Q153.26 758.07 151.431 754.528 Q149.626 750.963 145.992 750.963 M145.992 747.259 Q151.802 747.259 154.857 751.866 Q157.936 756.449 157.936 765.199 Q157.936 773.926 154.857 778.532 Q151.802 783.116 145.992 783.116 Q140.181 783.116 137.103 778.532 Q134.047 773.926 134.047 765.199 Q134.047 756.449 137.103 751.866 Q140.181 747.259 145.992 747.259 Z" fill="#000000" fill-rule="nonzero" fill-opacity="1" /><path clip-path="url(#clip970)" d="M101.756 513.955 Q98.1447 513.955 96.316 517.52 Q94.5104 521.062 94.5104 528.192 Q94.5104 535.298 96.316 538.863 Q98.1447 542.404 101.756 542.404 Q105.39 542.404 107.196 538.863 Q109.024 535.298 109.024 528.192 Q109.024 521.062 107.196 517.52 Q105.39 513.955 101.756 513.955 M101.756 510.252 Q107.566 510.252 110.621 514.858 Q113.7 519.442 113.7 528.192 Q113.7 536.918 110.621 541.525 Q107.566 546.108 101.756 546.108 Q95.9456 546.108 92.8669 541.525 Q89.8114 536.918 89.8114 528.192 Q89.8114 519.442 92.8669 514.858 Q95.9456 510.252 101.756 510.252 Z" fill="#000000" fill-rule="nonzero" fill-opacity="1" /><path clip-path="url(#clip970)" d="M121.918 539.557 L126.802 539.557 L126.802 545.437 L121.918 545.437 L121.918 539.557 Z" fill="#000000" fill-rule="nonzero" fill-opacity="1" /><path clip-path="url(#clip970)" d="M137.033 510.877 L155.39 510.877 L155.39 514.812 L141.316 514.812 L141.316 523.284 Q142.334 522.937 143.353 522.775 Q144.371 522.59 145.39 522.59 Q151.177 522.59 154.556 525.761 Q157.936 528.932 157.936 534.349 Q157.936 539.928 154.464 543.029 Q150.992 546.108 144.672 546.108 Q142.496 546.108 140.228 545.738 Q137.982 545.367 135.575 544.627 L135.575 539.928 Q137.658 541.062 139.881 541.617 Q142.103 542.173 144.58 542.173 Q148.584 542.173 150.922 540.066 Q153.26 537.96 153.26 534.349 Q153.26 530.738 150.922 528.631 Q148.584 526.525 144.58 526.525 Q142.705 526.525 140.83 526.942 Q138.978 527.358 137.033 528.238 L137.033 510.877 Z" fill="#000000" fill-rule="nonzero" fill-opacity="1" /><path clip-path="url(#clip970)" d="M91.5706 304.494 L99.2095 304.494 L99.2095 278.128 L90.8993 279.795 L90.8993 275.536 L99.1632 273.869 L103.839 273.869 L103.839 304.494 L111.478 304.494 L111.478 308.429 L91.5706 308.429 L91.5706 304.494 Z" fill="#000000" fill-rule="nonzero" fill-opacity="1" /><path clip-path="url(#clip970)" d="M120.922 302.549 L125.807 302.549 L125.807 308.429 L120.922 308.429 L120.922 302.549 Z" fill="#000000" fill-rule="nonzero" fill-opacity="1" /><path clip-path="url(#clip970)" d="M145.992 276.948 Q142.381 276.948 140.552 280.513 Q138.746 284.054 138.746 291.184 Q138.746 298.29 140.552 301.855 Q142.381 305.397 145.992 305.397 Q149.626 305.397 151.431 301.855 Q153.26 298.29 153.26 291.184 Q153.26 284.054 151.431 280.513 Q149.626 276.948 145.992 276.948 M145.992 273.244 Q151.802 273.244 154.857 277.851 Q157.936 282.434 157.936 291.184 Q157.936 299.911 154.857 304.517 Q151.802 309.1 145.992 309.1 Q140.181 309.1 137.103 304.517 Q134.047 299.911 134.047 291.184 Q134.047 282.434 137.103 277.851 Q140.181 273.244 145.992 273.244 Z" fill="#000000" fill-rule="nonzero" fill-opacity="1" /><path clip-path="url(#clip970)" d="M92.566 67.4862 L100.205 67.4862 L100.205 41.1206 L91.8947 42.7873 L91.8947 38.528 L100.159 36.8614 L104.834 36.8614 L104.834 67.4862 L112.473 67.4862 L112.473 71.4214 L92.566 71.4214 L92.566 67.4862 Z" fill="#000000" fill-rule="nonzero" fill-opacity="1" /><path clip-path="url(#clip970)" d="M121.918 65.5418 L126.802 65.5418 L126.802 71.4214 L121.918 71.4214 L121.918 65.5418 Z" fill="#000000" fill-rule="nonzero" fill-opacity="1" /><path clip-path="url(#clip970)" d="M137.033 36.8614 L155.39 36.8614 L155.39 40.7966 L141.316 40.7966 L141.316 49.2687 Q142.334 48.9215 143.353 48.7595 Q144.371 48.5743 145.39 48.5743 Q151.177 48.5743 154.556 51.7456 Q157.936 54.9169 157.936 60.3335 Q157.936 65.9122 154.464 69.014 Q150.992 72.0927 144.672 72.0927 Q142.496 72.0927 140.228 71.7223 Q137.982 71.3519 135.575 70.6112 L135.575 65.9122 Q137.658 67.0464 139.881 67.602 Q142.103 68.1575 144.58 68.1575 Q148.584 68.1575 150.922 66.0511 Q153.26 63.9446 153.26 60.3335 Q153.26 56.7224 150.922 54.6159 Q148.584 52.5095 144.58 52.5095 Q142.705 52.5095 140.83 52.9261 Q138.978 53.3428 137.033 54.2224 L137.033 36.8614 Z" fill="#000000" fill-rule="nonzero" fill-opacity="1" /><polyline clip-path="url(#clip972)" style="stroke:#009af9; stroke-linecap:round; stroke-linejoin:round; stroke-width:4; stroke-opacity:1; fill:none" points="255.035,291.149 255.082,291.149 255.551,291.149 257.194,291.149 260.044,291.149 263.691,291.149 275.472,291.149 292.212,291.149 307.306,291.149 322.176,291.149 338.164,291.149 355.776,291.149 373.073,291.149 389.754,291.149 408.902,291.149 427.319,291.149 444.493,291.149 464.355,291.149 483.093,291.149 500.846,291.149 521.036,291.149 539.656,291.149 558.069,291.149 578.335,291.149 596.542,291.149 615.622,291.149 635.793,291.149 653.376,291.149 673.043,291.149 692.998,291.149 709.797,291.149 729.894,291.149 749.558,291.149 766.865,291.149 787.176,291.149 806.374,291.149 824.391,291.149 844.738,291.149 863.349,291.149 882.106,291.149 902.367,291.149 920.302,291.149 939.734,291.15 959.806,291.148 976.987,291.144 996.939,291.129 1016.7,291.102 1033.8,291.08 1053.45,291.11 1071.71,291.308 1088.58,291.78 1105.51,292.629 1121.45,293.678 1137.05,294.512 1151.84,294.337 1165.88,292.292 1180.81,286.951 1195.34,277.85 1209.05,265.98 1222.42,252.909 1237.25,240.434 1251.75,236.06 1265.97,245.939 1280.46,276.741 1295.88,336.904 1311,423.312 1325.93,529.811 1342.94,665.008 1357.37,779.816 1372.35,887.325 1385.52,958.414 1398.09,985.534 1405.02,978.961 1411.03,739.156 1417.31,586.929 1423.99,455.529 1431.25,346.645 1439.22,261.213 1447.15,204.476 1455.96,167.681 1465.85,151.902 1476.77,157.496 1488.58,180.963 1501.1,214.809 1515.4,252.958 1530.6,283.593 1545.78,300.642 1561.65,306.193 1578.28,304.057 1594.73,299.291 1611.45,295.054 1627.53,292.56 1644.86,291.361 1662.03,291.03 1679.09,291.024 1696.76,291.084 1713.75,291.124 1731.32,291.143 1749.11,291.148 1765.87,291.149 1783.73,291.149 1801.47,291.149 1817.95,291.149 1836.02,291.149 1853.62,291.149 1870.3,291.149 1888.51,291.149 1905.95,291.149 1922.83,291.149 1941.12,291.149 1958.38,291.149 1975.45,291.149 1993.77,291.149 2010.87,291.149 2028.11,291.149 2046.44,291.149 2063.35,291.149 2080.74,291.149 2099.06,291.149 2115.77,291.149 2133.31,291.149 2151.58,291.149 2168.06,291.149 2185.73,291.149 2203.94,291.149 2220.51,291.149 2238.32,291.149 2256.43,291.149 2273.16,291.149 2291.06,291.149 2291.66,291.149 "/>
<polyline clip-path="url(#clip972)" style="stroke:#e26f46; stroke-linecap:round; stroke-linejoin:round; stroke-width:4; stroke-opacity:1; fill:none" points="255.035,291.149 255.082,291.149 255.551,291.149 257.194,291.149 260.044,291.149 263.691,291.149 275.472,291.149 292.212,291.149 307.306,291.149 322.176,291.149 338.164,291.149 355.776,291.149 373.072,291.149 389.754,291.149 408.902,291.149 427.319,291.149 444.493,291.149 464.355,291.149 483.093,291.149 500.846,291.149 521.036,291.149 539.656,291.149 558.069,291.149 578.336,291.149 596.543,291.149 615.623,291.149 635.794,291.149 653.379,291.149 673.046,291.149 693.002,291.149 709.804,291.149 729.902,291.149 749.567,291.149 766.872,291.149 787.185,291.149 806.388,291.149 824.402,291.149 844.753,291.149 863.376,291.149 882.131,291.15 902.399,291.152 920.362,291.155 939.791,291.156 959.827,291.138 977.06,291.081 996.536,290.935 1014.99,290.713 1031.38,290.54 1048.48,290.646 1064.36,291.427 1080.05,293.343 1095.11,296.581 1108.79,300.625 1123.55,305.377 1138.13,308.752 1152.1,308.321 1164.94,302.41 1179.63,286.795 1194.22,260.961 1208.39,227.747 1222.81,191.103 1238.17,158.89 1253.47,147.274 1268.75,170.155 1285.92,251.754 1301.07,382.975 1316.22,578.484 1329.63,810.093 1337.86,1137.76 1341.09,1125.18 1344,1106.3 1346.81,1083.52 1349.75,1056.43 1352.11,1032.89 1354.36,1009.44 1357.07,980.367 1361.93,927.529 1366.97,873.241 1373.46,806.134 1380.07,741.6 1386.8,679.965 1394.85,611.086 1404.04,538.923 1414.44,466.267 1425.94,1287.99 1436.84,1260.01 1447.39,1237.43 1459.46,1218.67 1470.99,1208.24 1488.07,1204.58 1505.05,1210.4 1521.23,1219.66 1537.26,1228.59 1555.23,1235.86 1572.54,1239.61 1589.38,1240.88 1607.78,1240.79 1625.74,1240.19 1642.79,1239.67 1661.21,1239.33 1679.41,1239.18 1696.51,1239.15 1714.95,1239.15 1733.23,1239.17 1750.31,1239.17 1768.75,1239.18 1787.05,1239.18 1804.11,1239.18 1822.57,1239.18 1840.85,1239.18 1857.91,1239.18 1876.39,1239.18 1894.65,1239.18 1911.71,1239.18 1930.22,1239.18 1948.44,1239.18 1965.51,1239.18 1984.05,1239.18 2002.24,1239.18 2019.32,1239.18 2037.89,1239.18 2056.04,1239.18 2073.13,1239.18 2091.73,1239.18 2109.84,1239.18 2126.94,1239.18 2145.57,1239.18 2163.65,1239.18 2180.75,1239.18 2199.41,1239.18 2217.45,1239.18 2234.55,1239.18 2253.24,1239.18 2271.24,1239.18 2288.34,1239.18 2291.66,1239.18 "/>
<polyline clip-path="url(#clip972)" style="stroke:#3da44d; stroke-linecap:round; stroke-linejoin:round; stroke-width:4; stroke-opacity:1; fill:none" points="255.035,291.149 255.082,291.149 255.551,291.149 257.194,291.149 260.044,291.149 263.691,291.149 275.471,291.149 292.211,291.149 307.306,291.149 322.175,291.149 338.163,291.149 355.775,291.149 373.072,291.149 389.753,291.149 408.902,291.149 427.319,291.149 444.492,291.149 464.355,291.149 483.094,291.149 500.846,291.149 521.037,291.149 539.659,291.149 558.071,291.149 578.339,291.149 596.551,291.149 615.631,291.149 635.805,291.149 653.402,291.149 673.071,291.149 693.033,291.149 709.864,291.149 729.967,291.149 749.645,291.148 766.939,291.146 787.263,291.138 806.493,291.125 824.467,291.116 844.51,291.148 862.829,291.292 880.733,291.634 898.177,292.204 914.629,292.827 930.86,293.104 945.461,292.422 960.468,289.959 975.481,284.91 989.626,277.525 1002.43,269.198 1017.06,259.705 1031.59,253.923 1045.8,256.638 1059.67,272.193 1074.61,307.718 1089.52,364.374 1103.45,434.474 1118.55,522.474 1133.92,614.06 1149.98,699.033 1165.18,759.045 1178.23,788.901 1192.13,792.971 1204.11,774.12 1211.67,758.461 1216.83,750.944 1221.54,747.167 1227.02,747.184 1232.58,751.994 1239.57,764.356 1247.11,784.839 1255.78,816.449 1264.67,856.587 1274.41,907.629 1284.89,967.899 1296.09,1034.25 1307.72,1100.23 1320.48,1163.66 1336.4,1223.66 1350.71,1257.2 1365.31,1273.34 1381.28,1275.35 1399.81,1266.37 1414.63,1256.59 1427.25,1249.13 1440.6,1243.23 1455.51,1239.26 1471.81,1237.49 1487.41,1237.31 1502.56,1237.77 1517.84,1238.34 1532.96,1238.78 1550.59,1239.07 1568.39,1239.19 1584.7,1239.21 1602.33,1239.21 1620.66,1239.19 1637.53,1239.18 1655.44,1239.18 1674.2,1239.18 1691.24,1239.18 1709.21,1239.18 1728.12,1239.18 1745.18,1239.18 1763.24,1239.18 1782.2,1239.18 1799.21,1239.18 1817.37,1239.18 1836.34,1239.18 1853.27,1239.18 1871.53,1239.18 1890.48,1239.18 1907.32,1239.18 1925.69,1239.18 1944.6,1239.18 1961.35,1239.18 1979.82,1239.18 1998.69,1239.18 2015.34,1239.18 2033.91,1239.18 2052.74,1239.18 2069.3,1239.18 2087.95,1239.18 2106.73,1239.18 2123.21,1239.18 2141.93,1239.18 2160.67,1239.18 2177.07,1239.18 2195.86,1239.18 2214.56,1239.18 2230.88,1239.18 2249.73,1239.18 2268.39,1239.18 2284.65,1239.18 2291.66,1239.18 "/>
<polyline clip-path="url(#clip972)" style="stroke:#c271d2; stroke-linecap:round; stroke-linejoin:round; stroke-width:4; stroke-opacity:1; fill:none" points="255.035,291.149 255.082,291.149 255.551,291.149 257.194,291.149 260.044,291.149 263.691,291.149 275.472,291.149 292.212,291.149 307.306,291.149 322.176,291.149 338.164,291.149 355.776,291.149 373.072,291.149 389.754,291.149 408.902,291.149 427.319,291.149 444.493,291.149 464.355,291.149 483.093,291.149 500.846,291.149 521.036,291.149 539.656,291.149 558.069,291.149 578.335,291.149 596.543,291.149 615.623,291.149 635.794,291.149 653.379,291.149 673.046,291.149 693.002,291.149 709.803,291.149 729.901,291.149 749.566,291.149 766.872,291.149 787.184,291.149 806.387,291.149 824.401,291.149 844.752,291.149 863.374,291.149 882.129,291.15 902.396,291.152 920.357,291.155 939.787,291.155 959.835,291.139 977.066,291.09 996.629,290.962 1015.25,290.764 1031.69,290.611 1048.95,290.715 1064.95,291.447 1080.69,293.226 1095.81,296.228 1109.67,300.003 1124.51,304.348 1139.12,307.27 1153,306.496 1165.84,300.478 1180.59,285.032 1195.11,260.081 1209.31,228.107 1223.66,193.402 1237.27,1061.95 1248.01,1023.03 1259.01,991.695 1270,973.422 1279.92,970.349 1291.81,983.494 1303.64,1010.7 1314.5,1037.33 1325.06,1039.79 1331.76,1013.93 1337.74,977.782 1343.38,936.865 1348.22,898.844 1352.29,865.996 1357.4,824.205 1365.27,760.032 1372.66,700.393 1380.2,640.597 1389.31,570.73 1399.64,496.679 1411.48,422.048 1424.56,356.48 1437.18,312.001 1452.02,281.962 1468.1,270.44 1485.17,272.193 1501.42,278.743 1517.92,285.036 1535.61,289.252 1552.71,291.022 1569.03,291.477 1587.46,291.429 1605.11,291.289 1621.08,291.205 1639.85,291.162 1657.85,291.15 1673.93,291.148 1692.87,291.149 1711.03,291.149 1727.16,291.149 1746.18,291.149 1764.42,291.149 1780.55,291.149 1799.62,291.149 1817.91,291.149 1834.04,291.149 1853.14,291.149 1871.44,291.149 1887.58,291.149 1906.69,291.149 1924.99,291.149 1941.13,291.149 1960.25,291.149 1978.56,291.149 1994.7,291.149 2013.83,291.149 2032.13,291.149 2048.27,291.149 2067.41,291.149 2085.7,291.149 2101.85,291.149 2120.99,291.149 2139.27,291.149 2155.42,291.149 2174.57,291.149 2192.84,291.149 2208.99,291.149 2228.14,291.149 2246.41,291.149 2262.56,291.149 2281.72,291.149 2291.66,291.149 "/>
<polyline clip-path="url(#clip972)" style="stroke:#ac8d18; stroke-linecap:round; stroke-linejoin:round; stroke-width:4; stroke-opacity:1; fill:none" points="255.035,291.149 255.082,291.149 255.551,291.149 257.194,291.149 260.044,291.149 263.691,291.149 275.472,291.149 292.212,291.149 307.306,291.149 322.176,291.149 338.164,291.149 355.776,291.149 373.073,291.149 389.754,291.149 408.902,291.149 427.319,291.149 444.493,291.149 464.355,291.149 483.093,291.149 500.846,291.149 521.036,291.149 539.656,291.149 558.069,291.149 578.335,291.149 596.542,291.149 615.622,291.149 635.793,291.149 653.376,291.149 673.043,291.149 692.998,291.149 709.796,291.149 729.893,291.149 749.556,291.149 766.863,291.149 787.174,291.149 806.371,291.149 824.388,291.149 844.735,291.149 863.344,291.149 882.101,291.149 902.36,291.149 920.289,291.149 939.721,291.149 959.79,291.149 976.956,291.147 996.913,291.141 1016.71,291.128 1033.83,291.118 1053.9,291.132 1072.82,291.24 1090.15,291.507 1107.98,292.016 1124.58,292.636 1140.7,293.055 1155.85,292.699 1170.65,290.856 1185.83,286.576 1200.26,279.804 1213.41,271.662 1227.7,262.221 1242.41,255.08 1256.72,255.305 1270.65,267.345 1285.21,297.08 1300.28,348.994 1314.46,416.335 1329.04,498.882 1344.96,593.659 1360.67,678.876 1376.59,744.832 1390.16,778.138 1403.92,785.002 1416.96,765.309 1419.74,765.48 1423.01,669.623 1425.59,598.925 1427.96,538.124 1430.21,484.45 1432.88,426.641 1436.6,355.973 1440.73,290.241 1445.96,224.537 1451.08,176.278 1458.03,131.629 1463.33,110.93 1469.67,98.4438 1477,97.5039 1485.42,110.127 1494.66,135.622 1504.25,169.253 1514.6,207.718 1528.96,255.341 1542.47,287.536 1556.03,305.802 1570.32,312.305 1586.24,309.927 1602.65,303.433 1617.69,297.799 1632.57,293.981 1649.05,291.799 1666.64,291.009 1682.33,290.917 1699.31,291 1717.26,291.088 1733.88,291.129 1751.15,291.145 1769.74,291.149 1786.78,291.149 1803.98,291.149 1822.83,291.149 1840.05,291.149 1857.2,291.149 1876.18,291.149 1893.49,291.149 1910.61,291.149 1929.67,291.149 1947.01,291.149 1964.12,291.149 1983.21,291.149 2000.56,291.149 2017.68,291.149 2036.79,291.149 2054.13,291.149 2071.27,291.149 2090.38,291.149 2107.72,291.149 2124.87,291.149 2143.99,291.149 2161.31,291.149 2178.49,291.149 2197.61,291.149 2214.91,291.149 2232.12,291.149 2251.23,291.149 2268.52,291.149 2285.76,291.149 2291.66,291.149 "/>
<polyline clip-path="url(#clip972)" style="stroke:#00a9ad; stroke-linecap:round; stroke-linejoin:round; stroke-width:4; stroke-opacity:1; fill:none" points="255.035,291.149 255.082,291.149 255.551,291.149 257.194,291.149 260.044,291.149 263.691,291.149 275.472,291.149 292.212,291.149 307.306,291.149 322.176,291.149 338.164,291.149 355.776,291.149 373.073,291.149 389.754,291.149 408.902,291.149 427.319,291.149 444.493,291.149 464.355,291.149 483.093,291.149 500.846,291.149 521.036,291.149 539.656,291.149 558.069,291.149 578.335,291.149 596.541,291.149 615.621,291.149 635.792,291.149 653.374,291.149 673.041,291.149 692.996,291.149 709.792,291.149 729.888,291.149 749.55,291.149 766.859,291.149 787.168,291.149 806.363,291.149 824.382,291.149 844.726,291.149 863.328,291.149 882.087,291.149 902.341,291.149 920.253,291.149 939.684,291.149 959.742,291.149 976.867,291.149 996.817,291.149 1016.6,291.149 1033.77,291.149 1054.02,291.149 1073.4,291.15 1091.2,291.154 1111.56,291.165 1130.39,291.182 1148.89,291.19 1168.67,291.137 1186.53,290.94 1204.43,290.493 1221.43,289.81 1237.66,289.104 1253.65,288.876 1267.98,289.812 1282.92,292.907 1297.79,299.02 1311.83,307.874 1324.62,317.964 1339.28,329.891 1353.77,338.413 1367.99,338.891 1381.97,327.263 1397.02,298.008 1411.94,252.097 1426.01,198.26 1441.38,138.734 1456.68,95.0089 1472.63,87.9763 1487.29,140.847 1500.06,259.763 1513.86,500.593 1523.65,745.594 1532.69,968.907 1538.07,1077.82 1542.93,1160.75 1548.09,743.02 1554.56,734.173 1561.09,718.237 1568.56,692.477 1577.04,655.013 1585.92,608.556 1595.57,552.745 1605.86,491.444 1617.11,1337.05 1627.7,1301.62 1637.92,1270.45 1647.19,1246.78 1656.13,1229.13 1667.78,1214.02 1680.01,1206.96 1696.76,1208.2 1710.66,1214.68 1724.96,1222.86 1739.55,1230.34 1755.34,1236.08 1772.28,1239.37 1788.32,1240.47 1805.45,1240.46 1823.1,1240.01 1839.92,1239.59 1857.03,1239.32 1875.71,1239.19 1893.12,1239.16 1910.1,1239.16 1929.04,1239.17 1946.63,1239.18 1963.51,1239.18 1982.6,1239.18 2000.25,1239.18 2017.1,1239.18 2036.26,1239.18 2053.92,1239.18 2070.76,1239.18 2089.95,1239.18 2107.59,1239.18 2124.46,1239.18 2143.66,1239.18 2161.28,1239.18 2178.19,1239.18 2197.39,1239.18 2214.98,1239.18 2231.94,1239.18 2251.14,1239.18 2268.7,1239.18 2285.71,1239.18 2291.66,1239.18 "/>
<polyline clip-path="url(#clip972)" style="stroke:#ed5d92; stroke-linecap:round; stroke-linejoin:round; stroke-width:4; stroke-opacity:1; fill:none" points="255.035,291.149 255.082,291.149 255.551,291.149 257.194,291.149 260.044,291.149 263.691,291.149 275.472,291.149 292.212,291.149 307.306,291.149 322.176,291.149 338.164,291.149 355.775,291.149 373.072,291.149 389.754,291.149 408.902,291.149 427.319,291.149 444.493,291.149 464.355,291.149 483.093,291.149 500.846,291.149 521.036,291.149 539.656,291.149 558.069,291.149 578.336,291.149 596.543,291.149 615.623,291.149 635.795,291.149 653.38,291.149 673.048,291.149 693.004,291.149 709.807,291.149 729.906,291.149 749.571,291.149 766.876,291.149 787.19,291.149 806.395,291.149 824.408,291.149 844.761,291.149 863.39,291.15 882.143,291.152 902.413,291.157 920.39,291.164 939.8,291.165 959.692,291.125 976.909,291.007 995.724,290.727 1013.28,290.327 1029.56,289.991 1045.87,290.085 1061.06,291.152 1076.47,293.912 1091.33,298.684 1104.72,304.726 1118.97,312.098 1133.76,318.638 1148.03,320.647 1161.71,315.113 1175.99,298.371 1190.97,267.192 1205.09,226.799 1219.5,180.47 1235.11,136.099 1250.89,113.873 1267.9,136.451 1282.83,214.28 1297.63,364.317 1311.94,600.84 1324.76,891.745 1328.95,993.13 1332.77,1077.33 1337.97,1175.85 1342.07,1240.42 1346.28,1295 1350.86,1342.55 1358.51,1398.46 1365.4,1428.55 1373.52,1444.96 1381.05,1445.72 1389.64,1433.58 1399.36,1407.76 1410.35,1369.05 1422.53,1321.68 1437.64,1266.8 1453.26,1223.9 1469.32,1198.96 1486.83,1192.15 1504.45,1199.76 1522.13,1213.43 1539.95,1226.54 1557.45,1235.47 1575.49,1240.13 1592.83,1241.46 1610.62,1241.16 1628.65,1240.37 1645.46,1239.73 1663.51,1239.33 1681.4,1239.17 1698.11,1239.14 1716.29,1239.15 1733.97,1239.16 1750.86,1239.17 1769.13,1239.18 1786.6,1239.18 1803.67,1239.18 1821.96,1239.18 1839.25,1239.18 1856.48,1239.18 1874.78,1239.18 1891.9,1239.18 1909.27,1239.18 1927.55,1239.18 1944.51,1239.18 1962,1239.18 1980.26,1239.18 1997.03,1239.18 2014.65,1239.18 2032.85,1239.18 2049.4,1239.18 2067.14,1239.18 2085.27,1239.18 2101.85,1239.18 2119.72,1239.18 2137.75,1239.18 2154.48,1239.18 2172.44,1239.18 2190.37,1239.18 2207.26,1239.18 2225.27,1239.18 2243.11,1239.18 2260.14,1239.18 2278.19,1239.18 2291.66,1239.18 "/>
<polyline clip-path="url(#clip972)" style="stroke:#c68125; stroke-linecap:round; stroke-linejoin:round; stroke-width:4; stroke-opacity:1; fill:none" points="255.035,291.149 255.082,291.149 255.551,291.149 257.194,291.149 260.044,291.149 263.691,291.149 275.472,291.149 292.212,291.149 307.306,291.149 322.176,291.149 338.164,291.149 355.776,291.149 373.072,291.149 389.754,291.149 408.902,291.149 427.319,291.149 444.493,291.149 464.355,291.149 483.093,291.149 500.846,291.149 521.036,291.149 539.656,291.149 558.069,291.149 578.335,291.149 596.543,291.149 615.623,291.149 635.794,291.149 653.379,291.149 673.046,291.149 693.002,291.149 709.804,291.149 729.902,291.149 749.567,291.149 766.872,291.149 787.185,291.149 806.388,291.149 824.402,291.149 844.753,291.149 863.376,291.149 882.131,291.15 902.399,291.152 920.362,291.155 939.791,291.156 959.828,291.138 977.06,291.082 996.542,290.937 1015.01,290.716 1031.4,290.544 1048.51,290.65 1064.39,291.429 1080.09,293.336 1095.15,296.559 1108.84,300.587 1123.61,305.314 1138.19,308.661 1152.15,308.21 1164.98,302.303 1179.67,286.707 1194.26,260.936 1208.43,227.802 1222.84,191.272 1238.2,159.183 1253.5,147.663 1268.75,170.511 1285.9,251.798 1301.04,382.557 1316.2,577.452 1329.62,808.259 1342.15,1056.47 1349.54,1190.99 1355.98,1277.34 1362.04,1333.35 1367.85,1368.23 1373.41,1388.31 1379.67,1399.14 1387.96,1399.35 1396.7,1387.25 1406.35,1364.19 1417.31,1330.94 1429.46,1291.32 1442.76,1251.17 1456.47,1218.83 1471.82,1196.94 1487.68,1189.93 1505.34,1196.01 1522.47,1208.94 1540.06,1222.85 1558.2,1233.69 1576.41,1239.71 1593.6,1241.75 1611.91,1241.69 1630.48,1240.77 1647.4,1239.97 1665.6,1239.43 1684.26,1239.18 1701.01,1239.12 1719.13,1239.13 1737.83,1239.15 1754.4,1239.17 1772.46,1239.18 1791.17,1239.18 1807.6,1239.18 1825.59,1239.18 1844.31,1239.18 1860.6,1239.18 1878.49,1239.18 1897.24,1239.18 1913.61,1239.18 1931.39,1239.18 1950.16,1239.18 1966.64,1239.18 1984.29,1239.18 2003.09,1239.18 2019.68,1239.18 2037.19,1239.18 2056.03,1239.18 2072.71,1239.18 2090.08,1239.18 2108.95,1239.18 2125.74,1239.18 2142.96,1239.18 2161.87,1239.18 2178.75,1239.18 2195.82,1239.18 2214.76,1239.18 2231.73,1239.18 2248.64,1239.18 2267.6,1239.18 2284.68,1239.18 2291.66,1239.18 "/>
<polyline clip-path="url(#clip972)" style="stroke:#00a98d; stroke-linecap:round; stroke-linejoin:round; stroke-width:4; stroke-opacity:1; fill:none" points="255.035,291.149 255.082,291.149 255.551,291.149 257.194,291.149 260.044,291.149 263.691,291.149 275.472,291.149 292.212,291.149 307.306,291.149 322.176,291.149 338.164,291.149 355.776,291.149 373.073,291.149 389.754,291.149 408.902,291.149 427.319,291.149 444.493,291.149 464.355,291.149 483.093,291.149 500.846,291.149 521.036,291.149 539.656,291.149 558.069,291.149 578.335,291.149 596.541,291.149 615.622,291.149 635.792,291.149 653.375,291.149 673.042,291.149 692.996,291.149 709.793,291.149 729.89,291.149 749.552,291.149 766.86,291.149 787.17,291.149 806.365,291.149 824.384,291.149 844.729,291.149 863.332,291.149 882.091,291.149 902.346,291.149 920.263,291.149 939.694,291.149 959.755,291.149 976.892,291.149 996.844,291.149 1016.63,291.148 1033.79,291.147 1054.05,291.148 1073.44,291.157 1091.22,291.183 1111.4,291.248 1130,291.334 1147.98,291.37 1165.87,291.178 1182.56,290.523 1199.01,289.159 1214.02,287.222 1229.19,284.925 1244.26,283.245 1258.39,283.695 1271.57,287.536 1286.28,297.644 1300.72,314.859 1314.84,338.484 1328.39,365.319 1343.34,394.597 1358.07,415.78 1371.63,421.573 1386.68,406.41 1401.59,366.582 1417.88,299.512 1433.8,224.122 1447.04,172.693 1461.36,162.584 1474.37,247.355 1482.66,373.038 1489.3,496.995 1492.39,554.522 1495.17,605.209 1498.51,663.824 1503.2,741.068 1509.91,840.096 1516.27,921.593 1524.21,1007.96 1531.95,1077.65 1539.93,1136.48 1548.04,1184.36 1556.7,1223.59 1567.48,1257.24 1580.25,1278.7 1595.4,1284.41 1611.44,1275.81 1626.76,1261.67 1643.47,1246.7 1660.93,1235.93 1679.13,1231.1 1695.98,1231.02 1712.97,1233.12 1731.08,1235.81 1747.95,1237.74 1764.65,1238.86 1783.21,1239.37 1800.5,1239.44 1817.33,1239.37 1836.14,1239.27 1853.67,1239.21 1870.67,1239.19 1889.5,1239.18 1907.12,1239.18 1924.18,1239.18 1943.01,1239.18 1960.68,1239.18 1977.75,1239.18 1996.58,1239.18 2014.26,1239.18 2031.34,1239.18 2050.17,1239.18 2067.84,1239.18 2084.92,1239.18 2103.75,1239.18 2121.42,1239.18 2138.49,1239.18 2157.33,1239.18 2174.99,1239.18 2192.05,1239.18 2210.89,1239.18 2228.54,1239.18 2245.6,1239.18 2264.45,1239.18 2282.09,1239.18 2291.66,1239.18 "/>
<polyline clip-path="url(#clip972)" style="stroke:#8e971d; stroke-linecap:round; stroke-linejoin:round; stroke-width:4; stroke-opacity:1; fill:none" points="255.035,291.149 255.082,291.149 255.551,291.149 257.194,291.149 260.044,291.149 263.691,291.149 275.472,291.149 292.212,291.149 307.306,291.149 322.176,291.149 338.164,291.149 355.776,291.149 373.073,291.149 389.754,291.149 408.902,291.149 427.319,291.149 444.493,291.149 464.355,291.149 483.093,291.149 500.846,291.149 521.036,291.149 539.656,291.149 558.069,291.149 578.335,291.149 596.541,291.149 615.621,291.149 635.792,291.149 653.374,291.149 673.042,291.149 692.996,291.149 709.792,291.149 729.889,291.149 749.551,291.149 766.859,291.149 787.169,291.149 806.364,291.149 824.383,291.149 844.728,291.149 863.331,291.149 882.089,291.149 902.345,291.149 920.259,291.149 939.69,291.149 959.751,291.149 976.883,291.149 996.835,291.149 1016.62,291.148 1033.78,291.148 1054.04,291.149 1073.42,291.154 1091.22,291.169 1111.51,291.21 1130.24,291.265 1148.48,291.288 1166.97,291.147 1184.04,290.665 1200.86,289.645 1216.48,288.165 1231.97,286.484 1247.27,285.435 1261.29,286.225 1275.16,290.124 1290.04,299.355 1304.46,314.224 1318.28,333.477 1331.8,354.852 1346.78,376.728 1361.23,389.499 1375.34,387.516 1390.49,364.097 1406.05,315.762 1422.32,245.068 1439.52,165.272 1454.69,115.322 1469.26,121.268 1482.75,226.522 1491.54,375.719 1498.31,525.359 1504.34,656.12 1509.91,767.8 1515.77,872.059 1521.92,966.185 1528.54,1050.97 1536.89,1136.52 1545.32,1202.29 1554.12,1252.24 1564.42,1290.39 1576.03,1311.88 1589.39,1315.08 1604.07,1301.21 1619.15,1278.12 1635.95,1252.34 1653.9,1232.57 1671.97,1223.41 1688.65,1222.78 1707.11,1226.9 1725.15,1232.13 1742.54,1236.16 1760.95,1238.65 1779.13,1239.63 1796.53,1239.77 1814.8,1239.59 1833.1,1239.38 1850.46,1239.25 1868.67,1239.19 1886.98,1239.17 1904.28,1239.17 1922.47,1239.18 1940.77,1239.18 1958.03,1239.18 1976.21,1239.18 1994.49,1239.18 2011.74,1239.18 2029.92,1239.18 2048.17,1239.18 2065.42,1239.18 2083.62,1239.18 2101.85,1239.18 2119.1,1239.18 2137.32,1239.18 2155.53,1239.18 2172.78,1239.18 2191.02,1239.18 2209.21,1239.18 2226.47,1239.18 2244.73,1239.18 2262.9,1239.18 2280.17,1239.18 2291.66,1239.18 "/>
<polyline clip-path="url(#clip972)" style="stroke:#00a8cb; stroke-linecap:round; stroke-linejoin:round; stroke-width:4; stroke-opacity:1; fill:none" points="255.035,291.149 255.082,291.149 255.551,291.149 257.194,291.149 260.044,291.149 263.691,291.149 275.471,291.149 292.211,291.149 307.306,291.149 322.175,291.149 338.163,291.149 355.775,291.149 373.072,291.149 389.753,291.149 408.902,291.149 427.319,291.149 444.492,291.149 464.355,291.149 483.094,291.149 500.846,291.149 521.037,291.149 539.659,291.149 558.071,291.149 578.338,291.149 596.55,291.149 615.63,291.149 635.804,291.149 653.399,291.149 673.068,291.149 693.029,291.149 709.857,291.149 729.96,291.149 749.636,291.149 766.931,291.147 787.256,291.141 806.487,291.132 824.471,291.126 844.655,291.149 863.118,291.255 881.264,291.516 899.129,291.961 915.824,292.44 932.309,292.617 947.372,291.944 962.616,289.704 977.688,285.271 991.731,278.981 1005.14,271.63 1019.94,263.917 1034.4,260.16 1048.48,264.423 1061.93,279.895 1076.98,314.13 1091.61,365.787 1105.29,428.127 1120.49,506.639 1135.45,583.034 1151.93,653.028 1167.65,695.531 1180.9,708.748 1195.31,698.911 1208.21,675.089 1216.01,665.415 1222.9,662.871 1226.7,665.437 1230.15,669.896 1234.03,677.3 1239.18,690.576 1246.88,716.72 1254.07,746.885 1262.03,785.766 1270.1,830.191 1278.31,879.427 1286.52,931.327 1296.84,997.795 1309.12,1074.11 1323.68,1153.4 1339.76,1219.43 1355.23,1258.6 1371.83,1276.67 1388.61,1276.83 1407,1266.28 1423.39,1254.86 1439.96,1245.57 1457.95,1239.58 1475.46,1237.3 1492.61,1237.1 1510.93,1237.76 1528.77,1238.46 1546.07,1238.92 1564.46,1239.15 1582.51,1239.21 1599.84,1239.22 1618.23,1239.2 1636.33,1239.19 1653.65,1239.18 1672.04,1239.18 1690.15,1239.18 1707.45,1239.18 1725.86,1239.18 1743.94,1239.18 1761.24,1239.18 1779.67,1239.18 1797.72,1239.18 1815.02,1239.18 1833.48,1239.18 1851.5,1239.18 1868.79,1239.18 1887.28,1239.18 1905.26,1239.18 1922.56,1239.18 1941.07,1239.18 1959.02,1239.18 1976.31,1239.18 1994.85,1239.18 2012.76,1239.18 2030.06,1239.18 2048.62,1239.18 2066.5,1239.18 2083.79,1239.18 2102.38,1239.18 2120.23,1239.18 2137.51,1239.18 2156.12,1239.18 2173.94,1239.18 2191.22,1239.18 2209.84,1239.18 2227.63,1239.18 2244.91,1239.18 2263.55,1239.18 2281.31,1239.18 2291.66,1239.18 "/>
<polyline clip-path="url(#clip972)" style="stroke:#9b7fe8; stroke-linecap:round; stroke-linejoin:round; stroke-width:4; stroke-opacity:1; fill:none" points="255.035,291.149 255.082,291.149 255.551,291.149 257.194,291.149 260.044,291.149 263.691,291.149 275.472,291.149 292.212,291.149 307.306,291.149 322.176,291.149 338.164,291.149 355.776,291.149 373.073,291.149 389.754,291.149 408.902,291.149 427.319,291.149 444.493,291.149 464.355,291.149 483.093,291.149 500.846,291.149 521.036,291.149 539.656,291.149 558.069,291.149 578.335,291.149 596.541,291.149 615.621,291.149 635.792,291.149 653.374,291.149 673.041,291.149 692.996,291.149 709.792,291.149 729.888,291.149 749.55,291.149 766.859,291.149 787.168,291.149 806.363,291.149 824.382,291.149 844.726,291.149 863.328,291.149 882.087,291.149 902.341,291.149 920.252,291.149 939.683,291.149 959.742,291.149 976.867,291.149 996.817,291.149 1016.6,291.149 1033.77,291.149 1054.02,291.149 1073.4,291.15 1091.2,291.154 1111.55,291.165 1130.39,291.181 1148.89,291.188 1168.7,291.137 1186.58,290.947 1204.52,290.513 1221.56,289.848 1237.81,289.163 1253.83,288.948 1268.21,289.884 1283.18,292.947 1298.04,298.967 1312.07,307.657 1324.94,317.613 1339.62,329.266 1354.1,337.443 1368.31,337.596 1382.26,325.754 1397.32,296.374 1412.21,250.681 1426.2,197.478 1441.58,138.476 1456.79,95.6007 1472.8,88.9152 1487.5,141.68 1500.27,258.948 1514.1,496.216 1521,704.734 1524.65,712.393 1528.37,720.94 1531.82,727.888 1535.06,732.921 1538.34,736.09 1542.07,737.224 1547.33,734.368 1553.25,725.326 1560.54,706.613 1568.11,679.396 1576.12,643.356 1584.95,596.944 1594.66,541.112 1604.99,480.47 1616.41,417.685 1629.13,358.985 1641.36,317.351 1652.68,292.178 1664.55,1220.9 1676.93,1215.41 1688.71,1215.53 1699.86,1218.67 1709.94,1222.75 1722.16,1227.99 1735.27,1232.89 1749.73,1236.76 1766.01,1239.15 1781.84,1240.01 1797.66,1240.07 1813.92,1239.8 1830.41,1239.51 1846.17,1239.32 1864.5,1239.21 1882.34,1239.17 1898.18,1239.17 1916.78,1239.17 1935.06,1239.18 1951.17,1239.18 1969.94,1239.18 1988.42,1239.18 2004.64,1239.18 2023.46,1239.18 2042.02,1239.18 2058.27,1239.18 2077.13,1239.18 2095.73,1239.18 2111.96,1239.18 2130.85,1239.18 2149.45,1239.18 2165.65,1239.18 2184.57,1239.18 2203.16,1239.18 2219.32,1239.18 2238.27,1239.18 2256.84,1239.18 2272.97,1239.18 2291.66,1239.18 "/>
<polyline clip-path="url(#clip972)" style="stroke:#608cf6; stroke-linecap:round; stroke-linejoin:round; stroke-width:4; stroke-opacity:1; fill:none" points="255.035,291.149 255.082,291.149 255.551,291.149 257.194,291.149 260.044,291.149 263.691,291.149 275.472,291.149 292.212,291.149 307.306,291.149 322.176,291.149 338.164,291.149 355.776,291.149 373.073,291.149 389.754,291.149 408.902,291.149 427.319,291.149 444.493,291.149 464.355,291.149 483.093,291.149 500.846,291.149 521.036,291.149 539.656,291.149 558.069,291.149 578.335,291.149 596.542,291.149 615.622,291.149 635.792,291.149 653.375,291.149 673.042,291.149 692.997,291.149 709.794,291.149 729.891,291.149 749.554,291.149 766.862,291.149 787.172,291.149 806.368,291.149 824.386,291.149 844.732,291.149 863.339,291.149 882.097,291.149 902.354,291.149 920.278,291.149 939.709,291.149 959.775,291.149 976.928,291.148 996.884,291.146 1016.68,291.141 1033.82,291.137 1054.05,291.143 1073.33,291.191 1090.97,291.317 1109.88,291.582 1127.28,291.906 1144.07,292.085 1160.03,291.723 1175.54,290.303 1190.87,287.296 1205.23,282.793 1218.87,277.367 1233.67,271.576 1248.16,268.587 1262.06,271.574 1274.97,282.619 1289.87,308.438 1304.42,348.528 1318.41,399.327 1333.21,460.566 1348.67,523.096 1364.52,573.118 1381.72,598.753 1397.32,590.876 1412.16,558.747 1426.22,518.328 1439.06,501.428 1446.51,517.637 1453.28,545.728 1460.01,582.338 1465.64,617.172 1470.63,649.933 1476.45,689.656 1485.42,752.766 1493.96,814.292 1502.84,878.944 1513.24,953.959 1524.95,1034.63 1538.43,1117.54 1553.08,1189.89 1567.59,1239.8 1584.48,1271.19 1602.49,1279.42 1620.65,1271.94 1637.34,1260.02 1655.92,1247.97 1674.25,1240.43 1691.23,1237.3 1709.88,1236.69 1728.35,1237.38 1745.26,1238.18 1763.86,1238.81 1782.41,1239.12 1799.22,1239.22 1817.81,1239.23 1836.36,1239.21 1853.09,1239.19 1871.69,1239.18 1890.2,1239.18 1906.9,1239.18 1925.51,1239.18 1943.99,1239.18 1960.67,1239.18 1979.31,1239.18 1997.76,1239.18 2014.45,1239.18 2033.11,1239.18 2051.52,1239.18 2068.22,1239.18 2086.91,1239.18 2105.29,1239.18 2122.01,1239.18 2140.72,1239.18 2159.07,1239.18 2175.81,1239.18 2194.55,1239.18 2212.87,1239.18 2229.62,1239.18 2248.4,1239.18 2266.67,1239.18 2283.45,1239.18 2291.66,1239.18 "/>
<polyline clip-path="url(#clip972)" style="stroke:#f05f73; stroke-linecap:round; stroke-linejoin:round; stroke-width:4; stroke-opacity:1; fill:none" points="255.035,291.149 255.082,291.149 255.551,291.149 257.194,291.149 260.044,291.149 263.691,291.149 275.471,291.149 292.212,291.149 307.306,291.149 322.175,291.149 338.163,291.149 355.775,291.149 373.072,291.149 389.754,291.149 408.902,291.149 427.319,291.149 444.492,291.149 464.355,291.149 483.094,291.149 500.846,291.149 521.037,291.149 539.658,291.149 558.071,291.149 578.338,291.149 596.55,291.149 615.629,291.149 635.803,291.149 653.397,291.149 673.065,291.149 693.026,291.149 709.851,291.149 729.954,291.149 749.629,291.149 766.925,291.148 787.249,291.144 806.479,291.137 824.47,291.132 844.732,291.149 863.28,291.229 881.605,291.431 899.856,291.785 916.768,292.163 933.493,292.277 948.932,291.638 964.371,289.62 979.598,285.692 993.553,280.285 1007.38,273.838 1022.26,267.544 1036.69,265.215 1050.58,270.318 1064.08,285.822 1079.12,318.492 1093.58,365.926 1107.65,424.509 1122.91,494.746 1138.43,562.388 1154.97,616.716 1171.38,642.165 1186.12,637.765 1200.7,611.658 1213.94,582.992 1221.39,578.378 1228.05,585.476 1233.85,600.534 1239.13,619.195 1244.45,642.129 1250.52,671.967 1258.51,715.747 1266.13,761.205 1274.04,811.455 1282.88,870.279 1292.71,937.384 1303.88,1012.77 1316.51,1092.07 1331.57,1171.51 1347.12,1230.6 1363.41,1266.15 1381.07,1279.05 1398.91,1274.49 1416.43,1262.67 1434.45,1250.48 1452.15,1242.15 1470.07,1237.95 1487.77,1236.84 1505.69,1237.25 1523.59,1238.05 1540.91,1238.68 1559.04,1239.05 1576.84,1239.2 1593.87,1239.22 1612.09,1239.21 1629.74,1239.2 1646.46,1239.19 1664.77,1239.18 1682.22,1239.18 1698.83,1239.18 1717.23,1239.18 1734.44,1239.18 1751.25,1239.18 1769.7,1239.18 1786.67,1239.18 1803.68,1239.18 1822.16,1239.18 1838.87,1239.18 1856.09,1239.18 1874.55,1239.18 1890.99,1239.18 1908.4,1239.18 1926.81,1239.18 1943.42,1239.18 1961,1239.18 1979.32,1239.18 1996.1,1239.18 2013.78,1239.18 2032.03,1239.18 2048.96,1239.18 2066.71,1239.18 2084.9,1239.18 2101.95,1239.18 2119.75,1239.18 2137.89,1239.18 2155.03,1239.18 2172.86,1239.18 2190.95,1239.18 2208.17,1239.18 2226.02,1239.18 2244.07,1239.18 2261.36,1239.18 2279.22,1239.18 2291.66,1239.18 "/>
<polyline clip-path="url(#clip972)" style="stroke:#dd64b5; stroke-linecap:round; stroke-linejoin:round; stroke-width:4; stroke-opacity:1; fill:none" points="255.035,291.149 255.082,291.149 255.551,291.149 257.194,291.149 260.044,291.149 263.69,291.149 275.471,291.149 292.211,291.149 307.305,291.149 322.175,291.149 338.163,291.149 355.775,291.149 373.072,291.149 389.753,291.149 408.902,291.149 427.319,291.149 444.492,291.149 464.355,291.149 483.095,291.149 500.846,291.149 521.037,291.149 539.661,291.149 558.072,291.149 578.341,291.149 596.557,291.149 615.636,291.149 635.812,291.149 653.417,291.149 673.086,291.149 693.052,291.15 709.902,291.15 730.01,291.15 749.693,291.145 766.976,291.131 787.242,291.092 806.332,291.034 824.103,291 842.731,291.109 859.911,291.545 876.623,292.502 892.296,293.968 907.706,295.726 922.962,297.07 937.248,296.82 950.76,293.902 965.55,286.214 980.031,273.227 994.019,256.049 1007.15,237.965 1022.08,220.11 1036.69,212.879 1050.59,223.364 1065.5,261.21 1080.9,334.538 1097.01,448.928 1114.34,608.565 1129.12,765.883 1143.94,931.958 1157.69,1071.81 1167.81,1139.28 1174.18,1154.98 1179.74,1153.93 1185.24,1144.77 1191.33,1130.23 1197.11,1115.43 1203.74,1099.52 1211.89,1083.38 1220.22,1072.01 1228.93,1066.2 1238.71,1067.16 1249.79,1077.2 1262.42,1098.26 1277.28,1131.5 1292.64,1168.77 1308.81,1203.98 1326.47,1232.05 1344.65,1247.79 1362.08,1252.48 1380.13,1250.8 1398.27,1246.58 1415.95,1242.71 1433.61,1240.18 1451.96,1238.95 1469.47,1238.66 1486.75,1238.75 1505.24,1238.95 1522.5,1239.08 1539.42,1239.15 1557.99,1239.18 1574.94,1239.19 1591.53,1239.19 1610.17,1239.18 1626.69,1239.18 1643.54,1239.18 1662.22,1239.18 1678.86,1239.18 1695.96,1239.18 1714.6,1239.18 1731.42,1239.18 1748.69,1239.18 1767.28,1239.18 1784.25,1239.18 1801.63,1239.18 1820.17,1239.18 1837.26,1239.18 1854.71,1239.18 1873.21,1239.18 1890.39,1239.18 1907.88,1239.18 1926.35,1239.18 1943.6,1239.18 1961.12,1239.18 1979.57,1239.18 1996.87,1239.18 2014.41,1239.18 2032.84,1239.18 2050.17,1239.18 2067.73,1239.18 2086.15,1239.18 2103.51,1239.18 2121.08,1239.18 2139.48,1239.18 2156.88,1239.18 2174.46,1239.18 2192.84,1239.18 2210.26,1239.18 2227.85,1239.18 2246.22,1239.18 2263.66,1239.18 2281.25,1239.18 2291.66,1239.18 "/>
<polyline clip-path="url(#clip972)" style="stroke:#6b9e32; stroke-linecap:round; stroke-linejoin:round; stroke-width:4; stroke-opacity:1; fill:none" points="255.035,291.149 255.082,291.149 255.551,291.149 257.194,291.149 260.044,291.149 263.691,291.149 275.472,291.149 292.212,291.149 307.306,291.149 322.176,291.149 338.164,291.149 355.776,291.149 373.073,291.149 389.754,291.149 408.902,291.149 427.319,291.149 444.493,291.149 464.355,291.149 483.093,291.149 500.846,291.149 521.036,291.149 539.656,291.149 558.069,291.149 578.335,291.149 596.543,291.149 615.623,291.149 635.794,291.149 653.378,291.149 673.045,291.149 693.001,291.149 709.802,291.149 729.899,291.149 749.564,291.149 766.87,291.149 787.182,291.149 806.383,291.149 824.398,291.149 844.748,291.149 863.367,291.149 882.123,291.15 902.388,291.151 920.342,291.152 939.774,291.152 959.842,291.143 977.063,291.113 996.837,291.032 1015.94,290.9 1032.65,290.799 1050.45,290.892 1066.92,291.47 1082.77,292.834 1098.15,295.145 1112.56,298.082 1127.63,301.234 1142.27,302.915 1155.87,301.367 1169.52,294.777 1184.33,280.05 1198.78,257.665 1212.92,230.081 1226.86,202.199 1242.13,179.746 1256.75,177.06 1270.49,200.981 1286.7,271.773 1301.25,379.514 1317.2,547.23 1331.06,734.53 1343.42,929.009 1355.52,1122.75 1364.19,1234.02 1372.25,1291.82 1378.02,1312.18 1383.16,1319.56 1388.44,1319.97 1394.76,1313.98 1403.85,1297.83 1412.61,1277.87 1422.24,1254.3 1432.71,1229.73 1443.91,1207.28 1455.92,1189.85 1469.29,1179.81 1484.4,1179.71 1499.87,1188.89 1513.23,1200.91 1527.38,1214.41 1543.95,1227.94 1561.59,1237.52 1577.39,1241.81 1594.06,1243.07 1611.58,1242.43 1628.22,1241.23 1645.03,1240.16 1663.41,1239.44 1680.67,1239.15 1697.2,1239.08 1716,1239.1 1733.68,1239.13 1750.39,1239.16 1769.3,1239.18 1787.1,1239.18 1803.87,1239.18 1822.83,1239.18 1840.68,1239.18 1857.47,1239.18 1876.45,1239.18 1894.31,1239.18 1911.11,1239.18 1930.09,1239.18 1947.95,1239.18 1964.74,1239.18 1983.73,1239.18 2001.57,1239.18 2018.35,1239.18 2037.35,1239.18 2055.18,1239.18 2071.95,1239.18 2090.96,1239.18 2108.78,1239.18 2125.54,1239.18 2144.55,1239.18 2162.35,1239.18 2179.11,1239.18 2198.12,1239.18 2215.92,1239.18 2232.66,1239.18 2251.68,1239.18 2269.47,1239.18 2286.21,1239.18 2291.66,1239.18 "/>
<polyline clip-path="url(#clip972)" style="stroke:#009af9; stroke-linecap:round; stroke-linejoin:round; stroke-width:4; stroke-opacity:1; fill:none" points="255.035,291.149 255.082,291.149 255.551,291.149 257.194,291.149 260.044,291.149 263.691,291.149 275.472,291.149 292.212,291.149 307.306,291.149 322.176,291.149 338.164,291.149 355.776,291.149 373.073,291.149 389.754,291.149 408.902,291.149 427.319,291.149 444.493,291.149 464.355,291.149 483.093,291.149 500.846,291.149 521.036,291.149 539.656,291.149 558.069,291.149 578.335,291.149 596.542,291.149 615.622,291.149 635.792,291.149 653.375,291.149 673.042,291.149 692.997,291.149 709.795,291.149 729.892,291.149 749.554,291.149 766.862,291.149 787.172,291.149 806.369,291.149 824.387,291.149 844.733,291.149 863.34,291.149 882.098,291.149 902.355,291.149 920.28,291.149 939.712,291.149 959.777,291.149 976.933,291.148 996.889,291.145 1016.69,291.14 1033.83,291.134 1054.04,291.141 1073.27,291.198 1090.87,291.347 1109.56,291.651 1126.8,292.023 1143.44,292.237 1159.17,291.868 1174.55,290.359 1189.86,287.106 1204.22,282.193 1217.61,276.337 1232.34,269.867 1246.81,266.156 1260.83,268.668 1274.02,280.028 1288.87,306.712 1303.53,349.153 1317.39,402.431 1332.2,468.014 1347.57,535.811 1363.57,593.215 1380.93,627.12 1395.72,627.312 1410.6,602.521 1424.53,566.949 1435.66,550.802 1441.66,556.758 1447.06,569.861 1452.68,590.061 1458.63,617.046 1464.03,645.118 1470.18,680.145 1478.79,733.024 1487.28,788.576 1495.84,847.077 1505.43,914.228 1516.31,989.883 1528.73,1071.3 1543.32,1153.59 1558.58,1218.2 1574.41,1259.63 1591.95,1278.48 1610.2,1277.07 1627.56,1266.07 1645.39,1253.34 1663.75,1243.54 1681.11,1238.55 1698.29,1236.85 1716.9,1237.02 1733.8,1237.78 1750.48,1238.48 1769.19,1238.97 1785.98,1239.16 1802.99,1239.22 1821.71,1239.22 1838.69,1239.2 1855.91,1239.19 1874.57,1239.18 1891.68,1239.18 1909.02,1239.18 1927.62,1239.18 1944.84,1239.18 1962.24,1239.18 1980.81,1239.18 1998.1,1239.18 2015.53,1239.18 2034.07,1239.18 2051.41,1239.18 2068.87,1239.18 2087.38,1239.18 2104.76,1239.18 2122.23,1239.18 2140.73,1239.18 2158.14,1239.18 2175.62,1239.18 2194.11,1239.18 2211.53,1239.18 2229.02,1239.18 2247.5,1239.18 2264.95,1239.18 2282.44,1239.18 2291.66,1239.18 "/>
<polyline clip-path="url(#clip972)" style="stroke:#e26f46; stroke-linecap:round; stroke-linejoin:round; stroke-width:4; stroke-opacity:1; fill:none" points="255.035,291.149 255.082,291.149 255.551,291.149 257.194,291.149 260.044,291.149 263.691,291.149 275.472,291.149 292.212,291.149 307.306,291.149 322.176,291.149 338.164,291.149 355.776,291.149 373.072,291.149 389.754,291.149 408.902,291.149 427.319,291.149 444.493,291.149 464.355,291.149 483.093,291.149 500.846,291.149 521.036,291.149 539.656,291.149 558.069,291.149 578.335,291.149 596.543,291.149 615.623,291.149 635.793,291.149 653.378,291.149 673.045,291.149 693,291.149 709.801,291.149 729.899,291.149 749.563,291.149 766.869,291.149 787.181,291.149 806.382,291.149 824.397,291.149 844.747,291.149 863.364,291.149 882.12,291.149 902.385,291.15 920.336,291.151 939.768,291.152 959.839,291.144 977.056,291.121 996.888,291.055 1016.16,290.946 1032.97,290.863 1051.03,290.947 1067.71,291.461 1083.59,292.658 1099.12,294.703 1113.75,297.304 1128.9,300.01 1143.54,301.273 1157,299.553 1170.9,292.978 1185.71,278.918 1200.1,257.96 1214.13,232.585 1228.1,207.107 1243.29,187.615 1257.71,187.106 1271.78,212.963 1287.79,282.821 1302.98,393.156 1319.29,559.216 1333.31,738.535 1346.57,932.88 1354.89,1294.66 1361.63,1222.62 1368.54,1105.24 1373.9,1005.45 1378.53,921.228 1383.28,839.908 1387.79,769.197 1393.33,691.248 1399.63,613.813 1406.61,540.424 1413.61,478.284 1421.51,420.018 1430.39,368.018 1440.02,325.966 1450.2,295.731 1460.39,277.812 1475.32,268.198 1488.37,1206.6 1500.22,1215.21 1512.7,1223.93 1525.69,1231.5 1538.37,1236.85 1554.66,1240.75 1569.52,1242.01 1584.96,1241.9 1601.32,1241.09 1618.37,1240.2 1634.05,1239.61 1651.43,1239.25 1668.81,1239.12 1684.77,1239.11 1703.04,1239.13 1721.41,1239.16 1737.85,1239.17 1756.2,1239.18 1774.83,1239.18 1791.43,1239.18 1809.83,1239.18 1828.58,1239.18 1845.21,1239.18 1863.65,1239.18 1882.45,1239.18 1899.05,1239.18 1917.54,1239.18 1936.34,1239.18 1952.89,1239.18 1971.44,1239.18 1990.22,1239.18 2006.71,1239.18 2025.32,1239.18 2044.08,1239.18 2060.51,1239.18 2079.17,1239.18 2097.9,1239.18 2114.27,1239.18 2132.98,1239.18 2151.68,1239.18 2167.99,1239.18 2186.75,1239.18 2205.42,1239.18 2221.69,1239.18 2240.48,1239.18 2259.13,1239.18 2275.36,1239.18 2291.66,1239.18 "/>
<polyline clip-path="url(#clip972)" style="stroke:#3da44d; stroke-linecap:round; stroke-linejoin:round; stroke-width:4; stroke-opacity:1; fill:none" points="255.035,291.149 255.082,291.149 255.551,291.149 257.194,291.149 260.044,291.149 263.691,291.149 275.472,291.149 292.212,291.149 307.306,291.149 322.176,291.149 338.164,291.149 355.776,291.149 373.073,291.149 389.754,291.149 408.902,291.149 427.319,291.149 444.493,291.149 464.355,291.149 483.093,291.149 500.846,291.149 521.036,291.149 539.656,291.149 558.069,291.149 578.335,291.149 596.542,291.149 615.622,291.149 635.793,291.149 653.376,291.149 673.044,291.149 692.998,291.149 709.797,291.149 729.894,291.149 749.558,291.149 766.865,291.149 787.176,291.149 806.374,291.149 824.391,291.149 844.738,291.149 863.35,291.149 882.107,291.149 902.367,291.149 920.302,291.149 939.735,291.15 959.806,291.148 976.988,291.143 996.94,291.129 1016.7,291.101 1033.79,291.078 1053.43,291.109 1071.66,291.311 1088.52,291.791 1105.41,292.654 1121.33,293.722 1136.92,294.574 1151.71,294.409 1165.72,292.361 1180.64,286.985 1195.17,277.801 1208.9,265.79 1222.23,252.599 1237.06,239.912 1251.56,235.33 1265.77,245.053 1280.28,275.842 1295.7,336.187 1310.86,423.221 1325.87,531.11 1342.91,667.816 1357.4,784.393 1372.34,893.198 1385.5,965.159 1398.12,991.973 1404.94,984.78 1410.84,968.232 1416.97,949.397 1422.61,933.237 1428.01,920.983 1433.98,911.761 1441.96,906.892 1450.54,911.023 1460.02,926.096 1470.76,954.835 1482.61,997.794 1495.56,1052.85 1509.01,1111.9 1524.38,1172.86 1539.44,1219.06 1556.71,1251.92 1573.86,1265.17 1591.62,1264.74 1609.02,1257.54 1627.3,1248.88 1644.39,1242.8 1661.63,1239.35 1680.35,1238.03 1697.05,1238.02 1713.59,1238.39 1732.4,1238.81 1749.44,1239.05 1766.39,1239.16 1785.21,1239.2 1802.43,1239.2 1819.54,1239.19 1838.31,1239.18 1855.64,1239.18 1872.84,1239.18 1891.58,1239.18 1908.97,1239.18 1926.22,1239.18 1944.93,1239.18 1962.37,1239.18 1979.63,1239.18 1998.33,1239.18 2015.79,1239.18 2033.07,1239.18 2051.76,1239.18 2069.24,1239.18 2086.52,1239.18 2105.2,1239.18 2122.69,1239.18 2139.98,1239.18 2158.66,1239.18 2176.16,1239.18 2193.45,1239.18 2212.12,1239.18 2229.63,1239.18 2246.92,1239.18 2265.59,1239.18 2283.1,1239.18 2291.66,1239.18 "/>
<polyline clip-path="url(#clip972)" style="stroke:#c271d2; stroke-linecap:round; stroke-linejoin:round; stroke-width:4; stroke-opacity:1; fill:none" points="255.035,291.149 255.082,291.149 255.551,291.149 257.194,291.149 260.044,291.149 263.691,291.149 275.472,291.149 292.212,291.149 307.306,291.149 322.176,291.149 338.164,291.149 355.776,291.149 373.073,291.149 389.754,291.149 408.902,291.149 427.319,291.149 444.493,291.149 464.355,291.149 483.093,291.149 500.846,291.149 521.036,291.149 539.656,291.149 558.069,291.149 578.335,291.149 596.541,291.149 615.621,291.149 635.792,291.149 653.374,291.149 673.041,291.149 692.995,291.149 709.791,291.149 729.888,291.149 749.55,291.149 766.858,291.149 787.167,291.149 806.362,291.149 824.381,291.149 844.725,291.149 863.326,291.149 882.085,291.149 902.338,291.149 920.247,291.149 939.678,291.149 959.736,291.149 976.854,291.149 996.803,291.149 1016.58,291.149 1033.75,291.149 1054,291.149 1073.37,291.149 1091.19,291.15 1111.54,291.152 1130.36,291.156 1148.91,291.158 1169.17,291.145 1187.34,291.09 1206.28,290.947 1224.96,290.703 1241.95,290.469 1259.08,290.482 1274.99,291.154 1290.72,292.994 1306.04,296.341 1319.63,300.616 1334.14,305.881 1348.95,310.337 1363.13,311.184 1376.41,306.238 1390.79,291.935 1405.57,266.046 1419.75,231.799 1434.14,192.538 1449.44,155.564 1464.91,137.106 1480.55,153.44 1497.82,229.324 1513.34,361.944 1528.4,560.801 1541.93,804.927 1554.68,1072.26 1557.4,1085.6 1560.75,1061.42 1563.33,1040.38 1565.62,1020.13 1567.79,999.974 1570.32,975.68 1574.36,935.741 1579.72,882.565 1586.1,820.507 1592.71,758.598 1599.35,698.98 1607.13,632.52 1616.15,560.347 1626.46,485.407 1637.99,413.432 1650.58,351.881 1663.74,307.616 1677.75,281.066 1693.15,270.586 1709.6,272.186 1725.93,278.687 1742.04,284.88 1759.07,289.102 1776.46,291.031 1792.66,291.521 1810.17,291.478 1828.31,291.315 1844.56,291.215 1862.01,291.167 1880.56,291.151 1897.21,291.148 1914.55,291.148 1933.3,291.149 1950.18,291.149 1967.38,291.149 1986.25,291.149 2003.26,291.149 2020.33,291.149 2039.28,291.149 2056.39,291.149 2073.33,291.149 2092.33,291.149 2109.51,291.149 2126.33,291.149 2145.36,291.149 2162.62,291.149 2179.31,291.149 2198.37,291.149 2215.69,291.149 2232.24,291.149 2251.32,291.149 2268.71,291.149 2285.16,291.149 2291.66,291.149 "/>
</svg>
