<?xml version="1.0" encoding="utf-8"?>
<svg xmlns="http://www.w3.org/2000/svg" xmlns:xlink="http://www.w3.org/1999/xlink" width="600" height="400" viewBox="0 0 2400 1600">
<defs>
  <clipPath id="clip750">
    <rect x="0" y="0" width="2400" height="1600"/>
  </clipPath>
</defs>
<path clip-path="url(#clip750)" d="M0 1600 L2400 1600 L2400 0 L0 0  Z" fill="#ffffff" fill-rule="evenodd" fill-opacity="1"/>
<defs>
  <clipPath id="clip751">
    <rect x="480" y="0" width="1681" height="1600"/>
  </clipPath>
</defs>
<path clip-path="url(#clip750)" d="M249.542 1423.18 L2352.76 1423.18 L2352.76 47.2441 L249.542 47.2441  Z" fill="#ffffff" fill-rule="evenodd" fill-opacity="1"/>
<defs>
  <clipPath id="clip752">
    <rect x="249" y="47" width="2104" height="1377"/>
  </clipPath>
</defs>
<polyline clip-path="url(#clip752)" style="stroke:#000000; stroke-linecap:round; stroke-linejoin:round; stroke-width:2; stroke-opacity:0.1; fill:none" points="309.067,1423.18 309.067,47.2441 "/>
<polyline clip-path="url(#clip752)" style="stroke:#000000; stroke-linecap:round; stroke-linejoin:round; stroke-width:2; stroke-opacity:0.1; fill:none" points="970.455,1423.18 970.455,47.2441 "/>
<polyline clip-path="url(#clip752)" style="stroke:#000000; stroke-linecap:round; stroke-linejoin:round; stroke-width:2; stroke-opacity:0.1; fill:none" points="1631.84,1423.18 1631.84,47.2441 "/>
<polyline clip-path="url(#clip752)" style="stroke:#000000; stroke-linecap:round; stroke-linejoin:round; stroke-width:2; stroke-opacity:0.1; fill:none" points="2293.23,1423.18 2293.23,47.2441 "/>
<polyline clip-path="url(#clip750)" style="stroke:#000000; stroke-linecap:round; stroke-linejoin:round; stroke-width:4; stroke-opacity:1; fill:none" points="249.542,1423.18 2352.76,1423.18 "/>
<polyline clip-path="url(#clip750)" style="stroke:#000000; stroke-linecap:round; stroke-linejoin:round; stroke-width:4; stroke-opacity:1; fill:none" points="309.067,1423.18 309.067,1404.28 "/>
<polyline clip-path="url(#clip750)" style="stroke:#000000; stroke-linecap:round; stroke-linejoin:round; stroke-width:4; stroke-opacity:1; fill:none" points="970.455,1423.18 970.455,1404.28 "/>
<polyline clip-path="url(#clip750)" style="stroke:#000000; stroke-linecap:round; stroke-linejoin:round; stroke-width:4; stroke-opacity:1; fill:none" points="1631.84,1423.18 1631.84,1404.28 "/>
<polyline clip-path="url(#clip750)" style="stroke:#000000; stroke-linecap:round; stroke-linejoin:round; stroke-width:4; stroke-opacity:1; fill:none" points="2293.23,1423.18 2293.23,1404.28 "/>
<path clip-path="url(#clip750)" d="M309.067 1454.1 Q305.456 1454.1 303.627 1457.66 Q301.822 1461.2 301.822 1468.33 Q301.822 1475.44 303.627 1479.01 Q305.456 1482.55 309.067 1482.55 Q312.701 1482.55 314.507 1479.01 Q316.335 1475.44 316.335 1468.33 Q316.335 1461.2 314.507 1457.66 Q312.701 1454.1 309.067 1454.1 M309.067 1450.39 Q314.877 1450.39 317.933 1455 Q321.011 1459.58 321.011 1468.33 Q321.011 1477.06 317.933 1481.67 Q314.877 1486.25 309.067 1486.25 Q303.257 1486.25 300.178 1481.67 Q297.123 1477.06 297.123 1468.33 Q297.123 1459.58 300.178 1455 Q303.257 1450.39 309.067 1450.39 Z" fill="#000000" fill-rule="nonzero" fill-opacity="1" /><path clip-path="url(#clip750)" d="M914.981 1481.64 L922.62 1481.64 L922.62 1455.28 L914.309 1456.95 L914.309 1452.69 L922.573 1451.02 L927.249 1451.02 L927.249 1481.64 L934.888 1481.64 L934.888 1485.58 L914.981 1485.58 L914.981 1481.64 Z" fill="#000000" fill-rule="nonzero" fill-opacity="1" /><path clip-path="url(#clip750)" d="M954.332 1454.1 Q950.721 1454.1 948.893 1457.66 Q947.087 1461.2 947.087 1468.33 Q947.087 1475.44 948.893 1479.01 Q950.721 1482.55 954.332 1482.55 Q957.967 1482.55 959.772 1479.01 Q961.601 1475.44 961.601 1468.33 Q961.601 1461.2 959.772 1457.66 Q957.967 1454.1 954.332 1454.1 M954.332 1450.39 Q960.143 1450.39 963.198 1455 Q966.277 1459.58 966.277 1468.33 Q966.277 1477.06 963.198 1481.67 Q960.143 1486.25 954.332 1486.25 Q948.522 1486.25 945.444 1481.67 Q942.388 1477.06 942.388 1468.33 Q942.388 1459.58 945.444 1455 Q948.522 1450.39 954.332 1450.39 Z" fill="#000000" fill-rule="nonzero" fill-opacity="1" /><path clip-path="url(#clip750)" d="M984.494 1454.1 Q980.883 1454.1 979.054 1457.66 Q977.249 1461.2 977.249 1468.33 Q977.249 1475.44 979.054 1479.01 Q980.883 1482.55 984.494 1482.55 Q988.128 1482.55 989.934 1479.01 Q991.763 1475.44 991.763 1468.33 Q991.763 1461.2 989.934 1457.66 Q988.128 1454.1 984.494 1454.1 M984.494 1450.39 Q990.304 1450.39 993.36 1455 Q996.439 1459.58 996.439 1468.33 Q996.439 1477.06 993.36 1481.67 Q990.304 1486.25 984.494 1486.25 Q978.684 1486.25 975.605 1481.67 Q972.55 1477.06 972.55 1468.33 Q972.55 1459.58 975.605 1455 Q978.684 1450.39 984.494 1450.39 Z" fill="#000000" fill-rule="nonzero" fill-opacity="1" /><path clip-path="url(#clip750)" d="M1014.66 1454.1 Q1011.05 1454.1 1009.22 1457.66 Q1007.41 1461.2 1007.41 1468.33 Q1007.41 1475.44 1009.22 1479.01 Q1011.05 1482.55 1014.66 1482.55 Q1018.29 1482.55 1020.1 1479.01 Q1021.92 1475.44 1021.92 1468.33 Q1021.92 1461.2 1020.1 1457.66 Q1018.29 1454.1 1014.66 1454.1 M1014.66 1450.39 Q1020.47 1450.39 1023.52 1455 Q1026.6 1459.58 1026.6 1468.33 Q1026.6 1477.06 1023.52 1481.67 Q1020.47 1486.25 1014.66 1486.25 Q1008.85 1486.25 1005.77 1481.67 Q1002.71 1477.06 1002.71 1468.33 Q1002.71 1459.58 1005.77 1455 Q1008.85 1450.39 1014.66 1450.39 Z" fill="#000000" fill-rule="nonzero" fill-opacity="1" /><path clip-path="url(#clip750)" d="M1580.45 1481.64 L1596.77 1481.64 L1596.77 1485.58 L1574.83 1485.58 L1574.83 1481.64 Q1577.49 1478.89 1582.07 1474.26 Q1586.68 1469.61 1587.86 1468.27 Q1590.11 1465.74 1590.99 1464.01 Q1591.89 1462.25 1591.89 1460.56 Q1591.89 1457.8 1589.95 1456.07 Q1588.02 1454.33 1584.92 1454.33 Q1582.72 1454.33 1580.27 1455.09 Q1577.84 1455.86 1575.06 1457.41 L1575.06 1452.69 Q1577.88 1451.55 1580.34 1450.97 Q1582.79 1450.39 1584.83 1450.39 Q1590.2 1450.39 1593.39 1453.08 Q1596.59 1455.77 1596.59 1460.26 Q1596.59 1462.39 1595.78 1464.31 Q1594.99 1466.2 1592.88 1468.8 Q1592.31 1469.47 1589.2 1472.69 Q1586.1 1475.88 1580.45 1481.64 Z" fill="#000000" fill-rule="nonzero" fill-opacity="1" /><path clip-path="url(#clip750)" d="M1616.59 1454.1 Q1612.98 1454.1 1611.15 1457.66 Q1609.34 1461.2 1609.34 1468.33 Q1609.34 1475.44 1611.15 1479.01 Q1612.98 1482.55 1616.59 1482.55 Q1620.22 1482.55 1622.03 1479.01 Q1623.86 1475.44 1623.86 1468.33 Q1623.86 1461.2 1622.03 1457.66 Q1620.22 1454.1 1616.59 1454.1 M1616.59 1450.39 Q1622.4 1450.39 1625.45 1455 Q1628.53 1459.58 1628.53 1468.33 Q1628.53 1477.06 1625.45 1481.67 Q1622.4 1486.25 1616.59 1486.25 Q1610.78 1486.25 1607.7 1481.67 Q1604.64 1477.06 1604.64 1468.33 Q1604.64 1459.58 1607.7 1455 Q1610.78 1450.39 1616.59 1450.39 Z" fill="#000000" fill-rule="nonzero" fill-opacity="1" /><path clip-path="url(#clip750)" d="M1646.75 1454.1 Q1643.14 1454.1 1641.31 1457.66 Q1639.5 1461.2 1639.5 1468.33 Q1639.5 1475.44 1641.31 1479.01 Q1643.14 1482.55 1646.75 1482.55 Q1650.38 1482.55 1652.19 1479.01 Q1654.02 1475.44 1654.02 1468.33 Q1654.02 1461.2 1652.19 1457.66 Q1650.38 1454.1 1646.75 1454.1 M1646.75 1450.39 Q1652.56 1450.39 1655.62 1455 Q1658.69 1459.58 1658.69 1468.33 Q1658.69 1477.06 1655.62 1481.67 Q1652.56 1486.25 1646.75 1486.25 Q1640.94 1486.25 1637.86 1481.67 Q1634.81 1477.06 1634.81 1468.33 Q1634.81 1459.58 1637.86 1455 Q1640.94 1450.39 1646.75 1450.39 Z" fill="#000000" fill-rule="nonzero" fill-opacity="1" /><path clip-path="url(#clip750)" d="M1676.91 1454.1 Q1673.3 1454.1 1671.47 1457.66 Q1669.67 1461.2 1669.67 1468.33 Q1669.67 1475.44 1671.47 1479.01 Q1673.3 1482.55 1676.91 1482.55 Q1680.55 1482.55 1682.35 1479.01 Q1684.18 1475.44 1684.18 1468.33 Q1684.18 1461.2 1682.35 1457.66 Q1680.55 1454.1 1676.91 1454.1 M1676.91 1450.39 Q1682.72 1450.39 1685.78 1455 Q1688.86 1459.58 1688.86 1468.33 Q1688.86 1477.06 1685.78 1481.67 Q1682.72 1486.25 1676.91 1486.25 Q1671.1 1486.25 1668.02 1481.67 Q1664.97 1477.06 1664.97 1468.33 Q1664.97 1459.58 1668.02 1455 Q1671.1 1450.39 1676.91 1450.39 Z" fill="#000000" fill-rule="nonzero" fill-opacity="1" /><path clip-path="url(#clip750)" d="M2251.91 1466.95 Q2255.27 1467.66 2257.14 1469.93 Q2259.04 1472.2 2259.04 1475.53 Q2259.04 1480.65 2255.52 1483.45 Q2252 1486.25 2245.52 1486.25 Q2243.35 1486.25 2241.03 1485.81 Q2238.74 1485.39 2236.29 1484.54 L2236.29 1480.02 Q2238.23 1481.16 2240.55 1481.74 Q2242.86 1482.32 2245.38 1482.32 Q2249.78 1482.32 2252.07 1480.58 Q2254.39 1478.84 2254.39 1475.53 Q2254.39 1472.48 2252.24 1470.77 Q2250.11 1469.03 2246.29 1469.03 L2242.26 1469.03 L2242.26 1465.19 L2246.47 1465.19 Q2249.92 1465.19 2251.75 1463.82 Q2253.58 1462.43 2253.58 1459.84 Q2253.58 1457.18 2251.68 1455.77 Q2249.81 1454.33 2246.29 1454.33 Q2244.37 1454.33 2242.17 1454.75 Q2239.97 1455.16 2237.33 1456.04 L2237.33 1451.88 Q2239.99 1451.14 2242.31 1450.77 Q2244.64 1450.39 2246.7 1450.39 Q2252.03 1450.39 2255.13 1452.83 Q2258.23 1455.23 2258.23 1459.35 Q2258.23 1462.22 2256.59 1464.21 Q2254.94 1466.18 2251.91 1466.95 Z" fill="#000000" fill-rule="nonzero" fill-opacity="1" /><path clip-path="url(#clip750)" d="M2277.91 1454.1 Q2274.3 1454.1 2272.47 1457.66 Q2270.66 1461.2 2270.66 1468.33 Q2270.66 1475.44 2272.47 1479.01 Q2274.3 1482.55 2277.91 1482.55 Q2281.54 1482.55 2283.35 1479.01 Q2285.18 1475.44 2285.18 1468.33 Q2285.18 1461.2 2283.35 1457.66 Q2281.54 1454.1 2277.91 1454.1 M2277.91 1450.39 Q2283.72 1450.39 2286.77 1455 Q2289.85 1459.58 2289.85 1468.33 Q2289.85 1477.06 2286.77 1481.67 Q2283.72 1486.25 2277.91 1486.25 Q2272.1 1486.25 2269.02 1481.67 Q2265.96 1477.06 2265.96 1468.33 Q2265.96 1459.58 2269.02 1455 Q2272.1 1450.39 2277.91 1450.39 Z" fill="#000000" fill-rule="nonzero" fill-opacity="1" /><path clip-path="url(#clip750)" d="M2308.07 1454.1 Q2304.46 1454.1 2302.63 1457.66 Q2300.82 1461.2 2300.82 1468.33 Q2300.82 1475.44 2302.63 1479.01 Q2304.46 1482.55 2308.07 1482.55 Q2311.7 1482.55 2313.51 1479.01 Q2315.34 1475.44 2315.34 1468.33 Q2315.34 1461.2 2313.51 1457.66 Q2311.7 1454.1 2308.07 1454.1 M2308.07 1450.39 Q2313.88 1450.39 2316.93 1455 Q2320.01 1459.58 2320.01 1468.33 Q2320.01 1477.06 2316.93 1481.67 Q2313.88 1486.25 2308.07 1486.25 Q2302.26 1486.25 2299.18 1481.67 Q2296.12 1477.06 2296.12 1468.33 Q2296.12 1459.58 2299.18 1455 Q2302.26 1450.39 2308.07 1450.39 Z" fill="#000000" fill-rule="nonzero" fill-opacity="1" /><path clip-path="url(#clip750)" d="M2338.23 1454.1 Q2334.62 1454.1 2332.79 1457.66 Q2330.99 1461.2 2330.99 1468.33 Q2330.99 1475.44 2332.79 1479.01 Q2334.62 1482.55 2338.23 1482.55 Q2341.86 1482.55 2343.67 1479.01 Q2345.5 1475.44 2345.5 1468.33 Q2345.5 1461.2 2343.67 1457.66 Q2341.86 1454.1 2338.23 1454.1 M2338.23 1450.39 Q2344.04 1450.39 2347.1 1455 Q2350.18 1459.58 2350.18 1468.33 Q2350.18 1477.06 2347.1 1481.67 Q2344.04 1486.25 2338.23 1486.25 Q2332.42 1486.25 2329.34 1481.67 Q2326.29 1477.06 2326.29 1468.33 Q2326.29 1459.58 2329.34 1455 Q2332.42 1450.39 2338.23 1450.39 Z" fill="#000000" fill-rule="nonzero" fill-opacity="1" /><path clip-path="url(#clip750)" d="M1300.21 1522.27 L1300.21 1532.4 L1312.27 1532.4 L1312.27 1536.95 L1300.21 1536.95 L1300.21 1556.3 Q1300.21 1560.66 1301.39 1561.9 Q1302.6 1563.14 1306.26 1563.14 L1312.27 1563.14 L1312.27 1568.04 L1306.26 1568.04 Q1299.48 1568.04 1296.9 1565.53 Q1294.32 1562.98 1294.32 1556.3 L1294.32 1536.95 L1290.02 1536.95 L1290.02 1532.4 L1294.32 1532.4 L1294.32 1522.27 L1300.21 1522.27 Z" fill="#000000" fill-rule="nonzero" fill-opacity="1" /><polyline clip-path="url(#clip752)" style="stroke:#000000; stroke-linecap:round; stroke-linejoin:round; stroke-width:2; stroke-opacity:0.1; fill:none" points="249.542,1365.64 2352.76,1365.64 "/>
<polyline clip-path="url(#clip752)" style="stroke:#000000; stroke-linecap:round; stroke-linejoin:round; stroke-width:2; stroke-opacity:0.1; fill:none" points="249.542,1050.43 2352.76,1050.43 "/>
<polyline clip-path="url(#clip752)" style="stroke:#000000; stroke-linecap:round; stroke-linejoin:round; stroke-width:2; stroke-opacity:0.1; fill:none" points="249.542,735.212 2352.76,735.212 "/>
<polyline clip-path="url(#clip752)" style="stroke:#000000; stroke-linecap:round; stroke-linejoin:round; stroke-width:2; stroke-opacity:0.1; fill:none" points="249.542,419.997 2352.76,419.997 "/>
<polyline clip-path="url(#clip752)" style="stroke:#000000; stroke-linecap:round; stroke-linejoin:round; stroke-width:2; stroke-opacity:0.1; fill:none" points="249.542,104.781 2352.76,104.781 "/>
<polyline clip-path="url(#clip750)" style="stroke:#000000; stroke-linecap:round; stroke-linejoin:round; stroke-width:4; stroke-opacity:1; fill:none" points="249.542,1423.18 249.542,47.2441 "/>
<polyline clip-path="url(#clip750)" style="stroke:#000000; stroke-linecap:round; stroke-linejoin:round; stroke-width:4; stroke-opacity:1; fill:none" points="249.542,1365.64 268.44,1365.64 "/>
<polyline clip-path="url(#clip750)" style="stroke:#000000; stroke-linecap:round; stroke-linejoin:round; stroke-width:4; stroke-opacity:1; fill:none" points="249.542,1050.43 268.44,1050.43 "/>
<polyline clip-path="url(#clip750)" style="stroke:#000000; stroke-linecap:round; stroke-linejoin:round; stroke-width:4; stroke-opacity:1; fill:none" points="249.542,735.212 268.44,735.212 "/>
<polyline clip-path="url(#clip750)" style="stroke:#000000; stroke-linecap:round; stroke-linejoin:round; stroke-width:4; stroke-opacity:1; fill:none" points="249.542,419.997 268.44,419.997 "/>
<polyline clip-path="url(#clip750)" style="stroke:#000000; stroke-linecap:round; stroke-linejoin:round; stroke-width:4; stroke-opacity:1; fill:none" points="249.542,104.781 268.44,104.781 "/>
<path clip-path="url(#clip750)" d="M126.205 1351.44 Q122.593 1351.44 120.765 1355.01 Q118.959 1358.55 118.959 1365.68 Q118.959 1372.78 120.765 1376.35 Q122.593 1379.89 126.205 1379.89 Q129.839 1379.89 131.644 1376.35 Q133.473 1372.78 133.473 1365.68 Q133.473 1358.55 131.644 1355.01 Q129.839 1351.44 126.205 1351.44 M126.205 1347.74 Q132.015 1347.74 135.07 1352.34 Q138.149 1356.93 138.149 1365.68 Q138.149 1374.4 135.07 1379.01 Q132.015 1383.59 126.205 1383.59 Q120.394 1383.59 117.316 1379.01 Q114.26 1374.4 114.26 1365.68 Q114.26 1356.93 117.316 1352.34 Q120.394 1347.74 126.205 1347.74 Z" fill="#000000" fill-rule="nonzero" fill-opacity="1" /><path clip-path="url(#clip750)" d="M146.366 1377.04 L151.251 1377.04 L151.251 1382.92 L146.366 1382.92 L146.366 1377.04 Z" fill="#000000" fill-rule="nonzero" fill-opacity="1" /><path clip-path="url(#clip750)" d="M171.436 1351.44 Q167.825 1351.44 165.996 1355.01 Q164.19 1358.55 164.19 1365.68 Q164.19 1372.78 165.996 1376.35 Q167.825 1379.89 171.436 1379.89 Q175.07 1379.89 176.876 1376.35 Q178.704 1372.78 178.704 1365.68 Q178.704 1358.55 176.876 1355.01 Q175.07 1351.44 171.436 1351.44 M171.436 1347.74 Q177.246 1347.74 180.301 1352.34 Q183.38 1356.93 183.38 1365.68 Q183.38 1374.4 180.301 1379.01 Q177.246 1383.59 171.436 1383.59 Q165.626 1383.59 162.547 1379.01 Q159.491 1374.4 159.491 1365.68 Q159.491 1356.93 162.547 1352.34 Q165.626 1347.74 171.436 1347.74 Z" fill="#000000" fill-rule="nonzero" fill-opacity="1" /><path clip-path="url(#clip750)" d="M201.598 1351.44 Q197.987 1351.44 196.158 1355.01 Q194.352 1358.55 194.352 1365.68 Q194.352 1372.78 196.158 1376.35 Q197.987 1379.89 201.598 1379.89 Q205.232 1379.89 207.037 1376.35 Q208.866 1372.78 208.866 1365.68 Q208.866 1358.55 207.037 1355.01 Q205.232 1351.44 201.598 1351.44 M201.598 1347.74 Q207.408 1347.74 210.463 1352.34 Q213.542 1356.93 213.542 1365.68 Q213.542 1374.4 210.463 1379.01 Q207.408 1383.59 201.598 1383.59 Q195.787 1383.59 192.709 1379.01 Q189.653 1374.4 189.653 1365.68 Q189.653 1356.93 192.709 1352.34 Q195.787 1347.74 201.598 1347.74 Z" fill="#000000" fill-rule="nonzero" fill-opacity="1" /><path clip-path="url(#clip750)" d="M127.2 1036.23 Q123.589 1036.23 121.76 1039.79 Q119.955 1043.33 119.955 1050.46 Q119.955 1057.57 121.76 1061.13 Q123.589 1064.68 127.2 1064.68 Q130.834 1064.68 132.64 1061.13 Q134.468 1057.57 134.468 1050.46 Q134.468 1043.33 132.64 1039.79 Q130.834 1036.23 127.2 1036.23 M127.2 1032.52 Q133.01 1032.52 136.066 1037.13 Q139.144 1041.71 139.144 1050.46 Q139.144 1059.19 136.066 1063.8 Q133.01 1068.38 127.2 1068.38 Q121.39 1068.38 118.311 1063.8 Q115.256 1059.19 115.256 1050.46 Q115.256 1041.71 118.311 1037.13 Q121.39 1032.52 127.2 1032.52 Z" fill="#000000" fill-rule="nonzero" fill-opacity="1" /><path clip-path="url(#clip750)" d="M147.362 1061.83 L152.246 1061.83 L152.246 1067.71 L147.362 1067.71 L147.362 1061.83 Z" fill="#000000" fill-rule="nonzero" fill-opacity="1" /><path clip-path="url(#clip750)" d="M166.459 1063.77 L182.778 1063.77 L182.778 1067.71 L160.834 1067.71 L160.834 1063.77 Q163.496 1061.02 168.079 1056.39 Q172.686 1051.74 173.866 1050.39 Q176.112 1047.87 176.991 1046.13 Q177.894 1044.37 177.894 1042.68 Q177.894 1039.93 175.95 1038.19 Q174.028 1036.46 170.927 1036.46 Q168.727 1036.46 166.274 1037.22 Q163.843 1037.99 161.065 1039.54 L161.065 1034.81 Q163.89 1033.68 166.343 1033.1 Q168.797 1032.52 170.834 1032.52 Q176.204 1032.52 179.399 1035.21 Q182.593 1037.89 182.593 1042.38 Q182.593 1044.51 181.783 1046.43 Q180.996 1048.33 178.889 1050.93 Q178.311 1051.6 175.209 1054.81 Q172.107 1058.01 166.459 1063.77 Z" fill="#000000" fill-rule="nonzero" fill-opacity="1" /><path clip-path="url(#clip750)" d="M192.639 1033.15 L210.996 1033.15 L210.996 1037.08 L196.922 1037.08 L196.922 1045.55 Q197.94 1045.21 198.959 1045.05 Q199.977 1044.86 200.996 1044.86 Q206.783 1044.86 210.162 1048.03 Q213.542 1051.2 213.542 1056.62 Q213.542 1062.2 210.07 1065.3 Q206.598 1068.38 200.278 1068.38 Q198.102 1068.38 195.834 1068.01 Q193.588 1067.64 191.181 1066.9 L191.181 1062.2 Q193.264 1063.33 195.487 1063.89 Q197.709 1064.44 200.186 1064.44 Q204.19 1064.44 206.528 1062.34 Q208.866 1060.23 208.866 1056.62 Q208.866 1053.01 206.528 1050.9 Q204.19 1048.8 200.186 1048.8 Q198.311 1048.8 196.436 1049.21 Q194.584 1049.63 192.639 1050.51 L192.639 1033.15 Z" fill="#000000" fill-rule="nonzero" fill-opacity="1" /><path clip-path="url(#clip750)" d="M126.205 721.011 Q122.593 721.011 120.765 724.575 Q118.959 728.117 118.959 735.247 Q118.959 742.353 120.765 745.918 Q122.593 749.46 126.205 749.46 Q129.839 749.46 131.644 745.918 Q133.473 742.353 133.473 735.247 Q133.473 728.117 131.644 724.575 Q129.839 721.011 126.205 721.011 M126.205 717.307 Q132.015 717.307 135.07 721.913 Q138.149 726.497 138.149 735.247 Q138.149 743.973 135.07 748.58 Q132.015 753.163 126.205 753.163 Q120.394 753.163 117.316 748.58 Q114.26 743.973 114.26 735.247 Q114.26 726.497 117.316 721.913 Q120.394 717.307 126.205 717.307 Z" fill="#000000" fill-rule="nonzero" fill-opacity="1" /><path clip-path="url(#clip750)" d="M146.366 746.612 L151.251 746.612 L151.251 752.492 L146.366 752.492 L146.366 746.612 Z" fill="#000000" fill-rule="nonzero" fill-opacity="1" /><path clip-path="url(#clip750)" d="M161.482 717.932 L179.839 717.932 L179.839 721.867 L165.765 721.867 L165.765 730.339 Q166.783 729.992 167.802 729.83 Q168.82 729.645 169.839 729.645 Q175.626 729.645 179.005 732.816 Q182.385 735.987 182.385 741.404 Q182.385 746.983 178.913 750.085 Q175.44 753.163 169.121 753.163 Q166.945 753.163 164.677 752.793 Q162.431 752.423 160.024 751.682 L160.024 746.983 Q162.107 748.117 164.329 748.673 Q166.552 749.228 169.028 749.228 Q173.033 749.228 175.371 747.122 Q177.709 745.015 177.709 741.404 Q177.709 737.793 175.371 735.687 Q173.033 733.58 169.028 733.58 Q167.153 733.58 165.278 733.997 Q163.427 734.413 161.482 735.293 L161.482 717.932 Z" fill="#000000" fill-rule="nonzero" fill-opacity="1" /><path clip-path="url(#clip750)" d="M201.598 721.011 Q197.987 721.011 196.158 724.575 Q194.352 728.117 194.352 735.247 Q194.352 742.353 196.158 745.918 Q197.987 749.46 201.598 749.46 Q205.232 749.46 207.037 745.918 Q208.866 742.353 208.866 735.247 Q208.866 728.117 207.037 724.575 Q205.232 721.011 201.598 721.011 M201.598 717.307 Q207.408 717.307 210.463 721.913 Q213.542 726.497 213.542 735.247 Q213.542 743.973 210.463 748.58 Q207.408 753.163 201.598 753.163 Q195.787 753.163 192.709 748.58 Q189.653 743.973 189.653 735.247 Q189.653 726.497 192.709 721.913 Q195.787 717.307 201.598 717.307 Z" fill="#000000" fill-rule="nonzero" fill-opacity="1" /><path clip-path="url(#clip750)" d="M127.2 405.795 Q123.589 405.795 121.76 409.36 Q119.955 412.902 119.955 420.031 Q119.955 427.138 121.76 430.702 Q123.589 434.244 127.2 434.244 Q130.834 434.244 132.64 430.702 Q134.468 427.138 134.468 420.031 Q134.468 412.902 132.64 409.36 Q130.834 405.795 127.2 405.795 M127.2 402.092 Q133.01 402.092 136.066 406.698 Q139.144 411.281 139.144 420.031 Q139.144 428.758 136.066 433.364 Q133.01 437.948 127.2 437.948 Q121.39 437.948 118.311 433.364 Q115.256 428.758 115.256 420.031 Q115.256 411.281 118.311 406.698 Q121.39 402.092 127.2 402.092 Z" fill="#000000" fill-rule="nonzero" fill-opacity="1" /><path clip-path="url(#clip750)" d="M147.362 431.397 L152.246 431.397 L152.246 437.277 L147.362 437.277 L147.362 431.397 Z" fill="#000000" fill-rule="nonzero" fill-opacity="1" /><path clip-path="url(#clip750)" d="M161.251 402.717 L183.473 402.717 L183.473 404.707 L170.927 437.277 L166.042 437.277 L177.848 406.652 L161.251 406.652 L161.251 402.717 Z" fill="#000000" fill-rule="nonzero" fill-opacity="1" /><path clip-path="url(#clip750)" d="M192.639 402.717 L210.996 402.717 L210.996 406.652 L196.922 406.652 L196.922 415.124 Q197.94 414.777 198.959 414.615 Q199.977 414.429 200.996 414.429 Q206.783 414.429 210.162 417.601 Q213.542 420.772 213.542 426.189 Q213.542 431.767 210.07 434.869 Q206.598 437.948 200.278 437.948 Q198.102 437.948 195.834 437.577 Q193.588 437.207 191.181 436.466 L191.181 431.767 Q193.264 432.902 195.487 433.457 Q197.709 434.013 200.186 434.013 Q204.19 434.013 206.528 431.906 Q208.866 429.8 208.866 426.189 Q208.866 422.578 206.528 420.471 Q204.19 418.365 200.186 418.365 Q198.311 418.365 196.436 418.781 Q194.584 419.198 192.639 420.078 L192.639 402.717 Z" fill="#000000" fill-rule="nonzero" fill-opacity="1" /><path clip-path="url(#clip750)" d="M117.015 118.126 L124.654 118.126 L124.654 91.7603 L116.343 93.4269 L116.343 89.1677 L124.607 87.501 L129.283 87.501 L129.283 118.126 L136.922 118.126 L136.922 122.061 L117.015 122.061 L117.015 118.126 Z" fill="#000000" fill-rule="nonzero" fill-opacity="1" /><path clip-path="url(#clip750)" d="M146.366 116.181 L151.251 116.181 L151.251 122.061 L146.366 122.061 L146.366 116.181 Z" fill="#000000" fill-rule="nonzero" fill-opacity="1" /><path clip-path="url(#clip750)" d="M171.436 90.5797 Q167.825 90.5797 165.996 94.1445 Q164.19 97.6862 164.19 104.816 Q164.19 111.922 165.996 115.487 Q167.825 119.029 171.436 119.029 Q175.07 119.029 176.876 115.487 Q178.704 111.922 178.704 104.816 Q178.704 97.6862 176.876 94.1445 Q175.07 90.5797 171.436 90.5797 M171.436 86.876 Q177.246 86.876 180.301 91.4825 Q183.38 96.0658 183.38 104.816 Q183.38 113.543 180.301 118.149 Q177.246 122.732 171.436 122.732 Q165.626 122.732 162.547 118.149 Q159.491 113.543 159.491 104.816 Q159.491 96.0658 162.547 91.4825 Q165.626 86.876 171.436 86.876 Z" fill="#000000" fill-rule="nonzero" fill-opacity="1" /><path clip-path="url(#clip750)" d="M201.598 90.5797 Q197.987 90.5797 196.158 94.1445 Q194.352 97.6862 194.352 104.816 Q194.352 111.922 196.158 115.487 Q197.987 119.029 201.598 119.029 Q205.232 119.029 207.037 115.487 Q208.866 111.922 208.866 104.816 Q208.866 97.6862 207.037 94.1445 Q205.232 90.5797 201.598 90.5797 M201.598 86.876 Q207.408 86.876 210.463 91.4825 Q213.542 96.0658 213.542 104.816 Q213.542 113.543 210.463 118.149 Q207.408 122.732 201.598 122.732 Q195.787 122.732 192.709 118.149 Q189.653 113.543 189.653 104.816 Q189.653 96.0658 192.709 91.4825 Q195.787 86.876 201.598 86.876 Z" fill="#000000" fill-rule="nonzero" fill-opacity="1" /><path clip-path="url(#clip750)" d="M20.8447 1127.58 Q20.8447 1134.58 26.0645 1138.72 Q31.2844 1142.82 40.2919 1142.82 Q49.2675 1142.82 54.4874 1138.72 Q59.7073 1134.58 59.7073 1127.58 Q59.7073 1120.58 54.4874 1116.5 Q49.2675 1112.4 40.2919 1112.4 Q31.2844 1112.4 26.0645 1116.5 Q20.8447 1120.58 20.8447 1127.58 M15.6248 1127.58 Q15.6248 1117.58 22.3406 1111.6 Q29.0246 1105.62 40.2919 1105.62 Q51.5274 1105.62 58.2432 1111.6 Q64.9272 1117.58 64.9272 1127.58 Q64.9272 1137.6 58.2432 1143.62 Q51.5592 1149.6 40.2919 1149.6 Q29.0246 1149.6 22.3406 1143.62 Q15.6248 1137.6 15.6248 1127.58 Z" fill="#000000" fill-rule="nonzero" fill-opacity="1" /><path clip-path="url(#clip750)" d="M49.9359 1096.42 L28.3562 1096.42 L28.3562 1090.56 L49.7131 1090.56 Q54.7739 1090.56 57.3202 1088.59 Q59.8346 1086.61 59.8346 1082.67 Q59.8346 1077.93 56.8109 1075.19 Q53.7872 1072.42 48.5673 1072.42 L28.3562 1072.42 L28.3562 1066.56 L64.0042 1066.56 L64.0042 1072.42 L58.5296 1072.42 Q61.7762 1074.55 63.3676 1077.38 Q64.9272 1080.19 64.9272 1083.91 Q64.9272 1090.05 61.1078 1093.24 Q57.2883 1096.42 49.9359 1096.42 M27.4968 1081.68 L27.4968 1081.68 Z" fill="#000000" fill-rule="nonzero" fill-opacity="1" /><path clip-path="url(#clip750)" d="M18.2347 1048.71 L28.3562 1048.71 L28.3562 1036.64 L32.9077 1036.64 L32.9077 1048.71 L52.2594 1048.71 Q56.6199 1048.71 57.8613 1047.53 Q59.1026 1046.32 59.1026 1042.66 L59.1026 1036.64 L64.0042 1036.64 L64.0042 1042.66 Q64.0042 1049.44 61.4897 1052.02 Q58.9434 1054.6 52.2594 1054.6 L32.9077 1054.6 L32.9077 1058.89 L28.3562 1058.89 L28.3562 1054.6 L18.2347 1054.6 L18.2347 1048.71 Z" fill="#000000" fill-rule="nonzero" fill-opacity="1" /><path clip-path="url(#clip750)" d="M58.657 1023.28 L77.5631 1023.28 L77.5631 1029.16 L28.3562 1029.16 L28.3562 1023.28 L33.7671 1023.28 Q30.5842 1021.43 29.0564 1018.63 Q27.4968 1015.8 27.4968 1011.88 Q27.4968 1005.39 32.6531 1001.35 Q37.8093 997.272 46.212 997.272 Q54.6147 997.272 59.771 1001.35 Q64.9272 1005.39 64.9272 1011.88 Q64.9272 1015.8 63.3994 1018.63 Q61.8398 1021.43 58.657 1023.28 M46.212 1003.35 Q39.7508 1003.35 36.0905 1006.03 Q32.3984 1008.67 32.3984 1013.31 Q32.3984 1017.96 36.0905 1020.63 Q39.7508 1023.28 46.212 1023.28 Q52.6732 1023.28 56.3653 1020.63 Q60.0256 1017.96 60.0256 1013.31 Q60.0256 1008.67 56.3653 1006.03 Q52.6732 1003.35 46.212 1003.35 Z" fill="#000000" fill-rule="nonzero" fill-opacity="1" /><path clip-path="url(#clip750)" d="M49.9359 988.169 L28.3562 988.169 L28.3562 982.313 L49.7131 982.313 Q54.7739 982.313 57.3202 980.339 Q59.8346 978.366 59.8346 974.419 Q59.8346 969.677 56.8109 966.94 Q53.7872 964.171 48.5673 964.171 L28.3562 964.171 L28.3562 958.314 L64.0042 958.314 L64.0042 964.171 L58.5296 964.171 Q61.7762 966.303 63.3676 969.136 Q64.9272 971.937 64.9272 975.661 Q64.9272 981.804 61.1078 984.986 Q57.2883 988.169 49.9359 988.169 M27.4968 973.433 L27.4968 973.433 Z" fill="#000000" fill-rule="nonzero" fill-opacity="1" /><path clip-path="url(#clip750)" d="M18.2347 940.458 L28.3562 940.458 L28.3562 928.395 L32.9077 928.395 L32.9077 940.458 L52.2594 940.458 Q56.6199 940.458 57.8613 939.281 Q59.1026 938.071 59.1026 934.411 L59.1026 928.395 L64.0042 928.395 L64.0042 934.411 Q64.0042 941.19 61.4897 943.768 Q58.9434 946.347 52.2594 946.347 L32.9077 946.347 L32.9077 950.643 L28.3562 950.643 L28.3562 946.347 L18.2347 946.347 L18.2347 940.458 Z" fill="#000000" fill-rule="nonzero" fill-opacity="1" /><path clip-path="url(#clip750)" d="M21.7677 914.009 L58.7206 914.009 L58.7206 906.243 Q58.7206 896.408 54.2646 891.856 Q49.8086 887.273 40.1964 887.273 Q30.6479 887.273 26.2237 891.856 Q21.7677 896.408 21.7677 906.243 L21.7677 914.009 M16.4842 920.438 L16.4842 907.229 Q16.4842 893.416 22.2451 886.955 Q27.9743 880.493 40.1964 880.493 Q52.4822 880.493 58.2432 886.986 Q64.0042 893.479 64.0042 907.229 L64.0042 920.438 L16.4842 920.438 Z" fill="#000000" fill-rule="nonzero" fill-opacity="1" /><path clip-path="url(#clip750)" d="M28.3562 870.499 L28.3562 864.643 L64.0042 864.643 L64.0042 870.499 L28.3562 870.499 M14.479 870.499 L14.479 864.643 L21.895 864.643 L21.895 870.499 L14.479 870.499 Z" fill="#000000" fill-rule="nonzero" fill-opacity="1" /><path clip-path="url(#clip750)" d="M46.0847 836.188 Q46.0847 843.286 47.7079 846.023 Q49.3312 848.76 53.2461 848.76 Q56.3653 848.76 58.2114 846.723 Q60.0256 844.654 60.0256 841.121 Q60.0256 836.252 56.5881 833.323 Q53.1188 830.363 47.3897 830.363 L46.0847 830.363 L46.0847 836.188 M43.6657 824.507 L64.0042 824.507 L64.0042 830.363 L58.5933 830.363 Q61.8398 832.369 63.3994 835.36 Q64.9272 838.352 64.9272 842.681 Q64.9272 848.156 61.8716 851.402 Q58.7843 854.617 53.6281 854.617 Q47.6125 854.617 44.5569 850.606 Q41.5014 846.564 41.5014 838.575 L41.5014 830.363 L40.9285 830.363 Q36.8862 830.363 34.6901 833.037 Q32.4621 835.679 32.4621 840.485 Q32.4621 843.54 33.1941 846.437 Q33.9262 849.333 35.3903 852.007 L29.9795 852.007 Q28.7381 848.792 28.1334 845.768 Q27.4968 842.745 27.4968 839.88 Q27.4968 832.146 31.5072 828.326 Q35.5176 824.507 43.6657 824.507 Z" fill="#000000" fill-rule="nonzero" fill-opacity="1" /><path clip-path="url(#clip750)" d="M46.212 786.854 Q39.7508 786.854 36.0905 789.527 Q32.3984 792.169 32.3984 796.816 Q32.3984 801.463 36.0905 804.137 Q39.7508 806.778 46.212 806.778 Q52.6732 806.778 56.3653 804.137 Q60.0256 801.463 60.0256 796.816 Q60.0256 792.169 56.3653 789.527 Q52.6732 786.854 46.212 786.854 M33.7671 806.778 Q30.5842 804.932 29.0564 802.131 Q27.4968 799.299 27.4968 795.384 Q27.4968 788.891 32.6531 784.849 Q37.8093 780.775 46.212 780.775 Q54.6147 780.775 59.771 784.849 Q64.9272 788.891 64.9272 795.384 Q64.9272 799.299 63.3994 802.131 Q61.8398 804.932 58.657 806.778 L64.0042 806.778 L64.0042 812.667 L14.479 812.667 L14.479 806.778 L33.7671 806.778 Z" fill="#000000" fill-rule="nonzero" fill-opacity="1" /><path clip-path="url(#clip750)" d="M46.0847 754.866 Q46.0847 761.964 47.7079 764.701 Q49.3312 767.438 53.2461 767.438 Q56.3653 767.438 58.2114 765.401 Q60.0256 763.332 60.0256 759.8 Q60.0256 754.93 56.5881 752.002 Q53.1188 749.041 47.3897 749.041 L46.0847 749.041 L46.0847 754.866 M43.6657 743.185 L64.0042 743.185 L64.0042 749.041 L58.5933 749.041 Q61.8398 751.047 63.3994 754.039 Q64.9272 757.03 64.9272 761.359 Q64.9272 766.834 61.8716 770.08 Q58.7843 773.295 53.6281 773.295 Q47.6125 773.295 44.5569 769.284 Q41.5014 765.242 41.5014 757.253 L41.5014 749.041 L40.9285 749.041 Q36.8862 749.041 34.6901 751.715 Q32.4621 754.357 32.4621 759.163 Q32.4621 762.218 33.1941 765.115 Q33.9262 768.011 35.3903 770.685 L29.9795 770.685 Q28.7381 767.47 28.1334 764.446 Q27.4968 761.423 27.4968 758.558 Q27.4968 750.824 31.5072 747.004 Q35.5176 743.185 43.6657 743.185 Z" fill="#000000" fill-rule="nonzero" fill-opacity="1" /><path clip-path="url(#clip750)" d="M18.2347 725.329 L28.3562 725.329 L28.3562 713.266 L32.9077 713.266 L32.9077 725.329 L52.2594 725.329 Q56.6199 725.329 57.8613 724.152 Q59.1026 722.942 59.1026 719.282 L59.1026 713.266 L64.0042 713.266 L64.0042 719.282 Q64.0042 726.061 61.4897 728.639 Q58.9434 731.217 52.2594 731.217 L32.9077 731.217 L32.9077 735.514 L28.3562 735.514 L28.3562 731.217 L18.2347 731.217 L18.2347 725.329 Z" fill="#000000" fill-rule="nonzero" fill-opacity="1" /><path clip-path="url(#clip750)" d="M28.3562 705.564 L28.3562 699.707 L64.0042 699.707 L64.0042 705.564 L28.3562 705.564 M14.479 705.564 L14.479 699.707 L21.895 699.707 L21.895 705.564 L14.479 705.564 Z" fill="#000000" fill-rule="nonzero" fill-opacity="1" /><path clip-path="url(#clip750)" d="M29.7248 661.799 L35.1993 661.799 Q33.8307 664.282 33.1623 666.797 Q32.4621 669.279 32.4621 671.825 Q32.4621 677.523 36.0905 680.674 Q39.6872 683.825 46.212 683.825 Q52.7369 683.825 56.3653 680.674 Q59.9619 677.523 59.9619 671.825 Q59.9619 669.279 59.2935 666.797 Q58.5933 664.282 57.2247 661.799 L62.6355 661.799 Q63.7814 664.25 64.3543 666.892 Q64.9272 669.502 64.9272 672.462 Q64.9272 680.515 59.8664 685.257 Q54.8057 690 46.212 690 Q37.491 690 32.4939 685.225 Q27.4968 680.419 27.4968 672.08 Q27.4968 669.375 28.0697 666.797 Q28.6108 664.218 29.7248 661.799 Z" fill="#000000" fill-rule="nonzero" fill-opacity="1" /><path clip-path="url(#clip750)" d="M21.7677 644.93 L39.6235 644.93 L39.6235 636.846 Q39.6235 632.358 37.3 629.907 Q34.9765 627.456 30.6797 627.456 Q26.4147 627.456 24.0912 629.907 Q21.7677 632.358 21.7677 636.846 L21.7677 644.93 M16.4842 651.36 L16.4842 636.846 Q16.4842 628.857 20.1126 624.783 Q23.7092 620.677 30.6797 620.677 Q37.7138 620.677 41.3104 624.783 Q44.907 628.857 44.907 636.846 L44.907 644.93 L64.0042 644.93 L64.0042 651.36 L16.4842 651.36 Z" fill="#000000" fill-rule="nonzero" fill-opacity="1" /><path clip-path="url(#clip750)" d="M32.4621 600.816 Q32.4621 605.527 36.1542 608.264 Q39.8145 611.001 46.212 611.001 Q52.6095 611.001 56.3017 608.296 Q59.9619 605.558 59.9619 600.816 Q59.9619 596.137 56.2698 593.4 Q52.5777 590.663 46.212 590.663 Q39.8781 590.663 36.186 593.4 Q32.4621 596.137 32.4621 600.816 M27.4968 600.816 Q27.4968 593.177 32.4621 588.817 Q37.4273 584.456 46.212 584.456 Q54.9649 584.456 59.9619 588.817 Q64.9272 593.177 64.9272 600.816 Q64.9272 608.487 59.9619 612.847 Q54.9649 617.176 46.212 617.176 Q37.4273 617.176 32.4621 612.847 Q27.4968 608.487 27.4968 600.816 Z" fill="#000000" fill-rule="nonzero" fill-opacity="1" /><path clip-path="url(#clip750)" d="M58.657 569.083 L77.5631 569.083 L77.5631 574.971 L28.3562 574.971 L28.3562 569.083 L33.7671 569.083 Q30.5842 567.237 29.0564 564.436 Q27.4968 561.603 27.4968 557.688 Q27.4968 551.195 32.6531 547.153 Q37.8093 543.079 46.212 543.079 Q54.6147 543.079 59.771 547.153 Q64.9272 551.195 64.9272 557.688 Q64.9272 561.603 63.3994 564.436 Q61.8398 567.237 58.657 569.083 M46.212 549.158 Q39.7508 549.158 36.0905 551.832 Q32.3984 554.474 32.3984 559.121 Q32.3984 563.768 36.0905 566.441 Q39.7508 569.083 46.212 569.083 Q52.6732 569.083 56.3653 566.441 Q60.0256 563.768 60.0256 559.121 Q60.0256 554.474 56.3653 551.832 Q52.6732 549.158 46.212 549.158 Z" fill="#000000" fill-rule="nonzero" fill-opacity="1" /><path clip-path="url(#clip750)" d="M49.9359 533.976 L28.3562 533.976 L28.3562 528.12 L49.7131 528.12 Q54.7739 528.12 57.3202 526.146 Q59.8346 524.173 59.8346 520.226 Q59.8346 515.484 56.8109 512.746 Q53.7872 509.977 48.5673 509.977 L28.3562 509.977 L28.3562 504.121 L64.0042 504.121 L64.0042 509.977 L58.5296 509.977 Q61.7762 512.11 63.3676 514.943 Q64.9272 517.744 64.9272 521.467 Q64.9272 527.61 61.1078 530.793 Q57.2883 533.976 49.9359 533.976 M27.4968 519.239 L27.4968 519.239 Z" fill="#000000" fill-rule="nonzero" fill-opacity="1" /><path clip-path="url(#clip750)" d="M14.479 492.058 L14.479 486.201 L64.0042 486.201 L64.0042 492.058 L14.479 492.058 Z" fill="#000000" fill-rule="nonzero" fill-opacity="1" /><path clip-path="url(#clip750)" d="M46.0847 457.747 Q46.0847 464.844 47.7079 467.582 Q49.3312 470.319 53.2461 470.319 Q56.3653 470.319 58.2114 468.282 Q60.0256 466.213 60.0256 462.68 Q60.0256 457.81 56.5881 454.882 Q53.1188 451.922 47.3897 451.922 L46.0847 451.922 L46.0847 457.747 M43.6657 446.066 L64.0042 446.066 L64.0042 451.922 L58.5933 451.922 Q61.8398 453.927 63.3994 456.919 Q64.9272 459.911 64.9272 464.24 Q64.9272 469.714 61.8716 472.961 Q58.7843 476.175 53.6281 476.175 Q47.6125 476.175 44.5569 472.165 Q41.5014 468.123 41.5014 460.134 L41.5014 451.922 L40.9285 451.922 Q36.8862 451.922 34.6901 454.596 Q32.4621 457.237 32.4621 462.044 Q32.4621 465.099 33.1941 467.996 Q33.9262 470.892 35.3903 473.566 L29.9795 473.566 Q28.7381 470.351 28.1334 467.327 Q27.4968 464.303 27.4968 461.439 Q27.4968 453.705 31.5072 449.885 Q35.5176 446.066 43.6657 446.066 Z" fill="#000000" fill-rule="nonzero" fill-opacity="1" /><path clip-path="url(#clip750)" d="M18.2347 428.21 L28.3562 428.21 L28.3562 416.147 L32.9077 416.147 L32.9077 428.21 L52.2594 428.21 Q56.6199 428.21 57.8613 427.032 Q59.1026 425.823 59.1026 422.162 L59.1026 416.147 L64.0042 416.147 L64.0042 422.162 Q64.0042 428.942 61.4897 431.52 Q58.9434 434.098 52.2594 434.098 L32.9077 434.098 L32.9077 438.395 L28.3562 438.395 L28.3562 434.098 L18.2347 434.098 L18.2347 428.21 Z" fill="#000000" fill-rule="nonzero" fill-opacity="1" /><path clip-path="url(#clip750)" d="M28.3562 408.444 L28.3562 402.588 L64.0042 402.588 L64.0042 408.444 L28.3562 408.444 M14.479 408.444 L14.479 402.588 L21.895 402.588 L21.895 408.444 L14.479 408.444 Z" fill="#000000" fill-rule="nonzero" fill-opacity="1" /><path clip-path="url(#clip750)" d="M32.4621 376.52 Q32.4621 381.231 36.1542 383.968 Q39.8145 386.705 46.212 386.705 Q52.6095 386.705 56.3017 384 Q59.9619 381.263 59.9619 376.52 Q59.9619 371.842 56.2698 369.104 Q52.5777 366.367 46.212 366.367 Q39.8781 366.367 36.186 369.104 Q32.4621 371.842 32.4621 376.52 M27.4968 376.52 Q27.4968 368.881 32.4621 364.521 Q37.4273 360.16 46.212 360.16 Q54.9649 360.16 59.9619 364.521 Q64.9272 368.881 64.9272 376.52 Q64.9272 384.191 59.9619 388.551 Q54.9649 392.88 46.212 392.88 Q37.4273 392.88 32.4621 388.551 Q27.4968 384.191 27.4968 376.52 Z" fill="#000000" fill-rule="nonzero" fill-opacity="1" /><path clip-path="url(#clip750)" d="M42.4881 320.82 L64.0042 320.82 L64.0042 326.677 L42.679 326.677 Q37.6183 326.677 35.1038 328.65 Q32.5894 330.624 32.5894 334.57 Q32.5894 339.313 35.6131 342.05 Q38.6368 344.787 43.8567 344.787 L64.0042 344.787 L64.0042 350.676 L28.3562 350.676 L28.3562 344.787 L33.8944 344.787 Q30.6797 342.687 29.0883 339.854 Q27.4968 336.989 27.4968 333.265 Q27.4968 327.122 31.3163 323.971 Q35.1038 320.82 42.4881 320.82 Z" fill="#000000" fill-rule="nonzero" fill-opacity="1" /><polyline clip-path="url(#clip752)" style="stroke:#009af9; stroke-linecap:round; stroke-linejoin:round; stroke-width:4; stroke-opacity:1; fill:none" points="309.067,1365.64 315.681,1365.64 322.295,1365.64 328.909,1365.64 335.522,1365.64 342.136,1365.64 348.75,1365.64 355.364,1365.64 361.978,1365.64 368.592,1365.64 375.206,1365.64 381.82,1365.64 388.434,1365.64 395.047,1365.64 401.661,1365.64 408.275,1365.64 414.889,1365.64 421.503,1365.64 428.117,1365.64 434.731,1365.64 441.345,1365.64 447.958,1365.64 454.572,1365.64 461.186,1365.64 467.8,1365.64 474.414,1365.64 481.028,1365.64 487.642,1365.64 494.256,1365.64 500.869,1365.64 507.483,1365.64 514.097,1365.64 520.711,1365.64 527.325,1365.64 533.939,1365.64 540.553,1365.64 547.167,1365.64 553.781,1365.64 560.394,1365.64 567.008,1365.64 573.622,1365.64 580.236,1365.64 586.85,1365.64 593.464,1365.64 600.078,1365.64 606.692,1365.64 613.305,1365.64 619.919,1365.64 626.533,1365.64 633.147,1365.64 639.761,1365.64 646.375,1365.64 652.989,1365.64 659.603,1365.64 666.216,1365.64 672.83,1365.64 679.444,1365.64 686.058,1365.64 692.672,1365.64 699.286,1365.64 705.9,1365.64 712.514,1365.64 719.128,1365.64 725.741,1365.64 732.355,1365.64 738.969,1365.64 745.583,1365.64 752.197,1365.64 758.811,1365.64 765.425,1365.64 772.039,1365.64 778.652,1365.64 785.266,1365.64 791.88,1365.64 798.494,1365.65 805.108,1365.65 811.722,1365.65 818.336,1365.66 824.95,1365.66 831.563,1365.67 838.177,1365.68 844.791,1365.68 851.405,1365.69 858.019,1365.69 864.633,1365.69 871.247,1365.69 877.861,1365.67 884.475,1365.64 891.088,1365.6 897.702,1365.53 904.316,1365.44 910.93,1365.32 917.544,1365.18 924.158,1365 930.772,1364.81 937.386,1364.59 943.999,1364.38 950.613,1364.18 957.227,1364.03 963.841,1363.94 970.455,1363.96 977.069,1364.12 983.683,1364.46 990.297,1365.02 996.91,1365.84 1003.52,1366.93 1010.14,1368.31 1016.75,1369.98 1023.37,1371.91 1029.98,1374.03 1036.59,1376.28 1043.21,1378.52 1049.82,1380.63 1056.44,1382.42 1063.05,1383.7 1069.66,1384.24 1076.28,1383.82 1082.89,1382.2 1089.5,1379.16 1096.12,1374.51 1102.73,1368.07 1109.35,1359.72 1115.96,1349.37 1122.57,1336.99 1129.19,1322.6 1135.8,1306.31 1142.42,1288.31 1149.03,1268.97 1155.64,1238.16 1162.26,1229.75 1168.87,1223.71 1175.49,1219.52 1182.1,1217.19 1188.71,1217.1 1195.33,1219.89 1201.94,1226.21 1208.55,1236.41 1215.17,1249.84 1221.78,1265.81 1228.4,1283.59 1235.01,1302.45 1241.62,1321.45 1248.24,1339.35 1254.85,1354.52 1261.47,1317.69 1268.08,1325.6 1274.69,1327.49 1281.31,1322.73 1287.92,1311.1 1294.54,1293.06 1301.15,1268.16 1307.76,1235.53 1314.38,1194.67 1320.99,1146.32 1327.6,1091.53 1334.22,1032.6 1340.83,970.446 1347.45,905.436 1354.06,838.562 1360.67,770.437 1367.29,720.815 1373.9,678.64 1380.52,643.858 1387.13,616.691 1393.74,597.954 1400.36,589.162 1406.97,590.231 1413.58,599.475 1420.2,577.167 1426.81,602.688 1433.43,632.75 1440.04,666.393 1446.65,702.261 1453.27,737.435 1459.88,768.321 1466.5,793.463 1473.11,811.719 1479.72,821.679 1486.34,821.6 1492.95,810.49 1499.57,787.766 1506.18,764.57 1512.79,733.315 1519.41,695.828 1526.02,654.055 1532.63,609.12 1539.25,564.313 1545.86,523.91 1552.48,489.252 1559.09,460.489 1565.7,437.27 1572.32,482.055 1578.93,468.298 1585.55,458.482 1592.16,452.101 1598.77,448.662 1605.39,447.68 1612,448.681 1618.62,451.203 1625.23,454.812 1631.84,396.433 1638.46,400.926 1645.07,405.494 1651.68,409.885 1658.3,413.904 1664.91,417.415 1671.53,420.334 1678.14,422.628 1684.75,424.305 1691.37,425.407 1697.98,425.996 1704.6,426.155 1711.21,425.971 1717.82,425.533 1724.44,424.925 1731.05,424.222 1737.67,423.487 1744.28,422.769 1750.89,422.104 1757.51,421.518 1764.12,421.022 1770.73,420.62 1777.35,420.31 1783.96,420.083 1790.58,419.927 1797.19,419.83 1803.8,419.78 1810.42,419.763 1817.03,419.77 1823.65,419.792 1830.26,419.821 1836.87,419.853 1843.49,419.884 1850.1,419.913 1856.71,419.937 1863.33,419.956 1869.94,419.971 1876.56,419.982 1883.17,419.99 1889.78,419.995 1896.4,419.998 1903.01,419.999 1909.63,420 1916.24,420 1922.85,420 1929.47,419.999 1936.08,419.999 1942.7,419.998 1949.31,419.998 1955.92,419.997 1962.54,419.997 1969.15,419.997 1975.76,419.997 1982.38,419.997 1988.99,419.997 1995.61,419.997 2002.22,419.996 2008.83,419.996 2015.45,419.996 2022.06,419.996 2028.68,419.996 2035.29,419.996 2041.9,419.996 2048.52,419.996 2055.13,419.997 2061.75,419.997 2068.36,419.997 2074.97,419.997 2081.59,419.997 2088.2,419.997 2094.81,419.997 2101.43,419.997 2108.04,419.997 2114.66,419.997 2121.27,419.997 2127.88,419.997 2134.5,419.997 2141.11,419.997 2147.73,419.997 2154.34,419.997 2160.95,419.997 2167.57,419.997 2174.18,419.997 2180.8,419.997 2187.41,419.997 2194.02,419.997 2200.64,419.997 2207.25,419.997 2213.86,419.997 2220.48,419.997 2227.09,419.997 2233.71,419.997 2240.32,419.997 2246.93,419.997 2253.55,419.997 2260.16,419.997 2266.78,419.997 2273.39,419.997 2280,419.997 2286.62,419.997 2293.23,419.997 "/>
<polyline clip-path="url(#clip752)" style="stroke:#e26f46; stroke-linecap:round; stroke-linejoin:round; stroke-width:4; stroke-opacity:1; fill:none" points="309.067,104.781 315.681,104.781 322.295,104.781 328.909,104.781 335.522,104.781 342.136,104.781 348.75,104.781 355.364,104.781 361.978,104.781 368.592,104.781 375.206,104.781 381.82,104.781 388.434,104.781 395.047,104.781 401.661,104.781 408.275,104.781 414.889,104.781 421.503,104.781 428.117,104.781 434.731,104.781 441.345,104.781 447.958,104.781 454.572,104.781 461.186,104.781 467.8,104.781 474.414,104.781 481.028,104.781 487.642,104.781 494.256,104.781 500.869,104.781 507.483,104.781 514.097,104.781 520.711,104.781 527.325,104.781 533.939,104.781 540.553,104.781 547.167,104.781 553.781,104.781 560.394,104.781 567.008,104.781 573.622,104.781 580.236,104.781 586.85,104.781 593.464,104.781 600.078,104.781 606.692,104.781 613.305,104.781 619.919,104.781 626.533,104.781 633.147,104.781 639.761,104.781 646.375,104.781 652.989,104.781 659.603,104.781 666.216,104.781 672.83,104.781 679.444,104.781 686.058,104.781 692.672,104.781 699.286,104.781 705.9,104.781 712.514,104.781 719.128,104.781 725.741,104.781 732.355,104.781 738.969,104.781 745.583,104.781 752.197,104.782 758.811,104.782 765.425,104.782 772.039,104.781 778.652,104.781 785.266,104.78 791.88,104.779 798.494,104.778 805.108,104.775 811.722,104.772 818.336,104.767 824.95,104.762 831.563,104.755 838.177,104.748 844.791,104.741 851.405,104.734 858.019,104.73 864.633,104.73 871.247,104.736 877.861,104.751 884.475,104.78 891.088,104.825 897.702,104.891 904.316,104.982 910.93,105.1 917.544,105.246 924.158,105.42 930.772,105.617 937.386,105.829 943.999,106.043 950.613,106.24 957.227,106.397 963.841,106.484 970.455,106.466 977.069,106.306 983.683,105.964 990.297,105.402 996.91,104.587 1003.52,103.493 1010.14,102.109 1016.75,100.441 1023.37,98.5175 1029.98,96.3917 1036.59,94.1483 1043.21,91.9 1049.82,89.7938 1056.44,88.0023 1063.05,86.7269 1069.66,86.1857 1076.28,86.6086 1082.89,88.2273 1089.5,91.2621 1096.12,95.9136 1102.73,102.351 1109.35,110.704 1115.96,121.057 1122.57,133.437 1129.19,147.821 1135.8,164.109 1142.42,182.111 1149.03,201.458 1155.64,232.263 1162.26,240.67 1168.87,246.718 1175.49,250.909 1182.1,253.237 1188.71,253.327 1195.33,250.538 1201.94,244.209 1208.55,234.015 1215.17,220.584 1221.78,204.619 1228.4,186.834 1235.01,167.979 1241.62,148.978 1248.24,131.071 1254.85,115.904 1261.47,152.734 1268.08,144.825 1274.69,142.937 1281.31,147.699 1287.92,159.324 1294.54,177.361 1301.15,202.267 1307.76,234.896 1314.38,275.757 1320.99,324.103 1327.6,378.895 1334.22,437.823 1340.83,499.978 1347.45,564.988 1354.06,631.862 1360.67,699.987 1367.29,749.609 1373.9,791.784 1380.52,826.566 1387.13,853.733 1393.74,872.469 1400.36,881.262 1406.97,880.193 1413.58,870.949 1420.2,893.257 1426.81,867.736 1433.43,837.674 1440.04,804.031 1446.65,768.163 1453.27,732.989 1459.88,702.103 1466.5,676.96 1473.11,658.705 1479.72,648.744 1486.34,648.824 1492.95,659.934 1499.57,682.658 1506.18,705.854 1512.79,737.109 1519.41,774.596 1526.02,816.369 1532.63,861.304 1539.25,906.11 1545.86,946.514 1552.48,981.172 1559.09,1009.93 1565.7,1033.15 1572.32,988.369 1578.93,1002.13 1585.55,1011.94 1592.16,1018.32 1598.77,1021.76 1605.39,1022.74 1612,1021.74 1618.62,1019.22 1625.23,1015.61 1631.84,1073.99 1638.46,1069.5 1645.07,1064.93 1651.68,1060.54 1658.3,1056.52 1664.91,1053.01 1671.53,1050.09 1678.14,1047.8 1684.75,1046.12 1691.37,1045.02 1697.98,1044.43 1704.6,1044.27 1711.21,1044.45 1717.82,1044.89 1724.44,1045.5 1731.05,1046.2 1737.67,1046.94 1744.28,1047.66 1750.89,1048.32 1757.51,1048.91 1764.12,1049.4 1770.73,1049.8 1777.35,1050.11 1783.96,1050.34 1790.58,1050.5 1797.19,1050.59 1803.8,1050.64 1810.42,1050.66 1817.03,1050.65 1823.65,1050.63 1830.26,1050.6 1836.87,1050.57 1843.49,1050.54 1850.1,1050.51 1856.71,1050.49 1863.33,1050.47 1869.94,1050.45 1876.56,1050.44 1883.17,1050.43 1889.78,1050.43 1896.4,1050.43 1903.01,1050.42 1909.63,1050.42 1916.24,1050.42 1922.85,1050.42 1929.47,1050.42 1936.08,1050.43 1942.7,1050.43 1949.31,1050.43 1955.92,1050.43 1962.54,1050.43 1969.15,1050.43 1975.76,1050.43 1982.38,1050.43 1988.99,1050.43 1995.61,1050.43 2002.22,1050.43 2008.83,1050.43 2015.45,1050.43 2022.06,1050.43 2028.68,1050.43 2035.29,1050.43 2041.9,1050.43 2048.52,1050.43 2055.13,1050.43 2061.75,1050.43 2068.36,1050.43 2074.97,1050.43 2081.59,1050.43 2088.2,1050.43 2094.81,1050.43 2101.43,1050.43 2108.04,1050.43 2114.66,1050.43 2121.27,1050.43 2127.88,1050.43 2134.5,1050.43 2141.11,1050.43 2147.73,1050.43 2154.34,1050.43 2160.95,1050.43 2167.57,1050.43 2174.18,1050.43 2180.8,1050.43 2187.41,1050.43 2194.02,1050.43 2200.64,1050.43 2207.25,1050.43 2213.86,1050.43 2220.48,1050.43 2227.09,1050.43 2233.71,1050.43 2240.32,1050.43 2246.93,1050.43 2253.55,1050.43 2260.16,1050.43 2266.78,1050.43 2273.39,1050.43 2280,1050.43 2286.62,1050.43 2293.23,1050.43 "/>
</svg>
