<?xml version="1.0" encoding="utf-8"?>
<svg xmlns="http://www.w3.org/2000/svg" xmlns:xlink="http://www.w3.org/1999/xlink" width="600" height="400" viewBox="0 0 2400 1600">
<defs>
  <clipPath id="clip570">
    <rect x="0" y="0" width="2400" height="1600"/>
  </clipPath>
</defs>
<path clip-path="url(#clip570)" d="M0 1600 L2400 1600 L2400 0 L0 0  Z" fill="#ffffff" fill-rule="evenodd" fill-opacity="1"/>
<defs>
  <clipPath id="clip571">
    <rect x="480" y="0" width="1681" height="1600"/>
  </clipPath>
</defs>
<path clip-path="url(#clip570)" d="M257.204 1423.18 L2352.76 1423.18 L2352.76 47.2441 L257.204 47.2441  Z" fill="#ffffff" fill-rule="evenodd" fill-opacity="1"/>
<defs>
  <clipPath id="clip572">
    <rect x="257" y="47" width="2097" height="1377"/>
  </clipPath>
</defs>
<polyline clip-path="url(#clip572)" style="stroke:#000000; stroke-linecap:round; stroke-linejoin:round; stroke-width:2; stroke-opacity:0.1; fill:none" points="316.512,1423.18 316.512,47.2441 "/>
<polyline clip-path="url(#clip572)" style="stroke:#000000; stroke-linecap:round; stroke-linejoin:round; stroke-width:2; stroke-opacity:0.1; fill:none" points="711.899,1423.18 711.899,47.2441 "/>
<polyline clip-path="url(#clip572)" style="stroke:#000000; stroke-linecap:round; stroke-linejoin:round; stroke-width:2; stroke-opacity:0.1; fill:none" points="1107.29,1423.18 1107.29,47.2441 "/>
<polyline clip-path="url(#clip572)" style="stroke:#000000; stroke-linecap:round; stroke-linejoin:round; stroke-width:2; stroke-opacity:0.1; fill:none" points="1502.67,1423.18 1502.67,47.2441 "/>
<polyline clip-path="url(#clip572)" style="stroke:#000000; stroke-linecap:round; stroke-linejoin:round; stroke-width:2; stroke-opacity:0.1; fill:none" points="1898.06,1423.18 1898.06,47.2441 "/>
<polyline clip-path="url(#clip572)" style="stroke:#000000; stroke-linecap:round; stroke-linejoin:round; stroke-width:2; stroke-opacity:0.1; fill:none" points="2293.45,1423.18 2293.45,47.2441 "/>
<polyline clip-path="url(#clip570)" style="stroke:#000000; stroke-linecap:round; stroke-linejoin:round; stroke-width:4; stroke-opacity:1; fill:none" points="257.204,1423.18 2352.76,1423.18 "/>
<polyline clip-path="url(#clip570)" style="stroke:#000000; stroke-linecap:round; stroke-linejoin:round; stroke-width:4; stroke-opacity:1; fill:none" points="316.512,1423.18 316.512,1404.28 "/>
<polyline clip-path="url(#clip570)" style="stroke:#000000; stroke-linecap:round; stroke-linejoin:round; stroke-width:4; stroke-opacity:1; fill:none" points="711.899,1423.18 711.899,1404.28 "/>
<polyline clip-path="url(#clip570)" style="stroke:#000000; stroke-linecap:round; stroke-linejoin:round; stroke-width:4; stroke-opacity:1; fill:none" points="1107.29,1423.18 1107.29,1404.28 "/>
<polyline clip-path="url(#clip570)" style="stroke:#000000; stroke-linecap:round; stroke-linejoin:round; stroke-width:4; stroke-opacity:1; fill:none" points="1502.67,1423.18 1502.67,1404.28 "/>
<polyline clip-path="url(#clip570)" style="stroke:#000000; stroke-linecap:round; stroke-linejoin:round; stroke-width:4; stroke-opacity:1; fill:none" points="1898.06,1423.18 1898.06,1404.28 "/>
<polyline clip-path="url(#clip570)" style="stroke:#000000; stroke-linecap:round; stroke-linejoin:round; stroke-width:4; stroke-opacity:1; fill:none" points="2293.45,1423.18 2293.45,1404.28 "/>
<path clip-path="url(#clip570)" d="M316.512 1454.1 Q312.901 1454.1 311.072 1457.66 Q309.267 1461.2 309.267 1468.33 Q309.267 1475.44 311.072 1479.01 Q312.901 1482.55 316.512 1482.55 Q320.146 1482.55 321.952 1479.01 Q323.781 1475.44 323.781 1468.33 Q323.781 1461.2 321.952 1457.66 Q320.146 1454.1 316.512 1454.1 M316.512 1450.39 Q322.322 1450.39 325.378 1455 Q328.456 1459.58 328.456 1468.33 Q328.456 1477.06 325.378 1481.67 Q322.322 1486.25 316.512 1486.25 Q310.702 1486.25 307.623 1481.67 Q304.568 1477.06 304.568 1468.33 Q304.568 1459.58 307.623 1455 Q310.702 1450.39 316.512 1450.39 Z" fill="#000000" fill-rule="nonzero" fill-opacity="1" /><path clip-path="url(#clip570)" d="M686.587 1481.64 L694.226 1481.64 L694.226 1455.28 L685.916 1456.95 L685.916 1452.69 L694.179 1451.02 L698.855 1451.02 L698.855 1481.64 L706.494 1481.64 L706.494 1485.58 L686.587 1485.58 L686.587 1481.64 Z" fill="#000000" fill-rule="nonzero" fill-opacity="1" /><path clip-path="url(#clip570)" d="M725.939 1454.1 Q722.327 1454.1 720.499 1457.66 Q718.693 1461.2 718.693 1468.33 Q718.693 1475.44 720.499 1479.01 Q722.327 1482.55 725.939 1482.55 Q729.573 1482.55 731.378 1479.01 Q733.207 1475.44 733.207 1468.33 Q733.207 1461.2 731.378 1457.66 Q729.573 1454.1 725.939 1454.1 M725.939 1450.39 Q731.749 1450.39 734.804 1455 Q737.883 1459.58 737.883 1468.33 Q737.883 1477.06 734.804 1481.67 Q731.749 1486.25 725.939 1486.25 Q720.128 1486.25 717.05 1481.67 Q713.994 1477.06 713.994 1468.33 Q713.994 1459.58 717.05 1455 Q720.128 1450.39 725.939 1450.39 Z" fill="#000000" fill-rule="nonzero" fill-opacity="1" /><path clip-path="url(#clip570)" d="M1086.06 1481.64 L1102.38 1481.64 L1102.38 1485.58 L1080.43 1485.58 L1080.43 1481.64 Q1083.1 1478.89 1087.68 1474.26 Q1092.29 1469.61 1093.47 1468.27 Q1095.71 1465.74 1096.59 1464.01 Q1097.49 1462.25 1097.49 1460.56 Q1097.49 1457.8 1095.55 1456.07 Q1093.63 1454.33 1090.53 1454.33 Q1088.33 1454.33 1085.87 1455.09 Q1083.44 1455.86 1080.67 1457.41 L1080.67 1452.69 Q1083.49 1451.55 1085.94 1450.97 Q1088.4 1450.39 1090.43 1450.39 Q1095.8 1450.39 1099 1453.08 Q1102.19 1455.77 1102.19 1460.26 Q1102.19 1462.39 1101.38 1464.31 Q1100.6 1466.2 1098.49 1468.8 Q1097.91 1469.47 1094.81 1472.69 Q1091.71 1475.88 1086.06 1481.64 Z" fill="#000000" fill-rule="nonzero" fill-opacity="1" /><path clip-path="url(#clip570)" d="M1122.19 1454.1 Q1118.58 1454.1 1116.75 1457.66 Q1114.95 1461.2 1114.95 1468.33 Q1114.95 1475.44 1116.75 1479.01 Q1118.58 1482.55 1122.19 1482.55 Q1125.83 1482.55 1127.63 1479.01 Q1129.46 1475.44 1129.46 1468.33 Q1129.46 1461.2 1127.63 1457.66 Q1125.83 1454.1 1122.19 1454.1 M1122.19 1450.39 Q1128 1450.39 1131.06 1455 Q1134.14 1459.58 1134.14 1468.33 Q1134.14 1477.06 1131.06 1481.67 Q1128 1486.25 1122.19 1486.25 Q1116.38 1486.25 1113.3 1481.67 Q1110.25 1477.06 1110.25 1468.33 Q1110.25 1459.58 1113.3 1455 Q1116.38 1450.39 1122.19 1450.39 Z" fill="#000000" fill-rule="nonzero" fill-opacity="1" /><path clip-path="url(#clip570)" d="M1491.52 1466.95 Q1494.87 1467.66 1496.75 1469.93 Q1498.65 1472.2 1498.65 1475.53 Q1498.65 1480.65 1495.13 1483.45 Q1491.61 1486.25 1485.13 1486.25 Q1482.95 1486.25 1480.64 1485.81 Q1478.34 1485.39 1475.89 1484.54 L1475.89 1480.02 Q1477.84 1481.16 1480.15 1481.74 Q1482.47 1482.32 1484.99 1482.32 Q1489.39 1482.32 1491.68 1480.58 Q1493.99 1478.84 1493.99 1475.53 Q1493.99 1472.48 1491.84 1470.77 Q1489.71 1469.03 1485.89 1469.03 L1481.86 1469.03 L1481.86 1465.19 L1486.08 1465.19 Q1489.53 1465.19 1491.35 1463.82 Q1493.18 1462.43 1493.18 1459.84 Q1493.18 1457.18 1491.28 1455.77 Q1489.41 1454.33 1485.89 1454.33 Q1483.97 1454.33 1481.77 1454.75 Q1479.57 1455.16 1476.93 1456.04 L1476.93 1451.88 Q1479.59 1451.14 1481.91 1450.77 Q1484.25 1450.39 1486.31 1450.39 Q1491.63 1450.39 1494.73 1452.83 Q1497.84 1455.23 1497.84 1459.35 Q1497.84 1462.22 1496.19 1464.21 Q1494.55 1466.18 1491.52 1466.95 Z" fill="#000000" fill-rule="nonzero" fill-opacity="1" /><path clip-path="url(#clip570)" d="M1517.51 1454.1 Q1513.9 1454.1 1512.07 1457.66 Q1510.27 1461.2 1510.27 1468.33 Q1510.27 1475.44 1512.07 1479.01 Q1513.9 1482.55 1517.51 1482.55 Q1521.15 1482.55 1522.95 1479.01 Q1524.78 1475.44 1524.78 1468.33 Q1524.78 1461.2 1522.95 1457.66 Q1521.15 1454.1 1517.51 1454.1 M1517.51 1450.39 Q1523.32 1450.39 1526.38 1455 Q1529.46 1459.58 1529.46 1468.33 Q1529.46 1477.06 1526.38 1481.67 Q1523.32 1486.25 1517.51 1486.25 Q1511.7 1486.25 1508.62 1481.67 Q1505.57 1477.06 1505.57 1468.33 Q1505.57 1459.58 1508.62 1455 Q1511.7 1450.39 1517.51 1450.39 Z" fill="#000000" fill-rule="nonzero" fill-opacity="1" /><path clip-path="url(#clip570)" d="M1886.23 1455.09 L1874.43 1473.54 L1886.23 1473.54 L1886.23 1455.09 M1885.01 1451.02 L1890.88 1451.02 L1890.88 1473.54 L1895.82 1473.54 L1895.82 1477.43 L1890.88 1477.43 L1890.88 1485.58 L1886.23 1485.58 L1886.23 1477.43 L1870.63 1477.43 L1870.63 1472.92 L1885.01 1451.02 Z" fill="#000000" fill-rule="nonzero" fill-opacity="1" /><path clip-path="url(#clip570)" d="M1913.55 1454.1 Q1909.94 1454.1 1908.11 1457.66 Q1906.3 1461.2 1906.3 1468.33 Q1906.3 1475.44 1908.11 1479.01 Q1909.94 1482.55 1913.55 1482.55 Q1917.18 1482.55 1918.99 1479.01 Q1920.82 1475.44 1920.82 1468.33 Q1920.82 1461.2 1918.99 1457.66 Q1917.18 1454.1 1913.55 1454.1 M1913.55 1450.39 Q1919.36 1450.39 1922.41 1455 Q1925.49 1459.58 1925.49 1468.33 Q1925.49 1477.06 1922.41 1481.67 Q1919.36 1486.25 1913.55 1486.25 Q1907.74 1486.25 1904.66 1481.67 Q1901.6 1477.06 1901.6 1468.33 Q1901.6 1459.58 1904.66 1455 Q1907.74 1450.39 1913.55 1450.39 Z" fill="#000000" fill-rule="nonzero" fill-opacity="1" /><path clip-path="url(#clip570)" d="M2268.15 1451.02 L2286.5 1451.02 L2286.5 1454.96 L2272.43 1454.96 L2272.43 1463.43 Q2273.45 1463.08 2274.47 1462.92 Q2275.48 1462.73 2276.5 1462.73 Q2282.29 1462.73 2285.67 1465.9 Q2289.05 1469.08 2289.05 1474.49 Q2289.05 1480.07 2285.58 1483.17 Q2282.11 1486.25 2275.79 1486.25 Q2273.61 1486.25 2271.34 1485.88 Q2269.1 1485.51 2266.69 1484.77 L2266.69 1480.07 Q2268.77 1481.2 2270.99 1481.76 Q2273.22 1482.32 2275.69 1482.32 Q2279.7 1482.32 2282.04 1480.21 Q2284.37 1478.1 2284.37 1474.49 Q2284.37 1470.88 2282.04 1468.77 Q2279.7 1466.67 2275.69 1466.67 Q2273.82 1466.67 2271.94 1467.08 Q2270.09 1467.5 2268.15 1468.38 L2268.15 1451.02 Z" fill="#000000" fill-rule="nonzero" fill-opacity="1" /><path clip-path="url(#clip570)" d="M2308.26 1454.1 Q2304.65 1454.1 2302.82 1457.66 Q2301.02 1461.2 2301.02 1468.33 Q2301.02 1475.44 2302.82 1479.01 Q2304.65 1482.55 2308.26 1482.55 Q2311.9 1482.55 2313.7 1479.01 Q2315.53 1475.44 2315.53 1468.33 Q2315.53 1461.2 2313.7 1457.66 Q2311.9 1454.1 2308.26 1454.1 M2308.26 1450.39 Q2314.07 1450.39 2317.13 1455 Q2320.21 1459.58 2320.21 1468.33 Q2320.21 1477.06 2317.13 1481.67 Q2314.07 1486.25 2308.26 1486.25 Q2302.45 1486.25 2299.37 1481.67 Q2296.32 1477.06 2296.32 1468.33 Q2296.32 1459.58 2299.37 1455 Q2302.45 1450.39 2308.26 1450.39 Z" fill="#000000" fill-rule="nonzero" fill-opacity="1" /><path clip-path="url(#clip570)" d="M1304.04 1522.27 L1304.04 1532.4 L1316.1 1532.4 L1316.1 1536.95 L1304.04 1536.95 L1304.04 1556.3 Q1304.04 1560.66 1305.22 1561.9 Q1306.43 1563.14 1310.09 1563.14 L1316.1 1563.14 L1316.1 1568.04 L1310.09 1568.04 Q1303.31 1568.04 1300.73 1565.53 Q1298.15 1562.98 1298.15 1556.3 L1298.15 1536.95 L1293.86 1536.95 L1293.86 1532.4 L1298.15 1532.4 L1298.15 1522.27 L1304.04 1522.27 Z" fill="#000000" fill-rule="nonzero" fill-opacity="1" /><polyline clip-path="url(#clip572)" style="stroke:#000000; stroke-linecap:round; stroke-linejoin:round; stroke-width:2; stroke-opacity:0.1; fill:none" points="257.204,1372.44 2352.76,1372.44 "/>
<polyline clip-path="url(#clip572)" style="stroke:#000000; stroke-linecap:round; stroke-linejoin:round; stroke-width:2; stroke-opacity:0.1; fill:none" points="257.204,1160.03 2352.76,1160.03 "/>
<polyline clip-path="url(#clip572)" style="stroke:#000000; stroke-linecap:round; stroke-linejoin:round; stroke-width:2; stroke-opacity:0.1; fill:none" points="257.204,947.622 2352.76,947.622 "/>
<polyline clip-path="url(#clip572)" style="stroke:#000000; stroke-linecap:round; stroke-linejoin:round; stroke-width:2; stroke-opacity:0.1; fill:none" points="257.204,735.212 2352.76,735.212 "/>
<polyline clip-path="url(#clip572)" style="stroke:#000000; stroke-linecap:round; stroke-linejoin:round; stroke-width:2; stroke-opacity:0.1; fill:none" points="257.204,522.802 2352.76,522.802 "/>
<polyline clip-path="url(#clip572)" style="stroke:#000000; stroke-linecap:round; stroke-linejoin:round; stroke-width:2; stroke-opacity:0.1; fill:none" points="257.204,310.392 2352.76,310.392 "/>
<polyline clip-path="url(#clip572)" style="stroke:#000000; stroke-linecap:round; stroke-linejoin:round; stroke-width:2; stroke-opacity:0.1; fill:none" points="257.204,97.9818 2352.76,97.9818 "/>
<polyline clip-path="url(#clip570)" style="stroke:#000000; stroke-linecap:round; stroke-linejoin:round; stroke-width:4; stroke-opacity:1; fill:none" points="257.204,1423.18 257.204,47.2441 "/>
<polyline clip-path="url(#clip570)" style="stroke:#000000; stroke-linecap:round; stroke-linejoin:round; stroke-width:4; stroke-opacity:1; fill:none" points="257.204,1372.44 276.102,1372.44 "/>
<polyline clip-path="url(#clip570)" style="stroke:#000000; stroke-linecap:round; stroke-linejoin:round; stroke-width:4; stroke-opacity:1; fill:none" points="257.204,1160.03 276.102,1160.03 "/>
<polyline clip-path="url(#clip570)" style="stroke:#000000; stroke-linecap:round; stroke-linejoin:round; stroke-width:4; stroke-opacity:1; fill:none" points="257.204,947.622 276.102,947.622 "/>
<polyline clip-path="url(#clip570)" style="stroke:#000000; stroke-linecap:round; stroke-linejoin:round; stroke-width:4; stroke-opacity:1; fill:none" points="257.204,735.212 276.102,735.212 "/>
<polyline clip-path="url(#clip570)" style="stroke:#000000; stroke-linecap:round; stroke-linejoin:round; stroke-width:4; stroke-opacity:1; fill:none" points="257.204,522.802 276.102,522.802 "/>
<polyline clip-path="url(#clip570)" style="stroke:#000000; stroke-linecap:round; stroke-linejoin:round; stroke-width:4; stroke-opacity:1; fill:none" points="257.204,310.392 276.102,310.392 "/>
<polyline clip-path="url(#clip570)" style="stroke:#000000; stroke-linecap:round; stroke-linejoin:round; stroke-width:4; stroke-opacity:1; fill:none" points="257.204,97.9818 276.102,97.9818 "/>
<path clip-path="url(#clip570)" d="M115.256 1372.89 L144.931 1372.89 L144.931 1376.83 L115.256 1376.83 L115.256 1372.89 Z" fill="#000000" fill-rule="nonzero" fill-opacity="1" /><path clip-path="url(#clip570)" d="M155.834 1385.79 L163.473 1385.79 L163.473 1359.42 L155.163 1361.09 L155.163 1356.83 L163.427 1355.16 L168.102 1355.16 L168.102 1385.79 L175.741 1385.79 L175.741 1389.72 L155.834 1389.72 L155.834 1385.79 Z" fill="#000000" fill-rule="nonzero" fill-opacity="1" /><path clip-path="url(#clip570)" d="M185.186 1383.84 L190.07 1383.84 L190.07 1389.72 L185.186 1389.72 L185.186 1383.84 Z" fill="#000000" fill-rule="nonzero" fill-opacity="1" /><path clip-path="url(#clip570)" d="M200.301 1355.16 L218.658 1355.16 L218.658 1359.1 L204.584 1359.1 L204.584 1367.57 Q205.602 1367.22 206.621 1367.06 Q207.639 1366.88 208.658 1366.88 Q214.445 1366.88 217.824 1370.05 Q221.204 1373.22 221.204 1378.63 Q221.204 1384.21 217.732 1387.31 Q214.26 1390.39 207.94 1390.39 Q205.764 1390.39 203.496 1390.02 Q201.25 1389.65 198.843 1388.91 L198.843 1384.21 Q200.926 1385.35 203.149 1385.9 Q205.371 1386.46 207.848 1386.46 Q211.852 1386.46 214.19 1384.35 Q216.528 1382.25 216.528 1378.63 Q216.528 1375.02 214.19 1372.92 Q211.852 1370.81 207.848 1370.81 Q205.973 1370.81 204.098 1371.23 Q202.246 1371.64 200.301 1372.52 L200.301 1355.16 Z" fill="#000000" fill-rule="nonzero" fill-opacity="1" /><path clip-path="url(#clip570)" d="M114.26 1160.48 L143.936 1160.48 L143.936 1164.42 L114.26 1164.42 L114.26 1160.48 Z" fill="#000000" fill-rule="nonzero" fill-opacity="1" /><path clip-path="url(#clip570)" d="M154.839 1173.38 L162.477 1173.38 L162.477 1147.01 L154.167 1148.68 L154.167 1144.42 L162.431 1142.75 L167.107 1142.75 L167.107 1173.38 L174.746 1173.38 L174.746 1177.31 L154.839 1177.31 L154.839 1173.38 Z" fill="#000000" fill-rule="nonzero" fill-opacity="1" /><path clip-path="url(#clip570)" d="M184.19 1171.43 L189.075 1171.43 L189.075 1177.31 L184.19 1177.31 L184.19 1171.43 Z" fill="#000000" fill-rule="nonzero" fill-opacity="1" /><path clip-path="url(#clip570)" d="M209.26 1145.83 Q205.649 1145.83 203.82 1149.4 Q202.014 1152.94 202.014 1160.07 Q202.014 1167.17 203.82 1170.74 Q205.649 1174.28 209.26 1174.28 Q212.894 1174.28 214.699 1170.74 Q216.528 1167.17 216.528 1160.07 Q216.528 1152.94 214.699 1149.4 Q212.894 1145.83 209.26 1145.83 M209.26 1142.13 Q215.07 1142.13 218.125 1146.73 Q221.204 1151.32 221.204 1160.07 Q221.204 1168.79 218.125 1173.4 Q215.07 1177.98 209.26 1177.98 Q203.449 1177.98 200.371 1173.4 Q197.315 1168.79 197.315 1160.07 Q197.315 1151.32 200.371 1146.73 Q203.449 1142.13 209.26 1142.13 Z" fill="#000000" fill-rule="nonzero" fill-opacity="1" /><path clip-path="url(#clip570)" d="M115.256 948.074 L144.931 948.074 L144.931 952.009 L115.256 952.009 L115.256 948.074 Z" fill="#000000" fill-rule="nonzero" fill-opacity="1" /><path clip-path="url(#clip570)" d="M165.024 933.421 Q161.413 933.421 159.584 936.986 Q157.778 940.527 157.778 947.657 Q157.778 954.763 159.584 958.328 Q161.413 961.87 165.024 961.87 Q168.658 961.87 170.464 958.328 Q172.292 954.763 172.292 947.657 Q172.292 940.527 170.464 936.986 Q168.658 933.421 165.024 933.421 M165.024 929.717 Q170.834 929.717 173.889 934.324 Q176.968 938.907 176.968 947.657 Q176.968 956.384 173.889 960.99 Q170.834 965.573 165.024 965.573 Q159.214 965.573 156.135 960.99 Q153.079 956.384 153.079 947.657 Q153.079 938.907 156.135 934.324 Q159.214 929.717 165.024 929.717 Z" fill="#000000" fill-rule="nonzero" fill-opacity="1" /><path clip-path="url(#clip570)" d="M185.186 959.023 L190.07 959.023 L190.07 964.902 L185.186 964.902 L185.186 959.023 Z" fill="#000000" fill-rule="nonzero" fill-opacity="1" /><path clip-path="url(#clip570)" d="M200.301 930.342 L218.658 930.342 L218.658 934.277 L204.584 934.277 L204.584 942.75 Q205.602 942.402 206.621 942.24 Q207.639 942.055 208.658 942.055 Q214.445 942.055 217.824 945.226 Q221.204 948.398 221.204 953.814 Q221.204 959.393 217.732 962.495 Q214.26 965.573 207.94 965.573 Q205.764 965.573 203.496 965.203 Q201.25 964.833 198.843 964.092 L198.843 959.393 Q200.926 960.527 203.149 961.083 Q205.371 961.638 207.848 961.638 Q211.852 961.638 214.19 959.532 Q216.528 957.425 216.528 953.814 Q216.528 950.203 214.19 948.097 Q211.852 945.99 207.848 945.99 Q205.973 945.99 204.098 946.407 Q202.246 946.824 200.301 947.703 L200.301 930.342 Z" fill="#000000" fill-rule="nonzero" fill-opacity="1" /><path clip-path="url(#clip570)" d="M164.028 721.011 Q160.417 721.011 158.589 724.576 Q156.783 728.117 156.783 735.247 Q156.783 742.353 158.589 745.918 Q160.417 749.46 164.028 749.46 Q167.663 749.46 169.468 745.918 Q171.297 742.353 171.297 735.247 Q171.297 728.117 169.468 724.576 Q167.663 721.011 164.028 721.011 M164.028 717.307 Q169.839 717.307 172.894 721.914 Q175.973 726.497 175.973 735.247 Q175.973 743.974 172.894 748.58 Q169.839 753.163 164.028 753.163 Q158.218 753.163 155.14 748.58 Q152.084 743.974 152.084 735.247 Q152.084 726.497 155.14 721.914 Q158.218 717.307 164.028 717.307 Z" fill="#000000" fill-rule="nonzero" fill-opacity="1" /><path clip-path="url(#clip570)" d="M184.19 746.612 L189.075 746.612 L189.075 752.492 L184.19 752.492 L184.19 746.612 Z" fill="#000000" fill-rule="nonzero" fill-opacity="1" /><path clip-path="url(#clip570)" d="M209.26 721.011 Q205.649 721.011 203.82 724.576 Q202.014 728.117 202.014 735.247 Q202.014 742.353 203.82 745.918 Q205.649 749.46 209.26 749.46 Q212.894 749.46 214.699 745.918 Q216.528 742.353 216.528 735.247 Q216.528 728.117 214.699 724.576 Q212.894 721.011 209.26 721.011 M209.26 717.307 Q215.07 717.307 218.125 721.914 Q221.204 726.497 221.204 735.247 Q221.204 743.974 218.125 748.58 Q215.07 753.163 209.26 753.163 Q203.449 753.163 200.371 748.58 Q197.315 743.974 197.315 735.247 Q197.315 726.497 200.371 721.914 Q203.449 717.307 209.26 717.307 Z" fill="#000000" fill-rule="nonzero" fill-opacity="1" /><path clip-path="url(#clip570)" d="M165.024 508.601 Q161.413 508.601 159.584 512.165 Q157.778 515.707 157.778 522.837 Q157.778 529.943 159.584 533.508 Q161.413 537.05 165.024 537.05 Q168.658 537.05 170.464 533.508 Q172.292 529.943 172.292 522.837 Q172.292 515.707 170.464 512.165 Q168.658 508.601 165.024 508.601 M165.024 504.897 Q170.834 504.897 173.889 509.503 Q176.968 514.087 176.968 522.837 Q176.968 531.563 173.889 536.17 Q170.834 540.753 165.024 540.753 Q159.214 540.753 156.135 536.17 Q153.079 531.563 153.079 522.837 Q153.079 514.087 156.135 509.503 Q159.214 504.897 165.024 504.897 Z" fill="#000000" fill-rule="nonzero" fill-opacity="1" /><path clip-path="url(#clip570)" d="M185.186 534.202 L190.07 534.202 L190.07 540.082 L185.186 540.082 L185.186 534.202 Z" fill="#000000" fill-rule="nonzero" fill-opacity="1" /><path clip-path="url(#clip570)" d="M200.301 505.522 L218.658 505.522 L218.658 509.457 L204.584 509.457 L204.584 517.929 Q205.602 517.582 206.621 517.42 Q207.639 517.235 208.658 517.235 Q214.445 517.235 217.824 520.406 Q221.204 523.577 221.204 528.994 Q221.204 534.573 217.732 537.675 Q214.26 540.753 207.94 540.753 Q205.764 540.753 203.496 540.383 Q201.25 540.013 198.843 539.272 L198.843 534.573 Q200.926 535.707 203.149 536.263 Q205.371 536.818 207.848 536.818 Q211.852 536.818 214.19 534.712 Q216.528 532.605 216.528 528.994 Q216.528 525.383 214.19 523.276 Q211.852 521.17 207.848 521.17 Q205.973 521.17 204.098 521.587 Q202.246 522.003 200.301 522.883 L200.301 505.522 Z" fill="#000000" fill-rule="nonzero" fill-opacity="1" /><path clip-path="url(#clip570)" d="M154.839 323.737 L162.477 323.737 L162.477 297.371 L154.167 299.038 L154.167 294.779 L162.431 293.112 L167.107 293.112 L167.107 323.737 L174.746 323.737 L174.746 327.672 L154.839 327.672 L154.839 323.737 Z" fill="#000000" fill-rule="nonzero" fill-opacity="1" /><path clip-path="url(#clip570)" d="M184.19 321.792 L189.075 321.792 L189.075 327.672 L184.19 327.672 L184.19 321.792 Z" fill="#000000" fill-rule="nonzero" fill-opacity="1" /><path clip-path="url(#clip570)" d="M209.26 296.191 Q205.649 296.191 203.82 299.755 Q202.014 303.297 202.014 310.427 Q202.014 317.533 203.82 321.098 Q205.649 324.639 209.26 324.639 Q212.894 324.639 214.699 321.098 Q216.528 317.533 216.528 310.427 Q216.528 303.297 214.699 299.755 Q212.894 296.191 209.26 296.191 M209.26 292.487 Q215.07 292.487 218.125 297.093 Q221.204 301.677 221.204 310.427 Q221.204 319.153 218.125 323.76 Q215.07 328.343 209.26 328.343 Q203.449 328.343 200.371 323.76 Q197.315 319.153 197.315 310.427 Q197.315 301.677 200.371 297.093 Q203.449 292.487 209.26 292.487 Z" fill="#000000" fill-rule="nonzero" fill-opacity="1" /><path clip-path="url(#clip570)" d="M155.834 111.327 L163.473 111.327 L163.473 84.961 L155.163 86.6276 L155.163 82.3684 L163.427 80.7018 L168.102 80.7018 L168.102 111.327 L175.741 111.327 L175.741 115.262 L155.834 115.262 L155.834 111.327 Z" fill="#000000" fill-rule="nonzero" fill-opacity="1" /><path clip-path="url(#clip570)" d="M185.186 109.382 L190.07 109.382 L190.07 115.262 L185.186 115.262 L185.186 109.382 Z" fill="#000000" fill-rule="nonzero" fill-opacity="1" /><path clip-path="url(#clip570)" d="M200.301 80.7018 L218.658 80.7018 L218.658 84.6369 L204.584 84.6369 L204.584 93.1091 Q205.602 92.7619 206.621 92.5998 Q207.639 92.4147 208.658 92.4147 Q214.445 92.4147 217.824 95.5859 Q221.204 98.7572 221.204 104.174 Q221.204 109.753 217.732 112.854 Q214.26 115.933 207.94 115.933 Q205.764 115.933 203.496 115.563 Q201.25 115.192 198.843 114.452 L198.843 109.753 Q200.926 110.887 203.149 111.442 Q205.371 111.998 207.848 111.998 Q211.852 111.998 214.19 109.891 Q216.528 107.785 216.528 104.174 Q216.528 100.563 214.19 98.4563 Q211.852 96.3498 207.848 96.3498 Q205.973 96.3498 204.098 96.7665 Q202.246 97.1831 200.301 98.0628 L200.301 80.7018 Z" fill="#000000" fill-rule="nonzero" fill-opacity="1" /><path clip-path="url(#clip570)" d="M20.8447 951.455 Q20.8447 958.457 26.0645 962.595 Q31.2844 966.701 40.2919 966.701 Q49.2675 966.701 54.4874 962.595 Q59.7073 958.457 59.7073 951.455 Q59.7073 944.453 54.4874 940.379 Q49.2675 936.273 40.2919 936.273 Q31.2844 936.273 26.0645 940.379 Q20.8447 944.453 20.8447 951.455 M15.6248 951.455 Q15.6248 941.461 22.3406 935.477 Q29.0246 929.493 40.2919 929.493 Q51.5274 929.493 58.2432 935.477 Q64.9272 941.461 64.9272 951.455 Q64.9272 961.481 58.2432 967.497 Q51.5592 973.48 40.2919 973.48 Q29.0246 973.48 22.3406 967.497 Q15.6248 961.481 15.6248 951.455 Z" fill="#000000" fill-rule="nonzero" fill-opacity="1" /><path clip-path="url(#clip570)" d="M49.9359 920.295 L28.3562 920.295 L28.3562 914.438 L49.7131 914.438 Q54.7739 914.438 57.3202 912.465 Q59.8346 910.492 59.8346 906.545 Q59.8346 901.803 56.8109 899.065 Q53.7872 896.296 48.5673 896.296 L28.3562 896.296 L28.3562 890.44 L64.0042 890.44 L64.0042 896.296 L58.5296 896.296 Q61.7762 898.429 63.3676 901.261 Q64.9272 904.062 64.9272 907.786 Q64.9272 913.929 61.1078 917.112 Q57.2883 920.295 49.9359 920.295 M27.4968 905.558 L27.4968 905.558 Z" fill="#000000" fill-rule="nonzero" fill-opacity="1" /><path clip-path="url(#clip570)" d="M18.2347 872.584 L28.3562 872.584 L28.3562 860.521 L32.9077 860.521 L32.9077 872.584 L52.2594 872.584 Q56.6199 872.584 57.8613 871.406 Q59.1026 870.197 59.1026 866.536 L59.1026 860.521 L64.0042 860.521 L64.0042 866.536 Q64.0042 873.316 61.4897 875.894 Q58.9434 878.472 52.2594 878.472 L32.9077 878.472 L32.9077 882.769 L28.3562 882.769 L28.3562 878.472 L18.2347 878.472 L18.2347 872.584 Z" fill="#000000" fill-rule="nonzero" fill-opacity="1" /><path clip-path="url(#clip570)" d="M58.657 847.153 L77.5631 847.153 L77.5631 853.041 L28.3562 853.041 L28.3562 847.153 L33.7671 847.153 Q30.5842 845.307 29.0564 842.506 Q27.4968 839.673 27.4968 835.758 Q27.4968 829.265 32.6531 825.223 Q37.8093 821.149 46.212 821.149 Q54.6147 821.149 59.771 825.223 Q64.9272 829.265 64.9272 835.758 Q64.9272 839.673 63.3994 842.506 Q61.8398 845.307 58.657 847.153 M46.212 827.228 Q39.7508 827.228 36.0905 829.902 Q32.3984 832.544 32.3984 837.191 Q32.3984 841.838 36.0905 844.511 Q39.7508 847.153 46.212 847.153 Q52.6732 847.153 56.3653 844.511 Q60.0256 841.838 60.0256 837.191 Q60.0256 832.544 56.3653 829.902 Q52.6732 827.228 46.212 827.228 Z" fill="#000000" fill-rule="nonzero" fill-opacity="1" /><path clip-path="url(#clip570)" d="M49.9359 812.046 L28.3562 812.046 L28.3562 806.19 L49.7131 806.19 Q54.7739 806.19 57.3202 804.216 Q59.8346 802.243 59.8346 798.296 Q59.8346 793.554 56.8109 790.816 Q53.7872 788.047 48.5673 788.047 L28.3562 788.047 L28.3562 782.191 L64.0042 782.191 L64.0042 788.047 L58.5296 788.047 Q61.7762 790.18 63.3676 793.013 Q64.9272 795.813 64.9272 799.537 Q64.9272 805.68 61.1078 808.863 Q57.2883 812.046 49.9359 812.046 M27.4968 797.309 L27.4968 797.309 Z" fill="#000000" fill-rule="nonzero" fill-opacity="1" /><path clip-path="url(#clip570)" d="M18.2347 764.335 L28.3562 764.335 L28.3562 752.272 L32.9077 752.272 L32.9077 764.335 L52.2594 764.335 Q56.6199 764.335 57.8613 763.157 Q59.1026 761.948 59.1026 758.288 L59.1026 752.272 L64.0042 752.272 L64.0042 758.288 Q64.0042 765.067 61.4897 767.645 Q58.9434 770.223 52.2594 770.223 L32.9077 770.223 L32.9077 774.52 L28.3562 774.52 L28.3562 770.223 L18.2347 770.223 L18.2347 764.335 Z" fill="#000000" fill-rule="nonzero" fill-opacity="1" /><path clip-path="url(#clip570)" d="M64.0042 732.061 L16.4842 750.203 L16.4842 743.487 L56.4926 728.432 L16.4842 713.346 L16.4842 706.662 L64.0042 724.772 L64.0042 732.061 Z" fill="#000000" fill-rule="nonzero" fill-opacity="1" /><path clip-path="url(#clip570)" d="M44.7161 674.547 L47.5806 674.547 L47.5806 701.474 Q53.6281 701.092 56.8109 697.845 Q59.9619 694.567 59.9619 688.742 Q59.9619 685.368 59.1344 682.217 Q58.3069 679.035 56.6518 675.915 L62.1899 675.915 Q63.5267 679.066 64.227 682.377 Q64.9272 685.687 64.9272 689.092 Q64.9272 697.622 59.9619 702.62 Q54.9967 707.585 46.5303 707.585 Q37.7774 707.585 32.6531 702.874 Q27.4968 698.132 27.4968 690.111 Q27.4968 682.918 32.1438 678.748 Q36.7589 674.547 44.7161 674.547 M42.9973 680.403 Q38.1912 680.467 35.3266 683.109 Q32.4621 685.719 32.4621 690.047 Q32.4621 694.949 35.2312 697.909 Q38.0002 700.837 43.0292 701.283 L42.9973 680.403 Z" fill="#000000" fill-rule="nonzero" fill-opacity="1" /><path clip-path="url(#clip570)" d="M14.479 664.935 L14.479 659.078 L64.0042 659.078 L64.0042 664.935 L14.479 664.935 Z" fill="#000000" fill-rule="nonzero" fill-opacity="1" /><path clip-path="url(#clip570)" d="M32.4621 633.011 Q32.4621 637.721 36.1542 640.458 Q39.8145 643.196 46.212 643.196 Q52.6095 643.196 56.3017 640.49 Q59.9619 637.753 59.9619 633.011 Q59.9619 628.332 56.2698 625.595 Q52.5777 622.857 46.212 622.857 Q39.8781 622.857 36.186 625.595 Q32.4621 628.332 32.4621 633.011 M27.4968 633.011 Q27.4968 625.372 32.4621 621.011 Q37.4273 616.651 46.212 616.651 Q54.9649 616.651 59.9619 621.011 Q64.9272 625.372 64.9272 633.011 Q64.9272 640.681 59.9619 645.042 Q54.9649 649.37 46.212 649.37 Q37.4273 649.37 32.4621 645.042 Q27.4968 640.681 27.4968 633.011 Z" fill="#000000" fill-rule="nonzero" fill-opacity="1" /><path clip-path="url(#clip570)" d="M29.7248 581.289 L35.1993 581.289 Q33.8307 583.772 33.1623 586.286 Q32.4621 588.769 32.4621 591.315 Q32.4621 597.012 36.0905 600.164 Q39.6872 603.315 46.212 603.315 Q52.7369 603.315 56.3653 600.164 Q59.9619 597.012 59.9619 591.315 Q59.9619 588.769 59.2935 586.286 Q58.5933 583.772 57.2247 581.289 L62.6355 581.289 Q63.7814 583.74 64.3543 586.382 Q64.9272 588.992 64.9272 591.952 Q64.9272 600.004 59.8664 604.747 Q54.8057 609.489 46.212 609.489 Q37.491 609.489 32.4939 604.715 Q27.4968 599.909 27.4968 591.57 Q27.4968 588.864 28.0697 586.286 Q28.6108 583.708 29.7248 581.289 Z" fill="#000000" fill-rule="nonzero" fill-opacity="1" /><path clip-path="url(#clip570)" d="M28.3562 571.104 L28.3562 565.248 L64.0042 565.248 L64.0042 571.104 L28.3562 571.104 M14.479 571.104 L14.479 565.248 L21.895 565.248 L21.895 571.104 L14.479 571.104 Z" fill="#000000" fill-rule="nonzero" fill-opacity="1" /><path clip-path="url(#clip570)" d="M18.2347 547.201 L28.3562 547.201 L28.3562 535.138 L32.9077 535.138 L32.9077 547.201 L52.2594 547.201 Q56.6199 547.201 57.8613 546.023 Q59.1026 544.814 59.1026 541.153 L59.1026 535.138 L64.0042 535.138 L64.0042 541.153 Q64.0042 547.933 61.4897 550.511 Q58.9434 553.089 52.2594 553.089 L32.9077 553.089 L32.9077 557.386 L28.3562 557.386 L28.3562 553.089 L18.2347 553.089 L18.2347 547.201 Z" fill="#000000" fill-rule="nonzero" fill-opacity="1" /><path clip-path="url(#clip570)" d="M67.3143 512.603 Q73.68 515.086 75.6216 517.441 Q77.5631 519.796 77.5631 523.743 L77.5631 528.422 L72.6615 528.422 L72.6615 524.985 Q72.6615 522.566 71.5157 521.229 Q70.3699 519.892 66.1048 518.269 L63.4312 517.218 L28.3562 531.637 L28.3562 525.43 L56.238 514.29 L28.3562 503.15 L28.3562 496.944 L67.3143 512.603 Z" fill="#000000" fill-rule="nonzero" fill-opacity="1" /><polyline clip-path="url(#clip572)" style="stroke:#009af9; stroke-linecap:round; stroke-linejoin:round; stroke-width:4; stroke-opacity:1; fill:none" points="316.512,368.02 320.466,394.917 324.42,426.445 328.374,462.173 332.328,501.616 336.281,544.237 340.235,589.457 344.189,636.66 348.143,685.203 352.097,734.427 356.051,783.662 360.005,832.237 363.959,879.493 367.912,924.785 371.866,967.498 375.82,1007.05 379.774,1042.91 383.728,1074.57 387.682,1101.62 391.636,1123.69 395.59,1140.47 399.543,1151.73 403.497,1157.33 407.451,1157.19 411.405,1151.3 415.359,1139.76 419.313,1122.71 423.267,1100.38 427.221,1073.09 431.174,1041.2 435.128,1005.15 439.082,965.428 443.036,922.571 446.99,877.165 450.944,829.828 454.898,781.204 458.851,731.954 462.805,682.748 466.759,634.256 470.713,587.137 474.667,542.034 478.621,499.558 482.575,460.289 486.529,424.76 490.482,393.455 494.436,366.8 498.39,345.158 502.344,328.822 506.298,318.016 510.252,312.886 514.206,313.502 518.16,319.855 522.113,331.86 526.067,349.352 530.021,372.095 533.975,399.778 537.929,432.024 541.883,468.396 545.837,508.398 549.791,551.486 553.744,597.074 557.698,644.541 561.652,693.242 565.606,742.513 569.56,791.686 573.514,840.09 577.468,887.067 581.421,931.978 585.375,974.212 589.329,1013.19 593.283,1048.39 597.237,1079.33 601.191,1105.59 605.145,1126.81 609.099,1142.7 613.052,1153.04 617.006,1157.7 620.96,1156.62 624.914,1149.8 628.868,1137.33 632.822,1119.4 636.776,1096.24 640.73,1068.17 644.683,1035.57 648.637,998.879 652.591,958.603 656.545,915.288 660.499,869.523 664.453,821.93 668.407,773.157 672.361,723.868 676.314,674.734 680.268,626.422 684.222,579.591 688.176,534.876 692.13,492.888 696.084,454.196 700.038,419.328 703.992,388.758 707.945,362.901 711.899,342.11 715.853,326.667 719.807,316.783 723.761,312.592 727.715,314.151 731.669,321.439 735.622,334.356 739.576,352.727 743.53,376.302 747.484,404.761 751.438,437.715 755.392,474.717 759.346,515.264 763.3,558.802 767.253,604.741 771.207,652.455 775.161,701.295 779.115,750.597 783.069,799.689 787.023,847.904 790.977,894.586 794.931,939.099 798.884,980.838 802.838,1019.24 806.792,1053.77 810.746,1083.97 814.7,1109.42 818.654,1129.78 822.608,1144.78 826.562,1154.2 830.515,1157.92 834.469,1155.89 838.423,1148.14 842.377,1134.76 846.331,1115.96 850.285,1091.97 854.239,1063.13 858.192,1029.82 862.146,992.51 866.1,951.698 870.054,907.939 874.008,861.831 877.962,814 881.916,765.097 885.87,715.787 889.823,666.742 893.777,618.628 897.731,572.101 901.685,527.792 905.639,486.306 909.593,448.206 913.547,414.012 917.501,384.187 921.454,359.138 925.408,339.206 929.362,324.662 933.316,315.704 937.27,312.453 941.224,314.955 945.178,323.174 949.132,336.999 953.085,356.242 957.039,380.641 960.993,409.865 964.947,443.515 968.901,481.134 972.855,522.209 976.809,566.183 980.763,612.457 984.716,660.4 988.67,709.362 992.624,758.675 996.578,807.669 1000.53,855.677 1004.49,902.046 1008.44,946.145 1012.39,987.375 1016.35,1025.17 1020.3,1059.03 1024.26,1088.47 1028.21,1113.12 1032.16,1132.62 1036.12,1146.71 1040.07,1155.2 1044.02,1157.98 1047.98,1155.01 1051.93,1146.33 1055.89,1132.05 1059.84,1112.37 1063.79,1087.56 1067.75,1057.96 1071.7,1023.97 1075.66,986.047 1079.61,944.712 1083.56,900.527 1087.52,854.093 1091.47,806.041 1095.42,757.026 1099.38,707.713 1103.33,658.775 1107.29,610.877 1111.24,564.671 1115.19,520.784 1119.15,479.816 1123.1,442.322 1127.06,408.813 1131.01,379.745 1134.96,355.513 1138.92,336.447 1142.87,322.807 1146.83,314.778 1150.78,312.469 1154.73,315.912 1158.69,325.06 1162.64,339.788 1166.59,359.896 1170.55,385.11 1174.5,415.088 1178.46,449.421 1182.41,487.643 1186.36,529.233 1190.32,573.626 1194.27,620.217 1198.23,668.372 1202.18,717.437 1206.13,766.744 1210.09,815.622 1214.04,863.406 1217.99,909.445 1221.95,953.115 1225.9,993.819 1229.86,1031 1233.81,1064.17 1237.76,1092.85 1241.72,1116.67 1245.67,1135.3 1249.63,1148.49 1253.58,1156.05 1257.53,1157.89 1261.49,1153.98 1265.44,1144.37 1269.4,1129.19 1273.35,1108.65 1277.3,1083.03 1281.26,1052.68 1285.21,1018.01 1289.16,979.492 1293.12,937.651 1297.07,893.055 1301.03,846.311 1304.98,798.056 1308.93,748.946 1312.89,699.649 1316.84,650.836 1320.8,603.171 1324.75,557.303 1328.7,513.855 1332.66,473.418 1336.61,436.544 1340.56,403.733 1344.52,375.432 1348.47,352.027 1352.43,333.834 1356.38,321.103 1360.33,314.006 1364.29,312.64 1368.24,317.023 1372.2,327.095 1376.15,342.721 1380.1,363.687 1384.06,389.707 1388.01,420.428 1391.97,455.432 1395.92,494.243 1399.87,536.332 1403.83,581.127 1407.78,628.019 1411.73,676.369 1415.69,725.52 1419.64,774.802 1423.6,823.546 1427.55,871.088 1431.5,916.781 1435.46,960.004 1439.41,1000.17 1443.37,1036.73 1447.32,1069.19 1451.27,1097.1 1455.23,1120.09 1459.18,1137.84 1463.13,1150.12 1467.09,1156.75 1471.04,1157.64 1475,1152.79 1478.95,1142.25 1482.9,1126.18 1486.86,1104.79 1490.81,1078.37 1494.77,1047.28 1498.72,1011.95 1502.67,972.848 1506.63,930.515 1510.58,885.525 1514.54,838.489 1518.49,790.049 1522.44,740.862 1526.4,691.599 1530.35,642.928 1534.3,595.514 1538.26,550 1542.21,507.006 1546.17,467.117 1550.12,430.876 1554.07,398.775 1558.03,371.252 1561.98,348.68 1565.94,331.368 1569.89,319.55 1573.84,313.388 1577.8,312.965 1581.75,318.286 1585.7,329.281 1589.66,345.798 1593.61,367.613 1597.57,394.43 1601.52,425.884 1605.47,461.546 1609.43,500.931 1613.38,543.504 1617.34,588.685 1621.29,635.86 1625.24,684.387 1629.2,733.605 1633.15,782.845 1637.11,831.437 1641.06,878.72 1645.01,924.05 1648.97,966.811 1652.92,1006.42 1656.87,1042.34 1660.83,1074.08 1664.78,1101.21 1668.74,1123.36 1672.69,1140.23 1676.64,1151.59 1680.6,1157.29 1684.55,1157.24 1688.51,1151.45 1692.46,1140 1696.41,1123.03 1700.37,1100.8 1704.32,1073.59 1708.27,1041.77 1712.23,1005.78 1716.18,966.117 1720.14,923.308 1724.09,877.939 1728.04,830.629 1732,782.021 1735.95,732.776 1739.91,683.564 1743.86,635.054 1747.81,587.908 1751.77,542.765 1755.72,500.241 1759.68,460.914 1763.63,425.319 1767.58,393.94 1771.54,367.204 1775.49,345.476 1779.44,329.05 1783.4,318.15 1787.35,312.924 1791.31,313.444 1795.26,319.703 1799.21,331.614 1803.17,349.017 1807.12,371.675 1811.08,399.278 1815.03,431.452 1818.98,467.759 1822.94,507.705 1826.89,550.746 1830.84,596.297 1834.8,643.738 1838.75,692.424 1842.71,741.692 1846.66,790.871 1850.61,839.293 1854.57,886.3 1858.52,931.25 1862.48,973.534 1866.43,1012.57 1870.38,1047.84 1874.34,1078.86 1878.29,1105.19 1882.25,1126.5 1886.2,1142.48 1890.15,1152.92 1894.11,1157.67 1898.06,1156.68 1902.01,1149.96 1905.97,1137.59 1909.92,1119.74 1913.88,1096.67 1917.83,1068.68 1921.78,1036.15 1925.74,999.521 1929.69,959.301 1933.65,916.031 1937.6,870.302 1941.55,822.734 1945.51,773.976 1949.46,724.69 1953.41,675.548 1957.37,627.217 1961.32,580.355 1965.28,535.601 1969.23,493.562 1973.18,454.811 1977.14,419.875 1981.09,389.23 1985.05,363.291 1989,342.413 1992.95,326.88 1996.91,316.902 2000.86,312.615 2004.82,314.078 2008.77,321.271 2012.72,334.096 2016.68,352.378 2020.63,375.869 2024.58,404.249 2028.54,437.132 2032.49,474.07 2036.45,514.562 2040.4,558.056 2044.35,603.96 2048.31,651.649 2052.26,700.476 2056.22,749.775 2060.17,798.877 2064.12,847.112 2068.08,893.824 2072.03,938.379 2075.98,980.169 2079.94,1018.63 2083.89,1053.23 2087.85,1083.5 2091.8,1109.04 2095.75,1129.49 2099.71,1144.57 2103.66,1154.09 2107.62,1157.91 2111.57,1155.97 2115.52,1148.31 2119.48,1135.03 2123.43,1116.31 2127.39,1092.41 2131.34,1063.64 2135.29,1030.41 2139.25,993.162 2143.2,952.403 2147.15,908.689 2151.11,862.615 2155.06,814.807 2159.02,765.917 2162.97,716.608 2166.92,667.553 2170.88,619.419 2174.83,572.859 2178.79,528.509 2182.74,486.971 2186.69,448.811 2190.65,414.547 2194.6,384.646 2198.55,359.515 2202.51,339.495 2206.46,324.859 2210.42,315.807 2214.37,312.46 2218.32,314.866 2222.28,322.991 2226.23,336.724 2230.19,355.879 2234.14,380.194 2238.09,409.341 2242.05,442.921 2246,480.477 2249.96,521.5 2253.91,565.43 2257.86,611.67 2261.82,659.591 2265.77,708.541 2269.72,757.854 2273.68,806.859 2277.63,854.889 2281.59,901.291 2285.54,945.433 2289.49,986.714 2293.45,1024.57 "/>
<polyline clip-path="url(#clip572)" style="stroke:#e26f46; stroke-linecap:round; stroke-linejoin:round; stroke-width:4; stroke-opacity:1; fill:none" points="316.512,550.108 320.466,571.231 324.42,592.542 328.374,614.015 332.328,635.626 336.281,657.352 340.235,679.166 344.189,701.044 348.143,722.961 352.097,744.892 356.051,766.812 360.005,788.697 363.959,810.519 367.912,832.256 371.866,853.883 375.82,875.373 379.774,896.704 383.728,917.85 387.682,938.788 391.636,959.493 395.59,979.942 399.543,1000.11 403.497,1019.98 407.451,1039.52 411.405,1058.72 415.359,1077.54 419.313,1095.98 423.267,1114 427.221,1131.59 431.174,1148.73 435.128,1165.39 439.082,1181.56 443.036,1197.23 446.99,1212.37 450.944,1226.96 454.898,1240.99 458.851,1254.44 462.805,1267.3 466.759,1279.55 470.713,1291.18 474.667,1302.18 478.621,1312.53 482.575,1322.22 486.529,1331.24 490.482,1339.58 494.436,1347.23 498.39,1354.18 502.344,1360.42 506.298,1365.95 510.252,1370.76 514.206,1374.84 518.16,1378.19 522.113,1380.81 526.067,1382.69 530.021,1383.84 533.975,1384.24 537.929,1383.9 541.883,1382.82 545.837,1381 549.791,1378.44 553.744,1375.15 557.698,1371.13 561.652,1366.38 565.606,1360.91 569.56,1354.73 573.514,1347.84 577.468,1340.25 581.421,1331.97 585.375,1323 589.329,1313.37 593.283,1303.08 597.237,1292.14 601.191,1280.56 605.145,1268.36 609.099,1255.55 613.052,1242.14 617.006,1228.16 620.96,1213.62 624.914,1198.52 628.868,1182.9 632.822,1166.77 636.776,1150.15 640.73,1133.05 644.683,1115.5 648.637,1097.51 652.591,1079.11 656.545,1060.32 660.499,1041.15 664.453,1021.64 668.407,1001.8 672.361,981.652 676.314,961.226 680.268,940.541 684.222,919.622 688.176,898.492 692.13,877.176 696.084,855.698 700.038,834.083 703.992,812.354 707.945,790.537 711.899,768.657 715.853,746.739 719.807,724.808 723.761,702.889 727.715,681.006 731.669,659.186 735.622,637.452 739.576,615.83 743.53,594.344 747.484,573.019 751.438,551.88 755.392,530.949 759.346,510.252 763.3,489.812 767.253,469.652 771.207,449.795 775.161,430.264 779.115,411.081 783.069,392.268 787.023,373.847 790.977,355.839 794.931,338.263 798.884,321.141 802.838,304.492 806.792,288.335 810.746,272.688 814.7,257.568 818.654,242.995 822.608,228.983 826.562,215.549 830.515,202.709 834.469,190.477 838.423,178.867 842.377,167.892 846.331,157.565 850.285,147.897 854.239,138.9 858.192,130.584 862.146,122.958 866.1,116.031 870.054,109.812 874.008,104.306 877.962,99.521 881.916,95.4616 885.87,92.1328 889.823,89.5382 893.777,87.6809 897.731,86.563 901.685,86.1857 905.639,86.5495 909.593,87.6539 913.547,89.4977 917.501,92.0789 921.454,95.3944 925.408,99.4404 929.362,104.212 933.316,109.705 937.27,115.912 941.224,122.825 945.178,130.439 949.132,138.742 953.085,147.727 957.039,157.382 960.993,167.698 964.947,178.661 968.901,190.26 972.855,202.481 976.809,215.31 980.763,228.733 984.716,242.734 988.67,257.298 992.624,272.407 996.578,288.045 1000.53,304.193 1004.49,320.833 1008.44,337.947 1012.39,355.514 1016.35,373.515 1020.3,391.929 1024.26,410.735 1028.21,429.911 1032.16,449.436 1036.12,469.287 1040.07,489.442 1044.02,509.877 1047.98,530.57 1051.93,551.496 1055.89,572.632 1059.84,593.954 1063.79,615.437 1067.75,637.057 1071.7,658.789 1075.66,680.608 1079.61,702.489 1083.56,724.408 1087.52,746.339 1091.47,768.258 1095.42,790.139 1099.38,811.957 1103.33,833.687 1107.29,855.305 1111.24,876.786 1115.19,898.105 1119.15,919.239 1123.1,940.162 1127.06,960.851 1131.01,981.282 1134.96,1001.43 1138.92,1021.28 1142.87,1040.8 1146.83,1059.97 1150.78,1078.77 1154.73,1097.18 1158.69,1115.17 1162.64,1132.73 1166.59,1149.84 1170.55,1166.47 1174.5,1182.61 1178.46,1198.24 1182.41,1213.35 1186.36,1227.9 1190.32,1241.89 1194.27,1255.31 1198.23,1268.13 1202.18,1280.34 1206.13,1291.93 1210.09,1302.88 1214.04,1313.19 1217.99,1322.83 1221.95,1331.81 1225.9,1340.1 1229.86,1347.71 1233.81,1354.61 1237.76,1360.81 1241.72,1366.29 1245.67,1371.05 1249.63,1375.08 1253.58,1378.39 1257.53,1380.96 1261.49,1382.79 1265.44,1383.89 1269.4,1384.24 1273.35,1383.85 1277.3,1382.72 1281.26,1380.85 1285.21,1378.25 1289.16,1374.91 1293.12,1370.84 1297.07,1366.04 1301.03,1360.53 1304.98,1354.3 1308.93,1347.36 1312.89,1339.72 1316.84,1331.4 1320.8,1322.39 1324.75,1312.71 1328.7,1302.38 1332.66,1291.39 1336.61,1279.77 1340.56,1267.53 1344.52,1254.68 1348.47,1241.24 1352.43,1227.22 1356.38,1212.64 1360.33,1197.51 1364.29,1181.85 1368.24,1165.69 1372.2,1149.03 1376.15,1131.9 1380.1,1114.32 1384.06,1096.31 1388.01,1077.88 1391.97,1059.06 1395.92,1039.87 1399.87,1020.34 1403.83,1000.48 1407.78,980.313 1411.73,959.868 1415.69,939.168 1419.64,918.234 1423.6,897.091 1427.55,875.764 1431.5,854.276 1435.46,832.652 1439.41,810.917 1443.37,789.095 1447.32,767.212 1451.27,745.292 1455.23,723.361 1459.18,701.443 1463.13,679.564 1467.09,657.749 1471.04,636.022 1475,614.408 1478.95,592.932 1482.9,571.618 1486.86,550.492 1490.81,529.576 1494.77,508.895 1498.72,488.472 1502.67,468.332 1506.63,448.496 1510.58,428.987 1514.54,409.828 1518.49,391.04 1522.44,372.646 1526.4,354.665 1530.35,337.119 1534.3,320.028 1538.26,303.411 1542.21,287.286 1546.17,271.673 1550.12,256.59 1554.07,242.053 1558.03,228.079 1561.98,214.684 1565.94,201.883 1569.89,189.692 1573.84,178.123 1577.8,167.19 1581.75,156.906 1585.7,147.282 1589.66,138.33 1593.61,130.059 1597.57,122.479 1601.52,115.599 1605.47,109.426 1609.43,103.968 1613.38,99.2306 1617.34,95.2194 1621.29,91.9389 1625.24,89.3929 1629.2,87.5843 1633.15,86.5152 1637.11,86.1868 1641.06,86.5995 1645.01,87.7528 1648.97,89.6454 1652.92,92.2751 1656.87,95.6389 1660.83,99.733 1664.78,104.553 1668.74,110.093 1672.69,116.346 1676.64,123.306 1680.6,130.965 1684.55,139.314 1688.51,148.343 1692.46,158.043 1696.41,168.401 1700.37,179.407 1704.32,191.047 1708.27,203.309 1712.23,216.178 1716.18,229.639 1720.14,243.678 1724.09,258.278 1728.04,273.423 1732,289.095 1735.95,305.276 1739.91,321.948 1743.86,339.093 1747.81,356.689 1751.77,374.718 1755.72,393.158 1759.68,411.989 1763.63,431.189 1767.58,450.736 1771.54,470.608 1775.49,490.782 1779.44,511.235 1783.4,531.944 1787.35,552.885 1791.31,574.034 1795.26,595.367 1799.21,616.86 1803.17,638.488 1807.12,660.226 1811.08,682.05 1815.03,703.935 1818.98,725.855 1822.94,747.787 1826.89,769.703 1830.84,791.581 1834.8,813.394 1838.75,835.118 1842.71,856.727 1846.66,878.198 1850.61,899.506 1854.57,920.626 1858.52,941.534 1862.48,962.207 1866.43,982.621 1870.38,1002.75 1874.34,1022.58 1878.29,1042.08 1882.25,1061.22 1886.2,1080 1890.15,1098.38 1894.11,1116.34 1898.06,1133.88 1902.01,1150.95 1905.97,1167.55 1909.92,1183.66 1913.88,1199.26 1917.83,1214.32 1921.78,1228.84 1925.74,1242.8 1929.69,1256.17 1933.65,1268.95 1937.6,1281.12 1941.55,1292.67 1945.51,1303.58 1949.46,1313.85 1953.41,1323.45 1957.37,1332.38 1961.32,1340.63 1965.28,1348.18 1969.23,1355.04 1973.18,1361.19 1977.14,1366.62 1981.09,1371.34 1985.05,1375.32 1989,1378.58 1992.95,1381.1 1996.91,1382.89 2000.86,1383.93 2004.82,1384.24 2008.77,1383.8 2012.72,1382.62 2016.68,1380.7 2020.63,1378.05 2024.58,1374.66 2028.54,1370.54 2032.49,1365.7 2036.45,1360.14 2040.4,1353.86 2044.35,1346.88 2048.31,1339.19 2052.26,1330.82 2056.22,1321.77 2060.17,1312.05 2064.12,1301.67 2068.08,1290.64 2072.03,1278.98 2075.98,1266.7 2079.94,1253.81 2083.89,1240.33 2087.85,1226.27 2091.8,1211.65 2095.75,1196.49 2099.71,1180.8 2103.66,1164.61 2107.62,1147.92 2111.57,1130.76 2115.52,1113.15 2119.48,1095.1 2123.43,1076.65 2127.39,1057.81 2131.34,1038.6 2135.29,1019.04 2139.25,999.155 2143.2,978.972 2147.15,958.51 2151.11,937.793 2155.06,916.845 2159.02,895.689 2162.97,874.35 2166.92,852.853 2170.88,831.221 2174.83,809.479 2178.79,787.653 2182.74,765.766 2186.69,743.845 2190.65,721.914 2194.6,699.998 2198.55,678.122 2202.51,656.312 2206.46,634.592 2210.42,612.986 2214.37,591.52 2218.32,570.218 2222.28,549.105 2226.23,528.204 2230.19,507.539 2234.14,487.134 2238.09,467.013 2242.05,447.198 2246,427.712 2249.96,408.576 2253.91,389.814 2257.86,371.446 2261.82,353.494 2265.77,335.977 2269.72,318.917 2273.68,302.331 2277.63,286.24 2281.59,270.661 2285.54,255.613 2289.49,241.113 2293.45,227.177 "/>
<polyline clip-path="url(#clip572)" style="stroke:#3da44d; stroke-linecap:round; stroke-linejoin:round; stroke-width:4; stroke-opacity:1; fill:none" points="316.512,979.206 320.466,1027.33 324.42,1071.49 328.374,1111.07 332.328,1145.53 336.281,1174.42 340.235,1197.32 344.189,1213.94 348.143,1224.05 352.097,1227.51 356.051,1224.26 360.005,1214.37 363.959,1197.95 367.912,1175.24 371.866,1146.54 375.82,1112.25 379.774,1072.82 383.728,1028.8 387.682,980.791 391.636,929.438 395.59,875.441 399.543,819.537 403.497,762.486 407.451,705.063 411.405,648.051 415.359,592.224 419.313,538.343 423.267,487.141 427.221,439.313 431.174,395.512 435.128,356.332 439.082,322.307 443.036,293.9 446.99,271.498 450.944,255.405 454.898,245.839 458.851,242.932 462.805,246.723 466.759,257.16 470.713,274.101 474.667,297.316 478.621,326.489 482.575,361.222 486.529,401.044 490.482,445.413 494.436,493.724 498.39,545.322 502.344,599.502 506.298,655.529 510.252,712.641 514.206,770.059 518.16,827.003 522.113,882.699 526.067,936.387 530.021,987.339 533.975,1034.86 537.929,1078.3 541.883,1117.08 545.837,1150.66 549.791,1178.59 553.744,1200.49 557.698,1216.05 561.652,1225.07 565.606,1227.43 569.56,1223.09 573.514,1212.12 577.468,1194.65 581.421,1170.94 585.375,1141.29 589.329,1106.12 593.283,1065.91 597.237,1021.19 601.191,972.586 605.145,920.75 609.099,866.39 613.052,810.245 617.006,753.079 620.96,695.67 624.914,638.8 628.868,583.24 632.822,529.749 636.776,479.053 640.73,431.842 644.683,388.759 648.637,350.389 652.591,317.256 656.545,289.808 660.499,268.421 664.453,253.385 668.407,244.904 672.361,243.095 676.314,247.981 680.268,259.496 684.222,277.483 688.176,301.698 692.13,331.812 696.084,367.414 700.038,408.02 703.992,453.077 707.945,501.974 711.899,554.043 715.853,608.578 719.807,664.836 723.761,722.051 727.715,779.445 731.669,836.237 735.622,891.655 739.576,944.944 743.53,995.38 747.484,1042.28 751.438,1084.99 755.392,1122.95 759.346,1155.64 763.3,1182.6 767.253,1203.48 771.207,1217.98 775.161,1225.92 779.115,1227.18 783.069,1221.75 787.023,1209.7 790.977,1191.19 794.931,1166.47 798.884,1135.9 802.838,1099.86 806.792,1058.87 810.746,1013.48 814.7,964.294 818.654,911.995 822.608,857.291 826.562,800.926 830.515,743.666 834.469,686.292 838.423,629.584 842.377,574.312 846.331,521.23 850.285,471.059 854.239,424.482 858.192,382.133 862.146,344.587 866.1,312.357 870.054,285.879 874.008,265.515 877.962,251.542 881.916,244.149 885.87,243.437 889.823,249.417 893.777,262.006 897.731,281.033 901.685,306.239 905.639,337.282 909.593,373.74 913.547,415.115 917.501,460.845 921.454,510.308 925.408,562.832 929.362,617.7 933.316,674.168 937.27,731.466 941.224,788.814 945.178,845.434 949.132,900.554 953.085,953.424 957.039,1003.33 960.993,1049.58 964.947,1091.56 968.901,1128.68 972.855,1160.46 976.809,1186.45 980.763,1206.3 984.716,1219.74 988.67,1226.59 992.624,1226.75 996.578,1220.22 1000.53,1207.1 1004.49,1187.55 1008.44,1161.86 1012.39,1130.35 1016.35,1093.47 1020.3,1051.72 1024.26,1005.66 1028.21,955.917 1032.16,903.175 1036.12,848.147 1040.07,791.582 1044.02,734.25 1047.98,676.932 1051.93,620.406 1055.89,565.443 1059.84,512.789 1063.79,463.162 1067.75,417.236 1071.7,375.636 1075.66,338.928 1079.61,307.613 1083.56,282.115 1087.52,262.781 1091.47,249.876 1095.42,243.573 1099.38,243.96 1103.33,251.031 1107.29,264.689 1111.24,284.749 1115.19,310.937 1119.15,342.899 1123.1,380.198 1127.06,422.327 1131.01,468.713 1134.96,518.725 1138.92,571.683 1142.87,626.865 1146.83,683.522 1150.78,740.882 1154.73,798.164 1158.69,854.591 1162.64,909.393 1166.59,961.825 1170.55,1011.17 1174.5,1056.77 1178.46,1097.99 1182.41,1134.27 1186.36,1165.13 1190.32,1190.13 1194.27,1208.95 1198.23,1221.32 1202.18,1227.07 1206.13,1226.14 1210.09,1218.52 1214.04,1204.33 1217.99,1183.76 1221.95,1157.08 1225.9,1124.66 1229.86,1086.95 1233.81,1044.45 1237.76,997.74 1241.72,947.46 1245.67,894.293 1249.63,838.961 1253.58,782.218 1257.53,724.835 1261.49,667.593 1265.44,611.271 1269.4,556.636 1273.35,504.43 1277.3,455.364 1281.26,410.106 1285.21,369.271 1289.16,333.414 1293.12,303.025 1297.07,278.516 1301.03,260.22 1304.98,248.387 1308.93,243.177 1312.89,244.662 1316.84,252.822 1320.8,267.544 1324.75,288.629 1328.7,315.791 1332.66,348.659 1336.61,386.786 1340.56,429.654 1344.52,476.679 1348.47,527.221 1352.43,580.594 1356.38,636.07 1360.33,692.895 1364.29,750.296 1368.24,807.491 1372.2,863.704 1376.15,918.168 1380.1,970.142 1384.06,1018.92 1388.01,1063.84 1391.97,1104.29 1395.92,1139.71 1399.87,1169.63 1403.83,1193.65 1407.78,1211.42 1411.73,1222.71 1415.69,1227.38 1419.64,1225.34 1423.6,1216.64 1427.55,1201.39 1431.5,1179.79 1435.46,1152.15 1439.41,1118.83 1443.37,1080.3 1447.32,1037.07 1451.27,989.727 1455.23,938.926 1459.18,885.353 1463.13,829.738 1467.09,772.836 1471.04,715.423 1475,658.279 1478.95,602.181 1482.9,547.894 1486.86,496.155 1490.81,447.669 1494.77,403.095 1498.72,363.039 1502.67,328.047 1506.63,298.595 1510.58,275.084 1514.54,257.832 1518.49,247.076 1522.44,242.961 1526.4,245.544 1530.35,254.789 1534.3,270.57 1538.26,292.673 1542.21,320.797 1546.17,354.56 1550.12,393.501 1554.07,437.092 1558.03,484.739 1561.98,535.794 1565.94,589.561 1569.89,645.311 1573.84,702.284 1577.8,759.704 1581.75,816.792 1585.7,872.77 1589.66,926.876 1593.61,978.374 1597.57,1026.56 1601.52,1070.79 1605.47,1110.45 1609.43,1145 1613.38,1173.98 1617.34,1196.99 1621.29,1213.72 1625.24,1223.94 1629.2,1227.5 1633.15,1224.37 1637.11,1214.59 1641.06,1198.28 1645.01,1175.67 1648.97,1147.07 1652.92,1112.86 1656.87,1073.52 1660.83,1029.57 1664.78,981.621 1668.74,930.317 1672.69,876.359 1676.64,820.48 1680.6,763.441 1684.55,706.018 1688.51,648.993 1692.46,593.14 1696.41,539.221 1700.37,487.968 1704.32,440.079 1708.27,396.205 1712.23,356.944 1716.18,322.829 1720.14,294.326 1724.09,271.82 1728.04,255.62 1732,245.944 1735.95,242.926 1739.91,246.605 1743.86,256.932 1747.81,273.767 1751.77,296.879 1755.72,325.956 1759.68,360.6 1763.63,400.342 1767.58,444.64 1771.54,492.891 1775.49,544.439 1779.44,598.582 1783.4,654.585 1787.35,711.685 1791.31,769.104 1795.26,826.063 1799.21,881.785 1803.17,935.513 1807.12,986.516 1811.08,1034.1 1815.03,1077.62 1818.98,1116.48 1822.94,1150.15 1826.89,1178.17 1830.84,1200.17 1834.8,1215.85 1838.75,1224.98 1842.71,1227.45 1846.66,1223.22 1850.61,1212.35 1854.57,1195 1858.52,1171.38 1862.48,1141.83 1866.43,1106.75 1870.38,1066.62 1874.34,1021.97 1878.29,973.424 1882.25,921.636 1886.2,867.312 1890.15,811.191 1894.11,754.036 1898.06,696.625 1902.01,639.738 1905.97,584.151 1909.92,530.619 1913.88,479.871 1917.83,432.597 1921.78,389.44 1925.74,350.987 1929.69,317.762 1933.65,290.217 1937.6,268.726 1941.55,253.582 1945.51,244.991 1949.46,243.07 1953.41,247.845 1957.37,259.25 1961.32,277.132 1965.28,301.246 1969.23,331.264 1973.18,366.778 1977.14,407.305 1981.09,452.294 1985.05,501.131 1989,553.154 1992.95,607.653 1996.91,663.888 2000.86,721.094 2004.82,778.491 2008.77,835.3 2012.72,890.747 2016.68,944.078 2020.63,994.567 2024.58,1041.53 2028.54,1084.32 2032.49,1122.36 2036.45,1155.14 2040.4,1182.2 2044.35,1203.18 2048.31,1217.79 2052.26,1225.84 2056.22,1227.21 2060.17,1221.89 2064.12,1209.95 2068.08,1191.55 2072.03,1166.94 2075.98,1136.45 2079.94,1100.51 2083.89,1059.59 2087.85,1014.26 2091.8,965.14 2095.75,912.888 2099.71,858.218 2103.66,801.874 2107.62,744.623 2111.57,687.245 2115.52,630.519 2119.48,575.217 2123.43,522.092 2127.39,471.867 2131.34,425.225 2135.29,382.801 2139.25,345.171 2143.2,312.848 2147.15,286.271 2151.11,265.803 2155.06,251.721 2159.02,244.218 2162.97,243.394 2166.92,249.263 2170.88,261.743 2174.83,280.664 2178.79,305.771 2182.74,336.72 2186.69,373.09 2190.65,414.388 2194.6,460.051 2198.55,509.457 2202.51,561.935 2206.46,616.771 2210.42,673.218 2214.37,730.508 2218.32,787.863 2222.28,844.501 2226.23,899.652 2230.19,952.566 2234.14,1002.52 2238.09,1048.84 2242.05,1090.89 2246,1128.11 2249.96,1159.98 2253.91,1186.06 2257.86,1206.02 2261.82,1219.57 2265.77,1226.53 2269.72,1226.8 2273.68,1220.39 2277.63,1207.37 2281.59,1187.93 2285.54,1162.33 2289.49,1130.92 2293.45,1094.13 "/>
<polyline clip-path="url(#clip572)" style="stroke:#c271d2; stroke-linecap:round; stroke-linejoin:round; stroke-width:4; stroke-opacity:1; fill:none" points="316.512,945.386 320.466,947.379 324.42,949.129 328.374,950.636 332.328,951.896 336.281,952.909 340.235,953.674 344.189,954.189 348.143,954.454 352.097,954.469 356.051,954.233 360.005,953.747 363.959,953.012 367.912,952.028 371.866,950.796 375.82,949.319 379.774,947.596 383.728,945.632 387.682,943.427 391.636,940.984 395.59,938.306 399.543,935.397 403.497,932.259 407.451,928.896 411.405,925.311 415.359,921.51 419.313,917.496 423.267,913.274 427.221,908.848 431.174,904.224 435.128,899.408 439.082,894.403 443.036,889.217 446.99,883.856 450.944,878.324 454.898,872.629 458.851,866.777 462.805,860.775 466.759,854.63 470.713,848.348 474.667,841.937 478.621,835.404 482.575,828.757 486.529,822.002 490.482,815.149 494.436,808.205 498.39,801.177 502.344,794.074 506.298,786.903 510.252,779.674 514.206,772.394 518.16,765.071 522.113,757.715 526.067,750.332 530.021,742.933 533.975,735.524 537.929,728.115 541.883,720.715 545.837,713.33 549.791,705.971 553.744,698.645 557.698,691.361 561.652,684.127 565.606,676.952 569.56,669.843 573.514,662.808 577.468,655.856 581.421,648.995 585.375,642.232 589.329,635.576 593.283,629.033 597.237,622.612 601.191,616.318 605.145,610.161 609.099,604.147 613.052,598.282 617.006,592.574 620.96,587.028 624.914,581.652 628.868,576.45 632.822,571.431 636.776,566.598 640.73,561.958 644.683,557.515 648.637,553.276 652.591,549.244 656.545,545.425 660.499,541.822 664.453,538.44 668.407,535.283 672.361,532.354 676.314,529.657 680.268,527.194 684.222,524.969 688.176,522.984 692.13,521.241 696.084,519.743 700.038,518.49 703.992,517.486 707.945,516.729 711.899,516.223 715.853,515.966 719.807,515.959 723.761,516.203 727.715,516.697 731.669,517.441 735.622,518.433 739.576,519.673 743.53,521.158 747.484,522.889 751.438,524.861 755.392,527.074 759.346,529.525 763.3,532.21 767.253,535.127 771.207,538.273 775.161,541.643 779.115,545.235 783.069,549.043 787.023,553.064 790.977,557.293 794.931,561.725 798.884,566.356 802.838,571.179 806.792,576.189 810.746,581.381 814.7,586.748 818.654,592.285 822.608,597.986 826.562,603.843 830.515,609.85 834.469,616 838.423,622.286 842.377,628.701 846.331,635.238 850.285,641.889 854.239,648.646 858.192,655.503 862.146,662.45 866.1,669.48 870.054,676.586 874.008,683.758 877.962,690.99 881.916,698.271 885.87,705.595 889.823,712.953 893.777,720.336 897.731,727.736 901.685,735.144 905.639,742.553 909.593,749.953 913.547,757.337 917.501,764.695 921.454,772.02 925.408,779.302 929.362,786.534 933.316,793.708 937.27,800.815 941.224,807.847 945.178,814.796 949.132,821.654 953.085,828.413 957.039,835.066 960.993,841.605 964.947,848.022 968.901,854.311 972.855,860.464 976.809,866.473 980.763,872.333 984.716,878.036 988.67,883.576 992.624,888.947 996.578,894.142 1000.53,899.156 1004.49,903.982 1008.44,908.616 1012.39,913.052 1016.35,917.285 1020.3,921.309 1024.26,925.122 1028.21,928.717 1032.16,932.092 1036.12,935.242 1040.07,938.163 1044.02,940.853 1047.98,943.307 1051.93,945.525 1055.89,947.502 1059.84,949.236 1063.79,950.727 1067.75,951.971 1071.7,952.967 1075.66,953.715 1079.61,954.214 1083.56,954.463 1087.52,954.461 1091.47,954.209 1095.42,953.706 1099.38,952.955 1103.33,951.954 1107.29,950.706 1111.24,949.212 1115.19,947.474 1119.15,945.494 1123.1,943.273 1127.06,940.815 1131.01,938.122 1134.96,935.197 1138.92,932.044 1142.87,928.666 1146.83,925.067 1150.78,921.252 1154.73,917.224 1158.69,912.988 1162.64,908.549 1166.59,903.913 1170.55,899.083 1174.5,894.067 1178.46,888.869 1182.41,883.496 1186.36,877.953 1190.32,872.248 1194.27,866.386 1198.23,860.374 1202.18,854.219 1206.13,847.929 1210.09,841.509 1214.04,834.969 1217.99,828.314 1221.95,821.553 1225.9,814.694 1229.86,807.743 1233.81,800.71 1237.76,793.603 1241.72,786.428 1245.67,779.195 1249.63,771.912 1253.58,764.587 1257.53,757.228 1261.49,749.844 1265.44,742.444 1269.4,735.035 1273.35,727.627 1277.3,720.227 1281.26,712.844 1285.21,705.487 1289.16,698.163 1293.12,690.882 1297.07,683.652 1301.03,676.481 1304.98,669.376 1308.93,662.347 1312.89,655.401 1316.84,648.546 1320.8,641.79 1324.75,635.141 1328.7,628.605 1332.66,622.192 1336.61,615.908 1340.56,609.76 1344.52,603.755 1348.47,597.9 1352.43,592.202 1356.38,586.668 1360.33,581.303 1364.29,576.114 1368.24,571.106 1372.2,566.286 1376.15,561.658 1380.1,557.229 1384.06,553.003 1388.01,548.985 1391.97,545.18 1395.92,541.592 1399.87,538.225 1403.83,535.082 1407.78,532.169 1411.73,529.487 1415.69,527.04 1419.64,524.83 1423.6,522.861 1427.55,521.135 1431.5,519.653 1435.46,518.417 1439.41,517.428 1443.37,516.688 1447.32,516.198 1451.27,515.958 1455.23,515.968 1459.18,516.228 1463.13,516.739 1467.09,517.499 1471.04,518.507 1475,519.763 1478.95,521.265 1482.9,523.011 1486.86,525 1490.81,527.229 1494.77,529.695 1498.72,532.395 1502.67,535.328 1506.63,538.488 1510.58,541.873 1514.54,545.479 1518.49,549.302 1522.44,553.337 1526.4,557.579 1530.35,562.025 1534.3,566.668 1538.26,571.503 1542.21,576.526 1546.17,581.73 1550.12,587.109 1554.07,592.657 1558.03,598.367 1561.98,604.234 1565.94,610.251 1569.89,616.41 1573.84,622.705 1577.8,629.129 1581.75,635.673 1585.7,642.332 1589.66,649.096 1593.61,655.958 1597.57,662.911 1601.52,669.947 1605.47,677.057 1609.43,684.234 1613.38,691.469 1617.34,698.753 1621.29,706.08 1625.24,713.439 1629.2,720.824 1633.15,728.225 1637.11,735.633 1641.06,743.042 1645.01,750.441 1648.97,757.823 1652.92,765.18 1656.87,772.502 1660.83,779.781 1664.78,787.01 1668.74,794.179 1672.69,801.281 1676.64,808.308 1680.6,815.251 1684.55,822.103 1688.51,828.855 1692.46,835.501 1696.41,842.032 1700.37,848.441 1704.32,854.721 1708.27,860.865 1712.23,866.865 1716.18,872.714 1720.14,878.407 1724.09,883.936 1728.04,889.295 1732,894.479 1735.95,899.48 1739.91,904.294 1743.86,908.915 1747.81,913.338 1751.77,917.557 1755.72,921.568 1759.68,925.366 1763.63,928.947 1767.58,932.307 1771.54,935.441 1775.49,938.348 1779.44,941.022 1783.4,943.461 1787.35,945.662 1791.31,947.624 1795.26,949.342 1799.21,950.816 1803.17,952.044 1807.12,953.024 1811.08,953.756 1815.03,954.238 1818.98,954.47 1822.94,954.452 1826.89,954.183 1830.84,953.664 1834.8,952.896 1838.75,951.879 1842.71,950.615 1846.66,949.105 1850.61,947.351 1854.57,945.354 1858.52,943.118 1862.48,940.644 1866.43,937.936 1870.38,934.996 1874.34,931.828 1878.29,928.435 1882.25,924.822 1886.2,920.992 1890.15,916.951 1894.11,912.701 1898.06,908.249 1902.01,903.6 1905.97,898.758 1909.92,893.729 1913.88,888.52 1917.83,883.135 1921.78,877.582 1925.74,871.866 1929.69,865.993 1933.65,859.972 1937.6,853.808 1941.55,847.509 1945.51,841.081 1949.46,834.533 1953.41,827.871 1957.37,821.103 1961.32,814.238 1965.28,807.282 1969.23,800.244 1973.18,793.131 1977.14,785.952 1981.09,778.716 1985.05,771.43 1989,764.102 1992.95,756.742 1996.91,749.356 2000.86,741.955 2004.82,734.546 2008.77,727.138 2012.72,719.739 2016.68,712.358 2020.63,705.002 2024.58,697.682 2028.54,690.404 2032.49,683.177 2036.45,676.01 2040.4,668.91 2044.35,661.886 2048.31,654.945 2052.26,648.097 2056.22,641.348 2060.17,634.706 2064.12,628.178 2068.08,621.773 2072.03,615.498 2075.98,609.359 2079.94,603.364 2083.89,597.519 2087.85,591.832 2091.8,586.309 2095.75,580.955 2099.71,575.777 2103.66,570.782 2107.62,565.974 2111.57,561.36 2115.52,556.944 2119.48,552.732 2123.43,548.728 2127.39,544.937 2131.34,541.363 2135.29,538.01 2139.25,534.883 2143.2,531.985 2147.15,529.318 2151.11,526.887 2155.06,524.693 2159.02,522.74 2162.97,521.029 2166.92,519.563 2170.88,518.344 2174.83,517.372 2178.79,516.648 2182.74,516.174 2186.69,515.951 2190.65,515.977 2194.6,516.254 2198.55,516.781 2202.51,517.558 2206.46,518.582 2210.42,519.855 2214.37,521.373 2218.32,523.135 2222.28,525.14 2226.23,527.384 2230.19,529.866 2234.14,532.582 2238.09,535.529 2242.05,538.705 2246,542.105 2249.96,545.725 2253.91,549.562 2257.86,553.611 2261.82,557.867 2265.77,562.325 2269.72,566.981 2273.68,571.829 2277.63,576.864 2281.59,582.079 2285.54,587.47 2289.49,593.029 2293.45,598.75 "/>
</svg>
