<?xml version="1.0" encoding="utf-8"?>
<svg xmlns="http://www.w3.org/2000/svg" xmlns:xlink="http://www.w3.org/1999/xlink" width="600" height="400" viewBox="0 0 2400 1600">
<defs>
  <clipPath id="clip030">
    <rect x="0" y="0" width="2400" height="1600"/>
  </clipPath>
</defs>
<path clip-path="url(#clip030)" d="M0 1600 L2400 1600 L2400 0 L0 0  Z" fill="#ffffff" fill-rule="evenodd" fill-opacity="1"/>
<defs>
  <clipPath id="clip031">
    <rect x="480" y="0" width="1681" height="1600"/>
  </clipPath>
</defs>
<path clip-path="url(#clip030)" d="M212.459 1423.18 L2352.76 1423.18 L2352.76 47.2441 L212.459 47.2441  Z" fill="#ffffff" fill-rule="evenodd" fill-opacity="1"/>
<defs>
  <clipPath id="clip032">
    <rect x="212" y="47" width="2141" height="1377"/>
  </clipPath>
</defs>
<polyline clip-path="url(#clip032)" style="stroke:#000000; stroke-linecap:round; stroke-linejoin:round; stroke-width:2; stroke-opacity:0.1; fill:none" points="273.033,1423.18 273.033,47.2441 "/>
<polyline clip-path="url(#clip032)" style="stroke:#000000; stroke-linecap:round; stroke-linejoin:round; stroke-width:2; stroke-opacity:0.1; fill:none" points="777.82,1423.18 777.82,47.2441 "/>
<polyline clip-path="url(#clip032)" style="stroke:#000000; stroke-linecap:round; stroke-linejoin:round; stroke-width:2; stroke-opacity:0.1; fill:none" points="1282.61,1423.18 1282.61,47.2441 "/>
<polyline clip-path="url(#clip032)" style="stroke:#000000; stroke-linecap:round; stroke-linejoin:round; stroke-width:2; stroke-opacity:0.1; fill:none" points="1787.39,1423.18 1787.39,47.2441 "/>
<polyline clip-path="url(#clip032)" style="stroke:#000000; stroke-linecap:round; stroke-linejoin:round; stroke-width:2; stroke-opacity:0.1; fill:none" points="2292.18,1423.18 2292.18,47.2441 "/>
<polyline clip-path="url(#clip030)" style="stroke:#000000; stroke-linecap:round; stroke-linejoin:round; stroke-width:4; stroke-opacity:1; fill:none" points="212.459,1423.18 2352.76,1423.18 "/>
<polyline clip-path="url(#clip030)" style="stroke:#000000; stroke-linecap:round; stroke-linejoin:round; stroke-width:4; stroke-opacity:1; fill:none" points="273.033,1423.18 273.033,1404.28 "/>
<polyline clip-path="url(#clip030)" style="stroke:#000000; stroke-linecap:round; stroke-linejoin:round; stroke-width:4; stroke-opacity:1; fill:none" points="777.82,1423.18 777.82,1404.28 "/>
<polyline clip-path="url(#clip030)" style="stroke:#000000; stroke-linecap:round; stroke-linejoin:round; stroke-width:4; stroke-opacity:1; fill:none" points="1282.61,1423.18 1282.61,1404.28 "/>
<polyline clip-path="url(#clip030)" style="stroke:#000000; stroke-linecap:round; stroke-linejoin:round; stroke-width:4; stroke-opacity:1; fill:none" points="1787.39,1423.18 1787.39,1404.28 "/>
<polyline clip-path="url(#clip030)" style="stroke:#000000; stroke-linecap:round; stroke-linejoin:round; stroke-width:4; stroke-opacity:1; fill:none" points="2292.18,1423.18 2292.18,1404.28 "/>
<path clip-path="url(#clip030)" d="M273.033 1454.1 Q269.422 1454.1 267.594 1457.66 Q265.788 1461.2 265.788 1468.33 Q265.788 1475.44 267.594 1479.01 Q269.422 1482.55 273.033 1482.55 Q276.668 1482.55 278.473 1479.01 Q280.302 1475.44 280.302 1468.33 Q280.302 1461.2 278.473 1457.66 Q276.668 1454.1 273.033 1454.1 M273.033 1450.39 Q278.843 1450.39 281.899 1455 Q284.978 1459.58 284.978 1468.33 Q284.978 1477.06 281.899 1481.67 Q278.843 1486.25 273.033 1486.25 Q267.223 1486.25 264.145 1481.67 Q261.089 1477.06 261.089 1468.33 Q261.089 1459.58 264.145 1455 Q267.223 1450.39 273.033 1450.39 Z" fill="#000000" fill-rule="nonzero" fill-opacity="1" /><path clip-path="url(#clip030)" d="M737.439 1451.02 L755.795 1451.02 L755.795 1454.96 L741.721 1454.96 L741.721 1463.43 Q742.74 1463.08 743.758 1462.92 Q744.777 1462.73 745.795 1462.73 Q751.582 1462.73 754.962 1465.9 Q758.341 1469.08 758.341 1474.49 Q758.341 1480.07 754.869 1483.17 Q751.397 1486.25 745.077 1486.25 Q742.902 1486.25 740.633 1485.88 Q738.388 1485.51 735.98 1484.77 L735.98 1480.07 Q738.064 1481.2 740.286 1481.76 Q742.508 1482.32 744.985 1482.32 Q748.99 1482.32 751.327 1480.21 Q753.665 1478.1 753.665 1474.49 Q753.665 1470.88 751.327 1468.77 Q748.99 1466.67 744.985 1466.67 Q743.11 1466.67 741.235 1467.08 Q739.383 1467.5 737.439 1468.38 L737.439 1451.02 Z" fill="#000000" fill-rule="nonzero" fill-opacity="1" /><path clip-path="url(#clip030)" d="M777.554 1454.1 Q773.943 1454.1 772.114 1457.66 Q770.309 1461.2 770.309 1468.33 Q770.309 1475.44 772.114 1479.01 Q773.943 1482.55 777.554 1482.55 Q781.188 1482.55 782.994 1479.01 Q784.823 1475.44 784.823 1468.33 Q784.823 1461.2 782.994 1457.66 Q781.188 1454.1 777.554 1454.1 M777.554 1450.39 Q783.364 1450.39 786.42 1455 Q789.499 1459.58 789.499 1468.33 Q789.499 1477.06 786.42 1481.67 Q783.364 1486.25 777.554 1486.25 Q771.744 1486.25 768.665 1481.67 Q765.61 1477.06 765.61 1468.33 Q765.61 1459.58 768.665 1455 Q771.744 1450.39 777.554 1450.39 Z" fill="#000000" fill-rule="nonzero" fill-opacity="1" /><path clip-path="url(#clip030)" d="M807.716 1454.1 Q804.105 1454.1 802.276 1457.66 Q800.471 1461.2 800.471 1468.33 Q800.471 1475.44 802.276 1479.01 Q804.105 1482.55 807.716 1482.55 Q811.35 1482.55 813.156 1479.01 Q814.985 1475.44 814.985 1468.33 Q814.985 1461.2 813.156 1457.66 Q811.35 1454.1 807.716 1454.1 M807.716 1450.39 Q813.526 1450.39 816.582 1455 Q819.66 1459.58 819.66 1468.33 Q819.66 1477.06 816.582 1481.67 Q813.526 1486.25 807.716 1486.25 Q801.906 1486.25 798.827 1481.67 Q795.772 1477.06 795.772 1468.33 Q795.772 1459.58 798.827 1455 Q801.906 1450.39 807.716 1450.39 Z" fill="#000000" fill-rule="nonzero" fill-opacity="1" /><path clip-path="url(#clip030)" d="M1227.13 1481.64 L1234.77 1481.64 L1234.77 1455.28 L1226.46 1456.95 L1226.46 1452.69 L1234.73 1451.02 L1239.4 1451.02 L1239.4 1481.64 L1247.04 1481.64 L1247.04 1485.58 L1227.13 1485.58 L1227.13 1481.64 Z" fill="#000000" fill-rule="nonzero" fill-opacity="1" /><path clip-path="url(#clip030)" d="M1266.48 1454.1 Q1262.87 1454.1 1261.05 1457.66 Q1259.24 1461.2 1259.24 1468.33 Q1259.24 1475.44 1261.05 1479.01 Q1262.87 1482.55 1266.48 1482.55 Q1270.12 1482.55 1271.92 1479.01 Q1273.75 1475.44 1273.75 1468.33 Q1273.75 1461.2 1271.92 1457.66 Q1270.12 1454.1 1266.48 1454.1 M1266.48 1450.39 Q1272.29 1450.39 1275.35 1455 Q1278.43 1459.58 1278.43 1468.33 Q1278.43 1477.06 1275.35 1481.67 Q1272.29 1486.25 1266.48 1486.25 Q1260.67 1486.25 1257.6 1481.67 Q1254.54 1477.06 1254.54 1468.33 Q1254.54 1459.58 1257.6 1455 Q1260.67 1450.39 1266.48 1450.39 Z" fill="#000000" fill-rule="nonzero" fill-opacity="1" /><path clip-path="url(#clip030)" d="M1296.65 1454.1 Q1293.04 1454.1 1291.21 1457.66 Q1289.4 1461.2 1289.4 1468.33 Q1289.4 1475.44 1291.21 1479.01 Q1293.04 1482.55 1296.65 1482.55 Q1300.28 1482.55 1302.09 1479.01 Q1303.92 1475.44 1303.92 1468.33 Q1303.92 1461.2 1302.09 1457.66 Q1300.28 1454.1 1296.65 1454.1 M1296.65 1450.39 Q1302.46 1450.39 1305.51 1455 Q1308.59 1459.58 1308.59 1468.33 Q1308.59 1477.06 1305.51 1481.67 Q1302.46 1486.25 1296.65 1486.25 Q1290.84 1486.25 1287.76 1481.67 Q1284.7 1477.06 1284.7 1468.33 Q1284.7 1459.58 1287.76 1455 Q1290.84 1450.39 1296.65 1450.39 Z" fill="#000000" fill-rule="nonzero" fill-opacity="1" /><path clip-path="url(#clip030)" d="M1326.81 1454.1 Q1323.2 1454.1 1321.37 1457.66 Q1319.56 1461.2 1319.56 1468.33 Q1319.56 1475.44 1321.37 1479.01 Q1323.2 1482.55 1326.81 1482.55 Q1330.44 1482.55 1332.25 1479.01 Q1334.08 1475.44 1334.08 1468.33 Q1334.08 1461.2 1332.25 1457.66 Q1330.44 1454.1 1326.81 1454.1 M1326.81 1450.39 Q1332.62 1450.39 1335.67 1455 Q1338.75 1459.58 1338.75 1468.33 Q1338.75 1477.06 1335.67 1481.67 Q1332.62 1486.25 1326.81 1486.25 Q1321 1486.25 1317.92 1481.67 Q1314.86 1477.06 1314.86 1468.33 Q1314.86 1459.58 1317.92 1455 Q1321 1450.39 1326.81 1450.39 Z" fill="#000000" fill-rule="nonzero" fill-opacity="1" /><path clip-path="url(#clip030)" d="M1731.92 1481.64 L1739.56 1481.64 L1739.56 1455.28 L1731.25 1456.95 L1731.25 1452.69 L1739.51 1451.02 L1744.19 1451.02 L1744.19 1481.64 L1751.83 1481.64 L1751.83 1485.58 L1731.92 1485.58 L1731.92 1481.64 Z" fill="#000000" fill-rule="nonzero" fill-opacity="1" /><path clip-path="url(#clip030)" d="M1761.32 1451.02 L1779.67 1451.02 L1779.67 1454.96 L1765.6 1454.96 L1765.6 1463.43 Q1766.62 1463.08 1767.64 1462.92 Q1768.66 1462.73 1769.67 1462.73 Q1775.46 1462.73 1778.84 1465.9 Q1782.22 1469.08 1782.22 1474.49 Q1782.22 1480.07 1778.75 1483.17 Q1775.28 1486.25 1768.96 1486.25 Q1766.78 1486.25 1764.51 1485.88 Q1762.27 1485.51 1759.86 1484.77 L1759.86 1480.07 Q1761.94 1481.2 1764.17 1481.76 Q1766.39 1482.32 1768.86 1482.32 Q1772.87 1482.32 1775.21 1480.21 Q1777.54 1478.1 1777.54 1474.49 Q1777.54 1470.88 1775.21 1468.77 Q1772.87 1466.67 1768.86 1466.67 Q1766.99 1466.67 1765.11 1467.08 Q1763.26 1467.5 1761.32 1468.38 L1761.32 1451.02 Z" fill="#000000" fill-rule="nonzero" fill-opacity="1" /><path clip-path="url(#clip030)" d="M1801.43 1454.1 Q1797.82 1454.1 1795.99 1457.66 Q1794.19 1461.2 1794.19 1468.33 Q1794.19 1475.44 1795.99 1479.01 Q1797.82 1482.55 1801.43 1482.55 Q1805.07 1482.55 1806.87 1479.01 Q1808.7 1475.44 1808.7 1468.33 Q1808.7 1461.2 1806.87 1457.66 Q1805.07 1454.1 1801.43 1454.1 M1801.43 1450.39 Q1807.24 1450.39 1810.3 1455 Q1813.38 1459.58 1813.38 1468.33 Q1813.38 1477.06 1810.3 1481.67 Q1807.24 1486.25 1801.43 1486.25 Q1795.62 1486.25 1792.54 1481.67 Q1789.49 1477.06 1789.49 1468.33 Q1789.49 1459.58 1792.54 1455 Q1795.62 1450.39 1801.43 1450.39 Z" fill="#000000" fill-rule="nonzero" fill-opacity="1" /><path clip-path="url(#clip030)" d="M1831.6 1454.1 Q1827.98 1454.1 1826.16 1457.66 Q1824.35 1461.2 1824.35 1468.33 Q1824.35 1475.44 1826.16 1479.01 Q1827.98 1482.55 1831.6 1482.55 Q1835.23 1482.55 1837.04 1479.01 Q1838.86 1475.44 1838.86 1468.33 Q1838.86 1461.2 1837.04 1457.66 Q1835.23 1454.1 1831.6 1454.1 M1831.6 1450.39 Q1837.41 1450.39 1840.46 1455 Q1843.54 1459.58 1843.54 1468.33 Q1843.54 1477.06 1840.46 1481.67 Q1837.41 1486.25 1831.6 1486.25 Q1825.79 1486.25 1822.71 1481.67 Q1819.65 1477.06 1819.65 1468.33 Q1819.65 1459.58 1822.71 1455 Q1825.79 1450.39 1831.6 1450.39 Z" fill="#000000" fill-rule="nonzero" fill-opacity="1" /><path clip-path="url(#clip030)" d="M2240.79 1481.64 L2257.11 1481.64 L2257.11 1485.58 L2235.17 1485.58 L2235.17 1481.64 Q2237.83 1478.89 2242.41 1474.26 Q2247.02 1469.61 2248.2 1468.27 Q2250.45 1465.74 2251.33 1464.01 Q2252.23 1462.25 2252.23 1460.56 Q2252.23 1457.8 2250.28 1456.07 Q2248.36 1454.33 2245.26 1454.33 Q2243.06 1454.33 2240.61 1455.09 Q2238.18 1455.86 2235.4 1457.41 L2235.4 1452.69 Q2238.22 1451.55 2240.68 1450.97 Q2243.13 1450.39 2245.17 1450.39 Q2250.54 1450.39 2253.73 1453.08 Q2256.93 1455.77 2256.93 1460.26 Q2256.93 1462.39 2256.12 1464.31 Q2255.33 1466.2 2253.22 1468.8 Q2252.64 1469.47 2249.54 1472.69 Q2246.44 1475.88 2240.79 1481.64 Z" fill="#000000" fill-rule="nonzero" fill-opacity="1" /><path clip-path="url(#clip030)" d="M2276.93 1454.1 Q2273.32 1454.1 2271.49 1457.66 Q2269.68 1461.2 2269.68 1468.33 Q2269.68 1475.44 2271.49 1479.01 Q2273.32 1482.55 2276.93 1482.55 Q2280.56 1482.55 2282.37 1479.01 Q2284.2 1475.44 2284.2 1468.33 Q2284.2 1461.2 2282.37 1457.66 Q2280.56 1454.1 2276.93 1454.1 M2276.93 1450.39 Q2282.74 1450.39 2285.79 1455 Q2288.87 1459.58 2288.87 1468.33 Q2288.87 1477.06 2285.79 1481.67 Q2282.74 1486.25 2276.93 1486.25 Q2271.12 1486.25 2268.04 1481.67 Q2264.98 1477.06 2264.98 1468.33 Q2264.98 1459.58 2268.04 1455 Q2271.12 1450.39 2276.93 1450.39 Z" fill="#000000" fill-rule="nonzero" fill-opacity="1" /><path clip-path="url(#clip030)" d="M2307.09 1454.1 Q2303.48 1454.1 2301.65 1457.66 Q2299.84 1461.2 2299.84 1468.33 Q2299.84 1475.44 2301.65 1479.01 Q2303.48 1482.55 2307.09 1482.55 Q2310.72 1482.55 2312.53 1479.01 Q2314.36 1475.44 2314.36 1468.33 Q2314.36 1461.2 2312.53 1457.66 Q2310.72 1454.1 2307.09 1454.1 M2307.09 1450.39 Q2312.9 1450.39 2315.95 1455 Q2319.03 1459.58 2319.03 1468.33 Q2319.03 1477.06 2315.95 1481.67 Q2312.9 1486.25 2307.09 1486.25 Q2301.28 1486.25 2298.2 1481.67 Q2295.14 1477.06 2295.14 1468.33 Q2295.14 1459.58 2298.2 1455 Q2301.28 1450.39 2307.09 1450.39 Z" fill="#000000" fill-rule="nonzero" fill-opacity="1" /><path clip-path="url(#clip030)" d="M2337.25 1454.1 Q2333.64 1454.1 2331.81 1457.66 Q2330.01 1461.2 2330.01 1468.33 Q2330.01 1475.44 2331.81 1479.01 Q2333.64 1482.55 2337.25 1482.55 Q2340.88 1482.55 2342.69 1479.01 Q2344.52 1475.44 2344.52 1468.33 Q2344.52 1461.2 2342.69 1457.66 Q2340.88 1454.1 2337.25 1454.1 M2337.25 1450.39 Q2343.06 1450.39 2346.12 1455 Q2349.2 1459.58 2349.2 1468.33 Q2349.2 1477.06 2346.12 1481.67 Q2343.06 1486.25 2337.25 1486.25 Q2331.44 1486.25 2328.36 1481.67 Q2325.31 1477.06 2325.31 1468.33 Q2325.31 1459.58 2328.36 1455 Q2331.44 1450.39 2337.25 1450.39 Z" fill="#000000" fill-rule="nonzero" fill-opacity="1" /><path clip-path="url(#clip030)" d="M1281.67 1522.27 L1281.67 1532.4 L1293.73 1532.4 L1293.73 1536.95 L1281.67 1536.95 L1281.67 1556.3 Q1281.67 1560.66 1282.85 1561.9 Q1284.06 1563.14 1287.72 1563.14 L1293.73 1563.14 L1293.73 1568.04 L1287.72 1568.04 Q1280.94 1568.04 1278.36 1565.53 Q1275.78 1562.98 1275.78 1556.3 L1275.78 1536.95 L1271.48 1536.95 L1271.48 1532.4 L1275.78 1532.4 L1275.78 1522.27 L1281.67 1522.27 Z" fill="#000000" fill-rule="nonzero" fill-opacity="1" /><polyline clip-path="url(#clip032)" style="stroke:#000000; stroke-linecap:round; stroke-linejoin:round; stroke-width:2; stroke-opacity:0.1; fill:none" points="212.459,1246.77 2352.76,1246.77 "/>
<polyline clip-path="url(#clip032)" style="stroke:#000000; stroke-linecap:round; stroke-linejoin:round; stroke-width:2; stroke-opacity:0.1; fill:none" points="212.459,971.846 2352.76,971.846 "/>
<polyline clip-path="url(#clip032)" style="stroke:#000000; stroke-linecap:round; stroke-linejoin:round; stroke-width:2; stroke-opacity:0.1; fill:none" points="212.459,696.917 2352.76,696.917 "/>
<polyline clip-path="url(#clip032)" style="stroke:#000000; stroke-linecap:round; stroke-linejoin:round; stroke-width:2; stroke-opacity:0.1; fill:none" points="212.459,421.989 2352.76,421.989 "/>
<polyline clip-path="url(#clip032)" style="stroke:#000000; stroke-linecap:round; stroke-linejoin:round; stroke-width:2; stroke-opacity:0.1; fill:none" points="212.459,147.06 2352.76,147.06 "/>
<polyline clip-path="url(#clip030)" style="stroke:#000000; stroke-linecap:round; stroke-linejoin:round; stroke-width:4; stroke-opacity:1; fill:none" points="212.459,1423.18 212.459,47.2441 "/>
<polyline clip-path="url(#clip030)" style="stroke:#000000; stroke-linecap:round; stroke-linejoin:round; stroke-width:4; stroke-opacity:1; fill:none" points="212.459,1246.77 231.357,1246.77 "/>
<polyline clip-path="url(#clip030)" style="stroke:#000000; stroke-linecap:round; stroke-linejoin:round; stroke-width:4; stroke-opacity:1; fill:none" points="212.459,971.846 231.357,971.846 "/>
<polyline clip-path="url(#clip030)" style="stroke:#000000; stroke-linecap:round; stroke-linejoin:round; stroke-width:4; stroke-opacity:1; fill:none" points="212.459,696.917 231.357,696.917 "/>
<polyline clip-path="url(#clip030)" style="stroke:#000000; stroke-linecap:round; stroke-linejoin:round; stroke-width:4; stroke-opacity:1; fill:none" points="212.459,421.989 231.357,421.989 "/>
<polyline clip-path="url(#clip030)" style="stroke:#000000; stroke-linecap:round; stroke-linejoin:round; stroke-width:4; stroke-opacity:1; fill:none" points="212.459,147.06 231.357,147.06 "/>
<path clip-path="url(#clip030)" d="M114.26 1247.23 L143.936 1247.23 L143.936 1251.16 L114.26 1251.16 L114.26 1247.23 Z" fill="#000000" fill-rule="nonzero" fill-opacity="1" /><path clip-path="url(#clip030)" d="M166.876 1233.57 L155.07 1252.02 L166.876 1252.02 L166.876 1233.57 M165.649 1229.49 L171.528 1229.49 L171.528 1252.02 L176.459 1252.02 L176.459 1255.91 L171.528 1255.91 L171.528 1264.05 L166.876 1264.05 L166.876 1255.91 L151.274 1255.91 L151.274 1251.39 L165.649 1229.49 Z" fill="#000000" fill-rule="nonzero" fill-opacity="1" /><path clip-path="url(#clip030)" d="M116.343 972.297 L146.019 972.297 L146.019 976.232 L116.343 976.232 L116.343 972.297 Z" fill="#000000" fill-rule="nonzero" fill-opacity="1" /><path clip-path="url(#clip030)" d="M160.14 985.191 L176.459 985.191 L176.459 989.126 L154.515 989.126 L154.515 985.191 Q157.177 982.436 161.76 977.806 Q166.366 973.154 167.547 971.811 Q169.792 969.288 170.672 967.552 Q171.575 965.792 171.575 964.103 Q171.575 961.348 169.63 959.612 Q167.709 957.876 164.607 957.876 Q162.408 957.876 159.954 958.64 Q157.524 959.404 154.746 960.955 L154.746 956.232 Q157.57 955.098 160.024 954.519 Q162.477 953.941 164.515 953.941 Q169.885 953.941 173.079 956.626 Q176.274 959.311 176.274 963.802 Q176.274 965.931 175.464 967.853 Q174.677 969.751 172.57 972.343 Q171.991 973.015 168.889 976.232 Q165.788 979.427 160.14 985.191 Z" fill="#000000" fill-rule="nonzero" fill-opacity="1" /><path clip-path="url(#clip030)" d="M164.515 682.716 Q160.903 682.716 159.075 686.281 Q157.269 689.822 157.269 696.952 Q157.269 704.058 159.075 707.623 Q160.903 711.165 164.515 711.165 Q168.149 711.165 169.954 707.623 Q171.783 704.058 171.783 696.952 Q171.783 689.822 169.954 686.281 Q168.149 682.716 164.515 682.716 M164.515 679.012 Q170.325 679.012 173.38 683.619 Q176.459 688.202 176.459 696.952 Q176.459 705.679 173.38 710.285 Q170.325 714.869 164.515 714.869 Q158.704 714.869 155.626 710.285 Q152.57 705.679 152.57 696.952 Q152.57 688.202 155.626 683.619 Q158.704 679.012 164.515 679.012 Z" fill="#000000" fill-rule="nonzero" fill-opacity="1" /><path clip-path="url(#clip030)" d="M160.14 435.334 L176.459 435.334 L176.459 439.269 L154.515 439.269 L154.515 435.334 Q157.177 432.579 161.76 427.949 Q166.366 423.297 167.547 421.954 Q169.792 419.431 170.672 417.695 Q171.575 415.936 171.575 414.246 Q171.575 411.491 169.63 409.755 Q167.709 408.019 164.607 408.019 Q162.408 408.019 159.954 408.783 Q157.524 409.547 154.746 411.098 L154.746 406.376 Q157.57 405.241 160.024 404.663 Q162.477 404.084 164.515 404.084 Q169.885 404.084 173.079 406.769 Q176.274 409.454 176.274 413.945 Q176.274 416.075 175.464 417.996 Q174.677 419.894 172.57 422.487 Q171.991 423.158 168.889 426.375 Q165.788 429.57 160.14 435.334 Z" fill="#000000" fill-rule="nonzero" fill-opacity="1" /><path clip-path="url(#clip030)" d="M166.876 133.855 L155.07 152.304 L166.876 152.304 L166.876 133.855 M165.649 129.78 L171.528 129.78 L171.528 152.304 L176.459 152.304 L176.459 156.192 L171.528 156.192 L171.528 164.34 L166.876 164.34 L166.876 156.192 L151.274 156.192 L151.274 151.679 L165.649 129.78 Z" fill="#000000" fill-rule="nonzero" fill-opacity="1" /><path clip-path="url(#clip030)" d="M20.8447 948.702 Q20.8447 955.704 26.0645 959.842 Q31.2844 963.948 40.2919 963.948 Q49.2675 963.948 54.4874 959.842 Q59.7073 955.704 59.7073 948.702 Q59.7073 941.7 54.4874 937.626 Q49.2675 933.52 40.2919 933.52 Q31.2844 933.52 26.0645 937.626 Q20.8447 941.7 20.8447 948.702 M15.6248 948.702 Q15.6248 938.708 22.3406 932.724 Q29.0246 926.74 40.2919 926.74 Q51.5274 926.74 58.2432 932.724 Q64.9272 938.708 64.9272 948.702 Q64.9272 958.728 58.2432 964.743 Q51.5592 970.727 40.2919 970.727 Q29.0246 970.727 22.3406 964.743 Q15.6248 958.728 15.6248 948.702 Z" fill="#000000" fill-rule="nonzero" fill-opacity="1" /><path clip-path="url(#clip030)" d="M49.9359 917.542 L28.3562 917.542 L28.3562 911.685 L49.7131 911.685 Q54.7739 911.685 57.3202 909.712 Q59.8346 907.739 59.8346 903.792 Q59.8346 899.049 56.8109 896.312 Q53.7872 893.543 48.5673 893.543 L28.3562 893.543 L28.3562 887.687 L64.0042 887.687 L64.0042 893.543 L58.5296 893.543 Q61.7762 895.676 63.3676 898.508 Q64.9272 901.309 64.9272 905.033 Q64.9272 911.176 61.1078 914.359 Q57.2883 917.542 49.9359 917.542 M27.4968 902.805 L27.4968 902.805 Z" fill="#000000" fill-rule="nonzero" fill-opacity="1" /><path clip-path="url(#clip030)" d="M18.2347 869.831 L28.3562 869.831 L28.3562 857.768 L32.9077 857.768 L32.9077 869.831 L52.2594 869.831 Q56.6199 869.831 57.8613 868.653 Q59.1026 867.444 59.1026 863.783 L59.1026 857.768 L64.0042 857.768 L64.0042 863.783 Q64.0042 870.563 61.4897 873.141 Q58.9434 875.719 52.2594 875.719 L32.9077 875.719 L32.9077 880.016 L28.3562 880.016 L28.3562 875.719 L18.2347 875.719 L18.2347 869.831 Z" fill="#000000" fill-rule="nonzero" fill-opacity="1" /><path clip-path="url(#clip030)" d="M58.657 844.4 L77.5631 844.4 L77.5631 850.288 L28.3562 850.288 L28.3562 844.4 L33.7671 844.4 Q30.5842 842.554 29.0564 839.753 Q27.4968 836.92 27.4968 833.005 Q27.4968 826.512 32.6531 822.47 Q37.8093 818.396 46.212 818.396 Q54.6147 818.396 59.771 822.47 Q64.9272 826.512 64.9272 833.005 Q64.9272 836.92 63.3994 839.753 Q61.8398 842.554 58.657 844.4 M46.212 824.475 Q39.7508 824.475 36.0905 827.149 Q32.3984 829.79 32.3984 834.437 Q32.3984 839.084 36.0905 841.758 Q39.7508 844.4 46.212 844.4 Q52.6732 844.4 56.3653 841.758 Q60.0256 839.084 60.0256 834.437 Q60.0256 829.79 56.3653 827.149 Q52.6732 824.475 46.212 824.475 Z" fill="#000000" fill-rule="nonzero" fill-opacity="1" /><path clip-path="url(#clip030)" d="M49.9359 809.293 L28.3562 809.293 L28.3562 803.436 L49.7131 803.436 Q54.7739 803.436 57.3202 801.463 Q59.8346 799.49 59.8346 795.543 Q59.8346 790.801 56.8109 788.063 Q53.7872 785.294 48.5673 785.294 L28.3562 785.294 L28.3562 779.438 L64.0042 779.438 L64.0042 785.294 L58.5296 785.294 Q61.7762 787.427 63.3676 790.259 Q64.9272 793.06 64.9272 796.784 Q64.9272 802.927 61.1078 806.11 Q57.2883 809.293 49.9359 809.293 M27.4968 794.556 L27.4968 794.556 Z" fill="#000000" fill-rule="nonzero" fill-opacity="1" /><path clip-path="url(#clip030)" d="M18.2347 761.582 L28.3562 761.582 L28.3562 749.519 L32.9077 749.519 L32.9077 761.582 L52.2594 761.582 Q56.6199 761.582 57.8613 760.404 Q59.1026 759.195 59.1026 755.534 L59.1026 749.519 L64.0042 749.519 L64.0042 755.534 Q64.0042 762.314 61.4897 764.892 Q58.9434 767.47 52.2594 767.47 L32.9077 767.47 L32.9077 771.767 L28.3562 771.767 L28.3562 767.47 L18.2347 767.47 L18.2347 761.582 Z" fill="#000000" fill-rule="nonzero" fill-opacity="1" /><path clip-path="url(#clip030)" d="M21.7677 735.132 L39.6235 735.132 L39.6235 727.048 Q39.6235 722.56 37.3 720.109 Q34.9765 717.659 30.6797 717.659 Q26.4147 717.659 24.0912 720.109 Q21.7677 722.56 21.7677 727.048 L21.7677 735.132 M16.4842 741.562 L16.4842 727.048 Q16.4842 719.059 20.1126 714.985 Q23.7092 710.879 30.6797 710.879 Q37.7138 710.879 41.3104 714.985 Q44.907 719.059 44.907 727.048 L44.907 735.132 L64.0042 735.132 L64.0042 741.562 L16.4842 741.562 Z" fill="#000000" fill-rule="nonzero" fill-opacity="1" /><path clip-path="url(#clip030)" d="M32.4621 691.018 Q32.4621 695.729 36.1542 698.466 Q39.8145 701.203 46.212 701.203 Q52.6095 701.203 56.3017 698.498 Q59.9619 695.761 59.9619 691.018 Q59.9619 686.339 56.2698 683.602 Q52.5777 680.865 46.212 680.865 Q39.8781 680.865 36.186 683.602 Q32.4621 686.339 32.4621 691.018 M27.4968 691.018 Q27.4968 683.379 32.4621 679.019 Q37.4273 674.658 46.212 674.658 Q54.9649 674.658 59.9619 679.019 Q64.9272 683.379 64.9272 691.018 Q64.9272 698.689 59.9619 703.049 Q54.9649 707.378 46.212 707.378 Q37.4273 707.378 32.4621 703.049 Q27.4968 698.689 27.4968 691.018 Z" fill="#000000" fill-rule="nonzero" fill-opacity="1" /><path clip-path="url(#clip030)" d="M29.4065 642.225 L34.9447 642.225 Q33.6716 644.708 33.035 647.381 Q32.3984 650.055 32.3984 652.919 Q32.3984 657.28 33.7352 659.476 Q35.072 661.64 37.7456 661.64 Q39.7826 661.64 40.9603 660.081 Q42.1061 658.521 43.1565 653.81 L43.6021 651.805 Q44.9389 645.567 47.3897 642.957 Q49.8086 640.315 54.1691 640.315 Q59.1344 640.315 62.0308 644.262 Q64.9272 648.177 64.9272 655.052 Q64.9272 657.916 64.3543 661.036 Q63.8132 664.123 62.6992 667.56 L56.6518 667.56 Q58.3387 664.314 59.198 661.163 Q60.0256 658.012 60.0256 654.924 Q60.0256 650.787 58.6251 648.559 Q57.1929 646.331 54.6147 646.331 Q52.2276 646.331 50.9545 647.954 Q49.6813 649.545 48.5037 654.988 L48.0262 657.025 Q46.8804 662.468 44.5251 664.887 Q42.138 667.306 38.0002 667.306 Q32.9713 667.306 30.2341 663.741 Q27.4968 660.176 27.4968 653.62 Q27.4968 650.373 27.9743 647.508 Q28.4517 644.644 29.4065 642.225 Z" fill="#000000" fill-rule="nonzero" fill-opacity="1" /><path clip-path="url(#clip030)" d="M28.3562 630.989 L28.3562 625.133 L64.0042 625.133 L64.0042 630.989 L28.3562 630.989 M14.479 630.989 L14.479 625.133 L21.895 625.133 L21.895 630.989 L14.479 630.989 Z" fill="#000000" fill-rule="nonzero" fill-opacity="1" /><path clip-path="url(#clip030)" d="M18.2347 607.086 L28.3562 607.086 L28.3562 595.023 L32.9077 595.023 L32.9077 607.086 L52.2594 607.086 Q56.6199 607.086 57.8613 605.909 Q59.1026 604.699 59.1026 601.039 L59.1026 595.023 L64.0042 595.023 L64.0042 601.039 Q64.0042 607.818 61.4897 610.396 Q58.9434 612.974 52.2594 612.974 L32.9077 612.974 L32.9077 617.271 L28.3562 617.271 L28.3562 612.974 L18.2347 612.974 L18.2347 607.086 Z" fill="#000000" fill-rule="nonzero" fill-opacity="1" /><path clip-path="url(#clip030)" d="M28.3562 587.321 L28.3562 581.464 L64.0042 581.464 L64.0042 587.321 L28.3562 587.321 M14.479 587.321 L14.479 581.464 L21.895 581.464 L21.895 587.321 L14.479 587.321 Z" fill="#000000" fill-rule="nonzero" fill-opacity="1" /><path clip-path="url(#clip030)" d="M32.4621 555.397 Q32.4621 560.107 36.1542 562.845 Q39.8145 565.582 46.212 565.582 Q52.6095 565.582 56.3017 562.876 Q59.9619 560.139 59.9619 555.397 Q59.9619 550.718 56.2698 547.981 Q52.5777 545.243 46.212 545.243 Q39.8781 545.243 36.186 547.981 Q32.4621 550.718 32.4621 555.397 M27.4968 555.397 Q27.4968 547.758 32.4621 543.397 Q37.4273 539.037 46.212 539.037 Q54.9649 539.037 59.9619 543.397 Q64.9272 547.758 64.9272 555.397 Q64.9272 563.067 59.9619 567.428 Q54.9649 571.757 46.212 571.757 Q37.4273 571.757 32.4621 567.428 Q27.4968 563.067 27.4968 555.397 Z" fill="#000000" fill-rule="nonzero" fill-opacity="1" /><path clip-path="url(#clip030)" d="M42.4881 499.697 L64.0042 499.697 L64.0042 505.553 L42.679 505.553 Q37.6183 505.553 35.1038 507.527 Q32.5894 509.5 32.5894 513.447 Q32.5894 518.189 35.6131 520.926 Q38.6368 523.664 43.8567 523.664 L64.0042 523.664 L64.0042 529.552 L28.3562 529.552 L28.3562 523.664 L33.8944 523.664 Q30.6797 521.563 29.0883 518.73 Q27.4968 515.866 27.4968 512.142 Q27.4968 505.999 31.3163 502.848 Q35.1038 499.697 42.4881 499.697 Z" fill="#000000" fill-rule="nonzero" fill-opacity="1" /><polyline clip-path="url(#clip032)" style="stroke:#009af9; stroke-linecap:round; stroke-linejoin:round; stroke-width:4; stroke-opacity:1; fill:none" points="273.033,1384.24 274.043,1383.55 275.052,1382.86 276.062,1382.18 277.072,1381.49 278.081,1380.8 279.091,1380.11 280.1,1379.43 281.11,1378.74 282.12,1378.05 283.129,1377.37 284.139,1376.68 285.148,1375.99 286.158,1375.3 287.167,1374.62 288.177,1373.93 289.187,1373.24 290.196,1372.55 291.206,1371.87 292.215,1371.18 293.225,1370.49 294.234,1369.8 295.244,1369.12 296.254,1368.43 297.263,1367.74 298.273,1367.06 299.282,1366.37 300.292,1365.68 301.301,1364.99 302.311,1364.31 303.321,1363.62 304.33,1362.93 305.34,1362.24 306.349,1361.56 307.359,1360.87 308.368,1360.18 309.378,1359.49 310.388,1358.81 311.397,1358.12 312.407,1357.43 313.416,1356.75 314.426,1356.06 315.435,1355.37 316.445,1354.68 317.455,1354 318.464,1353.31 319.474,1352.62 320.483,1351.93 321.493,1351.25 322.502,1350.56 323.512,1349.87 324.522,1349.19 325.531,1348.5 326.541,1347.81 327.55,1347.12 328.56,1346.44 329.569,1345.75 330.579,1345.06 331.589,1344.37 332.598,1343.69 333.608,1343 334.617,1342.31 335.627,1341.63 336.637,1340.94 337.646,1340.25 338.656,1339.56 339.665,1338.88 340.675,1338.19 341.684,1337.5 342.694,1336.81 343.704,1336.13 344.713,1335.44 345.723,1334.75 346.732,1334.07 347.742,1333.38 348.751,1332.69 349.761,1332 350.771,1331.32 351.78,1330.63 352.79,1329.94 353.799,1329.25 354.809,1328.57 355.818,1327.88 356.828,1327.19 357.838,1326.5 358.847,1325.82 359.857,1325.13 360.866,1324.44 361.876,1323.76 362.885,1323.07 363.895,1322.38 364.905,1321.69 365.914,1321.01 366.924,1320.32 367.933,1319.63 368.943,1318.94 369.952,1318.26 370.962,1317.57 371.972,1316.88 372.981,1316.2 373.991,1315.51 375,1314.82 376.01,1314.13 377.019,1313.45 378.029,1312.76 379.039,1312.07 380.048,1311.39 381.058,1310.7 382.067,1310.01 383.077,1309.32 384.086,1308.64 385.096,1307.95 386.106,1307.26 387.115,1306.57 388.125,1305.89 389.134,1305.2 390.144,1304.51 391.154,1303.83 392.163,1303.14 393.173,1302.45 394.182,1301.76 395.192,1301.08 396.201,1300.39 397.211,1299.7 398.221,1299.01 399.23,1298.33 400.24,1297.64 401.249,1296.95 402.259,1296.27 403.268,1295.58 404.278,1294.89 405.288,1294.2 406.297,1293.52 407.307,1292.83 408.316,1292.14 409.326,1291.45 410.335,1290.77 411.345,1290.08 412.355,1289.39 413.364,1288.71 414.374,1288.02 415.383,1287.33 416.393,1286.64 417.402,1285.96 418.412,1285.27 419.422,1284.58 420.431,1283.9 421.441,1283.21 422.45,1282.52 423.46,1281.83 424.469,1281.15 425.479,1280.46 426.489,1279.77 427.498,1279.08 428.508,1278.4 429.517,1277.71 430.527,1277.02 431.536,1276.34 432.546,1275.65 433.556,1274.96 434.565,1274.27 435.575,1273.59 436.584,1272.9 437.594,1272.21 438.603,1271.53 439.613,1270.84 440.623,1270.15 441.632,1269.46 442.642,1268.78 443.651,1268.09 444.661,1267.4 445.671,1266.72 446.68,1266.03 447.69,1265.34 448.699,1264.65 449.709,1263.97 450.718,1263.28 451.728,1262.59 452.738,1261.91 453.747,1261.22 454.757,1260.53 455.766,1259.84 456.776,1259.16 457.785,1258.47 458.795,1257.78 459.805,1257.09 460.814,1256.41 461.824,1255.72 462.833,1255.03 463.843,1254.35 464.852,1253.66 465.862,1252.97 466.872,1252.28 467.881,1251.6 468.891,1250.91 469.9,1250.22 470.91,1249.54 471.919,1248.85 472.929,1248.16 473.939,1247.47 474.948,1246.79 475.958,1246.1 476.967,1245.41 477.977,1244.73 478.986,1244.04 479.996,1243.35 481.006,1242.66 482.015,1241.98 483.025,1241.29 484.034,1240.6 485.044,1239.92 486.053,1239.23 487.063,1238.54 488.073,1237.85 489.082,1237.17 490.092,1236.48 491.101,1235.79 492.111,1235.11 493.12,1234.42 494.13,1233.73 495.14,1233.05 496.149,1232.36 497.159,1231.67 498.168,1230.98 499.178,1230.3 500.188,1229.61 501.197,1228.92 502.207,1228.24 503.216,1227.55 504.226,1226.86 505.235,1226.17 506.245,1225.49 507.255,1224.8 508.264,1224.11 509.274,1223.43 510.283,1222.74 511.293,1222.05 512.302,1221.36 513.312,1220.68 514.322,1219.99 515.331,1219.3 516.341,1218.62 517.35,1217.93 518.36,1217.24 519.369,1216.56 520.379,1215.87 521.389,1215.18 522.398,1214.49 523.408,1213.81 524.417,1213.12 525.427,1212.43 526.436,1211.75 527.446,1211.06 528.456,1210.37 529.465,1209.69 530.475,1209 531.484,1208.31 532.494,1207.62 533.503,1206.94 534.513,1206.25 535.523,1205.56 536.532,1204.88 537.542,1204.19 538.551,1203.5 539.561,1202.82 540.57,1202.13 541.58,1201.44 542.59,1200.75 543.599,1200.07 544.609,1199.38 545.618,1198.69 546.628,1198.01 547.637,1197.32 548.647,1196.63 549.657,1195.95 550.666,1195.26 551.676,1194.57 552.685,1193.88 553.695,1193.2 554.705,1192.51 555.714,1191.82 556.724,1191.14 557.733,1190.45 558.743,1189.76 559.752,1189.08 560.762,1188.39 561.772,1187.7 562.781,1187.02 563.791,1186.33 564.8,1185.64 565.81,1184.95 566.819,1184.27 567.829,1183.58 568.839,1182.89 569.848,1182.21 570.858,1181.52 571.867,1180.83 572.877,1180.15 573.886,1179.46 574.896,1178.77 575.906,1178.09 576.915,1177.4 577.925,1176.71 578.934,1176.03 579.944,1175.34 580.953,1174.65 581.963,1173.96 582.973,1173.28 583.982,1172.59 584.992,1171.9 586.001,1171.22 587.011,1170.53 588.02,1169.84 589.03,1169.16 590.04,1168.47 591.049,1167.78 592.059,1167.1 593.068,1166.41 594.078,1165.72 595.087,1165.04 596.097,1164.35 597.107,1163.66 598.116,1162.98 599.126,1162.29 600.135,1161.6 601.145,1160.92 602.154,1160.23 603.164,1159.54 604.174,1158.86 605.183,1158.17 606.193,1157.48 607.202,1156.8 608.212,1156.11 609.222,1155.42 610.231,1154.74 611.241,1154.05 612.25,1153.36 613.26,1152.68 614.269,1151.99 615.279,1151.3 616.289,1150.62 617.298,1149.93 618.308,1149.24 619.317,1148.56 620.327,1147.87 621.336,1147.18 622.346,1146.5 623.356,1145.81 624.365,1145.12 625.375,1144.44 626.384,1143.75 627.394,1143.06 628.403,1142.38 629.413,1141.69 630.423,1141 631.432,1140.32 632.442,1139.63 633.451,1138.94 634.461,1138.26 635.47,1137.57 636.48,1136.88 637.49,1136.2 638.499,1135.51 639.509,1134.82 640.518,1134.14 641.528,1133.45 642.537,1132.76 643.547,1132.08 644.557,1131.39 645.566,1130.7 646.576,1130.02 647.585,1129.33 648.595,1128.64 649.604,1127.96 650.614,1127.27 651.624,1126.59 652.633,1125.9 653.643,1125.21 654.652,1124.53 655.662,1123.84 656.671,1123.15 657.681,1122.47 658.691,1121.78 659.7,1121.09 660.71,1120.41 661.719,1119.72 662.729,1119.04 663.739,1118.35 664.748,1117.66 665.758,1116.98 666.767,1116.29 667.777,1115.6 668.786,1114.92 669.796,1114.23 670.806,1113.54 671.815,1112.86 672.825,1112.17 673.834,1111.49 674.844,1110.8 675.853,1110.11 676.863,1109.43 677.873,1108.74 678.882,1108.05 679.892,1107.37 680.901,1106.68 681.911,1106 682.92,1105.31 683.93,1104.62 684.94,1103.94 685.949,1103.25 686.959,1102.57 687.968,1101.88 688.978,1101.19 689.987,1100.51 690.997,1099.82 692.007,1099.13 693.016,1098.45 694.026,1097.76 695.035,1097.08 696.045,1096.39 697.054,1095.7 698.064,1095.02 699.074,1094.33 700.083,1093.65 701.093,1092.96 702.102,1092.27 703.112,1091.59 704.121,1090.9 705.131,1090.22 706.141,1089.53 707.15,1088.84 708.16,1088.16 709.169,1087.47 710.179,1086.79 711.188,1086.1 712.198,1085.41 713.208,1084.73 714.217,1084.04 715.227,1083.36 716.236,1082.67 717.246,1081.99 718.256,1081.3 719.265,1080.61 720.275,1079.93 721.284,1079.24 722.294,1078.56 723.303,1077.87 724.313,1077.19 725.323,1076.5 726.332,1075.81 727.342,1075.13 728.351,1074.44 729.361,1073.76 730.37,1073.07 731.38,1072.39 732.39,1071.7 733.399,1071.01 734.409,1070.33 735.418,1069.64 736.428,1068.96 737.437,1068.27 738.447,1067.59 739.457,1066.9 740.466,1066.22 741.476,1065.53 742.485,1064.84 743.495,1064.16 744.504,1063.47 745.514,1062.79 746.524,1062.1 747.533,1061.42 748.543,1060.73 749.552,1060.05 750.562,1059.36 751.571,1058.68 752.581,1057.99 753.591,1057.31 754.6,1056.62 755.61,1055.93 756.619,1055.25 757.629,1054.56 758.638,1053.88 759.648,1053.19 760.658,1052.51 761.667,1051.82 762.677,1051.14 763.686,1050.45 764.696,1049.77 765.705,1049.08 766.715,1048.4 767.725,1047.71 768.734,1047.03 769.744,1046.34 770.753,1045.66 771.763,1044.97 772.773,1044.29 773.782,1043.6 774.792,1042.92 775.801,1042.23 776.811,1041.55 777.82,1040.86 778.83,1040.18 779.84,1039.49 780.849,1038.81 781.859,1038.12 782.868,1037.44 783.878,1036.75 784.887,1036.07 785.897,1035.39 786.907,1034.7 787.916,1034.02 788.926,1033.33 789.935,1032.65 790.945,1031.96 791.954,1031.28 792.964,1030.59 793.974,1029.91 794.983,1029.22 795.993,1028.54 797.002,1027.86 798.012,1027.17 799.021,1026.49 800.031,1025.8 801.041,1025.12 802.05,1024.43 803.06,1023.75 804.069,1023.06 805.079,1022.38 806.088,1021.7 807.098,1021.01 808.108,1020.33 809.117,1019.64 810.127,1018.96 811.136,1018.28 812.146,1017.59 813.155,1016.91 814.165,1016.22 815.175,1015.54 816.184,1014.86 817.194,1014.17 818.203,1013.49 819.213,1012.8 820.222,1012.12 821.232,1011.44 822.242,1010.75 823.251,1010.07 824.261,1009.38 825.27,1008.7 826.28,1008.02 827.29,1007.33 828.299,1006.65 829.309,1005.97 830.318,1005.28 831.328,1004.6 832.337,1003.92 833.347,1003.23 834.357,1002.55 835.366,1001.86 836.376,1001.18 837.385,1000.5 838.395,999.815 839.404,999.132 840.414,998.448 841.424,997.765 842.433,997.082 843.443,996.399 844.452,995.716 845.462,995.033 846.471,994.349 847.481,993.666 848.491,992.983 849.5,992.3 850.51,991.618 851.519,990.935 852.529,990.252 853.538,989.569 854.548,988.886 855.558,988.204 856.567,987.521 857.577,986.838 858.586,986.156 859.596,985.473 860.605,984.79 861.615,984.108 862.625,983.425 863.634,982.743 864.644,982.061 865.653,981.378 866.663,980.696 867.672,980.014 868.682,979.331 869.692,978.649 870.701,977.967 871.711,977.285 872.72,976.603 873.73,975.921 874.739,975.239 875.749,974.557 876.759,973.875 877.768,973.193 878.778,972.511 879.787,971.83 880.797,971.148 881.807,970.466 882.816,969.785 883.826,969.103 884.835,968.421 885.845,967.74 886.854,967.059 887.864,966.377 888.874,965.696 889.883,965.014 890.893,964.333 891.902,963.652 892.912,962.971 893.921,962.29 894.931,961.609 895.941,960.928 896.95,960.247 897.96,959.566 898.969,958.885 899.979,958.204 900.988,957.523 901.998,956.843 903.008,956.162 904.017,955.481 905.027,954.801 906.036,954.12 907.046,953.44 908.055,952.76 909.065,952.079 910.075,951.399 911.084,950.719 912.094,950.039 913.103,949.359 914.113,948.679 915.122,947.999 916.132,947.319 917.142,946.639 918.151,945.959 919.161,945.279 920.17,944.6 921.18,943.92 922.189,943.241 923.199,942.561 924.209,941.882 925.218,941.202 926.228,940.523 927.237,939.844 928.247,939.165 929.256,938.485 930.266,937.806 931.276,937.127 932.285,936.449 933.295,935.77 934.304,935.091 935.314,934.412 936.323,933.734 937.333,933.055 938.343,932.376 939.352,931.698 940.362,931.02 941.371,930.341 942.381,929.663 943.391,928.985 944.4,928.307 945.41,927.629 946.419,926.951 947.429,926.273 948.438,925.595 949.448,924.918 950.458,924.24 951.467,923.563 952.477,922.885 953.486,922.208 954.496,921.53 955.505,920.853 956.515,920.176 957.525,919.499 958.534,918.822 959.544,918.145 960.553,917.468 961.563,916.791 962.572,916.115 963.582,915.438 964.592,914.762 965.601,914.085 966.611,913.409 967.62,912.733 968.63,912.057 969.639,911.381 970.649,910.705 971.659,910.029 972.668,909.353 973.678,908.677 974.687,908.002 975.697,907.326 976.706,906.651 977.716,905.975 978.726,905.3 979.735,904.625 980.745,903.95 981.754,903.275 982.764,902.6 983.773,901.925 984.783,901.25 985.793,900.576 986.802,899.901 987.812,899.227 988.821,898.553 989.831,897.879 990.84,897.204 991.85,896.531 992.86,895.857 993.869,895.183 994.879,894.509 995.888,893.836 996.898,893.162 997.908,892.489 998.917,891.816 999.927,891.142 1000.94,890.469 1001.95,889.797 1002.96,889.124 1003.96,888.451 1004.97,887.778 1005.98,887.106 1006.99,886.434 1008,885.761 1009.01,885.089 1010.02,884.417 1011.03,883.745 1012.04,883.074 1013.05,882.402 1014.06,881.73 1015.07,881.059 1016.08,880.388 1017.09,879.717 1018.1,879.045 1019.11,878.375 1020.12,877.704 1021.13,877.033 1022.14,876.362 1023.15,875.692 1024.16,875.022 1025.17,874.352 1026.18,873.681 1027.19,873.012 1028.19,872.342 1029.2,871.672 1030.21,871.003 1031.22,870.333 1032.23,869.664 1033.24,868.995 1034.25,868.326 1035.26,867.657 1036.27,866.988 1037.28,866.32 1038.29,865.651 1039.3,864.983 1040.31,864.315 1041.32,863.647 1042.33,862.979 1043.34,862.311 1044.35,861.643 1045.36,860.976 1046.37,860.308 1047.38,859.641 1048.39,858.974 1049.4,858.307 1050.41,857.641 1051.41,856.974 1052.42,856.308 1053.43,855.641 1054.44,854.975 1055.45,854.309 1056.46,853.643 1057.47,852.978 1058.48,852.312 1059.49,851.647 1060.5,850.982 1061.51,850.317 1062.52,849.652 1063.53,848.987 1064.54,848.322 1065.55,847.658 1066.56,846.994 1067.57,846.33 1068.58,845.666 1069.59,845.002 1070.6,844.338 1071.61,843.675 1072.62,843.012 1073.63,842.349 1074.64,841.686 1075.64,841.023 1076.65,840.36 1077.66,839.698 1078.67,839.036 1079.68,838.374 1080.69,837.712 1081.7,837.05 1082.71,836.389 1083.72,835.727 1084.73,835.066 1085.74,834.405 1086.75,833.744 1087.76,833.084 1088.77,832.423 1089.78,831.763 1090.79,831.103 1091.8,830.443 1092.81,829.783 1093.82,829.124 1094.83,828.464 1095.84,827.805 1096.85,827.146 1097.86,826.487 1098.86,825.829 1099.87,825.17 1100.88,824.512 1101.89,823.854 1102.9,823.196 1103.91,822.539 1104.92,821.881 1105.93,821.224 1106.94,820.567 1107.95,819.91 1108.96,819.254 1109.97,818.597 1110.98,817.941 1111.99,817.285 1113,816.629 1114.01,815.974 1115.02,815.318 1116.03,814.663 1117.04,814.008 1118.05,813.354 1119.06,812.699 1120.07,812.045 1121.08,811.391 1122.09,810.737 1123.09,810.083 1124.1,809.429 1125.11,808.776 1126.12,808.123 1127.13,807.47 1128.14,806.818 1129.15,806.165 1130.16,805.513 1131.17,804.861 1132.18,804.21 1133.19,803.558 1134.2,802.907 1135.21,802.256 1136.22,801.605 1137.23,800.955 1138.24,800.304 1139.25,799.654 1140.26,799.004 1141.27,798.355 1142.28,797.705 1143.29,797.056 1144.3,796.407 1145.31,795.759 1146.31,795.11 1147.32,794.462 1148.33,793.814 1149.34,793.166 1150.35,792.519 1151.36,791.872 1152.37,791.225 1153.38,790.578 1154.39,789.932 1155.4,789.285 1156.41,788.64 1157.42,787.994 1158.43,787.348 1159.44,786.703 1160.45,786.058 1161.46,785.414 1162.47,784.769 1163.48,784.125 1164.49,783.481 1165.5,782.838 1166.51,782.194 1167.52,781.551 1168.53,780.909 1169.54,780.266 1170.54,779.624 1171.55,778.982 1172.56,778.34 1173.57,777.699 1174.58,777.058 1175.59,776.417 1176.6,775.776 1177.61,775.136 1178.62,774.496 1179.63,773.856 1180.64,773.217 1181.65,772.578 1182.66,771.939 1183.67,771.3 1184.68,770.662 1185.69,770.024 1186.7,769.386 1187.71,768.749 1188.72,768.112 1189.73,767.475 1190.74,766.838 1191.75,766.202 1192.76,765.566 1193.76,764.931 1194.77,764.296 1195.78,763.661 1196.79,763.026 1197.8,762.392 1198.81,761.758 1199.82,761.124 1200.83,760.491 1201.84,759.858 1202.85,759.225 1203.86,758.593 1204.87,757.961 1205.88,757.329 1206.89,756.698 1207.9,756.067 1208.91,755.436 1209.92,754.806 1210.93,754.176 1211.94,753.546 1212.95,752.917 1213.96,752.288 1214.97,751.659 1215.98,751.031 1216.99,750.403 1217.99,749.775 1219,749.148 1220.01,748.521 1221.02,747.895 1222.03,747.268 1223.04,746.643 1224.05,746.017 1225.06,745.392 1226.07,744.767 1227.08,744.143 1228.09,743.519 1229.1,742.895 1230.11,742.272 1231.12,741.649 1232.13,741.027 1233.14,740.405 1234.15,739.783 1235.16,739.162 1236.17,738.541 1237.18,737.921 1238.19,737.3 1239.2,736.681 1240.21,736.061 1241.21,735.442 1242.22,734.824 1243.23,734.206 1244.24,733.588 1245.25,732.971 1246.26,732.354 1247.27,731.737 1248.28,731.121 1249.29,730.505 1250.3,729.89 1251.31,729.275 1252.32,728.661 1253.33,728.047 1254.34,727.433 1255.35,726.82 1256.36,726.207 1257.37,725.595 1258.38,724.983 1259.39,724.372 1260.4,723.761 1261.41,723.15 1262.42,722.54 1263.43,721.93 1264.44,721.321 1265.44,720.712 1266.45,720.104 1267.46,719.496 1268.47,718.888 1269.48,718.281 1270.49,717.675 1271.5,717.068 1272.51,716.463 1273.52,715.857 1274.53,715.253 1275.54,714.648 1276.55,714.044 1277.56,713.441 1278.57,712.838 1279.58,712.235 1280.59,711.633 1281.6,711.032 1282.61,710.43 1283.62,709.83 1284.63,709.229 1285.64,708.63 1286.65,708.03 1287.66,707.431 1288.66,706.833 1289.67,706.235 1290.68,705.638 1291.69,705.041 1292.7,704.444 1293.71,703.848 1294.72,703.252 1295.73,702.657 1296.74,702.062 1297.75,701.468 1298.76,700.874 1299.77,700.281 1300.78,699.688 1301.79,699.096 1302.8,698.504 1303.81,697.912 1304.82,697.321 1305.83,696.731 1306.84,696.14 1307.85,695.551 1308.86,694.961 1309.87,694.373 1310.88,693.784 1311.89,693.196 1312.89,692.609 1313.9,692.021 1314.91,691.435 1315.92,690.848 1316.93,690.262 1317.94,689.676 1318.95,689.091 1319.96,688.506 1320.97,687.921 1321.98,687.337 1322.99,686.753 1324,686.17 1325.01,685.586 1326.02,685.003 1327.03,684.421 1328.04,683.838 1329.05,683.256 1330.06,682.675 1331.07,682.093 1332.08,681.512 1333.09,680.931 1334.1,680.35 1335.11,679.77 1336.11,679.19 1337.12,678.61 1338.13,678.03 1339.14,677.451 1340.15,676.872 1341.16,676.293 1342.17,675.714 1343.18,675.136 1344.19,674.557 1345.2,673.979 1346.21,673.401 1347.22,672.824 1348.23,672.246 1349.24,671.669 1350.25,671.092 1351.26,670.515 1352.27,669.938 1353.28,669.361 1354.29,668.785 1355.3,668.208 1356.31,667.632 1357.32,667.056 1358.33,666.48 1359.34,665.904 1360.34,665.328 1361.35,664.752 1362.36,664.177 1363.37,663.602 1364.38,663.026 1365.39,662.451 1366.4,661.876 1367.41,661.301 1368.42,660.726 1369.43,660.151 1370.44,659.576 1371.45,659.001 1372.46,658.426 1373.47,657.851 1374.48,657.277 1375.49,656.702 1376.5,656.128 1377.51,655.553 1378.52,654.978 1379.53,654.404 1380.54,653.829 1381.55,653.255 1382.56,652.68 1383.56,652.106 1384.57,651.531 1385.58,650.956 1386.59,650.382 1387.6,649.807 1388.61,649.232 1389.62,648.658 1390.63,648.083 1391.64,647.508 1392.65,646.933 1393.66,646.358 1394.67,645.783 1395.68,645.208 1396.69,644.633 1397.7,644.058 1398.71,643.483 1399.72,642.907 1400.73,642.332 1401.74,641.756 1402.75,641.181 1403.76,640.605 1404.77,640.029 1405.78,639.453 1406.79,638.877 1407.79,638.301 1408.8,637.724 1409.81,637.148 1410.82,636.571 1411.83,635.994 1412.84,635.417 1413.85,634.84 1414.86,634.263 1415.87,633.686 1416.88,633.108 1417.89,632.53 1418.9,631.952 1419.91,631.374 1420.92,630.796 1421.93,630.217 1422.94,629.638 1423.95,629.059 1424.96,628.48 1425.97,627.901 1426.98,627.321 1427.99,626.741 1429,626.161 1430.01,625.581 1431.01,625.001 1432.02,624.42 1433.03,623.839 1434.04,623.258 1435.05,622.676 1436.06,622.095 1437.07,621.513 1438.08,620.93 1439.09,620.348 1440.1,619.765 1441.11,619.182 1442.12,618.599 1443.13,618.015 1444.14,617.431 1445.15,616.847 1446.16,616.263 1447.17,615.678 1448.18,615.093 1449.19,614.507 1450.2,613.922 1451.21,613.336 1452.22,612.749 1453.23,612.163 1454.23,611.576 1455.24,610.988 1456.25,610.401 1457.26,609.813 1458.27,609.225 1459.28,608.636 1460.29,608.047 1461.3,607.458 1462.31,606.868 1463.32,606.278 1464.33,605.688 1465.34,605.097 1466.35,604.506 1467.36,603.915 1468.37,603.323 1469.38,602.731 1470.39,602.139 1471.4,601.546 1472.41,600.953 1473.42,600.359 1474.43,599.765 1475.44,599.171 1476.45,598.577 1477.46,597.982 1478.46,597.386 1479.47,596.79 1480.48,596.194 1481.49,595.598 1482.5,595.001 1483.51,594.403 1484.52,593.806 1485.53,593.208 1486.54,592.609 1487.55,592.01 1488.56,591.411 1489.57,590.812 1490.58,590.212 1491.59,589.611 1492.6,589.01 1493.61,588.409 1494.62,587.808 1495.63,587.206 1496.64,586.603 1497.65,586.001 1498.66,585.398 1499.67,584.794 1500.68,584.19 1501.68,583.586 1502.69,582.981 1503.7,582.376 1504.71,581.771 1505.72,581.165 1506.73,580.558 1507.74,579.952 1508.75,579.345 1509.76,578.737 1510.77,578.13 1511.78,577.521 1512.79,576.913 1513.8,576.304 1514.81,575.695 1515.82,575.085 1516.83,574.475 1517.84,573.864 1518.85,573.254 1519.86,572.642 1520.87,572.031 1521.88,571.419 1522.89,570.807 1523.9,570.194 1524.91,569.581 1525.91,568.967 1526.92,568.354 1527.93,567.74 1528.94,567.125 1529.95,566.51 1530.96,565.895 1531.97,565.28 1532.98,564.664 1533.99,564.047 1535,563.431 1536.01,562.814 1537.02,562.197 1538.03,561.579 1539.04,560.961 1540.05,560.343 1541.06,559.725 1542.07,559.106 1543.08,558.486 1544.09,557.867 1545.1,557.247 1546.11,556.627 1547.12,556.007 1548.13,555.386 1549.13,554.765 1550.14,554.144 1551.15,553.522 1552.16,552.9 1553.17,552.278 1554.18,551.655 1555.19,551.033 1556.2,550.41 1557.21,549.786 1558.22,549.163 1559.23,548.539 1560.24,547.915 1561.25,547.29 1562.26,546.666 1563.27,546.041 1564.28,545.416 1565.29,544.79 1566.3,544.165 1567.31,543.539 1568.32,542.913 1569.33,542.287 1570.34,541.66 1571.35,541.033 1572.36,540.406 1573.36,539.779 1574.37,539.152 1575.38,538.524 1576.39,537.896 1577.4,537.268 1578.41,536.64 1579.42,536.012 1580.43,535.383 1581.44,534.754 1582.45,534.125 1583.46,533.496 1584.47,532.867 1585.48,532.237 1586.49,531.608 1587.5,530.978 1588.51,530.348 1589.52,529.718 1590.53,529.088 1591.54,528.457 1592.55,527.827 1593.56,527.196 1594.57,526.565 1595.58,525.934 1596.58,525.303 1597.59,524.672 1598.6,524.04 1599.61,523.409 1600.62,522.777 1601.63,522.145 1602.64,521.513 1603.65,520.881 1604.66,520.249 1605.67,519.617 1606.68,518.985 1607.69,518.353 1608.7,517.72 1609.71,517.087 1610.72,516.455 1611.73,515.822 1612.74,515.189 1613.75,514.556 1614.76,513.923 1615.77,513.29 1616.78,512.657 1617.79,512.024 1618.8,511.391 1619.81,510.757 1620.81,510.124 1621.82,509.49 1622.83,508.857 1623.84,508.223 1624.85,507.59 1625.86,506.956 1626.87,506.322 1627.88,505.688 1628.89,505.055 1629.9,504.421 1630.91,503.787 1631.92,503.153 1632.93,502.519 1633.94,501.885 1634.95,501.251 1635.96,500.617 1636.97,499.983 1637.98,499.348 1638.99,498.714 1640,498.08 1641.01,497.446 1642.02,496.812 1643.03,496.177 1644.03,495.543 1645.04,494.909 1646.05,494.274 1647.06,493.64 1648.07,493.006 1649.08,492.371 1650.09,491.737 1651.1,491.103 1652.11,490.468 1653.12,489.834 1654.13,489.199 1655.14,488.565 1656.15,487.93 1657.16,487.296 1658.17,486.662 1659.18,486.027 1660.19,485.393 1661.2,484.758 1662.21,484.124 1663.22,483.489 1664.23,482.855 1665.24,482.22 1666.25,481.586 1667.26,480.951 1668.26,480.317 1669.27,479.683 1670.28,479.048 1671.29,478.414 1672.3,477.779 1673.31,477.145 1674.32,476.51 1675.33,475.876 1676.34,475.241 1677.35,474.607 1678.36,473.973 1679.37,473.338 1680.38,472.704 1681.39,472.069 1682.4,471.435 1683.41,470.801 1684.42,470.166 1685.43,469.532 1686.44,468.897 1687.45,468.263 1688.46,467.629 1689.47,466.994 1690.48,466.36 1691.48,465.725 1692.49,465.091 1693.5,464.457 1694.51,463.822 1695.52,463.188 1696.53,462.554 1697.54,461.919 1698.55,461.285 1699.56,460.65 1700.57,460.016 1701.58,459.382 1702.59,458.747 1703.6,458.113 1704.61,457.479 1705.62,456.844 1706.63,456.21 1707.64,455.576 1708.65,454.941 1709.66,454.307 1710.67,453.672 1711.68,453.038 1712.69,452.404 1713.7,451.769 1714.71,451.135 1715.71,450.5 1716.72,449.866 1717.73,449.232 1718.74,448.597 1719.75,447.963 1720.76,447.328 1721.77,446.694 1722.78,446.06 1723.79,445.425 1724.8,444.791 1725.81,444.156 1726.82,443.522 1727.83,442.887 1728.84,442.253 1729.85,441.618 1730.86,440.984 1731.87,440.349 1732.88,439.715 1733.89,439.08 1734.9,438.445 1735.91,437.811 1736.92,437.176 1737.93,436.542 1738.93,435.907 1739.94,435.272 1740.95,434.638 1741.96,434.003 1742.97,433.368 1743.98,432.734 1744.99,432.099 1746,431.464 1747.01,430.829 1748.02,430.195 1749.03,429.56 1750.04,428.925 1751.05,428.29 1752.06,427.655 1753.07,427.02 1754.08,426.385 1755.09,425.751 1756.1,425.116 1757.11,424.481 1758.12,423.846 1759.13,423.211 1760.14,422.576 1761.15,421.941 1762.16,421.305 1763.16,420.67 1764.17,420.035 1765.18,419.4 1766.19,418.765 1767.2,418.13 1768.21,417.495 1769.22,416.859 1770.23,416.224 1771.24,415.589 1772.25,414.953 1773.26,414.318 1774.27,413.683 1775.28,413.047 1776.29,412.412 1777.3,411.776 1778.31,411.141 1779.32,410.506 1780.33,409.87 1781.34,409.234 1782.35,408.599 1783.36,407.963 1784.37,407.328 1785.38,406.692 1786.38,406.056 1787.39,405.421 1788.4,404.785 1789.41,404.149 1790.42,403.513 1791.43,402.878 1792.44,402.242 1793.45,401.606 1794.46,400.97 1795.47,400.334 1796.48,399.698 1797.49,399.062 1798.5,398.426 1799.51,397.79 1800.52,397.154 1801.53,396.518 1802.54,395.882 1803.55,395.246 1804.56,394.61 1805.57,393.974 1806.58,393.338 1807.59,392.701 1808.6,392.065 1809.61,391.429 1810.61,390.793 1811.62,390.156 1812.63,389.52 1813.64,388.884 1814.65,388.247 1815.66,387.611 1816.67,386.974 1817.68,386.338 1818.69,385.701 1819.7,385.065 1820.71,384.428 1821.72,383.792 1822.73,383.155 1823.74,382.519 1824.75,381.882 1825.76,381.245 1826.77,380.609 1827.78,379.972 1828.79,379.335 1829.8,378.699 1830.81,378.062 1831.82,377.425 1832.83,376.788 1833.83,376.151 1834.84,375.515 1835.85,374.878 1836.86,374.241 1837.87,373.604 1838.88,372.967 1839.89,372.33 1840.9,371.693 1841.91,371.056 1842.92,370.419 1843.93,369.782 1844.94,369.145 1845.95,368.508 1846.96,367.871 1847.97,367.234 1848.98,366.596 1849.99,365.959 1851,365.322 1852.01,364.685 1853.02,364.048 1854.03,363.41 1855.04,362.773 1856.05,362.136 1857.06,361.499 1858.06,360.861 1859.07,360.224 1860.08,359.587 1861.09,358.949 1862.1,358.312 1863.11,357.674 1864.12,357.037 1865.13,356.4 1866.14,355.762 1867.15,355.125 1868.16,354.487 1869.17,353.85 1870.18,353.212 1871.19,352.575 1872.2,351.937 1873.21,351.3 1874.22,350.662 1875.23,350.024 1876.24,349.387 1877.25,348.749 1878.26,348.112 1879.27,347.474 1880.28,346.836 1881.28,346.199 1882.29,345.561 1883.3,344.923 1884.31,344.286 1885.32,343.648 1886.33,343.01 1887.34,342.372 1888.35,341.735 1889.36,341.097 1890.37,340.459 1891.38,339.821 1892.39,339.183 1893.4,338.545 1894.41,337.908 1895.42,337.27 1896.43,336.632 1897.44,335.994 1898.45,335.356 1899.46,334.718 1900.47,334.08 1901.48,333.442 1902.49,332.804 1903.5,332.166 1904.51,331.528 1905.51,330.89 1906.52,330.252 1907.53,329.614 1908.54,328.976 1909.55,328.338 1910.56,327.7 1911.57,327.062 1912.58,326.424 1913.59,325.786 1914.6,325.148 1915.61,324.51 1916.62,323.872 1917.63,323.234 1918.64,322.596 1919.65,321.958 1920.66,321.32 1921.67,320.681 1922.68,320.043 1923.69,319.405 1924.7,318.767 1925.71,318.129 1926.72,317.491 1927.73,316.852 1928.73,316.214 1929.74,315.576 1930.75,314.938 1931.76,314.299 1932.77,313.661 1933.78,313.023 1934.79,312.385 1935.8,311.746 1936.81,311.108 1937.82,310.47 1938.83,309.832 1939.84,309.193 1940.85,308.555 1941.86,307.917 1942.87,307.278 1943.88,306.64 1944.89,306.002 1945.9,305.363 1946.91,304.725 1947.92,304.087 1948.93,303.448 1949.94,302.81 1950.95,302.171 1951.96,301.533 1952.96,300.895 1953.97,300.256 1954.98,299.618 1955.99,298.979 1957,298.341 1958.01,297.703 1959.02,297.064 1960.03,296.426 1961.04,295.787 1962.05,295.149 1963.06,294.51 1964.07,293.872 1965.08,293.233 1966.09,292.595 1967.1,291.956 1968.11,291.318 1969.12,290.679 1970.13,290.041 1971.14,289.402 1972.15,288.764 1973.16,288.125 1974.17,287.487 1975.18,286.848 1976.18,286.21 1977.19,285.571 1978.2,284.932 1979.21,284.294 1980.22,283.655 1981.23,283.017 1982.24,282.378 1983.25,281.74 1984.26,281.101 1985.27,280.462 1986.28,279.824 1987.29,279.185 1988.3,278.547 1989.31,277.908 1990.32,277.269 1991.33,276.631 1992.34,275.992 1993.35,275.353 1994.36,274.715 1995.37,274.076 1996.38,273.437 1997.39,272.799 1998.4,272.16 1999.4,271.521 2000.41,270.883 2001.42,270.244 2002.43,269.605 2003.44,268.967 2004.45,268.328 2005.46,267.689 2006.47,267.05 2007.48,266.412 2008.49,265.773 2009.5,265.134 2010.51,264.496 2011.52,263.857 2012.53,263.218 2013.54,262.579 2014.55,261.941 2015.56,261.302 2016.57,260.663 2017.58,260.024 2018.59,259.386 2019.6,258.747 2020.61,258.108 2021.62,257.469 2022.63,256.83 2023.63,256.192 2024.64,255.553 2025.65,254.914 2026.66,254.275 2027.67,253.636 2028.68,252.998 2029.69,252.359 2030.7,251.72 2031.71,251.081 2032.72,250.442 2033.73,249.803 2034.74,249.165 2035.75,248.526 2036.76,247.887 2037.77,247.248 2038.78,246.609 2039.79,245.97 2040.8,245.332 2041.81,244.693 2042.82,244.054 2043.83,243.415 2044.84,242.776 2045.85,242.137 2046.85,241.498 2047.86,240.859 2048.87,240.221 2049.88,239.582 2050.89,238.943 2051.9,238.304 2052.91,237.665 2053.92,237.026 2054.93,236.387 2055.94,235.748 2056.95,235.109 2057.96,234.47 2058.97,233.831 2059.98,233.193 2060.99,232.554 2062,231.915 2063.01,231.276 2064.02,230.637 2065.03,229.998 2066.04,229.359 2067.05,228.72 2068.06,228.081 2069.07,227.442 2070.08,226.803 2071.08,226.164 2072.09,225.525 2073.1,224.886 2074.11,224.247 2075.12,223.608 2076.13,222.969 2077.14,222.33 2078.15,221.691 2079.16,221.052 2080.17,220.413 2081.18,219.774 2082.19,219.135 2083.2,218.496 2084.21,217.857 2085.22,217.218 2086.23,216.579 2087.24,215.94 2088.25,215.301 2089.26,214.662 2090.27,214.023 2091.28,213.384 2092.29,212.745 2093.3,212.106 2094.3,211.467 2095.31,210.828 2096.32,210.189 2097.33,209.55 2098.34,208.911 2099.35,208.272 2100.36,207.633 2101.37,206.994 2102.38,206.355 2103.39,205.716 2104.4,205.077 2105.41,204.438 2106.42,203.799 2107.43,203.16 2108.44,202.521 2109.45,201.881 2110.46,201.242 2111.47,200.603 2112.48,199.964 2113.49,199.325 2114.5,198.686 2115.51,198.047 2116.52,197.408 2117.53,196.769 2118.53,196.13 2119.54,195.491 2120.55,194.852 2121.56,194.213 2122.57,193.573 2123.58,192.934 2124.59,192.295 2125.6,191.656 2126.61,191.017 2127.62,190.378 2128.63,189.739 2129.64,189.1 2130.65,188.461 2131.66,187.822 2132.67,187.182 2133.68,186.543 2134.69,185.904 2135.7,185.265 2136.71,184.626 2137.72,183.987 2138.73,183.348 2139.74,182.709 2140.75,182.069 2141.75,181.43 2142.76,180.791 2143.77,180.152 2144.78,179.513 2145.79,178.874 2146.8,178.235 2147.81,177.596 2148.82,176.956 2149.83,176.317 2150.84,175.678 2151.85,175.039 2152.86,174.4 2153.87,173.761 2154.88,173.122 2155.89,172.482 2156.9,171.843 2157.91,171.204 2158.92,170.565 2159.93,169.926 2160.94,169.287 2161.95,168.647 2162.96,168.008 2163.97,167.369 2164.98,166.73 2165.98,166.091 2166.99,165.452 2168,164.812 2169.01,164.173 2170.02,163.534 2171.03,162.895 2172.04,162.256 2173.05,161.617 2174.06,160.977 2175.07,160.338 2176.08,159.699 2177.09,159.06 2178.1,158.421 2179.11,157.781 2180.12,157.142 2181.13,156.503 2182.14,155.864 2183.15,155.225 2184.16,154.585 2185.17,153.946 2186.18,153.307 2187.19,152.668 2188.2,152.029 2189.2,151.389 2190.21,150.75 2191.22,150.111 2192.23,149.472 2193.24,148.833 2194.25,148.193 2195.26,147.554 2196.27,146.915 2197.28,146.276 2198.29,145.637 2199.3,144.997 2200.31,144.358 2201.32,143.719 2202.33,143.08 2203.34,142.441 2204.35,141.801 2205.36,141.162 2206.37,140.523 2207.38,139.884 2208.39,139.244 2209.4,138.605 2210.41,137.966 2211.42,137.327 2212.43,136.688 2213.43,136.048 2214.44,135.409 2215.45,134.77 2216.46,134.131 2217.47,133.491 2218.48,132.852 2219.49,132.213 2220.5,131.574 2221.51,130.934 2222.52,130.295 2223.53,129.656 2224.54,129.017 2225.55,128.377 2226.56,127.738 2227.57,127.099 2228.58,126.46 2229.59,125.82 2230.6,125.181 2231.61,124.542 2232.62,123.903 2233.63,123.263 2234.64,122.624 2235.65,121.985 2236.65,121.346 2237.66,120.706 2238.67,120.067 2239.68,119.428 2240.69,118.789 2241.7,118.149 2242.71,117.51 2243.72,116.871 2244.73,116.232 2245.74,115.592 2246.75,114.953 2247.76,114.314 2248.77,113.675 2249.78,113.035 2250.79,112.396 2251.8,111.757 2252.81,111.118 2253.82,110.478 2254.83,109.839 2255.84,109.2 2256.85,108.561 2257.86,107.921 2258.87,107.282 2259.88,106.643 2260.88,106.003 2261.89,105.364 2262.9,104.725 2263.91,104.086 2264.92,103.446 2265.93,102.807 2266.94,102.168 2267.95,101.529 2268.96,100.889 2269.97,100.25 2270.98,99.6107 2271.99,98.9714 2273,98.3321 2274.01,97.6928 2275.02,97.0536 2276.03,96.4143 2277.04,95.775 2278.05,95.1357 2279.06,94.4964 2280.07,93.8571 2281.08,93.2179 2282.09,92.5786 2283.1,91.9393 2284.1,91.3 2285.11,90.6607 2286.12,90.0214 2287.13,89.3821 2288.14,88.7428 2289.15,88.1035 2290.16,87.4643 2291.17,86.825 2292.18,86.1857 "/>
</svg>
