<?xml version="1.0" encoding="utf-8"?>
<svg xmlns="http://www.w3.org/2000/svg" xmlns:xlink="http://www.w3.org/1999/xlink" width="600" height="400" viewBox="0 0 2400 1600">
<defs>
  <clipPath id="clip790">
    <rect x="0" y="0" width="2400" height="1600"/>
  </clipPath>
</defs>
<path clip-path="url(#clip790)" d="M0 1600 L2400 1600 L2400 0 L0 0  Z" fill="#ffffff" fill-rule="evenodd" fill-opacity="1"/>
<defs>
  <clipPath id="clip791">
    <rect x="480" y="0" width="1681" height="1600"/>
  </clipPath>
</defs>
<path clip-path="url(#clip790)" d="M249.542 1423.18 L2352.76 1423.18 L2352.76 47.2441 L249.542 47.2441  Z" fill="#ffffff" fill-rule="evenodd" fill-opacity="1"/>
<defs>
  <clipPath id="clip792">
    <rect x="249" y="47" width="2104" height="1377"/>
  </clipPath>
</defs>
<polyline clip-path="url(#clip792)" style="stroke:#000000; stroke-linecap:round; stroke-linejoin:round; stroke-width:2; stroke-opacity:0.1; fill:none" points="309.067,1423.18 309.067,47.2441 "/>
<polyline clip-path="url(#clip792)" style="stroke:#000000; stroke-linecap:round; stroke-linejoin:round; stroke-width:2; stroke-opacity:0.1; fill:none" points="970.455,1423.18 970.455,47.2441 "/>
<polyline clip-path="url(#clip792)" style="stroke:#000000; stroke-linecap:round; stroke-linejoin:round; stroke-width:2; stroke-opacity:0.1; fill:none" points="1631.84,1423.18 1631.84,47.2441 "/>
<polyline clip-path="url(#clip792)" style="stroke:#000000; stroke-linecap:round; stroke-linejoin:round; stroke-width:2; stroke-opacity:0.1; fill:none" points="2293.23,1423.18 2293.23,47.2441 "/>
<polyline clip-path="url(#clip790)" style="stroke:#000000; stroke-linecap:round; stroke-linejoin:round; stroke-width:4; stroke-opacity:1; fill:none" points="249.542,1423.18 2352.76,1423.18 "/>
<polyline clip-path="url(#clip790)" style="stroke:#000000; stroke-linecap:round; stroke-linejoin:round; stroke-width:4; stroke-opacity:1; fill:none" points="309.067,1423.18 309.067,1404.28 "/>
<polyline clip-path="url(#clip790)" style="stroke:#000000; stroke-linecap:round; stroke-linejoin:round; stroke-width:4; stroke-opacity:1; fill:none" points="970.455,1423.18 970.455,1404.28 "/>
<polyline clip-path="url(#clip790)" style="stroke:#000000; stroke-linecap:round; stroke-linejoin:round; stroke-width:4; stroke-opacity:1; fill:none" points="1631.84,1423.18 1631.84,1404.28 "/>
<polyline clip-path="url(#clip790)" style="stroke:#000000; stroke-linecap:round; stroke-linejoin:round; stroke-width:4; stroke-opacity:1; fill:none" points="2293.23,1423.18 2293.23,1404.28 "/>
<path clip-path="url(#clip790)" d="M309.067 1454.1 Q305.456 1454.1 303.627 1457.66 Q301.822 1461.2 301.822 1468.33 Q301.822 1475.44 303.627 1479.01 Q305.456 1482.55 309.067 1482.55 Q312.701 1482.55 314.507 1479.01 Q316.335 1475.44 316.335 1468.33 Q316.335 1461.2 314.507 1457.66 Q312.701 1454.1 309.067 1454.1 M309.067 1450.39 Q314.877 1450.39 317.933 1455 Q321.011 1459.58 321.011 1468.33 Q321.011 1477.06 317.933 1481.67 Q314.877 1486.25 309.067 1486.25 Q303.257 1486.25 300.178 1481.67 Q297.123 1477.06 297.123 1468.33 Q297.123 1459.58 300.178 1455 Q303.257 1450.39 309.067 1450.39 Z" fill="#000000" fill-rule="nonzero" fill-opacity="1" /><path clip-path="url(#clip790)" d="M914.981 1481.64 L922.62 1481.64 L922.62 1455.28 L914.309 1456.95 L914.309 1452.69 L922.573 1451.02 L927.249 1451.02 L927.249 1481.64 L934.888 1481.64 L934.888 1485.58 L914.981 1485.58 L914.981 1481.64 Z" fill="#000000" fill-rule="nonzero" fill-opacity="1" /><path clip-path="url(#clip790)" d="M954.332 1454.1 Q950.721 1454.1 948.893 1457.66 Q947.087 1461.2 947.087 1468.33 Q947.087 1475.44 948.893 1479.01 Q950.721 1482.55 954.332 1482.55 Q957.967 1482.55 959.772 1479.01 Q961.601 1475.44 961.601 1468.33 Q961.601 1461.2 959.772 1457.66 Q957.967 1454.1 954.332 1454.1 M954.332 1450.39 Q960.143 1450.39 963.198 1455 Q966.277 1459.58 966.277 1468.33 Q966.277 1477.06 963.198 1481.67 Q960.143 1486.25 954.332 1486.25 Q948.522 1486.25 945.444 1481.67 Q942.388 1477.06 942.388 1468.33 Q942.388 1459.58 945.444 1455 Q948.522 1450.39 954.332 1450.39 Z" fill="#000000" fill-rule="nonzero" fill-opacity="1" /><path clip-path="url(#clip790)" d="M984.494 1454.1 Q980.883 1454.1 979.054 1457.66 Q977.249 1461.2 977.249 1468.33 Q977.249 1475.44 979.054 1479.01 Q980.883 1482.55 984.494 1482.55 Q988.128 1482.55 989.934 1479.01 Q991.763 1475.44 991.763 1468.33 Q991.763 1461.2 989.934 1457.66 Q988.128 1454.1 984.494 1454.1 M984.494 1450.39 Q990.304 1450.39 993.36 1455 Q996.439 1459.58 996.439 1468.33 Q996.439 1477.06 993.36 1481.67 Q990.304 1486.25 984.494 1486.25 Q978.684 1486.25 975.605 1481.67 Q972.55 1477.06 972.55 1468.33 Q972.55 1459.58 975.605 1455 Q978.684 1450.39 984.494 1450.39 Z" fill="#000000" fill-rule="nonzero" fill-opacity="1" /><path clip-path="url(#clip790)" d="M1014.66 1454.1 Q1011.05 1454.1 1009.22 1457.66 Q1007.41 1461.2 1007.41 1468.33 Q1007.41 1475.44 1009.22 1479.01 Q1011.05 1482.55 1014.66 1482.55 Q1018.29 1482.55 1020.1 1479.01 Q1021.92 1475.44 1021.92 1468.33 Q1021.92 1461.2 1020.1 1457.66 Q1018.29 1454.1 1014.66 1454.1 M1014.66 1450.39 Q1020.47 1450.39 1023.52 1455 Q1026.6 1459.58 1026.6 1468.33 Q1026.6 1477.06 1023.52 1481.67 Q1020.47 1486.25 1014.66 1486.25 Q1008.85 1486.25 1005.77 1481.67 Q1002.71 1477.06 1002.71 1468.33 Q1002.71 1459.58 1005.77 1455 Q1008.85 1450.39 1014.66 1450.39 Z" fill="#000000" fill-rule="nonzero" fill-opacity="1" /><path clip-path="url(#clip790)" d="M1580.45 1481.64 L1596.77 1481.64 L1596.77 1485.58 L1574.83 1485.58 L1574.83 1481.64 Q1577.49 1478.89 1582.07 1474.26 Q1586.68 1469.61 1587.86 1468.27 Q1590.11 1465.74 1590.99 1464.01 Q1591.89 1462.25 1591.89 1460.56 Q1591.89 1457.8 1589.95 1456.07 Q1588.02 1454.33 1584.92 1454.33 Q1582.72 1454.33 1580.27 1455.09 Q1577.84 1455.86 1575.06 1457.41 L1575.06 1452.69 Q1577.88 1451.55 1580.34 1450.97 Q1582.79 1450.39 1584.83 1450.39 Q1590.2 1450.39 1593.39 1453.08 Q1596.59 1455.77 1596.59 1460.26 Q1596.59 1462.39 1595.78 1464.31 Q1594.99 1466.2 1592.88 1468.8 Q1592.31 1469.47 1589.2 1472.69 Q1586.1 1475.88 1580.45 1481.64 Z" fill="#000000" fill-rule="nonzero" fill-opacity="1" /><path clip-path="url(#clip790)" d="M1616.59 1454.1 Q1612.98 1454.1 1611.15 1457.66 Q1609.34 1461.2 1609.34 1468.33 Q1609.34 1475.44 1611.15 1479.01 Q1612.98 1482.55 1616.59 1482.55 Q1620.22 1482.55 1622.03 1479.01 Q1623.86 1475.44 1623.86 1468.33 Q1623.86 1461.2 1622.03 1457.66 Q1620.22 1454.1 1616.59 1454.1 M1616.59 1450.39 Q1622.4 1450.39 1625.45 1455 Q1628.53 1459.58 1628.53 1468.33 Q1628.53 1477.06 1625.45 1481.67 Q1622.4 1486.25 1616.59 1486.25 Q1610.78 1486.25 1607.7 1481.67 Q1604.64 1477.06 1604.64 1468.33 Q1604.64 1459.58 1607.7 1455 Q1610.78 1450.39 1616.59 1450.39 Z" fill="#000000" fill-rule="nonzero" fill-opacity="1" /><path clip-path="url(#clip790)" d="M1646.75 1454.1 Q1643.14 1454.1 1641.31 1457.66 Q1639.5 1461.2 1639.5 1468.33 Q1639.5 1475.44 1641.31 1479.01 Q1643.14 1482.55 1646.75 1482.55 Q1650.38 1482.55 1652.19 1479.01 Q1654.02 1475.44 1654.02 1468.33 Q1654.02 1461.2 1652.19 1457.66 Q1650.38 1454.1 1646.75 1454.1 M1646.75 1450.39 Q1652.56 1450.39 1655.62 1455 Q1658.69 1459.58 1658.69 1468.33 Q1658.69 1477.06 1655.62 1481.67 Q1652.56 1486.25 1646.75 1486.25 Q1640.94 1486.25 1637.86 1481.67 Q1634.81 1477.06 1634.81 1468.33 Q1634.81 1459.58 1637.86 1455 Q1640.94 1450.39 1646.75 1450.39 Z" fill="#000000" fill-rule="nonzero" fill-opacity="1" /><path clip-path="url(#clip790)" d="M1676.91 1454.1 Q1673.3 1454.1 1671.47 1457.66 Q1669.67 1461.2 1669.67 1468.33 Q1669.67 1475.44 1671.47 1479.01 Q1673.3 1482.55 1676.91 1482.55 Q1680.55 1482.55 1682.35 1479.01 Q1684.18 1475.44 1684.18 1468.33 Q1684.18 1461.2 1682.35 1457.66 Q1680.55 1454.1 1676.91 1454.1 M1676.91 1450.39 Q1682.72 1450.39 1685.78 1455 Q1688.86 1459.58 1688.86 1468.33 Q1688.86 1477.06 1685.78 1481.67 Q1682.72 1486.25 1676.91 1486.25 Q1671.1 1486.25 1668.02 1481.67 Q1664.97 1477.06 1664.97 1468.33 Q1664.97 1459.58 1668.02 1455 Q1671.1 1450.39 1676.91 1450.39 Z" fill="#000000" fill-rule="nonzero" fill-opacity="1" /><path clip-path="url(#clip790)" d="M2251.91 1466.95 Q2255.27 1467.66 2257.14 1469.93 Q2259.04 1472.2 2259.04 1475.53 Q2259.04 1480.65 2255.52 1483.45 Q2252 1486.25 2245.52 1486.25 Q2243.35 1486.25 2241.03 1485.81 Q2238.74 1485.39 2236.29 1484.54 L2236.29 1480.02 Q2238.23 1481.16 2240.55 1481.74 Q2242.86 1482.32 2245.38 1482.32 Q2249.78 1482.32 2252.07 1480.58 Q2254.39 1478.84 2254.39 1475.53 Q2254.39 1472.48 2252.24 1470.77 Q2250.11 1469.03 2246.29 1469.03 L2242.26 1469.03 L2242.26 1465.19 L2246.47 1465.19 Q2249.92 1465.19 2251.75 1463.82 Q2253.58 1462.43 2253.58 1459.84 Q2253.58 1457.18 2251.68 1455.77 Q2249.81 1454.33 2246.29 1454.33 Q2244.37 1454.33 2242.17 1454.75 Q2239.97 1455.16 2237.33 1456.04 L2237.33 1451.88 Q2239.99 1451.14 2242.31 1450.77 Q2244.64 1450.39 2246.7 1450.39 Q2252.03 1450.39 2255.13 1452.83 Q2258.23 1455.23 2258.23 1459.35 Q2258.23 1462.22 2256.59 1464.21 Q2254.94 1466.18 2251.91 1466.95 Z" fill="#000000" fill-rule="nonzero" fill-opacity="1" /><path clip-path="url(#clip790)" d="M2277.91 1454.1 Q2274.3 1454.1 2272.47 1457.66 Q2270.66 1461.2 2270.66 1468.33 Q2270.66 1475.44 2272.47 1479.01 Q2274.3 1482.55 2277.91 1482.55 Q2281.54 1482.55 2283.35 1479.01 Q2285.18 1475.44 2285.18 1468.33 Q2285.18 1461.2 2283.35 1457.66 Q2281.54 1454.1 2277.91 1454.1 M2277.91 1450.39 Q2283.72 1450.39 2286.77 1455 Q2289.85 1459.58 2289.85 1468.33 Q2289.85 1477.06 2286.77 1481.67 Q2283.72 1486.25 2277.91 1486.25 Q2272.1 1486.25 2269.02 1481.67 Q2265.96 1477.06 2265.96 1468.33 Q2265.96 1459.58 2269.02 1455 Q2272.1 1450.39 2277.91 1450.39 Z" fill="#000000" fill-rule="nonzero" fill-opacity="1" /><path clip-path="url(#clip790)" d="M2308.07 1454.1 Q2304.46 1454.1 2302.63 1457.66 Q2300.82 1461.2 2300.82 1468.33 Q2300.82 1475.44 2302.63 1479.01 Q2304.46 1482.55 2308.07 1482.55 Q2311.7 1482.55 2313.51 1479.01 Q2315.34 1475.44 2315.34 1468.33 Q2315.34 1461.2 2313.51 1457.66 Q2311.7 1454.1 2308.07 1454.1 M2308.07 1450.39 Q2313.88 1450.39 2316.93 1455 Q2320.01 1459.58 2320.01 1468.33 Q2320.01 1477.06 2316.93 1481.67 Q2313.88 1486.25 2308.07 1486.25 Q2302.26 1486.25 2299.18 1481.67 Q2296.12 1477.06 2296.12 1468.33 Q2296.12 1459.58 2299.18 1455 Q2302.26 1450.39 2308.07 1450.39 Z" fill="#000000" fill-rule="nonzero" fill-opacity="1" /><path clip-path="url(#clip790)" d="M2338.23 1454.1 Q2334.62 1454.1 2332.79 1457.66 Q2330.99 1461.2 2330.99 1468.33 Q2330.99 1475.44 2332.79 1479.01 Q2334.62 1482.55 2338.23 1482.55 Q2341.86 1482.55 2343.67 1479.01 Q2345.5 1475.44 2345.5 1468.33 Q2345.5 1461.2 2343.67 1457.66 Q2341.86 1454.1 2338.23 1454.1 M2338.23 1450.39 Q2344.04 1450.39 2347.1 1455 Q2350.18 1459.58 2350.18 1468.33 Q2350.18 1477.06 2347.1 1481.67 Q2344.04 1486.25 2338.23 1486.25 Q2332.42 1486.25 2329.34 1481.67 Q2326.29 1477.06 2326.29 1468.33 Q2326.29 1459.58 2329.34 1455 Q2332.42 1450.39 2338.23 1450.39 Z" fill="#000000" fill-rule="nonzero" fill-opacity="1" /><path clip-path="url(#clip790)" d="M1142.12 1520.52 L1182.32 1520.52 L1182.32 1525.93 L1165.45 1525.93 L1165.45 1568.04 L1158.99 1568.04 L1158.99 1525.93 L1142.12 1525.93 L1142.12 1520.52 Z" fill="#000000" fill-rule="nonzero" fill-opacity="1" /><path clip-path="url(#clip790)" d="M1186.26 1532.4 L1192.12 1532.4 L1192.12 1568.04 L1186.26 1568.04 L1186.26 1532.4 M1186.26 1518.52 L1192.12 1518.52 L1192.12 1525.93 L1186.26 1525.93 L1186.26 1518.52 Z" fill="#000000" fill-rule="nonzero" fill-opacity="1" /><path clip-path="url(#clip790)" d="M1232.13 1539.24 Q1234.32 1535.29 1237.38 1533.41 Q1240.44 1531.54 1244.57 1531.54 Q1250.14 1531.54 1253.17 1535.45 Q1256.19 1539.33 1256.19 1546.53 L1256.19 1568.04 L1250.3 1568.04 L1250.3 1546.72 Q1250.3 1541.59 1248.49 1539.11 Q1246.67 1536.63 1242.95 1536.63 Q1238.4 1536.63 1235.76 1539.65 Q1233.12 1542.68 1233.12 1547.9 L1233.12 1568.04 L1227.23 1568.04 L1227.23 1546.72 Q1227.23 1541.56 1225.41 1539.11 Q1223.6 1536.63 1219.81 1536.63 Q1215.32 1536.63 1212.68 1539.68 Q1210.04 1542.71 1210.04 1547.9 L1210.04 1568.04 L1204.15 1568.04 L1204.15 1532.4 L1210.04 1532.4 L1210.04 1537.93 Q1212.04 1534.66 1214.85 1533.1 Q1217.65 1531.54 1221.5 1531.54 Q1225.38 1531.54 1228.09 1533.51 Q1230.82 1535.48 1232.13 1539.24 Z" fill="#000000" fill-rule="nonzero" fill-opacity="1" /><path clip-path="url(#clip790)" d="M1298.36 1548.76 L1298.36 1551.62 L1271.44 1551.62 Q1271.82 1557.67 1275.07 1560.85 Q1278.34 1564 1284.17 1564 Q1287.54 1564 1290.69 1563.17 Q1293.88 1562.35 1297 1560.69 L1297 1566.23 Q1293.84 1567.57 1290.53 1568.27 Q1287.22 1568.97 1283.82 1568.97 Q1275.29 1568.97 1270.29 1564 Q1265.33 1559.04 1265.33 1550.57 Q1265.33 1541.82 1270.04 1536.69 Q1274.78 1531.54 1282.8 1531.54 Q1289.99 1531.54 1294.16 1536.18 Q1298.36 1540.8 1298.36 1548.76 M1292.51 1547.04 Q1292.44 1542.23 1289.8 1539.37 Q1287.19 1536.5 1282.86 1536.5 Q1277.96 1536.5 1275 1539.27 Q1272.07 1542.04 1271.63 1547.07 L1292.51 1547.04 Z" fill="#000000" fill-rule="nonzero" fill-opacity="1" /><path clip-path="url(#clip790)" d="M1339.1 1520.52 L1344.52 1520.52 L1327.96 1574.09 L1322.55 1574.09 L1339.1 1520.52 Z" fill="#000000" fill-rule="nonzero" fill-opacity="1" /><path clip-path="url(#clip790)" d="M1366.86 1550.12 Q1359.76 1550.12 1357.02 1551.75 Q1354.29 1553.37 1354.29 1557.29 Q1354.29 1560.4 1356.32 1562.25 Q1358.39 1564.07 1361.93 1564.07 Q1366.8 1564.07 1369.72 1560.63 Q1372.68 1557.16 1372.68 1551.43 L1372.68 1550.12 L1366.86 1550.12 M1378.54 1547.71 L1378.54 1568.04 L1372.68 1568.04 L1372.68 1562.63 Q1370.68 1565.88 1367.69 1567.44 Q1364.69 1568.97 1360.37 1568.97 Q1354.89 1568.97 1351.64 1565.91 Q1348.43 1562.82 1348.43 1557.67 Q1348.43 1551.65 1352.44 1548.6 Q1356.48 1545.54 1364.47 1545.54 L1372.68 1545.54 L1372.68 1544.97 Q1372.68 1540.93 1370.01 1538.73 Q1367.37 1536.5 1362.56 1536.5 Q1359.51 1536.5 1356.61 1537.23 Q1353.71 1537.97 1351.04 1539.43 L1351.04 1534.02 Q1354.25 1532.78 1357.28 1532.17 Q1360.3 1531.54 1363.17 1531.54 Q1370.9 1531.54 1374.72 1535.55 Q1378.54 1539.56 1378.54 1547.71 Z" fill="#000000" fill-rule="nonzero" fill-opacity="1" /><path clip-path="url(#clip790)" d="M1391.43 1559.96 L1398.15 1559.96 L1398.15 1568.04 L1391.43 1568.04 L1391.43 1559.96 Z" fill="#000000" fill-rule="nonzero" fill-opacity="1" /><path clip-path="url(#clip790)" d="M1410.72 1553.98 L1410.72 1532.4 L1416.58 1532.4 L1416.58 1553.75 Q1416.58 1558.81 1418.55 1561.36 Q1420.52 1563.87 1424.47 1563.87 Q1429.21 1563.87 1431.95 1560.85 Q1434.72 1557.83 1434.72 1552.61 L1434.72 1532.4 L1440.57 1532.4 L1440.57 1568.04 L1434.72 1568.04 L1434.72 1562.57 Q1432.58 1565.82 1429.75 1567.41 Q1426.95 1568.97 1423.23 1568.97 Q1417.08 1568.97 1413.9 1565.15 Q1410.72 1561.33 1410.72 1553.98 M1425.46 1531.54 L1425.46 1531.54 Z" fill="#000000" fill-rule="nonzero" fill-opacity="1" /><path clip-path="url(#clip790)" d="M1453.46 1559.96 L1460.18 1559.96 L1460.18 1568.04 L1453.46 1568.04 L1453.46 1559.96 Z" fill="#000000" fill-rule="nonzero" fill-opacity="1" /><polyline clip-path="url(#clip792)" style="stroke:#000000; stroke-linecap:round; stroke-linejoin:round; stroke-width:2; stroke-opacity:0.1; fill:none" points="249.542,1336.68 2352.76,1336.68 "/>
<polyline clip-path="url(#clip792)" style="stroke:#000000; stroke-linecap:round; stroke-linejoin:round; stroke-width:2; stroke-opacity:0.1; fill:none" points="249.542,1024.46 2352.76,1024.46 "/>
<polyline clip-path="url(#clip792)" style="stroke:#000000; stroke-linecap:round; stroke-linejoin:round; stroke-width:2; stroke-opacity:0.1; fill:none" points="249.542,712.237 2352.76,712.237 "/>
<polyline clip-path="url(#clip792)" style="stroke:#000000; stroke-linecap:round; stroke-linejoin:round; stroke-width:2; stroke-opacity:0.1; fill:none" points="249.542,400.015 2352.76,400.015 "/>
<polyline clip-path="url(#clip792)" style="stroke:#000000; stroke-linecap:round; stroke-linejoin:round; stroke-width:2; stroke-opacity:0.1; fill:none" points="249.542,87.7938 2352.76,87.7938 "/>
<polyline clip-path="url(#clip790)" style="stroke:#000000; stroke-linecap:round; stroke-linejoin:round; stroke-width:4; stroke-opacity:1; fill:none" points="249.542,1423.18 249.542,47.2441 "/>
<polyline clip-path="url(#clip790)" style="stroke:#000000; stroke-linecap:round; stroke-linejoin:round; stroke-width:4; stroke-opacity:1; fill:none" points="249.542,1336.68 268.44,1336.68 "/>
<polyline clip-path="url(#clip790)" style="stroke:#000000; stroke-linecap:round; stroke-linejoin:round; stroke-width:4; stroke-opacity:1; fill:none" points="249.542,1024.46 268.44,1024.46 "/>
<polyline clip-path="url(#clip790)" style="stroke:#000000; stroke-linecap:round; stroke-linejoin:round; stroke-width:4; stroke-opacity:1; fill:none" points="249.542,712.237 268.44,712.237 "/>
<polyline clip-path="url(#clip790)" style="stroke:#000000; stroke-linecap:round; stroke-linejoin:round; stroke-width:4; stroke-opacity:1; fill:none" points="249.542,400.015 268.44,400.015 "/>
<polyline clip-path="url(#clip790)" style="stroke:#000000; stroke-linecap:round; stroke-linejoin:round; stroke-width:4; stroke-opacity:1; fill:none" points="249.542,87.7938 268.44,87.7938 "/>
<path clip-path="url(#clip790)" d="M126.205 1322.48 Q122.593 1322.48 120.765 1326.04 Q118.959 1329.58 118.959 1336.71 Q118.959 1343.82 120.765 1347.39 Q122.593 1350.93 126.205 1350.93 Q129.839 1350.93 131.644 1347.39 Q133.473 1343.82 133.473 1336.71 Q133.473 1329.58 131.644 1326.04 Q129.839 1322.48 126.205 1322.48 M126.205 1318.77 Q132.015 1318.77 135.07 1323.38 Q138.149 1327.96 138.149 1336.71 Q138.149 1345.44 135.07 1350.05 Q132.015 1354.63 126.205 1354.63 Q120.394 1354.63 117.316 1350.05 Q114.26 1345.44 114.26 1336.71 Q114.26 1327.96 117.316 1323.38 Q120.394 1318.77 126.205 1318.77 Z" fill="#000000" fill-rule="nonzero" fill-opacity="1" /><path clip-path="url(#clip790)" d="M146.366 1348.08 L151.251 1348.08 L151.251 1353.96 L146.366 1353.96 L146.366 1348.08 Z" fill="#000000" fill-rule="nonzero" fill-opacity="1" /><path clip-path="url(#clip790)" d="M171.436 1322.48 Q167.825 1322.48 165.996 1326.04 Q164.19 1329.58 164.19 1336.71 Q164.19 1343.82 165.996 1347.39 Q167.825 1350.93 171.436 1350.93 Q175.07 1350.93 176.876 1347.39 Q178.704 1343.82 178.704 1336.71 Q178.704 1329.58 176.876 1326.04 Q175.07 1322.48 171.436 1322.48 M171.436 1318.77 Q177.246 1318.77 180.301 1323.38 Q183.38 1327.96 183.38 1336.71 Q183.38 1345.44 180.301 1350.05 Q177.246 1354.63 171.436 1354.63 Q165.626 1354.63 162.547 1350.05 Q159.491 1345.44 159.491 1336.71 Q159.491 1327.96 162.547 1323.38 Q165.626 1318.77 171.436 1318.77 Z" fill="#000000" fill-rule="nonzero" fill-opacity="1" /><path clip-path="url(#clip790)" d="M201.598 1322.48 Q197.987 1322.48 196.158 1326.04 Q194.352 1329.58 194.352 1336.71 Q194.352 1343.82 196.158 1347.39 Q197.987 1350.93 201.598 1350.93 Q205.232 1350.93 207.037 1347.39 Q208.866 1343.82 208.866 1336.71 Q208.866 1329.58 207.037 1326.04 Q205.232 1322.48 201.598 1322.48 M201.598 1318.77 Q207.408 1318.77 210.463 1323.38 Q213.542 1327.96 213.542 1336.71 Q213.542 1345.44 210.463 1350.05 Q207.408 1354.63 201.598 1354.63 Q195.787 1354.63 192.709 1350.05 Q189.653 1345.44 189.653 1336.71 Q189.653 1327.96 192.709 1323.38 Q195.787 1318.77 201.598 1318.77 Z" fill="#000000" fill-rule="nonzero" fill-opacity="1" /><path clip-path="url(#clip790)" d="M127.2 1010.26 Q123.589 1010.26 121.76 1013.82 Q119.955 1017.36 119.955 1024.49 Q119.955 1031.6 121.76 1035.16 Q123.589 1038.71 127.2 1038.71 Q130.834 1038.71 132.64 1035.16 Q134.468 1031.6 134.468 1024.49 Q134.468 1017.36 132.64 1013.82 Q130.834 1010.26 127.2 1010.26 M127.2 1006.55 Q133.01 1006.55 136.066 1011.16 Q139.144 1015.74 139.144 1024.49 Q139.144 1033.22 136.066 1037.83 Q133.01 1042.41 127.2 1042.41 Q121.39 1042.41 118.311 1037.83 Q115.256 1033.22 115.256 1024.49 Q115.256 1015.74 118.311 1011.16 Q121.39 1006.55 127.2 1006.55 Z" fill="#000000" fill-rule="nonzero" fill-opacity="1" /><path clip-path="url(#clip790)" d="M147.362 1035.86 L152.246 1035.86 L152.246 1041.74 L147.362 1041.74 L147.362 1035.86 Z" fill="#000000" fill-rule="nonzero" fill-opacity="1" /><path clip-path="url(#clip790)" d="M166.459 1037.8 L182.778 1037.8 L182.778 1041.74 L160.834 1041.74 L160.834 1037.8 Q163.496 1035.05 168.079 1030.42 Q172.686 1025.77 173.866 1024.42 Q176.112 1021.9 176.991 1020.16 Q177.894 1018.4 177.894 1016.72 Q177.894 1013.96 175.95 1012.22 Q174.028 1010.49 170.927 1010.49 Q168.727 1010.49 166.274 1011.25 Q163.843 1012.02 161.065 1013.57 L161.065 1008.84 Q163.89 1007.71 166.343 1007.13 Q168.797 1006.55 170.834 1006.55 Q176.204 1006.55 179.399 1009.24 Q182.593 1011.92 182.593 1016.41 Q182.593 1018.54 181.783 1020.47 Q180.996 1022.36 178.889 1024.96 Q178.311 1025.63 175.209 1028.84 Q172.107 1032.04 166.459 1037.8 Z" fill="#000000" fill-rule="nonzero" fill-opacity="1" /><path clip-path="url(#clip790)" d="M192.639 1007.18 L210.996 1007.18 L210.996 1011.11 L196.922 1011.11 L196.922 1019.59 Q197.94 1019.24 198.959 1019.08 Q199.977 1018.89 200.996 1018.89 Q206.783 1018.89 210.162 1022.06 Q213.542 1025.23 213.542 1030.65 Q213.542 1036.23 210.07 1039.33 Q206.598 1042.41 200.278 1042.41 Q198.102 1042.41 195.834 1042.04 Q193.588 1041.67 191.181 1040.93 L191.181 1036.23 Q193.264 1037.36 195.487 1037.92 Q197.709 1038.47 200.186 1038.47 Q204.19 1038.47 206.528 1036.37 Q208.866 1034.26 208.866 1030.65 Q208.866 1027.04 206.528 1024.93 Q204.19 1022.83 200.186 1022.83 Q198.311 1022.83 196.436 1023.24 Q194.584 1023.66 192.639 1024.54 L192.639 1007.18 Z" fill="#000000" fill-rule="nonzero" fill-opacity="1" /><path clip-path="url(#clip790)" d="M126.205 698.035 Q122.593 698.035 120.765 701.6 Q118.959 705.142 118.959 712.271 Q118.959 719.378 120.765 722.943 Q122.593 726.484 126.205 726.484 Q129.839 726.484 131.644 722.943 Q133.473 719.378 133.473 712.271 Q133.473 705.142 131.644 701.6 Q129.839 698.035 126.205 698.035 M126.205 694.332 Q132.015 694.332 135.07 698.938 Q138.149 703.522 138.149 712.271 Q138.149 720.998 135.07 725.605 Q132.015 730.188 126.205 730.188 Q120.394 730.188 117.316 725.605 Q114.26 720.998 114.26 712.271 Q114.26 703.522 117.316 698.938 Q120.394 694.332 126.205 694.332 Z" fill="#000000" fill-rule="nonzero" fill-opacity="1" /><path clip-path="url(#clip790)" d="M146.366 723.637 L151.251 723.637 L151.251 729.517 L146.366 729.517 L146.366 723.637 Z" fill="#000000" fill-rule="nonzero" fill-opacity="1" /><path clip-path="url(#clip790)" d="M161.482 694.957 L179.839 694.957 L179.839 698.892 L165.765 698.892 L165.765 707.364 Q166.783 707.017 167.802 706.855 Q168.82 706.67 169.839 706.67 Q175.626 706.67 179.005 709.841 Q182.385 713.012 182.385 718.429 Q182.385 724.008 178.913 727.109 Q175.44 730.188 169.121 730.188 Q166.945 730.188 164.677 729.818 Q162.431 729.447 160.024 728.707 L160.024 724.008 Q162.107 725.142 164.329 725.697 Q166.552 726.253 169.028 726.253 Q173.033 726.253 175.371 724.146 Q177.709 722.04 177.709 718.429 Q177.709 714.818 175.371 712.711 Q173.033 710.605 169.028 710.605 Q167.153 710.605 165.278 711.021 Q163.427 711.438 161.482 712.318 L161.482 694.957 Z" fill="#000000" fill-rule="nonzero" fill-opacity="1" /><path clip-path="url(#clip790)" d="M201.598 698.035 Q197.987 698.035 196.158 701.6 Q194.352 705.142 194.352 712.271 Q194.352 719.378 196.158 722.943 Q197.987 726.484 201.598 726.484 Q205.232 726.484 207.037 722.943 Q208.866 719.378 208.866 712.271 Q208.866 705.142 207.037 701.6 Q205.232 698.035 201.598 698.035 M201.598 694.332 Q207.408 694.332 210.463 698.938 Q213.542 703.522 213.542 712.271 Q213.542 720.998 210.463 725.605 Q207.408 730.188 201.598 730.188 Q195.787 730.188 192.709 725.605 Q189.653 720.998 189.653 712.271 Q189.653 703.522 192.709 698.938 Q195.787 694.332 201.598 694.332 Z" fill="#000000" fill-rule="nonzero" fill-opacity="1" /><path clip-path="url(#clip790)" d="M127.2 385.814 Q123.589 385.814 121.76 389.379 Q119.955 392.92 119.955 400.05 Q119.955 407.156 121.76 410.721 Q123.589 414.263 127.2 414.263 Q130.834 414.263 132.64 410.721 Q134.468 407.156 134.468 400.05 Q134.468 392.92 132.64 389.379 Q130.834 385.814 127.2 385.814 M127.2 382.11 Q133.01 382.11 136.066 386.717 Q139.144 391.3 139.144 400.05 Q139.144 408.777 136.066 413.383 Q133.01 417.967 127.2 417.967 Q121.39 417.967 118.311 413.383 Q115.256 408.777 115.256 400.05 Q115.256 391.3 118.311 386.717 Q121.39 382.11 127.2 382.11 Z" fill="#000000" fill-rule="nonzero" fill-opacity="1" /><path clip-path="url(#clip790)" d="M147.362 411.416 L152.246 411.416 L152.246 417.295 L147.362 417.295 L147.362 411.416 Z" fill="#000000" fill-rule="nonzero" fill-opacity="1" /><path clip-path="url(#clip790)" d="M161.251 382.735 L183.473 382.735 L183.473 384.726 L170.927 417.295 L166.042 417.295 L177.848 386.67 L161.251 386.67 L161.251 382.735 Z" fill="#000000" fill-rule="nonzero" fill-opacity="1" /><path clip-path="url(#clip790)" d="M192.639 382.735 L210.996 382.735 L210.996 386.67 L196.922 386.67 L196.922 395.143 Q197.94 394.795 198.959 394.633 Q199.977 394.448 200.996 394.448 Q206.783 394.448 210.162 397.619 Q213.542 400.791 213.542 406.207 Q213.542 411.786 210.07 414.888 Q206.598 417.967 200.278 417.967 Q198.102 417.967 195.834 417.596 Q193.588 417.226 191.181 416.485 L191.181 411.786 Q193.264 412.92 195.487 413.476 Q197.709 414.031 200.186 414.031 Q204.19 414.031 206.528 411.925 Q208.866 409.818 208.866 406.207 Q208.866 402.596 206.528 400.49 Q204.19 398.383 200.186 398.383 Q198.311 398.383 196.436 398.8 Q194.584 399.217 192.639 400.096 L192.639 382.735 Z" fill="#000000" fill-rule="nonzero" fill-opacity="1" /><path clip-path="url(#clip790)" d="M117.015 101.139 L124.654 101.139 L124.654 74.7731 L116.343 76.4397 L116.343 72.1805 L124.607 70.5138 L129.283 70.5138 L129.283 101.139 L136.922 101.139 L136.922 105.074 L117.015 105.074 L117.015 101.139 Z" fill="#000000" fill-rule="nonzero" fill-opacity="1" /><path clip-path="url(#clip790)" d="M146.366 99.1942 L151.251 99.1942 L151.251 105.074 L146.366 105.074 L146.366 99.1942 Z" fill="#000000" fill-rule="nonzero" fill-opacity="1" /><path clip-path="url(#clip790)" d="M171.436 73.5925 Q167.825 73.5925 165.996 77.1573 Q164.19 80.699 164.19 87.8286 Q164.19 94.935 165.996 98.4998 Q167.825 102.041 171.436 102.041 Q175.07 102.041 176.876 98.4998 Q178.704 94.935 178.704 87.8286 Q178.704 80.699 176.876 77.1573 Q175.07 73.5925 171.436 73.5925 M171.436 69.8888 Q177.246 69.8888 180.301 74.4953 Q183.38 79.0786 183.38 87.8286 Q183.38 96.5554 180.301 101.162 Q177.246 105.745 171.436 105.745 Q165.626 105.745 162.547 101.162 Q159.491 96.5554 159.491 87.8286 Q159.491 79.0786 162.547 74.4953 Q165.626 69.8888 171.436 69.8888 Z" fill="#000000" fill-rule="nonzero" fill-opacity="1" /><path clip-path="url(#clip790)" d="M201.598 73.5925 Q197.987 73.5925 196.158 77.1573 Q194.352 80.699 194.352 87.8286 Q194.352 94.935 196.158 98.4998 Q197.987 102.041 201.598 102.041 Q205.232 102.041 207.037 98.4998 Q208.866 94.935 208.866 87.8286 Q208.866 80.699 207.037 77.1573 Q205.232 73.5925 201.598 73.5925 M201.598 69.8888 Q207.408 69.8888 210.463 74.4953 Q213.542 79.0786 213.542 87.8286 Q213.542 96.5554 210.463 101.162 Q207.408 105.745 201.598 105.745 Q195.787 105.745 192.709 101.162 Q189.653 96.5554 189.653 87.8286 Q189.653 79.0786 192.709 74.4953 Q195.787 69.8888 201.598 69.8888 Z" fill="#000000" fill-rule="nonzero" fill-opacity="1" /><path clip-path="url(#clip790)" d="M21.7677 894.052 L39.6235 894.052 L39.6235 885.968 Q39.6235 881.48 37.3 879.029 Q34.9765 876.578 30.6797 876.578 Q26.4147 876.578 24.0912 879.029 Q21.7677 881.48 21.7677 885.968 L21.7677 894.052 M16.4842 900.482 L16.4842 885.968 Q16.4842 877.979 20.1126 873.905 Q23.7092 869.799 30.6797 869.799 Q37.7138 869.799 41.3104 873.905 Q44.907 877.979 44.907 885.968 L44.907 894.052 L64.0042 894.052 L64.0042 900.482 L16.4842 900.482 Z" fill="#000000" fill-rule="nonzero" fill-opacity="1" /><path clip-path="url(#clip790)" d="M32.4621 849.938 Q32.4621 854.649 36.1542 857.386 Q39.8145 860.123 46.212 860.123 Q52.6095 860.123 56.3017 857.418 Q59.9619 854.68 59.9619 849.938 Q59.9619 845.259 56.2698 842.522 Q52.5777 839.785 46.212 839.785 Q39.8781 839.785 36.186 842.522 Q32.4621 845.259 32.4621 849.938 M27.4968 849.938 Q27.4968 842.299 32.4621 837.939 Q37.4273 833.578 46.212 833.578 Q54.9649 833.578 59.9619 837.939 Q64.9272 842.299 64.9272 849.938 Q64.9272 857.609 59.9619 861.969 Q54.9649 866.298 46.212 866.298 Q37.4273 866.298 32.4621 861.969 Q27.4968 857.609 27.4968 849.938 Z" fill="#000000" fill-rule="nonzero" fill-opacity="1" /><path clip-path="url(#clip790)" d="M58.657 818.205 L77.5631 818.205 L77.5631 824.093 L28.3562 824.093 L28.3562 818.205 L33.7671 818.205 Q30.5842 816.359 29.0564 813.558 Q27.4968 810.725 27.4968 806.81 Q27.4968 800.317 32.6531 796.275 Q37.8093 792.201 46.212 792.201 Q54.6147 792.201 59.771 796.275 Q64.9272 800.317 64.9272 806.81 Q64.9272 810.725 63.3994 813.558 Q61.8398 816.359 58.657 818.205 M46.212 798.28 Q39.7508 798.28 36.0905 800.954 Q32.3984 803.596 32.3984 808.243 Q32.3984 812.89 36.0905 815.563 Q39.7508 818.205 46.212 818.205 Q52.6732 818.205 56.3653 815.563 Q60.0256 812.89 60.0256 808.243 Q60.0256 803.596 56.3653 800.954 Q52.6732 798.28 46.212 798.28 Z" fill="#000000" fill-rule="nonzero" fill-opacity="1" /><path clip-path="url(#clip790)" d="M49.9359 783.098 L28.3562 783.098 L28.3562 777.242 L49.7131 777.242 Q54.7739 777.242 57.3202 775.268 Q59.8346 773.295 59.8346 769.348 Q59.8346 764.606 56.8109 761.868 Q53.7872 759.099 48.5673 759.099 L28.3562 759.099 L28.3562 753.243 L64.0042 753.243 L64.0042 759.099 L58.5296 759.099 Q61.7762 761.232 63.3676 764.065 Q64.9272 766.865 64.9272 770.589 Q64.9272 776.732 61.1078 779.915 Q57.2883 783.098 49.9359 783.098 M27.4968 768.361 L27.4968 768.361 Z" fill="#000000" fill-rule="nonzero" fill-opacity="1" /><path clip-path="url(#clip790)" d="M14.479 741.18 L14.479 735.323 L64.0042 735.323 L64.0042 741.18 L14.479 741.18 Z" fill="#000000" fill-rule="nonzero" fill-opacity="1" /><path clip-path="url(#clip790)" d="M46.0847 706.869 Q46.0847 713.966 47.7079 716.704 Q49.3312 719.441 53.2461 719.441 Q56.3653 719.441 58.2114 717.404 Q60.0256 715.335 60.0256 711.802 Q60.0256 706.932 56.5881 704.004 Q53.1188 701.044 47.3897 701.044 L46.0847 701.044 L46.0847 706.869 M43.6657 695.188 L64.0042 695.188 L64.0042 701.044 L58.5933 701.044 Q61.8398 703.049 63.3994 706.041 Q64.9272 709.033 64.9272 713.362 Q64.9272 718.836 61.8716 722.083 Q58.7843 725.297 53.6281 725.297 Q47.6125 725.297 44.5569 721.287 Q41.5014 717.245 41.5014 709.256 L41.5014 701.044 L40.9285 701.044 Q36.8862 701.044 34.6901 703.718 Q32.4621 706.359 32.4621 711.166 Q32.4621 714.221 33.1941 717.117 Q33.9262 720.014 35.3903 722.687 L29.9795 722.687 Q28.7381 719.473 28.1334 716.449 Q27.4968 713.425 27.4968 710.561 Q27.4968 702.826 31.5072 699.007 Q35.5176 695.188 43.6657 695.188 Z" fill="#000000" fill-rule="nonzero" fill-opacity="1" /><path clip-path="url(#clip790)" d="M18.2347 677.332 L28.3562 677.332 L28.3562 665.269 L32.9077 665.269 L32.9077 677.332 L52.2594 677.332 Q56.6199 677.332 57.8613 676.154 Q59.1026 674.945 59.1026 671.284 L59.1026 665.269 L64.0042 665.269 L64.0042 671.284 Q64.0042 678.064 61.4897 680.642 Q58.9434 683.22 52.2594 683.22 L32.9077 683.22 L32.9077 687.517 L28.3562 687.517 L28.3562 683.22 L18.2347 683.22 L18.2347 677.332 Z" fill="#000000" fill-rule="nonzero" fill-opacity="1" /><path clip-path="url(#clip790)" d="M28.3562 657.566 L28.3562 651.71 L64.0042 651.71 L64.0042 657.566 L28.3562 657.566 M14.479 657.566 L14.479 651.71 L21.895 651.71 L21.895 657.566 L14.479 657.566 Z" fill="#000000" fill-rule="nonzero" fill-opacity="1" /><path clip-path="url(#clip790)" d="M32.4621 625.642 Q32.4621 630.353 36.1542 633.09 Q39.8145 635.827 46.212 635.827 Q52.6095 635.827 56.3017 633.122 Q59.9619 630.385 59.9619 625.642 Q59.9619 620.963 56.2698 618.226 Q52.5777 615.489 46.212 615.489 Q39.8781 615.489 36.186 618.226 Q32.4621 620.963 32.4621 625.642 M27.4968 625.642 Q27.4968 618.003 32.4621 613.643 Q37.4273 609.282 46.212 609.282 Q54.9649 609.282 59.9619 613.643 Q64.9272 618.003 64.9272 625.642 Q64.9272 633.313 59.9619 637.673 Q54.9649 642.002 46.212 642.002 Q37.4273 642.002 32.4621 637.673 Q27.4968 633.313 27.4968 625.642 Z" fill="#000000" fill-rule="nonzero" fill-opacity="1" /><path clip-path="url(#clip790)" d="M42.4881 569.942 L64.0042 569.942 L64.0042 575.799 L42.679 575.799 Q37.6183 575.799 35.1038 577.772 Q32.5894 579.745 32.5894 583.692 Q32.5894 588.435 35.6131 591.172 Q38.6368 593.909 43.8567 593.909 L64.0042 593.909 L64.0042 599.797 L28.3562 599.797 L28.3562 593.909 L33.8944 593.909 Q30.6797 591.809 29.0883 588.976 Q27.4968 586.111 27.4968 582.387 Q27.4968 576.244 31.3163 573.093 Q35.1038 569.942 42.4881 569.942 Z" fill="#000000" fill-rule="nonzero" fill-opacity="1" /><polyline clip-path="url(#clip792)" style="stroke:#009af9; stroke-linecap:round; stroke-linejoin:round; stroke-width:4; stroke-opacity:1; fill:none" points="309.067,87.7938 342.136,87.7938 375.206,87.7938 408.275,87.7938 441.345,87.7938 474.414,87.7938 507.483,87.7938 540.553,87.7938 573.622,87.7938 606.692,87.7938 639.761,87.7938 672.83,87.7938 705.9,87.7938 738.969,87.7938 772.039,87.7938 805.108,87.7938 838.177,87.7936 871.247,87.7799 904.316,87.4598 937.386,86.1857 970.455,89.946 1003.52,95.5612 1036.59,138.697 1069.66,196.147 1102.73,222.022 1135.8,286.453 1168.87,418.534 1201.94,516.208 1235.01,601.191 1268.08,714.567 1301.15,800.397 1334.22,840.021 1367.29,910.053 1400.36,913.921 1433.43,908.1 1466.5,907.567 1499.57,904.164 1532.63,893.451 1565.7,885.964 1598.77,873.398 1631.84,864.5 1664.91,876.284 1697.98,881.658 1731.05,902.809 1764.12,978.083 1797.19,1006.06 1830.26,1063.53 1863.33,1121.25 1896.4,1165.77 1929.47,1195.17 1962.54,1206.84 1995.61,1208.97 2028.68,1212.18 2061.75,1211.92 2094.81,1211.82 2127.88,1211.8 2160.95,1211.79 2194.02,1211.79 2227.09,1211.79 2260.16,1211.79 2293.23,1211.79 "/>
<polyline clip-path="url(#clip792)" style="stroke:#e26f46; stroke-linecap:round; stroke-linejoin:round; stroke-width:4; stroke-opacity:1; fill:none" points="309.067,1336.68 342.136,1336.68 375.206,1336.68 408.275,1336.68 441.345,1336.68 474.414,1336.68 507.483,1336.68 540.553,1336.68 573.622,1336.68 606.692,1336.68 639.761,1336.68 672.83,1336.68 705.9,1336.68 738.969,1336.68 772.039,1336.68 805.108,1336.68 838.177,1336.68 871.247,1336.69 904.316,1337.01 937.386,1338.29 970.455,1334.53 1003.52,1328.91 1036.59,1285.78 1069.66,1228.33 1102.73,1202.45 1135.8,1138.02 1168.87,1005.94 1201.94,908.265 1235.01,823.283 1268.08,709.906 1301.15,624.077 1334.22,584.452 1367.29,514.41 1400.36,509.55 1433.43,511.59 1466.5,512.328 1499.57,512.412 1532.63,512.415 1565.7,512.415 1598.77,512.415 1631.84,512.415 1664.91,512.415 1697.98,512.415 1731.05,512.415 1764.12,512.415 1797.19,512.415 1830.26,512.415 1863.33,512.415 1896.4,512.415 1929.47,512.415 1962.54,512.415 1995.61,512.415 2028.68,512.415 2061.75,512.415 2094.81,512.415 2127.88,512.415 2160.95,512.415 2194.02,512.415 2227.09,512.415 2260.16,512.415 2293.23,512.415 "/>
<polyline clip-path="url(#clip792)" style="stroke:#3da44d; stroke-linecap:round; stroke-linejoin:round; stroke-width:4; stroke-opacity:1; fill:none" points="309.067,1336.68 342.136,1336.68 375.206,1336.68 408.275,1336.68 441.345,1336.68 474.414,1336.68 507.483,1336.68 540.553,1336.68 573.622,1336.68 606.692,1336.68 639.761,1336.68 672.83,1336.68 705.9,1336.68 738.969,1336.68 772.039,1336.68 805.108,1336.68 838.177,1336.68 871.247,1336.68 904.316,1336.68 937.386,1336.68 970.455,1336.68 1003.52,1336.68 1036.59,1336.68 1069.66,1336.68 1102.73,1336.68 1135.8,1336.68 1168.87,1336.68 1201.94,1336.68 1235.01,1336.68 1268.08,1336.68 1301.15,1336.68 1334.22,1336.68 1367.29,1336.69 1400.36,1337.68 1433.43,1341.46 1466.5,1341.26 1499.57,1344.58 1532.63,1355.29 1565.7,1362.77 1598.77,1375.34 1631.84,1384.24 1664.91,1372.45 1697.98,1367.08 1731.05,1345.93 1764.12,1270.66 1797.19,1242.68 1830.26,1185.21 1863.33,1127.48 1896.4,1082.97 1929.47,1053.57 1962.54,1041.89 1995.61,1039.76 2028.68,1036.55 2061.75,1036.82 2094.81,1036.92 2127.88,1036.94 2160.95,1036.95 2194.02,1036.95 2227.09,1036.95 2260.16,1036.95 2293.23,1036.95 "/>
<path clip-path="url(#clip790)" d="M1908.53 300.469 L2282.65 300.469 L2282.65 93.1086 L1908.53 93.1086  Z" fill="#ffffff" fill-rule="evenodd" fill-opacity="1"/>
<polyline clip-path="url(#clip790)" style="stroke:#000000; stroke-linecap:round; stroke-linejoin:round; stroke-width:4; stroke-opacity:1; fill:none" points="1908.53,300.469 2282.65,300.469 2282.65,93.1086 1908.53,93.1086 1908.53,300.469 "/>
<polyline clip-path="url(#clip790)" style="stroke:#009af9; stroke-linecap:round; stroke-linejoin:round; stroke-width:4; stroke-opacity:1; fill:none" points="1931.9,144.949 2072.12,144.949 "/>
<path clip-path="url(#clip790)" d="M2117.73 128.803 L2117.73 133.363 Q2115.07 132.09 2112.71 131.465 Q2110.35 130.84 2108.15 130.84 Q2104.33 130.84 2102.24 132.321 Q2100.18 133.803 2100.18 136.534 Q2100.18 138.826 2101.55 140.007 Q2102.94 141.164 2106.78 141.882 L2109.6 142.46 Q2114.84 143.456 2117.31 145.979 Q2119.81 148.479 2119.81 152.692 Q2119.81 157.715 2116.43 160.307 Q2113.08 162.9 2106.57 162.9 Q2104.12 162.9 2101.34 162.344 Q2098.59 161.789 2095.62 160.701 L2095.62 155.886 Q2098.47 157.483 2101.2 158.293 Q2103.93 159.104 2106.57 159.104 Q2110.58 159.104 2112.75 157.53 Q2114.93 155.956 2114.93 153.039 Q2114.93 150.493 2113.35 149.057 Q2111.8 147.622 2108.24 146.905 L2105.39 146.349 Q2100.16 145.307 2097.82 143.085 Q2095.48 140.863 2095.48 136.905 Q2095.48 132.321 2098.7 129.682 Q2101.94 127.044 2107.61 127.044 Q2110.04 127.044 2112.57 127.483 Q2115.09 127.923 2117.73 128.803 Z" fill="#000000" fill-rule="nonzero" fill-opacity="1" /><path clip-path="url(#clip790)" d="M2131.13 128.942 L2131.13 136.303 L2139.91 136.303 L2139.91 139.613 L2131.13 139.613 L2131.13 153.687 Q2131.13 156.858 2131.99 157.761 Q2132.87 158.664 2135.53 158.664 L2139.91 158.664 L2139.91 162.229 L2135.53 162.229 Q2130.6 162.229 2128.72 160.4 Q2126.85 158.548 2126.85 153.687 L2126.85 139.613 L2123.72 139.613 L2123.72 136.303 L2126.85 136.303 L2126.85 128.942 L2131.13 128.942 Z" fill="#000000" fill-rule="nonzero" fill-opacity="1" /><path clip-path="url(#clip790)" d="M2157.29 149.196 Q2152.13 149.196 2150.14 150.377 Q2148.15 151.557 2148.15 154.405 Q2148.15 156.673 2149.63 158.016 Q2151.13 159.335 2153.7 159.335 Q2157.24 159.335 2159.37 156.835 Q2161.53 154.312 2161.53 150.145 L2161.53 149.196 L2157.29 149.196 M2165.78 147.437 L2165.78 162.229 L2161.53 162.229 L2161.53 158.293 Q2160.07 160.655 2157.89 161.789 Q2155.72 162.9 2152.57 162.9 Q2148.59 162.9 2146.22 160.678 Q2143.89 158.432 2143.89 154.682 Q2143.89 150.307 2146.8 148.085 Q2149.74 145.863 2155.55 145.863 L2161.53 145.863 L2161.53 145.446 Q2161.53 142.507 2159.58 140.909 Q2157.66 139.289 2154.16 139.289 Q2151.94 139.289 2149.84 139.821 Q2147.73 140.354 2145.78 141.419 L2145.78 137.483 Q2148.12 136.581 2150.32 136.141 Q2152.52 135.678 2154.6 135.678 Q2160.23 135.678 2163.01 138.594 Q2165.78 141.511 2165.78 147.437 Z" fill="#000000" fill-rule="nonzero" fill-opacity="1" /><path clip-path="url(#clip790)" d="M2178.77 128.942 L2178.77 136.303 L2187.54 136.303 L2187.54 139.613 L2178.77 139.613 L2178.77 153.687 Q2178.77 156.858 2179.63 157.761 Q2180.51 158.664 2183.17 158.664 L2187.54 158.664 L2187.54 162.229 L2183.17 162.229 Q2178.24 162.229 2176.36 160.4 Q2174.49 158.548 2174.49 153.687 L2174.49 139.613 L2171.36 139.613 L2171.36 136.303 L2174.49 136.303 L2174.49 128.942 L2178.77 128.942 Z" fill="#000000" fill-rule="nonzero" fill-opacity="1" /><path clip-path="url(#clip790)" d="M2215.32 148.201 L2215.32 150.284 L2195.74 150.284 Q2196.02 154.682 2198.38 156.997 Q2200.76 159.289 2205 159.289 Q2207.45 159.289 2209.74 158.687 Q2212.06 158.085 2214.33 156.881 L2214.33 160.909 Q2212.03 161.881 2209.63 162.391 Q2207.22 162.9 2204.74 162.9 Q2198.54 162.9 2194.91 159.289 Q2191.29 155.678 2191.29 149.52 Q2191.29 143.155 2194.72 139.428 Q2198.17 135.678 2204 135.678 Q2209.23 135.678 2212.27 139.057 Q2215.32 142.414 2215.32 148.201 M2211.06 146.951 Q2211.02 143.456 2209.09 141.372 Q2207.2 139.289 2204.05 139.289 Q2200.48 139.289 2198.33 141.303 Q2196.2 143.317 2195.88 146.974 L2211.06 146.951 Z" fill="#000000" fill-rule="nonzero" fill-opacity="1" /><path clip-path="url(#clip790)" d="M2238.79 158.293 L2246.43 158.293 L2246.43 131.928 L2238.12 133.595 L2238.12 129.335 L2246.39 127.669 L2251.06 127.669 L2251.06 158.293 L2258.7 158.293 L2258.7 162.229 L2238.79 162.229 L2238.79 158.293 Z" fill="#000000" fill-rule="nonzero" fill-opacity="1" /><polyline clip-path="url(#clip790)" style="stroke:#e26f46; stroke-linecap:round; stroke-linejoin:round; stroke-width:4; stroke-opacity:1; fill:none" points="1931.9,196.789 2072.12,196.789 "/>
<path clip-path="url(#clip790)" d="M2117.73 180.643 L2117.73 185.203 Q2115.07 183.93 2112.71 183.305 Q2110.35 182.68 2108.15 182.68 Q2104.33 182.68 2102.24 184.161 Q2100.18 185.643 2100.18 188.374 Q2100.18 190.666 2101.55 191.847 Q2102.94 193.004 2106.78 193.722 L2109.6 194.3 Q2114.84 195.296 2117.31 197.819 Q2119.81 200.319 2119.81 204.532 Q2119.81 209.555 2116.43 212.147 Q2113.08 214.74 2106.57 214.74 Q2104.12 214.74 2101.34 214.184 Q2098.59 213.629 2095.62 212.541 L2095.62 207.726 Q2098.47 209.323 2101.2 210.133 Q2103.93 210.944 2106.57 210.944 Q2110.58 210.944 2112.75 209.37 Q2114.93 207.796 2114.93 204.879 Q2114.93 202.333 2113.35 200.897 Q2111.8 199.462 2108.24 198.745 L2105.39 198.189 Q2100.16 197.147 2097.82 194.925 Q2095.48 192.703 2095.48 188.745 Q2095.48 184.161 2098.7 181.522 Q2101.94 178.884 2107.61 178.884 Q2110.04 178.884 2112.57 179.323 Q2115.09 179.763 2117.73 180.643 Z" fill="#000000" fill-rule="nonzero" fill-opacity="1" /><path clip-path="url(#clip790)" d="M2131.13 180.782 L2131.13 188.143 L2139.91 188.143 L2139.91 191.453 L2131.13 191.453 L2131.13 205.527 Q2131.13 208.698 2131.99 209.601 Q2132.87 210.504 2135.53 210.504 L2139.91 210.504 L2139.91 214.069 L2135.53 214.069 Q2130.6 214.069 2128.72 212.24 Q2126.85 210.388 2126.85 205.527 L2126.85 191.453 L2123.72 191.453 L2123.72 188.143 L2126.85 188.143 L2126.85 180.782 L2131.13 180.782 Z" fill="#000000" fill-rule="nonzero" fill-opacity="1" /><path clip-path="url(#clip790)" d="M2157.29 201.036 Q2152.13 201.036 2150.14 202.217 Q2148.15 203.397 2148.15 206.245 Q2148.15 208.513 2149.63 209.856 Q2151.13 211.175 2153.7 211.175 Q2157.24 211.175 2159.37 208.675 Q2161.53 206.152 2161.53 201.985 L2161.53 201.036 L2157.29 201.036 M2165.78 199.277 L2165.78 214.069 L2161.53 214.069 L2161.53 210.133 Q2160.07 212.495 2157.89 213.629 Q2155.72 214.74 2152.57 214.74 Q2148.59 214.74 2146.22 212.518 Q2143.89 210.272 2143.89 206.522 Q2143.89 202.147 2146.8 199.925 Q2149.74 197.703 2155.55 197.703 L2161.53 197.703 L2161.53 197.286 Q2161.53 194.347 2159.58 192.749 Q2157.66 191.129 2154.16 191.129 Q2151.94 191.129 2149.84 191.661 Q2147.73 192.194 2145.78 193.259 L2145.78 189.323 Q2148.12 188.421 2150.32 187.981 Q2152.52 187.518 2154.6 187.518 Q2160.23 187.518 2163.01 190.434 Q2165.78 193.351 2165.78 199.277 Z" fill="#000000" fill-rule="nonzero" fill-opacity="1" /><path clip-path="url(#clip790)" d="M2178.77 180.782 L2178.77 188.143 L2187.54 188.143 L2187.54 191.453 L2178.77 191.453 L2178.77 205.527 Q2178.77 208.698 2179.63 209.601 Q2180.51 210.504 2183.17 210.504 L2187.54 210.504 L2187.54 214.069 L2183.17 214.069 Q2178.24 214.069 2176.36 212.24 Q2174.49 210.388 2174.49 205.527 L2174.49 191.453 L2171.36 191.453 L2171.36 188.143 L2174.49 188.143 L2174.49 180.782 L2178.77 180.782 Z" fill="#000000" fill-rule="nonzero" fill-opacity="1" /><path clip-path="url(#clip790)" d="M2215.32 200.041 L2215.32 202.124 L2195.74 202.124 Q2196.02 206.522 2198.38 208.837 Q2200.76 211.129 2205 211.129 Q2207.45 211.129 2209.74 210.527 Q2212.06 209.925 2214.33 208.721 L2214.33 212.749 Q2212.03 213.721 2209.63 214.231 Q2207.22 214.74 2204.74 214.74 Q2198.54 214.74 2194.91 211.129 Q2191.29 207.518 2191.29 201.36 Q2191.29 194.995 2194.72 191.268 Q2198.17 187.518 2204 187.518 Q2209.23 187.518 2212.27 190.897 Q2215.32 194.254 2215.32 200.041 M2211.06 198.791 Q2211.02 195.296 2209.09 193.212 Q2207.2 191.129 2204.05 191.129 Q2200.48 191.129 2198.33 193.143 Q2196.2 195.157 2195.88 198.814 L2211.06 198.791 Z" fill="#000000" fill-rule="nonzero" fill-opacity="1" /><path clip-path="url(#clip790)" d="M2242.01 210.133 L2258.33 210.133 L2258.33 214.069 L2236.39 214.069 L2236.39 210.133 Q2239.05 207.379 2243.63 202.749 Q2248.24 198.096 2249.42 196.754 Q2251.66 194.231 2252.54 192.495 Q2253.45 190.735 2253.45 189.046 Q2253.45 186.291 2251.5 184.555 Q2249.58 182.819 2246.48 182.819 Q2244.28 182.819 2241.83 183.583 Q2239.4 184.347 2236.62 185.897 L2236.62 181.175 Q2239.44 180.041 2241.9 179.462 Q2244.35 178.884 2246.39 178.884 Q2251.76 178.884 2254.95 181.569 Q2258.15 184.254 2258.15 188.745 Q2258.15 190.874 2257.34 192.796 Q2256.55 194.694 2254.44 197.286 Q2253.86 197.958 2250.76 201.175 Q2247.66 204.37 2242.01 210.133 Z" fill="#000000" fill-rule="nonzero" fill-opacity="1" /><polyline clip-path="url(#clip790)" style="stroke:#3da44d; stroke-linecap:round; stroke-linejoin:round; stroke-width:4; stroke-opacity:1; fill:none" points="1931.9,248.629 2072.12,248.629 "/>
<path clip-path="url(#clip790)" d="M2117.73 232.483 L2117.73 237.043 Q2115.07 235.77 2112.71 235.145 Q2110.35 234.52 2108.15 234.52 Q2104.33 234.52 2102.24 236.001 Q2100.18 237.483 2100.18 240.214 Q2100.18 242.506 2101.55 243.687 Q2102.94 244.844 2106.78 245.562 L2109.6 246.14 Q2114.84 247.136 2117.31 249.659 Q2119.81 252.159 2119.81 256.372 Q2119.81 261.395 2116.43 263.987 Q2113.08 266.58 2106.57 266.58 Q2104.12 266.58 2101.34 266.024 Q2098.59 265.469 2095.62 264.381 L2095.62 259.566 Q2098.47 261.163 2101.2 261.973 Q2103.93 262.784 2106.57 262.784 Q2110.58 262.784 2112.75 261.21 Q2114.93 259.636 2114.93 256.719 Q2114.93 254.173 2113.35 252.737 Q2111.8 251.302 2108.24 250.585 L2105.39 250.029 Q2100.16 248.987 2097.82 246.765 Q2095.48 244.543 2095.48 240.585 Q2095.48 236.001 2098.7 233.362 Q2101.94 230.724 2107.61 230.724 Q2110.04 230.724 2112.57 231.163 Q2115.09 231.603 2117.73 232.483 Z" fill="#000000" fill-rule="nonzero" fill-opacity="1" /><path clip-path="url(#clip790)" d="M2131.13 232.622 L2131.13 239.983 L2139.91 239.983 L2139.91 243.293 L2131.13 243.293 L2131.13 257.367 Q2131.13 260.538 2131.99 261.441 Q2132.87 262.344 2135.53 262.344 L2139.91 262.344 L2139.91 265.909 L2135.53 265.909 Q2130.6 265.909 2128.72 264.08 Q2126.85 262.228 2126.85 257.367 L2126.85 243.293 L2123.72 243.293 L2123.72 239.983 L2126.85 239.983 L2126.85 232.622 L2131.13 232.622 Z" fill="#000000" fill-rule="nonzero" fill-opacity="1" /><path clip-path="url(#clip790)" d="M2157.29 252.876 Q2152.13 252.876 2150.14 254.057 Q2148.15 255.237 2148.15 258.085 Q2148.15 260.353 2149.63 261.696 Q2151.13 263.015 2153.7 263.015 Q2157.24 263.015 2159.37 260.515 Q2161.53 257.992 2161.53 253.825 L2161.53 252.876 L2157.29 252.876 M2165.78 251.117 L2165.78 265.909 L2161.53 265.909 L2161.53 261.973 Q2160.07 264.335 2157.89 265.469 Q2155.72 266.58 2152.57 266.58 Q2148.59 266.58 2146.22 264.358 Q2143.89 262.112 2143.89 258.362 Q2143.89 253.987 2146.8 251.765 Q2149.74 249.543 2155.55 249.543 L2161.53 249.543 L2161.53 249.126 Q2161.53 246.187 2159.58 244.589 Q2157.66 242.969 2154.16 242.969 Q2151.94 242.969 2149.84 243.501 Q2147.73 244.034 2145.78 245.099 L2145.78 241.163 Q2148.12 240.261 2150.32 239.821 Q2152.52 239.358 2154.6 239.358 Q2160.23 239.358 2163.01 242.274 Q2165.78 245.191 2165.78 251.117 Z" fill="#000000" fill-rule="nonzero" fill-opacity="1" /><path clip-path="url(#clip790)" d="M2178.77 232.622 L2178.77 239.983 L2187.54 239.983 L2187.54 243.293 L2178.77 243.293 L2178.77 257.367 Q2178.77 260.538 2179.63 261.441 Q2180.51 262.344 2183.17 262.344 L2187.54 262.344 L2187.54 265.909 L2183.17 265.909 Q2178.24 265.909 2176.36 264.08 Q2174.49 262.228 2174.49 257.367 L2174.49 243.293 L2171.36 243.293 L2171.36 239.983 L2174.49 239.983 L2174.49 232.622 L2178.77 232.622 Z" fill="#000000" fill-rule="nonzero" fill-opacity="1" /><path clip-path="url(#clip790)" d="M2215.32 251.881 L2215.32 253.964 L2195.74 253.964 Q2196.02 258.362 2198.38 260.677 Q2200.76 262.969 2205 262.969 Q2207.45 262.969 2209.74 262.367 Q2212.06 261.765 2214.33 260.561 L2214.33 264.589 Q2212.03 265.561 2209.63 266.071 Q2207.22 266.58 2204.74 266.58 Q2198.54 266.58 2194.91 262.969 Q2191.29 259.358 2191.29 253.2 Q2191.29 246.835 2194.72 243.108 Q2198.17 239.358 2204 239.358 Q2209.23 239.358 2212.27 242.737 Q2215.32 246.094 2215.32 251.881 M2211.06 250.631 Q2211.02 247.136 2209.09 245.052 Q2207.2 242.969 2204.05 242.969 Q2200.48 242.969 2198.33 244.983 Q2196.2 246.997 2195.88 250.654 L2211.06 250.631 Z" fill="#000000" fill-rule="nonzero" fill-opacity="1" /><path clip-path="url(#clip790)" d="M2252.15 247.274 Q2255.51 247.992 2257.38 250.261 Q2259.28 252.529 2259.28 255.862 Q2259.28 260.978 2255.76 263.779 Q2252.24 266.58 2245.76 266.58 Q2243.59 266.58 2241.27 266.14 Q2238.98 265.723 2236.53 264.867 L2236.53 260.353 Q2238.47 261.487 2240.78 262.066 Q2243.1 262.645 2245.62 262.645 Q2250.02 262.645 2252.31 260.909 Q2254.63 259.173 2254.63 255.862 Q2254.63 252.807 2252.47 251.094 Q2250.34 249.358 2246.53 249.358 L2242.5 249.358 L2242.5 245.515 L2246.71 245.515 Q2250.16 245.515 2251.99 244.149 Q2253.82 242.761 2253.82 240.168 Q2253.82 237.506 2251.92 236.094 Q2250.04 234.659 2246.53 234.659 Q2244.6 234.659 2242.4 235.075 Q2240.21 235.492 2237.57 236.372 L2237.57 232.205 Q2240.23 231.464 2242.54 231.094 Q2244.88 230.724 2246.94 230.724 Q2252.27 230.724 2255.37 233.154 Q2258.47 235.562 2258.47 239.682 Q2258.47 242.552 2256.83 244.543 Q2255.18 246.511 2252.15 247.274 Z" fill="#000000" fill-rule="nonzero" fill-opacity="1" /></svg>
