<?xml version="1.0" encoding="utf-8"?>
<svg xmlns="http://www.w3.org/2000/svg" xmlns:xlink="http://www.w3.org/1999/xlink" width="600" height="400" viewBox="0 0 2400 1600">
<defs>
  <clipPath id="clip430">
    <rect x="0" y="0" width="2400" height="1600"/>
  </clipPath>
</defs>
<path clip-path="url(#clip430)" d="M0 1600 L2400 1600 L2400 0 L0 0  Z" fill="#ffffff" fill-rule="evenodd" fill-opacity="1"/>
<defs>
  <clipPath id="clip431">
    <rect x="480" y="0" width="1681" height="1600"/>
  </clipPath>
</defs>
<path clip-path="url(#clip430)" d="M112.177 1486.45 L2352.76 1486.45 L2352.76 47.2441 L112.177 47.2441  Z" fill="#ffffff" fill-rule="evenodd" fill-opacity="1"/>
<defs>
  <clipPath id="clip432">
    <rect x="112" y="47" width="2242" height="1440"/>
  </clipPath>
</defs>
<polyline clip-path="url(#clip432)" style="stroke:#000000; stroke-linecap:round; stroke-linejoin:round; stroke-width:2; stroke-opacity:0.1; fill:none" points="112.177,1486.45 112.177,47.2441 "/>
<polyline clip-path="url(#clip432)" style="stroke:#000000; stroke-linecap:round; stroke-linejoin:round; stroke-width:2; stroke-opacity:0.1; fill:none" points="672.322,1486.45 672.322,47.2441 "/>
<polyline clip-path="url(#clip432)" style="stroke:#000000; stroke-linecap:round; stroke-linejoin:round; stroke-width:2; stroke-opacity:0.1; fill:none" points="1232.47,1486.45 1232.47,47.2441 "/>
<polyline clip-path="url(#clip432)" style="stroke:#000000; stroke-linecap:round; stroke-linejoin:round; stroke-width:2; stroke-opacity:0.1; fill:none" points="1792.61,1486.45 1792.61,47.2441 "/>
<polyline clip-path="url(#clip432)" style="stroke:#000000; stroke-linecap:round; stroke-linejoin:round; stroke-width:2; stroke-opacity:0.1; fill:none" points="2352.76,1486.45 2352.76,47.2441 "/>
<polyline clip-path="url(#clip430)" style="stroke:#000000; stroke-linecap:round; stroke-linejoin:round; stroke-width:4; stroke-opacity:1; fill:none" points="112.177,1486.45 2352.76,1486.45 "/>
<polyline clip-path="url(#clip430)" style="stroke:#000000; stroke-linecap:round; stroke-linejoin:round; stroke-width:4; stroke-opacity:1; fill:none" points="112.177,1486.45 112.177,1467.55 "/>
<polyline clip-path="url(#clip430)" style="stroke:#000000; stroke-linecap:round; stroke-linejoin:round; stroke-width:4; stroke-opacity:1; fill:none" points="672.322,1486.45 672.322,1467.55 "/>
<polyline clip-path="url(#clip430)" style="stroke:#000000; stroke-linecap:round; stroke-linejoin:round; stroke-width:4; stroke-opacity:1; fill:none" points="1232.47,1486.45 1232.47,1467.55 "/>
<polyline clip-path="url(#clip430)" style="stroke:#000000; stroke-linecap:round; stroke-linejoin:round; stroke-width:4; stroke-opacity:1; fill:none" points="1792.61,1486.45 1792.61,1467.55 "/>
<polyline clip-path="url(#clip430)" style="stroke:#000000; stroke-linecap:round; stroke-linejoin:round; stroke-width:4; stroke-opacity:1; fill:none" points="2352.76,1486.45 2352.76,1467.55 "/>
<path clip-path="url(#clip430)" d="M66.2399 1532.02 L95.9157 1532.02 L95.9157 1535.95 L66.2399 1535.95 L66.2399 1532.02 Z" fill="#000000" fill-rule="nonzero" fill-opacity="1" /><path clip-path="url(#clip430)" d="M110.036 1544.91 L126.355 1544.91 L126.355 1548.85 L104.411 1548.85 L104.411 1544.91 Q107.073 1542.16 111.656 1537.53 Q116.263 1532.88 117.443 1531.53 Q119.689 1529.01 120.568 1527.27 Q121.471 1525.51 121.471 1523.82 Q121.471 1521.07 119.527 1519.33 Q117.605 1517.6 114.504 1517.6 Q112.304 1517.6 109.851 1518.36 Q107.42 1519.13 104.642 1520.68 L104.642 1515.95 Q107.467 1514.82 109.92 1514.24 Q112.374 1513.66 114.411 1513.66 Q119.781 1513.66 122.976 1516.35 Q126.17 1519.03 126.17 1523.52 Q126.17 1525.65 125.36 1527.57 Q124.573 1529.47 122.466 1532.07 Q121.888 1532.74 118.786 1535.95 Q115.684 1539.15 110.036 1544.91 Z" fill="#000000" fill-rule="nonzero" fill-opacity="1" /><path clip-path="url(#clip430)" d="M146.17 1517.37 Q142.559 1517.37 140.73 1520.93 Q138.925 1524.47 138.925 1531.6 Q138.925 1538.71 140.73 1542.27 Q142.559 1545.82 146.17 1545.82 Q149.804 1545.82 151.61 1542.27 Q153.439 1538.71 153.439 1531.6 Q153.439 1524.47 151.61 1520.93 Q149.804 1517.37 146.17 1517.37 M146.17 1513.66 Q151.98 1513.66 155.036 1518.27 Q158.114 1522.85 158.114 1531.6 Q158.114 1540.33 155.036 1544.94 Q151.98 1549.52 146.17 1549.52 Q140.36 1549.52 137.281 1544.94 Q134.226 1540.33 134.226 1531.6 Q134.226 1522.85 137.281 1518.27 Q140.36 1513.66 146.17 1513.66 Z" fill="#000000" fill-rule="nonzero" fill-opacity="1" /><path clip-path="url(#clip430)" d="M626.385 1532.02 L656.06 1532.02 L656.06 1535.95 L626.385 1535.95 L626.385 1532.02 Z" fill="#000000" fill-rule="nonzero" fill-opacity="1" /><path clip-path="url(#clip430)" d="M666.963 1544.91 L674.602 1544.91 L674.602 1518.55 L666.292 1520.21 L666.292 1515.95 L674.556 1514.29 L679.232 1514.29 L679.232 1544.91 L686.87 1544.91 L686.87 1548.85 L666.963 1548.85 L666.963 1544.91 Z" fill="#000000" fill-rule="nonzero" fill-opacity="1" /><path clip-path="url(#clip430)" d="M706.315 1517.37 Q702.704 1517.37 700.875 1520.93 Q699.069 1524.47 699.069 1531.6 Q699.069 1538.71 700.875 1542.27 Q702.704 1545.82 706.315 1545.82 Q709.949 1545.82 711.755 1542.27 Q713.583 1538.71 713.583 1531.6 Q713.583 1524.47 711.755 1520.93 Q709.949 1517.37 706.315 1517.37 M706.315 1513.66 Q712.125 1513.66 715.18 1518.27 Q718.259 1522.85 718.259 1531.6 Q718.259 1540.33 715.18 1544.94 Q712.125 1549.52 706.315 1549.52 Q700.505 1549.52 697.426 1544.94 Q694.37 1540.33 694.37 1531.6 Q694.37 1522.85 697.426 1518.27 Q700.505 1513.66 706.315 1513.66 Z" fill="#000000" fill-rule="nonzero" fill-opacity="1" /><path clip-path="url(#clip430)" d="M1232.47 1517.37 Q1228.86 1517.37 1227.03 1520.93 Q1225.22 1524.47 1225.22 1531.6 Q1225.22 1538.71 1227.03 1542.27 Q1228.86 1545.82 1232.47 1545.82 Q1236.1 1545.82 1237.91 1542.27 Q1239.74 1538.71 1239.74 1531.6 Q1239.74 1524.47 1237.91 1520.93 Q1236.1 1517.37 1232.47 1517.37 M1232.47 1513.66 Q1238.28 1513.66 1241.33 1518.27 Q1244.41 1522.85 1244.41 1531.6 Q1244.41 1540.33 1241.33 1544.94 Q1238.28 1549.52 1232.47 1549.52 Q1226.66 1549.52 1223.58 1544.94 Q1220.52 1540.33 1220.52 1531.6 Q1220.52 1522.85 1223.58 1518.27 Q1226.66 1513.66 1232.47 1513.66 Z" fill="#000000" fill-rule="nonzero" fill-opacity="1" /><path clip-path="url(#clip430)" d="M1767.3 1544.91 L1774.94 1544.91 L1774.94 1518.55 L1766.63 1520.21 L1766.63 1515.95 L1774.89 1514.29 L1779.57 1514.29 L1779.57 1544.91 L1787.21 1544.91 L1787.21 1548.85 L1767.3 1548.85 L1767.3 1544.91 Z" fill="#000000" fill-rule="nonzero" fill-opacity="1" /><path clip-path="url(#clip430)" d="M1806.65 1517.37 Q1803.04 1517.37 1801.21 1520.93 Q1799.41 1524.47 1799.41 1531.6 Q1799.41 1538.71 1801.21 1542.27 Q1803.04 1545.82 1806.65 1545.82 Q1810.28 1545.82 1812.09 1542.27 Q1813.92 1538.71 1813.92 1531.6 Q1813.92 1524.47 1812.09 1520.93 Q1810.28 1517.37 1806.65 1517.37 M1806.65 1513.66 Q1812.46 1513.66 1815.52 1518.27 Q1818.59 1522.85 1818.59 1531.6 Q1818.59 1540.33 1815.52 1544.94 Q1812.46 1549.52 1806.65 1549.52 Q1800.84 1549.52 1797.76 1544.94 Q1794.71 1540.33 1794.71 1531.6 Q1794.71 1522.85 1797.76 1518.27 Q1800.84 1513.66 1806.65 1513.66 Z" fill="#000000" fill-rule="nonzero" fill-opacity="1" /><path clip-path="url(#clip430)" d="M2331.53 1544.91 L2347.85 1544.91 L2347.85 1548.85 L2325.9 1548.85 L2325.9 1544.91 Q2328.57 1542.16 2333.15 1537.53 Q2337.76 1532.88 2338.94 1531.53 Q2341.18 1529.01 2342.06 1527.27 Q2342.96 1525.51 2342.96 1523.82 Q2342.96 1521.07 2341.02 1519.33 Q2339.1 1517.6 2336 1517.6 Q2333.8 1517.6 2331.34 1518.36 Q2328.91 1519.13 2326.14 1520.68 L2326.14 1515.95 Q2328.96 1514.82 2331.41 1514.24 Q2333.87 1513.66 2335.9 1513.66 Q2341.27 1513.66 2344.47 1516.35 Q2347.66 1519.03 2347.66 1523.52 Q2347.66 1525.65 2346.85 1527.57 Q2346.07 1529.47 2343.96 1532.07 Q2343.38 1532.74 2340.28 1535.95 Q2337.18 1539.15 2331.53 1544.91 Z" fill="#000000" fill-rule="nonzero" fill-opacity="1" /><path clip-path="url(#clip430)" d="M2367.66 1517.37 Q2364.05 1517.37 2362.22 1520.93 Q2360.42 1524.47 2360.42 1531.6 Q2360.42 1538.71 2362.22 1542.27 Q2364.05 1545.82 2367.66 1545.82 Q2371.3 1545.82 2373.1 1542.27 Q2374.93 1538.71 2374.93 1531.6 Q2374.93 1524.47 2373.1 1520.93 Q2371.3 1517.37 2367.66 1517.37 M2367.66 1513.66 Q2373.47 1513.66 2376.53 1518.27 Q2379.61 1522.85 2379.61 1531.6 Q2379.61 1540.33 2376.53 1544.94 Q2373.47 1549.52 2367.66 1549.52 Q2361.85 1549.52 2358.77 1544.94 Q2355.72 1540.33 2355.72 1531.6 Q2355.72 1522.85 2358.77 1518.27 Q2361.85 1513.66 2367.66 1513.66 Z" fill="#000000" fill-rule="nonzero" fill-opacity="1" /><polyline clip-path="url(#clip432)" style="stroke:#000000; stroke-linecap:round; stroke-linejoin:round; stroke-width:2; stroke-opacity:0.1; fill:none" points="112.177,1486.45 2352.76,1486.45 "/>
<polyline clip-path="url(#clip432)" style="stroke:#000000; stroke-linecap:round; stroke-linejoin:round; stroke-width:2; stroke-opacity:0.1; fill:none" points="112.177,1280.85 2352.76,1280.85 "/>
<polyline clip-path="url(#clip432)" style="stroke:#000000; stroke-linecap:round; stroke-linejoin:round; stroke-width:2; stroke-opacity:0.1; fill:none" points="112.177,1075.25 2352.76,1075.25 "/>
<polyline clip-path="url(#clip432)" style="stroke:#000000; stroke-linecap:round; stroke-linejoin:round; stroke-width:2; stroke-opacity:0.1; fill:none" points="112.177,869.646 2352.76,869.646 "/>
<polyline clip-path="url(#clip432)" style="stroke:#000000; stroke-linecap:round; stroke-linejoin:round; stroke-width:2; stroke-opacity:0.1; fill:none" points="112.177,664.046 2352.76,664.046 "/>
<polyline clip-path="url(#clip432)" style="stroke:#000000; stroke-linecap:round; stroke-linejoin:round; stroke-width:2; stroke-opacity:0.1; fill:none" points="112.177,458.445 2352.76,458.445 "/>
<polyline clip-path="url(#clip432)" style="stroke:#000000; stroke-linecap:round; stroke-linejoin:round; stroke-width:2; stroke-opacity:0.1; fill:none" points="112.177,252.845 2352.76,252.845 "/>
<polyline clip-path="url(#clip432)" style="stroke:#000000; stroke-linecap:round; stroke-linejoin:round; stroke-width:2; stroke-opacity:0.1; fill:none" points="112.177,47.2441 2352.76,47.2441 "/>
<polyline clip-path="url(#clip430)" style="stroke:#000000; stroke-linecap:round; stroke-linejoin:round; stroke-width:4; stroke-opacity:1; fill:none" points="112.177,1486.45 112.177,47.2441 "/>
<polyline clip-path="url(#clip430)" style="stroke:#000000; stroke-linecap:round; stroke-linejoin:round; stroke-width:4; stroke-opacity:1; fill:none" points="112.177,1486.45 131.075,1486.45 "/>
<polyline clip-path="url(#clip430)" style="stroke:#000000; stroke-linecap:round; stroke-linejoin:round; stroke-width:4; stroke-opacity:1; fill:none" points="112.177,1280.85 131.075,1280.85 "/>
<polyline clip-path="url(#clip430)" style="stroke:#000000; stroke-linecap:round; stroke-linejoin:round; stroke-width:4; stroke-opacity:1; fill:none" points="112.177,1075.25 131.075,1075.25 "/>
<polyline clip-path="url(#clip430)" style="stroke:#000000; stroke-linecap:round; stroke-linejoin:round; stroke-width:4; stroke-opacity:1; fill:none" points="112.177,869.646 131.075,869.646 "/>
<polyline clip-path="url(#clip430)" style="stroke:#000000; stroke-linecap:round; stroke-linejoin:round; stroke-width:4; stroke-opacity:1; fill:none" points="112.177,664.046 131.075,664.046 "/>
<polyline clip-path="url(#clip430)" style="stroke:#000000; stroke-linecap:round; stroke-linejoin:round; stroke-width:4; stroke-opacity:1; fill:none" points="112.177,458.445 131.075,458.445 "/>
<polyline clip-path="url(#clip430)" style="stroke:#000000; stroke-linecap:round; stroke-linejoin:round; stroke-width:4; stroke-opacity:1; fill:none" points="112.177,252.845 131.075,252.845 "/>
<polyline clip-path="url(#clip430)" style="stroke:#000000; stroke-linecap:round; stroke-linejoin:round; stroke-width:4; stroke-opacity:1; fill:none" points="112.177,47.2441 131.075,47.2441 "/>
<path clip-path="url(#clip430)" d="M64.2328 1472.25 Q60.6217 1472.25 58.793 1475.81 Q56.9875 1479.35 56.9875 1486.48 Q56.9875 1493.59 58.793 1497.15 Q60.6217 1500.7 64.2328 1500.7 Q67.867 1500.7 69.6726 1497.15 Q71.5013 1493.59 71.5013 1486.48 Q71.5013 1479.35 69.6726 1475.81 Q67.867 1472.25 64.2328 1472.25 M64.2328 1468.54 Q70.0429 1468.54 73.0985 1473.15 Q76.1772 1477.73 76.1772 1486.48 Q76.1772 1495.21 73.0985 1499.82 Q70.0429 1504.4 64.2328 1504.4 Q58.4226 1504.4 55.344 1499.82 Q52.2884 1495.21 52.2884 1486.48 Q52.2884 1477.73 55.344 1473.15 Q58.4226 1468.54 64.2328 1468.54 Z" fill="#000000" fill-rule="nonzero" fill-opacity="1" /><path clip-path="url(#clip430)" d="M56.2699 1294.19 L63.9087 1294.19 L63.9087 1267.83 L55.5986 1269.49 L55.5986 1265.23 L63.8624 1263.57 L68.5383 1263.57 L68.5383 1294.19 L76.1772 1294.19 L76.1772 1298.13 L56.2699 1298.13 L56.2699 1294.19 Z" fill="#000000" fill-rule="nonzero" fill-opacity="1" /><path clip-path="url(#clip430)" d="M59.8578 1088.59 L76.1772 1088.59 L76.1772 1092.53 L54.2328 1092.53 L54.2328 1088.59 Q56.8949 1085.84 61.4782 1081.21 Q66.0846 1076.55 67.2652 1075.21 Q69.5105 1072.69 70.3902 1070.95 Q71.2929 1069.19 71.2929 1067.5 Q71.2929 1064.75 69.3485 1063.01 Q67.4272 1061.28 64.3254 1061.28 Q62.1263 1061.28 59.6726 1062.04 Q57.2421 1062.8 54.4643 1064.36 L54.4643 1059.63 Q57.2884 1058.5 59.7421 1057.92 Q62.1958 1057.34 64.2328 1057.34 Q69.6031 1057.34 72.7976 1060.03 Q75.992 1062.71 75.992 1067.2 Q75.992 1069.33 75.1818 1071.25 Q74.3948 1073.15 72.2883 1075.74 Q71.7096 1076.42 68.6078 1079.63 Q65.5059 1082.83 59.8578 1088.59 Z" fill="#000000" fill-rule="nonzero" fill-opacity="1" /><path clip-path="url(#clip430)" d="M69.0476 868.292 Q72.404 869.01 74.279 871.278 Q76.1772 873.547 76.1772 876.88 Q76.1772 881.996 72.6587 884.797 Q69.1402 887.598 62.6587 887.598 Q60.4828 887.598 58.168 887.158 Q55.8764 886.741 53.4227 885.885 L53.4227 881.371 Q55.3671 882.505 57.6819 883.084 Q59.9967 883.662 62.5198 883.662 Q66.918 883.662 69.2096 881.926 Q71.5244 880.19 71.5244 876.88 Q71.5244 873.824 69.3717 872.112 Q67.242 870.375 63.4226 870.375 L59.3949 870.375 L59.3949 866.533 L63.6078 866.533 Q67.0569 866.533 68.8855 865.167 Q70.7142 863.778 70.7142 861.186 Q70.7142 858.524 68.8161 857.112 Q66.9411 855.676 63.4226 855.676 Q61.5013 855.676 59.3023 856.093 Q57.1032 856.51 54.4643 857.389 L54.4643 853.223 Q57.1264 852.482 59.4412 852.112 Q61.7791 851.741 63.8393 851.741 Q69.1633 851.741 72.2652 854.172 Q75.367 856.579 75.367 860.7 Q75.367 863.57 73.7235 865.561 Q72.08 867.528 69.0476 868.292 Z" fill="#000000" fill-rule="nonzero" fill-opacity="1" /><path clip-path="url(#clip430)" d="M66.5939 650.84 L54.7884 669.289 L66.5939 669.289 L66.5939 650.84 M65.367 646.766 L71.2466 646.766 L71.2466 669.289 L76.1772 669.289 L76.1772 673.178 L71.2466 673.178 L71.2466 681.326 L66.5939 681.326 L66.5939 673.178 L50.9921 673.178 L50.9921 668.664 L65.367 646.766 Z" fill="#000000" fill-rule="nonzero" fill-opacity="1" /><path clip-path="url(#clip430)" d="M55.2745 441.165 L73.6309 441.165 L73.6309 445.1 L59.5569 445.1 L59.5569 453.573 Q60.5754 453.225 61.5939 453.063 Q62.6124 452.878 63.6309 452.878 Q69.418 452.878 72.7976 456.049 Q76.1772 459.221 76.1772 464.637 Q76.1772 470.216 72.705 473.318 Q69.2328 476.396 62.9134 476.396 Q60.7374 476.396 58.4689 476.026 Q56.2236 475.656 53.8162 474.915 L53.8162 470.216 Q55.8995 471.35 58.1217 471.906 Q60.3439 472.461 62.8208 472.461 Q66.8254 472.461 69.1633 470.355 Q71.5013 468.248 71.5013 464.637 Q71.5013 461.026 69.1633 458.92 Q66.8254 456.813 62.8208 456.813 Q60.9458 456.813 59.0708 457.23 Q57.2189 457.647 55.2745 458.526 L55.2745 441.165 Z" fill="#000000" fill-rule="nonzero" fill-opacity="1" /><path clip-path="url(#clip430)" d="M64.6495 250.981 Q61.5013 250.981 59.6495 253.134 Q57.8208 255.287 57.8208 259.037 Q57.8208 262.764 59.6495 264.939 Q61.5013 267.092 64.6495 267.092 Q67.7976 267.092 69.6263 264.939 Q71.4781 262.764 71.4781 259.037 Q71.4781 255.287 69.6263 253.134 Q67.7976 250.981 64.6495 250.981 M73.9318 236.329 L73.9318 240.588 Q72.1726 239.754 70.367 239.315 Q68.5846 238.875 66.8254 238.875 Q62.1958 238.875 59.7421 242 Q57.3115 245.125 56.9643 251.444 Q58.33 249.43 60.3902 248.365 Q62.4504 247.278 64.9272 247.278 Q70.1355 247.278 73.1448 250.449 Q76.1772 253.597 76.1772 259.037 Q76.1772 264.361 73.029 267.578 Q69.8809 270.796 64.6495 270.796 Q58.6541 270.796 55.4828 266.213 Q52.3116 261.606 52.3116 252.879 Q52.3116 244.685 56.2004 239.824 Q60.0893 234.94 66.6402 234.94 Q68.3994 234.94 70.1818 235.287 Q71.9874 235.634 73.9318 236.329 Z" fill="#000000" fill-rule="nonzero" fill-opacity="1" /><path clip-path="url(#clip430)" d="M53.9551 29.9641 L76.1772 29.9641 L76.1772 31.9548 L63.6309 64.5241 L58.7467 64.5241 L70.5522 33.8993 L53.9551 33.8993 L53.9551 29.9641 Z" fill="#000000" fill-rule="nonzero" fill-opacity="1" /><path clip-path="url(#clip432)" d="M1780.3 47.2441 L1780.3 1486.45 L1780.3 1486.45 L1780.3 47.2441 L1780.3 47.2441 L1780.3 47.2441  Z" fill="#009af9" fill-rule="evenodd" fill-opacity="1"/>
<polyline clip-path="url(#clip432)" style="stroke:#000000; stroke-linecap:round; stroke-linejoin:round; stroke-width:4; stroke-opacity:1; fill:none" points="1780.3,47.2441 1780.3,1486.45 1780.3,1486.45 1780.3,47.2441 1780.3,47.2441 "/>
<path clip-path="url(#clip432)" d="M1780.3 1486.45 L1780.3 1486.45 L1780.3 1486.45 L1780.3 1486.45 L1780.3 1486.45 L1780.3 1486.45  Z" fill="#009af9" fill-rule="evenodd" fill-opacity="1"/>
<polyline clip-path="url(#clip432)" style="stroke:#000000; stroke-linecap:round; stroke-linejoin:round; stroke-width:4; stroke-opacity:1; fill:none" points="1780.3,1486.45 1780.3,1486.45 1780.3,1486.45 1780.3,1486.45 "/>
<path clip-path="url(#clip432)" d="M1780.3 1075.25 L1780.3 1486.45 L1780.3 1486.45 L1780.3 1075.25 L1780.3 1075.25 L1780.3 1075.25  Z" fill="#009af9" fill-rule="evenodd" fill-opacity="1"/>
<polyline clip-path="url(#clip432)" style="stroke:#000000; stroke-linecap:round; stroke-linejoin:round; stroke-width:4; stroke-opacity:1; fill:none" points="1780.3,1075.25 1780.3,1486.45 1780.3,1486.45 1780.3,1075.25 1780.3,1075.25 "/>
<path clip-path="url(#clip432)" d="M1780.3 1486.45 L1780.3 1486.45 L1780.3 1486.45 L1780.3 1486.45 L1780.3 1486.45 L1780.3 1486.45  Z" fill="#009af9" fill-rule="evenodd" fill-opacity="1"/>
<polyline clip-path="url(#clip432)" style="stroke:#000000; stroke-linecap:round; stroke-linejoin:round; stroke-width:4; stroke-opacity:1; fill:none" points="1780.3,1486.45 1780.3,1486.45 1780.3,1486.45 1780.3,1486.45 "/>
<path clip-path="url(#clip432)" d="M1780.3 1486.45 L1780.3 1486.45 L1780.3 1486.45 L1780.3 1486.45 L1780.3 1486.45 L1780.3 1486.45  Z" fill="#009af9" fill-rule="evenodd" fill-opacity="1"/>
<polyline clip-path="url(#clip432)" style="stroke:#000000; stroke-linecap:round; stroke-linejoin:round; stroke-width:4; stroke-opacity:1; fill:none" points="1780.3,1486.45 1780.3,1486.45 1780.3,1486.45 1780.3,1486.45 "/>
<path clip-path="url(#clip432)" d="M1780.3 1486.45 L1780.3 1486.45 L1780.3 1486.45 L1780.3 1486.45 L1780.3 1486.45 L1780.3 1486.45  Z" fill="#009af9" fill-rule="evenodd" fill-opacity="1"/>
<polyline clip-path="url(#clip432)" style="stroke:#000000; stroke-linecap:round; stroke-linejoin:round; stroke-width:4; stroke-opacity:1; fill:none" points="1780.3,1486.45 1780.3,1486.45 1780.3,1486.45 1780.3,1486.45 "/>
<path clip-path="url(#clip432)" d="M1780.3 1486.45 L1780.3 1486.45 L1780.3 1486.45 L1780.3 1486.45 L1780.3 1486.45 L1780.3 1486.45  Z" fill="#009af9" fill-rule="evenodd" fill-opacity="1"/>
<polyline clip-path="url(#clip432)" style="stroke:#000000; stroke-linecap:round; stroke-linejoin:round; stroke-width:4; stroke-opacity:1; fill:none" points="1780.3,1486.45 1780.3,1486.45 1780.3,1486.45 1780.3,1486.45 "/>
<path clip-path="url(#clip432)" d="M1780.3 1486.45 L1780.3 1486.45 L1780.3 1486.45 L1780.3 1486.45 L1780.3 1486.45 L1780.3 1486.45  Z" fill="#009af9" fill-rule="evenodd" fill-opacity="1"/>
<polyline clip-path="url(#clip432)" style="stroke:#000000; stroke-linecap:round; stroke-linejoin:round; stroke-width:4; stroke-opacity:1; fill:none" points="1780.3,1486.45 1780.3,1486.45 1780.3,1486.45 1780.3,1486.45 "/>
<path clip-path="url(#clip432)" d="M1780.3 1486.45 L1780.3 1486.45 L1780.3 1486.45 L1780.3 1486.45 L1780.3 1486.45 L1780.3 1486.45  Z" fill="#009af9" fill-rule="evenodd" fill-opacity="1"/>
<polyline clip-path="url(#clip432)" style="stroke:#000000; stroke-linecap:round; stroke-linejoin:round; stroke-width:4; stroke-opacity:1; fill:none" points="1780.3,1486.45 1780.3,1486.45 1780.3,1486.45 1780.3,1486.45 "/>
<path clip-path="url(#clip432)" d="M1780.3 1486.45 L1780.3 1486.45 L1780.3 1486.45 L1780.3 1486.45 L1780.3 1486.45 L1780.3 1486.45  Z" fill="#009af9" fill-rule="evenodd" fill-opacity="1"/>
<polyline clip-path="url(#clip432)" style="stroke:#000000; stroke-linecap:round; stroke-linejoin:round; stroke-width:4; stroke-opacity:1; fill:none" points="1780.3,1486.45 1780.3,1486.45 1780.3,1486.45 1780.3,1486.45 "/>
<path clip-path="url(#clip432)" d="M1780.3 1486.45 L1780.3 1486.45 L1780.3 1486.45 L1780.3 1486.45 L1780.3 1486.45 L1780.3 1486.45  Z" fill="#009af9" fill-rule="evenodd" fill-opacity="1"/>
<polyline clip-path="url(#clip432)" style="stroke:#000000; stroke-linecap:round; stroke-linejoin:round; stroke-width:4; stroke-opacity:1; fill:none" points="1780.3,1486.45 1780.3,1486.45 1780.3,1486.45 1780.3,1486.45 "/>
<path clip-path="url(#clip432)" d="M1780.3 1486.45 L1780.3 1486.45 L1780.3 1486.45 L1780.3 1486.45 L1780.3 1486.45 L1780.3 1486.45  Z" fill="#009af9" fill-rule="evenodd" fill-opacity="1"/>
<polyline clip-path="url(#clip432)" style="stroke:#000000; stroke-linecap:round; stroke-linejoin:round; stroke-width:4; stroke-opacity:1; fill:none" points="1780.3,1486.45 1780.3,1486.45 1780.3,1486.45 1780.3,1486.45 "/>
<path clip-path="url(#clip432)" d="M1780.3 1486.45 L1780.3 1486.45 L1780.3 1486.45 L1780.3 1486.45 L1780.3 1486.45 L1780.3 1486.45  Z" fill="#009af9" fill-rule="evenodd" fill-opacity="1"/>
<polyline clip-path="url(#clip432)" style="stroke:#000000; stroke-linecap:round; stroke-linejoin:round; stroke-width:4; stroke-opacity:1; fill:none" points="1780.3,1486.45 1780.3,1486.45 1780.3,1486.45 1780.3,1486.45 "/>
<path clip-path="url(#clip432)" d="M1780.3 1486.45 L1780.3 1486.45 L1780.3 1486.45 L1780.3 1486.45 L1780.3 1486.45 L1780.3 1486.45  Z" fill="#009af9" fill-rule="evenodd" fill-opacity="1"/>
<polyline clip-path="url(#clip432)" style="stroke:#000000; stroke-linecap:round; stroke-linejoin:round; stroke-width:4; stroke-opacity:1; fill:none" points="1780.3,1486.45 1780.3,1486.45 1780.3,1486.45 1780.3,1486.45 "/>
<path clip-path="url(#clip432)" d="M1780.3 1486.45 L1780.3 1486.45 L1780.3 1486.45 L1780.3 1486.45 L1780.3 1486.45 L1780.3 1486.45  Z" fill="#009af9" fill-rule="evenodd" fill-opacity="1"/>
<polyline clip-path="url(#clip432)" style="stroke:#000000; stroke-linecap:round; stroke-linejoin:round; stroke-width:4; stroke-opacity:1; fill:none" points="1780.3,1486.45 1780.3,1486.45 1780.3,1486.45 1780.3,1486.45 "/>
<path clip-path="url(#clip432)" d="M1780.3 1486.45 L1780.3 1486.45 L1780.3 1486.45 L1780.3 1486.45 L1780.3 1486.45 L1780.3 1486.45  Z" fill="#009af9" fill-rule="evenodd" fill-opacity="1"/>
<polyline clip-path="url(#clip432)" style="stroke:#000000; stroke-linecap:round; stroke-linejoin:round; stroke-width:4; stroke-opacity:1; fill:none" points="1780.3,1486.45 1780.3,1486.45 1780.3,1486.45 1780.3,1486.45 "/>
<path clip-path="url(#clip432)" d="M1780.3 1486.45 L1780.3 1486.45 L1780.3 1486.45 L1780.3 1486.45 L1780.3 1486.45 L1780.3 1486.45  Z" fill="#009af9" fill-rule="evenodd" fill-opacity="1"/>
<polyline clip-path="url(#clip432)" style="stroke:#000000; stroke-linecap:round; stroke-linejoin:round; stroke-width:4; stroke-opacity:1; fill:none" points="1780.3,1486.45 1780.3,1486.45 1780.3,1486.45 1780.3,1486.45 "/>
<path clip-path="url(#clip432)" d="M1780.3 1486.45 L1780.3 1486.45 L1780.3 1486.45 L1780.3 1486.45 L1780.3 1486.45 L1780.3 1486.45  Z" fill="#009af9" fill-rule="evenodd" fill-opacity="1"/>
<polyline clip-path="url(#clip432)" style="stroke:#000000; stroke-linecap:round; stroke-linejoin:round; stroke-width:4; stroke-opacity:1; fill:none" points="1780.3,1486.45 1780.3,1486.45 1780.3,1486.45 1780.3,1486.45 "/>
<path clip-path="url(#clip432)" d="M1780.3 1486.45 L1780.3 1486.45 L1780.3 1486.45 L1780.3 1486.45 L1780.3 1486.45 L1780.3 1486.45  Z" fill="#009af9" fill-rule="evenodd" fill-opacity="1"/>
<polyline clip-path="url(#clip432)" style="stroke:#000000; stroke-linecap:round; stroke-linejoin:round; stroke-width:4; stroke-opacity:1; fill:none" points="1780.3,1486.45 1780.3,1486.45 1780.3,1486.45 1780.3,1486.45 "/>
<path clip-path="url(#clip432)" d="M1780.3 1486.45 L1780.3 1486.45 L1780.3 1486.45 L1780.3 1486.45 L1780.3 1486.45 L1780.3 1486.45  Z" fill="#009af9" fill-rule="evenodd" fill-opacity="1"/>
<polyline clip-path="url(#clip432)" style="stroke:#000000; stroke-linecap:round; stroke-linejoin:round; stroke-width:4; stroke-opacity:1; fill:none" points="1780.3,1486.45 1780.3,1486.45 1780.3,1486.45 1780.3,1486.45 "/>
<path clip-path="url(#clip432)" d="M1780.3 1486.45 L1780.3 1486.45 L1780.3 1486.45 L1780.3 1486.45 L1780.3 1486.45 L1780.3 1486.45  Z" fill="#009af9" fill-rule="evenodd" fill-opacity="1"/>
<polyline clip-path="url(#clip432)" style="stroke:#000000; stroke-linecap:round; stroke-linejoin:round; stroke-width:4; stroke-opacity:1; fill:none" points="1780.3,1486.45 1780.3,1486.45 1780.3,1486.45 1780.3,1486.45 "/>
<path clip-path="url(#clip432)" d="M1780.3 1486.45 L1780.3 1486.45 L1780.3 1486.45 L1780.3 1486.45 L1780.3 1486.45 L1780.3 1486.45  Z" fill="#009af9" fill-rule="evenodd" fill-opacity="1"/>
<polyline clip-path="url(#clip432)" style="stroke:#000000; stroke-linecap:round; stroke-linejoin:round; stroke-width:4; stroke-opacity:1; fill:none" points="1780.3,1486.45 1780.3,1486.45 1780.3,1486.45 1780.3,1486.45 "/>
<path clip-path="url(#clip432)" d="M1780.3 1486.45 L1780.3 1486.45 L1780.3 1486.45 L1780.3 1486.45 L1780.3 1486.45 L1780.3 1486.45  Z" fill="#009af9" fill-rule="evenodd" fill-opacity="1"/>
<polyline clip-path="url(#clip432)" style="stroke:#000000; stroke-linecap:round; stroke-linejoin:round; stroke-width:4; stroke-opacity:1; fill:none" points="1780.3,1486.45 1780.3,1486.45 1780.3,1486.45 1780.3,1486.45 "/>
<path clip-path="url(#clip432)" d="M1780.3 1486.45 L1780.3 1486.45 L1780.3 1486.45 L1780.3 1486.45 L1780.3 1486.45 L1780.3 1486.45  Z" fill="#009af9" fill-rule="evenodd" fill-opacity="1"/>
<polyline clip-path="url(#clip432)" style="stroke:#000000; stroke-linecap:round; stroke-linejoin:round; stroke-width:4; stroke-opacity:1; fill:none" points="1780.3,1486.45 1780.3,1486.45 1780.3,1486.45 1780.3,1486.45 "/>
<path clip-path="url(#clip432)" d="M1780.3 1486.45 L1780.3 1486.45 L1780.3 1486.45 L1780.3 1486.45 L1780.3 1486.45 L1780.3 1486.45  Z" fill="#009af9" fill-rule="evenodd" fill-opacity="1"/>
<polyline clip-path="url(#clip432)" style="stroke:#000000; stroke-linecap:round; stroke-linejoin:round; stroke-width:4; stroke-opacity:1; fill:none" points="1780.3,1486.45 1780.3,1486.45 1780.3,1486.45 1780.3,1486.45 "/>
<path clip-path="url(#clip432)" d="M1780.3 1486.45 L1780.3 1486.45 L1780.3 1486.45 L1780.3 1486.45 L1780.3 1486.45 L1780.3 1486.45  Z" fill="#009af9" fill-rule="evenodd" fill-opacity="1"/>
<polyline clip-path="url(#clip432)" style="stroke:#000000; stroke-linecap:round; stroke-linejoin:round; stroke-width:4; stroke-opacity:1; fill:none" points="1780.3,1486.45 1780.3,1486.45 1780.3,1486.45 1780.3,1486.45 "/>
<path clip-path="url(#clip432)" d="M1780.3 1486.45 L1780.3 1486.45 L1780.3 1486.45 L1780.3 1486.45 L1780.3 1486.45 L1780.3 1486.45  Z" fill="#009af9" fill-rule="evenodd" fill-opacity="1"/>
<polyline clip-path="url(#clip432)" style="stroke:#000000; stroke-linecap:round; stroke-linejoin:round; stroke-width:4; stroke-opacity:1; fill:none" points="1780.3,1486.45 1780.3,1486.45 1780.3,1486.45 1780.3,1486.45 "/>
<path clip-path="url(#clip432)" d="M1780.3 1486.45 L1780.3 1486.45 L1780.3 1486.45 L1780.3 1486.45 L1780.3 1486.45 L1780.3 1486.45  Z" fill="#009af9" fill-rule="evenodd" fill-opacity="1"/>
<polyline clip-path="url(#clip432)" style="stroke:#000000; stroke-linecap:round; stroke-linejoin:round; stroke-width:4; stroke-opacity:1; fill:none" points="1780.3,1486.45 1780.3,1486.45 1780.3,1486.45 1780.3,1486.45 "/>
<path clip-path="url(#clip432)" d="M1780.3 1486.45 L1780.3 1486.45 L1780.3 1486.45 L1780.3 1486.45 L1780.3 1486.45 L1780.3 1486.45  Z" fill="#009af9" fill-rule="evenodd" fill-opacity="1"/>
<polyline clip-path="url(#clip432)" style="stroke:#000000; stroke-linecap:round; stroke-linejoin:round; stroke-width:4; stroke-opacity:1; fill:none" points="1780.3,1486.45 1780.3,1486.45 1780.3,1486.45 1780.3,1486.45 "/>
<path clip-path="url(#clip432)" d="M1780.3 1486.45 L1780.3 1486.45 L1780.3 1486.45 L1780.3 1486.45 L1780.3 1486.45 L1780.3 1486.45  Z" fill="#009af9" fill-rule="evenodd" fill-opacity="1"/>
<polyline clip-path="url(#clip432)" style="stroke:#000000; stroke-linecap:round; stroke-linejoin:round; stroke-width:4; stroke-opacity:1; fill:none" points="1780.3,1486.45 1780.3,1486.45 1780.3,1486.45 1780.3,1486.45 "/>
<path clip-path="url(#clip432)" d="M1780.3 1486.45 L1780.3 1486.45 L1780.3 1486.45 L1780.3 1486.45 L1780.3 1486.45 L1780.3 1486.45  Z" fill="#009af9" fill-rule="evenodd" fill-opacity="1"/>
<polyline clip-path="url(#clip432)" style="stroke:#000000; stroke-linecap:round; stroke-linejoin:round; stroke-width:4; stroke-opacity:1; fill:none" points="1780.3,1486.45 1780.3,1486.45 1780.3,1486.45 1780.3,1486.45 "/>
<path clip-path="url(#clip432)" d="M1780.3 1486.45 L1780.3 1486.45 L1780.3 1486.45 L1780.3 1486.45 L1780.3 1486.45 L1780.3 1486.45  Z" fill="#009af9" fill-rule="evenodd" fill-opacity="1"/>
<polyline clip-path="url(#clip432)" style="stroke:#000000; stroke-linecap:round; stroke-linejoin:round; stroke-width:4; stroke-opacity:1; fill:none" points="1780.3,1486.45 1780.3,1486.45 1780.3,1486.45 1780.3,1486.45 "/>
<path clip-path="url(#clip432)" d="M1780.3 1486.45 L1780.3 1486.45 L1780.3 1486.45 L1780.3 1486.45 L1780.3 1486.45 L1780.3 1486.45  Z" fill="#009af9" fill-rule="evenodd" fill-opacity="1"/>
<polyline clip-path="url(#clip432)" style="stroke:#000000; stroke-linecap:round; stroke-linejoin:round; stroke-width:4; stroke-opacity:1; fill:none" points="1780.3,1486.45 1780.3,1486.45 1780.3,1486.45 1780.3,1486.45 "/>
<path clip-path="url(#clip432)" d="M1780.3 1486.45 L1780.3 1486.45 L1780.3 1486.45 L1780.3 1486.45 L1780.3 1486.45 L1780.3 1486.45  Z" fill="#009af9" fill-rule="evenodd" fill-opacity="1"/>
<polyline clip-path="url(#clip432)" style="stroke:#000000; stroke-linecap:round; stroke-linejoin:round; stroke-width:4; stroke-opacity:1; fill:none" points="1780.3,1486.45 1780.3,1486.45 1780.3,1486.45 1780.3,1486.45 "/>
<path clip-path="url(#clip432)" d="M1780.3 1486.45 L1780.3 1486.45 L1780.3 1486.45 L1780.3 1486.45 L1780.3 1486.45 L1780.3 1486.45  Z" fill="#009af9" fill-rule="evenodd" fill-opacity="1"/>
<polyline clip-path="url(#clip432)" style="stroke:#000000; stroke-linecap:round; stroke-linejoin:round; stroke-width:4; stroke-opacity:1; fill:none" points="1780.3,1486.45 1780.3,1486.45 1780.3,1486.45 1780.3,1486.45 "/>
<path clip-path="url(#clip432)" d="M1780.3 1486.45 L1780.3 1486.45 L1780.3 1486.45 L1780.3 1486.45 L1780.3 1486.45 L1780.3 1486.45  Z" fill="#009af9" fill-rule="evenodd" fill-opacity="1"/>
<polyline clip-path="url(#clip432)" style="stroke:#000000; stroke-linecap:round; stroke-linejoin:round; stroke-width:4; stroke-opacity:1; fill:none" points="1780.3,1486.45 1780.3,1486.45 1780.3,1486.45 1780.3,1486.45 "/>
<path clip-path="url(#clip432)" d="M1780.3 1486.45 L1780.3 1486.45 L1780.3 1486.45 L1780.3 1486.45 L1780.3 1486.45 L1780.3 1486.45  Z" fill="#009af9" fill-rule="evenodd" fill-opacity="1"/>
<polyline clip-path="url(#clip432)" style="stroke:#000000; stroke-linecap:round; stroke-linejoin:round; stroke-width:4; stroke-opacity:1; fill:none" points="1780.3,1486.45 1780.3,1486.45 1780.3,1486.45 1780.3,1486.45 "/>
<path clip-path="url(#clip432)" d="M1780.3 1486.45 L1780.3 1486.45 L1780.3 1486.45 L1780.3 1486.45 L1780.3 1486.45 L1780.3 1486.45  Z" fill="#009af9" fill-rule="evenodd" fill-opacity="1"/>
<polyline clip-path="url(#clip432)" style="stroke:#000000; stroke-linecap:round; stroke-linejoin:round; stroke-width:4; stroke-opacity:1; fill:none" points="1780.3,1486.45 1780.3,1486.45 1780.3,1486.45 1780.3,1486.45 "/>
<path clip-path="url(#clip432)" d="M1780.3 1486.45 L1780.3 1486.45 L1780.3 1486.45 L1780.3 1486.45 L1780.3 1486.45 L1780.3 1486.45  Z" fill="#009af9" fill-rule="evenodd" fill-opacity="1"/>
<polyline clip-path="url(#clip432)" style="stroke:#000000; stroke-linecap:round; stroke-linejoin:round; stroke-width:4; stroke-opacity:1; fill:none" points="1780.3,1486.45 1780.3,1486.45 1780.3,1486.45 1780.3,1486.45 "/>
<path clip-path="url(#clip432)" d="M1780.3 1486.45 L1780.3 1486.45 L1780.3 1486.45 L1780.3 1486.45 L1780.3 1486.45 L1780.3 1486.45  Z" fill="#009af9" fill-rule="evenodd" fill-opacity="1"/>
<polyline clip-path="url(#clip432)" style="stroke:#000000; stroke-linecap:round; stroke-linejoin:round; stroke-width:4; stroke-opacity:1; fill:none" points="1780.3,1486.45 1780.3,1486.45 1780.3,1486.45 1780.3,1486.45 "/>
<path clip-path="url(#clip432)" d="M1780.3 1486.45 L1780.3 1486.45 L1780.3 1486.45 L1780.3 1486.45 L1780.3 1486.45 L1780.3 1486.45  Z" fill="#009af9" fill-rule="evenodd" fill-opacity="1"/>
<polyline clip-path="url(#clip432)" style="stroke:#000000; stroke-linecap:round; stroke-linejoin:round; stroke-width:4; stroke-opacity:1; fill:none" points="1780.3,1486.45 1780.3,1486.45 1780.3,1486.45 1780.3,1486.45 "/>
<path clip-path="url(#clip432)" d="M1780.3 1486.45 L1780.3 1486.45 L1780.3 1486.45 L1780.3 1486.45 L1780.3 1486.45 L1780.3 1486.45  Z" fill="#009af9" fill-rule="evenodd" fill-opacity="1"/>
<polyline clip-path="url(#clip432)" style="stroke:#000000; stroke-linecap:round; stroke-linejoin:round; stroke-width:4; stroke-opacity:1; fill:none" points="1780.3,1486.45 1780.3,1486.45 1780.3,1486.45 1780.3,1486.45 "/>
<path clip-path="url(#clip432)" d="M1780.3 1486.45 L1780.3 1486.45 L1780.3 1486.45 L1780.3 1486.45 L1780.3 1486.45 L1780.3 1486.45  Z" fill="#009af9" fill-rule="evenodd" fill-opacity="1"/>
<polyline clip-path="url(#clip432)" style="stroke:#000000; stroke-linecap:round; stroke-linejoin:round; stroke-width:4; stroke-opacity:1; fill:none" points="1780.3,1486.45 1780.3,1486.45 1780.3,1486.45 1780.3,1486.45 "/>
<path clip-path="url(#clip432)" d="M1780.3 1486.45 L1780.3 1486.45 L1780.3 1486.45 L1780.3 1486.45 L1780.3 1486.45 L1780.3 1486.45  Z" fill="#009af9" fill-rule="evenodd" fill-opacity="1"/>
<polyline clip-path="url(#clip432)" style="stroke:#000000; stroke-linecap:round; stroke-linejoin:round; stroke-width:4; stroke-opacity:1; fill:none" points="1780.3,1486.45 1780.3,1486.45 1780.3,1486.45 1780.3,1486.45 "/>
<path clip-path="url(#clip432)" d="M1780.3 1486.45 L1780.3 1486.45 L1780.3 1486.45 L1780.3 1486.45 L1780.3 1486.45 L1780.3 1486.45  Z" fill="#009af9" fill-rule="evenodd" fill-opacity="1"/>
<polyline clip-path="url(#clip432)" style="stroke:#000000; stroke-linecap:round; stroke-linejoin:round; stroke-width:4; stroke-opacity:1; fill:none" points="1780.3,1486.45 1780.3,1486.45 1780.3,1486.45 1780.3,1486.45 "/>
<path clip-path="url(#clip432)" d="M1780.3 1486.45 L1780.3 1486.45 L1780.3 1486.45 L1780.3 1486.45 L1780.3 1486.45 L1780.3 1486.45  Z" fill="#009af9" fill-rule="evenodd" fill-opacity="1"/>
<polyline clip-path="url(#clip432)" style="stroke:#000000; stroke-linecap:round; stroke-linejoin:round; stroke-width:4; stroke-opacity:1; fill:none" points="1780.3,1486.45 1780.3,1486.45 1780.3,1486.45 1780.3,1486.45 "/>
<path clip-path="url(#clip432)" d="M1780.3 1486.45 L1780.3 1486.45 L1780.3 1486.45 L1780.3 1486.45 L1780.3 1486.45 L1780.3 1486.45  Z" fill="#009af9" fill-rule="evenodd" fill-opacity="1"/>
<polyline clip-path="url(#clip432)" style="stroke:#000000; stroke-linecap:round; stroke-linejoin:round; stroke-width:4; stroke-opacity:1; fill:none" points="1780.3,1486.45 1780.3,1486.45 1780.3,1486.45 1780.3,1486.45 "/>
<path clip-path="url(#clip432)" d="M1780.3 1486.45 L1780.3 1486.45 L1780.3 1486.45 L1780.3 1486.45 L1780.3 1486.45 L1780.3 1486.45  Z" fill="#009af9" fill-rule="evenodd" fill-opacity="1"/>
<polyline clip-path="url(#clip432)" style="stroke:#000000; stroke-linecap:round; stroke-linejoin:round; stroke-width:4; stroke-opacity:1; fill:none" points="1780.3,1486.45 1780.3,1486.45 1780.3,1486.45 1780.3,1486.45 "/>
<path clip-path="url(#clip432)" d="M1780.3 1486.45 L1780.3 1486.45 L1780.3 1486.45 L1780.3 1486.45 L1780.3 1486.45 L1780.3 1486.45  Z" fill="#009af9" fill-rule="evenodd" fill-opacity="1"/>
<polyline clip-path="url(#clip432)" style="stroke:#000000; stroke-linecap:round; stroke-linejoin:round; stroke-width:4; stroke-opacity:1; fill:none" points="1780.3,1486.45 1780.3,1486.45 1780.3,1486.45 1780.3,1486.45 "/>
<path clip-path="url(#clip432)" d="M1780.3 1486.45 L1780.3 1486.45 L1780.3 1486.45 L1780.3 1486.45 L1780.3 1486.45 L1780.3 1486.45  Z" fill="#009af9" fill-rule="evenodd" fill-opacity="1"/>
<polyline clip-path="url(#clip432)" style="stroke:#000000; stroke-linecap:round; stroke-linejoin:round; stroke-width:4; stroke-opacity:1; fill:none" points="1780.3,1486.45 1780.3,1486.45 1780.3,1486.45 1780.3,1486.45 "/>
<path clip-path="url(#clip432)" d="M1780.3 1486.45 L1780.3 1486.45 L1780.3 1486.45 L1780.3 1486.45 L1780.3 1486.45 L1780.3 1486.45  Z" fill="#009af9" fill-rule="evenodd" fill-opacity="1"/>
<polyline clip-path="url(#clip432)" style="stroke:#000000; stroke-linecap:round; stroke-linejoin:round; stroke-width:4; stroke-opacity:1; fill:none" points="1780.3,1486.45 1780.3,1486.45 1780.3,1486.45 1780.3,1486.45 "/>
<path clip-path="url(#clip432)" d="M1780.3 1486.45 L1780.3 1486.45 L1780.3 1486.45 L1780.3 1486.45 L1780.3 1486.45 L1780.3 1486.45  Z" fill="#009af9" fill-rule="evenodd" fill-opacity="1"/>
<polyline clip-path="url(#clip432)" style="stroke:#000000; stroke-linecap:round; stroke-linejoin:round; stroke-width:4; stroke-opacity:1; fill:none" points="1780.3,1486.45 1780.3,1486.45 1780.3,1486.45 1780.3,1486.45 "/>
<path clip-path="url(#clip432)" d="M1780.3 1486.45 L1780.3 1486.45 L1780.3 1486.45 L1780.3 1486.45 L1780.3 1486.45 L1780.3 1486.45  Z" fill="#009af9" fill-rule="evenodd" fill-opacity="1"/>
<polyline clip-path="url(#clip432)" style="stroke:#000000; stroke-linecap:round; stroke-linejoin:round; stroke-width:4; stroke-opacity:1; fill:none" points="1780.3,1486.45 1780.3,1486.45 1780.3,1486.45 1780.3,1486.45 "/>
<path clip-path="url(#clip432)" d="M1780.3 1486.45 L1780.3 1486.45 L1780.3 1486.45 L1780.3 1486.45 L1780.3 1486.45 L1780.3 1486.45  Z" fill="#009af9" fill-rule="evenodd" fill-opacity="1"/>
<polyline clip-path="url(#clip432)" style="stroke:#000000; stroke-linecap:round; stroke-linejoin:round; stroke-width:4; stroke-opacity:1; fill:none" points="1780.3,1486.45 1780.3,1486.45 1780.3,1486.45 1780.3,1486.45 "/>
<path clip-path="url(#clip432)" d="M1780.3 1486.45 L1780.3 1486.45 L1780.3 1486.45 L1780.3 1486.45 L1780.3 1486.45 L1780.3 1486.45  Z" fill="#009af9" fill-rule="evenodd" fill-opacity="1"/>
<polyline clip-path="url(#clip432)" style="stroke:#000000; stroke-linecap:round; stroke-linejoin:round; stroke-width:4; stroke-opacity:1; fill:none" points="1780.3,1486.45 1780.3,1486.45 1780.3,1486.45 1780.3,1486.45 "/>
<path clip-path="url(#clip432)" d="M1780.3 1486.45 L1780.3 1486.45 L1780.3 1486.45 L1780.3 1486.45 L1780.3 1486.45 L1780.3 1486.45  Z" fill="#009af9" fill-rule="evenodd" fill-opacity="1"/>
<polyline clip-path="url(#clip432)" style="stroke:#000000; stroke-linecap:round; stroke-linejoin:round; stroke-width:4; stroke-opacity:1; fill:none" points="1780.3,1486.45 1780.3,1486.45 1780.3,1486.45 1780.3,1486.45 "/>
<path clip-path="url(#clip432)" d="M1780.3 1280.85 L1780.3 1486.45 L1780.3 1486.45 L1780.3 1280.85 L1780.3 1280.85 L1780.3 1280.85  Z" fill="#009af9" fill-rule="evenodd" fill-opacity="1"/>
<polyline clip-path="url(#clip432)" style="stroke:#000000; stroke-linecap:round; stroke-linejoin:round; stroke-width:4; stroke-opacity:1; fill:none" points="1780.3,1280.85 1780.3,1486.45 1780.3,1486.45 1780.3,1280.85 1780.3,1280.85 "/>
<circle clip-path="url(#clip432)" style="fill:#009af9; stroke:none; fill-opacity:0" cx="1780.3" cy="47.2441" r="2"/>
<circle clip-path="url(#clip432)" style="fill:#009af9; stroke:none; fill-opacity:0" cx="1780.3" cy="1486.45" r="2"/>
<circle clip-path="url(#clip432)" style="fill:#009af9; stroke:none; fill-opacity:0" cx="1780.3" cy="1075.25" r="2"/>
<circle clip-path="url(#clip432)" style="fill:#009af9; stroke:none; fill-opacity:0" cx="1780.3" cy="1486.45" r="2"/>
<circle clip-path="url(#clip432)" style="fill:#009af9; stroke:none; fill-opacity:0" cx="1780.3" cy="1486.45" r="2"/>
<circle clip-path="url(#clip432)" style="fill:#009af9; stroke:none; fill-opacity:0" cx="1780.3" cy="1486.45" r="2"/>
<circle clip-path="url(#clip432)" style="fill:#009af9; stroke:none; fill-opacity:0" cx="1780.3" cy="1486.45" r="2"/>
<circle clip-path="url(#clip432)" style="fill:#009af9; stroke:none; fill-opacity:0" cx="1780.3" cy="1486.45" r="2"/>
<circle clip-path="url(#clip432)" style="fill:#009af9; stroke:none; fill-opacity:0" cx="1780.3" cy="1486.45" r="2"/>
<circle clip-path="url(#clip432)" style="fill:#009af9; stroke:none; fill-opacity:0" cx="1780.3" cy="1486.45" r="2"/>
<circle clip-path="url(#clip432)" style="fill:#009af9; stroke:none; fill-opacity:0" cx="1780.3" cy="1486.45" r="2"/>
<circle clip-path="url(#clip432)" style="fill:#009af9; stroke:none; fill-opacity:0" cx="1780.3" cy="1486.45" r="2"/>
<circle clip-path="url(#clip432)" style="fill:#009af9; stroke:none; fill-opacity:0" cx="1780.3" cy="1486.45" r="2"/>
<circle clip-path="url(#clip432)" style="fill:#009af9; stroke:none; fill-opacity:0" cx="1780.3" cy="1486.45" r="2"/>
<circle clip-path="url(#clip432)" style="fill:#009af9; stroke:none; fill-opacity:0" cx="1780.3" cy="1486.45" r="2"/>
<circle clip-path="url(#clip432)" style="fill:#009af9; stroke:none; fill-opacity:0" cx="1780.3" cy="1486.45" r="2"/>
<circle clip-path="url(#clip432)" style="fill:#009af9; stroke:none; fill-opacity:0" cx="1780.3" cy="1486.45" r="2"/>
<circle clip-path="url(#clip432)" style="fill:#009af9; stroke:none; fill-opacity:0" cx="1780.3" cy="1486.45" r="2"/>
<circle clip-path="url(#clip432)" style="fill:#009af9; stroke:none; fill-opacity:0" cx="1780.3" cy="1486.45" r="2"/>
<circle clip-path="url(#clip432)" style="fill:#009af9; stroke:none; fill-opacity:0" cx="1780.3" cy="1486.45" r="2"/>
<circle clip-path="url(#clip432)" style="fill:#009af9; stroke:none; fill-opacity:0" cx="1780.3" cy="1486.45" r="2"/>
<circle clip-path="url(#clip432)" style="fill:#009af9; stroke:none; fill-opacity:0" cx="1780.3" cy="1486.45" r="2"/>
<circle clip-path="url(#clip432)" style="fill:#009af9; stroke:none; fill-opacity:0" cx="1780.3" cy="1486.45" r="2"/>
<circle clip-path="url(#clip432)" style="fill:#009af9; stroke:none; fill-opacity:0" cx="1780.3" cy="1486.45" r="2"/>
<circle clip-path="url(#clip432)" style="fill:#009af9; stroke:none; fill-opacity:0" cx="1780.3" cy="1486.45" r="2"/>
<circle clip-path="url(#clip432)" style="fill:#009af9; stroke:none; fill-opacity:0" cx="1780.3" cy="1486.45" r="2"/>
<circle clip-path="url(#clip432)" style="fill:#009af9; stroke:none; fill-opacity:0" cx="1780.3" cy="1486.45" r="2"/>
<circle clip-path="url(#clip432)" style="fill:#009af9; stroke:none; fill-opacity:0" cx="1780.3" cy="1486.45" r="2"/>
<circle clip-path="url(#clip432)" style="fill:#009af9; stroke:none; fill-opacity:0" cx="1780.3" cy="1486.45" r="2"/>
<circle clip-path="url(#clip432)" style="fill:#009af9; stroke:none; fill-opacity:0" cx="1780.3" cy="1486.45" r="2"/>
<circle clip-path="url(#clip432)" style="fill:#009af9; stroke:none; fill-opacity:0" cx="1780.3" cy="1486.45" r="2"/>
<circle clip-path="url(#clip432)" style="fill:#009af9; stroke:none; fill-opacity:0" cx="1780.3" cy="1486.45" r="2"/>
<circle clip-path="url(#clip432)" style="fill:#009af9; stroke:none; fill-opacity:0" cx="1780.3" cy="1486.45" r="2"/>
<circle clip-path="url(#clip432)" style="fill:#009af9; stroke:none; fill-opacity:0" cx="1780.3" cy="1486.45" r="2"/>
<circle clip-path="url(#clip432)" style="fill:#009af9; stroke:none; fill-opacity:0" cx="1780.3" cy="1486.45" r="2"/>
<circle clip-path="url(#clip432)" style="fill:#009af9; stroke:none; fill-opacity:0" cx="1780.3" cy="1486.45" r="2"/>
<circle clip-path="url(#clip432)" style="fill:#009af9; stroke:none; fill-opacity:0" cx="1780.3" cy="1486.45" r="2"/>
<circle clip-path="url(#clip432)" style="fill:#009af9; stroke:none; fill-opacity:0" cx="1780.3" cy="1486.45" r="2"/>
<circle clip-path="url(#clip432)" style="fill:#009af9; stroke:none; fill-opacity:0" cx="1780.3" cy="1486.45" r="2"/>
<circle clip-path="url(#clip432)" style="fill:#009af9; stroke:none; fill-opacity:0" cx="1780.3" cy="1486.45" r="2"/>
<circle clip-path="url(#clip432)" style="fill:#009af9; stroke:none; fill-opacity:0" cx="1780.3" cy="1486.45" r="2"/>
<circle clip-path="url(#clip432)" style="fill:#009af9; stroke:none; fill-opacity:0" cx="1780.3" cy="1486.45" r="2"/>
<circle clip-path="url(#clip432)" style="fill:#009af9; stroke:none; fill-opacity:0" cx="1780.3" cy="1486.45" r="2"/>
<circle clip-path="url(#clip432)" style="fill:#009af9; stroke:none; fill-opacity:0" cx="1780.3" cy="1486.45" r="2"/>
<circle clip-path="url(#clip432)" style="fill:#009af9; stroke:none; fill-opacity:0" cx="1780.3" cy="1486.45" r="2"/>
<circle clip-path="url(#clip432)" style="fill:#009af9; stroke:none; fill-opacity:0" cx="1780.3" cy="1486.45" r="2"/>
<circle clip-path="url(#clip432)" style="fill:#009af9; stroke:none; fill-opacity:0" cx="1780.3" cy="1486.45" r="2"/>
<circle clip-path="url(#clip432)" style="fill:#009af9; stroke:none; fill-opacity:0" cx="1780.3" cy="1486.45" r="2"/>
<circle clip-path="url(#clip432)" style="fill:#009af9; stroke:none; fill-opacity:0" cx="1780.3" cy="1486.45" r="2"/>
<circle clip-path="url(#clip432)" style="fill:#009af9; stroke:none; fill-opacity:0" cx="1780.3" cy="1486.45" r="2"/>
<circle clip-path="url(#clip432)" style="fill:#009af9; stroke:none; fill-opacity:0" cx="1780.3" cy="1486.45" r="2"/>
<circle clip-path="url(#clip432)" style="fill:#009af9; stroke:none; fill-opacity:0" cx="1780.3" cy="1486.45" r="2"/>
<circle clip-path="url(#clip432)" style="fill:#009af9; stroke:none; fill-opacity:0" cx="1780.3" cy="1486.45" r="2"/>
<circle clip-path="url(#clip432)" style="fill:#009af9; stroke:none; fill-opacity:0" cx="1780.3" cy="1486.45" r="2"/>
<circle clip-path="url(#clip432)" style="fill:#009af9; stroke:none; fill-opacity:0" cx="1780.3" cy="1486.45" r="2"/>
<circle clip-path="url(#clip432)" style="fill:#009af9; stroke:none; fill-opacity:0" cx="1780.3" cy="1486.45" r="2"/>
<circle clip-path="url(#clip432)" style="fill:#009af9; stroke:none; fill-opacity:0" cx="1780.3" cy="1280.85" r="2"/>
<path clip-path="url(#clip430)" d="M2001.58 198.898 L2278.07 198.898 L2278.07 95.2176 L2001.58 95.2176  Z" fill="#ffffff" fill-rule="evenodd" fill-opacity="1"/>
<polyline clip-path="url(#clip430)" style="stroke:#000000; stroke-linecap:round; stroke-linejoin:round; stroke-width:4; stroke-opacity:1; fill:none" points="2001.58,198.898 2278.07,198.898 2278.07,95.2176 2001.58,95.2176 2001.58,198.898 "/>
<path clip-path="url(#clip430)" d="M2026.48 167.794 L2175.85 167.794 L2175.85 126.322 L2026.48 126.322 L2026.48 167.794  Z" fill="#009af9" fill-rule="evenodd" fill-opacity="1"/>
<polyline clip-path="url(#clip430)" style="stroke:#000000; stroke-linecap:round; stroke-linejoin:round; stroke-width:4; stroke-opacity:1; fill:none" points="2026.48,167.794 2175.85,167.794 2175.85,126.322 2026.48,126.322 2026.48,167.794 "/>
<path clip-path="url(#clip430)" d="M2214.59 166.745 Q2212.78 171.375 2211.07 172.787 Q2209.36 174.199 2206.49 174.199 L2203.08 174.199 L2203.08 170.634 L2205.58 170.634 Q2207.34 170.634 2208.31 169.8 Q2209.29 168.967 2210.47 165.865 L2211.23 163.921 L2200.74 138.412 L2205.26 138.412 L2213.36 158.689 L2221.46 138.412 L2225.98 138.412 L2214.59 166.745 Z" fill="#000000" fill-rule="nonzero" fill-opacity="1" /><path clip-path="url(#clip430)" d="M2233.27 160.402 L2240.91 160.402 L2240.91 134.037 L2232.6 135.703 L2232.6 131.444 L2240.86 129.778 L2245.54 129.778 L2245.54 160.402 L2253.17 160.402 L2253.17 164.338 L2233.27 164.338 L2233.27 160.402 Z" fill="#000000" fill-rule="nonzero" fill-opacity="1" /></svg>
