<?xml version="1.0" encoding="utf-8"?>
<svg xmlns="http://www.w3.org/2000/svg" xmlns:xlink="http://www.w3.org/1999/xlink" width="600" height="400" viewBox="0 0 2400 1600">
<defs>
  <clipPath id="clip060">
    <rect x="0" y="0" width="2400" height="1600"/>
  </clipPath>
</defs>
<path clip-path="url(#clip060)" d="M0 1600 L2400 1600 L2400 8.88178e-14 L0 8.88178e-14  Z" fill="#ffffff" fill-rule="evenodd" fill-opacity="1"/>
<defs>
  <clipPath id="clip061">
    <rect x="480" y="0" width="1681" height="1600"/>
  </clipPath>
</defs>
<path clip-path="url(#clip060)" d="M210.746 1423.18 L2352.76 1423.18 L2352.76 47.2441 L210.746 47.2441  Z" fill="#ffffff" fill-rule="evenodd" fill-opacity="1"/>
<defs>
  <clipPath id="clip062">
    <rect x="210" y="47" width="2143" height="1377"/>
  </clipPath>
</defs>
<polyline clip-path="url(#clip062)" style="stroke:#000000; stroke-linecap:round; stroke-linejoin:round; stroke-width:2; stroke-opacity:0.1; fill:none" points="271.369,1423.18 271.369,47.2441 "/>
<polyline clip-path="url(#clip062)" style="stroke:#000000; stroke-linecap:round; stroke-linejoin:round; stroke-width:2; stroke-opacity:0.1; fill:none" points="776.56,1423.18 776.56,47.2441 "/>
<polyline clip-path="url(#clip062)" style="stroke:#000000; stroke-linecap:round; stroke-linejoin:round; stroke-width:2; stroke-opacity:0.1; fill:none" points="1281.75,1423.18 1281.75,47.2441 "/>
<polyline clip-path="url(#clip062)" style="stroke:#000000; stroke-linecap:round; stroke-linejoin:round; stroke-width:2; stroke-opacity:0.1; fill:none" points="1786.94,1423.18 1786.94,47.2441 "/>
<polyline clip-path="url(#clip062)" style="stroke:#000000; stroke-linecap:round; stroke-linejoin:round; stroke-width:2; stroke-opacity:0.1; fill:none" points="2292.13,1423.18 2292.13,47.2441 "/>
<polyline clip-path="url(#clip060)" style="stroke:#000000; stroke-linecap:round; stroke-linejoin:round; stroke-width:4; stroke-opacity:1; fill:none" points="210.746,1423.18 2352.76,1423.18 "/>
<polyline clip-path="url(#clip060)" style="stroke:#000000; stroke-linecap:round; stroke-linejoin:round; stroke-width:4; stroke-opacity:1; fill:none" points="271.369,1423.18 271.369,1404.28 "/>
<polyline clip-path="url(#clip060)" style="stroke:#000000; stroke-linecap:round; stroke-linejoin:round; stroke-width:4; stroke-opacity:1; fill:none" points="776.56,1423.18 776.56,1404.28 "/>
<polyline clip-path="url(#clip060)" style="stroke:#000000; stroke-linecap:round; stroke-linejoin:round; stroke-width:4; stroke-opacity:1; fill:none" points="1281.75,1423.18 1281.75,1404.28 "/>
<polyline clip-path="url(#clip060)" style="stroke:#000000; stroke-linecap:round; stroke-linejoin:round; stroke-width:4; stroke-opacity:1; fill:none" points="1786.94,1423.18 1786.94,1404.28 "/>
<polyline clip-path="url(#clip060)" style="stroke:#000000; stroke-linecap:round; stroke-linejoin:round; stroke-width:4; stroke-opacity:1; fill:none" points="2292.13,1423.18 2292.13,1404.28 "/>
<path clip-path="url(#clip060)" d="M248.753 1454.1 Q245.142 1454.1 243.313 1457.66 Q241.508 1461.2 241.508 1468.33 Q241.508 1475.44 243.313 1479.01 Q245.142 1482.55 248.753 1482.55 Q252.387 1482.55 254.193 1479.01 Q256.022 1475.44 256.022 1468.33 Q256.022 1461.2 254.193 1457.66 Q252.387 1454.1 248.753 1454.1 M248.753 1450.39 Q254.563 1450.39 257.619 1455 Q260.698 1459.58 260.698 1468.33 Q260.698 1477.06 257.619 1481.67 Q254.563 1486.25 248.753 1486.25 Q242.943 1486.25 239.864 1481.67 Q236.809 1477.06 236.809 1468.33 Q236.809 1459.58 239.864 1455 Q242.943 1450.39 248.753 1450.39 Z" fill="#000000" fill-rule="nonzero" fill-opacity="1" /><path clip-path="url(#clip060)" d="M268.915 1479.7 L273.799 1479.7 L273.799 1485.58 L268.915 1485.58 L268.915 1479.7 Z" fill="#000000" fill-rule="nonzero" fill-opacity="1" /><path clip-path="url(#clip060)" d="M293.984 1454.1 Q290.373 1454.1 288.545 1457.66 Q286.739 1461.2 286.739 1468.33 Q286.739 1475.44 288.545 1479.01 Q290.373 1482.55 293.984 1482.55 Q297.619 1482.55 299.424 1479.01 Q301.253 1475.44 301.253 1468.33 Q301.253 1461.2 299.424 1457.66 Q297.619 1454.1 293.984 1454.1 M293.984 1450.39 Q299.795 1450.39 302.85 1455 Q305.929 1459.58 305.929 1468.33 Q305.929 1477.06 302.85 1481.67 Q299.795 1486.25 293.984 1486.25 Q288.174 1486.25 285.096 1481.67 Q282.04 1477.06 282.04 1468.33 Q282.04 1459.58 285.096 1455 Q288.174 1450.39 293.984 1450.39 Z" fill="#000000" fill-rule="nonzero" fill-opacity="1" /><path clip-path="url(#clip060)" d="M748.296 1481.64 L764.616 1481.64 L764.616 1485.58 L742.671 1485.58 L742.671 1481.64 Q745.333 1478.89 749.917 1474.26 Q754.523 1469.61 755.704 1468.27 Q757.949 1465.74 758.829 1464.01 Q759.731 1462.25 759.731 1460.56 Q759.731 1457.8 757.787 1456.07 Q755.866 1454.33 752.764 1454.33 Q750.565 1454.33 748.111 1455.09 Q745.68 1455.86 742.903 1457.41 L742.903 1452.69 Q745.727 1451.55 748.18 1450.97 Q750.634 1450.39 752.671 1450.39 Q758.041 1450.39 761.236 1453.08 Q764.43 1455.77 764.43 1460.26 Q764.43 1462.39 763.62 1464.31 Q762.833 1466.2 760.727 1468.8 Q760.148 1469.47 757.046 1472.69 Q753.944 1475.88 748.296 1481.64 Z" fill="#000000" fill-rule="nonzero" fill-opacity="1" /><path clip-path="url(#clip060)" d="M774.43 1479.7 L779.315 1479.7 L779.315 1485.58 L774.43 1485.58 L774.43 1479.7 Z" fill="#000000" fill-rule="nonzero" fill-opacity="1" /><path clip-path="url(#clip060)" d="M789.546 1451.02 L807.902 1451.02 L807.902 1454.96 L793.828 1454.96 L793.828 1463.43 Q794.847 1463.08 795.865 1462.92 Q796.884 1462.73 797.902 1462.73 Q803.689 1462.73 807.069 1465.9 Q810.449 1469.08 810.449 1474.49 Q810.449 1480.07 806.976 1483.17 Q803.504 1486.25 797.185 1486.25 Q795.009 1486.25 792.74 1485.88 Q790.495 1485.51 788.088 1484.77 L788.088 1480.07 Q790.171 1481.2 792.393 1481.76 Q794.615 1482.32 797.092 1482.32 Q801.097 1482.32 803.435 1480.21 Q805.773 1478.1 805.773 1474.49 Q805.773 1470.88 803.435 1468.77 Q801.097 1466.67 797.092 1466.67 Q795.217 1466.67 793.342 1467.08 Q791.49 1467.5 789.546 1468.38 L789.546 1451.02 Z" fill="#000000" fill-rule="nonzero" fill-opacity="1" /><path clip-path="url(#clip060)" d="M1248.92 1451.02 L1267.27 1451.02 L1267.27 1454.96 L1253.2 1454.96 L1253.2 1463.43 Q1254.22 1463.08 1255.23 1462.92 Q1256.25 1462.73 1257.27 1462.73 Q1263.06 1462.73 1266.44 1465.9 Q1269.82 1469.08 1269.82 1474.49 Q1269.82 1480.07 1266.35 1483.17 Q1262.87 1486.25 1256.55 1486.25 Q1254.38 1486.25 1252.11 1485.88 Q1249.86 1485.51 1247.46 1484.77 L1247.46 1480.07 Q1249.54 1481.2 1251.76 1481.76 Q1253.98 1482.32 1256.46 1482.32 Q1260.47 1482.32 1262.8 1480.21 Q1265.14 1478.1 1265.14 1474.49 Q1265.14 1470.88 1262.8 1468.77 Q1260.47 1466.67 1256.46 1466.67 Q1254.59 1466.67 1252.71 1467.08 Q1250.86 1467.5 1248.92 1468.38 L1248.92 1451.02 Z" fill="#000000" fill-rule="nonzero" fill-opacity="1" /><path clip-path="url(#clip060)" d="M1279.03 1479.7 L1283.92 1479.7 L1283.92 1485.58 L1279.03 1485.58 L1279.03 1479.7 Z" fill="#000000" fill-rule="nonzero" fill-opacity="1" /><path clip-path="url(#clip060)" d="M1304.1 1454.1 Q1300.49 1454.1 1298.66 1457.66 Q1296.86 1461.2 1296.86 1468.33 Q1296.86 1475.44 1298.66 1479.01 Q1300.49 1482.55 1304.1 1482.55 Q1307.73 1482.55 1309.54 1479.01 Q1311.37 1475.44 1311.37 1468.33 Q1311.37 1461.2 1309.54 1457.66 Q1307.73 1454.1 1304.1 1454.1 M1304.1 1450.39 Q1309.91 1450.39 1312.97 1455 Q1316.04 1459.58 1316.04 1468.33 Q1316.04 1477.06 1312.97 1481.67 Q1309.91 1486.25 1304.1 1486.25 Q1298.29 1486.25 1295.21 1481.67 Q1292.16 1477.06 1292.16 1468.33 Q1292.16 1459.58 1295.21 1455 Q1298.29 1450.39 1304.1 1450.39 Z" fill="#000000" fill-rule="nonzero" fill-opacity="1" /><path clip-path="url(#clip060)" d="M1753.26 1451.02 L1775.48 1451.02 L1775.48 1453.01 L1762.94 1485.58 L1758.05 1485.58 L1769.86 1454.96 L1753.26 1454.96 L1753.26 1451.02 Z" fill="#000000" fill-rule="nonzero" fill-opacity="1" /><path clip-path="url(#clip060)" d="M1784.6 1479.7 L1789.49 1479.7 L1789.49 1485.58 L1784.6 1485.58 L1784.6 1479.7 Z" fill="#000000" fill-rule="nonzero" fill-opacity="1" /><path clip-path="url(#clip060)" d="M1799.72 1451.02 L1818.08 1451.02 L1818.08 1454.96 L1804 1454.96 L1804 1463.43 Q1805.02 1463.08 1806.04 1462.92 Q1807.06 1462.73 1808.08 1462.73 Q1813.86 1462.73 1817.24 1465.9 Q1820.62 1469.08 1820.62 1474.49 Q1820.62 1480.07 1817.15 1483.17 Q1813.68 1486.25 1807.36 1486.25 Q1805.18 1486.25 1802.91 1485.88 Q1800.67 1485.51 1798.26 1484.77 L1798.26 1480.07 Q1800.34 1481.2 1802.57 1481.76 Q1804.79 1482.32 1807.27 1482.32 Q1811.27 1482.32 1813.61 1480.21 Q1815.95 1478.1 1815.95 1474.49 Q1815.95 1470.88 1813.61 1468.77 Q1811.27 1466.67 1807.27 1466.67 Q1805.39 1466.67 1803.52 1467.08 Q1801.66 1467.5 1799.72 1468.38 L1799.72 1451.02 Z" fill="#000000" fill-rule="nonzero" fill-opacity="1" /><path clip-path="url(#clip060)" d="M2244.2 1481.64 L2251.84 1481.64 L2251.84 1455.28 L2243.53 1456.95 L2243.53 1452.69 L2251.8 1451.02 L2256.47 1451.02 L2256.47 1481.64 L2264.11 1481.64 L2264.11 1485.58 L2244.2 1485.58 L2244.2 1481.64 Z" fill="#000000" fill-rule="nonzero" fill-opacity="1" /><path clip-path="url(#clip060)" d="M2283.56 1454.1 Q2279.95 1454.1 2278.12 1457.66 Q2276.31 1461.2 2276.31 1468.33 Q2276.31 1475.44 2278.12 1479.01 Q2279.95 1482.55 2283.56 1482.55 Q2287.19 1482.55 2289 1479.01 Q2290.83 1475.44 2290.83 1468.33 Q2290.83 1461.2 2289 1457.66 Q2287.19 1454.1 2283.56 1454.1 M2283.56 1450.39 Q2289.37 1450.39 2292.42 1455 Q2295.5 1459.58 2295.5 1468.33 Q2295.5 1477.06 2292.42 1481.67 Q2289.37 1486.25 2283.56 1486.25 Q2277.75 1486.25 2274.67 1481.67 Q2271.61 1477.06 2271.61 1468.33 Q2271.61 1459.58 2274.67 1455 Q2277.75 1450.39 2283.56 1450.39 Z" fill="#000000" fill-rule="nonzero" fill-opacity="1" /><path clip-path="url(#clip060)" d="M2303.72 1479.7 L2308.6 1479.7 L2308.6 1485.58 L2303.72 1485.58 L2303.72 1479.7 Z" fill="#000000" fill-rule="nonzero" fill-opacity="1" /><path clip-path="url(#clip060)" d="M2328.79 1454.1 Q2325.18 1454.1 2323.35 1457.66 Q2321.54 1461.2 2321.54 1468.33 Q2321.54 1475.44 2323.35 1479.01 Q2325.18 1482.55 2328.79 1482.55 Q2332.42 1482.55 2334.23 1479.01 Q2336.06 1475.44 2336.06 1468.33 Q2336.06 1461.2 2334.23 1457.66 Q2332.42 1454.1 2328.79 1454.1 M2328.79 1450.39 Q2334.6 1450.39 2337.65 1455 Q2340.73 1459.58 2340.73 1468.33 Q2340.73 1477.06 2337.65 1481.67 Q2334.6 1486.25 2328.79 1486.25 Q2322.98 1486.25 2319.9 1481.67 Q2316.84 1477.06 2316.84 1468.33 Q2316.84 1459.58 2319.9 1455 Q2322.98 1450.39 2328.79 1450.39 Z" fill="#000000" fill-rule="nonzero" fill-opacity="1" /><path clip-path="url(#clip060)" d="M1280.81 1522.27 L1280.81 1532.4 L1292.87 1532.4 L1292.87 1536.95 L1280.81 1536.95 L1280.81 1556.3 Q1280.81 1560.66 1281.99 1561.9 Q1283.2 1563.14 1286.86 1563.14 L1292.87 1563.14 L1292.87 1568.04 L1286.86 1568.04 Q1280.08 1568.04 1277.5 1565.53 Q1274.92 1562.98 1274.92 1556.3 L1274.92 1536.95 L1270.63 1536.95 L1270.63 1532.4 L1274.92 1532.4 L1274.92 1522.27 L1280.81 1522.27 Z" fill="#000000" fill-rule="nonzero" fill-opacity="1" /><polyline clip-path="url(#clip062)" style="stroke:#000000; stroke-linecap:round; stroke-linejoin:round; stroke-width:2; stroke-opacity:0.1; fill:none" points="210.746,1306.36 2352.76,1306.36 "/>
<polyline clip-path="url(#clip062)" style="stroke:#000000; stroke-linecap:round; stroke-linejoin:round; stroke-width:2; stroke-opacity:0.1; fill:none" points="210.746,1026.28 2352.76,1026.28 "/>
<polyline clip-path="url(#clip062)" style="stroke:#000000; stroke-linecap:round; stroke-linejoin:round; stroke-width:2; stroke-opacity:0.1; fill:none" points="210.746,746.21 2352.76,746.21 "/>
<polyline clip-path="url(#clip062)" style="stroke:#000000; stroke-linecap:round; stroke-linejoin:round; stroke-width:2; stroke-opacity:0.1; fill:none" points="210.746,466.136 2352.76,466.136 "/>
<polyline clip-path="url(#clip062)" style="stroke:#000000; stroke-linecap:round; stroke-linejoin:round; stroke-width:2; stroke-opacity:0.1; fill:none" points="210.746,186.063 2352.76,186.063 "/>
<polyline clip-path="url(#clip060)" style="stroke:#000000; stroke-linecap:round; stroke-linejoin:round; stroke-width:4; stroke-opacity:1; fill:none" points="210.746,1423.18 210.746,47.2441 "/>
<polyline clip-path="url(#clip060)" style="stroke:#000000; stroke-linecap:round; stroke-linejoin:round; stroke-width:4; stroke-opacity:1; fill:none" points="210.746,1306.36 229.644,1306.36 "/>
<polyline clip-path="url(#clip060)" style="stroke:#000000; stroke-linecap:round; stroke-linejoin:round; stroke-width:4; stroke-opacity:1; fill:none" points="210.746,1026.28 229.644,1026.28 "/>
<polyline clip-path="url(#clip060)" style="stroke:#000000; stroke-linecap:round; stroke-linejoin:round; stroke-width:4; stroke-opacity:1; fill:none" points="210.746,746.21 229.644,746.21 "/>
<polyline clip-path="url(#clip060)" style="stroke:#000000; stroke-linecap:round; stroke-linejoin:round; stroke-width:4; stroke-opacity:1; fill:none" points="210.746,466.136 229.644,466.136 "/>
<polyline clip-path="url(#clip060)" style="stroke:#000000; stroke-linecap:round; stroke-linejoin:round; stroke-width:4; stroke-opacity:1; fill:none" points="210.746,186.063 229.644,186.063 "/>
<path clip-path="url(#clip060)" d="M114.26 1306.81 L143.936 1306.81 L143.936 1310.74 L114.26 1310.74 L114.26 1306.81 Z" fill="#000000" fill-rule="nonzero" fill-opacity="1" /><path clip-path="url(#clip060)" d="M154.839 1319.7 L162.477 1319.7 L162.477 1293.34 L154.167 1295 L154.167 1290.74 L162.431 1289.08 L167.107 1289.08 L167.107 1319.7 L174.746 1319.7 L174.746 1323.64 L154.839 1323.64 L154.839 1319.7 Z" fill="#000000" fill-rule="nonzero" fill-opacity="1" /><path clip-path="url(#clip060)" d="M162.802 1012.08 Q159.19 1012.08 157.362 1015.65 Q155.556 1019.19 155.556 1026.32 Q155.556 1033.42 157.362 1036.99 Q159.19 1040.53 162.802 1040.53 Q166.436 1040.53 168.241 1036.99 Q170.07 1033.42 170.07 1026.32 Q170.07 1019.19 168.241 1015.65 Q166.436 1012.08 162.802 1012.08 M162.802 1008.38 Q168.612 1008.38 171.667 1012.99 Q174.746 1017.57 174.746 1026.32 Q174.746 1035.05 171.667 1039.65 Q168.612 1044.23 162.802 1044.23 Q156.991 1044.23 153.913 1039.65 Q150.857 1035.05 150.857 1026.32 Q150.857 1017.57 153.913 1012.99 Q156.991 1008.38 162.802 1008.38 Z" fill="#000000" fill-rule="nonzero" fill-opacity="1" /><path clip-path="url(#clip060)" d="M154.839 759.555 L162.477 759.555 L162.477 733.189 L154.167 734.856 L154.167 730.597 L162.431 728.93 L167.107 728.93 L167.107 759.555 L174.746 759.555 L174.746 763.49 L154.839 763.49 L154.839 759.555 Z" fill="#000000" fill-rule="nonzero" fill-opacity="1" /><path clip-path="url(#clip060)" d="M158.427 479.481 L174.746 479.481 L174.746 483.416 L152.802 483.416 L152.802 479.481 Q155.464 476.727 160.047 472.097 Q164.653 467.444 165.834 466.102 Q168.079 463.578 168.959 461.842 Q169.862 460.083 169.862 458.393 Q169.862 455.639 167.917 453.903 Q165.996 452.167 162.894 452.167 Q160.695 452.167 158.241 452.93 Q155.811 453.694 153.033 455.245 L153.033 450.523 Q155.857 449.389 158.311 448.81 Q160.765 448.231 162.802 448.231 Q168.172 448.231 171.366 450.917 Q174.561 453.602 174.561 458.092 Q174.561 460.222 173.751 462.143 Q172.964 464.041 170.857 466.634 Q170.278 467.305 167.177 470.523 Q164.075 473.717 158.427 479.481 Z" fill="#000000" fill-rule="nonzero" fill-opacity="1" /><path clip-path="url(#clip060)" d="M167.616 184.709 Q170.973 185.426 172.848 187.695 Q174.746 189.963 174.746 193.296 Q174.746 198.412 171.227 201.213 Q167.709 204.014 161.227 204.014 Q159.052 204.014 156.737 203.574 Q154.445 203.158 151.991 202.301 L151.991 197.787 Q153.936 198.921 156.251 199.5 Q158.565 200.079 161.089 200.079 Q165.487 200.079 167.778 198.343 Q170.093 196.607 170.093 193.296 Q170.093 190.241 167.94 188.528 Q165.811 186.792 161.991 186.792 L157.964 186.792 L157.964 182.949 L162.177 182.949 Q165.626 182.949 167.454 181.584 Q169.283 180.195 169.283 177.602 Q169.283 174.94 167.385 173.528 Q165.51 172.093 161.991 172.093 Q160.07 172.093 157.871 172.51 Q155.672 172.926 153.033 173.806 L153.033 169.639 Q155.695 168.898 158.01 168.528 Q160.348 168.158 162.408 168.158 Q167.732 168.158 170.834 170.588 Q173.936 172.996 173.936 177.116 Q173.936 179.986 172.292 181.977 Q170.649 183.945 167.616 184.709 Z" fill="#000000" fill-rule="nonzero" fill-opacity="1" /><path clip-path="url(#clip060)" d="M20.8447 948.702 Q20.8447 955.704 26.0645 959.842 Q31.2844 963.948 40.2919 963.948 Q49.2675 963.948 54.4874 959.842 Q59.7073 955.704 59.7073 948.702 Q59.7073 941.7 54.4874 937.626 Q49.2675 933.52 40.2919 933.52 Q31.2844 933.52 26.0645 937.626 Q20.8447 941.7 20.8447 948.702 M15.6248 948.702 Q15.6248 938.708 22.3406 932.724 Q29.0246 926.74 40.2919 926.74 Q51.5274 926.74 58.2432 932.724 Q64.9272 938.708 64.9272 948.702 Q64.9272 958.728 58.2432 964.743 Q51.5592 970.727 40.2919 970.727 Q29.0246 970.727 22.3406 964.743 Q15.6248 958.728 15.6248 948.702 Z" fill="#000000" fill-rule="nonzero" fill-opacity="1" /><path clip-path="url(#clip060)" d="M49.9359 917.542 L28.3562 917.542 L28.3562 911.685 L49.7131 911.685 Q54.7739 911.685 57.3202 909.712 Q59.8346 907.739 59.8346 903.792 Q59.8346 899.049 56.8109 896.312 Q53.7872 893.543 48.5673 893.543 L28.3562 893.543 L28.3562 887.687 L64.0042 887.687 L64.0042 893.543 L58.5296 893.543 Q61.7762 895.676 63.3676 898.508 Q64.9272 901.309 64.9272 905.033 Q64.9272 911.176 61.1078 914.359 Q57.2883 917.542 49.9359 917.542 M27.4968 902.805 L27.4968 902.805 Z" fill="#000000" fill-rule="nonzero" fill-opacity="1" /><path clip-path="url(#clip060)" d="M18.2347 869.831 L28.3562 869.831 L28.3562 857.768 L32.9077 857.768 L32.9077 869.831 L52.2594 869.831 Q56.6199 869.831 57.8613 868.653 Q59.1026 867.444 59.1026 863.783 L59.1026 857.768 L64.0042 857.768 L64.0042 863.783 Q64.0042 870.563 61.4897 873.141 Q58.9434 875.719 52.2594 875.719 L32.9077 875.719 L32.9077 880.016 L28.3562 880.016 L28.3562 875.719 L18.2347 875.719 L18.2347 869.831 Z" fill="#000000" fill-rule="nonzero" fill-opacity="1" /><path clip-path="url(#clip060)" d="M58.657 844.4 L77.5631 844.4 L77.5631 850.288 L28.3562 850.288 L28.3562 844.4 L33.7671 844.4 Q30.5842 842.554 29.0564 839.753 Q27.4968 836.92 27.4968 833.005 Q27.4968 826.512 32.6531 822.47 Q37.8093 818.396 46.212 818.396 Q54.6147 818.396 59.771 822.47 Q64.9272 826.512 64.9272 833.005 Q64.9272 836.92 63.3994 839.753 Q61.8398 842.554 58.657 844.4 M46.212 824.475 Q39.7508 824.475 36.0905 827.149 Q32.3984 829.79 32.3984 834.437 Q32.3984 839.084 36.0905 841.758 Q39.7508 844.4 46.212 844.4 Q52.6732 844.4 56.3653 841.758 Q60.0256 839.084 60.0256 834.437 Q60.0256 829.79 56.3653 827.149 Q52.6732 824.475 46.212 824.475 Z" fill="#000000" fill-rule="nonzero" fill-opacity="1" /><path clip-path="url(#clip060)" d="M49.9359 809.293 L28.3562 809.293 L28.3562 803.436 L49.7131 803.436 Q54.7739 803.436 57.3202 801.463 Q59.8346 799.49 59.8346 795.543 Q59.8346 790.801 56.8109 788.063 Q53.7872 785.294 48.5673 785.294 L28.3562 785.294 L28.3562 779.438 L64.0042 779.438 L64.0042 785.294 L58.5296 785.294 Q61.7762 787.427 63.3676 790.259 Q64.9272 793.06 64.9272 796.784 Q64.9272 802.927 61.1078 806.11 Q57.2883 809.293 49.9359 809.293 M27.4968 794.556 L27.4968 794.556 Z" fill="#000000" fill-rule="nonzero" fill-opacity="1" /><path clip-path="url(#clip060)" d="M18.2347 761.582 L28.3562 761.582 L28.3562 749.519 L32.9077 749.519 L32.9077 761.582 L52.2594 761.582 Q56.6199 761.582 57.8613 760.404 Q59.1026 759.195 59.1026 755.534 L59.1026 749.519 L64.0042 749.519 L64.0042 755.534 Q64.0042 762.314 61.4897 764.892 Q58.9434 767.47 52.2594 767.47 L32.9077 767.47 L32.9077 771.767 L28.3562 771.767 L28.3562 767.47 L18.2347 767.47 L18.2347 761.582 Z" fill="#000000" fill-rule="nonzero" fill-opacity="1" /><path clip-path="url(#clip060)" d="M21.7677 735.132 L39.6235 735.132 L39.6235 727.048 Q39.6235 722.56 37.3 720.109 Q34.9765 717.659 30.6797 717.659 Q26.4147 717.659 24.0912 720.109 Q21.7677 722.56 21.7677 727.048 L21.7677 735.132 M16.4842 741.562 L16.4842 727.048 Q16.4842 719.059 20.1126 714.985 Q23.7092 710.879 30.6797 710.879 Q37.7138 710.879 41.3104 714.985 Q44.907 719.059 44.907 727.048 L44.907 735.132 L64.0042 735.132 L64.0042 741.562 L16.4842 741.562 Z" fill="#000000" fill-rule="nonzero" fill-opacity="1" /><path clip-path="url(#clip060)" d="M32.4621 691.018 Q32.4621 695.729 36.1542 698.466 Q39.8145 701.203 46.212 701.203 Q52.6095 701.203 56.3017 698.498 Q59.9619 695.761 59.9619 691.018 Q59.9619 686.339 56.2698 683.602 Q52.5777 680.865 46.212 680.865 Q39.8781 680.865 36.186 683.602 Q32.4621 686.339 32.4621 691.018 M27.4968 691.018 Q27.4968 683.379 32.4621 679.019 Q37.4273 674.658 46.212 674.658 Q54.9649 674.658 59.9619 679.019 Q64.9272 683.379 64.9272 691.018 Q64.9272 698.689 59.9619 703.049 Q54.9649 707.378 46.212 707.378 Q37.4273 707.378 32.4621 703.049 Q27.4968 698.689 27.4968 691.018 Z" fill="#000000" fill-rule="nonzero" fill-opacity="1" /><path clip-path="url(#clip060)" d="M29.4065 642.225 L34.9447 642.225 Q33.6716 644.708 33.035 647.381 Q32.3984 650.055 32.3984 652.919 Q32.3984 657.28 33.7352 659.476 Q35.072 661.64 37.7456 661.64 Q39.7826 661.64 40.9603 660.081 Q42.1061 658.521 43.1565 653.81 L43.6021 651.805 Q44.9389 645.567 47.3897 642.957 Q49.8086 640.315 54.1691 640.315 Q59.1344 640.315 62.0308 644.262 Q64.9272 648.177 64.9272 655.052 Q64.9272 657.916 64.3543 661.036 Q63.8132 664.123 62.6992 667.56 L56.6518 667.56 Q58.3387 664.314 59.198 661.163 Q60.0256 658.012 60.0256 654.924 Q60.0256 650.787 58.6251 648.559 Q57.1929 646.331 54.6147 646.331 Q52.2276 646.331 50.9545 647.954 Q49.6813 649.545 48.5037 654.988 L48.0262 657.025 Q46.8804 662.468 44.5251 664.887 Q42.138 667.306 38.0002 667.306 Q32.9713 667.306 30.2341 663.741 Q27.4968 660.176 27.4968 653.62 Q27.4968 650.373 27.9743 647.508 Q28.4517 644.644 29.4065 642.225 Z" fill="#000000" fill-rule="nonzero" fill-opacity="1" /><path clip-path="url(#clip060)" d="M28.3562 630.989 L28.3562 625.133 L64.0042 625.133 L64.0042 630.989 L28.3562 630.989 M14.479 630.989 L14.479 625.133 L21.895 625.133 L21.895 630.989 L14.479 630.989 Z" fill="#000000" fill-rule="nonzero" fill-opacity="1" /><path clip-path="url(#clip060)" d="M18.2347 607.086 L28.3562 607.086 L28.3562 595.023 L32.9077 595.023 L32.9077 607.086 L52.2594 607.086 Q56.6199 607.086 57.8613 605.909 Q59.1026 604.699 59.1026 601.039 L59.1026 595.023 L64.0042 595.023 L64.0042 601.039 Q64.0042 607.818 61.4897 610.396 Q58.9434 612.974 52.2594 612.974 L32.9077 612.974 L32.9077 617.271 L28.3562 617.271 L28.3562 612.974 L18.2347 612.974 L18.2347 607.086 Z" fill="#000000" fill-rule="nonzero" fill-opacity="1" /><path clip-path="url(#clip060)" d="M28.3562 587.321 L28.3562 581.464 L64.0042 581.464 L64.0042 587.321 L28.3562 587.321 M14.479 587.321 L14.479 581.464 L21.895 581.464 L21.895 587.321 L14.479 587.321 Z" fill="#000000" fill-rule="nonzero" fill-opacity="1" /><path clip-path="url(#clip060)" d="M32.4621 555.397 Q32.4621 560.107 36.1542 562.845 Q39.8145 565.582 46.212 565.582 Q52.6095 565.582 56.3017 562.876 Q59.9619 560.139 59.9619 555.397 Q59.9619 550.718 56.2698 547.981 Q52.5777 545.243 46.212 545.243 Q39.8781 545.243 36.186 547.981 Q32.4621 550.718 32.4621 555.397 M27.4968 555.397 Q27.4968 547.758 32.4621 543.397 Q37.4273 539.037 46.212 539.037 Q54.9649 539.037 59.9619 543.397 Q64.9272 547.758 64.9272 555.397 Q64.9272 563.067 59.9619 567.428 Q54.9649 571.757 46.212 571.757 Q37.4273 571.757 32.4621 567.428 Q27.4968 563.067 27.4968 555.397 Z" fill="#000000" fill-rule="nonzero" fill-opacity="1" /><path clip-path="url(#clip060)" d="M42.4881 499.697 L64.0042 499.697 L64.0042 505.553 L42.679 505.553 Q37.6183 505.553 35.1038 507.527 Q32.5894 509.5 32.5894 513.447 Q32.5894 518.189 35.6131 520.926 Q38.6368 523.664 43.8567 523.664 L64.0042 523.664 L64.0042 529.552 L28.3562 529.552 L28.3562 523.664 L33.8944 523.664 Q30.6797 521.563 29.0883 518.73 Q27.4968 515.866 27.4968 512.142 Q27.4968 505.999 31.3163 502.848 Q35.1038 499.697 42.4881 499.697 Z" fill="#000000" fill-rule="nonzero" fill-opacity="1" /><polyline clip-path="url(#clip062)" style="stroke:#009af9; stroke-linecap:round; stroke-linejoin:round; stroke-width:4; stroke-opacity:1; fill:none" points="271.369,924.455 291.577,924.747 311.784,925.616 331.992,927.045 352.199,929.004 372.407,931.457 392.615,934.352 412.822,937.632 433.03,941.232 453.238,945.079 473.445,949.097 493.653,953.206 513.861,957.322 534.068,961.364 554.276,965.56 574.483,969.827 594.691,974.078 614.899,978.23 635.106,982.198 655.314,985.904 675.522,989.273 695.729,992.238 715.937,994.739 736.145,996.728 756.352,998.163 776.56,999.016 796.768,999.271 816.975,998.922 837.183,997.975 857.39,996.451 877.598,994.379 897.806,991.801 918.013,988.768 938.221,985.341 958.429,981.589 978.636,977.587 998.844,973.414 1019.05,969.155 1039.26,964.894 1059.47,960.716 1079.67,956.397 1099.88,952.021 1120.09,947.678 1140.3,943.453 1160.51,939.431 1180.71,935.692 1200.92,932.313 1221.13,929.359 1241.34,926.89 1261.54,924.955 1281.75,923.594 1301.96,922.832 1322.17,922.687 1342.37,923.16 1362.58,924.242 1382.79,925.911 1403,928.134 1423.2,930.867 1443.41,934.054 1463.62,937.633 1483.83,941.531 1504.03,945.671 1524.24,949.97 1544.45,954.341 1564.66,958.698 1584.87,962.953 1605.07,967.33 1625.28,971.742 1645.49,976.101 1665.7,980.32 1685.9,984.313 1706.11,988.001 1726.32,991.311 1746.53,994.176 1766.73,996.539 1786.94,998.353 1807.15,999.581 1827.36,1000.2 1847.56,1000.19 1867.77,999.567 1887.98,998.33 1908.19,996.508 1928.4,994.138 1948.6,991.265 1968.81,987.949 1989.02,984.256 2009.23,980.259 2029.43,976.038 2049.64,971.677 2069.85,967.265 2090.06,962.889 2110.26,958.636 2130.47,954.283 2150.68,949.917 2170.89,945.624 2191.09,941.491 2211.3,937.601 2231.51,934.03 2251.72,930.851 2271.93,928.128 2292.13,925.914 "/>
<polyline clip-path="url(#clip062)" style="stroke:#e26f46; stroke-linecap:round; stroke-linejoin:round; stroke-width:4; stroke-opacity:1; fill:none" points="271.369,583.608 291.577,585.63 311.784,591.656 331.992,601.565 352.199,615.16 372.407,632.168 392.615,652.248 412.822,675.001 433.03,699.97 453.238,726.655 473.445,754.525 493.653,783.02 513.861,811.571 534.068,839.607 554.276,868.713 574.483,898.306 594.691,927.794 614.899,956.587 635.106,984.111 655.314,1009.81 675.522,1033.18 695.729,1053.75 715.937,1071.1 736.145,1084.89 756.352,1094.84 776.56,1100.76 796.768,1102.53 816.975,1100.11 837.183,1093.54 857.39,1082.97 877.598,1068.6 897.806,1050.72 918.013,1029.68 938.221,1005.91 958.429,979.89 978.636,952.13 998.844,923.188 1019.05,893.644 1039.26,864.089 1059.47,835.113 1079.67,805.152 1099.88,774.804 1120.09,744.676 1140.3,715.372 1160.51,687.476 1180.71,661.547 1200.92,638.104 1221.13,617.615 1241.34,600.491 1261.54,587.073 1281.75,577.63 1301.96,572.35 1322.17,571.341 1342.37,574.621 1362.58,582.125 1382.79,593.702 1403,609.123 1423.2,628.077 1443.41,650.186 1463.62,675.008 1483.83,702.047 1504.03,730.76 1524.24,760.576 1544.45,790.896 1564.66,821.114 1584.87,850.627 1605.07,880.988 1625.28,911.592 1645.49,941.825 1665.7,971.082 1685.9,998.78 1706.11,1024.36 1726.32,1047.32 1746.53,1067.19 1766.73,1083.58 1786.94,1096.16 1807.15,1104.68 1827.36,1108.97 1847.56,1108.94 1867.77,1104.59 1887.98,1096.01 1908.19,1083.37 1928.4,1066.92 1948.6,1047 1968.81,1024 1989.02,998.384 2009.23,970.659 2029.43,941.383 2049.64,911.14 2069.85,880.536 2090.06,850.182 2110.26,820.687 2130.47,790.494 2150.68,760.207 2170.89,730.433 2191.09,701.767 2211.3,674.782 2231.51,650.018 2251.72,627.969 2271.93,609.078 2292.13,593.722 "/>
<polyline clip-path="url(#clip062)" style="stroke:#3da44d; stroke-linecap:round; stroke-linejoin:round; stroke-width:4; stroke-opacity:1; fill:none" points="271.369,1351.29 291.577,1346.42 311.784,1331.91 331.992,1308.05 352.199,1275.31 372.407,1234.36 392.615,1186 412.822,1131.21 433.03,1071.09 453.238,1006.82 473.445,939.712 493.653,871.094 513.861,802.34 534.068,734.826 554.276,664.738 574.483,593.476 594.691,522.467 614.899,453.129 635.106,386.851 655.314,324.957 675.522,268.686 695.729,219.163 715.937,177.378 736.145,144.167 756.352,120.194 776.56,105.939 796.768,101.687 816.975,107.523 837.183,123.33 857.39,148.792 877.598,183.399 897.806,226.461 918.013,277.114 938.221,334.347 958.429,397.015 978.636,463.864 998.844,533.557 1019.05,604.701 1039.26,675.872 1059.47,745.648 1079.67,817.797 1099.88,890.878 1120.09,963.427 1140.3,1034 1160.51,1101.17 1180.71,1163.61 1200.92,1220.06 1221.13,1269.4 1241.34,1310.64 1261.54,1342.95 1281.75,1365.69 1301.96,1378.4 1322.17,1380.83 1342.37,1372.94 1362.58,1354.87 1382.79,1326.98 1403,1289.85 1423.2,1244.21 1443.41,1190.97 1463.62,1131.19 1483.83,1066.08 1504.03,996.938 1524.24,925.141 1544.45,852.128 1564.66,779.36 1584.87,708.291 1605.07,635.178 1625.28,561.482 1645.49,488.679 1665.7,418.224 1685.9,351.526 1706.11,289.919 1726.32,234.636 1746.53,186.781 1766.73,147.312 1786.94,117.019 1807.15,96.5064 1827.36,86.1857 1847.56,86.2629 1867.77,96.7364 1887.98,117.397 1908.19,147.831 1928.4,187.43 1948.6,235.402 1968.81,290.788 1989.02,352.479 2009.23,419.243 2029.43,489.743 2049.64,562.57 2069.85,636.267 2090.06,709.361 2110.26,780.389 2130.47,853.096 2150.68,926.028 2170.89,997.726 2191.09,1066.76 2211.3,1131.74 2231.51,1191.37 2251.72,1244.47 2271.93,1289.96 2292.13,1326.94 "/>
<polyline clip-path="url(#clip062)" style="stroke:#c271d2; stroke-linecap:round; stroke-linejoin:round; stroke-width:4; stroke-opacity:1; fill:none" points="271.369,998.227 291.577,997.935 311.784,997.066 331.992,995.638 352.199,993.678 372.407,991.226 392.615,988.33 412.822,985.05 433.03,981.45 453.238,977.603 473.445,973.585 493.653,969.476 513.861,965.36 534.068,961.318 554.276,957.122 574.483,952.855 594.691,948.604 614.899,944.452 635.106,940.484 655.314,936.779 675.522,933.41 695.729,930.445 715.937,927.943 736.145,925.954 756.352,924.519 776.56,923.666 796.768,923.411 816.975,923.761 837.183,924.707 857.39,926.231 877.598,928.303 897.806,930.881 918.013,933.914 938.221,937.341 958.429,941.093 978.636,945.095 998.844,949.268 1019.05,953.527 1039.26,957.788 1059.47,961.966 1079.67,966.286 1099.88,970.661 1120.09,975.005 1140.3,979.23 1160.51,983.251 1180.71,986.99 1200.92,990.37 1221.13,993.324 1241.34,995.793 1261.54,997.727 1281.75,999.089 1301.96,999.85 1322.17,999.995 1342.37,999.522 1362.58,998.441 1382.79,996.771 1403,994.548 1423.2,991.815 1443.41,988.628 1463.62,985.049 1483.83,981.151 1504.03,977.011 1524.24,972.712 1544.45,968.341 1564.66,963.984 1584.87,959.729 1605.07,955.352 1625.28,950.94 1645.49,946.581 1665.7,942.363 1685.9,938.369 1706.11,934.681 1726.32,931.371 1746.53,928.506 1766.73,926.143 1786.94,924.329 1807.15,923.101 1827.36,922.483 1847.56,922.488 1867.77,923.115 1887.98,924.352 1908.19,926.174 1928.4,928.545 1948.6,931.417 1968.81,934.733 1989.02,938.426 2009.23,942.424 2029.43,946.645 2049.64,951.005 2069.85,955.417 2090.06,959.793 2110.26,964.046 2130.47,968.399 2150.68,972.765 2170.89,977.058 2191.09,981.191 2211.3,985.082 2231.51,988.652 2251.72,991.831 2271.93,994.554 2292.13,996.768 "/>
<polyline clip-path="url(#clip062)" style="stroke:#ac8d18; stroke-linecap:round; stroke-linejoin:round; stroke-width:4; stroke-opacity:1; fill:none" points="271.369,1095.29 291.577,1093.26 311.784,1087.24 331.992,1077.33 352.199,1063.73 372.407,1046.73 392.615,1026.65 412.822,1003.89 433.03,978.925 453.238,952.239 473.445,924.37 493.653,895.875 513.861,867.323 534.068,839.287 554.276,810.181 574.483,780.589 594.691,751.101 614.899,722.307 635.106,694.784 655.314,669.081 675.522,645.714 695.729,625.148 715.937,607.796 736.145,594.005 756.352,584.05 776.56,578.13 796.768,576.364 816.975,578.788 837.183,585.352 857.39,595.925 877.598,610.297 897.806,628.179 918.013,649.214 938.221,672.981 958.429,699.005 978.636,726.765 998.844,755.706 1019.05,785.25 1039.26,814.805 1059.47,843.781 1079.67,873.742 1099.88,904.09 1120.09,934.218 1140.3,963.523 1160.51,991.418 1180.71,1017.35 1200.92,1040.79 1221.13,1061.28 1241.34,1078.4 1261.54,1091.82 1281.75,1101.26 1301.96,1106.54 1322.17,1107.55 1342.37,1104.27 1362.58,1096.77 1382.79,1085.19 1403,1069.77 1423.2,1050.82 1443.41,1028.71 1463.62,1003.89 1483.83,976.848 1504.03,948.134 1524.24,918.319 1544.45,887.999 1564.66,857.78 1584.87,828.268 1605.07,797.906 1625.28,767.303 1645.49,737.07 1665.7,707.812 1685.9,680.114 1706.11,654.531 1726.32,631.573 1746.53,611.701 1766.73,595.311 1786.94,582.731 1807.15,574.213 1827.36,569.927 1847.56,569.959 1867.77,574.308 1887.98,582.888 1908.19,595.526 1928.4,611.97 1948.6,631.892 1968.81,654.892 1989.02,680.51 2009.23,708.235 2029.43,737.512 2049.64,767.754 2069.85,798.359 2090.06,828.712 2110.26,858.208 2130.47,888.401 2150.68,918.687 2170.89,948.461 2191.09,977.127 2211.3,1004.11 2231.51,1028.88 2251.72,1050.93 2271.93,1069.82 2292.13,1085.17 "/>
<polyline clip-path="url(#clip062)" style="stroke:#00a9ad; stroke-linecap:round; stroke-linejoin:round; stroke-width:4; stroke-opacity:1; fill:none" points="271.369,119.13 291.577,124 311.784,138.511 331.992,162.373 352.199,195.11 372.407,236.066 392.615,284.422 412.822,339.212 433.03,399.339 453.238,463.6 473.445,530.712 493.653,599.33 513.861,668.084 534.068,735.598 554.276,805.686 574.483,876.948 594.691,947.957 614.899,1017.29 635.106,1083.57 655.314,1145.47 675.522,1201.74 695.729,1251.26 715.937,1293.05 736.145,1326.26 756.352,1350.23 776.56,1364.48 796.768,1368.74 816.975,1362.9 837.183,1347.09 857.39,1321.63 877.598,1287.02 897.806,1243.96 918.013,1193.31 938.221,1136.08 958.429,1073.41 978.636,1006.56 998.844,936.867 1019.05,865.723 1039.26,794.551 1059.47,724.776 1079.67,652.627 1099.88,579.546 1120.09,506.997 1140.3,436.429 1160.51,369.254 1180.71,306.815 1200.92,250.362 1221.13,201.023 1241.34,159.786 1261.54,127.474 1281.75,104.734 1301.96,92.0218 1322.17,89.5903 1342.37,97.4886 1362.58,115.559 1382.79,143.439 1403,180.573 1423.2,226.216 1443.41,279.457 1463.62,339.23 1483.83,404.341 1504.03,473.486 1524.24,545.283 1544.45,618.296 1564.66,691.064 1584.87,762.133 1605.07,835.246 1625.28,908.942 1645.49,981.745 1665.7,1052.2 1685.9,1118.9 1706.11,1180.5 1726.32,1235.79 1746.53,1283.64 1766.73,1323.11 1786.94,1353.41 1807.15,1373.92 1827.36,1384.24 1847.56,1384.16 1867.77,1373.69 1887.98,1353.03 1908.19,1322.59 1928.4,1282.99 1948.6,1235.02 1968.81,1179.64 1989.02,1117.94 2009.23,1051.18 2029.43,980.681 2049.64,907.854 2069.85,834.157 2090.06,761.063 2110.26,690.035 2130.47,617.328 2150.68,544.396 2170.89,472.698 2191.09,403.667 2211.3,338.685 2231.51,279.051 2251.72,225.957 2271.93,180.465 2292.13,143.486 "/>
</svg>
