<?xml version="1.0" encoding="utf-8"?>
<svg xmlns="http://www.w3.org/2000/svg" xmlns:xlink="http://www.w3.org/1999/xlink" width="600" height="400" viewBox="0 0 2400 1600">
<defs>
  <clipPath id="clip240">
    <rect x="0" y="0" width="2400" height="1600"/>
  </clipPath>
</defs>
<path clip-path="url(#clip240)" d="M0 1600 L2400 1600 L2400 8.88178e-14 L0 8.88178e-14  Z" fill="#ffffff" fill-rule="evenodd" fill-opacity="1"/>
<defs>
  <clipPath id="clip241">
    <rect x="480" y="0" width="1681" height="1600"/>
  </clipPath>
</defs>
<path clip-path="url(#clip240)" d="M286.371 1423.18 L2352.76 1423.18 L2352.76 47.2441 L286.371 47.2441  Z" fill="#ffffff" fill-rule="evenodd" fill-opacity="1"/>
<defs>
  <clipPath id="clip242">
    <rect x="286" y="47" width="2067" height="1377"/>
  </clipPath>
</defs>
<polyline clip-path="url(#clip242)" style="stroke:#000000; stroke-linecap:round; stroke-linejoin:round; stroke-width:2; stroke-opacity:0.1; fill:none" points="344.853,1423.18 344.853,47.2441 "/>
<polyline clip-path="url(#clip242)" style="stroke:#000000; stroke-linecap:round; stroke-linejoin:round; stroke-width:2; stroke-opacity:0.1; fill:none" points="832.208,1423.18 832.208,47.2441 "/>
<polyline clip-path="url(#clip242)" style="stroke:#000000; stroke-linecap:round; stroke-linejoin:round; stroke-width:2; stroke-opacity:0.1; fill:none" points="1319.56,1423.18 1319.56,47.2441 "/>
<polyline clip-path="url(#clip242)" style="stroke:#000000; stroke-linecap:round; stroke-linejoin:round; stroke-width:2; stroke-opacity:0.1; fill:none" points="1806.92,1423.18 1806.92,47.2441 "/>
<polyline clip-path="url(#clip242)" style="stroke:#000000; stroke-linecap:round; stroke-linejoin:round; stroke-width:2; stroke-opacity:0.1; fill:none" points="2294.27,1423.18 2294.27,47.2441 "/>
<polyline clip-path="url(#clip240)" style="stroke:#000000; stroke-linecap:round; stroke-linejoin:round; stroke-width:4; stroke-opacity:1; fill:none" points="286.371,1423.18 2352.76,1423.18 "/>
<polyline clip-path="url(#clip240)" style="stroke:#000000; stroke-linecap:round; stroke-linejoin:round; stroke-width:4; stroke-opacity:1; fill:none" points="344.853,1423.18 344.853,1404.28 "/>
<polyline clip-path="url(#clip240)" style="stroke:#000000; stroke-linecap:round; stroke-linejoin:round; stroke-width:4; stroke-opacity:1; fill:none" points="832.208,1423.18 832.208,1404.28 "/>
<polyline clip-path="url(#clip240)" style="stroke:#000000; stroke-linecap:round; stroke-linejoin:round; stroke-width:4; stroke-opacity:1; fill:none" points="1319.56,1423.18 1319.56,1404.28 "/>
<polyline clip-path="url(#clip240)" style="stroke:#000000; stroke-linecap:round; stroke-linejoin:round; stroke-width:4; stroke-opacity:1; fill:none" points="1806.92,1423.18 1806.92,1404.28 "/>
<polyline clip-path="url(#clip240)" style="stroke:#000000; stroke-linecap:round; stroke-linejoin:round; stroke-width:4; stroke-opacity:1; fill:none" points="2294.27,1423.18 2294.27,1404.28 "/>
<path clip-path="url(#clip240)" d="M344.853 1454.1 Q341.242 1454.1 339.413 1457.66 Q337.608 1461.2 337.608 1468.33 Q337.608 1475.44 339.413 1479.01 Q341.242 1482.55 344.853 1482.55 Q348.487 1482.55 350.293 1479.01 Q352.122 1475.44 352.122 1468.33 Q352.122 1461.2 350.293 1457.66 Q348.487 1454.1 344.853 1454.1 M344.853 1450.39 Q350.663 1450.39 353.719 1455 Q356.798 1459.58 356.798 1468.33 Q356.798 1477.06 353.719 1481.67 Q350.663 1486.25 344.853 1486.25 Q339.043 1486.25 335.964 1481.67 Q332.909 1477.06 332.909 1468.33 Q332.909 1459.58 335.964 1455 Q339.043 1450.39 344.853 1450.39 Z" fill="#000000" fill-rule="nonzero" fill-opacity="1" /><path clip-path="url(#clip240)" d="M791.826 1451.02 L810.183 1451.02 L810.183 1454.96 L796.109 1454.96 L796.109 1463.43 Q797.127 1463.08 798.146 1462.92 Q799.164 1462.73 800.183 1462.73 Q805.97 1462.73 809.35 1465.9 Q812.729 1469.08 812.729 1474.49 Q812.729 1480.07 809.257 1483.17 Q805.785 1486.25 799.465 1486.25 Q797.289 1486.25 795.021 1485.88 Q792.776 1485.51 790.368 1484.77 L790.368 1480.07 Q792.451 1481.2 794.674 1481.76 Q796.896 1482.32 799.373 1482.32 Q803.377 1482.32 805.715 1480.21 Q808.053 1478.1 808.053 1474.49 Q808.053 1470.88 805.715 1468.77 Q803.377 1466.67 799.373 1466.67 Q797.498 1466.67 795.623 1467.08 Q793.771 1467.5 791.826 1468.38 L791.826 1451.02 Z" fill="#000000" fill-rule="nonzero" fill-opacity="1" /><path clip-path="url(#clip240)" d="M831.942 1454.1 Q828.331 1454.1 826.502 1457.66 Q824.697 1461.2 824.697 1468.33 Q824.697 1475.44 826.502 1479.01 Q828.331 1482.55 831.942 1482.55 Q835.576 1482.55 837.382 1479.01 Q839.21 1475.44 839.21 1468.33 Q839.21 1461.2 837.382 1457.66 Q835.576 1454.1 831.942 1454.1 M831.942 1450.39 Q837.752 1450.39 840.808 1455 Q843.886 1459.58 843.886 1468.33 Q843.886 1477.06 840.808 1481.67 Q837.752 1486.25 831.942 1486.25 Q826.132 1486.25 823.053 1481.67 Q819.998 1477.06 819.998 1468.33 Q819.998 1459.58 823.053 1455 Q826.132 1450.39 831.942 1450.39 Z" fill="#000000" fill-rule="nonzero" fill-opacity="1" /><path clip-path="url(#clip240)" d="M862.104 1454.1 Q858.493 1454.1 856.664 1457.66 Q854.859 1461.2 854.859 1468.33 Q854.859 1475.44 856.664 1479.01 Q858.493 1482.55 862.104 1482.55 Q865.738 1482.55 867.544 1479.01 Q869.372 1475.44 869.372 1468.33 Q869.372 1461.2 867.544 1457.66 Q865.738 1454.1 862.104 1454.1 M862.104 1450.39 Q867.914 1450.39 870.97 1455 Q874.048 1459.58 874.048 1468.33 Q874.048 1477.06 870.97 1481.67 Q867.914 1486.25 862.104 1486.25 Q856.294 1486.25 853.215 1481.67 Q850.159 1477.06 850.159 1468.33 Q850.159 1459.58 853.215 1455 Q856.294 1450.39 862.104 1450.39 Z" fill="#000000" fill-rule="nonzero" fill-opacity="1" /><path clip-path="url(#clip240)" d="M1264.09 1481.64 L1271.73 1481.64 L1271.73 1455.28 L1263.42 1456.95 L1263.42 1452.69 L1271.68 1451.02 L1276.36 1451.02 L1276.36 1481.64 L1284 1481.64 L1284 1485.58 L1264.09 1485.58 L1264.09 1481.64 Z" fill="#000000" fill-rule="nonzero" fill-opacity="1" /><path clip-path="url(#clip240)" d="M1303.44 1454.1 Q1299.83 1454.1 1298 1457.66 Q1296.2 1461.2 1296.2 1468.33 Q1296.2 1475.44 1298 1479.01 Q1299.83 1482.55 1303.44 1482.55 Q1307.07 1482.55 1308.88 1479.01 Q1310.71 1475.44 1310.71 1468.33 Q1310.71 1461.2 1308.88 1457.66 Q1307.07 1454.1 1303.44 1454.1 M1303.44 1450.39 Q1309.25 1450.39 1312.31 1455 Q1315.39 1459.58 1315.39 1468.33 Q1315.39 1477.06 1312.31 1481.67 Q1309.25 1486.25 1303.44 1486.25 Q1297.63 1486.25 1294.55 1481.67 Q1291.5 1477.06 1291.5 1468.33 Q1291.5 1459.58 1294.55 1455 Q1297.63 1450.39 1303.44 1450.39 Z" fill="#000000" fill-rule="nonzero" fill-opacity="1" /><path clip-path="url(#clip240)" d="M1333.6 1454.1 Q1329.99 1454.1 1328.16 1457.66 Q1326.36 1461.2 1326.36 1468.33 Q1326.36 1475.44 1328.16 1479.01 Q1329.99 1482.55 1333.6 1482.55 Q1337.24 1482.55 1339.04 1479.01 Q1340.87 1475.44 1340.87 1468.33 Q1340.87 1461.2 1339.04 1457.66 Q1337.24 1454.1 1333.6 1454.1 M1333.6 1450.39 Q1339.41 1450.39 1342.47 1455 Q1345.55 1459.58 1345.55 1468.33 Q1345.55 1477.06 1342.47 1481.67 Q1339.41 1486.25 1333.6 1486.25 Q1327.79 1486.25 1324.71 1481.67 Q1321.66 1477.06 1321.66 1468.33 Q1321.66 1459.58 1324.71 1455 Q1327.79 1450.39 1333.6 1450.39 Z" fill="#000000" fill-rule="nonzero" fill-opacity="1" /><path clip-path="url(#clip240)" d="M1363.76 1454.1 Q1360.15 1454.1 1358.32 1457.66 Q1356.52 1461.2 1356.52 1468.33 Q1356.52 1475.44 1358.32 1479.01 Q1360.15 1482.55 1363.76 1482.55 Q1367.4 1482.55 1369.2 1479.01 Q1371.03 1475.44 1371.03 1468.33 Q1371.03 1461.2 1369.2 1457.66 Q1367.4 1454.1 1363.76 1454.1 M1363.76 1450.39 Q1369.57 1450.39 1372.63 1455 Q1375.71 1459.58 1375.71 1468.33 Q1375.71 1477.06 1372.63 1481.67 Q1369.57 1486.25 1363.76 1486.25 Q1357.95 1486.25 1354.88 1481.67 Q1351.82 1477.06 1351.82 1468.33 Q1351.82 1459.58 1354.88 1455 Q1357.95 1450.39 1363.76 1450.39 Z" fill="#000000" fill-rule="nonzero" fill-opacity="1" /><path clip-path="url(#clip240)" d="M1751.44 1481.64 L1759.08 1481.64 L1759.08 1455.28 L1750.77 1456.95 L1750.77 1452.69 L1759.04 1451.02 L1763.71 1451.02 L1763.71 1481.64 L1771.35 1481.64 L1771.35 1485.58 L1751.44 1485.58 L1751.44 1481.64 Z" fill="#000000" fill-rule="nonzero" fill-opacity="1" /><path clip-path="url(#clip240)" d="M1780.84 1451.02 L1799.2 1451.02 L1799.2 1454.96 L1785.12 1454.96 L1785.12 1463.43 Q1786.14 1463.08 1787.16 1462.92 Q1788.18 1462.73 1789.2 1462.73 Q1794.99 1462.73 1798.37 1465.9 Q1801.74 1469.08 1801.74 1474.49 Q1801.74 1480.07 1798.27 1483.17 Q1794.8 1486.25 1788.48 1486.25 Q1786.3 1486.25 1784.04 1485.88 Q1781.79 1485.51 1779.38 1484.77 L1779.38 1480.07 Q1781.47 1481.2 1783.69 1481.76 Q1785.91 1482.32 1788.39 1482.32 Q1792.39 1482.32 1794.73 1480.21 Q1797.07 1478.1 1797.07 1474.49 Q1797.07 1470.88 1794.73 1468.77 Q1792.39 1466.67 1788.39 1466.67 Q1786.51 1466.67 1784.64 1467.08 Q1782.79 1467.5 1780.84 1468.38 L1780.84 1451.02 Z" fill="#000000" fill-rule="nonzero" fill-opacity="1" /><path clip-path="url(#clip240)" d="M1820.96 1454.1 Q1817.35 1454.1 1815.52 1457.66 Q1813.71 1461.2 1813.71 1468.33 Q1813.71 1475.44 1815.52 1479.01 Q1817.35 1482.55 1820.96 1482.55 Q1824.59 1482.55 1826.4 1479.01 Q1828.23 1475.44 1828.23 1468.33 Q1828.23 1461.2 1826.4 1457.66 Q1824.59 1454.1 1820.96 1454.1 M1820.96 1450.39 Q1826.77 1450.39 1829.82 1455 Q1832.9 1459.58 1832.9 1468.33 Q1832.9 1477.06 1829.82 1481.67 Q1826.77 1486.25 1820.96 1486.25 Q1815.15 1486.25 1812.07 1481.67 Q1809.01 1477.06 1809.01 1468.33 Q1809.01 1459.58 1812.07 1455 Q1815.15 1450.39 1820.96 1450.39 Z" fill="#000000" fill-rule="nonzero" fill-opacity="1" /><path clip-path="url(#clip240)" d="M1851.12 1454.1 Q1847.51 1454.1 1845.68 1457.66 Q1843.87 1461.2 1843.87 1468.33 Q1843.87 1475.44 1845.68 1479.01 Q1847.51 1482.55 1851.12 1482.55 Q1854.75 1482.55 1856.56 1479.01 Q1858.39 1475.44 1858.39 1468.33 Q1858.39 1461.2 1856.56 1457.66 Q1854.75 1454.1 1851.12 1454.1 M1851.12 1450.39 Q1856.93 1450.39 1859.99 1455 Q1863.06 1459.58 1863.06 1468.33 Q1863.06 1477.06 1859.99 1481.67 Q1856.93 1486.25 1851.12 1486.25 Q1845.31 1486.25 1842.23 1481.67 Q1839.18 1477.06 1839.18 1468.33 Q1839.18 1459.58 1842.23 1455 Q1845.31 1450.39 1851.12 1450.39 Z" fill="#000000" fill-rule="nonzero" fill-opacity="1" /><path clip-path="url(#clip240)" d="M2242.88 1481.64 L2259.2 1481.64 L2259.2 1485.58 L2237.26 1485.58 L2237.26 1481.64 Q2239.92 1478.89 2244.51 1474.26 Q2249.11 1469.61 2250.29 1468.27 Q2252.54 1465.74 2253.42 1464.01 Q2254.32 1462.25 2254.32 1460.56 Q2254.32 1457.8 2252.38 1456.07 Q2250.45 1454.33 2247.35 1454.33 Q2245.15 1454.33 2242.7 1455.09 Q2240.27 1455.86 2237.49 1457.41 L2237.49 1452.69 Q2240.32 1451.55 2242.77 1450.97 Q2245.22 1450.39 2247.26 1450.39 Q2252.63 1450.39 2255.82 1453.08 Q2259.02 1455.77 2259.02 1460.26 Q2259.02 1462.39 2258.21 1464.31 Q2257.42 1466.2 2255.32 1468.8 Q2254.74 1469.47 2251.63 1472.69 Q2248.53 1475.88 2242.88 1481.64 Z" fill="#000000" fill-rule="nonzero" fill-opacity="1" /><path clip-path="url(#clip240)" d="M2279.02 1454.1 Q2275.41 1454.1 2273.58 1457.66 Q2271.77 1461.2 2271.77 1468.33 Q2271.77 1475.44 2273.58 1479.01 Q2275.41 1482.55 2279.02 1482.55 Q2282.65 1482.55 2284.46 1479.01 Q2286.29 1475.44 2286.29 1468.33 Q2286.29 1461.2 2284.46 1457.66 Q2282.65 1454.1 2279.02 1454.1 M2279.02 1450.39 Q2284.83 1450.39 2287.88 1455 Q2290.96 1459.58 2290.96 1468.33 Q2290.96 1477.06 2287.88 1481.67 Q2284.83 1486.25 2279.02 1486.25 Q2273.21 1486.25 2270.13 1481.67 Q2267.07 1477.06 2267.07 1468.33 Q2267.07 1459.58 2270.13 1455 Q2273.21 1450.39 2279.02 1450.39 Z" fill="#000000" fill-rule="nonzero" fill-opacity="1" /><path clip-path="url(#clip240)" d="M2309.18 1454.1 Q2305.57 1454.1 2303.74 1457.66 Q2301.94 1461.2 2301.94 1468.33 Q2301.94 1475.44 2303.74 1479.01 Q2305.57 1482.55 2309.18 1482.55 Q2312.81 1482.55 2314.62 1479.01 Q2316.45 1475.44 2316.45 1468.33 Q2316.45 1461.2 2314.62 1457.66 Q2312.81 1454.1 2309.18 1454.1 M2309.18 1450.39 Q2314.99 1450.39 2318.05 1455 Q2321.13 1459.58 2321.13 1468.33 Q2321.13 1477.06 2318.05 1481.67 Q2314.99 1486.25 2309.18 1486.25 Q2303.37 1486.25 2300.29 1481.67 Q2297.24 1477.06 2297.24 1468.33 Q2297.24 1459.58 2300.29 1455 Q2303.37 1450.39 2309.18 1450.39 Z" fill="#000000" fill-rule="nonzero" fill-opacity="1" /><path clip-path="url(#clip240)" d="M2339.34 1454.1 Q2335.73 1454.1 2333.9 1457.66 Q2332.1 1461.2 2332.1 1468.33 Q2332.1 1475.44 2333.9 1479.01 Q2335.73 1482.55 2339.34 1482.55 Q2342.98 1482.55 2344.78 1479.01 Q2346.61 1475.44 2346.61 1468.33 Q2346.61 1461.2 2344.78 1457.66 Q2342.98 1454.1 2339.34 1454.1 M2339.34 1450.39 Q2345.15 1450.39 2348.21 1455 Q2351.29 1459.58 2351.29 1468.33 Q2351.29 1477.06 2348.21 1481.67 Q2345.15 1486.25 2339.34 1486.25 Q2333.53 1486.25 2330.45 1481.67 Q2327.4 1477.06 2327.4 1468.33 Q2327.4 1459.58 2330.45 1455 Q2333.53 1450.39 2339.34 1450.39 Z" fill="#000000" fill-rule="nonzero" fill-opacity="1" /><path clip-path="url(#clip240)" d="M1318.62 1522.27 L1318.62 1532.4 L1330.69 1532.4 L1330.69 1536.95 L1318.62 1536.95 L1318.62 1556.3 Q1318.62 1560.66 1319.8 1561.9 Q1321.01 1563.14 1324.67 1563.14 L1330.69 1563.14 L1330.69 1568.04 L1324.67 1568.04 Q1317.89 1568.04 1315.31 1565.53 Q1312.74 1562.98 1312.74 1556.3 L1312.74 1536.95 L1308.44 1536.95 L1308.44 1532.4 L1312.74 1532.4 L1312.74 1522.27 L1318.62 1522.27 Z" fill="#000000" fill-rule="nonzero" fill-opacity="1" /><polyline clip-path="url(#clip242)" style="stroke:#000000; stroke-linecap:round; stroke-linejoin:round; stroke-width:2; stroke-opacity:0.1; fill:none" points="286.371,1291.14 2352.76,1291.14 "/>
<polyline clip-path="url(#clip242)" style="stroke:#000000; stroke-linecap:round; stroke-linejoin:round; stroke-width:2; stroke-opacity:0.1; fill:none" points="286.371,1105.83 2352.76,1105.83 "/>
<polyline clip-path="url(#clip242)" style="stroke:#000000; stroke-linecap:round; stroke-linejoin:round; stroke-width:2; stroke-opacity:0.1; fill:none" points="286.371,920.52 2352.76,920.52 "/>
<polyline clip-path="url(#clip242)" style="stroke:#000000; stroke-linecap:round; stroke-linejoin:round; stroke-width:2; stroke-opacity:0.1; fill:none" points="286.371,735.212 2352.76,735.212 "/>
<polyline clip-path="url(#clip242)" style="stroke:#000000; stroke-linecap:round; stroke-linejoin:round; stroke-width:2; stroke-opacity:0.1; fill:none" points="286.371,549.904 2352.76,549.904 "/>
<polyline clip-path="url(#clip242)" style="stroke:#000000; stroke-linecap:round; stroke-linejoin:round; stroke-width:2; stroke-opacity:0.1; fill:none" points="286.371,364.596 2352.76,364.596 "/>
<polyline clip-path="url(#clip242)" style="stroke:#000000; stroke-linecap:round; stroke-linejoin:round; stroke-width:2; stroke-opacity:0.1; fill:none" points="286.371,179.288 2352.76,179.288 "/>
<polyline clip-path="url(#clip240)" style="stroke:#000000; stroke-linecap:round; stroke-linejoin:round; stroke-width:4; stroke-opacity:1; fill:none" points="286.371,1423.18 286.371,47.2441 "/>
<polyline clip-path="url(#clip240)" style="stroke:#000000; stroke-linecap:round; stroke-linejoin:round; stroke-width:4; stroke-opacity:1; fill:none" points="286.371,1291.14 305.268,1291.14 "/>
<polyline clip-path="url(#clip240)" style="stroke:#000000; stroke-linecap:round; stroke-linejoin:round; stroke-width:4; stroke-opacity:1; fill:none" points="286.371,1105.83 305.268,1105.83 "/>
<polyline clip-path="url(#clip240)" style="stroke:#000000; stroke-linecap:round; stroke-linejoin:round; stroke-width:4; stroke-opacity:1; fill:none" points="286.371,920.52 305.268,920.52 "/>
<polyline clip-path="url(#clip240)" style="stroke:#000000; stroke-linecap:round; stroke-linejoin:round; stroke-width:4; stroke-opacity:1; fill:none" points="286.371,735.212 305.268,735.212 "/>
<polyline clip-path="url(#clip240)" style="stroke:#000000; stroke-linecap:round; stroke-linejoin:round; stroke-width:4; stroke-opacity:1; fill:none" points="286.371,549.904 305.268,549.904 "/>
<polyline clip-path="url(#clip240)" style="stroke:#000000; stroke-linecap:round; stroke-linejoin:round; stroke-width:4; stroke-opacity:1; fill:none" points="286.371,364.596 305.268,364.596 "/>
<polyline clip-path="url(#clip240)" style="stroke:#000000; stroke-linecap:round; stroke-linejoin:round; stroke-width:4; stroke-opacity:1; fill:none" points="286.371,179.288 305.268,179.288 "/>
<path clip-path="url(#clip240)" d="M114.26 1291.59 L143.936 1291.59 L143.936 1295.52 L114.26 1295.52 L114.26 1291.59 Z" fill="#000000" fill-rule="nonzero" fill-opacity="1" /><path clip-path="url(#clip240)" d="M164.028 1276.93 Q160.417 1276.93 158.589 1280.5 Q156.783 1284.04 156.783 1291.17 Q156.783 1298.28 158.589 1301.84 Q160.417 1305.38 164.028 1305.38 Q167.663 1305.38 169.468 1301.84 Q171.297 1298.28 171.297 1291.17 Q171.297 1284.04 169.468 1280.5 Q167.663 1276.93 164.028 1276.93 M164.028 1273.23 Q169.839 1273.23 172.894 1277.84 Q175.973 1282.42 175.973 1291.17 Q175.973 1299.9 172.894 1304.5 Q169.839 1309.09 164.028 1309.09 Q158.218 1309.09 155.14 1304.5 Q152.084 1299.9 152.084 1291.17 Q152.084 1282.42 155.14 1277.84 Q158.218 1273.23 164.028 1273.23 Z" fill="#000000" fill-rule="nonzero" fill-opacity="1" /><path clip-path="url(#clip240)" d="M184.19 1302.54 L189.075 1302.54 L189.075 1308.42 L184.19 1308.42 L184.19 1302.54 Z" fill="#000000" fill-rule="nonzero" fill-opacity="1" /><path clip-path="url(#clip240)" d="M203.287 1304.48 L219.607 1304.48 L219.607 1308.42 L197.662 1308.42 L197.662 1304.48 Q200.325 1301.73 204.908 1297.1 Q209.514 1292.44 210.695 1291.1 Q212.94 1288.58 213.82 1286.84 Q214.723 1285.08 214.723 1283.39 Q214.723 1280.64 212.778 1278.9 Q210.857 1277.17 207.755 1277.17 Q205.556 1277.17 203.102 1277.93 Q200.672 1278.69 197.894 1280.24 L197.894 1275.52 Q200.718 1274.39 203.172 1273.81 Q205.625 1273.23 207.662 1273.23 Q213.033 1273.23 216.227 1275.92 Q219.422 1278.6 219.422 1283.09 Q219.422 1285.22 218.611 1287.14 Q217.824 1289.04 215.718 1291.63 Q215.139 1292.3 212.037 1295.52 Q208.936 1298.72 203.287 1304.48 Z" fill="#000000" fill-rule="nonzero" fill-opacity="1" /><path clip-path="url(#clip240)" d="M229.468 1273.86 L247.824 1273.86 L247.824 1277.79 L233.75 1277.79 L233.75 1286.26 Q234.769 1285.92 235.787 1285.75 Q236.806 1285.57 237.824 1285.57 Q243.611 1285.57 246.991 1288.74 Q250.371 1291.91 250.371 1297.33 Q250.371 1302.91 246.898 1306.01 Q243.426 1309.09 237.107 1309.09 Q234.931 1309.09 232.662 1308.72 Q230.417 1308.35 228.01 1307.61 L228.01 1302.91 Q230.093 1304.04 232.315 1304.6 Q234.537 1305.15 237.014 1305.15 Q241.019 1305.15 243.357 1303.05 Q245.695 1300.94 245.695 1297.33 Q245.695 1293.72 243.357 1291.61 Q241.019 1289.5 237.014 1289.5 Q235.139 1289.5 233.264 1289.92 Q231.412 1290.34 229.468 1291.22 L229.468 1273.86 Z" fill="#000000" fill-rule="nonzero" fill-opacity="1" /><path clip-path="url(#clip240)" d="M163.033 1091.63 Q159.422 1091.63 157.593 1095.19 Q155.788 1098.73 155.788 1105.86 Q155.788 1112.97 157.593 1116.53 Q159.422 1120.08 163.033 1120.08 Q166.667 1120.08 168.473 1116.53 Q170.302 1112.97 170.302 1105.86 Q170.302 1098.73 168.473 1095.19 Q166.667 1091.63 163.033 1091.63 M163.033 1087.92 Q168.843 1087.92 171.899 1092.53 Q174.977 1097.11 174.977 1105.86 Q174.977 1114.59 171.899 1119.2 Q168.843 1123.78 163.033 1123.78 Q157.223 1123.78 154.144 1119.2 Q151.089 1114.59 151.089 1105.86 Q151.089 1097.11 154.144 1092.53 Q157.223 1087.92 163.033 1087.92 Z" fill="#000000" fill-rule="nonzero" fill-opacity="1" /><path clip-path="url(#clip240)" d="M183.195 1117.23 L188.079 1117.23 L188.079 1123.11 L183.195 1123.11 L183.195 1117.23 Z" fill="#000000" fill-rule="nonzero" fill-opacity="1" /><path clip-path="url(#clip240)" d="M208.264 1091.63 Q204.653 1091.63 202.824 1095.19 Q201.019 1098.73 201.019 1105.86 Q201.019 1112.97 202.824 1116.53 Q204.653 1120.08 208.264 1120.08 Q211.899 1120.08 213.704 1116.53 Q215.533 1112.97 215.533 1105.86 Q215.533 1098.73 213.704 1095.19 Q211.899 1091.63 208.264 1091.63 M208.264 1087.92 Q214.074 1087.92 217.13 1092.53 Q220.209 1097.11 220.209 1105.86 Q220.209 1114.59 217.13 1119.2 Q214.074 1123.78 208.264 1123.78 Q202.454 1123.78 199.375 1119.2 Q196.32 1114.59 196.32 1105.86 Q196.32 1097.11 199.375 1092.53 Q202.454 1087.92 208.264 1087.92 Z" fill="#000000" fill-rule="nonzero" fill-opacity="1" /><path clip-path="url(#clip240)" d="M238.426 1091.63 Q234.815 1091.63 232.986 1095.19 Q231.181 1098.73 231.181 1105.86 Q231.181 1112.97 232.986 1116.53 Q234.815 1120.08 238.426 1120.08 Q242.06 1120.08 243.866 1116.53 Q245.695 1112.97 245.695 1105.86 Q245.695 1098.73 243.866 1095.19 Q242.06 1091.63 238.426 1091.63 M238.426 1087.92 Q244.236 1087.92 247.292 1092.53 Q250.371 1097.11 250.371 1105.86 Q250.371 1114.59 247.292 1119.2 Q244.236 1123.78 238.426 1123.78 Q232.616 1123.78 229.537 1119.2 Q226.482 1114.59 226.482 1105.86 Q226.482 1097.11 229.537 1092.53 Q232.616 1087.92 238.426 1087.92 Z" fill="#000000" fill-rule="nonzero" fill-opacity="1" /><path clip-path="url(#clip240)" d="M164.028 906.319 Q160.417 906.319 158.589 909.883 Q156.783 913.425 156.783 920.555 Q156.783 927.661 158.589 931.226 Q160.417 934.767 164.028 934.767 Q167.663 934.767 169.468 931.226 Q171.297 927.661 171.297 920.555 Q171.297 913.425 169.468 909.883 Q167.663 906.319 164.028 906.319 M164.028 902.615 Q169.839 902.615 172.894 907.221 Q175.973 911.805 175.973 920.555 Q175.973 929.281 172.894 933.888 Q169.839 938.471 164.028 938.471 Q158.218 938.471 155.14 933.888 Q152.084 929.281 152.084 920.555 Q152.084 911.805 155.14 907.221 Q158.218 902.615 164.028 902.615 Z" fill="#000000" fill-rule="nonzero" fill-opacity="1" /><path clip-path="url(#clip240)" d="M184.19 931.92 L189.075 931.92 L189.075 937.8 L184.19 937.8 L184.19 931.92 Z" fill="#000000" fill-rule="nonzero" fill-opacity="1" /><path clip-path="url(#clip240)" d="M203.287 933.865 L219.607 933.865 L219.607 937.8 L197.662 937.8 L197.662 933.865 Q200.325 931.11 204.908 926.48 Q209.514 921.828 210.695 920.485 Q212.94 917.962 213.82 916.226 Q214.723 914.467 214.723 912.777 Q214.723 910.022 212.778 908.286 Q210.857 906.55 207.755 906.55 Q205.556 906.55 203.102 907.314 Q200.672 908.078 197.894 909.629 L197.894 904.907 Q200.718 903.772 203.172 903.194 Q205.625 902.615 207.662 902.615 Q213.033 902.615 216.227 905.3 Q219.422 907.985 219.422 912.476 Q219.422 914.606 218.611 916.527 Q217.824 918.425 215.718 921.018 Q215.139 921.689 212.037 924.906 Q208.936 928.101 203.287 933.865 Z" fill="#000000" fill-rule="nonzero" fill-opacity="1" /><path clip-path="url(#clip240)" d="M229.468 903.24 L247.824 903.24 L247.824 907.175 L233.75 907.175 L233.75 915.647 Q234.769 915.3 235.787 915.138 Q236.806 914.953 237.824 914.953 Q243.611 914.953 246.991 918.124 Q250.371 921.295 250.371 926.712 Q250.371 932.291 246.898 935.392 Q243.426 938.471 237.107 938.471 Q234.931 938.471 232.662 938.101 Q230.417 937.73 228.01 936.99 L228.01 932.291 Q230.093 933.425 232.315 933.98 Q234.537 934.536 237.014 934.536 Q241.019 934.536 243.357 932.43 Q245.695 930.323 245.695 926.712 Q245.695 923.101 243.357 920.994 Q241.019 918.888 237.014 918.888 Q235.139 918.888 233.264 919.305 Q231.412 919.721 229.468 920.601 L229.468 903.24 Z" fill="#000000" fill-rule="nonzero" fill-opacity="1" /><path clip-path="url(#clip240)" d="M163.033 721.011 Q159.422 721.011 157.593 724.575 Q155.788 728.117 155.788 735.247 Q155.788 742.353 157.593 745.918 Q159.422 749.46 163.033 749.46 Q166.667 749.46 168.473 745.918 Q170.302 742.353 170.302 735.247 Q170.302 728.117 168.473 724.575 Q166.667 721.011 163.033 721.011 M163.033 717.307 Q168.843 717.307 171.899 721.913 Q174.977 726.497 174.977 735.247 Q174.977 743.973 171.899 748.58 Q168.843 753.163 163.033 753.163 Q157.223 753.163 154.144 748.58 Q151.089 743.973 151.089 735.247 Q151.089 726.497 154.144 721.913 Q157.223 717.307 163.033 717.307 Z" fill="#000000" fill-rule="nonzero" fill-opacity="1" /><path clip-path="url(#clip240)" d="M183.195 746.612 L188.079 746.612 L188.079 752.492 L183.195 752.492 L183.195 746.612 Z" fill="#000000" fill-rule="nonzero" fill-opacity="1" /><path clip-path="url(#clip240)" d="M198.311 717.932 L216.667 717.932 L216.667 721.867 L202.593 721.867 L202.593 730.339 Q203.612 729.992 204.63 729.83 Q205.649 729.645 206.667 729.645 Q212.454 729.645 215.834 732.816 Q219.213 735.987 219.213 741.404 Q219.213 746.983 215.741 750.085 Q212.269 753.163 205.949 753.163 Q203.774 753.163 201.505 752.793 Q199.26 752.423 196.852 751.682 L196.852 746.983 Q198.936 748.117 201.158 748.673 Q203.38 749.228 205.857 749.228 Q209.861 749.228 212.199 747.122 Q214.537 745.015 214.537 741.404 Q214.537 737.793 212.199 735.687 Q209.861 733.58 205.857 733.58 Q203.982 733.58 202.107 733.997 Q200.255 734.413 198.311 735.293 L198.311 717.932 Z" fill="#000000" fill-rule="nonzero" fill-opacity="1" /><path clip-path="url(#clip240)" d="M238.426 721.011 Q234.815 721.011 232.986 724.575 Q231.181 728.117 231.181 735.247 Q231.181 742.353 232.986 745.918 Q234.815 749.46 238.426 749.46 Q242.06 749.46 243.866 745.918 Q245.695 742.353 245.695 735.247 Q245.695 728.117 243.866 724.575 Q242.06 721.011 238.426 721.011 M238.426 717.307 Q244.236 717.307 247.292 721.913 Q250.371 726.497 250.371 735.247 Q250.371 743.973 247.292 748.58 Q244.236 753.163 238.426 753.163 Q232.616 753.163 229.537 748.58 Q226.482 743.973 226.482 735.247 Q226.482 726.497 229.537 721.913 Q232.616 717.307 238.426 717.307 Z" fill="#000000" fill-rule="nonzero" fill-opacity="1" /><path clip-path="url(#clip240)" d="M164.028 535.703 Q160.417 535.703 158.589 539.268 Q156.783 542.809 156.783 549.939 Q156.783 557.045 158.589 560.61 Q160.417 564.152 164.028 564.152 Q167.663 564.152 169.468 560.61 Q171.297 557.045 171.297 549.939 Q171.297 542.809 169.468 539.268 Q167.663 535.703 164.028 535.703 M164.028 531.999 Q169.839 531.999 172.894 536.606 Q175.973 541.189 175.973 549.939 Q175.973 558.666 172.894 563.272 Q169.839 567.855 164.028 567.855 Q158.218 567.855 155.14 563.272 Q152.084 558.666 152.084 549.939 Q152.084 541.189 155.14 536.606 Q158.218 531.999 164.028 531.999 Z" fill="#000000" fill-rule="nonzero" fill-opacity="1" /><path clip-path="url(#clip240)" d="M184.19 561.304 L189.075 561.304 L189.075 567.184 L184.19 567.184 L184.19 561.304 Z" fill="#000000" fill-rule="nonzero" fill-opacity="1" /><path clip-path="url(#clip240)" d="M198.079 532.624 L220.301 532.624 L220.301 534.615 L207.755 567.184 L202.871 567.184 L214.676 536.559 L198.079 536.559 L198.079 532.624 Z" fill="#000000" fill-rule="nonzero" fill-opacity="1" /><path clip-path="url(#clip240)" d="M229.468 532.624 L247.824 532.624 L247.824 536.559 L233.75 536.559 L233.75 545.031 Q234.769 544.684 235.787 544.522 Q236.806 544.337 237.824 544.337 Q243.611 544.337 246.991 547.508 Q250.371 550.68 250.371 556.096 Q250.371 561.675 246.898 564.777 Q243.426 567.855 237.107 567.855 Q234.931 567.855 232.662 567.485 Q230.417 567.115 228.01 566.374 L228.01 561.675 Q230.093 562.809 232.315 563.365 Q234.537 563.92 237.014 563.92 Q241.019 563.92 243.357 561.814 Q245.695 559.707 245.695 556.096 Q245.695 552.485 243.357 550.379 Q241.019 548.272 237.014 548.272 Q235.139 548.272 233.264 548.689 Q231.412 549.105 229.468 549.985 L229.468 532.624 Z" fill="#000000" fill-rule="nonzero" fill-opacity="1" /><path clip-path="url(#clip240)" d="M153.843 377.941 L161.482 377.941 L161.482 351.575 L153.172 353.242 L153.172 348.983 L161.436 347.316 L166.112 347.316 L166.112 377.941 L173.751 377.941 L173.751 381.876 L153.843 381.876 L153.843 377.941 Z" fill="#000000" fill-rule="nonzero" fill-opacity="1" /><path clip-path="url(#clip240)" d="M183.195 375.997 L188.079 375.997 L188.079 381.876 L183.195 381.876 L183.195 375.997 Z" fill="#000000" fill-rule="nonzero" fill-opacity="1" /><path clip-path="url(#clip240)" d="M208.264 350.395 Q204.653 350.395 202.824 353.96 Q201.019 357.501 201.019 364.631 Q201.019 371.737 202.824 375.302 Q204.653 378.844 208.264 378.844 Q211.899 378.844 213.704 375.302 Q215.533 371.737 215.533 364.631 Q215.533 357.501 213.704 353.96 Q211.899 350.395 208.264 350.395 M208.264 346.691 Q214.074 346.691 217.13 351.298 Q220.209 355.881 220.209 364.631 Q220.209 373.358 217.13 377.964 Q214.074 382.547 208.264 382.547 Q202.454 382.547 199.375 377.964 Q196.32 373.358 196.32 364.631 Q196.32 355.881 199.375 351.298 Q202.454 346.691 208.264 346.691 Z" fill="#000000" fill-rule="nonzero" fill-opacity="1" /><path clip-path="url(#clip240)" d="M238.426 350.395 Q234.815 350.395 232.986 353.96 Q231.181 357.501 231.181 364.631 Q231.181 371.737 232.986 375.302 Q234.815 378.844 238.426 378.844 Q242.06 378.844 243.866 375.302 Q245.695 371.737 245.695 364.631 Q245.695 357.501 243.866 353.96 Q242.06 350.395 238.426 350.395 M238.426 346.691 Q244.236 346.691 247.292 351.298 Q250.371 355.881 250.371 364.631 Q250.371 373.358 247.292 377.964 Q244.236 382.547 238.426 382.547 Q232.616 382.547 229.537 377.964 Q226.482 373.358 226.482 364.631 Q226.482 355.881 229.537 351.298 Q232.616 346.691 238.426 346.691 Z" fill="#000000" fill-rule="nonzero" fill-opacity="1" /><path clip-path="url(#clip240)" d="M154.839 192.633 L162.477 192.633 L162.477 166.268 L154.167 167.934 L154.167 163.675 L162.431 162.008 L167.107 162.008 L167.107 192.633 L174.746 192.633 L174.746 196.568 L154.839 196.568 L154.839 192.633 Z" fill="#000000" fill-rule="nonzero" fill-opacity="1" /><path clip-path="url(#clip240)" d="M184.19 190.689 L189.075 190.689 L189.075 196.568 L184.19 196.568 L184.19 190.689 Z" fill="#000000" fill-rule="nonzero" fill-opacity="1" /><path clip-path="url(#clip240)" d="M203.287 192.633 L219.607 192.633 L219.607 196.568 L197.662 196.568 L197.662 192.633 Q200.325 189.879 204.908 185.249 Q209.514 180.596 210.695 179.254 Q212.94 176.73 213.82 174.994 Q214.723 173.235 214.723 171.545 Q214.723 168.791 212.778 167.055 Q210.857 165.318 207.755 165.318 Q205.556 165.318 203.102 166.082 Q200.672 166.846 197.894 168.397 L197.894 163.675 Q200.718 162.541 203.172 161.962 Q205.625 161.383 207.662 161.383 Q213.033 161.383 216.227 164.068 Q219.422 166.754 219.422 171.244 Q219.422 173.374 218.611 175.295 Q217.824 177.193 215.718 179.786 Q215.139 180.457 212.037 183.675 Q208.936 186.869 203.287 192.633 Z" fill="#000000" fill-rule="nonzero" fill-opacity="1" /><path clip-path="url(#clip240)" d="M229.468 162.008 L247.824 162.008 L247.824 165.943 L233.75 165.943 L233.75 174.416 Q234.769 174.068 235.787 173.906 Q236.806 173.721 237.824 173.721 Q243.611 173.721 246.991 176.892 Q250.371 180.064 250.371 185.48 Q250.371 191.059 246.898 194.161 Q243.426 197.24 237.107 197.24 Q234.931 197.24 232.662 196.869 Q230.417 196.499 228.01 195.758 L228.01 191.059 Q230.093 192.193 232.315 192.749 Q234.537 193.304 237.014 193.304 Q241.019 193.304 243.357 191.198 Q245.695 189.091 245.695 185.48 Q245.695 181.869 243.357 179.763 Q241.019 177.656 237.014 177.656 Q235.139 177.656 233.264 178.073 Q231.412 178.49 229.468 179.369 L229.468 162.008 Z" fill="#000000" fill-rule="nonzero" fill-opacity="1" /><path clip-path="url(#clip240)" d="M20.8447 1127.58 Q20.8447 1134.58 26.0645 1138.72 Q31.2844 1142.82 40.2919 1142.82 Q49.2675 1142.82 54.4874 1138.72 Q59.7073 1134.58 59.7073 1127.58 Q59.7073 1120.58 54.4874 1116.5 Q49.2675 1112.4 40.2919 1112.4 Q31.2844 1112.4 26.0645 1116.5 Q20.8447 1120.58 20.8447 1127.58 M15.6248 1127.58 Q15.6248 1117.58 22.3406 1111.6 Q29.0246 1105.62 40.2919 1105.62 Q51.5274 1105.62 58.2432 1111.6 Q64.9272 1117.58 64.9272 1127.58 Q64.9272 1137.6 58.2432 1143.62 Q51.5592 1149.6 40.2919 1149.6 Q29.0246 1149.6 22.3406 1143.62 Q15.6248 1137.6 15.6248 1127.58 Z" fill="#000000" fill-rule="nonzero" fill-opacity="1" /><path clip-path="url(#clip240)" d="M49.9359 1096.42 L28.3562 1096.42 L28.3562 1090.56 L49.7131 1090.56 Q54.7739 1090.56 57.3202 1088.59 Q59.8346 1086.61 59.8346 1082.67 Q59.8346 1077.93 56.8109 1075.19 Q53.7872 1072.42 48.5673 1072.42 L28.3562 1072.42 L28.3562 1066.56 L64.0042 1066.56 L64.0042 1072.42 L58.5296 1072.42 Q61.7762 1074.55 63.3676 1077.38 Q64.9272 1080.19 64.9272 1083.91 Q64.9272 1090.05 61.1078 1093.24 Q57.2883 1096.42 49.9359 1096.42 M27.4968 1081.68 L27.4968 1081.68 Z" fill="#000000" fill-rule="nonzero" fill-opacity="1" /><path clip-path="url(#clip240)" d="M18.2347 1048.71 L28.3562 1048.71 L28.3562 1036.64 L32.9077 1036.64 L32.9077 1048.71 L52.2594 1048.71 Q56.6199 1048.71 57.8613 1047.53 Q59.1026 1046.32 59.1026 1042.66 L59.1026 1036.64 L64.0042 1036.64 L64.0042 1042.66 Q64.0042 1049.44 61.4897 1052.02 Q58.9434 1054.6 52.2594 1054.6 L32.9077 1054.6 L32.9077 1058.89 L28.3562 1058.89 L28.3562 1054.6 L18.2347 1054.6 L18.2347 1048.71 Z" fill="#000000" fill-rule="nonzero" fill-opacity="1" /><path clip-path="url(#clip240)" d="M58.657 1023.28 L77.5631 1023.28 L77.5631 1029.16 L28.3562 1029.16 L28.3562 1023.28 L33.7671 1023.28 Q30.5842 1021.43 29.0564 1018.63 Q27.4968 1015.8 27.4968 1011.88 Q27.4968 1005.39 32.6531 1001.35 Q37.8093 997.272 46.212 997.272 Q54.6147 997.272 59.771 1001.35 Q64.9272 1005.39 64.9272 1011.88 Q64.9272 1015.8 63.3994 1018.63 Q61.8398 1021.43 58.657 1023.28 M46.212 1003.35 Q39.7508 1003.35 36.0905 1006.03 Q32.3984 1008.67 32.3984 1013.31 Q32.3984 1017.96 36.0905 1020.63 Q39.7508 1023.28 46.212 1023.28 Q52.6732 1023.28 56.3653 1020.63 Q60.0256 1017.96 60.0256 1013.31 Q60.0256 1008.67 56.3653 1006.03 Q52.6732 1003.35 46.212 1003.35 Z" fill="#000000" fill-rule="nonzero" fill-opacity="1" /><path clip-path="url(#clip240)" d="M49.9359 988.169 L28.3562 988.169 L28.3562 982.313 L49.7131 982.313 Q54.7739 982.313 57.3202 980.339 Q59.8346 978.366 59.8346 974.419 Q59.8346 969.677 56.8109 966.94 Q53.7872 964.171 48.5673 964.171 L28.3562 964.171 L28.3562 958.314 L64.0042 958.314 L64.0042 964.171 L58.5296 964.171 Q61.7762 966.303 63.3676 969.136 Q64.9272 971.937 64.9272 975.661 Q64.9272 981.804 61.1078 984.986 Q57.2883 988.169 49.9359 988.169 M27.4968 973.433 L27.4968 973.433 Z" fill="#000000" fill-rule="nonzero" fill-opacity="1" /><path clip-path="url(#clip240)" d="M18.2347 940.458 L28.3562 940.458 L28.3562 928.395 L32.9077 928.395 L32.9077 940.458 L52.2594 940.458 Q56.6199 940.458 57.8613 939.281 Q59.1026 938.071 59.1026 934.411 L59.1026 928.395 L64.0042 928.395 L64.0042 934.411 Q64.0042 941.19 61.4897 943.768 Q58.9434 946.347 52.2594 946.347 L32.9077 946.347 L32.9077 950.643 L28.3562 950.643 L28.3562 946.347 L18.2347 946.347 L18.2347 940.458 Z" fill="#000000" fill-rule="nonzero" fill-opacity="1" /><path clip-path="url(#clip240)" d="M21.7677 914.009 L58.7206 914.009 L58.7206 906.243 Q58.7206 896.408 54.2646 891.856 Q49.8086 887.273 40.1964 887.273 Q30.6479 887.273 26.2237 891.856 Q21.7677 896.408 21.7677 906.243 L21.7677 914.009 M16.4842 920.438 L16.4842 907.229 Q16.4842 893.416 22.2451 886.955 Q27.9743 880.493 40.1964 880.493 Q52.4822 880.493 58.2432 886.986 Q64.0042 893.479 64.0042 907.229 L64.0042 920.438 L16.4842 920.438 Z" fill="#000000" fill-rule="nonzero" fill-opacity="1" /><path clip-path="url(#clip240)" d="M28.3562 870.499 L28.3562 864.643 L64.0042 864.643 L64.0042 870.499 L28.3562 870.499 M14.479 870.499 L14.479 864.643 L21.895 864.643 L21.895 870.499 L14.479 870.499 Z" fill="#000000" fill-rule="nonzero" fill-opacity="1" /><path clip-path="url(#clip240)" d="M46.0847 836.188 Q46.0847 843.286 47.7079 846.023 Q49.3312 848.76 53.2461 848.76 Q56.3653 848.76 58.2114 846.723 Q60.0256 844.654 60.0256 841.121 Q60.0256 836.252 56.5881 833.323 Q53.1188 830.363 47.3897 830.363 L46.0847 830.363 L46.0847 836.188 M43.6657 824.507 L64.0042 824.507 L64.0042 830.363 L58.5933 830.363 Q61.8398 832.369 63.3994 835.36 Q64.9272 838.352 64.9272 842.681 Q64.9272 848.156 61.8716 851.402 Q58.7843 854.617 53.6281 854.617 Q47.6125 854.617 44.5569 850.606 Q41.5014 846.564 41.5014 838.575 L41.5014 830.363 L40.9285 830.363 Q36.8862 830.363 34.6901 833.037 Q32.4621 835.679 32.4621 840.485 Q32.4621 843.54 33.1941 846.437 Q33.9262 849.333 35.3903 852.007 L29.9795 852.007 Q28.7381 848.792 28.1334 845.768 Q27.4968 842.745 27.4968 839.88 Q27.4968 832.146 31.5072 828.326 Q35.5176 824.507 43.6657 824.507 Z" fill="#000000" fill-rule="nonzero" fill-opacity="1" /><path clip-path="url(#clip240)" d="M46.212 786.854 Q39.7508 786.854 36.0905 789.527 Q32.3984 792.169 32.3984 796.816 Q32.3984 801.463 36.0905 804.137 Q39.7508 806.778 46.212 806.778 Q52.6732 806.778 56.3653 804.137 Q60.0256 801.463 60.0256 796.816 Q60.0256 792.169 56.3653 789.527 Q52.6732 786.854 46.212 786.854 M33.7671 806.778 Q30.5842 804.932 29.0564 802.131 Q27.4968 799.299 27.4968 795.384 Q27.4968 788.891 32.6531 784.849 Q37.8093 780.775 46.212 780.775 Q54.6147 780.775 59.771 784.849 Q64.9272 788.891 64.9272 795.384 Q64.9272 799.299 63.3994 802.131 Q61.8398 804.932 58.657 806.778 L64.0042 806.778 L64.0042 812.667 L14.479 812.667 L14.479 806.778 L33.7671 806.778 Z" fill="#000000" fill-rule="nonzero" fill-opacity="1" /><path clip-path="url(#clip240)" d="M46.0847 754.866 Q46.0847 761.964 47.7079 764.701 Q49.3312 767.438 53.2461 767.438 Q56.3653 767.438 58.2114 765.401 Q60.0256 763.332 60.0256 759.8 Q60.0256 754.93 56.5881 752.002 Q53.1188 749.041 47.3897 749.041 L46.0847 749.041 L46.0847 754.866 M43.6657 743.185 L64.0042 743.185 L64.0042 749.041 L58.5933 749.041 Q61.8398 751.047 63.3994 754.039 Q64.9272 757.03 64.9272 761.359 Q64.9272 766.834 61.8716 770.08 Q58.7843 773.295 53.6281 773.295 Q47.6125 773.295 44.5569 769.284 Q41.5014 765.242 41.5014 757.253 L41.5014 749.041 L40.9285 749.041 Q36.8862 749.041 34.6901 751.715 Q32.4621 754.357 32.4621 759.163 Q32.4621 762.218 33.1941 765.115 Q33.9262 768.011 35.3903 770.685 L29.9795 770.685 Q28.7381 767.47 28.1334 764.446 Q27.4968 761.423 27.4968 758.558 Q27.4968 750.824 31.5072 747.004 Q35.5176 743.185 43.6657 743.185 Z" fill="#000000" fill-rule="nonzero" fill-opacity="1" /><path clip-path="url(#clip240)" d="M18.2347 725.329 L28.3562 725.329 L28.3562 713.266 L32.9077 713.266 L32.9077 725.329 L52.2594 725.329 Q56.6199 725.329 57.8613 724.152 Q59.1026 722.942 59.1026 719.282 L59.1026 713.266 L64.0042 713.266 L64.0042 719.282 Q64.0042 726.061 61.4897 728.639 Q58.9434 731.217 52.2594 731.217 L32.9077 731.217 L32.9077 735.514 L28.3562 735.514 L28.3562 731.217 L18.2347 731.217 L18.2347 725.329 Z" fill="#000000" fill-rule="nonzero" fill-opacity="1" /><path clip-path="url(#clip240)" d="M28.3562 705.564 L28.3562 699.707 L64.0042 699.707 L64.0042 705.564 L28.3562 705.564 M14.479 705.564 L14.479 699.707 L21.895 699.707 L21.895 705.564 L14.479 705.564 Z" fill="#000000" fill-rule="nonzero" fill-opacity="1" /><path clip-path="url(#clip240)" d="M29.7248 661.799 L35.1993 661.799 Q33.8307 664.282 33.1623 666.797 Q32.4621 669.279 32.4621 671.825 Q32.4621 677.523 36.0905 680.674 Q39.6872 683.825 46.212 683.825 Q52.7369 683.825 56.3653 680.674 Q59.9619 677.523 59.9619 671.825 Q59.9619 669.279 59.2935 666.797 Q58.5933 664.282 57.2247 661.799 L62.6355 661.799 Q63.7814 664.25 64.3543 666.892 Q64.9272 669.502 64.9272 672.462 Q64.9272 680.515 59.8664 685.257 Q54.8057 690 46.212 690 Q37.491 690 32.4939 685.225 Q27.4968 680.419 27.4968 672.08 Q27.4968 669.375 28.0697 666.797 Q28.6108 664.218 29.7248 661.799 Z" fill="#000000" fill-rule="nonzero" fill-opacity="1" /><path clip-path="url(#clip240)" d="M21.7677 644.93 L39.6235 644.93 L39.6235 636.846 Q39.6235 632.358 37.3 629.907 Q34.9765 627.456 30.6797 627.456 Q26.4147 627.456 24.0912 629.907 Q21.7677 632.358 21.7677 636.846 L21.7677 644.93 M16.4842 651.36 L16.4842 636.846 Q16.4842 628.857 20.1126 624.783 Q23.7092 620.677 30.6797 620.677 Q37.7138 620.677 41.3104 624.783 Q44.907 628.857 44.907 636.846 L44.907 644.93 L64.0042 644.93 L64.0042 651.36 L16.4842 651.36 Z" fill="#000000" fill-rule="nonzero" fill-opacity="1" /><path clip-path="url(#clip240)" d="M32.4621 600.816 Q32.4621 605.527 36.1542 608.264 Q39.8145 611.001 46.212 611.001 Q52.6095 611.001 56.3017 608.296 Q59.9619 605.558 59.9619 600.816 Q59.9619 596.137 56.2698 593.4 Q52.5777 590.663 46.212 590.663 Q39.8781 590.663 36.186 593.4 Q32.4621 596.137 32.4621 600.816 M27.4968 600.816 Q27.4968 593.177 32.4621 588.817 Q37.4273 584.456 46.212 584.456 Q54.9649 584.456 59.9619 588.817 Q64.9272 593.177 64.9272 600.816 Q64.9272 608.487 59.9619 612.847 Q54.9649 617.176 46.212 617.176 Q37.4273 617.176 32.4621 612.847 Q27.4968 608.487 27.4968 600.816 Z" fill="#000000" fill-rule="nonzero" fill-opacity="1" /><path clip-path="url(#clip240)" d="M58.657 569.083 L77.5631 569.083 L77.5631 574.971 L28.3562 574.971 L28.3562 569.083 L33.7671 569.083 Q30.5842 567.237 29.0564 564.436 Q27.4968 561.603 27.4968 557.688 Q27.4968 551.195 32.6531 547.153 Q37.8093 543.079 46.212 543.079 Q54.6147 543.079 59.771 547.153 Q64.9272 551.195 64.9272 557.688 Q64.9272 561.603 63.3994 564.436 Q61.8398 567.237 58.657 569.083 M46.212 549.158 Q39.7508 549.158 36.0905 551.832 Q32.3984 554.474 32.3984 559.121 Q32.3984 563.768 36.0905 566.441 Q39.7508 569.083 46.212 569.083 Q52.6732 569.083 56.3653 566.441 Q60.0256 563.768 60.0256 559.121 Q60.0256 554.474 56.3653 551.832 Q52.6732 549.158 46.212 549.158 Z" fill="#000000" fill-rule="nonzero" fill-opacity="1" /><path clip-path="url(#clip240)" d="M49.9359 533.976 L28.3562 533.976 L28.3562 528.12 L49.7131 528.12 Q54.7739 528.12 57.3202 526.146 Q59.8346 524.173 59.8346 520.226 Q59.8346 515.484 56.8109 512.746 Q53.7872 509.977 48.5673 509.977 L28.3562 509.977 L28.3562 504.121 L64.0042 504.121 L64.0042 509.977 L58.5296 509.977 Q61.7762 512.11 63.3676 514.943 Q64.9272 517.744 64.9272 521.467 Q64.9272 527.61 61.1078 530.793 Q57.2883 533.976 49.9359 533.976 M27.4968 519.239 L27.4968 519.239 Z" fill="#000000" fill-rule="nonzero" fill-opacity="1" /><path clip-path="url(#clip240)" d="M14.479 492.058 L14.479 486.201 L64.0042 486.201 L64.0042 492.058 L14.479 492.058 Z" fill="#000000" fill-rule="nonzero" fill-opacity="1" /><path clip-path="url(#clip240)" d="M46.0847 457.747 Q46.0847 464.844 47.7079 467.582 Q49.3312 470.319 53.2461 470.319 Q56.3653 470.319 58.2114 468.282 Q60.0256 466.213 60.0256 462.68 Q60.0256 457.81 56.5881 454.882 Q53.1188 451.922 47.3897 451.922 L46.0847 451.922 L46.0847 457.747 M43.6657 446.066 L64.0042 446.066 L64.0042 451.922 L58.5933 451.922 Q61.8398 453.927 63.3994 456.919 Q64.9272 459.911 64.9272 464.24 Q64.9272 469.714 61.8716 472.961 Q58.7843 476.175 53.6281 476.175 Q47.6125 476.175 44.5569 472.165 Q41.5014 468.123 41.5014 460.134 L41.5014 451.922 L40.9285 451.922 Q36.8862 451.922 34.6901 454.596 Q32.4621 457.237 32.4621 462.044 Q32.4621 465.099 33.1941 467.996 Q33.9262 470.892 35.3903 473.566 L29.9795 473.566 Q28.7381 470.351 28.1334 467.327 Q27.4968 464.303 27.4968 461.439 Q27.4968 453.705 31.5072 449.885 Q35.5176 446.066 43.6657 446.066 Z" fill="#000000" fill-rule="nonzero" fill-opacity="1" /><path clip-path="url(#clip240)" d="M18.2347 428.21 L28.3562 428.21 L28.3562 416.147 L32.9077 416.147 L32.9077 428.21 L52.2594 428.21 Q56.6199 428.21 57.8613 427.032 Q59.1026 425.823 59.1026 422.162 L59.1026 416.147 L64.0042 416.147 L64.0042 422.162 Q64.0042 428.942 61.4897 431.52 Q58.9434 434.098 52.2594 434.098 L32.9077 434.098 L32.9077 438.395 L28.3562 438.395 L28.3562 434.098 L18.2347 434.098 L18.2347 428.21 Z" fill="#000000" fill-rule="nonzero" fill-opacity="1" /><path clip-path="url(#clip240)" d="M28.3562 408.444 L28.3562 402.588 L64.0042 402.588 L64.0042 408.444 L28.3562 408.444 M14.479 408.444 L14.479 402.588 L21.895 402.588 L21.895 408.444 L14.479 408.444 Z" fill="#000000" fill-rule="nonzero" fill-opacity="1" /><path clip-path="url(#clip240)" d="M32.4621 376.52 Q32.4621 381.231 36.1542 383.968 Q39.8145 386.705 46.212 386.705 Q52.6095 386.705 56.3017 384 Q59.9619 381.263 59.9619 376.52 Q59.9619 371.842 56.2698 369.104 Q52.5777 366.367 46.212 366.367 Q39.8781 366.367 36.186 369.104 Q32.4621 371.842 32.4621 376.52 M27.4968 376.52 Q27.4968 368.881 32.4621 364.521 Q37.4273 360.16 46.212 360.16 Q54.9649 360.16 59.9619 364.521 Q64.9272 368.881 64.9272 376.52 Q64.9272 384.191 59.9619 388.551 Q54.9649 392.88 46.212 392.88 Q37.4273 392.88 32.4621 388.551 Q27.4968 384.191 27.4968 376.52 Z" fill="#000000" fill-rule="nonzero" fill-opacity="1" /><path clip-path="url(#clip240)" d="M42.4881 320.82 L64.0042 320.82 L64.0042 326.677 L42.679 326.677 Q37.6183 326.677 35.1038 328.65 Q32.5894 330.624 32.5894 334.57 Q32.5894 339.313 35.6131 342.05 Q38.6368 344.787 43.8567 344.787 L64.0042 344.787 L64.0042 350.676 L28.3562 350.676 L28.3562 344.787 L33.8944 344.787 Q30.6797 342.687 29.0883 339.854 Q27.4968 336.989 27.4968 333.265 Q27.4968 327.122 31.3163 323.971 Q35.1038 320.82 42.4881 320.82 Z" fill="#000000" fill-rule="nonzero" fill-opacity="1" /><polyline clip-path="url(#clip242)" style="stroke:#009af9; stroke-linecap:round; stroke-linejoin:round; stroke-width:4; stroke-opacity:1; fill:none" points="344.853,1105.75 345.037,1105.75 346.576,1105.75 350.557,1105.75 356.819,1105.75 364.751,1105.75 387.953,1105.77 417.151,1105.82 446.277,1105.94 477.115,1106.19 509.356,1106.72 543.181,1107.83 578.531,1110.08 615.794,1114.65 656.278,1123.99 700.703,1141.61 740.858,1162.77 780.344,1180.6 821.857,1184.98 860.988,1170.88 900.882,1138.13 940.255,1083.35 981.653,985.113 1021.85,821.776 1048.82,666.72 1072.31,518.006 1096.29,406.454 1112.38,402.843 1126.51,480.025 1141.96,663.994 1155.67,881.768 1167.68,1043.2 1179.54,1081.21 1189.6,965.765 1199.44,735.142 1208.14,516.908 1216.32,410.911 1223.71,473.941 1230.61,671.03 1236.91,896.181 1242.75,1039.5 1248.18,1033.52 1253.18,888.721 1257.87,675.979 1262.31,494.57 1266.4,427.244 1270.35,499.199 1273.95,669.435 1277.48,872 1280.62,1008.44 1283.77,1039.69 1286.72,949.861 1289.47,784.205 1292.18,598.732 1294.6,473.22 1297.13,432.467 1299.47,495.714 1301.72,634.828 1304.06,816.227 1306.05,953.093 1308.21,1036.36 1310.38,1022.04 1312.23,931.308 1314.32,768.984 1316.34,599.68 1318.14,481.737 1320.17,429.209 1322.04,472.501 1323.82,587.726 1325.78,760.732 1327.53,911.937 1329.3,1017.69 1331.19,1042.31 1332.83,981.452 1334.59,846.644 1336.42,672 1337.97,536.536 1339.72,441.126 1341.48,435.9 1342.96,505.406 1344.69,652.46 1346.41,824.757 1347.83,950.648 1349.55,1039.33 1351.22,1034.26 1352.63,958.413 1354.33,804.155 1355.95,634.596 1357.36,509.45 1359.03,428.234 1360.62,441.908 1362.03,526.566 1363.68,686.907 1365.23,853.623 1366.64,977.944 1368.28,1049.72 1369.8,1026.66 1371.2,931.733 1372.82,765.795 1374.31,602.534 1375.72,480.062 1377.32,419.374 1378.78,452.325 1380.2,558.47 1381.78,729.154 1383.21,888.029 1384.64,1007.46 1386.2,1056.05 1387.61,1013.39 1389.04,895.822 1390.58,721.635 1391.96,567.835 1393.4,452.393 1394.93,415.804 1396.28,467.177 1397.73,595.378 1399.24,771.652 1400.57,920.188 1402.02,1031.23 1403.51,1057.06 1404.82,998.615 1406.27,861.399 1407.75,684.182 1409.04,540.396 1410.49,433.373 1411.96,416.113 1413.23,479.705 1414.68,623.832 1416.13,801.33 1417.39,941.452 1418.84,1045.42 1420.28,1056.66 1421.52,989.678 1422.98,840.691 1424.4,663.055 1425.63,525.233 1427.08,423.083 1428.5,415.531 1429.71,484.572 1431.17,636.769 1432.57,814.689 1433.78,951.46 1435.23,1052.85 1436.63,1058.45 1437.83,988.204 1439.28,833.922 1440.67,655.463 1441.86,518.803 1443.31,417.419 1444.69,412.658 1445.88,483.604 1447.32,639.283 1448.7,818.497 1449.89,955.628 1451.32,1057.45 1452.7,1062.01 1453.88,990.607 1455.32,833.896 1456.69,653.767 1457.87,515.834 1459.3,413.338 1460.67,408.656 1461.84,480.384 1463.27,637.943 1464.64,819.081 1465.81,957.976 1467.23,1061.26 1468.6,1066.21 1469.77,994.195 1471.19,835.858 1472.55,653.651 1473.72,513.718 1475.13,409.604 1476.49,404.323 1477.66,476.606 1479.07,635.699 1480.43,819.007 1481.6,960.003 1483.01,1064.96 1484.36,1070.58 1485.53,998.021 1486.94,838.162 1488.29,653.727 1489.45,511.66 1490.86,405.853 1492.21,399.907 1493.37,472.754 1494.78,633.394 1496.13,818.97 1497.29,962.103 1498.69,1068.75 1500.04,1075 1501.2,1001.85 1502.6,840.402 1503.95,653.672 1505.11,509.478 1506.51,402.003 1507.85,395.461 1509.01,468.932 1510.41,631.209 1511.75,819.103 1512.91,964.349 1514.3,1072.64 1515.65,1079.45 1516.8,1005.64 1518.2,842.511 1519.54,653.442 1520.69,507.15 1522.09,398.043 1523.43,390.992 1524.58,465.148 1525.97,629.156 1527.31,819.409 1528.47,966.739 1529.86,1076.65 1531.2,1083.93 1532.35,1009.4 1533.74,844.498 1535.08,653.052 1536.23,504.687 1537.62,393.979 1538.96,386.493 1540.11,461.391 1541.5,627.216 1542.83,819.864 1543.99,969.258 1545.37,1080.76 1546.71,1088.43 1547.86,1013.15 1549.24,846.386 1550.58,652.527 1551.73,502.105 1553.12,389.818 1554.45,381.961 1555.6,457.648 1556.98,625.365 1558.32,820.442 1559.47,971.888 1560.85,1084.96 1562.18,1092.98 1563.34,1016.88 1564.72,848.197 1566.05,651.891 1567.2,499.421 1568.58,385.569 1569.91,377.389 1571.06,453.907 1572.44,623.581 1573.78,821.123 1574.93,974.615 1576.31,1089.25 1577.64,1097.57 1578.79,1020.63 1580.17,849.95 1581.5,651.163 1582.65,496.647 1584.03,381.237 1585.36,372.774 1586.5,450.158 1587.88,621.847 1589.21,821.887 1590.36,977.428 1591.74,1093.62 1593.07,1102.21 1594.22,1024.38 1595.6,851.662 1596.93,650.36 1598.07,493.792 1599.45,376.827 1600.78,368.111 1601.93,446.392 1603.31,620.149 1604.63,822.721 1605.78,980.317 1607.16,1098.06 1608.49,1106.89 1609.63,1028.15 1611.01,853.345 1612.34,649.494 1613.49,490.866 1614.86,372.342 1616.19,363.398 1617.34,442.603 1618.71,618.475 1620.04,823.613 1621.19,983.275 1622.56,1102.58 1623.89,1111.63 1625.04,1031.95 1626.41,855.009 1627.74,648.575 1628.89,487.875 1630.26,367.786 1631.59,358.632 1632.74,438.786 1634.11,616.817 1635.44,824.555 1636.59,986.296 1637.96,1107.17 1639.29,1116.42 1640.44,1035.79 1641.81,856.661 1643.14,647.61 1644.28,484.823 1645.66,363.16 1646.98,353.811 1648.13,434.936 1649.5,615.166 1650.83,825.538 1651.98,989.375 1653.35,1111.83 1654.68,1121.27 1655.82,1039.65 1657.2,858.309 1658.52,646.608 1659.67,481.715 1661.04,358.466 1662.37,348.933 1663.52,431.05 1664.89,613.517 1666.22,826.557 1667.36,992.51 1668.73,1116.56 1670.06,1126.18 1671.21,1043.56 1672.58,859.958 1673.91,645.571 1675.05,478.553 1676.42,353.706 1677.75,343.998 1678.9,427.124 1680.27,611.866 1681.6,827.608 1682.74,995.698 1684.11,1121.35 1685.44,1131.14 1686.59,1047.5 1687.96,861.611 1689.28,644.505 1690.43,475.339 1691.8,348.878 1693.13,339.002 1694.27,423.156 1695.65,610.208 1696.97,828.688 1698.12,998.936 1699.49,1126.21 1700.81,1136.17 1701.96,1051.49 1703.33,863.273 1704.66,643.412 1705.8,472.076 1707.18,343.985 1708.5,333.945 1709.65,419.144 1711.02,608.541 1712.34,829.793 1713.49,1002.22 1714.86,1131.13 1716.19,1141.26 1717.33,1055.53 1718.7,864.946 1720.03,642.295 1721.18,468.764 1722.55,339.027 1723.87,328.825 1725.02,415.086 1726.39,606.862 1727.72,830.921 1728.86,1005.56 1730.23,1136.13 1731.56,1146.41 1732.7,1059.61 1734.08,866.632 1735.4,641.155 1736.55,465.405 1737.92,334.002 1739.24,323.642 1740.39,410.98 1741.76,605.168 1743.08,832.072 1744.23,1008.94 1745.6,1141.18 1746.93,1151.62 1748.07,1063.74 1749.44,868.333 1750.77,639.994 1751.91,461.998 1753.29,328.911 1754.61,318.394 1755.76,406.825 1757.13,603.459 1758.45,833.242 1759.6,1012.37 1760.97,1146.31 1762.29,1156.9 1763.44,1067.92 1764.81,870.05 1766.14,638.813 1767.28,458.545 1768.65,323.754 1769.98,313.08 1771.12,402.62 1772.49,601.732 1773.82,834.433 1774.96,1015.85 1776.34,1151.5 1777.66,1162.25 1778.81,1072.15 1780.18,871.786 1781.5,637.613 1782.65,455.045 1784.02,318.529 1785.34,307.7 1786.49,398.364 1787.86,599.987 1789.19,835.642 1790.33,1019.37 1791.7,1156.76 1793.03,1167.66 1794.17,1076.43 1795.54,873.54 1796.87,636.394 1798.01,451.498 1799.38,313.238 1800.71,302.252 1801.85,394.055 1803.23,598.223 1804.55,836.87 1805.7,1022.94 1807.07,1162.08 1808.39,1173.15 1809.54,1080.77 1810.91,875.314 1812.23,635.158 1813.38,447.905 1814.75,307.878 1816.07,296.735 1817.22,389.693 1818.59,596.439 1819.92,838.115 1821.06,1026.56 1822.43,1167.48 1823.76,1178.7 1824.9,1085.16 1826.27,877.109 1827.6,633.904 1828.74,444.265 1830.11,302.449 1831.44,291.149 1832.58,385.276 1833.95,594.634 1835.28,839.378 1836.42,1030.22 1837.8,1172.94 1839.12,1184.32 1840.27,1089.6 1841.64,878.924 1842.96,632.632 1844.11,440.577 1845.48,296.951 1846.8,285.491 1847.95,380.804 1849.32,592.807 1850.64,840.659 1851.79,1033.93 1853.16,1178.47 1854.48,1190.01 1855.63,1094.1 1857,880.762 1858.33,631.342 1859.47,436.842 1860.84,291.383 1862.17,279.763 1863.31,376.275 1864.68,590.959 1866.01,841.957 1867.15,1037.69 1868.52,1184.08 1869.85,1195.78 1870.99,1098.66 1872.36,882.622 1873.69,630.036 1874.83,433.058 1876.21,285.743 1877.53,273.961 1878.67,371.69 1880.05,589.087 1881.37,843.272 1882.52,1041.5 1883.89,1189.75 1885.21,1201.61 1886.36,1103.27 1887.73,884.505 1889.05,628.712 1890.2,429.226 1891.57,280.032 1892.89,268.086 1894.04,367.047 1895.41,587.193 1896.73,844.605 1897.88,1045.36 1899.25,1195.5 1900.58,1207.53 1901.72,1107.94 1903.09,886.41 1904.42,627.37 1905.56,425.345 1906.93,274.248 1908.26,262.137 1909.4,362.345 1910.77,585.276 1912.1,845.955 1913.24,1049.26 1914.61,1201.32 1915.94,1213.51 1917.08,1112.68 1918.45,888.34 1919.78,626.011 1920.92,421.415 1922.3,268.39 1923.62,256.112 1924.76,357.584 1926.14,583.334 1927.46,847.323 1928.61,1053.22 1929.98,1207.21 1931.3,1219.58 1932.45,1117.47 1933.82,890.294 1935.14,624.634 1936.29,417.434 1937.66,262.458 1938.98,250.011 1940.13,352.762 1941.5,581.368 1942.82,848.709 1943.97,1057.22 1945.34,1213.18 1946.66,1225.72 1947.81,1122.32 1949.18,892.272 1950.51,623.239 1951.65,413.402 1953.02,256.451 1954.35,243.833 1955.49,347.88 1956.86,579.377 1958.19,850.112 1959.33,1061.28 1960.7,1219.23 1962.03,1231.93 1963.17,1127.23 1964.54,894.275 1965.87,621.827 1967.01,409.319 1968.38,250.367 1969.71,237.576 1970.85,342.935 1972.23,577.362 1973.55,851.534 1974.7,1065.39 1976.07,1225.35 1977.39,1238.23 1978.54,1132.21 1979.91,896.303 1981.23,620.396 1982.38,405.184 1983.75,244.206 1985.07,231.239 1986.22,337.928 1987.59,575.32 1988.91,852.974 1990.06,1069.55 1991.43,1231.55 1992.75,1244.61 1993.9,1137.25 1995.27,898.357 1996.59,618.947 1997.74,400.997 1999.11,237.967 2000.44,224.823 2001.58,332.858 2002.95,573.254 2004.28,854.432 2005.42,1073.76 2006.79,1237.83 2008.12,1251.06 2009.26,1142.35 2010.63,900.437 2011.96,617.48 2013.1,396.756 2014.47,231.648 2015.8,218.324 2016.94,327.723 2018.31,571.161 2019.64,855.909 2020.78,1078.03 2022.16,1244.19 2023.48,1257.6 2024.62,1147.52 2026,902.543 2027.32,615.994 2028.47,392.461 2029.84,225.249 2031.16,211.744 2032.31,322.523 2033.68,569.041 2035,857.404 2036.15,1082.35 2037.52,1250.63 2038.84,1264.23 2039.99,1152.75 2041.36,904.676 2042.68,614.489 2043.83,388.112 2045.2,218.769 2046.52,205.08 2047.67,317.257 2049.04,566.895 2050.36,858.919 2051.51,1086.73 2052.88,1257.15 2054.21,1270.93 2055.35,1158.05 2056.72,906.836 2058.05,612.964 2059.19,383.708 2060.56,212.207 2061.89,198.331 2063.03,311.924 2064.4,564.721 2065.73,860.453 2066.87,1091.16 2068.24,1263.75 2069.57,1277.72 2070.71,1163.42 2072.08,909.024 2073.41,611.421 2074.55,379.247 2075.93,205.561 2077.25,191.497 2078.4,306.524 2079.77,562.52 2081.09,862.006 2082.24,1095.65 2083.61,1270.44 2084.93,1284.6 2086.08,1168.85 2087.45,911.239 2088.77,609.857 2089.92,374.73 2091.29,198.831 2092.61,184.575 2093.76,301.055 2095.13,560.291 2096.45,863.579 2097.6,1100.2 2098.97,1277.21 2100.29,1291.57 2101.44,1174.35 2102.81,913.482 2104.14,608.274 2105.28,370.156 2106.65,192.015 2107.98,177.566 2109.12,295.516 2110.49,558.034 2111.82,865.172 2112.96,1104.8 2114.33,1284.07 2115.66,1298.62 2116.8,1179.93 2118.17,915.753 2119.5,606.671 2120.64,365.523 2122.01,185.113 2123.34,170.468 2124.48,289.908 2125.85,555.748 2127.18,866.786 2128.32,1109.46 2129.7,1291.02 2131.02,1305.76 2132.17,1185.57 2133.54,918.054 2134.86,605.047 2136.01,360.832 2137.38,178.124 2138.7,163.28 2139.85,284.228 2141.22,553.433 2142.54,868.42 2143.69,1114.18 2145.06,1298.05 2146.38,1313 2147.53,1191.29 2148.9,920.383 2150.22,603.403 2151.37,356.081 2152.74,171.045 2154.06,156.001 2155.21,278.476 2156.58,551.089 2157.91,870.075 2159.05,1118.96 2160.42,1305.18 2161.75,1320.32 2162.89,1197.07 2164.26,922.742 2165.59,601.738 2166.73,351.27 2168.1,163.877 2169.43,148.629 2170.57,272.651 2171.94,548.715 2173.27,871.75 2174.41,1123.81 2175.78,1312.39 2177.11,1327.74 2178.25,1202.94 2179.62,925.131 2180.95,600.052 2182.09,346.398 2183.47,156.618 2184.79,141.164 2185.94,266.752 2187.31,546.31 2188.63,873.447 2189.78,1128.71 2191.15,1319.69 2192.47,1335.25 2193.62,1208.87 2194.99,927.551 2196.31,598.344 2197.46,341.464 2198.83,149.266 2200.15,133.604 2201.3,260.778 2202.67,543.875 2203.99,875.166 2205.14,1133.67 2206.51,1327.09 2207.83,1342.86 2208.98,1214.88 2210.35,930.001 2211.68,596.615 2212.82,336.467 2214.19,141.822 2215.52,125.948 2216.66,254.729 2218.03,541.41 2219.36,876.906 2220.5,1138.7 2221.87,1334.58 2223.2,1350.56 2224.34,1220.97 2225.71,932.482 2227.04,594.863 2228.18,331.407 2229.55,134.283 2230.88,118.195 2232.02,248.602 2233.4,538.913 2234.72,878.668 2235.87,1143.79 2237.24,1342.17 2238.56,1358.37 2239.71,1227.14 2241.08,934.995 2242.4,593.09 2243.55,326.283 2244.92,126.648 2246.24,110.343 2247.39,242.398 2248.76,536.384 2250.08,880.453 2251.23,1148.95 2252.6,1349.85 2253.92,1366.27 2255.07,1233.38 2256.44,937.539 2257.76,591.294 2258.91,321.093 2260.28,118.916 2261.6,102.392 2262.75,236.115 2264.12,533.824 2265.45,882.261 2266.59,1154.17 2267.96,1357.63 2269.29,1374.27 2270.43,1239.7 2271.8,940.116 2273.13,589.474 2274.27,315.838 2275.64,111.086 2276.97,94.3401 2278.11,229.753 2279.48,531.231 2280.81,884.091 2281.95,1159.46 2283.32,1365.51 2284.65,1382.37 2285.79,1246.11 2287.17,942.726 2288.49,587.632 2289.64,310.516 2291.01,103.157 2292.33,86.1857 2293.48,223.309 2294.27,387.574 "/>
<polyline clip-path="url(#clip242)" style="stroke:#e26f46; stroke-linecap:round; stroke-linejoin:round; stroke-width:4; stroke-opacity:1; fill:none" points="344.853,364.675 345.037,364.675 346.576,364.675 350.557,364.674 356.819,364.673 364.751,364.671 387.953,364.656 417.151,364.604 446.277,364.488 477.115,364.233 509.356,363.7 543.181,362.597 578.531,360.346 615.794,355.77 656.278,346.435 700.703,328.811 740.858,307.652 780.344,289.828 821.857,285.441 860.988,299.546 900.882,332.293 940.255,387.074 981.653,485.311 1021.85,648.648 1048.82,803.704 1072.31,952.418 1096.29,1063.97 1112.38,1067.58 1126.51,990.399 1141.96,806.43 1155.67,588.656 1167.68,427.226 1179.54,389.211 1189.6,504.659 1199.44,735.282 1208.14,953.515 1216.32,1059.51 1223.71,996.483 1230.61,799.393 1236.91,574.243 1242.75,430.928 1248.18,436.899 1253.18,581.703 1257.87,794.445 1262.31,975.854 1266.4,1043.18 1270.35,971.225 1273.95,800.989 1277.48,598.423 1280.62,461.985 1283.77,430.732 1286.72,520.563 1289.47,686.219 1292.18,871.692 1294.6,997.204 1297.13,1037.96 1299.47,974.71 1301.72,835.596 1304.06,654.197 1306.05,517.331 1308.21,434.06 1310.38,448.385 1312.23,539.116 1314.32,701.44 1316.34,870.744 1318.14,988.687 1320.17,1041.21 1322.04,997.923 1323.82,882.698 1325.78,709.692 1327.53,558.486 1329.3,452.737 1331.19,428.116 1332.83,488.972 1334.59,623.78 1336.42,798.424 1337.97,933.888 1339.72,1029.3 1341.48,1034.52 1342.96,965.018 1344.69,817.964 1346.41,645.667 1347.83,519.776 1349.55,431.096 1351.22,436.163 1352.63,512.011 1354.33,666.269 1355.95,835.828 1357.36,960.974 1359.03,1042.19 1360.62,1028.52 1362.03,943.858 1363.68,783.517 1365.23,616.801 1366.64,492.48 1368.28,420.705 1369.8,443.763 1371.2,538.691 1372.82,704.629 1374.31,867.89 1375.72,990.362 1377.32,1051.05 1378.78,1018.1 1380.2,911.954 1381.78,741.27 1383.21,582.395 1384.64,462.967 1386.2,414.37 1387.61,457.039 1389.04,574.602 1390.58,748.789 1391.96,902.588 1393.4,1018.03 1394.93,1054.62 1396.28,1003.25 1397.73,875.046 1399.24,698.772 1400.57,550.236 1402.02,439.189 1403.51,413.366 1404.82,471.809 1406.27,609.025 1407.75,786.242 1409.04,930.028 1410.49,1037.05 1411.96,1054.31 1413.23,990.719 1414.68,846.592 1416.13,669.094 1417.39,528.972 1418.84,425 1420.28,413.759 1421.52,480.746 1422.98,629.733 1424.4,807.369 1425.63,945.191 1427.08,1047.34 1428.5,1054.89 1429.71,985.852 1431.17,833.654 1432.57,655.735 1433.78,518.963 1435.23,417.573 1436.63,411.979 1437.83,482.22 1439.28,636.502 1440.67,814.961 1441.86,951.62 1443.31,1053 1444.69,1057.77 1445.88,986.82 1447.32,831.141 1448.7,651.927 1449.89,514.795 1451.32,412.976 1452.7,408.419 1453.88,479.817 1455.32,636.528 1456.69,816.657 1457.87,954.59 1459.3,1057.09 1460.67,1061.77 1461.84,990.04 1463.27,832.481 1464.64,651.343 1465.81,512.448 1467.23,409.168 1468.6,404.216 1469.77,476.229 1471.19,634.566 1472.55,816.773 1473.72,956.706 1475.13,1060.82 1476.49,1066.1 1477.66,993.818 1479.07,834.725 1480.43,651.416 1481.6,510.421 1483.01,405.461 1484.36,399.844 1485.53,472.403 1486.94,632.262 1488.29,816.697 1489.45,958.764 1490.86,1064.57 1492.21,1070.52 1493.37,997.67 1494.78,837.029 1496.13,651.454 1497.29,508.321 1498.69,401.676 1500.04,395.423 1501.2,468.574 1502.6,630.022 1503.95,816.752 1505.11,960.946 1506.51,1068.42 1507.85,1074.96 1509.01,1001.49 1510.41,839.215 1511.75,651.321 1512.91,506.075 1514.3,397.78 1515.65,390.974 1516.8,464.781 1518.2,627.913 1519.54,816.982 1520.69,963.274 1522.09,1072.38 1523.43,1079.43 1524.58,1005.28 1525.97,841.268 1527.31,651.015 1528.47,503.685 1529.86,393.774 1531.2,386.498 1532.35,461.019 1533.74,625.926 1535.08,817.372 1536.23,965.737 1537.62,1076.45 1538.96,1083.93 1540.11,1009.03 1541.5,843.208 1542.83,650.56 1543.99,501.166 1545.37,389.667 1546.71,381.989 1547.86,457.276 1549.24,624.038 1550.58,817.897 1551.73,968.319 1553.12,1080.61 1554.45,1088.46 1555.6,1012.78 1556.98,845.059 1558.32,649.982 1559.47,498.536 1560.85,385.465 1562.18,377.442 1563.34,453.54 1564.72,622.227 1566.05,818.533 1567.2,971.003 1568.58,1084.85 1569.91,1093.03 1571.06,1016.52 1572.44,846.843 1573.78,649.301 1574.93,495.809 1576.31,381.178 1577.64,372.852 1578.79,449.799 1580.17,620.474 1581.5,819.261 1582.65,973.777 1584.03,1089.19 1585.36,1097.65 1586.5,1020.27 1587.88,848.577 1589.21,648.537 1590.36,492.996 1591.74,376.809 1593.07,368.215 1594.22,446.045 1595.6,618.762 1596.93,820.064 1598.07,976.631 1599.45,1093.6 1600.78,1102.31 1601.93,1024.03 1603.31,850.275 1604.63,647.703 1605.78,490.107 1607.16,372.363 1608.49,363.53 1609.63,442.27 1611.01,617.079 1612.34,820.93 1613.49,979.557 1614.86,1098.08 1616.19,1107.03 1617.34,1027.82 1618.71,851.949 1620.04,646.811 1621.19,487.149 1622.56,367.844 1623.89,358.792 1625.04,438.469 1626.41,615.415 1627.74,821.849 1628.89,982.549 1630.26,1102.64 1631.59,1111.79 1632.74,1031.64 1634.11,853.607 1635.44,645.869 1636.59,484.128 1637.96,363.254 1639.29,354 1640.44,434.638 1641.81,613.763 1643.14,822.813 1644.28,985.601 1645.66,1107.26 1646.98,1116.61 1648.13,1035.49 1649.5,855.258 1650.83,644.886 1651.98,481.048 1653.35,358.595 1654.68,349.152 1655.82,430.771 1657.2,612.115 1658.52,823.816 1659.67,988.709 1661.04,1111.96 1662.37,1121.49 1663.52,1039.37 1664.89,856.907 1666.22,643.867 1667.36,477.914 1668.73,353.868 1670.06,344.247 1671.21,426.866 1672.58,610.466 1673.91,824.853 1675.05,991.871 1676.42,1116.72 1677.75,1126.43 1678.9,1043.3 1680.27,858.558 1681.6,642.816 1682.74,474.726 1684.11,349.075 1685.44,339.281 1686.59,422.92 1687.96,608.812 1689.28,825.919 1690.43,995.085 1691.8,1121.55 1693.13,1131.42 1694.27,1047.27 1695.65,860.216 1696.97,641.736 1698.12,471.488 1699.49,344.215 1700.81,334.256 1701.96,418.93 1703.33,607.151 1704.66,827.012 1705.8,998.348 1707.18,1126.44 1708.5,1136.48 1709.65,1051.28 1711.02,861.883 1712.34,640.631 1713.49,468.201 1714.86,339.289 1716.19,329.168 1717.33,414.896 1718.7,605.478 1720.03,828.129 1721.18,1001.66 1722.55,1131.4 1723.87,1141.6 1725.02,1055.34 1726.39,863.562 1727.72,639.503 1728.86,464.865 1730.23,334.298 1731.56,324.017 1732.7,410.814 1734.08,603.792 1735.4,829.269 1736.55,1005.02 1737.92,1136.42 1739.24,1146.78 1740.39,1059.44 1741.76,865.256 1743.08,638.352 1744.23,461.483 1745.6,329.24 1746.93,318.802 1748.07,406.685 1749.44,602.091 1750.77,830.43 1751.91,1008.43 1753.29,1141.51 1754.61,1152.03 1755.76,1063.6 1757.13,866.965 1758.45,637.181 1759.6,458.053 1760.97,324.116 1762.29,313.521 1763.44,402.505 1764.81,600.373 1766.14,831.611 1767.28,1011.88 1768.65,1146.67 1769.98,1157.34 1771.12,1067.8 1772.49,868.692 1773.82,635.991 1774.96,454.577 1776.34,318.926 1777.66,308.175 1778.81,398.275 1780.18,598.638 1781.5,832.811 1782.65,1015.38 1784.02,1151.89 1785.34,1162.72 1786.49,1072.06 1787.86,870.437 1789.19,634.782 1790.33,451.053 1791.7,313.668 1793.03,302.76 1794.17,393.992 1795.54,596.884 1796.87,834.029 1798.01,1018.93 1799.38,1157.19 1800.71,1168.17 1801.85,1076.37 1803.23,872.201 1804.55,633.554 1805.7,447.484 1807.07,308.342 1808.39,297.278 1809.54,389.657 1810.91,595.11 1812.23,835.266 1813.38,1022.52 1814.75,1162.55 1816.07,1173.69 1817.22,1080.73 1818.59,873.985 1819.92,632.309 1821.06,443.867 1822.43,302.948 1823.76,291.727 1824.9,385.267 1826.27,593.315 1827.6,836.52 1828.74,1026.16 1830.11,1167.97 1831.44,1179.28 1832.58,1085.15 1833.95,875.79 1835.28,631.046 1836.42,440.203 1837.8,297.485 1839.12,286.105 1840.27,380.823 1841.64,591.5 1842.96,837.792 1844.11,1029.85 1845.48,1173.47 1846.8,1184.93 1847.95,1089.62 1849.32,877.616 1850.64,629.765 1851.79,436.492 1853.16,291.952 1854.48,280.412 1855.63,376.323 1857,589.662 1858.33,839.082 1859.47,1033.58 1860.84,1179.04 1862.17,1190.66 1863.31,1094.15 1864.68,879.465 1866.01,628.467 1867.15,432.732 1868.52,286.348 1869.85,274.647 1870.99,371.766 1872.36,587.802 1873.69,840.388 1874.83,1037.37 1876.21,1184.68 1877.53,1196.46 1878.67,1098.73 1880.05,881.337 1881.37,627.152 1882.52,428.925 1883.89,280.673 1885.21,268.809 1886.36,367.152 1887.73,585.919 1889.05,841.712 1890.2,1041.2 1891.57,1190.39 1892.89,1202.34 1894.04,1103.38 1895.41,883.231 1896.73,625.819 1897.88,425.068 1899.25,274.925 1900.58,262.897 1901.72,362.48 1903.09,584.014 1904.42,843.054 1905.56,1045.08 1906.93,1196.18 1908.26,1208.29 1909.4,1108.08 1910.77,885.148 1912.1,624.469 1913.24,421.162 1914.61,269.105 1915.94,256.91 1917.08,357.748 1918.45,582.084 1919.78,844.413 1920.92,1049.01 1922.3,1202.03 1923.62,1214.31 1924.76,1112.84 1926.14,887.09 1927.46,623.101 1928.61,417.207 1929.98,263.21 1931.3,250.848 1932.45,352.957 1933.82,580.13 1935.14,845.79 1936.29,1052.99 1937.66,1207.97 1938.98,1220.41 1940.13,1117.66 1941.5,889.056 1942.82,621.715 1943.97,413.2 1945.34,257.24 1946.66,244.708 1947.81,348.105 1949.18,578.152 1950.51,847.184 1951.65,1057.02 1953.02,1213.97 1954.35,1226.59 1955.49,1122.54 1956.86,891.047 1958.19,620.312 1959.33,409.143 1960.7,251.195 1962.03,238.49 1963.17,343.192 1964.54,576.149 1965.87,848.597 1967.01,1061.1 1968.38,1220.06 1969.71,1232.85 1970.85,1127.49 1972.23,893.062 1973.55,618.89 1974.7,405.034 1976.07,245.073 1977.39,232.194 1978.54,338.216 1979.91,574.12 1981.23,850.028 1982.38,1065.24 1983.75,1226.22 1985.07,1239.18 1986.22,1132.5 1987.59,895.103 1988.91,617.45 1990.06,400.873 1991.43,238.872 1992.75,225.817 1993.9,333.177 1995.27,572.067 1996.59,851.477 1997.74,1069.43 1999.11,1232.46 2000.44,1245.6 2001.58,1137.57 2002.95,897.17 2004.28,615.992 2005.42,396.659 2006.79,232.593 2008.12,219.36 2009.26,328.075 2010.63,569.987 2011.96,852.944 2013.1,1073.67 2014.47,1238.78 2015.8,1252.1 2016.94,1142.7 2018.31,899.263 2019.64,614.515 2020.78,392.392 2022.16,226.235 2023.48,212.821 2024.62,322.908 2026,567.881 2027.32,854.43 2028.47,1077.96 2029.84,1245.17 2031.16,1258.68 2032.31,1147.9 2033.68,901.383 2035,613.02 2036.15,388.07 2037.52,219.796 2038.84,206.199 2039.99,317.675 2041.36,565.748 2042.68,855.935 2043.83,1082.31 2045.2,1251.66 2046.52,1265.34 2047.67,1153.17 2049.04,903.529 2050.36,611.505 2051.51,383.693 2052.88,213.274 2054.21,199.492 2055.35,312.375 2056.72,563.588 2058.05,857.459 2059.19,1086.72 2060.56,1258.22 2061.89,1272.09 2063.03,1158.5 2064.4,905.703 2065.73,609.971 2066.87,379.261 2068.24,206.671 2069.57,192.701 2070.71,307.009 2072.08,561.4 2073.41,859.003 2074.55,1091.18 2075.93,1264.86 2077.25,1278.93 2078.4,1163.9 2079.77,907.904 2081.09,608.418 2082.24,374.772 2083.61,199.983 2084.93,185.823 2086.08,301.574 2087.45,559.185 2088.77,860.566 2089.92,1095.69 2091.29,1271.59 2092.61,1285.85 2093.76,1169.37 2095.13,910.133 2096.45,606.845 2097.6,370.227 2098.97,193.21 2100.29,178.858 2101.44,296.071 2102.81,556.942 2104.14,862.15 2105.28,1100.27 2106.65,1278.41 2107.98,1292.86 2109.12,1174.91 2110.49,912.39 2111.82,605.251 2112.96,365.623 2114.33,186.351 2115.66,171.805 2116.8,290.497 2118.17,554.671 2119.5,863.753 2120.64,1104.9 2122.01,1285.31 2123.34,1299.96 2124.48,1180.52 2125.85,914.676 2127.18,603.638 2128.32,360.962 2129.7,179.406 2131.02,164.662 2132.17,284.853 2133.54,552.37 2134.86,865.377 2136.01,1109.59 2137.38,1292.3 2138.7,1307.14 2139.85,1186.2 2141.22,916.991 2142.54,602.004 2143.69,356.24 2145.06,172.372 2146.38,157.429 2147.53,279.137 2148.9,550.041 2150.22,867.021 2151.37,1114.34 2152.74,1299.38 2154.06,1314.42 2155.21,1191.95 2156.58,919.335 2157.91,600.349 2159.05,351.46 2160.42,165.249 2161.75,150.103 2162.89,273.349 2164.26,547.682 2165.59,868.686 2166.73,1119.15 2168.1,1306.55 2169.43,1321.79 2170.57,1197.77 2171.94,921.709 2173.27,598.674 2174.41,346.618 2175.78,158.035 2177.11,142.685 2178.25,267.487 2179.62,545.292 2180.95,870.372 2182.09,1124.03 2183.47,1313.81 2184.79,1329.26 2185.94,1203.67 2187.31,924.114 2188.63,596.977 2189.78,341.715 2191.15,150.73 2192.47,135.172 2193.62,261.551 2194.99,542.873 2196.31,872.08 2197.46,1128.96 2198.83,1321.16 2200.15,1336.82 2201.3,1209.65 2202.67,926.549 2203.99,595.258 2205.14,336.75 2206.51,143.332 2207.83,127.565 2208.98,255.539 2210.35,540.423 2211.68,873.809 2212.82,1133.96 2214.19,1328.6 2215.52,1344.48 2216.66,1215.7 2218.03,929.014 2219.36,593.518 2220.5,331.722 2221.87,135.84 2223.2,119.86 2224.34,249.451 2225.71,537.942 2227.04,875.561 2228.18,1139.02 2229.55,1336.14 2230.88,1352.23 2232.02,1221.82 2233.4,931.511 2234.72,591.756 2235.87,326.629 2237.24,128.253 2238.56,112.058 2239.71,243.286 2241.08,535.429 2242.4,877.334 2243.55,1144.14 2244.92,1343.78 2246.24,1360.08 2247.39,1228.03 2248.76,934.04 2250.08,589.971 2251.23,321.473 2252.6,120.57 2253.92,104.157 2255.07,237.043 2256.44,532.884 2257.76,879.13 2258.91,1149.33 2260.28,1351.51 2261.6,1368.03 2262.75,1234.31 2264.12,936.6 2265.45,588.163 2266.59,316.25 2267.96,112.789 2269.29,96.1551 2270.43,230.72 2271.8,530.308 2273.13,880.949 2274.27,1154.59 2275.64,1359.34 2276.97,1376.08 2278.11,1240.67 2279.48,939.193 2280.81,586.333 2281.95,310.962 2283.32,104.91 2284.65,88.052 2285.79,224.317 2287.17,527.698 2288.49,882.791 2289.64,1159.91 2291.01,1367.27 2292.33,1384.24 2293.48,1247.11 2294.27,1082.85 "/>
</svg>
