<?xml version="1.0" encoding="utf-8"?>
<svg xmlns="http://www.w3.org/2000/svg" xmlns:xlink="http://www.w3.org/1999/xlink" width="600" height="400" viewBox="0 0 2400 1600">
<defs>
  <clipPath id="clip420">
    <rect x="0" y="0" width="2400" height="1600"/>
  </clipPath>
</defs>
<path clip-path="url(#clip420)" d="M0 1600 L2400 1600 L2400 8.88178e-14 L0 8.88178e-14  Z" fill="#ffffff" fill-rule="evenodd" fill-opacity="1"/>
<defs>
  <clipPath id="clip421">
    <rect x="480" y="0" width="1681" height="1600"/>
  </clipPath>
</defs>
<path clip-path="url(#clip420)" d="M280.19 1423.18 L2352.76 1423.18 L2352.76 47.2441 L280.19 47.2441  Z" fill="#ffffff" fill-rule="evenodd" fill-opacity="1"/>
<defs>
  <clipPath id="clip422">
    <rect x="280" y="47" width="2074" height="1377"/>
  </clipPath>
</defs>
<polyline clip-path="url(#clip422)" style="stroke:#000000; stroke-linecap:round; stroke-linejoin:round; stroke-width:2; stroke-opacity:0.1; fill:none" points="338.848,1423.18 338.848,47.2441 "/>
<polyline clip-path="url(#clip422)" style="stroke:#000000; stroke-linecap:round; stroke-linejoin:round; stroke-width:2; stroke-opacity:0.1; fill:none" points="811.8,1423.18 811.8,47.2441 "/>
<polyline clip-path="url(#clip422)" style="stroke:#000000; stroke-linecap:round; stroke-linejoin:round; stroke-width:2; stroke-opacity:0.1; fill:none" points="1284.75,1423.18 1284.75,47.2441 "/>
<polyline clip-path="url(#clip422)" style="stroke:#000000; stroke-linecap:round; stroke-linejoin:round; stroke-width:2; stroke-opacity:0.1; fill:none" points="1757.71,1423.18 1757.71,47.2441 "/>
<polyline clip-path="url(#clip422)" style="stroke:#000000; stroke-linecap:round; stroke-linejoin:round; stroke-width:2; stroke-opacity:0.1; fill:none" points="2230.66,1423.18 2230.66,47.2441 "/>
<polyline clip-path="url(#clip420)" style="stroke:#000000; stroke-linecap:round; stroke-linejoin:round; stroke-width:4; stroke-opacity:1; fill:none" points="280.19,1423.18 2352.76,1423.18 "/>
<polyline clip-path="url(#clip420)" style="stroke:#000000; stroke-linecap:round; stroke-linejoin:round; stroke-width:4; stroke-opacity:1; fill:none" points="338.848,1423.18 338.848,1404.28 "/>
<polyline clip-path="url(#clip420)" style="stroke:#000000; stroke-linecap:round; stroke-linejoin:round; stroke-width:4; stroke-opacity:1; fill:none" points="811.8,1423.18 811.8,1404.28 "/>
<polyline clip-path="url(#clip420)" style="stroke:#000000; stroke-linecap:round; stroke-linejoin:round; stroke-width:4; stroke-opacity:1; fill:none" points="1284.75,1423.18 1284.75,1404.28 "/>
<polyline clip-path="url(#clip420)" style="stroke:#000000; stroke-linecap:round; stroke-linejoin:round; stroke-width:4; stroke-opacity:1; fill:none" points="1757.71,1423.18 1757.71,1404.28 "/>
<polyline clip-path="url(#clip420)" style="stroke:#000000; stroke-linecap:round; stroke-linejoin:round; stroke-width:4; stroke-opacity:1; fill:none" points="2230.66,1423.18 2230.66,1404.28 "/>
<path clip-path="url(#clip420)" d="M338.848 1454.1 Q335.236 1454.1 333.408 1457.66 Q331.602 1461.2 331.602 1468.33 Q331.602 1475.44 333.408 1479.01 Q335.236 1482.55 338.848 1482.55 Q342.482 1482.55 344.287 1479.01 Q346.116 1475.44 346.116 1468.33 Q346.116 1461.2 344.287 1457.66 Q342.482 1454.1 338.848 1454.1 M338.848 1450.39 Q344.658 1450.39 347.713 1455 Q350.792 1459.58 350.792 1468.33 Q350.792 1477.06 347.713 1481.67 Q344.658 1486.25 338.848 1486.25 Q333.037 1486.25 329.959 1481.67 Q326.903 1477.06 326.903 1468.33 Q326.903 1459.58 329.959 1455 Q333.037 1450.39 338.848 1450.39 Z" fill="#000000" fill-rule="nonzero" fill-opacity="1" /><path clip-path="url(#clip420)" d="M756.326 1481.64 L763.965 1481.64 L763.965 1455.28 L755.655 1456.95 L755.655 1452.69 L763.918 1451.02 L768.594 1451.02 L768.594 1481.64 L776.233 1481.64 L776.233 1485.58 L756.326 1485.58 L756.326 1481.64 Z" fill="#000000" fill-rule="nonzero" fill-opacity="1" /><path clip-path="url(#clip420)" d="M795.678 1454.1 Q792.066 1454.1 790.238 1457.66 Q788.432 1461.2 788.432 1468.33 Q788.432 1475.44 790.238 1479.01 Q792.066 1482.55 795.678 1482.55 Q799.312 1482.55 801.117 1479.01 Q802.946 1475.44 802.946 1468.33 Q802.946 1461.2 801.117 1457.66 Q799.312 1454.1 795.678 1454.1 M795.678 1450.39 Q801.488 1450.39 804.543 1455 Q807.622 1459.58 807.622 1468.33 Q807.622 1477.06 804.543 1481.67 Q801.488 1486.25 795.678 1486.25 Q789.867 1486.25 786.789 1481.67 Q783.733 1477.06 783.733 1468.33 Q783.733 1459.58 786.789 1455 Q789.867 1450.39 795.678 1450.39 Z" fill="#000000" fill-rule="nonzero" fill-opacity="1" /><path clip-path="url(#clip420)" d="M825.839 1454.1 Q822.228 1454.1 820.4 1457.66 Q818.594 1461.2 818.594 1468.33 Q818.594 1475.44 820.4 1479.01 Q822.228 1482.55 825.839 1482.55 Q829.474 1482.55 831.279 1479.01 Q833.108 1475.44 833.108 1468.33 Q833.108 1461.2 831.279 1457.66 Q829.474 1454.1 825.839 1454.1 M825.839 1450.39 Q831.65 1450.39 834.705 1455 Q837.784 1459.58 837.784 1468.33 Q837.784 1477.06 834.705 1481.67 Q831.65 1486.25 825.839 1486.25 Q820.029 1486.25 816.951 1481.67 Q813.895 1477.06 813.895 1468.33 Q813.895 1459.58 816.951 1455 Q820.029 1450.39 825.839 1450.39 Z" fill="#000000" fill-rule="nonzero" fill-opacity="1" /><path clip-path="url(#clip420)" d="M856.001 1454.1 Q852.39 1454.1 850.561 1457.66 Q848.756 1461.2 848.756 1468.33 Q848.756 1475.44 850.561 1479.01 Q852.39 1482.55 856.001 1482.55 Q859.635 1482.55 861.441 1479.01 Q863.27 1475.44 863.27 1468.33 Q863.27 1461.2 861.441 1457.66 Q859.635 1454.1 856.001 1454.1 M856.001 1450.39 Q861.811 1450.39 864.867 1455 Q867.946 1459.58 867.946 1468.33 Q867.946 1477.06 864.867 1481.67 Q861.811 1486.25 856.001 1486.25 Q850.191 1486.25 847.112 1481.67 Q844.057 1477.06 844.057 1468.33 Q844.057 1459.58 847.112 1455 Q850.191 1450.39 856.001 1450.39 Z" fill="#000000" fill-rule="nonzero" fill-opacity="1" /><path clip-path="url(#clip420)" d="M1233.36 1481.64 L1249.68 1481.64 L1249.68 1485.58 L1227.74 1485.58 L1227.74 1481.64 Q1230.4 1478.89 1234.98 1474.26 Q1239.59 1469.61 1240.77 1468.27 Q1243.02 1465.74 1243.9 1464.01 Q1244.8 1462.25 1244.8 1460.56 Q1244.8 1457.8 1242.85 1456.07 Q1240.93 1454.33 1237.83 1454.33 Q1235.63 1454.33 1233.18 1455.09 Q1230.75 1455.86 1227.97 1457.41 L1227.97 1452.69 Q1230.79 1451.55 1233.25 1450.97 Q1235.7 1450.39 1237.74 1450.39 Q1243.11 1450.39 1246.3 1453.08 Q1249.5 1455.77 1249.5 1460.26 Q1249.5 1462.39 1248.69 1464.31 Q1247.9 1466.2 1245.79 1468.8 Q1245.22 1469.47 1242.11 1472.69 Q1239.01 1475.88 1233.36 1481.64 Z" fill="#000000" fill-rule="nonzero" fill-opacity="1" /><path clip-path="url(#clip420)" d="M1269.5 1454.1 Q1265.89 1454.1 1264.06 1457.66 Q1262.25 1461.2 1262.25 1468.33 Q1262.25 1475.44 1264.06 1479.01 Q1265.89 1482.55 1269.5 1482.55 Q1273.13 1482.55 1274.94 1479.01 Q1276.77 1475.44 1276.77 1468.33 Q1276.77 1461.2 1274.94 1457.66 Q1273.13 1454.1 1269.5 1454.1 M1269.5 1450.39 Q1275.31 1450.39 1278.36 1455 Q1281.44 1459.58 1281.44 1468.33 Q1281.44 1477.06 1278.36 1481.67 Q1275.31 1486.25 1269.5 1486.25 Q1263.69 1486.25 1260.61 1481.67 Q1257.55 1477.06 1257.55 1468.33 Q1257.55 1459.58 1260.61 1455 Q1263.69 1450.39 1269.5 1450.39 Z" fill="#000000" fill-rule="nonzero" fill-opacity="1" /><path clip-path="url(#clip420)" d="M1299.66 1454.1 Q1296.05 1454.1 1294.22 1457.66 Q1292.41 1461.2 1292.41 1468.33 Q1292.41 1475.44 1294.22 1479.01 Q1296.05 1482.55 1299.66 1482.55 Q1303.29 1482.55 1305.1 1479.01 Q1306.93 1475.44 1306.93 1468.33 Q1306.93 1461.2 1305.1 1457.66 Q1303.29 1454.1 1299.66 1454.1 M1299.66 1450.39 Q1305.47 1450.39 1308.53 1455 Q1311.6 1459.58 1311.6 1468.33 Q1311.6 1477.06 1308.53 1481.67 Q1305.47 1486.25 1299.66 1486.25 Q1293.85 1486.25 1290.77 1481.67 Q1287.72 1477.06 1287.72 1468.33 Q1287.72 1459.58 1290.77 1455 Q1293.85 1450.39 1299.66 1450.39 Z" fill="#000000" fill-rule="nonzero" fill-opacity="1" /><path clip-path="url(#clip420)" d="M1329.82 1454.1 Q1326.21 1454.1 1324.38 1457.66 Q1322.58 1461.2 1322.58 1468.33 Q1322.58 1475.44 1324.38 1479.01 Q1326.21 1482.55 1329.82 1482.55 Q1333.46 1482.55 1335.26 1479.01 Q1337.09 1475.44 1337.09 1468.33 Q1337.09 1461.2 1335.26 1457.66 Q1333.46 1454.1 1329.82 1454.1 M1329.82 1450.39 Q1335.63 1450.39 1338.69 1455 Q1341.77 1459.58 1341.77 1468.33 Q1341.77 1477.06 1338.69 1481.67 Q1335.63 1486.25 1329.82 1486.25 Q1324.01 1486.25 1320.93 1481.67 Q1317.88 1477.06 1317.88 1468.33 Q1317.88 1459.58 1320.93 1455 Q1324.01 1450.39 1329.82 1450.39 Z" fill="#000000" fill-rule="nonzero" fill-opacity="1" /><path clip-path="url(#clip420)" d="M1716.39 1466.95 Q1719.74 1467.66 1721.62 1469.93 Q1723.52 1472.2 1723.52 1475.53 Q1723.52 1480.65 1720 1483.45 Q1716.48 1486.25 1710 1486.25 Q1707.82 1486.25 1705.51 1485.81 Q1703.21 1485.39 1700.76 1484.54 L1700.76 1480.02 Q1702.71 1481.16 1705.02 1481.74 Q1707.34 1482.32 1709.86 1482.32 Q1714.26 1482.32 1716.55 1480.58 Q1718.86 1478.84 1718.86 1475.53 Q1718.86 1472.48 1716.71 1470.77 Q1714.58 1469.03 1710.76 1469.03 L1706.73 1469.03 L1706.73 1465.19 L1710.95 1465.19 Q1714.4 1465.19 1716.22 1463.82 Q1718.05 1462.43 1718.05 1459.84 Q1718.05 1457.18 1716.15 1455.77 Q1714.28 1454.33 1710.76 1454.33 Q1708.84 1454.33 1706.64 1454.75 Q1704.44 1455.16 1701.8 1456.04 L1701.8 1451.88 Q1704.46 1451.14 1706.78 1450.77 Q1709.12 1450.39 1711.18 1450.39 Q1716.5 1450.39 1719.6 1452.83 Q1722.71 1455.23 1722.71 1459.35 Q1722.71 1462.22 1721.06 1464.21 Q1719.42 1466.18 1716.39 1466.95 Z" fill="#000000" fill-rule="nonzero" fill-opacity="1" /><path clip-path="url(#clip420)" d="M1742.38 1454.1 Q1738.77 1454.1 1736.94 1457.66 Q1735.14 1461.2 1735.14 1468.33 Q1735.14 1475.44 1736.94 1479.01 Q1738.77 1482.55 1742.38 1482.55 Q1746.02 1482.55 1747.82 1479.01 Q1749.65 1475.44 1749.65 1468.33 Q1749.65 1461.2 1747.82 1457.66 Q1746.02 1454.1 1742.38 1454.1 M1742.38 1450.39 Q1748.19 1450.39 1751.25 1455 Q1754.33 1459.58 1754.33 1468.33 Q1754.33 1477.06 1751.25 1481.67 Q1748.19 1486.25 1742.38 1486.25 Q1736.57 1486.25 1733.49 1481.67 Q1730.44 1477.06 1730.44 1468.33 Q1730.44 1459.58 1733.49 1455 Q1736.57 1450.39 1742.38 1450.39 Z" fill="#000000" fill-rule="nonzero" fill-opacity="1" /><path clip-path="url(#clip420)" d="M1772.54 1454.1 Q1768.93 1454.1 1767.1 1457.66 Q1765.3 1461.2 1765.3 1468.33 Q1765.3 1475.44 1767.1 1479.01 Q1768.93 1482.55 1772.54 1482.55 Q1776.18 1482.55 1777.98 1479.01 Q1779.81 1475.44 1779.81 1468.33 Q1779.81 1461.2 1777.98 1457.66 Q1776.18 1454.1 1772.54 1454.1 M1772.54 1450.39 Q1778.35 1450.39 1781.41 1455 Q1784.49 1459.58 1784.49 1468.33 Q1784.49 1477.06 1781.41 1481.67 Q1778.35 1486.25 1772.54 1486.25 Q1766.73 1486.25 1763.65 1481.67 Q1760.6 1477.06 1760.6 1468.33 Q1760.6 1459.58 1763.65 1455 Q1766.73 1450.39 1772.54 1450.39 Z" fill="#000000" fill-rule="nonzero" fill-opacity="1" /><path clip-path="url(#clip420)" d="M1802.7 1454.1 Q1799.09 1454.1 1797.27 1457.66 Q1795.46 1461.2 1795.46 1468.33 Q1795.46 1475.44 1797.27 1479.01 Q1799.09 1482.55 1802.7 1482.55 Q1806.34 1482.55 1808.14 1479.01 Q1809.97 1475.44 1809.97 1468.33 Q1809.97 1461.2 1808.14 1457.66 Q1806.34 1454.1 1802.7 1454.1 M1802.7 1450.39 Q1808.52 1450.39 1811.57 1455 Q1814.65 1459.58 1814.65 1468.33 Q1814.65 1477.06 1811.57 1481.67 Q1808.52 1486.25 1802.7 1486.25 Q1796.89 1486.25 1793.82 1481.67 Q1790.76 1477.06 1790.76 1468.33 Q1790.76 1459.58 1793.82 1455 Q1796.89 1450.39 1802.7 1450.39 Z" fill="#000000" fill-rule="nonzero" fill-opacity="1" /><path clip-path="url(#clip420)" d="M2188.67 1455.09 L2176.86 1473.54 L2188.67 1473.54 L2188.67 1455.09 M2187.44 1451.02 L2193.32 1451.02 L2193.32 1473.54 L2198.25 1473.54 L2198.25 1477.43 L2193.32 1477.43 L2193.32 1485.58 L2188.67 1485.58 L2188.67 1477.43 L2173.07 1477.43 L2173.07 1472.92 L2187.44 1451.02 Z" fill="#000000" fill-rule="nonzero" fill-opacity="1" /><path clip-path="url(#clip420)" d="M2215.98 1454.1 Q2212.37 1454.1 2210.54 1457.66 Q2208.74 1461.2 2208.74 1468.33 Q2208.74 1475.44 2210.54 1479.01 Q2212.37 1482.55 2215.98 1482.55 Q2219.62 1482.55 2221.42 1479.01 Q2223.25 1475.44 2223.25 1468.33 Q2223.25 1461.2 2221.42 1457.66 Q2219.62 1454.1 2215.98 1454.1 M2215.98 1450.39 Q2221.79 1450.39 2224.85 1455 Q2227.93 1459.58 2227.93 1468.33 Q2227.93 1477.06 2224.85 1481.67 Q2221.79 1486.25 2215.98 1486.25 Q2210.17 1486.25 2207.09 1481.67 Q2204.04 1477.06 2204.04 1468.33 Q2204.04 1459.58 2207.09 1455 Q2210.17 1450.39 2215.98 1450.39 Z" fill="#000000" fill-rule="nonzero" fill-opacity="1" /><path clip-path="url(#clip420)" d="M2246.14 1454.1 Q2242.53 1454.1 2240.7 1457.66 Q2238.9 1461.2 2238.9 1468.33 Q2238.9 1475.44 2240.7 1479.01 Q2242.53 1482.55 2246.14 1482.55 Q2249.78 1482.55 2251.58 1479.01 Q2253.41 1475.44 2253.41 1468.33 Q2253.41 1461.2 2251.58 1457.66 Q2249.78 1454.1 2246.14 1454.1 M2246.14 1450.39 Q2251.95 1450.39 2255.01 1455 Q2258.09 1459.58 2258.09 1468.33 Q2258.09 1477.06 2255.01 1481.67 Q2251.95 1486.25 2246.14 1486.25 Q2240.33 1486.25 2237.25 1481.67 Q2234.2 1477.06 2234.2 1468.33 Q2234.2 1459.58 2237.25 1455 Q2240.33 1450.39 2246.14 1450.39 Z" fill="#000000" fill-rule="nonzero" fill-opacity="1" /><path clip-path="url(#clip420)" d="M2276.31 1454.1 Q2272.69 1454.1 2270.87 1457.66 Q2269.06 1461.2 2269.06 1468.33 Q2269.06 1475.44 2270.87 1479.01 Q2272.69 1482.55 2276.31 1482.55 Q2279.94 1482.55 2281.75 1479.01 Q2283.57 1475.44 2283.57 1468.33 Q2283.57 1461.2 2281.75 1457.66 Q2279.94 1454.1 2276.31 1454.1 M2276.31 1450.39 Q2282.12 1450.39 2285.17 1455 Q2288.25 1459.58 2288.25 1468.33 Q2288.25 1477.06 2285.17 1481.67 Q2282.12 1486.25 2276.31 1486.25 Q2270.5 1486.25 2267.42 1481.67 Q2264.36 1477.06 2264.36 1468.33 Q2264.36 1459.58 2267.42 1455 Q2270.5 1450.39 2276.31 1450.39 Z" fill="#000000" fill-rule="nonzero" fill-opacity="1" /><path clip-path="url(#clip420)" d="M1315.53 1522.27 L1315.53 1532.4 L1327.6 1532.4 L1327.6 1536.95 L1315.53 1536.95 L1315.53 1556.3 Q1315.53 1560.66 1316.71 1561.9 Q1317.92 1563.14 1321.58 1563.14 L1327.6 1563.14 L1327.6 1568.04 L1321.58 1568.04 Q1314.8 1568.04 1312.22 1565.53 Q1309.65 1562.98 1309.65 1556.3 L1309.65 1536.95 L1305.35 1536.95 L1305.35 1532.4 L1309.65 1532.4 L1309.65 1522.27 L1315.53 1522.27 Z" fill="#000000" fill-rule="nonzero" fill-opacity="1" /><polyline clip-path="url(#clip422)" style="stroke:#000000; stroke-linecap:round; stroke-linejoin:round; stroke-width:2; stroke-opacity:0.1; fill:none" points="280.19,1384.24 2352.76,1384.24 "/>
<polyline clip-path="url(#clip422)" style="stroke:#000000; stroke-linecap:round; stroke-linejoin:round; stroke-width:2; stroke-opacity:0.1; fill:none" points="280.19,1100.91 2352.76,1100.91 "/>
<polyline clip-path="url(#clip422)" style="stroke:#000000; stroke-linecap:round; stroke-linejoin:round; stroke-width:2; stroke-opacity:0.1; fill:none" points="280.19,817.574 2352.76,817.574 "/>
<polyline clip-path="url(#clip422)" style="stroke:#000000; stroke-linecap:round; stroke-linejoin:round; stroke-width:2; stroke-opacity:0.1; fill:none" points="280.19,534.242 2352.76,534.242 "/>
<polyline clip-path="url(#clip422)" style="stroke:#000000; stroke-linecap:round; stroke-linejoin:round; stroke-width:2; stroke-opacity:0.1; fill:none" points="280.19,250.909 2352.76,250.909 "/>
<polyline clip-path="url(#clip420)" style="stroke:#000000; stroke-linecap:round; stroke-linejoin:round; stroke-width:4; stroke-opacity:1; fill:none" points="280.19,1423.18 280.19,47.2441 "/>
<polyline clip-path="url(#clip420)" style="stroke:#000000; stroke-linecap:round; stroke-linejoin:round; stroke-width:4; stroke-opacity:1; fill:none" points="280.19,1384.24 299.088,1384.24 "/>
<polyline clip-path="url(#clip420)" style="stroke:#000000; stroke-linecap:round; stroke-linejoin:round; stroke-width:4; stroke-opacity:1; fill:none" points="280.19,1100.91 299.088,1100.91 "/>
<polyline clip-path="url(#clip420)" style="stroke:#000000; stroke-linecap:round; stroke-linejoin:round; stroke-width:4; stroke-opacity:1; fill:none" points="280.19,817.574 299.088,817.574 "/>
<polyline clip-path="url(#clip420)" style="stroke:#000000; stroke-linecap:round; stroke-linejoin:round; stroke-width:4; stroke-opacity:1; fill:none" points="280.19,534.242 299.088,534.242 "/>
<polyline clip-path="url(#clip420)" style="stroke:#000000; stroke-linecap:round; stroke-linejoin:round; stroke-width:4; stroke-opacity:1; fill:none" points="280.19,250.909 299.088,250.909 "/>
<path clip-path="url(#clip420)" d="M126.691 1370.04 Q123.08 1370.04 121.251 1373.6 Q119.445 1377.14 119.445 1384.27 Q119.445 1391.38 121.251 1394.94 Q123.08 1398.49 126.691 1398.49 Q130.325 1398.49 132.13 1394.94 Q133.959 1391.38 133.959 1384.27 Q133.959 1377.14 132.13 1373.6 Q130.325 1370.04 126.691 1370.04 M126.691 1366.33 Q132.501 1366.33 135.556 1370.94 Q138.635 1375.52 138.635 1384.27 Q138.635 1393 135.556 1397.61 Q132.501 1402.19 126.691 1402.19 Q120.88 1402.19 117.802 1397.61 Q114.746 1393 114.746 1384.27 Q114.746 1375.52 117.802 1370.94 Q120.88 1366.33 126.691 1366.33 Z" fill="#000000" fill-rule="nonzero" fill-opacity="1" /><path clip-path="url(#clip420)" d="M146.853 1395.64 L151.737 1395.64 L151.737 1401.52 L146.853 1401.52 L146.853 1395.64 Z" fill="#000000" fill-rule="nonzero" fill-opacity="1" /><path clip-path="url(#clip420)" d="M171.922 1370.04 Q168.311 1370.04 166.482 1373.6 Q164.677 1377.14 164.677 1384.27 Q164.677 1391.38 166.482 1394.94 Q168.311 1398.49 171.922 1398.49 Q175.556 1398.49 177.362 1394.94 Q179.19 1391.38 179.19 1384.27 Q179.19 1377.14 177.362 1373.6 Q175.556 1370.04 171.922 1370.04 M171.922 1366.33 Q177.732 1366.33 180.788 1370.94 Q183.866 1375.52 183.866 1384.27 Q183.866 1393 180.788 1397.61 Q177.732 1402.19 171.922 1402.19 Q166.112 1402.19 163.033 1397.61 Q159.978 1393 159.978 1384.27 Q159.978 1375.52 163.033 1370.94 Q166.112 1366.33 171.922 1366.33 Z" fill="#000000" fill-rule="nonzero" fill-opacity="1" /><path clip-path="url(#clip420)" d="M202.084 1370.04 Q198.473 1370.04 196.644 1373.6 Q194.838 1377.14 194.838 1384.27 Q194.838 1391.38 196.644 1394.94 Q198.473 1398.49 202.084 1398.49 Q205.718 1398.49 207.524 1394.94 Q209.352 1391.38 209.352 1384.27 Q209.352 1377.14 207.524 1373.6 Q205.718 1370.04 202.084 1370.04 M202.084 1366.33 Q207.894 1366.33 210.949 1370.94 Q214.028 1375.52 214.028 1384.27 Q214.028 1393 210.949 1397.61 Q207.894 1402.19 202.084 1402.19 Q196.274 1402.19 193.195 1397.61 Q190.139 1393 190.139 1384.27 Q190.139 1375.52 193.195 1370.94 Q196.274 1366.33 202.084 1366.33 Z" fill="#000000" fill-rule="nonzero" fill-opacity="1" /><path clip-path="url(#clip420)" d="M232.246 1370.04 Q228.635 1370.04 226.806 1373.6 Q225 1377.14 225 1384.27 Q225 1391.38 226.806 1394.94 Q228.635 1398.49 232.246 1398.49 Q235.88 1398.49 237.685 1394.94 Q239.514 1391.38 239.514 1384.27 Q239.514 1377.14 237.685 1373.6 Q235.88 1370.04 232.246 1370.04 M232.246 1366.33 Q238.056 1366.33 241.111 1370.94 Q244.19 1375.52 244.19 1384.27 Q244.19 1393 241.111 1397.61 Q238.056 1402.19 232.246 1402.19 Q226.435 1402.19 223.357 1397.61 Q220.301 1393 220.301 1384.27 Q220.301 1375.52 223.357 1370.94 Q226.435 1366.33 232.246 1366.33 Z" fill="#000000" fill-rule="nonzero" fill-opacity="1" /><path clip-path="url(#clip420)" d="M127.917 1086.7 Q124.306 1086.7 122.478 1090.27 Q120.672 1093.81 120.672 1100.94 Q120.672 1108.05 122.478 1111.61 Q124.306 1115.15 127.917 1115.15 Q131.552 1115.15 133.357 1111.61 Q135.186 1108.05 135.186 1100.94 Q135.186 1093.81 133.357 1090.27 Q131.552 1086.7 127.917 1086.7 M127.917 1083 Q133.728 1083 136.783 1087.61 Q139.862 1092.19 139.862 1100.94 Q139.862 1109.67 136.783 1114.27 Q133.728 1118.86 127.917 1118.86 Q122.107 1118.86 119.029 1114.27 Q115.973 1109.67 115.973 1100.94 Q115.973 1092.19 119.029 1087.61 Q122.107 1083 127.917 1083 Z" fill="#000000" fill-rule="nonzero" fill-opacity="1" /><path clip-path="url(#clip420)" d="M148.079 1112.31 L152.964 1112.31 L152.964 1118.19 L148.079 1118.19 L148.079 1112.31 Z" fill="#000000" fill-rule="nonzero" fill-opacity="1" /><path clip-path="url(#clip420)" d="M173.149 1086.7 Q169.538 1086.7 167.709 1090.27 Q165.903 1093.81 165.903 1100.94 Q165.903 1108.05 167.709 1111.61 Q169.538 1115.15 173.149 1115.15 Q176.783 1115.15 178.589 1111.61 Q180.417 1108.05 180.417 1100.94 Q180.417 1093.81 178.589 1090.27 Q176.783 1086.7 173.149 1086.7 M173.149 1083 Q178.959 1083 182.014 1087.61 Q185.093 1092.19 185.093 1100.94 Q185.093 1109.67 182.014 1114.27 Q178.959 1118.86 173.149 1118.86 Q167.339 1118.86 164.26 1114.27 Q161.204 1109.67 161.204 1100.94 Q161.204 1092.19 164.26 1087.61 Q167.339 1083 173.149 1083 Z" fill="#000000" fill-rule="nonzero" fill-opacity="1" /><path clip-path="url(#clip420)" d="M203.311 1086.7 Q199.7 1086.7 197.871 1090.27 Q196.065 1093.81 196.065 1100.94 Q196.065 1108.05 197.871 1111.61 Q199.7 1115.15 203.311 1115.15 Q206.945 1115.15 208.75 1111.61 Q210.579 1108.05 210.579 1100.94 Q210.579 1093.81 208.75 1090.27 Q206.945 1086.7 203.311 1086.7 M203.311 1083 Q209.121 1083 212.176 1087.61 Q215.255 1092.19 215.255 1100.94 Q215.255 1109.67 212.176 1114.27 Q209.121 1118.86 203.311 1118.86 Q197.5 1118.86 194.422 1114.27 Q191.366 1109.67 191.366 1100.94 Q191.366 1092.19 194.422 1087.61 Q197.5 1083 203.311 1083 Z" fill="#000000" fill-rule="nonzero" fill-opacity="1" /><path clip-path="url(#clip420)" d="M224.283 1114.25 L231.922 1114.25 L231.922 1087.89 L223.611 1089.55 L223.611 1085.29 L231.875 1083.63 L236.551 1083.63 L236.551 1114.25 L244.19 1114.25 L244.19 1118.19 L224.283 1118.19 L224.283 1114.25 Z" fill="#000000" fill-rule="nonzero" fill-opacity="1" /><path clip-path="url(#clip420)" d="M128.288 803.372 Q124.677 803.372 122.848 806.937 Q121.043 810.479 121.043 817.609 Q121.043 824.715 122.848 828.28 Q124.677 831.821 128.288 831.821 Q131.922 831.821 133.728 828.28 Q135.556 824.715 135.556 817.609 Q135.556 810.479 133.728 806.937 Q131.922 803.372 128.288 803.372 M128.288 799.669 Q134.098 799.669 137.154 804.275 Q140.232 808.859 140.232 817.609 Q140.232 826.335 137.154 830.942 Q134.098 835.525 128.288 835.525 Q122.478 835.525 119.399 830.942 Q116.343 826.335 116.343 817.609 Q116.343 808.859 119.399 804.275 Q122.478 799.669 128.288 799.669 Z" fill="#000000" fill-rule="nonzero" fill-opacity="1" /><path clip-path="url(#clip420)" d="M148.45 828.974 L153.334 828.974 L153.334 834.854 L148.45 834.854 L148.45 828.974 Z" fill="#000000" fill-rule="nonzero" fill-opacity="1" /><path clip-path="url(#clip420)" d="M173.519 803.372 Q169.908 803.372 168.079 806.937 Q166.274 810.479 166.274 817.609 Q166.274 824.715 168.079 828.28 Q169.908 831.821 173.519 831.821 Q177.153 831.821 178.959 828.28 Q180.788 824.715 180.788 817.609 Q180.788 810.479 178.959 806.937 Q177.153 803.372 173.519 803.372 M173.519 799.669 Q179.329 799.669 182.385 804.275 Q185.463 808.859 185.463 817.609 Q185.463 826.335 182.385 830.942 Q179.329 835.525 173.519 835.525 Q167.709 835.525 164.63 830.942 Q161.575 826.335 161.575 817.609 Q161.575 808.859 164.63 804.275 Q167.709 799.669 173.519 799.669 Z" fill="#000000" fill-rule="nonzero" fill-opacity="1" /><path clip-path="url(#clip420)" d="M203.681 803.372 Q200.07 803.372 198.241 806.937 Q196.436 810.479 196.436 817.609 Q196.436 824.715 198.241 828.28 Q200.07 831.821 203.681 831.821 Q207.315 831.821 209.121 828.28 Q210.949 824.715 210.949 817.609 Q210.949 810.479 209.121 806.937 Q207.315 803.372 203.681 803.372 M203.681 799.669 Q209.491 799.669 212.547 804.275 Q215.625 808.859 215.625 817.609 Q215.625 826.335 212.547 830.942 Q209.491 835.525 203.681 835.525 Q197.871 835.525 194.792 830.942 Q191.737 826.335 191.737 817.609 Q191.737 808.859 194.792 804.275 Q197.871 799.669 203.681 799.669 Z" fill="#000000" fill-rule="nonzero" fill-opacity="1" /><path clip-path="url(#clip420)" d="M227.871 830.919 L244.19 830.919 L244.19 834.854 L222.246 834.854 L222.246 830.919 Q224.908 828.164 229.491 823.534 Q234.097 818.882 235.278 817.539 Q237.523 815.016 238.403 813.28 Q239.306 811.521 239.306 809.831 Q239.306 807.076 237.361 805.34 Q235.44 803.604 232.338 803.604 Q230.139 803.604 227.685 804.368 Q225.255 805.132 222.477 806.683 L222.477 801.96 Q225.301 800.826 227.755 800.248 Q230.209 799.669 232.246 799.669 Q237.616 799.669 240.81 802.354 Q244.005 805.039 244.005 809.53 Q244.005 811.659 243.195 813.581 Q242.408 815.479 240.301 818.071 Q239.722 818.743 236.621 821.96 Q233.519 825.155 227.871 830.919 Z" fill="#000000" fill-rule="nonzero" fill-opacity="1" /><path clip-path="url(#clip420)" d="M127.339 520.04 Q123.728 520.04 121.899 523.605 Q120.093 527.147 120.093 534.276 Q120.093 541.383 121.899 544.948 Q123.728 548.489 127.339 548.489 Q130.973 548.489 132.779 544.948 Q134.607 541.383 134.607 534.276 Q134.607 527.147 132.779 523.605 Q130.973 520.04 127.339 520.04 M127.339 516.337 Q133.149 516.337 136.204 520.943 Q139.283 525.526 139.283 534.276 Q139.283 543.003 136.204 547.61 Q133.149 552.193 127.339 552.193 Q121.529 552.193 118.45 547.61 Q115.394 543.003 115.394 534.276 Q115.394 525.526 118.45 520.943 Q121.529 516.337 127.339 516.337 Z" fill="#000000" fill-rule="nonzero" fill-opacity="1" /><path clip-path="url(#clip420)" d="M147.501 545.642 L152.385 545.642 L152.385 551.522 L147.501 551.522 L147.501 545.642 Z" fill="#000000" fill-rule="nonzero" fill-opacity="1" /><path clip-path="url(#clip420)" d="M172.57 520.04 Q168.959 520.04 167.13 523.605 Q165.325 527.147 165.325 534.276 Q165.325 541.383 167.13 544.948 Q168.959 548.489 172.57 548.489 Q176.204 548.489 178.01 544.948 Q179.839 541.383 179.839 534.276 Q179.839 527.147 178.01 523.605 Q176.204 520.04 172.57 520.04 M172.57 516.337 Q178.38 516.337 181.436 520.943 Q184.514 525.526 184.514 534.276 Q184.514 543.003 181.436 547.61 Q178.38 552.193 172.57 552.193 Q166.76 552.193 163.681 547.61 Q160.626 543.003 160.626 534.276 Q160.626 525.526 163.681 520.943 Q166.76 516.337 172.57 516.337 Z" fill="#000000" fill-rule="nonzero" fill-opacity="1" /><path clip-path="url(#clip420)" d="M202.732 520.04 Q199.121 520.04 197.292 523.605 Q195.487 527.147 195.487 534.276 Q195.487 541.383 197.292 544.948 Q199.121 548.489 202.732 548.489 Q206.366 548.489 208.172 544.948 Q210 541.383 210 534.276 Q210 527.147 208.172 523.605 Q206.366 520.04 202.732 520.04 M202.732 516.337 Q208.542 516.337 211.598 520.943 Q214.676 525.526 214.676 534.276 Q214.676 543.003 211.598 547.61 Q208.542 552.193 202.732 552.193 Q196.922 552.193 193.843 547.61 Q190.788 543.003 190.788 534.276 Q190.788 525.526 193.843 520.943 Q196.922 516.337 202.732 516.337 Z" fill="#000000" fill-rule="nonzero" fill-opacity="1" /><path clip-path="url(#clip420)" d="M237.06 532.887 Q240.417 533.605 242.292 535.874 Q244.19 538.142 244.19 541.475 Q244.19 546.591 240.672 549.392 Q237.153 552.193 230.672 552.193 Q228.496 552.193 226.181 551.753 Q223.889 551.336 221.436 550.48 L221.436 545.966 Q223.38 547.1 225.695 547.679 Q228.01 548.258 230.533 548.258 Q234.931 548.258 237.222 546.522 Q239.537 544.786 239.537 541.475 Q239.537 538.42 237.384 536.707 Q235.255 534.971 231.435 534.971 L227.408 534.971 L227.408 531.128 L231.621 531.128 Q235.07 531.128 236.898 529.762 Q238.727 528.374 238.727 525.781 Q238.727 523.119 236.829 521.707 Q234.954 520.272 231.435 520.272 Q229.514 520.272 227.315 520.688 Q225.116 521.105 222.477 521.985 L222.477 517.818 Q225.139 517.077 227.454 516.707 Q229.792 516.337 231.852 516.337 Q237.176 516.337 240.278 518.767 Q243.38 521.175 243.38 525.295 Q243.38 528.165 241.736 530.156 Q240.093 532.124 237.06 532.887 Z" fill="#000000" fill-rule="nonzero" fill-opacity="1" /><path clip-path="url(#clip420)" d="M126.205 236.708 Q122.593 236.708 120.765 240.273 Q118.959 243.814 118.959 250.944 Q118.959 258.051 120.765 261.615 Q122.593 265.157 126.205 265.157 Q129.839 265.157 131.644 261.615 Q133.473 258.051 133.473 250.944 Q133.473 243.814 131.644 240.273 Q129.839 236.708 126.205 236.708 M126.205 233.004 Q132.015 233.004 135.07 237.611 Q138.149 242.194 138.149 250.944 Q138.149 259.671 135.07 264.277 Q132.015 268.861 126.205 268.861 Q120.394 268.861 117.316 264.277 Q114.26 259.671 114.26 250.944 Q114.26 242.194 117.316 237.611 Q120.394 233.004 126.205 233.004 Z" fill="#000000" fill-rule="nonzero" fill-opacity="1" /><path clip-path="url(#clip420)" d="M146.366 262.31 L151.251 262.31 L151.251 268.189 L146.366 268.189 L146.366 262.31 Z" fill="#000000" fill-rule="nonzero" fill-opacity="1" /><path clip-path="url(#clip420)" d="M171.436 236.708 Q167.825 236.708 165.996 240.273 Q164.19 243.814 164.19 250.944 Q164.19 258.051 165.996 261.615 Q167.825 265.157 171.436 265.157 Q175.07 265.157 176.876 261.615 Q178.704 258.051 178.704 250.944 Q178.704 243.814 176.876 240.273 Q175.07 236.708 171.436 236.708 M171.436 233.004 Q177.246 233.004 180.301 237.611 Q183.38 242.194 183.38 250.944 Q183.38 259.671 180.301 264.277 Q177.246 268.861 171.436 268.861 Q165.626 268.861 162.547 264.277 Q159.491 259.671 159.491 250.944 Q159.491 242.194 162.547 237.611 Q165.626 233.004 171.436 233.004 Z" fill="#000000" fill-rule="nonzero" fill-opacity="1" /><path clip-path="url(#clip420)" d="M201.598 236.708 Q197.987 236.708 196.158 240.273 Q194.352 243.814 194.352 250.944 Q194.352 258.051 196.158 261.615 Q197.987 265.157 201.598 265.157 Q205.232 265.157 207.037 261.615 Q208.866 258.051 208.866 250.944 Q208.866 243.814 207.037 240.273 Q205.232 236.708 201.598 236.708 M201.598 233.004 Q207.408 233.004 210.463 237.611 Q213.542 242.194 213.542 250.944 Q213.542 259.671 210.463 264.277 Q207.408 268.861 201.598 268.861 Q195.787 268.861 192.709 264.277 Q189.653 259.671 189.653 250.944 Q189.653 242.194 192.709 237.611 Q195.787 233.004 201.598 233.004 Z" fill="#000000" fill-rule="nonzero" fill-opacity="1" /><path clip-path="url(#clip420)" d="M234.607 237.703 L222.801 256.152 L234.607 256.152 L234.607 237.703 M233.38 233.629 L239.259 233.629 L239.259 256.152 L244.19 256.152 L244.19 260.041 L239.259 260.041 L239.259 268.189 L234.607 268.189 L234.607 260.041 L219.005 260.041 L219.005 255.527 L233.38 233.629 Z" fill="#000000" fill-rule="nonzero" fill-opacity="1" /><path clip-path="url(#clip420)" d="M20.8447 1013.82 Q20.8447 1020.83 26.0645 1024.96 Q31.2844 1029.07 40.2919 1029.07 Q49.2675 1029.07 54.4874 1024.96 Q59.7073 1020.83 59.7073 1013.82 Q59.7073 1006.82 54.4874 1002.75 Q49.2675 998.641 40.2919 998.641 Q31.2844 998.641 26.0645 1002.75 Q20.8447 1006.82 20.8447 1013.82 M15.6248 1013.82 Q15.6248 1003.83 22.3406 997.845 Q29.0246 991.861 40.2919 991.861 Q51.5274 991.861 58.2432 997.845 Q64.9272 1003.83 64.9272 1013.82 Q64.9272 1023.85 58.2432 1029.86 Q51.5592 1035.85 40.2919 1035.85 Q29.0246 1035.85 22.3406 1029.86 Q15.6248 1023.85 15.6248 1013.82 Z" fill="#000000" fill-rule="nonzero" fill-opacity="1" /><path clip-path="url(#clip420)" d="M49.9359 982.663 L28.3562 982.663 L28.3562 976.806 L49.7131 976.806 Q54.7739 976.806 57.3202 974.833 Q59.8346 972.86 59.8346 968.913 Q59.8346 964.171 56.8109 961.433 Q53.7872 958.664 48.5673 958.664 L28.3562 958.664 L28.3562 952.808 L64.0042 952.808 L64.0042 958.664 L58.5296 958.664 Q61.7762 960.797 63.3676 963.629 Q64.9272 966.43 64.9272 970.154 Q64.9272 976.297 61.1078 979.48 Q57.2883 982.663 49.9359 982.663 M27.4968 967.926 L27.4968 967.926 Z" fill="#000000" fill-rule="nonzero" fill-opacity="1" /><path clip-path="url(#clip420)" d="M18.2347 934.952 L28.3562 934.952 L28.3562 922.889 L32.9077 922.889 L32.9077 934.952 L52.2594 934.952 Q56.6199 934.952 57.8613 933.774 Q59.1026 932.565 59.1026 928.905 L59.1026 922.889 L64.0042 922.889 L64.0042 928.905 Q64.0042 935.684 61.4897 938.262 Q58.9434 940.84 52.2594 940.84 L32.9077 940.84 L32.9077 945.137 L28.3562 945.137 L28.3562 940.84 L18.2347 940.84 L18.2347 934.952 Z" fill="#000000" fill-rule="nonzero" fill-opacity="1" /><path clip-path="url(#clip420)" d="M58.657 909.521 L77.5631 909.521 L77.5631 915.409 L28.3562 915.409 L28.3562 909.521 L33.7671 909.521 Q30.5842 907.675 29.0564 904.874 Q27.4968 902.041 27.4968 898.126 Q27.4968 891.633 32.6531 887.591 Q37.8093 883.517 46.212 883.517 Q54.6147 883.517 59.771 887.591 Q64.9272 891.633 64.9272 898.126 Q64.9272 902.041 63.3994 904.874 Q61.8398 907.675 58.657 909.521 M46.212 889.596 Q39.7508 889.596 36.0905 892.27 Q32.3984 894.912 32.3984 899.559 Q32.3984 904.206 36.0905 906.879 Q39.7508 909.521 46.212 909.521 Q52.6732 909.521 56.3653 906.879 Q60.0256 904.206 60.0256 899.559 Q60.0256 894.912 56.3653 892.27 Q52.6732 889.596 46.212 889.596 Z" fill="#000000" fill-rule="nonzero" fill-opacity="1" /><path clip-path="url(#clip420)" d="M49.9359 874.414 L28.3562 874.414 L28.3562 868.558 L49.7131 868.558 Q54.7739 868.558 57.3202 866.584 Q59.8346 864.611 59.8346 860.664 Q59.8346 855.922 56.8109 853.184 Q53.7872 850.415 48.5673 850.415 L28.3562 850.415 L28.3562 844.559 L64.0042 844.559 L64.0042 850.415 L58.5296 850.415 Q61.7762 852.548 63.3676 855.381 Q64.9272 858.182 64.9272 861.905 Q64.9272 868.048 61.1078 871.231 Q57.2883 874.414 49.9359 874.414 M27.4968 859.677 L27.4968 859.677 Z" fill="#000000" fill-rule="nonzero" fill-opacity="1" /><path clip-path="url(#clip420)" d="M18.2347 826.703 L28.3562 826.703 L28.3562 814.64 L32.9077 814.64 L32.9077 826.703 L52.2594 826.703 Q56.6199 826.703 57.8613 825.525 Q59.1026 824.316 59.1026 820.656 L59.1026 814.64 L64.0042 814.64 L64.0042 820.656 Q64.0042 827.435 61.4897 830.013 Q58.9434 832.591 52.2594 832.591 L32.9077 832.591 L32.9077 836.888 L28.3562 836.888 L28.3562 832.591 L18.2347 832.591 L18.2347 826.703 Z" fill="#000000" fill-rule="nonzero" fill-opacity="1" /><path clip-path="url(#clip420)" d="M16.4842 813.271 L16.4842 773.072 L21.895 773.072 L21.895 789.941 L64.0042 789.941 L64.0042 796.402 L21.895 796.402 L21.895 813.271 L16.4842 813.271 Z" fill="#000000" fill-rule="nonzero" fill-opacity="1" /><path clip-path="url(#clip420)" d="M32.4621 764.383 Q32.4621 769.093 36.1542 771.831 Q39.8145 774.568 46.212 774.568 Q52.6095 774.568 56.3017 771.863 Q59.9619 769.125 59.9619 764.383 Q59.9619 759.704 56.2698 756.967 Q52.5777 754.23 46.212 754.23 Q39.8781 754.23 36.186 756.967 Q32.4621 759.704 32.4621 764.383 M27.4968 764.383 Q27.4968 756.744 32.4621 752.383 Q37.4273 748.023 46.212 748.023 Q54.9649 748.023 59.9619 752.383 Q64.9272 756.744 64.9272 764.383 Q64.9272 772.053 59.9619 776.414 Q54.9649 780.743 46.212 780.743 Q37.4273 780.743 32.4621 776.414 Q27.4968 772.053 27.4968 764.383 Z" fill="#000000" fill-rule="nonzero" fill-opacity="1" /><path clip-path="url(#clip420)" d="M18.2347 732.522 L28.3562 732.522 L28.3562 720.459 L32.9077 720.459 L32.9077 732.522 L52.2594 732.522 Q56.6199 732.522 57.8613 731.345 Q59.1026 730.135 59.1026 726.475 L59.1026 720.459 L64.0042 720.459 L64.0042 726.475 Q64.0042 733.255 61.4897 735.833 Q58.9434 738.411 52.2594 738.411 L32.9077 738.411 L32.9077 742.708 L28.3562 742.708 L28.3562 738.411 L18.2347 738.411 L18.2347 732.522 Z" fill="#000000" fill-rule="nonzero" fill-opacity="1" /><path clip-path="url(#clip420)" d="M46.0847 696.556 Q46.0847 703.654 47.7079 706.391 Q49.3312 709.128 53.2461 709.128 Q56.3653 709.128 58.2114 707.091 Q60.0256 705.023 60.0256 701.49 Q60.0256 696.62 56.5881 693.692 Q53.1188 690.732 47.3897 690.732 L46.0847 690.732 L46.0847 696.556 M43.6657 684.875 L64.0042 684.875 L64.0042 690.732 L58.5933 690.732 Q61.8398 692.737 63.3994 695.729 Q64.9272 698.721 64.9272 703.049 Q64.9272 708.524 61.8716 711.77 Q58.7843 714.985 53.6281 714.985 Q47.6125 714.985 44.5569 710.975 Q41.5014 706.932 41.5014 698.943 L41.5014 690.732 L40.9285 690.732 Q36.8862 690.732 34.6901 693.405 Q32.4621 696.047 32.4621 700.853 Q32.4621 703.909 33.1941 706.805 Q33.9262 709.701 35.3903 712.375 L29.9795 712.375 Q28.7381 709.16 28.1334 706.137 Q27.4968 703.113 27.4968 700.248 Q27.4968 692.514 31.5072 688.695 Q35.5176 684.875 43.6657 684.875 Z" fill="#000000" fill-rule="nonzero" fill-opacity="1" /><path clip-path="url(#clip420)" d="M14.479 672.812 L14.479 666.956 L64.0042 666.956 L64.0042 672.812 L14.479 672.812 Z" fill="#000000" fill-rule="nonzero" fill-opacity="1" /><path clip-path="url(#clip420)" d="M16.4842 654.447 L16.4842 624.401 L21.895 624.401 L21.895 648.018 L35.9632 648.018 L35.9632 625.388 L41.3741 625.388 L41.3741 648.018 L58.5933 648.018 L58.5933 623.828 L64.0042 623.828 L64.0042 654.447 L16.4842 654.447 Z" fill="#000000" fill-rule="nonzero" fill-opacity="1" /><path clip-path="url(#clip420)" d="M42.4881 583.883 L64.0042 583.883 L64.0042 589.74 L42.679 589.74 Q37.6183 589.74 35.1038 591.713 Q32.5894 593.686 32.5894 597.633 Q32.5894 602.376 35.6131 605.113 Q38.6368 607.85 43.8567 607.85 L64.0042 607.85 L64.0042 613.738 L28.3562 613.738 L28.3562 607.85 L33.8944 607.85 Q30.6797 605.749 29.0883 602.917 Q27.4968 600.052 27.4968 596.328 Q27.4968 590.185 31.3163 587.034 Q35.1038 583.883 42.4881 583.883 Z" fill="#000000" fill-rule="nonzero" fill-opacity="1" /><path clip-path="url(#clip420)" d="M44.7161 541.71 L47.5806 541.71 L47.5806 568.637 Q53.6281 568.255 56.8109 565.009 Q59.9619 561.731 59.9619 555.906 Q59.9619 552.532 59.1344 549.381 Q58.3069 546.198 56.6518 543.079 L62.1899 543.079 Q63.5267 546.23 64.227 549.54 Q64.9272 552.85 64.9272 556.256 Q64.9272 564.786 59.9619 569.783 Q54.9967 574.748 46.5303 574.748 Q37.7774 574.748 32.6531 570.038 Q27.4968 565.295 27.4968 557.275 Q27.4968 550.081 32.1438 545.912 Q36.7589 541.71 44.7161 541.71 M42.9973 547.567 Q38.1912 547.631 35.3266 550.272 Q32.4621 552.882 32.4621 557.211 Q32.4621 562.112 35.2312 565.073 Q38.0002 568.001 43.0292 568.446 L42.9973 547.567 Z" fill="#000000" fill-rule="nonzero" fill-opacity="1" /><path clip-path="url(#clip420)" d="M33.8307 511.441 Q33.2578 512.428 33.0032 513.606 Q32.7167 514.752 32.7167 516.152 Q32.7167 521.117 35.9632 523.791 Q39.1779 526.433 45.2253 526.433 L64.0042 526.433 L64.0042 532.321 L28.3562 532.321 L28.3562 526.433 L33.8944 526.433 Q30.6479 524.587 29.0883 521.627 Q27.4968 518.667 27.4968 514.433 Q27.4968 513.829 27.5923 513.097 Q27.656 512.364 27.8151 511.473 L33.8307 511.441 Z" fill="#000000" fill-rule="nonzero" fill-opacity="1" /><path clip-path="url(#clip420)" d="M45.7664 482.987 Q39.4007 482.987 35.8996 485.629 Q32.3984 488.238 32.3984 492.981 Q32.3984 497.692 35.8996 500.333 Q39.4007 502.943 45.7664 502.943 Q52.1003 502.943 55.6014 500.333 Q59.1026 497.692 59.1026 492.981 Q59.1026 488.238 55.6014 485.629 Q52.1003 482.987 45.7664 482.987 M59.58 477.13 Q68.683 477.13 73.1071 481.173 Q77.5631 485.215 77.5631 493.554 Q77.5631 496.641 77.0857 499.378 Q76.6401 502.116 75.6852 504.694 L69.9879 504.694 Q71.3884 502.116 72.0568 499.601 Q72.7252 497.087 72.7252 494.477 Q72.7252 488.716 69.7015 485.851 Q66.7096 482.987 60.6303 482.987 L57.7339 482.987 Q60.885 484.801 62.4446 487.634 Q64.0042 490.466 64.0042 494.413 Q64.0042 500.97 59.0071 504.98 Q54.01 508.991 45.7664 508.991 Q37.491 508.991 32.4939 504.98 Q27.4968 500.97 27.4968 494.413 Q27.4968 490.466 29.0564 487.634 Q30.616 484.801 33.7671 482.987 L28.3562 482.987 L28.3562 477.13 L59.58 477.13 Z" fill="#000000" fill-rule="nonzero" fill-opacity="1" /><path clip-path="url(#clip420)" d="M67.3143 450.235 Q73.68 452.718 75.6216 455.073 Q77.5631 457.428 77.5631 461.375 L77.5631 466.054 L72.6615 466.054 L72.6615 462.616 Q72.6615 460.198 71.5157 458.861 Q70.3699 457.524 66.1048 455.901 L63.4312 454.85 L28.3562 469.269 L28.3562 463.062 L56.238 451.922 L28.3562 440.782 L28.3562 434.576 L67.3143 450.235 Z" fill="#000000" fill-rule="nonzero" fill-opacity="1" /><polyline clip-path="url(#clip422)" style="stroke:#009af9; stroke-linecap:round; stroke-linejoin:round; stroke-width:4; stroke-opacity:1; fill:none" points="338.848,1384.24 348.624,1374.32 358.4,1350.93 368.176,1357.85 377.953,1357.86 387.729,1357.11 397.505,1283.15 407.281,1222.49 417.058,1233.98 426.834,1201.5 436.61,1154.04 446.386,1149.32 456.163,1103.94 465.939,1074.91 475.715,1006.27 485.491,940.29 495.268,966.354 505.044,1027.17 514.82,962.522 524.596,1037.55 534.373,758.789 544.149,806.409 553.925,694.777 563.701,621.155 573.478,629.943 583.254,724.894 593.03,664.704 602.806,609.513 612.583,555.697 622.359,516.358 632.135,496.811 641.911,621.545 651.688,601.789 661.464,667.516 671.24,634.341 681.016,654.708 690.793,637.854 700.569,565.862 710.345,569.842 720.121,596.106 729.898,576.591 739.674,794.023 749.45,737.819 759.226,650.849 769.003,683.76 778.779,856.582 788.555,882.873 798.331,872.988 808.108,901.084 817.884,971.205 827.66,998.092 837.437,993.396 847.213,908.784 856.989,926.852 866.765,829.256 876.542,731.14 886.318,686.265 896.094,766.885 905.87,705.196 915.647,632.069 925.423,635.777 935.199,631.758 944.975,748.164 954.752,719.548 964.528,1039.37 974.304,1079.78 984.08,1126.83 993.857,1162.17 1003.63,1164.26 1013.41,1205.04 1023.19,1237.4 1032.96,1226.82 1042.74,1231.54 1052.51,1244.85 1062.29,1224.92 1072.07,1000.32 1081.84,994.155 1091.62,1038.34 1101.4,1049.37 1111.17,1026.07 1120.95,961.985 1130.72,959.826 1140.5,856.697 1150.28,744.68 1160.05,531.419 1169.83,568.42 1179.61,703.03 1189.38,714.208 1199.16,829.833 1208.93,712.127 1218.71,610.297 1228.49,415.924 1238.26,332.829 1248.04,239.634 1257.82,224.379 1267.59,298.882 1277.37,351.493 1287.14,286.213 1296.92,315.41 1306.7,314.869 1316.47,202.019 1326.25,86.1857 1336.03,89.8311 1345.8,108.593 1355.58,351.853 1365.35,378.496 1375.13,439.331 1384.91,286.05 1394.68,506.269 1404.46,368.376 1414.24,242.9 1424.01,165.89 1433.79,104.476 1443.56,213.734 1453.34,142.536 1463.12,128.29 1472.89,170.342 1482.67,504.951 1492.45,567.957 1502.22,573.546 1512,618.662 1521.77,649.352 1531.55,458.457 1541.33,415.94 1551.1,416.369 1560.88,328.503 1570.66,779.754 1580.43,787.106 1590.21,656.845 1599.98,622.747 1609.76,605.112 1619.54,628.223 1629.31,627.994 1639.09,977.755 1648.87,1125.86 1658.64,946.236 1668.42,933.961 1678.19,932.626 1687.97,890.548 1697.75,924.834 1707.52,869.661 1717.3,882.071 1727.08,906.231 1736.85,931.546 1746.63,913.923 1756.4,797.56 1766.18,835.055 1775.96,849.274 1785.73,783.036 1795.51,750.907 1805.29,734.345 1815.06,605.15 1824.84,761.305 1834.61,907.571 1844.39,739.174 1854.17,744.067 1863.94,834.615 1873.72,647.74 1883.5,619.853 1893.27,625.9 1903.05,656.044 1912.82,499.68 1922.6,526.414 1932.38,544.412 1942.15,374.633 1951.93,414.889 1961.71,368.378 1971.48,439.096 1981.26,470.904 1991.03,577.601 2000.81,570.239 2010.59,556.007 2020.36,496.624 2030.14,626.325 2039.92,603.989 2049.69,600.007 2059.47,735.059 2069.24,731.375 2079.02,708.47 2088.8,677.526 2098.57,578.817 2108.35,563.507 2118.13,580.762 2127.9,629.672 2137.68,547.344 2147.45,535.696 2157.23,527.907 2167.01,643.809 2176.78,599.025 2186.56,619.223 2196.34,586.739 2206.11,559.135 2215.89,532.685 2225.66,247.439 2235.44,237.033 2245.22,304.85 2254.99,200.662 2264.77,227.343 2274.55,405.89 2284.32,563.478 2294.1,393.982 "/>
</svg>
