<?xml version="1.0" encoding="utf-8"?>
<svg xmlns="http://www.w3.org/2000/svg" xmlns:xlink="http://www.w3.org/1999/xlink" width="600" height="400" viewBox="0 0 2400 1600">
<defs>
  <clipPath id="clip090">
    <rect x="0" y="0" width="2400" height="1600"/>
  </clipPath>
</defs>
<path clip-path="url(#clip090)" d="M0 1600 L2400 1600 L2400 0 L0 0  Z" fill="#ffffff" fill-rule="evenodd" fill-opacity="1"/>
<defs>
  <clipPath id="clip091">
    <rect x="480" y="0" width="1681" height="1600"/>
  </clipPath>
</defs>
<path clip-path="url(#clip090)" d="M249.542 1423.18 L2352.76 1423.18 L2352.76 47.2441 L249.542 47.2441  Z" fill="#ffffff" fill-rule="evenodd" fill-opacity="1"/>
<defs>
  <clipPath id="clip092">
    <rect x="249" y="47" width="2104" height="1377"/>
  </clipPath>
</defs>
<polyline clip-path="url(#clip092)" style="stroke:#000000; stroke-linecap:round; stroke-linejoin:round; stroke-width:2; stroke-opacity:0.1; fill:none" points="309.067,1423.18 309.067,47.2441 "/>
<polyline clip-path="url(#clip092)" style="stroke:#000000; stroke-linecap:round; stroke-linejoin:round; stroke-width:2; stroke-opacity:0.1; fill:none" points="970.455,1423.18 970.455,47.2441 "/>
<polyline clip-path="url(#clip092)" style="stroke:#000000; stroke-linecap:round; stroke-linejoin:round; stroke-width:2; stroke-opacity:0.1; fill:none" points="1631.84,1423.18 1631.84,47.2441 "/>
<polyline clip-path="url(#clip092)" style="stroke:#000000; stroke-linecap:round; stroke-linejoin:round; stroke-width:2; stroke-opacity:0.1; fill:none" points="2293.23,1423.18 2293.23,47.2441 "/>
<polyline clip-path="url(#clip090)" style="stroke:#000000; stroke-linecap:round; stroke-linejoin:round; stroke-width:4; stroke-opacity:1; fill:none" points="249.542,1423.18 2352.76,1423.18 "/>
<polyline clip-path="url(#clip090)" style="stroke:#000000; stroke-linecap:round; stroke-linejoin:round; stroke-width:4; stroke-opacity:1; fill:none" points="309.067,1423.18 309.067,1404.28 "/>
<polyline clip-path="url(#clip090)" style="stroke:#000000; stroke-linecap:round; stroke-linejoin:round; stroke-width:4; stroke-opacity:1; fill:none" points="970.455,1423.18 970.455,1404.28 "/>
<polyline clip-path="url(#clip090)" style="stroke:#000000; stroke-linecap:round; stroke-linejoin:round; stroke-width:4; stroke-opacity:1; fill:none" points="1631.84,1423.18 1631.84,1404.28 "/>
<polyline clip-path="url(#clip090)" style="stroke:#000000; stroke-linecap:round; stroke-linejoin:round; stroke-width:4; stroke-opacity:1; fill:none" points="2293.23,1423.18 2293.23,1404.28 "/>
<path clip-path="url(#clip090)" d="M309.067 1454.1 Q305.456 1454.1 303.627 1457.66 Q301.822 1461.2 301.822 1468.33 Q301.822 1475.44 303.627 1479.01 Q305.456 1482.55 309.067 1482.55 Q312.701 1482.55 314.507 1479.01 Q316.335 1475.44 316.335 1468.33 Q316.335 1461.2 314.507 1457.66 Q312.701 1454.1 309.067 1454.1 M309.067 1450.39 Q314.877 1450.39 317.933 1455 Q321.011 1459.58 321.011 1468.33 Q321.011 1477.06 317.933 1481.67 Q314.877 1486.25 309.067 1486.25 Q303.257 1486.25 300.178 1481.67 Q297.123 1477.06 297.123 1468.33 Q297.123 1459.58 300.178 1455 Q303.257 1450.39 309.067 1450.39 Z" fill="#000000" fill-rule="nonzero" fill-opacity="1" /><path clip-path="url(#clip090)" d="M945.143 1481.64 L952.781 1481.64 L952.781 1455.28 L944.471 1456.95 L944.471 1452.69 L952.735 1451.02 L957.411 1451.02 L957.411 1481.64 L965.05 1481.64 L965.05 1485.58 L945.143 1485.58 L945.143 1481.64 Z" fill="#000000" fill-rule="nonzero" fill-opacity="1" /><path clip-path="url(#clip090)" d="M984.494 1454.1 Q980.883 1454.1 979.054 1457.66 Q977.249 1461.2 977.249 1468.33 Q977.249 1475.44 979.054 1479.01 Q980.883 1482.55 984.494 1482.55 Q988.128 1482.55 989.934 1479.01 Q991.763 1475.44 991.763 1468.33 Q991.763 1461.2 989.934 1457.66 Q988.128 1454.1 984.494 1454.1 M984.494 1450.39 Q990.304 1450.39 993.36 1455 Q996.439 1459.58 996.439 1468.33 Q996.439 1477.06 993.36 1481.67 Q990.304 1486.25 984.494 1486.25 Q978.684 1486.25 975.605 1481.67 Q972.55 1477.06 972.55 1468.33 Q972.55 1459.58 975.605 1455 Q978.684 1450.39 984.494 1450.39 Z" fill="#000000" fill-rule="nonzero" fill-opacity="1" /><path clip-path="url(#clip090)" d="M1610.62 1481.64 L1626.94 1481.64 L1626.94 1485.58 L1604.99 1485.58 L1604.99 1481.64 Q1607.65 1478.89 1612.24 1474.26 Q1616.84 1469.61 1618.02 1468.27 Q1620.27 1465.74 1621.15 1464.01 Q1622.05 1462.25 1622.05 1460.56 Q1622.05 1457.8 1620.11 1456.07 Q1618.19 1454.33 1615.08 1454.33 Q1612.88 1454.33 1610.43 1455.09 Q1608 1455.86 1605.22 1457.41 L1605.22 1452.69 Q1608.05 1451.55 1610.5 1450.97 Q1612.95 1450.39 1614.99 1450.39 Q1620.36 1450.39 1623.56 1453.08 Q1626.75 1455.77 1626.75 1460.26 Q1626.75 1462.39 1625.94 1464.31 Q1625.15 1466.2 1623.05 1468.8 Q1622.47 1469.47 1619.37 1472.69 Q1616.26 1475.88 1610.62 1481.64 Z" fill="#000000" fill-rule="nonzero" fill-opacity="1" /><path clip-path="url(#clip090)" d="M1646.75 1454.1 Q1643.14 1454.1 1641.31 1457.66 Q1639.5 1461.2 1639.5 1468.33 Q1639.5 1475.44 1641.31 1479.01 Q1643.14 1482.55 1646.75 1482.55 Q1650.38 1482.55 1652.19 1479.01 Q1654.02 1475.44 1654.02 1468.33 Q1654.02 1461.2 1652.19 1457.66 Q1650.38 1454.1 1646.75 1454.1 M1646.75 1450.39 Q1652.56 1450.39 1655.62 1455 Q1658.69 1459.58 1658.69 1468.33 Q1658.69 1477.06 1655.62 1481.67 Q1652.56 1486.25 1646.75 1486.25 Q1640.94 1486.25 1637.86 1481.67 Q1634.81 1477.06 1634.81 1468.33 Q1634.81 1459.58 1637.86 1455 Q1640.94 1450.39 1646.75 1450.39 Z" fill="#000000" fill-rule="nonzero" fill-opacity="1" /><path clip-path="url(#clip090)" d="M2282.07 1466.95 Q2285.43 1467.66 2287.31 1469.93 Q2289.2 1472.2 2289.2 1475.53 Q2289.2 1480.65 2285.68 1483.45 Q2282.17 1486.25 2275.68 1486.25 Q2273.51 1486.25 2271.19 1485.81 Q2268.9 1485.39 2266.45 1484.54 L2266.45 1480.02 Q2268.39 1481.16 2270.71 1481.74 Q2273.02 1482.32 2275.55 1482.32 Q2279.94 1482.32 2282.24 1480.58 Q2284.55 1478.84 2284.55 1475.53 Q2284.55 1472.48 2282.4 1470.77 Q2280.27 1469.03 2276.45 1469.03 L2272.42 1469.03 L2272.42 1465.19 L2276.63 1465.19 Q2280.08 1465.19 2281.91 1463.82 Q2283.74 1462.43 2283.74 1459.84 Q2283.74 1457.18 2281.84 1455.77 Q2279.97 1454.33 2276.45 1454.33 Q2274.53 1454.33 2272.33 1454.75 Q2270.13 1455.16 2267.49 1456.04 L2267.49 1451.88 Q2270.15 1451.14 2272.47 1450.77 Q2274.81 1450.39 2276.87 1450.39 Q2282.19 1450.39 2285.29 1452.83 Q2288.39 1455.23 2288.39 1459.35 Q2288.39 1462.22 2286.75 1464.21 Q2285.11 1466.18 2282.07 1466.95 Z" fill="#000000" fill-rule="nonzero" fill-opacity="1" /><path clip-path="url(#clip090)" d="M2308.07 1454.1 Q2304.46 1454.1 2302.63 1457.66 Q2300.82 1461.2 2300.82 1468.33 Q2300.82 1475.44 2302.63 1479.01 Q2304.46 1482.55 2308.07 1482.55 Q2311.7 1482.55 2313.51 1479.01 Q2315.34 1475.44 2315.34 1468.33 Q2315.34 1461.2 2313.51 1457.66 Q2311.7 1454.1 2308.07 1454.1 M2308.07 1450.39 Q2313.88 1450.39 2316.93 1455 Q2320.01 1459.58 2320.01 1468.33 Q2320.01 1477.06 2316.93 1481.67 Q2313.88 1486.25 2308.07 1486.25 Q2302.26 1486.25 2299.18 1481.67 Q2296.12 1477.06 2296.12 1468.33 Q2296.12 1459.58 2299.18 1455 Q2302.26 1450.39 2308.07 1450.39 Z" fill="#000000" fill-rule="nonzero" fill-opacity="1" /><path clip-path="url(#clip090)" d="M1223.03 1520.52 L1263.23 1520.52 L1263.23 1525.93 L1246.36 1525.93 L1246.36 1568.04 L1239.89 1568.04 L1239.89 1525.93 L1223.03 1525.93 L1223.03 1520.52 Z" fill="#000000" fill-rule="nonzero" fill-opacity="1" /><path clip-path="url(#clip090)" d="M1267.17 1532.4 L1273.03 1532.4 L1273.03 1568.04 L1267.17 1568.04 L1267.17 1532.4 M1267.17 1518.52 L1273.03 1518.52 L1273.03 1525.93 L1267.17 1525.93 L1267.17 1518.52 Z" fill="#000000" fill-rule="nonzero" fill-opacity="1" /><path clip-path="url(#clip090)" d="M1313.04 1539.24 Q1315.23 1535.29 1318.29 1533.41 Q1321.34 1531.54 1325.48 1531.54 Q1331.05 1531.54 1334.08 1535.45 Q1337.1 1539.33 1337.1 1546.53 L1337.1 1568.04 L1331.21 1568.04 L1331.21 1546.72 Q1331.21 1541.59 1329.4 1539.11 Q1327.58 1536.63 1323.86 1536.63 Q1319.31 1536.63 1316.67 1539.65 Q1314.02 1542.68 1314.02 1547.9 L1314.02 1568.04 L1308.14 1568.04 L1308.14 1546.72 Q1308.14 1541.56 1306.32 1539.11 Q1304.51 1536.63 1300.72 1536.63 Q1296.23 1536.63 1293.59 1539.68 Q1290.95 1542.71 1290.95 1547.9 L1290.95 1568.04 L1285.06 1568.04 L1285.06 1532.4 L1290.95 1532.4 L1290.95 1537.93 Q1292.95 1534.66 1295.75 1533.1 Q1298.55 1531.54 1302.41 1531.54 Q1306.29 1531.54 1308.99 1533.51 Q1311.73 1535.48 1313.04 1539.24 Z" fill="#000000" fill-rule="nonzero" fill-opacity="1" /><path clip-path="url(#clip090)" d="M1379.27 1548.76 L1379.27 1551.62 L1352.35 1551.62 Q1352.73 1557.67 1355.97 1560.85 Q1359.25 1564 1365.08 1564 Q1368.45 1564 1371.6 1563.17 Q1374.78 1562.35 1377.9 1560.69 L1377.9 1566.23 Q1374.75 1567.57 1371.44 1568.27 Q1368.13 1568.97 1364.73 1568.97 Q1356.2 1568.97 1351.2 1564 Q1346.23 1559.04 1346.23 1550.57 Q1346.23 1541.82 1350.94 1536.69 Q1355.69 1531.54 1363.71 1531.54 Q1370.9 1531.54 1375.07 1536.18 Q1379.27 1540.8 1379.27 1548.76 M1373.42 1547.04 Q1373.35 1542.23 1370.71 1539.37 Q1368.1 1536.5 1363.77 1536.5 Q1358.87 1536.5 1355.91 1539.27 Q1352.98 1542.04 1352.54 1547.07 L1373.42 1547.04 Z" fill="#000000" fill-rule="nonzero" fill-opacity="1" /><polyline clip-path="url(#clip092)" style="stroke:#000000; stroke-linecap:round; stroke-linejoin:round; stroke-width:2; stroke-opacity:0.1; fill:none" points="249.542,1387.34 2352.76,1387.34 "/>
<polyline clip-path="url(#clip092)" style="stroke:#000000; stroke-linecap:round; stroke-linejoin:round; stroke-width:2; stroke-opacity:0.1; fill:none" points="249.542,1062.22 2352.76,1062.22 "/>
<polyline clip-path="url(#clip092)" style="stroke:#000000; stroke-linecap:round; stroke-linejoin:round; stroke-width:2; stroke-opacity:0.1; fill:none" points="249.542,737.104 2352.76,737.104 "/>
<polyline clip-path="url(#clip092)" style="stroke:#000000; stroke-linecap:round; stroke-linejoin:round; stroke-width:2; stroke-opacity:0.1; fill:none" points="249.542,411.988 2352.76,411.988 "/>
<polyline clip-path="url(#clip092)" style="stroke:#000000; stroke-linecap:round; stroke-linejoin:round; stroke-width:2; stroke-opacity:0.1; fill:none" points="249.542,86.871 2352.76,86.871 "/>
<polyline clip-path="url(#clip090)" style="stroke:#000000; stroke-linecap:round; stroke-linejoin:round; stroke-width:4; stroke-opacity:1; fill:none" points="249.542,1423.18 249.542,47.2441 "/>
<polyline clip-path="url(#clip090)" style="stroke:#000000; stroke-linecap:round; stroke-linejoin:round; stroke-width:4; stroke-opacity:1; fill:none" points="249.542,1387.34 268.44,1387.34 "/>
<polyline clip-path="url(#clip090)" style="stroke:#000000; stroke-linecap:round; stroke-linejoin:round; stroke-width:4; stroke-opacity:1; fill:none" points="249.542,1062.22 268.44,1062.22 "/>
<polyline clip-path="url(#clip090)" style="stroke:#000000; stroke-linecap:round; stroke-linejoin:round; stroke-width:4; stroke-opacity:1; fill:none" points="249.542,737.104 268.44,737.104 "/>
<polyline clip-path="url(#clip090)" style="stroke:#000000; stroke-linecap:round; stroke-linejoin:round; stroke-width:4; stroke-opacity:1; fill:none" points="249.542,411.988 268.44,411.988 "/>
<polyline clip-path="url(#clip090)" style="stroke:#000000; stroke-linecap:round; stroke-linejoin:round; stroke-width:4; stroke-opacity:1; fill:none" points="249.542,86.871 268.44,86.871 "/>
<path clip-path="url(#clip090)" d="M126.205 1373.14 Q122.593 1373.14 120.765 1376.7 Q118.959 1380.24 118.959 1387.37 Q118.959 1394.48 120.765 1398.04 Q122.593 1401.59 126.205 1401.59 Q129.839 1401.59 131.644 1398.04 Q133.473 1394.48 133.473 1387.37 Q133.473 1380.24 131.644 1376.7 Q129.839 1373.14 126.205 1373.14 M126.205 1369.43 Q132.015 1369.43 135.07 1374.04 Q138.149 1378.62 138.149 1387.37 Q138.149 1396.1 135.07 1400.71 Q132.015 1405.29 126.205 1405.29 Q120.394 1405.29 117.316 1400.71 Q114.26 1396.1 114.26 1387.37 Q114.26 1378.62 117.316 1374.04 Q120.394 1369.43 126.205 1369.43 Z" fill="#000000" fill-rule="nonzero" fill-opacity="1" /><path clip-path="url(#clip090)" d="M146.366 1398.74 L151.251 1398.74 L151.251 1404.62 L146.366 1404.62 L146.366 1398.74 Z" fill="#000000" fill-rule="nonzero" fill-opacity="1" /><path clip-path="url(#clip090)" d="M171.436 1373.14 Q167.825 1373.14 165.996 1376.7 Q164.19 1380.24 164.19 1387.37 Q164.19 1394.48 165.996 1398.04 Q167.825 1401.59 171.436 1401.59 Q175.07 1401.59 176.876 1398.04 Q178.704 1394.48 178.704 1387.37 Q178.704 1380.24 176.876 1376.7 Q175.07 1373.14 171.436 1373.14 M171.436 1369.43 Q177.246 1369.43 180.301 1374.04 Q183.38 1378.62 183.38 1387.37 Q183.38 1396.1 180.301 1400.71 Q177.246 1405.29 171.436 1405.29 Q165.626 1405.29 162.547 1400.71 Q159.491 1396.1 159.491 1387.37 Q159.491 1378.62 162.547 1374.04 Q165.626 1369.43 171.436 1369.43 Z" fill="#000000" fill-rule="nonzero" fill-opacity="1" /><path clip-path="url(#clip090)" d="M201.598 1373.14 Q197.987 1373.14 196.158 1376.7 Q194.352 1380.24 194.352 1387.37 Q194.352 1394.48 196.158 1398.04 Q197.987 1401.59 201.598 1401.59 Q205.232 1401.59 207.037 1398.04 Q208.866 1394.48 208.866 1387.37 Q208.866 1380.24 207.037 1376.7 Q205.232 1373.14 201.598 1373.14 M201.598 1369.43 Q207.408 1369.43 210.463 1374.04 Q213.542 1378.62 213.542 1387.37 Q213.542 1396.1 210.463 1400.71 Q207.408 1405.29 201.598 1405.29 Q195.787 1405.29 192.709 1400.71 Q189.653 1396.1 189.653 1387.37 Q189.653 1378.62 192.709 1374.04 Q195.787 1369.43 201.598 1369.43 Z" fill="#000000" fill-rule="nonzero" fill-opacity="1" /><path clip-path="url(#clip090)" d="M127.2 1048.02 Q123.589 1048.02 121.76 1051.58 Q119.955 1055.13 119.955 1062.26 Q119.955 1069.36 121.76 1072.93 Q123.589 1076.47 127.2 1076.47 Q130.834 1076.47 132.64 1072.93 Q134.468 1069.36 134.468 1062.26 Q134.468 1055.13 132.64 1051.58 Q130.834 1048.02 127.2 1048.02 M127.2 1044.32 Q133.01 1044.32 136.066 1048.92 Q139.144 1053.51 139.144 1062.26 Q139.144 1070.98 136.066 1075.59 Q133.01 1080.17 127.2 1080.17 Q121.39 1080.17 118.311 1075.59 Q115.256 1070.98 115.256 1062.26 Q115.256 1053.51 118.311 1048.92 Q121.39 1044.32 127.2 1044.32 Z" fill="#000000" fill-rule="nonzero" fill-opacity="1" /><path clip-path="url(#clip090)" d="M147.362 1073.62 L152.246 1073.62 L152.246 1079.5 L147.362 1079.5 L147.362 1073.62 Z" fill="#000000" fill-rule="nonzero" fill-opacity="1" /><path clip-path="url(#clip090)" d="M166.459 1075.57 L182.778 1075.57 L182.778 1079.5 L160.834 1079.5 L160.834 1075.57 Q163.496 1072.81 168.079 1068.18 Q172.686 1063.53 173.866 1062.19 Q176.112 1059.66 176.991 1057.93 Q177.894 1056.17 177.894 1054.48 Q177.894 1051.72 175.95 1049.99 Q174.028 1048.25 170.927 1048.25 Q168.727 1048.25 166.274 1049.02 Q163.843 1049.78 161.065 1051.33 L161.065 1046.61 Q163.89 1045.47 166.343 1044.89 Q168.797 1044.32 170.834 1044.32 Q176.204 1044.32 179.399 1047 Q182.593 1049.69 182.593 1054.18 Q182.593 1056.31 181.783 1058.23 Q180.996 1060.13 178.889 1062.72 Q178.311 1063.39 175.209 1066.61 Q172.107 1069.8 166.459 1075.57 Z" fill="#000000" fill-rule="nonzero" fill-opacity="1" /><path clip-path="url(#clip090)" d="M192.639 1044.94 L210.996 1044.94 L210.996 1048.88 L196.922 1048.88 L196.922 1057.35 Q197.94 1057 198.959 1056.84 Q199.977 1056.65 200.996 1056.65 Q206.783 1056.65 210.162 1059.83 Q213.542 1063 213.542 1068.41 Q213.542 1073.99 210.07 1077.09 Q206.598 1080.17 200.278 1080.17 Q198.102 1080.17 195.834 1079.8 Q193.588 1079.43 191.181 1078.69 L191.181 1073.99 Q193.264 1075.13 195.487 1075.68 Q197.709 1076.24 200.186 1076.24 Q204.19 1076.24 206.528 1074.13 Q208.866 1072.02 208.866 1068.41 Q208.866 1064.8 206.528 1062.7 Q204.19 1060.59 200.186 1060.59 Q198.311 1060.59 196.436 1061.01 Q194.584 1061.42 192.639 1062.3 L192.639 1044.94 Z" fill="#000000" fill-rule="nonzero" fill-opacity="1" /><path clip-path="url(#clip090)" d="M126.205 722.903 Q122.593 722.903 120.765 726.468 Q118.959 730.01 118.959 737.139 Q118.959 744.246 120.765 747.81 Q122.593 751.352 126.205 751.352 Q129.839 751.352 131.644 747.81 Q133.473 744.246 133.473 737.139 Q133.473 730.01 131.644 726.468 Q129.839 722.903 126.205 722.903 M126.205 719.199 Q132.015 719.199 135.07 723.806 Q138.149 728.389 138.149 737.139 Q138.149 745.866 135.07 750.472 Q132.015 755.056 126.205 755.056 Q120.394 755.056 117.316 750.472 Q114.26 745.866 114.26 737.139 Q114.26 728.389 117.316 723.806 Q120.394 719.199 126.205 719.199 Z" fill="#000000" fill-rule="nonzero" fill-opacity="1" /><path clip-path="url(#clip090)" d="M146.366 748.505 L151.251 748.505 L151.251 754.384 L146.366 754.384 L146.366 748.505 Z" fill="#000000" fill-rule="nonzero" fill-opacity="1" /><path clip-path="url(#clip090)" d="M161.482 719.824 L179.839 719.824 L179.839 723.76 L165.765 723.76 L165.765 732.232 Q166.783 731.885 167.802 731.722 Q168.82 731.537 169.839 731.537 Q175.626 731.537 179.005 734.709 Q182.385 737.88 182.385 743.297 Q182.385 748.875 178.913 751.977 Q175.44 755.056 169.121 755.056 Q166.945 755.056 164.677 754.685 Q162.431 754.315 160.024 753.574 L160.024 748.875 Q162.107 750.009 164.329 750.565 Q166.552 751.121 169.028 751.121 Q173.033 751.121 175.371 749.014 Q177.709 746.908 177.709 743.297 Q177.709 739.685 175.371 737.579 Q173.033 735.472 169.028 735.472 Q167.153 735.472 165.278 735.889 Q163.427 736.306 161.482 737.185 L161.482 719.824 Z" fill="#000000" fill-rule="nonzero" fill-opacity="1" /><path clip-path="url(#clip090)" d="M201.598 722.903 Q197.987 722.903 196.158 726.468 Q194.352 730.01 194.352 737.139 Q194.352 744.246 196.158 747.81 Q197.987 751.352 201.598 751.352 Q205.232 751.352 207.037 747.81 Q208.866 744.246 208.866 737.139 Q208.866 730.01 207.037 726.468 Q205.232 722.903 201.598 722.903 M201.598 719.199 Q207.408 719.199 210.463 723.806 Q213.542 728.389 213.542 737.139 Q213.542 745.866 210.463 750.472 Q207.408 755.056 201.598 755.056 Q195.787 755.056 192.709 750.472 Q189.653 745.866 189.653 737.139 Q189.653 728.389 192.709 723.806 Q195.787 719.199 201.598 719.199 Z" fill="#000000" fill-rule="nonzero" fill-opacity="1" /><path clip-path="url(#clip090)" d="M127.2 397.786 Q123.589 397.786 121.76 401.351 Q119.955 404.893 119.955 412.022 Q119.955 419.129 121.76 422.694 Q123.589 426.235 127.2 426.235 Q130.834 426.235 132.64 422.694 Q134.468 419.129 134.468 412.022 Q134.468 404.893 132.64 401.351 Q130.834 397.786 127.2 397.786 M127.2 394.083 Q133.01 394.083 136.066 398.689 Q139.144 403.272 139.144 412.022 Q139.144 420.749 136.066 425.356 Q133.01 429.939 127.2 429.939 Q121.39 429.939 118.311 425.356 Q115.256 420.749 115.256 412.022 Q115.256 403.272 118.311 398.689 Q121.39 394.083 127.2 394.083 Z" fill="#000000" fill-rule="nonzero" fill-opacity="1" /><path clip-path="url(#clip090)" d="M147.362 423.388 L152.246 423.388 L152.246 429.268 L147.362 429.268 L147.362 423.388 Z" fill="#000000" fill-rule="nonzero" fill-opacity="1" /><path clip-path="url(#clip090)" d="M161.251 394.708 L183.473 394.708 L183.473 396.698 L170.927 429.268 L166.042 429.268 L177.848 398.643 L161.251 398.643 L161.251 394.708 Z" fill="#000000" fill-rule="nonzero" fill-opacity="1" /><path clip-path="url(#clip090)" d="M192.639 394.708 L210.996 394.708 L210.996 398.643 L196.922 398.643 L196.922 407.115 Q197.94 406.768 198.959 406.606 Q199.977 406.421 200.996 406.421 Q206.783 406.421 210.162 409.592 Q213.542 412.763 213.542 418.18 Q213.542 423.758 210.07 426.86 Q206.598 429.939 200.278 429.939 Q198.102 429.939 195.834 429.569 Q193.588 429.198 191.181 428.458 L191.181 423.758 Q193.264 424.893 195.487 425.448 Q197.709 426.004 200.186 426.004 Q204.19 426.004 206.528 423.897 Q208.866 421.791 208.866 418.18 Q208.866 414.569 206.528 412.462 Q204.19 410.356 200.186 410.356 Q198.311 410.356 196.436 410.772 Q194.584 411.189 192.639 412.069 L192.639 394.708 Z" fill="#000000" fill-rule="nonzero" fill-opacity="1" /><path clip-path="url(#clip090)" d="M117.015 100.216 L124.654 100.216 L124.654 73.8502 L116.343 75.5169 L116.343 71.2577 L124.607 69.591 L129.283 69.591 L129.283 100.216 L136.922 100.216 L136.922 104.151 L117.015 104.151 L117.015 100.216 Z" fill="#000000" fill-rule="nonzero" fill-opacity="1" /><path clip-path="url(#clip090)" d="M146.366 98.2714 L151.251 98.2714 L151.251 104.151 L146.366 104.151 L146.366 98.2714 Z" fill="#000000" fill-rule="nonzero" fill-opacity="1" /><path clip-path="url(#clip090)" d="M171.436 72.6697 Q167.825 72.6697 165.996 76.2345 Q164.19 79.7761 164.19 86.9057 Q164.19 94.0122 165.996 97.577 Q167.825 101.119 171.436 101.119 Q175.07 101.119 176.876 97.577 Q178.704 94.0122 178.704 86.9057 Q178.704 79.7761 176.876 76.2345 Q175.07 72.6697 171.436 72.6697 M171.436 68.966 Q177.246 68.966 180.301 73.5725 Q183.38 78.1558 183.38 86.9057 Q183.38 95.6325 180.301 100.239 Q177.246 104.822 171.436 104.822 Q165.626 104.822 162.547 100.239 Q159.491 95.6325 159.491 86.9057 Q159.491 78.1558 162.547 73.5725 Q165.626 68.966 171.436 68.966 Z" fill="#000000" fill-rule="nonzero" fill-opacity="1" /><path clip-path="url(#clip090)" d="M201.598 72.6697 Q197.987 72.6697 196.158 76.2345 Q194.352 79.7761 194.352 86.9057 Q194.352 94.0122 196.158 97.577 Q197.987 101.119 201.598 101.119 Q205.232 101.119 207.037 97.577 Q208.866 94.0122 208.866 86.9057 Q208.866 79.7761 207.037 76.2345 Q205.232 72.6697 201.598 72.6697 M201.598 68.966 Q207.408 68.966 210.463 73.5725 Q213.542 78.1558 213.542 86.9057 Q213.542 95.6325 210.463 100.239 Q207.408 104.822 201.598 104.822 Q195.787 104.822 192.709 100.239 Q189.653 95.6325 189.653 86.9057 Q189.653 78.1558 192.709 73.5725 Q195.787 68.966 201.598 68.966 Z" fill="#000000" fill-rule="nonzero" fill-opacity="1" /><path clip-path="url(#clip090)" d="M21.7677 1069.55 L39.6235 1069.55 L39.6235 1061.47 Q39.6235 1056.98 37.3 1054.53 Q34.9765 1052.08 30.6797 1052.08 Q26.4147 1052.08 24.0912 1054.53 Q21.7677 1056.98 21.7677 1061.47 L21.7677 1069.55 M16.4842 1075.98 L16.4842 1061.47 Q16.4842 1053.48 20.1126 1049.41 Q23.7092 1045.3 30.6797 1045.3 Q37.7138 1045.3 41.3104 1049.41 Q44.907 1053.48 44.907 1061.47 L44.907 1069.55 L64.0042 1069.55 L64.0042 1075.98 L16.4842 1075.98 Z" fill="#000000" fill-rule="nonzero" fill-opacity="1" /><path clip-path="url(#clip090)" d="M32.4621 1025.44 Q32.4621 1030.15 36.1542 1032.89 Q39.8145 1035.63 46.212 1035.63 Q52.6095 1035.63 56.3017 1032.92 Q59.9619 1030.18 59.9619 1025.44 Q59.9619 1020.76 56.2698 1018.02 Q52.5777 1015.29 46.212 1015.29 Q39.8781 1015.29 36.186 1018.02 Q32.4621 1020.76 32.4621 1025.44 M27.4968 1025.44 Q27.4968 1017.8 32.4621 1013.44 Q37.4273 1009.08 46.212 1009.08 Q54.9649 1009.08 59.9619 1013.44 Q64.9272 1017.8 64.9272 1025.44 Q64.9272 1033.11 59.9619 1037.47 Q54.9649 1041.8 46.212 1041.8 Q37.4273 1041.8 32.4621 1037.47 Q27.4968 1033.11 27.4968 1025.44 Z" fill="#000000" fill-rule="nonzero" fill-opacity="1" /><path clip-path="url(#clip090)" d="M58.657 993.707 L77.5631 993.707 L77.5631 999.596 L28.3562 999.596 L28.3562 993.707 L33.7671 993.707 Q30.5842 991.861 29.0564 989.06 Q27.4968 986.228 27.4968 982.313 Q27.4968 975.82 32.6531 971.778 Q37.8093 967.703 46.212 967.703 Q54.6147 967.703 59.771 971.778 Q64.9272 975.82 64.9272 982.313 Q64.9272 986.228 63.3994 989.06 Q61.8398 991.861 58.657 993.707 M46.212 973.783 Q39.7508 973.783 36.0905 976.456 Q32.3984 979.098 32.3984 983.745 Q32.3984 988.392 36.0905 991.066 Q39.7508 993.707 46.212 993.707 Q52.6732 993.707 56.3653 991.066 Q60.0256 988.392 60.0256 983.745 Q60.0256 979.098 56.3653 976.456 Q52.6732 973.783 46.212 973.783 Z" fill="#000000" fill-rule="nonzero" fill-opacity="1" /><path clip-path="url(#clip090)" d="M49.9359 958.601 L28.3562 958.601 L28.3562 952.744 L49.7131 952.744 Q54.7739 952.744 57.3202 950.771 Q59.8346 948.797 59.8346 944.851 Q59.8346 940.108 56.8109 937.371 Q53.7872 934.602 48.5673 934.602 L28.3562 934.602 L28.3562 928.745 L64.0042 928.745 L64.0042 934.602 L58.5296 934.602 Q61.7762 936.734 63.3676 939.567 Q64.9272 942.368 64.9272 946.092 Q64.9272 952.235 61.1078 955.418 Q57.2883 958.601 49.9359 958.601 M27.4968 943.864 L27.4968 943.864 Z" fill="#000000" fill-rule="nonzero" fill-opacity="1" /><path clip-path="url(#clip090)" d="M14.479 916.682 L14.479 910.826 L64.0042 910.826 L64.0042 916.682 L14.479 916.682 Z" fill="#000000" fill-rule="nonzero" fill-opacity="1" /><path clip-path="url(#clip090)" d="M46.0847 882.371 Q46.0847 889.469 47.7079 892.206 Q49.3312 894.943 53.2461 894.943 Q56.3653 894.943 58.2114 892.906 Q60.0256 890.838 60.0256 887.305 Q60.0256 882.435 56.5881 879.507 Q53.1188 876.547 47.3897 876.547 L46.0847 876.547 L46.0847 882.371 M43.6657 870.69 L64.0042 870.69 L64.0042 876.547 L58.5933 876.547 Q61.8398 878.552 63.3994 881.544 Q64.9272 884.536 64.9272 888.864 Q64.9272 894.339 61.8716 897.585 Q58.7843 900.8 53.6281 900.8 Q47.6125 900.8 44.5569 896.79 Q41.5014 892.747 41.5014 884.758 L41.5014 876.547 L40.9285 876.547 Q36.8862 876.547 34.6901 879.22 Q32.4621 881.862 32.4621 886.668 Q32.4621 889.724 33.1941 892.62 Q33.9262 895.516 35.3903 898.19 L29.9795 898.19 Q28.7381 894.975 28.1334 891.952 Q27.4968 888.928 27.4968 886.063 Q27.4968 878.329 31.5072 874.51 Q35.5176 870.69 43.6657 870.69 Z" fill="#000000" fill-rule="nonzero" fill-opacity="1" /><path clip-path="url(#clip090)" d="M18.2347 852.834 L28.3562 852.834 L28.3562 840.771 L32.9077 840.771 L32.9077 852.834 L52.2594 852.834 Q56.6199 852.834 57.8613 851.657 Q59.1026 850.447 59.1026 846.787 L59.1026 840.771 L64.0042 840.771 L64.0042 846.787 Q64.0042 853.566 61.4897 856.144 Q58.9434 858.723 52.2594 858.723 L32.9077 858.723 L32.9077 863.019 L28.3562 863.019 L28.3562 858.723 L18.2347 858.723 L18.2347 852.834 Z" fill="#000000" fill-rule="nonzero" fill-opacity="1" /><path clip-path="url(#clip090)" d="M28.3562 833.069 L28.3562 827.212 L64.0042 827.212 L64.0042 833.069 L28.3562 833.069 M14.479 833.069 L14.479 827.212 L21.895 827.212 L21.895 833.069 L14.479 833.069 Z" fill="#000000" fill-rule="nonzero" fill-opacity="1" /><path clip-path="url(#clip090)" d="M32.4621 801.145 Q32.4621 805.855 36.1542 808.593 Q39.8145 811.33 46.212 811.33 Q52.6095 811.33 56.3017 808.624 Q59.9619 805.887 59.9619 801.145 Q59.9619 796.466 56.2698 793.729 Q52.5777 790.991 46.212 790.991 Q39.8781 790.991 36.186 793.729 Q32.4621 796.466 32.4621 801.145 M27.4968 801.145 Q27.4968 793.506 32.4621 789.145 Q37.4273 784.785 46.212 784.785 Q54.9649 784.785 59.9619 789.145 Q64.9272 793.506 64.9272 801.145 Q64.9272 808.815 59.9619 813.176 Q54.9649 817.505 46.212 817.505 Q37.4273 817.505 32.4621 813.176 Q27.4968 808.815 27.4968 801.145 Z" fill="#000000" fill-rule="nonzero" fill-opacity="1" /><path clip-path="url(#clip090)" d="M42.4881 745.445 L64.0042 745.445 L64.0042 751.301 L42.679 751.301 Q37.6183 751.301 35.1038 753.275 Q32.5894 755.248 32.5894 759.195 Q32.5894 763.937 35.6131 766.674 Q38.6368 769.412 43.8567 769.412 L64.0042 769.412 L64.0042 775.3 L28.3562 775.3 L28.3562 769.412 L33.8944 769.412 Q30.6797 767.311 29.0883 764.478 Q27.4968 761.614 27.4968 757.89 Q27.4968 751.747 31.3163 748.596 Q35.1038 745.445 42.4881 745.445 Z" fill="#000000" fill-rule="nonzero" fill-opacity="1" /><path clip-path="url(#clip090)" d="M33.7671 689.586 L14.479 689.586 L14.479 683.729 L64.0042 683.729 L64.0042 689.586 L58.657 689.586 Q61.8398 691.432 63.3994 694.265 Q64.9272 697.065 64.9272 701.012 Q64.9272 707.473 59.771 711.547 Q54.6147 715.59 46.212 715.59 Q37.8093 715.59 32.6531 711.547 Q27.4968 707.473 27.4968 701.012 Q27.4968 697.065 29.0564 694.265 Q30.5842 691.432 33.7671 689.586 M46.212 709.542 Q52.6732 709.542 56.3653 706.9 Q60.0256 704.227 60.0256 699.58 Q60.0256 694.933 56.3653 692.259 Q52.6732 689.586 46.212 689.586 Q39.7508 689.586 36.0905 692.259 Q32.3984 694.933 32.3984 699.58 Q32.3984 704.227 36.0905 706.9 Q39.7508 709.542 46.212 709.542 Z" fill="#000000" fill-rule="nonzero" fill-opacity="1" /><path clip-path="url(#clip090)" d="M28.3562 671.666 L28.3562 665.81 L64.0042 665.81 L64.0042 671.666 L28.3562 671.666 M14.479 671.666 L14.479 665.81 L21.895 665.81 L21.895 671.666 L14.479 671.666 Z" fill="#000000" fill-rule="nonzero" fill-opacity="1" /><path clip-path="url(#clip090)" d="M14.479 635.509 L19.3487 635.509 L19.3487 641.111 Q19.3487 644.262 20.6219 645.503 Q21.895 646.713 25.2052 646.713 L28.3562 646.713 L28.3562 637.069 L32.9077 637.069 L32.9077 646.713 L64.0042 646.713 L64.0042 652.601 L32.9077 652.601 L32.9077 658.203 L28.3562 658.203 L28.3562 652.601 L25.8736 652.601 Q19.9216 652.601 17.2162 649.832 Q14.479 647.063 14.479 641.047 L14.479 635.509 Z" fill="#000000" fill-rule="nonzero" fill-opacity="1" /><path clip-path="url(#clip090)" d="M14.479 612.561 L19.3487 612.561 L19.3487 618.163 Q19.3487 621.314 20.6219 622.555 Q21.895 623.764 25.2052 623.764 L28.3562 623.764 L28.3562 614.12 L32.9077 614.12 L32.9077 623.764 L64.0042 623.764 L64.0042 629.653 L32.9077 629.653 L32.9077 635.254 L28.3562 635.254 L28.3562 629.653 L25.8736 629.653 Q19.9216 629.653 17.2162 626.884 Q14.479 624.114 14.479 618.099 L14.479 612.561 Z" fill="#000000" fill-rule="nonzero" fill-opacity="1" /><path clip-path="url(#clip090)" d="M44.7161 577.167 L47.5806 577.167 L47.5806 604.094 Q53.6281 603.712 56.8109 600.466 Q59.9619 597.188 59.9619 591.363 Q59.9619 587.989 59.1344 584.838 Q58.3069 581.655 56.6518 578.536 L62.1899 578.536 Q63.5267 581.687 64.227 584.997 Q64.9272 588.307 64.9272 591.713 Q64.9272 600.243 59.9619 605.24 Q54.9967 610.205 46.5303 610.205 Q37.7774 610.205 32.6531 605.495 Q27.4968 600.752 27.4968 592.732 Q27.4968 585.538 32.1438 581.369 Q36.7589 577.167 44.7161 577.167 M42.9973 583.024 Q38.1912 583.087 35.3266 585.729 Q32.4621 588.339 32.4621 592.668 Q32.4621 597.569 35.2312 600.53 Q38.0002 603.458 43.0292 603.903 L42.9973 583.024 Z" fill="#000000" fill-rule="nonzero" fill-opacity="1" /><path clip-path="url(#clip090)" d="M33.8307 546.898 Q33.2578 547.885 33.0032 549.063 Q32.7167 550.209 32.7167 551.609 Q32.7167 556.574 35.9632 559.248 Q39.1779 561.89 45.2253 561.89 L64.0042 561.89 L64.0042 567.778 L28.3562 567.778 L28.3562 561.89 L33.8944 561.89 Q30.6479 560.044 29.0883 557.084 Q27.4968 554.124 27.4968 549.89 Q27.4968 549.286 27.5923 548.554 Q27.656 547.821 27.8151 546.93 L33.8307 546.898 Z" fill="#000000" fill-rule="nonzero" fill-opacity="1" /><path clip-path="url(#clip090)" d="M44.7161 511.696 L47.5806 511.696 L47.5806 538.623 Q53.6281 538.241 56.8109 534.995 Q59.9619 531.716 59.9619 525.892 Q59.9619 522.518 59.1344 519.367 Q58.3069 516.184 56.6518 513.065 L62.1899 513.065 Q63.5267 516.216 64.227 519.526 Q64.9272 522.836 64.9272 526.242 Q64.9272 534.772 59.9619 539.769 Q54.9967 544.734 46.5303 544.734 Q37.7774 544.734 32.6531 540.023 Q27.4968 535.281 27.4968 527.26 Q27.4968 520.067 32.1438 515.897 Q36.7589 511.696 44.7161 511.696 M42.9973 517.553 Q38.1912 517.616 35.3266 520.258 Q32.4621 522.868 32.4621 527.197 Q32.4621 532.098 35.2312 535.058 Q38.0002 537.986 43.0292 538.432 L42.9973 517.553 Z" fill="#000000" fill-rule="nonzero" fill-opacity="1" /><path clip-path="url(#clip090)" d="M42.4881 472.452 L64.0042 472.452 L64.0042 478.308 L42.679 478.308 Q37.6183 478.308 35.1038 480.281 Q32.5894 482.255 32.5894 486.201 Q32.5894 490.944 35.6131 493.681 Q38.6368 496.418 43.8567 496.418 L64.0042 496.418 L64.0042 502.307 L28.3562 502.307 L28.3562 496.418 L33.8944 496.418 Q30.6797 494.318 29.0883 491.485 Q27.4968 488.62 27.4968 484.896 Q27.4968 478.754 31.3163 475.603 Q35.1038 472.452 42.4881 472.452 Z" fill="#000000" fill-rule="nonzero" fill-opacity="1" /><path clip-path="url(#clip090)" d="M29.7248 435.117 L35.1993 435.117 Q33.8307 437.599 33.1623 440.114 Q32.4621 442.596 32.4621 445.143 Q32.4621 450.84 36.0905 453.991 Q39.6872 457.142 46.212 457.142 Q52.7369 457.142 56.3653 453.991 Q59.9619 450.84 59.9619 445.143 Q59.9619 442.596 59.2935 440.114 Q58.5933 437.599 57.2247 435.117 L62.6355 435.117 Q63.7814 437.567 64.3543 440.209 Q64.9272 442.819 64.9272 445.779 Q64.9272 453.832 59.8664 458.574 Q54.8057 463.317 46.212 463.317 Q37.491 463.317 32.4939 458.542 Q27.4968 453.736 27.4968 445.397 Q27.4968 442.692 28.0697 440.114 Q28.6108 437.536 29.7248 435.117 Z" fill="#000000" fill-rule="nonzero" fill-opacity="1" /><path clip-path="url(#clip090)" d="M44.7161 394.44 L47.5806 394.44 L47.5806 421.367 Q53.6281 420.985 56.8109 417.738 Q59.9619 414.46 59.9619 408.635 Q59.9619 405.261 59.1344 402.11 Q58.3069 398.928 56.6518 395.808 L62.1899 395.808 Q63.5267 398.959 64.227 402.27 Q64.9272 405.58 64.9272 408.985 Q64.9272 417.515 59.9619 422.513 Q54.9967 427.478 46.5303 427.478 Q37.7774 427.478 32.6531 422.767 Q27.4968 418.025 27.4968 410.004 Q27.4968 402.811 32.1438 398.641 Q36.7589 394.44 44.7161 394.44 M42.9973 400.296 Q38.1912 400.36 35.3266 403.002 Q32.4621 405.612 32.4621 409.94 Q32.4621 414.842 35.2312 417.802 Q38.0002 420.73 43.0292 421.176 L42.9973 400.296 Z" fill="#000000" fill-rule="nonzero" fill-opacity="1" /><polyline clip-path="url(#clip092)" style="stroke:#009af9; stroke-linecap:round; stroke-linejoin:round; stroke-width:4; stroke-opacity:1; fill:none" points="309.067,86.871 315.681,86.1857 322.295,91.988 328.909,104.221 335.522,122.762 342.136,147.424 348.75,177.961 355.364,214.066 361.978,255.374 368.592,301.474 375.206,351.902 381.82,406.155 388.434,463.692 395.047,523.939 401.661,586.295 408.275,650.141 414.889,714.841 421.503,779.751 428.117,844.224 434.731,907.616 441.345,969.295 447.958,1028.64 454.572,1085.06 461.186,1137.98 467.8,1186.88 474.414,1231.24 481.028,1270.64 487.642,1304.66 494.256,1332.96 500.869,1355.26 507.483,1371.34 514.097,1381.03 520.711,1384.24 527.325,1380.95 533.939,1371.21 540.553,1355.12 547.167,1332.86 553.781,1304.67 560.394,1270.86 567.008,1231.77 573.622,1187.83 580.236,1139.48 586.85,1087.23 593.464,1031.61 600.078,973.202 606.692,912.59 613.305,850.395 619.919,787.252 626.533,723.801 633.147,660.688 639.761,598.555 646.375,538.038 652.989,479.754 659.603,424.3 666.216,372.246 672.83,324.125 679.444,280.43 686.058,241.607 692.672,208.048 699.286,180.087 705.9,157.996 712.514,141.98 719.128,132.174 725.741,128.643 732.355,131.38 738.969,140.308 745.583,155.281 752.197,176.087 758.811,202.452 765.425,234.041 772.039,270.47 778.652,311.303 785.266,356.065 791.88,404.244 798.494,455.296 805.108,508.654 811.722,563.732 818.336,619.932 824.95,676.646 831.563,733.267 838.177,789.192 844.791,843.828 851.405,896.598 858.019,946.949 864.633,994.354 871.247,1038.33 877.861,1078.41 884.475,1114.22 891.088,1145.39 897.702,1171.65 904.316,1192.76 910.93,1208.57 917.544,1218.98 924.158,1223.97 930.772,1223.58 937.386,1217.94 943.999,1207.22 950.613,1191.66 957.227,1171.56 963.841,1147.26 970.455,1119.17 977.069,1087.7 983.683,1053.32 990.297,1016.51 996.91,977.786 1003.52,937.656 1010.14,896.64 1016.75,855.256 1023.37,814.015 1029.98,773.414 1036.59,733.932 1043.21,696.024 1049.82,660.114 1056.44,626.595 1063.05,595.818 1069.66,568.093 1076.28,543.681 1082.89,522.793 1089.5,505.585 1096.12,492.161 1102.73,482.562 1109.35,476.776 1115.96,474.732 1122.57,476.304 1129.19,481.314 1135.8,489.533 1142.42,500.689 1149.03,514.47 1155.64,530.531 1162.26,548.498 1168.87,567.977 1175.49,588.561 1182.1,609.836 1188.71,631.386 1195.33,652.803 1201.94,673.694 1208.55,693.683 1215.17,712.419 1221.78,729.584 1228.4,744.894 1235.01,758.105 1241.62,769.017 1248.24,777.476 1254.85,783.378 1261.47,786.668 1268.08,787.344 1274.69,785.453 1281.31,781.091 1287.92,774.405 1294.54,765.584 1301.15,754.859 1307.76,742.497 1314.38,728.798 1320.99,714.088 1327.6,698.713 1334.22,683.035 1340.83,667.423 1347.45,652.249 1354.06,637.881 1360.67,624.679 1367.29,612.986 1373.9,603.124 1380.52,595.391 1387.13,590.051 1393.74,587.336 1400.36,587.435 1406.97,590.495 1413.58,596.613 1420.2,605.84 1426.81,618.171 1433.43,633.55 1440.04,651.863 1446.65,672.946 1453.27,696.579 1459.88,722.494 1466.5,750.375 1473.11,779.863 1479.72,810.565 1486.34,842.054 1492.95,873.881 1499.57,905.581 1506.18,936.68 1512.79,966.704 1519.41,995.185 1526.02,1021.67 1532.63,1045.72 1539.25,1066.95 1545.86,1084.96 1552.48,1099.44 1559.09,1110.1 1565.7,1116.68 1572.32,1119 1578.93,1116.92 1585.55,1110.34 1592.16,1099.25 1598.77,1083.67 1605.39,1063.67 1612,1039.4 1618.62,1011.06 1625.23,978.908 1631.84,943.238 1638.46,904.411 1645.07,862.831 1651.68,818.943 1658.3,773.232 1664.91,726.212 1671.53,678.423 1678.14,630.424 1684.75,582.782 1691.37,536.068 1697.98,490.846 1704.6,447.667 1711.21,407.06 1717.82,369.527 1724.44,335.532 1731.05,305.5 1737.67,279.808 1744.28,258.781 1750.89,242.693 1757.51,231.755 1764.12,226.121 1770.73,225.885 1777.35,231.076 1783.96,241.663 1790.58,257.554 1797.19,278.597 1803.8,304.58 1810.42,335.238 1817.03,370.251 1823.65,409.251 1830.26,451.825 1836.87,497.517 1843.49,545.838 1850.1,596.266 1856.71,648.258 1863.33,701.251 1869.94,754.672 1876.56,807.944 1883.17,860.491 1889.78,911.749 1896.4,961.17 1903.01,1008.23 1909.63,1052.43 1916.24,1093.3 1922.85,1130.44 1929.47,1163.45 1936.08,1192.01 1942.7,1215.84 1949.31,1234.72 1955.92,1248.47 1962.54,1256.98 1969.15,1260.2 1975.76,1258.12 1982.38,1250.8 1988.99,1238.34 1995.61,1220.92 2002.22,1198.74 2008.83,1172.07 2015.45,1141.2 2022.06,1106.49 2028.68,1068.33 2035.29,1027.11 2041.9,983.297 2048.52,937.345 2055.13,889.742 2061.75,840.983 2068.36,791.57 2074.97,742.009 2081.59,692.8 2088.2,644.433 2094.81,597.385 2101.43,552.112 2108.04,509.048 2114.66,468.596 2121.27,431.131 2127.88,396.988 2134.5,366.469 2141.11,339.83 2147.73,317.29 2154.34,299.022 2160.95,285.153 2167.57,275.767 2174.18,270.904 2180.8,270.558 2187.41,274.679 2194.02,283.176 2200.64,295.917 2207.25,312.731 2213.86,333.411 2220.48,357.716 2227.09,385.373 2233.71,416.081 2240.32,449.515 2246.93,485.325 2253.55,523.148 2260.16,562.601 2266.78,603.295 2273.39,644.83 2280,686.805 2286.62,728.82 2293.23,770.479 "/>
<path clip-path="url(#clip090)" d="M2019.9 1377.32 L2282.65 1377.32 L2282.65 1273.64 L2019.9 1273.64  Z" fill="#ffffff" fill-rule="evenodd" fill-opacity="1"/>
<polyline clip-path="url(#clip090)" style="stroke:#000000; stroke-linecap:round; stroke-linejoin:round; stroke-width:4; stroke-opacity:1; fill:none" points="2019.9,1377.32 2282.65,1377.32 2282.65,1273.64 2019.9,1273.64 2019.9,1377.32 "/>
<polyline clip-path="url(#clip090)" style="stroke:#009af9; stroke-linecap:round; stroke-linejoin:round; stroke-width:4; stroke-opacity:1; fill:none" points="2043.27,1325.48 2183.48,1325.48 "/>
<path clip-path="url(#clip090)" d="M2220.69 1345.16 Q2218.89 1349.79 2217.17 1351.2 Q2215.46 1352.62 2212.59 1352.62 L2209.19 1352.62 L2209.19 1349.05 L2211.69 1349.05 Q2213.45 1349.05 2214.42 1348.22 Q2215.39 1347.38 2216.57 1344.28 L2217.34 1342.34 L2206.85 1316.83 L2211.36 1316.83 L2219.47 1337.11 L2227.57 1316.83 L2232.08 1316.83 L2220.69 1345.16 Z" fill="#000000" fill-rule="nonzero" fill-opacity="1" /><path clip-path="url(#clip090)" d="M2239.37 1338.82 L2247.01 1338.82 L2247.01 1312.45 L2238.7 1314.12 L2238.7 1309.86 L2246.96 1308.2 L2251.64 1308.2 L2251.64 1338.82 L2259.28 1338.82 L2259.28 1342.76 L2239.37 1342.76 L2239.37 1338.82 Z" fill="#000000" fill-rule="nonzero" fill-opacity="1" /></svg>
