<?xml version="1.0" encoding="utf-8"?>
<svg xmlns="http://www.w3.org/2000/svg" xmlns:xlink="http://www.w3.org/1999/xlink" width="600" height="400" viewBox="0 0 2400 1600">
<defs>
  <clipPath id="clip370">
    <rect x="0" y="0" width="2400" height="1600"/>
  </clipPath>
</defs>
<path clip-path="url(#clip370)" d="M0 1600 L2400 1600 L2400 0 L0 0  Z" fill="#ffffff" fill-rule="evenodd" fill-opacity="1"/>
<defs>
  <clipPath id="clip371">
    <rect x="480" y="0" width="1681" height="1600"/>
  </clipPath>
</defs>
<path clip-path="url(#clip370)" d="M249.542 1423.18 L2352.76 1423.18 L2352.76 47.2441 L249.542 47.2441  Z" fill="#ffffff" fill-rule="evenodd" fill-opacity="1"/>
<defs>
  <clipPath id="clip372">
    <rect x="249" y="47" width="2104" height="1377"/>
  </clipPath>
</defs>
<polyline clip-path="url(#clip372)" style="stroke:#000000; stroke-linecap:round; stroke-linejoin:round; stroke-width:2; stroke-opacity:0.1; fill:none" points="309.067,1423.18 309.067,47.2441 "/>
<polyline clip-path="url(#clip372)" style="stroke:#000000; stroke-linecap:round; stroke-linejoin:round; stroke-width:2; stroke-opacity:0.1; fill:none" points="970.455,1423.18 970.455,47.2441 "/>
<polyline clip-path="url(#clip372)" style="stroke:#000000; stroke-linecap:round; stroke-linejoin:round; stroke-width:2; stroke-opacity:0.1; fill:none" points="1631.84,1423.18 1631.84,47.2441 "/>
<polyline clip-path="url(#clip372)" style="stroke:#000000; stroke-linecap:round; stroke-linejoin:round; stroke-width:2; stroke-opacity:0.1; fill:none" points="2293.23,1423.18 2293.23,47.2441 "/>
<polyline clip-path="url(#clip370)" style="stroke:#000000; stroke-linecap:round; stroke-linejoin:round; stroke-width:4; stroke-opacity:1; fill:none" points="249.542,1423.18 2352.76,1423.18 "/>
<polyline clip-path="url(#clip370)" style="stroke:#000000; stroke-linecap:round; stroke-linejoin:round; stroke-width:4; stroke-opacity:1; fill:none" points="309.067,1423.18 309.067,1404.28 "/>
<polyline clip-path="url(#clip370)" style="stroke:#000000; stroke-linecap:round; stroke-linejoin:round; stroke-width:4; stroke-opacity:1; fill:none" points="970.455,1423.18 970.455,1404.28 "/>
<polyline clip-path="url(#clip370)" style="stroke:#000000; stroke-linecap:round; stroke-linejoin:round; stroke-width:4; stroke-opacity:1; fill:none" points="1631.84,1423.18 1631.84,1404.28 "/>
<polyline clip-path="url(#clip370)" style="stroke:#000000; stroke-linecap:round; stroke-linejoin:round; stroke-width:4; stroke-opacity:1; fill:none" points="2293.23,1423.18 2293.23,1404.28 "/>
<path clip-path="url(#clip370)" d="M309.067 1454.1 Q305.456 1454.1 303.627 1457.66 Q301.822 1461.2 301.822 1468.33 Q301.822 1475.44 303.627 1479.01 Q305.456 1482.55 309.067 1482.55 Q312.701 1482.55 314.507 1479.01 Q316.335 1475.44 316.335 1468.33 Q316.335 1461.2 314.507 1457.66 Q312.701 1454.1 309.067 1454.1 M309.067 1450.39 Q314.877 1450.39 317.933 1455 Q321.011 1459.58 321.011 1468.33 Q321.011 1477.06 317.933 1481.67 Q314.877 1486.25 309.067 1486.25 Q303.257 1486.25 300.178 1481.67 Q297.123 1477.06 297.123 1468.33 Q297.123 1459.58 300.178 1455 Q303.257 1450.39 309.067 1450.39 Z" fill="#000000" fill-rule="nonzero" fill-opacity="1" /><path clip-path="url(#clip370)" d="M945.143 1481.64 L952.781 1481.64 L952.781 1455.28 L944.471 1456.95 L944.471 1452.69 L952.735 1451.02 L957.411 1451.02 L957.411 1481.64 L965.05 1481.64 L965.05 1485.58 L945.143 1485.58 L945.143 1481.64 Z" fill="#000000" fill-rule="nonzero" fill-opacity="1" /><path clip-path="url(#clip370)" d="M984.494 1454.1 Q980.883 1454.1 979.054 1457.66 Q977.249 1461.2 977.249 1468.33 Q977.249 1475.44 979.054 1479.01 Q980.883 1482.55 984.494 1482.55 Q988.128 1482.55 989.934 1479.01 Q991.763 1475.44 991.763 1468.33 Q991.763 1461.2 989.934 1457.66 Q988.128 1454.1 984.494 1454.1 M984.494 1450.39 Q990.304 1450.39 993.36 1455 Q996.439 1459.58 996.439 1468.33 Q996.439 1477.06 993.36 1481.67 Q990.304 1486.25 984.494 1486.25 Q978.684 1486.25 975.605 1481.67 Q972.55 1477.06 972.55 1468.33 Q972.55 1459.58 975.605 1455 Q978.684 1450.39 984.494 1450.39 Z" fill="#000000" fill-rule="nonzero" fill-opacity="1" /><path clip-path="url(#clip370)" d="M1610.62 1481.64 L1626.94 1481.64 L1626.94 1485.58 L1604.99 1485.58 L1604.99 1481.64 Q1607.65 1478.89 1612.24 1474.26 Q1616.84 1469.61 1618.02 1468.27 Q1620.27 1465.74 1621.15 1464.01 Q1622.05 1462.25 1622.05 1460.56 Q1622.05 1457.8 1620.11 1456.07 Q1618.19 1454.33 1615.08 1454.33 Q1612.88 1454.33 1610.43 1455.09 Q1608 1455.86 1605.22 1457.41 L1605.22 1452.69 Q1608.05 1451.55 1610.5 1450.97 Q1612.95 1450.39 1614.99 1450.39 Q1620.36 1450.39 1623.56 1453.08 Q1626.75 1455.77 1626.75 1460.26 Q1626.75 1462.39 1625.94 1464.31 Q1625.15 1466.2 1623.05 1468.8 Q1622.47 1469.47 1619.37 1472.69 Q1616.26 1475.88 1610.62 1481.64 Z" fill="#000000" fill-rule="nonzero" fill-opacity="1" /><path clip-path="url(#clip370)" d="M1646.75 1454.1 Q1643.14 1454.1 1641.31 1457.66 Q1639.5 1461.2 1639.5 1468.33 Q1639.5 1475.44 1641.31 1479.01 Q1643.14 1482.55 1646.75 1482.55 Q1650.38 1482.55 1652.19 1479.01 Q1654.02 1475.44 1654.02 1468.33 Q1654.02 1461.2 1652.19 1457.66 Q1650.38 1454.1 1646.75 1454.1 M1646.75 1450.39 Q1652.56 1450.39 1655.62 1455 Q1658.69 1459.58 1658.69 1468.33 Q1658.69 1477.06 1655.62 1481.67 Q1652.56 1486.25 1646.75 1486.25 Q1640.94 1486.25 1637.86 1481.67 Q1634.81 1477.06 1634.81 1468.33 Q1634.81 1459.58 1637.86 1455 Q1640.94 1450.39 1646.75 1450.39 Z" fill="#000000" fill-rule="nonzero" fill-opacity="1" /><path clip-path="url(#clip370)" d="M2282.07 1466.95 Q2285.43 1467.66 2287.31 1469.93 Q2289.2 1472.2 2289.2 1475.53 Q2289.2 1480.65 2285.68 1483.45 Q2282.17 1486.25 2275.68 1486.25 Q2273.51 1486.25 2271.19 1485.81 Q2268.9 1485.39 2266.45 1484.54 L2266.45 1480.02 Q2268.39 1481.16 2270.71 1481.74 Q2273.02 1482.32 2275.55 1482.32 Q2279.94 1482.32 2282.24 1480.58 Q2284.55 1478.84 2284.55 1475.53 Q2284.55 1472.48 2282.4 1470.77 Q2280.27 1469.03 2276.45 1469.03 L2272.42 1469.03 L2272.42 1465.19 L2276.63 1465.19 Q2280.08 1465.19 2281.91 1463.82 Q2283.74 1462.43 2283.74 1459.84 Q2283.74 1457.18 2281.84 1455.77 Q2279.97 1454.33 2276.45 1454.33 Q2274.53 1454.33 2272.33 1454.75 Q2270.13 1455.16 2267.49 1456.04 L2267.49 1451.88 Q2270.15 1451.14 2272.47 1450.77 Q2274.81 1450.39 2276.87 1450.39 Q2282.19 1450.39 2285.29 1452.83 Q2288.39 1455.23 2288.39 1459.35 Q2288.39 1462.22 2286.75 1464.21 Q2285.11 1466.18 2282.07 1466.95 Z" fill="#000000" fill-rule="nonzero" fill-opacity="1" /><path clip-path="url(#clip370)" d="M2308.07 1454.1 Q2304.46 1454.1 2302.63 1457.66 Q2300.82 1461.2 2300.82 1468.33 Q2300.82 1475.44 2302.63 1479.01 Q2304.46 1482.55 2308.07 1482.55 Q2311.7 1482.55 2313.51 1479.01 Q2315.34 1475.44 2315.34 1468.33 Q2315.34 1461.2 2313.51 1457.66 Q2311.7 1454.1 2308.07 1454.1 M2308.07 1450.39 Q2313.88 1450.39 2316.93 1455 Q2320.01 1459.58 2320.01 1468.33 Q2320.01 1477.06 2316.93 1481.67 Q2313.88 1486.25 2308.07 1486.25 Q2302.26 1486.25 2299.18 1481.67 Q2296.12 1477.06 2296.12 1468.33 Q2296.12 1459.58 2299.18 1455 Q2302.26 1450.39 2308.07 1450.39 Z" fill="#000000" fill-rule="nonzero" fill-opacity="1" /><path clip-path="url(#clip370)" d="M1223.03 1520.52 L1263.23 1520.52 L1263.23 1525.93 L1246.36 1525.93 L1246.36 1568.04 L1239.89 1568.04 L1239.89 1525.93 L1223.03 1525.93 L1223.03 1520.52 Z" fill="#000000" fill-rule="nonzero" fill-opacity="1" /><path clip-path="url(#clip370)" d="M1267.17 1532.4 L1273.03 1532.4 L1273.03 1568.04 L1267.17 1568.04 L1267.17 1532.4 M1267.17 1518.52 L1273.03 1518.52 L1273.03 1525.93 L1267.17 1525.93 L1267.17 1518.52 Z" fill="#000000" fill-rule="nonzero" fill-opacity="1" /><path clip-path="url(#clip370)" d="M1313.04 1539.24 Q1315.23 1535.29 1318.29 1533.41 Q1321.34 1531.54 1325.48 1531.54 Q1331.05 1531.54 1334.08 1535.45 Q1337.1 1539.33 1337.1 1546.53 L1337.1 1568.04 L1331.21 1568.04 L1331.21 1546.72 Q1331.21 1541.59 1329.4 1539.11 Q1327.58 1536.63 1323.86 1536.63 Q1319.31 1536.63 1316.67 1539.65 Q1314.02 1542.68 1314.02 1547.9 L1314.02 1568.04 L1308.14 1568.04 L1308.14 1546.72 Q1308.14 1541.56 1306.32 1539.11 Q1304.51 1536.63 1300.72 1536.63 Q1296.23 1536.63 1293.59 1539.68 Q1290.95 1542.71 1290.95 1547.9 L1290.95 1568.04 L1285.06 1568.04 L1285.06 1532.4 L1290.95 1532.4 L1290.95 1537.93 Q1292.95 1534.66 1295.75 1533.1 Q1298.55 1531.54 1302.41 1531.54 Q1306.29 1531.54 1308.99 1533.51 Q1311.73 1535.48 1313.04 1539.24 Z" fill="#000000" fill-rule="nonzero" fill-opacity="1" /><path clip-path="url(#clip370)" d="M1379.27 1548.76 L1379.27 1551.62 L1352.35 1551.62 Q1352.73 1557.67 1355.97 1560.85 Q1359.25 1564 1365.08 1564 Q1368.45 1564 1371.6 1563.17 Q1374.78 1562.35 1377.9 1560.69 L1377.9 1566.23 Q1374.75 1567.57 1371.44 1568.27 Q1368.13 1568.97 1364.73 1568.97 Q1356.2 1568.97 1351.2 1564 Q1346.23 1559.04 1346.23 1550.57 Q1346.23 1541.82 1350.94 1536.69 Q1355.69 1531.54 1363.71 1531.54 Q1370.9 1531.54 1375.07 1536.18 Q1379.27 1540.8 1379.27 1548.76 M1373.42 1547.04 Q1373.35 1542.23 1370.71 1539.37 Q1368.1 1536.5 1363.77 1536.5 Q1358.87 1536.5 1355.91 1539.27 Q1352.98 1542.04 1352.54 1547.07 L1373.42 1547.04 Z" fill="#000000" fill-rule="nonzero" fill-opacity="1" /><polyline clip-path="url(#clip372)" style="stroke:#000000; stroke-linecap:round; stroke-linejoin:round; stroke-width:2; stroke-opacity:0.1; fill:none" points="249.542,1386.15 2352.76,1386.15 "/>
<polyline clip-path="url(#clip372)" style="stroke:#000000; stroke-linecap:round; stroke-linejoin:round; stroke-width:2; stroke-opacity:0.1; fill:none" points="249.542,1061.16 2352.76,1061.16 "/>
<polyline clip-path="url(#clip372)" style="stroke:#000000; stroke-linecap:round; stroke-linejoin:round; stroke-width:2; stroke-opacity:0.1; fill:none" points="249.542,736.166 2352.76,736.166 "/>
<polyline clip-path="url(#clip372)" style="stroke:#000000; stroke-linecap:round; stroke-linejoin:round; stroke-width:2; stroke-opacity:0.1; fill:none" points="249.542,411.176 2352.76,411.176 "/>
<polyline clip-path="url(#clip372)" style="stroke:#000000; stroke-linecap:round; stroke-linejoin:round; stroke-width:2; stroke-opacity:0.1; fill:none" points="249.542,86.1857 2352.76,86.1857 "/>
<polyline clip-path="url(#clip370)" style="stroke:#000000; stroke-linecap:round; stroke-linejoin:round; stroke-width:4; stroke-opacity:1; fill:none" points="249.542,1423.18 249.542,47.2441 "/>
<polyline clip-path="url(#clip370)" style="stroke:#000000; stroke-linecap:round; stroke-linejoin:round; stroke-width:4; stroke-opacity:1; fill:none" points="249.542,1386.15 268.44,1386.15 "/>
<polyline clip-path="url(#clip370)" style="stroke:#000000; stroke-linecap:round; stroke-linejoin:round; stroke-width:4; stroke-opacity:1; fill:none" points="249.542,1061.16 268.44,1061.16 "/>
<polyline clip-path="url(#clip370)" style="stroke:#000000; stroke-linecap:round; stroke-linejoin:round; stroke-width:4; stroke-opacity:1; fill:none" points="249.542,736.166 268.44,736.166 "/>
<polyline clip-path="url(#clip370)" style="stroke:#000000; stroke-linecap:round; stroke-linejoin:round; stroke-width:4; stroke-opacity:1; fill:none" points="249.542,411.176 268.44,411.176 "/>
<polyline clip-path="url(#clip370)" style="stroke:#000000; stroke-linecap:round; stroke-linejoin:round; stroke-width:4; stroke-opacity:1; fill:none" points="249.542,86.1857 268.44,86.1857 "/>
<path clip-path="url(#clip370)" d="M126.205 1371.94 Q122.593 1371.94 120.765 1375.51 Q118.959 1379.05 118.959 1386.18 Q118.959 1393.29 120.765 1396.85 Q122.593 1400.39 126.205 1400.39 Q129.839 1400.39 131.644 1396.85 Q133.473 1393.29 133.473 1386.18 Q133.473 1379.05 131.644 1375.51 Q129.839 1371.94 126.205 1371.94 M126.205 1368.24 Q132.015 1368.24 135.07 1372.85 Q138.149 1377.43 138.149 1386.18 Q138.149 1394.91 135.07 1399.51 Q132.015 1404.1 126.205 1404.1 Q120.394 1404.1 117.316 1399.51 Q114.26 1394.91 114.26 1386.18 Q114.26 1377.43 117.316 1372.85 Q120.394 1368.24 126.205 1368.24 Z" fill="#000000" fill-rule="nonzero" fill-opacity="1" /><path clip-path="url(#clip370)" d="M146.366 1397.55 L151.251 1397.55 L151.251 1403.43 L146.366 1403.43 L146.366 1397.55 Z" fill="#000000" fill-rule="nonzero" fill-opacity="1" /><path clip-path="url(#clip370)" d="M171.436 1371.94 Q167.825 1371.94 165.996 1375.51 Q164.19 1379.05 164.19 1386.18 Q164.19 1393.29 165.996 1396.85 Q167.825 1400.39 171.436 1400.39 Q175.07 1400.39 176.876 1396.85 Q178.704 1393.29 178.704 1386.18 Q178.704 1379.05 176.876 1375.51 Q175.07 1371.94 171.436 1371.94 M171.436 1368.24 Q177.246 1368.24 180.301 1372.85 Q183.38 1377.43 183.38 1386.18 Q183.38 1394.91 180.301 1399.51 Q177.246 1404.1 171.436 1404.1 Q165.626 1404.1 162.547 1399.51 Q159.491 1394.91 159.491 1386.18 Q159.491 1377.43 162.547 1372.85 Q165.626 1368.24 171.436 1368.24 Z" fill="#000000" fill-rule="nonzero" fill-opacity="1" /><path clip-path="url(#clip370)" d="M201.598 1371.94 Q197.987 1371.94 196.158 1375.51 Q194.352 1379.05 194.352 1386.18 Q194.352 1393.29 196.158 1396.85 Q197.987 1400.39 201.598 1400.39 Q205.232 1400.39 207.037 1396.85 Q208.866 1393.29 208.866 1386.18 Q208.866 1379.05 207.037 1375.51 Q205.232 1371.94 201.598 1371.94 M201.598 1368.24 Q207.408 1368.24 210.463 1372.85 Q213.542 1377.43 213.542 1386.18 Q213.542 1394.91 210.463 1399.51 Q207.408 1404.1 201.598 1404.1 Q195.787 1404.1 192.709 1399.51 Q189.653 1394.91 189.653 1386.18 Q189.653 1377.43 192.709 1372.85 Q195.787 1368.24 201.598 1368.24 Z" fill="#000000" fill-rule="nonzero" fill-opacity="1" /><path clip-path="url(#clip370)" d="M127.2 1046.95 Q123.589 1046.95 121.76 1050.52 Q119.955 1054.06 119.955 1061.19 Q119.955 1068.3 121.76 1071.86 Q123.589 1075.4 127.2 1075.4 Q130.834 1075.4 132.64 1071.86 Q134.468 1068.3 134.468 1061.19 Q134.468 1054.06 132.64 1050.52 Q130.834 1046.95 127.2 1046.95 M127.2 1043.25 Q133.01 1043.25 136.066 1047.86 Q139.144 1052.44 139.144 1061.19 Q139.144 1069.92 136.066 1074.52 Q133.01 1079.11 127.2 1079.11 Q121.39 1079.11 118.311 1074.52 Q115.256 1069.92 115.256 1061.19 Q115.256 1052.44 118.311 1047.86 Q121.39 1043.25 127.2 1043.25 Z" fill="#000000" fill-rule="nonzero" fill-opacity="1" /><path clip-path="url(#clip370)" d="M147.362 1072.56 L152.246 1072.56 L152.246 1078.44 L147.362 1078.44 L147.362 1072.56 Z" fill="#000000" fill-rule="nonzero" fill-opacity="1" /><path clip-path="url(#clip370)" d="M166.459 1074.5 L182.778 1074.5 L182.778 1078.44 L160.834 1078.44 L160.834 1074.5 Q163.496 1071.75 168.079 1067.12 Q172.686 1062.46 173.866 1061.12 Q176.112 1058.6 176.991 1056.86 Q177.894 1055.1 177.894 1053.41 Q177.894 1050.66 175.95 1048.92 Q174.028 1047.19 170.927 1047.19 Q168.727 1047.19 166.274 1047.95 Q163.843 1048.71 161.065 1050.26 L161.065 1045.54 Q163.89 1044.41 166.343 1043.83 Q168.797 1043.25 170.834 1043.25 Q176.204 1043.25 179.399 1045.94 Q182.593 1048.62 182.593 1053.11 Q182.593 1055.24 181.783 1057.16 Q180.996 1059.06 178.889 1061.65 Q178.311 1062.32 175.209 1065.54 Q172.107 1068.74 166.459 1074.5 Z" fill="#000000" fill-rule="nonzero" fill-opacity="1" /><path clip-path="url(#clip370)" d="M192.639 1043.88 L210.996 1043.88 L210.996 1047.81 L196.922 1047.81 L196.922 1056.28 Q197.94 1055.94 198.959 1055.77 Q199.977 1055.59 200.996 1055.59 Q206.783 1055.59 210.162 1058.76 Q213.542 1061.93 213.542 1067.35 Q213.542 1072.93 210.07 1076.03 Q206.598 1079.11 200.278 1079.11 Q198.102 1079.11 195.834 1078.74 Q193.588 1078.37 191.181 1077.63 L191.181 1072.93 Q193.264 1074.06 195.487 1074.62 Q197.709 1075.17 200.186 1075.17 Q204.19 1075.17 206.528 1073.07 Q208.866 1070.96 208.866 1067.35 Q208.866 1063.74 206.528 1061.63 Q204.19 1059.52 200.186 1059.52 Q198.311 1059.52 196.436 1059.94 Q194.584 1060.36 192.639 1061.24 L192.639 1043.88 Z" fill="#000000" fill-rule="nonzero" fill-opacity="1" /><path clip-path="url(#clip370)" d="M126.205 721.965 Q122.593 721.965 120.765 725.529 Q118.959 729.071 118.959 736.201 Q118.959 743.307 120.765 746.872 Q122.593 750.414 126.205 750.414 Q129.839 750.414 131.644 746.872 Q133.473 743.307 133.473 736.201 Q133.473 729.071 131.644 725.529 Q129.839 721.965 126.205 721.965 M126.205 718.261 Q132.015 718.261 135.07 722.867 Q138.149 727.451 138.149 736.201 Q138.149 744.927 135.07 749.534 Q132.015 754.117 126.205 754.117 Q120.394 754.117 117.316 749.534 Q114.26 744.927 114.26 736.201 Q114.26 727.451 117.316 722.867 Q120.394 718.261 126.205 718.261 Z" fill="#000000" fill-rule="nonzero" fill-opacity="1" /><path clip-path="url(#clip370)" d="M146.366 747.566 L151.251 747.566 L151.251 753.446 L146.366 753.446 L146.366 747.566 Z" fill="#000000" fill-rule="nonzero" fill-opacity="1" /><path clip-path="url(#clip370)" d="M161.482 718.886 L179.839 718.886 L179.839 722.821 L165.765 722.821 L165.765 731.293 Q166.783 730.946 167.802 730.784 Q168.82 730.599 169.839 730.599 Q175.626 730.599 179.005 733.77 Q182.385 736.941 182.385 742.358 Q182.385 747.937 178.913 751.038 Q175.44 754.117 169.121 754.117 Q166.945 754.117 164.677 753.747 Q162.431 753.376 160.024 752.636 L160.024 747.937 Q162.107 749.071 164.329 749.626 Q166.552 750.182 169.028 750.182 Q173.033 750.182 175.371 748.076 Q177.709 745.969 177.709 742.358 Q177.709 738.747 175.371 736.64 Q173.033 734.534 169.028 734.534 Q167.153 734.534 165.278 734.951 Q163.427 735.367 161.482 736.247 L161.482 718.886 Z" fill="#000000" fill-rule="nonzero" fill-opacity="1" /><path clip-path="url(#clip370)" d="M201.598 721.965 Q197.987 721.965 196.158 725.529 Q194.352 729.071 194.352 736.201 Q194.352 743.307 196.158 746.872 Q197.987 750.414 201.598 750.414 Q205.232 750.414 207.037 746.872 Q208.866 743.307 208.866 736.201 Q208.866 729.071 207.037 725.529 Q205.232 721.965 201.598 721.965 M201.598 718.261 Q207.408 718.261 210.463 722.867 Q213.542 727.451 213.542 736.201 Q213.542 744.927 210.463 749.534 Q207.408 754.117 201.598 754.117 Q195.787 754.117 192.709 749.534 Q189.653 744.927 189.653 736.201 Q189.653 727.451 192.709 722.867 Q195.787 718.261 201.598 718.261 Z" fill="#000000" fill-rule="nonzero" fill-opacity="1" /><path clip-path="url(#clip370)" d="M127.2 396.974 Q123.589 396.974 121.76 400.539 Q119.955 404.081 119.955 411.211 Q119.955 418.317 121.76 421.882 Q123.589 425.423 127.2 425.423 Q130.834 425.423 132.64 421.882 Q134.468 418.317 134.468 411.211 Q134.468 404.081 132.64 400.539 Q130.834 396.974 127.2 396.974 M127.2 393.271 Q133.01 393.271 136.066 397.877 Q139.144 402.461 139.144 411.211 Q139.144 419.937 136.066 424.544 Q133.01 429.127 127.2 429.127 Q121.39 429.127 118.311 424.544 Q115.256 419.937 115.256 411.211 Q115.256 402.461 118.311 397.877 Q121.39 393.271 127.2 393.271 Z" fill="#000000" fill-rule="nonzero" fill-opacity="1" /><path clip-path="url(#clip370)" d="M147.362 422.576 L152.246 422.576 L152.246 428.456 L147.362 428.456 L147.362 422.576 Z" fill="#000000" fill-rule="nonzero" fill-opacity="1" /><path clip-path="url(#clip370)" d="M161.251 393.896 L183.473 393.896 L183.473 395.887 L170.927 428.456 L166.042 428.456 L177.848 397.831 L161.251 397.831 L161.251 393.896 Z" fill="#000000" fill-rule="nonzero" fill-opacity="1" /><path clip-path="url(#clip370)" d="M192.639 393.896 L210.996 393.896 L210.996 397.831 L196.922 397.831 L196.922 406.303 Q197.94 405.956 198.959 405.794 Q199.977 405.609 200.996 405.609 Q206.783 405.609 210.162 408.78 Q213.542 411.951 213.542 417.368 Q213.542 422.947 210.07 426.048 Q206.598 429.127 200.278 429.127 Q198.102 429.127 195.834 428.757 Q193.588 428.386 191.181 427.646 L191.181 422.947 Q193.264 424.081 195.487 424.636 Q197.709 425.192 200.186 425.192 Q204.19 425.192 206.528 423.085 Q208.866 420.979 208.866 417.368 Q208.866 413.757 206.528 411.65 Q204.19 409.544 200.186 409.544 Q198.311 409.544 196.436 409.961 Q194.584 410.377 192.639 411.257 L192.639 393.896 Z" fill="#000000" fill-rule="nonzero" fill-opacity="1" /><path clip-path="url(#clip370)" d="M117.015 99.5305 L124.654 99.5305 L124.654 73.1649 L116.343 74.8316 L116.343 70.5723 L124.607 68.9057 L129.283 68.9057 L129.283 99.5305 L136.922 99.5305 L136.922 103.466 L117.015 103.466 L117.015 99.5305 Z" fill="#000000" fill-rule="nonzero" fill-opacity="1" /><path clip-path="url(#clip370)" d="M146.366 97.5861 L151.251 97.5861 L151.251 103.466 L146.366 103.466 L146.366 97.5861 Z" fill="#000000" fill-rule="nonzero" fill-opacity="1" /><path clip-path="url(#clip370)" d="M171.436 71.9844 Q167.825 71.9844 165.996 75.5492 Q164.19 79.0908 164.19 86.2204 Q164.19 93.3268 165.996 96.8916 Q167.825 100.433 171.436 100.433 Q175.07 100.433 176.876 96.8916 Q178.704 93.3268 178.704 86.2204 Q178.704 79.0908 176.876 75.5492 Q175.07 71.9844 171.436 71.9844 M171.436 68.2807 Q177.246 68.2807 180.301 72.8871 Q183.38 77.4704 183.38 86.2204 Q183.38 94.9472 180.301 99.5537 Q177.246 104.137 171.436 104.137 Q165.626 104.137 162.547 99.5537 Q159.491 94.9472 159.491 86.2204 Q159.491 77.4704 162.547 72.8871 Q165.626 68.2807 171.436 68.2807 Z" fill="#000000" fill-rule="nonzero" fill-opacity="1" /><path clip-path="url(#clip370)" d="M201.598 71.9844 Q197.987 71.9844 196.158 75.5492 Q194.352 79.0908 194.352 86.2204 Q194.352 93.3268 196.158 96.8916 Q197.987 100.433 201.598 100.433 Q205.232 100.433 207.037 96.8916 Q208.866 93.3268 208.866 86.2204 Q208.866 79.0908 207.037 75.5492 Q205.232 71.9844 201.598 71.9844 M201.598 68.2807 Q207.408 68.2807 210.463 72.8871 Q213.542 77.4704 213.542 86.2204 Q213.542 94.9472 210.463 99.5537 Q207.408 104.137 201.598 104.137 Q195.787 104.137 192.709 99.5537 Q189.653 94.9472 189.653 86.2204 Q189.653 77.4704 192.709 72.8871 Q195.787 68.2807 201.598 68.2807 Z" fill="#000000" fill-rule="nonzero" fill-opacity="1" /><path clip-path="url(#clip370)" d="M21.7677 1069.55 L39.6235 1069.55 L39.6235 1061.47 Q39.6235 1056.98 37.3 1054.53 Q34.9765 1052.08 30.6797 1052.08 Q26.4147 1052.08 24.0912 1054.53 Q21.7677 1056.98 21.7677 1061.47 L21.7677 1069.55 M16.4842 1075.98 L16.4842 1061.47 Q16.4842 1053.48 20.1126 1049.41 Q23.7092 1045.3 30.6797 1045.3 Q37.7138 1045.3 41.3104 1049.41 Q44.907 1053.48 44.907 1061.47 L44.907 1069.55 L64.0042 1069.55 L64.0042 1075.98 L16.4842 1075.98 Z" fill="#000000" fill-rule="nonzero" fill-opacity="1" /><path clip-path="url(#clip370)" d="M32.4621 1025.44 Q32.4621 1030.15 36.1542 1032.89 Q39.8145 1035.63 46.212 1035.63 Q52.6095 1035.63 56.3017 1032.92 Q59.9619 1030.18 59.9619 1025.44 Q59.9619 1020.76 56.2698 1018.02 Q52.5777 1015.29 46.212 1015.29 Q39.8781 1015.29 36.186 1018.02 Q32.4621 1020.76 32.4621 1025.44 M27.4968 1025.44 Q27.4968 1017.8 32.4621 1013.44 Q37.4273 1009.08 46.212 1009.08 Q54.9649 1009.08 59.9619 1013.44 Q64.9272 1017.8 64.9272 1025.44 Q64.9272 1033.11 59.9619 1037.47 Q54.9649 1041.8 46.212 1041.8 Q37.4273 1041.8 32.4621 1037.47 Q27.4968 1033.11 27.4968 1025.44 Z" fill="#000000" fill-rule="nonzero" fill-opacity="1" /><path clip-path="url(#clip370)" d="M58.657 993.707 L77.5631 993.707 L77.5631 999.596 L28.3562 999.596 L28.3562 993.707 L33.7671 993.707 Q30.5842 991.861 29.0564 989.06 Q27.4968 986.228 27.4968 982.313 Q27.4968 975.82 32.6531 971.778 Q37.8093 967.703 46.212 967.703 Q54.6147 967.703 59.771 971.778 Q64.9272 975.82 64.9272 982.313 Q64.9272 986.228 63.3994 989.06 Q61.8398 991.861 58.657 993.707 M46.212 973.783 Q39.7508 973.783 36.0905 976.456 Q32.3984 979.098 32.3984 983.745 Q32.3984 988.392 36.0905 991.066 Q39.7508 993.707 46.212 993.707 Q52.6732 993.707 56.3653 991.066 Q60.0256 988.392 60.0256 983.745 Q60.0256 979.098 56.3653 976.456 Q52.6732 973.783 46.212 973.783 Z" fill="#000000" fill-rule="nonzero" fill-opacity="1" /><path clip-path="url(#clip370)" d="M49.9359 958.601 L28.3562 958.601 L28.3562 952.744 L49.7131 952.744 Q54.7739 952.744 57.3202 950.771 Q59.8346 948.797 59.8346 944.851 Q59.8346 940.108 56.8109 937.371 Q53.7872 934.602 48.5673 934.602 L28.3562 934.602 L28.3562 928.745 L64.0042 928.745 L64.0042 934.602 L58.5296 934.602 Q61.7762 936.734 63.3676 939.567 Q64.9272 942.368 64.9272 946.092 Q64.9272 952.235 61.1078 955.418 Q57.2883 958.601 49.9359 958.601 M27.4968 943.864 L27.4968 943.864 Z" fill="#000000" fill-rule="nonzero" fill-opacity="1" /><path clip-path="url(#clip370)" d="M14.479 916.682 L14.479 910.826 L64.0042 910.826 L64.0042 916.682 L14.479 916.682 Z" fill="#000000" fill-rule="nonzero" fill-opacity="1" /><path clip-path="url(#clip370)" d="M46.0847 882.371 Q46.0847 889.469 47.7079 892.206 Q49.3312 894.943 53.2461 894.943 Q56.3653 894.943 58.2114 892.906 Q60.0256 890.838 60.0256 887.305 Q60.0256 882.435 56.5881 879.507 Q53.1188 876.547 47.3897 876.547 L46.0847 876.547 L46.0847 882.371 M43.6657 870.69 L64.0042 870.69 L64.0042 876.547 L58.5933 876.547 Q61.8398 878.552 63.3994 881.544 Q64.9272 884.536 64.9272 888.864 Q64.9272 894.339 61.8716 897.585 Q58.7843 900.8 53.6281 900.8 Q47.6125 900.8 44.5569 896.79 Q41.5014 892.747 41.5014 884.758 L41.5014 876.547 L40.9285 876.547 Q36.8862 876.547 34.6901 879.22 Q32.4621 881.862 32.4621 886.668 Q32.4621 889.724 33.1941 892.62 Q33.9262 895.516 35.3903 898.19 L29.9795 898.19 Q28.7381 894.975 28.1334 891.952 Q27.4968 888.928 27.4968 886.063 Q27.4968 878.329 31.5072 874.51 Q35.5176 870.69 43.6657 870.69 Z" fill="#000000" fill-rule="nonzero" fill-opacity="1" /><path clip-path="url(#clip370)" d="M18.2347 852.834 L28.3562 852.834 L28.3562 840.771 L32.9077 840.771 L32.9077 852.834 L52.2594 852.834 Q56.6199 852.834 57.8613 851.657 Q59.1026 850.447 59.1026 846.787 L59.1026 840.771 L64.0042 840.771 L64.0042 846.787 Q64.0042 853.566 61.4897 856.144 Q58.9434 858.723 52.2594 858.723 L32.9077 858.723 L32.9077 863.019 L28.3562 863.019 L28.3562 858.723 L18.2347 858.723 L18.2347 852.834 Z" fill="#000000" fill-rule="nonzero" fill-opacity="1" /><path clip-path="url(#clip370)" d="M28.3562 833.069 L28.3562 827.212 L64.0042 827.212 L64.0042 833.069 L28.3562 833.069 M14.479 833.069 L14.479 827.212 L21.895 827.212 L21.895 833.069 L14.479 833.069 Z" fill="#000000" fill-rule="nonzero" fill-opacity="1" /><path clip-path="url(#clip370)" d="M32.4621 801.145 Q32.4621 805.855 36.1542 808.593 Q39.8145 811.33 46.212 811.33 Q52.6095 811.33 56.3017 808.624 Q59.9619 805.887 59.9619 801.145 Q59.9619 796.466 56.2698 793.729 Q52.5777 790.991 46.212 790.991 Q39.8781 790.991 36.186 793.729 Q32.4621 796.466 32.4621 801.145 M27.4968 801.145 Q27.4968 793.506 32.4621 789.145 Q37.4273 784.785 46.212 784.785 Q54.9649 784.785 59.9619 789.145 Q64.9272 793.506 64.9272 801.145 Q64.9272 808.815 59.9619 813.176 Q54.9649 817.505 46.212 817.505 Q37.4273 817.505 32.4621 813.176 Q27.4968 808.815 27.4968 801.145 Z" fill="#000000" fill-rule="nonzero" fill-opacity="1" /><path clip-path="url(#clip370)" d="M42.4881 745.445 L64.0042 745.445 L64.0042 751.301 L42.679 751.301 Q37.6183 751.301 35.1038 753.275 Q32.5894 755.248 32.5894 759.195 Q32.5894 763.937 35.6131 766.674 Q38.6368 769.412 43.8567 769.412 L64.0042 769.412 L64.0042 775.3 L28.3562 775.3 L28.3562 769.412 L33.8944 769.412 Q30.6797 767.311 29.0883 764.478 Q27.4968 761.614 27.4968 757.89 Q27.4968 751.747 31.3163 748.596 Q35.1038 745.445 42.4881 745.445 Z" fill="#000000" fill-rule="nonzero" fill-opacity="1" /><path clip-path="url(#clip370)" d="M33.7671 689.586 L14.479 689.586 L14.479 683.729 L64.0042 683.729 L64.0042 689.586 L58.657 689.586 Q61.8398 691.432 63.3994 694.265 Q64.9272 697.065 64.9272 701.012 Q64.9272 707.473 59.771 711.547 Q54.6147 715.59 46.212 715.59 Q37.8093 715.59 32.6531 711.547 Q27.4968 707.473 27.4968 701.012 Q27.4968 697.065 29.0564 694.265 Q30.5842 691.432 33.7671 689.586 M46.212 709.542 Q52.6732 709.542 56.3653 706.9 Q60.0256 704.227 60.0256 699.58 Q60.0256 694.933 56.3653 692.259 Q52.6732 689.586 46.212 689.586 Q39.7508 689.586 36.0905 692.259 Q32.3984 694.933 32.3984 699.58 Q32.3984 704.227 36.0905 706.9 Q39.7508 709.542 46.212 709.542 Z" fill="#000000" fill-rule="nonzero" fill-opacity="1" /><path clip-path="url(#clip370)" d="M28.3562 671.666 L28.3562 665.81 L64.0042 665.81 L64.0042 671.666 L28.3562 671.666 M14.479 671.666 L14.479 665.81 L21.895 665.81 L21.895 671.666 L14.479 671.666 Z" fill="#000000" fill-rule="nonzero" fill-opacity="1" /><path clip-path="url(#clip370)" d="M14.479 635.509 L19.3487 635.509 L19.3487 641.111 Q19.3487 644.262 20.6219 645.503 Q21.895 646.713 25.2052 646.713 L28.3562 646.713 L28.3562 637.069 L32.9077 637.069 L32.9077 646.713 L64.0042 646.713 L64.0042 652.601 L32.9077 652.601 L32.9077 658.203 L28.3562 658.203 L28.3562 652.601 L25.8736 652.601 Q19.9216 652.601 17.2162 649.832 Q14.479 647.063 14.479 641.047 L14.479 635.509 Z" fill="#000000" fill-rule="nonzero" fill-opacity="1" /><path clip-path="url(#clip370)" d="M14.479 612.561 L19.3487 612.561 L19.3487 618.163 Q19.3487 621.314 20.6219 622.555 Q21.895 623.764 25.2052 623.764 L28.3562 623.764 L28.3562 614.12 L32.9077 614.12 L32.9077 623.764 L64.0042 623.764 L64.0042 629.653 L32.9077 629.653 L32.9077 635.254 L28.3562 635.254 L28.3562 629.653 L25.8736 629.653 Q19.9216 629.653 17.2162 626.884 Q14.479 624.114 14.479 618.099 L14.479 612.561 Z" fill="#000000" fill-rule="nonzero" fill-opacity="1" /><path clip-path="url(#clip370)" d="M44.7161 577.167 L47.5806 577.167 L47.5806 604.094 Q53.6281 603.712 56.8109 600.466 Q59.9619 597.188 59.9619 591.363 Q59.9619 587.989 59.1344 584.838 Q58.3069 581.655 56.6518 578.536 L62.1899 578.536 Q63.5267 581.687 64.227 584.997 Q64.9272 588.307 64.9272 591.713 Q64.9272 600.243 59.9619 605.24 Q54.9967 610.205 46.5303 610.205 Q37.7774 610.205 32.6531 605.495 Q27.4968 600.752 27.4968 592.732 Q27.4968 585.538 32.1438 581.369 Q36.7589 577.167 44.7161 577.167 M42.9973 583.024 Q38.1912 583.087 35.3266 585.729 Q32.4621 588.339 32.4621 592.668 Q32.4621 597.569 35.2312 600.53 Q38.0002 603.458 43.0292 603.903 L42.9973 583.024 Z" fill="#000000" fill-rule="nonzero" fill-opacity="1" /><path clip-path="url(#clip370)" d="M33.8307 546.898 Q33.2578 547.885 33.0032 549.063 Q32.7167 550.209 32.7167 551.609 Q32.7167 556.574 35.9632 559.248 Q39.1779 561.89 45.2253 561.89 L64.0042 561.89 L64.0042 567.778 L28.3562 567.778 L28.3562 561.89 L33.8944 561.89 Q30.6479 560.044 29.0883 557.084 Q27.4968 554.124 27.4968 549.89 Q27.4968 549.286 27.5923 548.554 Q27.656 547.821 27.8151 546.93 L33.8307 546.898 Z" fill="#000000" fill-rule="nonzero" fill-opacity="1" /><path clip-path="url(#clip370)" d="M44.7161 511.696 L47.5806 511.696 L47.5806 538.623 Q53.6281 538.241 56.8109 534.995 Q59.9619 531.716 59.9619 525.892 Q59.9619 522.518 59.1344 519.367 Q58.3069 516.184 56.6518 513.065 L62.1899 513.065 Q63.5267 516.216 64.227 519.526 Q64.9272 522.836 64.9272 526.242 Q64.9272 534.772 59.9619 539.769 Q54.9967 544.734 46.5303 544.734 Q37.7774 544.734 32.6531 540.023 Q27.4968 535.281 27.4968 527.26 Q27.4968 520.067 32.1438 515.897 Q36.7589 511.696 44.7161 511.696 M42.9973 517.553 Q38.1912 517.616 35.3266 520.258 Q32.4621 522.868 32.4621 527.197 Q32.4621 532.098 35.2312 535.058 Q38.0002 537.986 43.0292 538.432 L42.9973 517.553 Z" fill="#000000" fill-rule="nonzero" fill-opacity="1" /><path clip-path="url(#clip370)" d="M42.4881 472.452 L64.0042 472.452 L64.0042 478.308 L42.679 478.308 Q37.6183 478.308 35.1038 480.281 Q32.5894 482.255 32.5894 486.201 Q32.5894 490.944 35.6131 493.681 Q38.6368 496.418 43.8567 496.418 L64.0042 496.418 L64.0042 502.307 L28.3562 502.307 L28.3562 496.418 L33.8944 496.418 Q30.6797 494.318 29.0883 491.485 Q27.4968 488.62 27.4968 484.896 Q27.4968 478.754 31.3163 475.603 Q35.1038 472.452 42.4881 472.452 Z" fill="#000000" fill-rule="nonzero" fill-opacity="1" /><path clip-path="url(#clip370)" d="M29.7248 435.117 L35.1993 435.117 Q33.8307 437.599 33.1623 440.114 Q32.4621 442.596 32.4621 445.143 Q32.4621 450.84 36.0905 453.991 Q39.6872 457.142 46.212 457.142 Q52.7369 457.142 56.3653 453.991 Q59.9619 450.84 59.9619 445.143 Q59.9619 442.596 59.2935 440.114 Q58.5933 437.599 57.2247 435.117 L62.6355 435.117 Q63.7814 437.567 64.3543 440.209 Q64.9272 442.819 64.9272 445.779 Q64.9272 453.832 59.8664 458.574 Q54.8057 463.317 46.212 463.317 Q37.491 463.317 32.4939 458.542 Q27.4968 453.736 27.4968 445.397 Q27.4968 442.692 28.0697 440.114 Q28.6108 437.536 29.7248 435.117 Z" fill="#000000" fill-rule="nonzero" fill-opacity="1" /><path clip-path="url(#clip370)" d="M44.7161 394.44 L47.5806 394.44 L47.5806 421.367 Q53.6281 420.985 56.8109 417.738 Q59.9619 414.46 59.9619 408.635 Q59.9619 405.261 59.1344 402.11 Q58.3069 398.928 56.6518 395.808 L62.1899 395.808 Q63.5267 398.959 64.227 402.27 Q64.9272 405.58 64.9272 408.985 Q64.9272 417.515 59.9619 422.513 Q54.9967 427.478 46.5303 427.478 Q37.7774 427.478 32.6531 422.767 Q27.4968 418.025 27.4968 410.004 Q27.4968 402.811 32.1438 398.641 Q36.7589 394.44 44.7161 394.44 M42.9973 400.296 Q38.1912 400.36 35.3266 403.002 Q32.4621 405.612 32.4621 409.94 Q32.4621 414.842 35.2312 417.802 Q38.0002 420.73 43.0292 421.176 L42.9973 400.296 Z" fill="#000000" fill-rule="nonzero" fill-opacity="1" /><polyline clip-path="url(#clip372)" style="stroke:#009af9; stroke-linecap:round; stroke-linejoin:round; stroke-width:4; stroke-opacity:1; fill:none" points="309.067,86.1857 315.681,90.5414 322.295,101.373 328.909,118.572 335.522,141.962 342.136,171.306 348.75,206.305 355.364,246.605 361.978,291.8 368.592,341.433 375.206,395.007 381.82,451.984 388.434,511.796 395.047,573.847 401.661,637.517 408.275,702.174 414.889,767.174 421.503,831.868 428.117,895.612 434.731,957.766 441.345,1017.71 447.958,1074.83 454.572,1128.56 461.186,1178.34 467.8,1223.68 474.414,1264.11 481.028,1299.2 487.642,1328.61 494.256,1352.02 500.869,1369.2 507.483,1379.98 514.097,1384.24 520.711,1381.95 527.325,1373.13 533.939,1357.9 540.553,1336.41 547.167,1308.91 553.781,1275.67 560.394,1237.06 567.008,1193.49 573.622,1145.4 580.236,1093.3 586.85,1037.72 593.464,979.232 600.078,918.438 606.692,855.955 613.305,792.418 619.919,728.473 626.533,664.769 633.147,601.955 639.761,540.671 646.375,481.544 652.989,425.182 659.603,372.166 666.216,323.044 672.83,278.323 679.444,238.467 686.058,203.888 692.672,174.938 699.286,151.909 705.9,135.026 712.514,124.445 719.128,120.247 725.741,122.443 732.355,130.97 738.969,145.695 745.583,166.414 752.197,192.857 758.811,224.697 765.425,261.546 772.039,302.968 778.652,348.483 785.266,397.572 791.88,449.684 798.494,504.242 805.108,560.649 811.722,618.296 818.336,676.564 824.95,734.832 831.563,792.484 838.177,848.913 844.791,903.528 851.405,955.756 858.019,1005.05 864.633,1050.91 871.247,1092.87 877.861,1130.48 884.475,1163.39 891.088,1191.28 897.702,1213.88 904.316,1231.02 910.93,1242.57 917.544,1248.48 924.158,1248.77 930.772,1243.52 937.386,1232.9 943.999,1217.13 950.613,1196.48 957.227,1171.3 963.841,1141.98 970.455,1108.94 977.069,1072.66 983.683,1033.62 990.297,992.35 996.91,949.378 1003.52,905.245 1010.14,860.494 1016.75,815.661 1023.37,771.273 1029.98,727.84 1036.59,685.848 1043.21,645.759 1049.82,607.999 1056.44,572.96 1063.05,540.992 1069.66,512.399 1076.28,487.437 1082.89,466.311 1089.5,449.171 1096.12,436.11 1102.73,427.165 1109.35,422.316 1115.96,421.487 1122.57,424.546 1129.19,431.309 1135.8,441.543 1142.42,454.97 1149.03,471.272 1155.64,490.097 1162.26,511.063 1168.87,533.767 1175.49,557.79 1182.1,582.704 1188.71,608.081 1195.33,633.497 1201.94,658.538 1208.55,682.81 1215.17,705.944 1221.78,727.599 1228.4,747.468 1235.01,765.286 1241.62,780.828 1248.24,793.917 1254.85,804.423 1261.47,812.265 1268.08,817.414 1274.69,819.887 1281.31,819.754 1287.92,817.127 1294.54,812.164 1301.15,805.062 1307.76,796.056 1314.38,785.411 1320.99,773.419 1327.6,760.397 1334.22,746.674 1340.83,732.594 1347.45,718.506 1354.06,704.758 1360.67,691.694 1367.29,679.648 1373.9,668.938 1380.52,659.861 1387.13,652.688 1393.74,647.66 1400.36,644.981 1406.97,644.817 1413.58,647.292 1420.2,652.482 1426.81,660.415 1433.43,671.07 1440.04,684.371 1446.65,700.195 1453.27,718.367 1459.88,738.665 1466.5,760.82 1473.11,784.523 1479.72,809.431 1486.34,835.167 1492.95,861.333 1499.57,887.511 1506.18,913.273 1512.79,938.189 1519.41,961.83 1526.02,983.777 1532.63,1003.63 1539.25,1021.01 1545.86,1035.57 1552.48,1046.99 1559.09,1054.99 1565.7,1059.34 1572.32,1059.84 1578.93,1056.36 1585.55,1048.79 1592.16,1037.12 1598.77,1021.35 1605.39,1001.55 1612,977.856 1618.62,950.449 1625.23,919.567 1631.84,885.499 1638.46,848.585 1645.07,809.211 1651.68,767.805 1658.3,724.831 1664.91,680.785 1671.53,636.186 1678.14,591.573 1684.75,547.493 1691.37,504.496 1697.98,463.126 1704.6,423.914 1711.21,387.371 1717.82,353.979 1724.44,324.184 1731.05,298.393 1737.67,276.965 1744.28,260.211 1750.89,248.385 1757.51,241.683 1764.12,240.243 1770.73,244.139 1777.35,253.383 1783.96,267.926 1790.58,287.656 1797.19,312.4 1803.8,341.924 1810.42,375.942 1817.03,414.109 1823.65,456.034 1830.26,501.278 1836.87,549.36 1843.49,599.766 1850.1,651.95 1856.71,705.344 1863.33,759.361 1869.94,813.407 1876.56,866.883 1883.17,919.199 1889.78,969.773 1896.4,1018.05 1903.01,1063.48 1909.63,1105.59 1916.24,1143.9 1922.85,1177.99 1929.47,1207.51 1936.08,1232.13 1942.7,1251.59 1949.31,1265.71 1955.92,1274.33 1962.54,1277.38 1969.15,1274.84 1975.76,1266.75 1982.38,1253.22 1988.99,1234.41 1995.61,1210.52 2002.22,1181.84 2008.83,1148.68 2015.45,1111.41 2022.06,1070.43 2028.68,1026.19 2035.29,979.157 2041.9,929.843 2048.52,878.772 2055.13,826.483 2061.75,773.527 2068.36,720.458 2074.97,667.827 2081.59,616.176 2088.2,566.032 2094.81,517.903 2101.43,472.268 2108.04,429.577 2114.66,390.245 2121.27,354.646 2127.88,323.112 2134.5,295.929 2141.11,273.334 2147.73,255.515 2154.34,242.609 2160.95,234.702 2167.57,231.827 2174.18,233.966 2180.8,241.053 2187.41,252.972 2194.02,269.557 2200.64,290.603 2207.25,315.858 2213.86,345.033 2220.48,377.803 2227.09,413.81 2233.71,452.668 2240.32,493.967 2246.93,537.277 2253.55,582.153 2260.16,628.14 2266.78,674.777 2273.39,721.603 2280,768.159 2286.62,813.995 2293.23,858.677 "/>
<path clip-path="url(#clip370)" d="M2019.9 1377.32 L2282.65 1377.32 L2282.65 1273.64 L2019.9 1273.64  Z" fill="#ffffff" fill-rule="evenodd" fill-opacity="1"/>
<polyline clip-path="url(#clip370)" style="stroke:#000000; stroke-linecap:round; stroke-linejoin:round; stroke-width:4; stroke-opacity:1; fill:none" points="2019.9,1377.32 2282.65,1377.32 2282.65,1273.64 2019.9,1273.64 2019.9,1377.32 "/>
<polyline clip-path="url(#clip370)" style="stroke:#009af9; stroke-linecap:round; stroke-linejoin:round; stroke-width:4; stroke-opacity:1; fill:none" points="2043.27,1325.48 2183.48,1325.48 "/>
<path clip-path="url(#clip370)" d="M2220.69 1345.16 Q2218.89 1349.79 2217.17 1351.2 Q2215.46 1352.62 2212.59 1352.62 L2209.19 1352.62 L2209.19 1349.05 L2211.69 1349.05 Q2213.45 1349.05 2214.42 1348.22 Q2215.39 1347.38 2216.57 1344.28 L2217.34 1342.34 L2206.85 1316.83 L2211.36 1316.83 L2219.47 1337.11 L2227.57 1316.83 L2232.08 1316.83 L2220.69 1345.16 Z" fill="#000000" fill-rule="nonzero" fill-opacity="1" /><path clip-path="url(#clip370)" d="M2239.37 1338.82 L2247.01 1338.82 L2247.01 1312.45 L2238.7 1314.12 L2238.7 1309.86 L2246.96 1308.2 L2251.64 1308.2 L2251.64 1338.82 L2259.28 1338.82 L2259.28 1342.76 L2239.37 1342.76 L2239.37 1338.82 Z" fill="#000000" fill-rule="nonzero" fill-opacity="1" /></svg>
