<?xml version="1.0" encoding="utf-8"?>
<svg xmlns="http://www.w3.org/2000/svg" xmlns:xlink="http://www.w3.org/1999/xlink" width="600" height="400" viewBox="0 0 2400 1600">
<defs>
  <clipPath id="clip940">
    <rect x="0" y="0" width="2400" height="1600"/>
  </clipPath>
</defs>
<path clip-path="url(#clip940)" d="M0 1600 L2400 1600 L2400 8.88178e-14 L0 8.88178e-14  Z" fill="#ffffff" fill-rule="evenodd" fill-opacity="1"/>
<defs>
  <clipPath id="clip941">
    <rect x="480" y="0" width="1681" height="1600"/>
  </clipPath>
</defs>
<path clip-path="url(#clip940)" d="M232.389 1423.18 L2352.76 1423.18 L2352.76 47.2441 L232.389 47.2441  Z" fill="#ffffff" fill-rule="evenodd" fill-opacity="1"/>
<defs>
  <clipPath id="clip942">
    <rect x="232" y="47" width="2121" height="1377"/>
  </clipPath>
</defs>
<polyline clip-path="url(#clip942)" style="stroke:#000000; stroke-linecap:round; stroke-linejoin:round; stroke-width:2; stroke-opacity:0.1; fill:none" points="292.4,1423.18 292.4,47.2441 "/>
<polyline clip-path="url(#clip942)" style="stroke:#000000; stroke-linecap:round; stroke-linejoin:round; stroke-width:2; stroke-opacity:0.1; fill:none" points="959.182,1423.18 959.182,47.2441 "/>
<polyline clip-path="url(#clip942)" style="stroke:#000000; stroke-linecap:round; stroke-linejoin:round; stroke-width:2; stroke-opacity:0.1; fill:none" points="1625.96,1423.18 1625.96,47.2441 "/>
<polyline clip-path="url(#clip942)" style="stroke:#000000; stroke-linecap:round; stroke-linejoin:round; stroke-width:2; stroke-opacity:0.1; fill:none" points="2292.75,1423.18 2292.75,47.2441 "/>
<polyline clip-path="url(#clip940)" style="stroke:#000000; stroke-linecap:round; stroke-linejoin:round; stroke-width:4; stroke-opacity:1; fill:none" points="232.389,1423.18 2352.76,1423.18 "/>
<polyline clip-path="url(#clip940)" style="stroke:#000000; stroke-linecap:round; stroke-linejoin:round; stroke-width:4; stroke-opacity:1; fill:none" points="292.4,1423.18 292.4,1404.28 "/>
<polyline clip-path="url(#clip940)" style="stroke:#000000; stroke-linecap:round; stroke-linejoin:round; stroke-width:4; stroke-opacity:1; fill:none" points="959.182,1423.18 959.182,1404.28 "/>
<polyline clip-path="url(#clip940)" style="stroke:#000000; stroke-linecap:round; stroke-linejoin:round; stroke-width:4; stroke-opacity:1; fill:none" points="1625.96,1423.18 1625.96,1404.28 "/>
<polyline clip-path="url(#clip940)" style="stroke:#000000; stroke-linecap:round; stroke-linejoin:round; stroke-width:4; stroke-opacity:1; fill:none" points="2292.75,1423.18 2292.75,1404.28 "/>
<path clip-path="url(#clip940)" d="M292.4 1454.1 Q288.789 1454.1 286.96 1457.66 Q285.154 1461.2 285.154 1468.33 Q285.154 1475.44 286.96 1479.01 Q288.789 1482.55 292.4 1482.55 Q296.034 1482.55 297.84 1479.01 Q299.668 1475.44 299.668 1468.33 Q299.668 1461.2 297.84 1457.66 Q296.034 1454.1 292.4 1454.1 M292.4 1450.39 Q298.21 1450.39 301.265 1455 Q304.344 1459.58 304.344 1468.33 Q304.344 1477.06 301.265 1481.67 Q298.21 1486.25 292.4 1486.25 Q286.59 1486.25 283.511 1481.67 Q280.455 1477.06 280.455 1468.33 Q280.455 1459.58 283.511 1455 Q286.59 1450.39 292.4 1450.39 Z" fill="#000000" fill-rule="nonzero" fill-opacity="1" /><path clip-path="url(#clip940)" d="M918.788 1481.64 L926.427 1481.64 L926.427 1455.28 L918.117 1456.95 L918.117 1452.69 L926.381 1451.02 L931.057 1451.02 L931.057 1481.64 L938.696 1481.64 L938.696 1485.58 L918.788 1485.58 L918.788 1481.64 Z" fill="#000000" fill-rule="nonzero" fill-opacity="1" /><path clip-path="url(#clip940)" d="M958.14 1454.1 Q954.529 1454.1 952.7 1457.66 Q950.895 1461.2 950.895 1468.33 Q950.895 1475.44 952.7 1479.01 Q954.529 1482.55 958.14 1482.55 Q961.774 1482.55 963.58 1479.01 Q965.408 1475.44 965.408 1468.33 Q965.408 1461.2 963.58 1457.66 Q961.774 1454.1 958.14 1454.1 M958.14 1450.39 Q963.95 1450.39 967.006 1455 Q970.084 1459.58 970.084 1468.33 Q970.084 1477.06 967.006 1481.67 Q963.95 1486.25 958.14 1486.25 Q952.33 1486.25 949.251 1481.67 Q946.196 1477.06 946.196 1468.33 Q946.196 1459.58 949.251 1455 Q952.33 1450.39 958.14 1450.39 Z" fill="#000000" fill-rule="nonzero" fill-opacity="1" /><path clip-path="url(#clip940)" d="M988.302 1454.1 Q984.691 1454.1 982.862 1457.66 Q981.057 1461.2 981.057 1468.33 Q981.057 1475.44 982.862 1479.01 Q984.691 1482.55 988.302 1482.55 Q991.936 1482.55 993.742 1479.01 Q995.57 1475.44 995.57 1468.33 Q995.57 1461.2 993.742 1457.66 Q991.936 1454.1 988.302 1454.1 M988.302 1450.39 Q994.112 1450.39 997.168 1455 Q1000.25 1459.58 1000.25 1468.33 Q1000.25 1477.06 997.168 1481.67 Q994.112 1486.25 988.302 1486.25 Q982.492 1486.25 979.413 1481.67 Q976.357 1477.06 976.357 1468.33 Q976.357 1459.58 979.413 1455 Q982.492 1450.39 988.302 1450.39 Z" fill="#000000" fill-rule="nonzero" fill-opacity="1" /><path clip-path="url(#clip940)" d="M1589.66 1481.64 L1605.98 1481.64 L1605.98 1485.58 L1584.03 1485.58 L1584.03 1481.64 Q1586.69 1478.89 1591.28 1474.26 Q1595.88 1469.61 1597.06 1468.27 Q1599.31 1465.74 1600.19 1464.01 Q1601.09 1462.25 1601.09 1460.56 Q1601.09 1457.8 1599.15 1456.07 Q1597.23 1454.33 1594.12 1454.33 Q1591.92 1454.33 1589.47 1455.09 Q1587.04 1455.86 1584.26 1457.41 L1584.26 1452.69 Q1587.09 1451.55 1589.54 1450.97 Q1591.99 1450.39 1594.03 1450.39 Q1599.4 1450.39 1602.6 1453.08 Q1605.79 1455.77 1605.79 1460.26 Q1605.79 1462.39 1604.98 1464.31 Q1604.19 1466.2 1602.09 1468.8 Q1601.51 1469.47 1598.41 1472.69 Q1595.3 1475.88 1589.66 1481.64 Z" fill="#000000" fill-rule="nonzero" fill-opacity="1" /><path clip-path="url(#clip940)" d="M1625.79 1454.1 Q1622.18 1454.1 1620.35 1457.66 Q1618.54 1461.2 1618.54 1468.33 Q1618.54 1475.44 1620.35 1479.01 Q1622.18 1482.55 1625.79 1482.55 Q1629.42 1482.55 1631.23 1479.01 Q1633.06 1475.44 1633.06 1468.33 Q1633.06 1461.2 1631.23 1457.66 Q1629.42 1454.1 1625.79 1454.1 M1625.79 1450.39 Q1631.6 1450.39 1634.66 1455 Q1637.73 1459.58 1637.73 1468.33 Q1637.73 1477.06 1634.66 1481.67 Q1631.6 1486.25 1625.79 1486.25 Q1619.98 1486.25 1616.9 1481.67 Q1613.85 1477.06 1613.85 1468.33 Q1613.85 1459.58 1616.9 1455 Q1619.98 1450.39 1625.79 1450.39 Z" fill="#000000" fill-rule="nonzero" fill-opacity="1" /><path clip-path="url(#clip940)" d="M1655.95 1454.1 Q1652.34 1454.1 1650.51 1457.66 Q1648.71 1461.2 1648.71 1468.33 Q1648.71 1475.44 1650.51 1479.01 Q1652.34 1482.55 1655.95 1482.55 Q1659.59 1482.55 1661.39 1479.01 Q1663.22 1475.44 1663.22 1468.33 Q1663.22 1461.2 1661.39 1457.66 Q1659.59 1454.1 1655.95 1454.1 M1655.95 1450.39 Q1661.76 1450.39 1664.82 1455 Q1667.9 1459.58 1667.9 1468.33 Q1667.9 1477.06 1664.82 1481.67 Q1661.76 1486.25 1655.95 1486.25 Q1650.14 1486.25 1647.06 1481.67 Q1644.01 1477.06 1644.01 1468.33 Q1644.01 1459.58 1647.06 1455 Q1650.14 1450.39 1655.95 1450.39 Z" fill="#000000" fill-rule="nonzero" fill-opacity="1" /><path clip-path="url(#clip940)" d="M2266.51 1466.95 Q2269.86 1467.66 2271.74 1469.93 Q2273.64 1472.2 2273.64 1475.53 Q2273.64 1480.65 2270.12 1483.45 Q2266.6 1486.25 2260.12 1486.25 Q2257.94 1486.25 2255.63 1485.81 Q2253.34 1485.39 2250.88 1484.54 L2250.88 1480.02 Q2252.83 1481.16 2255.14 1481.74 Q2257.46 1482.32 2259.98 1482.32 Q2264.38 1482.32 2266.67 1480.58 Q2268.98 1478.84 2268.98 1475.53 Q2268.98 1472.48 2266.83 1470.77 Q2264.7 1469.03 2260.88 1469.03 L2256.85 1469.03 L2256.85 1465.19 L2261.07 1465.19 Q2264.52 1465.19 2266.35 1463.82 Q2268.17 1462.43 2268.17 1459.84 Q2268.17 1457.18 2266.28 1455.77 Q2264.4 1454.33 2260.88 1454.33 Q2258.96 1454.33 2256.76 1454.75 Q2254.56 1455.16 2251.92 1456.04 L2251.92 1451.88 Q2254.59 1451.14 2256.9 1450.77 Q2259.24 1450.39 2261.3 1450.39 Q2266.62 1450.39 2269.72 1452.83 Q2272.83 1455.23 2272.83 1459.35 Q2272.83 1462.22 2271.18 1464.21 Q2269.54 1466.18 2266.51 1466.95 Z" fill="#000000" fill-rule="nonzero" fill-opacity="1" /><path clip-path="url(#clip940)" d="M2292.5 1454.1 Q2288.89 1454.1 2287.06 1457.66 Q2285.26 1461.2 2285.26 1468.33 Q2285.26 1475.44 2287.06 1479.01 Q2288.89 1482.55 2292.5 1482.55 Q2296.14 1482.55 2297.94 1479.01 Q2299.77 1475.44 2299.77 1468.33 Q2299.77 1461.2 2297.94 1457.66 Q2296.14 1454.1 2292.5 1454.1 M2292.5 1450.39 Q2298.31 1450.39 2301.37 1455 Q2304.45 1459.58 2304.45 1468.33 Q2304.45 1477.06 2301.37 1481.67 Q2298.31 1486.25 2292.5 1486.25 Q2286.69 1486.25 2283.61 1481.67 Q2280.56 1477.06 2280.56 1468.33 Q2280.56 1459.58 2283.61 1455 Q2286.69 1450.39 2292.5 1450.39 Z" fill="#000000" fill-rule="nonzero" fill-opacity="1" /><path clip-path="url(#clip940)" d="M2322.66 1454.1 Q2319.05 1454.1 2317.22 1457.66 Q2315.42 1461.2 2315.42 1468.33 Q2315.42 1475.44 2317.22 1479.01 Q2319.05 1482.55 2322.66 1482.55 Q2326.3 1482.55 2328.1 1479.01 Q2329.93 1475.44 2329.93 1468.33 Q2329.93 1461.2 2328.1 1457.66 Q2326.3 1454.1 2322.66 1454.1 M2322.66 1450.39 Q2328.47 1450.39 2331.53 1455 Q2334.61 1459.58 2334.61 1468.33 Q2334.61 1477.06 2331.53 1481.67 Q2328.47 1486.25 2322.66 1486.25 Q2316.85 1486.25 2313.78 1481.67 Q2310.72 1477.06 2310.72 1468.33 Q2310.72 1459.58 2313.78 1455 Q2316.85 1450.39 2322.66 1450.39 Z" fill="#000000" fill-rule="nonzero" fill-opacity="1" /><path clip-path="url(#clip940)" d="M1291.63 1522.27 L1291.63 1532.4 L1303.7 1532.4 L1303.7 1536.95 L1291.63 1536.95 L1291.63 1556.3 Q1291.63 1560.66 1292.81 1561.9 Q1294.02 1563.14 1297.68 1563.14 L1303.7 1563.14 L1303.7 1568.04 L1297.68 1568.04 Q1290.9 1568.04 1288.32 1565.53 Q1285.75 1562.98 1285.75 1556.3 L1285.75 1536.95 L1281.45 1536.95 L1281.45 1532.4 L1285.75 1532.4 L1285.75 1522.27 L1291.63 1522.27 Z" fill="#000000" fill-rule="nonzero" fill-opacity="1" /><polyline clip-path="url(#clip942)" style="stroke:#000000; stroke-linecap:round; stroke-linejoin:round; stroke-width:2; stroke-opacity:0.1; fill:none" points="232.389,1384.24 2352.76,1384.24 "/>
<polyline clip-path="url(#clip942)" style="stroke:#000000; stroke-linecap:round; stroke-linejoin:round; stroke-width:2; stroke-opacity:0.1; fill:none" points="232.389,945.615 2352.76,945.615 "/>
<polyline clip-path="url(#clip942)" style="stroke:#000000; stroke-linecap:round; stroke-linejoin:round; stroke-width:2; stroke-opacity:0.1; fill:none" points="232.389,506.991 2352.76,506.991 "/>
<polyline clip-path="url(#clip942)" style="stroke:#000000; stroke-linecap:round; stroke-linejoin:round; stroke-width:2; stroke-opacity:0.1; fill:none" points="232.389,68.3675 2352.76,68.3675 "/>
<polyline clip-path="url(#clip940)" style="stroke:#000000; stroke-linecap:round; stroke-linejoin:round; stroke-width:4; stroke-opacity:1; fill:none" points="232.389,1423.18 232.389,47.2441 "/>
<polyline clip-path="url(#clip940)" style="stroke:#000000; stroke-linecap:round; stroke-linejoin:round; stroke-width:4; stroke-opacity:1; fill:none" points="232.389,1384.24 251.287,1384.24 "/>
<polyline clip-path="url(#clip940)" style="stroke:#000000; stroke-linecap:round; stroke-linejoin:round; stroke-width:4; stroke-opacity:1; fill:none" points="232.389,945.615 251.287,945.615 "/>
<polyline clip-path="url(#clip940)" style="stroke:#000000; stroke-linecap:round; stroke-linejoin:round; stroke-width:4; stroke-opacity:1; fill:none" points="232.389,506.991 251.287,506.991 "/>
<polyline clip-path="url(#clip940)" style="stroke:#000000; stroke-linecap:round; stroke-linejoin:round; stroke-width:4; stroke-opacity:1; fill:none" points="232.389,68.3675 251.287,68.3675 "/>
<path clip-path="url(#clip940)" d="M184.445 1370.04 Q180.834 1370.04 179.005 1373.6 Q177.2 1377.14 177.2 1384.27 Q177.2 1391.38 179.005 1394.94 Q180.834 1398.49 184.445 1398.49 Q188.079 1398.49 189.885 1394.94 Q191.713 1391.38 191.713 1384.27 Q191.713 1377.14 189.885 1373.6 Q188.079 1370.04 184.445 1370.04 M184.445 1366.33 Q190.255 1366.33 193.311 1370.94 Q196.389 1375.52 196.389 1384.27 Q196.389 1393 193.311 1397.61 Q190.255 1402.19 184.445 1402.19 Q178.635 1402.19 175.556 1397.61 Q172.501 1393 172.501 1384.27 Q172.501 1375.52 175.556 1370.94 Q178.635 1366.33 184.445 1366.33 Z" fill="#000000" fill-rule="nonzero" fill-opacity="1" /><path clip-path="url(#clip940)" d="M144.329 928.335 L162.686 928.335 L162.686 932.27 L148.612 932.27 L148.612 940.742 Q149.63 940.395 150.649 940.233 Q151.667 940.048 152.686 940.048 Q158.473 940.048 161.852 943.219 Q165.232 946.39 165.232 951.807 Q165.232 957.385 161.76 960.487 Q158.288 963.566 151.968 963.566 Q149.792 963.566 147.524 963.196 Q145.279 962.825 142.871 962.084 L142.871 957.385 Q144.954 958.52 147.177 959.075 Q149.399 959.631 151.876 959.631 Q155.88 959.631 158.218 957.524 Q160.556 955.418 160.556 951.807 Q160.556 948.196 158.218 946.089 Q155.88 943.983 151.876 943.983 Q150.001 943.983 148.126 944.399 Q146.274 944.816 144.329 945.696 L144.329 928.335 Z" fill="#000000" fill-rule="nonzero" fill-opacity="1" /><path clip-path="url(#clip940)" d="M184.445 931.413 Q180.834 931.413 179.005 934.978 Q177.2 938.52 177.2 945.649 Q177.2 952.756 179.005 956.321 Q180.834 959.862 184.445 959.862 Q188.079 959.862 189.885 956.321 Q191.713 952.756 191.713 945.649 Q191.713 938.52 189.885 934.978 Q188.079 931.413 184.445 931.413 M184.445 927.71 Q190.255 927.71 193.311 932.316 Q196.389 936.899 196.389 945.649 Q196.389 954.376 193.311 958.983 Q190.255 963.566 184.445 963.566 Q178.635 963.566 175.556 958.983 Q172.501 954.376 172.501 945.649 Q172.501 936.899 175.556 932.316 Q178.635 927.71 184.445 927.71 Z" fill="#000000" fill-rule="nonzero" fill-opacity="1" /><path clip-path="url(#clip940)" d="M114.931 520.336 L122.57 520.336 L122.57 493.97 L114.26 495.637 L114.26 491.378 L122.524 489.711 L127.2 489.711 L127.2 520.336 L134.839 520.336 L134.839 524.271 L114.931 524.271 L114.931 520.336 Z" fill="#000000" fill-rule="nonzero" fill-opacity="1" /><path clip-path="url(#clip940)" d="M154.283 492.79 Q150.672 492.79 148.843 496.355 Q147.038 499.896 147.038 507.026 Q147.038 514.132 148.843 517.697 Q150.672 521.239 154.283 521.239 Q157.917 521.239 159.723 517.697 Q161.552 514.132 161.552 507.026 Q161.552 499.896 159.723 496.355 Q157.917 492.79 154.283 492.79 M154.283 489.086 Q160.093 489.086 163.149 493.693 Q166.227 498.276 166.227 507.026 Q166.227 515.753 163.149 520.359 Q160.093 524.942 154.283 524.942 Q148.473 524.942 145.394 520.359 Q142.339 515.753 142.339 507.026 Q142.339 498.276 145.394 493.693 Q148.473 489.086 154.283 489.086 Z" fill="#000000" fill-rule="nonzero" fill-opacity="1" /><path clip-path="url(#clip940)" d="M184.445 492.79 Q180.834 492.79 179.005 496.355 Q177.2 499.896 177.2 507.026 Q177.2 514.132 179.005 517.697 Q180.834 521.239 184.445 521.239 Q188.079 521.239 189.885 517.697 Q191.713 514.132 191.713 507.026 Q191.713 499.896 189.885 496.355 Q188.079 492.79 184.445 492.79 M184.445 489.086 Q190.255 489.086 193.311 493.693 Q196.389 498.276 196.389 507.026 Q196.389 515.753 193.311 520.359 Q190.255 524.942 184.445 524.942 Q178.635 524.942 175.556 520.359 Q172.501 515.753 172.501 507.026 Q172.501 498.276 175.556 493.693 Q178.635 489.086 184.445 489.086 Z" fill="#000000" fill-rule="nonzero" fill-opacity="1" /><path clip-path="url(#clip940)" d="M114.931 81.7123 L122.57 81.7123 L122.57 55.3467 L114.26 57.0134 L114.26 52.7541 L122.524 51.0875 L127.2 51.0875 L127.2 81.7123 L134.839 81.7123 L134.839 85.6475 L114.931 85.6475 L114.931 81.7123 Z" fill="#000000" fill-rule="nonzero" fill-opacity="1" /><path clip-path="url(#clip940)" d="M144.329 51.0875 L162.686 51.0875 L162.686 55.0226 L148.612 55.0226 L148.612 63.4948 Q149.63 63.1476 150.649 62.9855 Q151.667 62.8004 152.686 62.8004 Q158.473 62.8004 161.852 65.9716 Q165.232 69.1429 165.232 74.5596 Q165.232 80.1382 161.76 83.2401 Q158.288 86.3188 151.968 86.3188 Q149.792 86.3188 147.524 85.9484 Q145.279 85.578 142.871 84.8373 L142.871 80.1382 Q144.954 81.2725 147.177 81.828 Q149.399 82.3836 151.876 82.3836 Q155.88 82.3836 158.218 80.2771 Q160.556 78.1706 160.556 74.5596 Q160.556 70.9485 158.218 68.842 Q155.88 66.7355 151.876 66.7355 Q150.001 66.7355 148.126 67.1522 Q146.274 67.5689 144.329 68.4485 L144.329 51.0875 Z" fill="#000000" fill-rule="nonzero" fill-opacity="1" /><path clip-path="url(#clip940)" d="M184.445 54.1661 Q180.834 54.1661 179.005 57.7309 Q177.2 61.2726 177.2 68.4022 Q177.2 75.5086 179.005 79.0734 Q180.834 82.6151 184.445 82.6151 Q188.079 82.6151 189.885 79.0734 Q191.713 75.5086 191.713 68.4022 Q191.713 61.2726 189.885 57.7309 Q188.079 54.1661 184.445 54.1661 M184.445 50.4625 Q190.255 50.4625 193.311 55.0689 Q196.389 59.6522 196.389 68.4022 Q196.389 77.129 193.311 81.7354 Q190.255 86.3188 184.445 86.3188 Q178.635 86.3188 175.556 81.7354 Q172.501 77.129 172.501 68.4022 Q172.501 59.6522 175.556 55.0689 Q178.635 50.4625 184.445 50.4625 Z" fill="#000000" fill-rule="nonzero" fill-opacity="1" /><path clip-path="url(#clip940)" d="M20.8447 948.702 Q20.8447 955.704 26.0645 959.842 Q31.2844 963.948 40.2919 963.948 Q49.2675 963.948 54.4874 959.842 Q59.7073 955.704 59.7073 948.702 Q59.7073 941.7 54.4874 937.626 Q49.2675 933.52 40.2919 933.52 Q31.2844 933.52 26.0645 937.626 Q20.8447 941.7 20.8447 948.702 M15.6248 948.702 Q15.6248 938.708 22.3406 932.724 Q29.0246 926.74 40.2919 926.74 Q51.5274 926.74 58.2432 932.724 Q64.9272 938.708 64.9272 948.702 Q64.9272 958.728 58.2432 964.743 Q51.5592 970.727 40.2919 970.727 Q29.0246 970.727 22.3406 964.743 Q15.6248 958.728 15.6248 948.702 Z" fill="#000000" fill-rule="nonzero" fill-opacity="1" /><path clip-path="url(#clip940)" d="M49.9359 917.542 L28.3562 917.542 L28.3562 911.685 L49.7131 911.685 Q54.7739 911.685 57.3202 909.712 Q59.8346 907.739 59.8346 903.792 Q59.8346 899.049 56.8109 896.312 Q53.7872 893.543 48.5673 893.543 L28.3562 893.543 L28.3562 887.687 L64.0042 887.687 L64.0042 893.543 L58.5296 893.543 Q61.7762 895.676 63.3676 898.508 Q64.9272 901.309 64.9272 905.033 Q64.9272 911.176 61.1078 914.359 Q57.2883 917.542 49.9359 917.542 M27.4968 902.805 L27.4968 902.805 Z" fill="#000000" fill-rule="nonzero" fill-opacity="1" /><path clip-path="url(#clip940)" d="M18.2347 869.831 L28.3562 869.831 L28.3562 857.768 L32.9077 857.768 L32.9077 869.831 L52.2594 869.831 Q56.6199 869.831 57.8613 868.653 Q59.1026 867.444 59.1026 863.783 L59.1026 857.768 L64.0042 857.768 L64.0042 863.783 Q64.0042 870.563 61.4897 873.141 Q58.9434 875.719 52.2594 875.719 L32.9077 875.719 L32.9077 880.016 L28.3562 880.016 L28.3562 875.719 L18.2347 875.719 L18.2347 869.831 Z" fill="#000000" fill-rule="nonzero" fill-opacity="1" /><path clip-path="url(#clip940)" d="M58.657 844.4 L77.5631 844.4 L77.5631 850.288 L28.3562 850.288 L28.3562 844.4 L33.7671 844.4 Q30.5842 842.554 29.0564 839.753 Q27.4968 836.92 27.4968 833.005 Q27.4968 826.512 32.6531 822.47 Q37.8093 818.396 46.212 818.396 Q54.6147 818.396 59.771 822.47 Q64.9272 826.512 64.9272 833.005 Q64.9272 836.92 63.3994 839.753 Q61.8398 842.554 58.657 844.4 M46.212 824.475 Q39.7508 824.475 36.0905 827.149 Q32.3984 829.79 32.3984 834.437 Q32.3984 839.084 36.0905 841.758 Q39.7508 844.4 46.212 844.4 Q52.6732 844.4 56.3653 841.758 Q60.0256 839.084 60.0256 834.437 Q60.0256 829.79 56.3653 827.149 Q52.6732 824.475 46.212 824.475 Z" fill="#000000" fill-rule="nonzero" fill-opacity="1" /><path clip-path="url(#clip940)" d="M49.9359 809.293 L28.3562 809.293 L28.3562 803.436 L49.7131 803.436 Q54.7739 803.436 57.3202 801.463 Q59.8346 799.49 59.8346 795.543 Q59.8346 790.801 56.8109 788.063 Q53.7872 785.294 48.5673 785.294 L28.3562 785.294 L28.3562 779.438 L64.0042 779.438 L64.0042 785.294 L58.5296 785.294 Q61.7762 787.427 63.3676 790.259 Q64.9272 793.06 64.9272 796.784 Q64.9272 802.927 61.1078 806.11 Q57.2883 809.293 49.9359 809.293 M27.4968 794.556 L27.4968 794.556 Z" fill="#000000" fill-rule="nonzero" fill-opacity="1" /><path clip-path="url(#clip940)" d="M18.2347 761.582 L28.3562 761.582 L28.3562 749.519 L32.9077 749.519 L32.9077 761.582 L52.2594 761.582 Q56.6199 761.582 57.8613 760.404 Q59.1026 759.195 59.1026 755.534 L59.1026 749.519 L64.0042 749.519 L64.0042 755.534 Q64.0042 762.314 61.4897 764.892 Q58.9434 767.47 52.2594 767.47 L32.9077 767.47 L32.9077 771.767 L28.3562 771.767 L28.3562 767.47 L18.2347 767.47 L18.2347 761.582 Z" fill="#000000" fill-rule="nonzero" fill-opacity="1" /><path clip-path="url(#clip940)" d="M21.7677 735.132 L39.6235 735.132 L39.6235 727.048 Q39.6235 722.56 37.3 720.109 Q34.9765 717.659 30.6797 717.659 Q26.4147 717.659 24.0912 720.109 Q21.7677 722.56 21.7677 727.048 L21.7677 735.132 M16.4842 741.562 L16.4842 727.048 Q16.4842 719.059 20.1126 714.985 Q23.7092 710.879 30.6797 710.879 Q37.7138 710.879 41.3104 714.985 Q44.907 719.059 44.907 727.048 L44.907 735.132 L64.0042 735.132 L64.0042 741.562 L16.4842 741.562 Z" fill="#000000" fill-rule="nonzero" fill-opacity="1" /><path clip-path="url(#clip940)" d="M32.4621 691.018 Q32.4621 695.729 36.1542 698.466 Q39.8145 701.203 46.212 701.203 Q52.6095 701.203 56.3017 698.498 Q59.9619 695.761 59.9619 691.018 Q59.9619 686.339 56.2698 683.602 Q52.5777 680.865 46.212 680.865 Q39.8781 680.865 36.186 683.602 Q32.4621 686.339 32.4621 691.018 M27.4968 691.018 Q27.4968 683.379 32.4621 679.019 Q37.4273 674.658 46.212 674.658 Q54.9649 674.658 59.9619 679.019 Q64.9272 683.379 64.9272 691.018 Q64.9272 698.689 59.9619 703.049 Q54.9649 707.378 46.212 707.378 Q37.4273 707.378 32.4621 703.049 Q27.4968 698.689 27.4968 691.018 Z" fill="#000000" fill-rule="nonzero" fill-opacity="1" /><path clip-path="url(#clip940)" d="M29.4065 642.225 L34.9447 642.225 Q33.6716 644.708 33.035 647.381 Q32.3984 650.055 32.3984 652.919 Q32.3984 657.28 33.7352 659.476 Q35.072 661.64 37.7456 661.64 Q39.7826 661.64 40.9603 660.081 Q42.1061 658.521 43.1565 653.81 L43.6021 651.805 Q44.9389 645.567 47.3897 642.957 Q49.8086 640.315 54.1691 640.315 Q59.1344 640.315 62.0308 644.262 Q64.9272 648.177 64.9272 655.052 Q64.9272 657.916 64.3543 661.036 Q63.8132 664.123 62.6992 667.56 L56.6518 667.56 Q58.3387 664.314 59.198 661.163 Q60.0256 658.012 60.0256 654.924 Q60.0256 650.787 58.6251 648.559 Q57.1929 646.331 54.6147 646.331 Q52.2276 646.331 50.9545 647.954 Q49.6813 649.545 48.5037 654.988 L48.0262 657.025 Q46.8804 662.468 44.5251 664.887 Q42.138 667.306 38.0002 667.306 Q32.9713 667.306 30.2341 663.741 Q27.4968 660.176 27.4968 653.62 Q27.4968 650.373 27.9743 647.508 Q28.4517 644.644 29.4065 642.225 Z" fill="#000000" fill-rule="nonzero" fill-opacity="1" /><path clip-path="url(#clip940)" d="M28.3562 630.989 L28.3562 625.133 L64.0042 625.133 L64.0042 630.989 L28.3562 630.989 M14.479 630.989 L14.479 625.133 L21.895 625.133 L21.895 630.989 L14.479 630.989 Z" fill="#000000" fill-rule="nonzero" fill-opacity="1" /><path clip-path="url(#clip940)" d="M18.2347 607.086 L28.3562 607.086 L28.3562 595.023 L32.9077 595.023 L32.9077 607.086 L52.2594 607.086 Q56.6199 607.086 57.8613 605.909 Q59.1026 604.699 59.1026 601.039 L59.1026 595.023 L64.0042 595.023 L64.0042 601.039 Q64.0042 607.818 61.4897 610.396 Q58.9434 612.974 52.2594 612.974 L32.9077 612.974 L32.9077 617.271 L28.3562 617.271 L28.3562 612.974 L18.2347 612.974 L18.2347 607.086 Z" fill="#000000" fill-rule="nonzero" fill-opacity="1" /><path clip-path="url(#clip940)" d="M28.3562 587.321 L28.3562 581.464 L64.0042 581.464 L64.0042 587.321 L28.3562 587.321 M14.479 587.321 L14.479 581.464 L21.895 581.464 L21.895 587.321 L14.479 587.321 Z" fill="#000000" fill-rule="nonzero" fill-opacity="1" /><path clip-path="url(#clip940)" d="M32.4621 555.397 Q32.4621 560.107 36.1542 562.845 Q39.8145 565.582 46.212 565.582 Q52.6095 565.582 56.3017 562.876 Q59.9619 560.139 59.9619 555.397 Q59.9619 550.718 56.2698 547.981 Q52.5777 545.243 46.212 545.243 Q39.8781 545.243 36.186 547.981 Q32.4621 550.718 32.4621 555.397 M27.4968 555.397 Q27.4968 547.758 32.4621 543.397 Q37.4273 539.037 46.212 539.037 Q54.9649 539.037 59.9619 543.397 Q64.9272 547.758 64.9272 555.397 Q64.9272 563.067 59.9619 567.428 Q54.9649 571.757 46.212 571.757 Q37.4273 571.757 32.4621 567.428 Q27.4968 563.067 27.4968 555.397 Z" fill="#000000" fill-rule="nonzero" fill-opacity="1" /><path clip-path="url(#clip940)" d="M42.4881 499.697 L64.0042 499.697 L64.0042 505.553 L42.679 505.553 Q37.6183 505.553 35.1038 507.527 Q32.5894 509.5 32.5894 513.447 Q32.5894 518.189 35.6131 520.926 Q38.6368 523.664 43.8567 523.664 L64.0042 523.664 L64.0042 529.552 L28.3562 529.552 L28.3562 523.664 L33.8944 523.664 Q30.6797 521.563 29.0883 518.73 Q27.4968 515.866 27.4968 512.142 Q27.4968 505.999 31.3163 502.848 Q35.1038 499.697 42.4881 499.697 Z" fill="#000000" fill-rule="nonzero" fill-opacity="1" /><polyline clip-path="url(#clip942)" style="stroke:#009af9; stroke-linecap:round; stroke-linejoin:round; stroke-width:4; stroke-opacity:1; fill:none" points="292.4,1384.24 299.068,1375.47 305.735,1366.69 312.403,1357.92 319.071,1349.15 325.739,1340.38 332.407,1331.62 339.074,1322.85 345.742,1314.09 352.41,1305.33 359.078,1296.58 365.746,1287.83 372.414,1279.08 379.081,1270.34 385.749,1261.61 392.417,1252.88 399.085,1244.15 405.753,1235.43 412.42,1226.72 419.088,1218.02 425.756,1209.32 432.424,1200.63 439.092,1191.95 445.76,1183.28 452.427,1174.62 459.095,1165.97 465.763,1157.32 472.431,1148.69 479.099,1140.07 485.766,1131.46 492.434,1122.86 499.102,1114.27 505.77,1105.7 512.438,1097.14 519.106,1088.59 525.773,1080.05 532.441,1071.53 539.109,1063.03 545.777,1054.53 552.445,1046.06 559.112,1037.59 565.78,1029.15 572.448,1020.72 579.116,1012.31 585.784,1003.91 592.452,995.531 599.119,987.17 605.787,978.827 612.455,970.503 619.123,962.197 625.791,953.911 632.459,945.645 639.126,937.398 645.794,929.172 652.462,920.967 659.13,912.782 665.798,904.62 672.465,896.479 679.133,888.361 685.801,880.265 692.469,872.192 699.137,864.143 705.805,856.117 712.472,848.115 719.14,840.138 725.808,832.186 732.476,824.259 739.144,816.358 745.811,808.482 752.479,800.633 759.147,792.811 765.815,785.015 772.483,777.247 779.151,769.507 785.818,761.794 792.486,754.11 799.154,746.455 805.822,738.829 812.49,731.233 819.157,723.666 825.825,716.129 832.493,708.623 839.161,701.148 845.829,693.704 852.497,686.292 859.164,678.911 865.832,671.563 872.5,664.247 879.168,656.964 885.836,649.715 892.503,642.499 899.171,635.316 905.839,628.168 912.507,621.055 919.175,613.976 925.843,606.933 932.51,599.925 939.178,592.953 945.846,586.017 952.514,579.117 959.182,572.254 965.849,565.429 972.517,558.64 979.185,551.89 985.853,545.177 992.521,538.503 999.189,531.867 1005.86,525.271 1012.52,518.713 1019.19,512.195 1025.86,505.717 1032.53,499.279 1039.2,492.882 1045.86,486.525 1052.53,480.209 1059.2,473.934 1065.87,467.701 1072.53,461.51 1079.2,455.361 1085.87,449.255 1092.54,443.191 1099.21,437.17 1105.87,431.193 1112.54,425.258 1119.21,419.368 1125.88,413.522 1132.54,407.72 1139.21,401.963 1145.88,396.25 1152.55,390.583 1159.22,384.961 1165.88,379.385 1172.55,373.855 1179.22,368.37 1185.89,362.933 1192.56,357.541 1199.22,352.197 1205.89,346.9 1212.56,341.65 1219.23,336.448 1225.89,331.294 1232.56,326.188 1239.23,321.13 1245.9,316.12 1252.57,311.16 1259.23,306.248 1265.9,301.386 1272.57,296.573 1279.24,291.81 1285.9,287.097 1292.57,282.434 1299.24,277.821 1305.91,273.259 1312.58,268.747 1319.24,264.286 1325.91,259.877 1332.58,255.519 1339.25,251.212 1345.92,246.957 1352.58,242.755 1359.25,238.604 1365.92,234.506 1372.59,230.46 1379.25,226.466 1385.92,222.526 1392.59,218.639 1399.26,214.805 1405.93,211.024 1412.59,207.297 1419.26,203.624 1425.93,200.005 1432.6,196.439 1439.26,192.928 1445.93,189.472 1452.6,186.07 1459.27,182.723 1465.94,179.43 1472.6,176.193 1479.27,173.01 1485.94,169.884 1492.61,166.812 1499.28,163.796 1505.94,160.836 1512.61,157.932 1519.28,155.084 1525.95,152.292 1532.61,149.556 1539.28,146.877 1545.95,144.254 1552.62,141.687 1559.29,139.178 1565.95,136.725 1572.62,134.33 1579.29,131.991 1585.96,129.71 1592.62,127.486 1599.29,125.319 1605.96,123.21 1612.63,121.158 1619.3,119.164 1625.96,117.228 1632.63,115.35 1639.3,113.53 1645.97,111.767 1652.63,110.063 1659.3,108.417 1665.97,106.829 1672.64,105.3 1679.31,103.829 1685.97,102.417 1692.64,101.063 1699.31,99.7676 1705.98,98.531 1712.65,97.3531 1719.31,96.234 1725.98,95.1737 1732.65,94.1723 1739.32,93.2298 1745.98,92.3462 1752.65,91.5217 1759.32,90.7562 1765.99,90.0498 1772.66,89.4025 1779.32,88.8143 1785.99,88.2853 1792.66,87.8155 1799.33,87.4049 1805.99,87.0536 1812.66,86.7615 1819.33,86.5286 1826,86.355 1832.67,86.2407 1839.33,86.1857 1846,86.1899 1852.67,86.2535 1859.34,86.3763 1866.01,86.5584 1872.67,86.7998 1879.34,87.1004 1886.01,87.4603 1892.68,87.8794 1899.34,88.3577 1906.01,88.8952 1912.68,89.4919 1919.35,90.1477 1926.02,90.8626 1932.68,91.6366 1939.35,92.4696 1946.02,93.3616 1952.69,94.3126 1959.35,95.3225 1966.02,96.3912 1972.69,97.5188 1979.36,98.7051 1986.03,99.9502 1992.69,101.254 1999.36,102.616 2006.03,104.037 2012.7,105.516 2019.36,107.054 2026.03,108.65 2032.7,110.305 2039.37,112.017 2046.04,113.788 2052.7,115.616 2059.37,117.503 2066.04,119.447 2072.71,121.449 2079.38,123.509 2086.04,125.627 2092.71,127.802 2099.38,130.034 2106.05,132.324 2112.71,134.67 2119.38,137.074 2126.05,139.535 2132.72,142.053 2139.39,144.627 2146.05,147.258 2152.72,149.946 2159.39,152.69 2166.06,155.49 2172.72,158.346 2179.39,161.258 2186.06,164.226 2192.73,167.25 2199.4,170.33 2206.06,173.464 2212.73,176.655 2219.4,179.9 2226.07,183.2 2232.74,186.555 2239.4,189.965 2246.07,193.43 2252.74,196.949 2259.41,200.522 2266.07,204.149 2272.74,207.83 2279.41,211.564 2286.08,215.353 2292.75,219.194 "/>
<polyline clip-path="url(#clip942)" style="stroke:#e26f46; stroke-linecap:round; stroke-linejoin:round; stroke-width:4; stroke-opacity:1; fill:none" points="292.4,1384.24 299.068,1375.47 305.735,1366.69 312.403,1357.92 319.071,1349.15 325.739,1340.38 332.407,1331.62 339.074,1322.85 345.742,1314.09 352.41,1305.33 359.078,1296.58 365.746,1287.83 372.414,1279.08 379.081,1270.34 385.749,1261.61 392.417,1252.88 399.085,1244.15 405.753,1235.43 412.42,1226.72 419.088,1218.02 425.756,1209.32 432.424,1200.63 439.092,1191.95 445.76,1183.28 452.427,1174.62 459.095,1165.97 465.763,1157.32 472.431,1148.69 479.099,1140.07 485.766,1131.46 492.434,1122.86 499.102,1114.27 505.77,1105.7 512.438,1097.14 519.106,1088.59 525.773,1080.05 532.441,1071.53 539.109,1063.03 545.777,1054.53 552.445,1046.06 559.112,1037.59 565.78,1029.15 572.448,1020.72 579.116,1012.31 585.784,1003.91 592.452,995.531 599.119,987.17 605.787,978.827 612.455,970.503 619.123,962.197 625.791,953.911 632.459,945.645 639.126,937.398 639.126,1376.02 645.794,1367.8 652.462,1359.57 659.13,1351.35 665.798,1343.12 672.465,1334.9 679.133,1326.68 685.801,1318.47 692.469,1310.25 699.137,1302.05 705.805,1293.84 712.472,1285.64 719.14,1277.44 725.808,1269.25 732.476,1261.06 739.144,1252.88 745.811,1244.7 752.479,1236.54 759.147,1228.37 765.815,1220.22 772.483,1212.07 779.151,1203.93 785.818,1195.8 792.486,1187.68 799.154,1179.56 805.822,1171.46 812.49,1163.36 819.157,1155.28 825.825,1147.2 832.493,1139.14 839.161,1131.09 845.829,1123.05 852.497,1115.02 859.164,1107 865.832,1099 872.5,1091 879.168,1083.03 885.836,1075.06 892.503,1067.11 899.171,1059.18 905.839,1051.26 912.507,1043.35 919.175,1035.46 925.843,1027.59 932.51,1019.73 939.178,1011.89 945.846,1004.07 952.514,996.262 959.182,988.474 965.849,980.703 972.517,972.951 979.185,965.218 985.853,957.503 992.521,949.809 999.189,942.134 999.189,1380.76 1005.86,1373.1 1012.52,1365.45 1019.19,1357.8 1025.86,1350.14 1032.53,1342.49 1039.2,1334.84 1045.86,1327.2 1052.53,1319.55 1059.2,1311.91 1065.87,1304.28 1072.53,1296.64 1079.2,1289.01 1085.87,1281.39 1092.54,1273.77 1099.21,1266.15 1105.87,1258.54 1112.54,1250.94 1119.21,1243.34 1125.88,1235.74 1132.54,1228.16 1139.21,1220.58 1145.88,1213.01 1152.55,1205.45 1159.22,1197.89 1165.88,1190.35 1172.55,1182.81 1179.22,1175.28 1185.89,1167.76 1192.56,1160.25 1199.22,1152.76 1205.89,1145.27 1212.56,1137.79 1219.23,1130.32 1225.89,1122.87 1232.56,1115.43 1239.23,1108 1245.9,1100.58 1252.57,1093.18 1259.23,1085.79 1265.9,1078.41 1272.57,1071.05 1279.24,1063.7 1285.9,1056.36 1292.57,1049.04 1299.24,1041.74 1305.91,1034.45 1312.58,1027.18 1319.24,1019.92 1325.91,1012.68 1332.58,1005.46 1339.25,998.252 1345.92,991.065 1352.58,983.895 1359.25,976.743 1365.92,969.61 1372.59,962.496 1379.25,955.402 1385.92,948.327 1392.59,941.271 1392.59,1379.89 1399.26,1372.86 1405.93,1365.83 1412.59,1358.79 1419.26,1351.76 1425.93,1344.73 1432.6,1337.7 1439.26,1330.67 1445.93,1323.65 1452.6,1316.63 1459.27,1309.61 1465.94,1302.59 1472.6,1295.58 1479.27,1288.57 1485.94,1281.57 1492.61,1274.57 1499.28,1267.58 1505.94,1260.59 1512.61,1253.61 1519.28,1246.63 1525.95,1239.66 1532.61,1232.7 1539.28,1225.74 1545.95,1218.79 1552.62,1211.85 1559.29,1204.91 1565.95,1197.99 1572.62,1191.07 1579.29,1184.16 1585.96,1177.26 1592.62,1170.37 1599.29,1163.49 1605.96,1156.62 1612.63,1149.76 1619.3,1142.91 1625.96,1136.08 1632.63,1129.25 1639.3,1122.43 1645.97,1115.63 1652.63,1108.84 1659.3,1102.06 1665.97,1095.3 1672.64,1088.54 1679.31,1081.81 1685.97,1075.08 1692.64,1068.37 1699.31,1061.67 1705.98,1054.99 1712.65,1048.33 1719.31,1041.68 1725.98,1035.04 1732.65,1028.42 1739.32,1021.82 1745.98,1015.23 1752.65,1008.66 1759.32,1002.11 1765.99,995.572 1772.66,989.055 1779.32,982.555 1785.99,976.074 1792.66,969.612 1799.33,963.168 1805.99,956.744 1812.66,950.339 1819.33,943.954 1819.33,1382.58 1826,1376.21 1832.67,1369.85 1839.33,1363.48 1846,1357.12 1852.67,1350.76 1859.34,1344.4 1866.01,1338.04 1872.67,1331.69 1879.34,1325.33 1886.01,1318.98 1892.68,1312.63 1899.34,1306.29 1906.01,1299.95 1912.68,1293.61 1919.35,1287.28 1926.02,1280.95 1932.68,1274.62 1939.35,1268.3 1946.02,1261.99 1952.69,1255.68 1959.35,1249.38 1966.02,1243.08 1972.69,1236.79 1979.36,1230.51 1986.03,1224.23 1992.69,1217.96 1999.36,1211.7 2006.03,1205.45 2012.7,1199.21 2019.36,1192.97 2026.03,1186.74 2032.7,1180.52 2039.37,1174.31 2046.04,1168.11 2052.7,1161.92 2059.37,1155.74 2066.04,1149.57 2072.71,1143.41 2079.38,1137.27 2086.04,1131.13 2092.71,1125 2099.38,1118.89 2106.05,1112.79 2112.71,1106.7 2119.38,1100.63 2126.05,1094.56 2132.72,1088.51 2139.39,1082.48 2146.05,1076.45 2152.72,1070.45 2159.39,1064.45 2166.06,1058.47 2172.72,1052.51 2179.39,1046.56 2186.06,1040.62 2192.73,1034.71 2199.4,1028.8 2206.06,1022.92 2212.73,1017.05 2219.4,1011.2 2226.07,1005.36 2232.74,999.541 2239.4,993.74 2246.07,987.957 2252.74,982.192 2259.41,976.445 2266.07,970.717 2272.74,965.008 2279.41,959.318 2286.08,953.647 2292.75,947.996 "/>
<polyline clip-path="url(#clip942)" style="stroke:#3da44d; stroke-linecap:round; stroke-linejoin:round; stroke-width:4; stroke-opacity:1; fill:none" points="292.4,1384.24 299.068,1375.47 305.735,1366.69 312.403,1357.92 319.071,1349.15 325.739,1340.38 332.407,1331.62 339.074,1322.85 345.742,1314.09 352.41,1305.33 359.078,1296.58 365.746,1287.83 372.414,1279.08 379.081,1270.34 385.749,1261.61 392.417,1252.88 399.085,1244.15 405.753,1235.43 412.42,1226.72 419.088,1218.02 425.756,1209.32 432.424,1200.63 439.092,1191.95 445.76,1183.28 452.427,1174.62 459.095,1165.97 465.763,1157.32 472.431,1148.69 479.099,1140.07 485.766,1131.46 492.434,1122.86 499.102,1114.27 505.77,1105.7 512.438,1097.14 519.106,1088.59 525.773,1080.05 532.441,1071.53 539.109,1063.03 545.777,1054.53 552.445,1046.06 559.112,1037.59 565.78,1029.15 572.448,1020.72 579.116,1012.31 585.784,1003.91 592.452,995.531 599.119,987.17 605.787,978.827 612.455,970.503 619.123,962.197 625.791,953.911 632.459,945.645 639.126,937.398 639.126,1376.02 645.794,1367.8 652.462,1359.57 659.13,1351.35 665.798,1343.12 672.465,1334.9 679.133,1326.68 685.801,1318.47 692.469,1310.25 699.137,1302.05 705.805,1293.84 712.472,1285.64 719.14,1277.44 725.808,1269.25 732.476,1261.06 739.144,1252.88 745.811,1244.7 752.479,1236.54 759.147,1228.37 765.815,1220.22 772.483,1212.07 779.151,1203.93 785.818,1195.8 792.486,1187.68 799.154,1179.56 805.822,1171.46 812.49,1163.36 819.157,1155.28 825.825,1147.2 832.493,1139.14 839.161,1131.09 845.829,1123.05 852.497,1115.02 859.164,1107 865.832,1099 872.5,1091 879.168,1083.03 885.836,1075.06 892.503,1067.11 899.171,1059.18 905.839,1051.26 912.507,1043.35 919.175,1035.46 925.843,1027.59 932.51,1019.73 939.178,1011.89 945.846,1004.07 952.514,996.262 959.182,988.474 965.849,980.703 "/>
</svg>
