<?xml version="1.0" encoding="utf-8"?>
<svg xmlns="http://www.w3.org/2000/svg" xmlns:xlink="http://www.w3.org/1999/xlink" width="600" height="400" viewBox="0 0 2400 1600">
<defs>
  <clipPath id="clip000">
    <rect x="0" y="0" width="2400" height="1600"/>
  </clipPath>
</defs>
<path clip-path="url(#clip000)" d="M0 1600 L2400 1600 L2400 8.88178e-14 L0 8.88178e-14  Z" fill="#ffffff" fill-rule="evenodd" fill-opacity="1"/>
<defs>
  <clipPath id="clip001">
    <rect x="480" y="0" width="1681" height="1600"/>
  </clipPath>
</defs>
<path clip-path="url(#clip000)" d="M174.149 1423.18 L2352.76 1423.18 L2352.76 47.2441 L174.149 47.2441  Z" fill="#ffffff" fill-rule="evenodd" fill-opacity="1"/>
<defs>
  <clipPath id="clip002">
    <rect x="174" y="47" width="2180" height="1377"/>
  </clipPath>
</defs>
<polyline clip-path="url(#clip002)" style="stroke:#000000; stroke-linecap:round; stroke-linejoin:round; stroke-width:2; stroke-opacity:0.1; fill:none" points="235.808,1423.18 235.808,47.2441 "/>
<polyline clip-path="url(#clip002)" style="stroke:#000000; stroke-linecap:round; stroke-linejoin:round; stroke-width:2; stroke-opacity:0.1; fill:none" points="646.866,1423.18 646.866,47.2441 "/>
<polyline clip-path="url(#clip002)" style="stroke:#000000; stroke-linecap:round; stroke-linejoin:round; stroke-width:2; stroke-opacity:0.1; fill:none" points="1057.92,1423.18 1057.92,47.2441 "/>
<polyline clip-path="url(#clip002)" style="stroke:#000000; stroke-linecap:round; stroke-linejoin:round; stroke-width:2; stroke-opacity:0.1; fill:none" points="1468.98,1423.18 1468.98,47.2441 "/>
<polyline clip-path="url(#clip002)" style="stroke:#000000; stroke-linecap:round; stroke-linejoin:round; stroke-width:2; stroke-opacity:0.1; fill:none" points="1880.04,1423.18 1880.04,47.2441 "/>
<polyline clip-path="url(#clip002)" style="stroke:#000000; stroke-linecap:round; stroke-linejoin:round; stroke-width:2; stroke-opacity:0.1; fill:none" points="2291.1,1423.18 2291.1,47.2441 "/>
<polyline clip-path="url(#clip000)" style="stroke:#000000; stroke-linecap:round; stroke-linejoin:round; stroke-width:4; stroke-opacity:1; fill:none" points="174.149,1423.18 2352.76,1423.18 "/>
<polyline clip-path="url(#clip000)" style="stroke:#000000; stroke-linecap:round; stroke-linejoin:round; stroke-width:4; stroke-opacity:1; fill:none" points="235.808,1423.18 235.808,1404.28 "/>
<polyline clip-path="url(#clip000)" style="stroke:#000000; stroke-linecap:round; stroke-linejoin:round; stroke-width:4; stroke-opacity:1; fill:none" points="646.866,1423.18 646.866,1404.28 "/>
<polyline clip-path="url(#clip000)" style="stroke:#000000; stroke-linecap:round; stroke-linejoin:round; stroke-width:4; stroke-opacity:1; fill:none" points="1057.92,1423.18 1057.92,1404.28 "/>
<polyline clip-path="url(#clip000)" style="stroke:#000000; stroke-linecap:round; stroke-linejoin:round; stroke-width:4; stroke-opacity:1; fill:none" points="1468.98,1423.18 1468.98,1404.28 "/>
<polyline clip-path="url(#clip000)" style="stroke:#000000; stroke-linecap:round; stroke-linejoin:round; stroke-width:4; stroke-opacity:1; fill:none" points="1880.04,1423.18 1880.04,1404.28 "/>
<polyline clip-path="url(#clip000)" style="stroke:#000000; stroke-linecap:round; stroke-linejoin:round; stroke-width:4; stroke-opacity:1; fill:none" points="2291.1,1423.18 2291.1,1404.28 "/>
<path clip-path="url(#clip000)" d="M235.808 1454.1 Q232.197 1454.1 230.368 1457.66 Q228.562 1461.2 228.562 1468.33 Q228.562 1475.44 230.368 1479.01 Q232.197 1482.55 235.808 1482.55 Q239.442 1482.55 241.247 1479.01 Q243.076 1475.44 243.076 1468.33 Q243.076 1461.2 241.247 1457.66 Q239.442 1454.1 235.808 1454.1 M235.808 1450.39 Q241.618 1450.39 244.673 1455 Q247.752 1459.58 247.752 1468.33 Q247.752 1477.06 244.673 1481.67 Q241.618 1486.25 235.808 1486.25 Q229.997 1486.25 226.919 1481.67 Q223.863 1477.06 223.863 1468.33 Q223.863 1459.58 226.919 1455 Q229.997 1450.39 235.808 1450.39 Z" fill="#000000" fill-rule="nonzero" fill-opacity="1" /><path clip-path="url(#clip000)" d="M637.248 1481.64 L644.886 1481.64 L644.886 1455.28 L636.576 1456.95 L636.576 1452.69 L644.84 1451.02 L649.516 1451.02 L649.516 1481.64 L657.155 1481.64 L657.155 1485.58 L637.248 1485.58 L637.248 1481.64 Z" fill="#000000" fill-rule="nonzero" fill-opacity="1" /><path clip-path="url(#clip000)" d="M1052.58 1481.64 L1068.9 1481.64 L1068.9 1485.58 L1046.95 1485.58 L1046.95 1481.64 Q1049.61 1478.89 1054.2 1474.26 Q1058.8 1469.61 1059.98 1468.27 Q1062.23 1465.74 1063.11 1464.01 Q1064.01 1462.25 1064.01 1460.56 Q1064.01 1457.8 1062.07 1456.07 Q1060.15 1454.33 1057.04 1454.33 Q1054.84 1454.33 1052.39 1455.09 Q1049.96 1455.86 1047.18 1457.41 L1047.18 1452.69 Q1050.01 1451.55 1052.46 1450.97 Q1054.91 1450.39 1056.95 1450.39 Q1062.32 1450.39 1065.52 1453.08 Q1068.71 1455.77 1068.71 1460.26 Q1068.71 1462.39 1067.9 1464.31 Q1067.11 1466.2 1065.01 1468.8 Q1064.43 1469.47 1061.33 1472.69 Q1058.22 1475.88 1052.58 1481.64 Z" fill="#000000" fill-rule="nonzero" fill-opacity="1" /><path clip-path="url(#clip000)" d="M1473.23 1466.95 Q1476.59 1467.66 1478.46 1469.93 Q1480.36 1472.2 1480.36 1475.53 Q1480.36 1480.65 1476.84 1483.45 Q1473.32 1486.25 1466.84 1486.25 Q1464.66 1486.25 1462.35 1485.81 Q1460.06 1485.39 1457.6 1484.54 L1457.6 1480.02 Q1459.55 1481.16 1461.86 1481.74 Q1464.18 1482.32 1466.7 1482.32 Q1471.1 1482.32 1473.39 1480.58 Q1475.71 1478.84 1475.71 1475.53 Q1475.71 1472.48 1473.55 1470.77 Q1471.42 1469.03 1467.6 1469.03 L1463.58 1469.03 L1463.58 1465.19 L1467.79 1465.19 Q1471.24 1465.19 1473.07 1463.82 Q1474.9 1462.43 1474.9 1459.84 Q1474.9 1457.18 1473 1455.77 Q1471.12 1454.33 1467.6 1454.33 Q1465.68 1454.33 1463.48 1454.75 Q1461.28 1455.16 1458.65 1456.04 L1458.65 1451.88 Q1461.31 1451.14 1463.62 1450.77 Q1465.96 1450.39 1468.02 1450.39 Q1473.34 1450.39 1476.45 1452.83 Q1479.55 1455.23 1479.55 1459.35 Q1479.55 1462.22 1477.9 1464.21 Q1476.26 1466.18 1473.23 1466.95 Z" fill="#000000" fill-rule="nonzero" fill-opacity="1" /><path clip-path="url(#clip000)" d="M1883.05 1455.09 L1871.24 1473.54 L1883.05 1473.54 L1883.05 1455.09 M1881.82 1451.02 L1887.7 1451.02 L1887.7 1473.54 L1892.63 1473.54 L1892.63 1477.43 L1887.7 1477.43 L1887.7 1485.58 L1883.05 1485.58 L1883.05 1477.43 L1867.45 1477.43 L1867.45 1472.92 L1881.82 1451.02 Z" fill="#000000" fill-rule="nonzero" fill-opacity="1" /><path clip-path="url(#clip000)" d="M2281.38 1451.02 L2299.73 1451.02 L2299.73 1454.96 L2285.66 1454.96 L2285.66 1463.43 Q2286.68 1463.08 2287.69 1462.92 Q2288.71 1462.73 2289.73 1462.73 Q2295.52 1462.73 2298.9 1465.9 Q2302.28 1469.08 2302.28 1474.49 Q2302.28 1480.07 2298.81 1483.17 Q2295.33 1486.25 2289.01 1486.25 Q2286.84 1486.25 2284.57 1485.88 Q2282.32 1485.51 2279.92 1484.77 L2279.92 1480.07 Q2282 1481.2 2284.22 1481.76 Q2286.44 1482.32 2288.92 1482.32 Q2292.93 1482.32 2295.26 1480.21 Q2297.6 1478.1 2297.6 1474.49 Q2297.6 1470.88 2295.26 1468.77 Q2292.93 1466.67 2288.92 1466.67 Q2287.05 1466.67 2285.17 1467.08 Q2283.32 1467.5 2281.38 1468.38 L2281.38 1451.02 Z" fill="#000000" fill-rule="nonzero" fill-opacity="1" /><path clip-path="url(#clip000)" d="M1262.51 1522.27 L1262.51 1532.4 L1274.58 1532.4 L1274.58 1536.95 L1262.51 1536.95 L1262.51 1556.3 Q1262.51 1560.66 1263.69 1561.9 Q1264.9 1563.14 1268.56 1563.14 L1274.58 1563.14 L1274.58 1568.04 L1268.56 1568.04 Q1261.78 1568.04 1259.2 1565.53 Q1256.63 1562.98 1256.63 1556.3 L1256.63 1536.95 L1252.33 1536.95 L1252.33 1532.4 L1256.63 1532.4 L1256.63 1522.27 L1262.51 1522.27 Z" fill="#000000" fill-rule="nonzero" fill-opacity="1" /><polyline clip-path="url(#clip002)" style="stroke:#000000; stroke-linecap:round; stroke-linejoin:round; stroke-width:2; stroke-opacity:0.1; fill:none" points="174.149,1183.26 2352.76,1183.26 "/>
<polyline clip-path="url(#clip002)" style="stroke:#000000; stroke-linecap:round; stroke-linejoin:round; stroke-width:2; stroke-opacity:0.1; fill:none" points="174.149,836.776 2352.76,836.776 "/>
<polyline clip-path="url(#clip002)" style="stroke:#000000; stroke-linecap:round; stroke-linejoin:round; stroke-width:2; stroke-opacity:0.1; fill:none" points="174.149,490.294 2352.76,490.294 "/>
<polyline clip-path="url(#clip002)" style="stroke:#000000; stroke-linecap:round; stroke-linejoin:round; stroke-width:2; stroke-opacity:0.1; fill:none" points="174.149,143.812 2352.76,143.812 "/>
<polyline clip-path="url(#clip000)" style="stroke:#000000; stroke-linecap:round; stroke-linejoin:round; stroke-width:4; stroke-opacity:1; fill:none" points="174.149,1423.18 174.149,47.2441 "/>
<polyline clip-path="url(#clip000)" style="stroke:#000000; stroke-linecap:round; stroke-linejoin:round; stroke-width:4; stroke-opacity:1; fill:none" points="174.149,1183.26 193.047,1183.26 "/>
<polyline clip-path="url(#clip000)" style="stroke:#000000; stroke-linecap:round; stroke-linejoin:round; stroke-width:4; stroke-opacity:1; fill:none" points="174.149,836.776 193.047,836.776 "/>
<polyline clip-path="url(#clip000)" style="stroke:#000000; stroke-linecap:round; stroke-linejoin:round; stroke-width:4; stroke-opacity:1; fill:none" points="174.149,490.294 193.047,490.294 "/>
<polyline clip-path="url(#clip000)" style="stroke:#000000; stroke-linecap:round; stroke-linejoin:round; stroke-width:4; stroke-opacity:1; fill:none" points="174.149,143.812 193.047,143.812 "/>
<path clip-path="url(#clip000)" d="M126.205 1169.06 Q122.593 1169.06 120.765 1172.62 Q118.959 1176.16 118.959 1183.29 Q118.959 1190.4 120.765 1193.96 Q122.593 1197.5 126.205 1197.5 Q129.839 1197.5 131.644 1193.96 Q133.473 1190.4 133.473 1183.29 Q133.473 1176.16 131.644 1172.62 Q129.839 1169.06 126.205 1169.06 M126.205 1165.35 Q132.015 1165.35 135.07 1169.96 Q138.149 1174.54 138.149 1183.29 Q138.149 1192.02 135.07 1196.63 Q132.015 1201.21 126.205 1201.21 Q120.394 1201.21 117.316 1196.63 Q114.26 1192.02 114.26 1183.29 Q114.26 1174.54 117.316 1169.96 Q120.394 1165.35 126.205 1165.35 Z" fill="#000000" fill-rule="nonzero" fill-opacity="1" /><path clip-path="url(#clip000)" d="M118.242 850.12 L125.88 850.12 L125.88 823.755 L117.57 825.421 L117.57 821.162 L125.834 819.496 L130.51 819.496 L130.51 850.12 L138.149 850.12 L138.149 854.056 L118.242 854.056 L118.242 850.12 Z" fill="#000000" fill-rule="nonzero" fill-opacity="1" /><path clip-path="url(#clip000)" d="M121.83 503.639 L138.149 503.639 L138.149 507.574 L116.205 507.574 L116.205 503.639 Q118.867 500.884 123.45 496.255 Q128.056 491.602 129.237 490.259 Q131.482 487.736 132.362 486 Q133.265 484.241 133.265 482.551 Q133.265 479.796 131.32 478.06 Q129.399 476.324 126.297 476.324 Q124.098 476.324 121.644 477.088 Q119.214 477.852 116.436 479.403 L116.436 474.681 Q119.26 473.546 121.714 472.968 Q124.168 472.389 126.205 472.389 Q131.575 472.389 134.769 475.074 Q137.964 477.759 137.964 482.25 Q137.964 484.38 137.154 486.301 Q136.367 488.199 134.26 490.792 Q133.681 491.463 130.58 494.681 Q127.478 497.875 121.83 503.639 Z" fill="#000000" fill-rule="nonzero" fill-opacity="1" /><path clip-path="url(#clip000)" d="M131.019 142.458 Q134.376 143.176 136.251 145.444 Q138.149 147.713 138.149 151.046 Q138.149 156.162 134.63 158.963 Q131.112 161.764 124.63 161.764 Q122.455 161.764 120.14 161.324 Q117.848 160.907 115.394 160.051 L115.394 155.537 Q117.339 156.671 119.654 157.25 Q121.968 157.829 124.492 157.829 Q128.89 157.829 131.181 156.092 Q133.496 154.356 133.496 151.046 Q133.496 147.991 131.343 146.278 Q129.214 144.542 125.394 144.542 L121.367 144.542 L121.367 140.699 L125.58 140.699 Q129.029 140.699 130.857 139.333 Q132.686 137.944 132.686 135.352 Q132.686 132.69 130.788 131.278 Q128.913 129.843 125.394 129.843 Q123.473 129.843 121.274 130.259 Q119.075 130.676 116.436 131.556 L116.436 127.389 Q119.098 126.648 121.413 126.278 Q123.751 125.907 125.811 125.907 Q131.135 125.907 134.237 128.338 Q137.339 130.745 137.339 134.866 Q137.339 137.736 135.695 139.727 Q134.052 141.694 131.019 142.458 Z" fill="#000000" fill-rule="nonzero" fill-opacity="1" /><path clip-path="url(#clip000)" d="M64.0042 841.726 L16.4842 859.868 L16.4842 853.153 L56.4926 838.098 L16.4842 823.011 L16.4842 816.327 L64.0042 834.437 L64.0042 841.726 Z" fill="#000000" fill-rule="nonzero" fill-opacity="1" /><path clip-path="url(#clip000)" d="M46.0847 798.503 Q46.0847 805.601 47.7079 808.338 Q49.3312 811.075 53.2461 811.075 Q56.3653 811.075 58.2114 809.038 Q60.0256 806.969 60.0256 803.436 Q60.0256 798.567 56.5881 795.638 Q53.1188 792.678 47.3897 792.678 L46.0847 792.678 L46.0847 798.503 M43.6657 786.822 L64.0042 786.822 L64.0042 792.678 L58.5933 792.678 Q61.8398 794.684 63.3994 797.675 Q64.9272 800.667 64.9272 804.996 Q64.9272 810.471 61.8716 813.717 Q58.7843 816.932 53.6281 816.932 Q47.6125 816.932 44.5569 812.921 Q41.5014 808.879 41.5014 800.89 L41.5014 792.678 L40.9285 792.678 Q36.8862 792.678 34.6901 795.352 Q32.4621 797.994 32.4621 802.8 Q32.4621 805.855 33.1941 808.752 Q33.9262 811.648 35.3903 814.322 L29.9795 814.322 Q28.7381 811.107 28.1334 808.083 Q27.4968 805.06 27.4968 802.195 Q27.4968 794.461 31.5072 790.641 Q35.5176 786.822 43.6657 786.822 Z" fill="#000000" fill-rule="nonzero" fill-opacity="1" /><path clip-path="url(#clip000)" d="M14.479 774.759 L14.479 768.902 L64.0042 768.902 L64.0042 774.759 L14.479 774.759 Z" fill="#000000" fill-rule="nonzero" fill-opacity="1" /><path clip-path="url(#clip000)" d="M49.9359 757.253 L28.3562 757.253 L28.3562 751.397 L49.7131 751.397 Q54.7739 751.397 57.3202 749.423 Q59.8346 747.45 59.8346 743.503 Q59.8346 738.761 56.8109 736.024 Q53.7872 733.255 48.5673 733.255 L28.3562 733.255 L28.3562 727.398 L64.0042 727.398 L64.0042 733.255 L58.5296 733.255 Q61.7762 735.387 63.3676 738.22 Q64.9272 741.021 64.9272 744.745 Q64.9272 750.888 61.1078 754.07 Q57.2883 757.253 49.9359 757.253 M27.4968 742.517 L27.4968 742.517 Z" fill="#000000" fill-rule="nonzero" fill-opacity="1" /><path clip-path="url(#clip000)" d="M44.7161 684.843 L47.5806 684.843 L47.5806 711.77 Q53.6281 711.388 56.8109 708.142 Q59.9619 704.863 59.9619 699.039 Q59.9619 695.665 59.1344 692.514 Q58.3069 689.331 56.6518 686.212 L62.1899 686.212 Q63.5267 689.363 64.227 692.673 Q64.9272 695.983 64.9272 699.389 Q64.9272 707.919 59.9619 712.916 Q54.9967 717.881 46.5303 717.881 Q37.7774 717.881 32.6531 713.171 Q27.4968 708.428 27.4968 700.407 Q27.4968 693.214 32.1438 689.045 Q36.7589 684.843 44.7161 684.843 M42.9973 690.7 Q38.1912 690.763 35.3266 693.405 Q32.4621 696.015 32.4621 700.344 Q32.4621 705.245 35.2312 708.205 Q38.0002 711.134 43.0292 711.579 L42.9973 690.7 Z" fill="#000000" fill-rule="nonzero" fill-opacity="1" /><path clip-path="url(#clip000)" d="M14.5426 661.163 Q21.8632 665.428 29.0246 667.497 Q36.186 669.566 43.5384 669.566 Q50.8908 669.566 58.1159 667.497 Q65.3091 665.396 72.5979 661.163 L72.5979 666.255 Q65.1182 671.03 57.8931 673.417 Q50.668 675.772 43.5384 675.772 Q36.4406 675.772 29.2474 673.417 Q22.0542 671.062 14.5426 666.255 L14.5426 661.163 Z" fill="#000000" fill-rule="nonzero" fill-opacity="1" /><path clip-path="url(#clip000)" d="M18.2347 644.007 L28.3562 644.007 L28.3562 631.944 L32.9077 631.944 L32.9077 644.007 L52.2594 644.007 Q56.6199 644.007 57.8613 642.83 Q59.1026 641.62 59.1026 637.96 L59.1026 631.944 L64.0042 631.944 L64.0042 637.96 Q64.0042 644.739 61.4897 647.317 Q58.9434 649.896 52.2594 649.896 L32.9077 649.896 L32.9077 654.192 L28.3562 654.192 L28.3562 649.896 L18.2347 649.896 L18.2347 644.007 Z" fill="#000000" fill-rule="nonzero" fill-opacity="1" /><path clip-path="url(#clip000)" d="M14.5426 625.165 L14.5426 620.072 Q22.0542 615.298 29.2474 612.943 Q36.4406 610.556 43.5384 610.556 Q50.668 610.556 57.8931 612.943 Q65.1182 615.298 72.5979 620.072 L72.5979 625.165 Q65.3091 620.932 58.1159 618.863 Q50.8908 616.762 43.5384 616.762 Q36.186 616.762 29.0246 618.863 Q21.8632 620.932 14.5426 625.165 Z" fill="#000000" fill-rule="nonzero" fill-opacity="1" /><polyline clip-path="url(#clip002)" style="stroke:#009af9; stroke-linecap:round; stroke-linejoin:round; stroke-width:4; stroke-opacity:1; fill:none" points="235.808,1065.86 239.371,1064.86 241.073,1064.4 242.938,1063.89 244.834,1063.38 246.959,1062.82 249.742,1062.09 255.469,1060.62 259.364,1059.65 264.517,1058.4 270.498,1057 277.634,1055.39 286.17,1053.58 296.254,1051.58 308.109,1049.43 322.096,1047.18 338.597,1044.93 358.078,1042.85 381.074,1041.21 408.216,1040.41 440.248,1041.07 478.054,1044.07 522.674,1050.63 575.336,1062.36 637.489,1081.27 710.839,1109.47 797.346,1148.59 898.708,1198.03 1010.06,1250.07 1138.78,1297.77 1273.5,1324 1405.61,1320.98 1532.14,1291.85 1678.52,1233.51 1822.26,1163.95 1954.08,1103.7 2103.42,1055.27 2253.17,1039.67 2291.1,1041.7 "/>
<polyline clip-path="url(#clip002)" style="stroke:#e26f46; stroke-linecap:round; stroke-linejoin:round; stroke-width:4; stroke-opacity:1; fill:none" points="235.808,1068.15 239.371,1070.19 241.073,1071.17 242.938,1072.25 244.834,1073.36 246.959,1074.6 249.742,1076.23 255.469,1079.63 259.364,1081.96 264.517,1085.08 270.498,1088.73 277.634,1093.14 286.17,1098.49 296.254,1104.91 308.109,1112.56 322.096,1121.75 338.597,1132.77 358.078,1145.98 381.074,1161.79 408.216,1180.62 440.248,1202.85 478.054,1228.77 522.674,1258.33 575.336,1290.9 637.489,1324.73 710.839,1356.27 797.346,1379.26 898.708,1384.24 1010.06,1361.9 1138.78,1304.27 1273.5,1219.24 1405.61,1128.29 1532.14,1051.31 1678.52,993.514 1822.26,982.326 1954.08,1014.41 2103.42,1091.21 2253.17,1192.07 2291.1,1218.42 "/>
<polyline clip-path="url(#clip002)" style="stroke:#3da44d; stroke-linecap:round; stroke-linejoin:round; stroke-width:4; stroke-opacity:1; fill:none" points="235.808,1068.15 239.371,1070.19 241.073,1071.17 242.938,1072.25 244.834,1073.36 246.959,1074.6 249.742,1076.23 255.469,1079.63 259.364,1081.96 264.517,1085.08 270.498,1088.73 277.634,1093.14 286.17,1098.49 296.254,1104.91 308.109,1112.56 322.096,1121.75 338.597,1132.77 358.078,1145.98 381.074,1161.79 408.216,1180.62 440.248,1202.85 478.054,1228.77 522.674,1258.33 575.336,1290.9 637.489,1324.73 710.839,1356.27 797.346,1379.26 898.708,1384.24 1010.06,1361.9 1138.78,1304.27 1273.5,1219.24 1405.61,1128.29 1532.14,1051.31 1678.52,993.514 1822.26,982.326 1954.08,1014.41 2103.42,1091.21 2253.17,1192.07 2291.1,1218.42 "/>
<polyline clip-path="url(#clip002)" style="stroke:#c271d2; stroke-linecap:round; stroke-linejoin:round; stroke-width:4; stroke-opacity:1; fill:none" points="235.808,1065.86 239.371,1064.86 241.073,1064.4 242.938,1063.89 244.834,1063.38 246.959,1062.82 249.742,1062.09 255.469,1060.62 259.364,1059.65 264.517,1058.4 270.498,1057 277.634,1055.39 286.17,1053.58 296.254,1051.58 308.109,1049.43 322.096,1047.18 338.597,1044.93 358.078,1042.85 381.074,1041.21 408.216,1040.41 440.248,1041.07 478.054,1044.07 522.674,1050.63 575.336,1062.36 637.489,1081.27 710.839,1109.47 797.346,1148.59 898.708,1198.03 1010.06,1250.07 1138.78,1297.77 1273.5,1324 1405.61,1320.98 1532.14,1291.85 1678.52,1233.51 1822.26,1163.95 1954.08,1103.7 2103.42,1055.27 2253.17,1039.67 2291.1,1041.7 "/>
<polyline clip-path="url(#clip002)" style="stroke:#ac8d18; stroke-linecap:round; stroke-linejoin:round; stroke-width:4; stroke-opacity:1; fill:none" points="235.808,1128.51 239.371,1111.28 241.073,1104.72 242.938,1098.05 244.834,1091.79 246.959,1085.24 249.742,1077.27 255.469,1062.52 259.364,1053.44 264.517,1042.32 270.498,1030.43 277.634,1017.35 286.17,1002.95 296.254,987.298 308.109,970.363 322.096,951.97 338.597,931.997 358.078,910.293 381.074,886.709 408.216,861.087 440.248,833.252 478.054,803.014 522.674,770.164 575.336,734.476 637.489,695.705 710.839,653.589 797.346,607.865 898.708,558.534 1010.06,508.486 1138.78,454.903 1273.5,402.753 1405.61,354.792 1532.14,311.329 1678.52,263.606 1822.26,219.04 1954.08,179.906 2103.42,137.339 2253.17,96.3299 2291.1,86.1857 "/>
<path clip-path="url(#clip000)" d="M246.769 404.149 L922.451 404.149 L922.451 93.1086 L246.769 93.1086  Z" fill="#ffffff" fill-rule="evenodd" fill-opacity="1"/>
<polyline clip-path="url(#clip000)" style="stroke:#000000; stroke-linecap:round; stroke-linejoin:round; stroke-width:4; stroke-opacity:1; fill:none" points="246.769,404.149 922.451,404.149 922.451,93.1086 246.769,93.1086 246.769,404.149 "/>
<polyline clip-path="url(#clip000)" style="stroke:#009af9; stroke-linecap:round; stroke-linejoin:round; stroke-width:4; stroke-opacity:1; fill:none" points="270.976,144.949 416.216,144.949 "/>
<path clip-path="url(#clip000)" d="M445.099 131.511 L445.099 144.497 L450.979 144.497 Q454.242 144.497 456.025 142.807 Q457.807 141.118 457.807 137.993 Q457.807 134.891 456.025 133.201 Q454.242 131.511 450.979 131.511 L445.099 131.511 M440.423 127.669 L450.979 127.669 Q456.789 127.669 459.752 130.307 Q462.738 132.923 462.738 137.993 Q462.738 143.108 459.752 145.724 Q456.789 148.34 450.979 148.34 L445.099 148.34 L445.099 162.229 L440.423 162.229 L440.423 127.669 Z" fill="#000000" fill-rule="nonzero" fill-opacity="1" /><path clip-path="url(#clip000)" d="M477.182 139.289 Q473.756 139.289 471.766 141.974 Q469.775 144.636 469.775 149.289 Q469.775 153.942 471.742 156.627 Q473.733 159.289 477.182 159.289 Q480.585 159.289 482.576 156.604 Q484.566 153.918 484.566 149.289 Q484.566 144.682 482.576 141.997 Q480.585 139.289 477.182 139.289 M477.182 135.678 Q482.738 135.678 485.909 139.289 Q489.08 142.9 489.08 149.289 Q489.08 155.655 485.909 159.289 Q482.738 162.9 477.182 162.9 Q471.603 162.9 468.432 159.289 Q465.284 155.655 465.284 149.289 Q465.284 142.9 468.432 139.289 Q471.603 135.678 477.182 135.678 Z" fill="#000000" fill-rule="nonzero" fill-opacity="1" /><path clip-path="url(#clip000)" d="M512.668 137.067 L512.668 141.094 Q510.863 140.169 508.918 139.706 Q506.974 139.243 504.89 139.243 Q501.719 139.243 500.122 140.215 Q498.548 141.187 498.548 143.131 Q498.548 144.613 499.682 145.469 Q500.816 146.303 504.242 147.067 L505.701 147.391 Q510.238 148.363 512.136 150.145 Q514.057 151.905 514.057 155.076 Q514.057 158.687 511.187 160.793 Q508.339 162.9 503.339 162.9 Q501.256 162.9 498.988 162.483 Q496.742 162.09 494.242 161.28 L494.242 156.881 Q496.603 158.108 498.895 158.733 Q501.187 159.335 503.432 159.335 Q506.441 159.335 508.062 158.317 Q509.682 157.275 509.682 155.4 Q509.682 153.664 508.501 152.738 Q507.344 151.812 503.386 150.956 L501.904 150.608 Q497.946 149.775 496.187 148.062 Q494.427 146.326 494.427 143.317 Q494.427 139.659 497.02 137.669 Q499.613 135.678 504.381 135.678 Q506.742 135.678 508.826 136.025 Q510.909 136.372 512.668 137.067 Z" fill="#000000" fill-rule="nonzero" fill-opacity="1" /><path clip-path="url(#clip000)" d="M520.839 136.303 L525.099 136.303 L525.099 162.229 L520.839 162.229 L520.839 136.303 M520.839 126.21 L525.099 126.21 L525.099 131.604 L520.839 131.604 L520.839 126.21 Z" fill="#000000" fill-rule="nonzero" fill-opacity="1" /><path clip-path="url(#clip000)" d="M538.224 128.942 L538.224 136.303 L546.997 136.303 L546.997 139.613 L538.224 139.613 L538.224 153.687 Q538.224 156.858 539.08 157.761 Q539.96 158.664 542.622 158.664 L546.997 158.664 L546.997 162.229 L542.622 162.229 Q537.691 162.229 535.816 160.4 Q533.941 158.548 533.941 153.687 L533.941 139.613 L530.816 139.613 L530.816 136.303 L533.941 136.303 L533.941 128.942 L538.224 128.942 Z" fill="#000000" fill-rule="nonzero" fill-opacity="1" /><path clip-path="url(#clip000)" d="M552.598 136.303 L556.858 136.303 L556.858 162.229 L552.598 162.229 L552.598 136.303 M552.598 126.21 L556.858 126.21 L556.858 131.604 L552.598 131.604 L552.598 126.21 Z" fill="#000000" fill-rule="nonzero" fill-opacity="1" /><path clip-path="url(#clip000)" d="M575.816 139.289 Q572.39 139.289 570.399 141.974 Q568.409 144.636 568.409 149.289 Q568.409 153.942 570.376 156.627 Q572.367 159.289 575.816 159.289 Q579.219 159.289 581.209 156.604 Q583.2 153.918 583.2 149.289 Q583.2 144.682 581.209 141.997 Q579.219 139.289 575.816 139.289 M575.816 135.678 Q581.371 135.678 584.543 139.289 Q587.714 142.9 587.714 149.289 Q587.714 155.655 584.543 159.289 Q581.371 162.9 575.816 162.9 Q570.237 162.9 567.066 159.289 Q563.918 155.655 563.918 149.289 Q563.918 142.9 567.066 139.289 Q570.237 135.678 575.816 135.678 Z" fill="#000000" fill-rule="nonzero" fill-opacity="1" /><path clip-path="url(#clip000)" d="M616.325 146.581 L616.325 162.229 L612.066 162.229 L612.066 146.719 Q612.066 143.039 610.631 141.21 Q609.195 139.382 606.325 139.382 Q602.876 139.382 600.885 141.581 Q598.894 143.78 598.894 147.576 L598.894 162.229 L594.612 162.229 L594.612 136.303 L598.894 136.303 L598.894 140.331 Q600.422 137.993 602.482 136.835 Q604.566 135.678 607.274 135.678 Q611.742 135.678 614.033 138.456 Q616.325 141.21 616.325 146.581 Z" fill="#000000" fill-rule="nonzero" fill-opacity="1" /><polyline clip-path="url(#clip000)" style="stroke:#e26f46; stroke-linecap:round; stroke-linejoin:round; stroke-width:4; stroke-opacity:1; fill:none" points="270.976,196.789 416.216,196.789 "/>
<path clip-path="url(#clip000)" d="M453.617 214.069 L440.423 179.509 L445.307 179.509 L456.256 208.606 L467.229 179.509 L472.09 179.509 L458.918 214.069 L453.617 214.069 Z" fill="#000000" fill-rule="nonzero" fill-opacity="1" /><path clip-path="url(#clip000)" d="M495.446 200.041 L495.446 202.124 L475.863 202.124 Q476.141 206.522 478.502 208.837 Q480.886 211.129 485.122 211.129 Q487.576 211.129 489.867 210.527 Q492.182 209.925 494.451 208.721 L494.451 212.749 Q492.159 213.721 489.752 214.231 Q487.344 214.74 484.867 214.74 Q478.664 214.74 475.029 211.129 Q471.418 207.518 471.418 201.36 Q471.418 194.995 474.844 191.268 Q478.293 187.518 484.127 187.518 Q489.358 187.518 492.39 190.897 Q495.446 194.254 495.446 200.041 M491.187 198.791 Q491.14 195.296 489.219 193.212 Q487.321 191.129 484.173 191.129 Q480.608 191.129 478.455 193.143 Q476.326 195.157 476.002 198.814 L491.187 198.791 Z" fill="#000000" fill-rule="nonzero" fill-opacity="1" /><path clip-path="url(#clip000)" d="M502.437 178.05 L506.696 178.05 L506.696 214.069 L502.437 214.069 L502.437 178.05 Z" fill="#000000" fill-rule="nonzero" fill-opacity="1" /><path clip-path="url(#clip000)" d="M525.654 191.129 Q522.228 191.129 520.237 193.814 Q518.247 196.476 518.247 201.129 Q518.247 205.782 520.214 208.467 Q522.205 211.129 525.654 211.129 Q529.057 211.129 531.048 208.444 Q533.038 205.758 533.038 201.129 Q533.038 196.522 531.048 193.837 Q529.057 191.129 525.654 191.129 M525.654 187.518 Q531.21 187.518 534.381 191.129 Q537.552 194.74 537.552 201.129 Q537.552 207.495 534.381 211.129 Q531.21 214.74 525.654 214.74 Q520.075 214.74 516.904 211.129 Q513.756 207.495 513.756 201.129 Q513.756 194.74 516.904 191.129 Q520.075 187.518 525.654 187.518 Z" fill="#000000" fill-rule="nonzero" fill-opacity="1" /><path clip-path="url(#clip000)" d="M563.27 189.138 L563.27 193.12 Q561.464 192.124 559.635 191.638 Q557.83 191.129 555.978 191.129 Q551.835 191.129 549.543 193.768 Q547.251 196.384 547.251 201.129 Q547.251 205.874 549.543 208.513 Q551.835 211.129 555.978 211.129 Q557.83 211.129 559.635 210.643 Q561.464 210.133 563.27 209.138 L563.27 213.073 Q561.487 213.907 559.566 214.323 Q557.668 214.74 555.515 214.74 Q549.659 214.74 546.21 211.059 Q542.761 207.379 542.761 201.129 Q542.761 194.786 546.233 191.152 Q549.728 187.518 555.793 187.518 Q557.76 187.518 559.635 187.935 Q561.51 188.328 563.27 189.138 Z" fill="#000000" fill-rule="nonzero" fill-opacity="1" /><path clip-path="url(#clip000)" d="M570.677 188.143 L574.936 188.143 L574.936 214.069 L570.677 214.069 L570.677 188.143 M570.677 178.05 L574.936 178.05 L574.936 183.444 L570.677 183.444 L570.677 178.05 Z" fill="#000000" fill-rule="nonzero" fill-opacity="1" /><path clip-path="url(#clip000)" d="M588.061 180.782 L588.061 188.143 L596.834 188.143 L596.834 191.453 L588.061 191.453 L588.061 205.527 Q588.061 208.698 588.918 209.601 Q589.797 210.504 592.459 210.504 L596.834 210.504 L596.834 214.069 L592.459 214.069 Q587.529 214.069 585.654 212.24 Q583.779 210.388 583.779 205.527 L583.779 191.453 L580.654 191.453 L580.654 188.143 L583.779 188.143 L583.779 180.782 L588.061 180.782 Z" fill="#000000" fill-rule="nonzero" fill-opacity="1" /><path clip-path="url(#clip000)" d="M613.223 216.476 Q611.418 221.106 609.705 222.518 Q607.992 223.93 605.121 223.93 L601.719 223.93 L601.719 220.365 L604.219 220.365 Q605.978 220.365 606.95 219.532 Q607.922 218.698 609.103 215.596 L609.867 213.652 L599.381 188.143 L603.894 188.143 L611.996 208.421 L620.098 188.143 L624.612 188.143 L613.223 216.476 Z" fill="#000000" fill-rule="nonzero" fill-opacity="1" /><polyline clip-path="url(#clip000)" style="stroke:#3da44d; stroke-linecap:round; stroke-linejoin:round; stroke-width:4; stroke-opacity:1; fill:none" points="270.976,248.629 416.216,248.629 "/>
<path clip-path="url(#clip000)" d="M445.099 235.191 L445.099 262.066 L450.747 262.066 Q457.9 262.066 461.21 258.825 Q464.543 255.585 464.543 248.594 Q464.543 241.649 461.21 238.432 Q457.9 235.191 450.747 235.191 L445.099 235.191 M440.423 231.349 L450.03 231.349 Q460.076 231.349 464.775 235.538 Q469.474 239.705 469.474 248.594 Q469.474 257.529 464.752 261.719 Q460.029 265.909 450.03 265.909 L440.423 265.909 L440.423 231.349 Z" fill="#000000" fill-rule="nonzero" fill-opacity="1" /><path clip-path="url(#clip000)" d="M487.529 268.316 Q485.724 272.946 484.011 274.358 Q482.298 275.77 479.428 275.77 L476.025 275.77 L476.025 272.205 L478.525 272.205 Q480.284 272.205 481.256 271.372 Q482.228 270.538 483.409 267.436 L484.173 265.492 L473.687 239.983 L478.201 239.983 L486.302 260.261 L494.404 239.983 L498.918 239.983 L487.529 268.316 Z" fill="#000000" fill-rule="nonzero" fill-opacity="1" /><path clip-path="url(#clip000)" d="M526.349 250.261 L526.349 265.909 L522.089 265.909 L522.089 250.399 Q522.089 246.719 520.654 244.89 Q519.219 243.062 516.349 243.062 Q512.9 243.062 510.909 245.261 Q508.918 247.46 508.918 251.256 L508.918 265.909 L504.636 265.909 L504.636 239.983 L508.918 239.983 L508.918 244.011 Q510.446 241.673 512.506 240.515 Q514.589 239.358 517.298 239.358 Q521.765 239.358 524.057 242.136 Q526.349 244.89 526.349 250.261 Z" fill="#000000" fill-rule="nonzero" fill-opacity="1" /><path clip-path="url(#clip000)" d="M546.626 252.876 Q541.464 252.876 539.474 254.057 Q537.483 255.237 537.483 258.085 Q537.483 260.353 538.964 261.696 Q540.469 263.015 543.038 263.015 Q546.58 263.015 548.71 260.515 Q550.862 257.992 550.862 253.825 L550.862 252.876 L546.626 252.876 M555.122 251.117 L555.122 265.909 L550.862 265.909 L550.862 261.973 Q549.404 264.335 547.228 265.469 Q545.052 266.58 541.904 266.58 Q537.923 266.58 535.561 264.358 Q533.224 262.112 533.224 258.362 Q533.224 253.987 536.14 251.765 Q539.08 249.543 544.89 249.543 L550.862 249.543 L550.862 249.126 Q550.862 246.187 548.918 244.589 Q546.997 242.969 543.501 242.969 Q541.279 242.969 539.173 243.501 Q537.066 244.034 535.122 245.099 L535.122 241.163 Q537.46 240.261 539.659 239.821 Q541.858 239.358 543.941 239.358 Q549.566 239.358 552.344 242.274 Q555.122 245.191 555.122 251.117 Z" fill="#000000" fill-rule="nonzero" fill-opacity="1" /><path clip-path="url(#clip000)" d="M584.08 244.96 Q585.677 242.089 587.899 240.724 Q590.121 239.358 593.131 239.358 Q597.182 239.358 599.381 242.205 Q601.58 245.029 601.58 250.261 L601.58 265.909 L597.297 265.909 L597.297 250.399 Q597.297 246.673 595.978 244.867 Q594.658 243.062 591.95 243.062 Q588.64 243.062 586.719 245.261 Q584.797 247.46 584.797 251.256 L584.797 265.909 L580.515 265.909 L580.515 250.399 Q580.515 246.649 579.196 244.867 Q577.876 243.062 575.121 243.062 Q571.858 243.062 569.936 245.284 Q568.015 247.483 568.015 251.256 L568.015 265.909 L563.733 265.909 L563.733 239.983 L568.015 239.983 L568.015 244.011 Q569.473 241.626 571.51 240.492 Q573.547 239.358 576.348 239.358 Q579.172 239.358 581.14 240.793 Q583.131 242.228 584.08 244.96 Z" fill="#000000" fill-rule="nonzero" fill-opacity="1" /><path clip-path="url(#clip000)" d="M610.075 239.983 L614.334 239.983 L614.334 265.909 L610.075 265.909 L610.075 239.983 M610.075 229.89 L614.334 229.89 L614.334 235.284 L610.075 235.284 L610.075 229.89 Z" fill="#000000" fill-rule="nonzero" fill-opacity="1" /><path clip-path="url(#clip000)" d="M641.904 240.978 L641.904 244.96 Q640.098 243.964 638.269 243.478 Q636.464 242.969 634.612 242.969 Q630.468 242.969 628.177 245.608 Q625.885 248.224 625.885 252.969 Q625.885 257.714 628.177 260.353 Q630.468 262.969 634.612 262.969 Q636.464 262.969 638.269 262.483 Q640.098 261.973 641.904 260.978 L641.904 264.913 Q640.121 265.747 638.2 266.163 Q636.302 266.58 634.149 266.58 Q628.292 266.58 624.843 262.899 Q621.394 259.219 621.394 252.969 Q621.394 246.626 624.867 242.992 Q628.362 239.358 634.427 239.358 Q636.394 239.358 638.269 239.775 Q640.144 240.168 641.904 240.978 Z" fill="#000000" fill-rule="nonzero" fill-opacity="1" /><path clip-path="url(#clip000)" d="M665.839 240.747 L665.839 244.774 Q664.033 243.849 662.089 243.386 Q660.144 242.923 658.061 242.923 Q654.89 242.923 653.292 243.895 Q651.718 244.867 651.718 246.811 Q651.718 248.293 652.853 249.149 Q653.987 249.983 657.413 250.747 L658.871 251.071 Q663.408 252.043 665.306 253.825 Q667.227 255.585 667.227 258.756 Q667.227 262.367 664.357 264.473 Q661.51 266.58 656.51 266.58 Q654.427 266.58 652.158 266.163 Q649.913 265.77 647.413 264.96 L647.413 260.561 Q649.774 261.788 652.065 262.413 Q654.357 263.015 656.603 263.015 Q659.612 263.015 661.232 261.997 Q662.852 260.955 662.852 259.08 Q662.852 257.344 661.672 256.418 Q660.515 255.492 656.556 254.636 L655.075 254.288 Q651.116 253.455 649.357 251.742 Q647.598 250.006 647.598 246.997 Q647.598 243.339 650.191 241.349 Q652.783 239.358 657.552 239.358 Q659.913 239.358 661.996 239.705 Q664.079 240.052 665.839 240.747 Z" fill="#000000" fill-rule="nonzero" fill-opacity="1" /><path clip-path="url(#clip000)" d="M686.024 239.983 L690.538 239.983 L698.639 261.742 L706.741 239.983 L711.255 239.983 L701.533 265.909 L695.746 265.909 L686.024 239.983 Z" fill="#000000" fill-rule="nonzero" fill-opacity="1" /><path clip-path="url(#clip000)" d="M728.917 252.876 Q723.755 252.876 721.764 254.057 Q719.773 255.237 719.773 258.085 Q719.773 260.353 721.255 261.696 Q722.76 263.015 725.329 263.015 Q728.871 263.015 731 260.515 Q733.153 257.992 733.153 253.825 L733.153 252.876 L728.917 252.876 M737.412 251.117 L737.412 265.909 L733.153 265.909 L733.153 261.973 Q731.695 264.335 729.519 265.469 Q727.343 266.58 724.195 266.58 Q720.213 266.58 717.852 264.358 Q715.514 262.112 715.514 258.362 Q715.514 253.987 718.431 251.765 Q721.371 249.543 727.181 249.543 L733.153 249.543 L733.153 249.126 Q733.153 246.187 731.209 244.589 Q729.287 242.969 725.792 242.969 Q723.57 242.969 721.463 243.501 Q719.357 244.034 717.412 245.099 L717.412 241.163 Q719.75 240.261 721.949 239.821 Q724.148 239.358 726.232 239.358 Q731.857 239.358 734.634 242.274 Q737.412 245.191 737.412 251.117 Z" fill="#000000" fill-rule="nonzero" fill-opacity="1" /><path clip-path="url(#clip000)" d="M761.208 243.964 Q760.491 243.548 759.634 243.362 Q758.801 243.154 757.783 243.154 Q754.171 243.154 752.227 245.515 Q750.306 247.853 750.306 252.251 L750.306 265.909 L746.023 265.909 L746.023 239.983 L750.306 239.983 L750.306 244.011 Q751.648 241.649 753.801 240.515 Q755.954 239.358 759.033 239.358 Q759.472 239.358 760.005 239.427 Q760.537 239.474 761.185 239.589 L761.208 243.964 Z" fill="#000000" fill-rule="nonzero" fill-opacity="1" /><path clip-path="url(#clip000)" d="M765.676 239.983 L769.935 239.983 L769.935 265.909 L765.676 265.909 L765.676 239.983 M765.676 229.89 L769.935 229.89 L769.935 235.284 L765.676 235.284 L765.676 229.89 Z" fill="#000000" fill-rule="nonzero" fill-opacity="1" /><path clip-path="url(#clip000)" d="M790.63 252.876 Q785.468 252.876 783.477 254.057 Q781.486 255.237 781.486 258.085 Q781.486 260.353 782.968 261.696 Q784.472 263.015 787.042 263.015 Q790.583 263.015 792.713 260.515 Q794.866 257.992 794.866 253.825 L794.866 252.876 L790.63 252.876 M799.125 251.117 L799.125 265.909 L794.866 265.909 L794.866 261.973 Q793.407 264.335 791.231 265.469 Q789.055 266.58 785.907 266.58 Q781.926 266.58 779.565 264.358 Q777.227 262.112 777.227 258.362 Q777.227 253.987 780.144 251.765 Q783.083 249.543 788.893 249.543 L794.866 249.543 L794.866 249.126 Q794.866 246.187 792.921 244.589 Q791 242.969 787.505 242.969 Q785.282 242.969 783.176 243.501 Q781.069 244.034 779.125 245.099 L779.125 241.163 Q781.463 240.261 783.662 239.821 Q785.861 239.358 787.944 239.358 Q793.569 239.358 796.347 242.274 Q799.125 245.191 799.125 251.117 Z" fill="#000000" fill-rule="nonzero" fill-opacity="1" /><path clip-path="url(#clip000)" d="M826.509 252.969 Q826.509 248.27 824.565 245.608 Q822.643 242.923 819.264 242.923 Q815.884 242.923 813.94 245.608 Q812.018 248.27 812.018 252.969 Q812.018 257.668 813.94 260.353 Q815.884 263.015 819.264 263.015 Q822.643 263.015 824.565 260.353 Q826.509 257.668 826.509 252.969 M812.018 243.918 Q813.361 241.603 815.398 240.492 Q817.458 239.358 820.305 239.358 Q825.028 239.358 827.967 243.108 Q830.93 246.858 830.93 252.969 Q830.93 259.08 827.967 262.83 Q825.028 266.58 820.305 266.58 Q817.458 266.58 815.398 265.469 Q813.361 264.335 812.018 262.02 L812.018 265.909 L807.736 265.909 L807.736 229.89 L812.018 229.89 L812.018 243.918 Z" fill="#000000" fill-rule="nonzero" fill-opacity="1" /><path clip-path="url(#clip000)" d="M837.99 229.89 L842.25 229.89 L842.25 265.909 L837.99 265.909 L837.99 229.89 Z" fill="#000000" fill-rule="nonzero" fill-opacity="1" /><path clip-path="url(#clip000)" d="M873.337 251.881 L873.337 253.964 L853.754 253.964 Q854.032 258.362 856.393 260.677 Q858.777 262.969 863.013 262.969 Q865.467 262.969 867.759 262.367 Q870.074 261.765 872.342 260.561 L872.342 264.589 Q870.05 265.561 867.643 266.071 Q865.236 266.58 862.759 266.58 Q856.555 266.58 852.921 262.969 Q849.31 259.358 849.31 253.2 Q849.31 246.835 852.736 243.108 Q856.185 239.358 862.018 239.358 Q867.25 239.358 870.282 242.737 Q873.337 246.094 873.337 251.881 M869.078 250.631 Q869.032 247.136 867.111 245.052 Q865.212 242.969 862.064 242.969 Q858.5 242.969 856.347 244.983 Q854.217 246.997 853.893 250.654 L869.078 250.631 Z" fill="#000000" fill-rule="nonzero" fill-opacity="1" /><path clip-path="url(#clip000)" d="M896.856 240.747 L896.856 244.774 Q895.05 243.849 893.106 243.386 Q891.161 242.923 889.078 242.923 Q885.907 242.923 884.31 243.895 Q882.736 244.867 882.736 246.811 Q882.736 248.293 883.87 249.149 Q885.004 249.983 888.43 250.747 L889.888 251.071 Q894.425 252.043 896.323 253.825 Q898.245 255.585 898.245 258.756 Q898.245 262.367 895.374 264.473 Q892.527 266.58 887.527 266.58 Q885.444 266.58 883.175 266.163 Q880.93 265.77 878.43 264.96 L878.43 260.561 Q880.791 261.788 883.083 262.413 Q885.374 263.015 887.62 263.015 Q890.629 263.015 892.249 261.997 Q893.87 260.955 893.87 259.08 Q893.87 257.344 892.689 256.418 Q891.532 255.492 887.573 254.636 L886.092 254.288 Q882.134 253.455 880.374 251.742 Q878.615 250.006 878.615 246.997 Q878.615 243.339 881.208 241.349 Q883.8 239.358 888.569 239.358 Q890.93 239.358 893.013 239.705 Q895.097 240.052 896.856 240.747 Z" fill="#000000" fill-rule="nonzero" fill-opacity="1" /><polyline clip-path="url(#clip000)" style="stroke:#c271d2; stroke-linecap:round; stroke-linejoin:round; stroke-width:4; stroke-opacity:1; fill:none" points="270.976,300.469 416.216,300.469 "/>
<path clip-path="url(#clip000)" d="M445.099 287.031 L445.099 313.906 L450.747 313.906 Q457.9 313.906 461.21 310.665 Q464.543 307.425 464.543 300.434 Q464.543 293.489 461.21 290.272 Q457.9 287.031 450.747 287.031 L445.099 287.031 M440.423 283.189 L450.03 283.189 Q460.076 283.189 464.775 287.378 Q469.474 291.545 469.474 300.434 Q469.474 309.369 464.752 313.559 Q460.029 317.749 450.03 317.749 L440.423 317.749 L440.423 283.189 Z" fill="#000000" fill-rule="nonzero" fill-opacity="1" /><path clip-path="url(#clip000)" d="M487.529 320.156 Q485.724 324.786 484.011 326.198 Q482.298 327.61 479.428 327.61 L476.025 327.61 L476.025 324.045 L478.525 324.045 Q480.284 324.045 481.256 323.212 Q482.228 322.378 483.409 319.276 L484.173 317.332 L473.687 291.823 L478.201 291.823 L486.302 312.101 L494.404 291.823 L498.918 291.823 L487.529 320.156 Z" fill="#000000" fill-rule="nonzero" fill-opacity="1" /><path clip-path="url(#clip000)" d="M526.349 302.101 L526.349 317.749 L522.089 317.749 L522.089 302.239 Q522.089 298.559 520.654 296.73 Q519.219 294.902 516.349 294.902 Q512.9 294.902 510.909 297.101 Q508.918 299.3 508.918 303.096 L508.918 317.749 L504.636 317.749 L504.636 291.823 L508.918 291.823 L508.918 295.851 Q510.446 293.513 512.506 292.355 Q514.589 291.198 517.298 291.198 Q521.765 291.198 524.057 293.976 Q526.349 296.73 526.349 302.101 Z" fill="#000000" fill-rule="nonzero" fill-opacity="1" /><path clip-path="url(#clip000)" d="M546.626 304.716 Q541.464 304.716 539.474 305.897 Q537.483 307.077 537.483 309.925 Q537.483 312.193 538.964 313.536 Q540.469 314.855 543.038 314.855 Q546.58 314.855 548.71 312.355 Q550.862 309.832 550.862 305.665 L550.862 304.716 L546.626 304.716 M555.122 302.957 L555.122 317.749 L550.862 317.749 L550.862 313.813 Q549.404 316.175 547.228 317.309 Q545.052 318.42 541.904 318.42 Q537.923 318.42 535.561 316.198 Q533.224 313.952 533.224 310.202 Q533.224 305.827 536.14 303.605 Q539.08 301.383 544.89 301.383 L550.862 301.383 L550.862 300.966 Q550.862 298.027 548.918 296.429 Q546.997 294.809 543.501 294.809 Q541.279 294.809 539.173 295.341 Q537.066 295.874 535.122 296.939 L535.122 293.003 Q537.46 292.101 539.659 291.661 Q541.858 291.198 543.941 291.198 Q549.566 291.198 552.344 294.114 Q555.122 297.031 555.122 302.957 Z" fill="#000000" fill-rule="nonzero" fill-opacity="1" /><path clip-path="url(#clip000)" d="M584.08 296.8 Q585.677 293.929 587.899 292.564 Q590.121 291.198 593.131 291.198 Q597.182 291.198 599.381 294.045 Q601.58 296.869 601.58 302.101 L601.58 317.749 L597.297 317.749 L597.297 302.239 Q597.297 298.513 595.978 296.707 Q594.658 294.902 591.95 294.902 Q588.64 294.902 586.719 297.101 Q584.797 299.3 584.797 303.096 L584.797 317.749 L580.515 317.749 L580.515 302.239 Q580.515 298.489 579.196 296.707 Q577.876 294.902 575.121 294.902 Q571.858 294.902 569.936 297.124 Q568.015 299.323 568.015 303.096 L568.015 317.749 L563.733 317.749 L563.733 291.823 L568.015 291.823 L568.015 295.851 Q569.473 293.466 571.51 292.332 Q573.547 291.198 576.348 291.198 Q579.172 291.198 581.14 292.633 Q583.131 294.068 584.08 296.8 Z" fill="#000000" fill-rule="nonzero" fill-opacity="1" /><path clip-path="url(#clip000)" d="M610.075 291.823 L614.334 291.823 L614.334 317.749 L610.075 317.749 L610.075 291.823 M610.075 281.73 L614.334 281.73 L614.334 287.124 L610.075 287.124 L610.075 281.73 Z" fill="#000000" fill-rule="nonzero" fill-opacity="1" /><path clip-path="url(#clip000)" d="M641.904 292.818 L641.904 296.8 Q640.098 295.804 638.269 295.318 Q636.464 294.809 634.612 294.809 Q630.468 294.809 628.177 297.448 Q625.885 300.064 625.885 304.809 Q625.885 309.554 628.177 312.193 Q630.468 314.809 634.612 314.809 Q636.464 314.809 638.269 314.323 Q640.098 313.813 641.904 312.818 L641.904 316.753 Q640.121 317.587 638.2 318.003 Q636.302 318.42 634.149 318.42 Q628.292 318.42 624.843 314.739 Q621.394 311.059 621.394 304.809 Q621.394 298.466 624.867 294.832 Q628.362 291.198 634.427 291.198 Q636.394 291.198 638.269 291.615 Q640.144 292.008 641.904 292.818 Z" fill="#000000" fill-rule="nonzero" fill-opacity="1" /><path clip-path="url(#clip000)" d="M665.839 292.587 L665.839 296.614 Q664.033 295.689 662.089 295.226 Q660.144 294.763 658.061 294.763 Q654.89 294.763 653.292 295.735 Q651.718 296.707 651.718 298.651 Q651.718 300.133 652.853 300.989 Q653.987 301.823 657.413 302.587 L658.871 302.911 Q663.408 303.883 665.306 305.665 Q667.227 307.425 667.227 310.596 Q667.227 314.207 664.357 316.313 Q661.51 318.42 656.51 318.42 Q654.427 318.42 652.158 318.003 Q649.913 317.61 647.413 316.8 L647.413 312.401 Q649.774 313.628 652.065 314.253 Q654.357 314.855 656.603 314.855 Q659.612 314.855 661.232 313.837 Q662.852 312.795 662.852 310.92 Q662.852 309.184 661.672 308.258 Q660.515 307.332 656.556 306.476 L655.075 306.128 Q651.116 305.295 649.357 303.582 Q647.598 301.846 647.598 298.837 Q647.598 295.179 650.191 293.189 Q652.783 291.198 657.552 291.198 Q659.913 291.198 661.996 291.545 Q664.079 291.892 665.839 292.587 Z" fill="#000000" fill-rule="nonzero" fill-opacity="1" /><path clip-path="url(#clip000)" d="M686.024 291.823 L690.538 291.823 L698.639 313.582 L706.741 291.823 L711.255 291.823 L701.533 317.749 L695.746 317.749 L686.024 291.823 Z" fill="#000000" fill-rule="nonzero" fill-opacity="1" /><path clip-path="url(#clip000)" d="M728.917 304.716 Q723.755 304.716 721.764 305.897 Q719.773 307.077 719.773 309.925 Q719.773 312.193 721.255 313.536 Q722.76 314.855 725.329 314.855 Q728.871 314.855 731 312.355 Q733.153 309.832 733.153 305.665 L733.153 304.716 L728.917 304.716 M737.412 302.957 L737.412 317.749 L733.153 317.749 L733.153 313.813 Q731.695 316.175 729.519 317.309 Q727.343 318.42 724.195 318.42 Q720.213 318.42 717.852 316.198 Q715.514 313.952 715.514 310.202 Q715.514 305.827 718.431 303.605 Q721.371 301.383 727.181 301.383 L733.153 301.383 L733.153 300.966 Q733.153 298.027 731.209 296.429 Q729.287 294.809 725.792 294.809 Q723.57 294.809 721.463 295.341 Q719.357 295.874 717.412 296.939 L717.412 293.003 Q719.75 292.101 721.949 291.661 Q724.148 291.198 726.232 291.198 Q731.857 291.198 734.634 294.114 Q737.412 297.031 737.412 302.957 Z" fill="#000000" fill-rule="nonzero" fill-opacity="1" /><path clip-path="url(#clip000)" d="M761.208 295.804 Q760.491 295.388 759.634 295.202 Q758.801 294.994 757.783 294.994 Q754.171 294.994 752.227 297.355 Q750.306 299.693 750.306 304.091 L750.306 317.749 L746.023 317.749 L746.023 291.823 L750.306 291.823 L750.306 295.851 Q751.648 293.489 753.801 292.355 Q755.954 291.198 759.033 291.198 Q759.472 291.198 760.005 291.267 Q760.537 291.314 761.185 291.429 L761.208 295.804 Z" fill="#000000" fill-rule="nonzero" fill-opacity="1" /><path clip-path="url(#clip000)" d="M765.676 291.823 L769.935 291.823 L769.935 317.749 L765.676 317.749 L765.676 291.823 M765.676 281.73 L769.935 281.73 L769.935 287.124 L765.676 287.124 L765.676 281.73 Z" fill="#000000" fill-rule="nonzero" fill-opacity="1" /><path clip-path="url(#clip000)" d="M790.63 304.716 Q785.468 304.716 783.477 305.897 Q781.486 307.077 781.486 309.925 Q781.486 312.193 782.968 313.536 Q784.472 314.855 787.042 314.855 Q790.583 314.855 792.713 312.355 Q794.866 309.832 794.866 305.665 L794.866 304.716 L790.63 304.716 M799.125 302.957 L799.125 317.749 L794.866 317.749 L794.866 313.813 Q793.407 316.175 791.231 317.309 Q789.055 318.42 785.907 318.42 Q781.926 318.42 779.565 316.198 Q777.227 313.952 777.227 310.202 Q777.227 305.827 780.144 303.605 Q783.083 301.383 788.893 301.383 L794.866 301.383 L794.866 300.966 Q794.866 298.027 792.921 296.429 Q791 294.809 787.505 294.809 Q785.282 294.809 783.176 295.341 Q781.069 295.874 779.125 296.939 L779.125 293.003 Q781.463 292.101 783.662 291.661 Q785.861 291.198 787.944 291.198 Q793.569 291.198 796.347 294.114 Q799.125 297.031 799.125 302.957 Z" fill="#000000" fill-rule="nonzero" fill-opacity="1" /><path clip-path="url(#clip000)" d="M826.509 304.809 Q826.509 300.11 824.565 297.448 Q822.643 294.763 819.264 294.763 Q815.884 294.763 813.94 297.448 Q812.018 300.11 812.018 304.809 Q812.018 309.508 813.94 312.193 Q815.884 314.855 819.264 314.855 Q822.643 314.855 824.565 312.193 Q826.509 309.508 826.509 304.809 M812.018 295.758 Q813.361 293.443 815.398 292.332 Q817.458 291.198 820.305 291.198 Q825.028 291.198 827.967 294.948 Q830.93 298.698 830.93 304.809 Q830.93 310.92 827.967 314.67 Q825.028 318.42 820.305 318.42 Q817.458 318.42 815.398 317.309 Q813.361 316.175 812.018 313.86 L812.018 317.749 L807.736 317.749 L807.736 281.73 L812.018 281.73 L812.018 295.758 Z" fill="#000000" fill-rule="nonzero" fill-opacity="1" /><path clip-path="url(#clip000)" d="M837.99 281.73 L842.25 281.73 L842.25 317.749 L837.99 317.749 L837.99 281.73 Z" fill="#000000" fill-rule="nonzero" fill-opacity="1" /><path clip-path="url(#clip000)" d="M873.337 303.721 L873.337 305.804 L853.754 305.804 Q854.032 310.202 856.393 312.517 Q858.777 314.809 863.013 314.809 Q865.467 314.809 867.759 314.207 Q870.074 313.605 872.342 312.401 L872.342 316.429 Q870.05 317.401 867.643 317.911 Q865.236 318.42 862.759 318.42 Q856.555 318.42 852.921 314.809 Q849.31 311.198 849.31 305.04 Q849.31 298.675 852.736 294.948 Q856.185 291.198 862.018 291.198 Q867.25 291.198 870.282 294.577 Q873.337 297.934 873.337 303.721 M869.078 302.471 Q869.032 298.976 867.111 296.892 Q865.212 294.809 862.064 294.809 Q858.5 294.809 856.347 296.823 Q854.217 298.837 853.893 302.494 L869.078 302.471 Z" fill="#000000" fill-rule="nonzero" fill-opacity="1" /><path clip-path="url(#clip000)" d="M896.856 292.587 L896.856 296.614 Q895.05 295.689 893.106 295.226 Q891.161 294.763 889.078 294.763 Q885.907 294.763 884.31 295.735 Q882.736 296.707 882.736 298.651 Q882.736 300.133 883.87 300.989 Q885.004 301.823 888.43 302.587 L889.888 302.911 Q894.425 303.883 896.323 305.665 Q898.245 307.425 898.245 310.596 Q898.245 314.207 895.374 316.313 Q892.527 318.42 887.527 318.42 Q885.444 318.42 883.175 318.003 Q880.93 317.61 878.43 316.8 L878.43 312.401 Q880.791 313.628 883.083 314.253 Q885.374 314.855 887.62 314.855 Q890.629 314.855 892.249 313.837 Q893.87 312.795 893.87 310.92 Q893.87 309.184 892.689 308.258 Q891.532 307.332 887.573 306.476 L886.092 306.128 Q882.134 305.295 880.374 303.582 Q878.615 301.846 878.615 298.837 Q878.615 295.179 881.208 293.189 Q883.8 291.198 888.569 291.198 Q890.93 291.198 893.013 291.545 Q895.097 291.892 896.856 292.587 Z" fill="#000000" fill-rule="nonzero" fill-opacity="1" /><polyline clip-path="url(#clip000)" style="stroke:#ac8d18; stroke-linecap:round; stroke-linejoin:round; stroke-width:4; stroke-opacity:1; fill:none" points="270.976,352.309 416.216,352.309 "/>
<path clip-path="url(#clip000)" d="M445.099 338.871 L445.099 365.746 L450.747 365.746 Q457.9 365.746 461.21 362.505 Q464.543 359.265 464.543 352.274 Q464.543 345.329 461.21 342.112 Q457.9 338.871 450.747 338.871 L445.099 338.871 M440.423 335.029 L450.03 335.029 Q460.076 335.029 464.775 339.218 Q469.474 343.385 469.474 352.274 Q469.474 361.209 464.752 365.399 Q460.029 369.589 450.03 369.589 L440.423 369.589 L440.423 335.029 Z" fill="#000000" fill-rule="nonzero" fill-opacity="1" /><path clip-path="url(#clip000)" d="M487.529 371.996 Q485.724 376.626 484.011 378.038 Q482.298 379.45 479.428 379.45 L476.025 379.45 L476.025 375.885 L478.525 375.885 Q480.284 375.885 481.256 375.052 Q482.228 374.218 483.409 371.116 L484.173 369.172 L473.687 343.663 L478.201 343.663 L486.302 363.941 L494.404 343.663 L498.918 343.663 L487.529 371.996 Z" fill="#000000" fill-rule="nonzero" fill-opacity="1" /><path clip-path="url(#clip000)" d="M526.349 353.941 L526.349 369.589 L522.089 369.589 L522.089 354.079 Q522.089 350.399 520.654 348.57 Q519.219 346.742 516.349 346.742 Q512.9 346.742 510.909 348.941 Q508.918 351.14 508.918 354.936 L508.918 369.589 L504.636 369.589 L504.636 343.663 L508.918 343.663 L508.918 347.691 Q510.446 345.353 512.506 344.195 Q514.589 343.038 517.298 343.038 Q521.765 343.038 524.057 345.816 Q526.349 348.57 526.349 353.941 Z" fill="#000000" fill-rule="nonzero" fill-opacity="1" /><path clip-path="url(#clip000)" d="M546.626 356.556 Q541.464 356.556 539.474 357.737 Q537.483 358.917 537.483 361.765 Q537.483 364.033 538.964 365.376 Q540.469 366.695 543.038 366.695 Q546.58 366.695 548.71 364.195 Q550.862 361.672 550.862 357.505 L550.862 356.556 L546.626 356.556 M555.122 354.797 L555.122 369.589 L550.862 369.589 L550.862 365.653 Q549.404 368.015 547.228 369.149 Q545.052 370.26 541.904 370.26 Q537.923 370.26 535.561 368.038 Q533.224 365.792 533.224 362.042 Q533.224 357.667 536.14 355.445 Q539.08 353.223 544.89 353.223 L550.862 353.223 L550.862 352.806 Q550.862 349.867 548.918 348.269 Q546.997 346.649 543.501 346.649 Q541.279 346.649 539.173 347.181 Q537.066 347.714 535.122 348.779 L535.122 344.843 Q537.46 343.941 539.659 343.501 Q541.858 343.038 543.941 343.038 Q549.566 343.038 552.344 345.954 Q555.122 348.871 555.122 354.797 Z" fill="#000000" fill-rule="nonzero" fill-opacity="1" /><path clip-path="url(#clip000)" d="M584.08 348.64 Q585.677 345.769 587.899 344.404 Q590.121 343.038 593.131 343.038 Q597.182 343.038 599.381 345.885 Q601.58 348.709 601.58 353.941 L601.58 369.589 L597.297 369.589 L597.297 354.079 Q597.297 350.353 595.978 348.547 Q594.658 346.742 591.95 346.742 Q588.64 346.742 586.719 348.941 Q584.797 351.14 584.797 354.936 L584.797 369.589 L580.515 369.589 L580.515 354.079 Q580.515 350.329 579.196 348.547 Q577.876 346.742 575.121 346.742 Q571.858 346.742 569.936 348.964 Q568.015 351.163 568.015 354.936 L568.015 369.589 L563.733 369.589 L563.733 343.663 L568.015 343.663 L568.015 347.691 Q569.473 345.306 571.51 344.172 Q573.547 343.038 576.348 343.038 Q579.172 343.038 581.14 344.473 Q583.131 345.908 584.08 348.64 Z" fill="#000000" fill-rule="nonzero" fill-opacity="1" /><path clip-path="url(#clip000)" d="M610.075 343.663 L614.334 343.663 L614.334 369.589 L610.075 369.589 L610.075 343.663 M610.075 333.57 L614.334 333.57 L614.334 338.964 L610.075 338.964 L610.075 333.57 Z" fill="#000000" fill-rule="nonzero" fill-opacity="1" /><path clip-path="url(#clip000)" d="M641.904 344.658 L641.904 348.64 Q640.098 347.644 638.269 347.158 Q636.464 346.649 634.612 346.649 Q630.468 346.649 628.177 349.288 Q625.885 351.904 625.885 356.649 Q625.885 361.394 628.177 364.033 Q630.468 366.649 634.612 366.649 Q636.464 366.649 638.269 366.163 Q640.098 365.653 641.904 364.658 L641.904 368.593 Q640.121 369.427 638.2 369.843 Q636.302 370.26 634.149 370.26 Q628.292 370.26 624.843 366.579 Q621.394 362.899 621.394 356.649 Q621.394 350.306 624.867 346.672 Q628.362 343.038 634.427 343.038 Q636.394 343.038 638.269 343.455 Q640.144 343.848 641.904 344.658 Z" fill="#000000" fill-rule="nonzero" fill-opacity="1" /><path clip-path="url(#clip000)" d="M665.839 344.427 L665.839 348.454 Q664.033 347.529 662.089 347.066 Q660.144 346.603 658.061 346.603 Q654.89 346.603 653.292 347.575 Q651.718 348.547 651.718 350.491 Q651.718 351.973 652.853 352.829 Q653.987 353.663 657.413 354.427 L658.871 354.751 Q663.408 355.723 665.306 357.505 Q667.227 359.265 667.227 362.436 Q667.227 366.047 664.357 368.153 Q661.51 370.26 656.51 370.26 Q654.427 370.26 652.158 369.843 Q649.913 369.45 647.413 368.64 L647.413 364.241 Q649.774 365.468 652.065 366.093 Q654.357 366.695 656.603 366.695 Q659.612 366.695 661.232 365.677 Q662.852 364.635 662.852 362.76 Q662.852 361.024 661.672 360.098 Q660.515 359.172 656.556 358.316 L655.075 357.968 Q651.116 357.135 649.357 355.422 Q647.598 353.686 647.598 350.677 Q647.598 347.019 650.191 345.029 Q652.783 343.038 657.552 343.038 Q659.913 343.038 661.996 343.385 Q664.079 343.732 665.839 344.427 Z" fill="#000000" fill-rule="nonzero" fill-opacity="1" /><path clip-path="url(#clip000)" d="M686.024 343.663 L690.538 343.663 L698.639 365.422 L706.741 343.663 L711.255 343.663 L701.533 369.589 L695.746 369.589 L686.024 343.663 Z" fill="#000000" fill-rule="nonzero" fill-opacity="1" /><path clip-path="url(#clip000)" d="M728.917 356.556 Q723.755 356.556 721.764 357.737 Q719.773 358.917 719.773 361.765 Q719.773 364.033 721.255 365.376 Q722.76 366.695 725.329 366.695 Q728.871 366.695 731 364.195 Q733.153 361.672 733.153 357.505 L733.153 356.556 L728.917 356.556 M737.412 354.797 L737.412 369.589 L733.153 369.589 L733.153 365.653 Q731.695 368.015 729.519 369.149 Q727.343 370.26 724.195 370.26 Q720.213 370.26 717.852 368.038 Q715.514 365.792 715.514 362.042 Q715.514 357.667 718.431 355.445 Q721.371 353.223 727.181 353.223 L733.153 353.223 L733.153 352.806 Q733.153 349.867 731.209 348.269 Q729.287 346.649 725.792 346.649 Q723.57 346.649 721.463 347.181 Q719.357 347.714 717.412 348.779 L717.412 344.843 Q719.75 343.941 721.949 343.501 Q724.148 343.038 726.232 343.038 Q731.857 343.038 734.634 345.954 Q737.412 348.871 737.412 354.797 Z" fill="#000000" fill-rule="nonzero" fill-opacity="1" /><path clip-path="url(#clip000)" d="M761.208 347.644 Q760.491 347.228 759.634 347.042 Q758.801 346.834 757.783 346.834 Q754.171 346.834 752.227 349.195 Q750.306 351.533 750.306 355.931 L750.306 369.589 L746.023 369.589 L746.023 343.663 L750.306 343.663 L750.306 347.691 Q751.648 345.329 753.801 344.195 Q755.954 343.038 759.033 343.038 Q759.472 343.038 760.005 343.107 Q760.537 343.154 761.185 343.269 L761.208 347.644 Z" fill="#000000" fill-rule="nonzero" fill-opacity="1" /><path clip-path="url(#clip000)" d="M765.676 343.663 L769.935 343.663 L769.935 369.589 L765.676 369.589 L765.676 343.663 M765.676 333.57 L769.935 333.57 L769.935 338.964 L765.676 338.964 L765.676 333.57 Z" fill="#000000" fill-rule="nonzero" fill-opacity="1" /><path clip-path="url(#clip000)" d="M790.63 356.556 Q785.468 356.556 783.477 357.737 Q781.486 358.917 781.486 361.765 Q781.486 364.033 782.968 365.376 Q784.472 366.695 787.042 366.695 Q790.583 366.695 792.713 364.195 Q794.866 361.672 794.866 357.505 L794.866 356.556 L790.63 356.556 M799.125 354.797 L799.125 369.589 L794.866 369.589 L794.866 365.653 Q793.407 368.015 791.231 369.149 Q789.055 370.26 785.907 370.26 Q781.926 370.26 779.565 368.038 Q777.227 365.792 777.227 362.042 Q777.227 357.667 780.144 355.445 Q783.083 353.223 788.893 353.223 L794.866 353.223 L794.866 352.806 Q794.866 349.867 792.921 348.269 Q791 346.649 787.505 346.649 Q785.282 346.649 783.176 347.181 Q781.069 347.714 779.125 348.779 L779.125 344.843 Q781.463 343.941 783.662 343.501 Q785.861 343.038 787.944 343.038 Q793.569 343.038 796.347 345.954 Q799.125 348.871 799.125 354.797 Z" fill="#000000" fill-rule="nonzero" fill-opacity="1" /><path clip-path="url(#clip000)" d="M826.509 356.649 Q826.509 351.95 824.565 349.288 Q822.643 346.603 819.264 346.603 Q815.884 346.603 813.94 349.288 Q812.018 351.95 812.018 356.649 Q812.018 361.348 813.94 364.033 Q815.884 366.695 819.264 366.695 Q822.643 366.695 824.565 364.033 Q826.509 361.348 826.509 356.649 M812.018 347.598 Q813.361 345.283 815.398 344.172 Q817.458 343.038 820.305 343.038 Q825.028 343.038 827.967 346.788 Q830.93 350.538 830.93 356.649 Q830.93 362.76 827.967 366.51 Q825.028 370.26 820.305 370.26 Q817.458 370.26 815.398 369.149 Q813.361 368.015 812.018 365.7 L812.018 369.589 L807.736 369.589 L807.736 333.57 L812.018 333.57 L812.018 347.598 Z" fill="#000000" fill-rule="nonzero" fill-opacity="1" /><path clip-path="url(#clip000)" d="M837.99 333.57 L842.25 333.57 L842.25 369.589 L837.99 369.589 L837.99 333.57 Z" fill="#000000" fill-rule="nonzero" fill-opacity="1" /><path clip-path="url(#clip000)" d="M873.337 355.561 L873.337 357.644 L853.754 357.644 Q854.032 362.042 856.393 364.357 Q858.777 366.649 863.013 366.649 Q865.467 366.649 867.759 366.047 Q870.074 365.445 872.342 364.241 L872.342 368.269 Q870.05 369.241 867.643 369.751 Q865.236 370.26 862.759 370.26 Q856.555 370.26 852.921 366.649 Q849.31 363.038 849.31 356.88 Q849.31 350.515 852.736 346.788 Q856.185 343.038 862.018 343.038 Q867.25 343.038 870.282 346.417 Q873.337 349.774 873.337 355.561 M869.078 354.311 Q869.032 350.816 867.111 348.732 Q865.212 346.649 862.064 346.649 Q858.5 346.649 856.347 348.663 Q854.217 350.677 853.893 354.334 L869.078 354.311 Z" fill="#000000" fill-rule="nonzero" fill-opacity="1" /><path clip-path="url(#clip000)" d="M896.856 344.427 L896.856 348.454 Q895.05 347.529 893.106 347.066 Q891.161 346.603 889.078 346.603 Q885.907 346.603 884.31 347.575 Q882.736 348.547 882.736 350.491 Q882.736 351.973 883.87 352.829 Q885.004 353.663 888.43 354.427 L889.888 354.751 Q894.425 355.723 896.323 357.505 Q898.245 359.265 898.245 362.436 Q898.245 366.047 895.374 368.153 Q892.527 370.26 887.527 370.26 Q885.444 370.26 883.175 369.843 Q880.93 369.45 878.43 368.64 L878.43 364.241 Q880.791 365.468 883.083 366.093 Q885.374 366.695 887.62 366.695 Q890.629 366.695 892.249 365.677 Q893.87 364.635 893.87 362.76 Q893.87 361.024 892.689 360.098 Q891.532 359.172 887.573 358.316 L886.092 357.968 Q882.134 357.135 880.374 355.422 Q878.615 353.686 878.615 350.677 Q878.615 347.019 881.208 345.029 Q883.8 343.038 888.569 343.038 Q890.93 343.038 893.013 343.385 Q895.097 343.732 896.856 344.427 Z" fill="#000000" fill-rule="nonzero" fill-opacity="1" /></svg>
