<?xml version="1.0" encoding="utf-8"?>
<svg xmlns="http://www.w3.org/2000/svg" xmlns:xlink="http://www.w3.org/1999/xlink" width="600" height="400" viewBox="0 0 2400 1600">
<defs>
  <clipPath id="clip030">
    <rect x="0" y="0" width="2400" height="1600"/>
  </clipPath>
</defs>
<path clip-path="url(#clip030)" d="M0 1600 L2400 1600 L2400 0 L0 0  Z" fill="#ffffff" fill-rule="evenodd" fill-opacity="1"/>
<defs>
  <clipPath id="clip031">
    <rect x="480" y="0" width="1681" height="1600"/>
  </clipPath>
</defs>
<path clip-path="url(#clip030)" d="M210.746 1423.18 L2352.76 1423.18 L2352.76 47.2441 L210.746 47.2441  Z" fill="#ffffff" fill-rule="evenodd" fill-opacity="1"/>
<defs>
  <clipPath id="clip032">
    <rect x="210" y="47" width="2143" height="1377"/>
  </clipPath>
</defs>
<polyline clip-path="url(#clip032)" style="stroke:#000000; stroke-linecap:round; stroke-linejoin:round; stroke-width:2; stroke-opacity:0.1; fill:none" points="271.369,1423.18 271.369,47.2441 "/>
<polyline clip-path="url(#clip032)" style="stroke:#000000; stroke-linecap:round; stroke-linejoin:round; stroke-width:2; stroke-opacity:0.1; fill:none" points="776.56,1423.18 776.56,47.2441 "/>
<polyline clip-path="url(#clip032)" style="stroke:#000000; stroke-linecap:round; stroke-linejoin:round; stroke-width:2; stroke-opacity:0.1; fill:none" points="1281.75,1423.18 1281.75,47.2441 "/>
<polyline clip-path="url(#clip032)" style="stroke:#000000; stroke-linecap:round; stroke-linejoin:round; stroke-width:2; stroke-opacity:0.1; fill:none" points="1786.94,1423.18 1786.94,47.2441 "/>
<polyline clip-path="url(#clip032)" style="stroke:#000000; stroke-linecap:round; stroke-linejoin:round; stroke-width:2; stroke-opacity:0.1; fill:none" points="2292.13,1423.18 2292.13,47.2441 "/>
<polyline clip-path="url(#clip030)" style="stroke:#000000; stroke-linecap:round; stroke-linejoin:round; stroke-width:4; stroke-opacity:1; fill:none" points="210.746,1423.18 2352.76,1423.18 "/>
<polyline clip-path="url(#clip030)" style="stroke:#000000; stroke-linecap:round; stroke-linejoin:round; stroke-width:4; stroke-opacity:1; fill:none" points="271.369,1423.18 271.369,1404.28 "/>
<polyline clip-path="url(#clip030)" style="stroke:#000000; stroke-linecap:round; stroke-linejoin:round; stroke-width:4; stroke-opacity:1; fill:none" points="776.56,1423.18 776.56,1404.28 "/>
<polyline clip-path="url(#clip030)" style="stroke:#000000; stroke-linecap:round; stroke-linejoin:round; stroke-width:4; stroke-opacity:1; fill:none" points="1281.75,1423.18 1281.75,1404.28 "/>
<polyline clip-path="url(#clip030)" style="stroke:#000000; stroke-linecap:round; stroke-linejoin:round; stroke-width:4; stroke-opacity:1; fill:none" points="1786.94,1423.18 1786.94,1404.28 "/>
<polyline clip-path="url(#clip030)" style="stroke:#000000; stroke-linecap:round; stroke-linejoin:round; stroke-width:4; stroke-opacity:1; fill:none" points="2292.13,1423.18 2292.13,1404.28 "/>
<path clip-path="url(#clip030)" d="M248.753 1454.1 Q245.142 1454.1 243.313 1457.66 Q241.508 1461.2 241.508 1468.33 Q241.508 1475.44 243.313 1479.01 Q245.142 1482.55 248.753 1482.55 Q252.387 1482.55 254.193 1479.01 Q256.022 1475.44 256.022 1468.33 Q256.022 1461.2 254.193 1457.66 Q252.387 1454.1 248.753 1454.1 M248.753 1450.39 Q254.563 1450.39 257.619 1455 Q260.698 1459.58 260.698 1468.33 Q260.698 1477.06 257.619 1481.67 Q254.563 1486.25 248.753 1486.25 Q242.943 1486.25 239.864 1481.67 Q236.809 1477.06 236.809 1468.33 Q236.809 1459.58 239.864 1455 Q242.943 1450.39 248.753 1450.39 Z" fill="#000000" fill-rule="nonzero" fill-opacity="1" /><path clip-path="url(#clip030)" d="M268.915 1479.7 L273.799 1479.7 L273.799 1485.58 L268.915 1485.58 L268.915 1479.7 Z" fill="#000000" fill-rule="nonzero" fill-opacity="1" /><path clip-path="url(#clip030)" d="M293.984 1454.1 Q290.373 1454.1 288.545 1457.66 Q286.739 1461.2 286.739 1468.33 Q286.739 1475.44 288.545 1479.01 Q290.373 1482.55 293.984 1482.55 Q297.619 1482.55 299.424 1479.01 Q301.253 1475.44 301.253 1468.33 Q301.253 1461.2 299.424 1457.66 Q297.619 1454.1 293.984 1454.1 M293.984 1450.39 Q299.795 1450.39 302.85 1455 Q305.929 1459.58 305.929 1468.33 Q305.929 1477.06 302.85 1481.67 Q299.795 1486.25 293.984 1486.25 Q288.174 1486.25 285.096 1481.67 Q282.04 1477.06 282.04 1468.33 Q282.04 1459.58 285.096 1455 Q288.174 1450.39 293.984 1450.39 Z" fill="#000000" fill-rule="nonzero" fill-opacity="1" /><path clip-path="url(#clip030)" d="M748.296 1481.64 L764.616 1481.64 L764.616 1485.58 L742.671 1485.58 L742.671 1481.64 Q745.333 1478.89 749.917 1474.26 Q754.523 1469.61 755.704 1468.27 Q757.949 1465.74 758.829 1464.01 Q759.731 1462.25 759.731 1460.56 Q759.731 1457.8 757.787 1456.07 Q755.866 1454.33 752.764 1454.33 Q750.565 1454.33 748.111 1455.09 Q745.68 1455.86 742.903 1457.41 L742.903 1452.69 Q745.727 1451.55 748.18 1450.97 Q750.634 1450.39 752.671 1450.39 Q758.041 1450.39 761.236 1453.08 Q764.43 1455.77 764.43 1460.26 Q764.43 1462.39 763.62 1464.31 Q762.833 1466.2 760.727 1468.8 Q760.148 1469.47 757.046 1472.69 Q753.944 1475.88 748.296 1481.64 Z" fill="#000000" fill-rule="nonzero" fill-opacity="1" /><path clip-path="url(#clip030)" d="M774.43 1479.7 L779.315 1479.7 L779.315 1485.58 L774.43 1485.58 L774.43 1479.7 Z" fill="#000000" fill-rule="nonzero" fill-opacity="1" /><path clip-path="url(#clip030)" d="M789.546 1451.02 L807.902 1451.02 L807.902 1454.96 L793.828 1454.96 L793.828 1463.43 Q794.847 1463.08 795.865 1462.92 Q796.884 1462.73 797.902 1462.73 Q803.689 1462.73 807.069 1465.9 Q810.449 1469.08 810.449 1474.49 Q810.449 1480.07 806.976 1483.17 Q803.504 1486.25 797.185 1486.25 Q795.009 1486.25 792.74 1485.88 Q790.495 1485.51 788.088 1484.77 L788.088 1480.07 Q790.171 1481.2 792.393 1481.76 Q794.615 1482.32 797.092 1482.32 Q801.097 1482.32 803.435 1480.21 Q805.773 1478.1 805.773 1474.49 Q805.773 1470.88 803.435 1468.77 Q801.097 1466.67 797.092 1466.67 Q795.217 1466.67 793.342 1467.08 Q791.49 1467.5 789.546 1468.38 L789.546 1451.02 Z" fill="#000000" fill-rule="nonzero" fill-opacity="1" /><path clip-path="url(#clip030)" d="M1248.92 1451.02 L1267.27 1451.02 L1267.27 1454.96 L1253.2 1454.96 L1253.2 1463.43 Q1254.22 1463.08 1255.23 1462.92 Q1256.25 1462.73 1257.27 1462.73 Q1263.06 1462.73 1266.44 1465.9 Q1269.82 1469.08 1269.82 1474.49 Q1269.82 1480.07 1266.35 1483.17 Q1262.87 1486.25 1256.55 1486.25 Q1254.38 1486.25 1252.11 1485.88 Q1249.86 1485.51 1247.46 1484.77 L1247.46 1480.07 Q1249.54 1481.2 1251.76 1481.76 Q1253.98 1482.32 1256.46 1482.32 Q1260.47 1482.32 1262.8 1480.21 Q1265.14 1478.1 1265.14 1474.49 Q1265.14 1470.88 1262.8 1468.77 Q1260.47 1466.67 1256.46 1466.67 Q1254.59 1466.67 1252.71 1467.08 Q1250.86 1467.5 1248.92 1468.38 L1248.92 1451.02 Z" fill="#000000" fill-rule="nonzero" fill-opacity="1" /><path clip-path="url(#clip030)" d="M1279.03 1479.7 L1283.92 1479.7 L1283.92 1485.58 L1279.03 1485.58 L1279.03 1479.7 Z" fill="#000000" fill-rule="nonzero" fill-opacity="1" /><path clip-path="url(#clip030)" d="M1304.1 1454.1 Q1300.49 1454.1 1298.66 1457.66 Q1296.86 1461.2 1296.86 1468.33 Q1296.86 1475.44 1298.66 1479.01 Q1300.49 1482.55 1304.1 1482.55 Q1307.73 1482.55 1309.54 1479.01 Q1311.37 1475.44 1311.37 1468.33 Q1311.37 1461.2 1309.54 1457.66 Q1307.73 1454.1 1304.1 1454.1 M1304.1 1450.39 Q1309.91 1450.39 1312.97 1455 Q1316.04 1459.58 1316.04 1468.33 Q1316.04 1477.06 1312.97 1481.67 Q1309.91 1486.25 1304.1 1486.25 Q1298.29 1486.25 1295.21 1481.67 Q1292.16 1477.06 1292.16 1468.33 Q1292.16 1459.58 1295.21 1455 Q1298.29 1450.39 1304.1 1450.39 Z" fill="#000000" fill-rule="nonzero" fill-opacity="1" /><path clip-path="url(#clip030)" d="M1753.26 1451.02 L1775.48 1451.02 L1775.48 1453.01 L1762.94 1485.58 L1758.05 1485.58 L1769.86 1454.96 L1753.26 1454.96 L1753.26 1451.02 Z" fill="#000000" fill-rule="nonzero" fill-opacity="1" /><path clip-path="url(#clip030)" d="M1784.6 1479.7 L1789.49 1479.7 L1789.49 1485.58 L1784.6 1485.58 L1784.6 1479.7 Z" fill="#000000" fill-rule="nonzero" fill-opacity="1" /><path clip-path="url(#clip030)" d="M1799.72 1451.02 L1818.08 1451.02 L1818.08 1454.96 L1804 1454.96 L1804 1463.43 Q1805.02 1463.08 1806.04 1462.92 Q1807.06 1462.73 1808.08 1462.73 Q1813.86 1462.73 1817.24 1465.9 Q1820.62 1469.08 1820.62 1474.49 Q1820.62 1480.07 1817.15 1483.17 Q1813.68 1486.25 1807.36 1486.25 Q1805.18 1486.25 1802.91 1485.88 Q1800.67 1485.51 1798.26 1484.77 L1798.26 1480.07 Q1800.34 1481.2 1802.57 1481.76 Q1804.79 1482.32 1807.27 1482.32 Q1811.27 1482.32 1813.61 1480.21 Q1815.95 1478.1 1815.95 1474.49 Q1815.95 1470.88 1813.61 1468.77 Q1811.27 1466.67 1807.27 1466.67 Q1805.39 1466.67 1803.52 1467.08 Q1801.66 1467.5 1799.72 1468.38 L1799.72 1451.02 Z" fill="#000000" fill-rule="nonzero" fill-opacity="1" /><path clip-path="url(#clip030)" d="M2244.2 1481.64 L2251.84 1481.64 L2251.84 1455.28 L2243.53 1456.95 L2243.53 1452.69 L2251.8 1451.02 L2256.47 1451.02 L2256.47 1481.64 L2264.11 1481.64 L2264.11 1485.58 L2244.2 1485.58 L2244.2 1481.64 Z" fill="#000000" fill-rule="nonzero" fill-opacity="1" /><path clip-path="url(#clip030)" d="M2283.56 1454.1 Q2279.95 1454.1 2278.12 1457.66 Q2276.31 1461.2 2276.31 1468.33 Q2276.31 1475.44 2278.12 1479.01 Q2279.95 1482.55 2283.56 1482.55 Q2287.19 1482.55 2289 1479.01 Q2290.83 1475.44 2290.83 1468.33 Q2290.83 1461.2 2289 1457.66 Q2287.19 1454.1 2283.56 1454.1 M2283.56 1450.39 Q2289.37 1450.39 2292.42 1455 Q2295.5 1459.58 2295.5 1468.33 Q2295.5 1477.06 2292.42 1481.67 Q2289.37 1486.25 2283.56 1486.25 Q2277.75 1486.25 2274.67 1481.67 Q2271.61 1477.06 2271.61 1468.33 Q2271.61 1459.58 2274.67 1455 Q2277.75 1450.39 2283.56 1450.39 Z" fill="#000000" fill-rule="nonzero" fill-opacity="1" /><path clip-path="url(#clip030)" d="M2303.72 1479.7 L2308.6 1479.7 L2308.6 1485.58 L2303.72 1485.58 L2303.72 1479.7 Z" fill="#000000" fill-rule="nonzero" fill-opacity="1" /><path clip-path="url(#clip030)" d="M2328.79 1454.1 Q2325.18 1454.1 2323.35 1457.66 Q2321.54 1461.2 2321.54 1468.33 Q2321.54 1475.44 2323.35 1479.01 Q2325.18 1482.55 2328.79 1482.55 Q2332.42 1482.55 2334.23 1479.01 Q2336.06 1475.44 2336.06 1468.33 Q2336.06 1461.2 2334.23 1457.66 Q2332.42 1454.1 2328.79 1454.1 M2328.79 1450.39 Q2334.6 1450.39 2337.65 1455 Q2340.73 1459.58 2340.73 1468.33 Q2340.73 1477.06 2337.65 1481.67 Q2334.6 1486.25 2328.79 1486.25 Q2322.98 1486.25 2319.9 1481.67 Q2316.84 1477.06 2316.84 1468.33 Q2316.84 1459.58 2319.9 1455 Q2322.98 1450.39 2328.79 1450.39 Z" fill="#000000" fill-rule="nonzero" fill-opacity="1" /><path clip-path="url(#clip030)" d="M1280.81 1522.27 L1280.81 1532.4 L1292.87 1532.4 L1292.87 1536.95 L1280.81 1536.95 L1280.81 1556.3 Q1280.81 1560.66 1281.99 1561.9 Q1283.2 1563.14 1286.86 1563.14 L1292.87 1563.14 L1292.87 1568.04 L1286.86 1568.04 Q1280.08 1568.04 1277.5 1565.53 Q1274.92 1562.98 1274.92 1556.3 L1274.92 1536.95 L1270.63 1536.95 L1270.63 1532.4 L1274.92 1532.4 L1274.92 1522.27 L1280.81 1522.27 Z" fill="#000000" fill-rule="nonzero" fill-opacity="1" /><polyline clip-path="url(#clip032)" style="stroke:#000000; stroke-linecap:round; stroke-linejoin:round; stroke-width:2; stroke-opacity:0.1; fill:none" points="210.746,1288.17 2352.76,1288.17 "/>
<polyline clip-path="url(#clip032)" style="stroke:#000000; stroke-linecap:round; stroke-linejoin:round; stroke-width:2; stroke-opacity:0.1; fill:none" points="210.746,969.694 2352.76,969.694 "/>
<polyline clip-path="url(#clip032)" style="stroke:#000000; stroke-linecap:round; stroke-linejoin:round; stroke-width:2; stroke-opacity:0.1; fill:none" points="210.746,651.215 2352.76,651.215 "/>
<polyline clip-path="url(#clip032)" style="stroke:#000000; stroke-linecap:round; stroke-linejoin:round; stroke-width:2; stroke-opacity:0.1; fill:none" points="210.746,332.736 2352.76,332.736 "/>
<polyline clip-path="url(#clip030)" style="stroke:#000000; stroke-linecap:round; stroke-linejoin:round; stroke-width:4; stroke-opacity:1; fill:none" points="210.746,1423.18 210.746,47.2441 "/>
<polyline clip-path="url(#clip030)" style="stroke:#000000; stroke-linecap:round; stroke-linejoin:round; stroke-width:4; stroke-opacity:1; fill:none" points="210.746,1288.17 229.644,1288.17 "/>
<polyline clip-path="url(#clip030)" style="stroke:#000000; stroke-linecap:round; stroke-linejoin:round; stroke-width:4; stroke-opacity:1; fill:none" points="210.746,969.694 229.644,969.694 "/>
<polyline clip-path="url(#clip030)" style="stroke:#000000; stroke-linecap:round; stroke-linejoin:round; stroke-width:4; stroke-opacity:1; fill:none" points="210.746,651.215 229.644,651.215 "/>
<polyline clip-path="url(#clip030)" style="stroke:#000000; stroke-linecap:round; stroke-linejoin:round; stroke-width:4; stroke-opacity:1; fill:none" points="210.746,332.736 229.644,332.736 "/>
<path clip-path="url(#clip030)" d="M114.26 1288.62 L143.936 1288.62 L143.936 1292.56 L114.26 1292.56 L114.26 1288.62 Z" fill="#000000" fill-rule="nonzero" fill-opacity="1" /><path clip-path="url(#clip030)" d="M154.839 1301.52 L162.477 1301.52 L162.477 1275.15 L154.167 1276.82 L154.167 1272.56 L162.431 1270.89 L167.107 1270.89 L167.107 1301.52 L174.746 1301.52 L174.746 1305.45 L154.839 1305.45 L154.839 1301.52 Z" fill="#000000" fill-rule="nonzero" fill-opacity="1" /><path clip-path="url(#clip030)" d="M162.802 955.493 Q159.19 955.493 157.362 959.058 Q155.556 962.599 155.556 969.729 Q155.556 976.835 157.362 980.4 Q159.19 983.942 162.802 983.942 Q166.436 983.942 168.241 980.4 Q170.07 976.835 170.07 969.729 Q170.07 962.599 168.241 959.058 Q166.436 955.493 162.802 955.493 M162.802 951.789 Q168.612 951.789 171.667 956.396 Q174.746 960.979 174.746 969.729 Q174.746 978.456 171.667 983.062 Q168.612 987.646 162.802 987.646 Q156.991 987.646 153.913 983.062 Q150.857 978.456 150.857 969.729 Q150.857 960.979 153.913 956.396 Q156.991 951.789 162.802 951.789 Z" fill="#000000" fill-rule="nonzero" fill-opacity="1" /><path clip-path="url(#clip030)" d="M154.839 664.56 L162.477 664.56 L162.477 638.194 L154.167 639.861 L154.167 635.602 L162.431 633.935 L167.107 633.935 L167.107 664.56 L174.746 664.56 L174.746 668.495 L154.839 668.495 L154.839 664.56 Z" fill="#000000" fill-rule="nonzero" fill-opacity="1" /><path clip-path="url(#clip030)" d="M158.427 346.081 L174.746 346.081 L174.746 350.016 L152.802 350.016 L152.802 346.081 Q155.464 343.326 160.047 338.697 Q164.653 334.044 165.834 332.701 Q168.079 330.178 168.959 328.442 Q169.862 326.683 169.862 324.993 Q169.862 322.238 167.917 320.502 Q165.996 318.766 162.894 318.766 Q160.695 318.766 158.241 319.53 Q155.811 320.294 153.033 321.845 L153.033 317.123 Q155.857 315.988 158.311 315.41 Q160.765 314.831 162.802 314.831 Q168.172 314.831 171.366 317.516 Q174.561 320.201 174.561 324.692 Q174.561 326.822 173.751 328.743 Q172.964 330.641 170.857 333.234 Q170.278 333.905 167.177 337.122 Q164.075 340.317 158.427 346.081 Z" fill="#000000" fill-rule="nonzero" fill-opacity="1" /><path clip-path="url(#clip030)" d="M20.8447 948.702 Q20.8447 955.704 26.0645 959.842 Q31.2844 963.948 40.2919 963.948 Q49.2675 963.948 54.4874 959.842 Q59.7073 955.704 59.7073 948.702 Q59.7073 941.7 54.4874 937.626 Q49.2675 933.52 40.2919 933.52 Q31.2844 933.52 26.0645 937.626 Q20.8447 941.7 20.8447 948.702 M15.6248 948.702 Q15.6248 938.708 22.3406 932.724 Q29.0246 926.74 40.2919 926.74 Q51.5274 926.74 58.2432 932.724 Q64.9272 938.708 64.9272 948.702 Q64.9272 958.728 58.2432 964.743 Q51.5592 970.727 40.2919 970.727 Q29.0246 970.727 22.3406 964.743 Q15.6248 958.728 15.6248 948.702 Z" fill="#000000" fill-rule="nonzero" fill-opacity="1" /><path clip-path="url(#clip030)" d="M49.9359 917.542 L28.3562 917.542 L28.3562 911.685 L49.7131 911.685 Q54.7739 911.685 57.3202 909.712 Q59.8346 907.739 59.8346 903.792 Q59.8346 899.049 56.8109 896.312 Q53.7872 893.543 48.5673 893.543 L28.3562 893.543 L28.3562 887.687 L64.0042 887.687 L64.0042 893.543 L58.5296 893.543 Q61.7762 895.676 63.3676 898.508 Q64.9272 901.309 64.9272 905.033 Q64.9272 911.176 61.1078 914.359 Q57.2883 917.542 49.9359 917.542 M27.4968 902.805 L27.4968 902.805 Z" fill="#000000" fill-rule="nonzero" fill-opacity="1" /><path clip-path="url(#clip030)" d="M18.2347 869.831 L28.3562 869.831 L28.3562 857.768 L32.9077 857.768 L32.9077 869.831 L52.2594 869.831 Q56.6199 869.831 57.8613 868.653 Q59.1026 867.444 59.1026 863.783 L59.1026 857.768 L64.0042 857.768 L64.0042 863.783 Q64.0042 870.563 61.4897 873.141 Q58.9434 875.719 52.2594 875.719 L32.9077 875.719 L32.9077 880.016 L28.3562 880.016 L28.3562 875.719 L18.2347 875.719 L18.2347 869.831 Z" fill="#000000" fill-rule="nonzero" fill-opacity="1" /><path clip-path="url(#clip030)" d="M58.657 844.4 L77.5631 844.4 L77.5631 850.288 L28.3562 850.288 L28.3562 844.4 L33.7671 844.4 Q30.5842 842.554 29.0564 839.753 Q27.4968 836.92 27.4968 833.005 Q27.4968 826.512 32.6531 822.47 Q37.8093 818.396 46.212 818.396 Q54.6147 818.396 59.771 822.47 Q64.9272 826.512 64.9272 833.005 Q64.9272 836.92 63.3994 839.753 Q61.8398 842.554 58.657 844.4 M46.212 824.475 Q39.7508 824.475 36.0905 827.149 Q32.3984 829.79 32.3984 834.437 Q32.3984 839.084 36.0905 841.758 Q39.7508 844.4 46.212 844.4 Q52.6732 844.4 56.3653 841.758 Q60.0256 839.084 60.0256 834.437 Q60.0256 829.79 56.3653 827.149 Q52.6732 824.475 46.212 824.475 Z" fill="#000000" fill-rule="nonzero" fill-opacity="1" /><path clip-path="url(#clip030)" d="M49.9359 809.293 L28.3562 809.293 L28.3562 803.436 L49.7131 803.436 Q54.7739 803.436 57.3202 801.463 Q59.8346 799.49 59.8346 795.543 Q59.8346 790.801 56.8109 788.063 Q53.7872 785.294 48.5673 785.294 L28.3562 785.294 L28.3562 779.438 L64.0042 779.438 L64.0042 785.294 L58.5296 785.294 Q61.7762 787.427 63.3676 790.259 Q64.9272 793.06 64.9272 796.784 Q64.9272 802.927 61.1078 806.11 Q57.2883 809.293 49.9359 809.293 M27.4968 794.556 L27.4968 794.556 Z" fill="#000000" fill-rule="nonzero" fill-opacity="1" /><path clip-path="url(#clip030)" d="M18.2347 761.582 L28.3562 761.582 L28.3562 749.519 L32.9077 749.519 L32.9077 761.582 L52.2594 761.582 Q56.6199 761.582 57.8613 760.404 Q59.1026 759.195 59.1026 755.534 L59.1026 749.519 L64.0042 749.519 L64.0042 755.534 Q64.0042 762.314 61.4897 764.892 Q58.9434 767.47 52.2594 767.47 L32.9077 767.47 L32.9077 771.767 L28.3562 771.767 L28.3562 767.47 L18.2347 767.47 L18.2347 761.582 Z" fill="#000000" fill-rule="nonzero" fill-opacity="1" /><path clip-path="url(#clip030)" d="M21.7677 735.132 L39.6235 735.132 L39.6235 727.048 Q39.6235 722.56 37.3 720.109 Q34.9765 717.659 30.6797 717.659 Q26.4147 717.659 24.0912 720.109 Q21.7677 722.56 21.7677 727.048 L21.7677 735.132 M16.4842 741.562 L16.4842 727.048 Q16.4842 719.059 20.1126 714.985 Q23.7092 710.879 30.6797 710.879 Q37.7138 710.879 41.3104 714.985 Q44.907 719.059 44.907 727.048 L44.907 735.132 L64.0042 735.132 L64.0042 741.562 L16.4842 741.562 Z" fill="#000000" fill-rule="nonzero" fill-opacity="1" /><path clip-path="url(#clip030)" d="M32.4621 691.018 Q32.4621 695.729 36.1542 698.466 Q39.8145 701.203 46.212 701.203 Q52.6095 701.203 56.3017 698.498 Q59.9619 695.761 59.9619 691.018 Q59.9619 686.339 56.2698 683.602 Q52.5777 680.865 46.212 680.865 Q39.8781 680.865 36.186 683.602 Q32.4621 686.339 32.4621 691.018 M27.4968 691.018 Q27.4968 683.379 32.4621 679.019 Q37.4273 674.658 46.212 674.658 Q54.9649 674.658 59.9619 679.019 Q64.9272 683.379 64.9272 691.018 Q64.9272 698.689 59.9619 703.049 Q54.9649 707.378 46.212 707.378 Q37.4273 707.378 32.4621 703.049 Q27.4968 698.689 27.4968 691.018 Z" fill="#000000" fill-rule="nonzero" fill-opacity="1" /><path clip-path="url(#clip030)" d="M29.4065 642.225 L34.9447 642.225 Q33.6716 644.708 33.035 647.381 Q32.3984 650.055 32.3984 652.919 Q32.3984 657.28 33.7352 659.476 Q35.072 661.64 37.7456 661.64 Q39.7826 661.64 40.9603 660.081 Q42.1061 658.521 43.1565 653.81 L43.6021 651.805 Q44.9389 645.567 47.3897 642.957 Q49.8086 640.315 54.1691 640.315 Q59.1344 640.315 62.0308 644.262 Q64.9272 648.177 64.9272 655.052 Q64.9272 657.916 64.3543 661.036 Q63.8132 664.123 62.6992 667.56 L56.6518 667.56 Q58.3387 664.314 59.198 661.163 Q60.0256 658.012 60.0256 654.924 Q60.0256 650.787 58.6251 648.559 Q57.1929 646.331 54.6147 646.331 Q52.2276 646.331 50.9545 647.954 Q49.6813 649.545 48.5037 654.988 L48.0262 657.025 Q46.8804 662.468 44.5251 664.887 Q42.138 667.306 38.0002 667.306 Q32.9713 667.306 30.2341 663.741 Q27.4968 660.176 27.4968 653.62 Q27.4968 650.373 27.9743 647.508 Q28.4517 644.644 29.4065 642.225 Z" fill="#000000" fill-rule="nonzero" fill-opacity="1" /><path clip-path="url(#clip030)" d="M28.3562 630.989 L28.3562 625.133 L64.0042 625.133 L64.0042 630.989 L28.3562 630.989 M14.479 630.989 L14.479 625.133 L21.895 625.133 L21.895 630.989 L14.479 630.989 Z" fill="#000000" fill-rule="nonzero" fill-opacity="1" /><path clip-path="url(#clip030)" d="M18.2347 607.086 L28.3562 607.086 L28.3562 595.023 L32.9077 595.023 L32.9077 607.086 L52.2594 607.086 Q56.6199 607.086 57.8613 605.909 Q59.1026 604.699 59.1026 601.039 L59.1026 595.023 L64.0042 595.023 L64.0042 601.039 Q64.0042 607.818 61.4897 610.396 Q58.9434 612.974 52.2594 612.974 L32.9077 612.974 L32.9077 617.271 L28.3562 617.271 L28.3562 612.974 L18.2347 612.974 L18.2347 607.086 Z" fill="#000000" fill-rule="nonzero" fill-opacity="1" /><path clip-path="url(#clip030)" d="M28.3562 587.321 L28.3562 581.464 L64.0042 581.464 L64.0042 587.321 L28.3562 587.321 M14.479 587.321 L14.479 581.464 L21.895 581.464 L21.895 587.321 L14.479 587.321 Z" fill="#000000" fill-rule="nonzero" fill-opacity="1" /><path clip-path="url(#clip030)" d="M32.4621 555.397 Q32.4621 560.107 36.1542 562.845 Q39.8145 565.582 46.212 565.582 Q52.6095 565.582 56.3017 562.876 Q59.9619 560.139 59.9619 555.397 Q59.9619 550.718 56.2698 547.981 Q52.5777 545.243 46.212 545.243 Q39.8781 545.243 36.186 547.981 Q32.4621 550.718 32.4621 555.397 M27.4968 555.397 Q27.4968 547.758 32.4621 543.397 Q37.4273 539.037 46.212 539.037 Q54.9649 539.037 59.9619 543.397 Q64.9272 547.758 64.9272 555.397 Q64.9272 563.067 59.9619 567.428 Q54.9649 571.757 46.212 571.757 Q37.4273 571.757 32.4621 567.428 Q27.4968 563.067 27.4968 555.397 Z" fill="#000000" fill-rule="nonzero" fill-opacity="1" /><path clip-path="url(#clip030)" d="M42.4881 499.697 L64.0042 499.697 L64.0042 505.553 L42.679 505.553 Q37.6183 505.553 35.1038 507.527 Q32.5894 509.5 32.5894 513.447 Q32.5894 518.189 35.6131 520.926 Q38.6368 523.664 43.8567 523.664 L64.0042 523.664 L64.0042 529.552 L28.3562 529.552 L28.3562 523.664 L33.8944 523.664 Q30.6797 521.563 29.0883 518.73 Q27.4968 515.866 27.4968 512.142 Q27.4968 505.999 31.3163 502.848 Q35.1038 499.697 42.4881 499.697 Z" fill="#000000" fill-rule="nonzero" fill-opacity="1" /><polyline clip-path="url(#clip032)" style="stroke:#009af9; stroke-linecap:round; stroke-linejoin:round; stroke-width:4; stroke-opacity:1; fill:none" points="271.369,817.128 291.577,814.349 311.784,806.068 331.992,792.449 352.199,773.767 372.407,750.394 392.615,722.797 412.822,691.529 433.03,657.215 453.238,620.542 473.445,582.242 493.653,543.082 513.861,503.844 534.068,465.315 554.276,428.264 574.483,389.929 594.691,351.077 614.899,312.486 635.106,274.926 655.314,239.15 675.522,205.872 695.729,175.759 715.937,149.412 736.145,127.358 756.352,110.039 776.56,97.8011 796.768,90.8887 816.975,89.4402 837.183,93.4845 857.39,102.941 877.598,117.62 897.806,137.229 918.013,161.374 938.221,189.574 958.429,221.264 978.636,255.81 998.844,292.522 1019.05,330.665 1039.26,369.477 1059.47,408.181 1079.67,446.002 1099.88,482.186 1120.09,519.51 1140.3,557.229 1160.51,594.587 1180.71,630.839 1200.92,665.258 1221.13,697.157 1241.34,725.897 1261.54,750.904 1281.75,771.677 1301.96,787.801 1322.17,798.954 1342.37,804.913 1362.58,805.558 1382.79,800.876 1403,790.961 1423.2,776.012 1443.41,756.327 1463.62,732.3 1483.83,704.412 1504.03,673.22 1524.24,639.348 1544.45,603.474 1564.66,566.315 1584.87,528.614 1605.07,491.125 1625.28,454.599 1645.49,419.765 1665.7,383.818 1685.9,347.476 1706.11,311.466 1726.32,276.509 1746.53,243.302 1766.73,212.512 1786.94,184.753 1807.15,160.581 1827.36,140.479 1847.56,124.848 1867.77,114.003 1887.98,108.159 1908.19,107.434 1928.4,111.842 1948.6,121.294 1968.81,135.603 1989.02,154.481 2009.23,177.551 2029.43,204.351 2049.64,234.347 2069.85,266.937 2090.06,301.47 2110.26,337.255 2130.47,373.577 2150.68,409.709 2170.89,444.929 2191.09,478.532 2211.3,513.348 2231.51,548.682 2251.72,583.828 2271.93,618.081 2292.13,650.757 "/>
<polyline clip-path="url(#clip032)" style="stroke:#e26f46; stroke-linecap:round; stroke-linejoin:round; stroke-width:4; stroke-opacity:1; fill:none" points="271.369,1210.9 291.577,1207.64 311.784,1197.93 331.992,1181.95 352.199,1160.04 372.407,1132.62 392.615,1100.25 412.822,1063.57 433.03,1023.32 453.238,980.297 473.445,935.369 493.653,889.432 513.861,843.405 534.068,798.208 554.276,754.745 574.483,709.776 594.691,664.201 614.899,618.931 635.106,574.871 655.314,532.904 675.522,493.867 695.729,458.542 715.937,427.636 736.145,401.766 756.352,381.45 776.56,367.094 796.768,358.985 816.975,357.286 837.183,362.03 857.39,373.123 877.598,390.342 897.806,413.344 918.013,441.668 938.221,474.748 958.429,511.922 978.636,552.447 998.844,595.512 1019.05,640.256 1039.26,685.784 1059.47,731.186 1079.67,775.553 1099.88,817.998 1120.09,861.781 1140.3,906.027 1160.51,949.851 1180.71,992.376 1200.92,1032.75 1221.13,1070.17 1241.34,1103.88 1261.54,1133.22 1281.75,1157.59 1301.96,1176.5 1322.17,1189.58 1342.37,1196.57 1362.58,1197.33 1382.79,1191.84 1403,1180.21 1423.2,1162.67 1443.41,1139.58 1463.62,1111.4 1483.83,1078.68 1504.03,1042.09 1524.24,1002.36 1544.45,960.275 1564.66,916.686 1584.87,872.461 1605.07,828.485 1625.28,785.637 1645.49,744.775 1665.7,702.607 1685.9,659.976 1706.11,617.734 1726.32,576.727 1746.53,537.775 1766.73,501.656 1786.94,469.093 1807.15,440.738 1827.36,417.157 1847.56,398.822 1867.77,386.099 1887.98,379.244 1908.19,378.394 1928.4,383.564 1948.6,394.652 1968.81,411.437 1989.02,433.582 2009.23,460.644 2029.43,492.083 2049.64,527.269 2069.85,565.499 2090.06,606.008 2110.26,647.987 2130.47,690.594 2150.68,732.979 2170.89,774.294 2191.09,813.711 2211.3,854.553 2231.51,896.002 2251.72,937.23 2271.93,977.41 2292.13,1015.74 "/>
<polyline clip-path="url(#clip032)" style="stroke:#3da44d; stroke-linecap:round; stroke-linejoin:round; stroke-width:4; stroke-opacity:1; fill:none" points="271.369,1384.24 291.577,1381.56 311.784,1373.57 331.992,1360.43 352.199,1342.41 372.407,1319.87 392.615,1293.25 412.822,1263.09 433.03,1229.99 453.238,1194.61 473.445,1157.67 493.653,1119.9 513.861,1082.05 534.068,1044.89 554.276,1009.15 574.483,972.17 594.691,934.694 614.899,897.47 635.106,861.24 655.314,826.731 675.522,794.632 695.729,765.585 715.937,740.171 736.145,718.899 756.352,702.193 776.56,690.389 796.768,683.721 816.975,682.324 837.183,686.225 857.39,695.346 877.598,709.506 897.806,728.42 918.013,751.71 938.221,778.911 958.429,809.479 978.636,842.801 998.844,878.213 1019.05,915.005 1039.26,952.442 1059.47,989.775 1079.67,1026.26 1099.88,1061.16 1120.09,1097.16 1140.3,1133.54 1160.51,1169.58 1180.71,1204.55 1200.92,1237.75 1221.13,1268.52 1241.34,1296.24 1261.54,1320.36 1281.75,1340.4 1301.96,1355.95 1322.17,1366.71 1342.37,1372.46 1362.58,1373.08 1382.79,1368.56 1403,1359 1423.2,1344.58 1443.41,1325.59 1463.62,1302.41 1483.83,1275.51 1504.03,1245.43 1524.24,1212.75 1544.45,1178.15 1564.66,1142.31 1584.87,1105.94 1605.07,1069.78 1625.28,1034.55 1645.49,1000.95 1665.7,966.275 1685.9,931.22 1706.11,896.486 1726.32,862.766 1746.53,830.737 1766.73,801.037 1786.94,774.261 1807.15,750.945 1827.36,731.554 1847.56,716.478 1867.77,706.017 1887.98,700.38 1908.19,699.68 1928.4,703.932 1948.6,713.05 1968.81,726.851 1989.02,745.06 2009.23,767.313 2029.43,793.165 2049.64,822.098 2069.85,853.534 2090.06,886.844 2110.26,921.362 2130.47,956.397 2150.68,991.25 2170.89,1025.22 2191.09,1057.63 2211.3,1091.22 2231.51,1125.3 2251.72,1159.2 2271.93,1192.24 2292.13,1223.76 "/>
<polyline clip-path="url(#clip032)" style="stroke:#c271d2; stroke-linecap:round; stroke-linejoin:round; stroke-width:4; stroke-opacity:1; fill:none" points="271.369,86.1857 291.577,88.9647 311.784,97.246 331.992,110.864 352.199,129.547 372.407,152.92 392.615,180.517 412.822,211.784 433.03,246.098 453.238,282.772 473.445,321.072 493.653,360.232 513.861,399.469 534.068,437.999 554.276,475.05 574.483,513.385 594.691,552.236 614.899,590.828 635.106,628.387 655.314,664.164 675.522,697.441 695.729,727.555 715.937,753.902 736.145,775.955 756.352,793.274 776.56,805.512 796.768,812.425 816.975,813.873 837.183,809.829 857.39,800.373 877.598,785.694 897.806,766.085 918.013,741.939 938.221,713.74 958.429,682.05 978.636,647.503 998.844,610.791 1019.05,572.648 1039.26,533.837 1059.47,495.133 1079.67,457.311 1099.88,421.128 1120.09,383.804 1140.3,346.085 1160.51,308.726 1180.71,272.475 1200.92,238.056 1221.13,206.157 1241.34,177.417 1261.54,152.41 1281.75,131.637 1301.96,115.512 1322.17,104.359 1342.37,98.4007 1362.58,97.7559 1382.79,102.438 1403,112.352 1423.2,127.302 1443.41,146.987 1463.62,171.014 1483.83,198.902 1504.03,230.094 1524.24,263.966 1544.45,299.84 1564.66,336.999 1584.87,374.7 1605.07,412.188 1625.28,448.715 1645.49,483.548 1665.7,519.496 1685.9,555.838 1706.11,591.848 1726.32,626.805 1746.53,660.011 1766.73,690.801 1786.94,718.56 1807.15,742.733 1827.36,762.835 1847.56,778.465 1867.77,789.311 1887.98,795.154 1908.19,795.88 1928.4,791.472 1948.6,782.019 1968.81,767.711 1989.02,748.833 2009.23,725.763 2029.43,698.962 2049.64,668.967 2069.85,636.377 2090.06,601.844 2110.26,566.058 2130.47,529.736 2150.68,493.604 2170.89,458.385 2191.09,424.782 2211.3,389.965 2231.51,354.631 2251.72,319.486 2271.93,285.233 2292.13,252.556 "/>
<polyline clip-path="url(#clip032)" style="stroke:#ac8d18; stroke-linecap:round; stroke-linejoin:round; stroke-width:4; stroke-opacity:1; fill:none" points="271.369,353.468 291.577,356.728 311.784,366.443 331.992,382.417 352.199,404.333 372.407,431.751 392.615,464.123 412.822,500.802 433.03,541.055 453.238,584.075 473.445,629.003 493.653,674.94 513.861,720.967 534.068,766.164 554.276,809.627 574.483,854.596 594.691,900.171 614.899,945.441 635.106,989.5 655.314,1031.47 675.522,1070.5 695.729,1105.83 715.937,1136.74 736.145,1162.61 756.352,1182.92 776.56,1197.28 796.768,1205.39 816.975,1207.09 837.183,1202.34 857.39,1191.25 877.598,1174.03 897.806,1151.03 918.013,1122.7 938.221,1089.62 958.429,1052.45 978.636,1011.92 998.844,968.859 1019.05,924.115 1039.26,878.587 1059.47,833.186 1079.67,788.819 1099.88,746.374 1120.09,702.59 1140.3,658.344 1160.51,614.521 1180.71,571.996 1200.92,531.62 1221.13,494.201 1241.34,460.487 1261.54,431.153 1281.75,406.784 1301.96,387.87 1322.17,374.787 1342.37,367.797 1362.58,367.041 1382.79,372.533 1403,384.163 1423.2,401.7 1443.41,424.791 1463.62,452.976 1483.83,485.691 1504.03,522.28 1524.24,562.014 1544.45,604.096 1564.66,647.686 1584.87,691.911 1605.07,735.887 1625.28,778.734 1645.49,819.596 1665.7,861.765 1685.9,904.396 1706.11,946.637 1726.32,987.644 1746.53,1026.6 1766.73,1062.72 1786.94,1095.28 1807.15,1123.63 1827.36,1147.21 1847.56,1165.55 1867.77,1178.27 1887.98,1185.13 1908.19,1185.98 1928.4,1180.81 1948.6,1169.72 1968.81,1152.93 1989.02,1130.79 2009.23,1103.73 2029.43,1072.29 2049.64,1037.1 2069.85,998.872 2090.06,958.363 2110.26,916.385 2130.47,873.777 2150.68,831.393 2170.89,790.078 2191.09,750.66 2211.3,709.818 2231.51,668.369 2251.72,627.142 2271.93,586.961 2292.13,548.63 "/>
<polyline clip-path="url(#clip032)" style="stroke:#00a9ad; stroke-linecap:round; stroke-linejoin:round; stroke-width:4; stroke-opacity:1; fill:none" points="271.369,679.184 291.577,681.865 311.784,689.853 331.992,702.989 352.199,721.01 372.407,743.555 392.615,770.174 412.822,800.335 433.03,833.433 453.238,868.808 473.445,905.752 493.653,943.525 513.861,981.372 534.068,1018.54 554.276,1054.28 574.483,1091.25 594.691,1128.73 614.899,1165.95 635.106,1202.18 655.314,1236.69 675.522,1268.79 695.729,1297.84 715.937,1323.25 736.145,1344.52 756.352,1361.23 776.56,1373.03 796.768,1379.7 816.975,1381.1 837.183,1377.2 857.39,1368.08 877.598,1353.92 897.806,1335 918.013,1311.71 938.221,1284.51 958.429,1253.94 978.636,1220.62 998.844,1185.21 1019.05,1148.42 1039.26,1110.98 1059.47,1073.65 1079.67,1037.17 1099.88,1002.26 1120.09,966.261 1140.3,929.879 1160.51,893.843 1180.71,858.876 1200.92,825.676 1221.13,794.907 1241.34,767.184 1261.54,743.063 1281.75,723.026 1301.96,707.472 1322.17,696.714 1342.37,690.967 1362.58,690.345 1382.79,694.861 1403,704.424 1423.2,718.844 1443.41,737.832 1463.62,761.008 1483.83,787.909 1504.03,817.996 1524.24,850.668 1544.45,885.272 1564.66,921.114 1584.87,957.48 1605.07,993.641 1625.28,1028.87 1645.49,1062.47 1665.7,1097.15 1685.9,1132.2 1706.11,1166.94 1726.32,1200.66 1746.53,1232.69 1766.73,1262.39 1786.94,1289.16 1807.15,1312.48 1827.36,1331.87 1847.56,1346.94 1867.77,1357.41 1887.98,1363.04 1908.19,1363.74 1928.4,1359.49 1948.6,1350.37 1968.81,1336.57 1989.02,1318.36 2009.23,1296.11 2029.43,1270.26 2049.64,1241.32 2069.85,1209.89 2090.06,1176.58 2110.26,1142.06 2130.47,1107.03 2150.68,1072.17 2170.89,1038.2 2191.09,1005.79 2211.3,972.205 2231.51,938.122 2251.72,904.222 2271.93,871.182 2292.13,839.663 "/>
</svg>
