<?xml version="1.0" encoding="utf-8"?>
<svg xmlns="http://www.w3.org/2000/svg" xmlns:xlink="http://www.w3.org/1999/xlink" width="600" height="400" viewBox="0 0 2400 1600">
<defs>
  <clipPath id="clip800">
    <rect x="0" y="0" width="2400" height="1600"/>
  </clipPath>
</defs>
<path clip-path="url(#clip800)" d="M0 1600 L2400 1600 L2400 0 L0 0  Z" fill="#ffffff" fill-rule="evenodd" fill-opacity="1"/>
<defs>
  <clipPath id="clip801">
    <rect x="480" y="0" width="1681" height="1600"/>
  </clipPath>
</defs>
<path clip-path="url(#clip800)" d="M219.38 1423.18 L2352.76 1423.18 L2352.76 47.2441 L219.38 47.2441  Z" fill="#ffffff" fill-rule="evenodd" fill-opacity="1"/>
<defs>
  <clipPath id="clip802">
    <rect x="219" y="47" width="2134" height="1377"/>
  </clipPath>
</defs>
<polyline clip-path="url(#clip802)" style="stroke:#000000; stroke-linecap:round; stroke-linejoin:round; stroke-width:2; stroke-opacity:0.1; fill:none" points="279.759,1423.18 279.759,47.2441 "/>
<polyline clip-path="url(#clip802)" style="stroke:#000000; stroke-linecap:round; stroke-linejoin:round; stroke-width:2; stroke-opacity:0.1; fill:none" points="782.913,1423.18 782.913,47.2441 "/>
<polyline clip-path="url(#clip802)" style="stroke:#000000; stroke-linecap:round; stroke-linejoin:round; stroke-width:2; stroke-opacity:0.1; fill:none" points="1286.07,1423.18 1286.07,47.2441 "/>
<polyline clip-path="url(#clip802)" style="stroke:#000000; stroke-linecap:round; stroke-linejoin:round; stroke-width:2; stroke-opacity:0.1; fill:none" points="1789.22,1423.18 1789.22,47.2441 "/>
<polyline clip-path="url(#clip802)" style="stroke:#000000; stroke-linecap:round; stroke-linejoin:round; stroke-width:2; stroke-opacity:0.1; fill:none" points="2292.38,1423.18 2292.38,47.2441 "/>
<polyline clip-path="url(#clip800)" style="stroke:#000000; stroke-linecap:round; stroke-linejoin:round; stroke-width:4; stroke-opacity:1; fill:none" points="219.38,1423.18 2352.76,1423.18 "/>
<polyline clip-path="url(#clip800)" style="stroke:#000000; stroke-linecap:round; stroke-linejoin:round; stroke-width:4; stroke-opacity:1; fill:none" points="279.759,1423.18 279.759,1404.28 "/>
<polyline clip-path="url(#clip800)" style="stroke:#000000; stroke-linecap:round; stroke-linejoin:round; stroke-width:4; stroke-opacity:1; fill:none" points="782.913,1423.18 782.913,1404.28 "/>
<polyline clip-path="url(#clip800)" style="stroke:#000000; stroke-linecap:round; stroke-linejoin:round; stroke-width:4; stroke-opacity:1; fill:none" points="1286.07,1423.18 1286.07,1404.28 "/>
<polyline clip-path="url(#clip800)" style="stroke:#000000; stroke-linecap:round; stroke-linejoin:round; stroke-width:4; stroke-opacity:1; fill:none" points="1789.22,1423.18 1789.22,1404.28 "/>
<polyline clip-path="url(#clip800)" style="stroke:#000000; stroke-linecap:round; stroke-linejoin:round; stroke-width:4; stroke-opacity:1; fill:none" points="2292.38,1423.18 2292.38,1404.28 "/>
<path clip-path="url(#clip800)" d="M257.143 1454.1 Q253.532 1454.1 251.703 1457.66 Q249.898 1461.2 249.898 1468.33 Q249.898 1475.44 251.703 1479.01 Q253.532 1482.55 257.143 1482.55 Q260.777 1482.55 262.583 1479.01 Q264.412 1475.44 264.412 1468.33 Q264.412 1461.2 262.583 1457.66 Q260.777 1454.1 257.143 1454.1 M257.143 1450.39 Q262.953 1450.39 266.009 1455 Q269.087 1459.58 269.087 1468.33 Q269.087 1477.06 266.009 1481.67 Q262.953 1486.25 257.143 1486.25 Q251.333 1486.25 248.254 1481.67 Q245.199 1477.06 245.199 1468.33 Q245.199 1459.58 248.254 1455 Q251.333 1450.39 257.143 1450.39 Z" fill="#000000" fill-rule="nonzero" fill-opacity="1" /><path clip-path="url(#clip800)" d="M277.305 1479.7 L282.189 1479.7 L282.189 1485.58 L277.305 1485.58 L277.305 1479.7 Z" fill="#000000" fill-rule="nonzero" fill-opacity="1" /><path clip-path="url(#clip800)" d="M302.374 1454.1 Q298.763 1454.1 296.935 1457.66 Q295.129 1461.2 295.129 1468.33 Q295.129 1475.44 296.935 1479.01 Q298.763 1482.55 302.374 1482.55 Q306.009 1482.55 307.814 1479.01 Q309.643 1475.44 309.643 1468.33 Q309.643 1461.2 307.814 1457.66 Q306.009 1454.1 302.374 1454.1 M302.374 1450.39 Q308.184 1450.39 311.24 1455 Q314.319 1459.58 314.319 1468.33 Q314.319 1477.06 311.24 1481.67 Q308.184 1486.25 302.374 1486.25 Q296.564 1486.25 293.485 1481.67 Q290.43 1477.06 290.43 1468.33 Q290.43 1459.58 293.485 1455 Q296.564 1450.39 302.374 1450.39 Z" fill="#000000" fill-rule="nonzero" fill-opacity="1" /><path clip-path="url(#clip800)" d="M754.65 1481.64 L770.969 1481.64 L770.969 1485.58 L749.025 1485.58 L749.025 1481.64 Q751.687 1478.89 756.27 1474.26 Q760.876 1469.61 762.057 1468.27 Q764.302 1465.74 765.182 1464.01 Q766.085 1462.25 766.085 1460.56 Q766.085 1457.8 764.14 1456.07 Q762.219 1454.33 759.117 1454.33 Q756.918 1454.33 754.464 1455.09 Q752.034 1455.86 749.256 1457.41 L749.256 1452.69 Q752.08 1451.55 754.534 1450.97 Q756.988 1450.39 759.025 1450.39 Q764.395 1450.39 767.589 1453.08 Q770.784 1455.77 770.784 1460.26 Q770.784 1462.39 769.974 1464.31 Q769.187 1466.2 767.08 1468.8 Q766.501 1469.47 763.4 1472.69 Q760.298 1475.88 754.65 1481.64 Z" fill="#000000" fill-rule="nonzero" fill-opacity="1" /><path clip-path="url(#clip800)" d="M780.784 1479.7 L785.668 1479.7 L785.668 1485.58 L780.784 1485.58 L780.784 1479.7 Z" fill="#000000" fill-rule="nonzero" fill-opacity="1" /><path clip-path="url(#clip800)" d="M795.899 1451.02 L814.256 1451.02 L814.256 1454.96 L800.182 1454.96 L800.182 1463.43 Q801.2 1463.08 802.219 1462.92 Q803.237 1462.73 804.256 1462.73 Q810.043 1462.73 813.422 1465.9 Q816.802 1469.08 816.802 1474.49 Q816.802 1480.07 813.33 1483.17 Q809.858 1486.25 803.538 1486.25 Q801.362 1486.25 799.094 1485.88 Q796.848 1485.51 794.441 1484.77 L794.441 1480.07 Q796.524 1481.2 798.747 1481.76 Q800.969 1482.32 803.446 1482.32 Q807.45 1482.32 809.788 1480.21 Q812.126 1478.1 812.126 1474.49 Q812.126 1470.88 809.788 1468.77 Q807.45 1466.67 803.446 1466.67 Q801.571 1466.67 799.696 1467.08 Q797.844 1467.5 795.899 1468.38 L795.899 1451.02 Z" fill="#000000" fill-rule="nonzero" fill-opacity="1" /><path clip-path="url(#clip800)" d="M1253.23 1451.02 L1271.59 1451.02 L1271.59 1454.96 L1257.51 1454.96 L1257.51 1463.43 Q1258.53 1463.08 1259.55 1462.92 Q1260.57 1462.73 1261.59 1462.73 Q1267.38 1462.73 1270.76 1465.9 Q1274.14 1469.08 1274.14 1474.49 Q1274.14 1480.07 1270.66 1483.17 Q1267.19 1486.25 1260.87 1486.25 Q1258.7 1486.25 1256.43 1485.88 Q1254.18 1485.51 1251.77 1484.77 L1251.77 1480.07 Q1253.86 1481.2 1256.08 1481.76 Q1258.3 1482.32 1260.78 1482.32 Q1264.78 1482.32 1267.12 1480.21 Q1269.46 1478.1 1269.46 1474.49 Q1269.46 1470.88 1267.12 1468.77 Q1264.78 1466.67 1260.78 1466.67 Q1258.9 1466.67 1257.03 1467.08 Q1255.18 1467.5 1253.23 1468.38 L1253.23 1451.02 Z" fill="#000000" fill-rule="nonzero" fill-opacity="1" /><path clip-path="url(#clip800)" d="M1283.35 1479.7 L1288.23 1479.7 L1288.23 1485.58 L1283.35 1485.58 L1283.35 1479.7 Z" fill="#000000" fill-rule="nonzero" fill-opacity="1" /><path clip-path="url(#clip800)" d="M1308.42 1454.1 Q1304.81 1454.1 1302.98 1457.66 Q1301.17 1461.2 1301.17 1468.33 Q1301.17 1475.44 1302.98 1479.01 Q1304.81 1482.55 1308.42 1482.55 Q1312.05 1482.55 1313.86 1479.01 Q1315.69 1475.44 1315.69 1468.33 Q1315.69 1461.2 1313.86 1457.66 Q1312.05 1454.1 1308.42 1454.1 M1308.42 1450.39 Q1314.23 1450.39 1317.28 1455 Q1320.36 1459.58 1320.36 1468.33 Q1320.36 1477.06 1317.28 1481.67 Q1314.23 1486.25 1308.42 1486.25 Q1302.61 1486.25 1299.53 1481.67 Q1296.47 1477.06 1296.47 1468.33 Q1296.47 1459.58 1299.53 1455 Q1302.61 1450.39 1308.42 1450.39 Z" fill="#000000" fill-rule="nonzero" fill-opacity="1" /><path clip-path="url(#clip800)" d="M1755.54 1451.02 L1777.76 1451.02 L1777.76 1453.01 L1765.22 1485.58 L1760.33 1485.58 L1772.14 1454.96 L1755.54 1454.96 L1755.54 1451.02 Z" fill="#000000" fill-rule="nonzero" fill-opacity="1" /><path clip-path="url(#clip800)" d="M1786.88 1479.7 L1791.77 1479.7 L1791.77 1485.58 L1786.88 1485.58 L1786.88 1479.7 Z" fill="#000000" fill-rule="nonzero" fill-opacity="1" /><path clip-path="url(#clip800)" d="M1802 1451.02 L1820.36 1451.02 L1820.36 1454.96 L1806.28 1454.96 L1806.28 1463.43 Q1807.3 1463.08 1808.32 1462.92 Q1809.34 1462.73 1810.36 1462.73 Q1816.14 1462.73 1819.52 1465.9 Q1822.9 1469.08 1822.9 1474.49 Q1822.9 1480.07 1819.43 1483.17 Q1815.96 1486.25 1809.64 1486.25 Q1807.46 1486.25 1805.19 1485.88 Q1802.95 1485.51 1800.54 1484.77 L1800.54 1480.07 Q1802.63 1481.2 1804.85 1481.76 Q1807.07 1482.32 1809.55 1482.32 Q1813.55 1482.32 1815.89 1480.21 Q1818.23 1478.1 1818.23 1474.49 Q1818.23 1470.88 1815.89 1468.77 Q1813.55 1466.67 1809.55 1466.67 Q1807.67 1466.67 1805.8 1467.08 Q1803.94 1467.5 1802 1468.38 L1802 1451.02 Z" fill="#000000" fill-rule="nonzero" fill-opacity="1" /><path clip-path="url(#clip800)" d="M2244.45 1481.64 L2252.09 1481.64 L2252.09 1455.28 L2243.78 1456.95 L2243.78 1452.69 L2252.04 1451.02 L2256.72 1451.02 L2256.72 1481.64 L2264.36 1481.64 L2264.36 1485.58 L2244.45 1485.58 L2244.45 1481.64 Z" fill="#000000" fill-rule="nonzero" fill-opacity="1" /><path clip-path="url(#clip800)" d="M2283.8 1454.1 Q2280.19 1454.1 2278.36 1457.66 Q2276.56 1461.2 2276.56 1468.33 Q2276.56 1475.44 2278.36 1479.01 Q2280.19 1482.55 2283.8 1482.55 Q2287.44 1482.55 2289.24 1479.01 Q2291.07 1475.44 2291.07 1468.33 Q2291.07 1461.2 2289.24 1457.66 Q2287.44 1454.1 2283.8 1454.1 M2283.8 1450.39 Q2289.61 1450.39 2292.67 1455 Q2295.75 1459.58 2295.75 1468.33 Q2295.75 1477.06 2292.67 1481.67 Q2289.61 1486.25 2283.8 1486.25 Q2277.99 1486.25 2274.91 1481.67 Q2271.86 1477.06 2271.86 1468.33 Q2271.86 1459.58 2274.91 1455 Q2277.99 1450.39 2283.8 1450.39 Z" fill="#000000" fill-rule="nonzero" fill-opacity="1" /><path clip-path="url(#clip800)" d="M2303.96 1479.7 L2308.85 1479.7 L2308.85 1485.58 L2303.96 1485.58 L2303.96 1479.7 Z" fill="#000000" fill-rule="nonzero" fill-opacity="1" /><path clip-path="url(#clip800)" d="M2329.03 1454.1 Q2325.42 1454.1 2323.59 1457.66 Q2321.79 1461.2 2321.79 1468.33 Q2321.79 1475.44 2323.59 1479.01 Q2325.42 1482.55 2329.03 1482.55 Q2332.67 1482.55 2334.47 1479.01 Q2336.3 1475.44 2336.3 1468.33 Q2336.3 1461.2 2334.47 1457.66 Q2332.67 1454.1 2329.03 1454.1 M2329.03 1450.39 Q2334.84 1450.39 2337.9 1455 Q2340.98 1459.58 2340.98 1468.33 Q2340.98 1477.06 2337.9 1481.67 Q2334.84 1486.25 2329.03 1486.25 Q2323.22 1486.25 2320.14 1481.67 Q2317.09 1477.06 2317.09 1468.33 Q2317.09 1459.58 2320.14 1455 Q2323.22 1450.39 2329.03 1450.39 Z" fill="#000000" fill-rule="nonzero" fill-opacity="1" /><path clip-path="url(#clip800)" d="M1285.13 1522.27 L1285.13 1532.4 L1297.19 1532.4 L1297.19 1536.95 L1285.13 1536.95 L1285.13 1556.3 Q1285.13 1560.66 1286.31 1561.9 Q1287.52 1563.14 1291.18 1563.14 L1297.19 1563.14 L1297.19 1568.04 L1291.18 1568.04 Q1284.4 1568.04 1281.82 1565.53 Q1279.24 1562.98 1279.24 1556.3 L1279.24 1536.95 L1274.94 1536.95 L1274.94 1532.4 L1279.24 1532.4 L1279.24 1522.27 L1285.13 1522.27 Z" fill="#000000" fill-rule="nonzero" fill-opacity="1" /><polyline clip-path="url(#clip802)" style="stroke:#000000; stroke-linecap:round; stroke-linejoin:round; stroke-width:2; stroke-opacity:0.1; fill:none" points="219.38,1244.49 2352.76,1244.49 "/>
<polyline clip-path="url(#clip802)" style="stroke:#000000; stroke-linecap:round; stroke-linejoin:round; stroke-width:2; stroke-opacity:0.1; fill:none" points="219.38,1009.07 2352.76,1009.07 "/>
<polyline clip-path="url(#clip802)" style="stroke:#000000; stroke-linecap:round; stroke-linejoin:round; stroke-width:2; stroke-opacity:0.1; fill:none" points="219.38,773.652 2352.76,773.652 "/>
<polyline clip-path="url(#clip802)" style="stroke:#000000; stroke-linecap:round; stroke-linejoin:round; stroke-width:2; stroke-opacity:0.1; fill:none" points="219.38,538.231 2352.76,538.231 "/>
<polyline clip-path="url(#clip802)" style="stroke:#000000; stroke-linecap:round; stroke-linejoin:round; stroke-width:2; stroke-opacity:0.1; fill:none" points="219.38,302.811 2352.76,302.811 "/>
<polyline clip-path="url(#clip802)" style="stroke:#000000; stroke-linecap:round; stroke-linejoin:round; stroke-width:2; stroke-opacity:0.1; fill:none" points="219.38,67.3901 2352.76,67.3901 "/>
<polyline clip-path="url(#clip800)" style="stroke:#000000; stroke-linecap:round; stroke-linejoin:round; stroke-width:4; stroke-opacity:1; fill:none" points="219.38,1423.18 219.38,47.2441 "/>
<polyline clip-path="url(#clip800)" style="stroke:#000000; stroke-linecap:round; stroke-linejoin:round; stroke-width:4; stroke-opacity:1; fill:none" points="219.38,1244.49 238.278,1244.49 "/>
<polyline clip-path="url(#clip800)" style="stroke:#000000; stroke-linecap:round; stroke-linejoin:round; stroke-width:4; stroke-opacity:1; fill:none" points="219.38,1009.07 238.278,1009.07 "/>
<polyline clip-path="url(#clip800)" style="stroke:#000000; stroke-linecap:round; stroke-linejoin:round; stroke-width:4; stroke-opacity:1; fill:none" points="219.38,773.652 238.278,773.652 "/>
<polyline clip-path="url(#clip800)" style="stroke:#000000; stroke-linecap:round; stroke-linejoin:round; stroke-width:4; stroke-opacity:1; fill:none" points="219.38,538.231 238.278,538.231 "/>
<polyline clip-path="url(#clip800)" style="stroke:#000000; stroke-linecap:round; stroke-linejoin:round; stroke-width:4; stroke-opacity:1; fill:none" points="219.38,302.811 238.278,302.811 "/>
<polyline clip-path="url(#clip800)" style="stroke:#000000; stroke-linecap:round; stroke-linejoin:round; stroke-width:4; stroke-opacity:1; fill:none" points="219.38,67.3901 238.278,67.3901 "/>
<path clip-path="url(#clip800)" d="M126.205 1230.29 Q122.593 1230.29 120.765 1233.86 Q118.959 1237.4 118.959 1244.53 Q118.959 1251.63 120.765 1255.2 Q122.593 1258.74 126.205 1258.74 Q129.839 1258.74 131.644 1255.2 Q133.473 1251.63 133.473 1244.53 Q133.473 1237.4 131.644 1233.86 Q129.839 1230.29 126.205 1230.29 M126.205 1226.59 Q132.015 1226.59 135.07 1231.19 Q138.149 1235.78 138.149 1244.53 Q138.149 1253.26 135.07 1257.86 Q132.015 1262.44 126.205 1262.44 Q120.394 1262.44 117.316 1257.86 Q114.26 1253.26 114.26 1244.53 Q114.26 1235.78 117.316 1231.19 Q120.394 1226.59 126.205 1226.59 Z" fill="#000000" fill-rule="nonzero" fill-opacity="1" /><path clip-path="url(#clip800)" d="M146.366 1255.89 L151.251 1255.89 L151.251 1261.77 L146.366 1261.77 L146.366 1255.89 Z" fill="#000000" fill-rule="nonzero" fill-opacity="1" /><path clip-path="url(#clip800)" d="M171.436 1230.29 Q167.825 1230.29 165.996 1233.86 Q164.19 1237.4 164.19 1244.53 Q164.19 1251.63 165.996 1255.2 Q167.825 1258.74 171.436 1258.74 Q175.07 1258.74 176.876 1255.2 Q178.704 1251.63 178.704 1244.53 Q178.704 1237.4 176.876 1233.86 Q175.07 1230.29 171.436 1230.29 M171.436 1226.59 Q177.246 1226.59 180.301 1231.19 Q183.38 1235.78 183.38 1244.53 Q183.38 1253.26 180.301 1257.86 Q177.246 1262.44 171.436 1262.44 Q165.626 1262.44 162.547 1257.86 Q159.491 1253.26 159.491 1244.53 Q159.491 1235.78 162.547 1231.19 Q165.626 1226.59 171.436 1226.59 Z" fill="#000000" fill-rule="nonzero" fill-opacity="1" /><path clip-path="url(#clip800)" d="M127.2 994.871 Q123.589 994.871 121.76 998.436 Q119.955 1001.98 119.955 1009.11 Q119.955 1016.21 121.76 1019.78 Q123.589 1023.32 127.2 1023.32 Q130.834 1023.32 132.64 1019.78 Q134.468 1016.21 134.468 1009.11 Q134.468 1001.98 132.64 998.436 Q130.834 994.871 127.2 994.871 M127.2 991.168 Q133.01 991.168 136.066 995.774 Q139.144 1000.36 139.144 1009.11 Q139.144 1017.83 136.066 1022.44 Q133.01 1027.02 127.2 1027.02 Q121.39 1027.02 118.311 1022.44 Q115.256 1017.83 115.256 1009.11 Q115.256 1000.36 118.311 995.774 Q121.39 991.168 127.2 991.168 Z" fill="#000000" fill-rule="nonzero" fill-opacity="1" /><path clip-path="url(#clip800)" d="M147.362 1020.47 L152.246 1020.47 L152.246 1026.35 L147.362 1026.35 L147.362 1020.47 Z" fill="#000000" fill-rule="nonzero" fill-opacity="1" /><path clip-path="url(#clip800)" d="M162.477 991.793 L180.834 991.793 L180.834 995.728 L166.76 995.728 L166.76 1004.2 Q167.778 1003.85 168.797 1003.69 Q169.815 1003.51 170.834 1003.51 Q176.621 1003.51 180.001 1006.68 Q183.38 1009.85 183.38 1015.26 Q183.38 1020.84 179.908 1023.95 Q176.436 1027.02 170.116 1027.02 Q167.94 1027.02 165.672 1026.65 Q163.427 1026.28 161.019 1025.54 L161.019 1020.84 Q163.102 1021.98 165.325 1022.53 Q167.547 1023.09 170.024 1023.09 Q174.028 1023.09 176.366 1020.98 Q178.704 1018.88 178.704 1015.26 Q178.704 1011.65 176.366 1009.55 Q174.028 1007.44 170.024 1007.44 Q168.149 1007.44 166.274 1007.86 Q164.422 1008.27 162.477 1009.15 L162.477 991.793 Z" fill="#000000" fill-rule="nonzero" fill-opacity="1" /><path clip-path="url(#clip800)" d="M117.015 786.997 L124.654 786.997 L124.654 760.631 L116.343 762.298 L116.343 758.039 L124.607 756.372 L129.283 756.372 L129.283 786.997 L136.922 786.997 L136.922 790.932 L117.015 790.932 L117.015 786.997 Z" fill="#000000" fill-rule="nonzero" fill-opacity="1" /><path clip-path="url(#clip800)" d="M146.366 785.053 L151.251 785.053 L151.251 790.932 L146.366 790.932 L146.366 785.053 Z" fill="#000000" fill-rule="nonzero" fill-opacity="1" /><path clip-path="url(#clip800)" d="M171.436 759.451 Q167.825 759.451 165.996 763.016 Q164.19 766.557 164.19 773.687 Q164.19 780.793 165.996 784.358 Q167.825 787.9 171.436 787.9 Q175.07 787.9 176.876 784.358 Q178.704 780.793 178.704 773.687 Q178.704 766.557 176.876 763.016 Q175.07 759.451 171.436 759.451 M171.436 755.747 Q177.246 755.747 180.301 760.354 Q183.38 764.937 183.38 773.687 Q183.38 782.414 180.301 787.02 Q177.246 791.603 171.436 791.603 Q165.626 791.603 162.547 787.02 Q159.491 782.414 159.491 773.687 Q159.491 764.937 162.547 760.354 Q165.626 755.747 171.436 755.747 Z" fill="#000000" fill-rule="nonzero" fill-opacity="1" /><path clip-path="url(#clip800)" d="M118.01 551.576 L125.649 551.576 L125.649 525.211 L117.339 526.877 L117.339 522.618 L125.603 520.951 L130.279 520.951 L130.279 551.576 L137.917 551.576 L137.917 555.511 L118.01 555.511 L118.01 551.576 Z" fill="#000000" fill-rule="nonzero" fill-opacity="1" /><path clip-path="url(#clip800)" d="M147.362 549.632 L152.246 549.632 L152.246 555.511 L147.362 555.511 L147.362 549.632 Z" fill="#000000" fill-rule="nonzero" fill-opacity="1" /><path clip-path="url(#clip800)" d="M162.477 520.951 L180.834 520.951 L180.834 524.887 L166.76 524.887 L166.76 533.359 Q167.778 533.012 168.797 532.85 Q169.815 532.664 170.834 532.664 Q176.621 532.664 180.001 535.836 Q183.38 539.007 183.38 544.424 Q183.38 550.002 179.908 553.104 Q176.436 556.183 170.116 556.183 Q167.94 556.183 165.672 555.812 Q163.427 555.442 161.019 554.701 L161.019 550.002 Q163.102 551.136 165.325 551.692 Q167.547 552.248 170.024 552.248 Q174.028 552.248 176.366 550.141 Q178.704 548.035 178.704 544.424 Q178.704 540.812 176.366 538.706 Q174.028 536.6 170.024 536.6 Q168.149 536.6 166.274 537.016 Q164.422 537.433 162.477 538.312 L162.477 520.951 Z" fill="#000000" fill-rule="nonzero" fill-opacity="1" /><path clip-path="url(#clip800)" d="M120.232 316.156 L136.552 316.156 L136.552 320.091 L114.607 320.091 L114.607 316.156 Q117.269 313.401 121.853 308.771 Q126.459 304.119 127.64 302.776 Q129.885 300.253 130.765 298.517 Q131.667 296.758 131.667 295.068 Q131.667 292.313 129.723 290.577 Q127.802 288.841 124.7 288.841 Q122.501 288.841 120.047 289.605 Q117.617 290.369 114.839 291.92 L114.839 287.197 Q117.663 286.063 120.117 285.484 Q122.57 284.906 124.607 284.906 Q129.978 284.906 133.172 287.591 Q136.367 290.276 136.367 294.767 Q136.367 296.896 135.556 298.818 Q134.769 300.716 132.663 303.308 Q132.084 303.98 128.982 307.197 Q125.88 310.392 120.232 316.156 Z" fill="#000000" fill-rule="nonzero" fill-opacity="1" /><path clip-path="url(#clip800)" d="M146.366 314.211 L151.251 314.211 L151.251 320.091 L146.366 320.091 L146.366 314.211 Z" fill="#000000" fill-rule="nonzero" fill-opacity="1" /><path clip-path="url(#clip800)" d="M171.436 288.609 Q167.825 288.609 165.996 292.174 Q164.19 295.716 164.19 302.846 Q164.19 309.952 165.996 313.517 Q167.825 317.058 171.436 317.058 Q175.07 317.058 176.876 313.517 Q178.704 309.952 178.704 302.846 Q178.704 295.716 176.876 292.174 Q175.07 288.609 171.436 288.609 M171.436 284.906 Q177.246 284.906 180.301 289.512 Q183.38 294.096 183.38 302.846 Q183.38 311.572 180.301 316.179 Q177.246 320.762 171.436 320.762 Q165.626 320.762 162.547 316.179 Q159.491 311.572 159.491 302.846 Q159.491 294.096 162.547 289.512 Q165.626 284.906 171.436 284.906 Z" fill="#000000" fill-rule="nonzero" fill-opacity="1" /><path clip-path="url(#clip800)" d="M121.228 80.735 L137.547 80.735 L137.547 84.6701 L115.603 84.6701 L115.603 80.735 Q118.265 77.9803 122.848 73.3507 Q127.455 68.698 128.635 67.3554 Q130.88 64.8323 131.76 63.0962 Q132.663 61.3369 132.663 59.6471 Q132.663 56.8925 130.718 55.1564 Q128.797 53.4203 125.695 53.4203 Q123.496 53.4203 121.043 54.1842 Q118.612 54.9481 115.834 56.499 L115.834 51.7768 Q118.658 50.6425 121.112 50.0638 Q123.566 49.4851 125.603 49.4851 Q130.973 49.4851 134.167 52.1703 Q137.362 54.8555 137.362 59.3462 Q137.362 61.4758 136.552 63.3971 Q135.765 65.2952 133.658 67.8878 Q133.08 68.5591 129.978 71.7767 Q126.876 74.9711 121.228 80.735 Z" fill="#000000" fill-rule="nonzero" fill-opacity="1" /><path clip-path="url(#clip800)" d="M147.362 78.7905 L152.246 78.7905 L152.246 84.6701 L147.362 84.6701 L147.362 78.7905 Z" fill="#000000" fill-rule="nonzero" fill-opacity="1" /><path clip-path="url(#clip800)" d="M162.477 50.1101 L180.834 50.1101 L180.834 54.0453 L166.76 54.0453 L166.76 62.5175 Q167.778 62.1702 168.797 62.0082 Q169.815 61.823 170.834 61.823 Q176.621 61.823 180.001 64.9943 Q183.38 68.1656 183.38 73.5822 Q183.38 79.1609 179.908 82.2627 Q176.436 85.3414 170.116 85.3414 Q167.94 85.3414 165.672 84.971 Q163.427 84.6007 161.019 83.8599 L161.019 79.1609 Q163.102 80.2951 165.325 80.8507 Q167.547 81.4062 170.024 81.4062 Q174.028 81.4062 176.366 79.2998 Q178.704 77.1933 178.704 73.5822 Q178.704 69.9711 176.366 67.8647 Q174.028 65.7582 170.024 65.7582 Q168.149 65.7582 166.274 66.1748 Q164.422 66.5915 162.477 67.4711 L162.477 50.1101 Z" fill="#000000" fill-rule="nonzero" fill-opacity="1" /><path clip-path="url(#clip800)" d="M20.8447 948.702 Q20.8447 955.704 26.0645 959.842 Q31.2844 963.948 40.2919 963.948 Q49.2675 963.948 54.4874 959.842 Q59.7073 955.704 59.7073 948.702 Q59.7073 941.7 54.4874 937.626 Q49.2675 933.52 40.2919 933.52 Q31.2844 933.52 26.0645 937.626 Q20.8447 941.7 20.8447 948.702 M15.6248 948.702 Q15.6248 938.708 22.3406 932.724 Q29.0246 926.74 40.2919 926.74 Q51.5274 926.74 58.2432 932.724 Q64.9272 938.708 64.9272 948.702 Q64.9272 958.728 58.2432 964.743 Q51.5592 970.727 40.2919 970.727 Q29.0246 970.727 22.3406 964.743 Q15.6248 958.728 15.6248 948.702 Z" fill="#000000" fill-rule="nonzero" fill-opacity="1" /><path clip-path="url(#clip800)" d="M49.9359 917.542 L28.3562 917.542 L28.3562 911.685 L49.7131 911.685 Q54.7739 911.685 57.3202 909.712 Q59.8346 907.739 59.8346 903.792 Q59.8346 899.049 56.8109 896.312 Q53.7872 893.543 48.5673 893.543 L28.3562 893.543 L28.3562 887.687 L64.0042 887.687 L64.0042 893.543 L58.5296 893.543 Q61.7762 895.676 63.3676 898.508 Q64.9272 901.309 64.9272 905.033 Q64.9272 911.176 61.1078 914.359 Q57.2883 917.542 49.9359 917.542 M27.4968 902.805 L27.4968 902.805 Z" fill="#000000" fill-rule="nonzero" fill-opacity="1" /><path clip-path="url(#clip800)" d="M18.2347 869.831 L28.3562 869.831 L28.3562 857.768 L32.9077 857.768 L32.9077 869.831 L52.2594 869.831 Q56.6199 869.831 57.8613 868.653 Q59.1026 867.444 59.1026 863.783 L59.1026 857.768 L64.0042 857.768 L64.0042 863.783 Q64.0042 870.563 61.4897 873.141 Q58.9434 875.719 52.2594 875.719 L32.9077 875.719 L32.9077 880.016 L28.3562 880.016 L28.3562 875.719 L18.2347 875.719 L18.2347 869.831 Z" fill="#000000" fill-rule="nonzero" fill-opacity="1" /><path clip-path="url(#clip800)" d="M58.657 844.4 L77.5631 844.4 L77.5631 850.288 L28.3562 850.288 L28.3562 844.4 L33.7671 844.4 Q30.5842 842.554 29.0564 839.753 Q27.4968 836.92 27.4968 833.005 Q27.4968 826.512 32.6531 822.47 Q37.8093 818.396 46.212 818.396 Q54.6147 818.396 59.771 822.47 Q64.9272 826.512 64.9272 833.005 Q64.9272 836.92 63.3994 839.753 Q61.8398 842.554 58.657 844.4 M46.212 824.475 Q39.7508 824.475 36.0905 827.149 Q32.3984 829.79 32.3984 834.437 Q32.3984 839.084 36.0905 841.758 Q39.7508 844.4 46.212 844.4 Q52.6732 844.4 56.3653 841.758 Q60.0256 839.084 60.0256 834.437 Q60.0256 829.79 56.3653 827.149 Q52.6732 824.475 46.212 824.475 Z" fill="#000000" fill-rule="nonzero" fill-opacity="1" /><path clip-path="url(#clip800)" d="M49.9359 809.293 L28.3562 809.293 L28.3562 803.436 L49.7131 803.436 Q54.7739 803.436 57.3202 801.463 Q59.8346 799.49 59.8346 795.543 Q59.8346 790.801 56.8109 788.063 Q53.7872 785.294 48.5673 785.294 L28.3562 785.294 L28.3562 779.438 L64.0042 779.438 L64.0042 785.294 L58.5296 785.294 Q61.7762 787.427 63.3676 790.259 Q64.9272 793.06 64.9272 796.784 Q64.9272 802.927 61.1078 806.11 Q57.2883 809.293 49.9359 809.293 M27.4968 794.556 L27.4968 794.556 Z" fill="#000000" fill-rule="nonzero" fill-opacity="1" /><path clip-path="url(#clip800)" d="M18.2347 761.582 L28.3562 761.582 L28.3562 749.519 L32.9077 749.519 L32.9077 761.582 L52.2594 761.582 Q56.6199 761.582 57.8613 760.404 Q59.1026 759.195 59.1026 755.534 L59.1026 749.519 L64.0042 749.519 L64.0042 755.534 Q64.0042 762.314 61.4897 764.892 Q58.9434 767.47 52.2594 767.47 L32.9077 767.47 L32.9077 771.767 L28.3562 771.767 L28.3562 767.47 L18.2347 767.47 L18.2347 761.582 Z" fill="#000000" fill-rule="nonzero" fill-opacity="1" /><path clip-path="url(#clip800)" d="M21.7677 735.132 L39.6235 735.132 L39.6235 727.048 Q39.6235 722.56 37.3 720.109 Q34.9765 717.659 30.6797 717.659 Q26.4147 717.659 24.0912 720.109 Q21.7677 722.56 21.7677 727.048 L21.7677 735.132 M16.4842 741.562 L16.4842 727.048 Q16.4842 719.059 20.1126 714.985 Q23.7092 710.879 30.6797 710.879 Q37.7138 710.879 41.3104 714.985 Q44.907 719.059 44.907 727.048 L44.907 735.132 L64.0042 735.132 L64.0042 741.562 L16.4842 741.562 Z" fill="#000000" fill-rule="nonzero" fill-opacity="1" /><path clip-path="url(#clip800)" d="M32.4621 691.018 Q32.4621 695.729 36.1542 698.466 Q39.8145 701.203 46.212 701.203 Q52.6095 701.203 56.3017 698.498 Q59.9619 695.761 59.9619 691.018 Q59.9619 686.339 56.2698 683.602 Q52.5777 680.865 46.212 680.865 Q39.8781 680.865 36.186 683.602 Q32.4621 686.339 32.4621 691.018 M27.4968 691.018 Q27.4968 683.379 32.4621 679.019 Q37.4273 674.658 46.212 674.658 Q54.9649 674.658 59.9619 679.019 Q64.9272 683.379 64.9272 691.018 Q64.9272 698.689 59.9619 703.049 Q54.9649 707.378 46.212 707.378 Q37.4273 707.378 32.4621 703.049 Q27.4968 698.689 27.4968 691.018 Z" fill="#000000" fill-rule="nonzero" fill-opacity="1" /><path clip-path="url(#clip800)" d="M29.4065 642.225 L34.9447 642.225 Q33.6716 644.708 33.035 647.381 Q32.3984 650.055 32.3984 652.919 Q32.3984 657.28 33.7352 659.476 Q35.072 661.64 37.7456 661.64 Q39.7826 661.64 40.9603 660.081 Q42.1061 658.521 43.1565 653.81 L43.6021 651.805 Q44.9389 645.567 47.3897 642.957 Q49.8086 640.315 54.1691 640.315 Q59.1344 640.315 62.0308 644.262 Q64.9272 648.177 64.9272 655.052 Q64.9272 657.916 64.3543 661.036 Q63.8132 664.123 62.6992 667.56 L56.6518 667.56 Q58.3387 664.314 59.198 661.163 Q60.0256 658.012 60.0256 654.924 Q60.0256 650.787 58.6251 648.559 Q57.1929 646.331 54.6147 646.331 Q52.2276 646.331 50.9545 647.954 Q49.6813 649.545 48.5037 654.988 L48.0262 657.025 Q46.8804 662.468 44.5251 664.887 Q42.138 667.306 38.0002 667.306 Q32.9713 667.306 30.2341 663.741 Q27.4968 660.176 27.4968 653.62 Q27.4968 650.373 27.9743 647.508 Q28.4517 644.644 29.4065 642.225 Z" fill="#000000" fill-rule="nonzero" fill-opacity="1" /><path clip-path="url(#clip800)" d="M28.3562 630.989 L28.3562 625.133 L64.0042 625.133 L64.0042 630.989 L28.3562 630.989 M14.479 630.989 L14.479 625.133 L21.895 625.133 L21.895 630.989 L14.479 630.989 Z" fill="#000000" fill-rule="nonzero" fill-opacity="1" /><path clip-path="url(#clip800)" d="M18.2347 607.086 L28.3562 607.086 L28.3562 595.023 L32.9077 595.023 L32.9077 607.086 L52.2594 607.086 Q56.6199 607.086 57.8613 605.909 Q59.1026 604.699 59.1026 601.039 L59.1026 595.023 L64.0042 595.023 L64.0042 601.039 Q64.0042 607.818 61.4897 610.396 Q58.9434 612.974 52.2594 612.974 L32.9077 612.974 L32.9077 617.271 L28.3562 617.271 L28.3562 612.974 L18.2347 612.974 L18.2347 607.086 Z" fill="#000000" fill-rule="nonzero" fill-opacity="1" /><path clip-path="url(#clip800)" d="M28.3562 587.321 L28.3562 581.464 L64.0042 581.464 L64.0042 587.321 L28.3562 587.321 M14.479 587.321 L14.479 581.464 L21.895 581.464 L21.895 587.321 L14.479 587.321 Z" fill="#000000" fill-rule="nonzero" fill-opacity="1" /><path clip-path="url(#clip800)" d="M32.4621 555.397 Q32.4621 560.107 36.1542 562.845 Q39.8145 565.582 46.212 565.582 Q52.6095 565.582 56.3017 562.876 Q59.9619 560.139 59.9619 555.397 Q59.9619 550.718 56.2698 547.981 Q52.5777 545.243 46.212 545.243 Q39.8781 545.243 36.186 547.981 Q32.4621 550.718 32.4621 555.397 M27.4968 555.397 Q27.4968 547.758 32.4621 543.397 Q37.4273 539.037 46.212 539.037 Q54.9649 539.037 59.9619 543.397 Q64.9272 547.758 64.9272 555.397 Q64.9272 563.067 59.9619 567.428 Q54.9649 571.757 46.212 571.757 Q37.4273 571.757 32.4621 567.428 Q27.4968 563.067 27.4968 555.397 Z" fill="#000000" fill-rule="nonzero" fill-opacity="1" /><path clip-path="url(#clip800)" d="M42.4881 499.697 L64.0042 499.697 L64.0042 505.553 L42.679 505.553 Q37.6183 505.553 35.1038 507.527 Q32.5894 509.5 32.5894 513.447 Q32.5894 518.189 35.6131 520.926 Q38.6368 523.664 43.8567 523.664 L64.0042 523.664 L64.0042 529.552 L28.3562 529.552 L28.3562 523.664 L33.8944 523.664 Q30.6797 521.563 29.0883 518.73 Q27.4968 515.866 27.4968 512.142 Q27.4968 505.999 31.3163 502.848 Q35.1038 499.697 42.4881 499.697 Z" fill="#000000" fill-rule="nonzero" fill-opacity="1" /><polyline clip-path="url(#clip802)" style="stroke:#009af9; stroke-linecap:round; stroke-linejoin:round; stroke-width:4; stroke-opacity:1; fill:none" points="279.759,409.202 299.885,408.996 320.011,408.38 340.137,407.368 360.263,405.98 380.39,404.243 400.516,402.192 420.642,399.869 440.768,397.319 460.894,394.594 481.021,391.748 501.147,388.838 521.273,385.922 541.399,383.059 561.525,380.306 581.652,377.718 601.778,375.346 621.904,373.238 642.03,371.437 662.156,369.978 682.282,368.891 702.409,368.196 722.535,367.909 742.661,368.035 762.787,368.571 782.913,369.506 803.04,370.823 823.166,372.494 843.292,374.486 863.418,376.76 883.544,379.269 903.67,381.964 923.797,384.791 943.923,387.693 964.049,390.612 984.175,393.49 1004.3,396.269 1024.43,398.894 1044.55,401.312 1064.68,403.475 1084.81,405.339 1104.93,406.868 1125.06,408.03 1145.18,408.803 1165.31,409.17 1185.44,409.126 1205.56,408.669 1225.69,407.811 1245.82,406.567 1265.94,404.963 1286.07,403.031 1306.19,400.809 1326.32,398.342 1346.45,395.679 1366.57,392.874 1386.7,389.982 1406.83,387.061 1426.95,384.171 1447.08,381.368 1467.2,378.708 1487.33,376.246 1507.46,374.03 1527.58,372.104 1547.71,370.507 1567.83,369.271 1587.96,368.42 1608.09,367.973 1628.21,367.936 1648.34,368.312 1668.47,369.093 1688.59,370.263 1708.72,371.799 1728.84,373.67 1748.97,375.839 1769.1,378.261 1789.22,380.89 1809.35,383.672 1829.48,386.551 1849.6,389.47 1869.73,392.371 1889.85,395.196 1909.98,397.888 1930.11,400.393 1950.23,402.661 1970.36,404.647 1990.48,406.311 2010.61,407.62 2030.74,408.548 2050.86,409.075 2070.99,409.192 2091.12,408.897 2111.24,408.194 2131.37,407.099 2151.49,405.632 2171.62,403.824 2191.75,401.711 2211.87,399.334 2232,396.742 2252.12,393.986 2272.25,391.121 2292.38,388.205 "/>
<polyline clip-path="url(#clip802)" style="stroke:#e26f46; stroke-linecap:round; stroke-linejoin:round; stroke-width:4; stroke-opacity:1; fill:none" points="279.759,826.827 299.885,827.027 320.011,827.623 340.137,828.603 360.263,829.947 380.39,831.628 400.516,833.614 420.642,835.863 440.768,838.332 460.894,840.97 481.021,843.726 501.147,846.543 521.273,849.366 541.399,852.138 561.525,854.804 581.652,857.31 601.778,859.606 621.904,861.647 642.03,863.39 662.156,864.803 682.282,865.856 702.409,866.528 722.535,866.806 742.661,866.684 762.787,866.166 782.913,865.26 803.04,863.985 823.166,862.367 843.292,860.438 863.418,858.237 883.544,855.807 903.67,853.198 923.797,850.461 943.923,847.652 964.049,844.825 984.175,842.039 1004.3,839.348 1024.43,836.807 1044.55,834.466 1064.68,832.372 1084.81,830.567 1104.93,829.087 1125.06,827.962 1145.18,827.214 1165.31,826.858 1185.44,826.901 1205.56,827.343 1225.69,828.174 1245.82,829.378 1265.94,830.931 1286.07,832.802 1306.19,834.953 1326.32,837.342 1346.45,839.92 1366.57,842.636 1386.7,845.436 1406.83,848.263 1426.95,851.062 1447.08,853.776 1467.2,856.35 1487.33,858.735 1507.46,860.88 1527.58,862.745 1547.71,864.291 1567.83,865.488 1587.96,866.311 1608.09,866.745 1628.21,866.78 1648.34,866.416 1668.47,865.66 1688.59,864.527 1708.72,863.04 1728.84,861.229 1748.97,859.129 1769.1,856.783 1789.22,854.239 1809.35,851.545 1829.48,848.757 1849.6,845.931 1869.73,843.122 1889.85,840.387 1909.98,837.781 1930.11,835.356 1950.23,833.16 1970.36,831.237 1990.48,829.626 2010.61,828.359 2030.74,827.461 2050.86,826.95 2070.99,826.836 2091.12,827.123 2111.24,827.803 2131.37,828.863 2151.49,830.283 2171.62,832.034 2191.75,834.08 2211.87,836.381 2232,838.891 2252.12,841.559 2272.25,844.333 2292.38,847.156 "/>
<polyline clip-path="url(#clip802)" style="stroke:#3da44d; stroke-linecap:round; stroke-linejoin:round; stroke-width:4; stroke-opacity:1; fill:none" points="279.759,1384.24 299.885,1384.05 320.011,1383.48 340.137,1382.54 360.263,1381.26 380.39,1379.65 400.516,1377.75 420.642,1375.6 440.768,1373.24 460.894,1370.72 481.021,1368.09 501.147,1365.4 521.273,1362.7 541.399,1360.05 561.525,1357.5 581.652,1355.11 601.778,1352.91 621.904,1350.96 642.03,1349.3 662.156,1347.95 682.282,1346.94 702.409,1346.3 722.535,1346.03 742.661,1346.15 762.787,1346.65 782.913,1347.51 803.04,1348.73 823.166,1350.28 843.292,1352.12 863.418,1354.22 883.544,1356.54 903.67,1359.04 923.797,1361.65 943.923,1364.34 964.049,1367.04 984.175,1369.7 1004.3,1372.27 1024.43,1374.7 1044.55,1376.94 1064.68,1378.94 1084.81,1380.66 1104.93,1382.08 1125.06,1383.15 1145.18,1383.87 1165.31,1384.21 1185.44,1384.17 1205.56,1383.75 1225.69,1382.95 1245.82,1381.8 1265.94,1380.32 1286.07,1378.53 1306.19,1376.47 1326.32,1374.19 1346.45,1371.73 1366.57,1369.13 1386.7,1366.46 1406.83,1363.75 1426.95,1361.08 1447.08,1358.49 1467.2,1356.03 1487.33,1353.75 1507.46,1351.7 1527.58,1349.92 1547.71,1348.44 1567.83,1347.29 1587.96,1346.51 1608.09,1346.09 1628.21,1346.06 1648.34,1346.41 1668.47,1347.13 1688.59,1348.21 1708.72,1349.63 1728.84,1351.36 1748.97,1353.37 1769.1,1355.61 1789.22,1358.04 1809.35,1360.62 1829.48,1363.28 1849.6,1365.98 1869.73,1368.67 1889.85,1371.28 1909.98,1373.77 1930.11,1376.09 1950.23,1378.19 1970.36,1380.02 1990.48,1381.56 2010.61,1382.77 2030.74,1383.63 2050.86,1384.12 2070.99,1384.23 2091.12,1383.96 2111.24,1383.31 2131.37,1382.29 2151.49,1380.94 2171.62,1379.26 2191.75,1377.31 2211.87,1375.11 2232,1372.71 2252.12,1370.16 2272.25,1367.51 2292.38,1364.81 "/>
<polyline clip-path="url(#clip802)" style="stroke:#c271d2; stroke-linecap:round; stroke-linejoin:round; stroke-width:4; stroke-opacity:1; fill:none" points="279.759,86.1857 299.885,86.3922 320.011,87.0076 340.137,88.0195 360.263,89.4078 380.39,91.1446 400.516,93.1953 420.642,95.5188 440.768,98.0687 460.894,100.794 481.021,103.64 501.147,106.55 521.273,109.466 541.399,112.329 561.525,115.082 581.652,117.67 601.778,120.042 621.904,122.149 642.03,123.951 662.156,125.41 682.282,126.497 702.409,127.191 722.535,127.479 742.661,127.353 762.787,126.817 782.913,125.881 803.04,124.565 823.166,122.894 843.292,120.901 863.418,118.628 883.544,116.118 903.67,113.423 923.797,110.597 943.923,107.695 964.049,104.775 984.175,101.897 1004.3,99.1183 1024.43,96.4935 1044.55,94.0755 1064.68,91.9127 1084.81,90.0485 1104.93,88.5199 1125.06,87.3577 1145.18,86.585 1165.31,86.2174 1185.44,86.2622 1205.56,86.7184 1225.69,87.5769 1245.82,88.8207 1265.94,90.4248 1286.07,92.3571 1306.19,94.5789 1326.32,97.0459 1346.45,99.7088 1366.57,102.514 1386.7,105.406 1406.83,108.326 1426.95,111.217 1447.08,114.02 1467.2,116.679 1487.33,119.142 1507.46,121.358 1527.58,123.284 1547.71,124.881 1567.83,126.117 1587.96,126.967 1608.09,127.415 1628.21,127.451 1648.34,127.075 1668.47,126.294 1688.59,125.124 1708.72,123.589 1728.84,121.718 1748.97,119.549 1769.1,117.126 1789.22,114.498 1809.35,111.716 1829.48,108.837 1849.6,105.917 1869.73,103.016 1889.85,100.192 1909.98,97.4999 1930.11,94.9949 1950.23,92.7267 1970.36,90.7407 1990.48,89.0766 2010.61,87.7677 2030.74,86.8402 2050.86,86.3125 2070.99,86.1954 2091.12,86.491 2111.24,87.1936 2131.37,88.289 2151.49,89.7553 2171.62,91.5633 2191.75,93.6767 2211.87,96.0533 2232,98.6456 2252.12,101.402 2272.25,104.266 2292.38,107.183 "/>
<polyline clip-path="url(#clip802)" style="stroke:#ac8d18; stroke-linecap:round; stroke-linejoin:round; stroke-width:4; stroke-opacity:1; fill:none" points="279.759,1139.57 299.885,1139.37 320.011,1138.77 340.137,1137.79 360.263,1136.45 380.39,1134.77 400.516,1132.78 420.642,1130.53 440.768,1128.06 460.894,1125.42 481.021,1122.67 501.147,1119.85 521.273,1117.03 541.399,1114.26 561.525,1111.59 581.652,1109.08 601.778,1106.79 621.904,1104.75 642.03,1103 662.156,1101.59 682.282,1100.54 702.409,1099.87 722.535,1099.59 742.661,1099.71 762.787,1100.23 782.913,1101.13 803.04,1102.41 823.166,1104.03 843.292,1105.96 863.418,1108.16 883.544,1110.59 903.67,1113.2 923.797,1115.93 943.923,1118.74 964.049,1121.57 984.175,1124.35 1004.3,1127.05 1024.43,1129.59 1044.55,1131.93 1064.68,1134.02 1084.81,1135.83 1104.93,1137.31 1125.06,1138.43 1145.18,1139.18 1165.31,1139.54 1185.44,1139.49 1205.56,1139.05 1225.69,1138.22 1245.82,1137.02 1265.94,1135.46 1286.07,1133.59 1306.19,1131.44 1326.32,1129.05 1346.45,1126.47 1366.57,1123.76 1386.7,1120.96 1406.83,1118.13 1426.95,1115.33 1447.08,1112.62 1467.2,1110.04 1487.33,1107.66 1507.46,1105.51 1527.58,1103.65 1547.71,1102.1 1567.83,1100.91 1587.96,1100.08 1608.09,1099.65 1628.21,1099.61 1648.34,1099.98 1668.47,1100.73 1688.59,1101.87 1708.72,1103.35 1728.84,1105.16 1748.97,1107.26 1769.1,1109.61 1789.22,1112.15 1809.35,1114.85 1829.48,1117.64 1849.6,1120.46 1869.73,1123.27 1889.85,1126.01 1909.98,1128.61 1930.11,1131.04 1950.23,1133.23 1970.36,1135.16 1990.48,1136.77 2010.61,1138.03 2030.74,1138.93 2050.86,1139.44 2070.99,1139.56 2091.12,1139.27 2111.24,1138.59 2131.37,1137.53 2151.49,1136.11 2171.62,1134.36 2191.75,1132.31 2211.87,1130.01 2232,1127.5 2252.12,1124.83 2272.25,1122.06 2292.38,1119.24 "/>
<polyline clip-path="url(#clip802)" style="stroke:#00a9ad; stroke-linecap:round; stroke-linejoin:round; stroke-width:4; stroke-opacity:1; fill:none" points="279.759,1085.39 299.885,1085.58 320.011,1086.15 340.137,1087.08 360.263,1088.37 380.39,1089.97 400.516,1091.87 420.642,1094.02 440.768,1096.38 460.894,1098.9 481.021,1101.53 501.147,1104.23 521.273,1106.92 541.399,1109.57 561.525,1112.12 581.652,1114.51 601.778,1116.71 621.904,1118.66 642.03,1120.33 662.156,1121.68 682.282,1122.68 702.409,1123.32 722.535,1123.59 742.661,1123.47 762.787,1122.98 782.913,1122.11 803.04,1120.89 823.166,1119.35 843.292,1117.5 863.418,1115.4 883.544,1113.08 903.67,1110.59 923.797,1107.97 943.923,1105.29 964.049,1102.58 984.175,1099.92 1004.3,1097.35 1024.43,1094.92 1044.55,1092.69 1064.68,1090.68 1084.81,1088.96 1104.93,1087.55 1125.06,1086.47 1145.18,1085.75 1165.31,1085.41 1185.44,1085.46 1205.56,1085.88 1225.69,1086.67 1245.82,1087.82 1265.94,1089.31 1286.07,1091.1 1306.19,1093.15 1326.32,1095.43 1346.45,1097.9 1366.57,1100.49 1386.7,1103.17 1406.83,1105.87 1426.95,1108.54 1447.08,1111.14 1467.2,1113.6 1487.33,1115.88 1507.46,1117.93 1527.58,1119.71 1547.71,1121.19 1567.83,1122.33 1587.96,1123.12 1608.09,1123.53 1628.21,1123.56 1648.34,1123.22 1668.47,1122.49 1688.59,1121.41 1708.72,1119.99 1728.84,1118.26 1748.97,1116.25 1769.1,1114.01 1789.22,1111.58 1809.35,1109.01 1829.48,1106.34 1849.6,1103.64 1869.73,1100.96 1889.85,1098.34 1909.98,1095.85 1930.11,1093.54 1950.23,1091.44 1970.36,1089.6 1990.48,1088.06 2010.61,1086.85 2030.74,1085.99 2050.86,1085.5 2070.99,1085.39 2091.12,1085.67 2111.24,1086.32 2131.37,1087.33 2151.49,1088.69 2171.62,1090.36 2191.75,1092.32 2211.87,1094.51 2232,1096.91 2252.12,1099.46 2272.25,1102.11 2292.38,1104.81 "/>
</svg>
