<?xml version="1.0" encoding="utf-8"?>
<svg xmlns="http://www.w3.org/2000/svg" xmlns:xlink="http://www.w3.org/1999/xlink" width="600" height="400" viewBox="0 0 2400 1600">
<defs>
  <clipPath id="clip070">
    <rect x="0" y="0" width="2400" height="1600"/>
  </clipPath>
</defs>
<path clip-path="url(#clip070)" d="M0 1600 L2400 1600 L2400 0 L0 0  Z" fill="#ffffff" fill-rule="evenodd" fill-opacity="1"/>
<defs>
  <clipPath id="clip071">
    <rect x="480" y="0" width="1681" height="1600"/>
  </clipPath>
</defs>
<path clip-path="url(#clip070)" d="M255.977 1423.18 L2352.76 1423.18 L2352.76 47.2441 L255.977 47.2441  Z" fill="#ffffff" fill-rule="evenodd" fill-opacity="1"/>
<defs>
  <clipPath id="clip072">
    <rect x="255" y="47" width="2098" height="1377"/>
  </clipPath>
</defs>
<polyline clip-path="url(#clip072)" style="stroke:#000000; stroke-linecap:round; stroke-linejoin:round; stroke-width:2; stroke-opacity:0.1; fill:none" points="315.32,1423.18 315.32,47.2441 "/>
<polyline clip-path="url(#clip072)" style="stroke:#000000; stroke-linecap:round; stroke-linejoin:round; stroke-width:2; stroke-opacity:0.1; fill:none" points="809.843,1423.18 809.843,47.2441 "/>
<polyline clip-path="url(#clip072)" style="stroke:#000000; stroke-linecap:round; stroke-linejoin:round; stroke-width:2; stroke-opacity:0.1; fill:none" points="1304.37,1423.18 1304.37,47.2441 "/>
<polyline clip-path="url(#clip072)" style="stroke:#000000; stroke-linecap:round; stroke-linejoin:round; stroke-width:2; stroke-opacity:0.1; fill:none" points="1798.89,1423.18 1798.89,47.2441 "/>
<polyline clip-path="url(#clip072)" style="stroke:#000000; stroke-linecap:round; stroke-linejoin:round; stroke-width:2; stroke-opacity:0.1; fill:none" points="2293.41,1423.18 2293.41,47.2441 "/>
<polyline clip-path="url(#clip070)" style="stroke:#000000; stroke-linecap:round; stroke-linejoin:round; stroke-width:4; stroke-opacity:1; fill:none" points="255.977,1423.18 2352.76,1423.18 "/>
<polyline clip-path="url(#clip070)" style="stroke:#000000; stroke-linecap:round; stroke-linejoin:round; stroke-width:4; stroke-opacity:1; fill:none" points="315.32,1423.18 315.32,1404.28 "/>
<polyline clip-path="url(#clip070)" style="stroke:#000000; stroke-linecap:round; stroke-linejoin:round; stroke-width:4; stroke-opacity:1; fill:none" points="809.843,1423.18 809.843,1404.28 "/>
<polyline clip-path="url(#clip070)" style="stroke:#000000; stroke-linecap:round; stroke-linejoin:round; stroke-width:4; stroke-opacity:1; fill:none" points="1304.37,1423.18 1304.37,1404.28 "/>
<polyline clip-path="url(#clip070)" style="stroke:#000000; stroke-linecap:round; stroke-linejoin:round; stroke-width:4; stroke-opacity:1; fill:none" points="1798.89,1423.18 1798.89,1404.28 "/>
<polyline clip-path="url(#clip070)" style="stroke:#000000; stroke-linecap:round; stroke-linejoin:round; stroke-width:4; stroke-opacity:1; fill:none" points="2293.41,1423.18 2293.41,1404.28 "/>
<path clip-path="url(#clip070)" d="M269.383 1468.75 L299.058 1468.75 L299.058 1472.69 L269.383 1472.69 L269.383 1468.75 Z" fill="#000000" fill-rule="nonzero" fill-opacity="1" /><path clip-path="url(#clip070)" d="M309.961 1481.64 L317.6 1481.64 L317.6 1455.28 L309.29 1456.95 L309.29 1452.69 L317.554 1451.02 L322.23 1451.02 L322.23 1481.64 L329.869 1481.64 L329.869 1485.58 L309.961 1485.58 L309.961 1481.64 Z" fill="#000000" fill-rule="nonzero" fill-opacity="1" /><path clip-path="url(#clip070)" d="M349.313 1454.1 Q345.702 1454.1 343.873 1457.66 Q342.068 1461.2 342.068 1468.33 Q342.068 1475.44 343.873 1479.01 Q345.702 1482.55 349.313 1482.55 Q352.947 1482.55 354.753 1479.01 Q356.581 1475.44 356.581 1468.33 Q356.581 1461.2 354.753 1457.66 Q352.947 1454.1 349.313 1454.1 M349.313 1450.39 Q355.123 1450.39 358.179 1455 Q361.257 1459.58 361.257 1468.33 Q361.257 1477.06 358.179 1481.67 Q355.123 1486.25 349.313 1486.25 Q343.503 1486.25 340.424 1481.67 Q337.368 1477.06 337.368 1468.33 Q337.368 1459.58 340.424 1455 Q343.503 1450.39 349.313 1450.39 Z" fill="#000000" fill-rule="nonzero" fill-opacity="1" /><path clip-path="url(#clip070)" d="M779.485 1468.75 L809.16 1468.75 L809.16 1472.69 L779.485 1472.69 L779.485 1468.75 Z" fill="#000000" fill-rule="nonzero" fill-opacity="1" /><path clip-path="url(#clip070)" d="M819.299 1451.02 L837.656 1451.02 L837.656 1454.96 L823.582 1454.96 L823.582 1463.43 Q824.6 1463.08 825.619 1462.92 Q826.637 1462.73 827.656 1462.73 Q833.443 1462.73 836.822 1465.9 Q840.202 1469.08 840.202 1474.49 Q840.202 1480.07 836.73 1483.17 Q833.257 1486.25 826.938 1486.25 Q824.762 1486.25 822.494 1485.88 Q820.248 1485.51 817.841 1484.77 L817.841 1480.07 Q819.924 1481.2 822.146 1481.76 Q824.369 1482.32 826.845 1482.32 Q830.85 1482.32 833.188 1480.21 Q835.526 1478.1 835.526 1474.49 Q835.526 1470.88 833.188 1468.77 Q830.85 1466.67 826.845 1466.67 Q824.97 1466.67 823.096 1467.08 Q821.244 1467.5 819.299 1468.38 L819.299 1451.02 Z" fill="#000000" fill-rule="nonzero" fill-opacity="1" /><path clip-path="url(#clip070)" d="M1304.37 1454.1 Q1300.76 1454.1 1298.93 1457.66 Q1297.12 1461.2 1297.12 1468.33 Q1297.12 1475.44 1298.93 1479.01 Q1300.76 1482.55 1304.37 1482.55 Q1308 1482.55 1309.81 1479.01 Q1311.64 1475.44 1311.64 1468.33 Q1311.64 1461.2 1309.81 1457.66 Q1308 1454.1 1304.37 1454.1 M1304.37 1450.39 Q1310.18 1450.39 1313.23 1455 Q1316.31 1459.58 1316.31 1468.33 Q1316.31 1477.06 1313.23 1481.67 Q1310.18 1486.25 1304.37 1486.25 Q1298.56 1486.25 1295.48 1481.67 Q1292.42 1477.06 1292.42 1468.33 Q1292.42 1459.58 1295.48 1455 Q1298.56 1450.39 1304.37 1450.39 Z" fill="#000000" fill-rule="nonzero" fill-opacity="1" /><path clip-path="url(#clip070)" d="M1789.17 1451.02 L1807.52 1451.02 L1807.52 1454.96 L1793.45 1454.96 L1793.45 1463.43 Q1794.47 1463.08 1795.49 1462.92 Q1796.51 1462.73 1797.52 1462.73 Q1803.31 1462.73 1806.69 1465.9 Q1810.07 1469.08 1810.07 1474.49 Q1810.07 1480.07 1806.6 1483.17 Q1803.13 1486.25 1796.81 1486.25 Q1794.63 1486.25 1792.36 1485.88 Q1790.12 1485.51 1787.71 1484.77 L1787.71 1480.07 Q1789.79 1481.2 1792.01 1481.76 Q1794.24 1482.32 1796.71 1482.32 Q1800.72 1482.32 1803.06 1480.21 Q1805.39 1478.1 1805.39 1474.49 Q1805.39 1470.88 1803.06 1468.77 Q1800.72 1466.67 1796.71 1466.67 Q1794.84 1466.67 1792.96 1467.08 Q1791.11 1467.5 1789.17 1468.38 L1789.17 1451.02 Z" fill="#000000" fill-rule="nonzero" fill-opacity="1" /><path clip-path="url(#clip070)" d="M2268.1 1481.64 L2275.74 1481.64 L2275.74 1455.28 L2267.43 1456.95 L2267.43 1452.69 L2275.69 1451.02 L2280.37 1451.02 L2280.37 1481.64 L2288.01 1481.64 L2288.01 1485.58 L2268.1 1485.58 L2268.1 1481.64 Z" fill="#000000" fill-rule="nonzero" fill-opacity="1" /><path clip-path="url(#clip070)" d="M2307.45 1454.1 Q2303.84 1454.1 2302.01 1457.66 Q2300.21 1461.2 2300.21 1468.33 Q2300.21 1475.44 2302.01 1479.01 Q2303.84 1482.55 2307.45 1482.55 Q2311.09 1482.55 2312.89 1479.01 Q2314.72 1475.44 2314.72 1468.33 Q2314.72 1461.2 2312.89 1457.66 Q2311.09 1454.1 2307.45 1454.1 M2307.45 1450.39 Q2313.26 1450.39 2316.32 1455 Q2319.4 1459.58 2319.4 1468.33 Q2319.4 1477.06 2316.32 1481.67 Q2313.26 1486.25 2307.45 1486.25 Q2301.64 1486.25 2298.56 1481.67 Q2295.51 1477.06 2295.51 1468.33 Q2295.51 1459.58 2298.56 1455 Q2301.64 1450.39 2307.45 1450.39 Z" fill="#000000" fill-rule="nonzero" fill-opacity="1" /><path clip-path="url(#clip070)" d="M1248.78 1537.87 Q1247.79 1537.3 1246.61 1537.04 Q1245.47 1536.76 1244.07 1536.76 Q1239.1 1536.76 1236.43 1540 Q1233.79 1543.22 1233.79 1549.27 L1233.79 1568.04 L1227.9 1568.04 L1227.9 1532.4 L1233.79 1532.4 L1233.79 1537.93 Q1235.63 1534.69 1238.59 1533.13 Q1241.55 1531.54 1245.79 1531.54 Q1246.39 1531.54 1247.12 1531.63 Q1247.85 1531.7 1248.75 1531.85 L1248.78 1537.87 Z" fill="#000000" fill-rule="nonzero" fill-opacity="1" /><path clip-path="url(#clip070)" d="M1289.71 1518.58 Q1285.44 1525.9 1283.38 1533.06 Q1281.31 1540.23 1281.31 1547.58 Q1281.31 1554.93 1283.38 1562.16 Q1285.48 1569.35 1289.71 1576.64 L1284.62 1576.64 Q1279.84 1569.16 1277.46 1561.93 Q1275.1 1554.71 1275.1 1547.58 Q1275.1 1540.48 1277.46 1533.29 Q1279.81 1526.09 1284.62 1518.58 L1289.71 1518.58 Z" fill="#000000" fill-rule="nonzero" fill-opacity="1" /><path clip-path="url(#clip070)" d="M1317.27 1550.12 Q1310.18 1550.12 1307.44 1551.75 Q1304.7 1553.37 1304.7 1557.29 Q1304.7 1560.4 1306.74 1562.25 Q1308.81 1564.07 1312.34 1564.07 Q1317.21 1564.07 1320.14 1560.63 Q1323.1 1557.16 1323.1 1551.43 L1323.1 1550.12 L1317.27 1550.12 M1328.95 1547.71 L1328.95 1568.04 L1323.1 1568.04 L1323.1 1562.63 Q1321.09 1565.88 1318.1 1567.44 Q1315.11 1568.97 1310.78 1568.97 Q1305.31 1568.97 1302.06 1565.91 Q1298.84 1562.82 1298.84 1557.67 Q1298.84 1551.65 1302.85 1548.6 Q1306.9 1545.54 1314.89 1545.54 L1323.1 1545.54 L1323.1 1544.97 Q1323.1 1540.93 1320.42 1538.73 Q1317.78 1536.5 1312.98 1536.5 Q1309.92 1536.5 1307.02 1537.23 Q1304.13 1537.97 1301.45 1539.43 L1301.45 1534.02 Q1304.67 1532.78 1307.69 1532.17 Q1310.72 1531.54 1313.58 1531.54 Q1321.32 1531.54 1325.13 1535.55 Q1328.95 1539.56 1328.95 1547.71 Z" fill="#000000" fill-rule="nonzero" fill-opacity="1" /><path clip-path="url(#clip070)" d="M1353.02 1546.5 Q1351.43 1543.76 1348.21 1543.76 Q1345 1543.76 1343.4 1546.5 Q1341.78 1549.23 1341.78 1554.71 Q1341.78 1560.21 1343.4 1562.95 Q1345 1565.69 1348.21 1565.69 Q1351.43 1565.69 1353.02 1562.95 Q1354.64 1560.21 1354.64 1554.71 Q1354.64 1549.23 1353.02 1546.5 M1348.21 1540.93 Q1353.33 1540.93 1356.04 1544.46 Q1358.75 1547.99 1358.75 1554.71 Q1358.75 1561.46 1356.04 1564.99 Q1353.33 1568.52 1348.21 1568.52 Q1343.05 1568.52 1340.35 1564.99 Q1337.64 1561.46 1337.64 1554.71 Q1337.64 1547.99 1340.35 1544.46 Q1343.05 1540.93 1348.21 1540.93 Z" fill="#000000" fill-rule="nonzero" fill-opacity="1" /><path clip-path="url(#clip070)" d="M1366.23 1518.58 L1371.32 1518.58 Q1376.09 1526.09 1378.45 1533.29 Q1380.83 1540.48 1380.83 1547.58 Q1380.83 1554.71 1378.45 1561.93 Q1376.09 1569.16 1371.32 1576.64 L1366.23 1576.64 Q1370.46 1569.35 1372.53 1562.16 Q1374.63 1554.93 1374.63 1547.58 Q1374.63 1540.23 1372.53 1533.06 Q1370.46 1525.9 1366.23 1518.58 Z" fill="#000000" fill-rule="nonzero" fill-opacity="1" /><polyline clip-path="url(#clip072)" style="stroke:#000000; stroke-linecap:round; stroke-linejoin:round; stroke-width:2; stroke-opacity:0.1; fill:none" points="255.977,1384.28 2352.76,1384.28 "/>
<polyline clip-path="url(#clip072)" style="stroke:#000000; stroke-linecap:round; stroke-linejoin:round; stroke-width:2; stroke-opacity:0.1; fill:none" points="255.977,1059.74 2352.76,1059.74 "/>
<polyline clip-path="url(#clip072)" style="stroke:#000000; stroke-linecap:round; stroke-linejoin:round; stroke-width:2; stroke-opacity:0.1; fill:none" points="255.977,735.212 2352.76,735.212 "/>
<polyline clip-path="url(#clip072)" style="stroke:#000000; stroke-linecap:round; stroke-linejoin:round; stroke-width:2; stroke-opacity:0.1; fill:none" points="255.977,410.68 2352.76,410.68 "/>
<polyline clip-path="url(#clip072)" style="stroke:#000000; stroke-linecap:round; stroke-linejoin:round; stroke-width:2; stroke-opacity:0.1; fill:none" points="255.977,86.1485 2352.76,86.1485 "/>
<polyline clip-path="url(#clip070)" style="stroke:#000000; stroke-linecap:round; stroke-linejoin:round; stroke-width:4; stroke-opacity:1; fill:none" points="255.977,1423.18 255.977,47.2441 "/>
<polyline clip-path="url(#clip070)" style="stroke:#000000; stroke-linecap:round; stroke-linejoin:round; stroke-width:4; stroke-opacity:1; fill:none" points="255.977,1384.28 274.875,1384.28 "/>
<polyline clip-path="url(#clip070)" style="stroke:#000000; stroke-linecap:round; stroke-linejoin:round; stroke-width:4; stroke-opacity:1; fill:none" points="255.977,1059.74 274.875,1059.74 "/>
<polyline clip-path="url(#clip070)" style="stroke:#000000; stroke-linecap:round; stroke-linejoin:round; stroke-width:4; stroke-opacity:1; fill:none" points="255.977,735.212 274.875,735.212 "/>
<polyline clip-path="url(#clip070)" style="stroke:#000000; stroke-linecap:round; stroke-linejoin:round; stroke-width:4; stroke-opacity:1; fill:none" points="255.977,410.68 274.875,410.68 "/>
<polyline clip-path="url(#clip070)" style="stroke:#000000; stroke-linecap:round; stroke-linejoin:round; stroke-width:4; stroke-opacity:1; fill:none" points="255.977,86.1485 274.875,86.1485 "/>
<path clip-path="url(#clip070)" d="M114.631 1384.73 L144.306 1384.73 L144.306 1388.66 L114.631 1388.66 L114.631 1384.73 Z" fill="#000000" fill-rule="nonzero" fill-opacity="1" /><path clip-path="url(#clip070)" d="M164.399 1370.07 Q160.788 1370.07 158.959 1373.64 Q157.153 1377.18 157.153 1384.31 Q157.153 1391.42 158.959 1394.98 Q160.788 1398.52 164.399 1398.52 Q168.033 1398.52 169.839 1394.98 Q171.667 1391.42 171.667 1384.31 Q171.667 1377.18 169.839 1373.64 Q168.033 1370.07 164.399 1370.07 M164.399 1366.37 Q170.209 1366.37 173.264 1370.98 Q176.343 1375.56 176.343 1384.31 Q176.343 1393.04 173.264 1397.64 Q170.209 1402.23 164.399 1402.23 Q158.589 1402.23 155.51 1397.64 Q152.454 1393.04 152.454 1384.31 Q152.454 1375.56 155.51 1370.98 Q158.589 1366.37 164.399 1366.37 Z" fill="#000000" fill-rule="nonzero" fill-opacity="1" /><path clip-path="url(#clip070)" d="M184.561 1395.68 L189.445 1395.68 L189.445 1401.56 L184.561 1401.56 L184.561 1395.68 Z" fill="#000000" fill-rule="nonzero" fill-opacity="1" /><path clip-path="url(#clip070)" d="M203.658 1397.62 L219.977 1397.62 L219.977 1401.56 L198.033 1401.56 L198.033 1397.62 Q200.695 1394.87 205.278 1390.24 Q209.885 1385.58 211.065 1384.24 Q213.311 1381.72 214.19 1379.98 Q215.093 1378.22 215.093 1376.53 Q215.093 1373.78 213.149 1372.04 Q211.227 1370.31 208.125 1370.31 Q205.926 1370.31 203.473 1371.07 Q201.042 1371.83 198.264 1373.38 L198.264 1368.66 Q201.088 1367.53 203.542 1366.95 Q205.996 1366.37 208.033 1366.37 Q213.403 1366.37 216.598 1369.06 Q219.792 1371.74 219.792 1376.23 Q219.792 1378.36 218.982 1380.28 Q218.195 1382.18 216.088 1384.77 Q215.51 1385.44 212.408 1388.66 Q209.306 1391.86 203.658 1397.62 Z" fill="#000000" fill-rule="nonzero" fill-opacity="1" /><path clip-path="url(#clip070)" d="M114.26 1060.2 L143.936 1060.2 L143.936 1064.13 L114.26 1064.13 L114.26 1060.2 Z" fill="#000000" fill-rule="nonzero" fill-opacity="1" /><path clip-path="url(#clip070)" d="M164.028 1045.54 Q160.417 1045.54 158.589 1049.11 Q156.783 1052.65 156.783 1059.78 Q156.783 1066.88 158.589 1070.45 Q160.417 1073.99 164.028 1073.99 Q167.663 1073.99 169.468 1070.45 Q171.297 1066.88 171.297 1059.78 Q171.297 1052.65 169.468 1049.11 Q167.663 1045.54 164.028 1045.54 M164.028 1041.84 Q169.839 1041.84 172.894 1046.45 Q175.973 1051.03 175.973 1059.78 Q175.973 1068.51 172.894 1073.11 Q169.839 1077.69 164.028 1077.69 Q158.218 1077.69 155.14 1073.11 Q152.084 1068.51 152.084 1059.78 Q152.084 1051.03 155.14 1046.45 Q158.218 1041.84 164.028 1041.84 Z" fill="#000000" fill-rule="nonzero" fill-opacity="1" /><path clip-path="url(#clip070)" d="M184.19 1071.14 L189.075 1071.14 L189.075 1077.02 L184.19 1077.02 L184.19 1071.14 Z" fill="#000000" fill-rule="nonzero" fill-opacity="1" /><path clip-path="url(#clip070)" d="M200.07 1073.09 L207.709 1073.09 L207.709 1046.72 L199.399 1048.39 L199.399 1044.13 L207.662 1042.46 L212.338 1042.46 L212.338 1073.09 L219.977 1073.09 L219.977 1077.02 L200.07 1077.02 L200.07 1073.09 Z" fill="#000000" fill-rule="nonzero" fill-opacity="1" /><path clip-path="url(#clip070)" d="M162.802 721.011 Q159.19 721.011 157.362 724.575 Q155.556 728.117 155.556 735.247 Q155.556 742.353 157.362 745.918 Q159.19 749.46 162.802 749.46 Q166.436 749.46 168.241 745.918 Q170.07 742.353 170.07 735.247 Q170.07 728.117 168.241 724.575 Q166.436 721.011 162.802 721.011 M162.802 717.307 Q168.612 717.307 171.667 721.913 Q174.746 726.497 174.746 735.247 Q174.746 743.973 171.667 748.58 Q168.612 753.163 162.802 753.163 Q156.991 753.163 153.913 748.58 Q150.857 743.973 150.857 735.247 Q150.857 726.497 153.913 721.913 Q156.991 717.307 162.802 717.307 Z" fill="#000000" fill-rule="nonzero" fill-opacity="1" /><path clip-path="url(#clip070)" d="M182.963 746.612 L187.848 746.612 L187.848 752.492 L182.963 752.492 L182.963 746.612 Z" fill="#000000" fill-rule="nonzero" fill-opacity="1" /><path clip-path="url(#clip070)" d="M208.033 721.011 Q204.422 721.011 202.593 724.575 Q200.787 728.117 200.787 735.247 Q200.787 742.353 202.593 745.918 Q204.422 749.46 208.033 749.46 Q211.667 749.46 213.473 745.918 Q215.301 742.353 215.301 735.247 Q215.301 728.117 213.473 724.575 Q211.667 721.011 208.033 721.011 M208.033 717.307 Q213.843 717.307 216.898 721.913 Q219.977 726.497 219.977 735.247 Q219.977 743.973 216.898 748.58 Q213.843 753.163 208.033 753.163 Q202.223 753.163 199.144 748.58 Q196.088 743.973 196.088 735.247 Q196.088 726.497 199.144 721.913 Q202.223 717.307 208.033 717.307 Z" fill="#000000" fill-rule="nonzero" fill-opacity="1" /><path clip-path="url(#clip070)" d="M164.028 396.479 Q160.417 396.479 158.589 400.044 Q156.783 403.585 156.783 410.715 Q156.783 417.821 158.589 421.386 Q160.417 424.928 164.028 424.928 Q167.663 424.928 169.468 421.386 Q171.297 417.821 171.297 410.715 Q171.297 403.585 169.468 400.044 Q167.663 396.479 164.028 396.479 M164.028 392.775 Q169.839 392.775 172.894 397.382 Q175.973 401.965 175.973 410.715 Q175.973 419.442 172.894 424.048 Q169.839 428.632 164.028 428.632 Q158.218 428.632 155.14 424.048 Q152.084 419.442 152.084 410.715 Q152.084 401.965 155.14 397.382 Q158.218 392.775 164.028 392.775 Z" fill="#000000" fill-rule="nonzero" fill-opacity="1" /><path clip-path="url(#clip070)" d="M184.19 422.081 L189.075 422.081 L189.075 427.96 L184.19 427.96 L184.19 422.081 Z" fill="#000000" fill-rule="nonzero" fill-opacity="1" /><path clip-path="url(#clip070)" d="M200.07 424.025 L207.709 424.025 L207.709 397.659 L199.399 399.326 L199.399 395.067 L207.662 393.4 L212.338 393.4 L212.338 424.025 L219.977 424.025 L219.977 427.96 L200.07 427.96 L200.07 424.025 Z" fill="#000000" fill-rule="nonzero" fill-opacity="1" /><path clip-path="url(#clip070)" d="M164.399 71.9472 Q160.788 71.9472 158.959 75.512 Q157.153 79.0537 157.153 86.1833 Q157.153 93.2897 158.959 96.8545 Q160.788 100.396 164.399 100.396 Q168.033 100.396 169.839 96.8545 Q171.667 93.2897 171.667 86.1833 Q171.667 79.0537 169.839 75.512 Q168.033 71.9472 164.399 71.9472 M164.399 68.2435 Q170.209 68.2435 173.264 72.85 Q176.343 77.4333 176.343 86.1833 Q176.343 94.9101 173.264 99.5165 Q170.209 104.1 164.399 104.1 Q158.589 104.1 155.51 99.5165 Q152.454 94.9101 152.454 86.1833 Q152.454 77.4333 155.51 72.85 Q158.589 68.2435 164.399 68.2435 Z" fill="#000000" fill-rule="nonzero" fill-opacity="1" /><path clip-path="url(#clip070)" d="M184.561 97.5489 L189.445 97.5489 L189.445 103.429 L184.561 103.429 L184.561 97.5489 Z" fill="#000000" fill-rule="nonzero" fill-opacity="1" /><path clip-path="url(#clip070)" d="M203.658 99.4934 L219.977 99.4934 L219.977 103.429 L198.033 103.429 L198.033 99.4934 Q200.695 96.7388 205.278 92.1092 Q209.885 87.4564 211.065 86.1138 Q213.311 83.5907 214.19 81.8546 Q215.093 80.0953 215.093 78.4055 Q215.093 75.6509 213.149 73.9148 Q211.227 72.1787 208.125 72.1787 Q205.926 72.1787 203.473 72.9426 Q201.042 73.7065 198.264 75.2574 L198.264 70.5352 Q201.088 69.4009 203.542 68.8222 Q205.996 68.2435 208.033 68.2435 Q213.403 68.2435 216.598 70.9287 Q219.792 73.6139 219.792 78.1046 Q219.792 80.2342 218.982 82.1555 Q218.195 84.0536 216.088 86.6462 Q215.51 87.3175 212.408 90.5351 Q209.306 93.7295 203.658 99.4934 Z" fill="#000000" fill-rule="nonzero" fill-opacity="1" /><path clip-path="url(#clip070)" d="M64.0042 844.702 L16.4842 862.844 L16.4842 856.129 L56.4926 841.074 L16.4842 825.987 L16.4842 819.303 L64.0042 837.413 L64.0042 844.702 Z" fill="#000000" fill-rule="nonzero" fill-opacity="1" /><path clip-path="url(#clip070)" d="M14.5426 798.551 Q21.8632 802.816 29.0246 804.885 Q36.186 806.953 43.5384 806.953 Q50.8908 806.953 58.1159 804.885 Q65.3091 802.784 72.5979 798.551 L72.5979 803.643 Q65.1182 808.418 57.8931 810.805 Q50.668 813.16 43.5384 813.16 Q36.4406 813.16 29.2474 810.805 Q22.0542 808.449 14.5426 803.643 L14.5426 798.551 Z" fill="#000000" fill-rule="nonzero" fill-opacity="1" /><path clip-path="url(#clip070)" d="M33.8307 766.531 Q33.2578 767.518 33.0032 768.696 Q32.7167 769.841 32.7167 771.242 Q32.7167 776.207 35.9632 778.881 Q39.1779 781.522 45.2253 781.522 L64.0042 781.522 L64.0042 787.411 L28.3562 787.411 L28.3562 781.522 L33.8944 781.522 Q30.6479 779.676 29.0883 776.716 Q27.4968 773.756 27.4968 769.523 Q27.4968 768.918 27.5923 768.186 Q27.656 767.454 27.8151 766.563 L33.8307 766.531 Z" fill="#000000" fill-rule="nonzero" fill-opacity="1" /><path clip-path="url(#clip070)" d="M14.5426 761.311 L14.5426 756.219 Q22.0542 751.445 29.2474 749.089 Q36.4406 746.702 43.5384 746.702 Q50.668 746.702 57.8931 749.089 Q65.1182 751.445 72.5979 756.219 L72.5979 761.311 Q65.3091 757.078 58.1159 755.009 Q50.8908 752.909 43.5384 752.909 Q36.186 752.909 29.0246 755.009 Q21.8632 757.078 14.5426 761.311 Z" fill="#000000" fill-rule="nonzero" fill-opacity="1" /><path clip-path="url(#clip070)" d="M14.5426 700.169 Q21.8632 704.434 29.0246 706.503 Q36.186 708.571 43.5384 708.571 Q50.8908 708.571 58.1159 706.503 Q65.3091 704.402 72.5979 700.169 L72.5979 705.261 Q65.1182 710.036 57.8931 712.423 Q50.668 714.778 43.5384 714.778 Q36.4406 714.778 29.2474 712.423 Q22.0542 710.067 14.5426 705.261 L14.5426 700.169 Z" fill="#000000" fill-rule="nonzero" fill-opacity="1" /><path clip-path="url(#clip070)" d="M16.4842 688.551 L16.4842 658.505 L21.895 658.505 L21.895 682.122 L35.9632 682.122 L35.9632 659.492 L41.3741 659.492 L41.3741 682.122 L58.5933 682.122 L58.5933 657.932 L64.0042 657.932 L64.0042 688.551 L16.4842 688.551 Z" fill="#000000" fill-rule="nonzero" fill-opacity="1" /><path clip-path="url(#clip070)" d="M51.9411 631.228 L64.0042 631.228 L64.0042 634.92 L52.0685 634.92 Q49.2357 634.92 47.8353 636.162 Q46.403 637.403 46.403 639.886 Q46.403 642.877 48.1217 644.596 Q49.8086 646.315 52.7369 646.315 L64.0042 646.315 L64.0042 650.039 L36.2815 650.039 L36.2815 646.315 L47.135 646.315 Q45.3526 645.01 44.4614 643.228 Q43.5702 641.413 43.5702 639.058 Q43.5702 635.207 45.7028 633.233 Q47.8353 631.228 51.9411 631.228 Z" fill="#000000" fill-rule="nonzero" fill-opacity="1" /><path clip-path="url(#clip070)" d="M14.5426 622.189 L14.5426 617.096 Q22.0542 612.322 29.2474 609.967 Q36.4406 607.58 43.5384 607.58 Q50.668 607.58 57.8931 609.967 Q65.1182 612.322 72.5979 617.096 L72.5979 622.189 Q65.3091 617.956 58.1159 615.887 Q50.8908 613.786 43.5384 613.786 Q36.186 613.786 29.0246 615.887 Q21.8632 617.956 14.5426 622.189 Z" fill="#000000" fill-rule="nonzero" fill-opacity="1" /><polyline clip-path="url(#clip072)" style="stroke:#000000; stroke-linecap:round; stroke-linejoin:round; stroke-width:4; stroke-opacity:1; fill:none" points="315.32,737.16 325.21,737.16 335.101,737.16 344.991,737.16 354.882,737.16 364.772,737.16 374.663,737.16 384.553,737.161 394.444,737.161 404.334,737.161 414.225,737.162 424.115,737.162 434.006,737.163 443.896,737.163 453.786,737.164 463.677,737.165 473.567,737.166 483.458,737.168 493.348,737.17 503.239,737.172 513.129,737.174 523.02,737.177 532.91,737.181 542.801,737.185 552.691,737.19 562.582,737.196 572.472,737.203 582.363,737.212 592.253,737.222 602.143,737.234 612.034,737.248 621.924,737.265 631.815,737.286 641.705,737.31 651.596,737.338 661.486,737.372 671.377,737.411 681.267,737.458 691.158,737.512 701.048,737.575 710.939,737.649 720.829,737.735 730.72,737.833 740.61,737.947 750.5,738.076 760.391,738.225 770.281,738.393 780.172,738.583 790.062,738.798 799.953,739.039 809.843,739.309 819.734,739.611 829.624,739.947 839.515,740.32 849.405,740.734 859.296,741.192 869.186,741.698 879.077,742.256 888.967,742.87 898.857,743.547 908.748,744.291 918.638,745.108 928.529,746.005 938.419,746.99 948.31,748.07 958.2,749.255 968.091,750.553 977.981,751.975 987.872,753.533 997.762,755.24 1007.65,757.109 1017.54,759.156 1027.43,761.396 1037.32,763.849 1047.21,766.534 1057.1,769.473 1067,772.689 1076.89,776.21 1086.78,780.062 1096.67,784.278 1106.56,788.892 1116.45,793.941 1126.34,799.466 1136.23,805.512 1146.12,812.127 1156.01,819.366 1165.9,827.287 1175.79,835.955 1185.68,845.439 1195.57,855.816 1205.46,867.171 1215.35,879.596 1225.24,893.191 1235.13,908.066 1245.02,924.342 1254.91,942.152 1264.8,961.638 1274.7,982.96 1284.59,1006.29 1294.48,1031.82 1304.37,1059.75 1314.26,1087.68 1324.15,1113.21 1334.04,1136.54 1343.93,1157.86 1353.82,1177.35 1363.71,1195.16 1373.6,1211.44 1383.49,1226.31 1393.38,1239.91 1403.27,1252.33 1413.16,1263.69 1423.05,1274.07 1432.94,1283.55 1442.83,1292.22 1452.72,1300.15 1462.61,1307.39 1472.5,1314.01 1482.39,1320.05 1492.29,1325.58 1502.18,1330.63 1512.07,1335.25 1521.96,1339.47 1531.85,1343.33 1541.74,1346.85 1551.63,1350.07 1561.52,1353.02 1571.41,1355.71 1581.3,1358.17 1591.19,1360.41 1601.08,1362.47 1610.97,1364.35 1620.86,1366.06 1630.75,1367.63 1640.64,1369.06 1650.53,1370.37 1660.42,1371.57 1670.31,1372.66 1680.2,1373.66 1690.09,1374.58 1699.99,1375.41 1709.88,1376.17 1719.77,1376.87 1729.66,1377.51 1739.55,1378.09 1749.44,1378.62 1759.33,1379.11 1769.22,1379.56 1779.11,1379.96 1789,1380.33 1798.89,1380.67 1808.78,1380.98 1818.67,1381.27 1828.56,1381.53 1838.45,1381.76 1848.34,1381.98 1858.23,1382.18 1868.12,1382.36 1878.01,1382.52 1887.9,1382.67 1897.79,1382.81 1907.68,1382.94 1917.58,1383.05 1927.47,1383.16 1937.36,1383.26 1947.25,1383.34 1957.14,1383.42 1967.03,1383.5 1976.92,1383.56 1986.81,1383.63 1996.7,1383.68 2006.59,1383.73 2016.48,1383.78 2026.37,1383.82 2036.26,1383.86 2046.15,1383.9 2056.04,1383.93 2065.93,1383.96 2075.82,1383.99 2085.71,1384.01 2095.6,1384.04 2105.49,1384.06 2115.38,1384.08 2125.28,1384.09 2135.17,1384.11 2145.06,1384.12 2154.95,1384.14 2164.84,1384.15 2174.73,1384.16 2184.62,1384.17 2194.51,1384.18 2204.4,1384.19 2214.29,1384.2 2224.18,1384.2 2234.07,1384.21 2243.96,1384.22 2253.85,1384.22 2263.74,1384.23 2273.63,1384.23 2283.52,1384.23 2293.41,1384.24 "/>
<polyline clip-path="url(#clip072)" style="stroke:#000000; stroke-linecap:round; stroke-linejoin:round; stroke-width:4; stroke-opacity:1; fill:none" points="315.32,733.264 325.21,733.264 335.101,733.264 344.991,733.264 354.882,733.264 364.772,733.264 374.663,733.264 384.553,733.263 394.444,733.263 404.334,733.263 414.225,733.262 424.115,733.262 434.006,733.261 443.896,733.261 453.786,733.26 463.677,733.259 473.567,733.257 483.458,733.256 493.348,733.254 503.239,733.252 513.129,733.25 523.02,733.247 532.91,733.243 542.801,733.239 552.691,733.234 562.582,733.228 572.472,733.221 582.363,733.212 592.253,733.202 602.143,733.19 612.034,733.176 621.924,733.158 631.815,733.138 641.705,733.114 651.596,733.086 661.486,733.052 671.377,733.013 681.267,732.966 691.158,732.912 701.048,732.848 710.939,732.775 720.829,732.689 730.72,732.591 740.61,732.477 750.5,732.347 760.391,732.199 770.281,732.031 780.172,731.841 790.062,731.626 799.953,731.385 809.843,731.115 819.734,730.813 829.624,730.477 839.515,730.104 849.405,729.69 859.296,729.232 869.186,728.726 879.077,728.168 888.967,727.554 898.857,726.877 908.748,726.133 918.638,725.316 928.529,724.419 938.419,723.434 948.31,722.354 958.2,721.169 968.091,719.871 977.981,718.449 987.872,716.891 997.762,715.184 1007.65,713.315 1017.54,711.268 1027.43,709.028 1037.32,706.575 1047.21,703.89 1057.1,700.951 1067,697.735 1076.89,694.214 1086.78,690.362 1096.67,686.146 1106.56,681.532 1116.45,676.483 1126.34,670.958 1136.23,664.912 1146.12,658.297 1156.01,651.058 1165.9,643.137 1175.79,634.469 1185.68,624.985 1195.57,614.608 1205.46,603.253 1215.35,590.828 1225.24,577.233 1235.13,562.358 1245.02,546.082 1254.91,528.272 1264.8,508.786 1274.7,487.463 1284.59,464.133 1294.48,438.606 1304.37,410.674 1314.26,382.743 1324.15,357.215 1334.04,333.885 1343.93,312.562 1353.82,293.075 1363.71,275.265 1373.6,258.987 1383.49,244.111 1393.38,230.515 1403.27,218.09 1413.16,206.733 1423.05,196.355 1432.94,186.869 1442.83,178.2 1452.72,170.277 1462.61,163.036 1472.5,156.418 1482.39,150.37 1492.29,144.842 1502.18,139.79 1512.07,135.173 1521.96,130.953 1531.85,127.097 1541.74,123.572 1551.63,120.351 1561.52,117.407 1571.41,114.716 1581.3,112.257 1591.19,110.01 1601.08,107.956 1610.97,106.079 1620.86,104.363 1630.75,102.795 1640.64,101.362 1650.53,100.052 1660.42,98.8555 1670.31,97.7616 1680.2,96.7618 1690.09,95.8481 1699.99,95.013 1709.88,94.2498 1719.77,93.5523 1729.66,92.9148 1739.55,92.3322 1749.44,91.7997 1759.33,91.3131 1769.22,90.8683 1779.11,90.4618 1789,90.0903 1798.89,89.7508 1808.78,89.4405 1818.67,89.1569 1828.56,88.8978 1838.45,88.6609 1848.34,88.4444 1858.23,88.2465 1868.12,88.0657 1878.01,87.9005 1887.9,87.7494 1897.79,87.6114 1907.68,87.4852 1917.58,87.3699 1927.47,87.2646 1937.36,87.1683 1947.25,87.0802 1957.14,86.9998 1967.03,86.9263 1976.92,86.8591 1986.81,86.7977 1996.7,86.7416 2006.59,86.6903 2016.48,86.6434 2026.37,86.6005 2036.26,86.5614 2046.15,86.5256 2056.04,86.4929 2065.93,86.463 2075.82,86.4357 2085.71,86.4107 2095.6,86.3879 2105.49,86.3671 2115.38,86.348 2125.28,86.3306 2135.17,86.3147 2145.06,86.3001 2154.95,86.2868 2164.84,86.2747 2174.73,86.2636 2184.62,86.2534 2194.51,86.2441 2204.4,86.2357 2214.29,86.2279 2224.18,86.2208 2234.07,86.2143 2243.96,86.2084 2253.85,86.203 2263.74,86.1981 2273.63,86.1936 2283.52,86.1894 2293.41,86.1857 "/>
<polyline clip-path="url(#clip072)" style="stroke:#ff1f5b; stroke-linecap:round; stroke-linejoin:round; stroke-width:4; stroke-opacity:1; fill:none" points="315.32,733.265 325.21,733.265 335.101,733.265 344.991,733.265 354.882,733.265 364.772,733.265 374.663,733.265 384.553,733.265 394.444,733.265 404.334,733.265 414.225,733.265 424.115,733.265 434.006,733.265 443.896,733.265 453.786,733.265 463.677,733.265 473.567,733.265 483.458,733.265 493.348,733.265 503.239,733.265 513.129,733.265 523.02,733.265 532.91,733.265 542.801,733.265 552.691,733.265 562.582,733.265 572.472,733.265 582.363,733.265 592.253,733.265 602.143,733.265 612.034,733.265 621.924,733.265 631.815,733.265 641.705,733.265 651.596,733.265 661.486,733.265 671.377,733.265 681.267,733.265 691.158,733.265 701.048,733.265 710.939,733.265 720.829,733.265 730.72,733.265 740.61,733.265 750.5,733.265 760.391,733.265 770.281,733.265 780.172,733.265 790.062,733.265 799.953,733.265 809.843,733.265 819.734,733.265 829.624,733.265 839.515,733.265 849.405,733.265 859.296,733.265 869.186,733.265 879.077,733.265 888.967,733.265 898.857,733.265 908.748,733.265 918.638,733.265 928.529,733.265 938.419,733.265 948.31,733.265 958.2,733.265 968.091,733.265 977.981,733.265 987.872,733.265 997.762,733.265 1007.65,733.265 1017.54,733.265 1027.43,733.265 1037.32,733.265 1047.21,733.265 1057.1,733.265 1067,733.265 1076.89,733.265 1086.78,733.265 1096.67,733.265 1106.56,733.265 1116.45,733.265 1126.34,733.265 1136.23,733.265 1146.12,733.265 1156.01,733.265 1165.9,733.265 1175.79,733.265 1185.68,733.265 1195.57,733.265 1205.46,733.265 1215.35,733.265 1225.24,733.265 1235.13,733.265 1245.02,733.265 1254.91,733.265 1264.8,733.265 1274.7,733.265 1284.59,733.265 1294.48,733.265 1304.37,733.265 1314.26,733.265 1324.15,733.265 1334.04,733.265 1343.93,733.265 1353.82,733.265 1363.71,733.265 1373.6,733.265 1383.49,733.265 1393.38,733.265 1403.27,733.265 1413.16,733.265 1423.05,733.265 1432.94,733.265 1442.83,733.265 1452.72,733.265 1462.61,733.265 1472.5,733.265 1482.39,733.265 1492.29,733.265 1502.18,733.265 1512.07,733.265 1521.96,733.265 1531.85,733.265 1541.74,733.265 1551.63,733.265 1561.52,733.265 1571.41,733.265 1581.3,733.265 1591.19,733.265 1601.08,733.265 1610.97,733.265 1620.86,733.265 1630.75,733.265 1640.64,733.265 1650.53,733.265 1660.42,733.265 1670.31,733.265 1680.2,733.265 1690.09,733.265 1699.99,733.265 1709.88,733.265 1719.77,733.265 1729.66,733.265 1739.55,733.265 1749.44,733.265 1759.33,733.265 1769.22,733.265 1779.11,733.265 1789,733.265 1798.89,733.265 1808.78,733.265 1818.67,733.265 1828.56,733.265 1838.45,733.265 1848.34,733.265 1858.23,733.265 1868.12,733.265 1878.01,733.265 1887.9,733.265 1897.79,733.265 1907.68,733.265 1917.58,733.265 1927.47,733.265 1937.36,733.265 1947.25,733.265 1957.14,733.265 1967.03,733.265 1976.92,733.265 1986.81,733.265 1996.7,733.265 2006.59,733.265 2016.48,733.265 2026.37,733.265 2036.26,733.265 2046.15,733.265 2056.04,733.265 2065.93,733.265 2075.82,733.265 2085.71,733.265 2095.6,733.265 2105.49,733.265 2115.38,733.265 2125.28,733.265 2135.17,733.265 2145.06,733.265 2154.95,733.265 2164.84,733.265 2174.73,733.265 2184.62,733.265 2194.51,733.265 2204.4,733.265 2214.29,733.265 2224.18,733.265 2234.07,733.265 2243.96,733.265 2253.85,733.265 2263.74,733.265 2273.63,733.265 2283.52,733.265 2293.41,733.265 "/>
<polyline clip-path="url(#clip072)" style="stroke:#ff1f5b; stroke-linecap:round; stroke-linejoin:round; stroke-width:4; stroke-opacity:1; fill:none" points="315.32,737.159 325.21,737.159 335.101,737.159 344.991,737.159 354.882,737.159 364.772,737.159 374.663,737.159 384.553,737.159 394.444,737.159 404.334,737.159 414.225,737.159 424.115,737.159 434.006,737.159 443.896,737.159 453.786,737.159 463.677,737.159 473.567,737.159 483.458,737.159 493.348,737.159 503.239,737.159 513.129,737.159 523.02,737.159 532.91,737.159 542.801,737.159 552.691,737.159 562.582,737.159 572.472,737.159 582.363,737.159 592.253,737.159 602.143,737.159 612.034,737.159 621.924,737.159 631.815,737.159 641.705,737.159 651.596,737.159 661.486,737.159 671.377,737.159 681.267,737.159 691.158,737.159 701.048,737.159 710.939,737.159 720.829,737.159 730.72,737.159 740.61,737.159 750.5,737.159 760.391,737.159 770.281,737.159 780.172,737.159 790.062,737.159 799.953,737.159 809.843,737.159 819.734,737.159 829.624,737.159 839.515,737.159 849.405,737.159 859.296,737.159 869.186,737.159 879.077,737.159 888.967,737.159 898.857,737.159 908.748,737.159 918.638,737.159 928.529,737.159 938.419,737.159 948.31,737.159 958.2,737.159 968.091,737.159 977.981,737.159 987.872,737.159 997.762,737.159 1007.65,737.159 1017.54,737.159 1027.43,737.159 1037.32,737.159 1047.21,737.159 1057.1,737.159 1067,737.159 1076.89,737.159 1086.78,737.159 1096.67,737.159 1106.56,737.159 1116.45,737.159 1126.34,737.159 1136.23,737.159 1146.12,737.159 1156.01,737.159 1165.9,737.159 1175.79,737.159 1185.68,737.159 1195.57,737.159 1205.46,737.159 1215.35,737.159 1225.24,737.159 1235.13,737.159 1245.02,737.159 1254.91,737.159 1264.8,737.159 1274.7,737.159 1284.59,737.159 1294.48,737.159 1304.37,737.159 1314.26,737.159 1324.15,737.159 1334.04,737.159 1343.93,737.159 1353.82,737.159 1363.71,737.159 1373.6,737.159 1383.49,737.159 1393.38,737.159 1403.27,737.159 1413.16,737.159 1423.05,737.159 1432.94,737.159 1442.83,737.159 1452.72,737.159 1462.61,737.159 1472.5,737.159 1482.39,737.159 1492.29,737.159 1502.18,737.159 1512.07,737.159 1521.96,737.159 1531.85,737.159 1541.74,737.159 1551.63,737.159 1561.52,737.159 1571.41,737.159 1581.3,737.159 1591.19,737.159 1601.08,737.159 1610.97,737.159 1620.86,737.159 1630.75,737.159 1640.64,737.159 1650.53,737.159 1660.42,737.159 1670.31,737.159 1680.2,737.159 1690.09,737.159 1699.99,737.159 1709.88,737.159 1719.77,737.159 1729.66,737.159 1739.55,737.159 1749.44,737.159 1759.33,737.159 1769.22,737.159 1779.11,737.159 1789,737.159 1798.89,737.159 1808.78,737.159 1818.67,737.159 1828.56,737.159 1838.45,737.159 1848.34,737.159 1858.23,737.159 1868.12,737.159 1878.01,737.159 1887.9,737.159 1897.79,737.159 1907.68,737.159 1917.58,737.159 1927.47,737.159 1937.36,737.159 1947.25,737.159 1957.14,737.159 1967.03,737.159 1976.92,737.159 1986.81,737.159 1996.7,737.159 2006.59,737.159 2016.48,737.159 2026.37,737.159 2036.26,737.159 2046.15,737.159 2056.04,737.159 2065.93,737.159 2075.82,737.159 2085.71,737.159 2095.6,737.159 2105.49,737.159 2115.38,737.159 2125.28,737.159 2135.17,737.159 2145.06,737.159 2154.95,737.159 2164.84,737.159 2174.73,737.159 2184.62,737.159 2194.51,737.159 2204.4,737.159 2214.29,737.159 2224.18,737.159 2234.07,737.159 2243.96,737.159 2253.85,737.159 2263.74,737.159 2273.63,737.159 2283.52,737.159 2293.41,737.159 "/>
<polyline clip-path="url(#clip072)" style="stroke:#009ade; stroke-linecap:round; stroke-linejoin:round; stroke-width:4; stroke-opacity:1; fill:none" points="315.32,735.172 325.21,735.168 335.101,735.164 344.991,735.16 354.882,735.155 364.772,735.149 374.663,735.143 384.553,735.137 394.444,735.13 404.334,735.122 414.225,735.113 424.115,735.104 434.006,735.094 443.896,735.083 453.786,735.071 463.677,735.057 473.567,735.043 483.458,735.027 493.348,735.01 503.239,734.991 513.129,734.97 523.02,734.947 532.91,734.922 542.801,734.895 552.691,734.865 562.582,734.832 572.472,734.796 582.363,734.757 592.253,734.714 602.143,734.667 612.034,734.616 621.924,734.56 631.815,734.498 641.705,734.431 651.596,734.358 661.486,734.277 671.377,734.189 681.267,734.093 691.158,733.988 701.048,733.872 710.939,733.746 720.829,733.608 730.72,733.457 740.61,733.292 750.5,733.111 760.391,732.913 770.281,732.697 780.172,732.46 790.062,732.201 799.953,731.917 809.843,731.607 819.734,731.267 829.624,730.896 839.515,730.489 849.405,730.044 859.296,729.558 869.186,729.025 879.077,728.443 888.967,727.805 898.857,727.108 908.748,726.345 918.638,725.509 928.529,724.596 938.419,723.596 948.31,722.502 958.2,721.305 968.091,719.995 977.981,718.562 987.872,716.994 997.762,715.279 1007.65,713.402 1017.54,711.348 1027.43,709.1 1037.32,706.641 1047.21,703.951 1057.1,701.007 1067,697.785 1076.89,694.261 1086.78,690.404 1096.67,686.184 1106.56,681.567 1116.45,676.515 1126.34,670.988 1136.23,664.939 1146.12,658.321 1156.01,651.08 1165.9,643.157 1175.79,634.488 1185.68,625.002 1195.57,614.624 1205.46,603.267 1215.35,590.841 1225.24,577.245 1235.13,562.369 1245.02,546.092 1254.91,528.281 1264.8,508.794 1274.7,487.471 1284.59,464.14 1294.48,438.612 1304.37,410.68 1314.26,382.748 1324.15,357.22 1334.04,333.889 1343.93,312.567 1353.82,293.079 1363.71,275.269 1373.6,258.991 1383.49,244.115 1393.38,230.519 1403.27,218.093 1413.16,206.737 1423.05,196.358 1432.94,186.872 1442.83,178.203 1452.72,170.28 1462.61,163.039 1472.5,156.421 1482.39,150.373 1492.29,144.845 1502.18,139.793 1512.07,135.176 1521.96,130.956 1531.85,127.1 1541.74,123.575 1551.63,120.354 1561.52,117.41 1571.41,114.719 1581.3,112.26 1591.19,110.013 1601.08,107.959 1610.97,106.082 1620.86,104.366 1630.75,102.798 1640.64,101.365 1650.53,100.055 1660.42,98.8585 1670.31,97.7645 1680.2,96.7648 1690.09,95.851 1699.99,95.016 1709.88,94.2527 1719.77,93.5552 1729.66,92.9177 1739.55,92.3351 1749.44,91.8027 1759.33,91.316 1769.22,90.8713 1779.11,90.4648 1789,90.0933 1798.89,89.7538 1808.78,89.4435 1818.67,89.1599 1828.56,88.9007 1838.45,88.6638 1848.34,88.4473 1858.23,88.2495 1868.12,88.0687 1878.01,87.9034 1887.9,87.7524 1897.79,87.6143 1907.68,87.4882 1917.58,87.3729 1927.47,87.2675 1937.36,87.1712 1947.25,87.0832 1957.14,87.0027 1967.03,86.9292 1976.92,86.862 1986.81,86.8006 1996.7,86.7445 2006.59,86.6932 2016.48,86.6463 2026.37,86.6035 2036.26,86.5643 2046.15,86.5285 2056.04,86.4958 2065.93,86.4659 2075.82,86.4386 2085.71,86.4137 2095.6,86.3908 2105.49,86.37 2115.38,86.3509 2125.28,86.3335 2135.17,86.3176 2145.06,86.303 2154.95,86.2897 2164.84,86.2776 2174.73,86.2665 2184.62,86.2563 2194.51,86.2471 2204.4,86.2386 2214.29,86.2308 2224.18,86.2237 2234.07,86.2173 2243.96,86.2114 2253.85,86.2059 2263.74,86.201 2273.63,86.1965 2283.52,86.1924 2293.41,86.1886 "/>
<path clip-path="url(#clip070)" d="M325.87 300.469 L939.041 300.469 L939.041 93.1086 L325.87 93.1086  Z" fill="#ffffff" fill-rule="evenodd" fill-opacity="1"/>
<polyline clip-path="url(#clip070)" style="stroke:#000000; stroke-linecap:round; stroke-linejoin:round; stroke-width:4; stroke-opacity:1; fill:none" points="325.87,300.469 939.041,300.469 939.041,93.1086 325.87,93.1086 325.87,300.469 "/>
<polyline clip-path="url(#clip070)" style="stroke:#000000; stroke-linecap:round; stroke-linejoin:round; stroke-width:4; stroke-opacity:1; fill:none" points="349.167,144.949 488.953,144.949 "/>
<path clip-path="url(#clip070)" d="M528.083 132.275 L521.741 149.474 L534.449 149.474 L528.083 132.275 M525.445 127.669 L530.745 127.669 L543.917 162.229 L539.056 162.229 L535.907 153.363 L520.329 153.363 L517.181 162.229 L512.25 162.229 L525.445 127.669 Z" fill="#000000" fill-rule="nonzero" fill-opacity="1" /><path clip-path="url(#clip070)" d="M565.004 140.238 L565.004 126.21 L569.264 126.21 L569.264 162.229 L565.004 162.229 L565.004 158.34 Q563.662 160.655 561.602 161.789 Q559.565 162.9 556.694 162.9 Q551.995 162.9 549.032 159.15 Q546.093 155.4 546.093 149.289 Q546.093 143.178 549.032 139.428 Q551.995 135.678 556.694 135.678 Q559.565 135.678 561.602 136.812 Q563.662 137.923 565.004 140.238 M550.491 149.289 Q550.491 153.988 552.412 156.673 Q554.356 159.335 557.736 159.335 Q561.116 159.335 563.06 156.673 Q565.004 153.988 565.004 149.289 Q565.004 144.59 563.06 141.928 Q561.116 139.243 557.736 139.243 Q554.356 139.243 552.412 141.928 Q550.491 144.59 550.491 149.289 Z" fill="#000000" fill-rule="nonzero" fill-opacity="1" /><path clip-path="url(#clip070)" d="M578.037 136.303 L582.296 136.303 L582.296 162.229 L578.037 162.229 L578.037 136.303 M578.037 126.21 L582.296 126.21 L582.296 131.604 L578.037 131.604 L578.037 126.21 Z" fill="#000000" fill-rule="nonzero" fill-opacity="1" /><path clip-path="url(#clip070)" d="M602.99 149.196 Q597.828 149.196 595.838 150.377 Q593.847 151.557 593.847 154.405 Q593.847 156.673 595.328 158.016 Q596.833 159.335 599.402 159.335 Q602.944 159.335 605.074 156.835 Q607.226 154.312 607.226 150.145 L607.226 149.196 L602.99 149.196 M611.486 147.437 L611.486 162.229 L607.226 162.229 L607.226 158.293 Q605.768 160.655 603.592 161.789 Q601.416 162.9 598.268 162.9 Q594.287 162.9 591.926 160.678 Q589.588 158.432 589.588 154.682 Q589.588 150.307 592.504 148.085 Q595.444 145.863 601.254 145.863 L607.226 145.863 L607.226 145.446 Q607.226 142.507 605.282 140.909 Q603.361 139.289 599.865 139.289 Q597.643 139.289 595.537 139.821 Q593.43 140.354 591.486 141.419 L591.486 137.483 Q593.824 136.581 596.023 136.141 Q598.222 135.678 600.305 135.678 Q605.93 135.678 608.708 138.594 Q611.486 141.511 611.486 147.437 Z" fill="#000000" fill-rule="nonzero" fill-opacity="1" /><path clip-path="url(#clip070)" d="M638.87 149.289 Q638.87 144.59 636.925 141.928 Q635.004 139.243 631.624 139.243 Q628.245 139.243 626.3 141.928 Q624.379 144.59 624.379 149.289 Q624.379 153.988 626.3 156.673 Q628.245 159.335 631.624 159.335 Q635.004 159.335 636.925 156.673 Q638.87 153.988 638.87 149.289 M624.379 140.238 Q625.722 137.923 627.759 136.812 Q629.819 135.678 632.666 135.678 Q637.388 135.678 640.328 139.428 Q643.291 143.178 643.291 149.289 Q643.291 155.4 640.328 159.15 Q637.388 162.9 632.666 162.9 Q629.819 162.9 627.759 161.789 Q625.722 160.655 624.379 158.34 L624.379 162.229 L620.097 162.229 L620.097 126.21 L624.379 126.21 L624.379 140.238 Z" fill="#000000" fill-rule="nonzero" fill-opacity="1" /><path clip-path="url(#clip070)" d="M662.134 149.196 Q656.972 149.196 654.981 150.377 Q652.99 151.557 652.99 154.405 Q652.99 156.673 654.472 158.016 Q655.976 159.335 658.546 159.335 Q662.087 159.335 664.217 156.835 Q666.37 154.312 666.37 150.145 L666.37 149.196 L662.134 149.196 M670.629 147.437 L670.629 162.229 L666.37 162.229 L666.37 158.293 Q664.911 160.655 662.735 161.789 Q660.56 162.9 657.411 162.9 Q653.43 162.9 651.069 160.678 Q648.731 158.432 648.731 154.682 Q648.731 150.307 651.648 148.085 Q654.587 145.863 660.397 145.863 L666.37 145.863 L666.37 145.446 Q666.37 142.507 664.425 140.909 Q662.504 139.289 659.009 139.289 Q656.786 139.289 654.68 139.821 Q652.573 140.354 650.629 141.419 L650.629 137.483 Q652.967 136.581 655.166 136.141 Q657.365 135.678 659.448 135.678 Q665.073 135.678 667.851 138.594 Q670.629 141.511 670.629 147.437 Z" fill="#000000" fill-rule="nonzero" fill-opacity="1" /><path clip-path="url(#clip070)" d="M683.615 128.942 L683.615 136.303 L692.388 136.303 L692.388 139.613 L683.615 139.613 L683.615 153.687 Q683.615 156.858 684.471 157.761 Q685.351 158.664 688.013 158.664 L692.388 158.664 L692.388 162.229 L688.013 162.229 Q683.083 162.229 681.208 160.4 Q679.333 158.548 679.333 153.687 L679.333 139.613 L676.208 139.613 L676.208 136.303 L679.333 136.303 L679.333 128.942 L683.615 128.942 Z" fill="#000000" fill-rule="nonzero" fill-opacity="1" /><path clip-path="url(#clip070)" d="M697.99 136.303 L702.249 136.303 L702.249 162.229 L697.99 162.229 L697.99 136.303 M697.99 126.21 L702.249 126.21 L702.249 131.604 L697.99 131.604 L697.99 126.21 Z" fill="#000000" fill-rule="nonzero" fill-opacity="1" /><path clip-path="url(#clip070)" d="M729.818 137.298 L729.818 141.28 Q728.013 140.284 726.184 139.798 Q724.379 139.289 722.527 139.289 Q718.383 139.289 716.092 141.928 Q713.8 144.544 713.8 149.289 Q713.8 154.034 716.092 156.673 Q718.383 159.289 722.527 159.289 Q724.379 159.289 726.184 158.803 Q728.013 158.293 729.818 157.298 L729.818 161.233 Q728.036 162.067 726.115 162.483 Q724.217 162.9 722.064 162.9 Q716.207 162.9 712.758 159.219 Q709.309 155.539 709.309 149.289 Q709.309 142.946 712.781 139.312 Q716.277 135.678 722.342 135.678 Q724.309 135.678 726.184 136.095 Q728.059 136.488 729.818 137.298 Z" fill="#000000" fill-rule="nonzero" fill-opacity="1" /><polyline clip-path="url(#clip070)" style="stroke:#ff1f5b; stroke-linecap:round; stroke-linejoin:round; stroke-width:4; stroke-opacity:1; fill:none" points="349.167,196.789 488.953,196.789 "/>
<path clip-path="url(#clip070)" d="M516.926 183.351 L516.926 210.226 L522.574 210.226 Q529.727 210.226 533.037 206.985 Q536.37 203.745 536.37 196.754 Q536.37 189.809 533.037 186.592 Q529.727 183.351 522.574 183.351 L516.926 183.351 M512.25 179.509 L521.857 179.509 Q531.903 179.509 536.602 183.698 Q541.301 187.865 541.301 196.754 Q541.301 205.689 536.579 209.879 Q531.857 214.069 521.857 214.069 L512.25 214.069 L512.25 179.509 Z" fill="#000000" fill-rule="nonzero" fill-opacity="1" /><path clip-path="url(#clip070)" d="M548.569 188.143 L552.829 188.143 L552.829 214.069 L548.569 214.069 L548.569 188.143 M548.569 178.05 L552.829 178.05 L552.829 183.444 L548.569 183.444 L548.569 178.05 Z" fill="#000000" fill-rule="nonzero" fill-opacity="1" /><path clip-path="url(#clip070)" d="M573.523 201.036 Q568.361 201.036 566.37 202.217 Q564.379 203.397 564.379 206.245 Q564.379 208.513 565.861 209.856 Q567.366 211.175 569.935 211.175 Q573.477 211.175 575.606 208.675 Q577.759 206.152 577.759 201.985 L577.759 201.036 L573.523 201.036 M582.018 199.277 L582.018 214.069 L577.759 214.069 L577.759 210.133 Q576.301 212.495 574.125 213.629 Q571.949 214.74 568.801 214.74 Q564.819 214.74 562.458 212.518 Q560.12 210.272 560.12 206.522 Q560.12 202.147 563.037 199.925 Q565.977 197.703 571.787 197.703 L577.759 197.703 L577.759 197.286 Q577.759 194.347 575.815 192.749 Q573.893 191.129 570.398 191.129 Q568.176 191.129 566.069 191.661 Q563.963 192.194 562.018 193.259 L562.018 189.323 Q564.356 188.421 566.555 187.981 Q568.754 187.518 570.838 187.518 Q576.463 187.518 579.241 190.434 Q582.018 193.351 582.018 199.277 Z" fill="#000000" fill-rule="nonzero" fill-opacity="1" /><path clip-path="url(#clip070)" d="M609.402 201.129 Q609.402 196.43 607.458 193.768 Q605.537 191.083 602.157 191.083 Q598.777 191.083 596.833 193.768 Q594.912 196.43 594.912 201.129 Q594.912 205.828 596.833 208.513 Q598.777 211.175 602.157 211.175 Q605.537 211.175 607.458 208.513 Q609.402 205.828 609.402 201.129 M594.912 192.078 Q596.254 189.763 598.291 188.652 Q600.352 187.518 603.199 187.518 Q607.921 187.518 610.861 191.268 Q613.824 195.018 613.824 201.129 Q613.824 207.24 610.861 210.99 Q607.921 214.74 603.199 214.74 Q600.352 214.74 598.291 213.629 Q596.254 212.495 594.912 210.18 L594.912 214.069 L590.629 214.069 L590.629 178.05 L594.912 178.05 L594.912 192.078 Z" fill="#000000" fill-rule="nonzero" fill-opacity="1" /><path clip-path="url(#clip070)" d="M632.666 201.036 Q627.504 201.036 625.513 202.217 Q623.523 203.397 623.523 206.245 Q623.523 208.513 625.004 209.856 Q626.509 211.175 629.078 211.175 Q632.62 211.175 634.749 208.675 Q636.902 206.152 636.902 201.985 L636.902 201.036 L632.666 201.036 M641.161 199.277 L641.161 214.069 L636.902 214.069 L636.902 210.133 Q635.444 212.495 633.268 213.629 Q631.092 214.74 627.944 214.74 Q623.963 214.74 621.601 212.518 Q619.263 210.272 619.263 206.522 Q619.263 202.147 622.18 199.925 Q625.12 197.703 630.93 197.703 L636.902 197.703 L636.902 197.286 Q636.902 194.347 634.958 192.749 Q633.037 191.129 629.541 191.129 Q627.319 191.129 625.212 191.661 Q623.106 192.194 621.162 193.259 L621.162 189.323 Q623.5 188.421 625.699 187.981 Q627.898 187.518 629.981 187.518 Q635.606 187.518 638.384 190.434 Q641.161 193.351 641.161 199.277 Z" fill="#000000" fill-rule="nonzero" fill-opacity="1" /><path clip-path="url(#clip070)" d="M654.148 180.782 L654.148 188.143 L662.921 188.143 L662.921 191.453 L654.148 191.453 L654.148 205.527 Q654.148 208.698 655.004 209.601 Q655.884 210.504 658.546 210.504 L662.921 210.504 L662.921 214.069 L658.546 214.069 Q653.615 214.069 651.74 212.24 Q649.865 210.388 649.865 205.527 L649.865 191.453 L646.74 191.453 L646.74 188.143 L649.865 188.143 L649.865 180.782 L654.148 180.782 Z" fill="#000000" fill-rule="nonzero" fill-opacity="1" /><path clip-path="url(#clip070)" d="M668.522 188.143 L672.782 188.143 L672.782 214.069 L668.522 214.069 L668.522 188.143 M668.522 178.05 L672.782 178.05 L672.782 183.444 L668.522 183.444 L668.522 178.05 Z" fill="#000000" fill-rule="nonzero" fill-opacity="1" /><path clip-path="url(#clip070)" d="M700.351 189.138 L700.351 193.12 Q698.545 192.124 696.717 191.638 Q694.911 191.129 693.059 191.129 Q688.916 191.129 686.624 193.768 Q684.333 196.384 684.333 201.129 Q684.333 205.874 686.624 208.513 Q688.916 211.129 693.059 211.129 Q694.911 211.129 696.717 210.643 Q698.545 210.133 700.351 209.138 L700.351 213.073 Q698.569 213.907 696.647 214.323 Q694.749 214.74 692.596 214.74 Q686.74 214.74 683.291 211.059 Q679.842 207.379 679.842 201.129 Q679.842 194.786 683.314 191.152 Q686.809 187.518 692.874 187.518 Q694.842 187.518 696.717 187.935 Q698.592 188.328 700.351 189.138 Z" fill="#000000" fill-rule="nonzero" fill-opacity="1" /><polyline clip-path="url(#clip070)" style="stroke:#009ade; stroke-linecap:round; stroke-linejoin:round; stroke-width:4; stroke-opacity:1; fill:none" points="349.167,248.629 488.953,248.629 "/>
<path clip-path="url(#clip070)" d="M516.926 235.191 L516.926 262.066 L522.574 262.066 Q529.727 262.066 533.037 258.825 Q536.37 255.585 536.37 248.594 Q536.37 241.649 533.037 238.432 Q529.727 235.191 522.574 235.191 L516.926 235.191 M512.25 231.349 L521.857 231.349 Q531.903 231.349 536.602 235.538 Q541.301 239.705 541.301 248.594 Q541.301 257.529 536.579 261.719 Q531.857 265.909 521.857 265.909 L512.25 265.909 L512.25 231.349 Z" fill="#000000" fill-rule="nonzero" fill-opacity="1" /><path clip-path="url(#clip070)" d="M548.569 239.983 L552.829 239.983 L552.829 265.909 L548.569 265.909 L548.569 239.983 M548.569 229.89 L552.829 229.89 L552.829 235.284 L548.569 235.284 L548.569 229.89 Z" fill="#000000" fill-rule="nonzero" fill-opacity="1" /><path clip-path="url(#clip070)" d="M573.523 252.876 Q568.361 252.876 566.37 254.057 Q564.379 255.237 564.379 258.085 Q564.379 260.353 565.861 261.696 Q567.366 263.015 569.935 263.015 Q573.477 263.015 575.606 260.515 Q577.759 257.992 577.759 253.825 L577.759 252.876 L573.523 252.876 M582.018 251.117 L582.018 265.909 L577.759 265.909 L577.759 261.973 Q576.301 264.335 574.125 265.469 Q571.949 266.58 568.801 266.58 Q564.819 266.58 562.458 264.358 Q560.12 262.112 560.12 258.362 Q560.12 253.987 563.037 251.765 Q565.977 249.543 571.787 249.543 L577.759 249.543 L577.759 249.126 Q577.759 246.187 575.815 244.589 Q573.893 242.969 570.398 242.969 Q568.176 242.969 566.069 243.501 Q563.963 244.034 562.018 245.099 L562.018 241.163 Q564.356 240.261 566.555 239.821 Q568.754 239.358 570.838 239.358 Q576.463 239.358 579.241 242.274 Q582.018 245.191 582.018 251.117 Z" fill="#000000" fill-rule="nonzero" fill-opacity="1" /><path clip-path="url(#clip070)" d="M609.402 252.969 Q609.402 248.27 607.458 245.608 Q605.537 242.923 602.157 242.923 Q598.777 242.923 596.833 245.608 Q594.912 248.27 594.912 252.969 Q594.912 257.668 596.833 260.353 Q598.777 263.015 602.157 263.015 Q605.537 263.015 607.458 260.353 Q609.402 257.668 609.402 252.969 M594.912 243.918 Q596.254 241.603 598.291 240.492 Q600.352 239.358 603.199 239.358 Q607.921 239.358 610.861 243.108 Q613.824 246.858 613.824 252.969 Q613.824 259.08 610.861 262.83 Q607.921 266.58 603.199 266.58 Q600.352 266.58 598.291 265.469 Q596.254 264.335 594.912 262.02 L594.912 265.909 L590.629 265.909 L590.629 229.89 L594.912 229.89 L594.912 243.918 Z" fill="#000000" fill-rule="nonzero" fill-opacity="1" /><path clip-path="url(#clip070)" d="M632.666 252.876 Q627.504 252.876 625.513 254.057 Q623.523 255.237 623.523 258.085 Q623.523 260.353 625.004 261.696 Q626.509 263.015 629.078 263.015 Q632.62 263.015 634.749 260.515 Q636.902 257.992 636.902 253.825 L636.902 252.876 L632.666 252.876 M641.161 251.117 L641.161 265.909 L636.902 265.909 L636.902 261.973 Q635.444 264.335 633.268 265.469 Q631.092 266.58 627.944 266.58 Q623.963 266.58 621.601 264.358 Q619.263 262.112 619.263 258.362 Q619.263 253.987 622.18 251.765 Q625.12 249.543 630.93 249.543 L636.902 249.543 L636.902 249.126 Q636.902 246.187 634.958 244.589 Q633.037 242.969 629.541 242.969 Q627.319 242.969 625.212 243.501 Q623.106 244.034 621.162 245.099 L621.162 241.163 Q623.5 240.261 625.699 239.821 Q627.898 239.358 629.981 239.358 Q635.606 239.358 638.384 242.274 Q641.161 245.191 641.161 251.117 Z" fill="#000000" fill-rule="nonzero" fill-opacity="1" /><path clip-path="url(#clip070)" d="M654.148 232.622 L654.148 239.983 L662.921 239.983 L662.921 243.293 L654.148 243.293 L654.148 257.367 Q654.148 260.538 655.004 261.441 Q655.884 262.344 658.546 262.344 L662.921 262.344 L662.921 265.909 L658.546 265.909 Q653.615 265.909 651.74 264.08 Q649.865 262.228 649.865 257.367 L649.865 243.293 L646.74 243.293 L646.74 239.983 L649.865 239.983 L649.865 232.622 L654.148 232.622 Z" fill="#000000" fill-rule="nonzero" fill-opacity="1" /><path clip-path="url(#clip070)" d="M668.522 239.983 L672.782 239.983 L672.782 265.909 L668.522 265.909 L668.522 239.983 M668.522 229.89 L672.782 229.89 L672.782 235.284 L668.522 235.284 L668.522 229.89 Z" fill="#000000" fill-rule="nonzero" fill-opacity="1" /><path clip-path="url(#clip070)" d="M700.351 240.978 L700.351 244.96 Q698.545 243.964 696.717 243.478 Q694.911 242.969 693.059 242.969 Q688.916 242.969 686.624 245.608 Q684.333 248.224 684.333 252.969 Q684.333 257.714 686.624 260.353 Q688.916 262.969 693.059 262.969 Q694.911 262.969 696.717 262.483 Q698.545 261.973 700.351 260.978 L700.351 264.913 Q698.569 265.747 696.647 266.163 Q694.749 266.58 692.596 266.58 Q686.74 266.58 683.291 262.899 Q679.842 259.219 679.842 252.969 Q679.842 246.626 683.314 242.992 Q686.809 239.358 692.874 239.358 Q694.842 239.358 696.717 239.775 Q698.592 240.168 700.351 240.978 Z" fill="#000000" fill-rule="nonzero" fill-opacity="1" /><path clip-path="url(#clip070)" d="M741.485 240.978 L741.485 244.96 Q739.679 243.964 737.851 243.478 Q736.045 242.969 734.193 242.969 Q730.05 242.969 727.758 245.608 Q725.467 248.224 725.467 252.969 Q725.467 257.714 727.758 260.353 Q730.05 262.969 734.193 262.969 Q736.045 262.969 737.851 262.483 Q739.679 261.973 741.485 260.978 L741.485 264.913 Q739.703 265.747 737.781 266.163 Q735.883 266.58 733.73 266.58 Q727.874 266.58 724.425 262.899 Q720.976 259.219 720.976 252.969 Q720.976 246.626 724.448 242.992 Q727.943 239.358 734.008 239.358 Q735.976 239.358 737.851 239.775 Q739.726 240.168 741.485 240.978 Z" fill="#000000" fill-rule="nonzero" fill-opacity="1" /><path clip-path="url(#clip070)" d="M758.939 242.969 Q755.513 242.969 753.522 245.654 Q751.531 248.316 751.531 252.969 Q751.531 257.622 753.499 260.307 Q755.49 262.969 758.939 262.969 Q762.341 262.969 764.332 260.284 Q766.323 257.598 766.323 252.969 Q766.323 248.362 764.332 245.677 Q762.341 242.969 758.939 242.969 M758.939 239.358 Q764.494 239.358 767.665 242.969 Q770.837 246.58 770.837 252.969 Q770.837 259.335 767.665 262.969 Q764.494 266.58 758.939 266.58 Q753.36 266.58 750.189 262.969 Q747.041 259.335 747.041 252.969 Q747.041 246.58 750.189 242.969 Q753.36 239.358 758.939 239.358 Z" fill="#000000" fill-rule="nonzero" fill-opacity="1" /><path clip-path="url(#clip070)" d="M777.457 255.677 L777.457 239.983 L781.716 239.983 L781.716 255.515 Q781.716 259.196 783.151 261.048 Q784.587 262.876 787.457 262.876 Q790.906 262.876 792.897 260.677 Q794.911 258.478 794.911 254.682 L794.911 239.983 L799.17 239.983 L799.17 265.909 L794.911 265.909 L794.911 261.927 Q793.36 264.288 791.3 265.446 Q789.263 266.58 786.554 266.58 Q782.087 266.58 779.772 263.802 Q777.457 261.024 777.457 255.677 M788.175 239.358 L788.175 239.358 Z" fill="#000000" fill-rule="nonzero" fill-opacity="1" /><path clip-path="url(#clip070)" d="M812.063 262.02 L812.063 275.77 L807.781 275.77 L807.781 239.983 L812.063 239.983 L812.063 243.918 Q813.406 241.603 815.443 240.492 Q817.503 239.358 820.35 239.358 Q825.073 239.358 828.012 243.108 Q830.975 246.858 830.975 252.969 Q830.975 259.08 828.012 262.83 Q825.073 266.58 820.35 266.58 Q817.503 266.58 815.443 265.469 Q813.406 264.335 812.063 262.02 M826.554 252.969 Q826.554 248.27 824.61 245.608 Q822.688 242.923 819.309 242.923 Q815.929 242.923 813.985 245.608 Q812.063 248.27 812.063 252.969 Q812.063 257.668 813.985 260.353 Q815.929 263.015 819.309 263.015 Q822.688 263.015 824.61 260.353 Q826.554 257.668 826.554 252.969 Z" fill="#000000" fill-rule="nonzero" fill-opacity="1" /><path clip-path="url(#clip070)" d="M838.035 229.89 L842.295 229.89 L842.295 265.909 L838.035 265.909 L838.035 229.89 Z" fill="#000000" fill-rule="nonzero" fill-opacity="1" /><path clip-path="url(#clip070)" d="M851.207 239.983 L855.466 239.983 L855.466 265.909 L851.207 265.909 L851.207 239.983 M851.207 229.89 L855.466 229.89 L855.466 235.284 L851.207 235.284 L851.207 229.89 Z" fill="#000000" fill-rule="nonzero" fill-opacity="1" /><path clip-path="url(#clip070)" d="M885.929 250.261 L885.929 265.909 L881.669 265.909 L881.669 250.399 Q881.669 246.719 880.234 244.89 Q878.799 243.062 875.929 243.062 Q872.48 243.062 870.489 245.261 Q868.498 247.46 868.498 251.256 L868.498 265.909 L864.216 265.909 L864.216 239.983 L868.498 239.983 L868.498 244.011 Q870.026 241.673 872.086 240.515 Q874.169 239.358 876.878 239.358 Q881.345 239.358 883.637 242.136 Q885.929 244.89 885.929 250.261 Z" fill="#000000" fill-rule="nonzero" fill-opacity="1" /><path clip-path="url(#clip070)" d="M911.484 252.645 Q911.484 248.015 909.563 245.469 Q907.665 242.923 904.216 242.923 Q900.79 242.923 898.868 245.469 Q896.97 248.015 896.97 252.645 Q896.97 257.251 898.868 259.798 Q900.79 262.344 904.216 262.344 Q907.665 262.344 909.563 259.798 Q911.484 257.251 911.484 252.645 M915.743 262.691 Q915.743 269.311 912.804 272.529 Q909.864 275.77 903.799 275.77 Q901.554 275.77 899.563 275.422 Q897.572 275.098 895.697 274.404 L895.697 270.26 Q897.572 271.279 899.401 271.765 Q901.23 272.251 903.128 272.251 Q907.317 272.251 909.401 270.052 Q911.484 267.876 911.484 263.455 L911.484 261.348 Q910.165 263.64 908.104 264.774 Q906.044 265.909 903.174 265.909 Q898.405 265.909 895.489 262.274 Q892.572 258.64 892.572 252.645 Q892.572 246.626 895.489 242.992 Q898.405 239.358 903.174 239.358 Q906.044 239.358 908.104 240.492 Q910.165 241.626 911.484 243.918 L911.484 239.983 L915.743 239.983 L915.743 262.691 Z" fill="#000000" fill-rule="nonzero" fill-opacity="1" /></svg>
