<?xml version="1.0" encoding="utf-8"?>
<svg xmlns="http://www.w3.org/2000/svg" xmlns:xlink="http://www.w3.org/1999/xlink" width="600" height="400" viewBox="0 0 2400 1600">
<defs>
  <clipPath id="clip010">
    <rect x="0" y="0" width="2400" height="1600"/>
  </clipPath>
</defs>
<path clip-path="url(#clip010)" d="M0 1600 L2400 1600 L2400 0 L0 0  Z" fill="#ffffff" fill-rule="evenodd" fill-opacity="1"/>
<defs>
  <clipPath id="clip011">
    <rect x="480" y="0" width="1681" height="1600"/>
  </clipPath>
</defs>
<path clip-path="url(#clip010)" d="M287.852 1423.18 L2352.76 1423.18 L2352.76 47.2441 L287.852 47.2441  Z" fill="#ffffff" fill-rule="evenodd" fill-opacity="1"/>
<defs>
  <clipPath id="clip012">
    <rect x="287" y="47" width="2066" height="1377"/>
  </clipPath>
</defs>
<polyline clip-path="url(#clip012)" style="stroke:#000000; stroke-linecap:round; stroke-linejoin:round; stroke-width:2; stroke-opacity:0.1; fill:none" points="346.293,1423.18 346.293,47.2441 "/>
<polyline clip-path="url(#clip012)" style="stroke:#000000; stroke-linecap:round; stroke-linejoin:round; stroke-width:2; stroke-opacity:0.1; fill:none" points="833.298,1423.18 833.298,47.2441 "/>
<polyline clip-path="url(#clip012)" style="stroke:#000000; stroke-linecap:round; stroke-linejoin:round; stroke-width:2; stroke-opacity:0.1; fill:none" points="1320.3,1423.18 1320.3,47.2441 "/>
<polyline clip-path="url(#clip012)" style="stroke:#000000; stroke-linecap:round; stroke-linejoin:round; stroke-width:2; stroke-opacity:0.1; fill:none" points="1807.31,1423.18 1807.31,47.2441 "/>
<polyline clip-path="url(#clip012)" style="stroke:#000000; stroke-linecap:round; stroke-linejoin:round; stroke-width:2; stroke-opacity:0.1; fill:none" points="2294.32,1423.18 2294.32,47.2441 "/>
<polyline clip-path="url(#clip010)" style="stroke:#000000; stroke-linecap:round; stroke-linejoin:round; stroke-width:4; stroke-opacity:1; fill:none" points="287.852,1423.18 2352.76,1423.18 "/>
<polyline clip-path="url(#clip010)" style="stroke:#000000; stroke-linecap:round; stroke-linejoin:round; stroke-width:4; stroke-opacity:1; fill:none" points="346.293,1423.18 346.293,1404.28 "/>
<polyline clip-path="url(#clip010)" style="stroke:#000000; stroke-linecap:round; stroke-linejoin:round; stroke-width:4; stroke-opacity:1; fill:none" points="833.298,1423.18 833.298,1404.28 "/>
<polyline clip-path="url(#clip010)" style="stroke:#000000; stroke-linecap:round; stroke-linejoin:round; stroke-width:4; stroke-opacity:1; fill:none" points="1320.3,1423.18 1320.3,1404.28 "/>
<polyline clip-path="url(#clip010)" style="stroke:#000000; stroke-linecap:round; stroke-linejoin:round; stroke-width:4; stroke-opacity:1; fill:none" points="1807.31,1423.18 1807.31,1404.28 "/>
<polyline clip-path="url(#clip010)" style="stroke:#000000; stroke-linecap:round; stroke-linejoin:round; stroke-width:4; stroke-opacity:1; fill:none" points="2294.32,1423.18 2294.32,1404.28 "/>
<path clip-path="url(#clip010)" d="M300.355 1468.75 L330.031 1468.75 L330.031 1472.69 L300.355 1472.69 L300.355 1468.75 Z" fill="#000000" fill-rule="nonzero" fill-opacity="1" /><path clip-path="url(#clip010)" d="M340.934 1481.64 L348.573 1481.64 L348.573 1455.28 L340.263 1456.95 L340.263 1452.69 L348.526 1451.02 L353.202 1451.02 L353.202 1481.64 L360.841 1481.64 L360.841 1485.58 L340.934 1485.58 L340.934 1481.64 Z" fill="#000000" fill-rule="nonzero" fill-opacity="1" /><path clip-path="url(#clip010)" d="M380.286 1454.1 Q376.674 1454.1 374.846 1457.66 Q373.04 1461.2 373.04 1468.33 Q373.04 1475.44 374.846 1479.01 Q376.674 1482.55 380.286 1482.55 Q383.92 1482.55 385.725 1479.01 Q387.554 1475.44 387.554 1468.33 Q387.554 1461.2 385.725 1457.66 Q383.92 1454.1 380.286 1454.1 M380.286 1450.39 Q386.096 1450.39 389.151 1455 Q392.23 1459.58 392.23 1468.33 Q392.23 1477.06 389.151 1481.67 Q386.096 1486.25 380.286 1486.25 Q374.475 1486.25 371.397 1481.67 Q368.341 1477.06 368.341 1468.33 Q368.341 1459.58 371.397 1455 Q374.475 1450.39 380.286 1450.39 Z" fill="#000000" fill-rule="nonzero" fill-opacity="1" /><path clip-path="url(#clip010)" d="M802.94 1468.75 L832.615 1468.75 L832.615 1472.69 L802.94 1472.69 L802.94 1468.75 Z" fill="#000000" fill-rule="nonzero" fill-opacity="1" /><path clip-path="url(#clip010)" d="M842.754 1451.02 L861.111 1451.02 L861.111 1454.96 L847.037 1454.96 L847.037 1463.43 Q848.055 1463.08 849.074 1462.92 Q850.092 1462.73 851.111 1462.73 Q856.898 1462.73 860.277 1465.9 Q863.657 1469.08 863.657 1474.49 Q863.657 1480.07 860.185 1483.17 Q856.713 1486.25 850.393 1486.25 Q848.217 1486.25 845.949 1485.88 Q843.703 1485.51 841.296 1484.77 L841.296 1480.07 Q843.379 1481.2 845.601 1481.76 Q847.824 1482.32 850.301 1482.32 Q854.305 1482.32 856.643 1480.21 Q858.981 1478.1 858.981 1474.49 Q858.981 1470.88 856.643 1468.77 Q854.305 1466.67 850.301 1466.67 Q848.426 1466.67 846.551 1467.08 Q844.699 1467.5 842.754 1468.38 L842.754 1451.02 Z" fill="#000000" fill-rule="nonzero" fill-opacity="1" /><path clip-path="url(#clip010)" d="M1320.3 1454.1 Q1316.69 1454.1 1314.86 1457.66 Q1313.06 1461.2 1313.06 1468.33 Q1313.06 1475.44 1314.86 1479.01 Q1316.69 1482.55 1320.3 1482.55 Q1323.94 1482.55 1325.74 1479.01 Q1327.57 1475.44 1327.57 1468.33 Q1327.57 1461.2 1325.74 1457.66 Q1323.94 1454.1 1320.3 1454.1 M1320.3 1450.39 Q1326.11 1450.39 1329.17 1455 Q1332.25 1459.58 1332.25 1468.33 Q1332.25 1477.06 1329.17 1481.67 Q1326.11 1486.25 1320.3 1486.25 Q1314.49 1486.25 1311.42 1481.67 Q1308.36 1477.06 1308.36 1468.33 Q1308.36 1459.58 1311.42 1455 Q1314.49 1450.39 1320.3 1450.39 Z" fill="#000000" fill-rule="nonzero" fill-opacity="1" /><path clip-path="url(#clip010)" d="M1797.59 1451.02 L1815.94 1451.02 L1815.94 1454.96 L1801.87 1454.96 L1801.87 1463.43 Q1802.89 1463.08 1803.91 1462.92 Q1804.93 1462.73 1805.94 1462.73 Q1811.73 1462.73 1815.11 1465.9 Q1818.49 1469.08 1818.49 1474.49 Q1818.49 1480.07 1815.02 1483.17 Q1811.55 1486.25 1805.23 1486.25 Q1803.05 1486.25 1800.78 1485.88 Q1798.54 1485.51 1796.13 1484.77 L1796.13 1480.07 Q1798.21 1481.2 1800.43 1481.76 Q1802.66 1482.32 1805.13 1482.32 Q1809.14 1482.32 1811.48 1480.21 Q1813.81 1478.1 1813.81 1474.49 Q1813.81 1470.88 1811.48 1468.77 Q1809.14 1466.67 1805.13 1466.67 Q1803.26 1466.67 1801.38 1467.08 Q1799.53 1467.5 1797.59 1468.38 L1797.59 1451.02 Z" fill="#000000" fill-rule="nonzero" fill-opacity="1" /><path clip-path="url(#clip010)" d="M2269 1481.64 L2276.64 1481.64 L2276.64 1455.28 L2268.33 1456.95 L2268.33 1452.69 L2276.6 1451.02 L2281.27 1451.02 L2281.27 1481.64 L2288.91 1481.64 L2288.91 1485.58 L2269 1485.58 L2269 1481.64 Z" fill="#000000" fill-rule="nonzero" fill-opacity="1" /><path clip-path="url(#clip010)" d="M2308.35 1454.1 Q2304.74 1454.1 2302.91 1457.66 Q2301.11 1461.2 2301.11 1468.33 Q2301.11 1475.44 2302.91 1479.01 Q2304.74 1482.55 2308.35 1482.55 Q2311.99 1482.55 2313.79 1479.01 Q2315.62 1475.44 2315.62 1468.33 Q2315.62 1461.2 2313.79 1457.66 Q2311.99 1454.1 2308.35 1454.1 M2308.35 1450.39 Q2314.16 1450.39 2317.22 1455 Q2320.3 1459.58 2320.3 1468.33 Q2320.3 1477.06 2317.22 1481.67 Q2314.16 1486.25 2308.35 1486.25 Q2302.54 1486.25 2299.47 1481.67 Q2296.41 1477.06 2296.41 1468.33 Q2296.41 1459.58 2299.47 1455 Q2302.54 1450.39 2308.35 1450.39 Z" fill="#000000" fill-rule="nonzero" fill-opacity="1" /><path clip-path="url(#clip010)" d="M1264.72 1537.87 Q1263.73 1537.3 1262.55 1537.04 Q1261.41 1536.76 1260 1536.76 Q1255.04 1536.76 1252.37 1540 Q1249.72 1543.22 1249.72 1549.27 L1249.72 1568.04 L1243.84 1568.04 L1243.84 1532.4 L1249.72 1532.4 L1249.72 1537.93 Q1251.57 1534.69 1254.53 1533.13 Q1257.49 1531.54 1261.72 1531.54 Q1262.33 1531.54 1263.06 1531.63 Q1263.79 1531.7 1264.68 1531.85 L1264.72 1537.87 Z" fill="#000000" fill-rule="nonzero" fill-opacity="1" /><path clip-path="url(#clip010)" d="M1305.65 1518.58 Q1301.38 1525.9 1299.31 1533.06 Q1297.24 1540.23 1297.24 1547.58 Q1297.24 1554.93 1299.31 1562.16 Q1301.41 1569.35 1305.65 1576.64 L1300.55 1576.64 Q1295.78 1569.16 1293.39 1561.93 Q1291.04 1554.71 1291.04 1547.58 Q1291.04 1540.48 1293.39 1533.29 Q1295.75 1526.09 1300.55 1518.58 L1305.65 1518.58 Z" fill="#000000" fill-rule="nonzero" fill-opacity="1" /><path clip-path="url(#clip010)" d="M1333.21 1550.12 Q1326.11 1550.12 1323.38 1551.75 Q1320.64 1553.37 1320.64 1557.29 Q1320.64 1560.4 1322.68 1562.25 Q1324.74 1564.07 1328.28 1564.07 Q1333.15 1564.07 1336.07 1560.63 Q1339.04 1557.16 1339.04 1551.43 L1339.04 1550.12 L1333.21 1550.12 M1344.89 1547.71 L1344.89 1568.04 L1339.04 1568.04 L1339.04 1562.63 Q1337.03 1565.88 1334.04 1567.44 Q1331.05 1568.97 1326.72 1568.97 Q1321.24 1568.97 1318 1565.91 Q1314.78 1562.82 1314.78 1557.67 Q1314.78 1551.65 1318.79 1548.6 Q1322.83 1545.54 1330.82 1545.54 L1339.04 1545.54 L1339.04 1544.97 Q1339.04 1540.93 1336.36 1538.73 Q1333.72 1536.5 1328.91 1536.5 Q1325.86 1536.5 1322.96 1537.23 Q1320.07 1537.97 1317.39 1539.43 L1317.39 1534.02 Q1320.61 1532.78 1323.63 1532.17 Q1326.65 1531.54 1329.52 1531.54 Q1337.25 1531.54 1341.07 1535.55 Q1344.89 1539.56 1344.89 1547.71 Z" fill="#000000" fill-rule="nonzero" fill-opacity="1" /><path clip-path="url(#clip010)" d="M1368.95 1546.5 Q1367.36 1543.76 1364.15 1543.76 Q1360.93 1543.76 1359.34 1546.5 Q1357.72 1549.23 1357.72 1554.71 Q1357.72 1560.21 1359.34 1562.95 Q1360.93 1565.69 1364.15 1565.69 Q1367.36 1565.69 1368.95 1562.95 Q1370.58 1560.21 1370.58 1554.71 Q1370.58 1549.23 1368.95 1546.5 M1364.15 1540.93 Q1369.27 1540.93 1371.98 1544.46 Q1374.68 1547.99 1374.68 1554.71 Q1374.68 1561.46 1371.98 1564.99 Q1369.27 1568.52 1364.15 1568.52 Q1358.99 1568.52 1356.29 1564.99 Q1353.58 1561.46 1353.58 1554.71 Q1353.58 1547.99 1356.29 1544.46 Q1358.99 1540.93 1364.15 1540.93 Z" fill="#000000" fill-rule="nonzero" fill-opacity="1" /><path clip-path="url(#clip010)" d="M1382.16 1518.58 L1387.26 1518.58 Q1392.03 1526.09 1394.38 1533.29 Q1396.77 1540.48 1396.77 1547.58 Q1396.77 1554.71 1394.38 1561.93 Q1392.03 1569.16 1387.26 1576.64 L1382.16 1576.64 Q1386.4 1569.35 1388.46 1562.16 Q1390.57 1554.93 1390.57 1547.58 Q1390.57 1540.23 1388.46 1533.06 Q1386.4 1525.9 1382.16 1518.58 Z" fill="#000000" fill-rule="nonzero" fill-opacity="1" /><polyline clip-path="url(#clip012)" style="stroke:#000000; stroke-linecap:round; stroke-linejoin:round; stroke-width:2; stroke-opacity:0.1; fill:none" points="287.852,1208.06 2352.76,1208.06 "/>
<polyline clip-path="url(#clip012)" style="stroke:#000000; stroke-linecap:round; stroke-linejoin:round; stroke-width:2; stroke-opacity:0.1; fill:none" points="287.852,959.117 2352.76,959.117 "/>
<polyline clip-path="url(#clip012)" style="stroke:#000000; stroke-linecap:round; stroke-linejoin:round; stroke-width:2; stroke-opacity:0.1; fill:none" points="287.852,710.178 2352.76,710.178 "/>
<polyline clip-path="url(#clip012)" style="stroke:#000000; stroke-linecap:round; stroke-linejoin:round; stroke-width:2; stroke-opacity:0.1; fill:none" points="287.852,461.24 2352.76,461.24 "/>
<polyline clip-path="url(#clip012)" style="stroke:#000000; stroke-linecap:round; stroke-linejoin:round; stroke-width:2; stroke-opacity:0.1; fill:none" points="287.852,212.301 2352.76,212.301 "/>
<polyline clip-path="url(#clip010)" style="stroke:#000000; stroke-linecap:round; stroke-linejoin:round; stroke-width:4; stroke-opacity:1; fill:none" points="287.852,1423.18 287.852,47.2441 "/>
<polyline clip-path="url(#clip010)" style="stroke:#000000; stroke-linecap:round; stroke-linejoin:round; stroke-width:4; stroke-opacity:1; fill:none" points="287.852,1208.06 306.75,1208.06 "/>
<polyline clip-path="url(#clip010)" style="stroke:#000000; stroke-linecap:round; stroke-linejoin:round; stroke-width:4; stroke-opacity:1; fill:none" points="287.852,959.117 306.75,959.117 "/>
<polyline clip-path="url(#clip010)" style="stroke:#000000; stroke-linecap:round; stroke-linejoin:round; stroke-width:4; stroke-opacity:1; fill:none" points="287.852,710.178 306.75,710.178 "/>
<polyline clip-path="url(#clip010)" style="stroke:#000000; stroke-linecap:round; stroke-linejoin:round; stroke-width:4; stroke-opacity:1; fill:none" points="287.852,461.24 306.75,461.24 "/>
<polyline clip-path="url(#clip010)" style="stroke:#000000; stroke-linecap:round; stroke-linejoin:round; stroke-width:4; stroke-opacity:1; fill:none" points="287.852,212.301 306.75,212.301 "/>
<path clip-path="url(#clip010)" d="M114.26 1208.51 L143.936 1208.51 L143.936 1212.44 L114.26 1212.44 L114.26 1208.51 Z" fill="#000000" fill-rule="nonzero" fill-opacity="1" /><path clip-path="url(#clip010)" d="M164.028 1193.85 Q160.417 1193.85 158.589 1197.42 Q156.783 1200.96 156.783 1208.09 Q156.783 1215.2 158.589 1218.76 Q160.417 1222.3 164.028 1222.3 Q167.663 1222.3 169.468 1218.76 Q171.297 1215.2 171.297 1208.09 Q171.297 1200.96 169.468 1197.42 Q167.663 1193.85 164.028 1193.85 M164.028 1190.15 Q169.839 1190.15 172.894 1194.76 Q175.973 1199.34 175.973 1208.09 Q175.973 1216.82 172.894 1221.42 Q169.839 1226.01 164.028 1226.01 Q158.218 1226.01 155.14 1221.42 Q152.084 1216.82 152.084 1208.09 Q152.084 1199.34 155.14 1194.76 Q158.218 1190.15 164.028 1190.15 Z" fill="#000000" fill-rule="nonzero" fill-opacity="1" /><path clip-path="url(#clip010)" d="M184.19 1219.46 L189.075 1219.46 L189.075 1225.34 L184.19 1225.34 L184.19 1219.46 Z" fill="#000000" fill-rule="nonzero" fill-opacity="1" /><path clip-path="url(#clip010)" d="M209.26 1193.85 Q205.649 1193.85 203.82 1197.42 Q202.014 1200.96 202.014 1208.09 Q202.014 1215.2 203.82 1218.76 Q205.649 1222.3 209.26 1222.3 Q212.894 1222.3 214.699 1218.76 Q216.528 1215.2 216.528 1208.09 Q216.528 1200.96 214.699 1197.42 Q212.894 1193.85 209.26 1193.85 M209.26 1190.15 Q215.07 1190.15 218.125 1194.76 Q221.204 1199.34 221.204 1208.09 Q221.204 1216.82 218.125 1221.42 Q215.07 1226.01 209.26 1226.01 Q203.449 1226.01 200.371 1221.42 Q197.315 1216.82 197.315 1208.09 Q197.315 1199.34 200.371 1194.76 Q203.449 1190.15 209.26 1190.15 Z" fill="#000000" fill-rule="nonzero" fill-opacity="1" /><path clip-path="url(#clip010)" d="M242.269 1194.85 L230.463 1213.3 L242.269 1213.3 L242.269 1194.85 M241.042 1190.78 L246.921 1190.78 L246.921 1213.3 L251.852 1213.3 L251.852 1217.19 L246.921 1217.19 L246.921 1225.34 L242.269 1225.34 L242.269 1217.19 L226.667 1217.19 L226.667 1212.67 L241.042 1190.78 Z" fill="#000000" fill-rule="nonzero" fill-opacity="1" /><path clip-path="url(#clip010)" d="M116.343 959.568 L146.019 959.568 L146.019 963.503 L116.343 963.503 L116.343 959.568 Z" fill="#000000" fill-rule="nonzero" fill-opacity="1" /><path clip-path="url(#clip010)" d="M166.112 944.915 Q162.501 944.915 160.672 948.48 Q158.866 952.022 158.866 959.151 Q158.866 966.258 160.672 969.823 Q162.501 973.364 166.112 973.364 Q169.746 973.364 171.552 969.823 Q173.38 966.258 173.38 959.151 Q173.38 952.022 171.552 948.48 Q169.746 944.915 166.112 944.915 M166.112 941.212 Q171.922 941.212 174.977 945.818 Q178.056 950.401 178.056 959.151 Q178.056 967.878 174.977 972.485 Q171.922 977.068 166.112 977.068 Q160.302 977.068 157.223 972.485 Q154.167 967.878 154.167 959.151 Q154.167 950.401 157.223 945.818 Q160.302 941.212 166.112 941.212 Z" fill="#000000" fill-rule="nonzero" fill-opacity="1" /><path clip-path="url(#clip010)" d="M186.274 970.517 L191.158 970.517 L191.158 976.397 L186.274 976.397 L186.274 970.517 Z" fill="#000000" fill-rule="nonzero" fill-opacity="1" /><path clip-path="url(#clip010)" d="M211.343 944.915 Q207.732 944.915 205.903 948.48 Q204.098 952.022 204.098 959.151 Q204.098 966.258 205.903 969.823 Q207.732 973.364 211.343 973.364 Q214.977 973.364 216.783 969.823 Q218.611 966.258 218.611 959.151 Q218.611 952.022 216.783 948.48 Q214.977 944.915 211.343 944.915 M211.343 941.212 Q217.153 941.212 220.209 945.818 Q223.287 950.401 223.287 959.151 Q223.287 967.878 220.209 972.485 Q217.153 977.068 211.343 977.068 Q205.533 977.068 202.454 972.485 Q199.399 967.878 199.399 959.151 Q199.399 950.401 202.454 945.818 Q205.533 941.212 211.343 941.212 Z" fill="#000000" fill-rule="nonzero" fill-opacity="1" /><path clip-path="url(#clip010)" d="M235.533 972.461 L251.852 972.461 L251.852 976.397 L229.908 976.397 L229.908 972.461 Q232.57 969.707 237.153 965.077 Q241.759 960.424 242.94 959.082 Q245.185 956.559 246.065 954.823 Q246.968 953.063 246.968 951.374 Q246.968 948.619 245.023 946.883 Q243.102 945.147 240 945.147 Q237.801 945.147 235.347 945.911 Q232.917 946.675 230.139 948.225 L230.139 943.503 Q232.963 942.369 235.417 941.79 Q237.871 941.212 239.908 941.212 Q245.278 941.212 248.472 943.897 Q251.667 946.582 251.667 951.073 Q251.667 953.202 250.857 955.124 Q250.07 957.022 247.963 959.614 Q247.384 960.286 244.283 963.503 Q241.181 966.698 235.533 972.461 Z" fill="#000000" fill-rule="nonzero" fill-opacity="1" /><path clip-path="url(#clip010)" d="M164.515 695.977 Q160.903 695.977 159.075 699.542 Q157.269 703.083 157.269 710.213 Q157.269 717.319 159.075 720.884 Q160.903 724.426 164.515 724.426 Q168.149 724.426 169.954 720.884 Q171.783 717.319 171.783 710.213 Q171.783 703.083 169.954 699.542 Q168.149 695.977 164.515 695.977 M164.515 692.273 Q170.325 692.273 173.38 696.88 Q176.459 701.463 176.459 710.213 Q176.459 718.94 173.38 723.546 Q170.325 728.129 164.515 728.129 Q158.704 728.129 155.626 723.546 Q152.57 718.94 152.57 710.213 Q152.57 701.463 155.626 696.88 Q158.704 692.273 164.515 692.273 Z" fill="#000000" fill-rule="nonzero" fill-opacity="1" /><path clip-path="url(#clip010)" d="M184.676 721.579 L189.561 721.579 L189.561 727.458 L184.676 727.458 L184.676 721.579 Z" fill="#000000" fill-rule="nonzero" fill-opacity="1" /><path clip-path="url(#clip010)" d="M209.746 695.977 Q206.135 695.977 204.306 699.542 Q202.5 703.083 202.5 710.213 Q202.5 717.319 204.306 720.884 Q206.135 724.426 209.746 724.426 Q213.38 724.426 215.186 720.884 Q217.014 717.319 217.014 710.213 Q217.014 703.083 215.186 699.542 Q213.38 695.977 209.746 695.977 M209.746 692.273 Q215.556 692.273 218.611 696.88 Q221.69 701.463 221.69 710.213 Q221.69 718.94 218.611 723.546 Q215.556 728.129 209.746 728.129 Q203.936 728.129 200.857 723.546 Q197.801 718.94 197.801 710.213 Q197.801 701.463 200.857 696.88 Q203.936 692.273 209.746 692.273 Z" fill="#000000" fill-rule="nonzero" fill-opacity="1" /><path clip-path="url(#clip010)" d="M239.908 695.977 Q236.297 695.977 234.468 699.542 Q232.662 703.083 232.662 710.213 Q232.662 717.319 234.468 720.884 Q236.297 724.426 239.908 724.426 Q243.542 724.426 245.347 720.884 Q247.176 717.319 247.176 710.213 Q247.176 703.083 245.347 699.542 Q243.542 695.977 239.908 695.977 M239.908 692.273 Q245.718 692.273 248.773 696.88 Q251.852 701.463 251.852 710.213 Q251.852 718.94 248.773 723.546 Q245.718 728.129 239.908 728.129 Q234.097 728.129 231.019 723.546 Q227.963 718.94 227.963 710.213 Q227.963 701.463 231.019 696.88 Q234.097 692.273 239.908 692.273 Z" fill="#000000" fill-rule="nonzero" fill-opacity="1" /><path clip-path="url(#clip010)" d="M166.112 447.038 Q162.501 447.038 160.672 450.603 Q158.866 454.145 158.866 461.274 Q158.866 468.381 160.672 471.946 Q162.501 475.487 166.112 475.487 Q169.746 475.487 171.552 471.946 Q173.38 468.381 173.38 461.274 Q173.38 454.145 171.552 450.603 Q169.746 447.038 166.112 447.038 M166.112 443.335 Q171.922 443.335 174.977 447.941 Q178.056 452.524 178.056 461.274 Q178.056 470.001 174.977 474.608 Q171.922 479.191 166.112 479.191 Q160.302 479.191 157.223 474.608 Q154.167 470.001 154.167 461.274 Q154.167 452.524 157.223 447.941 Q160.302 443.335 166.112 443.335 Z" fill="#000000" fill-rule="nonzero" fill-opacity="1" /><path clip-path="url(#clip010)" d="M186.274 472.64 L191.158 472.64 L191.158 478.52 L186.274 478.52 L186.274 472.64 Z" fill="#000000" fill-rule="nonzero" fill-opacity="1" /><path clip-path="url(#clip010)" d="M211.343 447.038 Q207.732 447.038 205.903 450.603 Q204.098 454.145 204.098 461.274 Q204.098 468.381 205.903 471.946 Q207.732 475.487 211.343 475.487 Q214.977 475.487 216.783 471.946 Q218.611 468.381 218.611 461.274 Q218.611 454.145 216.783 450.603 Q214.977 447.038 211.343 447.038 M211.343 443.335 Q217.153 443.335 220.209 447.941 Q223.287 452.524 223.287 461.274 Q223.287 470.001 220.209 474.608 Q217.153 479.191 211.343 479.191 Q205.533 479.191 202.454 474.608 Q199.399 470.001 199.399 461.274 Q199.399 452.524 202.454 447.941 Q205.533 443.335 211.343 443.335 Z" fill="#000000" fill-rule="nonzero" fill-opacity="1" /><path clip-path="url(#clip010)" d="M235.533 474.584 L251.852 474.584 L251.852 478.52 L229.908 478.52 L229.908 474.584 Q232.57 471.83 237.153 467.2 Q241.759 462.548 242.94 461.205 Q245.185 458.682 246.065 456.946 Q246.968 455.186 246.968 453.497 Q246.968 450.742 245.023 449.006 Q243.102 447.27 240 447.27 Q237.801 447.27 235.347 448.034 Q232.917 448.798 230.139 450.348 L230.139 445.626 Q232.963 444.492 235.417 443.913 Q237.871 443.335 239.908 443.335 Q245.278 443.335 248.472 446.02 Q251.667 448.705 251.667 453.196 Q251.667 455.325 250.857 457.247 Q250.07 459.145 247.963 461.737 Q247.384 462.409 244.283 465.626 Q241.181 468.821 235.533 474.584 Z" fill="#000000" fill-rule="nonzero" fill-opacity="1" /><path clip-path="url(#clip010)" d="M164.028 198.1 Q160.417 198.1 158.589 201.665 Q156.783 205.206 156.783 212.336 Q156.783 219.442 158.589 223.007 Q160.417 226.549 164.028 226.549 Q167.663 226.549 169.468 223.007 Q171.297 219.442 171.297 212.336 Q171.297 205.206 169.468 201.665 Q167.663 198.1 164.028 198.1 M164.028 194.396 Q169.839 194.396 172.894 199.003 Q175.973 203.586 175.973 212.336 Q175.973 221.063 172.894 225.669 Q169.839 230.252 164.028 230.252 Q158.218 230.252 155.14 225.669 Q152.084 221.063 152.084 212.336 Q152.084 203.586 155.14 199.003 Q158.218 194.396 164.028 194.396 Z" fill="#000000" fill-rule="nonzero" fill-opacity="1" /><path clip-path="url(#clip010)" d="M184.19 223.702 L189.075 223.702 L189.075 229.581 L184.19 229.581 L184.19 223.702 Z" fill="#000000" fill-rule="nonzero" fill-opacity="1" /><path clip-path="url(#clip010)" d="M209.26 198.1 Q205.649 198.1 203.82 201.665 Q202.014 205.206 202.014 212.336 Q202.014 219.442 203.82 223.007 Q205.649 226.549 209.26 226.549 Q212.894 226.549 214.699 223.007 Q216.528 219.442 216.528 212.336 Q216.528 205.206 214.699 201.665 Q212.894 198.1 209.26 198.1 M209.26 194.396 Q215.07 194.396 218.125 199.003 Q221.204 203.586 221.204 212.336 Q221.204 221.063 218.125 225.669 Q215.07 230.252 209.26 230.252 Q203.449 230.252 200.371 225.669 Q197.315 221.063 197.315 212.336 Q197.315 203.586 200.371 199.003 Q203.449 194.396 209.26 194.396 Z" fill="#000000" fill-rule="nonzero" fill-opacity="1" /><path clip-path="url(#clip010)" d="M242.269 199.095 L230.463 217.544 L242.269 217.544 L242.269 199.095 M241.042 195.021 L246.921 195.021 L246.921 217.544 L251.852 217.544 L251.852 221.433 L246.921 221.433 L246.921 229.581 L242.269 229.581 L242.269 221.433 L226.667 221.433 L226.667 216.919 L241.042 195.021 Z" fill="#000000" fill-rule="nonzero" fill-opacity="1" /><path clip-path="url(#clip010)" d="M64.0042 844.702 L16.4842 862.844 L16.4842 856.129 L56.4926 841.074 L16.4842 825.987 L16.4842 819.303 L64.0042 837.413 L64.0042 844.702 Z" fill="#000000" fill-rule="nonzero" fill-opacity="1" /><path clip-path="url(#clip010)" d="M14.5426 798.551 Q21.8632 802.816 29.0246 804.885 Q36.186 806.953 43.5384 806.953 Q50.8908 806.953 58.1159 804.885 Q65.3091 802.784 72.5979 798.551 L72.5979 803.643 Q65.1182 808.418 57.8931 810.805 Q50.668 813.16 43.5384 813.16 Q36.4406 813.16 29.2474 810.805 Q22.0542 808.449 14.5426 803.643 L14.5426 798.551 Z" fill="#000000" fill-rule="nonzero" fill-opacity="1" /><path clip-path="url(#clip010)" d="M33.8307 766.531 Q33.2578 767.518 33.0032 768.696 Q32.7167 769.841 32.7167 771.242 Q32.7167 776.207 35.9632 778.881 Q39.1779 781.522 45.2253 781.522 L64.0042 781.522 L64.0042 787.411 L28.3562 787.411 L28.3562 781.522 L33.8944 781.522 Q30.6479 779.676 29.0883 776.716 Q27.4968 773.756 27.4968 769.523 Q27.4968 768.918 27.5923 768.186 Q27.656 767.454 27.8151 766.563 L33.8307 766.531 Z" fill="#000000" fill-rule="nonzero" fill-opacity="1" /><path clip-path="url(#clip010)" d="M14.5426 761.311 L14.5426 756.219 Q22.0542 751.445 29.2474 749.089 Q36.4406 746.702 43.5384 746.702 Q50.668 746.702 57.8931 749.089 Q65.1182 751.445 72.5979 756.219 L72.5979 761.311 Q65.3091 757.078 58.1159 755.009 Q50.8908 752.909 43.5384 752.909 Q36.186 752.909 29.0246 755.009 Q21.8632 757.078 14.5426 761.311 Z" fill="#000000" fill-rule="nonzero" fill-opacity="1" /><path clip-path="url(#clip010)" d="M14.5426 700.169 Q21.8632 704.434 29.0246 706.503 Q36.186 708.571 43.5384 708.571 Q50.8908 708.571 58.1159 706.503 Q65.3091 704.402 72.5979 700.169 L72.5979 705.261 Q65.1182 710.036 57.8931 712.423 Q50.668 714.778 43.5384 714.778 Q36.4406 714.778 29.2474 712.423 Q22.0542 710.067 14.5426 705.261 L14.5426 700.169 Z" fill="#000000" fill-rule="nonzero" fill-opacity="1" /><path clip-path="url(#clip010)" d="M16.4842 688.551 L16.4842 658.505 L21.895 658.505 L21.895 682.122 L35.9632 682.122 L35.9632 659.492 L41.3741 659.492 L41.3741 682.122 L58.5933 682.122 L58.5933 657.932 L64.0042 657.932 L64.0042 688.551 L16.4842 688.551 Z" fill="#000000" fill-rule="nonzero" fill-opacity="1" /><path clip-path="url(#clip010)" d="M51.9411 631.228 L64.0042 631.228 L64.0042 634.92 L52.0685 634.92 Q49.2357 634.92 47.8353 636.162 Q46.403 637.403 46.403 639.886 Q46.403 642.877 48.1217 644.596 Q49.8086 646.315 52.7369 646.315 L64.0042 646.315 L64.0042 650.039 L36.2815 650.039 L36.2815 646.315 L47.135 646.315 Q45.3526 645.01 44.4614 643.228 Q43.5702 641.413 43.5702 639.058 Q43.5702 635.207 45.7028 633.233 Q47.8353 631.228 51.9411 631.228 Z" fill="#000000" fill-rule="nonzero" fill-opacity="1" /><path clip-path="url(#clip010)" d="M14.5426 622.189 L14.5426 617.096 Q22.0542 612.322 29.2474 609.967 Q36.4406 607.58 43.5384 607.58 Q50.668 607.58 57.8931 609.967 Q65.1182 612.322 72.5979 617.096 L72.5979 622.189 Q65.3091 617.956 58.1159 615.887 Q50.8908 613.786 43.5384 613.786 Q36.186 613.786 29.0246 615.887 Q21.8632 617.956 14.5426 622.189 Z" fill="#000000" fill-rule="nonzero" fill-opacity="1" /><polyline clip-path="url(#clip012)" style="stroke:#000000; stroke-linecap:round; stroke-linejoin:round; stroke-width:4; stroke-opacity:1; fill:none" points="346.293,710.178 356.033,710.179 365.773,710.179 375.513,710.179 385.253,710.179 394.993,710.179 404.733,710.18 414.473,710.18 424.214,710.18 433.954,710.181 443.694,710.181 453.434,710.182 463.174,710.183 472.914,710.184 482.654,710.186 492.394,710.188 502.134,710.19 511.875,710.193 521.615,710.196 531.355,710.199 541.095,710.204 550.835,710.209 560.575,710.216 570.315,710.224 580.055,710.233 589.796,710.244 599.536,710.257 609.276,710.272 619.016,710.289 628.756,710.31 638.496,710.335 648.236,710.363 657.976,710.396 667.716,710.434 677.457,710.479 687.197,710.53 696.937,710.589 706.677,710.656 716.417,710.733 726.157,710.822 735.897,710.922 745.637,711.036 755.377,711.166 765.118,711.311 774.858,711.476 784.598,711.66 794.338,711.867 804.078,712.098 813.818,712.356 823.558,712.642 833.298,712.959 843.038,713.31 852.779,713.697 862.519,714.123 872.259,714.591 881.999,715.104 891.739,715.665 901.479,716.278 911.219,716.946 920.959,717.674 930.699,718.467 940.44,719.331 950.18,720.271 959.92,721.295 969.66,722.414 979.4,723.637 989.14,724.979 998.88,726.457 1008.62,728.091 1018.36,729.908 1028.1,731.94 1037.84,734.231 1047.58,736.834 1057.32,739.819 1067.06,743.278 1076.8,747.33 1086.54,752.136 1096.28,757.911 1106.02,764.941 1115.76,773.612 1125.5,784.433 1135.24,798.047 1144.98,815.216 1154.72,836.723 1164.46,863.19 1174.2,894.844 1183.94,931.378 1193.68,971.987 1203.42,1015.55 1213.16,1060.81 1222.9,1106.55 1232.64,1151.6 1242.38,1194.91 1252.12,1235.51 1261.86,1272.54 1271.6,1305.22 1281.34,1332.91 1291.08,1355.03 1300.82,1371.15 1310.56,1380.95 1320.3,1384.24 1330.04,1380.95 1339.78,1371.15 1349.52,1355.03 1359.26,1332.91 1369,1305.22 1378.74,1272.54 1388.48,1235.51 1398.22,1194.91 1407.96,1151.6 1417.71,1106.55 1427.45,1060.81 1437.19,1015.55 1446.93,971.987 1456.67,931.378 1466.41,894.844 1476.15,863.19 1485.89,836.723 1495.63,815.216 1505.37,798.047 1515.11,784.433 1524.85,773.612 1534.59,764.941 1544.33,757.911 1554.07,752.136 1563.81,747.33 1573.55,743.278 1583.29,739.819 1593.03,736.834 1602.77,734.231 1612.51,731.94 1622.25,729.908 1631.99,728.091 1641.73,726.457 1651.47,724.979 1661.21,723.637 1670.95,722.414 1680.69,721.295 1690.43,720.271 1700.17,719.331 1709.91,718.467 1719.65,717.674 1729.39,716.946 1739.13,716.278 1748.87,715.665 1758.61,715.104 1768.35,714.591 1778.09,714.123 1787.83,713.697 1797.57,713.31 1807.31,712.959 1817.05,712.642 1826.79,712.356 1836.53,712.098 1846.27,711.867 1856.01,711.66 1865.75,711.476 1875.49,711.311 1885.23,711.166 1894.97,711.036 1904.71,710.922 1914.45,710.822 1924.19,710.733 1933.93,710.656 1943.67,710.589 1953.41,710.53 1963.15,710.479 1972.89,710.434 1982.63,710.396 1992.37,710.363 2002.11,710.335 2011.85,710.31 2021.59,710.289 2031.33,710.272 2041.07,710.257 2050.81,710.244 2060.55,710.233 2070.29,710.224 2080.03,710.216 2089.77,710.209 2099.51,710.204 2109.25,710.199 2118.99,710.196 2128.73,710.193 2138.47,710.19 2148.21,710.188 2157.95,710.186 2167.69,710.184 2177.43,710.183 2187.17,710.182 2196.91,710.181 2206.65,710.181 2216.39,710.18 2226.13,710.18 2235.87,710.18 2245.61,710.179 2255.35,710.179 2265.09,710.179 2274.84,710.179 2284.58,710.179 2294.32,710.178 "/>
<polyline clip-path="url(#clip012)" style="stroke:#000000; stroke-linecap:round; stroke-linejoin:round; stroke-width:4; stroke-opacity:1; fill:none" points="346.293,87.8316 356.033,87.8315 365.773,87.8314 375.513,87.8312 385.253,87.8311 394.993,87.8308 404.733,87.8305 414.473,87.8302 424.214,87.8298 433.954,87.8292 443.694,87.8286 453.434,87.8278 463.174,87.8268 472.914,87.8256 482.654,87.8241 492.394,87.8223 502.134,87.8202 511.875,87.8175 521.615,87.8144 531.355,87.8106 541.095,87.8061 550.835,87.8007 560.575,87.7942 570.315,87.7865 580.055,87.7773 589.796,87.7665 599.536,87.7538 609.276,87.7388 619.016,87.7212 628.756,87.7007 638.496,87.6768 648.236,87.6491 657.976,87.617 667.716,87.58 677.457,87.5377 687.197,87.4893 696.937,87.4344 706.677,87.3724 716.417,87.3029 726.157,87.2255 735.897,87.14 745.637,87.0465 755.377,86.9455 765.118,86.838 774.858,86.7255 784.598,86.6106 794.338,86.4969 804.078,86.3895 813.818,86.2953 823.558,86.2234 833.298,86.1857 843.038,86.1973 852.779,86.2776 862.519,86.4503 872.259,86.745 881.999,87.1974 891.739,87.851 901.479,88.757 911.219,89.9764 920.959,91.5799 930.699,93.6494 940.44,96.2786 950.18,99.5729 959.92,103.65 969.66,108.64 979.4,114.685 989.14,121.934 998.88,130.548 1008.62,140.69 1018.36,152.526 1028.1,166.217 1037.84,181.916 1047.58,199.756 1057.32,219.843 1067.06,242.244 1076.8,266.975 1086.54,293.977 1096.28,323.098 1106.02,354.07 1115.76,386.47 1125.5,419.695 1135.24,452.941 1144.98,485.218 1154.72,515.441 1164.46,542.619 1174.2,566.079 1183.94,585.619 1193.68,601.474 1203.42,614.141 1213.16,624.199 1222.9,632.179 1232.64,638.525 1242.38,643.582 1252.12,647.613 1261.86,650.813 1271.6,653.329 1281.34,655.266 1291.08,656.702 1300.82,657.692 1310.56,658.273 1320.3,658.464 1330.04,658.273 1339.78,657.692 1349.52,656.702 1359.26,655.266 1369,653.329 1378.74,650.813 1388.48,647.613 1398.22,643.582 1407.96,638.525 1417.71,632.179 1427.45,624.199 1437.19,614.141 1446.93,601.474 1456.67,585.619 1466.41,566.079 1476.15,542.619 1485.89,515.441 1495.63,485.218 1505.37,452.941 1515.11,419.695 1524.85,386.47 1534.59,354.07 1544.33,323.098 1554.07,293.977 1563.81,266.975 1573.55,242.244 1583.29,219.843 1593.03,199.756 1602.77,181.916 1612.51,166.217 1622.25,152.526 1631.99,140.69 1641.73,130.548 1651.47,121.934 1661.21,114.685 1670.95,108.64 1680.69,103.65 1690.43,99.5729 1700.17,96.2786 1709.91,93.6494 1719.65,91.5799 1729.39,89.9764 1739.13,88.757 1748.87,87.851 1758.61,87.1974 1768.35,86.745 1778.09,86.4503 1787.83,86.2776 1797.57,86.1973 1807.31,86.1857 1817.05,86.2234 1826.79,86.2953 1836.53,86.3895 1846.27,86.4969 1856.01,86.6106 1865.75,86.7255 1875.49,86.838 1885.23,86.9455 1894.97,87.0465 1904.71,87.14 1914.45,87.2255 1924.19,87.3029 1933.93,87.3724 1943.67,87.4344 1953.41,87.4893 1963.15,87.5377 1972.89,87.58 1982.63,87.617 1992.37,87.6491 2002.11,87.6768 2011.85,87.7007 2021.59,87.7212 2031.33,87.7388 2041.07,87.7538 2050.81,87.7665 2060.55,87.7773 2070.29,87.7865 2080.03,87.7942 2089.77,87.8007 2099.51,87.8061 2109.25,87.8106 2118.99,87.8144 2128.73,87.8175 2138.47,87.8202 2148.21,87.8223 2157.95,87.8241 2167.69,87.8256 2177.43,87.8268 2187.17,87.8278 2196.91,87.8286 2206.65,87.8292 2216.39,87.8298 2226.13,87.8302 2235.87,87.8305 2245.61,87.8308 2255.35,87.8311 2265.09,87.8312 2274.84,87.8314 2284.58,87.8315 2294.32,87.8316 "/>
<polyline clip-path="url(#clip012)" style="stroke:#ff1f5b; stroke-linecap:round; stroke-linejoin:round; stroke-width:4; stroke-opacity:1; fill:none" points="346.293,710.178 356.033,710.178 365.773,710.178 375.513,710.178 385.253,710.178 394.993,710.178 404.733,710.178 414.473,710.178 424.214,710.178 433.954,710.178 443.694,710.178 453.434,710.178 463.174,710.178 472.914,710.178 482.654,710.178 492.394,710.178 502.134,710.178 511.875,710.178 521.615,710.178 531.355,710.178 541.095,710.178 550.835,710.178 560.575,710.178 570.315,710.178 580.055,710.178 589.796,710.178 599.536,710.178 609.276,710.178 619.016,710.178 628.756,710.178 638.496,710.178 648.236,710.178 657.976,710.178 667.716,710.178 677.457,710.178 687.197,710.178 696.937,710.178 706.677,710.178 716.417,710.178 726.157,710.178 735.897,710.178 745.637,710.178 755.377,710.178 765.118,710.178 774.858,710.178 784.598,710.178 794.338,710.178 804.078,710.178 813.818,710.178 823.558,710.178 833.298,710.178 843.038,710.178 852.779,710.178 862.519,710.178 872.259,710.178 881.999,710.178 891.739,710.178 901.479,710.178 911.219,710.178 920.959,710.178 930.699,710.178 940.44,710.178 950.18,710.178 959.92,710.178 969.66,710.178 979.4,710.178 989.14,710.178 998.88,710.178 1008.62,710.178 1018.36,710.178 1028.1,710.178 1037.84,710.178 1047.58,710.178 1057.32,710.178 1067.06,710.178 1076.8,710.178 1086.54,710.178 1096.28,710.178 1106.02,710.178 1115.76,710.178 1125.5,710.178 1135.24,710.178 1144.98,710.178 1154.72,710.178 1164.46,710.178 1174.2,710.178 1183.94,710.178 1193.68,710.178 1203.42,710.178 1213.16,710.178 1222.9,710.178 1232.64,710.178 1242.38,710.178 1252.12,710.178 1261.86,710.178 1271.6,710.178 1281.34,710.178 1291.08,710.178 1300.82,710.178 1310.56,710.178 1320.3,710.178 1330.04,710.178 1339.78,710.178 1349.52,710.178 1359.26,710.178 1369,710.178 1378.74,710.178 1388.48,710.178 1398.22,710.178 1407.96,710.178 1417.71,710.178 1427.45,710.178 1437.19,710.178 1446.93,710.178 1456.67,710.178 1466.41,710.178 1476.15,710.178 1485.89,710.178 1495.63,710.178 1505.37,710.178 1515.11,710.178 1524.85,710.178 1534.59,710.178 1544.33,710.178 1554.07,710.178 1563.81,710.178 1573.55,710.178 1583.29,710.178 1593.03,710.178 1602.77,710.178 1612.51,710.178 1622.25,710.178 1631.99,710.178 1641.73,710.178 1651.47,710.178 1661.21,710.178 1670.95,710.178 1680.69,710.178 1690.43,710.178 1700.17,710.178 1709.91,710.178 1719.65,710.178 1729.39,710.178 1739.13,710.178 1748.87,710.178 1758.61,710.178 1768.35,710.178 1778.09,710.178 1787.83,710.178 1797.57,710.178 1807.31,710.178 1817.05,710.178 1826.79,710.178 1836.53,710.178 1846.27,710.178 1856.01,710.178 1865.75,710.178 1875.49,710.178 1885.23,710.178 1894.97,710.178 1904.71,710.178 1914.45,710.178 1924.19,710.178 1933.93,710.178 1943.67,710.178 1953.41,710.178 1963.15,710.178 1972.89,710.178 1982.63,710.178 1992.37,710.178 2002.11,710.178 2011.85,710.178 2021.59,710.178 2031.33,710.178 2041.07,710.178 2050.81,710.178 2060.55,710.178 2070.29,710.178 2080.03,710.178 2089.77,710.178 2099.51,710.178 2109.25,710.178 2118.99,710.178 2128.73,710.178 2138.47,710.178 2148.21,710.178 2157.95,710.178 2167.69,710.178 2177.43,710.178 2187.17,710.178 2196.91,710.178 2206.65,710.178 2216.39,710.178 2226.13,710.178 2235.87,710.178 2245.61,710.178 2255.35,710.178 2265.09,710.178 2274.84,710.178 2284.58,710.178 2294.32,710.178 "/>
<polyline clip-path="url(#clip012)" style="stroke:#ff1f5b; stroke-linecap:round; stroke-linejoin:round; stroke-width:4; stroke-opacity:1; fill:none" points="346.293,87.8319 356.033,87.8319 365.773,87.8319 375.513,87.8319 385.253,87.8319 394.993,87.8319 404.733,87.8319 414.473,87.8319 424.214,87.8319 433.954,87.8319 443.694,87.8319 453.434,87.8319 463.174,87.8319 472.914,87.8319 482.654,87.8319 492.394,87.8319 502.134,87.8319 511.875,87.8319 521.615,87.8319 531.355,87.8319 541.095,87.832 550.835,87.832 560.575,87.832 570.315,87.832 580.055,87.8321 589.796,87.8321 599.536,87.8322 609.276,87.8323 619.016,87.8326 628.756,87.8329 638.496,87.8333 648.236,87.834 657.976,87.8349 667.716,87.8363 677.457,87.8382 687.197,87.841 696.937,87.8449 706.677,87.8505 716.417,87.8583 726.157,87.8691 735.897,87.8841 745.637,87.9047 755.377,87.9329 765.118,87.9713 774.858,88.0232 784.598,88.0929 794.338,88.186 804.078,88.3097 813.818,88.473 823.558,88.6874 833.298,88.9669 843.038,89.3295 852.779,89.7968 862.519,90.3956 872.259,91.1582 881.999,92.1235 891.739,93.338 901.479,94.8567 911.219,96.7443 920.959,99.076 930.699,101.939 940.44,105.431 950.18,109.665 959.92,114.767 969.66,120.876 979.4,128.144 989.14,136.735 998.88,146.826 1008.62,158.603 1018.36,172.255 1028.1,187.979 1037.84,205.969 1047.58,226.411 1057.32,249.484 1067.06,275.344 1076.8,304.127 1086.54,335.935 1096.28,370.831 1106.02,408.833 1115.76,449.904 1125.5,493.95 1135.24,540.81 1144.98,590.256 1154.72,641.987 1164.46,695.631 1174.2,750.745 1183.94,806.819 1193.68,863.282 1203.42,919.509 1213.16,974.831 1222.9,1028.55 1232.64,1079.95 1242.38,1128.32 1252.12,1172.95 1261.86,1213.18 1271.6,1248.38 1281.34,1277.99 1291.08,1301.55 1300.82,1318.66 1310.56,1329.04 1320.3,1332.52 1330.04,1329.04 1339.78,1318.66 1349.52,1301.55 1359.26,1277.99 1369,1248.38 1378.74,1213.18 1388.48,1172.95 1398.22,1128.32 1407.96,1079.95 1417.71,1028.55 1427.45,974.831 1437.19,919.509 1446.93,863.282 1456.67,806.819 1466.41,750.745 1476.15,695.631 1485.89,641.987 1495.63,590.256 1505.37,540.81 1515.11,493.95 1524.85,449.904 1534.59,408.833 1544.33,370.831 1554.07,335.935 1563.81,304.127 1573.55,275.344 1583.29,249.484 1593.03,226.411 1602.77,205.969 1612.51,187.979 1622.25,172.255 1631.99,158.603 1641.73,146.826 1651.47,136.735 1661.21,128.144 1670.95,120.876 1680.69,114.767 1690.43,109.665 1700.17,105.431 1709.91,101.939 1719.65,99.076 1729.39,96.7443 1739.13,94.8567 1748.87,93.338 1758.61,92.1235 1768.35,91.1582 1778.09,90.3956 1787.83,89.7968 1797.57,89.3295 1807.31,88.9669 1817.05,88.6874 1826.79,88.473 1836.53,88.3097 1846.27,88.186 1856.01,88.0929 1865.75,88.0232 1875.49,87.9713 1885.23,87.9329 1894.97,87.9047 1904.71,87.8841 1914.45,87.8691 1924.19,87.8583 1933.93,87.8505 1943.67,87.8449 1953.41,87.841 1963.15,87.8382 1972.89,87.8363 1982.63,87.8349 1992.37,87.834 2002.11,87.8333 2011.85,87.8329 2021.59,87.8326 2031.33,87.8323 2041.07,87.8322 2050.81,87.8321 2060.55,87.8321 2070.29,87.832 2080.03,87.832 2089.77,87.832 2099.51,87.832 2109.25,87.8319 2118.99,87.8319 2128.73,87.8319 2138.47,87.8319 2148.21,87.8319 2157.95,87.8319 2167.69,87.8319 2177.43,87.8319 2187.17,87.8319 2196.91,87.8319 2206.65,87.8319 2216.39,87.8319 2226.13,87.8319 2235.87,87.8319 2245.61,87.8319 2255.35,87.8319 2265.09,87.8319 2274.84,87.8319 2284.58,87.8319 2294.32,87.8319 "/>
<polyline clip-path="url(#clip012)" style="stroke:#009ade; stroke-linecap:round; stroke-linejoin:round; stroke-width:4; stroke-opacity:1; fill:none" points="346.293,709.715 356.033,709.657 365.773,709.591 375.513,709.518 385.253,709.437 394.993,709.347 404.733,709.248 414.473,709.137 424.214,709.015 433.954,708.88 443.694,708.731 453.434,708.567 463.174,708.386 472.914,708.188 482.654,707.97 492.394,707.732 502.134,707.471 511.875,707.186 521.615,706.874 531.355,706.535 541.095,706.165 550.835,705.763 560.575,705.327 570.315,704.855 580.055,704.343 589.796,703.789 599.536,703.192 609.276,702.548 619.016,701.854 628.756,701.109 638.496,700.308 648.236,699.449 657.976,698.53 667.716,697.547 677.457,696.498 687.197,695.38 696.937,694.189 706.677,692.923 716.417,691.579 726.157,690.154 735.897,688.646 745.637,687.053 755.377,685.371 765.118,683.599 774.858,681.734 784.598,679.776 794.338,677.721 804.078,675.569 813.818,673.318 823.558,670.968 833.298,668.519 843.038,665.969 852.779,663.32 862.519,660.572 872.259,657.725 881.999,654.781 891.739,651.743 901.479,648.611 911.219,645.39 920.959,642.082 930.699,638.691 940.44,635.22 950.18,631.676 959.92,628.063 969.66,624.386 979.4,620.653 989.14,616.868 998.88,613.041 1008.62,609.178 1018.36,605.287 1028.1,601.377 1037.84,597.456 1047.58,593.534 1057.32,589.621 1067.06,585.726 1076.8,581.859 1086.54,578.03 1096.28,574.25 1106.02,570.53 1115.76,566.88 1125.5,563.312 1135.24,559.834 1144.98,556.46 1154.72,553.197 1164.46,550.058 1174.2,547.052 1183.94,544.189 1193.68,541.478 1203.42,538.928 1213.16,536.549 1222.9,534.347 1232.64,532.331 1242.38,530.508 1252.12,528.883 1261.86,527.464 1271.6,526.254 1281.34,525.258 1291.08,524.48 1300.82,523.922 1310.56,523.586 1320.3,523.474 1330.04,523.586 1339.78,523.922 1349.52,524.48 1359.26,525.258 1369,526.254 1378.74,527.464 1388.48,528.883 1398.22,530.508 1407.96,532.331 1417.71,534.347 1427.45,536.549 1437.19,538.928 1446.93,541.478 1456.67,544.189 1466.41,547.052 1476.15,550.058 1485.89,553.197 1495.63,556.46 1505.37,559.834 1515.11,563.312 1524.85,566.88 1534.59,570.53 1544.33,574.25 1554.07,578.03 1563.81,581.859 1573.55,585.726 1583.29,589.621 1593.03,593.534 1602.77,597.456 1612.51,601.377 1622.25,605.287 1631.99,609.178 1641.73,613.041 1651.47,616.868 1661.21,620.653 1670.95,624.386 1680.69,628.063 1690.43,631.676 1700.17,635.22 1709.91,638.691 1719.65,642.082 1729.39,645.39 1739.13,648.611 1748.87,651.743 1758.61,654.781 1768.35,657.725 1778.09,660.572 1787.83,663.32 1797.57,665.969 1807.31,668.519 1817.05,670.968 1826.79,673.318 1836.53,675.569 1846.27,677.721 1856.01,679.776 1865.75,681.734 1875.49,683.599 1885.23,685.371 1894.97,687.053 1904.71,688.646 1914.45,690.154 1924.19,691.579 1933.93,692.923 1943.67,694.189 1953.41,695.38 1963.15,696.498 1972.89,697.547 1982.63,698.53 1992.37,699.449 2002.11,700.308 2011.85,701.109 2021.59,701.854 2031.33,702.548 2041.07,703.192 2050.81,703.789 2060.55,704.343 2070.29,704.855 2080.03,705.327 2089.77,705.763 2099.51,706.165 2109.25,706.535 2118.99,706.874 2128.73,707.186 2138.47,707.471 2148.21,707.732 2157.95,707.97 2167.69,708.188 2177.43,708.386 2187.17,708.567 2196.91,708.731 2206.65,708.88 2216.39,709.015 2226.13,709.137 2235.87,709.248 2245.61,709.347 2255.35,709.437 2265.09,709.518 2274.84,709.591 2284.58,709.657 2294.32,709.715 "/>
<path clip-path="url(#clip010)" d="M1673.94 1377.32 L2283.93 1377.32 L2283.93 1169.96 L1673.94 1169.96  Z" fill="#ffffff" fill-rule="evenodd" fill-opacity="1"/>
<polyline clip-path="url(#clip010)" style="stroke:#000000; stroke-linecap:round; stroke-linejoin:round; stroke-width:4; stroke-opacity:1; fill:none" points="1673.94,1377.32 2283.93,1377.32 2283.93,1169.96 1673.94,1169.96 1673.94,1377.32 "/>
<polyline clip-path="url(#clip010)" style="stroke:#000000; stroke-linecap:round; stroke-linejoin:round; stroke-width:4; stroke-opacity:1; fill:none" points="1696.89,1221.8 1834.55,1221.8 "/>
<path clip-path="url(#clip010)" d="M1873.32 1209.12 L1866.98 1226.32 L1879.69 1226.32 L1873.32 1209.12 M1870.68 1204.52 L1875.98 1204.52 L1889.16 1239.08 L1884.29 1239.08 L1881.15 1230.21 L1865.57 1230.21 L1862.42 1239.08 L1857.49 1239.08 L1870.68 1204.52 Z" fill="#000000" fill-rule="nonzero" fill-opacity="1" /><path clip-path="url(#clip010)" d="M1910.24 1217.08 L1910.24 1203.06 L1914.5 1203.06 L1914.5 1239.08 L1910.24 1239.08 L1910.24 1235.19 Q1908.9 1237.5 1906.84 1238.64 Q1904.8 1239.75 1901.93 1239.75 Q1897.23 1239.75 1894.27 1236 Q1891.33 1232.25 1891.33 1226.14 Q1891.33 1220.02 1894.27 1216.27 Q1897.23 1212.52 1901.93 1212.52 Q1904.8 1212.52 1906.84 1213.66 Q1908.9 1214.77 1910.24 1217.08 M1895.73 1226.14 Q1895.73 1230.83 1897.65 1233.52 Q1899.6 1236.18 1902.98 1236.18 Q1906.35 1236.18 1908.3 1233.52 Q1910.24 1230.83 1910.24 1226.14 Q1910.24 1221.44 1908.3 1218.77 Q1906.35 1216.09 1902.98 1216.09 Q1899.6 1216.09 1897.65 1218.77 Q1895.73 1221.44 1895.73 1226.14 Z" fill="#000000" fill-rule="nonzero" fill-opacity="1" /><path clip-path="url(#clip010)" d="M1923.28 1213.15 L1927.54 1213.15 L1927.54 1239.08 L1923.28 1239.08 L1923.28 1213.15 M1923.28 1203.06 L1927.54 1203.06 L1927.54 1208.45 L1923.28 1208.45 L1923.28 1203.06 Z" fill="#000000" fill-rule="nonzero" fill-opacity="1" /><path clip-path="url(#clip010)" d="M1948.23 1226.04 Q1943.07 1226.04 1941.08 1227.22 Q1939.09 1228.4 1939.09 1231.25 Q1939.09 1233.52 1940.57 1234.86 Q1942.07 1236.18 1944.64 1236.18 Q1948.18 1236.18 1950.31 1233.68 Q1952.47 1231.16 1952.47 1226.99 L1952.47 1226.04 L1948.23 1226.04 M1956.72 1224.28 L1956.72 1239.08 L1952.47 1239.08 L1952.47 1235.14 Q1951.01 1237.5 1948.83 1238.64 Q1946.66 1239.75 1943.51 1239.75 Q1939.53 1239.75 1937.16 1237.52 Q1934.83 1235.28 1934.83 1231.53 Q1934.83 1227.15 1937.74 1224.93 Q1940.68 1222.71 1946.49 1222.71 L1952.47 1222.71 L1952.47 1222.29 Q1952.47 1219.35 1950.52 1217.76 Q1948.6 1216.14 1945.1 1216.14 Q1942.88 1216.14 1940.78 1216.67 Q1938.67 1217.2 1936.72 1218.27 L1936.72 1214.33 Q1939.06 1213.43 1941.26 1212.99 Q1943.46 1212.52 1945.54 1212.52 Q1951.17 1212.52 1953.95 1215.44 Q1956.72 1218.36 1956.72 1224.28 Z" fill="#000000" fill-rule="nonzero" fill-opacity="1" /><path clip-path="url(#clip010)" d="M1984.11 1226.14 Q1984.11 1221.44 1982.16 1218.77 Q1980.24 1216.09 1976.86 1216.09 Q1973.48 1216.09 1971.54 1218.77 Q1969.62 1221.44 1969.62 1226.14 Q1969.62 1230.83 1971.54 1233.52 Q1973.48 1236.18 1976.86 1236.18 Q1980.24 1236.18 1982.16 1233.52 Q1984.11 1230.83 1984.11 1226.14 M1969.62 1217.08 Q1970.96 1214.77 1973 1213.66 Q1975.06 1212.52 1977.91 1212.52 Q1982.63 1212.52 1985.57 1216.27 Q1988.53 1220.02 1988.53 1226.14 Q1988.53 1232.25 1985.57 1236 Q1982.63 1239.75 1977.91 1239.75 Q1975.06 1239.75 1973 1238.64 Q1970.96 1237.5 1969.62 1235.19 L1969.62 1239.08 L1965.34 1239.08 L1965.34 1203.06 L1969.62 1203.06 L1969.62 1217.08 Z" fill="#000000" fill-rule="nonzero" fill-opacity="1" /><path clip-path="url(#clip010)" d="M2007.37 1226.04 Q2002.21 1226.04 2000.22 1227.22 Q1998.23 1228.4 1998.23 1231.25 Q1998.23 1233.52 1999.71 1234.86 Q2001.22 1236.18 2003.78 1236.18 Q2007.33 1236.18 2009.46 1233.68 Q2011.61 1231.16 2011.61 1226.99 L2011.61 1226.04 L2007.37 1226.04 M2015.87 1224.28 L2015.87 1239.08 L2011.61 1239.08 L2011.61 1235.14 Q2010.15 1237.5 2007.97 1238.64 Q2005.8 1239.75 2002.65 1239.75 Q1998.67 1239.75 1996.31 1237.52 Q1993.97 1235.28 1993.97 1231.53 Q1993.97 1227.15 1996.89 1224.93 Q1999.83 1222.71 2005.64 1222.71 L2011.61 1222.71 L2011.61 1222.29 Q2011.61 1219.35 2009.66 1217.76 Q2007.74 1216.14 2004.25 1216.14 Q2002.03 1216.14 1999.92 1216.67 Q1997.81 1217.2 1995.87 1218.27 L1995.87 1214.33 Q1998.21 1213.43 2000.41 1212.99 Q2002.6 1212.52 2004.69 1212.52 Q2010.31 1212.52 2013.09 1215.44 Q2015.87 1218.36 2015.87 1224.28 Z" fill="#000000" fill-rule="nonzero" fill-opacity="1" /><path clip-path="url(#clip010)" d="M2028.85 1205.79 L2028.85 1213.15 L2037.63 1213.15 L2037.63 1216.46 L2028.85 1216.46 L2028.85 1230.53 Q2028.85 1233.7 2029.71 1234.61 Q2030.59 1235.51 2033.25 1235.51 L2037.63 1235.51 L2037.63 1239.08 L2033.25 1239.08 Q2028.32 1239.08 2026.45 1237.25 Q2024.57 1235.39 2024.57 1230.53 L2024.57 1216.46 L2021.45 1216.46 L2021.45 1213.15 L2024.57 1213.15 L2024.57 1205.79 L2028.85 1205.79 Z" fill="#000000" fill-rule="nonzero" fill-opacity="1" /><path clip-path="url(#clip010)" d="M2043.23 1213.15 L2047.49 1213.15 L2047.49 1239.08 L2043.23 1239.08 L2043.23 1213.15 M2043.23 1203.06 L2047.49 1203.06 L2047.49 1208.45 L2043.23 1208.45 L2043.23 1203.06 Z" fill="#000000" fill-rule="nonzero" fill-opacity="1" /><path clip-path="url(#clip010)" d="M2075.06 1214.14 L2075.06 1218.13 Q2073.25 1217.13 2071.42 1216.64 Q2069.62 1216.14 2067.77 1216.14 Q2063.62 1216.14 2061.33 1218.77 Q2059.04 1221.39 2059.04 1226.14 Q2059.04 1230.88 2061.33 1233.52 Q2063.62 1236.14 2067.77 1236.14 Q2069.62 1236.14 2071.42 1235.65 Q2073.25 1235.14 2075.06 1234.14 L2075.06 1238.08 Q2073.28 1238.91 2071.35 1239.33 Q2069.46 1239.75 2067.3 1239.75 Q2061.45 1239.75 2058 1236.07 Q2054.55 1232.39 2054.55 1226.14 Q2054.55 1219.79 2058.02 1216.16 Q2061.52 1212.52 2067.58 1212.52 Q2069.55 1212.52 2071.42 1212.94 Q2073.3 1213.33 2075.06 1214.14 Z" fill="#000000" fill-rule="nonzero" fill-opacity="1" /><polyline clip-path="url(#clip010)" style="stroke:#ff1f5b; stroke-linecap:round; stroke-linejoin:round; stroke-width:4; stroke-opacity:1; fill:none" points="1696.89,1273.64 1834.55,1273.64 "/>
<path clip-path="url(#clip010)" d="M1862.17 1260.2 L1862.17 1287.07 L1867.81 1287.07 Q1874.97 1287.07 1878.28 1283.83 Q1881.61 1280.59 1881.61 1273.6 Q1881.61 1266.66 1878.28 1263.44 Q1874.97 1260.2 1867.81 1260.2 L1862.17 1260.2 M1857.49 1256.36 L1867.1 1256.36 Q1877.14 1256.36 1881.84 1260.55 Q1886.54 1264.71 1886.54 1273.6 Q1886.54 1282.54 1881.82 1286.73 Q1877.1 1290.92 1867.1 1290.92 L1857.49 1290.92 L1857.49 1256.36 Z" fill="#000000" fill-rule="nonzero" fill-opacity="1" /><path clip-path="url(#clip010)" d="M1893.81 1264.99 L1898.07 1264.99 L1898.07 1290.92 L1893.81 1290.92 L1893.81 1264.99 M1893.81 1254.9 L1898.07 1254.9 L1898.07 1260.29 L1893.81 1260.29 L1893.81 1254.9 Z" fill="#000000" fill-rule="nonzero" fill-opacity="1" /><path clip-path="url(#clip010)" d="M1918.76 1277.88 Q1913.6 1277.88 1911.61 1279.06 Q1909.62 1280.24 1909.62 1283.09 Q1909.62 1285.36 1911.1 1286.7 Q1912.6 1288.02 1915.17 1288.02 Q1918.72 1288.02 1920.85 1285.52 Q1923 1283 1923 1278.83 L1923 1277.88 L1918.76 1277.88 M1927.26 1276.12 L1927.26 1290.92 L1923 1290.92 L1923 1286.98 Q1921.54 1289.34 1919.36 1290.48 Q1917.19 1291.59 1914.04 1291.59 Q1910.06 1291.59 1907.7 1289.36 Q1905.36 1287.12 1905.36 1283.37 Q1905.36 1278.99 1908.28 1276.77 Q1911.22 1274.55 1917.03 1274.55 L1923 1274.55 L1923 1274.13 Q1923 1271.19 1921.05 1269.6 Q1919.13 1267.98 1915.64 1267.98 Q1913.41 1267.98 1911.31 1268.51 Q1909.2 1269.04 1907.26 1270.11 L1907.26 1266.17 Q1909.6 1265.27 1911.79 1264.83 Q1913.99 1264.36 1916.08 1264.36 Q1921.7 1264.36 1924.48 1267.28 Q1927.26 1270.2 1927.26 1276.12 Z" fill="#000000" fill-rule="nonzero" fill-opacity="1" /><path clip-path="url(#clip010)" d="M1954.64 1277.98 Q1954.64 1273.28 1952.7 1270.61 Q1950.78 1267.93 1947.4 1267.93 Q1944.02 1267.93 1942.07 1270.61 Q1940.15 1273.28 1940.15 1277.98 Q1940.15 1282.67 1942.07 1285.36 Q1944.02 1288.02 1947.4 1288.02 Q1950.78 1288.02 1952.7 1285.36 Q1954.64 1282.67 1954.64 1277.98 M1940.15 1268.92 Q1941.49 1266.61 1943.53 1265.5 Q1945.59 1264.36 1948.44 1264.36 Q1953.16 1264.36 1956.1 1268.11 Q1959.06 1271.86 1959.06 1277.98 Q1959.06 1284.09 1956.1 1287.84 Q1953.16 1291.59 1948.44 1291.59 Q1945.59 1291.59 1943.53 1290.48 Q1941.49 1289.34 1940.15 1287.03 L1940.15 1290.92 L1935.87 1290.92 L1935.87 1254.9 L1940.15 1254.9 L1940.15 1268.92 Z" fill="#000000" fill-rule="nonzero" fill-opacity="1" /><path clip-path="url(#clip010)" d="M1977.91 1277.88 Q1972.74 1277.88 1970.75 1279.06 Q1968.76 1280.24 1968.76 1283.09 Q1968.76 1285.36 1970.24 1286.7 Q1971.75 1288.02 1974.32 1288.02 Q1977.86 1288.02 1979.99 1285.52 Q1982.14 1283 1982.14 1278.83 L1982.14 1277.88 L1977.91 1277.88 M1986.4 1276.12 L1986.4 1290.92 L1982.14 1290.92 L1982.14 1286.98 Q1980.68 1289.34 1978.51 1290.48 Q1976.33 1291.59 1973.18 1291.59 Q1969.2 1291.59 1966.84 1289.36 Q1964.5 1287.12 1964.5 1283.37 Q1964.5 1278.99 1967.42 1276.77 Q1970.36 1274.55 1976.17 1274.55 L1982.14 1274.55 L1982.14 1274.13 Q1982.14 1271.19 1980.2 1269.6 Q1978.28 1267.98 1974.78 1267.98 Q1972.56 1267.98 1970.45 1268.51 Q1968.35 1269.04 1966.4 1270.11 L1966.4 1266.17 Q1968.74 1265.27 1970.94 1264.83 Q1973.14 1264.36 1975.22 1264.36 Q1980.85 1264.36 1983.62 1267.28 Q1986.4 1270.2 1986.4 1276.12 Z" fill="#000000" fill-rule="nonzero" fill-opacity="1" /><path clip-path="url(#clip010)" d="M1999.39 1257.63 L1999.39 1264.99 L2008.16 1264.99 L2008.16 1268.3 L1999.39 1268.3 L1999.39 1282.37 Q1999.39 1285.54 2000.24 1286.45 Q2001.12 1287.35 2003.78 1287.35 L2008.16 1287.35 L2008.16 1290.92 L2003.78 1290.92 Q1998.85 1290.92 1996.98 1289.09 Q1995.1 1287.23 1995.1 1282.37 L1995.1 1268.3 L1991.98 1268.3 L1991.98 1264.99 L1995.1 1264.99 L1995.1 1257.63 L1999.39 1257.63 Z" fill="#000000" fill-rule="nonzero" fill-opacity="1" /><path clip-path="url(#clip010)" d="M2013.76 1264.99 L2018.02 1264.99 L2018.02 1290.92 L2013.76 1290.92 L2013.76 1264.99 M2013.76 1254.9 L2018.02 1254.9 L2018.02 1260.29 L2013.76 1260.29 L2013.76 1254.9 Z" fill="#000000" fill-rule="nonzero" fill-opacity="1" /><path clip-path="url(#clip010)" d="M2045.59 1265.98 L2045.59 1269.97 Q2043.78 1268.97 2041.96 1268.48 Q2040.15 1267.98 2038.3 1267.98 Q2034.15 1267.98 2031.86 1270.61 Q2029.57 1273.23 2029.57 1277.98 Q2029.57 1282.72 2031.86 1285.36 Q2034.15 1287.98 2038.3 1287.98 Q2040.15 1287.98 2041.96 1287.49 Q2043.78 1286.98 2045.59 1285.98 L2045.59 1289.92 Q2043.81 1290.75 2041.89 1291.17 Q2039.99 1291.59 2037.84 1291.59 Q2031.98 1291.59 2028.53 1287.91 Q2025.08 1284.23 2025.08 1277.98 Q2025.08 1271.63 2028.55 1268 Q2032.05 1264.36 2038.11 1264.36 Q2040.08 1264.36 2041.96 1264.78 Q2043.83 1265.17 2045.59 1265.98 Z" fill="#000000" fill-rule="nonzero" fill-opacity="1" /><polyline clip-path="url(#clip010)" style="stroke:#009ade; stroke-linecap:round; stroke-linejoin:round; stroke-width:4; stroke-opacity:1; fill:none" points="1696.89,1325.48 1834.55,1325.48 "/>
<path clip-path="url(#clip010)" d="M1862.17 1312.04 L1862.17 1338.91 L1867.81 1338.91 Q1874.97 1338.91 1878.28 1335.67 Q1881.61 1332.43 1881.61 1325.44 Q1881.61 1318.5 1878.28 1315.28 Q1874.97 1312.04 1867.81 1312.04 L1862.17 1312.04 M1857.49 1308.2 L1867.1 1308.2 Q1877.14 1308.2 1881.84 1312.39 Q1886.54 1316.55 1886.54 1325.44 Q1886.54 1334.38 1881.82 1338.57 Q1877.1 1342.76 1867.1 1342.76 L1857.49 1342.76 L1857.49 1308.2 Z" fill="#000000" fill-rule="nonzero" fill-opacity="1" /><path clip-path="url(#clip010)" d="M1893.81 1316.83 L1898.07 1316.83 L1898.07 1342.76 L1893.81 1342.76 L1893.81 1316.83 M1893.81 1306.74 L1898.07 1306.74 L1898.07 1312.13 L1893.81 1312.13 L1893.81 1306.74 Z" fill="#000000" fill-rule="nonzero" fill-opacity="1" /><path clip-path="url(#clip010)" d="M1918.76 1329.72 Q1913.6 1329.72 1911.61 1330.9 Q1909.62 1332.08 1909.62 1334.93 Q1909.62 1337.2 1911.1 1338.54 Q1912.6 1339.86 1915.17 1339.86 Q1918.72 1339.86 1920.85 1337.36 Q1923 1334.84 1923 1330.67 L1923 1329.72 L1918.76 1329.72 M1927.26 1327.96 L1927.26 1342.76 L1923 1342.76 L1923 1338.82 Q1921.54 1341.18 1919.36 1342.32 Q1917.19 1343.43 1914.04 1343.43 Q1910.06 1343.43 1907.7 1341.2 Q1905.36 1338.96 1905.36 1335.21 Q1905.36 1330.83 1908.28 1328.61 Q1911.22 1326.39 1917.03 1326.39 L1923 1326.39 L1923 1325.97 Q1923 1323.03 1921.05 1321.44 Q1919.13 1319.82 1915.64 1319.82 Q1913.41 1319.82 1911.31 1320.35 Q1909.2 1320.88 1907.26 1321.95 L1907.26 1318.01 Q1909.6 1317.11 1911.79 1316.67 Q1913.99 1316.2 1916.08 1316.2 Q1921.7 1316.2 1924.48 1319.12 Q1927.26 1322.04 1927.26 1327.96 Z" fill="#000000" fill-rule="nonzero" fill-opacity="1" /><path clip-path="url(#clip010)" d="M1954.64 1329.82 Q1954.64 1325.12 1952.7 1322.45 Q1950.78 1319.77 1947.4 1319.77 Q1944.02 1319.77 1942.07 1322.45 Q1940.15 1325.12 1940.15 1329.82 Q1940.15 1334.51 1942.07 1337.2 Q1944.02 1339.86 1947.4 1339.86 Q1950.78 1339.86 1952.7 1337.2 Q1954.64 1334.51 1954.64 1329.82 M1940.15 1320.76 Q1941.49 1318.45 1943.53 1317.34 Q1945.59 1316.2 1948.44 1316.2 Q1953.16 1316.2 1956.1 1319.95 Q1959.06 1323.7 1959.06 1329.82 Q1959.06 1335.93 1956.1 1339.68 Q1953.16 1343.43 1948.44 1343.43 Q1945.59 1343.43 1943.53 1342.32 Q1941.49 1341.18 1940.15 1338.87 L1940.15 1342.76 L1935.87 1342.76 L1935.87 1306.74 L1940.15 1306.74 L1940.15 1320.76 Z" fill="#000000" fill-rule="nonzero" fill-opacity="1" /><path clip-path="url(#clip010)" d="M1977.91 1329.72 Q1972.74 1329.72 1970.75 1330.9 Q1968.76 1332.08 1968.76 1334.93 Q1968.76 1337.2 1970.24 1338.54 Q1971.75 1339.86 1974.32 1339.86 Q1977.86 1339.86 1979.99 1337.36 Q1982.14 1334.84 1982.14 1330.67 L1982.14 1329.72 L1977.91 1329.72 M1986.4 1327.96 L1986.4 1342.76 L1982.14 1342.76 L1982.14 1338.82 Q1980.68 1341.18 1978.51 1342.32 Q1976.33 1343.43 1973.18 1343.43 Q1969.2 1343.43 1966.84 1341.2 Q1964.5 1338.96 1964.5 1335.21 Q1964.5 1330.83 1967.42 1328.61 Q1970.36 1326.39 1976.17 1326.39 L1982.14 1326.39 L1982.14 1325.97 Q1982.14 1323.03 1980.2 1321.44 Q1978.28 1319.82 1974.78 1319.82 Q1972.56 1319.82 1970.45 1320.35 Q1968.35 1320.88 1966.4 1321.95 L1966.4 1318.01 Q1968.74 1317.11 1970.94 1316.67 Q1973.14 1316.2 1975.22 1316.2 Q1980.85 1316.2 1983.62 1319.12 Q1986.4 1322.04 1986.4 1327.96 Z" fill="#000000" fill-rule="nonzero" fill-opacity="1" /><path clip-path="url(#clip010)" d="M1999.39 1309.47 L1999.39 1316.83 L2008.16 1316.83 L2008.16 1320.14 L1999.39 1320.14 L1999.39 1334.21 Q1999.39 1337.38 2000.24 1338.29 Q2001.12 1339.19 2003.78 1339.19 L2008.16 1339.19 L2008.16 1342.76 L2003.78 1342.76 Q1998.85 1342.76 1996.98 1340.93 Q1995.1 1339.07 1995.1 1334.21 L1995.1 1320.14 L1991.98 1320.14 L1991.98 1316.83 L1995.1 1316.83 L1995.1 1309.47 L1999.39 1309.47 Z" fill="#000000" fill-rule="nonzero" fill-opacity="1" /><path clip-path="url(#clip010)" d="M2013.76 1316.83 L2018.02 1316.83 L2018.02 1342.76 L2013.76 1342.76 L2013.76 1316.83 M2013.76 1306.74 L2018.02 1306.74 L2018.02 1312.13 L2013.76 1312.13 L2013.76 1306.74 Z" fill="#000000" fill-rule="nonzero" fill-opacity="1" /><path clip-path="url(#clip010)" d="M2045.59 1317.82 L2045.59 1321.81 Q2043.78 1320.81 2041.96 1320.32 Q2040.15 1319.82 2038.3 1319.82 Q2034.15 1319.82 2031.86 1322.45 Q2029.57 1325.07 2029.57 1329.82 Q2029.57 1334.56 2031.86 1337.2 Q2034.15 1339.82 2038.3 1339.82 Q2040.15 1339.82 2041.96 1339.33 Q2043.78 1338.82 2045.59 1337.82 L2045.59 1341.76 Q2043.81 1342.59 2041.89 1343.01 Q2039.99 1343.43 2037.84 1343.43 Q2031.98 1343.43 2028.53 1339.75 Q2025.08 1336.07 2025.08 1329.82 Q2025.08 1323.47 2028.55 1319.84 Q2032.05 1316.2 2038.11 1316.2 Q2040.08 1316.2 2041.96 1316.62 Q2043.83 1317.01 2045.59 1317.82 Z" fill="#000000" fill-rule="nonzero" fill-opacity="1" /><path clip-path="url(#clip010)" d="M2086.72 1317.82 L2086.72 1321.81 Q2084.92 1320.81 2083.09 1320.32 Q2081.28 1319.82 2079.43 1319.82 Q2075.29 1319.82 2073 1322.45 Q2070.71 1325.07 2070.71 1329.82 Q2070.71 1334.56 2073 1337.2 Q2075.29 1339.82 2079.43 1339.82 Q2081.28 1339.82 2083.09 1339.33 Q2084.92 1338.82 2086.72 1337.82 L2086.72 1341.76 Q2084.94 1342.59 2083.02 1343.01 Q2081.12 1343.43 2078.97 1343.43 Q2073.11 1343.43 2069.66 1339.75 Q2066.21 1336.07 2066.21 1329.82 Q2066.21 1323.47 2069.69 1319.84 Q2073.18 1316.2 2079.25 1316.2 Q2081.21 1316.2 2083.09 1316.62 Q2084.96 1317.01 2086.72 1317.82 Z" fill="#000000" fill-rule="nonzero" fill-opacity="1" /><path clip-path="url(#clip010)" d="M2104.18 1319.82 Q2100.75 1319.82 2098.76 1322.5 Q2096.77 1325.16 2096.77 1329.82 Q2096.77 1334.47 2098.74 1337.15 Q2100.73 1339.82 2104.18 1339.82 Q2107.58 1339.82 2109.57 1337.13 Q2111.56 1334.45 2111.56 1329.82 Q2111.56 1325.21 2109.57 1322.52 Q2107.58 1319.82 2104.18 1319.82 M2104.18 1316.2 Q2109.73 1316.2 2112.9 1319.82 Q2116.08 1323.43 2116.08 1329.82 Q2116.08 1336.18 2112.9 1339.82 Q2109.73 1343.43 2104.18 1343.43 Q2098.6 1343.43 2095.43 1339.82 Q2092.28 1336.18 2092.28 1329.82 Q2092.28 1323.43 2095.43 1319.82 Q2098.6 1316.2 2104.18 1316.2 Z" fill="#000000" fill-rule="nonzero" fill-opacity="1" /><path clip-path="url(#clip010)" d="M2122.7 1332.52 L2122.7 1316.83 L2126.96 1316.83 L2126.96 1332.36 Q2126.96 1336.04 2128.39 1337.89 Q2129.83 1339.72 2132.7 1339.72 Q2136.15 1339.72 2138.14 1337.52 Q2140.15 1335.32 2140.15 1331.53 L2140.15 1316.83 L2144.41 1316.83 L2144.41 1342.76 L2140.15 1342.76 L2140.15 1338.77 Q2138.6 1341.13 2136.54 1342.29 Q2134.5 1343.43 2131.79 1343.43 Q2127.33 1343.43 2125.01 1340.65 Q2122.7 1337.87 2122.7 1332.52 M2133.41 1316.2 L2133.41 1316.2 Z" fill="#000000" fill-rule="nonzero" fill-opacity="1" /><path clip-path="url(#clip010)" d="M2157.3 1338.87 L2157.3 1352.62 L2153.02 1352.62 L2153.02 1316.83 L2157.3 1316.83 L2157.3 1320.76 Q2158.64 1318.45 2160.68 1317.34 Q2162.74 1316.2 2165.59 1316.2 Q2170.31 1316.2 2173.25 1319.95 Q2176.21 1323.7 2176.21 1329.82 Q2176.21 1335.93 2173.25 1339.68 Q2170.31 1343.43 2165.59 1343.43 Q2162.74 1343.43 2160.68 1342.32 Q2158.64 1341.18 2157.3 1338.87 M2171.79 1329.82 Q2171.79 1325.12 2169.85 1322.45 Q2167.93 1319.77 2164.55 1319.77 Q2161.17 1319.77 2159.22 1322.45 Q2157.3 1325.12 2157.3 1329.82 Q2157.3 1334.51 2159.22 1337.2 Q2161.17 1339.86 2164.55 1339.86 Q2167.93 1339.86 2169.85 1337.2 Q2171.79 1334.51 2171.79 1329.82 Z" fill="#000000" fill-rule="nonzero" fill-opacity="1" /><path clip-path="url(#clip010)" d="M2183.27 1306.74 L2187.53 1306.74 L2187.53 1342.76 L2183.27 1342.76 L2183.27 1306.74 Z" fill="#000000" fill-rule="nonzero" fill-opacity="1" /><path clip-path="url(#clip010)" d="M2196.45 1316.83 L2200.7 1316.83 L2200.7 1342.76 L2196.45 1342.76 L2196.45 1316.83 M2196.45 1306.74 L2200.7 1306.74 L2200.7 1312.13 L2196.45 1312.13 L2196.45 1306.74 Z" fill="#000000" fill-rule="nonzero" fill-opacity="1" /><path clip-path="url(#clip010)" d="M2231.17 1327.11 L2231.17 1342.76 L2226.91 1342.76 L2226.91 1327.25 Q2226.91 1323.57 2225.47 1321.74 Q2224.04 1319.91 2221.17 1319.91 Q2217.72 1319.91 2215.73 1322.11 Q2213.74 1324.31 2213.74 1328.1 L2213.74 1342.76 L2209.45 1342.76 L2209.45 1316.83 L2213.74 1316.83 L2213.74 1320.86 Q2215.27 1318.52 2217.33 1317.36 Q2219.41 1316.2 2222.12 1316.2 Q2226.58 1316.2 2228.88 1318.98 Q2231.17 1321.74 2231.17 1327.11 Z" fill="#000000" fill-rule="nonzero" fill-opacity="1" /><path clip-path="url(#clip010)" d="M2256.72 1329.49 Q2256.72 1324.86 2254.8 1322.32 Q2252.9 1319.77 2249.45 1319.77 Q2246.03 1319.77 2244.11 1322.32 Q2242.21 1324.86 2242.21 1329.49 Q2242.21 1334.1 2244.11 1336.64 Q2246.03 1339.19 2249.45 1339.19 Q2252.9 1339.19 2254.8 1336.64 Q2256.72 1334.1 2256.72 1329.49 M2260.98 1339.54 Q2260.98 1346.16 2258.04 1349.38 Q2255.1 1352.62 2249.04 1352.62 Q2246.79 1352.62 2244.8 1352.27 Q2242.81 1351.95 2240.94 1351.25 L2240.94 1347.11 Q2242.81 1348.13 2244.64 1348.61 Q2246.47 1349.1 2248.37 1349.1 Q2252.56 1349.1 2254.64 1346.9 Q2256.72 1344.72 2256.72 1340.3 L2256.72 1338.2 Q2255.4 1340.49 2253.34 1341.62 Q2251.28 1342.76 2248.41 1342.76 Q2243.64 1342.76 2240.73 1339.12 Q2237.81 1335.49 2237.81 1329.49 Q2237.81 1323.47 2240.73 1319.84 Q2243.64 1316.2 2248.41 1316.2 Q2251.28 1316.2 2253.34 1317.34 Q2255.4 1318.47 2256.72 1320.76 L2256.72 1316.83 L2260.98 1316.83 L2260.98 1339.54 Z" fill="#000000" fill-rule="nonzero" fill-opacity="1" /></svg>
