<?xml version="1.0" encoding="utf-8"?>
<svg xmlns="http://www.w3.org/2000/svg" xmlns:xlink="http://www.w3.org/1999/xlink" width="600" height="400" viewBox="0 0 2400 1600">
<defs>
  <clipPath id="clip890">
    <rect x="0" y="0" width="2400" height="1600"/>
  </clipPath>
</defs>
<path clip-path="url(#clip890)" d="M0 1600 L2400 1600 L2400 0 L0 0  Z" fill="#ffffff" fill-rule="evenodd" fill-opacity="1"/>
<defs>
  <clipPath id="clip891">
    <rect x="480" y="0" width="1681" height="1600"/>
  </clipPath>
</defs>
<path clip-path="url(#clip890)" d="M203.964 1423.18 L2352.76 1423.18 L2352.76 47.2441 L203.964 47.2441  Z" fill="#ffffff" fill-rule="evenodd" fill-opacity="1"/>
<defs>
  <clipPath id="clip892">
    <rect x="203" y="47" width="2150" height="1377"/>
  </clipPath>
</defs>
<polyline clip-path="url(#clip892)" style="stroke:#000000; stroke-linecap:round; stroke-linejoin:round; stroke-width:2; stroke-opacity:0.1; fill:none" points="467.495,1423.18 467.495,47.2441 "/>
<polyline clip-path="url(#clip892)" style="stroke:#000000; stroke-linecap:round; stroke-linejoin:round; stroke-width:2; stroke-opacity:0.1; fill:none" points="872.927,1423.18 872.927,47.2441 "/>
<polyline clip-path="url(#clip892)" style="stroke:#000000; stroke-linecap:round; stroke-linejoin:round; stroke-width:2; stroke-opacity:0.1; fill:none" points="1278.36,1423.18 1278.36,47.2441 "/>
<polyline clip-path="url(#clip892)" style="stroke:#000000; stroke-linecap:round; stroke-linejoin:round; stroke-width:2; stroke-opacity:0.1; fill:none" points="1683.79,1423.18 1683.79,47.2441 "/>
<polyline clip-path="url(#clip892)" style="stroke:#000000; stroke-linecap:round; stroke-linejoin:round; stroke-width:2; stroke-opacity:0.1; fill:none" points="2089.22,1423.18 2089.22,47.2441 "/>
<polyline clip-path="url(#clip890)" style="stroke:#000000; stroke-linecap:round; stroke-linejoin:round; stroke-width:4; stroke-opacity:1; fill:none" points="203.964,1423.18 2352.76,1423.18 "/>
<polyline clip-path="url(#clip890)" style="stroke:#000000; stroke-linecap:round; stroke-linejoin:round; stroke-width:4; stroke-opacity:1; fill:none" points="467.495,1423.18 467.495,1404.28 "/>
<polyline clip-path="url(#clip890)" style="stroke:#000000; stroke-linecap:round; stroke-linejoin:round; stroke-width:4; stroke-opacity:1; fill:none" points="872.927,1423.18 872.927,1404.28 "/>
<polyline clip-path="url(#clip890)" style="stroke:#000000; stroke-linecap:round; stroke-linejoin:round; stroke-width:4; stroke-opacity:1; fill:none" points="1278.36,1423.18 1278.36,1404.28 "/>
<polyline clip-path="url(#clip890)" style="stroke:#000000; stroke-linecap:round; stroke-linejoin:round; stroke-width:4; stroke-opacity:1; fill:none" points="1683.79,1423.18 1683.79,1404.28 "/>
<polyline clip-path="url(#clip890)" style="stroke:#000000; stroke-linecap:round; stroke-linejoin:round; stroke-width:4; stroke-opacity:1; fill:none" points="2089.22,1423.18 2089.22,1404.28 "/>
<path clip-path="url(#clip890)" d="M436.395 1468.75 L466.071 1468.75 L466.071 1472.69 L436.395 1472.69 L436.395 1468.75 Z" fill="#000000" fill-rule="nonzero" fill-opacity="1" /><path clip-path="url(#clip890)" d="M489.011 1455.09 L477.205 1473.54 L489.011 1473.54 L489.011 1455.09 M487.784 1451.02 L493.664 1451.02 L493.664 1473.54 L498.594 1473.54 L498.594 1477.43 L493.664 1477.43 L493.664 1485.58 L489.011 1485.58 L489.011 1477.43 L473.409 1477.43 L473.409 1472.92 L487.784 1451.02 Z" fill="#000000" fill-rule="nonzero" fill-opacity="1" /><path clip-path="url(#clip890)" d="M842.87 1468.75 L872.545 1468.75 L872.545 1472.69 L842.87 1472.69 L842.87 1468.75 Z" fill="#000000" fill-rule="nonzero" fill-opacity="1" /><path clip-path="url(#clip890)" d="M886.666 1481.64 L902.985 1481.64 L902.985 1485.58 L881.041 1485.58 L881.041 1481.64 Q883.703 1478.89 888.286 1474.26 Q892.892 1469.61 894.073 1468.27 Q896.318 1465.74 897.198 1464.01 Q898.101 1462.25 898.101 1460.56 Q898.101 1457.8 896.156 1456.07 Q894.235 1454.33 891.133 1454.33 Q888.934 1454.33 886.48 1455.09 Q884.05 1455.86 881.272 1457.41 L881.272 1452.69 Q884.096 1451.55 886.55 1450.97 Q889.004 1450.39 891.041 1450.39 Q896.411 1450.39 899.605 1453.08 Q902.8 1455.77 902.8 1460.26 Q902.8 1462.39 901.99 1464.31 Q901.203 1466.2 899.096 1468.8 Q898.517 1469.47 895.416 1472.69 Q892.314 1475.88 886.666 1481.64 Z" fill="#000000" fill-rule="nonzero" fill-opacity="1" /><path clip-path="url(#clip890)" d="M1278.36 1454.1 Q1274.75 1454.1 1272.92 1457.66 Q1271.11 1461.2 1271.11 1468.33 Q1271.11 1475.44 1272.92 1479.01 Q1274.75 1482.55 1278.36 1482.55 Q1281.99 1482.55 1283.8 1479.01 Q1285.63 1475.44 1285.63 1468.33 Q1285.63 1461.2 1283.8 1457.66 Q1281.99 1454.1 1278.36 1454.1 M1278.36 1450.39 Q1284.17 1450.39 1287.23 1455 Q1290.3 1459.58 1290.3 1468.33 Q1290.3 1477.06 1287.23 1481.67 Q1284.17 1486.25 1278.36 1486.25 Q1272.55 1486.25 1269.47 1481.67 Q1266.42 1477.06 1266.42 1468.33 Q1266.42 1459.58 1269.47 1455 Q1272.55 1450.39 1278.36 1450.39 Z" fill="#000000" fill-rule="nonzero" fill-opacity="1" /><path clip-path="url(#clip890)" d="M1678.45 1481.64 L1694.76 1481.64 L1694.76 1485.58 L1672.82 1485.58 L1672.82 1481.64 Q1675.48 1478.89 1680.07 1474.26 Q1684.67 1469.61 1685.85 1468.27 Q1688.1 1465.74 1688.98 1464.01 Q1689.88 1462.25 1689.88 1460.56 Q1689.88 1457.8 1687.94 1456.07 Q1686.01 1454.33 1682.91 1454.33 Q1680.71 1454.33 1678.26 1455.09 Q1675.83 1455.86 1673.05 1457.41 L1673.05 1452.69 Q1675.88 1451.55 1678.33 1450.97 Q1680.78 1450.39 1682.82 1450.39 Q1688.19 1450.39 1691.38 1453.08 Q1694.58 1455.77 1694.58 1460.26 Q1694.58 1462.39 1693.77 1464.31 Q1692.98 1466.2 1690.88 1468.8 Q1690.3 1469.47 1687.2 1472.69 Q1684.09 1475.88 1678.45 1481.64 Z" fill="#000000" fill-rule="nonzero" fill-opacity="1" /><path clip-path="url(#clip890)" d="M2092.23 1455.09 L2080.43 1473.54 L2092.23 1473.54 L2092.23 1455.09 M2091.01 1451.02 L2096.89 1451.02 L2096.89 1473.54 L2101.82 1473.54 L2101.82 1477.43 L2096.89 1477.43 L2096.89 1485.58 L2092.23 1485.58 L2092.23 1477.43 L2076.63 1477.43 L2076.63 1472.92 L2091.01 1451.02 Z" fill="#000000" fill-rule="nonzero" fill-opacity="1" /><path clip-path="url(#clip890)" d="M1222.77 1537.87 Q1221.78 1537.3 1220.61 1537.04 Q1219.46 1536.76 1218.06 1536.76 Q1213.1 1536.76 1210.42 1540 Q1207.78 1543.22 1207.78 1549.27 L1207.78 1568.04 L1201.89 1568.04 L1201.89 1532.4 L1207.78 1532.4 L1207.78 1537.93 Q1209.63 1534.69 1212.59 1533.13 Q1215.55 1531.54 1219.78 1531.54 Q1220.38 1531.54 1221.12 1531.63 Q1221.85 1531.7 1222.74 1531.85 L1222.77 1537.87 Z" fill="#000000" fill-rule="nonzero" fill-opacity="1" /><path clip-path="url(#clip890)" d="M1263.7 1518.58 Q1259.44 1525.9 1257.37 1533.06 Q1255.3 1540.23 1255.3 1547.58 Q1255.3 1554.93 1257.37 1562.16 Q1259.47 1569.35 1263.7 1576.64 L1258.61 1576.64 Q1253.84 1569.16 1251.45 1561.93 Q1249.09 1554.71 1249.09 1547.58 Q1249.09 1540.48 1251.45 1533.29 Q1253.8 1526.09 1258.61 1518.58 L1263.7 1518.58 Z" fill="#000000" fill-rule="nonzero" fill-opacity="1" /><path clip-path="url(#clip890)" d="M1291.27 1550.12 Q1284.17 1550.12 1281.43 1551.75 Q1278.69 1553.37 1278.69 1557.29 Q1278.69 1560.4 1280.73 1562.25 Q1282.8 1564.07 1286.33 1564.07 Q1291.2 1564.07 1294.13 1560.63 Q1297.09 1557.16 1297.09 1551.43 L1297.09 1550.12 L1291.27 1550.12 M1302.95 1547.71 L1302.95 1568.04 L1297.09 1568.04 L1297.09 1562.63 Q1295.09 1565.88 1292.09 1567.44 Q1289.1 1568.97 1284.77 1568.97 Q1279.3 1568.97 1276.05 1565.91 Q1272.84 1562.82 1272.84 1557.67 Q1272.84 1551.65 1276.85 1548.6 Q1280.89 1545.54 1288.88 1545.54 L1297.09 1545.54 L1297.09 1544.97 Q1297.09 1540.93 1294.42 1538.73 Q1291.78 1536.5 1286.97 1536.5 Q1283.91 1536.5 1281.02 1537.23 Q1278.12 1537.97 1275.45 1539.43 L1275.45 1534.02 Q1278.66 1532.78 1281.69 1532.17 Q1284.71 1531.54 1287.57 1531.54 Q1295.31 1531.54 1299.13 1535.55 Q1302.95 1539.56 1302.95 1547.71 Z" fill="#000000" fill-rule="nonzero" fill-opacity="1" /><path clip-path="url(#clip890)" d="M1327.01 1546.5 Q1325.42 1543.76 1322.2 1543.76 Q1318.99 1543.76 1317.4 1546.5 Q1315.77 1549.23 1315.77 1554.71 Q1315.77 1560.21 1317.4 1562.95 Q1318.99 1565.69 1322.2 1565.69 Q1325.42 1565.69 1327.01 1562.95 Q1328.63 1560.21 1328.63 1554.71 Q1328.63 1549.23 1327.01 1546.5 M1322.2 1540.93 Q1327.33 1540.93 1330.03 1544.46 Q1332.74 1547.99 1332.74 1554.71 Q1332.74 1561.46 1330.03 1564.99 Q1327.33 1568.52 1322.2 1568.52 Q1317.05 1568.52 1314.34 1564.99 Q1311.64 1561.46 1311.64 1554.71 Q1311.64 1547.99 1314.34 1544.46 Q1317.05 1540.93 1322.2 1540.93 Z" fill="#000000" fill-rule="nonzero" fill-opacity="1" /><path clip-path="url(#clip890)" d="M1340.22 1518.58 L1345.31 1518.58 Q1350.09 1526.09 1352.44 1533.29 Q1354.83 1540.48 1354.83 1547.58 Q1354.83 1554.71 1352.44 1561.93 Q1350.09 1569.16 1345.31 1576.64 L1340.22 1576.64 Q1344.45 1569.35 1346.52 1562.16 Q1348.62 1554.93 1348.62 1547.58 Q1348.62 1540.23 1346.52 1533.06 Q1344.45 1525.9 1340.22 1518.58 Z" fill="#000000" fill-rule="nonzero" fill-opacity="1" /><polyline clip-path="url(#clip892)" style="stroke:#000000; stroke-linecap:round; stroke-linejoin:round; stroke-width:2; stroke-opacity:0.1; fill:none" points="203.964,1317.48 2352.76,1317.48 "/>
<polyline clip-path="url(#clip892)" style="stroke:#000000; stroke-linecap:round; stroke-linejoin:round; stroke-width:2; stroke-opacity:0.1; fill:none" points="203.964,1003.19 2352.76,1003.19 "/>
<polyline clip-path="url(#clip892)" style="stroke:#000000; stroke-linecap:round; stroke-linejoin:round; stroke-width:2; stroke-opacity:0.1; fill:none" points="203.964,688.907 2352.76,688.907 "/>
<polyline clip-path="url(#clip892)" style="stroke:#000000; stroke-linecap:round; stroke-linejoin:round; stroke-width:2; stroke-opacity:0.1; fill:none" points="203.964,374.62 2352.76,374.62 "/>
<polyline clip-path="url(#clip892)" style="stroke:#000000; stroke-linecap:round; stroke-linejoin:round; stroke-width:2; stroke-opacity:0.1; fill:none" points="203.964,60.3339 2352.76,60.3339 "/>
<polyline clip-path="url(#clip890)" style="stroke:#000000; stroke-linecap:round; stroke-linejoin:round; stroke-width:4; stroke-opacity:1; fill:none" points="203.964,1423.18 203.964,47.2441 "/>
<polyline clip-path="url(#clip890)" style="stroke:#000000; stroke-linecap:round; stroke-linejoin:round; stroke-width:4; stroke-opacity:1; fill:none" points="203.964,1317.48 222.861,1317.48 "/>
<polyline clip-path="url(#clip890)" style="stroke:#000000; stroke-linecap:round; stroke-linejoin:round; stroke-width:4; stroke-opacity:1; fill:none" points="203.964,1003.19 222.861,1003.19 "/>
<polyline clip-path="url(#clip890)" style="stroke:#000000; stroke-linecap:round; stroke-linejoin:round; stroke-width:4; stroke-opacity:1; fill:none" points="203.964,688.907 222.861,688.907 "/>
<polyline clip-path="url(#clip890)" style="stroke:#000000; stroke-linecap:round; stroke-linejoin:round; stroke-width:4; stroke-opacity:1; fill:none" points="203.964,374.62 222.861,374.62 "/>
<polyline clip-path="url(#clip890)" style="stroke:#000000; stroke-linecap:round; stroke-linejoin:round; stroke-width:4; stroke-opacity:1; fill:none" points="203.964,60.3339 222.861,60.3339 "/>
<path clip-path="url(#clip890)" d="M156.019 1303.28 Q152.408 1303.28 150.579 1306.84 Q148.774 1310.39 148.774 1317.51 Q148.774 1324.62 150.579 1328.19 Q152.408 1331.73 156.019 1331.73 Q159.653 1331.73 161.459 1328.19 Q163.288 1324.62 163.288 1317.51 Q163.288 1310.39 161.459 1306.84 Q159.653 1303.28 156.019 1303.28 M156.019 1299.58 Q161.829 1299.58 164.885 1304.18 Q167.964 1308.76 167.964 1317.51 Q167.964 1326.24 164.885 1330.85 Q161.829 1335.43 156.019 1335.43 Q150.209 1335.43 147.13 1330.85 Q144.075 1326.24 144.075 1317.51 Q144.075 1308.76 147.13 1304.18 Q150.209 1299.58 156.019 1299.58 Z" fill="#000000" fill-rule="nonzero" fill-opacity="1" /><path clip-path="url(#clip890)" d="M147.061 985.914 L165.417 985.914 L165.417 989.849 L151.343 989.849 L151.343 998.321 Q152.362 997.974 153.38 997.812 Q154.399 997.627 155.417 997.627 Q161.204 997.627 164.584 1000.8 Q167.964 1003.97 167.964 1009.39 Q167.964 1014.96 164.491 1018.07 Q161.019 1021.14 154.7 1021.14 Q152.524 1021.14 150.255 1020.77 Q148.01 1020.4 145.603 1019.66 L145.603 1014.96 Q147.686 1016.1 149.908 1016.65 Q152.13 1017.21 154.607 1017.21 Q158.612 1017.21 160.95 1015.1 Q163.288 1013 163.288 1009.39 Q163.288 1005.77 160.95 1003.67 Q158.612 1001.56 154.607 1001.56 Q152.732 1001.56 150.857 1001.98 Q149.005 1002.4 147.061 1003.27 L147.061 985.914 Z" fill="#000000" fill-rule="nonzero" fill-opacity="1" /><path clip-path="url(#clip890)" d="M116.668 702.252 L124.306 702.252 L124.306 675.886 L115.996 677.553 L115.996 673.294 L124.26 671.627 L128.936 671.627 L128.936 702.252 L136.575 702.252 L136.575 706.187 L116.668 706.187 L116.668 702.252 Z" fill="#000000" fill-rule="nonzero" fill-opacity="1" /><path clip-path="url(#clip890)" d="M156.019 674.706 Q152.408 674.706 150.579 678.271 Q148.774 681.812 148.774 688.942 Q148.774 696.048 150.579 699.613 Q152.408 703.155 156.019 703.155 Q159.653 703.155 161.459 699.613 Q163.288 696.048 163.288 688.942 Q163.288 681.812 161.459 678.271 Q159.653 674.706 156.019 674.706 M156.019 671.002 Q161.829 671.002 164.885 675.609 Q167.964 680.192 167.964 688.942 Q167.964 697.669 164.885 702.275 Q161.829 706.858 156.019 706.858 Q150.209 706.858 147.13 702.275 Q144.075 697.669 144.075 688.942 Q144.075 680.192 147.13 675.609 Q150.209 671.002 156.019 671.002 Z" fill="#000000" fill-rule="nonzero" fill-opacity="1" /><path clip-path="url(#clip890)" d="M117.663 387.965 L125.302 387.965 L125.302 361.6 L116.992 363.266 L116.992 359.007 L125.255 357.34 L129.931 357.34 L129.931 387.965 L137.57 387.965 L137.57 391.9 L117.663 391.9 L117.663 387.965 Z" fill="#000000" fill-rule="nonzero" fill-opacity="1" /><path clip-path="url(#clip890)" d="M147.061 357.34 L165.417 357.34 L165.417 361.276 L151.343 361.276 L151.343 369.748 Q152.362 369.401 153.38 369.239 Q154.399 369.053 155.417 369.053 Q161.204 369.053 164.584 372.225 Q167.964 375.396 167.964 380.813 Q167.964 386.391 164.491 389.493 Q161.019 392.572 154.7 392.572 Q152.524 392.572 150.255 392.201 Q148.01 391.831 145.603 391.09 L145.603 386.391 Q147.686 387.526 149.908 388.081 Q152.13 388.637 154.607 388.637 Q158.612 388.637 160.95 386.53 Q163.288 384.424 163.288 380.813 Q163.288 377.201 160.95 375.095 Q158.612 372.989 154.607 372.989 Q152.732 372.989 150.857 373.405 Q149.005 373.822 147.061 374.702 L147.061 357.34 Z" fill="#000000" fill-rule="nonzero" fill-opacity="1" /><path clip-path="url(#clip890)" d="M119.885 73.6788 L136.204 73.6788 L136.204 77.6139 L114.26 77.6139 L114.26 73.6788 Q116.922 70.9242 121.505 66.2945 Q126.112 61.6418 127.292 60.2992 Q129.538 57.7761 130.417 56.04 Q131.32 54.2807 131.32 52.5909 Q131.32 49.8363 129.376 48.1002 Q127.455 46.3641 124.353 46.3641 Q122.154 46.3641 119.7 47.128 Q117.269 47.8919 114.492 49.4428 L114.492 44.7206 Q117.316 43.5863 119.769 43.0076 Q122.223 42.4289 124.26 42.4289 Q129.63 42.4289 132.825 45.1141 Q136.019 47.7993 136.019 52.29 Q136.019 54.4196 135.209 56.3409 Q134.422 58.239 132.316 60.8316 Q131.737 61.5029 128.635 64.7205 Q125.533 67.9149 119.885 73.6788 Z" fill="#000000" fill-rule="nonzero" fill-opacity="1" /><path clip-path="url(#clip890)" d="M156.019 46.1326 Q152.408 46.1326 150.579 49.6974 Q148.774 53.2391 148.774 60.3687 Q148.774 67.4751 150.579 71.0399 Q152.408 74.5815 156.019 74.5815 Q159.653 74.5815 161.459 71.0399 Q163.288 67.4751 163.288 60.3687 Q163.288 53.2391 161.459 49.6974 Q159.653 46.1326 156.019 46.1326 M156.019 42.4289 Q161.829 42.4289 164.885 47.0354 Q167.964 51.6187 167.964 60.3687 Q167.964 69.0955 164.885 73.7019 Q161.829 78.2852 156.019 78.2852 Q150.209 78.2852 147.13 73.7019 Q144.075 69.0955 144.075 60.3687 Q144.075 51.6187 147.13 47.0354 Q150.209 42.4289 156.019 42.4289 Z" fill="#000000" fill-rule="nonzero" fill-opacity="1" /><path clip-path="url(#clip890)" d="M64.0042 844.702 L16.4842 862.844 L16.4842 856.129 L56.4926 841.074 L16.4842 825.987 L16.4842 819.303 L64.0042 837.413 L64.0042 844.702 Z" fill="#000000" fill-rule="nonzero" fill-opacity="1" /><path clip-path="url(#clip890)" d="M14.5426 798.551 Q21.8632 802.816 29.0246 804.885 Q36.186 806.953 43.5384 806.953 Q50.8908 806.953 58.1159 804.885 Q65.3091 802.784 72.5979 798.551 L72.5979 803.643 Q65.1182 808.418 57.8931 810.805 Q50.668 813.16 43.5384 813.16 Q36.4406 813.16 29.2474 810.805 Q22.0542 808.449 14.5426 803.643 L14.5426 798.551 Z" fill="#000000" fill-rule="nonzero" fill-opacity="1" /><path clip-path="url(#clip890)" d="M33.8307 766.531 Q33.2578 767.518 33.0032 768.696 Q32.7167 769.841 32.7167 771.242 Q32.7167 776.207 35.9632 778.881 Q39.1779 781.522 45.2253 781.522 L64.0042 781.522 L64.0042 787.411 L28.3562 787.411 L28.3562 781.522 L33.8944 781.522 Q30.6479 779.676 29.0883 776.716 Q27.4968 773.756 27.4968 769.523 Q27.4968 768.918 27.5923 768.186 Q27.656 767.454 27.8151 766.563 L33.8307 766.531 Z" fill="#000000" fill-rule="nonzero" fill-opacity="1" /><path clip-path="url(#clip890)" d="M14.5426 761.311 L14.5426 756.219 Q22.0542 751.445 29.2474 749.089 Q36.4406 746.702 43.5384 746.702 Q50.668 746.702 57.8931 749.089 Q65.1182 751.445 72.5979 756.219 L72.5979 761.311 Q65.3091 757.078 58.1159 755.009 Q50.8908 752.909 43.5384 752.909 Q36.186 752.909 29.0246 755.009 Q21.8632 757.078 14.5426 761.311 Z" fill="#000000" fill-rule="nonzero" fill-opacity="1" /><path clip-path="url(#clip890)" d="M14.5426 700.169 Q21.8632 704.434 29.0246 706.503 Q36.186 708.571 43.5384 708.571 Q50.8908 708.571 58.1159 706.503 Q65.3091 704.402 72.5979 700.169 L72.5979 705.261 Q65.1182 710.036 57.8931 712.423 Q50.668 714.778 43.5384 714.778 Q36.4406 714.778 29.2474 712.423 Q22.0542 710.067 14.5426 705.261 L14.5426 700.169 Z" fill="#000000" fill-rule="nonzero" fill-opacity="1" /><path clip-path="url(#clip890)" d="M16.4842 688.551 L16.4842 658.505 L21.895 658.505 L21.895 682.122 L35.9632 682.122 L35.9632 659.492 L41.3741 659.492 L41.3741 682.122 L58.5933 682.122 L58.5933 657.932 L64.0042 657.932 L64.0042 688.551 L16.4842 688.551 Z" fill="#000000" fill-rule="nonzero" fill-opacity="1" /><path clip-path="url(#clip890)" d="M51.9411 631.228 L64.0042 631.228 L64.0042 634.92 L52.0685 634.92 Q49.2357 634.92 47.8353 636.162 Q46.403 637.403 46.403 639.886 Q46.403 642.877 48.1217 644.596 Q49.8086 646.315 52.7369 646.315 L64.0042 646.315 L64.0042 650.039 L36.2815 650.039 L36.2815 646.315 L47.135 646.315 Q45.3526 645.01 44.4614 643.228 Q43.5702 641.413 43.5702 639.058 Q43.5702 635.207 45.7028 633.233 Q47.8353 631.228 51.9411 631.228 Z" fill="#000000" fill-rule="nonzero" fill-opacity="1" /><path clip-path="url(#clip890)" d="M14.5426 622.189 L14.5426 617.096 Q22.0542 612.322 29.2474 609.967 Q36.4406 607.58 43.5384 607.58 Q50.668 607.58 57.8931 609.967 Q65.1182 612.322 72.5979 617.096 L72.5979 622.189 Q65.3091 617.956 58.1159 615.887 Q50.8908 613.786 43.5384 613.786 Q36.186 613.786 29.0246 615.887 Q21.8632 617.956 14.5426 622.189 Z" fill="#000000" fill-rule="nonzero" fill-opacity="1" /><polyline clip-path="url(#clip892)" style="stroke:#000000; stroke-linecap:round; stroke-linejoin:round; stroke-width:4; stroke-opacity:1; fill:none" points="264.778,977.342 285.05,999.589 305.322,1021.21 325.593,1042.2 345.865,1062.57 366.137,1082.3 386.408,1101.41 406.68,1119.9 426.951,1137.75 447.223,1154.98 467.495,1171.58 487.766,1187.56 508.038,1202.91 528.31,1217.63 548.581,1231.72 568.853,1245.19 589.124,1258.03 609.396,1270.25 629.668,1281.84 649.939,1292.81 670.211,1303.15 690.483,1312.87 710.754,1321.96 731.026,1330.43 751.297,1338.27 771.569,1345.5 791.841,1352.1 812.112,1358.08 832.384,1363.44 852.656,1368.18 872.927,1372.31 893.199,1375.82 913.47,1378.72 933.742,1381 954.014,1382.68 974.285,1383.76 994.557,1384.24 1014.83,1384.13 1035.1,1383.43 1055.37,1382.16 1075.64,1380.34 1095.92,1377.98 1116.19,1375.12 1136.46,1371.79 1156.73,1368.07 1177,1364.06 1197.27,1359.91 1217.54,1355.87 1237.82,1352.33 1258.09,1349.83 1278.36,1348.91 1298.63,1349.83 1318.9,1352.33 1339.17,1355.87 1359.45,1359.91 1379.72,1364.06 1399.99,1368.07 1420.26,1371.79 1440.53,1375.12 1460.8,1377.98 1481.08,1380.34 1501.35,1382.16 1521.62,1383.43 1541.89,1384.13 1562.16,1384.24 1582.43,1383.76 1602.71,1382.68 1622.98,1381 1643.25,1378.72 1663.52,1375.82 1683.79,1372.31 1704.06,1368.18 1724.34,1363.44 1744.61,1358.08 1764.88,1352.1 1785.15,1345.5 1805.42,1338.27 1825.69,1330.43 1845.97,1321.96 1866.24,1312.87 1886.51,1303.15 1906.78,1292.81 1927.05,1281.84 1947.32,1270.25 1967.6,1258.03 1987.87,1245.19 2008.14,1231.72 2028.41,1217.63 2048.68,1202.91 2068.95,1187.56 2089.22,1171.58 2109.5,1154.98 2129.77,1137.75 2150.04,1119.9 2170.31,1101.41 2190.58,1082.3 2210.85,1062.57 2231.13,1042.2 2251.4,1021.21 2271.67,999.589 2291.94,977.342 "/>
<polyline clip-path="url(#clip892)" style="stroke:#000000; stroke-linecap:round; stroke-linejoin:round; stroke-width:4; stroke-opacity:1; fill:none" points="264.778,86.1857 285.05,126.167 305.322,165.518 325.593,204.241 345.865,242.333 366.137,279.796 386.408,316.629 406.68,352.832 426.951,388.405 447.223,423.348 467.495,457.661 487.766,491.343 508.038,524.396 528.31,556.817 548.581,588.608 568.853,619.768 589.124,650.297 609.396,680.194 629.668,709.46 649.939,738.094 670.211,766.096 690.483,793.465 710.754,820.201 731.026,846.303 751.297,871.772 771.569,896.606 791.841,920.804 812.112,944.366 832.384,967.29 852.656,989.576 872.927,1011.22 893.199,1032.23 913.47,1052.59 933.742,1072.3 954.014,1091.36 974.285,1109.77 994.557,1127.52 1014.83,1144.61 1035.1,1161.02 1055.37,1176.74 1075.64,1191.77 1095.92,1206.07 1116.19,1219.62 1136.46,1232.37 1156.73,1244.26 1177,1255.19 1197.27,1265 1217.54,1273.43 1237.82,1280.11 1258.09,1284.5 1278.36,1286.05 1298.63,1284.5 1318.9,1280.11 1339.17,1273.43 1359.45,1265 1379.72,1255.19 1399.99,1244.26 1420.26,1232.37 1440.53,1219.62 1460.8,1206.07 1481.08,1191.77 1501.35,1176.74 1521.62,1161.02 1541.89,1144.61 1562.16,1127.52 1582.43,1109.77 1602.71,1091.36 1622.98,1072.3 1643.25,1052.59 1663.52,1032.23 1683.79,1011.22 1704.06,989.576 1724.34,967.29 1744.61,944.366 1764.88,920.804 1785.15,896.606 1805.42,871.772 1825.69,846.303 1845.97,820.201 1866.24,793.465 1886.51,766.096 1906.78,738.094 1927.05,709.46 1947.32,680.194 1967.6,650.297 1987.87,619.768 2008.14,588.608 2028.41,556.817 2048.68,524.396 2068.95,491.343 2089.22,457.661 2109.5,423.348 2129.77,388.405 2150.04,352.832 2170.31,316.629 2190.58,279.796 2210.85,242.333 2231.13,204.241 2251.4,165.518 2271.67,126.167 2291.94,86.1857 "/>
<polyline clip-path="url(#clip892)" style="stroke:#ff1f5b; stroke-linecap:round; stroke-linejoin:round; stroke-width:4; stroke-opacity:1; fill:none" points="264.778,976.232 285.05,998.457 305.322,1020.05 325.593,1041.02 345.865,1061.36 366.137,1081.07 386.408,1100.15 406.68,1118.61 426.951,1136.43 447.223,1153.63 467.495,1170.2 487.766,1186.14 508.038,1201.45 528.31,1216.13 548.581,1230.18 568.853,1243.61 589.124,1256.4 609.396,1268.57 629.668,1280.11 649.939,1291.02 670.211,1301.3 690.483,1310.96 710.754,1319.98 731.026,1328.38 751.297,1336.15 771.569,1343.29 791.841,1349.8 812.112,1355.68 832.384,1360.93 852.656,1365.56 872.927,1369.55 893.199,1372.92 913.47,1375.66 933.742,1377.77 954.014,1379.25 974.285,1380.11 994.557,1380.33 1014.83,1379.93 1035.1,1378.9 1055.37,1377.23 1075.64,1374.95 1095.92,1372.03 1116.19,1368.48 1136.46,1364.31 1156.73,1359.5 1177,1354.07 1197.27,1348.01 1217.54,1341.32 1237.82,1334 1258.09,1326.06 1278.36,1317.48 1298.63,1308.28 1318.9,1298.44 1339.17,1287.98 1359.45,1276.89 1379.72,1265.18 1399.99,1252.83 1420.26,1239.85 1440.53,1226.25 1460.8,1212.02 1481.08,1197.16 1501.35,1181.67 1521.62,1165.55 1541.89,1148.8 1562.16,1131.43 1582.43,1113.43 1602.71,1094.79 1622.98,1075.53 1643.25,1055.64 1663.52,1035.12 1683.79,1013.98 1704.06,992.203 1724.34,969.799 1744.61,946.767 1764.88,923.106 1785.15,898.817 1805.42,873.899 1825.69,848.352 1845.97,822.177 1866.24,795.374 1886.51,767.941 1906.78,739.88 1927.05,711.191 1947.32,681.873 1967.6,651.926 1987.87,621.351 2008.14,590.148 2028.41,558.315 2048.68,525.854 2068.95,492.765 2089.22,459.047 2109.5,424.7 2129.77,389.725 2150.04,354.122 2170.31,317.889 2190.58,281.028 2210.85,243.539 2231.13,205.421 2251.4,166.674 2271.67,127.299 2291.94,87.2955 "/>
<polyline clip-path="url(#clip892)" style="stroke:#ff1f5b; stroke-linecap:round; stroke-linejoin:round; stroke-width:4; stroke-opacity:1; fill:none" points="264.778,87.2955 285.05,127.299 305.322,166.674 325.593,205.421 345.865,243.539 366.137,281.028 386.408,317.889 406.68,354.122 426.951,389.725 447.223,424.7 467.495,459.047 487.766,492.765 508.038,525.854 528.31,558.315 548.581,590.148 568.853,621.351 589.124,651.926 609.396,681.873 629.668,711.191 649.939,739.88 670.211,767.941 690.483,795.374 710.754,822.177 731.026,848.352 751.297,873.899 771.569,898.817 791.841,923.106 812.112,946.767 832.384,969.799 852.656,992.203 872.927,1013.98 893.199,1035.12 913.47,1055.64 933.742,1075.53 954.014,1094.79 974.285,1113.43 994.557,1131.43 1014.83,1148.8 1035.1,1165.55 1055.37,1181.67 1075.64,1197.16 1095.92,1212.02 1116.19,1226.25 1136.46,1239.85 1156.73,1252.83 1177,1265.18 1197.27,1276.89 1217.54,1287.98 1237.82,1298.44 1258.09,1308.28 1278.36,1317.48 1298.63,1326.06 1318.9,1334 1339.17,1341.32 1359.45,1348.01 1379.72,1354.07 1399.99,1359.5 1420.26,1364.31 1440.53,1368.48 1460.8,1372.03 1481.08,1374.95 1501.35,1377.23 1521.62,1378.9 1541.89,1379.93 1562.16,1380.33 1582.43,1380.11 1602.71,1379.25 1622.98,1377.77 1643.25,1375.66 1663.52,1372.92 1683.79,1369.55 1704.06,1365.56 1724.34,1360.93 1744.61,1355.68 1764.88,1349.8 1785.15,1343.29 1805.42,1336.15 1825.69,1328.38 1845.97,1319.98 1866.24,1310.96 1886.51,1301.3 1906.78,1291.02 1927.05,1280.11 1947.32,1268.57 1967.6,1256.4 1987.87,1243.61 2008.14,1230.18 2028.41,1216.13 2048.68,1201.45 2068.95,1186.14 2089.22,1170.2 2109.5,1153.63 2129.77,1136.43 2150.04,1118.61 2170.31,1100.15 2190.58,1081.07 2210.85,1061.36 2231.13,1041.02 2251.4,1020.05 2271.67,998.457 2291.94,976.232 "/>
<polyline clip-path="url(#clip892)" style="stroke:#009ade; stroke-linecap:round; stroke-linejoin:round; stroke-width:4; stroke-opacity:1; fill:none" points="264.778,1286.05 285.05,1286.05 305.322,1286.05 325.593,1286.05 345.865,1286.05 366.137,1286.05 386.408,1286.05 406.68,1286.05 426.951,1286.05 447.223,1286.05 467.495,1286.05 487.766,1286.05 508.038,1286.05 528.31,1286.05 548.581,1286.05 568.853,1286.05 589.124,1286.05 609.396,1286.05 629.668,1286.05 649.939,1286.05 670.211,1286.05 690.483,1286.05 710.754,1286.05 731.026,1286.05 751.297,1286.05 771.569,1286.05 791.841,1286.05 812.112,1286.05 832.384,1286.05 852.656,1286.05 872.927,1286.05 893.199,1286.05 913.47,1286.05 933.742,1286.05 954.014,1286.05 974.285,1286.05 994.557,1286.05 1014.83,1286.05 1035.1,1286.05 1055.37,1286.05 1075.64,1286.05 1095.92,1286.05 1116.19,1286.05 1136.46,1286.05 1156.73,1286.05 1177,1286.05 1197.27,1286.05 1217.54,1286.05 1237.82,1286.05 1258.09,1286.05 1278.36,1286.05 1298.63,1286.05 1318.9,1286.05 1339.17,1286.05 1359.45,1286.05 1379.72,1286.05 1399.99,1286.05 1420.26,1286.05 1440.53,1286.05 1460.8,1286.05 1481.08,1286.05 1501.35,1286.05 1521.62,1286.05 1541.89,1286.05 1562.16,1286.05 1582.43,1286.05 1602.71,1286.05 1622.98,1286.05 1643.25,1286.05 1663.52,1286.05 1683.79,1286.05 1704.06,1286.05 1724.34,1286.05 1744.61,1286.05 1764.88,1286.05 1785.15,1286.05 1805.42,1286.05 1825.69,1286.05 1845.97,1286.05 1866.24,1286.05 1886.51,1286.05 1906.78,1286.05 1927.05,1286.05 1947.32,1286.05 1967.6,1286.05 1987.87,1286.05 2008.14,1286.05 2028.41,1286.05 2048.68,1286.05 2068.95,1286.05 2089.22,1286.05 2109.5,1286.05 2129.77,1286.05 2150.04,1286.05 2170.31,1286.05 2190.58,1286.05 2210.85,1286.05 2231.13,1286.05 2251.4,1286.05 2271.67,1286.05 2291.94,1286.05 "/>
<path clip-path="url(#clip890)" d="M1662.76 300.469 L2281.13 300.469 L2281.13 93.1086 L1662.76 93.1086  Z" fill="#ffffff" fill-rule="evenodd" fill-opacity="1"/>
<polyline clip-path="url(#clip890)" style="stroke:#000000; stroke-linecap:round; stroke-linejoin:round; stroke-width:4; stroke-opacity:1; fill:none" points="1662.76,300.469 2281.13,300.469 2281.13,93.1086 1662.76,93.1086 1662.76,300.469 "/>
<polyline clip-path="url(#clip890)" style="stroke:#000000; stroke-linecap:round; stroke-linejoin:round; stroke-width:4; stroke-opacity:1; fill:none" points="1686.63,144.949 1829.89,144.949 "/>
<path clip-path="url(#clip890)" d="M1869.59 132.275 L1863.25 149.474 L1875.96 149.474 L1869.59 132.275 M1866.96 127.669 L1872.26 127.669 L1885.43 162.229 L1880.57 162.229 L1877.42 153.363 L1861.84 153.363 L1858.69 162.229 L1853.76 162.229 L1866.96 127.669 Z" fill="#000000" fill-rule="nonzero" fill-opacity="1" /><path clip-path="url(#clip890)" d="M1906.52 140.238 L1906.52 126.21 L1910.77 126.21 L1910.77 162.229 L1906.52 162.229 L1906.52 158.34 Q1905.17 160.655 1903.11 161.789 Q1901.08 162.9 1898.21 162.9 Q1893.51 162.9 1890.54 159.15 Q1887.6 155.4 1887.6 149.289 Q1887.6 143.178 1890.54 139.428 Q1893.51 135.678 1898.21 135.678 Q1901.08 135.678 1903.11 136.812 Q1905.17 137.923 1906.52 140.238 M1892 149.289 Q1892 153.988 1893.92 156.673 Q1895.87 159.335 1899.25 159.335 Q1902.63 159.335 1904.57 156.673 Q1906.52 153.988 1906.52 149.289 Q1906.52 144.59 1904.57 141.928 Q1902.63 139.243 1899.25 139.243 Q1895.87 139.243 1893.92 141.928 Q1892 144.59 1892 149.289 Z" fill="#000000" fill-rule="nonzero" fill-opacity="1" /><path clip-path="url(#clip890)" d="M1919.55 136.303 L1923.81 136.303 L1923.81 162.229 L1919.55 162.229 L1919.55 136.303 M1919.55 126.21 L1923.81 126.21 L1923.81 131.604 L1919.55 131.604 L1919.55 126.21 Z" fill="#000000" fill-rule="nonzero" fill-opacity="1" /><path clip-path="url(#clip890)" d="M1944.5 149.196 Q1939.34 149.196 1937.35 150.377 Q1935.36 151.557 1935.36 154.405 Q1935.36 156.673 1936.84 158.016 Q1938.34 159.335 1940.91 159.335 Q1944.45 159.335 1946.58 156.835 Q1948.74 154.312 1948.74 150.145 L1948.74 149.196 L1944.5 149.196 M1953 147.437 L1953 162.229 L1948.74 162.229 L1948.74 158.293 Q1947.28 160.655 1945.1 161.789 Q1942.93 162.9 1939.78 162.9 Q1935.8 162.9 1933.44 160.678 Q1931.1 158.432 1931.1 154.682 Q1931.1 150.307 1934.02 148.085 Q1936.95 145.863 1942.76 145.863 L1948.74 145.863 L1948.74 145.446 Q1948.74 142.507 1946.79 140.909 Q1944.87 139.289 1941.38 139.289 Q1939.15 139.289 1937.05 139.821 Q1934.94 140.354 1933 141.419 L1933 137.483 Q1935.33 136.581 1937.53 136.141 Q1939.73 135.678 1941.82 135.678 Q1947.44 135.678 1950.22 138.594 Q1953 141.511 1953 147.437 Z" fill="#000000" fill-rule="nonzero" fill-opacity="1" /><path clip-path="url(#clip890)" d="M1980.38 149.289 Q1980.38 144.59 1978.44 141.928 Q1976.51 139.243 1973.14 139.243 Q1969.76 139.243 1967.81 141.928 Q1965.89 144.59 1965.89 149.289 Q1965.89 153.988 1967.81 156.673 Q1969.76 159.335 1973.14 159.335 Q1976.51 159.335 1978.44 156.673 Q1980.38 153.988 1980.38 149.289 M1965.89 140.238 Q1967.23 137.923 1969.27 136.812 Q1971.33 135.678 1974.18 135.678 Q1978.9 135.678 1981.84 139.428 Q1984.8 143.178 1984.8 149.289 Q1984.8 155.4 1981.84 159.15 Q1978.9 162.9 1974.18 162.9 Q1971.33 162.9 1969.27 161.789 Q1967.23 160.655 1965.89 158.34 L1965.89 162.229 L1961.61 162.229 L1961.61 126.21 L1965.89 126.21 L1965.89 140.238 Z" fill="#000000" fill-rule="nonzero" fill-opacity="1" /><path clip-path="url(#clip890)" d="M2003.64 149.196 Q1998.48 149.196 1996.49 150.377 Q1994.5 151.557 1994.5 154.405 Q1994.5 156.673 1995.98 158.016 Q1997.49 159.335 2000.06 159.335 Q2003.6 159.335 2005.73 156.835 Q2007.88 154.312 2007.88 150.145 L2007.88 149.196 L2003.64 149.196 M2012.14 147.437 L2012.14 162.229 L2007.88 162.229 L2007.88 158.293 Q2006.42 160.655 2004.25 161.789 Q2002.07 162.9 1998.92 162.9 Q1994.94 162.9 1992.58 160.678 Q1990.24 158.432 1990.24 154.682 Q1990.24 150.307 1993.16 148.085 Q1996.1 145.863 2001.91 145.863 L2007.88 145.863 L2007.88 145.446 Q2007.88 142.507 2005.94 140.909 Q2004.01 139.289 2000.52 139.289 Q1998.3 139.289 1996.19 139.821 Q1994.08 140.354 1992.14 141.419 L1992.14 137.483 Q1994.48 136.581 1996.68 136.141 Q1998.88 135.678 2000.96 135.678 Q2006.58 135.678 2009.36 138.594 Q2012.14 141.511 2012.14 147.437 Z" fill="#000000" fill-rule="nonzero" fill-opacity="1" /><path clip-path="url(#clip890)" d="M2025.13 128.942 L2025.13 136.303 L2033.9 136.303 L2033.9 139.613 L2025.13 139.613 L2025.13 153.687 Q2025.13 156.858 2025.98 157.761 Q2026.86 158.664 2029.52 158.664 L2033.9 158.664 L2033.9 162.229 L2029.52 162.229 Q2024.59 162.229 2022.72 160.4 Q2020.84 158.548 2020.84 153.687 L2020.84 139.613 L2017.72 139.613 L2017.72 136.303 L2020.84 136.303 L2020.84 128.942 L2025.13 128.942 Z" fill="#000000" fill-rule="nonzero" fill-opacity="1" /><path clip-path="url(#clip890)" d="M2039.5 136.303 L2043.76 136.303 L2043.76 162.229 L2039.5 162.229 L2039.5 136.303 M2039.5 126.21 L2043.76 126.21 L2043.76 131.604 L2039.5 131.604 L2039.5 126.21 Z" fill="#000000" fill-rule="nonzero" fill-opacity="1" /><path clip-path="url(#clip890)" d="M2071.33 137.298 L2071.33 141.28 Q2069.52 140.284 2067.69 139.798 Q2065.89 139.289 2064.04 139.289 Q2059.89 139.289 2057.6 141.928 Q2055.31 144.544 2055.31 149.289 Q2055.31 154.034 2057.6 156.673 Q2059.89 159.289 2064.04 159.289 Q2065.89 159.289 2067.69 158.803 Q2069.52 158.293 2071.33 157.298 L2071.33 161.233 Q2069.55 162.067 2067.63 162.483 Q2065.73 162.9 2063.57 162.9 Q2057.72 162.9 2054.27 159.219 Q2050.82 155.539 2050.82 149.289 Q2050.82 142.946 2054.29 139.312 Q2057.79 135.678 2063.85 135.678 Q2065.82 135.678 2067.69 136.095 Q2069.57 136.488 2071.33 137.298 Z" fill="#000000" fill-rule="nonzero" fill-opacity="1" /><polyline clip-path="url(#clip890)" style="stroke:#ff1f5b; stroke-linecap:round; stroke-linejoin:round; stroke-width:4; stroke-opacity:1; fill:none" points="1686.63,196.789 1829.89,196.789 "/>
<path clip-path="url(#clip890)" d="M1858.44 183.351 L1858.44 210.226 L1864.08 210.226 Q1871.24 210.226 1874.55 206.985 Q1877.88 203.745 1877.88 196.754 Q1877.88 189.809 1874.55 186.592 Q1871.24 183.351 1864.08 183.351 L1858.44 183.351 M1853.76 179.509 L1863.37 179.509 Q1873.41 179.509 1878.11 183.698 Q1882.81 187.865 1882.81 196.754 Q1882.81 205.689 1878.09 209.879 Q1873.37 214.069 1863.37 214.069 L1853.76 214.069 L1853.76 179.509 Z" fill="#000000" fill-rule="nonzero" fill-opacity="1" /><path clip-path="url(#clip890)" d="M1890.08 188.143 L1894.34 188.143 L1894.34 214.069 L1890.08 214.069 L1890.08 188.143 M1890.08 178.05 L1894.34 178.05 L1894.34 183.444 L1890.08 183.444 L1890.08 178.05 Z" fill="#000000" fill-rule="nonzero" fill-opacity="1" /><path clip-path="url(#clip890)" d="M1915.03 201.036 Q1909.87 201.036 1907.88 202.217 Q1905.89 203.397 1905.89 206.245 Q1905.89 208.513 1907.37 209.856 Q1908.88 211.175 1911.45 211.175 Q1914.99 211.175 1917.12 208.675 Q1919.27 206.152 1919.27 201.985 L1919.27 201.036 L1915.03 201.036 M1923.53 199.277 L1923.53 214.069 L1919.27 214.069 L1919.27 210.133 Q1917.81 212.495 1915.64 213.629 Q1913.46 214.74 1910.31 214.74 Q1906.33 214.74 1903.97 212.518 Q1901.63 210.272 1901.63 206.522 Q1901.63 202.147 1904.55 199.925 Q1907.49 197.703 1913.3 197.703 L1919.27 197.703 L1919.27 197.286 Q1919.27 194.347 1917.33 192.749 Q1915.4 191.129 1911.91 191.129 Q1909.69 191.129 1907.58 191.661 Q1905.47 192.194 1903.53 193.259 L1903.53 189.323 Q1905.87 188.421 1908.07 187.981 Q1910.27 187.518 1912.35 187.518 Q1917.97 187.518 1920.75 190.434 Q1923.53 193.351 1923.53 199.277 Z" fill="#000000" fill-rule="nonzero" fill-opacity="1" /><path clip-path="url(#clip890)" d="M1950.91 201.129 Q1950.91 196.43 1948.97 193.768 Q1947.05 191.083 1943.67 191.083 Q1940.29 191.083 1938.34 193.768 Q1936.42 196.43 1936.42 201.129 Q1936.42 205.828 1938.34 208.513 Q1940.29 211.175 1943.67 211.175 Q1947.05 211.175 1948.97 208.513 Q1950.91 205.828 1950.91 201.129 M1936.42 192.078 Q1937.76 189.763 1939.8 188.652 Q1941.86 187.518 1944.71 187.518 Q1949.43 187.518 1952.37 191.268 Q1955.33 195.018 1955.33 201.129 Q1955.33 207.24 1952.37 210.99 Q1949.43 214.74 1944.71 214.74 Q1941.86 214.74 1939.8 213.629 Q1937.76 212.495 1936.42 210.18 L1936.42 214.069 L1932.14 214.069 L1932.14 178.05 L1936.42 178.05 L1936.42 192.078 Z" fill="#000000" fill-rule="nonzero" fill-opacity="1" /><path clip-path="url(#clip890)" d="M1974.18 201.036 Q1969.01 201.036 1967.02 202.217 Q1965.03 203.397 1965.03 206.245 Q1965.03 208.513 1966.51 209.856 Q1968.02 211.175 1970.59 211.175 Q1974.13 211.175 1976.26 208.675 Q1978.41 206.152 1978.41 201.985 L1978.41 201.036 L1974.18 201.036 M1982.67 199.277 L1982.67 214.069 L1978.41 214.069 L1978.41 210.133 Q1976.95 212.495 1974.78 213.629 Q1972.6 214.74 1969.45 214.74 Q1965.47 214.74 1963.11 212.518 Q1960.77 210.272 1960.77 206.522 Q1960.77 202.147 1963.69 199.925 Q1966.63 197.703 1972.44 197.703 L1978.41 197.703 L1978.41 197.286 Q1978.41 194.347 1976.47 192.749 Q1974.55 191.129 1971.05 191.129 Q1968.83 191.129 1966.72 191.661 Q1964.62 192.194 1962.67 193.259 L1962.67 189.323 Q1965.01 188.421 1967.21 187.981 Q1969.41 187.518 1971.49 187.518 Q1977.12 187.518 1979.89 190.434 Q1982.67 193.351 1982.67 199.277 Z" fill="#000000" fill-rule="nonzero" fill-opacity="1" /><path clip-path="url(#clip890)" d="M1995.66 180.782 L1995.66 188.143 L2004.43 188.143 L2004.43 191.453 L1995.66 191.453 L1995.66 205.527 Q1995.66 208.698 1996.51 209.601 Q1997.39 210.504 2000.06 210.504 L2004.43 210.504 L2004.43 214.069 L2000.06 214.069 Q1995.13 214.069 1993.25 212.24 Q1991.38 210.388 1991.38 205.527 L1991.38 191.453 L1988.25 191.453 L1988.25 188.143 L1991.38 188.143 L1991.38 180.782 L1995.66 180.782 Z" fill="#000000" fill-rule="nonzero" fill-opacity="1" /><path clip-path="url(#clip890)" d="M2010.03 188.143 L2014.29 188.143 L2014.29 214.069 L2010.03 214.069 L2010.03 188.143 M2010.03 178.05 L2014.29 178.05 L2014.29 183.444 L2010.03 183.444 L2010.03 178.05 Z" fill="#000000" fill-rule="nonzero" fill-opacity="1" /><path clip-path="url(#clip890)" d="M2041.86 189.138 L2041.86 193.12 Q2040.06 192.124 2038.23 191.638 Q2036.42 191.129 2034.57 191.129 Q2030.43 191.129 2028.13 193.768 Q2025.84 196.384 2025.84 201.129 Q2025.84 205.874 2028.13 208.513 Q2030.43 211.129 2034.57 211.129 Q2036.42 211.129 2038.23 210.643 Q2040.06 210.133 2041.86 209.138 L2041.86 213.073 Q2040.08 213.907 2038.16 214.323 Q2036.26 214.74 2034.11 214.74 Q2028.25 214.74 2024.8 211.059 Q2021.35 207.379 2021.35 201.129 Q2021.35 194.786 2024.82 191.152 Q2028.32 187.518 2034.38 187.518 Q2036.35 187.518 2038.23 187.935 Q2040.1 188.328 2041.86 189.138 Z" fill="#000000" fill-rule="nonzero" fill-opacity="1" /><polyline clip-path="url(#clip890)" style="stroke:#009ade; stroke-linecap:round; stroke-linejoin:round; stroke-width:4; stroke-opacity:1; fill:none" points="1686.63,248.629 1829.89,248.629 "/>
<path clip-path="url(#clip890)" d="M1858.44 235.191 L1858.44 262.066 L1864.08 262.066 Q1871.24 262.066 1874.55 258.825 Q1877.88 255.585 1877.88 248.594 Q1877.88 241.649 1874.55 238.432 Q1871.24 235.191 1864.08 235.191 L1858.44 235.191 M1853.76 231.349 L1863.37 231.349 Q1873.41 231.349 1878.11 235.538 Q1882.81 239.705 1882.81 248.594 Q1882.81 257.529 1878.09 261.719 Q1873.37 265.909 1863.37 265.909 L1853.76 265.909 L1853.76 231.349 Z" fill="#000000" fill-rule="nonzero" fill-opacity="1" /><path clip-path="url(#clip890)" d="M1890.08 239.983 L1894.34 239.983 L1894.34 265.909 L1890.08 265.909 L1890.08 239.983 M1890.08 229.89 L1894.34 229.89 L1894.34 235.284 L1890.08 235.284 L1890.08 229.89 Z" fill="#000000" fill-rule="nonzero" fill-opacity="1" /><path clip-path="url(#clip890)" d="M1915.03 252.876 Q1909.87 252.876 1907.88 254.057 Q1905.89 255.237 1905.89 258.085 Q1905.89 260.353 1907.37 261.696 Q1908.88 263.015 1911.45 263.015 Q1914.99 263.015 1917.12 260.515 Q1919.27 257.992 1919.27 253.825 L1919.27 252.876 L1915.03 252.876 M1923.53 251.117 L1923.53 265.909 L1919.27 265.909 L1919.27 261.973 Q1917.81 264.335 1915.64 265.469 Q1913.46 266.58 1910.31 266.58 Q1906.33 266.58 1903.97 264.358 Q1901.63 262.112 1901.63 258.362 Q1901.63 253.987 1904.55 251.765 Q1907.49 249.543 1913.3 249.543 L1919.27 249.543 L1919.27 249.126 Q1919.27 246.187 1917.33 244.589 Q1915.4 242.969 1911.91 242.969 Q1909.69 242.969 1907.58 243.501 Q1905.47 244.034 1903.53 245.099 L1903.53 241.163 Q1905.87 240.261 1908.07 239.821 Q1910.27 239.358 1912.35 239.358 Q1917.97 239.358 1920.75 242.274 Q1923.53 245.191 1923.53 251.117 Z" fill="#000000" fill-rule="nonzero" fill-opacity="1" /><path clip-path="url(#clip890)" d="M1950.91 252.969 Q1950.91 248.27 1948.97 245.608 Q1947.05 242.923 1943.67 242.923 Q1940.29 242.923 1938.34 245.608 Q1936.42 248.27 1936.42 252.969 Q1936.42 257.668 1938.34 260.353 Q1940.29 263.015 1943.67 263.015 Q1947.05 263.015 1948.97 260.353 Q1950.91 257.668 1950.91 252.969 M1936.42 243.918 Q1937.76 241.603 1939.8 240.492 Q1941.86 239.358 1944.71 239.358 Q1949.43 239.358 1952.37 243.108 Q1955.33 246.858 1955.33 252.969 Q1955.33 259.08 1952.37 262.83 Q1949.43 266.58 1944.71 266.58 Q1941.86 266.58 1939.8 265.469 Q1937.76 264.335 1936.42 262.02 L1936.42 265.909 L1932.14 265.909 L1932.14 229.89 L1936.42 229.89 L1936.42 243.918 Z" fill="#000000" fill-rule="nonzero" fill-opacity="1" /><path clip-path="url(#clip890)" d="M1974.18 252.876 Q1969.01 252.876 1967.02 254.057 Q1965.03 255.237 1965.03 258.085 Q1965.03 260.353 1966.51 261.696 Q1968.02 263.015 1970.59 263.015 Q1974.13 263.015 1976.26 260.515 Q1978.41 257.992 1978.41 253.825 L1978.41 252.876 L1974.18 252.876 M1982.67 251.117 L1982.67 265.909 L1978.41 265.909 L1978.41 261.973 Q1976.95 264.335 1974.78 265.469 Q1972.6 266.58 1969.45 266.58 Q1965.47 266.58 1963.11 264.358 Q1960.77 262.112 1960.77 258.362 Q1960.77 253.987 1963.69 251.765 Q1966.63 249.543 1972.44 249.543 L1978.41 249.543 L1978.41 249.126 Q1978.41 246.187 1976.47 244.589 Q1974.55 242.969 1971.05 242.969 Q1968.83 242.969 1966.72 243.501 Q1964.62 244.034 1962.67 245.099 L1962.67 241.163 Q1965.01 240.261 1967.21 239.821 Q1969.41 239.358 1971.49 239.358 Q1977.12 239.358 1979.89 242.274 Q1982.67 245.191 1982.67 251.117 Z" fill="#000000" fill-rule="nonzero" fill-opacity="1" /><path clip-path="url(#clip890)" d="M1995.66 232.622 L1995.66 239.983 L2004.43 239.983 L2004.43 243.293 L1995.66 243.293 L1995.66 257.367 Q1995.66 260.538 1996.51 261.441 Q1997.39 262.344 2000.06 262.344 L2004.43 262.344 L2004.43 265.909 L2000.06 265.909 Q1995.13 265.909 1993.25 264.08 Q1991.38 262.228 1991.38 257.367 L1991.38 243.293 L1988.25 243.293 L1988.25 239.983 L1991.38 239.983 L1991.38 232.622 L1995.66 232.622 Z" fill="#000000" fill-rule="nonzero" fill-opacity="1" /><path clip-path="url(#clip890)" d="M2010.03 239.983 L2014.29 239.983 L2014.29 265.909 L2010.03 265.909 L2010.03 239.983 M2010.03 229.89 L2014.29 229.89 L2014.29 235.284 L2010.03 235.284 L2010.03 229.89 Z" fill="#000000" fill-rule="nonzero" fill-opacity="1" /><path clip-path="url(#clip890)" d="M2041.86 240.978 L2041.86 244.96 Q2040.06 243.964 2038.23 243.478 Q2036.42 242.969 2034.57 242.969 Q2030.43 242.969 2028.13 245.608 Q2025.84 248.224 2025.84 252.969 Q2025.84 257.714 2028.13 260.353 Q2030.43 262.969 2034.57 262.969 Q2036.42 262.969 2038.23 262.483 Q2040.06 261.973 2041.86 260.978 L2041.86 264.913 Q2040.08 265.747 2038.16 266.163 Q2036.26 266.58 2034.11 266.58 Q2028.25 266.58 2024.8 262.899 Q2021.35 259.219 2021.35 252.969 Q2021.35 246.626 2024.82 242.992 Q2028.32 239.358 2034.38 239.358 Q2036.35 239.358 2038.23 239.775 Q2040.1 240.168 2041.86 240.978 Z" fill="#000000" fill-rule="nonzero" fill-opacity="1" /><path clip-path="url(#clip890)" d="M2083 240.978 L2083 244.96 Q2081.19 243.964 2079.36 243.478 Q2077.56 242.969 2075.7 242.969 Q2071.56 242.969 2069.27 245.608 Q2066.98 248.224 2066.98 252.969 Q2066.98 257.714 2069.27 260.353 Q2071.56 262.969 2075.7 262.969 Q2077.56 262.969 2079.36 262.483 Q2081.19 261.973 2083 260.978 L2083 264.913 Q2081.21 265.747 2079.29 266.163 Q2077.39 266.58 2075.24 266.58 Q2069.38 266.58 2065.94 262.899 Q2062.49 259.219 2062.49 252.969 Q2062.49 246.626 2065.96 242.992 Q2069.45 239.358 2075.52 239.358 Q2077.49 239.358 2079.36 239.775 Q2081.24 240.168 2083 240.978 Z" fill="#000000" fill-rule="nonzero" fill-opacity="1" /><path clip-path="url(#clip890)" d="M2100.45 242.969 Q2097.02 242.969 2095.03 245.654 Q2093.04 248.316 2093.04 252.969 Q2093.04 257.622 2095.01 260.307 Q2097 262.969 2100.45 262.969 Q2103.85 262.969 2105.84 260.284 Q2107.83 257.598 2107.83 252.969 Q2107.83 248.362 2105.84 245.677 Q2103.85 242.969 2100.45 242.969 M2100.45 239.358 Q2106 239.358 2109.18 242.969 Q2112.35 246.58 2112.35 252.969 Q2112.35 259.335 2109.18 262.969 Q2106 266.58 2100.45 266.58 Q2094.87 266.58 2091.7 262.969 Q2088.55 259.335 2088.55 252.969 Q2088.55 246.58 2091.7 242.969 Q2094.87 239.358 2100.45 239.358 Z" fill="#000000" fill-rule="nonzero" fill-opacity="1" /><path clip-path="url(#clip890)" d="M2118.97 255.677 L2118.97 239.983 L2123.23 239.983 L2123.23 255.515 Q2123.23 259.196 2124.66 261.048 Q2126.1 262.876 2128.97 262.876 Q2132.42 262.876 2134.41 260.677 Q2136.42 258.478 2136.42 254.682 L2136.42 239.983 L2140.68 239.983 L2140.68 265.909 L2136.42 265.909 L2136.42 261.927 Q2134.87 264.288 2132.81 265.446 Q2130.77 266.58 2128.06 266.58 Q2123.6 266.58 2121.28 263.802 Q2118.97 261.024 2118.97 255.677 M2129.69 239.358 L2129.69 239.358 Z" fill="#000000" fill-rule="nonzero" fill-opacity="1" /><path clip-path="url(#clip890)" d="M2153.57 262.02 L2153.57 275.77 L2149.29 275.77 L2149.29 239.983 L2153.57 239.983 L2153.57 243.918 Q2154.92 241.603 2156.95 240.492 Q2159.01 239.358 2161.86 239.358 Q2166.58 239.358 2169.52 243.108 Q2172.49 246.858 2172.49 252.969 Q2172.49 259.08 2169.52 262.83 Q2166.58 266.58 2161.86 266.58 Q2159.01 266.58 2156.95 265.469 Q2154.92 264.335 2153.57 262.02 M2168.06 252.969 Q2168.06 248.27 2166.12 245.608 Q2164.2 242.923 2160.82 242.923 Q2157.44 242.923 2155.5 245.608 Q2153.57 248.27 2153.57 252.969 Q2153.57 257.668 2155.5 260.353 Q2157.44 263.015 2160.82 263.015 Q2164.2 263.015 2166.12 260.353 Q2168.06 257.668 2168.06 252.969 Z" fill="#000000" fill-rule="nonzero" fill-opacity="1" /><path clip-path="url(#clip890)" d="M2179.55 229.89 L2183.81 229.89 L2183.81 265.909 L2179.55 265.909 L2179.55 229.89 Z" fill="#000000" fill-rule="nonzero" fill-opacity="1" /><path clip-path="url(#clip890)" d="M2192.72 239.983 L2196.98 239.983 L2196.98 265.909 L2192.72 265.909 L2192.72 239.983 M2192.72 229.89 L2196.98 229.89 L2196.98 235.284 L2192.72 235.284 L2192.72 229.89 Z" fill="#000000" fill-rule="nonzero" fill-opacity="1" /><path clip-path="url(#clip890)" d="M2227.44 250.261 L2227.44 265.909 L2223.18 265.909 L2223.18 250.399 Q2223.18 246.719 2221.74 244.89 Q2220.31 243.062 2217.44 243.062 Q2213.99 243.062 2212 245.261 Q2210.01 247.46 2210.01 251.256 L2210.01 265.909 L2205.73 265.909 L2205.73 239.983 L2210.01 239.983 L2210.01 244.011 Q2211.54 241.673 2213.6 240.515 Q2215.68 239.358 2218.39 239.358 Q2222.86 239.358 2225.15 242.136 Q2227.44 244.89 2227.44 250.261 Z" fill="#000000" fill-rule="nonzero" fill-opacity="1" /><path clip-path="url(#clip890)" d="M2252.99 252.645 Q2252.99 248.015 2251.07 245.469 Q2249.18 242.923 2245.73 242.923 Q2242.3 242.923 2240.38 245.469 Q2238.48 248.015 2238.48 252.645 Q2238.48 257.251 2240.38 259.798 Q2242.3 262.344 2245.73 262.344 Q2249.18 262.344 2251.07 259.798 Q2252.99 257.251 2252.99 252.645 M2257.25 262.691 Q2257.25 269.311 2254.31 272.529 Q2251.37 275.77 2245.31 275.77 Q2243.06 275.77 2241.07 275.422 Q2239.08 275.098 2237.21 274.404 L2237.21 270.26 Q2239.08 271.279 2240.91 271.765 Q2242.74 272.251 2244.64 272.251 Q2248.83 272.251 2250.91 270.052 Q2252.99 267.876 2252.99 263.455 L2252.99 261.348 Q2251.68 263.64 2249.62 264.774 Q2247.56 265.909 2244.68 265.909 Q2239.92 265.909 2237 262.274 Q2234.08 258.64 2234.08 252.645 Q2234.08 246.626 2237 242.992 Q2239.92 239.358 2244.68 239.358 Q2247.56 239.358 2249.62 240.492 Q2251.68 241.626 2252.99 243.918 L2252.99 239.983 L2257.25 239.983 L2257.25 262.691 Z" fill="#000000" fill-rule="nonzero" fill-opacity="1" /></svg>
