<?xml version="1.0" encoding="utf-8"?>
<svg xmlns="http://www.w3.org/2000/svg" xmlns:xlink="http://www.w3.org/1999/xlink" width="600" height="400" viewBox="0 0 2400 1600">
<defs>
  <clipPath id="clip450">
    <rect x="0" y="0" width="2400" height="1600"/>
  </clipPath>
</defs>
<path clip-path="url(#clip450)" d="M0 1600 L2400 1600 L2400 0 L0 0  Z" fill="#ffffff" fill-rule="evenodd" fill-opacity="1"/>
<defs>
  <clipPath id="clip451">
    <rect x="480" y="0" width="1681" height="1600"/>
  </clipPath>
</defs>
<path clip-path="url(#clip450)" d="M256.209 1423.18 L2352.76 1423.18 L2352.76 47.2441 L256.209 47.2441  Z" fill="#ffffff" fill-rule="evenodd" fill-opacity="1"/>
<defs>
  <clipPath id="clip452">
    <rect x="256" y="47" width="2098" height="1377"/>
  </clipPath>
</defs>
<polyline clip-path="url(#clip452)" style="stroke:#000000; stroke-linecap:round; stroke-linejoin:round; stroke-width:2; stroke-opacity:0.1; fill:none" points="315.545,1423.18 315.545,47.2441 "/>
<polyline clip-path="url(#clip452)" style="stroke:#000000; stroke-linecap:round; stroke-linejoin:round; stroke-width:2; stroke-opacity:0.1; fill:none" points="810.014,1423.18 810.014,47.2441 "/>
<polyline clip-path="url(#clip452)" style="stroke:#000000; stroke-linecap:round; stroke-linejoin:round; stroke-width:2; stroke-opacity:0.1; fill:none" points="1304.48,1423.18 1304.48,47.2441 "/>
<polyline clip-path="url(#clip452)" style="stroke:#000000; stroke-linecap:round; stroke-linejoin:round; stroke-width:2; stroke-opacity:0.1; fill:none" points="1798.95,1423.18 1798.95,47.2441 "/>
<polyline clip-path="url(#clip452)" style="stroke:#000000; stroke-linecap:round; stroke-linejoin:round; stroke-width:2; stroke-opacity:0.1; fill:none" points="2293.42,1423.18 2293.42,47.2441 "/>
<polyline clip-path="url(#clip450)" style="stroke:#000000; stroke-linecap:round; stroke-linejoin:round; stroke-width:4; stroke-opacity:1; fill:none" points="256.209,1423.18 2352.76,1423.18 "/>
<polyline clip-path="url(#clip450)" style="stroke:#000000; stroke-linecap:round; stroke-linejoin:round; stroke-width:4; stroke-opacity:1; fill:none" points="315.545,1423.18 315.545,1404.28 "/>
<polyline clip-path="url(#clip450)" style="stroke:#000000; stroke-linecap:round; stroke-linejoin:round; stroke-width:4; stroke-opacity:1; fill:none" points="810.014,1423.18 810.014,1404.28 "/>
<polyline clip-path="url(#clip450)" style="stroke:#000000; stroke-linecap:round; stroke-linejoin:round; stroke-width:4; stroke-opacity:1; fill:none" points="1304.48,1423.18 1304.48,1404.28 "/>
<polyline clip-path="url(#clip450)" style="stroke:#000000; stroke-linecap:round; stroke-linejoin:round; stroke-width:4; stroke-opacity:1; fill:none" points="1798.95,1423.18 1798.95,1404.28 "/>
<polyline clip-path="url(#clip450)" style="stroke:#000000; stroke-linecap:round; stroke-linejoin:round; stroke-width:4; stroke-opacity:1; fill:none" points="2293.42,1423.18 2293.42,1404.28 "/>
<path clip-path="url(#clip450)" d="M315.545 1454.1 Q311.934 1454.1 310.105 1457.66 Q308.3 1461.2 308.3 1468.33 Q308.3 1475.44 310.105 1479.01 Q311.934 1482.55 315.545 1482.55 Q319.179 1482.55 320.985 1479.01 Q322.813 1475.44 322.813 1468.33 Q322.813 1461.2 320.985 1457.66 Q319.179 1454.1 315.545 1454.1 M315.545 1450.39 Q321.355 1450.39 324.411 1455 Q327.489 1459.58 327.489 1468.33 Q327.489 1477.06 324.411 1481.67 Q321.355 1486.25 315.545 1486.25 Q309.735 1486.25 306.656 1481.67 Q303.601 1477.06 303.601 1468.33 Q303.601 1459.58 306.656 1455 Q309.735 1450.39 315.545 1450.39 Z" fill="#000000" fill-rule="nonzero" fill-opacity="1" /><path clip-path="url(#clip450)" d="M800.291 1451.02 L818.648 1451.02 L818.648 1454.96 L804.574 1454.96 L804.574 1463.43 Q805.592 1463.08 806.611 1462.92 Q807.629 1462.73 808.648 1462.73 Q814.435 1462.73 817.814 1465.9 Q821.194 1469.08 821.194 1474.49 Q821.194 1480.07 817.722 1483.17 Q814.25 1486.25 807.93 1486.25 Q805.754 1486.25 803.486 1485.88 Q801.24 1485.51 798.833 1484.77 L798.833 1480.07 Q800.916 1481.2 803.139 1481.76 Q805.361 1482.32 807.838 1482.32 Q811.842 1482.32 814.18 1480.21 Q816.518 1478.1 816.518 1474.49 Q816.518 1470.88 814.18 1468.77 Q811.842 1466.67 807.838 1466.67 Q805.963 1466.67 804.088 1467.08 Q802.236 1467.5 800.291 1468.38 L800.291 1451.02 Z" fill="#000000" fill-rule="nonzero" fill-opacity="1" /><path clip-path="url(#clip450)" d="M1279.17 1481.64 L1286.81 1481.64 L1286.81 1455.28 L1278.5 1456.95 L1278.5 1452.69 L1286.76 1451.02 L1291.44 1451.02 L1291.44 1481.64 L1299.08 1481.64 L1299.08 1485.58 L1279.17 1485.58 L1279.17 1481.64 Z" fill="#000000" fill-rule="nonzero" fill-opacity="1" /><path clip-path="url(#clip450)" d="M1318.52 1454.1 Q1314.91 1454.1 1313.08 1457.66 Q1311.28 1461.2 1311.28 1468.33 Q1311.28 1475.44 1313.08 1479.01 Q1314.91 1482.55 1318.52 1482.55 Q1322.16 1482.55 1323.96 1479.01 Q1325.79 1475.44 1325.79 1468.33 Q1325.79 1461.2 1323.96 1457.66 Q1322.16 1454.1 1318.52 1454.1 M1318.52 1450.39 Q1324.33 1450.39 1327.39 1455 Q1330.47 1459.58 1330.47 1468.33 Q1330.47 1477.06 1327.39 1481.67 Q1324.33 1486.25 1318.52 1486.25 Q1312.71 1486.25 1309.63 1481.67 Q1306.58 1477.06 1306.58 1468.33 Q1306.58 1459.58 1309.63 1455 Q1312.71 1450.39 1318.52 1450.39 Z" fill="#000000" fill-rule="nonzero" fill-opacity="1" /><path clip-path="url(#clip450)" d="M1774.14 1481.64 L1781.78 1481.64 L1781.78 1455.28 L1773.46 1456.95 L1773.46 1452.69 L1781.73 1451.02 L1786.4 1451.02 L1786.4 1481.64 L1794.04 1481.64 L1794.04 1485.58 L1774.14 1485.58 L1774.14 1481.64 Z" fill="#000000" fill-rule="nonzero" fill-opacity="1" /><path clip-path="url(#clip450)" d="M1803.53 1451.02 L1821.89 1451.02 L1821.89 1454.96 L1807.82 1454.96 L1807.82 1463.43 Q1808.84 1463.08 1809.85 1462.92 Q1810.87 1462.73 1811.89 1462.73 Q1817.68 1462.73 1821.06 1465.9 Q1824.44 1469.08 1824.44 1474.49 Q1824.44 1480.07 1820.96 1483.17 Q1817.49 1486.25 1811.17 1486.25 Q1809 1486.25 1806.73 1485.88 Q1804.48 1485.51 1802.08 1484.77 L1802.08 1480.07 Q1804.16 1481.2 1806.38 1481.76 Q1808.6 1482.32 1811.08 1482.32 Q1815.09 1482.32 1817.42 1480.21 Q1819.76 1478.1 1819.76 1474.49 Q1819.76 1470.88 1817.42 1468.77 Q1815.09 1466.67 1811.08 1466.67 Q1809.21 1466.67 1807.33 1467.08 Q1805.48 1467.5 1803.53 1468.38 L1803.53 1451.02 Z" fill="#000000" fill-rule="nonzero" fill-opacity="1" /><path clip-path="url(#clip450)" d="M2272.19 1481.64 L2288.51 1481.64 L2288.51 1485.58 L2266.57 1485.58 L2266.57 1481.64 Q2269.23 1478.89 2273.81 1474.26 Q2278.42 1469.61 2279.6 1468.27 Q2281.85 1465.74 2282.73 1464.01 Q2283.63 1462.25 2283.63 1460.56 Q2283.63 1457.8 2281.68 1456.07 Q2279.76 1454.33 2276.66 1454.33 Q2274.46 1454.33 2272.01 1455.09 Q2269.58 1455.86 2266.8 1457.41 L2266.8 1452.69 Q2269.62 1451.55 2272.08 1450.97 Q2274.53 1450.39 2276.57 1450.39 Q2281.94 1450.39 2285.13 1453.08 Q2288.33 1455.77 2288.33 1460.26 Q2288.33 1462.39 2287.52 1464.31 Q2286.73 1466.2 2284.62 1468.8 Q2284.04 1469.47 2280.94 1472.69 Q2277.84 1475.88 2272.19 1481.64 Z" fill="#000000" fill-rule="nonzero" fill-opacity="1" /><path clip-path="url(#clip450)" d="M2308.33 1454.1 Q2304.72 1454.1 2302.89 1457.66 Q2301.08 1461.2 2301.08 1468.33 Q2301.08 1475.44 2302.89 1479.01 Q2304.72 1482.55 2308.33 1482.55 Q2311.96 1482.55 2313.77 1479.01 Q2315.6 1475.44 2315.6 1468.33 Q2315.6 1461.2 2313.77 1457.66 Q2311.96 1454.1 2308.33 1454.1 M2308.33 1450.39 Q2314.14 1450.39 2317.19 1455 Q2320.27 1459.58 2320.27 1468.33 Q2320.27 1477.06 2317.19 1481.67 Q2314.14 1486.25 2308.33 1486.25 Q2302.52 1486.25 2299.44 1481.67 Q2296.38 1477.06 2296.38 1468.33 Q2296.38 1459.58 2299.44 1455 Q2302.52 1450.39 2308.33 1450.39 Z" fill="#000000" fill-rule="nonzero" fill-opacity="1" /><path clip-path="url(#clip450)" d="M1145.45 1520.52 L1185.65 1520.52 L1185.65 1525.93 L1168.78 1525.93 L1168.78 1568.04 L1162.32 1568.04 L1162.32 1525.93 L1145.45 1525.93 L1145.45 1520.52 Z" fill="#000000" fill-rule="nonzero" fill-opacity="1" /><path clip-path="url(#clip450)" d="M1189.6 1532.4 L1195.45 1532.4 L1195.45 1568.04 L1189.6 1568.04 L1189.6 1532.4 M1189.6 1518.52 L1195.45 1518.52 L1195.45 1525.93 L1189.6 1525.93 L1189.6 1518.52 Z" fill="#000000" fill-rule="nonzero" fill-opacity="1" /><path clip-path="url(#clip450)" d="M1235.46 1539.24 Q1237.66 1535.29 1240.71 1533.41 Q1243.77 1531.54 1247.91 1531.54 Q1253.48 1531.54 1256.5 1535.45 Q1259.52 1539.33 1259.52 1546.53 L1259.52 1568.04 L1253.64 1568.04 L1253.64 1546.72 Q1253.64 1541.59 1251.82 1539.11 Q1250.01 1536.63 1246.28 1536.63 Q1241.73 1536.63 1239.09 1539.65 Q1236.45 1542.68 1236.45 1547.9 L1236.45 1568.04 L1230.56 1568.04 L1230.56 1546.72 Q1230.56 1541.56 1228.75 1539.11 Q1226.93 1536.63 1223.14 1536.63 Q1218.66 1536.63 1216.01 1539.68 Q1213.37 1542.71 1213.37 1547.9 L1213.37 1568.04 L1207.48 1568.04 L1207.48 1532.4 L1213.37 1532.4 L1213.37 1537.93 Q1215.38 1534.66 1218.18 1533.1 Q1220.98 1531.54 1224.83 1531.54 Q1228.71 1531.54 1231.42 1533.51 Q1234.16 1535.48 1235.46 1539.24 Z" fill="#000000" fill-rule="nonzero" fill-opacity="1" /><path clip-path="url(#clip450)" d="M1301.7 1548.76 L1301.7 1551.62 L1274.77 1551.62 Q1275.15 1557.67 1278.4 1560.85 Q1281.68 1564 1287.5 1564 Q1290.88 1564 1294.03 1563.17 Q1297.21 1562.35 1300.33 1560.69 L1300.33 1566.23 Q1297.18 1567.57 1293.87 1568.27 Q1290.56 1568.97 1287.15 1568.97 Q1278.62 1568.97 1273.62 1564 Q1268.66 1559.04 1268.66 1550.57 Q1268.66 1541.82 1273.37 1536.69 Q1278.11 1531.54 1286.13 1531.54 Q1293.33 1531.54 1297.5 1536.18 Q1301.7 1540.8 1301.7 1548.76 M1295.84 1547.04 Q1295.78 1542.23 1293.14 1539.37 Q1290.53 1536.5 1286.2 1536.5 Q1281.3 1536.5 1278.34 1539.27 Q1275.41 1542.04 1274.96 1547.07 L1295.84 1547.04 Z" fill="#000000" fill-rule="nonzero" fill-opacity="1" /><path clip-path="url(#clip450)" d="M1342.44 1520.52 L1347.85 1520.52 L1331.3 1574.09 L1325.89 1574.09 L1342.44 1520.52 Z" fill="#000000" fill-rule="nonzero" fill-opacity="1" /><path clip-path="url(#clip450)" d="M1370.19 1550.12 Q1363.09 1550.12 1360.36 1551.75 Q1357.62 1553.37 1357.62 1557.29 Q1357.62 1560.4 1359.66 1562.25 Q1361.73 1564.07 1365.26 1564.07 Q1370.13 1564.07 1373.06 1560.63 Q1376.02 1557.16 1376.02 1551.43 L1376.02 1550.12 L1370.19 1550.12 M1381.87 1547.71 L1381.87 1568.04 L1376.02 1568.04 L1376.02 1562.63 Q1374.01 1565.88 1371.02 1567.44 Q1368.03 1568.97 1363.7 1568.97 Q1358.22 1568.97 1354.98 1565.91 Q1351.76 1562.82 1351.76 1557.67 Q1351.76 1551.65 1355.77 1548.6 Q1359.82 1545.54 1367.81 1545.54 L1376.02 1545.54 L1376.02 1544.97 Q1376.02 1540.93 1373.34 1538.73 Q1370.7 1536.5 1365.9 1536.5 Q1362.84 1536.5 1359.94 1537.23 Q1357.05 1537.97 1354.37 1539.43 L1354.37 1534.02 Q1357.59 1532.78 1360.61 1532.17 Q1363.64 1531.54 1366.5 1531.54 Q1374.23 1531.54 1378.05 1535.55 Q1381.87 1539.56 1381.87 1547.71 Z" fill="#000000" fill-rule="nonzero" fill-opacity="1" /><path clip-path="url(#clip450)" d="M1394.76 1559.96 L1401.48 1559.96 L1401.48 1568.04 L1394.76 1568.04 L1394.76 1559.96 Z" fill="#000000" fill-rule="nonzero" fill-opacity="1" /><path clip-path="url(#clip450)" d="M1414.05 1553.98 L1414.05 1532.4 L1419.91 1532.4 L1419.91 1553.75 Q1419.91 1558.81 1421.88 1561.36 Q1423.86 1563.87 1427.8 1563.87 Q1432.54 1563.87 1435.28 1560.85 Q1438.05 1557.83 1438.05 1552.61 L1438.05 1532.4 L1443.91 1532.4 L1443.91 1568.04 L1438.05 1568.04 L1438.05 1562.57 Q1435.92 1565.82 1433.09 1567.41 Q1430.28 1568.97 1426.56 1568.97 Q1420.42 1568.97 1417.23 1565.15 Q1414.05 1561.33 1414.05 1553.98 M1428.79 1531.54 L1428.79 1531.54 Z" fill="#000000" fill-rule="nonzero" fill-opacity="1" /><path clip-path="url(#clip450)" d="M1456.8 1559.96 L1463.51 1559.96 L1463.51 1568.04 L1456.8 1568.04 L1456.8 1559.96 Z" fill="#000000" fill-rule="nonzero" fill-opacity="1" /><polyline clip-path="url(#clip452)" style="stroke:#000000; stroke-linecap:round; stroke-linejoin:round; stroke-width:2; stroke-opacity:0.1; fill:none" points="256.209,1154.83 2352.76,1154.83 "/>
<polyline clip-path="url(#clip452)" style="stroke:#000000; stroke-linecap:round; stroke-linejoin:round; stroke-width:2; stroke-opacity:0.1; fill:none" points="256.209,805.532 2352.76,805.532 "/>
<polyline clip-path="url(#clip452)" style="stroke:#000000; stroke-linecap:round; stroke-linejoin:round; stroke-width:2; stroke-opacity:0.1; fill:none" points="256.209,456.231 2352.76,456.231 "/>
<polyline clip-path="url(#clip452)" style="stroke:#000000; stroke-linecap:round; stroke-linejoin:round; stroke-width:2; stroke-opacity:0.1; fill:none" points="256.209,106.93 2352.76,106.93 "/>
<polyline clip-path="url(#clip450)" style="stroke:#000000; stroke-linecap:round; stroke-linejoin:round; stroke-width:4; stroke-opacity:1; fill:none" points="256.209,1423.18 256.209,47.2441 "/>
<polyline clip-path="url(#clip450)" style="stroke:#000000; stroke-linecap:round; stroke-linejoin:round; stroke-width:4; stroke-opacity:1; fill:none" points="256.209,1154.83 275.106,1154.83 "/>
<polyline clip-path="url(#clip450)" style="stroke:#000000; stroke-linecap:round; stroke-linejoin:round; stroke-width:4; stroke-opacity:1; fill:none" points="256.209,805.532 275.106,805.532 "/>
<polyline clip-path="url(#clip450)" style="stroke:#000000; stroke-linecap:round; stroke-linejoin:round; stroke-width:4; stroke-opacity:1; fill:none" points="256.209,456.231 275.106,456.231 "/>
<polyline clip-path="url(#clip450)" style="stroke:#000000; stroke-linecap:round; stroke-linejoin:round; stroke-width:4; stroke-opacity:1; fill:none" points="256.209,106.93 275.106,106.93 "/>
<path clip-path="url(#clip450)" d="M114.26 1155.29 L143.936 1155.29 L143.936 1159.22 L114.26 1159.22 L114.26 1155.29 Z" fill="#000000" fill-rule="nonzero" fill-opacity="1" /><path clip-path="url(#clip450)" d="M164.028 1140.63 Q160.417 1140.63 158.589 1144.2 Q156.783 1147.74 156.783 1154.87 Q156.783 1161.97 158.589 1165.54 Q160.417 1169.08 164.028 1169.08 Q167.663 1169.08 169.468 1165.54 Q171.297 1161.97 171.297 1154.87 Q171.297 1147.74 169.468 1144.2 Q167.663 1140.63 164.028 1140.63 M164.028 1136.93 Q169.839 1136.93 172.894 1141.54 Q175.973 1146.12 175.973 1154.87 Q175.973 1163.6 172.894 1168.2 Q169.839 1172.79 164.028 1172.79 Q158.218 1172.79 155.14 1168.2 Q152.084 1163.6 152.084 1154.87 Q152.084 1146.12 155.14 1141.54 Q158.218 1136.93 164.028 1136.93 Z" fill="#000000" fill-rule="nonzero" fill-opacity="1" /><path clip-path="url(#clip450)" d="M184.19 1166.23 L189.075 1166.23 L189.075 1172.11 L184.19 1172.11 L184.19 1166.23 Z" fill="#000000" fill-rule="nonzero" fill-opacity="1" /><path clip-path="url(#clip450)" d="M199.306 1137.55 L217.662 1137.55 L217.662 1141.49 L203.588 1141.49 L203.588 1149.96 Q204.607 1149.61 205.625 1149.45 Q206.644 1149.27 207.662 1149.27 Q213.449 1149.27 216.829 1152.44 Q220.209 1155.61 220.209 1161.03 Q220.209 1166.6 216.736 1169.71 Q213.264 1172.79 206.945 1172.79 Q204.769 1172.79 202.5 1172.41 Q200.255 1172.04 197.848 1171.3 L197.848 1166.6 Q199.931 1167.74 202.153 1168.29 Q204.375 1168.85 206.852 1168.85 Q210.857 1168.85 213.195 1166.74 Q215.533 1164.64 215.533 1161.03 Q215.533 1157.41 213.195 1155.31 Q210.857 1153.2 206.852 1153.2 Q204.977 1153.2 203.102 1153.62 Q201.25 1154.04 199.306 1154.91 L199.306 1137.55 Z" fill="#000000" fill-rule="nonzero" fill-opacity="1" /><path clip-path="url(#clip450)" d="M163.033 791.331 Q159.422 791.331 157.593 794.896 Q155.788 798.438 155.788 805.567 Q155.788 812.674 157.593 816.238 Q159.422 819.78 163.033 819.78 Q166.667 819.78 168.473 816.238 Q170.302 812.674 170.302 805.567 Q170.302 798.438 168.473 794.896 Q166.667 791.331 163.033 791.331 M163.033 787.627 Q168.843 787.627 171.899 792.234 Q174.977 796.817 174.977 805.567 Q174.977 814.294 171.899 818.9 Q168.843 823.484 163.033 823.484 Q157.223 823.484 154.144 818.9 Q151.089 814.294 151.089 805.567 Q151.089 796.817 154.144 792.234 Q157.223 787.627 163.033 787.627 Z" fill="#000000" fill-rule="nonzero" fill-opacity="1" /><path clip-path="url(#clip450)" d="M183.195 816.933 L188.079 816.933 L188.079 822.812 L183.195 822.812 L183.195 816.933 Z" fill="#000000" fill-rule="nonzero" fill-opacity="1" /><path clip-path="url(#clip450)" d="M208.264 791.331 Q204.653 791.331 202.824 794.896 Q201.019 798.438 201.019 805.567 Q201.019 812.674 202.824 816.238 Q204.653 819.78 208.264 819.78 Q211.899 819.78 213.704 816.238 Q215.533 812.674 215.533 805.567 Q215.533 798.438 213.704 794.896 Q211.899 791.331 208.264 791.331 M208.264 787.627 Q214.074 787.627 217.13 792.234 Q220.209 796.817 220.209 805.567 Q220.209 814.294 217.13 818.9 Q214.074 823.484 208.264 823.484 Q202.454 823.484 199.375 818.9 Q196.32 814.294 196.32 805.567 Q196.32 796.817 199.375 792.234 Q202.454 787.627 208.264 787.627 Z" fill="#000000" fill-rule="nonzero" fill-opacity="1" /><path clip-path="url(#clip450)" d="M164.028 442.03 Q160.417 442.03 158.589 445.595 Q156.783 449.136 156.783 456.266 Q156.783 463.372 158.589 466.937 Q160.417 470.479 164.028 470.479 Q167.663 470.479 169.468 466.937 Q171.297 463.372 171.297 456.266 Q171.297 449.136 169.468 445.595 Q167.663 442.03 164.028 442.03 M164.028 438.326 Q169.839 438.326 172.894 442.933 Q175.973 447.516 175.973 456.266 Q175.973 464.993 172.894 469.599 Q169.839 474.182 164.028 474.182 Q158.218 474.182 155.14 469.599 Q152.084 464.993 152.084 456.266 Q152.084 447.516 155.14 442.933 Q158.218 438.326 164.028 438.326 Z" fill="#000000" fill-rule="nonzero" fill-opacity="1" /><path clip-path="url(#clip450)" d="M184.19 467.631 L189.075 467.631 L189.075 473.511 L184.19 473.511 L184.19 467.631 Z" fill="#000000" fill-rule="nonzero" fill-opacity="1" /><path clip-path="url(#clip450)" d="M199.306 438.951 L217.662 438.951 L217.662 442.886 L203.588 442.886 L203.588 451.358 Q204.607 451.011 205.625 450.849 Q206.644 450.664 207.662 450.664 Q213.449 450.664 216.829 453.835 Q220.209 457.007 220.209 462.423 Q220.209 468.002 216.736 471.104 Q213.264 474.182 206.945 474.182 Q204.769 474.182 202.5 473.812 Q200.255 473.442 197.848 472.701 L197.848 468.002 Q199.931 469.136 202.153 469.692 Q204.375 470.247 206.852 470.247 Q210.857 470.247 213.195 468.141 Q215.533 466.034 215.533 462.423 Q215.533 458.812 213.195 456.706 Q210.857 454.599 206.852 454.599 Q204.977 454.599 203.102 455.016 Q201.25 455.432 199.306 456.312 L199.306 438.951 Z" fill="#000000" fill-rule="nonzero" fill-opacity="1" /><path clip-path="url(#clip450)" d="M153.843 120.275 L161.482 120.275 L161.482 93.909 L153.172 95.5756 L153.172 91.3164 L161.436 89.6497 L166.112 89.6497 L166.112 120.275 L173.751 120.275 L173.751 124.21 L153.843 124.21 L153.843 120.275 Z" fill="#000000" fill-rule="nonzero" fill-opacity="1" /><path clip-path="url(#clip450)" d="M183.195 118.33 L188.079 118.33 L188.079 124.21 L183.195 124.21 L183.195 118.33 Z" fill="#000000" fill-rule="nonzero" fill-opacity="1" /><path clip-path="url(#clip450)" d="M208.264 92.7284 Q204.653 92.7284 202.824 96.2932 Q201.019 99.8349 201.019 106.964 Q201.019 114.071 202.824 117.636 Q204.653 121.177 208.264 121.177 Q211.899 121.177 213.704 117.636 Q215.533 114.071 215.533 106.964 Q215.533 99.8349 213.704 96.2932 Q211.899 92.7284 208.264 92.7284 M208.264 89.0247 Q214.074 89.0247 217.13 93.6312 Q220.209 98.2145 220.209 106.964 Q220.209 115.691 217.13 120.298 Q214.074 124.881 208.264 124.881 Q202.454 124.881 199.375 120.298 Q196.32 115.691 196.32 106.964 Q196.32 98.2145 199.375 93.6312 Q202.454 89.0247 208.264 89.0247 Z" fill="#000000" fill-rule="nonzero" fill-opacity="1" /><path clip-path="url(#clip450)" d="M21.7677 1069.55 L39.6235 1069.55 L39.6235 1061.47 Q39.6235 1056.98 37.3 1054.53 Q34.9765 1052.08 30.6797 1052.08 Q26.4147 1052.08 24.0912 1054.53 Q21.7677 1056.98 21.7677 1061.47 L21.7677 1069.55 M16.4842 1075.98 L16.4842 1061.47 Q16.4842 1053.48 20.1126 1049.41 Q23.7092 1045.3 30.6797 1045.3 Q37.7138 1045.3 41.3104 1049.41 Q44.907 1053.48 44.907 1061.47 L44.907 1069.55 L64.0042 1069.55 L64.0042 1075.98 L16.4842 1075.98 Z" fill="#000000" fill-rule="nonzero" fill-opacity="1" /><path clip-path="url(#clip450)" d="M32.4621 1025.44 Q32.4621 1030.15 36.1542 1032.89 Q39.8145 1035.63 46.212 1035.63 Q52.6095 1035.63 56.3017 1032.92 Q59.9619 1030.18 59.9619 1025.44 Q59.9619 1020.76 56.2698 1018.02 Q52.5777 1015.29 46.212 1015.29 Q39.8781 1015.29 36.186 1018.02 Q32.4621 1020.76 32.4621 1025.44 M27.4968 1025.44 Q27.4968 1017.8 32.4621 1013.44 Q37.4273 1009.08 46.212 1009.08 Q54.9649 1009.08 59.9619 1013.44 Q64.9272 1017.8 64.9272 1025.44 Q64.9272 1033.11 59.9619 1037.47 Q54.9649 1041.8 46.212 1041.8 Q37.4273 1041.8 32.4621 1037.47 Q27.4968 1033.11 27.4968 1025.44 Z" fill="#000000" fill-rule="nonzero" fill-opacity="1" /><path clip-path="url(#clip450)" d="M58.657 993.707 L77.5631 993.707 L77.5631 999.596 L28.3562 999.596 L28.3562 993.707 L33.7671 993.707 Q30.5842 991.861 29.0564 989.06 Q27.4968 986.228 27.4968 982.313 Q27.4968 975.82 32.6531 971.778 Q37.8093 967.703 46.212 967.703 Q54.6147 967.703 59.771 971.778 Q64.9272 975.82 64.9272 982.313 Q64.9272 986.228 63.3994 989.06 Q61.8398 991.861 58.657 993.707 M46.212 973.783 Q39.7508 973.783 36.0905 976.456 Q32.3984 979.098 32.3984 983.745 Q32.3984 988.392 36.0905 991.066 Q39.7508 993.707 46.212 993.707 Q52.6732 993.707 56.3653 991.066 Q60.0256 988.392 60.0256 983.745 Q60.0256 979.098 56.3653 976.456 Q52.6732 973.783 46.212 973.783 Z" fill="#000000" fill-rule="nonzero" fill-opacity="1" /><path clip-path="url(#clip450)" d="M49.9359 958.601 L28.3562 958.601 L28.3562 952.744 L49.7131 952.744 Q54.7739 952.744 57.3202 950.771 Q59.8346 948.797 59.8346 944.851 Q59.8346 940.108 56.8109 937.371 Q53.7872 934.602 48.5673 934.602 L28.3562 934.602 L28.3562 928.745 L64.0042 928.745 L64.0042 934.602 L58.5296 934.602 Q61.7762 936.734 63.3676 939.567 Q64.9272 942.368 64.9272 946.092 Q64.9272 952.235 61.1078 955.418 Q57.2883 958.601 49.9359 958.601 M27.4968 943.864 L27.4968 943.864 Z" fill="#000000" fill-rule="nonzero" fill-opacity="1" /><path clip-path="url(#clip450)" d="M14.479 916.682 L14.479 910.826 L64.0042 910.826 L64.0042 916.682 L14.479 916.682 Z" fill="#000000" fill-rule="nonzero" fill-opacity="1" /><path clip-path="url(#clip450)" d="M46.0847 882.371 Q46.0847 889.469 47.7079 892.206 Q49.3312 894.943 53.2461 894.943 Q56.3653 894.943 58.2114 892.906 Q60.0256 890.838 60.0256 887.305 Q60.0256 882.435 56.5881 879.507 Q53.1188 876.547 47.3897 876.547 L46.0847 876.547 L46.0847 882.371 M43.6657 870.69 L64.0042 870.69 L64.0042 876.547 L58.5933 876.547 Q61.8398 878.552 63.3994 881.544 Q64.9272 884.536 64.9272 888.864 Q64.9272 894.339 61.8716 897.585 Q58.7843 900.8 53.6281 900.8 Q47.6125 900.8 44.5569 896.79 Q41.5014 892.747 41.5014 884.758 L41.5014 876.547 L40.9285 876.547 Q36.8862 876.547 34.6901 879.22 Q32.4621 881.862 32.4621 886.668 Q32.4621 889.724 33.1941 892.62 Q33.9262 895.516 35.3903 898.19 L29.9795 898.19 Q28.7381 894.975 28.1334 891.952 Q27.4968 888.928 27.4968 886.063 Q27.4968 878.329 31.5072 874.51 Q35.5176 870.69 43.6657 870.69 Z" fill="#000000" fill-rule="nonzero" fill-opacity="1" /><path clip-path="url(#clip450)" d="M18.2347 852.834 L28.3562 852.834 L28.3562 840.771 L32.9077 840.771 L32.9077 852.834 L52.2594 852.834 Q56.6199 852.834 57.8613 851.657 Q59.1026 850.447 59.1026 846.787 L59.1026 840.771 L64.0042 840.771 L64.0042 846.787 Q64.0042 853.566 61.4897 856.144 Q58.9434 858.723 52.2594 858.723 L32.9077 858.723 L32.9077 863.019 L28.3562 863.019 L28.3562 858.723 L18.2347 858.723 L18.2347 852.834 Z" fill="#000000" fill-rule="nonzero" fill-opacity="1" /><path clip-path="url(#clip450)" d="M28.3562 833.069 L28.3562 827.212 L64.0042 827.212 L64.0042 833.069 L28.3562 833.069 M14.479 833.069 L14.479 827.212 L21.895 827.212 L21.895 833.069 L14.479 833.069 Z" fill="#000000" fill-rule="nonzero" fill-opacity="1" /><path clip-path="url(#clip450)" d="M32.4621 801.145 Q32.4621 805.855 36.1542 808.593 Q39.8145 811.33 46.212 811.33 Q52.6095 811.33 56.3017 808.624 Q59.9619 805.887 59.9619 801.145 Q59.9619 796.466 56.2698 793.729 Q52.5777 790.991 46.212 790.991 Q39.8781 790.991 36.186 793.729 Q32.4621 796.466 32.4621 801.145 M27.4968 801.145 Q27.4968 793.506 32.4621 789.145 Q37.4273 784.785 46.212 784.785 Q54.9649 784.785 59.9619 789.145 Q64.9272 793.506 64.9272 801.145 Q64.9272 808.815 59.9619 813.176 Q54.9649 817.505 46.212 817.505 Q37.4273 817.505 32.4621 813.176 Q27.4968 808.815 27.4968 801.145 Z" fill="#000000" fill-rule="nonzero" fill-opacity="1" /><path clip-path="url(#clip450)" d="M42.4881 745.445 L64.0042 745.445 L64.0042 751.301 L42.679 751.301 Q37.6183 751.301 35.1038 753.275 Q32.5894 755.248 32.5894 759.195 Q32.5894 763.937 35.6131 766.674 Q38.6368 769.412 43.8567 769.412 L64.0042 769.412 L64.0042 775.3 L28.3562 775.3 L28.3562 769.412 L33.8944 769.412 Q30.6797 767.311 29.0883 764.478 Q27.4968 761.614 27.4968 757.89 Q27.4968 751.747 31.3163 748.596 Q35.1038 745.445 42.4881 745.445 Z" fill="#000000" fill-rule="nonzero" fill-opacity="1" /><path clip-path="url(#clip450)" d="M33.7671 689.586 L14.479 689.586 L14.479 683.729 L64.0042 683.729 L64.0042 689.586 L58.657 689.586 Q61.8398 691.432 63.3994 694.265 Q64.9272 697.065 64.9272 701.012 Q64.9272 707.473 59.771 711.547 Q54.6147 715.59 46.212 715.59 Q37.8093 715.59 32.6531 711.547 Q27.4968 707.473 27.4968 701.012 Q27.4968 697.065 29.0564 694.265 Q30.5842 691.432 33.7671 689.586 M46.212 709.542 Q52.6732 709.542 56.3653 706.9 Q60.0256 704.227 60.0256 699.58 Q60.0256 694.933 56.3653 692.259 Q52.6732 689.586 46.212 689.586 Q39.7508 689.586 36.0905 692.259 Q32.3984 694.933 32.3984 699.58 Q32.3984 704.227 36.0905 706.9 Q39.7508 709.542 46.212 709.542 Z" fill="#000000" fill-rule="nonzero" fill-opacity="1" /><path clip-path="url(#clip450)" d="M28.3562 671.666 L28.3562 665.81 L64.0042 665.81 L64.0042 671.666 L28.3562 671.666 M14.479 671.666 L14.479 665.81 L21.895 665.81 L21.895 671.666 L14.479 671.666 Z" fill="#000000" fill-rule="nonzero" fill-opacity="1" /><path clip-path="url(#clip450)" d="M14.479 635.509 L19.3487 635.509 L19.3487 641.111 Q19.3487 644.262 20.6219 645.503 Q21.895 646.713 25.2052 646.713 L28.3562 646.713 L28.3562 637.069 L32.9077 637.069 L32.9077 646.713 L64.0042 646.713 L64.0042 652.601 L32.9077 652.601 L32.9077 658.203 L28.3562 658.203 L28.3562 652.601 L25.8736 652.601 Q19.9216 652.601 17.2162 649.832 Q14.479 647.063 14.479 641.047 L14.479 635.509 Z" fill="#000000" fill-rule="nonzero" fill-opacity="1" /><path clip-path="url(#clip450)" d="M14.479 612.561 L19.3487 612.561 L19.3487 618.163 Q19.3487 621.314 20.6219 622.555 Q21.895 623.764 25.2052 623.764 L28.3562 623.764 L28.3562 614.12 L32.9077 614.12 L32.9077 623.764 L64.0042 623.764 L64.0042 629.653 L32.9077 629.653 L32.9077 635.254 L28.3562 635.254 L28.3562 629.653 L25.8736 629.653 Q19.9216 629.653 17.2162 626.884 Q14.479 624.114 14.479 618.099 L14.479 612.561 Z" fill="#000000" fill-rule="nonzero" fill-opacity="1" /><path clip-path="url(#clip450)" d="M44.7161 577.167 L47.5806 577.167 L47.5806 604.094 Q53.6281 603.712 56.8109 600.466 Q59.9619 597.188 59.9619 591.363 Q59.9619 587.989 59.1344 584.838 Q58.3069 581.655 56.6518 578.536 L62.1899 578.536 Q63.5267 581.687 64.227 584.997 Q64.9272 588.307 64.9272 591.713 Q64.9272 600.243 59.9619 605.24 Q54.9967 610.205 46.5303 610.205 Q37.7774 610.205 32.6531 605.495 Q27.4968 600.752 27.4968 592.732 Q27.4968 585.538 32.1438 581.369 Q36.7589 577.167 44.7161 577.167 M42.9973 583.024 Q38.1912 583.087 35.3266 585.729 Q32.4621 588.339 32.4621 592.668 Q32.4621 597.569 35.2312 600.53 Q38.0002 603.458 43.0292 603.903 L42.9973 583.024 Z" fill="#000000" fill-rule="nonzero" fill-opacity="1" /><path clip-path="url(#clip450)" d="M33.8307 546.898 Q33.2578 547.885 33.0032 549.063 Q32.7167 550.209 32.7167 551.609 Q32.7167 556.574 35.9632 559.248 Q39.1779 561.89 45.2253 561.89 L64.0042 561.89 L64.0042 567.778 L28.3562 567.778 L28.3562 561.89 L33.8944 561.89 Q30.6479 560.044 29.0883 557.084 Q27.4968 554.124 27.4968 549.89 Q27.4968 549.286 27.5923 548.554 Q27.656 547.821 27.8151 546.93 L33.8307 546.898 Z" fill="#000000" fill-rule="nonzero" fill-opacity="1" /><path clip-path="url(#clip450)" d="M44.7161 511.696 L47.5806 511.696 L47.5806 538.623 Q53.6281 538.241 56.8109 534.995 Q59.9619 531.716 59.9619 525.892 Q59.9619 522.518 59.1344 519.367 Q58.3069 516.184 56.6518 513.065 L62.1899 513.065 Q63.5267 516.216 64.227 519.526 Q64.9272 522.836 64.9272 526.242 Q64.9272 534.772 59.9619 539.769 Q54.9967 544.734 46.5303 544.734 Q37.7774 544.734 32.6531 540.023 Q27.4968 535.281 27.4968 527.26 Q27.4968 520.067 32.1438 515.897 Q36.7589 511.696 44.7161 511.696 M42.9973 517.553 Q38.1912 517.616 35.3266 520.258 Q32.4621 522.868 32.4621 527.197 Q32.4621 532.098 35.2312 535.058 Q38.0002 537.986 43.0292 538.432 L42.9973 517.553 Z" fill="#000000" fill-rule="nonzero" fill-opacity="1" /><path clip-path="url(#clip450)" d="M42.4881 472.452 L64.0042 472.452 L64.0042 478.308 L42.679 478.308 Q37.6183 478.308 35.1038 480.281 Q32.5894 482.255 32.5894 486.201 Q32.5894 490.944 35.6131 493.681 Q38.6368 496.418 43.8567 496.418 L64.0042 496.418 L64.0042 502.307 L28.3562 502.307 L28.3562 496.418 L33.8944 496.418 Q30.6797 494.318 29.0883 491.485 Q27.4968 488.62 27.4968 484.896 Q27.4968 478.754 31.3163 475.603 Q35.1038 472.452 42.4881 472.452 Z" fill="#000000" fill-rule="nonzero" fill-opacity="1" /><path clip-path="url(#clip450)" d="M29.7248 435.117 L35.1993 435.117 Q33.8307 437.599 33.1623 440.114 Q32.4621 442.596 32.4621 445.143 Q32.4621 450.84 36.0905 453.991 Q39.6872 457.142 46.212 457.142 Q52.7369 457.142 56.3653 453.991 Q59.9619 450.84 59.9619 445.143 Q59.9619 442.596 59.2935 440.114 Q58.5933 437.599 57.2247 435.117 L62.6355 435.117 Q63.7814 437.567 64.3543 440.209 Q64.9272 442.819 64.9272 445.779 Q64.9272 453.832 59.8664 458.574 Q54.8057 463.317 46.212 463.317 Q37.491 463.317 32.4939 458.542 Q27.4968 453.736 27.4968 445.397 Q27.4968 442.692 28.0697 440.114 Q28.6108 437.536 29.7248 435.117 Z" fill="#000000" fill-rule="nonzero" fill-opacity="1" /><path clip-path="url(#clip450)" d="M44.7161 394.44 L47.5806 394.44 L47.5806 421.367 Q53.6281 420.985 56.8109 417.738 Q59.9619 414.46 59.9619 408.635 Q59.9619 405.261 59.1344 402.11 Q58.3069 398.928 56.6518 395.808 L62.1899 395.808 Q63.5267 398.959 64.227 402.27 Q64.9272 405.58 64.9272 408.985 Q64.9272 417.515 59.9619 422.513 Q54.9967 427.478 46.5303 427.478 Q37.7774 427.478 32.6531 422.767 Q27.4968 418.025 27.4968 410.004 Q27.4968 402.811 32.1438 398.641 Q36.7589 394.44 44.7161 394.44 M42.9973 400.296 Q38.1912 400.36 35.3266 403.002 Q32.4621 405.612 32.4621 409.94 Q32.4621 414.842 35.2312 417.802 Q38.0002 420.73 43.0292 421.176 L42.9973 400.296 Z" fill="#000000" fill-rule="nonzero" fill-opacity="1" /><polyline clip-path="url(#clip452)" style="stroke:#009af9; stroke-linecap:round; stroke-linejoin:round; stroke-width:4; stroke-opacity:1; fill:none" points="315.545,86.1857 325.434,139.328 335.324,204.815 345.213,278.046 355.102,342.303 364.992,424.366 374.881,532.761 384.771,660.446 394.66,777.783 404.549,886.692 414.439,998.035 424.328,1084.19 434.217,1185.85 444.107,1275.61 453.996,1335.94 463.886,1348.36 473.775,1338.88 483.664,1312.21 493.554,1292.27 503.443,1253.35 513.332,1198.05 523.222,1095.84 533.111,984.219 543.001,870.812 552.89,736.645 562.779,637.79 572.669,561.26 582.558,473.434 592.447,414.039 602.337,363.963 612.226,333.829 622.115,297.712 632.005,296.755 641.894,351.247 651.784,386.851 661.673,445.041 671.562,499.345 681.452,566.995 691.341,632.044 701.23,720.521 711.12,817.885 721.009,913.018 730.899,996.681 740.788,1071.46 750.677,1134.48 760.567,1186.5 770.456,1210.47 780.345,1208.71 790.235,1168.82 800.124,1152.51 810.014,1148.19 819.903,1118.62 829.792,1048.94 839.682,989.827 849.571,932.551 859.46,856.648 869.35,790.535 879.239,713.658 889.129,641.551 899.018,593.503 908.907,566.851 918.797,502.503 928.686,475.076 938.575,481.474 948.465,520.056 958.354,528.211 968.244,535.996 978.133,555.085 988.022,585.653 997.912,621.586 1007.8,676.192 1017.69,763.3 1027.58,852.694 1037.47,927.351 1047.36,977.785 1057.25,1017 1067.14,1023.75 1077.03,1043.04 1086.92,1030.08 1096.81,1003.38 1106.69,965.884 1116.58,945.744 1126.47,927.713 1136.36,916.526 1146.25,868.8 1156.14,837.637 1166.03,837.131 1175.92,792.964 1185.81,755.531 1195.7,706.06 1205.59,664.08 1215.48,631.779 1225.37,620.797 1235.26,616.646 1245.15,588.045 1255.04,569.879 1264.92,566.444 1274.81,595.838 1284.7,643.489 1294.59,662.302 1304.48,674.226 1314.37,687.645 1324.26,714.123 1334.15,772.9 1344.04,815.159 1353.93,839.12 1363.82,859.56 1373.71,873.326 1383.6,930.114 1393.49,957.917 1403.38,975.78 1413.27,945.549 1423.15,913.684 1433.04,905.737 1442.93,864.764 1452.82,856.65 1462.71,839.717 1472.6,821.755 1482.49,795.734 1492.38,775.484 1502.27,765.245 1512.16,730.028 1522.05,687.271 1531.94,675.316 1541.83,698.999 1551.72,692.198 1561.61,709.159 1571.5,705.335 1581.38,706.077 1591.27,720.47 1601.16,737.082 1611.05,789.264 1620.94,815.857 1630.83,824.645 1640.72,851.172 1650.61,870.752 1660.5,880.651 1670.39,907.375 1680.28,912.884 1690.17,913.934 1700.06,917.664 1709.95,892.543 1719.84,892.332 1729.73,901.541 1739.61,889.609 1749.5,884.455 1759.39,847.445 1769.28,849.848 1779.17,831.402 1789.06,812.793 1798.95,771.687 1808.84,748.39 1818.73,748.864 1828.62,779.697 1838.51,792.376 1848.4,787.05 1858.29,770.825 1868.18,760.932 1878.07,775.178 1887.96,779.29 1897.84,777.045 1907.73,784.126 1917.62,786.34 1927.51,772.37 1937.4,775.551 1947.29,793.907 1957.18,810.238 1967.07,836.673 1976.96,831.417 1986.85,833.545 1996.74,847.471 2006.63,872.421 2016.52,877.238 2026.41,871.936 2036.3,870.101 2046.19,851.849 2056.07,847.516 2065.96,832.606 2075.85,832.071 2085.74,844.116 2095.63,834.296 2105.52,817.56 2115.41,799.104 2125.3,817.207 2135.19,802.265 2145.08,776.605 2154.97,737.025 2164.86,728.142 2174.75,757.462 2184.64,787.429 2194.53,799.741 2204.42,800.413 2214.3,808.944 2224.19,813.796 2234.08,835.923 2243.97,839.749 2253.86,843.901 2263.75,856.687 2273.64,869.671 2283.53,848.883 2293.42,809.03 "/>
<polyline clip-path="url(#clip452)" style="stroke:#e26f46; stroke-linecap:round; stroke-linejoin:round; stroke-width:4; stroke-opacity:1; fill:none" points="315.545,106.93 325.434,117.568 335.324,146.984 345.213,201.477 355.102,280.272 364.992,382.506 374.881,500.914 384.771,627.458 394.66,759.981 404.549,891.402 414.439,1014.35 424.328,1124.88 434.217,1220.45 444.107,1294.8 453.996,1347.75 463.886,1378.68 473.775,1384.24 483.664,1364.92 493.554,1322.86 503.443,1263.28 513.332,1187.81 523.222,1101.25 533.111,1004.54 543.001,900.523 552.89,795.517 562.779,699.328 572.669,609.375 582.558,530.825 592.447,464.915 602.337,417.32 612.226,388.373 622.115,376.483 632.005,382.619 641.894,404.713 651.784,443.33 661.673,496.228 671.562,560.1 681.452,632.099 691.341,707.546 701.23,787.245 711.12,866.959 721.009,940.693 730.899,1004.16 740.788,1058.3 750.677,1102.52 760.567,1132.58 770.456,1147 780.345,1144.19 790.235,1131.55 800.124,1107.92 810.014,1073.11 819.903,1024.22 829.792,967.606 839.682,909.932 849.571,856.035 859.46,803.908 869.35,749.494 879.239,693.966 889.129,645.013 899.018,606.15 908.907,579.782 918.797,566.918 928.686,557.326 938.575,555.702 948.465,566.973 958.354,590.8 968.244,625.655 978.133,665.1 988.022,707.924 997.912,754.762 1007.8,804.744 1017.69,852.72 1027.58,892.782 1037.47,926.476 1047.36,955.497 1057.25,980.606 1067.14,998.134 1077.03,1006.42 1086.92,1004.64 1096.81,996.36 1106.69,982.135 1116.58,963.098 1126.47,938.261 1136.36,908.144 1146.25,874.985 1156.14,842.396 1166.03,812.111 1175.92,783.445 1185.81,755.02 1195.7,731.674 1205.59,710.057 1215.48,697.923 1225.37,689.289 1235.26,684.487 1245.15,681.201 1255.04,683.089 1264.92,691.915 1274.81,702.673 1284.7,715.611 1294.59,729.938 1304.48,746.625 1314.37,765.524 1324.26,788.709 1334.15,809.258 1344.04,825.412 1353.93,838.118 1363.82,849.731 1373.71,862.409 1383.6,874.102 1393.49,881.151 1403.38,883.302 1413.27,881.981 1423.15,878.385 1433.04,874.149 1442.93,868.226 1452.82,858.102 1462.71,846.845 1472.6,837.528 1482.49,823.453 1492.38,807.712 1502.27,791.879 1512.16,778.892 1522.05,768.943 1531.94,762.851 1541.83,754.273 1551.72,746.534 1561.61,743.13 1571.5,745.84 1581.38,750.615 1591.27,756.222 1601.16,761.337 1611.05,768.102 1620.94,776.148 1630.83,784.453 1640.72,792.963 1650.61,802.424 1660.5,810.252 1670.39,818.475 1680.28,826.811 1690.17,828.919 1700.06,829.46 1709.95,829.919 1719.84,829.224 1729.73,825.197 1739.61,816.645 1749.5,806.277 1759.39,797.276 1769.28,793.459 1779.17,790.138 1789.06,786.895 1798.95,780.722 1808.84,778.901 1818.73,782.787 1828.62,787.223 1838.51,790.998 1848.4,791.731 1858.29,794.085 1868.18,798.926 1878.07,806.318 1887.96,811.764 1897.84,813.403 1907.73,814.79 1917.62,821.962 1927.51,829.211 1937.4,833.885 1947.29,837.122 1957.18,841.104 1967.07,846.257 1976.96,851.923 1986.85,854.519 1996.74,852.415 2006.63,849.415 2016.52,847.93 2026.41,842.015 2036.3,831.145 2046.19,818.388 2056.07,802.449 2065.96,790.015 2075.85,780.565 2085.74,769.957 2095.63,755.511 2105.52,740.839 2115.41,731.115 2125.3,727.831 2135.19,726.974 2145.08,725.419 2154.97,724.765 2164.86,730.67 2174.75,738.767 2184.64,745.685 2194.53,754.088 2204.42,764.509 2214.3,777.384 2224.19,790.324 2234.08,800.445 2243.97,807.942 2253.86,812.957 2263.75,820.065 2273.64,828.86 2283.53,838.091 2293.42,843.388 "/>
<path clip-path="url(#clip450)" d="M1852.2 248.629 L2282.87 248.629 L2282.87 93.1086 L1852.2 93.1086  Z" fill="#ffffff" fill-rule="evenodd" fill-opacity="1"/>
<polyline clip-path="url(#clip450)" style="stroke:#000000; stroke-linecap:round; stroke-linejoin:round; stroke-width:4; stroke-opacity:1; fill:none" points="1852.2,248.629 2282.87,248.629 2282.87,93.1086 1852.2,93.1086 1852.2,248.629 "/>
<polyline clip-path="url(#clip450)" style="stroke:#009af9; stroke-linecap:round; stroke-linejoin:round; stroke-width:4; stroke-opacity:1; fill:none" points="1875.49,144.949 2015.26,144.949 "/>
<path clip-path="url(#clip450)" d="M2038.56 127.669 L2058.42 127.669 L2058.42 131.604 L2043.23 131.604 L2043.23 141.789 L2056.94 141.789 L2056.94 145.724 L2043.23 145.724 L2043.23 162.229 L2038.56 162.229 L2038.56 127.669 Z" fill="#000000" fill-rule="nonzero" fill-opacity="1" /><path clip-path="url(#clip450)" d="M2085.71 128.803 L2085.71 133.363 Q2083.05 132.09 2080.69 131.465 Q2078.33 130.84 2076.13 130.84 Q2072.31 130.84 2070.23 132.321 Q2068.17 133.803 2068.17 136.534 Q2068.17 138.826 2069.53 140.007 Q2070.92 141.164 2074.76 141.882 L2077.59 142.46 Q2082.82 143.456 2085.29 145.979 Q2087.79 148.479 2087.79 152.692 Q2087.79 157.715 2084.41 160.307 Q2081.06 162.9 2074.55 162.9 Q2072.1 162.9 2069.32 162.344 Q2066.57 161.789 2063.6 160.701 L2063.6 155.886 Q2066.45 157.483 2069.18 158.293 Q2071.91 159.104 2074.55 159.104 Q2078.56 159.104 2080.73 157.53 Q2082.91 155.956 2082.91 153.039 Q2082.91 150.493 2081.34 149.057 Q2079.79 147.622 2076.22 146.905 L2073.37 146.349 Q2068.14 145.307 2065.8 143.085 Q2063.47 140.863 2063.47 136.905 Q2063.47 132.321 2066.68 129.682 Q2069.92 127.044 2075.6 127.044 Q2078.03 127.044 2080.55 127.483 Q2083.07 127.923 2085.71 128.803 Z" fill="#000000" fill-rule="nonzero" fill-opacity="1" /><path clip-path="url(#clip450)" d="M2115.8 128.803 L2115.8 133.363 Q2113.14 132.09 2110.78 131.465 Q2108.42 130.84 2106.22 130.84 Q2102.4 130.84 2100.32 132.321 Q2098.26 133.803 2098.26 136.534 Q2098.26 138.826 2099.62 140.007 Q2101.01 141.164 2104.85 141.882 L2107.68 142.46 Q2112.91 143.456 2115.39 145.979 Q2117.89 148.479 2117.89 152.692 Q2117.89 157.715 2114.51 160.307 Q2111.15 162.9 2104.65 162.9 Q2102.19 162.9 2099.41 162.344 Q2096.66 161.789 2093.7 160.701 L2093.7 155.886 Q2096.54 157.483 2099.28 158.293 Q2102.01 159.104 2104.65 159.104 Q2108.65 159.104 2110.83 157.53 Q2113 155.956 2113 153.039 Q2113 150.493 2111.43 149.057 Q2109.88 147.622 2106.31 146.905 L2103.47 146.349 Q2098.23 145.307 2095.9 143.085 Q2093.56 140.863 2093.56 136.905 Q2093.56 132.321 2096.78 129.682 Q2100.02 127.044 2105.69 127.044 Q2108.12 127.044 2110.64 127.483 Q2113.16 127.923 2115.8 128.803 Z" fill="#000000" fill-rule="nonzero" fill-opacity="1" /><path clip-path="url(#clip450)" d="M2125.18 127.669 L2129.85 127.669 L2129.85 141.835 L2146.85 141.835 L2146.85 127.669 L2151.52 127.669 L2151.52 162.229 L2146.85 162.229 L2146.85 145.77 L2129.85 145.77 L2129.85 162.229 L2125.18 162.229 L2125.18 127.669 Z" fill="#000000" fill-rule="nonzero" fill-opacity="1" /><polyline clip-path="url(#clip450)" style="stroke:#e26f46; stroke-linecap:round; stroke-linejoin:round; stroke-width:4; stroke-opacity:1; fill:none" points="1875.49,196.789 2015.26,196.789 "/>
<path clip-path="url(#clip450)" d="M2038.56 179.509 L2060.41 179.509 L2060.41 183.444 L2043.23 183.444 L2043.23 193.675 L2059.69 193.675 L2059.69 197.61 L2043.23 197.61 L2043.23 210.133 L2060.83 210.133 L2060.83 214.069 L2038.56 214.069 L2038.56 179.509 Z" fill="#000000" fill-rule="nonzero" fill-opacity="1" /><path clip-path="url(#clip450)" d="M2089.88 198.421 L2089.88 214.069 L2085.62 214.069 L2085.62 198.559 Q2085.62 194.879 2084.18 193.05 Q2082.75 191.222 2079.88 191.222 Q2076.43 191.222 2074.44 193.421 Q2072.45 195.62 2072.45 199.416 L2072.45 214.069 L2068.17 214.069 L2068.17 178.05 L2072.45 178.05 L2072.45 192.171 Q2073.98 189.833 2076.04 188.675 Q2078.12 187.518 2080.83 187.518 Q2085.29 187.518 2087.59 190.296 Q2089.88 193.05 2089.88 198.421 Z" fill="#000000" fill-rule="nonzero" fill-opacity="1" /><path clip-path="url(#clip450)" d="M2113.4 192.124 Q2112.68 191.708 2111.82 191.522 Q2110.99 191.314 2109.97 191.314 Q2106.36 191.314 2104.41 193.675 Q2102.49 196.013 2102.49 200.411 L2102.49 214.069 L2098.21 214.069 L2098.21 188.143 L2102.49 188.143 L2102.49 192.171 Q2103.84 189.809 2105.99 188.675 Q2108.14 187.518 2111.22 187.518 Q2111.66 187.518 2112.19 187.587 Q2112.72 187.634 2113.37 187.749 L2113.4 192.124 Z" fill="#000000" fill-rule="nonzero" fill-opacity="1" /><path clip-path="url(#clip450)" d="M2139 200.041 L2139 202.124 L2119.41 202.124 Q2119.69 206.522 2122.05 208.837 Q2124.44 211.129 2128.67 211.129 Q2131.13 211.129 2133.42 210.527 Q2135.73 209.925 2138 208.721 L2138 212.749 Q2135.71 213.721 2133.3 214.231 Q2130.9 214.74 2128.42 214.74 Q2122.22 214.74 2118.58 211.129 Q2114.97 207.518 2114.97 201.36 Q2114.97 194.995 2118.4 191.268 Q2121.85 187.518 2127.68 187.518 Q2132.91 187.518 2135.94 190.897 Q2139 194.254 2139 200.041 M2134.74 198.791 Q2134.69 195.296 2132.77 193.212 Q2130.87 191.129 2127.72 191.129 Q2124.16 191.129 2122.01 193.143 Q2119.88 195.157 2119.55 198.814 L2134.74 198.791 Z" fill="#000000" fill-rule="nonzero" fill-opacity="1" /><path clip-path="url(#clip450)" d="M2167.54 198.421 L2167.54 214.069 L2163.28 214.069 L2163.28 198.559 Q2163.28 194.879 2161.85 193.05 Q2160.41 191.222 2157.54 191.222 Q2154.09 191.222 2152.1 193.421 Q2150.11 195.62 2150.11 199.416 L2150.11 214.069 L2145.83 214.069 L2145.83 188.143 L2150.11 188.143 L2150.11 192.171 Q2151.64 189.833 2153.7 188.675 Q2155.78 187.518 2158.49 187.518 Q2162.96 187.518 2165.25 190.296 Q2167.54 193.05 2167.54 198.421 Z" fill="#000000" fill-rule="nonzero" fill-opacity="1" /><path clip-path="url(#clip450)" d="M2189.16 178.05 L2189.16 181.592 L2185.09 181.592 Q2182.79 181.592 2181.89 182.518 Q2181.01 183.444 2181.01 185.851 L2181.01 188.143 L2188.03 188.143 L2188.03 191.453 L2181.01 191.453 L2181.01 214.069 L2176.73 214.069 L2176.73 191.453 L2172.66 191.453 L2172.66 188.143 L2176.73 188.143 L2176.73 186.337 Q2176.73 182.009 2178.74 180.041 Q2180.76 178.05 2185.13 178.05 L2189.16 178.05 Z" fill="#000000" fill-rule="nonzero" fill-opacity="1" /><path clip-path="url(#clip450)" d="M2214.9 200.041 L2214.9 202.124 L2195.32 202.124 Q2195.59 206.522 2197.96 208.837 Q2200.34 211.129 2204.58 211.129 Q2207.03 211.129 2209.32 210.527 Q2211.64 209.925 2213.9 208.721 L2213.9 212.749 Q2211.61 213.721 2209.21 214.231 Q2206.8 214.74 2204.32 214.74 Q2198.12 214.74 2194.48 211.129 Q2190.87 207.518 2190.87 201.36 Q2190.87 194.995 2194.3 191.268 Q2197.75 187.518 2203.58 187.518 Q2208.81 187.518 2211.84 190.897 Q2214.9 194.254 2214.9 200.041 M2210.64 198.791 Q2210.59 195.296 2208.67 193.212 Q2206.78 191.129 2203.63 191.129 Q2200.06 191.129 2197.91 193.143 Q2195.78 195.157 2195.46 198.814 L2210.64 198.791 Z" fill="#000000" fill-rule="nonzero" fill-opacity="1" /><path clip-path="url(#clip450)" d="M2238.42 188.907 L2238.42 192.934 Q2236.61 192.009 2234.67 191.546 Q2232.72 191.083 2230.64 191.083 Q2227.47 191.083 2225.87 192.055 Q2224.3 193.027 2224.3 194.971 Q2224.3 196.453 2225.43 197.309 Q2226.57 198.143 2229.99 198.907 L2231.45 199.231 Q2235.99 200.203 2237.89 201.985 Q2239.81 203.745 2239.81 206.916 Q2239.81 210.527 2236.94 212.633 Q2234.09 214.74 2229.09 214.74 Q2227.01 214.74 2224.74 214.323 Q2222.49 213.93 2219.99 213.12 L2219.99 208.721 Q2222.35 209.948 2224.65 210.573 Q2226.94 211.175 2229.18 211.175 Q2232.19 211.175 2233.81 210.157 Q2235.43 209.115 2235.43 207.24 Q2235.43 205.504 2234.25 204.578 Q2233.09 203.652 2229.14 202.796 L2227.65 202.448 Q2223.7 201.615 2221.94 199.902 Q2220.18 198.166 2220.18 195.157 Q2220.18 191.499 2222.77 189.509 Q2225.36 187.518 2230.13 187.518 Q2232.49 187.518 2234.58 187.865 Q2236.66 188.212 2238.42 188.907 Z" fill="#000000" fill-rule="nonzero" fill-opacity="1" /><path clip-path="url(#clip450)" d="M2250.8 180.782 L2250.8 188.143 L2259.58 188.143 L2259.58 191.453 L2250.8 191.453 L2250.8 205.527 Q2250.8 208.698 2251.66 209.601 Q2252.54 210.504 2255.2 210.504 L2259.58 210.504 L2259.58 214.069 L2255.2 214.069 Q2250.27 214.069 2248.4 212.24 Q2246.52 210.388 2246.52 205.527 L2246.52 191.453 L2243.4 191.453 L2243.4 188.143 L2246.52 188.143 L2246.52 180.782 L2250.8 180.782 Z" fill="#000000" fill-rule="nonzero" fill-opacity="1" /></svg>
