<?xml version="1.0" encoding="utf-8"?>
<svg xmlns="http://www.w3.org/2000/svg" xmlns:xlink="http://www.w3.org/1999/xlink" width="600" height="400" viewBox="0 0 2400 1600">
<defs>
  <clipPath id="clip280">
    <rect x="0" y="0" width="2400" height="1600"/>
  </clipPath>
</defs>
<path clip-path="url(#clip280)" d="M0 1600 L2400 1600 L2400 8.88178e-14 L0 8.88178e-14  Z" fill="#ffffff" fill-rule="evenodd" fill-opacity="1"/>
<defs>
  <clipPath id="clip281">
    <rect x="480" y="0" width="1681" height="1600"/>
  </clipPath>
</defs>
<path clip-path="url(#clip280)" d="M242.135 1423.18 L2352.76 1423.18 L2352.76 47.2441 L242.135 47.2441  Z" fill="#ffffff" fill-rule="evenodd" fill-opacity="1"/>
<defs>
  <clipPath id="clip282">
    <rect x="242" y="47" width="2112" height="1377"/>
  </clipPath>
</defs>
<polyline clip-path="url(#clip282)" style="stroke:#000000; stroke-linecap:round; stroke-linejoin:round; stroke-width:2; stroke-opacity:0.1; fill:none" points="301.869,1423.18 301.869,47.2441 "/>
<polyline clip-path="url(#clip282)" style="stroke:#000000; stroke-linecap:round; stroke-linejoin:round; stroke-width:2; stroke-opacity:0.1; fill:none" points="799.657,1423.18 799.657,47.2441 "/>
<polyline clip-path="url(#clip282)" style="stroke:#000000; stroke-linecap:round; stroke-linejoin:round; stroke-width:2; stroke-opacity:0.1; fill:none" points="1297.45,1423.18 1297.45,47.2441 "/>
<polyline clip-path="url(#clip282)" style="stroke:#000000; stroke-linecap:round; stroke-linejoin:round; stroke-width:2; stroke-opacity:0.1; fill:none" points="1795.23,1423.18 1795.23,47.2441 "/>
<polyline clip-path="url(#clip282)" style="stroke:#000000; stroke-linecap:round; stroke-linejoin:round; stroke-width:2; stroke-opacity:0.1; fill:none" points="2293.02,1423.18 2293.02,47.2441 "/>
<polyline clip-path="url(#clip280)" style="stroke:#000000; stroke-linecap:round; stroke-linejoin:round; stroke-width:4; stroke-opacity:1; fill:none" points="242.135,1423.18 2352.76,1423.18 "/>
<polyline clip-path="url(#clip280)" style="stroke:#000000; stroke-linecap:round; stroke-linejoin:round; stroke-width:4; stroke-opacity:1; fill:none" points="301.869,1423.18 301.869,1404.28 "/>
<polyline clip-path="url(#clip280)" style="stroke:#000000; stroke-linecap:round; stroke-linejoin:round; stroke-width:4; stroke-opacity:1; fill:none" points="799.657,1423.18 799.657,1404.28 "/>
<polyline clip-path="url(#clip280)" style="stroke:#000000; stroke-linecap:round; stroke-linejoin:round; stroke-width:4; stroke-opacity:1; fill:none" points="1297.45,1423.18 1297.45,1404.28 "/>
<polyline clip-path="url(#clip280)" style="stroke:#000000; stroke-linecap:round; stroke-linejoin:round; stroke-width:4; stroke-opacity:1; fill:none" points="1795.23,1423.18 1795.23,1404.28 "/>
<polyline clip-path="url(#clip280)" style="stroke:#000000; stroke-linecap:round; stroke-linejoin:round; stroke-width:4; stroke-opacity:1; fill:none" points="2293.02,1423.18 2293.02,1404.28 "/>
<path clip-path="url(#clip280)" d="M255.932 1468.75 L285.608 1468.75 L285.608 1472.69 L255.932 1472.69 L255.932 1468.75 Z" fill="#000000" fill-rule="nonzero" fill-opacity="1" /><path clip-path="url(#clip280)" d="M296.51 1481.64 L304.149 1481.64 L304.149 1455.28 L295.839 1456.95 L295.839 1452.69 L304.103 1451.02 L308.779 1451.02 L308.779 1481.64 L316.418 1481.64 L316.418 1485.58 L296.51 1485.58 L296.51 1481.64 Z" fill="#000000" fill-rule="nonzero" fill-opacity="1" /><path clip-path="url(#clip280)" d="M335.862 1454.1 Q332.251 1454.1 330.422 1457.66 Q328.617 1461.2 328.617 1468.33 Q328.617 1475.44 330.422 1479.01 Q332.251 1482.55 335.862 1482.55 Q339.496 1482.55 341.302 1479.01 Q343.131 1475.44 343.131 1468.33 Q343.131 1461.2 341.302 1457.66 Q339.496 1454.1 335.862 1454.1 M335.862 1450.39 Q341.672 1450.39 344.728 1455 Q347.806 1459.58 347.806 1468.33 Q347.806 1477.06 344.728 1481.67 Q341.672 1486.25 335.862 1486.25 Q330.052 1486.25 326.973 1481.67 Q323.918 1477.06 323.918 1468.33 Q323.918 1459.58 326.973 1455 Q330.052 1450.39 335.862 1450.39 Z" fill="#000000" fill-rule="nonzero" fill-opacity="1" /><path clip-path="url(#clip280)" d="M769.299 1468.75 L798.974 1468.75 L798.974 1472.69 L769.299 1472.69 L769.299 1468.75 Z" fill="#000000" fill-rule="nonzero" fill-opacity="1" /><path clip-path="url(#clip280)" d="M809.113 1451.02 L827.47 1451.02 L827.47 1454.96 L813.396 1454.96 L813.396 1463.43 Q814.414 1463.08 815.433 1462.92 Q816.451 1462.73 817.47 1462.73 Q823.257 1462.73 826.636 1465.9 Q830.016 1469.08 830.016 1474.49 Q830.016 1480.07 826.544 1483.17 Q823.071 1486.25 816.752 1486.25 Q814.576 1486.25 812.308 1485.88 Q810.062 1485.51 807.655 1484.77 L807.655 1480.07 Q809.738 1481.2 811.96 1481.76 Q814.183 1482.32 816.659 1482.32 Q820.664 1482.32 823.002 1480.21 Q825.34 1478.1 825.34 1474.49 Q825.34 1470.88 823.002 1468.77 Q820.664 1466.67 816.659 1466.67 Q814.784 1466.67 812.91 1467.08 Q811.058 1467.5 809.113 1468.38 L809.113 1451.02 Z" fill="#000000" fill-rule="nonzero" fill-opacity="1" /><path clip-path="url(#clip280)" d="M1297.45 1454.1 Q1293.83 1454.1 1292.01 1457.66 Q1290.2 1461.2 1290.2 1468.33 Q1290.2 1475.44 1292.01 1479.01 Q1293.83 1482.55 1297.45 1482.55 Q1301.08 1482.55 1302.89 1479.01 Q1304.71 1475.44 1304.71 1468.33 Q1304.71 1461.2 1302.89 1457.66 Q1301.08 1454.1 1297.45 1454.1 M1297.45 1450.39 Q1303.26 1450.39 1306.31 1455 Q1309.39 1459.58 1309.39 1468.33 Q1309.39 1477.06 1306.31 1481.67 Q1303.26 1486.25 1297.45 1486.25 Q1291.64 1486.25 1288.56 1481.67 Q1285.5 1477.06 1285.5 1468.33 Q1285.5 1459.58 1288.56 1455 Q1291.64 1450.39 1297.45 1450.39 Z" fill="#000000" fill-rule="nonzero" fill-opacity="1" /><path clip-path="url(#clip280)" d="M1785.51 1451.02 L1803.87 1451.02 L1803.87 1454.96 L1789.79 1454.96 L1789.79 1463.43 Q1790.81 1463.08 1791.83 1462.92 Q1792.85 1462.73 1793.87 1462.73 Q1799.65 1462.73 1803.03 1465.9 Q1806.41 1469.08 1806.41 1474.49 Q1806.41 1480.07 1802.94 1483.17 Q1799.47 1486.25 1793.15 1486.25 Q1790.97 1486.25 1788.71 1485.88 Q1786.46 1485.51 1784.05 1484.77 L1784.05 1480.07 Q1786.14 1481.2 1788.36 1481.76 Q1790.58 1482.32 1793.06 1482.32 Q1797.06 1482.32 1799.4 1480.21 Q1801.74 1478.1 1801.74 1474.49 Q1801.74 1470.88 1799.4 1468.77 Q1797.06 1466.67 1793.06 1466.67 Q1791.18 1466.67 1789.31 1467.08 Q1787.46 1467.5 1785.51 1468.38 L1785.51 1451.02 Z" fill="#000000" fill-rule="nonzero" fill-opacity="1" /><path clip-path="url(#clip280)" d="M2267.71 1481.64 L2275.35 1481.64 L2275.35 1455.28 L2267.04 1456.95 L2267.04 1452.69 L2275.3 1451.02 L2279.98 1451.02 L2279.98 1481.64 L2287.62 1481.64 L2287.62 1485.58 L2267.71 1485.58 L2267.71 1481.64 Z" fill="#000000" fill-rule="nonzero" fill-opacity="1" /><path clip-path="url(#clip280)" d="M2307.06 1454.1 Q2303.45 1454.1 2301.62 1457.66 Q2299.82 1461.2 2299.82 1468.33 Q2299.82 1475.44 2301.62 1479.01 Q2303.45 1482.55 2307.06 1482.55 Q2310.69 1482.55 2312.5 1479.01 Q2314.33 1475.44 2314.33 1468.33 Q2314.33 1461.2 2312.5 1457.66 Q2310.69 1454.1 2307.06 1454.1 M2307.06 1450.39 Q2312.87 1450.39 2315.93 1455 Q2319 1459.58 2319 1468.33 Q2319 1477.06 2315.93 1481.67 Q2312.87 1486.25 2307.06 1486.25 Q2301.25 1486.25 2298.17 1481.67 Q2295.12 1477.06 2295.12 1468.33 Q2295.12 1459.58 2298.17 1455 Q2301.25 1450.39 2307.06 1450.39 Z" fill="#000000" fill-rule="nonzero" fill-opacity="1" /><path clip-path="url(#clip280)" d="M1241.86 1537.87 Q1240.87 1537.3 1239.69 1537.04 Q1238.55 1536.76 1237.15 1536.76 Q1232.18 1536.76 1229.51 1540 Q1226.87 1543.22 1226.87 1549.27 L1226.87 1568.04 L1220.98 1568.04 L1220.98 1532.4 L1226.87 1532.4 L1226.87 1537.93 Q1228.71 1534.69 1231.67 1533.13 Q1234.63 1531.54 1238.86 1531.54 Q1239.47 1531.54 1240.2 1531.63 Q1240.93 1531.7 1241.82 1531.85 L1241.86 1537.87 Z" fill="#000000" fill-rule="nonzero" fill-opacity="1" /><path clip-path="url(#clip280)" d="M1282.79 1518.58 Q1278.52 1525.9 1276.45 1533.06 Q1274.39 1540.23 1274.39 1547.58 Q1274.39 1554.93 1276.45 1562.16 Q1278.56 1569.35 1282.79 1576.64 L1277.7 1576.64 Q1272.92 1569.16 1270.53 1561.93 Q1268.18 1554.71 1268.18 1547.58 Q1268.18 1540.48 1270.53 1533.29 Q1272.89 1526.09 1277.7 1518.58 L1282.79 1518.58 Z" fill="#000000" fill-rule="nonzero" fill-opacity="1" /><path clip-path="url(#clip280)" d="M1310.35 1550.12 Q1303.25 1550.12 1300.52 1551.75 Q1297.78 1553.37 1297.78 1557.29 Q1297.78 1560.4 1299.82 1562.25 Q1301.89 1564.07 1305.42 1564.07 Q1310.29 1564.07 1313.22 1560.63 Q1316.18 1557.16 1316.18 1551.43 L1316.18 1550.12 L1310.35 1550.12 M1322.03 1547.71 L1322.03 1568.04 L1316.18 1568.04 L1316.18 1562.63 Q1314.17 1565.88 1311.18 1567.44 Q1308.19 1568.97 1303.86 1568.97 Q1298.38 1568.97 1295.14 1565.91 Q1291.92 1562.82 1291.92 1557.67 Q1291.92 1551.65 1295.93 1548.6 Q1299.98 1545.54 1307.96 1545.54 L1316.18 1545.54 L1316.18 1544.97 Q1316.18 1540.93 1313.5 1538.73 Q1310.86 1536.5 1306.05 1536.5 Q1303 1536.5 1300.1 1537.23 Q1297.21 1537.97 1294.53 1539.43 L1294.53 1534.02 Q1297.75 1532.78 1300.77 1532.17 Q1303.8 1531.54 1306.66 1531.54 Q1314.39 1531.54 1318.21 1535.55 Q1322.03 1539.56 1322.03 1547.71 Z" fill="#000000" fill-rule="nonzero" fill-opacity="1" /><path clip-path="url(#clip280)" d="M1346.1 1546.5 Q1344.5 1543.76 1341.29 1543.76 Q1338.07 1543.76 1336.48 1546.5 Q1334.86 1549.23 1334.86 1554.71 Q1334.86 1560.21 1336.48 1562.95 Q1338.07 1565.69 1341.29 1565.69 Q1344.5 1565.69 1346.1 1562.95 Q1347.72 1560.21 1347.72 1554.71 Q1347.72 1549.23 1346.1 1546.5 M1341.29 1540.93 Q1346.41 1540.93 1349.12 1544.46 Q1351.82 1547.99 1351.82 1554.71 Q1351.82 1561.46 1349.12 1564.99 Q1346.41 1568.52 1341.29 1568.52 Q1336.13 1568.52 1333.43 1564.99 Q1330.72 1561.46 1330.72 1554.71 Q1330.72 1547.99 1333.43 1544.46 Q1336.13 1540.93 1341.29 1540.93 Z" fill="#000000" fill-rule="nonzero" fill-opacity="1" /><path clip-path="url(#clip280)" d="M1359.3 1518.58 L1364.4 1518.58 Q1369.17 1526.09 1371.53 1533.29 Q1373.91 1540.48 1373.91 1547.58 Q1373.91 1554.71 1371.53 1561.93 Q1369.17 1569.16 1364.4 1576.64 L1359.3 1576.64 Q1363.54 1569.35 1365.61 1562.16 Q1367.71 1554.93 1367.71 1547.58 Q1367.71 1540.23 1365.61 1533.06 Q1363.54 1525.9 1359.3 1518.58 Z" fill="#000000" fill-rule="nonzero" fill-opacity="1" /><polyline clip-path="url(#clip282)" style="stroke:#000000; stroke-linecap:round; stroke-linejoin:round; stroke-width:2; stroke-opacity:0.1; fill:none" points="242.135,1384.24 2352.76,1384.24 "/>
<polyline clip-path="url(#clip282)" style="stroke:#000000; stroke-linecap:round; stroke-linejoin:round; stroke-width:2; stroke-opacity:0.1; fill:none" points="242.135,1167.9 2352.76,1167.9 "/>
<polyline clip-path="url(#clip282)" style="stroke:#000000; stroke-linecap:round; stroke-linejoin:round; stroke-width:2; stroke-opacity:0.1; fill:none" points="242.135,951.554 2352.76,951.554 "/>
<polyline clip-path="url(#clip282)" style="stroke:#000000; stroke-linecap:round; stroke-linejoin:round; stroke-width:2; stroke-opacity:0.1; fill:none" points="242.135,735.212 2352.76,735.212 "/>
<polyline clip-path="url(#clip282)" style="stroke:#000000; stroke-linecap:round; stroke-linejoin:round; stroke-width:2; stroke-opacity:0.1; fill:none" points="242.135,518.87 2352.76,518.87 "/>
<polyline clip-path="url(#clip282)" style="stroke:#000000; stroke-linecap:round; stroke-linejoin:round; stroke-width:2; stroke-opacity:0.1; fill:none" points="242.135,302.528 2352.76,302.528 "/>
<polyline clip-path="url(#clip282)" style="stroke:#000000; stroke-linecap:round; stroke-linejoin:round; stroke-width:2; stroke-opacity:0.1; fill:none" points="242.135,86.1857 2352.76,86.1857 "/>
<polyline clip-path="url(#clip280)" style="stroke:#000000; stroke-linecap:round; stroke-linejoin:round; stroke-width:4; stroke-opacity:1; fill:none" points="242.135,1423.18 242.135,47.2441 "/>
<polyline clip-path="url(#clip280)" style="stroke:#000000; stroke-linecap:round; stroke-linejoin:round; stroke-width:4; stroke-opacity:1; fill:none" points="242.135,1384.24 261.032,1384.24 "/>
<polyline clip-path="url(#clip280)" style="stroke:#000000; stroke-linecap:round; stroke-linejoin:round; stroke-width:4; stroke-opacity:1; fill:none" points="242.135,1167.9 261.032,1167.9 "/>
<polyline clip-path="url(#clip280)" style="stroke:#000000; stroke-linecap:round; stroke-linejoin:round; stroke-width:4; stroke-opacity:1; fill:none" points="242.135,951.554 261.032,951.554 "/>
<polyline clip-path="url(#clip280)" style="stroke:#000000; stroke-linecap:round; stroke-linejoin:round; stroke-width:4; stroke-opacity:1; fill:none" points="242.135,735.212 261.032,735.212 "/>
<polyline clip-path="url(#clip280)" style="stroke:#000000; stroke-linecap:round; stroke-linejoin:round; stroke-width:4; stroke-opacity:1; fill:none" points="242.135,518.87 261.032,518.87 "/>
<polyline clip-path="url(#clip280)" style="stroke:#000000; stroke-linecap:round; stroke-linejoin:round; stroke-width:4; stroke-opacity:1; fill:none" points="242.135,302.528 261.032,302.528 "/>
<polyline clip-path="url(#clip280)" style="stroke:#000000; stroke-linecap:round; stroke-linejoin:round; stroke-width:4; stroke-opacity:1; fill:none" points="242.135,86.1857 261.032,86.1857 "/>
<path clip-path="url(#clip280)" d="M114.26 1384.69 L143.936 1384.69 L143.936 1388.62 L114.26 1388.62 L114.26 1384.69 Z" fill="#000000" fill-rule="nonzero" fill-opacity="1" /><path clip-path="url(#clip280)" d="M154.839 1397.58 L162.477 1397.58 L162.477 1371.22 L154.167 1372.88 L154.167 1368.62 L162.431 1366.96 L167.107 1366.96 L167.107 1397.58 L174.746 1397.58 L174.746 1401.52 L154.839 1401.52 L154.839 1397.58 Z" fill="#000000" fill-rule="nonzero" fill-opacity="1" /><path clip-path="url(#clip280)" d="M194.19 1370.04 Q190.579 1370.04 188.75 1373.6 Q186.945 1377.14 186.945 1384.27 Q186.945 1391.38 188.75 1394.94 Q190.579 1398.49 194.19 1398.49 Q197.825 1398.49 199.63 1394.94 Q201.459 1391.38 201.459 1384.27 Q201.459 1377.14 199.63 1373.6 Q197.825 1370.04 194.19 1370.04 M194.19 1366.33 Q200 1366.33 203.056 1370.94 Q206.135 1375.52 206.135 1384.27 Q206.135 1393 203.056 1397.61 Q200 1402.19 194.19 1402.19 Q188.38 1402.19 185.301 1397.61 Q182.246 1393 182.246 1384.27 Q182.246 1375.52 185.301 1370.94 Q188.38 1366.33 194.19 1366.33 Z" fill="#000000" fill-rule="nonzero" fill-opacity="1" /><path clip-path="url(#clip280)" d="M194.19 1153.69 Q190.579 1153.69 188.75 1157.26 Q186.945 1160.8 186.945 1167.93 Q186.945 1175.04 188.75 1178.6 Q190.579 1182.14 194.19 1182.14 Q197.825 1182.14 199.63 1178.6 Q201.459 1175.04 201.459 1167.93 Q201.459 1160.8 199.63 1157.26 Q197.825 1153.69 194.19 1153.69 M194.19 1149.99 Q200 1149.99 203.056 1154.6 Q206.135 1159.18 206.135 1167.93 Q206.135 1176.66 203.056 1181.26 Q200 1185.85 194.19 1185.85 Q188.38 1185.85 185.301 1181.26 Q182.246 1176.66 182.246 1167.93 Q182.246 1159.18 185.301 1154.6 Q188.38 1149.99 194.19 1149.99 Z" fill="#000000" fill-rule="nonzero" fill-opacity="1" /><path clip-path="url(#clip280)" d="M154.839 964.899 L162.477 964.899 L162.477 938.533 L154.167 940.2 L154.167 935.941 L162.431 934.274 L167.107 934.274 L167.107 964.899 L174.746 964.899 L174.746 968.834 L154.839 968.834 L154.839 964.899 Z" fill="#000000" fill-rule="nonzero" fill-opacity="1" /><path clip-path="url(#clip280)" d="M194.19 937.353 Q190.579 937.353 188.75 940.918 Q186.945 944.459 186.945 951.589 Q186.945 958.695 188.75 962.26 Q190.579 965.802 194.19 965.802 Q197.825 965.802 199.63 962.26 Q201.459 958.695 201.459 951.589 Q201.459 944.459 199.63 940.918 Q197.825 937.353 194.19 937.353 M194.19 933.649 Q200 933.649 203.056 938.256 Q206.135 942.839 206.135 951.589 Q206.135 960.316 203.056 964.922 Q200 969.505 194.19 969.505 Q188.38 969.505 185.301 964.922 Q182.246 960.316 182.246 951.589 Q182.246 942.839 185.301 938.256 Q188.38 933.649 194.19 933.649 Z" fill="#000000" fill-rule="nonzero" fill-opacity="1" /><path clip-path="url(#clip280)" d="M158.056 748.557 L174.376 748.557 L174.376 752.492 L152.431 752.492 L152.431 748.557 Q155.093 745.802 159.677 741.173 Q164.283 736.52 165.464 735.177 Q167.709 732.654 168.589 730.918 Q169.491 729.159 169.491 727.469 Q169.491 724.714 167.547 722.978 Q165.626 721.242 162.524 721.242 Q160.325 721.242 157.871 722.006 Q155.44 722.77 152.663 724.321 L152.663 719.599 Q155.487 718.464 157.94 717.886 Q160.394 717.307 162.431 717.307 Q167.802 717.307 170.996 719.992 Q174.19 722.677 174.19 727.168 Q174.19 729.298 173.38 731.219 Q172.593 733.117 170.487 735.71 Q169.908 736.381 166.806 739.599 Q163.704 742.793 158.056 748.557 Z" fill="#000000" fill-rule="nonzero" fill-opacity="1" /><path clip-path="url(#clip280)" d="M194.19 721.011 Q190.579 721.011 188.75 724.575 Q186.945 728.117 186.945 735.247 Q186.945 742.353 188.75 745.918 Q190.579 749.46 194.19 749.46 Q197.825 749.46 199.63 745.918 Q201.459 742.353 201.459 735.247 Q201.459 728.117 199.63 724.575 Q197.825 721.011 194.19 721.011 M194.19 717.307 Q200 717.307 203.056 721.913 Q206.135 726.497 206.135 735.247 Q206.135 743.973 203.056 748.58 Q200 753.163 194.19 753.163 Q188.38 753.163 185.301 748.58 Q182.246 743.973 182.246 735.247 Q182.246 726.497 185.301 721.913 Q188.38 717.307 194.19 717.307 Z" fill="#000000" fill-rule="nonzero" fill-opacity="1" /><path clip-path="url(#clip280)" d="M168.195 517.516 Q171.552 518.233 173.427 520.502 Q175.325 522.77 175.325 526.104 Q175.325 531.219 171.806 534.02 Q168.288 536.821 161.806 536.821 Q159.63 536.821 157.315 536.381 Q155.024 535.965 152.57 535.108 L152.57 530.594 Q154.515 531.729 156.829 532.307 Q159.144 532.886 161.667 532.886 Q166.065 532.886 168.357 531.15 Q170.672 529.414 170.672 526.104 Q170.672 523.048 168.519 521.335 Q166.39 519.599 162.57 519.599 L158.542 519.599 L158.542 515.756 L162.755 515.756 Q166.204 515.756 168.033 514.391 Q169.862 513.002 169.862 510.409 Q169.862 507.747 167.964 506.335 Q166.089 504.9 162.57 504.9 Q160.649 504.9 158.45 505.317 Q156.251 505.733 153.612 506.613 L153.612 502.446 Q156.274 501.706 158.589 501.335 Q160.927 500.965 162.987 500.965 Q168.311 500.965 171.413 503.395 Q174.514 505.803 174.514 509.923 Q174.514 512.794 172.871 514.784 Q171.227 516.752 168.195 517.516 Z" fill="#000000" fill-rule="nonzero" fill-opacity="1" /><path clip-path="url(#clip280)" d="M194.19 504.669 Q190.579 504.669 188.75 508.233 Q186.945 511.775 186.945 518.905 Q186.945 526.011 188.75 529.576 Q190.579 533.117 194.19 533.117 Q197.825 533.117 199.63 529.576 Q201.459 526.011 201.459 518.905 Q201.459 511.775 199.63 508.233 Q197.825 504.669 194.19 504.669 M194.19 500.965 Q200 500.965 203.056 505.571 Q206.135 510.155 206.135 518.905 Q206.135 527.631 203.056 532.238 Q200 536.821 194.19 536.821 Q188.38 536.821 185.301 532.238 Q182.246 527.631 182.246 518.905 Q182.246 510.155 185.301 505.571 Q188.38 500.965 194.19 500.965 Z" fill="#000000" fill-rule="nonzero" fill-opacity="1" /><path clip-path="url(#clip280)" d="M166.876 289.322 L155.07 307.771 L166.876 307.771 L166.876 289.322 M165.649 285.248 L171.528 285.248 L171.528 307.771 L176.459 307.771 L176.459 311.66 L171.528 311.66 L171.528 319.808 L166.876 319.808 L166.876 311.66 L151.274 311.66 L151.274 307.146 L165.649 285.248 Z" fill="#000000" fill-rule="nonzero" fill-opacity="1" /><path clip-path="url(#clip280)" d="M194.19 288.326 Q190.579 288.326 188.75 291.891 Q186.945 295.433 186.945 302.562 Q186.945 309.669 188.75 313.234 Q190.579 316.775 194.19 316.775 Q197.825 316.775 199.63 313.234 Q201.459 309.669 201.459 302.562 Q201.459 295.433 199.63 291.891 Q197.825 288.326 194.19 288.326 M194.19 284.623 Q200 284.623 203.056 289.229 Q206.135 293.813 206.135 302.562 Q206.135 311.289 203.056 315.896 Q200 320.479 194.19 320.479 Q188.38 320.479 185.301 315.896 Q182.246 311.289 182.246 302.562 Q182.246 293.813 185.301 289.229 Q188.38 284.623 194.19 284.623 Z" fill="#000000" fill-rule="nonzero" fill-opacity="1" /><path clip-path="url(#clip280)" d="M154.075 68.9057 L172.431 68.9057 L172.431 72.8408 L158.357 72.8408 L158.357 81.313 Q159.376 80.9658 160.394 80.8038 Q161.413 80.6186 162.431 80.6186 Q168.218 80.6186 171.598 83.7899 Q174.977 86.9611 174.977 92.3778 Q174.977 97.9564 171.505 101.058 Q168.033 104.137 161.714 104.137 Q159.538 104.137 157.269 103.767 Q155.024 103.396 152.616 102.655 L152.616 97.9564 Q154.7 99.0907 156.922 99.6462 Q159.144 100.202 161.621 100.202 Q165.626 100.202 167.964 98.0953 Q170.302 95.9889 170.302 92.3778 Q170.302 88.7667 167.964 86.6602 Q165.626 84.5537 161.621 84.5537 Q159.746 84.5537 157.871 84.9704 Q156.019 85.3871 154.075 86.2667 L154.075 68.9057 Z" fill="#000000" fill-rule="nonzero" fill-opacity="1" /><path clip-path="url(#clip280)" d="M194.19 71.9844 Q190.579 71.9844 188.75 75.5492 Q186.945 79.0908 186.945 86.2204 Q186.945 93.3268 188.75 96.8916 Q190.579 100.433 194.19 100.433 Q197.825 100.433 199.63 96.8916 Q201.459 93.3268 201.459 86.2204 Q201.459 79.0908 199.63 75.5492 Q197.825 71.9844 194.19 71.9844 M194.19 68.2807 Q200 68.2807 203.056 72.8871 Q206.135 77.4704 206.135 86.2204 Q206.135 94.9472 203.056 99.5537 Q200 104.137 194.19 104.137 Q188.38 104.137 185.301 99.5537 Q182.246 94.9472 182.246 86.2204 Q182.246 77.4704 185.301 72.8871 Q188.38 68.2807 194.19 68.2807 Z" fill="#000000" fill-rule="nonzero" fill-opacity="1" /><path clip-path="url(#clip280)" d="M16.4842 837.668 L16.4842 807.622 L21.895 807.622 L21.895 831.239 L35.9632 831.239 L35.9632 808.609 L41.3741 808.609 L41.3741 831.239 L58.5933 831.239 L58.5933 807.049 L64.0042 807.049 L64.0042 837.668 L16.4842 837.668 Z" fill="#000000" fill-rule="nonzero" fill-opacity="1" /><path clip-path="url(#clip280)" d="M51.9411 780.345 L64.0042 780.345 L64.0042 784.037 L52.0685 784.037 Q49.2357 784.037 47.8353 785.278 Q46.403 786.52 46.403 789.002 Q46.403 791.994 48.1217 793.713 Q49.8086 795.432 52.7369 795.432 L64.0042 795.432 L64.0042 799.155 L36.2815 799.155 L36.2815 795.432 L47.135 795.432 Q45.3526 794.127 44.4614 792.344 Q43.5702 790.53 43.5702 788.175 Q43.5702 784.323 45.7028 782.35 Q47.8353 780.345 51.9411 780.345 Z" fill="#000000" fill-rule="nonzero" fill-opacity="1" /><path clip-path="url(#clip280)" d="M46.0847 733.461 Q46.0847 740.559 47.7079 743.296 Q49.3312 746.034 53.2461 746.034 Q56.3653 746.034 58.2114 743.997 Q60.0256 741.928 60.0256 738.395 Q60.0256 733.525 56.5881 730.597 Q53.1188 727.637 47.3897 727.637 L46.0847 727.637 L46.0847 733.461 M43.6657 721.78 L64.0042 721.78 L64.0042 727.637 L58.5933 727.637 Q61.8398 729.642 63.3994 732.634 Q64.9272 735.626 64.9272 739.954 Q64.9272 745.429 61.8716 748.675 Q58.7843 751.89 53.6281 751.89 Q47.6125 751.89 44.5569 747.88 Q41.5014 743.838 41.5014 735.849 L41.5014 727.637 L40.9285 727.637 Q36.8862 727.637 34.6901 730.31 Q32.4621 732.952 32.4621 737.758 Q32.4621 740.814 33.1941 743.71 Q33.9262 746.607 35.3903 749.28 L29.9795 749.28 Q28.7381 746.065 28.1334 743.042 Q27.4968 740.018 27.4968 737.154 Q27.4968 729.419 31.5072 725.6 Q35.5176 721.78 43.6657 721.78 Z" fill="#000000" fill-rule="nonzero" fill-opacity="1" /><path clip-path="url(#clip280)" d="M42.4562 697.718 Q39.719 699.309 39.719 702.524 Q39.719 705.739 42.4562 707.33 Q45.1935 708.953 50.668 708.953 Q56.1743 708.953 58.9116 707.33 Q61.6488 705.739 61.6488 702.524 Q61.6488 699.309 58.9116 697.718 Q56.1743 696.095 50.668 696.095 Q45.1935 696.095 42.4562 697.718 M36.8862 702.524 Q36.8862 697.4 40.4192 694.694 Q43.9522 691.989 50.668 691.989 Q57.4157 691.989 60.9486 694.694 Q64.4816 697.4 64.4816 702.524 Q64.4816 707.68 60.9486 710.386 Q57.4157 713.091 50.668 713.091 Q43.9522 713.091 40.4192 710.386 Q36.8862 707.68 36.8862 702.524 Z" fill="#000000" fill-rule="nonzero" fill-opacity="1" /><path clip-path="url(#clip280)" d="M29.7885 685.368 L29.7885 659.683 L32.8122 659.683 L32.8122 685.368 L29.7885 685.368 Z" fill="#000000" fill-rule="nonzero" fill-opacity="1" /><path clip-path="url(#clip280)" d="M39.2416 650.357 L39.2416 643.864 L19.7943 643.864 L21.0993 650.962 L17.4072 650.962 L16.1659 643.641 L16.1659 639.281 L39.2416 639.281 L39.2416 632.756 L42.7427 632.756 L42.7427 650.357 L39.2416 650.357 Z" fill="#000000" fill-rule="nonzero" fill-opacity="1" /><polyline clip-path="url(#clip282)" style="stroke:#009af9; stroke-linecap:round; stroke-linejoin:round; stroke-width:4; stroke-opacity:1; fill:none" points="301.869,86.1857 311.825,107.712 321.781,129.021 331.737,150.115 341.692,170.992 351.648,191.652 361.604,212.097 371.56,232.325 381.515,252.336 391.471,272.132 401.427,291.711 411.383,311.073 421.338,330.22 431.294,349.149 441.25,367.863 451.206,386.36 461.161,404.641 471.117,422.706 481.073,440.554 491.029,458.186 500.984,475.601 510.94,492.801 520.896,509.784 530.852,526.55 540.807,543.1 550.763,559.434 560.719,575.551 570.675,591.453 580.631,607.137 590.586,622.606 600.542,637.858 610.498,652.894 620.454,667.713 630.409,682.316 640.365,696.703 650.321,710.873 660.277,724.828 670.232,738.565 680.188,752.087 690.144,765.392 700.1,778.48 710.055,791.353 720.011,804.009 729.967,816.448 739.923,828.672 749.878,840.679 759.834,852.469 769.79,864.044 779.746,875.402 789.701,886.543 799.657,897.469 809.613,908.177 819.569,918.67 829.525,928.946 839.48,939.006 849.436,948.85 859.392,958.477 869.348,967.888 879.303,977.082 889.259,986.061 899.215,994.822 909.171,1003.37 919.126,1011.7 929.082,1019.81 939.038,1027.71 948.994,1035.39 958.949,1042.85 968.905,1050.1 978.861,1057.13 988.817,1063.94 998.772,1070.54 1008.73,1076.92 1018.68,1083.09 1028.64,1089.04 1038.6,1094.77 1048.55,1100.29 1058.51,1105.59 1068.46,1110.67 1078.42,1115.54 1088.37,1120.19 1098.33,1124.63 1108.29,1128.85 1118.24,1132.85 1128.2,1136.63 1138.15,1140.2 1148.11,1143.56 1158.06,1146.69 1168.02,1149.62 1177.98,1152.32 1187.93,1154.81 1197.89,1157.08 1207.84,1159.13 1217.8,1160.97 1227.75,1162.6 1237.71,1164 1247.67,1165.19 1257.62,1166.17 1267.58,1166.92 1277.53,1167.46 1287.49,1167.79 1297.45,1167.9 1307.4,1167.79 1317.36,1167.46 1327.31,1166.92 1337.27,1166.17 1347.22,1165.19 1357.18,1164 1367.14,1162.6 1377.09,1160.97 1387.05,1159.13 1397,1157.08 1406.96,1154.81 1416.91,1152.32 1426.87,1149.62 1436.83,1146.69 1446.78,1143.56 1456.74,1140.2 1466.69,1136.63 1476.65,1132.85 1486.6,1128.85 1496.56,1124.63 1506.52,1120.19 1516.47,1115.54 1526.43,1110.67 1536.38,1105.59 1546.34,1100.29 1556.3,1094.77 1566.25,1089.04 1576.21,1083.09 1586.16,1076.92 1596.12,1070.54 1606.07,1063.94 1616.03,1057.13 1625.99,1050.1 1635.94,1042.85 1645.9,1035.39 1655.85,1027.71 1665.81,1019.81 1675.76,1011.7 1685.72,1003.37 1695.68,994.822 1705.63,986.061 1715.59,977.082 1725.54,967.888 1735.5,958.477 1745.45,948.85 1755.41,939.006 1765.37,928.946 1775.32,918.67 1785.28,908.177 1795.23,897.469 1805.19,886.543 1815.14,875.402 1825.1,864.044 1835.06,852.469 1845.01,840.679 1854.97,828.672 1864.92,816.448 1874.88,804.009 1884.84,791.353 1894.79,778.48 1904.75,765.392 1914.7,752.087 1924.66,738.565 1934.61,724.828 1944.57,710.873 1954.53,696.703 1964.48,682.316 1974.44,667.713 1984.39,652.894 1994.35,637.858 2004.3,622.606 2014.26,607.137 2024.22,591.453 2034.17,575.551 2044.13,559.434 2054.08,543.1 2064.04,526.55 2073.99,509.784 2083.95,492.801 2093.91,475.601 2103.86,458.186 2113.82,440.554 2123.77,422.706 2133.73,404.641 2143.68,386.36 2153.64,367.863 2163.6,349.149 2173.55,330.22 2183.51,311.073 2193.46,291.711 2203.42,272.132 2213.38,252.336 2223.33,232.325 2233.29,212.097 2243.24,191.652 2253.2,170.992 2263.15,150.115 2273.11,129.021 2283.07,107.712 2293.02,86.1857 "/>
<polyline clip-path="url(#clip282)" style="stroke:#e26f46; stroke-linecap:round; stroke-linejoin:round; stroke-width:4; stroke-opacity:1; fill:none" points="301.869,1384.24 311.825,1382.07 321.781,1379.91 331.737,1377.75 341.692,1375.58 351.648,1373.42 361.604,1371.26 371.56,1369.09 381.515,1366.93 391.471,1364.77 401.427,1362.6 411.383,1360.44 421.338,1358.28 431.294,1356.11 441.25,1353.95 451.206,1351.79 461.161,1349.62 471.117,1347.46 481.073,1345.3 491.029,1343.13 500.984,1340.97 510.94,1338.81 520.896,1336.64 530.852,1334.48 540.807,1332.32 550.763,1330.15 560.719,1327.99 570.675,1325.83 580.631,1323.66 590.586,1321.5 600.542,1319.34 610.498,1317.17 620.454,1315.01 630.409,1312.85 640.365,1310.68 650.321,1308.52 660.277,1306.36 670.232,1304.19 680.188,1302.03 690.144,1299.86 700.1,1297.7 710.055,1295.54 720.011,1293.37 729.967,1291.21 739.923,1289.05 749.878,1286.88 759.834,1284.72 769.79,1282.56 779.746,1280.39 789.701,1278.23 799.657,1276.07 809.613,1273.9 819.569,1271.74 829.525,1269.58 839.48,1267.41 849.436,1265.25 859.392,1263.09 869.348,1260.92 879.303,1258.76 889.259,1256.6 899.215,1254.43 909.171,1252.27 919.126,1250.11 929.082,1247.94 939.038,1245.78 948.994,1243.62 958.949,1241.45 968.905,1239.29 978.861,1237.13 988.817,1234.96 998.772,1232.8 1008.73,1230.64 1018.68,1228.47 1028.64,1226.31 1038.6,1224.15 1048.55,1221.98 1058.51,1219.82 1068.46,1217.65 1078.42,1215.49 1088.37,1213.33 1098.33,1211.16 1108.29,1209 1118.24,1206.84 1128.2,1204.67 1138.15,1202.51 1148.11,1200.35 1158.06,1198.18 1168.02,1196.02 1177.98,1193.86 1187.93,1191.69 1197.89,1189.53 1207.84,1187.37 1217.8,1185.2 1227.75,1183.04 1237.71,1180.88 1247.67,1178.71 1257.62,1176.55 1267.58,1174.39 1277.53,1172.22 1287.49,1170.06 1297.45,1167.9 1307.4,1165.73 1317.36,1163.57 1327.31,1161.41 1337.27,1159.24 1347.22,1157.08 1357.18,1154.92 1367.14,1152.75 1377.09,1150.59 1387.05,1148.43 1397,1146.26 1406.96,1144.1 1416.91,1141.94 1426.87,1139.77 1436.83,1137.61 1446.78,1135.44 1456.74,1133.28 1466.69,1131.12 1476.65,1128.95 1486.6,1126.79 1496.56,1124.63 1506.52,1122.46 1516.47,1120.3 1526.43,1118.14 1536.38,1115.97 1546.34,1113.81 1556.3,1111.65 1566.25,1109.48 1576.21,1107.32 1586.16,1105.16 1596.12,1102.99 1606.07,1100.83 1616.03,1098.67 1625.99,1096.5 1635.94,1094.34 1645.9,1092.18 1655.85,1090.01 1665.81,1087.85 1675.76,1085.69 1685.72,1083.52 1695.68,1081.36 1705.63,1079.2 1715.59,1077.03 1725.54,1074.87 1735.5,1072.71 1745.45,1070.54 1755.41,1068.38 1765.37,1066.22 1775.32,1064.05 1785.28,1061.89 1795.23,1059.73 1805.19,1057.56 1815.14,1055.4 1825.1,1053.23 1835.06,1051.07 1845.01,1048.91 1854.97,1046.74 1864.92,1044.58 1874.88,1042.42 1884.84,1040.25 1894.79,1038.09 1904.75,1035.93 1914.7,1033.76 1924.66,1031.6 1934.61,1029.44 1944.57,1027.27 1954.53,1025.11 1964.48,1022.95 1974.44,1020.78 1984.39,1018.62 1994.35,1016.46 2004.3,1014.29 2014.26,1012.13 2024.22,1009.97 2034.17,1007.8 2044.13,1005.64 2054.08,1003.48 2064.04,1001.31 2073.99,999.149 2083.95,996.986 2093.91,994.822 2103.86,992.659 2113.82,990.496 2123.77,988.332 2133.73,986.169 2143.68,984.005 2153.64,981.842 2163.6,979.679 2173.55,977.515 2183.51,975.352 2193.46,973.188 2203.42,971.025 2213.38,968.861 2223.33,966.698 2233.29,964.535 2243.24,962.371 2253.2,960.208 2263.15,958.044 2273.11,955.881 2283.07,953.717 2293.02,951.554 "/>
<path clip-path="url(#clip280)" d="M1905.37 1377.32 L2282.4 1377.32 L2282.4 1221.8 L1905.37 1221.8  Z" fill="#ffffff" fill-rule="evenodd" fill-opacity="1"/>
<polyline clip-path="url(#clip280)" style="stroke:#000000; stroke-linecap:round; stroke-linejoin:round; stroke-width:4; stroke-opacity:1; fill:none" points="1905.37,1377.32 2282.4,1377.32 2282.4,1221.8 1905.37,1221.8 1905.37,1377.32 "/>
<polyline clip-path="url(#clip280)" style="stroke:#009af9; stroke-linecap:round; stroke-linejoin:round; stroke-width:4; stroke-opacity:1; fill:none" points="1928.82,1273.64 2069.53,1273.64 "/>
<path clip-path="url(#clip280)" d="M2106.17 1290.92 L2092.98 1256.36 L2097.86 1256.36 L2108.81 1285.45 L2119.78 1256.36 L2124.65 1256.36 L2111.47 1290.92 L2106.17 1290.92 Z" fill="#000000" fill-rule="nonzero" fill-opacity="1" /><path clip-path="url(#clip280)" d="M2139.74 1254.94 Q2136.64 1260.27 2135.13 1265.48 Q2133.63 1270.68 2133.63 1276.03 Q2133.63 1281.38 2135.13 1286.63 Q2136.66 1291.86 2139.74 1297.17 L2136.03 1297.17 Q2132.56 1291.73 2130.83 1286.47 Q2129.11 1281.22 2129.11 1276.03 Q2129.11 1270.87 2130.83 1265.64 Q2132.54 1260.41 2136.03 1254.94 L2139.74 1254.94 Z" fill="#000000" fill-rule="nonzero" fill-opacity="1" /><path clip-path="url(#clip280)" d="M2163.03 1268.97 Q2162.31 1268.55 2161.45 1268.37 Q2160.62 1268.16 2159.6 1268.16 Q2155.99 1268.16 2154.04 1270.52 Q2152.12 1272.86 2152.12 1277.26 L2152.12 1290.92 L2147.84 1290.92 L2147.84 1264.99 L2152.12 1264.99 L2152.12 1269.02 Q2153.46 1266.66 2155.62 1265.52 Q2157.77 1264.36 2160.85 1264.36 Q2161.29 1264.36 2161.82 1264.43 Q2162.35 1264.48 2163 1264.6 L2163.03 1268.97 Z" fill="#000000" fill-rule="nonzero" fill-opacity="1" /><path clip-path="url(#clip280)" d="M2166.82 1254.94 L2170.53 1254.94 Q2174 1260.41 2175.71 1265.64 Q2177.45 1270.87 2177.45 1276.03 Q2177.45 1281.22 2175.71 1286.47 Q2174 1291.73 2170.53 1297.17 L2166.82 1297.17 Q2169.9 1291.86 2171.4 1286.63 Q2172.93 1281.38 2172.93 1276.03 Q2172.93 1270.68 2171.4 1265.48 Q2169.9 1260.27 2166.82 1254.94 Z" fill="#000000" fill-rule="nonzero" fill-opacity="1" /><polyline clip-path="url(#clip280)" style="stroke:#e26f46; stroke-linecap:round; stroke-linejoin:round; stroke-width:4; stroke-opacity:1; fill:none" points="1928.82,1325.48 2069.53,1325.48 "/>
<path clip-path="url(#clip280)" d="M2111.89 1320.76 L2111.89 1306.74 L2116.15 1306.74 L2116.15 1342.76 L2111.89 1342.76 L2111.89 1338.87 Q2110.55 1341.18 2108.49 1342.32 Q2106.45 1343.43 2103.58 1343.43 Q2098.88 1343.43 2095.92 1339.68 Q2092.98 1335.93 2092.98 1329.82 Q2092.98 1323.7 2095.92 1319.95 Q2098.88 1316.2 2103.58 1316.2 Q2106.45 1316.2 2108.49 1317.34 Q2110.55 1318.45 2111.89 1320.76 M2097.38 1329.82 Q2097.38 1334.51 2099.3 1337.2 Q2101.24 1339.86 2104.62 1339.86 Q2108 1339.86 2109.95 1337.2 Q2111.89 1334.51 2111.89 1329.82 Q2111.89 1325.12 2109.95 1322.45 Q2108 1319.77 2104.62 1319.77 Q2101.24 1319.77 2099.3 1322.45 Q2097.38 1325.12 2097.38 1329.82 Z" fill="#000000" fill-rule="nonzero" fill-opacity="1" /><path clip-path="url(#clip280)" d="M2134.02 1342.76 L2120.83 1308.2 L2125.71 1308.2 L2136.66 1337.29 L2147.63 1308.2 L2152.49 1308.2 L2139.32 1342.76 L2134.02 1342.76 Z" fill="#000000" fill-rule="nonzero" fill-opacity="1" /><path clip-path="url(#clip280)" d="M2167.59 1306.78 Q2164.48 1312.11 2162.98 1317.32 Q2161.47 1322.52 2161.47 1327.87 Q2161.47 1333.22 2162.98 1338.47 Q2164.51 1343.7 2167.59 1349.01 L2163.88 1349.01 Q2160.41 1343.57 2158.67 1338.31 Q2156.96 1333.06 2156.96 1327.87 Q2156.96 1322.71 2158.67 1317.48 Q2160.39 1312.25 2163.88 1306.78 L2167.59 1306.78 Z" fill="#000000" fill-rule="nonzero" fill-opacity="1" /><path clip-path="url(#clip280)" d="M2190.87 1320.81 Q2190.15 1320.39 2189.3 1320.21 Q2188.46 1320 2187.45 1320 Q2183.84 1320 2181.89 1322.36 Q2179.97 1324.7 2179.97 1329.1 L2179.97 1342.76 L2175.69 1342.76 L2175.69 1316.83 L2179.97 1316.83 L2179.97 1320.86 Q2181.31 1318.5 2183.46 1317.36 Q2185.62 1316.2 2188.7 1316.2 Q2189.14 1316.2 2189.67 1316.27 Q2190.2 1316.32 2190.85 1316.44 L2190.87 1320.81 Z" fill="#000000" fill-rule="nonzero" fill-opacity="1" /><path clip-path="url(#clip280)" d="M2194.67 1306.78 L2198.37 1306.78 Q2201.84 1312.25 2203.56 1317.48 Q2205.29 1322.71 2205.29 1327.87 Q2205.29 1333.06 2203.56 1338.31 Q2201.84 1343.57 2198.37 1349.01 L2194.67 1349.01 Q2197.75 1343.7 2199.25 1338.47 Q2200.78 1333.22 2200.78 1327.87 Q2200.78 1322.52 2199.25 1317.32 Q2197.75 1312.11 2194.67 1306.78 Z" fill="#000000" fill-rule="nonzero" fill-opacity="1" /><path clip-path="url(#clip280)" d="M2230.9 1320.76 L2230.9 1306.74 L2235.15 1306.74 L2235.15 1342.76 L2230.9 1342.76 L2230.9 1338.87 Q2229.55 1341.18 2227.49 1342.32 Q2225.46 1343.43 2222.58 1343.43 Q2217.89 1343.43 2214.92 1339.68 Q2211.98 1335.93 2211.98 1329.82 Q2211.98 1323.7 2214.92 1319.95 Q2217.89 1316.2 2222.58 1316.2 Q2225.46 1316.2 2227.49 1317.34 Q2229.55 1318.45 2230.9 1320.76 M2216.38 1329.82 Q2216.38 1334.51 2218.3 1337.2 Q2220.25 1339.86 2223.63 1339.86 Q2227.01 1339.86 2228.95 1337.2 Q2230.9 1334.51 2230.9 1329.82 Q2230.9 1325.12 2228.95 1322.45 Q2227.01 1319.77 2223.63 1319.77 Q2220.25 1319.77 2218.3 1322.45 Q2216.38 1325.12 2216.38 1329.82 Z" fill="#000000" fill-rule="nonzero" fill-opacity="1" /><path clip-path="url(#clip280)" d="M2258.95 1320.81 Q2258.23 1320.39 2257.38 1320.21 Q2256.54 1320 2255.52 1320 Q2251.91 1320 2249.97 1322.36 Q2248.05 1324.7 2248.05 1329.1 L2248.05 1342.76 L2243.77 1342.76 L2243.77 1316.83 L2248.05 1316.83 L2248.05 1320.86 Q2249.39 1318.5 2251.54 1317.36 Q2253.7 1316.2 2256.77 1316.2 Q2257.21 1316.2 2257.75 1316.27 Q2258.28 1316.32 2258.93 1316.44 L2258.95 1320.81 Z" fill="#000000" fill-rule="nonzero" fill-opacity="1" /></svg>
