<?xml version="1.0" encoding="utf-8"?>
<svg xmlns="http://www.w3.org/2000/svg" xmlns:xlink="http://www.w3.org/1999/xlink" width="600" height="400" viewBox="0 0 2400 1600">
<defs>
  <clipPath id="clip460">
    <rect x="0" y="0" width="2400" height="1600"/>
  </clipPath>
</defs>
<path clip-path="url(#clip460)" d="M0 1600 L2400 1600 L2400 8.88178e-14 L0 8.88178e-14  Z" fill="#ffffff" fill-rule="evenodd" fill-opacity="1"/>
<defs>
  <clipPath id="clip461">
    <rect x="480" y="0" width="1681" height="1600"/>
  </clipPath>
</defs>
<path clip-path="url(#clip460)" d="M317.528 1423.18 L2352.76 1423.18 L2352.76 47.2441 L317.528 47.2441  Z" fill="#ffffff" fill-rule="evenodd" fill-opacity="1"/>
<defs>
  <clipPath id="clip462">
    <rect x="317" y="47" width="2036" height="1377"/>
  </clipPath>
</defs>
<polyline clip-path="url(#clip462)" style="stroke:#000000; stroke-linecap:round; stroke-linejoin:round; stroke-width:2; stroke-opacity:0.1; fill:none" points="375.129,1423.18 375.129,47.2441 "/>
<polyline clip-path="url(#clip462)" style="stroke:#000000; stroke-linecap:round; stroke-linejoin:round; stroke-width:2; stroke-opacity:0.1; fill:none" points="855.135,1423.18 855.135,47.2441 "/>
<polyline clip-path="url(#clip462)" style="stroke:#000000; stroke-linecap:round; stroke-linejoin:round; stroke-width:2; stroke-opacity:0.1; fill:none" points="1335.14,1423.18 1335.14,47.2441 "/>
<polyline clip-path="url(#clip462)" style="stroke:#000000; stroke-linecap:round; stroke-linejoin:round; stroke-width:2; stroke-opacity:0.1; fill:none" points="1815.15,1423.18 1815.15,47.2441 "/>
<polyline clip-path="url(#clip462)" style="stroke:#000000; stroke-linecap:round; stroke-linejoin:round; stroke-width:2; stroke-opacity:0.1; fill:none" points="2295.16,1423.18 2295.16,47.2441 "/>
<polyline clip-path="url(#clip460)" style="stroke:#000000; stroke-linecap:round; stroke-linejoin:round; stroke-width:4; stroke-opacity:1; fill:none" points="317.528,1423.18 2352.76,1423.18 "/>
<polyline clip-path="url(#clip460)" style="stroke:#000000; stroke-linecap:round; stroke-linejoin:round; stroke-width:4; stroke-opacity:1; fill:none" points="375.129,1423.18 375.129,1404.28 "/>
<polyline clip-path="url(#clip460)" style="stroke:#000000; stroke-linecap:round; stroke-linejoin:round; stroke-width:4; stroke-opacity:1; fill:none" points="855.135,1423.18 855.135,1404.28 "/>
<polyline clip-path="url(#clip460)" style="stroke:#000000; stroke-linecap:round; stroke-linejoin:round; stroke-width:4; stroke-opacity:1; fill:none" points="1335.14,1423.18 1335.14,1404.28 "/>
<polyline clip-path="url(#clip460)" style="stroke:#000000; stroke-linecap:round; stroke-linejoin:round; stroke-width:4; stroke-opacity:1; fill:none" points="1815.15,1423.18 1815.15,1404.28 "/>
<polyline clip-path="url(#clip460)" style="stroke:#000000; stroke-linecap:round; stroke-linejoin:round; stroke-width:4; stroke-opacity:1; fill:none" points="2295.16,1423.18 2295.16,1404.28 "/>
<path clip-path="url(#clip460)" d="M329.191 1468.75 L358.867 1468.75 L358.867 1472.69 L329.191 1472.69 L329.191 1468.75 Z" fill="#000000" fill-rule="nonzero" fill-opacity="1" /><path clip-path="url(#clip460)" d="M369.77 1481.64 L377.409 1481.64 L377.409 1455.28 L369.099 1456.95 L369.099 1452.69 L377.362 1451.02 L382.038 1451.02 L382.038 1481.64 L389.677 1481.64 L389.677 1485.58 L369.77 1485.58 L369.77 1481.64 Z" fill="#000000" fill-rule="nonzero" fill-opacity="1" /><path clip-path="url(#clip460)" d="M409.121 1454.1 Q405.51 1454.1 403.682 1457.66 Q401.876 1461.2 401.876 1468.33 Q401.876 1475.44 403.682 1479.01 Q405.51 1482.55 409.121 1482.55 Q412.756 1482.55 414.561 1479.01 Q416.39 1475.44 416.39 1468.33 Q416.39 1461.2 414.561 1457.66 Q412.756 1454.1 409.121 1454.1 M409.121 1450.39 Q414.932 1450.39 417.987 1455 Q421.066 1459.58 421.066 1468.33 Q421.066 1477.06 417.987 1481.67 Q414.932 1486.25 409.121 1486.25 Q403.311 1486.25 400.233 1481.67 Q397.177 1477.06 397.177 1468.33 Q397.177 1459.58 400.233 1455 Q403.311 1450.39 409.121 1450.39 Z" fill="#000000" fill-rule="nonzero" fill-opacity="1" /><path clip-path="url(#clip460)" d="M824.777 1468.75 L854.452 1468.75 L854.452 1472.69 L824.777 1472.69 L824.777 1468.75 Z" fill="#000000" fill-rule="nonzero" fill-opacity="1" /><path clip-path="url(#clip460)" d="M864.591 1451.02 L882.948 1451.02 L882.948 1454.96 L868.874 1454.96 L868.874 1463.43 Q869.892 1463.08 870.911 1462.92 Q871.929 1462.73 872.948 1462.73 Q878.735 1462.73 882.114 1465.9 Q885.494 1469.08 885.494 1474.49 Q885.494 1480.07 882.022 1483.17 Q878.549 1486.25 872.23 1486.25 Q870.054 1486.25 867.786 1485.88 Q865.54 1485.51 863.133 1484.77 L863.133 1480.07 Q865.216 1481.2 867.438 1481.76 Q869.661 1482.32 872.137 1482.32 Q876.142 1482.32 878.48 1480.21 Q880.818 1478.1 880.818 1474.49 Q880.818 1470.88 878.48 1468.77 Q876.142 1466.67 872.137 1466.67 Q870.262 1466.67 868.387 1467.08 Q866.536 1467.5 864.591 1468.38 L864.591 1451.02 Z" fill="#000000" fill-rule="nonzero" fill-opacity="1" /><path clip-path="url(#clip460)" d="M1335.14 1454.1 Q1331.53 1454.1 1329.7 1457.66 Q1327.9 1461.2 1327.9 1468.33 Q1327.9 1475.44 1329.7 1479.01 Q1331.53 1482.55 1335.14 1482.55 Q1338.78 1482.55 1340.58 1479.01 Q1342.41 1475.44 1342.41 1468.33 Q1342.41 1461.2 1340.58 1457.66 Q1338.78 1454.1 1335.14 1454.1 M1335.14 1450.39 Q1340.95 1450.39 1344.01 1455 Q1347.09 1459.58 1347.09 1468.33 Q1347.09 1477.06 1344.01 1481.67 Q1340.95 1486.25 1335.14 1486.25 Q1329.33 1486.25 1326.25 1481.67 Q1323.2 1477.06 1323.2 1468.33 Q1323.2 1459.58 1326.25 1455 Q1329.33 1450.39 1335.14 1450.39 Z" fill="#000000" fill-rule="nonzero" fill-opacity="1" /><path clip-path="url(#clip460)" d="M1805.43 1451.02 L1823.78 1451.02 L1823.78 1454.96 L1809.71 1454.96 L1809.71 1463.43 Q1810.73 1463.08 1811.75 1462.92 Q1812.76 1462.73 1813.78 1462.73 Q1819.57 1462.73 1822.95 1465.9 Q1826.33 1469.08 1826.33 1474.49 Q1826.33 1480.07 1822.86 1483.17 Q1819.38 1486.25 1813.07 1486.25 Q1810.89 1486.25 1808.62 1485.88 Q1806.38 1485.51 1803.97 1484.77 L1803.97 1480.07 Q1806.05 1481.2 1808.27 1481.76 Q1810.5 1482.32 1812.97 1482.32 Q1816.98 1482.32 1819.32 1480.21 Q1821.65 1478.1 1821.65 1474.49 Q1821.65 1470.88 1819.32 1468.77 Q1816.98 1466.67 1812.97 1466.67 Q1811.1 1466.67 1809.22 1467.08 Q1807.37 1467.5 1805.43 1468.38 L1805.43 1451.02 Z" fill="#000000" fill-rule="nonzero" fill-opacity="1" /><path clip-path="url(#clip460)" d="M2269.84 1481.64 L2277.48 1481.64 L2277.48 1455.28 L2269.17 1456.95 L2269.17 1452.69 L2277.44 1451.02 L2282.11 1451.02 L2282.11 1481.64 L2289.75 1481.64 L2289.75 1485.58 L2269.84 1485.58 L2269.84 1481.64 Z" fill="#000000" fill-rule="nonzero" fill-opacity="1" /><path clip-path="url(#clip460)" d="M2309.19 1454.1 Q2305.58 1454.1 2303.75 1457.66 Q2301.95 1461.2 2301.95 1468.33 Q2301.95 1475.44 2303.75 1479.01 Q2305.58 1482.55 2309.19 1482.55 Q2312.83 1482.55 2314.63 1479.01 Q2316.46 1475.44 2316.46 1468.33 Q2316.46 1461.2 2314.63 1457.66 Q2312.83 1454.1 2309.19 1454.1 M2309.19 1450.39 Q2315 1450.39 2318.06 1455 Q2321.14 1459.58 2321.14 1468.33 Q2321.14 1477.06 2318.06 1481.67 Q2315 1486.25 2309.19 1486.25 Q2303.38 1486.25 2300.31 1481.67 Q2297.25 1477.06 2297.25 1468.33 Q2297.25 1459.58 2300.31 1455 Q2303.38 1450.39 2309.19 1450.39 Z" fill="#000000" fill-rule="nonzero" fill-opacity="1" /><path clip-path="url(#clip460)" d="M1279.55 1537.87 Q1278.57 1537.3 1277.39 1537.04 Q1276.24 1536.76 1274.84 1536.76 Q1269.88 1536.76 1267.2 1540 Q1264.56 1543.22 1264.56 1549.27 L1264.56 1568.04 L1258.67 1568.04 L1258.67 1532.4 L1264.56 1532.4 L1264.56 1537.93 Q1266.41 1534.69 1269.37 1533.13 Q1272.33 1531.54 1276.56 1531.54 Q1277.17 1531.54 1277.9 1531.63 Q1278.63 1531.7 1279.52 1531.85 L1279.55 1537.87 Z" fill="#000000" fill-rule="nonzero" fill-opacity="1" /><path clip-path="url(#clip460)" d="M1320.48 1518.58 Q1316.22 1525.9 1314.15 1533.06 Q1312.08 1540.23 1312.08 1547.58 Q1312.08 1554.93 1314.15 1562.16 Q1316.25 1569.35 1320.48 1576.64 L1315.39 1576.64 Q1310.62 1569.16 1308.23 1561.93 Q1305.88 1554.71 1305.88 1547.58 Q1305.88 1540.48 1308.23 1533.29 Q1310.59 1526.09 1315.39 1518.58 L1320.48 1518.58 Z" fill="#000000" fill-rule="nonzero" fill-opacity="1" /><path clip-path="url(#clip460)" d="M1348.05 1550.12 Q1340.95 1550.12 1338.21 1551.75 Q1335.48 1553.37 1335.48 1557.29 Q1335.48 1560.4 1337.51 1562.25 Q1339.58 1564.07 1343.11 1564.07 Q1347.98 1564.07 1350.91 1560.63 Q1353.87 1557.16 1353.87 1551.43 L1353.87 1550.12 L1348.05 1550.12 M1359.73 1547.71 L1359.73 1568.04 L1353.87 1568.04 L1353.87 1562.63 Q1351.87 1565.88 1348.88 1567.44 Q1345.88 1568.97 1341.56 1568.97 Q1336.08 1568.97 1332.83 1565.91 Q1329.62 1562.82 1329.62 1557.67 Q1329.62 1551.65 1333.63 1548.6 Q1337.67 1545.54 1345.66 1545.54 L1353.87 1545.54 L1353.87 1544.97 Q1353.87 1540.93 1351.2 1538.73 Q1348.56 1536.5 1343.75 1536.5 Q1340.7 1536.5 1337.8 1537.23 Q1334.9 1537.97 1332.23 1539.43 L1332.23 1534.02 Q1335.44 1532.78 1338.47 1532.17 Q1341.49 1531.54 1344.36 1531.54 Q1352.09 1531.54 1355.91 1535.55 Q1359.73 1539.56 1359.73 1547.71 Z" fill="#000000" fill-rule="nonzero" fill-opacity="1" /><path clip-path="url(#clip460)" d="M1383.79 1546.5 Q1382.2 1543.76 1378.99 1543.76 Q1375.77 1543.76 1374.18 1546.5 Q1372.56 1549.23 1372.56 1554.71 Q1372.56 1560.21 1374.18 1562.95 Q1375.77 1565.69 1378.99 1565.69 Q1382.2 1565.69 1383.79 1562.95 Q1385.42 1560.21 1385.42 1554.71 Q1385.42 1549.23 1383.79 1546.5 M1378.99 1540.93 Q1384.11 1540.93 1386.82 1544.46 Q1389.52 1547.99 1389.52 1554.71 Q1389.52 1561.46 1386.82 1564.99 Q1384.11 1568.52 1378.99 1568.52 Q1373.83 1568.52 1371.12 1564.99 Q1368.42 1561.46 1368.42 1554.71 Q1368.42 1547.99 1371.12 1544.46 Q1373.83 1540.93 1378.99 1540.93 Z" fill="#000000" fill-rule="nonzero" fill-opacity="1" /><path clip-path="url(#clip460)" d="M1397 1518.58 L1402.09 1518.58 Q1406.87 1526.09 1409.22 1533.29 Q1411.61 1540.48 1411.61 1547.58 Q1411.61 1554.71 1409.22 1561.93 Q1406.87 1569.16 1402.09 1576.64 L1397 1576.64 Q1401.23 1569.35 1403.3 1562.16 Q1405.4 1554.93 1405.4 1547.58 Q1405.4 1540.23 1403.3 1533.06 Q1401.23 1525.9 1397 1518.58 Z" fill="#000000" fill-rule="nonzero" fill-opacity="1" /><polyline clip-path="url(#clip462)" style="stroke:#000000; stroke-linecap:round; stroke-linejoin:round; stroke-width:2; stroke-opacity:0.1; fill:none" points="317.528,1384.24 2352.76,1384.24 "/>
<polyline clip-path="url(#clip462)" style="stroke:#000000; stroke-linecap:round; stroke-linejoin:round; stroke-width:2; stroke-opacity:0.1; fill:none" points="317.528,1059.73 2352.76,1059.73 "/>
<polyline clip-path="url(#clip462)" style="stroke:#000000; stroke-linecap:round; stroke-linejoin:round; stroke-width:2; stroke-opacity:0.1; fill:none" points="317.528,735.212 2352.76,735.212 "/>
<polyline clip-path="url(#clip462)" style="stroke:#000000; stroke-linecap:round; stroke-linejoin:round; stroke-width:2; stroke-opacity:0.1; fill:none" points="317.528,410.699 2352.76,410.699 "/>
<polyline clip-path="url(#clip462)" style="stroke:#000000; stroke-linecap:round; stroke-linejoin:round; stroke-width:2; stroke-opacity:0.1; fill:none" points="317.528,86.1856 2352.76,86.1856 "/>
<polyline clip-path="url(#clip460)" style="stroke:#000000; stroke-linecap:round; stroke-linejoin:round; stroke-width:4; stroke-opacity:1; fill:none" points="317.528,1423.18 317.528,47.2441 "/>
<polyline clip-path="url(#clip460)" style="stroke:#000000; stroke-linecap:round; stroke-linejoin:round; stroke-width:4; stroke-opacity:1; fill:none" points="317.528,1384.24 336.425,1384.24 "/>
<polyline clip-path="url(#clip460)" style="stroke:#000000; stroke-linecap:round; stroke-linejoin:round; stroke-width:4; stroke-opacity:1; fill:none" points="317.528,1059.73 336.425,1059.73 "/>
<polyline clip-path="url(#clip460)" style="stroke:#000000; stroke-linecap:round; stroke-linejoin:round; stroke-width:4; stroke-opacity:1; fill:none" points="317.528,735.212 336.425,735.212 "/>
<polyline clip-path="url(#clip460)" style="stroke:#000000; stroke-linecap:round; stroke-linejoin:round; stroke-width:4; stroke-opacity:1; fill:none" points="317.528,410.699 336.425,410.699 "/>
<polyline clip-path="url(#clip460)" style="stroke:#000000; stroke-linecap:round; stroke-linejoin:round; stroke-width:4; stroke-opacity:1; fill:none" points="317.528,86.1856 336.425,86.1856 "/>
<path clip-path="url(#clip460)" d="M114.26 1384.69 L143.936 1384.69 L143.936 1388.62 L114.26 1388.62 L114.26 1384.69 Z" fill="#000000" fill-rule="nonzero" fill-opacity="1" /><path clip-path="url(#clip460)" d="M164.028 1370.04 Q160.417 1370.04 158.589 1373.6 Q156.783 1377.14 156.783 1384.27 Q156.783 1391.38 158.589 1394.94 Q160.417 1398.49 164.028 1398.49 Q167.663 1398.49 169.468 1394.94 Q171.297 1391.38 171.297 1384.27 Q171.297 1377.14 169.468 1373.6 Q167.663 1370.04 164.028 1370.04 M164.028 1366.33 Q169.839 1366.33 172.894 1370.94 Q175.973 1375.52 175.973 1384.27 Q175.973 1393 172.894 1397.61 Q169.839 1402.19 164.028 1402.19 Q158.218 1402.19 155.14 1397.61 Q152.084 1393 152.084 1384.27 Q152.084 1375.52 155.14 1370.94 Q158.218 1366.33 164.028 1366.33 Z" fill="#000000" fill-rule="nonzero" fill-opacity="1" /><path clip-path="url(#clip460)" d="M184.19 1395.64 L189.075 1395.64 L189.075 1401.52 L184.19 1401.52 L184.19 1395.64 Z" fill="#000000" fill-rule="nonzero" fill-opacity="1" /><path clip-path="url(#clip460)" d="M209.26 1370.04 Q205.649 1370.04 203.82 1373.6 Q202.014 1377.14 202.014 1384.27 Q202.014 1391.38 203.82 1394.94 Q205.649 1398.49 209.26 1398.49 Q212.894 1398.49 214.699 1394.94 Q216.528 1391.38 216.528 1384.27 Q216.528 1377.14 214.699 1373.6 Q212.894 1370.04 209.26 1370.04 M209.26 1366.33 Q215.07 1366.33 218.125 1370.94 Q221.204 1375.52 221.204 1384.27 Q221.204 1393 218.125 1397.61 Q215.07 1402.19 209.26 1402.19 Q203.449 1402.19 200.371 1397.61 Q197.315 1393 197.315 1384.27 Q197.315 1375.52 200.371 1370.94 Q203.449 1366.33 209.26 1366.33 Z" fill="#000000" fill-rule="nonzero" fill-opacity="1" /><path clip-path="url(#clip460)" d="M230.232 1397.58 L237.871 1397.58 L237.871 1371.22 L229.56 1372.88 L229.56 1368.62 L237.824 1366.96 L242.5 1366.96 L242.5 1397.58 L250.139 1397.58 L250.139 1401.52 L230.232 1401.52 L230.232 1397.58 Z" fill="#000000" fill-rule="nonzero" fill-opacity="1" /><path clip-path="url(#clip460)" d="M269.583 1370.04 Q265.972 1370.04 264.144 1373.6 Q262.338 1377.14 262.338 1384.27 Q262.338 1391.38 264.144 1394.94 Q265.972 1398.49 269.583 1398.49 Q273.218 1398.49 275.023 1394.94 Q276.852 1391.38 276.852 1384.27 Q276.852 1377.14 275.023 1373.6 Q273.218 1370.04 269.583 1370.04 M269.583 1366.33 Q275.394 1366.33 278.449 1370.94 Q281.528 1375.52 281.528 1384.27 Q281.528 1393 278.449 1397.61 Q275.394 1402.19 269.583 1402.19 Q263.773 1402.19 260.695 1397.61 Q257.639 1393 257.639 1384.27 Q257.639 1375.52 260.695 1370.94 Q263.773 1366.33 269.583 1366.33 Z" fill="#000000" fill-rule="nonzero" fill-opacity="1" /><path clip-path="url(#clip460)" d="M115.256 1060.18 L144.931 1060.18 L144.931 1064.11 L115.256 1064.11 L115.256 1060.18 Z" fill="#000000" fill-rule="nonzero" fill-opacity="1" /><path clip-path="url(#clip460)" d="M165.024 1045.52 Q161.413 1045.52 159.584 1049.09 Q157.778 1052.63 157.778 1059.76 Q157.778 1066.87 159.584 1070.43 Q161.413 1073.97 165.024 1073.97 Q168.658 1073.97 170.464 1070.43 Q172.292 1066.87 172.292 1059.76 Q172.292 1052.63 170.464 1049.09 Q168.658 1045.52 165.024 1045.52 M165.024 1041.82 Q170.834 1041.82 173.889 1046.43 Q176.968 1051.01 176.968 1059.76 Q176.968 1068.49 173.889 1073.09 Q170.834 1077.68 165.024 1077.68 Q159.214 1077.68 156.135 1073.09 Q153.079 1068.49 153.079 1059.76 Q153.079 1051.01 156.135 1046.43 Q159.214 1041.82 165.024 1041.82 Z" fill="#000000" fill-rule="nonzero" fill-opacity="1" /><path clip-path="url(#clip460)" d="M185.186 1071.13 L190.07 1071.13 L190.07 1077.01 L185.186 1077.01 L185.186 1071.13 Z" fill="#000000" fill-rule="nonzero" fill-opacity="1" /><path clip-path="url(#clip460)" d="M210.255 1045.52 Q206.644 1045.52 204.815 1049.09 Q203.01 1052.63 203.01 1059.76 Q203.01 1066.87 204.815 1070.43 Q206.644 1073.97 210.255 1073.97 Q213.889 1073.97 215.695 1070.43 Q217.523 1066.87 217.523 1059.76 Q217.523 1052.63 215.695 1049.09 Q213.889 1045.52 210.255 1045.52 M210.255 1041.82 Q216.065 1041.82 219.121 1046.43 Q222.199 1051.01 222.199 1059.76 Q222.199 1068.49 219.121 1073.09 Q216.065 1077.68 210.255 1077.68 Q204.445 1077.68 201.366 1073.09 Q198.311 1068.49 198.311 1059.76 Q198.311 1051.01 201.366 1046.43 Q204.445 1041.82 210.255 1041.82 Z" fill="#000000" fill-rule="nonzero" fill-opacity="1" /><path clip-path="url(#clip460)" d="M240.417 1045.52 Q236.806 1045.52 234.977 1049.09 Q233.172 1052.63 233.172 1059.76 Q233.172 1066.87 234.977 1070.43 Q236.806 1073.97 240.417 1073.97 Q244.051 1073.97 245.857 1070.43 Q247.685 1066.87 247.685 1059.76 Q247.685 1052.63 245.857 1049.09 Q244.051 1045.52 240.417 1045.52 M240.417 1041.82 Q246.227 1041.82 249.283 1046.43 Q252.361 1051.01 252.361 1059.76 Q252.361 1068.49 249.283 1073.09 Q246.227 1077.68 240.417 1077.68 Q234.607 1077.68 231.528 1073.09 Q228.473 1068.49 228.473 1059.76 Q228.473 1051.01 231.528 1046.43 Q234.607 1041.82 240.417 1041.82 Z" fill="#000000" fill-rule="nonzero" fill-opacity="1" /><path clip-path="url(#clip460)" d="M260.625 1042.45 L278.981 1042.45 L278.981 1046.38 L264.907 1046.38 L264.907 1054.85 Q265.926 1054.51 266.945 1054.34 Q267.963 1054.16 268.982 1054.16 Q274.769 1054.16 278.148 1057.33 Q281.528 1060.5 281.528 1065.92 Q281.528 1071.5 278.056 1074.6 Q274.583 1077.68 268.264 1077.68 Q266.088 1077.68 263.82 1077.31 Q261.574 1076.94 259.167 1076.19 L259.167 1071.5 Q261.25 1072.63 263.472 1073.19 Q265.695 1073.74 268.171 1073.74 Q272.176 1073.74 274.514 1071.63 Q276.852 1069.53 276.852 1065.92 Q276.852 1062.31 274.514 1060.2 Q272.176 1058.09 268.171 1058.09 Q266.296 1058.09 264.421 1058.51 Q262.57 1058.93 260.625 1059.81 L260.625 1042.45 Z" fill="#000000" fill-rule="nonzero" fill-opacity="1" /><path clip-path="url(#clip460)" d="M164.028 721.011 Q160.417 721.011 158.589 724.575 Q156.783 728.117 156.783 735.247 Q156.783 742.353 158.589 745.918 Q160.417 749.46 164.028 749.46 Q167.663 749.46 169.468 745.918 Q171.297 742.353 171.297 735.247 Q171.297 728.117 169.468 724.575 Q167.663 721.011 164.028 721.011 M164.028 717.307 Q169.839 717.307 172.894 721.913 Q175.973 726.497 175.973 735.247 Q175.973 743.973 172.894 748.58 Q169.839 753.163 164.028 753.163 Q158.218 753.163 155.14 748.58 Q152.084 743.973 152.084 735.247 Q152.084 726.497 155.14 721.913 Q158.218 717.307 164.028 717.307 Z" fill="#000000" fill-rule="nonzero" fill-opacity="1" /><path clip-path="url(#clip460)" d="M184.19 746.612 L189.075 746.612 L189.075 752.492 L184.19 752.492 L184.19 746.612 Z" fill="#000000" fill-rule="nonzero" fill-opacity="1" /><path clip-path="url(#clip460)" d="M209.26 721.011 Q205.649 721.011 203.82 724.575 Q202.014 728.117 202.014 735.247 Q202.014 742.353 203.82 745.918 Q205.649 749.46 209.26 749.46 Q212.894 749.46 214.699 745.918 Q216.528 742.353 216.528 735.247 Q216.528 728.117 214.699 724.575 Q212.894 721.011 209.26 721.011 M209.26 717.307 Q215.07 717.307 218.125 721.913 Q221.204 726.497 221.204 735.247 Q221.204 743.973 218.125 748.58 Q215.07 753.163 209.26 753.163 Q203.449 753.163 200.371 748.58 Q197.315 743.973 197.315 735.247 Q197.315 726.497 200.371 721.913 Q203.449 717.307 209.26 717.307 Z" fill="#000000" fill-rule="nonzero" fill-opacity="1" /><path clip-path="url(#clip460)" d="M239.422 721.011 Q235.81 721.011 233.982 724.575 Q232.176 728.117 232.176 735.247 Q232.176 742.353 233.982 745.918 Q235.81 749.46 239.422 749.46 Q243.056 749.46 244.861 745.918 Q246.69 742.353 246.69 735.247 Q246.69 728.117 244.861 724.575 Q243.056 721.011 239.422 721.011 M239.422 717.307 Q245.232 717.307 248.287 721.913 Q251.366 726.497 251.366 735.247 Q251.366 743.973 248.287 748.58 Q245.232 753.163 239.422 753.163 Q233.611 753.163 230.533 748.58 Q227.477 743.973 227.477 735.247 Q227.477 726.497 230.533 721.913 Q233.611 717.307 239.422 717.307 Z" fill="#000000" fill-rule="nonzero" fill-opacity="1" /><path clip-path="url(#clip460)" d="M269.583 721.011 Q265.972 721.011 264.144 724.575 Q262.338 728.117 262.338 735.247 Q262.338 742.353 264.144 745.918 Q265.972 749.46 269.583 749.46 Q273.218 749.46 275.023 745.918 Q276.852 742.353 276.852 735.247 Q276.852 728.117 275.023 724.575 Q273.218 721.011 269.583 721.011 M269.583 717.307 Q275.394 717.307 278.449 721.913 Q281.528 726.497 281.528 735.247 Q281.528 743.973 278.449 748.58 Q275.394 753.163 269.583 753.163 Q263.773 753.163 260.695 748.58 Q257.639 743.973 257.639 735.247 Q257.639 726.497 260.695 721.913 Q263.773 717.307 269.583 717.307 Z" fill="#000000" fill-rule="nonzero" fill-opacity="1" /><path clip-path="url(#clip460)" d="M165.024 396.497 Q161.413 396.497 159.584 400.062 Q157.778 403.604 157.778 410.734 Q157.778 417.84 159.584 421.405 Q161.413 424.946 165.024 424.946 Q168.658 424.946 170.464 421.405 Q172.292 417.84 172.292 410.734 Q172.292 403.604 170.464 400.062 Q168.658 396.497 165.024 396.497 M165.024 392.794 Q170.834 392.794 173.889 397.4 Q176.968 401.984 176.968 410.734 Q176.968 419.46 173.889 424.067 Q170.834 428.65 165.024 428.65 Q159.214 428.65 156.135 424.067 Q153.079 419.46 153.079 410.734 Q153.079 401.984 156.135 397.4 Q159.214 392.794 165.024 392.794 Z" fill="#000000" fill-rule="nonzero" fill-opacity="1" /><path clip-path="url(#clip460)" d="M185.186 422.099 L190.07 422.099 L190.07 427.979 L185.186 427.979 L185.186 422.099 Z" fill="#000000" fill-rule="nonzero" fill-opacity="1" /><path clip-path="url(#clip460)" d="M210.255 396.497 Q206.644 396.497 204.815 400.062 Q203.01 403.604 203.01 410.734 Q203.01 417.84 204.815 421.405 Q206.644 424.946 210.255 424.946 Q213.889 424.946 215.695 421.405 Q217.523 417.84 217.523 410.734 Q217.523 403.604 215.695 400.062 Q213.889 396.497 210.255 396.497 M210.255 392.794 Q216.065 392.794 219.121 397.4 Q222.199 401.984 222.199 410.734 Q222.199 419.46 219.121 424.067 Q216.065 428.65 210.255 428.65 Q204.445 428.65 201.366 424.067 Q198.311 419.46 198.311 410.734 Q198.311 401.984 201.366 397.4 Q204.445 392.794 210.255 392.794 Z" fill="#000000" fill-rule="nonzero" fill-opacity="1" /><path clip-path="url(#clip460)" d="M240.417 396.497 Q236.806 396.497 234.977 400.062 Q233.172 403.604 233.172 410.734 Q233.172 417.84 234.977 421.405 Q236.806 424.946 240.417 424.946 Q244.051 424.946 245.857 421.405 Q247.685 417.84 247.685 410.734 Q247.685 403.604 245.857 400.062 Q244.051 396.497 240.417 396.497 M240.417 392.794 Q246.227 392.794 249.283 397.4 Q252.361 401.984 252.361 410.734 Q252.361 419.46 249.283 424.067 Q246.227 428.65 240.417 428.65 Q234.607 428.65 231.528 424.067 Q228.473 419.46 228.473 410.734 Q228.473 401.984 231.528 397.4 Q234.607 392.794 240.417 392.794 Z" fill="#000000" fill-rule="nonzero" fill-opacity="1" /><path clip-path="url(#clip460)" d="M260.625 393.419 L278.981 393.419 L278.981 397.354 L264.907 397.354 L264.907 405.826 Q265.926 405.479 266.945 405.317 Q267.963 405.132 268.982 405.132 Q274.769 405.132 278.148 408.303 Q281.528 411.474 281.528 416.891 Q281.528 422.47 278.056 425.571 Q274.583 428.65 268.264 428.65 Q266.088 428.65 263.82 428.28 Q261.574 427.909 259.167 427.169 L259.167 422.47 Q261.25 423.604 263.472 424.159 Q265.695 424.715 268.171 424.715 Q272.176 424.715 274.514 422.608 Q276.852 420.502 276.852 416.891 Q276.852 413.28 274.514 411.173 Q272.176 409.067 268.171 409.067 Q266.296 409.067 264.421 409.484 Q262.57 409.9 260.625 410.78 L260.625 393.419 Z" fill="#000000" fill-rule="nonzero" fill-opacity="1" /><path clip-path="url(#clip460)" d="M164.028 71.9843 Q160.417 71.9843 158.589 75.5491 Q156.783 79.0907 156.783 86.2203 Q156.783 93.3268 158.589 96.8916 Q160.417 100.433 164.028 100.433 Q167.663 100.433 169.468 96.8916 Q171.297 93.3268 171.297 86.2203 Q171.297 79.0907 169.468 75.5491 Q167.663 71.9843 164.028 71.9843 M164.028 68.2806 Q169.839 68.2806 172.894 72.8871 Q175.973 77.4704 175.973 86.2203 Q175.973 94.9471 172.894 99.5536 Q169.839 104.137 164.028 104.137 Q158.218 104.137 155.14 99.5536 Q152.084 94.9471 152.084 86.2203 Q152.084 77.4704 155.14 72.8871 Q158.218 68.2806 164.028 68.2806 Z" fill="#000000" fill-rule="nonzero" fill-opacity="1" /><path clip-path="url(#clip460)" d="M184.19 97.586 L189.075 97.586 L189.075 103.466 L184.19 103.466 L184.19 97.586 Z" fill="#000000" fill-rule="nonzero" fill-opacity="1" /><path clip-path="url(#clip460)" d="M209.26 71.9843 Q205.649 71.9843 203.82 75.5491 Q202.014 79.0907 202.014 86.2203 Q202.014 93.3268 203.82 96.8916 Q205.649 100.433 209.26 100.433 Q212.894 100.433 214.699 96.8916 Q216.528 93.3268 216.528 86.2203 Q216.528 79.0907 214.699 75.5491 Q212.894 71.9843 209.26 71.9843 M209.26 68.2806 Q215.07 68.2806 218.125 72.8871 Q221.204 77.4704 221.204 86.2203 Q221.204 94.9471 218.125 99.5536 Q215.07 104.137 209.26 104.137 Q203.449 104.137 200.371 99.5536 Q197.315 94.9471 197.315 86.2203 Q197.315 77.4704 200.371 72.8871 Q203.449 68.2806 209.26 68.2806 Z" fill="#000000" fill-rule="nonzero" fill-opacity="1" /><path clip-path="url(#clip460)" d="M230.232 99.5304 L237.871 99.5304 L237.871 73.1648 L229.56 74.8315 L229.56 70.5723 L237.824 68.9056 L242.5 68.9056 L242.5 99.5304 L250.139 99.5304 L250.139 103.466 L230.232 103.466 L230.232 99.5304 Z" fill="#000000" fill-rule="nonzero" fill-opacity="1" /><path clip-path="url(#clip460)" d="M269.583 71.9843 Q265.972 71.9843 264.144 75.5491 Q262.338 79.0907 262.338 86.2203 Q262.338 93.3268 264.144 96.8916 Q265.972 100.433 269.583 100.433 Q273.218 100.433 275.023 96.8916 Q276.852 93.3268 276.852 86.2203 Q276.852 79.0907 275.023 75.5491 Q273.218 71.9843 269.583 71.9843 M269.583 68.2806 Q275.394 68.2806 278.449 72.8871 Q281.528 77.4704 281.528 86.2203 Q281.528 94.9471 278.449 99.5536 Q275.394 104.137 269.583 104.137 Q263.773 104.137 260.695 99.5536 Q257.639 94.9471 257.639 86.2203 Q257.639 77.4704 260.695 72.8871 Q263.773 68.2806 269.583 68.2806 Z" fill="#000000" fill-rule="nonzero" fill-opacity="1" /><path clip-path="url(#clip460)" d="M64.0042 844.702 L16.4842 862.844 L16.4842 856.129 L56.4926 841.074 L16.4842 825.987 L16.4842 819.303 L64.0042 837.413 L64.0042 844.702 Z" fill="#000000" fill-rule="nonzero" fill-opacity="1" /><path clip-path="url(#clip460)" d="M14.5426 798.551 Q21.8632 802.816 29.0246 804.885 Q36.186 806.953 43.5384 806.953 Q50.8908 806.953 58.1159 804.885 Q65.3091 802.784 72.5979 798.551 L72.5979 803.643 Q65.1182 808.418 57.8931 810.805 Q50.668 813.16 43.5384 813.16 Q36.4406 813.16 29.2474 810.805 Q22.0542 808.449 14.5426 803.643 L14.5426 798.551 Z" fill="#000000" fill-rule="nonzero" fill-opacity="1" /><path clip-path="url(#clip460)" d="M33.8307 766.531 Q33.2578 767.518 33.0032 768.696 Q32.7167 769.841 32.7167 771.242 Q32.7167 776.207 35.9632 778.881 Q39.1779 781.522 45.2253 781.522 L64.0042 781.522 L64.0042 787.411 L28.3562 787.411 L28.3562 781.522 L33.8944 781.522 Q30.6479 779.676 29.0883 776.716 Q27.4968 773.756 27.4968 769.523 Q27.4968 768.918 27.5923 768.186 Q27.656 767.454 27.8151 766.563 L33.8307 766.531 Z" fill="#000000" fill-rule="nonzero" fill-opacity="1" /><path clip-path="url(#clip460)" d="M14.5426 761.311 L14.5426 756.219 Q22.0542 751.445 29.2474 749.089 Q36.4406 746.702 43.5384 746.702 Q50.668 746.702 57.8931 749.089 Q65.1182 751.445 72.5979 756.219 L72.5979 761.311 Q65.3091 757.078 58.1159 755.009 Q50.8908 752.909 43.5384 752.909 Q36.186 752.909 29.0246 755.009 Q21.8632 757.078 14.5426 761.311 Z" fill="#000000" fill-rule="nonzero" fill-opacity="1" /><path clip-path="url(#clip460)" d="M14.5426 700.169 Q21.8632 704.434 29.0246 706.503 Q36.186 708.571 43.5384 708.571 Q50.8908 708.571 58.1159 706.503 Q65.3091 704.402 72.5979 700.169 L72.5979 705.261 Q65.1182 710.036 57.8931 712.423 Q50.668 714.778 43.5384 714.778 Q36.4406 714.778 29.2474 712.423 Q22.0542 710.067 14.5426 705.261 L14.5426 700.169 Z" fill="#000000" fill-rule="nonzero" fill-opacity="1" /><path clip-path="url(#clip460)" d="M16.4842 688.551 L16.4842 658.505 L21.895 658.505 L21.895 682.122 L35.9632 682.122 L35.9632 659.492 L41.3741 659.492 L41.3741 682.122 L58.5933 682.122 L58.5933 657.932 L64.0042 657.932 L64.0042 688.551 L16.4842 688.551 Z" fill="#000000" fill-rule="nonzero" fill-opacity="1" /><path clip-path="url(#clip460)" d="M51.9411 631.228 L64.0042 631.228 L64.0042 634.92 L52.0685 634.92 Q49.2357 634.92 47.8353 636.162 Q46.403 637.403 46.403 639.886 Q46.403 642.877 48.1217 644.596 Q49.8086 646.315 52.7369 646.315 L64.0042 646.315 L64.0042 650.039 L36.2815 650.039 L36.2815 646.315 L47.135 646.315 Q45.3526 645.01 44.4614 643.228 Q43.5702 641.413 43.5702 639.058 Q43.5702 635.207 45.7028 633.233 Q47.8353 631.228 51.9411 631.228 Z" fill="#000000" fill-rule="nonzero" fill-opacity="1" /><path clip-path="url(#clip460)" d="M14.5426 622.189 L14.5426 617.096 Q22.0542 612.322 29.2474 609.967 Q36.4406 607.58 43.5384 607.58 Q50.668 607.58 57.8931 609.967 Q65.1182 612.322 72.5979 617.096 L72.5979 622.189 Q65.3091 617.956 58.1159 615.887 Q50.8908 613.786 43.5384 613.786 Q36.186 613.786 29.0246 615.887 Q21.8632 617.956 14.5426 622.189 Z" fill="#000000" fill-rule="nonzero" fill-opacity="1" /><polyline clip-path="url(#clip462)" style="stroke:#000000; stroke-linecap:round; stroke-linejoin:round; stroke-width:4; stroke-opacity:1; fill:none" points="375.129,1384.24 384.729,1384.24 394.329,1384.24 403.929,1384.24 413.529,1384.24 423.129,1384.24 432.729,1384.24 442.33,1384.24 451.93,1384.24 461.53,1384.24 471.13,1384.24 480.73,1384.24 490.33,1384.24 499.93,1384.24 509.53,1384.24 519.131,1384.24 528.731,1384.24 538.331,1384.24 547.931,1384.24 557.531,1384.24 567.131,1384.24 576.731,1384.24 586.331,1384.24 595.932,1384.24 605.532,1384.23 615.132,1384.23 624.732,1384.23 634.332,1384.23 643.932,1384.23 653.532,1384.23 663.133,1384.23 672.733,1384.23 682.333,1384.23 691.933,1384.22 701.533,1384.22 711.133,1384.22 720.733,1384.22 730.333,1384.21 739.934,1384.21 749.534,1384.2 759.134,1384.19 768.734,1384.19 778.334,1384.18 787.934,1384.17 797.534,1384.15 807.135,1384.14 816.735,1384.12 826.335,1384.1 835.935,1384.08 845.535,1384.05 855.135,1384.02 864.735,1383.98 874.335,1383.94 883.936,1383.89 893.536,1383.83 903.136,1383.75 912.736,1383.67 922.336,1383.57 931.936,1383.46 941.536,1383.32 951.137,1383.16 960.737,1382.97 970.337,1382.75 979.937,1382.5 989.537,1382.19 999.137,1381.84 1008.74,1381.42 1018.34,1380.93 1027.94,1380.36 1037.54,1379.69 1047.14,1378.9 1056.74,1377.97 1066.34,1376.88 1075.94,1375.61 1085.54,1374.11 1095.14,1372.35 1104.74,1370.29 1114.34,1367.87 1123.94,1365.03 1133.54,1361.71 1143.14,1357.81 1152.74,1353.25 1162.34,1347.94 1171.94,1341.75 1181.54,1334.59 1191.14,1326.35 1200.74,1316.94 1210.34,1306.3 1219.94,1294.4 1229.54,1281.22 1239.14,1266.78 1248.74,1251.08 1258.34,1234.05 1267.94,1215.55 1277.54,1195.29 1287.14,1172.94 1296.74,1148.24 1306.34,1121.45 1315.94,1094.1 1325.54,1070.52 1335.14,1059.73 1344.74,1070.52 1354.34,1094.1 1363.94,1121.45 1373.54,1148.24 1383.14,1172.94 1392.74,1195.29 1402.34,1215.55 1411.94,1234.05 1421.54,1251.08 1431.14,1266.78 1440.74,1281.22 1450.34,1294.4 1459.94,1306.3 1469.54,1316.94 1479.14,1326.35 1488.74,1334.59 1498.34,1341.75 1507.94,1347.94 1517.54,1353.25 1527.14,1357.81 1536.74,1361.71 1546.34,1365.03 1555.94,1367.87 1565.55,1370.29 1575.15,1372.35 1584.75,1374.11 1594.35,1375.61 1603.95,1376.88 1613.55,1377.97 1623.15,1378.9 1632.75,1379.69 1642.35,1380.36 1651.95,1380.93 1661.55,1381.42 1671.15,1381.84 1680.75,1382.19 1690.35,1382.5 1699.95,1382.75 1709.55,1382.97 1719.15,1383.16 1728.75,1383.32 1738.35,1383.46 1747.95,1383.57 1757.55,1383.67 1767.15,1383.75 1776.75,1383.83 1786.35,1383.89 1795.95,1383.94 1805.55,1383.98 1815.15,1384.02 1824.75,1384.05 1834.35,1384.08 1843.95,1384.1 1853.55,1384.12 1863.15,1384.14 1872.75,1384.15 1882.35,1384.17 1891.95,1384.18 1901.55,1384.19 1911.15,1384.19 1920.75,1384.2 1930.35,1384.21 1939.95,1384.21 1949.55,1384.22 1959.15,1384.22 1968.75,1384.22 1978.35,1384.22 1987.95,1384.23 1997.55,1384.23 2007.15,1384.23 2016.75,1384.23 2026.35,1384.23 2035.95,1384.23 2045.55,1384.23 2055.15,1384.23 2064.75,1384.23 2074.35,1384.24 2083.95,1384.24 2093.55,1384.24 2103.15,1384.24 2112.75,1384.24 2122.35,1384.24 2131.95,1384.24 2141.55,1384.24 2151.15,1384.24 2160.75,1384.24 2170.35,1384.24 2179.95,1384.24 2189.55,1384.24 2199.15,1384.24 2208.75,1384.24 2218.35,1384.24 2227.95,1384.24 2237.55,1384.24 2247.15,1384.24 2256.75,1384.24 2266.35,1384.24 2275.95,1384.24 2285.55,1384.24 2295.16,1384.24 "/>
<polyline clip-path="url(#clip462)" style="stroke:#000000; stroke-linecap:round; stroke-linejoin:round; stroke-width:4; stroke-opacity:1; fill:none" points="375.129,86.1857 384.729,86.1857 394.329,86.1857 403.929,86.1857 413.529,86.1857 423.129,86.1858 432.729,86.1858 442.33,86.1858 451.93,86.1859 461.53,86.1859 471.13,86.186 480.73,86.186 490.33,86.1861 499.93,86.1862 509.53,86.1863 519.131,86.1864 528.731,86.1865 538.331,86.1867 547.931,86.1869 557.531,86.1871 567.131,86.1874 576.731,86.1877 586.331,86.1881 595.932,86.1885 605.532,86.189 615.132,86.1896 624.732,86.1903 634.332,86.1911 643.932,86.192 653.532,86.1932 663.133,86.1945 672.733,86.196 682.333,86.1978 691.933,86.1999 701.533,86.2024 711.133,86.2054 720.733,86.2088 730.333,86.2128 739.934,86.2175 749.534,86.2231 759.134,86.2296 768.734,86.2372 778.334,86.2461 787.934,86.2566 797.534,86.269 807.135,86.2834 816.735,86.3004 826.335,86.3203 835.935,86.3437 845.535,86.3711 855.135,86.4033 864.735,86.4411 874.335,86.4854 883.936,86.5375 893.536,86.5985 903.136,86.6702 912.736,86.7542 922.336,86.8529 931.936,86.9687 941.536,87.1045 951.137,87.264 960.737,87.4511 970.337,87.6707 979.937,87.9284 989.537,88.2308 999.137,88.5856 1008.74,89.002 1018.34,89.4907 1027.94,90.0642 1037.54,90.7372 1047.14,91.5269 1056.74,92.4537 1066.34,93.5413 1075.94,94.8175 1085.54,96.3152 1095.14,98.0726 1104.74,100.135 1114.34,102.554 1123.94,105.391 1133.54,108.717 1143.14,112.613 1152.74,117.169 1162.34,122.487 1171.94,128.672 1181.54,135.833 1191.14,144.074 1200.74,153.481 1210.34,164.121 1219.94,176.026 1229.54,189.204 1239.14,203.643 1248.74,219.347 1258.34,236.373 1267.94,254.877 1277.54,275.131 1287.14,297.482 1296.74,322.179 1306.34,348.977 1315.94,376.321 1325.54,399.903 1335.14,410.699 1344.74,399.903 1354.34,376.321 1363.94,348.977 1373.54,322.179 1383.14,297.482 1392.74,275.131 1402.34,254.877 1411.94,236.373 1421.54,219.347 1431.14,203.643 1440.74,189.204 1450.34,176.026 1459.94,164.121 1469.54,153.481 1479.14,144.074 1488.74,135.833 1498.34,128.672 1507.94,122.487 1517.54,117.169 1527.14,112.613 1536.74,108.717 1546.34,105.391 1555.94,102.554 1565.55,100.135 1575.15,98.0726 1584.75,96.3152 1594.35,94.8175 1603.95,93.5413 1613.55,92.4537 1623.15,91.5269 1632.75,90.7372 1642.35,90.0642 1651.95,89.4907 1661.55,89.002 1671.15,88.5856 1680.75,88.2308 1690.35,87.9284 1699.95,87.6707 1709.55,87.4511 1719.15,87.264 1728.75,87.1045 1738.35,86.9687 1747.95,86.8529 1757.55,86.7542 1767.15,86.6702 1776.75,86.5985 1786.35,86.5375 1795.95,86.4854 1805.55,86.4411 1815.15,86.4033 1824.75,86.3711 1834.35,86.3437 1843.95,86.3203 1853.55,86.3004 1863.15,86.2834 1872.75,86.269 1882.35,86.2566 1891.95,86.2461 1901.55,86.2372 1911.15,86.2296 1920.75,86.2231 1930.35,86.2175 1939.95,86.2128 1949.55,86.2088 1959.15,86.2054 1968.75,86.2024 1978.35,86.1999 1987.95,86.1978 1997.55,86.196 2007.15,86.1945 2016.75,86.1932 2026.35,86.192 2035.95,86.1911 2045.55,86.1903 2055.15,86.1896 2064.75,86.189 2074.35,86.1885 2083.95,86.1881 2093.55,86.1877 2103.15,86.1874 2112.75,86.1871 2122.35,86.1869 2131.95,86.1867 2141.55,86.1865 2151.15,86.1864 2160.75,86.1863 2170.35,86.1862 2179.95,86.1861 2189.55,86.186 2199.15,86.186 2208.75,86.1859 2218.35,86.1859 2227.95,86.1858 2237.55,86.1858 2247.15,86.1858 2256.75,86.1857 2266.35,86.1857 2275.95,86.1857 2285.55,86.1857 2295.16,86.1857 "/>
<polyline clip-path="url(#clip462)" style="stroke:#ff1f5b; stroke-linecap:round; stroke-linejoin:round; stroke-width:4; stroke-opacity:1; fill:none" points="375.129,1384.24 384.729,1384.24 394.329,1384.24 403.929,1384.24 413.529,1384.24 423.129,1384.24 432.729,1384.24 442.33,1384.24 451.93,1384.24 461.53,1384.24 471.13,1384.24 480.73,1384.24 490.33,1384.24 499.93,1384.24 509.53,1384.24 519.131,1384.24 528.731,1384.24 538.331,1384.24 547.931,1384.24 557.531,1384.24 567.131,1384.24 576.731,1384.24 586.331,1384.24 595.932,1384.24 605.532,1384.23 615.132,1384.23 624.732,1384.23 634.332,1384.23 643.932,1384.23 653.532,1384.23 663.133,1384.23 672.733,1384.23 682.333,1384.23 691.933,1384.22 701.533,1384.22 711.133,1384.22 720.733,1384.22 730.333,1384.21 739.934,1384.21 749.534,1384.2 759.134,1384.19 768.734,1384.19 778.334,1384.18 787.934,1384.17 797.534,1384.15 807.135,1384.14 816.735,1384.12 826.335,1384.1 835.935,1384.08 845.535,1384.05 855.135,1384.02 864.735,1383.98 874.335,1383.94 883.936,1383.89 893.536,1383.83 903.136,1383.75 912.736,1383.67 922.336,1383.57 931.936,1383.46 941.536,1383.32 951.137,1383.16 960.737,1382.97 970.337,1382.75 979.937,1382.5 989.537,1382.19 999.137,1381.84 1008.74,1381.42 1018.34,1380.93 1027.94,1380.36 1037.54,1379.69 1047.14,1378.9 1056.74,1377.97 1066.34,1376.88 1075.94,1375.61 1085.54,1374.11 1095.14,1372.35 1104.74,1370.29 1114.34,1367.87 1123.94,1365.03 1133.54,1361.69 1143.14,1357.78 1152.74,1353.19 1162.34,1347.81 1171.94,1341.48 1181.54,1334.07 1191.14,1325.36 1200.74,1315.14 1210.34,1303.16 1219.94,1289.09 1229.54,1272.58 1239.14,1253.2 1248.74,1230.47 1258.34,1203.78 1267.94,1172.47 1277.54,1135.73 1287.14,1092.61 1296.74,1042.01 1306.34,982.632 1315.94,912.948 1325.54,831.175 1335.14,735.212 1344.74,639.249 1354.34,557.475 1363.94,487.792 1373.54,428.412 1383.14,377.812 1392.74,334.693 1402.34,297.95 1411.94,266.639 1421.54,239.958 1431.14,217.222 1440.74,197.847 1450.34,181.337 1459.94,167.269 1469.54,155.28 1479.14,145.064 1488.74,136.358 1498.34,128.94 1507.94,122.619 1517.54,117.232 1527.14,112.641 1536.74,108.73 1546.34,105.396 1555.94,102.556 1565.55,100.136 1575.15,98.0729 1584.75,96.3153 1594.35,94.8176 1603.95,93.5413 1613.55,92.4537 1623.15,91.5269 1632.75,90.7372 1642.35,90.0642 1651.95,89.4907 1661.55,89.002 1671.15,88.5856 1680.75,88.2308 1690.35,87.9284 1699.95,87.6707 1709.55,87.4511 1719.15,87.264 1728.75,87.1045 1738.35,86.9687 1747.95,86.8529 1757.55,86.7542 1767.15,86.6702 1776.75,86.5985 1786.35,86.5375 1795.95,86.4854 1805.55,86.4411 1815.15,86.4033 1824.75,86.3711 1834.35,86.3437 1843.95,86.3203 1853.55,86.3004 1863.15,86.2834 1872.75,86.269 1882.35,86.2566 1891.95,86.2461 1901.55,86.2372 1911.15,86.2296 1920.75,86.2231 1930.35,86.2175 1939.95,86.2128 1949.55,86.2088 1959.15,86.2054 1968.75,86.2024 1978.35,86.1999 1987.95,86.1978 1997.55,86.196 2007.15,86.1945 2016.75,86.1932 2026.35,86.192 2035.95,86.1911 2045.55,86.1903 2055.15,86.1896 2064.75,86.189 2074.35,86.1885 2083.95,86.1881 2093.55,86.1877 2103.15,86.1874 2112.75,86.1871 2122.35,86.1869 2131.95,86.1867 2141.55,86.1865 2151.15,86.1864 2160.75,86.1863 2170.35,86.1862 2179.95,86.1861 2189.55,86.186 2199.15,86.186 2208.75,86.1859 2218.35,86.1859 2227.95,86.1858 2237.55,86.1858 2247.15,86.1858 2256.75,86.1857 2266.35,86.1857 2275.95,86.1857 2285.55,86.1857 2295.16,86.1857 "/>
<polyline clip-path="url(#clip462)" style="stroke:#ff1f5b; stroke-linecap:round; stroke-linejoin:round; stroke-width:4; stroke-opacity:1; fill:none" points="375.129,86.1857 384.729,86.1857 394.329,86.1857 403.929,86.1857 413.529,86.1857 423.129,86.1858 432.729,86.1858 442.33,86.1858 451.93,86.1859 461.53,86.1859 471.13,86.186 480.73,86.186 490.33,86.1861 499.93,86.1862 509.53,86.1863 519.131,86.1864 528.731,86.1865 538.331,86.1867 547.931,86.1869 557.531,86.1871 567.131,86.1874 576.731,86.1877 586.331,86.1881 595.932,86.1885 605.532,86.189 615.132,86.1896 624.732,86.1903 634.332,86.1911 643.932,86.192 653.532,86.1932 663.133,86.1945 672.733,86.196 682.333,86.1978 691.933,86.1999 701.533,86.2024 711.133,86.2054 720.733,86.2088 730.333,86.2128 739.934,86.2175 749.534,86.2231 759.134,86.2296 768.734,86.2372 778.334,86.2461 787.934,86.2566 797.534,86.269 807.135,86.2834 816.735,86.3004 826.335,86.3203 835.935,86.3437 845.535,86.3711 855.135,86.4033 864.735,86.4411 874.335,86.4854 883.936,86.5375 893.536,86.5985 903.136,86.6702 912.736,86.7542 922.336,86.8529 931.936,86.9687 941.536,87.1045 951.137,87.264 960.737,87.4511 970.337,87.6707 979.937,87.9284 989.537,88.2308 999.137,88.5856 1008.74,89.002 1018.34,89.4907 1027.94,90.0642 1037.54,90.7372 1047.14,91.5269 1056.74,92.4537 1066.34,93.5413 1075.94,94.8176 1085.54,96.3153 1095.14,98.0729 1104.74,100.136 1114.34,102.556 1123.94,105.396 1133.54,108.73 1143.14,112.641 1152.74,117.232 1162.34,122.619 1171.94,128.94 1181.54,136.358 1191.14,145.064 1200.74,155.28 1210.34,167.269 1219.94,181.337 1229.54,197.847 1239.14,217.222 1248.74,239.958 1258.34,266.639 1267.94,297.95 1277.54,334.693 1287.14,377.812 1296.74,428.412 1306.34,487.792 1315.94,557.475 1325.54,639.249 1335.14,735.212 1344.74,831.175 1354.34,912.948 1363.94,982.632 1373.54,1042.01 1383.14,1092.61 1392.74,1135.73 1402.34,1172.47 1411.94,1203.78 1421.54,1230.47 1431.14,1253.2 1440.74,1272.58 1450.34,1289.09 1459.94,1303.16 1469.54,1315.14 1479.14,1325.36 1488.74,1334.07 1498.34,1341.48 1507.94,1347.81 1517.54,1353.19 1527.14,1357.78 1536.74,1361.69 1546.34,1365.03 1555.94,1367.87 1565.55,1370.29 1575.15,1372.35 1584.75,1374.11 1594.35,1375.61 1603.95,1376.88 1613.55,1377.97 1623.15,1378.9 1632.75,1379.69 1642.35,1380.36 1651.95,1380.93 1661.55,1381.42 1671.15,1381.84 1680.75,1382.19 1690.35,1382.5 1699.95,1382.75 1709.55,1382.97 1719.15,1383.16 1728.75,1383.32 1738.35,1383.46 1747.95,1383.57 1757.55,1383.67 1767.15,1383.75 1776.75,1383.83 1786.35,1383.89 1795.95,1383.94 1805.55,1383.98 1815.15,1384.02 1824.75,1384.05 1834.35,1384.08 1843.95,1384.1 1853.55,1384.12 1863.15,1384.14 1872.75,1384.15 1882.35,1384.17 1891.95,1384.18 1901.55,1384.19 1911.15,1384.19 1920.75,1384.2 1930.35,1384.21 1939.95,1384.21 1949.55,1384.22 1959.15,1384.22 1968.75,1384.22 1978.35,1384.22 1987.95,1384.23 1997.55,1384.23 2007.15,1384.23 2016.75,1384.23 2026.35,1384.23 2035.95,1384.23 2045.55,1384.23 2055.15,1384.23 2064.75,1384.23 2074.35,1384.24 2083.95,1384.24 2093.55,1384.24 2103.15,1384.24 2112.75,1384.24 2122.35,1384.24 2131.95,1384.24 2141.55,1384.24 2151.15,1384.24 2160.75,1384.24 2170.35,1384.24 2179.95,1384.24 2189.55,1384.24 2199.15,1384.24 2208.75,1384.24 2218.35,1384.24 2227.95,1384.24 2237.55,1384.24 2247.15,1384.24 2256.75,1384.24 2266.35,1384.24 2275.95,1384.24 2285.55,1384.24 2295.16,1384.24 "/>
<polyline clip-path="url(#clip462)" style="stroke:#009ade; stroke-linecap:round; stroke-linejoin:round; stroke-width:4; stroke-opacity:1; fill:none" points="375.129,735.212 384.729,735.212 394.329,735.212 403.929,735.212 413.529,735.212 423.129,735.212 432.729,735.212 442.33,735.212 451.93,735.212 461.53,735.212 471.13,735.212 480.73,735.212 490.33,735.212 499.93,735.212 509.53,735.212 519.131,735.212 528.731,735.212 538.331,735.212 547.931,735.212 557.531,735.212 567.131,735.212 576.731,735.212 586.331,735.212 595.932,735.212 605.532,735.212 615.132,735.212 624.732,735.212 634.332,735.212 643.932,735.212 653.532,735.212 663.133,735.212 672.733,735.212 682.333,735.212 691.933,735.212 701.533,735.212 711.133,735.212 720.733,735.212 730.333,735.212 739.934,735.212 749.534,735.212 759.134,735.212 768.734,735.212 778.334,735.212 787.934,735.212 797.534,735.212 807.135,735.212 816.735,735.212 826.335,735.212 835.935,735.212 845.535,735.212 855.135,735.212 864.735,735.212 874.335,735.212 883.936,735.212 893.536,735.212 903.136,735.212 912.736,735.212 922.336,735.212 931.936,735.212 941.536,735.212 951.137,735.212 960.737,735.212 970.337,735.212 979.937,735.212 989.537,735.211 999.137,735.21 1008.74,735.209 1018.34,735.206 1027.94,735.2 1037.54,735.19 1047.14,735.172 1056.74,735.14 1066.34,735.084 1075.94,734.991 1085.54,734.836 1095.14,734.586 1104.74,734.189 1114.34,733.576 1123.94,732.646 1133.54,731.267 1143.14,729.268 1152.74,726.433 1162.34,722.503 1171.94,717.177 1181.54,710.126 1191.14,701.009 1200.74,689.502 1210.34,675.333 1219.94,658.326 1229.54,638.443 1239.14,615.83 1248.74,590.85 1258.34,564.099 1267.94,536.407 1277.54,508.807 1287.14,482.481 1296.74,458.68 1306.34,438.629 1315.94,423.423 1325.54,413.928 1335.14,410.699 1344.74,413.928 1354.34,423.423 1363.94,438.629 1373.54,458.68 1383.14,482.481 1392.74,508.807 1402.34,536.407 1411.94,564.099 1421.54,590.85 1431.14,615.83 1440.74,638.443 1450.34,658.326 1459.94,675.333 1469.54,689.502 1479.14,701.009 1488.74,710.126 1498.34,717.177 1507.94,722.503 1517.54,726.433 1527.14,729.268 1536.74,731.267 1546.34,732.646 1555.94,733.576 1565.55,734.189 1575.15,734.586 1584.75,734.836 1594.35,734.991 1603.95,735.084 1613.55,735.14 1623.15,735.172 1632.75,735.19 1642.35,735.2 1651.95,735.206 1661.55,735.209 1671.15,735.21 1680.75,735.211 1690.35,735.212 1699.95,735.212 1709.55,735.212 1719.15,735.212 1728.75,735.212 1738.35,735.212 1747.95,735.212 1757.55,735.212 1767.15,735.212 1776.75,735.212 1786.35,735.212 1795.95,735.212 1805.55,735.212 1815.15,735.212 1824.75,735.212 1834.35,735.212 1843.95,735.212 1853.55,735.212 1863.15,735.212 1872.75,735.212 1882.35,735.212 1891.95,735.212 1901.55,735.212 1911.15,735.212 1920.75,735.212 1930.35,735.212 1939.95,735.212 1949.55,735.212 1959.15,735.212 1968.75,735.212 1978.35,735.212 1987.95,735.212 1997.55,735.212 2007.15,735.212 2016.75,735.212 2026.35,735.212 2035.95,735.212 2045.55,735.212 2055.15,735.212 2064.75,735.212 2074.35,735.212 2083.95,735.212 2093.55,735.212 2103.15,735.212 2112.75,735.212 2122.35,735.212 2131.95,735.212 2141.55,735.212 2151.15,735.212 2160.75,735.212 2170.35,735.212 2179.95,735.212 2189.55,735.212 2199.15,735.212 2208.75,735.212 2218.35,735.212 2227.95,735.212 2237.55,735.212 2247.15,735.212 2256.75,735.212 2266.35,735.212 2275.95,735.212 2285.55,735.212 2295.16,735.212 "/>
<path clip-path="url(#clip460)" d="M1677.9 300.469 L2284.91 300.469 L2284.91 93.1086 L1677.9 93.1086  Z" fill="#ffffff" fill-rule="evenodd" fill-opacity="1"/>
<polyline clip-path="url(#clip460)" style="stroke:#000000; stroke-linecap:round; stroke-linejoin:round; stroke-width:4; stroke-opacity:1; fill:none" points="1677.9,300.469 2284.91,300.469 2284.91,93.1086 1677.9,93.1086 1677.9,300.469 "/>
<polyline clip-path="url(#clip460)" style="stroke:#000000; stroke-linecap:round; stroke-linejoin:round; stroke-width:4; stroke-opacity:1; fill:none" points="1700.51,144.949 1836.19,144.949 "/>
<path clip-path="url(#clip460)" d="M1874.64 132.275 L1868.3 149.474 L1881.01 149.474 L1874.64 132.275 M1872 127.669 L1877.3 127.669 L1890.47 162.229 L1885.61 162.229 L1882.47 153.363 L1866.89 153.363 L1863.74 162.229 L1858.81 162.229 L1872 127.669 Z" fill="#000000" fill-rule="nonzero" fill-opacity="1" /><path clip-path="url(#clip460)" d="M1911.56 140.238 L1911.56 126.21 L1915.82 126.21 L1915.82 162.229 L1911.56 162.229 L1911.56 158.34 Q1910.22 160.655 1908.16 161.789 Q1906.12 162.9 1903.25 162.9 Q1898.55 162.9 1895.59 159.15 Q1892.65 155.4 1892.65 149.289 Q1892.65 143.178 1895.59 139.428 Q1898.55 135.678 1903.25 135.678 Q1906.12 135.678 1908.16 136.812 Q1910.22 137.923 1911.56 140.238 M1897.05 149.289 Q1897.05 153.988 1898.97 156.673 Q1900.91 159.335 1904.29 159.335 Q1907.67 159.335 1909.62 156.673 Q1911.56 153.988 1911.56 149.289 Q1911.56 144.59 1909.62 141.928 Q1907.67 139.243 1904.29 139.243 Q1900.91 139.243 1898.97 141.928 Q1897.05 144.59 1897.05 149.289 Z" fill="#000000" fill-rule="nonzero" fill-opacity="1" /><path clip-path="url(#clip460)" d="M1924.59 136.303 L1928.85 136.303 L1928.85 162.229 L1924.59 162.229 L1924.59 136.303 M1924.59 126.21 L1928.85 126.21 L1928.85 131.604 L1924.59 131.604 L1924.59 126.21 Z" fill="#000000" fill-rule="nonzero" fill-opacity="1" /><path clip-path="url(#clip460)" d="M1949.55 149.196 Q1944.39 149.196 1942.4 150.377 Q1940.4 151.557 1940.4 154.405 Q1940.4 156.673 1941.89 158.016 Q1943.39 159.335 1945.96 159.335 Q1949.5 159.335 1951.63 156.835 Q1953.78 154.312 1953.78 150.145 L1953.78 149.196 L1949.55 149.196 M1958.04 147.437 L1958.04 162.229 L1953.78 162.229 L1953.78 158.293 Q1952.33 160.655 1950.15 161.789 Q1947.97 162.9 1944.83 162.9 Q1940.84 162.9 1938.48 160.678 Q1936.15 158.432 1936.15 154.682 Q1936.15 150.307 1939.06 148.085 Q1942 145.863 1947.81 145.863 L1953.78 145.863 L1953.78 145.446 Q1953.78 142.507 1951.84 140.909 Q1949.92 139.289 1946.42 139.289 Q1944.2 139.289 1942.09 139.821 Q1939.99 140.354 1938.04 141.419 L1938.04 137.483 Q1940.38 136.581 1942.58 136.141 Q1944.78 135.678 1946.86 135.678 Q1952.49 135.678 1955.27 138.594 Q1958.04 141.511 1958.04 147.437 Z" fill="#000000" fill-rule="nonzero" fill-opacity="1" /><path clip-path="url(#clip460)" d="M1985.43 149.289 Q1985.43 144.59 1983.48 141.928 Q1981.56 139.243 1978.18 139.243 Q1974.8 139.243 1972.86 141.928 Q1970.94 144.59 1970.94 149.289 Q1970.94 153.988 1972.86 156.673 Q1974.8 159.335 1978.18 159.335 Q1981.56 159.335 1983.48 156.673 Q1985.43 153.988 1985.43 149.289 M1970.94 140.238 Q1972.28 137.923 1974.32 136.812 Q1976.38 135.678 1979.22 135.678 Q1983.95 135.678 1986.89 139.428 Q1989.85 143.178 1989.85 149.289 Q1989.85 155.4 1986.89 159.15 Q1983.95 162.9 1979.22 162.9 Q1976.38 162.9 1974.32 161.789 Q1972.28 160.655 1970.94 158.34 L1970.94 162.229 L1966.65 162.229 L1966.65 126.21 L1970.94 126.21 L1970.94 140.238 Z" fill="#000000" fill-rule="nonzero" fill-opacity="1" /><path clip-path="url(#clip460)" d="M2008.69 149.196 Q2003.53 149.196 2001.54 150.377 Q1999.55 151.557 1999.55 154.405 Q1999.55 156.673 2001.03 158.016 Q2002.53 159.335 2005.1 159.335 Q2008.65 159.335 2010.77 156.835 Q2012.93 154.312 2012.93 150.145 L2012.93 149.196 L2008.69 149.196 M2017.19 147.437 L2017.19 162.229 L2012.93 162.229 L2012.93 158.293 Q2011.47 160.655 2009.29 161.789 Q2007.12 162.9 2003.97 162.9 Q1999.99 162.9 1997.63 160.678 Q1995.29 158.432 1995.29 154.682 Q1995.29 150.307 1998.21 148.085 Q2001.15 145.863 2006.96 145.863 L2012.93 145.863 L2012.93 145.446 Q2012.93 142.507 2010.98 140.909 Q2009.06 139.289 2005.57 139.289 Q2003.34 139.289 2001.24 139.821 Q1999.13 140.354 1997.19 141.419 L1997.19 137.483 Q1999.52 136.581 2001.72 136.141 Q2003.92 135.678 2006.01 135.678 Q2011.63 135.678 2014.41 138.594 Q2017.19 141.511 2017.19 147.437 Z" fill="#000000" fill-rule="nonzero" fill-opacity="1" /><path clip-path="url(#clip460)" d="M2030.17 128.942 L2030.17 136.303 L2038.95 136.303 L2038.95 139.613 L2030.17 139.613 L2030.17 153.687 Q2030.17 156.858 2031.03 157.761 Q2031.91 158.664 2034.57 158.664 L2038.95 158.664 L2038.95 162.229 L2034.57 162.229 Q2029.64 162.229 2027.77 160.4 Q2025.89 158.548 2025.89 153.687 L2025.89 139.613 L2022.77 139.613 L2022.77 136.303 L2025.89 136.303 L2025.89 128.942 L2030.17 128.942 Z" fill="#000000" fill-rule="nonzero" fill-opacity="1" /><path clip-path="url(#clip460)" d="M2044.55 136.303 L2048.81 136.303 L2048.81 162.229 L2044.55 162.229 L2044.55 136.303 M2044.55 126.21 L2048.81 126.21 L2048.81 131.604 L2044.55 131.604 L2044.55 126.21 Z" fill="#000000" fill-rule="nonzero" fill-opacity="1" /><path clip-path="url(#clip460)" d="M2076.38 137.298 L2076.38 141.28 Q2074.57 140.284 2072.74 139.798 Q2070.94 139.289 2069.08 139.289 Q2064.94 139.289 2062.65 141.928 Q2060.36 144.544 2060.36 149.289 Q2060.36 154.034 2062.65 156.673 Q2064.94 159.289 2069.08 159.289 Q2070.94 159.289 2072.74 158.803 Q2074.57 158.293 2076.38 157.298 L2076.38 161.233 Q2074.59 162.067 2072.67 162.483 Q2070.77 162.9 2068.62 162.9 Q2062.77 162.9 2059.32 159.219 Q2055.87 155.539 2055.87 149.289 Q2055.87 142.946 2059.34 139.312 Q2062.83 135.678 2068.9 135.678 Q2070.87 135.678 2072.74 136.095 Q2074.62 136.488 2076.38 137.298 Z" fill="#000000" fill-rule="nonzero" fill-opacity="1" /><polyline clip-path="url(#clip460)" style="stroke:#ff1f5b; stroke-linecap:round; stroke-linejoin:round; stroke-width:4; stroke-opacity:1; fill:none" points="1700.51,196.789 1836.19,196.789 "/>
<path clip-path="url(#clip460)" d="M1863.48 183.351 L1863.48 210.226 L1869.13 210.226 Q1876.28 210.226 1879.6 206.985 Q1882.93 203.745 1882.93 196.754 Q1882.93 189.809 1879.6 186.592 Q1876.28 183.351 1869.13 183.351 L1863.48 183.351 M1858.81 179.509 L1868.41 179.509 Q1878.46 179.509 1883.16 183.698 Q1887.86 187.865 1887.86 196.754 Q1887.86 205.689 1883.14 209.879 Q1878.41 214.069 1868.41 214.069 L1858.81 214.069 L1858.81 179.509 Z" fill="#000000" fill-rule="nonzero" fill-opacity="1" /><path clip-path="url(#clip460)" d="M1895.13 188.143 L1899.39 188.143 L1899.39 214.069 L1895.13 214.069 L1895.13 188.143 M1895.13 178.05 L1899.39 178.05 L1899.39 183.444 L1895.13 183.444 L1895.13 178.05 Z" fill="#000000" fill-rule="nonzero" fill-opacity="1" /><path clip-path="url(#clip460)" d="M1920.08 201.036 Q1914.92 201.036 1912.93 202.217 Q1910.94 203.397 1910.94 206.245 Q1910.94 208.513 1912.42 209.856 Q1913.92 211.175 1916.49 211.175 Q1920.03 211.175 1922.16 208.675 Q1924.32 206.152 1924.32 201.985 L1924.32 201.036 L1920.08 201.036 M1928.58 199.277 L1928.58 214.069 L1924.32 214.069 L1924.32 210.133 Q1922.86 212.495 1920.68 213.629 Q1918.51 214.74 1915.36 214.74 Q1911.38 214.74 1909.02 212.518 Q1906.68 210.272 1906.68 206.522 Q1906.68 202.147 1909.59 199.925 Q1912.53 197.703 1918.34 197.703 L1924.32 197.703 L1924.32 197.286 Q1924.32 194.347 1922.37 192.749 Q1920.45 191.129 1916.96 191.129 Q1914.73 191.129 1912.63 191.661 Q1910.52 192.194 1908.58 193.259 L1908.58 189.323 Q1910.91 188.421 1913.11 187.981 Q1915.31 187.518 1917.4 187.518 Q1923.02 187.518 1925.8 190.434 Q1928.58 193.351 1928.58 199.277 Z" fill="#000000" fill-rule="nonzero" fill-opacity="1" /><path clip-path="url(#clip460)" d="M1955.96 201.129 Q1955.96 196.43 1954.02 193.768 Q1952.09 191.083 1948.72 191.083 Q1945.34 191.083 1943.39 193.768 Q1941.47 196.43 1941.47 201.129 Q1941.47 205.828 1943.39 208.513 Q1945.34 211.175 1948.72 211.175 Q1952.09 211.175 1954.02 208.513 Q1955.96 205.828 1955.96 201.129 M1941.47 192.078 Q1942.81 189.763 1944.85 188.652 Q1946.91 187.518 1949.76 187.518 Q1954.48 187.518 1957.42 191.268 Q1960.38 195.018 1960.38 201.129 Q1960.38 207.24 1957.42 210.99 Q1954.48 214.74 1949.76 214.74 Q1946.91 214.74 1944.85 213.629 Q1942.81 212.495 1941.47 210.18 L1941.47 214.069 L1937.19 214.069 L1937.19 178.05 L1941.47 178.05 L1941.47 192.078 Z" fill="#000000" fill-rule="nonzero" fill-opacity="1" /><path clip-path="url(#clip460)" d="M1979.22 201.036 Q1974.06 201.036 1972.07 202.217 Q1970.08 203.397 1970.08 206.245 Q1970.08 208.513 1971.56 209.856 Q1973.07 211.175 1975.64 211.175 Q1979.18 211.175 1981.31 208.675 Q1983.46 206.152 1983.46 201.985 L1983.46 201.036 L1979.22 201.036 M1987.72 199.277 L1987.72 214.069 L1983.46 214.069 L1983.46 210.133 Q1982 212.495 1979.83 213.629 Q1977.65 214.74 1974.5 214.74 Q1970.52 214.74 1968.16 212.518 Q1965.82 210.272 1965.82 206.522 Q1965.82 202.147 1968.74 199.925 Q1971.68 197.703 1977.49 197.703 L1983.46 197.703 L1983.46 197.286 Q1983.46 194.347 1981.52 192.749 Q1979.59 191.129 1976.1 191.129 Q1973.88 191.129 1971.77 191.661 Q1969.66 192.194 1967.72 193.259 L1967.72 189.323 Q1970.06 188.421 1972.26 187.981 Q1974.46 187.518 1976.54 187.518 Q1982.16 187.518 1984.94 190.434 Q1987.72 193.351 1987.72 199.277 Z" fill="#000000" fill-rule="nonzero" fill-opacity="1" /><path clip-path="url(#clip460)" d="M2000.71 180.782 L2000.71 188.143 L2009.48 188.143 L2009.48 191.453 L2000.71 191.453 L2000.71 205.527 Q2000.71 208.698 2001.56 209.601 Q2002.44 210.504 2005.1 210.504 L2009.48 210.504 L2009.48 214.069 L2005.1 214.069 Q2000.17 214.069 1998.3 212.24 Q1996.42 210.388 1996.42 205.527 L1996.42 191.453 L1993.3 191.453 L1993.3 188.143 L1996.42 188.143 L1996.42 180.782 L2000.71 180.782 Z" fill="#000000" fill-rule="nonzero" fill-opacity="1" /><path clip-path="url(#clip460)" d="M2015.08 188.143 L2019.34 188.143 L2019.34 214.069 L2015.08 214.069 L2015.08 188.143 M2015.08 178.05 L2019.34 178.05 L2019.34 183.444 L2015.08 183.444 L2015.08 178.05 Z" fill="#000000" fill-rule="nonzero" fill-opacity="1" /><path clip-path="url(#clip460)" d="M2046.91 189.138 L2046.91 193.12 Q2045.1 192.124 2043.27 191.638 Q2041.47 191.129 2039.62 191.129 Q2035.47 191.129 2033.18 193.768 Q2030.89 196.384 2030.89 201.129 Q2030.89 205.874 2033.18 208.513 Q2035.47 211.129 2039.62 211.129 Q2041.47 211.129 2043.27 210.643 Q2045.1 210.133 2046.91 209.138 L2046.91 213.073 Q2045.13 213.907 2043.21 214.323 Q2041.31 214.74 2039.15 214.74 Q2033.3 214.74 2029.85 211.059 Q2026.4 207.379 2026.4 201.129 Q2026.4 194.786 2029.87 191.152 Q2033.37 187.518 2039.43 187.518 Q2041.4 187.518 2043.27 187.935 Q2045.15 188.328 2046.91 189.138 Z" fill="#000000" fill-rule="nonzero" fill-opacity="1" /><polyline clip-path="url(#clip460)" style="stroke:#009ade; stroke-linecap:round; stroke-linejoin:round; stroke-width:4; stroke-opacity:1; fill:none" points="1700.51,248.629 1836.19,248.629 "/>
<path clip-path="url(#clip460)" d="M1863.48 235.191 L1863.48 262.066 L1869.13 262.066 Q1876.28 262.066 1879.6 258.825 Q1882.93 255.585 1882.93 248.594 Q1882.93 241.649 1879.6 238.432 Q1876.28 235.191 1869.13 235.191 L1863.48 235.191 M1858.81 231.349 L1868.41 231.349 Q1878.46 231.349 1883.16 235.538 Q1887.86 239.705 1887.86 248.594 Q1887.86 257.529 1883.14 261.719 Q1878.41 265.909 1868.41 265.909 L1858.81 265.909 L1858.81 231.349 Z" fill="#000000" fill-rule="nonzero" fill-opacity="1" /><path clip-path="url(#clip460)" d="M1895.13 239.983 L1899.39 239.983 L1899.39 265.909 L1895.13 265.909 L1895.13 239.983 M1895.13 229.89 L1899.39 229.89 L1899.39 235.284 L1895.13 235.284 L1895.13 229.89 Z" fill="#000000" fill-rule="nonzero" fill-opacity="1" /><path clip-path="url(#clip460)" d="M1920.08 252.876 Q1914.92 252.876 1912.93 254.057 Q1910.94 255.237 1910.94 258.085 Q1910.94 260.353 1912.42 261.696 Q1913.92 263.015 1916.49 263.015 Q1920.03 263.015 1922.16 260.515 Q1924.32 257.992 1924.32 253.825 L1924.32 252.876 L1920.08 252.876 M1928.58 251.117 L1928.58 265.909 L1924.32 265.909 L1924.32 261.973 Q1922.86 264.335 1920.68 265.469 Q1918.51 266.58 1915.36 266.58 Q1911.38 266.58 1909.02 264.358 Q1906.68 262.112 1906.68 258.362 Q1906.68 253.987 1909.59 251.765 Q1912.53 249.543 1918.34 249.543 L1924.32 249.543 L1924.32 249.126 Q1924.32 246.187 1922.37 244.589 Q1920.45 242.969 1916.96 242.969 Q1914.73 242.969 1912.63 243.501 Q1910.52 244.034 1908.58 245.099 L1908.58 241.163 Q1910.91 240.261 1913.11 239.821 Q1915.31 239.358 1917.4 239.358 Q1923.02 239.358 1925.8 242.274 Q1928.58 245.191 1928.58 251.117 Z" fill="#000000" fill-rule="nonzero" fill-opacity="1" /><path clip-path="url(#clip460)" d="M1955.96 252.969 Q1955.96 248.27 1954.02 245.608 Q1952.09 242.923 1948.72 242.923 Q1945.34 242.923 1943.39 245.608 Q1941.47 248.27 1941.47 252.969 Q1941.47 257.668 1943.39 260.353 Q1945.34 263.015 1948.72 263.015 Q1952.09 263.015 1954.02 260.353 Q1955.96 257.668 1955.96 252.969 M1941.47 243.918 Q1942.81 241.603 1944.85 240.492 Q1946.91 239.358 1949.76 239.358 Q1954.48 239.358 1957.42 243.108 Q1960.38 246.858 1960.38 252.969 Q1960.38 259.08 1957.42 262.83 Q1954.48 266.58 1949.76 266.58 Q1946.91 266.58 1944.85 265.469 Q1942.81 264.335 1941.47 262.02 L1941.47 265.909 L1937.19 265.909 L1937.19 229.89 L1941.47 229.89 L1941.47 243.918 Z" fill="#000000" fill-rule="nonzero" fill-opacity="1" /><path clip-path="url(#clip460)" d="M1979.22 252.876 Q1974.06 252.876 1972.07 254.057 Q1970.08 255.237 1970.08 258.085 Q1970.08 260.353 1971.56 261.696 Q1973.07 263.015 1975.64 263.015 Q1979.18 263.015 1981.31 260.515 Q1983.46 257.992 1983.46 253.825 L1983.46 252.876 L1979.22 252.876 M1987.72 251.117 L1987.72 265.909 L1983.46 265.909 L1983.46 261.973 Q1982 264.335 1979.83 265.469 Q1977.65 266.58 1974.5 266.58 Q1970.52 266.58 1968.16 264.358 Q1965.82 262.112 1965.82 258.362 Q1965.82 253.987 1968.74 251.765 Q1971.68 249.543 1977.49 249.543 L1983.46 249.543 L1983.46 249.126 Q1983.46 246.187 1981.52 244.589 Q1979.59 242.969 1976.1 242.969 Q1973.88 242.969 1971.77 243.501 Q1969.66 244.034 1967.72 245.099 L1967.72 241.163 Q1970.06 240.261 1972.26 239.821 Q1974.46 239.358 1976.54 239.358 Q1982.16 239.358 1984.94 242.274 Q1987.72 245.191 1987.72 251.117 Z" fill="#000000" fill-rule="nonzero" fill-opacity="1" /><path clip-path="url(#clip460)" d="M2000.71 232.622 L2000.71 239.983 L2009.48 239.983 L2009.48 243.293 L2000.71 243.293 L2000.71 257.367 Q2000.71 260.538 2001.56 261.441 Q2002.44 262.344 2005.1 262.344 L2009.48 262.344 L2009.48 265.909 L2005.1 265.909 Q2000.17 265.909 1998.3 264.08 Q1996.42 262.228 1996.42 257.367 L1996.42 243.293 L1993.3 243.293 L1993.3 239.983 L1996.42 239.983 L1996.42 232.622 L2000.71 232.622 Z" fill="#000000" fill-rule="nonzero" fill-opacity="1" /><path clip-path="url(#clip460)" d="M2015.08 239.983 L2019.34 239.983 L2019.34 265.909 L2015.08 265.909 L2015.08 239.983 M2015.08 229.89 L2019.34 229.89 L2019.34 235.284 L2015.08 235.284 L2015.08 229.89 Z" fill="#000000" fill-rule="nonzero" fill-opacity="1" /><path clip-path="url(#clip460)" d="M2046.91 240.978 L2046.91 244.96 Q2045.1 243.964 2043.27 243.478 Q2041.47 242.969 2039.62 242.969 Q2035.47 242.969 2033.18 245.608 Q2030.89 248.224 2030.89 252.969 Q2030.89 257.714 2033.18 260.353 Q2035.47 262.969 2039.62 262.969 Q2041.47 262.969 2043.27 262.483 Q2045.1 261.973 2046.91 260.978 L2046.91 264.913 Q2045.13 265.747 2043.21 266.163 Q2041.31 266.58 2039.15 266.58 Q2033.3 266.58 2029.85 262.899 Q2026.4 259.219 2026.4 252.969 Q2026.4 246.626 2029.87 242.992 Q2033.37 239.358 2039.43 239.358 Q2041.4 239.358 2043.27 239.775 Q2045.15 240.168 2046.91 240.978 Z" fill="#000000" fill-rule="nonzero" fill-opacity="1" /><path clip-path="url(#clip460)" d="M2088.04 240.978 L2088.04 244.96 Q2086.24 243.964 2084.41 243.478 Q2082.6 242.969 2080.75 242.969 Q2076.61 242.969 2074.32 245.608 Q2072.02 248.224 2072.02 252.969 Q2072.02 257.714 2074.32 260.353 Q2076.61 262.969 2080.75 262.969 Q2082.6 262.969 2084.41 262.483 Q2086.24 261.973 2088.04 260.978 L2088.04 264.913 Q2086.26 265.747 2084.34 266.163 Q2082.44 266.58 2080.29 266.58 Q2074.43 266.58 2070.98 262.899 Q2067.53 259.219 2067.53 252.969 Q2067.53 246.626 2071.01 242.992 Q2074.5 239.358 2080.57 239.358 Q2082.53 239.358 2084.41 239.775 Q2086.28 240.168 2088.04 240.978 Z" fill="#000000" fill-rule="nonzero" fill-opacity="1" /><path clip-path="url(#clip460)" d="M2105.5 242.969 Q2102.07 242.969 2100.08 245.654 Q2098.09 248.316 2098.09 252.969 Q2098.09 257.622 2100.06 260.307 Q2102.05 262.969 2105.5 262.969 Q2108.9 262.969 2110.89 260.284 Q2112.88 257.598 2112.88 252.969 Q2112.88 248.362 2110.89 245.677 Q2108.9 242.969 2105.5 242.969 M2105.5 239.358 Q2111.05 239.358 2114.22 242.969 Q2117.39 246.58 2117.39 252.969 Q2117.39 259.335 2114.22 262.969 Q2111.05 266.58 2105.5 266.58 Q2099.92 266.58 2096.75 262.969 Q2093.6 259.335 2093.6 252.969 Q2093.6 246.58 2096.75 242.969 Q2099.92 239.358 2105.5 239.358 Z" fill="#000000" fill-rule="nonzero" fill-opacity="1" /><path clip-path="url(#clip460)" d="M2124.02 255.677 L2124.02 239.983 L2128.27 239.983 L2128.27 255.515 Q2128.27 259.196 2129.71 261.048 Q2131.14 262.876 2134.01 262.876 Q2137.46 262.876 2139.45 260.677 Q2141.47 258.478 2141.47 254.682 L2141.47 239.983 L2145.73 239.983 L2145.73 265.909 L2141.47 265.909 L2141.47 261.927 Q2139.92 264.288 2137.86 265.446 Q2135.82 266.58 2133.11 266.58 Q2128.64 266.58 2126.33 263.802 Q2124.02 261.024 2124.02 255.677 M2134.73 239.358 L2134.73 239.358 Z" fill="#000000" fill-rule="nonzero" fill-opacity="1" /><path clip-path="url(#clip460)" d="M2158.62 262.02 L2158.62 275.77 L2154.34 275.77 L2154.34 239.983 L2158.62 239.983 L2158.62 243.918 Q2159.96 241.603 2162 240.492 Q2164.06 239.358 2166.91 239.358 Q2171.63 239.358 2174.57 243.108 Q2177.53 246.858 2177.53 252.969 Q2177.53 259.08 2174.57 262.83 Q2171.63 266.58 2166.91 266.58 Q2164.06 266.58 2162 265.469 Q2159.96 264.335 2158.62 262.02 M2173.11 252.969 Q2173.11 248.27 2171.17 245.608 Q2169.25 242.923 2165.87 242.923 Q2162.49 242.923 2160.54 245.608 Q2158.62 248.27 2158.62 252.969 Q2158.62 257.668 2160.54 260.353 Q2162.49 263.015 2165.87 263.015 Q2169.25 263.015 2171.17 260.353 Q2173.11 257.668 2173.11 252.969 Z" fill="#000000" fill-rule="nonzero" fill-opacity="1" /><path clip-path="url(#clip460)" d="M2184.59 229.89 L2188.85 229.89 L2188.85 265.909 L2184.59 265.909 L2184.59 229.89 Z" fill="#000000" fill-rule="nonzero" fill-opacity="1" /><path clip-path="url(#clip460)" d="M2197.76 239.983 L2202.02 239.983 L2202.02 265.909 L2197.76 265.909 L2197.76 239.983 M2197.76 229.89 L2202.02 229.89 L2202.02 235.284 L2197.76 235.284 L2197.76 229.89 Z" fill="#000000" fill-rule="nonzero" fill-opacity="1" /><path clip-path="url(#clip460)" d="M2232.49 250.261 L2232.49 265.909 L2228.23 265.909 L2228.23 250.399 Q2228.23 246.719 2226.79 244.89 Q2225.36 243.062 2222.49 243.062 Q2219.04 243.062 2217.05 245.261 Q2215.06 247.46 2215.06 251.256 L2215.06 265.909 L2210.77 265.909 L2210.77 239.983 L2215.06 239.983 L2215.06 244.011 Q2216.58 241.673 2218.64 240.515 Q2220.73 239.358 2223.44 239.358 Q2227.9 239.358 2230.2 242.136 Q2232.49 244.89 2232.49 250.261 Z" fill="#000000" fill-rule="nonzero" fill-opacity="1" /><path clip-path="url(#clip460)" d="M2258.04 252.645 Q2258.04 248.015 2256.12 245.469 Q2254.22 242.923 2250.77 242.923 Q2247.35 242.923 2245.43 245.469 Q2243.53 248.015 2243.53 252.645 Q2243.53 257.251 2245.43 259.798 Q2247.35 262.344 2250.77 262.344 Q2254.22 262.344 2256.12 259.798 Q2258.04 257.251 2258.04 252.645 M2262.3 262.691 Q2262.3 269.311 2259.36 272.529 Q2256.42 275.77 2250.36 275.77 Q2248.11 275.77 2246.12 275.422 Q2244.13 275.098 2242.26 274.404 L2242.26 270.26 Q2244.13 271.279 2245.96 271.765 Q2247.79 272.251 2249.69 272.251 Q2253.88 272.251 2255.96 270.052 Q2258.04 267.876 2258.04 263.455 L2258.04 261.348 Q2256.72 263.64 2254.66 264.774 Q2252.6 265.909 2249.73 265.909 Q2244.96 265.909 2242.05 262.274 Q2239.13 258.64 2239.13 252.645 Q2239.13 246.626 2242.05 242.992 Q2244.96 239.358 2249.73 239.358 Q2252.6 239.358 2254.66 240.492 Q2256.72 241.626 2258.04 243.918 L2258.04 239.983 L2262.3 239.983 L2262.3 262.691 Z" fill="#000000" fill-rule="nonzero" fill-opacity="1" /></svg>
