<?xml version="1.0" encoding="utf-8"?>
<svg xmlns="http://www.w3.org/2000/svg" xmlns:xlink="http://www.w3.org/1999/xlink" width="600" height="400" viewBox="0 0 2400 1600">
<defs>
  <clipPath id="clip200">
    <rect x="0" y="0" width="2400" height="1600"/>
  </clipPath>
</defs>
<path clip-path="url(#clip200)" d="M0 1600 L2400 1600 L2400 8.88178e-14 L0 8.88178e-14  Z" fill="#ffffff" fill-rule="evenodd" fill-opacity="1"/>
<defs>
  <clipPath id="clip201">
    <rect x="480" y="0" width="1681" height="1600"/>
  </clipPath>
</defs>
<path clip-path="url(#clip200)" d="M210.376 1423.18 L2352.76 1423.18 L2352.76 47.2441 L210.376 47.2441  Z" fill="#ffffff" fill-rule="evenodd" fill-opacity="1"/>
<defs>
  <clipPath id="clip202">
    <rect x="210" y="47" width="2143" height="1377"/>
  </clipPath>
</defs>
<polyline clip-path="url(#clip202)" style="stroke:#000000; stroke-linecap:round; stroke-linejoin:round; stroke-width:2; stroke-opacity:0.1; fill:none" points="473.12,1423.18 473.12,47.2441 "/>
<polyline clip-path="url(#clip202)" style="stroke:#000000; stroke-linecap:round; stroke-linejoin:round; stroke-width:2; stroke-opacity:0.1; fill:none" points="877.343,1423.18 877.343,47.2441 "/>
<polyline clip-path="url(#clip202)" style="stroke:#000000; stroke-linecap:round; stroke-linejoin:round; stroke-width:2; stroke-opacity:0.1; fill:none" points="1281.57,1423.18 1281.57,47.2441 "/>
<polyline clip-path="url(#clip202)" style="stroke:#000000; stroke-linecap:round; stroke-linejoin:round; stroke-width:2; stroke-opacity:0.1; fill:none" points="1685.79,1423.18 1685.79,47.2441 "/>
<polyline clip-path="url(#clip202)" style="stroke:#000000; stroke-linecap:round; stroke-linejoin:round; stroke-width:2; stroke-opacity:0.1; fill:none" points="2090.01,1423.18 2090.01,47.2441 "/>
<polyline clip-path="url(#clip200)" style="stroke:#000000; stroke-linecap:round; stroke-linejoin:round; stroke-width:4; stroke-opacity:1; fill:none" points="210.376,1423.18 2352.76,1423.18 "/>
<polyline clip-path="url(#clip200)" style="stroke:#000000; stroke-linecap:round; stroke-linejoin:round; stroke-width:4; stroke-opacity:1; fill:none" points="473.12,1423.18 473.12,1404.28 "/>
<polyline clip-path="url(#clip200)" style="stroke:#000000; stroke-linecap:round; stroke-linejoin:round; stroke-width:4; stroke-opacity:1; fill:none" points="877.343,1423.18 877.343,1404.28 "/>
<polyline clip-path="url(#clip200)" style="stroke:#000000; stroke-linecap:round; stroke-linejoin:round; stroke-width:4; stroke-opacity:1; fill:none" points="1281.57,1423.18 1281.57,1404.28 "/>
<polyline clip-path="url(#clip200)" style="stroke:#000000; stroke-linecap:round; stroke-linejoin:round; stroke-width:4; stroke-opacity:1; fill:none" points="1685.79,1423.18 1685.79,1404.28 "/>
<polyline clip-path="url(#clip200)" style="stroke:#000000; stroke-linecap:round; stroke-linejoin:round; stroke-width:4; stroke-opacity:1; fill:none" points="2090.01,1423.18 2090.01,1404.28 "/>
<path clip-path="url(#clip200)" d="M442.021 1468.75 L471.697 1468.75 L471.697 1472.69 L442.021 1472.69 L442.021 1468.75 Z" fill="#000000" fill-rule="nonzero" fill-opacity="1" /><path clip-path="url(#clip200)" d="M494.636 1455.09 L482.831 1473.54 L494.636 1473.54 L494.636 1455.09 M493.41 1451.02 L499.289 1451.02 L499.289 1473.54 L504.22 1473.54 L504.22 1477.43 L499.289 1477.43 L499.289 1485.58 L494.636 1485.58 L494.636 1477.43 L479.035 1477.43 L479.035 1472.92 L493.41 1451.02 Z" fill="#000000" fill-rule="nonzero" fill-opacity="1" /><path clip-path="url(#clip200)" d="M847.285 1468.75 L876.961 1468.75 L876.961 1472.69 L847.285 1472.69 L847.285 1468.75 Z" fill="#000000" fill-rule="nonzero" fill-opacity="1" /><path clip-path="url(#clip200)" d="M891.081 1481.64 L907.401 1481.64 L907.401 1485.58 L885.456 1485.58 L885.456 1481.64 Q888.118 1478.89 892.702 1474.26 Q897.308 1469.61 898.489 1468.27 Q900.734 1465.74 901.614 1464.01 Q902.517 1462.25 902.517 1460.56 Q902.517 1457.8 900.572 1456.07 Q898.651 1454.33 895.549 1454.33 Q893.35 1454.33 890.896 1455.09 Q888.466 1455.86 885.688 1457.41 L885.688 1452.69 Q888.512 1451.55 890.966 1450.97 Q893.419 1450.39 895.456 1450.39 Q900.827 1450.39 904.021 1453.08 Q907.216 1455.77 907.216 1460.26 Q907.216 1462.39 906.405 1464.31 Q905.618 1466.2 903.512 1468.8 Q902.933 1469.47 899.831 1472.69 Q896.73 1475.88 891.081 1481.64 Z" fill="#000000" fill-rule="nonzero" fill-opacity="1" /><path clip-path="url(#clip200)" d="M1281.57 1454.1 Q1277.95 1454.1 1276.13 1457.66 Q1274.32 1461.2 1274.32 1468.33 Q1274.32 1475.44 1276.13 1479.01 Q1277.95 1482.55 1281.57 1482.55 Q1285.2 1482.55 1287.01 1479.01 Q1288.83 1475.44 1288.83 1468.33 Q1288.83 1461.2 1287.01 1457.66 Q1285.2 1454.1 1281.57 1454.1 M1281.57 1450.39 Q1287.38 1450.39 1290.43 1455 Q1293.51 1459.58 1293.51 1468.33 Q1293.51 1477.06 1290.43 1481.67 Q1287.38 1486.25 1281.57 1486.25 Q1275.76 1486.25 1272.68 1481.67 Q1269.62 1477.06 1269.62 1468.33 Q1269.62 1459.58 1272.68 1455 Q1275.76 1450.39 1281.57 1450.39 Z" fill="#000000" fill-rule="nonzero" fill-opacity="1" /><path clip-path="url(#clip200)" d="M1680.44 1481.64 L1696.76 1481.64 L1696.76 1485.58 L1674.82 1485.58 L1674.82 1481.64 Q1677.48 1478.89 1682.06 1474.26 Q1686.67 1469.61 1687.85 1468.27 Q1690.09 1465.74 1690.97 1464.01 Q1691.88 1462.25 1691.88 1460.56 Q1691.88 1457.8 1689.93 1456.07 Q1688.01 1454.33 1684.91 1454.33 Q1682.71 1454.33 1680.26 1455.09 Q1677.83 1455.86 1675.05 1457.41 L1675.05 1452.69 Q1677.87 1451.55 1680.33 1450.97 Q1682.78 1450.39 1684.82 1450.39 Q1690.19 1450.39 1693.38 1453.08 Q1696.58 1455.77 1696.58 1460.26 Q1696.58 1462.39 1695.77 1464.31 Q1694.98 1466.2 1692.87 1468.8 Q1692.29 1469.47 1689.19 1472.69 Q1686.09 1475.88 1680.44 1481.64 Z" fill="#000000" fill-rule="nonzero" fill-opacity="1" /><path clip-path="url(#clip200)" d="M2093.02 1455.09 L2081.21 1473.54 L2093.02 1473.54 L2093.02 1455.09 M2091.79 1451.02 L2097.67 1451.02 L2097.67 1473.54 L2102.6 1473.54 L2102.6 1477.43 L2097.67 1477.43 L2097.67 1485.58 L2093.02 1485.58 L2093.02 1477.43 L2077.42 1477.43 L2077.42 1472.92 L2091.79 1451.02 Z" fill="#000000" fill-rule="nonzero" fill-opacity="1" /><path clip-path="url(#clip200)" d="M1225.98 1537.87 Q1224.99 1537.3 1223.81 1537.04 Q1222.67 1536.76 1221.27 1536.76 Q1216.3 1536.76 1213.63 1540 Q1210.99 1543.22 1210.99 1549.27 L1210.99 1568.04 L1205.1 1568.04 L1205.1 1532.4 L1210.99 1532.4 L1210.99 1537.93 Q1212.83 1534.69 1215.79 1533.13 Q1218.75 1531.54 1222.99 1531.54 Q1223.59 1531.54 1224.32 1531.63 Q1225.05 1531.7 1225.95 1531.85 L1225.98 1537.87 Z" fill="#000000" fill-rule="nonzero" fill-opacity="1" /><path clip-path="url(#clip200)" d="M1266.91 1518.58 Q1262.64 1525.9 1260.57 1533.06 Q1258.51 1540.23 1258.51 1547.58 Q1258.51 1554.93 1260.57 1562.16 Q1262.68 1569.35 1266.91 1576.64 L1261.82 1576.64 Q1257.04 1569.16 1254.65 1561.93 Q1252.3 1554.71 1252.3 1547.58 Q1252.3 1540.48 1254.65 1533.29 Q1257.01 1526.09 1261.82 1518.58 L1266.91 1518.58 Z" fill="#000000" fill-rule="nonzero" fill-opacity="1" /><path clip-path="url(#clip200)" d="M1294.47 1550.12 Q1287.37 1550.12 1284.64 1551.75 Q1281.9 1553.37 1281.9 1557.29 Q1281.9 1560.4 1283.94 1562.25 Q1286.01 1564.07 1289.54 1564.07 Q1294.41 1564.07 1297.34 1560.63 Q1300.3 1557.16 1300.3 1551.43 L1300.3 1550.12 L1294.47 1550.12 M1306.15 1547.71 L1306.15 1568.04 L1300.3 1568.04 L1300.3 1562.63 Q1298.29 1565.88 1295.3 1567.44 Q1292.31 1568.97 1287.98 1568.97 Q1282.5 1568.97 1279.26 1565.91 Q1276.04 1562.82 1276.04 1557.67 Q1276.04 1551.65 1280.05 1548.6 Q1284.1 1545.54 1292.09 1545.54 L1300.3 1545.54 L1300.3 1544.97 Q1300.3 1540.93 1297.62 1538.73 Q1294.98 1536.5 1290.18 1536.5 Q1287.12 1536.5 1284.22 1537.23 Q1281.33 1537.97 1278.65 1539.43 L1278.65 1534.02 Q1281.87 1532.78 1284.89 1532.17 Q1287.92 1531.54 1290.78 1531.54 Q1298.51 1531.54 1302.33 1535.55 Q1306.15 1539.56 1306.15 1547.71 Z" fill="#000000" fill-rule="nonzero" fill-opacity="1" /><path clip-path="url(#clip200)" d="M1330.22 1546.5 Q1328.62 1543.76 1325.41 1543.76 Q1322.19 1543.76 1320.6 1546.5 Q1318.98 1549.23 1318.98 1554.71 Q1318.98 1560.21 1320.6 1562.95 Q1322.19 1565.69 1325.41 1565.69 Q1328.62 1565.69 1330.22 1562.95 Q1331.84 1560.21 1331.84 1554.71 Q1331.84 1549.23 1330.22 1546.5 M1325.41 1540.93 Q1330.53 1540.93 1333.24 1544.46 Q1335.94 1547.99 1335.94 1554.71 Q1335.94 1561.46 1333.24 1564.99 Q1330.53 1568.52 1325.41 1568.52 Q1320.25 1568.52 1317.55 1564.99 Q1314.84 1561.46 1314.84 1554.71 Q1314.84 1547.99 1317.55 1544.46 Q1320.25 1540.93 1325.41 1540.93 Z" fill="#000000" fill-rule="nonzero" fill-opacity="1" /><path clip-path="url(#clip200)" d="M1343.42 1518.58 L1348.52 1518.58 Q1353.29 1526.09 1355.65 1533.29 Q1358.03 1540.48 1358.03 1547.58 Q1358.03 1554.71 1355.65 1561.93 Q1353.29 1569.16 1348.52 1576.64 L1343.42 1576.64 Q1347.66 1569.35 1349.73 1562.16 Q1351.83 1554.93 1351.83 1547.58 Q1351.83 1540.23 1349.73 1533.06 Q1347.66 1525.9 1343.42 1518.58 Z" fill="#000000" fill-rule="nonzero" fill-opacity="1" /><polyline clip-path="url(#clip202)" style="stroke:#000000; stroke-linecap:round; stroke-linejoin:round; stroke-width:2; stroke-opacity:0.1; fill:none" points="210.376,1384.24 2352.76,1384.24 "/>
<polyline clip-path="url(#clip202)" style="stroke:#000000; stroke-linecap:round; stroke-linejoin:round; stroke-width:2; stroke-opacity:0.1; fill:none" points="210.376,1013.37 2352.76,1013.37 "/>
<polyline clip-path="url(#clip202)" style="stroke:#000000; stroke-linecap:round; stroke-linejoin:round; stroke-width:2; stroke-opacity:0.1; fill:none" points="210.376,642.494 2352.76,642.494 "/>
<polyline clip-path="url(#clip202)" style="stroke:#000000; stroke-linecap:round; stroke-linejoin:round; stroke-width:2; stroke-opacity:0.1; fill:none" points="210.376,271.622 2352.76,271.622 "/>
<polyline clip-path="url(#clip200)" style="stroke:#000000; stroke-linecap:round; stroke-linejoin:round; stroke-width:4; stroke-opacity:1; fill:none" points="210.376,1423.18 210.376,47.2441 "/>
<polyline clip-path="url(#clip200)" style="stroke:#000000; stroke-linecap:round; stroke-linejoin:round; stroke-width:4; stroke-opacity:1; fill:none" points="210.376,1384.24 229.273,1384.24 "/>
<polyline clip-path="url(#clip200)" style="stroke:#000000; stroke-linecap:round; stroke-linejoin:round; stroke-width:4; stroke-opacity:1; fill:none" points="210.376,1013.37 229.273,1013.37 "/>
<polyline clip-path="url(#clip200)" style="stroke:#000000; stroke-linecap:round; stroke-linejoin:round; stroke-width:4; stroke-opacity:1; fill:none" points="210.376,642.494 229.273,642.494 "/>
<polyline clip-path="url(#clip200)" style="stroke:#000000; stroke-linecap:round; stroke-linejoin:round; stroke-width:4; stroke-opacity:1; fill:none" points="210.376,271.622 229.273,271.622 "/>
<path clip-path="url(#clip200)" d="M114.26 1384.69 L143.936 1384.69 L143.936 1388.62 L114.26 1388.62 L114.26 1384.69 Z" fill="#000000" fill-rule="nonzero" fill-opacity="1" /><path clip-path="url(#clip200)" d="M158.056 1397.58 L174.376 1397.58 L174.376 1401.52 L152.431 1401.52 L152.431 1397.58 Q155.093 1394.83 159.677 1390.2 Q164.283 1385.55 165.464 1384.2 Q167.709 1381.68 168.589 1379.94 Q169.491 1378.19 169.491 1376.5 Q169.491 1373.74 167.547 1372 Q165.626 1370.27 162.524 1370.27 Q160.325 1370.27 157.871 1371.03 Q155.44 1371.8 152.663 1373.35 L152.663 1368.62 Q155.487 1367.49 157.94 1366.91 Q160.394 1366.33 162.431 1366.33 Q167.802 1366.33 170.996 1369.02 Q174.19 1371.7 174.19 1376.19 Q174.19 1378.32 173.38 1380.25 Q172.593 1382.14 170.487 1384.74 Q169.908 1385.41 166.806 1388.62 Q163.704 1391.82 158.056 1397.58 Z" fill="#000000" fill-rule="nonzero" fill-opacity="1" /><path clip-path="url(#clip200)" d="M162.431 999.165 Q158.82 999.165 156.991 1002.73 Q155.186 1006.27 155.186 1013.4 Q155.186 1020.51 156.991 1024.07 Q158.82 1027.61 162.431 1027.61 Q166.065 1027.61 167.871 1024.07 Q169.7 1020.51 169.7 1013.4 Q169.7 1006.27 167.871 1002.73 Q166.065 999.165 162.431 999.165 M162.431 995.461 Q168.241 995.461 171.297 1000.07 Q174.376 1004.65 174.376 1013.4 Q174.376 1022.13 171.297 1026.73 Q168.241 1031.32 162.431 1031.32 Q156.621 1031.32 153.542 1026.73 Q150.487 1022.13 150.487 1013.4 Q150.487 1004.65 153.542 1000.07 Q156.621 995.461 162.431 995.461 Z" fill="#000000" fill-rule="nonzero" fill-opacity="1" /><path clip-path="url(#clip200)" d="M158.056 655.839 L174.376 655.839 L174.376 659.774 L152.431 659.774 L152.431 655.839 Q155.093 653.084 159.677 648.455 Q164.283 643.802 165.464 642.459 Q167.709 639.936 168.589 638.2 Q169.491 636.441 169.491 634.751 Q169.491 631.996 167.547 630.26 Q165.626 628.524 162.524 628.524 Q160.325 628.524 157.871 629.288 Q155.44 630.052 152.663 631.603 L152.663 626.881 Q155.487 625.746 157.94 625.168 Q160.394 624.589 162.431 624.589 Q167.802 624.589 170.996 627.274 Q174.19 629.959 174.19 634.45 Q174.19 636.58 173.38 638.501 Q172.593 640.399 170.487 642.992 Q169.908 643.663 166.806 646.88 Q163.704 650.075 158.056 655.839 Z" fill="#000000" fill-rule="nonzero" fill-opacity="1" /><path clip-path="url(#clip200)" d="M164.792 258.416 L152.987 276.865 L164.792 276.865 L164.792 258.416 M163.565 254.342 L169.445 254.342 L169.445 276.865 L174.376 276.865 L174.376 280.754 L169.445 280.754 L169.445 288.902 L164.792 288.902 L164.792 280.754 L149.191 280.754 L149.191 276.24 L163.565 254.342 Z" fill="#000000" fill-rule="nonzero" fill-opacity="1" /><path clip-path="url(#clip200)" d="M16.4842 837.668 L16.4842 807.622 L21.895 807.622 L21.895 831.239 L35.9632 831.239 L35.9632 808.609 L41.3741 808.609 L41.3741 831.239 L58.5933 831.239 L58.5933 807.049 L64.0042 807.049 L64.0042 837.668 L16.4842 837.668 Z" fill="#000000" fill-rule="nonzero" fill-opacity="1" /><path clip-path="url(#clip200)" d="M51.9411 780.345 L64.0042 780.345 L64.0042 784.037 L52.0685 784.037 Q49.2357 784.037 47.8353 785.278 Q46.403 786.52 46.403 789.002 Q46.403 791.994 48.1217 793.713 Q49.8086 795.432 52.7369 795.432 L64.0042 795.432 L64.0042 799.155 L36.2815 799.155 L36.2815 795.432 L47.135 795.432 Q45.3526 794.127 44.4614 792.344 Q43.5702 790.53 43.5702 788.175 Q43.5702 784.323 45.7028 782.35 Q47.8353 780.345 51.9411 780.345 Z" fill="#000000" fill-rule="nonzero" fill-opacity="1" /><path clip-path="url(#clip200)" d="M46.0847 733.461 Q46.0847 740.559 47.7079 743.296 Q49.3312 746.034 53.2461 746.034 Q56.3653 746.034 58.2114 743.997 Q60.0256 741.928 60.0256 738.395 Q60.0256 733.525 56.5881 730.597 Q53.1188 727.637 47.3897 727.637 L46.0847 727.637 L46.0847 733.461 M43.6657 721.78 L64.0042 721.78 L64.0042 727.637 L58.5933 727.637 Q61.8398 729.642 63.3994 732.634 Q64.9272 735.626 64.9272 739.954 Q64.9272 745.429 61.8716 748.675 Q58.7843 751.89 53.6281 751.89 Q47.6125 751.89 44.5569 747.88 Q41.5014 743.838 41.5014 735.849 L41.5014 727.637 L40.9285 727.637 Q36.8862 727.637 34.6901 730.31 Q32.4621 732.952 32.4621 737.758 Q32.4621 740.814 33.1941 743.71 Q33.9262 746.607 35.3903 749.28 L29.9795 749.28 Q28.7381 746.065 28.1334 743.042 Q27.4968 740.018 27.4968 737.154 Q27.4968 729.419 31.5072 725.6 Q35.5176 721.78 43.6657 721.78 Z" fill="#000000" fill-rule="nonzero" fill-opacity="1" /><path clip-path="url(#clip200)" d="M42.4562 697.718 Q39.719 699.309 39.719 702.524 Q39.719 705.739 42.4562 707.33 Q45.1935 708.953 50.668 708.953 Q56.1743 708.953 58.9116 707.33 Q61.6488 705.739 61.6488 702.524 Q61.6488 699.309 58.9116 697.718 Q56.1743 696.095 50.668 696.095 Q45.1935 696.095 42.4562 697.718 M36.8862 702.524 Q36.8862 697.4 40.4192 694.694 Q43.9522 691.989 50.668 691.989 Q57.4157 691.989 60.9486 694.694 Q64.4816 697.4 64.4816 702.524 Q64.4816 707.68 60.9486 710.386 Q57.4157 713.091 50.668 713.091 Q43.9522 713.091 40.4192 710.386 Q36.8862 707.68 36.8862 702.524 Z" fill="#000000" fill-rule="nonzero" fill-opacity="1" /><path clip-path="url(#clip200)" d="M29.7885 685.368 L29.7885 659.683 L32.8122 659.683 L32.8122 685.368 L29.7885 685.368 Z" fill="#000000" fill-rule="nonzero" fill-opacity="1" /><path clip-path="url(#clip200)" d="M39.2416 650.357 L39.2416 643.864 L19.7943 643.864 L21.0993 650.962 L17.4072 650.962 L16.1659 643.641 L16.1659 639.281 L39.2416 639.281 L39.2416 632.756 L42.7427 632.756 L42.7427 650.357 L39.2416 650.357 Z" fill="#000000" fill-rule="nonzero" fill-opacity="1" /><polyline clip-path="url(#clip202)" style="stroke:#009af9; stroke-linecap:round; stroke-linejoin:round; stroke-width:4; stroke-opacity:1; fill:none" points="271.009,86.1857 291.22,122.902 311.431,158.877 331.642,194.109 351.854,228.601 372.065,262.35 392.276,295.358 412.487,327.623 432.698,359.148 452.909,389.93 473.12,419.971 493.331,449.27 513.543,477.827 533.754,505.642 553.965,532.716 574.176,559.048 594.387,584.638 614.598,609.486 634.809,633.593 655.021,656.958 675.232,679.581 695.443,701.463 715.654,722.602 735.865,743 756.076,762.657 776.287,781.571 796.498,799.744 816.71,817.175 836.921,833.864 857.132,849.811 877.343,865.017 897.554,879.481 917.765,893.204 937.976,906.184 958.188,918.423 978.399,929.92 998.61,940.675 1018.82,950.689 1039.03,959.961 1059.24,968.491 1079.45,976.279 1099.67,983.325 1119.88,989.63 1140.09,995.193 1160.3,1000.01 1180.51,1004.09 1200.72,1007.43 1220.93,1010.03 1241.14,1011.88 1261.35,1013 1281.57,1013.37 1301.78,1013 1321.99,1011.88 1342.2,1010.03 1362.41,1007.43 1382.62,1004.09 1402.83,1000.01 1423.04,995.193 1443.25,989.63 1463.47,983.325 1483.68,976.279 1503.89,968.491 1524.1,959.961 1544.31,950.689 1564.52,940.675 1584.73,929.92 1604.94,918.423 1625.16,906.184 1645.37,893.204 1665.58,879.481 1685.79,865.017 1706,849.811 1726.21,833.864 1746.42,817.175 1766.63,799.744 1786.84,781.571 1807.06,762.657 1827.27,743 1847.48,722.602 1867.69,701.463 1887.9,679.581 1908.11,656.958 1928.32,633.593 1948.53,609.486 1968.74,584.638 1988.96,559.048 2009.17,532.716 2029.38,505.642 2049.59,477.827 2069.8,449.27 2090.01,419.971 2110.22,389.93 2130.43,359.148 2150.64,327.623 2170.86,295.358 2191.07,262.35 2211.28,228.601 2231.49,194.109 2251.7,158.877 2271.91,122.902 2292.12,86.1857 "/>
<polyline clip-path="url(#clip202)" style="stroke:#e26f46; stroke-linecap:round; stroke-linejoin:round; stroke-width:4; stroke-opacity:1; fill:none" points="271.009,1384.24 291.22,1376.82 311.431,1369.4 331.642,1361.99 351.854,1354.57 372.065,1347.15 392.276,1339.73 412.487,1332.32 432.698,1324.9 452.909,1317.48 473.12,1310.06 493.331,1302.65 513.543,1295.23 533.754,1287.81 553.965,1280.39 574.176,1272.98 594.387,1265.56 614.598,1258.14 634.809,1250.72 655.021,1243.31 675.232,1235.89 695.443,1228.47 715.654,1221.05 735.865,1213.64 756.076,1206.22 776.287,1198.8 796.498,1191.38 816.71,1183.97 836.921,1176.55 857.132,1169.13 877.343,1161.71 897.554,1154.3 917.765,1146.88 937.976,1139.46 958.188,1132.05 978.399,1124.63 998.61,1117.21 1018.82,1109.79 1039.03,1102.38 1059.24,1094.96 1079.45,1087.54 1099.67,1080.12 1119.88,1072.71 1140.09,1065.29 1160.3,1057.87 1180.51,1050.45 1200.72,1043.04 1220.93,1035.62 1241.14,1028.2 1261.35,1020.78 1281.57,1013.37 1301.78,1005.95 1321.99,998.531 1342.2,991.114 1362.41,983.696 1382.62,976.279 1402.83,968.861 1423.04,961.444 1443.25,954.027 1463.47,946.609 1483.68,939.192 1503.89,931.774 1524.1,924.357 1544.31,916.939 1564.52,909.522 1584.73,902.104 1604.94,894.687 1625.16,887.27 1645.37,879.852 1665.58,872.435 1685.79,865.017 1706,857.6 1726.21,850.182 1746.42,842.765 1766.63,835.347 1786.84,827.93 1807.06,820.513 1827.27,813.095 1847.48,805.678 1867.69,798.26 1887.9,790.843 1908.11,783.425 1928.32,776.008 1948.53,768.59 1968.74,761.173 1988.96,753.756 2009.17,746.338 2029.38,738.921 2049.59,731.503 2069.8,724.086 2090.01,716.668 2110.22,709.251 2130.43,701.833 2150.64,694.416 2170.86,686.999 2191.07,679.581 2211.28,672.164 2231.49,664.746 2251.7,657.329 2271.91,649.911 2292.12,642.494 "/>
<path clip-path="url(#clip200)" d="M1901.13 1377.32 L2281.34 1377.32 L2281.34 1221.8 L1901.13 1221.8  Z" fill="#ffffff" fill-rule="evenodd" fill-opacity="1"/>
<polyline clip-path="url(#clip200)" style="stroke:#000000; stroke-linecap:round; stroke-linejoin:round; stroke-width:4; stroke-opacity:1; fill:none" points="1901.13,1377.32 2281.34,1377.32 2281.34,1221.8 1901.13,1221.8 1901.13,1377.32 "/>
<polyline clip-path="url(#clip200)" style="stroke:#009af9; stroke-linecap:round; stroke-linejoin:round; stroke-width:4; stroke-opacity:1; fill:none" points="1924.94,1273.64 2067.76,1273.64 "/>
<path clip-path="url(#clip200)" d="M2104.76 1290.92 L2091.57 1256.36 L2096.45 1256.36 L2107.4 1285.45 L2118.37 1256.36 L2123.23 1256.36 L2110.06 1290.92 L2104.76 1290.92 Z" fill="#000000" fill-rule="nonzero" fill-opacity="1" /><path clip-path="url(#clip200)" d="M2138.33 1254.94 Q2135.22 1260.27 2133.72 1265.48 Q2132.22 1270.68 2132.22 1276.03 Q2132.22 1281.38 2133.72 1286.63 Q2135.25 1291.86 2138.33 1297.17 L2134.62 1297.17 Q2131.15 1291.73 2129.41 1286.47 Q2127.7 1281.22 2127.7 1276.03 Q2127.7 1270.87 2129.41 1265.64 Q2131.13 1260.41 2134.62 1254.94 L2138.33 1254.94 Z" fill="#000000" fill-rule="nonzero" fill-opacity="1" /><path clip-path="url(#clip200)" d="M2161.61 1268.97 Q2160.9 1268.55 2160.04 1268.37 Q2159.21 1268.16 2158.19 1268.16 Q2154.58 1268.16 2152.63 1270.52 Q2150.71 1272.86 2150.71 1277.26 L2150.71 1290.92 L2146.43 1290.92 L2146.43 1264.99 L2150.71 1264.99 L2150.71 1269.02 Q2152.05 1266.66 2154.21 1265.52 Q2156.36 1264.36 2159.44 1264.36 Q2159.88 1264.36 2160.41 1264.43 Q2160.94 1264.48 2161.59 1264.6 L2161.61 1268.97 Z" fill="#000000" fill-rule="nonzero" fill-opacity="1" /><path clip-path="url(#clip200)" d="M2165.41 1254.94 L2169.11 1254.94 Q2172.59 1260.41 2174.3 1265.64 Q2176.03 1270.87 2176.03 1276.03 Q2176.03 1281.22 2174.3 1286.47 Q2172.59 1291.73 2169.11 1297.17 L2165.41 1297.17 Q2168.49 1291.86 2169.99 1286.63 Q2171.52 1281.38 2171.52 1276.03 Q2171.52 1270.68 2169.99 1265.48 Q2168.49 1260.27 2165.41 1254.94 Z" fill="#000000" fill-rule="nonzero" fill-opacity="1" /><polyline clip-path="url(#clip200)" style="stroke:#e26f46; stroke-linecap:round; stroke-linejoin:round; stroke-width:4; stroke-opacity:1; fill:none" points="1924.94,1325.48 2067.76,1325.48 "/>
<path clip-path="url(#clip200)" d="M2110.48 1320.76 L2110.48 1306.74 L2114.74 1306.74 L2114.74 1342.76 L2110.48 1342.76 L2110.48 1338.87 Q2109.14 1341.18 2107.08 1342.32 Q2105.04 1343.43 2102.17 1343.43 Q2097.47 1343.43 2094.51 1339.68 Q2091.57 1335.93 2091.57 1329.82 Q2091.57 1323.7 2094.51 1319.95 Q2097.47 1316.2 2102.17 1316.2 Q2105.04 1316.2 2107.08 1317.34 Q2109.14 1318.45 2110.48 1320.76 M2095.97 1329.82 Q2095.97 1334.51 2097.89 1337.2 Q2099.83 1339.86 2103.21 1339.86 Q2106.59 1339.86 2108.54 1337.2 Q2110.48 1334.51 2110.48 1329.82 Q2110.48 1325.12 2108.54 1322.45 Q2106.59 1319.77 2103.21 1319.77 Q2099.83 1319.77 2097.89 1322.45 Q2095.97 1325.12 2095.97 1329.82 Z" fill="#000000" fill-rule="nonzero" fill-opacity="1" /><path clip-path="url(#clip200)" d="M2132.61 1342.76 L2119.41 1308.2 L2124.3 1308.2 L2135.25 1337.29 L2146.22 1308.2 L2151.08 1308.2 L2137.91 1342.76 L2132.61 1342.76 Z" fill="#000000" fill-rule="nonzero" fill-opacity="1" /><path clip-path="url(#clip200)" d="M2166.17 1306.78 Q2163.07 1312.11 2161.57 1317.32 Q2160.06 1322.52 2160.06 1327.87 Q2160.06 1333.22 2161.57 1338.47 Q2163.1 1343.7 2166.17 1349.01 L2162.47 1349.01 Q2159 1343.57 2157.26 1338.31 Q2155.55 1333.06 2155.55 1327.87 Q2155.55 1322.71 2157.26 1317.48 Q2158.97 1312.25 2162.47 1306.78 L2166.17 1306.78 Z" fill="#000000" fill-rule="nonzero" fill-opacity="1" /><path clip-path="url(#clip200)" d="M2189.46 1320.81 Q2188.74 1320.39 2187.89 1320.21 Q2187.05 1320 2186.03 1320 Q2182.42 1320 2180.48 1322.36 Q2178.56 1324.7 2178.56 1329.1 L2178.56 1342.76 L2174.28 1342.76 L2174.28 1316.83 L2178.56 1316.83 L2178.56 1320.86 Q2179.9 1318.5 2182.05 1317.36 Q2184.21 1316.2 2187.28 1316.2 Q2187.72 1316.2 2188.26 1316.27 Q2188.79 1316.32 2189.44 1316.44 L2189.46 1320.81 Z" fill="#000000" fill-rule="nonzero" fill-opacity="1" /><path clip-path="url(#clip200)" d="M2193.26 1306.78 L2196.96 1306.78 Q2200.43 1312.25 2202.15 1317.48 Q2203.88 1322.71 2203.88 1327.87 Q2203.88 1333.06 2202.15 1338.31 Q2200.43 1343.57 2196.96 1349.01 L2193.26 1349.01 Q2196.34 1343.7 2197.84 1338.47 Q2199.37 1333.22 2199.37 1327.87 Q2199.37 1322.52 2197.84 1317.32 Q2196.34 1312.11 2193.26 1306.78 Z" fill="#000000" fill-rule="nonzero" fill-opacity="1" /><path clip-path="url(#clip200)" d="M2229.48 1320.76 L2229.48 1306.74 L2233.74 1306.74 L2233.74 1342.76 L2229.48 1342.76 L2229.48 1338.87 Q2228.14 1341.18 2226.08 1342.32 Q2224.04 1343.43 2221.17 1343.43 Q2216.47 1343.43 2213.51 1339.68 Q2210.57 1335.93 2210.57 1329.82 Q2210.57 1323.7 2213.51 1319.95 Q2216.47 1316.2 2221.17 1316.2 Q2224.04 1316.2 2226.08 1317.34 Q2228.14 1318.45 2229.48 1320.76 M2214.97 1329.82 Q2214.97 1334.51 2216.89 1337.2 Q2218.84 1339.86 2222.22 1339.86 Q2225.59 1339.86 2227.54 1337.2 Q2229.48 1334.51 2229.48 1329.82 Q2229.48 1325.12 2227.54 1322.45 Q2225.59 1319.77 2222.22 1319.77 Q2218.84 1319.77 2216.89 1322.45 Q2214.97 1325.12 2214.97 1329.82 Z" fill="#000000" fill-rule="nonzero" fill-opacity="1" /><path clip-path="url(#clip200)" d="M2257.54 1320.81 Q2256.82 1320.39 2255.96 1320.21 Q2255.13 1320 2254.11 1320 Q2250.5 1320 2248.56 1322.36 Q2246.64 1324.7 2246.64 1329.1 L2246.64 1342.76 L2242.35 1342.76 L2242.35 1316.83 L2246.64 1316.83 L2246.64 1320.86 Q2247.98 1318.5 2250.13 1317.36 Q2252.28 1316.2 2255.36 1316.2 Q2255.8 1316.2 2256.34 1316.27 Q2256.87 1316.32 2257.52 1316.44 L2257.54 1320.81 Z" fill="#000000" fill-rule="nonzero" fill-opacity="1" /></svg>
