<?xml version="1.0" encoding="utf-8"?>
<svg xmlns="http://www.w3.org/2000/svg" xmlns:xlink="http://www.w3.org/1999/xlink" width="600" height="400" viewBox="0 0 2400 1600">
<defs>
  <clipPath id="clip260">
    <rect x="0" y="0" width="2400" height="1600"/>
  </clipPath>
</defs>
<path clip-path="url(#clip260)" d="M0 1600 L2400 1600 L2400 8.88178e-14 L0 8.88178e-14  Z" fill="#ffffff" fill-rule="evenodd" fill-opacity="1"/>
<defs>
  <clipPath id="clip261">
    <rect x="480" y="0" width="1681" height="1600"/>
  </clipPath>
</defs>
<path clip-path="url(#clip260)" d="M212.135 1423.18 L2352.76 1423.18 L2352.76 47.2441 L212.135 47.2441  Z" fill="#ffffff" fill-rule="evenodd" fill-opacity="1"/>
<defs>
  <clipPath id="clip262">
    <rect x="212" y="47" width="2142" height="1377"/>
  </clipPath>
</defs>
<polyline clip-path="url(#clip262)" style="stroke:#000000; stroke-linecap:round; stroke-linejoin:round; stroke-width:2; stroke-opacity:0.1; fill:none" points="272.718,1423.18 272.718,47.2441 "/>
<polyline clip-path="url(#clip262)" style="stroke:#000000; stroke-linecap:round; stroke-linejoin:round; stroke-width:2; stroke-opacity:0.1; fill:none" points="676.609,1423.18 676.609,47.2441 "/>
<polyline clip-path="url(#clip262)" style="stroke:#000000; stroke-linecap:round; stroke-linejoin:round; stroke-width:2; stroke-opacity:0.1; fill:none" points="1080.5,1423.18 1080.5,47.2441 "/>
<polyline clip-path="url(#clip262)" style="stroke:#000000; stroke-linecap:round; stroke-linejoin:round; stroke-width:2; stroke-opacity:0.1; fill:none" points="1484.39,1423.18 1484.39,47.2441 "/>
<polyline clip-path="url(#clip262)" style="stroke:#000000; stroke-linecap:round; stroke-linejoin:round; stroke-width:2; stroke-opacity:0.1; fill:none" points="1888.28,1423.18 1888.28,47.2441 "/>
<polyline clip-path="url(#clip262)" style="stroke:#000000; stroke-linecap:round; stroke-linejoin:round; stroke-width:2; stroke-opacity:0.1; fill:none" points="2292.17,1423.18 2292.17,47.2441 "/>
<polyline clip-path="url(#clip260)" style="stroke:#000000; stroke-linecap:round; stroke-linejoin:round; stroke-width:4; stroke-opacity:1; fill:none" points="212.135,1423.18 2352.76,1423.18 "/>
<polyline clip-path="url(#clip260)" style="stroke:#000000; stroke-linecap:round; stroke-linejoin:round; stroke-width:4; stroke-opacity:1; fill:none" points="272.718,1423.18 272.718,1404.28 "/>
<polyline clip-path="url(#clip260)" style="stroke:#000000; stroke-linecap:round; stroke-linejoin:round; stroke-width:4; stroke-opacity:1; fill:none" points="676.609,1423.18 676.609,1404.28 "/>
<polyline clip-path="url(#clip260)" style="stroke:#000000; stroke-linecap:round; stroke-linejoin:round; stroke-width:4; stroke-opacity:1; fill:none" points="1080.5,1423.18 1080.5,1404.28 "/>
<polyline clip-path="url(#clip260)" style="stroke:#000000; stroke-linecap:round; stroke-linejoin:round; stroke-width:4; stroke-opacity:1; fill:none" points="1484.39,1423.18 1484.39,1404.28 "/>
<polyline clip-path="url(#clip260)" style="stroke:#000000; stroke-linecap:round; stroke-linejoin:round; stroke-width:4; stroke-opacity:1; fill:none" points="1888.28,1423.18 1888.28,1404.28 "/>
<polyline clip-path="url(#clip260)" style="stroke:#000000; stroke-linecap:round; stroke-linejoin:round; stroke-width:4; stroke-opacity:1; fill:none" points="2292.17,1423.18 2292.17,1404.28 "/>
<path clip-path="url(#clip260)" d="M272.718 1454.1 Q269.107 1454.1 267.279 1457.66 Q265.473 1461.2 265.473 1468.33 Q265.473 1475.44 267.279 1479.01 Q269.107 1482.55 272.718 1482.55 Q276.353 1482.55 278.158 1479.01 Q279.987 1475.44 279.987 1468.33 Q279.987 1461.2 278.158 1457.66 Q276.353 1454.1 272.718 1454.1 M272.718 1450.39 Q278.529 1450.39 281.584 1455 Q284.663 1459.58 284.663 1468.33 Q284.663 1477.06 281.584 1481.67 Q278.529 1486.25 272.718 1486.25 Q266.908 1486.25 263.83 1481.67 Q260.774 1477.06 260.774 1468.33 Q260.774 1459.58 263.83 1455 Q266.908 1450.39 272.718 1450.39 Z" fill="#000000" fill-rule="nonzero" fill-opacity="1" /><path clip-path="url(#clip260)" d="M651.297 1481.64 L658.936 1481.64 L658.936 1455.28 L650.626 1456.95 L650.626 1452.69 L658.889 1451.02 L663.565 1451.02 L663.565 1481.64 L671.204 1481.64 L671.204 1485.58 L651.297 1485.58 L651.297 1481.64 Z" fill="#000000" fill-rule="nonzero" fill-opacity="1" /><path clip-path="url(#clip260)" d="M690.648 1454.1 Q687.037 1454.1 685.209 1457.66 Q683.403 1461.2 683.403 1468.33 Q683.403 1475.44 685.209 1479.01 Q687.037 1482.55 690.648 1482.55 Q694.283 1482.55 696.088 1479.01 Q697.917 1475.44 697.917 1468.33 Q697.917 1461.2 696.088 1457.66 Q694.283 1454.1 690.648 1454.1 M690.648 1450.39 Q696.459 1450.39 699.514 1455 Q702.593 1459.58 702.593 1468.33 Q702.593 1477.06 699.514 1481.67 Q696.459 1486.25 690.648 1486.25 Q684.838 1486.25 681.76 1481.67 Q678.704 1477.06 678.704 1468.33 Q678.704 1459.58 681.76 1455 Q684.838 1450.39 690.648 1450.39 Z" fill="#000000" fill-rule="nonzero" fill-opacity="1" /><path clip-path="url(#clip260)" d="M1059.27 1481.64 L1075.59 1481.64 L1075.59 1485.58 L1053.65 1485.58 L1053.65 1481.64 Q1056.31 1478.89 1060.89 1474.26 Q1065.5 1469.61 1066.68 1468.27 Q1068.93 1465.74 1069.81 1464.01 Q1070.71 1462.25 1070.71 1460.56 Q1070.71 1457.8 1068.76 1456.07 Q1066.84 1454.33 1063.74 1454.33 Q1061.54 1454.33 1059.09 1455.09 Q1056.66 1455.86 1053.88 1457.41 L1053.88 1452.69 Q1056.7 1451.55 1059.16 1450.97 Q1061.61 1450.39 1063.65 1450.39 Q1069.02 1450.39 1072.21 1453.08 Q1075.41 1455.77 1075.41 1460.26 Q1075.41 1462.39 1074.6 1464.31 Q1073.81 1466.2 1071.7 1468.8 Q1071.13 1469.47 1068.02 1472.69 Q1064.92 1475.88 1059.27 1481.64 Z" fill="#000000" fill-rule="nonzero" fill-opacity="1" /><path clip-path="url(#clip260)" d="M1095.41 1454.1 Q1091.8 1454.1 1089.97 1457.66 Q1088.16 1461.2 1088.16 1468.33 Q1088.16 1475.44 1089.97 1479.01 Q1091.8 1482.55 1095.41 1482.55 Q1099.04 1482.55 1100.85 1479.01 Q1102.68 1475.44 1102.68 1468.33 Q1102.68 1461.2 1100.85 1457.66 Q1099.04 1454.1 1095.41 1454.1 M1095.41 1450.39 Q1101.22 1450.39 1104.27 1455 Q1107.35 1459.58 1107.35 1468.33 Q1107.35 1477.06 1104.27 1481.67 Q1101.22 1486.25 1095.41 1486.25 Q1089.6 1486.25 1086.52 1481.67 Q1083.46 1477.06 1083.46 1468.33 Q1083.46 1459.58 1086.52 1455 Q1089.6 1450.39 1095.41 1450.39 Z" fill="#000000" fill-rule="nonzero" fill-opacity="1" /><path clip-path="url(#clip260)" d="M1473.23 1466.95 Q1476.59 1467.66 1478.46 1469.93 Q1480.36 1472.2 1480.36 1475.53 Q1480.36 1480.65 1476.84 1483.45 Q1473.33 1486.25 1466.84 1486.25 Q1464.67 1486.25 1462.35 1485.81 Q1460.06 1485.39 1457.61 1484.54 L1457.61 1480.02 Q1459.55 1481.16 1461.87 1481.74 Q1464.18 1482.32 1466.71 1482.32 Q1471.1 1482.32 1473.4 1480.58 Q1475.71 1478.84 1475.71 1475.53 Q1475.71 1472.48 1473.56 1470.77 Q1471.43 1469.03 1467.61 1469.03 L1463.58 1469.03 L1463.58 1465.19 L1467.79 1465.19 Q1471.24 1465.19 1473.07 1463.82 Q1474.9 1462.43 1474.9 1459.84 Q1474.9 1457.18 1473 1455.77 Q1471.13 1454.33 1467.61 1454.33 Q1465.69 1454.33 1463.49 1454.75 Q1461.29 1455.16 1458.65 1456.04 L1458.65 1451.88 Q1461.31 1451.14 1463.63 1450.77 Q1465.96 1450.39 1468.03 1450.39 Q1473.35 1450.39 1476.45 1452.83 Q1479.55 1455.23 1479.55 1459.35 Q1479.55 1462.22 1477.91 1464.21 Q1476.27 1466.18 1473.23 1466.95 Z" fill="#000000" fill-rule="nonzero" fill-opacity="1" /><path clip-path="url(#clip260)" d="M1499.23 1454.1 Q1495.62 1454.1 1493.79 1457.66 Q1491.98 1461.2 1491.98 1468.33 Q1491.98 1475.44 1493.79 1479.01 Q1495.62 1482.55 1499.23 1482.55 Q1502.86 1482.55 1504.67 1479.01 Q1506.5 1475.44 1506.5 1468.33 Q1506.5 1461.2 1504.67 1457.66 Q1502.86 1454.1 1499.23 1454.1 M1499.23 1450.39 Q1505.04 1450.39 1508.09 1455 Q1511.17 1459.58 1511.17 1468.33 Q1511.17 1477.06 1508.09 1481.67 Q1505.04 1486.25 1499.23 1486.25 Q1493.42 1486.25 1490.34 1481.67 Q1487.28 1477.06 1487.28 1468.33 Q1487.28 1459.58 1490.34 1455 Q1493.42 1450.39 1499.23 1450.39 Z" fill="#000000" fill-rule="nonzero" fill-opacity="1" /><path clip-path="url(#clip260)" d="M1876.45 1455.09 L1864.65 1473.54 L1876.45 1473.54 L1876.45 1455.09 M1875.23 1451.02 L1881.11 1451.02 L1881.11 1473.54 L1886.04 1473.54 L1886.04 1477.43 L1881.11 1477.43 L1881.11 1485.58 L1876.45 1485.58 L1876.45 1477.43 L1860.85 1477.43 L1860.85 1472.92 L1875.23 1451.02 Z" fill="#000000" fill-rule="nonzero" fill-opacity="1" /><path clip-path="url(#clip260)" d="M1903.77 1454.1 Q1900.16 1454.1 1898.33 1457.66 Q1896.52 1461.2 1896.52 1468.33 Q1896.52 1475.44 1898.33 1479.01 Q1900.16 1482.55 1903.77 1482.55 Q1907.4 1482.55 1909.21 1479.01 Q1911.04 1475.44 1911.04 1468.33 Q1911.04 1461.2 1909.21 1457.66 Q1907.4 1454.1 1903.77 1454.1 M1903.77 1450.39 Q1909.58 1450.39 1912.63 1455 Q1915.71 1459.58 1915.71 1468.33 Q1915.71 1477.06 1912.63 1481.67 Q1909.58 1486.25 1903.77 1486.25 Q1897.96 1486.25 1894.88 1481.67 Q1891.82 1477.06 1891.82 1468.33 Q1891.82 1459.58 1894.88 1455 Q1897.96 1450.39 1903.77 1450.39 Z" fill="#000000" fill-rule="nonzero" fill-opacity="1" /><path clip-path="url(#clip260)" d="M2266.87 1451.02 L2285.23 1451.02 L2285.23 1454.96 L2271.15 1454.96 L2271.15 1463.43 Q2272.17 1463.08 2273.19 1462.92 Q2274.21 1462.73 2275.23 1462.73 Q2281.01 1462.73 2284.39 1465.9 Q2287.77 1469.08 2287.77 1474.49 Q2287.77 1480.07 2284.3 1483.17 Q2280.83 1486.25 2274.51 1486.25 Q2272.33 1486.25 2270.07 1485.88 Q2267.82 1485.51 2265.41 1484.77 L2265.41 1480.07 Q2267.5 1481.2 2269.72 1481.76 Q2271.94 1482.32 2274.42 1482.32 Q2278.42 1482.32 2280.76 1480.21 Q2283.1 1478.1 2283.1 1474.49 Q2283.1 1470.88 2280.76 1468.77 Q2278.42 1466.67 2274.42 1466.67 Q2272.54 1466.67 2270.67 1467.08 Q2268.82 1467.5 2266.87 1468.38 L2266.87 1451.02 Z" fill="#000000" fill-rule="nonzero" fill-opacity="1" /><path clip-path="url(#clip260)" d="M2306.99 1454.1 Q2303.38 1454.1 2301.55 1457.66 Q2299.74 1461.2 2299.74 1468.33 Q2299.74 1475.44 2301.55 1479.01 Q2303.38 1482.55 2306.99 1482.55 Q2310.62 1482.55 2312.43 1479.01 Q2314.26 1475.44 2314.26 1468.33 Q2314.26 1461.2 2312.43 1457.66 Q2310.62 1454.1 2306.99 1454.1 M2306.99 1450.39 Q2312.8 1450.39 2315.85 1455 Q2318.93 1459.58 2318.93 1468.33 Q2318.93 1477.06 2315.85 1481.67 Q2312.8 1486.25 2306.99 1486.25 Q2301.18 1486.25 2298.1 1481.67 Q2295.04 1477.06 2295.04 1468.33 Q2295.04 1459.58 2298.1 1455 Q2301.18 1450.39 2306.99 1450.39 Z" fill="#000000" fill-rule="nonzero" fill-opacity="1" /><path clip-path="url(#clip260)" d="M1281.51 1522.27 L1281.51 1532.4 L1293.57 1532.4 L1293.57 1536.95 L1281.51 1536.95 L1281.51 1556.3 Q1281.51 1560.66 1282.68 1561.9 Q1283.89 1563.14 1287.55 1563.14 L1293.57 1563.14 L1293.57 1568.04 L1287.55 1568.04 Q1280.77 1568.04 1278.2 1565.53 Q1275.62 1562.98 1275.62 1556.3 L1275.62 1536.95 L1271.32 1536.95 L1271.32 1532.4 L1275.62 1532.4 L1275.62 1522.27 L1281.51 1522.27 Z" fill="#000000" fill-rule="nonzero" fill-opacity="1" /><polyline clip-path="url(#clip262)" style="stroke:#000000; stroke-linecap:round; stroke-linejoin:round; stroke-width:2; stroke-opacity:0.1; fill:none" points="212.135,1242.32 2352.76,1242.32 "/>
<polyline clip-path="url(#clip262)" style="stroke:#000000; stroke-linecap:round; stroke-linejoin:round; stroke-width:2; stroke-opacity:0.1; fill:none" points="212.135,988.765 2352.76,988.765 "/>
<polyline clip-path="url(#clip262)" style="stroke:#000000; stroke-linecap:round; stroke-linejoin:round; stroke-width:2; stroke-opacity:0.1; fill:none" points="212.135,735.21 2352.76,735.21 "/>
<polyline clip-path="url(#clip262)" style="stroke:#000000; stroke-linecap:round; stroke-linejoin:round; stroke-width:2; stroke-opacity:0.1; fill:none" points="212.135,481.655 2352.76,481.655 "/>
<polyline clip-path="url(#clip262)" style="stroke:#000000; stroke-linecap:round; stroke-linejoin:round; stroke-width:2; stroke-opacity:0.1; fill:none" points="212.135,228.1 2352.76,228.1 "/>
<polyline clip-path="url(#clip260)" style="stroke:#000000; stroke-linecap:round; stroke-linejoin:round; stroke-width:4; stroke-opacity:1; fill:none" points="212.135,1423.18 212.135,47.2441 "/>
<polyline clip-path="url(#clip260)" style="stroke:#000000; stroke-linecap:round; stroke-linejoin:round; stroke-width:4; stroke-opacity:1; fill:none" points="212.135,1242.32 231.032,1242.32 "/>
<polyline clip-path="url(#clip260)" style="stroke:#000000; stroke-linecap:round; stroke-linejoin:round; stroke-width:4; stroke-opacity:1; fill:none" points="212.135,988.765 231.032,988.765 "/>
<polyline clip-path="url(#clip260)" style="stroke:#000000; stroke-linecap:round; stroke-linejoin:round; stroke-width:4; stroke-opacity:1; fill:none" points="212.135,735.21 231.032,735.21 "/>
<polyline clip-path="url(#clip260)" style="stroke:#000000; stroke-linecap:round; stroke-linejoin:round; stroke-width:4; stroke-opacity:1; fill:none" points="212.135,481.655 231.032,481.655 "/>
<polyline clip-path="url(#clip260)" style="stroke:#000000; stroke-linecap:round; stroke-linejoin:round; stroke-width:4; stroke-opacity:1; fill:none" points="212.135,228.1 231.032,228.1 "/>
<path clip-path="url(#clip260)" d="M114.26 1242.77 L143.936 1242.77 L143.936 1246.71 L114.26 1246.71 L114.26 1242.77 Z" fill="#000000" fill-rule="nonzero" fill-opacity="1" /><path clip-path="url(#clip260)" d="M164.607 1240.46 Q161.459 1240.46 159.607 1242.61 Q157.778 1244.76 157.778 1248.51 Q157.778 1252.24 159.607 1254.41 Q161.459 1256.57 164.607 1256.57 Q167.755 1256.57 169.584 1254.41 Q171.436 1252.24 171.436 1248.51 Q171.436 1244.76 169.584 1242.61 Q167.755 1240.46 164.607 1240.46 M173.889 1225.8 L173.889 1230.06 Q172.13 1229.23 170.325 1228.79 Q168.542 1228.35 166.783 1228.35 Q162.153 1228.35 159.7 1231.47 Q157.269 1234.6 156.922 1240.92 Q158.288 1238.91 160.348 1237.84 Q162.408 1236.75 164.885 1236.75 Q170.093 1236.75 173.102 1239.92 Q176.135 1243.07 176.135 1248.51 Q176.135 1253.84 172.987 1257.05 Q169.839 1260.27 164.607 1260.27 Q158.612 1260.27 155.44 1255.69 Q152.269 1251.08 152.269 1242.35 Q152.269 1234.16 156.158 1229.3 Q160.047 1224.41 166.598 1224.41 Q168.357 1224.41 170.139 1224.76 Q171.945 1225.11 173.889 1225.8 Z" fill="#000000" fill-rule="nonzero" fill-opacity="1" /><path clip-path="url(#clip260)" d="M115.07 989.216 L144.746 989.216 L144.746 993.151 L115.07 993.151 L115.07 989.216 Z" fill="#000000" fill-rule="nonzero" fill-opacity="1" /><path clip-path="url(#clip260)" d="M169.005 987.411 Q172.362 988.128 174.237 990.397 Q176.135 992.665 176.135 995.999 Q176.135 1001.11 172.616 1003.92 Q169.098 1006.72 162.616 1006.72 Q160.44 1006.72 158.126 1006.28 Q155.834 1005.86 153.38 1005 L153.38 1000.49 Q155.325 1001.62 157.64 1002.2 Q159.954 1002.78 162.477 1002.78 Q166.876 1002.78 169.167 1001.04 Q171.482 999.309 171.482 995.999 Q171.482 992.943 169.329 991.23 Q167.2 989.494 163.38 989.494 L159.353 989.494 L159.353 985.651 L163.565 985.651 Q167.015 985.651 168.843 984.286 Q170.672 982.897 170.672 980.304 Q170.672 977.642 168.774 976.23 Q166.899 974.795 163.38 974.795 Q161.459 974.795 159.26 975.212 Q157.061 975.628 154.422 976.508 L154.422 972.341 Q157.084 971.601 159.399 971.23 Q161.737 970.86 163.797 970.86 Q169.121 970.86 172.223 973.29 Q175.325 975.698 175.325 979.818 Q175.325 982.688 173.681 984.679 Q172.038 986.647 169.005 987.411 Z" fill="#000000" fill-rule="nonzero" fill-opacity="1" /><path clip-path="url(#clip260)" d="M164.19 721.009 Q160.579 721.009 158.751 724.573 Q156.945 728.115 156.945 735.245 Q156.945 742.351 158.751 745.916 Q160.579 749.458 164.19 749.458 Q167.825 749.458 169.63 745.916 Q171.459 742.351 171.459 735.245 Q171.459 728.115 169.63 724.573 Q167.825 721.009 164.19 721.009 M164.19 717.305 Q170.001 717.305 173.056 721.911 Q176.135 726.495 176.135 735.245 Q176.135 743.971 173.056 748.578 Q170.001 753.161 164.19 753.161 Q158.38 753.161 155.302 748.578 Q152.246 743.971 152.246 735.245 Q152.246 726.495 155.302 721.911 Q158.38 717.305 164.19 717.305 Z" fill="#000000" fill-rule="nonzero" fill-opacity="1" /><path clip-path="url(#clip260)" d="M169.005 480.301 Q172.362 481.019 174.237 483.287 Q176.135 485.556 176.135 488.889 Q176.135 494.005 172.616 496.806 Q169.098 499.606 162.616 499.606 Q160.44 499.606 158.126 499.167 Q155.834 498.75 153.38 497.893 L153.38 493.38 Q155.325 494.514 157.64 495.093 Q159.954 495.671 162.477 495.671 Q166.876 495.671 169.167 493.935 Q171.482 492.199 171.482 488.889 Q171.482 485.833 169.329 484.12 Q167.2 482.384 163.38 482.384 L159.353 482.384 L159.353 478.542 L163.565 478.542 Q167.015 478.542 168.843 477.176 Q170.672 475.787 170.672 473.195 Q170.672 470.533 168.774 469.121 Q166.899 467.685 163.38 467.685 Q161.459 467.685 159.26 468.102 Q157.061 468.519 154.422 469.398 L154.422 465.232 Q157.084 464.491 159.399 464.121 Q161.737 463.75 163.797 463.75 Q169.121 463.75 172.223 466.181 Q175.325 468.588 175.325 472.708 Q175.325 475.579 173.681 477.57 Q172.038 479.537 169.005 480.301 Z" fill="#000000" fill-rule="nonzero" fill-opacity="1" /><path clip-path="url(#clip260)" d="M164.607 226.237 Q161.459 226.237 159.607 228.39 Q157.778 230.542 157.778 234.292 Q157.778 238.019 159.607 240.195 Q161.459 242.348 164.607 242.348 Q167.755 242.348 169.584 240.195 Q171.436 238.019 171.436 234.292 Q171.436 230.542 169.584 228.39 Q167.755 226.237 164.607 226.237 M173.889 211.584 L173.889 215.843 Q172.13 215.01 170.325 214.57 Q168.542 214.131 166.783 214.131 Q162.153 214.131 159.7 217.256 Q157.269 220.38 156.922 226.7 Q158.288 224.686 160.348 223.621 Q162.408 222.533 164.885 222.533 Q170.093 222.533 173.102 225.705 Q176.135 228.853 176.135 234.292 Q176.135 239.616 172.987 242.834 Q169.839 246.052 164.607 246.052 Q158.612 246.052 155.44 241.468 Q152.269 236.862 152.269 228.135 Q152.269 219.941 156.158 215.08 Q160.047 210.195 166.598 210.195 Q168.357 210.195 170.139 210.543 Q171.945 210.89 173.889 211.584 Z" fill="#000000" fill-rule="nonzero" fill-opacity="1" /><path clip-path="url(#clip260)" d="M20.8447 951.455 Q20.8447 958.457 26.0645 962.595 Q31.2844 966.701 40.2919 966.701 Q49.2675 966.701 54.4874 962.595 Q59.7073 958.457 59.7073 951.455 Q59.7073 944.453 54.4874 940.379 Q49.2675 936.273 40.2919 936.273 Q31.2844 936.273 26.0645 940.379 Q20.8447 944.453 20.8447 951.455 M15.6248 951.455 Q15.6248 941.461 22.3406 935.477 Q29.0246 929.493 40.2919 929.493 Q51.5274 929.493 58.2432 935.477 Q64.9272 941.461 64.9272 951.455 Q64.9272 961.481 58.2432 967.497 Q51.5592 973.48 40.2919 973.48 Q29.0246 973.48 22.3406 967.497 Q15.6248 961.481 15.6248 951.455 Z" fill="#000000" fill-rule="nonzero" fill-opacity="1" /><path clip-path="url(#clip260)" d="M49.9359 920.295 L28.3562 920.295 L28.3562 914.438 L49.7131 914.438 Q54.7739 914.438 57.3202 912.465 Q59.8346 910.492 59.8346 906.545 Q59.8346 901.803 56.8109 899.065 Q53.7872 896.296 48.5673 896.296 L28.3562 896.296 L28.3562 890.44 L64.0042 890.44 L64.0042 896.296 L58.5296 896.296 Q61.7762 898.429 63.3676 901.261 Q64.9272 904.062 64.9272 907.786 Q64.9272 913.929 61.1078 917.112 Q57.2883 920.295 49.9359 920.295 M27.4968 905.558 L27.4968 905.558 Z" fill="#000000" fill-rule="nonzero" fill-opacity="1" /><path clip-path="url(#clip260)" d="M18.2347 872.584 L28.3562 872.584 L28.3562 860.521 L32.9077 860.521 L32.9077 872.584 L52.2594 872.584 Q56.6199 872.584 57.8613 871.406 Q59.1026 870.197 59.1026 866.536 L59.1026 860.521 L64.0042 860.521 L64.0042 866.536 Q64.0042 873.316 61.4897 875.894 Q58.9434 878.472 52.2594 878.472 L32.9077 878.472 L32.9077 882.769 L28.3562 882.769 L28.3562 878.472 L18.2347 878.472 L18.2347 872.584 Z" fill="#000000" fill-rule="nonzero" fill-opacity="1" /><path clip-path="url(#clip260)" d="M58.657 847.153 L77.5631 847.153 L77.5631 853.041 L28.3562 853.041 L28.3562 847.153 L33.7671 847.153 Q30.5842 845.307 29.0564 842.506 Q27.4968 839.673 27.4968 835.758 Q27.4968 829.265 32.6531 825.223 Q37.8093 821.149 46.212 821.149 Q54.6147 821.149 59.771 825.223 Q64.9272 829.265 64.9272 835.758 Q64.9272 839.673 63.3994 842.506 Q61.8398 845.307 58.657 847.153 M46.212 827.228 Q39.7508 827.228 36.0905 829.902 Q32.3984 832.544 32.3984 837.191 Q32.3984 841.838 36.0905 844.511 Q39.7508 847.153 46.212 847.153 Q52.6732 847.153 56.3653 844.511 Q60.0256 841.838 60.0256 837.191 Q60.0256 832.544 56.3653 829.902 Q52.6732 827.228 46.212 827.228 Z" fill="#000000" fill-rule="nonzero" fill-opacity="1" /><path clip-path="url(#clip260)" d="M49.9359 812.046 L28.3562 812.046 L28.3562 806.19 L49.7131 806.19 Q54.7739 806.19 57.3202 804.216 Q59.8346 802.243 59.8346 798.296 Q59.8346 793.554 56.8109 790.816 Q53.7872 788.047 48.5673 788.047 L28.3562 788.047 L28.3562 782.191 L64.0042 782.191 L64.0042 788.047 L58.5296 788.047 Q61.7762 790.18 63.3676 793.013 Q64.9272 795.813 64.9272 799.537 Q64.9272 805.68 61.1078 808.863 Q57.2883 812.046 49.9359 812.046 M27.4968 797.309 L27.4968 797.309 Z" fill="#000000" fill-rule="nonzero" fill-opacity="1" /><path clip-path="url(#clip260)" d="M18.2347 764.335 L28.3562 764.335 L28.3562 752.272 L32.9077 752.272 L32.9077 764.335 L52.2594 764.335 Q56.6199 764.335 57.8613 763.157 Q59.1026 761.948 59.1026 758.288 L59.1026 752.272 L64.0042 752.272 L64.0042 758.288 Q64.0042 765.067 61.4897 767.645 Q58.9434 770.223 52.2594 770.223 L32.9077 770.223 L32.9077 774.52 L28.3562 774.52 L28.3562 770.223 L18.2347 770.223 L18.2347 764.335 Z" fill="#000000" fill-rule="nonzero" fill-opacity="1" /><path clip-path="url(#clip260)" d="M64.0042 732.061 L16.4842 750.203 L16.4842 743.487 L56.4926 728.432 L16.4842 713.346 L16.4842 706.662 L64.0042 724.772 L64.0042 732.061 Z" fill="#000000" fill-rule="nonzero" fill-opacity="1" /><path clip-path="url(#clip260)" d="M44.7161 674.547 L47.5806 674.547 L47.5806 701.474 Q53.6281 701.092 56.8109 697.845 Q59.9619 694.567 59.9619 688.742 Q59.9619 685.368 59.1344 682.217 Q58.3069 679.035 56.6518 675.915 L62.1899 675.915 Q63.5267 679.066 64.227 682.377 Q64.9272 685.687 64.9272 689.092 Q64.9272 697.622 59.9619 702.62 Q54.9967 707.585 46.5303 707.585 Q37.7774 707.585 32.6531 702.874 Q27.4968 698.132 27.4968 690.111 Q27.4968 682.918 32.1438 678.748 Q36.7589 674.547 44.7161 674.547 M42.9973 680.403 Q38.1912 680.467 35.3266 683.109 Q32.4621 685.719 32.4621 690.047 Q32.4621 694.949 35.2312 697.909 Q38.0002 700.837 43.0292 701.283 L42.9973 680.403 Z" fill="#000000" fill-rule="nonzero" fill-opacity="1" /><path clip-path="url(#clip260)" d="M14.479 664.935 L14.479 659.078 L64.0042 659.078 L64.0042 664.935 L14.479 664.935 Z" fill="#000000" fill-rule="nonzero" fill-opacity="1" /><path clip-path="url(#clip260)" d="M32.4621 633.011 Q32.4621 637.721 36.1542 640.458 Q39.8145 643.196 46.212 643.196 Q52.6095 643.196 56.3017 640.49 Q59.9619 637.753 59.9619 633.011 Q59.9619 628.332 56.2698 625.595 Q52.5777 622.857 46.212 622.857 Q39.8781 622.857 36.186 625.595 Q32.4621 628.332 32.4621 633.011 M27.4968 633.011 Q27.4968 625.372 32.4621 621.011 Q37.4273 616.651 46.212 616.651 Q54.9649 616.651 59.9619 621.011 Q64.9272 625.372 64.9272 633.011 Q64.9272 640.681 59.9619 645.042 Q54.9649 649.37 46.212 649.37 Q37.4273 649.37 32.4621 645.042 Q27.4968 640.681 27.4968 633.011 Z" fill="#000000" fill-rule="nonzero" fill-opacity="1" /><path clip-path="url(#clip260)" d="M29.7248 581.289 L35.1993 581.289 Q33.8307 583.772 33.1623 586.286 Q32.4621 588.769 32.4621 591.315 Q32.4621 597.012 36.0905 600.164 Q39.6872 603.315 46.212 603.315 Q52.7369 603.315 56.3653 600.164 Q59.9619 597.012 59.9619 591.315 Q59.9619 588.769 59.2935 586.286 Q58.5933 583.772 57.2247 581.289 L62.6355 581.289 Q63.7814 583.74 64.3543 586.382 Q64.9272 588.992 64.9272 591.952 Q64.9272 600.004 59.8664 604.747 Q54.8057 609.489 46.212 609.489 Q37.491 609.489 32.4939 604.715 Q27.4968 599.909 27.4968 591.57 Q27.4968 588.864 28.0697 586.286 Q28.6108 583.708 29.7248 581.289 Z" fill="#000000" fill-rule="nonzero" fill-opacity="1" /><path clip-path="url(#clip260)" d="M28.3562 571.104 L28.3562 565.248 L64.0042 565.248 L64.0042 571.104 L28.3562 571.104 M14.479 571.104 L14.479 565.248 L21.895 565.248 L21.895 571.104 L14.479 571.104 Z" fill="#000000" fill-rule="nonzero" fill-opacity="1" /><path clip-path="url(#clip260)" d="M18.2347 547.201 L28.3562 547.201 L28.3562 535.138 L32.9077 535.138 L32.9077 547.201 L52.2594 547.201 Q56.6199 547.201 57.8613 546.023 Q59.1026 544.814 59.1026 541.153 L59.1026 535.138 L64.0042 535.138 L64.0042 541.153 Q64.0042 547.933 61.4897 550.511 Q58.9434 553.089 52.2594 553.089 L32.9077 553.089 L32.9077 557.386 L28.3562 557.386 L28.3562 553.089 L18.2347 553.089 L18.2347 547.201 Z" fill="#000000" fill-rule="nonzero" fill-opacity="1" /><path clip-path="url(#clip260)" d="M67.3143 512.603 Q73.68 515.086 75.6216 517.441 Q77.5631 519.796 77.5631 523.743 L77.5631 528.422 L72.6615 528.422 L72.6615 524.985 Q72.6615 522.566 71.5157 521.229 Q70.3699 519.892 66.1048 518.269 L63.4312 517.218 L28.3562 531.637 L28.3562 525.43 L56.238 514.29 L28.3562 503.15 L28.3562 496.944 L67.3143 512.603 Z" fill="#000000" fill-rule="nonzero" fill-opacity="1" /><polyline clip-path="url(#clip262)" style="stroke:#009af9; stroke-linecap:round; stroke-linejoin:round; stroke-width:4; stroke-opacity:1; fill:none" points="272.718,500.194 276.757,505.91 280.796,514.745 284.835,526.58 288.874,541.253 292.913,558.566 296.952,578.281 300.991,600.132 305.03,623.821 309.069,649.025 313.108,675.401 317.146,702.592 321.185,730.226 325.224,757.928 329.263,785.321 333.302,812.032 337.341,837.698 341.38,861.97 345.419,884.517 349.458,905.032 353.497,923.237 357.536,938.884 361.574,951.759 365.613,961.689 369.652,968.537 373.691,972.21 377.73,972.659 381.769,969.877 385.808,963.902 389.847,954.816 393.886,942.742 397.925,927.844 401.963,910.326 406.002,890.425 410.041,868.412 414.08,844.587 418.119,819.273 422.158,792.816 426.197,765.575 430.236,737.921 434.275,710.23 438.314,682.879 442.353,656.24 446.391,630.676 450.43,606.533 454.469,584.142 458.508,563.806 462.547,545.801 466.586,530.374 470.625,517.734 474.664,508.053 478.703,501.462 482.742,498.052 486.781,497.868 490.819,500.913 494.858,507.147 498.897,516.483 502.936,528.795 506.975,543.916 511.014,561.639 515.053,581.724 519.092,603.897 523.131,627.856 527.17,653.277 531.209,679.812 535.247,707.1 539.286,734.772 543.325,762.449 547.364,789.755 551.403,816.32 555.442,841.781 559.481,865.792 563.52,888.026 567.559,908.181 571.598,925.983 575.637,941.189 579.675,953.593 583.714,963.025 587.753,969.358 591.792,972.505 595.831,972.424 599.87,969.115 603.909,962.623 607.948,953.038 611.987,940.489 616.026,925.147 620.065,907.221 624.103,886.954 628.142,864.623 632.181,840.531 636.22,815.006 640.259,788.396 644.298,761.061 648.337,733.375 652.376,705.715 656.415,678.455 660.454,651.967 664.492,626.613 668.531,602.735 672.57,580.66 676.609,560.688 680.648,543.09 684.687,528.107 688.726,515.941 692.765,506.758 696.804,500.683 700.843,497.8 704.882,498.146 708.92,501.718 712.959,508.467 716.998,518.301 721.037,531.086 725.076,546.648 729.115,564.776 733.154,585.222 737.193,607.709 741.232,631.931 745.271,657.558 749.31,684.242 753.348,711.619 757.387,739.317 761.426,766.959 765.465,794.17 769.504,820.578 773.543,845.824 777.582,869.566 781.621,891.479 785.66,911.267 789.699,928.659 793.738,943.419 797.776,955.346 801.815,964.278 805.854,970.094 809.893,972.713 813.932,972.102 817.971,968.267 822.01,961.262 826.049,951.18 830.088,938.161 834.127,922.38 838.166,904.052 842.204,883.428 846.243,860.787 850.282,836.437 854.321,810.71 858.36,783.955 862.399,756.538 866.438,728.83 870.477,701.209 874.516,674.051 878.555,647.725 882.594,622.589 886.632,598.986 890.671,577.235 894.71,557.635 898.749,540.45 902.788,525.915 906.827,514.227 910.866,505.547 914.905,499.991 918.944,497.635 922.983,498.512 927.021,502.609 931.06,509.87 935.099,520.198 939.138,533.451 943.177,549.449 947.216,567.975 951.255,588.776 955.294,611.569 959.333,636.044 963.372,661.869 967.411,688.691 971.449,716.147 975.488,743.861 979.527,771.458 983.566,798.562 987.605,824.804 991.644,849.827 995.683,873.291 999.722,894.875 1003.76,914.288 1007.8,931.264 1011.84,945.572 1015.88,957.019 1019.92,965.447 1023.96,970.743 1027.99,972.835 1032.03,971.693 1036.07,967.334 1040.11,959.817 1044.15,949.244 1048.19,935.758 1052.23,919.544 1056.27,900.823 1060.31,879.847 1064.34,856.904 1068.38,832.306 1072.42,806.386 1076.46,779.498 1080.5,752.007 1084.54,724.288 1088.58,696.717 1092.62,669.67 1096.66,643.515 1100.69,618.607 1104.73,595.286 1108.77,573.868 1112.81,554.646 1116.85,537.88 1120.89,523.8 1124.93,512.595 1128.97,504.419 1133.01,499.384 1137.04,497.557 1141.08,498.963 1145.12,503.584 1149.16,511.356 1153.2,522.174 1157.24,535.89 1161.28,552.319 1165.32,571.235 1169.36,592.383 1173.39,615.473 1177.43,640.193 1181.47,666.206 1185.51,693.157 1189.55,720.681 1193.59,748.402 1197.63,775.944 1201.67,802.932 1205.71,828.998 1209.75,853.788 1213.78,876.965 1217.82,898.213 1221.86,917.244 1225.9,933.797 1229.94,947.649 1233.98,958.61 1238.02,966.532 1242.06,971.307 1246.1,972.869 1250.13,971.198 1254.17,966.316 1258.21,958.29 1262.25,947.229 1266.29,933.283 1270.33,916.642 1274.37,897.532 1278.41,876.214 1282.45,852.978 1286.48,828.139 1290.52,802.036 1294.56,775.024 1298.6,747.47 1302.64,719.749 1306.68,692.238 1310.72,665.313 1314.76,639.338 1318.8,614.667 1322.83,591.637 1326.87,570.56 1330.91,551.723 1334.95,535.383 1338.99,521.762 1343.03,511.044 1347.07,503.377 1351.11,498.863 1355.15,497.566 1359.18,499.502 1363.22,504.644 1367.26,512.924 1371.3,524.228 1375.34,538.402 1379.38,555.255 1383.42,574.555 1387.46,596.042 1391.5,619.422 1395.53,644.377 1399.57,670.568 1403.61,697.639 1407.65,725.221 1411.69,752.938 1415.73,780.415 1419.77,807.277 1423.81,833.157 1427.85,857.706 1431.88,880.588 1435.92,901.491 1439.96,920.133 1444,936.258 1448.04,949.648 1452.08,960.12 1456.12,967.533 1460.16,971.784 1464.2,972.817 1468.24,970.617 1472.27,965.214 1476.31,956.682 1480.35,945.136 1484.39,930.734 1488.43,913.672 1492.47,894.182 1496.51,872.529 1500.55,849.008 1504.59,823.938 1508.62,797.662 1512.66,770.535 1516.7,742.928 1520.74,715.216 1524.78,687.776 1528.82,660.981 1532.86,635.196 1536.9,610.772 1540.94,588.041 1544.97,567.312 1549.01,548.868 1553.05,532.959 1557.09,519.802 1561.13,509.575 1565.17,502.419 1569.21,498.429 1573.25,497.662 1577.29,500.126 1581.32,505.789 1585.36,514.573 1589.4,526.359 1593.44,540.987 1597.48,558.257 1601.52,577.934 1605.56,599.752 1609.6,623.413 1613.64,648.594 1617.67,674.954 1621.71,702.134 1625.75,729.764 1629.79,757.468 1633.83,784.869 1637.87,811.595 1641.91,837.281 1645.95,861.579 1649.99,884.157 1654.02,904.709 1658.06,922.954 1662.1,938.645 1666.14,951.569 1670.18,961.548 1674.22,968.448 1678.26,972.175 1682.3,972.678 1686.34,969.949 1690.38,964.027 1694.41,954.992 1698.45,942.967 1702.49,928.115 1706.53,910.638 1710.57,890.774 1714.61,868.794 1718.65,844.997 1722.69,819.705 1726.73,793.264 1730.76,766.033 1734.8,738.383 1738.84,710.69 1742.88,683.33 1746.92,656.676 1750.96,631.091 1755,606.922 1759.04,584.499 1763.08,564.126 1767.11,546.081 1771.15,530.609 1775.19,517.921 1779.23,508.189 1783.27,501.546 1787.31,498.082 1791.35,497.845 1795.39,500.836 1799.43,507.017 1803.46,516.303 1807.5,528.566 1811.54,543.642 1815.58,561.323 1819.62,581.371 1823.66,603.512 1827.7,627.444 1831.74,652.843 1835.78,679.362 1839.81,706.642 1843.85,734.31 1847.89,761.99 1851.93,789.305 1855.97,815.885 1860.01,841.367 1864.05,865.405 1868.09,887.672 1872.13,907.864 1876.16,925.707 1880.2,940.958 1884.24,953.41 1888.28,962.893 1892.32,969.278 1896.36,972.479 1900.4,972.451 1904.44,969.196 1908.48,962.757 1912.51,953.222 1916.55,940.721 1920.59,925.424 1924.63,907.539 1928.67,887.309 1932.71,865.01 1936.75,840.945 1940.79,815.441 1944.83,788.846 1948.87,761.521 1952.9,733.838 1956.94,706.173 1960.98,678.904 1965.02,652.4 1969.06,627.024 1973.1,603.119 1977.14,581.012 1981.18,561.002 1985.22,543.363 1989.25,528.334 1993.29,516.119 1997.33,506.886 2001.37,500.759 2005.41,497.821 2009.45,498.114 2013.49,501.633 2017.53,508.329 2021.57,518.112 2025.6,530.849 2029.64,546.367 2033.68,564.454 2037.72,584.864 2041.76,607.32 2045.8,631.515 2049.84,657.122 2053.88,683.791 2057.92,711.159 2061.95,738.855 2065.99,766.501 2070.03,793.722 2074.07,820.146 2078.11,845.415 2082.15,869.184 2086.19,891.131 2090.23,910.956 2094.27,928.39 2098.3,943.196 2102.34,955.171 2106.38,964.155 2110.42,970.023 2114.46,972.696 2118.5,972.138 2122.54,968.357 2126.58,961.404 2130.62,951.373 2134.65,938.401 2138.69,922.664 2142.73,904.377 2146.77,883.789 2150.81,861.179 2154.85,836.855 2158.89,811.148 2162.93,784.408 2166.97,756.998 2171.01,729.292 2175.04,701.667 2179.08,674.498 2183.12,648.155 2187.16,622.996 2191.2,599.364 2195.24,577.581 2199.28,557.942 2203.32,540.715 2207.36,526.134 2211.39,514.398 2215.43,505.666 2219.47,500.057 2223.51,497.648 2227.55,498.47 2231.59,502.514 2235.63,509.724 2239.67,520.002 2243.71,533.207 2247.74,549.161 2251.78,567.647 2255.82,588.412 2259.86,611.174 2263.9,635.624 2267.94,661.429 2271.98,688.238 2276.02,715.686 2280.06,743.4 2284.09,771.002 2288.13,798.117 2292.17,824.376 "/>
<polyline clip-path="url(#clip262)" style="stroke:#e26f46; stroke-linecap:round; stroke-linejoin:round; stroke-width:4; stroke-opacity:1; fill:none" points="272.718,739.684 276.757,761.609 280.796,783.504 284.835,805.344 288.874,827.104 292.913,848.759 296.952,870.285 300.991,891.656 305.03,912.849 309.069,933.838 313.108,954.601 317.146,975.114 321.185,995.352 325.224,1015.29 329.263,1034.92 333.302,1054.19 337.341,1073.11 341.38,1091.64 345.419,1109.76 349.458,1127.46 353.497,1144.7 357.536,1161.48 361.574,1177.77 365.613,1193.56 369.652,1208.83 373.691,1223.55 377.73,1237.71 381.769,1251.31 385.808,1264.31 389.847,1276.71 393.886,1288.49 397.925,1299.63 401.963,1310.14 406.002,1319.99 410.041,1329.17 414.08,1337.67 418.119,1345.48 422.158,1352.6 426.197,1359.01 430.236,1364.71 434.275,1369.69 438.314,1373.94 442.353,1377.47 446.391,1380.26 450.43,1382.32 454.469,1383.64 458.508,1384.22 462.547,1384.05 466.586,1383.15 470.625,1381.51 474.664,1379.12 478.703,1376.01 482.742,1372.16 486.781,1367.58 490.819,1362.28 494.858,1356.27 498.897,1349.54 502.936,1342.12 506.975,1334 511.014,1325.2 515.053,1315.73 519.092,1305.59 523.131,1294.8 527.17,1283.37 531.209,1271.31 535.247,1258.65 539.286,1245.38 543.325,1231.54 547.364,1217.12 551.403,1202.16 555.442,1186.66 559.481,1170.65 563.52,1154.14 567.559,1137.15 571.598,1119.71 575.637,1101.82 579.675,1083.52 583.714,1064.82 587.753,1045.74 591.792,1026.3 595.831,1006.54 599.87,986.463 603.909,966.101 607.948,945.475 611.987,924.609 616.026,903.527 620.065,882.253 624.103,860.811 628.142,839.225 632.181,817.521 636.22,795.722 640.259,773.855 644.298,751.943 648.337,730.012 652.376,708.088 656.415,686.194 660.454,664.356 664.492,642.599 668.531,620.948 672.57,599.427 676.609,578.062 680.648,556.875 684.687,535.893 688.726,515.138 692.765,494.634 696.804,474.405 700.843,454.474 704.882,434.863 708.92,415.595 712.959,396.693 716.998,378.176 721.037,360.068 725.076,342.388 729.115,325.156 733.154,308.392 737.193,292.116 741.232,276.346 745.271,261.1 749.31,246.395 753.348,232.248 757.387,218.676 761.426,205.693 765.465,193.315 769.504,181.556 773.543,170.428 777.582,159.946 781.621,150.121 785.66,140.963 789.699,132.485 793.738,124.694 797.776,117.601 801.815,111.212 805.854,105.536 809.893,100.58 813.932,96.3475 817.971,92.8448 822.01,90.0756 826.049,88.043 830.088,86.7493 834.127,86.1961 838.166,86.384 842.204,87.3127 846.243,88.9812 850.282,91.3875 854.321,94.529 858.36,98.4021 862.399,103.002 866.438,108.324 870.477,114.362 874.516,121.109 878.555,128.557 882.594,136.697 886.632,145.522 890.671,155.019 894.71,165.179 898.749,175.989 902.788,187.439 906.827,199.513 910.866,212.2 914.905,225.483 918.944,239.349 922.983,253.781 927.021,268.762 931.06,284.276 935.099,300.305 939.138,316.831 943.177,333.834 947.216,351.296 951.255,369.196 955.294,387.514 959.333,406.228 963.372,425.319 967.411,444.763 971.449,464.539 975.488,484.624 979.527,504.996 983.566,525.63 987.605,546.503 991.644,567.592 995.683,588.872 999.722,610.319 1003.76,631.909 1007.8,653.617 1011.84,675.418 1015.88,697.288 1019.92,719.2 1023.96,741.131 1027.99,763.055 1032.03,784.948 1036.07,806.783 1040.11,828.537 1044.15,850.184 1048.19,871.7 1052.23,893.06 1056.27,914.24 1060.31,935.216 1064.34,955.963 1068.38,976.458 1072.42,996.677 1076.46,1016.6 1080.5,1036.2 1084.54,1055.45 1088.58,1074.34 1092.62,1092.85 1096.66,1110.94 1100.69,1128.61 1104.73,1145.82 1108.77,1162.57 1112.81,1178.83 1116.85,1194.59 1120.89,1209.81 1124.93,1224.5 1128.97,1238.63 1133.01,1252.18 1137.04,1265.15 1141.08,1277.5 1145.12,1289.24 1149.16,1300.35 1153.2,1310.81 1157.24,1320.61 1161.28,1329.75 1165.32,1338.2 1169.36,1345.97 1173.39,1353.04 1177.43,1359.41 1181.47,1365.06 1185.51,1369.99 1189.55,1374.2 1193.59,1377.68 1197.63,1380.42 1201.67,1382.43 1205.71,1383.7 1209.75,1384.23 1213.78,1384.02 1217.82,1383.06 1221.86,1381.37 1225.9,1378.94 1229.94,1375.77 1233.98,1371.88 1238.02,1367.25 1242.06,1361.91 1246.1,1355.85 1250.13,1349.08 1254.17,1341.61 1258.21,1333.44 1262.25,1324.6 1266.29,1315.08 1270.33,1304.89 1274.37,1294.06 1278.41,1282.59 1282.45,1270.5 1286.48,1257.79 1290.52,1244.49 1294.56,1230.6 1298.6,1216.15 1302.64,1201.15 1306.68,1185.62 1310.72,1169.58 1314.76,1153.04 1318.8,1136.02 1322.83,1118.54 1326.87,1100.63 1330.91,1082.3 1334.95,1063.57 1338.99,1044.46 1343.03,1025.01 1347.07,1005.22 1351.11,985.128 1355.15,964.748 1359.18,944.105 1363.22,923.224 1367.26,902.129 1371.3,880.843 1375.34,859.39 1379.38,837.796 1383.42,816.085 1387.46,794.281 1391.5,772.41 1395.53,750.496 1399.57,728.565 1403.61,706.642 1407.65,684.751 1411.69,662.918 1415.73,641.167 1419.77,619.524 1423.81,598.012 1427.85,576.658 1431.88,555.484 1435.92,534.516 1439.96,513.777 1444,493.29 1448.04,473.08 1452.08,453.17 1456.12,433.581 1460.16,414.337 1464.2,395.459 1468.24,376.969 1472.27,358.888 1476.31,341.236 1480.35,324.035 1484.39,307.303 1488.43,291.06 1492.47,275.324 1496.51,260.112 1500.55,245.444 1504.59,231.335 1508.62,217.8 1512.66,204.857 1516.7,192.52 1520.74,180.802 1524.78,169.717 1528.82,159.277 1532.86,149.496 1536.9,140.383 1540.94,131.949 1544.97,124.204 1549.01,117.157 1553.05,110.816 1557.09,105.187 1561.13,100.278 1565.17,96.0938 1569.21,92.6394 1573.25,89.9187 1577.29,87.9348 1581.32,86.69 1585.36,86.1857 1589.4,86.4224 1593.44,87.4 1597.48,89.1172 1601.52,91.5722 1605.56,94.7621 1609.6,98.6833 1613.64,103.331 1617.67,108.701 1621.71,114.786 1625.75,121.579 1629.79,129.073 1633.83,137.259 1637.87,146.128 1641.91,155.669 1645.95,165.872 1649.99,176.725 1654.02,188.216 1658.06,200.332 1662.1,213.058 1666.14,226.381 1670.18,240.284 1674.22,254.753 1678.26,269.77 1682.3,285.318 1686.34,301.381 1690.38,317.938 1694.41,334.973 1698.45,352.464 1702.49,370.392 1706.53,388.737 1710.57,407.477 1714.61,426.591 1718.65,446.058 1722.69,465.856 1726.73,485.96 1730.76,506.349 1734.8,527 1738.84,547.888 1742.88,568.991 1746.92,590.283 1750.96,611.74 1755,633.339 1759.04,655.053 1763.08,676.86 1767.11,698.733 1771.15,720.647 1775.19,742.578 1779.23,764.501 1783.27,786.391 1787.31,808.221 1791.35,829.969 1795.39,851.608 1799.43,873.115 1803.46,894.464 1807.5,915.631 1811.54,936.592 1815.58,957.323 1819.62,977.801 1823.66,998.001 1827.7,1017.9 1831.74,1037.48 1835.78,1056.71 1839.81,1075.58 1843.85,1094.05 1847.89,1112.12 1851.93,1129.76 1855.97,1146.94 1860.01,1163.66 1864.05,1179.89 1868.09,1195.61 1872.13,1210.8 1876.16,1225.45 1880.2,1239.54 1884.24,1253.06 1888.28,1265.98 1892.32,1278.3 1896.36,1289.99 1900.4,1301.06 1904.44,1311.48 1908.48,1321.24 1912.51,1330.33 1916.55,1338.74 1920.59,1346.46 1924.63,1353.48 1928.67,1359.8 1932.71,1365.41 1936.75,1370.29 1940.79,1374.45 1944.83,1377.88 1948.87,1380.58 1952.9,1382.54 1956.94,1383.76 1960.98,1384.24 1965.02,1383.98 1969.06,1382.98 1973.1,1381.23 1977.14,1378.75 1981.18,1375.54 1985.22,1371.59 1989.25,1366.92 1993.29,1361.53 1997.33,1355.42 2001.37,1348.6 2005.41,1341.09 2009.45,1332.88 2013.49,1323.99 2017.53,1314.42 2021.57,1304.2 2025.6,1293.33 2029.64,1281.81 2033.68,1269.68 2037.72,1256.93 2041.76,1243.59 2045.8,1229.67 2049.84,1215.18 2053.88,1200.15 2057.92,1184.58 2061.95,1168.5 2065.99,1151.93 2070.03,1134.88 2074.07,1117.37 2078.11,1099.43 2082.15,1081.07 2086.19,1062.32 2090.23,1043.19 2094.27,1023.71 2098.3,1003.91 2102.34,983.791 2106.38,963.393 2110.42,942.734 2114.46,921.839 2118.5,900.73 2122.54,879.432 2126.58,857.969 2130.62,836.367 2134.65,814.648 2138.69,792.84 2142.73,770.965 2146.77,749.049 2150.81,727.118 2154.85,705.196 2158.89,683.308 2162.93,661.479 2166.97,639.735 2171.01,618.1 2175.04,596.598 2179.08,575.255 2183.12,554.094 2187.16,533.14 2191.2,512.417 2195.24,491.948 2199.28,471.757 2203.32,451.867 2207.36,432.3 2211.39,413.079 2215.43,394.226 2219.47,375.763 2223.51,357.709 2227.55,340.087 2231.59,322.916 2235.63,306.216 2239.67,290.005 2243.71,274.303 2247.74,259.128 2251.78,244.495 2255.82,230.423 2259.86,216.928 2263.9,204.024 2267.94,191.727 2271.98,180.05 2276.02,169.008 2280.06,158.611 2284.09,148.874 2288.13,139.805 2292.17,131.417 "/>
<polyline clip-path="url(#clip262)" style="stroke:#3da44d; stroke-linecap:round; stroke-linejoin:round; stroke-width:4; stroke-opacity:1; fill:none" points="272.718,776.377 276.757,807.964 280.796,838.56 284.835,867.751 288.874,895.138 292.913,920.35 296.952,943.042 300.991,962.907 305.03,979.674 309.069,993.114 313.108,1003.05 317.146,1009.33 321.185,1011.89 325.224,1010.69 329.263,1005.73 333.302,997.096 337.341,984.897 341.38,969.302 345.419,950.522 349.458,928.812 353.497,904.468 357.536,877.821 361.574,849.234 365.613,819.096 369.652,787.816 373.691,755.821 377.73,723.545 381.769,691.428 385.808,659.906 389.847,629.409 393.886,600.352 397.925,573.129 401.963,548.112 406.002,525.64 410.041,506.019 414.08,489.517 418.119,476.358 422.158,466.72 426.197,460.736 430.236,458.486 434.275,460 438.314,465.26 442.353,474.192 446.391,486.675 450.43,502.54 454.469,521.571 458.508,543.508 462.547,568.054 466.586,594.873 470.625,623.602 474.664,653.85 478.703,685.205 482.742,717.24 486.781,749.519 490.819,781.604 494.858,813.057 498.897,843.452 502.936,872.373 506.975,899.429 511.014,924.25 515.053,946.499 519.092,965.874 523.131,982.11 527.17,994.987 531.209,1004.33 535.247,1010.01 539.286,1011.95 543.325,1010.13 547.364,1004.57 551.403,995.337 555.442,982.569 559.481,966.436 563.52,947.157 567.559,924.994 571.598,900.249 575.637,873.259 579.675,844.391 583.714,814.036 587.753,782.61 591.792,750.538 595.831,718.258 599.87,686.209 603.909,654.826 607.948,624.537 611.987,595.754 616.026,568.868 620.065,544.246 624.103,522.221 628.142,503.095 632.181,487.126 636.22,474.533 640.259,465.486 644.298,460.11 648.337,458.476 652.376,460.607 656.415,466.475 660.454,475.998 664.492,489.049 668.531,505.449 672.57,524.974 676.609,547.361 680.648,572.303 684.687,599.461 688.726,628.466 692.765,658.924 696.804,690.42 700.843,722.525 704.882,754.802 708.92,786.813 712.959,818.122 716.998,848.303 721.037,876.945 725.076,903.659 729.115,928.081 733.154,949.879 737.193,968.756 741.232,984.455 745.271,996.764 749.31,1005.51 753.348,1010.59 757.387,1011.91 761.426,1009.47 765.465,1003.3 769.504,993.483 773.543,980.15 777.582,963.486 781.621,943.715 785.66,921.107 789.699,895.97 793.738,868.646 797.776,839.507 801.815,808.948 805.854,777.386 809.893,745.251 813.932,712.978 817.971,681.009 822.01,649.776 826.049,619.706 830.088,591.208 834.127,564.669 838.166,540.45 842.204,518.881 846.243,500.255 850.282,484.826 854.321,472.803 858.36,464.351 862.399,459.584 866.438,458.567 870.477,461.314 874.516,467.788 878.555,477.9 882.594,491.513 886.632,508.441 890.671,528.455 894.71,551.282 898.749,576.611 902.788,604.098 906.827,633.369 910.866,664.026 914.905,695.651 918.944,727.815 922.983,760.079 927.021,792.004 931.06,823.157 935.099,853.113 939.138,881.466 943.177,907.828 947.216,931.842 951.255,953.18 955.294,971.553 959.333,986.71 963.372,998.445 967.411,1006.6 971.449,1011.06 975.488,1011.77 979.527,1008.71 983.566,1001.94 987.605,991.534 991.644,977.642 995.683,960.451 999.722,940.196 1003.76,917.152 1007.8,891.633 1011.84,863.985 1015.88,834.585 1019.92,803.833 1023.96,772.147 1027.99,739.959 1032.03,707.707 1036.07,675.828 1040.11,644.757 1044.15,614.917 1048.19,586.714 1052.23,560.531 1056.27,536.725 1060.31,515.619 1064.34,497.501 1068.38,482.617 1072.42,471.17 1076.46,463.315 1080.5,459.16 1084.54,458.76 1088.58,462.122 1092.62,469.199 1096.66,479.895 1100.69,494.065 1104.73,511.517 1108.77,532.011 1112.81,555.27 1116.85,580.978 1120.89,608.784 1124.93,638.31 1128.97,669.154 1133.01,700.897 1137.04,733.107 1141.08,765.346 1145.12,797.174 1149.16,828.16 1153.2,857.881 1157.24,885.932 1161.28,911.934 1165.32,935.53 1169.36,956.402 1173.39,974.263 1177.43,988.873 1181.47,1000.03 1185.51,1007.59 1189.55,1011.43 1193.59,1011.53 1197.63,1007.86 1201.67,1000.48 1205.71,989.492 1209.75,975.045 1213.78,957.335 1217.82,936.603 1221.86,913.131 1225.9,887.238 1229.94,859.276 1233.98,829.627 1238.02,798.693 1242.06,766.895 1246.1,734.666 1250.13,702.445 1254.17,670.669 1258.21,639.772 1262.25,610.173 1266.29,582.275 1270.33,556.458 1274.37,533.073 1278.41,512.438 1282.45,494.834 1286.48,480.501 1290.52,469.633 1294.56,462.378 1298.6,458.836 1302.64,459.054 1306.68,463.029 1310.72,470.707 1314.76,481.984 1318.8,496.706 1322.83,514.674 1326.87,535.642 1330.91,559.325 1334.95,585.401 1338.99,613.515 1343.03,643.285 1347.07,674.306 1351.11,706.156 1355.15,738.4 1359.18,770.602 1363.22,802.322 1367.26,833.128 1371.3,862.603 1375.34,890.344 1379.38,915.975 1383.42,939.146 1387.46,959.542 1391.5,976.886 1395.53,990.942 1399.57,1001.52 1403.61,1008.47 1407.65,1011.71 1411.69,1011.18 1415.73,1006.9 1419.77,998.922 1423.81,987.357 1427.85,972.36 1431.88,954.137 1435.92,932.936 1439.96,909.044 1444,882.787 1448.04,854.522 1452.08,824.634 1456.12,793.529 1460.16,761.631 1464.2,729.373 1468.24,697.195 1472.27,665.534 1476.31,634.821 1480.35,605.473 1484.39,577.891 1488.43,552.45 1492.47,529.495 1496.51,509.338 1500.55,492.255 1504.59,478.478 1508.62,468.193 1512.66,461.542 1516.7,458.613 1520.74,459.449 1524.78,464.036 1528.82,472.312 1532.86,484.166 1536.9,499.435 1540.94,517.912 1544.97,539.345 1549.01,563.443 1553.05,589.879 1557.09,618.291 1561.13,648.295 1565.17,679.481 1569.21,711.425 1573.25,743.693 1577.29,775.845 1581.32,807.444 1585.36,838.061 1589.4,867.278 1593.44,894.699 1597.48,919.949 1601.52,942.686 1605.56,962.601 1609.6,979.421 1613.64,992.919 1617.67,1002.91 1621.71,1009.26 1625.75,1011.88 1629.79,1010.74 1633.83,1005.84 1637.87,997.269 1641.91,985.129 1645.95,969.589 1649.99,950.859 1654.02,929.196 1658.06,904.893 1662.1,878.282 1666.14,849.724 1670.18,819.608 1674.22,788.344 1678.26,756.357 1682.3,724.082 1686.34,691.959 1690.38,660.424 1694.41,629.906 1698.45,600.822 1702.49,573.565 1706.53,548.508 1710.57,525.992 1714.61,506.321 1718.65,489.765 1722.69,476.549 1726.73,466.851 1730.76,460.805 1734.8,458.492 1738.84,459.944 1742.88,465.142 1746.92,474.014 1750.96,486.439 1755,502.249 1759.04,521.229 1763.08,543.12 1767.11,567.625 1771.15,594.41 1775.19,623.11 1779.23,653.336 1783.27,684.676 1787.31,716.703 1791.35,748.982 1795.39,781.073 1799.43,812.541 1803.46,842.956 1807.5,871.906 1811.54,898.995 1815.58,923.857 1819.62,946.151 1823.66,965.576 1827.7,981.866 1831.74,994.801 1835.78,1004.2 1839.81,1009.95 1843.85,1011.95 1847.89,1010.19 1851.93,1004.69 1855.97,995.52 1860.01,982.81 1864.05,966.731 1868.09,947.503 1872.13,925.386 1876.16,900.681 1880.2,873.725 1884.24,844.885 1888.28,814.552 1892.32,783.14 1896.36,751.076 1900.4,718.796 1904.44,686.739 1908.48,655.341 1912.51,625.031 1916.55,596.219 1920.59,569.299 1924.63,544.635 1928.67,522.565 1932.71,503.388 1936.75,487.365 1940.79,474.714 1944.83,465.607 1948.87,460.169 1952.9,458.472 1956.94,460.541 1960.98,466.347 1965.02,475.81 1969.06,488.804 1973.1,505.149 1977.14,524.625 1981.18,546.966 1985.22,571.868 1989.25,598.992 1993.29,627.97 1997.33,658.407 2001.37,689.889 2005.41,721.987 2009.45,754.266 2013.49,786.285 2017.53,817.609 2021.57,847.812 2025.6,876.483 2029.64,903.232 2033.68,927.695 2037.72,949.539 2041.76,968.467 2045.8,984.221 2049.84,996.587 2053.88,1005.4 2057.92,1010.53 2061.95,1011.92 2065.99,1009.54 2070.03,1003.43 2074.07,993.675 2078.11,980.4 2082.15,963.789 2086.19,944.068 2090.23,921.505 2094.27,896.408 2098.3,869.117 2102.34,840.005 2106.38,809.467 2110.42,777.918 2114.46,745.788 2118.5,713.515 2122.54,681.536 2126.58,650.288 2130.62,620.195 2134.65,591.668 2138.69,565.093 2142.73,540.832 2146.77,519.217 2150.81,500.54 2154.85,485.055 2158.89,472.975 2162.93,464.462 2166.97,459.633 2171.01,458.553 2175.04,461.238 2179.08,467.65 2183.12,477.702 2187.16,491.258 2191.2,508.133 2195.24,528.098 2199.28,550.88 2203.32,576.171 2207.36,603.625 2211.39,632.869 2215.43,663.506 2219.47,695.119 2223.51,727.277 2227.55,759.543 2231.59,791.478 2235.63,822.647 2239.67,852.626 2243.71,881.009 2247.74,907.407 2251.78,931.463 2255.82,952.848 2259.86,971.272 2263.9,986.485 2267.94,998.279 2271.98,1006.49 2276.02,1011.02 2280.06,1011.79 2284.09,1008.8 2288.13,1002.08 2292.17,991.737 "/>
<polyline clip-path="url(#clip262)" style="stroke:#c271d2; stroke-linecap:round; stroke-linejoin:round; stroke-width:4; stroke-opacity:1; fill:none" points="272.718,954.489 276.757,954.313 280.796,953.886 284.835,953.21 288.874,952.285 292.913,951.112 296.952,949.693 300.991,948.028 305.03,946.121 309.069,943.973 313.108,941.586 317.146,938.964 321.185,936.109 325.224,933.025 329.263,929.715 333.302,926.183 337.341,922.433 341.38,918.469 345.419,914.295 349.458,909.918 353.497,905.34 357.536,900.569 361.574,895.609 365.613,890.465 369.652,885.144 373.691,879.652 377.73,873.996 381.769,868.18 385.808,862.213 389.847,856.101 393.886,849.851 397.925,843.47 401.963,836.965 406.002,830.344 410.041,823.614 414.08,816.784 418.119,809.86 422.158,802.851 426.197,795.765 430.236,788.61 434.275,781.394 438.314,774.125 442.353,766.812 446.391,759.462 450.43,752.085 454.469,744.688 458.508,737.281 462.547,729.872 466.586,722.468 470.625,715.079 474.664,707.713 478.703,700.379 482.742,693.084 486.781,685.837 490.819,678.647 494.858,671.521 498.897,664.468 502.936,657.496 506.975,650.612 511.014,643.825 515.053,637.143 519.092,630.572 523.131,624.121 527.17,617.797 531.209,611.606 535.247,605.557 539.286,599.656 543.325,593.91 547.364,588.325 551.403,582.908 555.442,577.665 559.481,572.601 563.52,567.723 567.559,563.037 571.598,558.547 575.637,554.259 579.675,550.177 583.714,546.307 587.753,542.652 591.792,539.218 595.831,536.007 599.87,533.023 603.909,530.271 607.948,527.752 611.987,525.47 616.026,523.428 620.065,521.628 624.103,520.071 628.142,518.76 632.181,517.696 636.22,516.881 640.259,516.315 644.298,515.999 648.337,515.933 652.376,516.117 656.415,516.552 660.454,517.236 664.492,518.17 668.531,519.351 672.57,520.778 676.609,522.451 680.648,524.366 684.687,526.522 688.726,528.916 692.765,531.546 696.804,534.409 700.843,537.5 704.882,540.818 708.92,544.357 712.959,548.115 716.998,552.086 721.037,556.266 725.076,560.65 729.115,565.234 733.154,570.012 737.193,574.978 741.232,580.128 745.271,585.454 749.31,590.952 753.348,596.614 757.387,602.434 761.426,608.406 765.465,614.523 769.504,620.778 773.543,627.163 777.582,633.672 781.621,640.296 785.66,647.029 789.699,653.863 793.738,660.79 797.776,667.801 801.815,674.89 805.854,682.047 809.893,689.265 813.932,696.536 817.971,703.85 822.01,711.201 826.049,718.579 830.088,725.976 834.127,733.383 838.166,740.793 842.204,748.196 846.243,755.584 850.282,762.949 854.321,770.283 858.36,777.576 862.399,784.821 866.438,792.009 870.477,799.133 874.516,806.183 878.555,813.153 882.594,820.033 886.632,826.817 890.671,833.496 894.71,840.063 898.749,846.51 902.788,852.83 906.827,859.015 910.866,865.06 914.905,870.956 918.944,876.697 922.983,882.276 927.021,887.688 931.06,892.925 935.099,897.983 939.138,902.854 943.177,907.534 947.216,912.018 951.255,916.299 955.294,920.374 959.333,924.237 963.372,927.884 967.411,931.312 971.449,934.515 975.488,937.491 979.527,940.236 983.566,942.747 987.605,945.021 991.644,947.055 995.683,948.848 999.722,950.396 1003.76,951.699 1007.8,952.755 1011.84,953.562 1015.88,954.12 1019.92,954.427 1023.96,954.485 1027.99,954.292 1032.03,953.849 1036.07,953.157 1040.11,952.215 1044.15,951.026 1048.19,949.59 1052.23,947.91 1056.27,945.987 1060.31,943.823 1064.34,941.421 1068.38,938.783 1072.42,935.913 1076.46,932.814 1080.5,929.489 1084.54,925.942 1088.58,922.178 1092.62,918.2 1096.66,914.013 1100.69,909.622 1104.73,905.031 1108.77,900.247 1112.81,895.275 1116.85,890.119 1120.89,884.787 1124.93,879.284 1128.97,873.617 1133.01,867.791 1137.04,861.814 1141.08,855.693 1145.12,849.434 1149.16,843.044 1153.2,836.531 1157.24,829.903 1161.28,823.167 1165.32,816.33 1169.36,809.4 1173.39,802.386 1177.43,795.295 1181.47,788.136 1185.51,780.916 1189.55,773.644 1193.59,766.328 1197.63,758.976 1201.67,751.597 1205.71,744.2 1209.75,736.792 1213.78,729.383 1217.82,721.98 1221.86,714.592 1225.9,707.228 1229.94,699.896 1233.98,692.604 1238.02,685.361 1242.06,678.174 1246.1,671.053 1250.13,664.005 1254.17,657.039 1258.21,650.161 1262.25,643.381 1266.29,636.705 1270.33,630.143 1274.37,623.7 1278.41,617.384 1282.45,611.203 1286.48,605.163 1290.52,599.272 1294.56,593.536 1298.6,587.962 1302.64,582.556 1306.68,577.325 1310.72,572.273 1314.76,567.408 1318.8,562.735 1322.83,558.258 1326.87,553.983 1330.91,549.915 1334.95,546.059 1338.99,542.419 1343.03,538.999 1347.07,535.803 1351.11,532.834 1355.15,530.097 1359.18,527.594 1363.22,525.328 1367.26,523.302 1371.3,521.517 1375.34,519.977 1379.38,518.682 1383.42,517.635 1387.46,516.836 1391.5,516.286 1395.53,515.987 1399.57,515.937 1403.61,516.138 1407.65,516.589 1411.69,517.29 1415.73,518.24 1419.77,519.437 1423.81,520.881 1427.85,522.569 1431.88,524.501 1435.92,526.673 1439.96,529.083 1444,531.728 1448.04,534.606 1452.08,537.712 1456.12,541.045 1460.16,544.599 1464.2,548.37 1468.24,552.355 1472.27,556.549 1476.31,560.947 1480.35,565.543 1484.39,570.334 1488.43,575.312 1492.47,580.474 1496.51,585.812 1500.55,591.32 1504.59,596.993 1508.62,602.824 1512.66,608.806 1516.7,614.932 1520.74,621.195 1524.78,627.589 1528.82,634.105 1532.86,640.737 1536.9,647.477 1540.94,654.317 1544.97,661.25 1549.01,668.267 1553.05,675.36 1557.09,682.522 1561.13,689.743 1565.17,697.017 1569.21,704.334 1573.25,711.687 1577.29,719.066 1581.32,726.464 1585.36,733.872 1589.4,741.282 1593.44,748.684 1597.48,756.071 1601.52,763.434 1605.56,770.765 1609.6,778.056 1613.64,785.297 1617.67,792.482 1621.71,799.601 1625.75,806.646 1629.79,813.61 1633.83,820.484 1637.87,827.261 1641.91,833.933 1645.95,840.492 1649.99,846.931 1654.02,853.242 1658.06,859.419 1662.1,865.453 1666.14,871.339 1670.18,877.07 1674.22,882.639 1678.26,888.039 1682.3,893.265 1686.34,898.31 1690.38,903.169 1694.41,907.836 1698.45,912.306 1702.49,916.574 1706.53,920.635 1710.57,924.484 1714.61,928.117 1718.65,931.53 1722.69,934.719 1726.73,937.68 1730.76,940.409 1734.8,942.904 1738.84,945.163 1742.88,947.181 1746.92,948.957 1750.96,950.49 1755,951.776 1759.04,952.815 1763.08,953.606 1767.11,954.148 1771.15,954.439 1775.19,954.48 1779.23,954.271 1783.27,953.811 1787.31,953.102 1791.35,952.144 1795.39,950.939 1799.43,949.487 1803.46,947.791 1807.5,945.851 1811.54,943.672 1815.58,941.254 1819.62,938.601 1823.66,935.715 1827.7,932.601 1831.74,929.262 1835.78,925.7 1839.81,921.922 1843.85,917.93 1847.89,913.729 1851.93,909.325 1855.97,904.722 1860.01,899.925 1864.05,894.94 1868.09,889.773 1872.13,884.429 1876.16,878.915 1880.2,873.237 1884.24,867.401 1888.28,861.415 1892.32,855.284 1896.36,849.016 1900.4,842.618 1904.44,836.098 1908.48,829.462 1912.51,822.719 1916.55,815.875 1920.59,808.94 1924.63,801.92 1928.67,794.825 1932.71,787.661 1936.75,780.437 1940.79,773.162 1944.83,765.843 1948.87,758.49 1952.9,751.11 1956.94,743.711 1960.98,736.303 1965.02,728.894 1969.06,721.492 1973.1,714.105 1977.14,706.743 1981.18,699.413 1985.22,692.124 1989.25,684.885 1993.29,677.702 1997.33,670.586 2001.37,663.543 2005.41,656.582 2009.45,649.711 2013.49,642.937 2017.53,636.269 2021.57,629.714 2025.6,623.279 2029.64,616.972 2033.68,610.8 2037.72,604.77 2041.76,598.889 2045.8,593.163 2049.84,587.6 2053.88,582.206 2057.92,576.986 2061.95,571.947 2065.99,567.094 2070.03,562.433 2074.07,557.969 2078.11,553.708 2082.15,549.654 2086.19,545.812 2090.23,542.186 2094.27,538.781 2098.3,535.6 2102.34,532.647 2106.38,529.925 2110.42,527.437 2114.46,525.187 2118.5,523.176 2122.54,521.408 2126.58,519.884 2130.62,518.605 2134.65,517.574 2138.69,516.792 2142.73,516.259 2146.77,515.976 2150.81,515.943 2154.85,516.16 2158.89,516.628 2162.93,517.345 2166.97,518.311 2171.01,519.525 2175.04,520.985 2179.08,522.689 2183.12,524.637 2187.16,526.824 2191.2,529.25 2195.24,531.911 2199.28,534.804 2203.32,537.925 2207.36,541.272 2211.39,544.841 2215.43,548.627 2219.47,552.625 2223.51,556.833 2227.55,561.244 2231.59,565.853 2235.63,570.657 2239.67,575.647 2243.71,580.821 2247.74,586.17 2251.78,591.69 2255.82,597.373 2259.86,603.214 2263.9,609.205 2267.94,615.341 2271.98,621.613 2276.02,628.015 2280.06,634.54 2284.09,641.179 2288.13,647.926 2292.17,654.772 "/>
</svg>
