<?xml version="1.0" encoding="utf-8"?>
<svg xmlns="http://www.w3.org/2000/svg" xmlns:xlink="http://www.w3.org/1999/xlink" width="600" height="400" viewBox="0 0 2400 1600">
<defs>
  <clipPath id="clip170">
    <rect x="0" y="0" width="2400" height="1600"/>
  </clipPath>
</defs>
<path clip-path="url(#clip170)" d="M0 1600 L2400 1600 L2400 0 L0 0  Z" fill="#ffffff" fill-rule="evenodd" fill-opacity="1"/>
<defs>
  <clipPath id="clip171">
    <rect x="480" y="0" width="1681" height="1600"/>
  </clipPath>
</defs>
<path clip-path="url(#clip170)" d="M174.149 1423.18 L2352.76 1423.18 L2352.76 47.2441 L174.149 47.2441  Z" fill="#ffffff" fill-rule="evenodd" fill-opacity="1"/>
<defs>
  <clipPath id="clip172">
    <rect x="174" y="47" width="2180" height="1377"/>
  </clipPath>
</defs>
<polyline clip-path="url(#clip172)" style="stroke:#000000; stroke-linecap:round; stroke-linejoin:round; stroke-width:2; stroke-opacity:0.1; fill:none" points="235.808,1423.18 235.808,47.2441 "/>
<polyline clip-path="url(#clip172)" style="stroke:#000000; stroke-linecap:round; stroke-linejoin:round; stroke-width:2; stroke-opacity:0.1; fill:none" points="749.63,1423.18 749.63,47.2441 "/>
<polyline clip-path="url(#clip172)" style="stroke:#000000; stroke-linecap:round; stroke-linejoin:round; stroke-width:2; stroke-opacity:0.1; fill:none" points="1263.45,1423.18 1263.45,47.2441 "/>
<polyline clip-path="url(#clip172)" style="stroke:#000000; stroke-linecap:round; stroke-linejoin:round; stroke-width:2; stroke-opacity:0.1; fill:none" points="1777.27,1423.18 1777.27,47.2441 "/>
<polyline clip-path="url(#clip172)" style="stroke:#000000; stroke-linecap:round; stroke-linejoin:round; stroke-width:2; stroke-opacity:0.1; fill:none" points="2291.1,1423.18 2291.1,47.2441 "/>
<polyline clip-path="url(#clip170)" style="stroke:#000000; stroke-linecap:round; stroke-linejoin:round; stroke-width:4; stroke-opacity:1; fill:none" points="174.149,1423.18 2352.76,1423.18 "/>
<polyline clip-path="url(#clip170)" style="stroke:#000000; stroke-linecap:round; stroke-linejoin:round; stroke-width:4; stroke-opacity:1; fill:none" points="235.808,1423.18 235.808,1404.28 "/>
<polyline clip-path="url(#clip170)" style="stroke:#000000; stroke-linecap:round; stroke-linejoin:round; stroke-width:4; stroke-opacity:1; fill:none" points="749.63,1423.18 749.63,1404.28 "/>
<polyline clip-path="url(#clip170)" style="stroke:#000000; stroke-linecap:round; stroke-linejoin:round; stroke-width:4; stroke-opacity:1; fill:none" points="1263.45,1423.18 1263.45,1404.28 "/>
<polyline clip-path="url(#clip170)" style="stroke:#000000; stroke-linecap:round; stroke-linejoin:round; stroke-width:4; stroke-opacity:1; fill:none" points="1777.27,1423.18 1777.27,1404.28 "/>
<polyline clip-path="url(#clip170)" style="stroke:#000000; stroke-linecap:round; stroke-linejoin:round; stroke-width:4; stroke-opacity:1; fill:none" points="2291.1,1423.18 2291.1,1404.28 "/>
<path clip-path="url(#clip170)" d="M213.192 1454.1 Q209.581 1454.1 207.752 1457.66 Q205.947 1461.2 205.947 1468.33 Q205.947 1475.44 207.752 1479.01 Q209.581 1482.55 213.192 1482.55 Q216.826 1482.55 218.632 1479.01 Q220.46 1475.44 220.46 1468.33 Q220.46 1461.2 218.632 1457.66 Q216.826 1454.1 213.192 1454.1 M213.192 1450.39 Q219.002 1450.39 222.058 1455 Q225.136 1459.58 225.136 1468.33 Q225.136 1477.06 222.058 1481.67 Q219.002 1486.25 213.192 1486.25 Q207.382 1486.25 204.303 1481.67 Q201.248 1477.06 201.248 1468.33 Q201.248 1459.58 204.303 1455 Q207.382 1450.39 213.192 1450.39 Z" fill="#000000" fill-rule="nonzero" fill-opacity="1" /><path clip-path="url(#clip170)" d="M233.354 1479.7 L238.238 1479.7 L238.238 1485.58 L233.354 1485.58 L233.354 1479.7 Z" fill="#000000" fill-rule="nonzero" fill-opacity="1" /><path clip-path="url(#clip170)" d="M258.423 1454.1 Q254.812 1454.1 252.983 1457.66 Q251.178 1461.2 251.178 1468.33 Q251.178 1475.44 252.983 1479.01 Q254.812 1482.55 258.423 1482.55 Q262.057 1482.55 263.863 1479.01 Q265.692 1475.44 265.692 1468.33 Q265.692 1461.2 263.863 1457.66 Q262.057 1454.1 258.423 1454.1 M258.423 1450.39 Q264.233 1450.39 267.289 1455 Q270.368 1459.58 270.368 1468.33 Q270.368 1477.06 267.289 1481.67 Q264.233 1486.25 258.423 1486.25 Q252.613 1486.25 249.534 1481.67 Q246.479 1477.06 246.479 1468.33 Q246.479 1459.58 249.534 1455 Q252.613 1450.39 258.423 1450.39 Z" fill="#000000" fill-rule="nonzero" fill-opacity="1" /><path clip-path="url(#clip170)" d="M721.366 1481.64 L737.686 1481.64 L737.686 1485.58 L715.741 1485.58 L715.741 1481.64 Q718.403 1478.89 722.987 1474.26 Q727.593 1469.61 728.774 1468.27 Q731.019 1465.74 731.899 1464.01 Q732.801 1462.25 732.801 1460.56 Q732.801 1457.8 730.857 1456.07 Q728.936 1454.33 725.834 1454.33 Q723.635 1454.33 721.181 1455.09 Q718.751 1455.86 715.973 1457.41 L715.973 1452.69 Q718.797 1451.55 721.251 1450.97 Q723.704 1450.39 725.741 1450.39 Q731.112 1450.39 734.306 1453.08 Q737.5 1455.77 737.5 1460.26 Q737.5 1462.39 736.69 1464.31 Q735.903 1466.2 733.797 1468.8 Q733.218 1469.47 730.116 1472.69 Q727.014 1475.88 721.366 1481.64 Z" fill="#000000" fill-rule="nonzero" fill-opacity="1" /><path clip-path="url(#clip170)" d="M747.5 1479.7 L752.385 1479.7 L752.385 1485.58 L747.5 1485.58 L747.5 1479.7 Z" fill="#000000" fill-rule="nonzero" fill-opacity="1" /><path clip-path="url(#clip170)" d="M762.616 1451.02 L780.972 1451.02 L780.972 1454.96 L766.898 1454.96 L766.898 1463.43 Q767.917 1463.08 768.935 1462.92 Q769.954 1462.73 770.972 1462.73 Q776.759 1462.73 780.139 1465.9 Q783.519 1469.08 783.519 1474.49 Q783.519 1480.07 780.047 1483.17 Q776.574 1486.25 770.255 1486.25 Q768.079 1486.25 765.81 1485.88 Q763.565 1485.51 761.158 1484.77 L761.158 1480.07 Q763.241 1481.2 765.463 1481.76 Q767.685 1482.32 770.162 1482.32 Q774.167 1482.32 776.505 1480.21 Q778.843 1478.1 778.843 1474.49 Q778.843 1470.88 776.505 1468.77 Q774.167 1466.67 770.162 1466.67 Q768.287 1466.67 766.412 1467.08 Q764.56 1467.5 762.616 1468.38 L762.616 1451.02 Z" fill="#000000" fill-rule="nonzero" fill-opacity="1" /><path clip-path="url(#clip170)" d="M1230.62 1451.02 L1248.97 1451.02 L1248.97 1454.96 L1234.9 1454.96 L1234.9 1463.43 Q1235.92 1463.08 1236.94 1462.92 Q1237.95 1462.73 1238.97 1462.73 Q1244.76 1462.73 1248.14 1465.9 Q1251.52 1469.08 1251.52 1474.49 Q1251.52 1480.07 1248.05 1483.17 Q1244.58 1486.25 1238.26 1486.25 Q1236.08 1486.25 1233.81 1485.88 Q1231.57 1485.51 1229.16 1484.77 L1229.16 1480.07 Q1231.24 1481.2 1233.46 1481.76 Q1235.69 1482.32 1238.16 1482.32 Q1242.17 1482.32 1244.51 1480.21 Q1246.84 1478.1 1246.84 1474.49 Q1246.84 1470.88 1244.51 1468.77 Q1242.17 1466.67 1238.16 1466.67 Q1236.29 1466.67 1234.41 1467.08 Q1232.56 1467.5 1230.62 1468.38 L1230.62 1451.02 Z" fill="#000000" fill-rule="nonzero" fill-opacity="1" /><path clip-path="url(#clip170)" d="M1260.73 1479.7 L1265.62 1479.7 L1265.62 1485.58 L1260.73 1485.58 L1260.73 1479.7 Z" fill="#000000" fill-rule="nonzero" fill-opacity="1" /><path clip-path="url(#clip170)" d="M1285.8 1454.1 Q1282.19 1454.1 1280.36 1457.66 Q1278.56 1461.2 1278.56 1468.33 Q1278.56 1475.44 1280.36 1479.01 Q1282.19 1482.55 1285.8 1482.55 Q1289.44 1482.55 1291.24 1479.01 Q1293.07 1475.44 1293.07 1468.33 Q1293.07 1461.2 1291.24 1457.66 Q1289.44 1454.1 1285.8 1454.1 M1285.8 1450.39 Q1291.61 1450.39 1294.67 1455 Q1297.75 1459.58 1297.75 1468.33 Q1297.75 1477.06 1294.67 1481.67 Q1291.61 1486.25 1285.8 1486.25 Q1279.99 1486.25 1276.91 1481.67 Q1273.86 1477.06 1273.86 1468.33 Q1273.86 1459.58 1276.91 1455 Q1279.99 1450.39 1285.8 1450.39 Z" fill="#000000" fill-rule="nonzero" fill-opacity="1" /><path clip-path="url(#clip170)" d="M1743.59 1451.02 L1765.82 1451.02 L1765.82 1453.01 L1753.27 1485.58 L1748.39 1485.58 L1760.19 1454.96 L1743.59 1454.96 L1743.59 1451.02 Z" fill="#000000" fill-rule="nonzero" fill-opacity="1" /><path clip-path="url(#clip170)" d="M1774.94 1479.7 L1779.82 1479.7 L1779.82 1485.58 L1774.94 1485.58 L1774.94 1479.7 Z" fill="#000000" fill-rule="nonzero" fill-opacity="1" /><path clip-path="url(#clip170)" d="M1790.05 1451.02 L1808.41 1451.02 L1808.41 1454.96 L1794.33 1454.96 L1794.33 1463.43 Q1795.35 1463.08 1796.37 1462.92 Q1797.39 1462.73 1798.41 1462.73 Q1804.2 1462.73 1807.58 1465.9 Q1810.96 1469.08 1810.96 1474.49 Q1810.96 1480.07 1807.48 1483.17 Q1804.01 1486.25 1797.69 1486.25 Q1795.52 1486.25 1793.25 1485.88 Q1791 1485.51 1788.59 1484.77 L1788.59 1480.07 Q1790.68 1481.2 1792.9 1481.76 Q1795.12 1482.32 1797.6 1482.32 Q1801.6 1482.32 1803.94 1480.21 Q1806.28 1478.1 1806.28 1474.49 Q1806.28 1470.88 1803.94 1468.77 Q1801.6 1466.67 1797.6 1466.67 Q1795.72 1466.67 1793.85 1467.08 Q1792 1467.5 1790.05 1468.38 L1790.05 1451.02 Z" fill="#000000" fill-rule="nonzero" fill-opacity="1" /><path clip-path="url(#clip170)" d="M2243.17 1481.64 L2250.81 1481.64 L2250.81 1455.28 L2242.5 1456.95 L2242.5 1452.69 L2250.76 1451.02 L2255.44 1451.02 L2255.44 1481.64 L2263.08 1481.64 L2263.08 1485.58 L2243.17 1485.58 L2243.17 1481.64 Z" fill="#000000" fill-rule="nonzero" fill-opacity="1" /><path clip-path="url(#clip170)" d="M2282.52 1454.1 Q2278.91 1454.1 2277.08 1457.66 Q2275.28 1461.2 2275.28 1468.33 Q2275.28 1475.44 2277.08 1479.01 Q2278.91 1482.55 2282.52 1482.55 Q2286.16 1482.55 2287.96 1479.01 Q2289.79 1475.44 2289.79 1468.33 Q2289.79 1461.2 2287.96 1457.66 Q2286.16 1454.1 2282.52 1454.1 M2282.52 1450.39 Q2288.33 1450.39 2291.39 1455 Q2294.47 1459.58 2294.47 1468.33 Q2294.47 1477.06 2291.39 1481.67 Q2288.33 1486.25 2282.52 1486.25 Q2276.71 1486.25 2273.63 1481.67 Q2270.58 1477.06 2270.58 1468.33 Q2270.58 1459.58 2273.63 1455 Q2276.71 1450.39 2282.52 1450.39 Z" fill="#000000" fill-rule="nonzero" fill-opacity="1" /><path clip-path="url(#clip170)" d="M2302.68 1479.7 L2307.57 1479.7 L2307.57 1485.58 L2302.68 1485.58 L2302.68 1479.7 Z" fill="#000000" fill-rule="nonzero" fill-opacity="1" /><path clip-path="url(#clip170)" d="M2327.75 1454.1 Q2324.14 1454.1 2322.31 1457.66 Q2320.51 1461.2 2320.51 1468.33 Q2320.51 1475.44 2322.31 1479.01 Q2324.14 1482.55 2327.75 1482.55 Q2331.39 1482.55 2333.19 1479.01 Q2335.02 1475.44 2335.02 1468.33 Q2335.02 1461.2 2333.19 1457.66 Q2331.39 1454.1 2327.75 1454.1 M2327.75 1450.39 Q2333.56 1450.39 2336.62 1455 Q2339.7 1459.58 2339.7 1468.33 Q2339.7 1477.06 2336.62 1481.67 Q2333.56 1486.25 2327.75 1486.25 Q2321.94 1486.25 2318.86 1481.67 Q2315.81 1477.06 2315.81 1468.33 Q2315.81 1459.58 2318.86 1455 Q2321.94 1450.39 2327.75 1450.39 Z" fill="#000000" fill-rule="nonzero" fill-opacity="1" /><path clip-path="url(#clip170)" d="M1262.51 1522.27 L1262.51 1532.4 L1274.58 1532.4 L1274.58 1536.95 L1262.51 1536.95 L1262.51 1556.3 Q1262.51 1560.66 1263.69 1561.9 Q1264.9 1563.14 1268.56 1563.14 L1274.58 1563.14 L1274.58 1568.04 L1268.56 1568.04 Q1261.78 1568.04 1259.2 1565.53 Q1256.63 1562.98 1256.63 1556.3 L1256.63 1536.95 L1252.33 1536.95 L1252.33 1532.4 L1256.63 1532.4 L1256.63 1522.27 L1262.51 1522.27 Z" fill="#000000" fill-rule="nonzero" fill-opacity="1" /><polyline clip-path="url(#clip172)" style="stroke:#000000; stroke-linecap:round; stroke-linejoin:round; stroke-width:2; stroke-opacity:0.1; fill:none" points="174.149,1186.08 2352.76,1186.08 "/>
<polyline clip-path="url(#clip172)" style="stroke:#000000; stroke-linecap:round; stroke-linejoin:round; stroke-width:2; stroke-opacity:0.1; fill:none" points="174.149,814.378 2352.76,814.378 "/>
<polyline clip-path="url(#clip172)" style="stroke:#000000; stroke-linecap:round; stroke-linejoin:round; stroke-width:2; stroke-opacity:0.1; fill:none" points="174.149,442.673 2352.76,442.673 "/>
<polyline clip-path="url(#clip172)" style="stroke:#000000; stroke-linecap:round; stroke-linejoin:round; stroke-width:2; stroke-opacity:0.1; fill:none" points="174.149,70.9677 2352.76,70.9677 "/>
<polyline clip-path="url(#clip170)" style="stroke:#000000; stroke-linecap:round; stroke-linejoin:round; stroke-width:4; stroke-opacity:1; fill:none" points="174.149,1423.18 174.149,47.2441 "/>
<polyline clip-path="url(#clip170)" style="stroke:#000000; stroke-linecap:round; stroke-linejoin:round; stroke-width:4; stroke-opacity:1; fill:none" points="174.149,1186.08 193.047,1186.08 "/>
<polyline clip-path="url(#clip170)" style="stroke:#000000; stroke-linecap:round; stroke-linejoin:round; stroke-width:4; stroke-opacity:1; fill:none" points="174.149,814.378 193.047,814.378 "/>
<polyline clip-path="url(#clip170)" style="stroke:#000000; stroke-linecap:round; stroke-linejoin:round; stroke-width:4; stroke-opacity:1; fill:none" points="174.149,442.673 193.047,442.673 "/>
<polyline clip-path="url(#clip170)" style="stroke:#000000; stroke-linecap:round; stroke-linejoin:round; stroke-width:4; stroke-opacity:1; fill:none" points="174.149,70.9677 193.047,70.9677 "/>
<path clip-path="url(#clip170)" d="M126.205 1171.88 Q122.593 1171.88 120.765 1175.45 Q118.959 1178.99 118.959 1186.12 Q118.959 1193.22 120.765 1196.79 Q122.593 1200.33 126.205 1200.33 Q129.839 1200.33 131.644 1196.79 Q133.473 1193.22 133.473 1186.12 Q133.473 1178.99 131.644 1175.45 Q129.839 1171.88 126.205 1171.88 M126.205 1168.18 Q132.015 1168.18 135.07 1172.78 Q138.149 1177.37 138.149 1186.12 Q138.149 1194.84 135.07 1199.45 Q132.015 1204.03 126.205 1204.03 Q120.394 1204.03 117.316 1199.45 Q114.26 1194.84 114.26 1186.12 Q114.26 1177.37 117.316 1172.78 Q120.394 1168.18 126.205 1168.18 Z" fill="#000000" fill-rule="nonzero" fill-opacity="1" /><path clip-path="url(#clip170)" d="M118.242 827.722 L125.88 827.722 L125.88 801.357 L117.57 803.023 L117.57 798.764 L125.834 797.098 L130.51 797.098 L130.51 827.722 L138.149 827.722 L138.149 831.658 L118.242 831.658 L118.242 827.722 Z" fill="#000000" fill-rule="nonzero" fill-opacity="1" /><path clip-path="url(#clip170)" d="M121.83 456.017 L138.149 456.017 L138.149 459.953 L116.205 459.953 L116.205 456.017 Q118.867 453.263 123.45 448.633 Q128.056 443.98 129.237 442.638 Q131.482 440.115 132.362 438.379 Q133.265 436.619 133.265 434.93 Q133.265 432.175 131.32 430.439 Q129.399 428.703 126.297 428.703 Q124.098 428.703 121.644 429.467 Q119.214 430.231 116.436 431.781 L116.436 427.059 Q119.26 425.925 121.714 425.346 Q124.168 424.768 126.205 424.768 Q131.575 424.768 134.769 427.453 Q137.964 430.138 137.964 434.629 Q137.964 436.758 137.154 438.68 Q136.367 440.578 134.26 443.17 Q133.681 443.842 130.58 447.059 Q127.478 450.254 121.83 456.017 Z" fill="#000000" fill-rule="nonzero" fill-opacity="1" /><path clip-path="url(#clip170)" d="M131.019 69.6136 Q134.376 70.3312 136.251 72.5997 Q138.149 74.8682 138.149 78.2015 Q138.149 83.3172 134.63 86.1181 Q131.112 88.919 124.63 88.919 Q122.455 88.919 120.14 88.4792 Q117.848 88.0625 115.394 87.2061 L115.394 82.6922 Q117.339 83.8264 119.654 84.4052 Q121.968 84.9839 124.492 84.9839 Q128.89 84.9839 131.181 83.2477 Q133.496 81.5116 133.496 78.2015 Q133.496 75.1459 131.343 73.433 Q129.214 71.6969 125.394 71.6969 L121.367 71.6969 L121.367 67.8543 L125.58 67.8543 Q129.029 67.8543 130.857 66.4886 Q132.686 65.0997 132.686 62.5071 Q132.686 59.8451 130.788 58.4331 Q128.913 56.9979 125.394 56.9979 Q123.473 56.9979 121.274 57.4146 Q119.075 57.8312 116.436 58.7108 L116.436 54.5442 Q119.098 53.8035 121.413 53.4331 Q123.751 53.0627 125.811 53.0627 Q131.135 53.0627 134.237 55.4933 Q137.339 57.9007 137.339 62.021 Q137.339 64.8914 135.695 66.8821 Q134.052 68.8497 131.019 69.6136 Z" fill="#000000" fill-rule="nonzero" fill-opacity="1" /><path clip-path="url(#clip170)" d="M20.8447 948.702 Q20.8447 955.704 26.0645 959.842 Q31.2844 963.948 40.2919 963.948 Q49.2675 963.948 54.4874 959.842 Q59.7073 955.704 59.7073 948.702 Q59.7073 941.7 54.4874 937.626 Q49.2675 933.52 40.2919 933.52 Q31.2844 933.52 26.0645 937.626 Q20.8447 941.7 20.8447 948.702 M15.6248 948.702 Q15.6248 938.708 22.3406 932.724 Q29.0246 926.74 40.2919 926.74 Q51.5274 926.74 58.2432 932.724 Q64.9272 938.708 64.9272 948.702 Q64.9272 958.728 58.2432 964.743 Q51.5592 970.727 40.2919 970.727 Q29.0246 970.727 22.3406 964.743 Q15.6248 958.728 15.6248 948.702 Z" fill="#000000" fill-rule="nonzero" fill-opacity="1" /><path clip-path="url(#clip170)" d="M49.9359 917.542 L28.3562 917.542 L28.3562 911.685 L49.7131 911.685 Q54.7739 911.685 57.3202 909.712 Q59.8346 907.739 59.8346 903.792 Q59.8346 899.049 56.8109 896.312 Q53.7872 893.543 48.5673 893.543 L28.3562 893.543 L28.3562 887.687 L64.0042 887.687 L64.0042 893.543 L58.5296 893.543 Q61.7762 895.676 63.3676 898.508 Q64.9272 901.309 64.9272 905.033 Q64.9272 911.176 61.1078 914.359 Q57.2883 917.542 49.9359 917.542 M27.4968 902.805 L27.4968 902.805 Z" fill="#000000" fill-rule="nonzero" fill-opacity="1" /><path clip-path="url(#clip170)" d="M18.2347 869.831 L28.3562 869.831 L28.3562 857.768 L32.9077 857.768 L32.9077 869.831 L52.2594 869.831 Q56.6199 869.831 57.8613 868.653 Q59.1026 867.444 59.1026 863.783 L59.1026 857.768 L64.0042 857.768 L64.0042 863.783 Q64.0042 870.563 61.4897 873.141 Q58.9434 875.719 52.2594 875.719 L32.9077 875.719 L32.9077 880.016 L28.3562 880.016 L28.3562 875.719 L18.2347 875.719 L18.2347 869.831 Z" fill="#000000" fill-rule="nonzero" fill-opacity="1" /><path clip-path="url(#clip170)" d="M58.657 844.4 L77.5631 844.4 L77.5631 850.288 L28.3562 850.288 L28.3562 844.4 L33.7671 844.4 Q30.5842 842.554 29.0564 839.753 Q27.4968 836.92 27.4968 833.005 Q27.4968 826.512 32.6531 822.47 Q37.8093 818.396 46.212 818.396 Q54.6147 818.396 59.771 822.47 Q64.9272 826.512 64.9272 833.005 Q64.9272 836.92 63.3994 839.753 Q61.8398 842.554 58.657 844.4 M46.212 824.475 Q39.7508 824.475 36.0905 827.149 Q32.3984 829.79 32.3984 834.437 Q32.3984 839.084 36.0905 841.758 Q39.7508 844.4 46.212 844.4 Q52.6732 844.4 56.3653 841.758 Q60.0256 839.084 60.0256 834.437 Q60.0256 829.79 56.3653 827.149 Q52.6732 824.475 46.212 824.475 Z" fill="#000000" fill-rule="nonzero" fill-opacity="1" /><path clip-path="url(#clip170)" d="M49.9359 809.293 L28.3562 809.293 L28.3562 803.436 L49.7131 803.436 Q54.7739 803.436 57.3202 801.463 Q59.8346 799.49 59.8346 795.543 Q59.8346 790.801 56.8109 788.063 Q53.7872 785.294 48.5673 785.294 L28.3562 785.294 L28.3562 779.438 L64.0042 779.438 L64.0042 785.294 L58.5296 785.294 Q61.7762 787.427 63.3676 790.259 Q64.9272 793.06 64.9272 796.784 Q64.9272 802.927 61.1078 806.11 Q57.2883 809.293 49.9359 809.293 M27.4968 794.556 L27.4968 794.556 Z" fill="#000000" fill-rule="nonzero" fill-opacity="1" /><path clip-path="url(#clip170)" d="M18.2347 761.582 L28.3562 761.582 L28.3562 749.519 L32.9077 749.519 L32.9077 761.582 L52.2594 761.582 Q56.6199 761.582 57.8613 760.404 Q59.1026 759.195 59.1026 755.534 L59.1026 749.519 L64.0042 749.519 L64.0042 755.534 Q64.0042 762.314 61.4897 764.892 Q58.9434 767.47 52.2594 767.47 L32.9077 767.47 L32.9077 771.767 L28.3562 771.767 L28.3562 767.47 L18.2347 767.47 L18.2347 761.582 Z" fill="#000000" fill-rule="nonzero" fill-opacity="1" /><path clip-path="url(#clip170)" d="M21.7677 735.132 L39.6235 735.132 L39.6235 727.048 Q39.6235 722.56 37.3 720.109 Q34.9765 717.659 30.6797 717.659 Q26.4147 717.659 24.0912 720.109 Q21.7677 722.56 21.7677 727.048 L21.7677 735.132 M16.4842 741.562 L16.4842 727.048 Q16.4842 719.059 20.1126 714.985 Q23.7092 710.879 30.6797 710.879 Q37.7138 710.879 41.3104 714.985 Q44.907 719.059 44.907 727.048 L44.907 735.132 L64.0042 735.132 L64.0042 741.562 L16.4842 741.562 Z" fill="#000000" fill-rule="nonzero" fill-opacity="1" /><path clip-path="url(#clip170)" d="M32.4621 691.018 Q32.4621 695.729 36.1542 698.466 Q39.8145 701.203 46.212 701.203 Q52.6095 701.203 56.3017 698.498 Q59.9619 695.761 59.9619 691.018 Q59.9619 686.339 56.2698 683.602 Q52.5777 680.865 46.212 680.865 Q39.8781 680.865 36.186 683.602 Q32.4621 686.339 32.4621 691.018 M27.4968 691.018 Q27.4968 683.379 32.4621 679.019 Q37.4273 674.658 46.212 674.658 Q54.9649 674.658 59.9619 679.019 Q64.9272 683.379 64.9272 691.018 Q64.9272 698.689 59.9619 703.049 Q54.9649 707.378 46.212 707.378 Q37.4273 707.378 32.4621 703.049 Q27.4968 698.689 27.4968 691.018 Z" fill="#000000" fill-rule="nonzero" fill-opacity="1" /><path clip-path="url(#clip170)" d="M29.4065 642.225 L34.9447 642.225 Q33.6716 644.708 33.035 647.381 Q32.3984 650.055 32.3984 652.919 Q32.3984 657.28 33.7352 659.476 Q35.072 661.64 37.7456 661.64 Q39.7826 661.64 40.9603 660.081 Q42.1061 658.521 43.1565 653.81 L43.6021 651.805 Q44.9389 645.567 47.3897 642.957 Q49.8086 640.315 54.1691 640.315 Q59.1344 640.315 62.0308 644.262 Q64.9272 648.177 64.9272 655.052 Q64.9272 657.916 64.3543 661.036 Q63.8132 664.123 62.6992 667.56 L56.6518 667.56 Q58.3387 664.314 59.198 661.163 Q60.0256 658.012 60.0256 654.924 Q60.0256 650.787 58.6251 648.559 Q57.1929 646.331 54.6147 646.331 Q52.2276 646.331 50.9545 647.954 Q49.6813 649.545 48.5037 654.988 L48.0262 657.025 Q46.8804 662.468 44.5251 664.887 Q42.138 667.306 38.0002 667.306 Q32.9713 667.306 30.2341 663.741 Q27.4968 660.176 27.4968 653.62 Q27.4968 650.373 27.9743 647.508 Q28.4517 644.644 29.4065 642.225 Z" fill="#000000" fill-rule="nonzero" fill-opacity="1" /><path clip-path="url(#clip170)" d="M28.3562 630.989 L28.3562 625.133 L64.0042 625.133 L64.0042 630.989 L28.3562 630.989 M14.479 630.989 L14.479 625.133 L21.895 625.133 L21.895 630.989 L14.479 630.989 Z" fill="#000000" fill-rule="nonzero" fill-opacity="1" /><path clip-path="url(#clip170)" d="M18.2347 607.086 L28.3562 607.086 L28.3562 595.023 L32.9077 595.023 L32.9077 607.086 L52.2594 607.086 Q56.6199 607.086 57.8613 605.909 Q59.1026 604.699 59.1026 601.039 L59.1026 595.023 L64.0042 595.023 L64.0042 601.039 Q64.0042 607.818 61.4897 610.396 Q58.9434 612.974 52.2594 612.974 L32.9077 612.974 L32.9077 617.271 L28.3562 617.271 L28.3562 612.974 L18.2347 612.974 L18.2347 607.086 Z" fill="#000000" fill-rule="nonzero" fill-opacity="1" /><path clip-path="url(#clip170)" d="M28.3562 587.321 L28.3562 581.464 L64.0042 581.464 L64.0042 587.321 L28.3562 587.321 M14.479 587.321 L14.479 581.464 L21.895 581.464 L21.895 587.321 L14.479 587.321 Z" fill="#000000" fill-rule="nonzero" fill-opacity="1" /><path clip-path="url(#clip170)" d="M32.4621 555.397 Q32.4621 560.107 36.1542 562.845 Q39.8145 565.582 46.212 565.582 Q52.6095 565.582 56.3017 562.876 Q59.9619 560.139 59.9619 555.397 Q59.9619 550.718 56.2698 547.981 Q52.5777 545.243 46.212 545.243 Q39.8781 545.243 36.186 547.981 Q32.4621 550.718 32.4621 555.397 M27.4968 555.397 Q27.4968 547.758 32.4621 543.397 Q37.4273 539.037 46.212 539.037 Q54.9649 539.037 59.9619 543.397 Q64.9272 547.758 64.9272 555.397 Q64.9272 563.067 59.9619 567.428 Q54.9649 571.757 46.212 571.757 Q37.4273 571.757 32.4621 567.428 Q27.4968 563.067 27.4968 555.397 Z" fill="#000000" fill-rule="nonzero" fill-opacity="1" /><path clip-path="url(#clip170)" d="M42.4881 499.697 L64.0042 499.697 L64.0042 505.553 L42.679 505.553 Q37.6183 505.553 35.1038 507.527 Q32.5894 509.5 32.5894 513.447 Q32.5894 518.189 35.6131 520.926 Q38.6368 523.664 43.8567 523.664 L64.0042 523.664 L64.0042 529.552 L28.3562 529.552 L28.3562 523.664 L33.8944 523.664 Q30.6797 521.563 29.0883 518.73 Q27.4968 515.866 27.4968 512.142 Q27.4968 505.999 31.3163 502.848 Q35.1038 499.697 42.4881 499.697 Z" fill="#000000" fill-rule="nonzero" fill-opacity="1" /><polyline clip-path="url(#clip172)" style="stroke:#009af9; stroke-linecap:round; stroke-linejoin:round; stroke-width:4; stroke-opacity:1; fill:none" points="235.808,896.987 256.361,896.581 276.913,895.37 297.466,893.378 318.019,890.646 338.572,887.227 359.125,883.191 379.678,878.618 400.231,873.6 420.784,868.236 441.337,862.634 461.889,856.907 482.442,851.168 502.995,845.533 523.548,840.114 544.101,834.393 564.654,828.483 585.207,822.503 605.76,816.572 626.313,810.809 646.866,805.33 667.418,800.244 687.971,795.652 708.524,791.647 729.077,788.308 749.63,785.703 770.183,783.883 790.736,782.885 811.289,782.729 831.842,783.417 852.394,784.937 872.947,787.258 893.5,790.333 914.053,794.101 934.606,798.486 955.159,803.402 975.712,808.748 996.265,814.419 1016.82,820.302 1037.37,826.278 1057.92,832.227 1078.48,838.032 1099.03,843.576 1119.58,849.375 1140.14,855.313 1160.69,861.272 1181.24,867.132 1201.79,872.777 1222.35,878.093 1242.9,882.974 1263.45,887.322 1284.01,891.051 1304.56,894.086 1325.11,896.366 1345.66,897.845 1366.22,898.494 1386.77,898.3 1407.32,897.268 1427.88,895.416 1448.43,892.784 1468.98,889.422 1489.53,885.399 1510.09,880.795 1530.64,875.701 1551.19,870.221 1571.75,864.463 1592.3,858.543 1612.85,852.578 1633.4,846.689 1653.96,840.993 1674.51,835.604 1695.06,830.003 1715.62,824.301 1736.17,818.612 1756.72,813.051 1777.27,807.728 1797.83,802.75 1818.38,798.217 1838.93,794.219 1859.49,790.836 1880.04,788.136 1900.59,786.172 1921.15,784.985 1941.7,784.597 1962.25,785.017 1982.8,786.237 2003.36,788.231 2023.91,790.959 2044.46,794.369 2065.02,798.39 2085.57,802.943 2106.12,807.937 2126.67,813.271 2147.23,818.84 2167.78,824.531 2188.33,830.231 2208.89,835.826 2229.44,841.205 2249.99,846.885 2270.54,852.755 2291.1,858.697 "/>
<polyline clip-path="url(#clip172)" style="stroke:#e26f46; stroke-linecap:round; stroke-linejoin:round; stroke-width:4; stroke-opacity:1; fill:none" points="235.808,1298.3 256.361,1296.79 276.913,1292.27 297.466,1284.85 318.019,1274.66 338.572,1261.91 359.125,1246.86 379.678,1229.81 400.231,1211.1 420.784,1191.1 441.337,1170.22 461.889,1148.86 482.442,1127.47 502.995,1106.46 523.548,1086.25 544.101,1064.92 564.654,1042.88 585.207,1020.58 605.76,998.471 626.313,976.985 646.866,956.555 667.418,937.59 687.971,920.47 708.524,905.536 729.077,893.088 749.63,883.374 770.183,876.588 790.736,872.867 811.289,872.285 831.842,874.853 852.394,880.52 872.947,889.173 893.5,900.639 914.053,914.687 934.606,931.039 955.159,949.365 975.712,969.3 996.265,990.446 1016.82,1012.38 1037.37,1034.66 1057.92,1056.84 1078.48,1078.49 1099.03,1099.16 1119.58,1120.78 1140.14,1142.92 1160.69,1165.14 1181.24,1186.99 1201.79,1208.04 1222.35,1227.86 1242.9,1246.05 1263.45,1262.27 1284.01,1276.17 1304.56,1287.49 1325.11,1295.99 1345.66,1301.5 1366.22,1303.92 1386.77,1303.2 1407.32,1299.35 1427.88,1292.45 1448.43,1282.63 1468.98,1270.1 1489.53,1255.1 1510.09,1237.93 1530.64,1218.94 1551.19,1198.5 1571.75,1177.04 1592.3,1154.96 1612.85,1132.72 1633.4,1110.77 1653.96,1089.53 1674.51,1069.43 1695.06,1048.55 1715.62,1027.29 1736.17,1006.08 1756.72,985.343 1777.27,965.497 1797.83,946.937 1818.38,930.034 1838.93,915.127 1859.49,902.513 1880.04,892.445 1900.59,885.124 1921.15,880.697 1941.7,879.252 1962.25,880.818 1982.8,885.364 2003.36,892.799 2023.91,902.974 2044.46,915.685 2065.02,930.679 2085.57,947.655 2106.12,966.275 2126.67,986.165 2147.23,1006.93 2167.78,1028.15 2188.33,1049.4 2208.89,1070.26 2229.44,1090.32 2249.99,1111.5 2270.54,1133.38 2291.1,1155.54 "/>
<polyline clip-path="url(#clip172)" style="stroke:#3da44d; stroke-linecap:round; stroke-linejoin:round; stroke-width:4; stroke-opacity:1; fill:none" points="235.808,1366.28 256.361,1361.72 276.913,1348.15 297.466,1325.84 318.019,1295.23 338.572,1256.93 359.125,1211.71 379.678,1160.48 400.231,1104.25 420.784,1044.16 441.337,981.404 461.889,917.238 482.442,852.946 502.995,789.813 523.548,729.103 544.101,665.001 564.654,598.788 585.207,531.79 605.76,465.346 626.313,400.785 646.866,339.398 667.418,282.413 687.971,230.97 708.524,186.098 729.077,148.693 749.63,119.505 770.183,99.1163 790.736,87.9354 811.289,86.1857 831.842,93.9022 852.394,110.931 872.947,136.93 893.5,171.382 914.053,213.595 934.606,262.727 955.159,317.794 975.712,377.695 996.265,441.232 1016.82,507.134 1037.37,574.084 1057.92,640.742 1078.48,705.775 1099.03,767.883 1119.58,832.851 1140.14,899.381 1160.69,966.142 1181.24,1031.8 1201.79,1095.04 1222.35,1154.59 1242.9,1209.28 1263.45,1257.99 1284.01,1299.77 1304.56,1333.77 1325.11,1359.31 1345.66,1375.88 1366.22,1383.16 1386.77,1380.99 1407.32,1369.42 1427.88,1348.67 1448.43,1319.18 1468.98,1281.52 1489.53,1236.44 1510.09,1184.86 1530.64,1127.8 1551.19,1066.4 1571.75,1001.89 1592.3,935.563 1612.85,868.742 1633.4,802.765 1653.96,738.95 1674.51,678.576 1695.06,615.82 1715.62,551.937 1736.17,488.206 1756.72,425.9 1777.27,366.267 1797.83,310.498 1818.38,259.709 1838.93,214.916 1859.49,177.014 1880.04,146.762 1900.59,124.765 1921.15,111.463 1941.7,107.121 1962.25,111.827 1982.8,125.486 2003.36,147.825 2023.91,178.398 2044.46,216.593 2065.02,261.646 2085.57,312.656 2106.12,368.603 2126.67,428.368 2147.23,490.755 2167.78,554.517 2188.33,618.379 2208.89,681.063 2229.44,741.316 2249.99,804.961 2270.54,870.726 2291.1,937.294 "/>
<polyline clip-path="url(#clip172)" style="stroke:#c271d2; stroke-linecap:round; stroke-linejoin:round; stroke-width:4; stroke-opacity:1; fill:none" points="235.808,784.332 256.361,784.738 276.913,785.949 297.466,787.941 318.019,790.674 338.572,794.092 359.125,798.128 379.678,802.701 400.231,807.72 420.784,813.083 441.337,818.685 461.889,824.412 482.442,830.151 502.995,835.786 523.548,841.205 544.101,846.927 564.654,852.837 585.207,858.817 605.76,864.747 626.313,870.51 646.866,875.989 667.418,881.076 687.971,885.667 708.524,889.673 729.077,893.011 749.63,895.617 770.183,897.437 790.736,898.435 811.289,898.591 831.842,897.902 852.394,896.382 872.947,894.061 893.5,890.986 914.053,887.218 934.606,882.833 955.159,877.918 975.712,872.571 996.265,866.9 1016.82,861.018 1037.37,855.042 1057.92,849.092 1078.48,843.287 1099.03,837.744 1119.58,831.945 1140.14,826.006 1160.69,820.047 1181.24,814.187 1201.79,808.542 1222.35,803.226 1242.9,798.345 1263.45,793.997 1284.01,790.268 1304.56,787.234 1325.11,784.954 1345.66,783.474 1366.22,782.825 1386.77,783.019 1407.32,784.052 1427.88,785.903 1448.43,788.536 1468.98,791.897 1489.53,795.92 1510.09,800.525 1530.64,805.618 1551.19,811.098 1571.75,816.856 1592.3,822.777 1612.85,828.741 1633.4,834.63 1653.96,840.326 1674.51,845.715 1695.06,851.316 1715.62,857.018 1736.17,862.707 1756.72,868.268 1777.27,873.591 1797.83,878.569 1818.38,883.102 1838.93,887.1 1859.49,890.483 1880.04,893.184 1900.59,895.147 1921.15,896.334 1941.7,896.722 1962.25,896.302 1982.8,895.083 2003.36,893.089 2023.91,890.36 2044.46,886.951 2065.02,882.929 2085.57,878.376 2106.12,873.383 2126.67,868.048 2147.23,862.479 2167.78,856.788 2188.33,851.088 2208.89,845.493 2229.44,840.115 2249.99,834.434 2270.54,828.564 2291.1,822.622 "/>
<polyline clip-path="url(#clip172)" style="stroke:#ac8d18; stroke-linecap:round; stroke-linejoin:round; stroke-width:4; stroke-opacity:1; fill:none" points="235.808,878.263 256.361,879.778 276.913,884.294 297.466,891.72 318.019,901.908 338.572,914.654 359.125,929.703 379.678,946.754 400.231,965.466 420.784,985.464 441.337,1006.35 461.889,1027.7 482.442,1049.1 502.995,1070.11 523.548,1090.32 544.101,1111.65 564.654,1133.69 585.207,1155.98 605.76,1178.1 626.313,1199.58 646.866,1220.01 667.418,1238.98 687.971,1256.1 708.524,1271.03 729.077,1283.48 749.63,1293.19 770.183,1299.98 790.736,1303.7 811.289,1304.28 831.842,1301.71 852.394,1296.05 872.947,1287.39 893.5,1275.93 914.053,1261.88 934.606,1245.53 955.159,1227.2 975.712,1207.27 996.265,1186.12 1016.82,1164.19 1037.37,1141.91 1057.92,1119.72 1078.48,1098.08 1099.03,1077.41 1119.58,1055.79 1140.14,1033.65 1160.69,1011.43 1181.24,989.579 1201.79,968.532 1222.35,948.712 1242.9,930.513 1263.45,914.3 1284.01,900.397 1304.56,889.082 1325.11,880.582 1345.66,875.066 1366.22,872.645 1386.77,873.367 1407.32,877.218 1427.88,884.121 1448.43,893.937 1468.98,906.471 1489.53,921.471 1510.09,938.638 1530.64,957.629 1551.19,978.063 1571.75,999.532 1592.3,1021.61 1612.85,1043.84 1633.4,1065.8 1653.96,1087.04 1674.51,1107.13 1695.06,1128.02 1715.62,1149.28 1736.17,1170.49 1756.72,1191.22 1777.27,1211.07 1797.83,1229.63 1818.38,1246.53 1838.93,1261.44 1859.49,1274.05 1880.04,1284.12 1900.59,1291.44 1921.15,1295.87 1941.7,1297.32 1962.25,1295.75 1982.8,1291.2 2003.36,1283.77 2023.91,1273.59 2044.46,1260.88 2065.02,1245.89 2085.57,1228.91 2106.12,1210.29 2126.67,1190.4 2147.23,1169.64 2167.78,1148.42 2188.33,1127.17 2208.89,1106.3 2229.44,1086.25 2249.99,1065.07 2270.54,1043.18 2291.1,1021.03 "/>
<polyline clip-path="url(#clip172)" style="stroke:#00a9ad; stroke-linecap:round; stroke-linejoin:round; stroke-width:4; stroke-opacity:1; fill:none" points="235.808,104.147 256.361,108.7 276.913,122.27 297.466,144.584 318.019,175.196 338.572,213.495 359.125,258.713 379.678,309.947 400.231,366.172 420.784,426.264 441.337,489.02 461.889,553.186 482.442,617.478 502.995,680.611 523.548,741.321 544.101,805.423 564.654,871.636 585.207,938.634 605.76,1005.08 626.313,1069.64 646.866,1131.03 667.418,1188.01 687.971,1239.45 708.524,1284.33 729.077,1321.73 749.63,1350.92 770.183,1371.31 790.736,1382.49 811.289,1384.24 831.842,1376.52 852.394,1359.49 872.947,1333.49 893.5,1299.04 914.053,1256.83 934.606,1207.7 955.159,1152.63 975.712,1092.73 996.265,1029.19 1016.82,963.29 1037.37,896.34 1057.92,829.682 1078.48,764.649 1099.03,702.541 1119.58,637.573 1140.14,571.043 1160.69,504.282 1181.24,438.626 1201.79,375.387 1222.35,315.83 1242.9,261.146 1263.45,212.43 1284.01,170.655 1304.56,136.656 1325.11,111.115 1345.66,94.5413 1366.22,87.2667 1386.77,89.4368 1407.32,101.008 1427.88,121.749 1448.43,151.245 1468.98,188.906 1489.53,233.979 1510.09,285.562 1530.64,342.624 1551.19,404.024 1571.75,468.533 1592.3,534.861 1612.85,601.682 1633.4,667.659 1653.96,731.473 1674.51,791.848 1695.06,854.604 1715.62,918.487 1736.17,982.218 1756.72,1044.52 1777.27,1104.16 1797.83,1159.93 1818.38,1210.72 1838.93,1255.51 1859.49,1293.41 1880.04,1323.66 1900.59,1345.66 1921.15,1358.96 1941.7,1363.3 1962.25,1358.6 1982.8,1344.94 2003.36,1322.6 2023.91,1292.03 2044.46,1253.83 2065.02,1208.78 2085.57,1157.77 2106.12,1101.82 2126.67,1042.06 2147.23,979.669 2167.78,915.907 2188.33,852.045 2208.89,789.361 2229.44,729.108 2249.99,665.463 2270.54,599.698 2291.1,533.13 "/>
</svg>
