<?xml version="1.0" encoding="utf-8"?>
<svg xmlns="http://www.w3.org/2000/svg" xmlns:xlink="http://www.w3.org/1999/xlink" width="600" height="400" viewBox="0 0 2400 1600">
<defs>
  <clipPath id="clip830">
    <rect x="0" y="0" width="2400" height="1600"/>
  </clipPath>
</defs>
<path clip-path="url(#clip830)" d="M0 1600 L2400 1600 L2400 0 L0 0  Z" fill="#ffffff" fill-rule="evenodd" fill-opacity="1"/>
<defs>
  <clipPath id="clip831">
    <rect x="480" y="0" width="1681" height="1600"/>
  </clipPath>
</defs>
<path clip-path="url(#clip830)" d="M219.38 1423.18 L2352.76 1423.18 L2352.76 47.2441 L219.38 47.2441  Z" fill="#ffffff" fill-rule="evenodd" fill-opacity="1"/>
<defs>
  <clipPath id="clip832">
    <rect x="219" y="47" width="2134" height="1377"/>
  </clipPath>
</defs>
<polyline clip-path="url(#clip832)" style="stroke:#000000; stroke-linecap:round; stroke-linejoin:round; stroke-width:2; stroke-opacity:0.1; fill:none" points="279.759,1423.18 279.759,47.2441 "/>
<polyline clip-path="url(#clip832)" style="stroke:#000000; stroke-linecap:round; stroke-linejoin:round; stroke-width:2; stroke-opacity:0.1; fill:none" points="782.913,1423.18 782.913,47.2441 "/>
<polyline clip-path="url(#clip832)" style="stroke:#000000; stroke-linecap:round; stroke-linejoin:round; stroke-width:2; stroke-opacity:0.1; fill:none" points="1286.07,1423.18 1286.07,47.2441 "/>
<polyline clip-path="url(#clip832)" style="stroke:#000000; stroke-linecap:round; stroke-linejoin:round; stroke-width:2; stroke-opacity:0.1; fill:none" points="1789.22,1423.18 1789.22,47.2441 "/>
<polyline clip-path="url(#clip832)" style="stroke:#000000; stroke-linecap:round; stroke-linejoin:round; stroke-width:2; stroke-opacity:0.1; fill:none" points="2292.38,1423.18 2292.38,47.2441 "/>
<polyline clip-path="url(#clip830)" style="stroke:#000000; stroke-linecap:round; stroke-linejoin:round; stroke-width:4; stroke-opacity:1; fill:none" points="219.38,1423.18 2352.76,1423.18 "/>
<polyline clip-path="url(#clip830)" style="stroke:#000000; stroke-linecap:round; stroke-linejoin:round; stroke-width:4; stroke-opacity:1; fill:none" points="279.759,1423.18 279.759,1404.28 "/>
<polyline clip-path="url(#clip830)" style="stroke:#000000; stroke-linecap:round; stroke-linejoin:round; stroke-width:4; stroke-opacity:1; fill:none" points="782.913,1423.18 782.913,1404.28 "/>
<polyline clip-path="url(#clip830)" style="stroke:#000000; stroke-linecap:round; stroke-linejoin:round; stroke-width:4; stroke-opacity:1; fill:none" points="1286.07,1423.18 1286.07,1404.28 "/>
<polyline clip-path="url(#clip830)" style="stroke:#000000; stroke-linecap:round; stroke-linejoin:round; stroke-width:4; stroke-opacity:1; fill:none" points="1789.22,1423.18 1789.22,1404.28 "/>
<polyline clip-path="url(#clip830)" style="stroke:#000000; stroke-linecap:round; stroke-linejoin:round; stroke-width:4; stroke-opacity:1; fill:none" points="2292.38,1423.18 2292.38,1404.28 "/>
<path clip-path="url(#clip830)" d="M257.143 1454.1 Q253.532 1454.1 251.703 1457.66 Q249.898 1461.2 249.898 1468.33 Q249.898 1475.44 251.703 1479.01 Q253.532 1482.55 257.143 1482.55 Q260.777 1482.55 262.583 1479.01 Q264.412 1475.44 264.412 1468.33 Q264.412 1461.2 262.583 1457.66 Q260.777 1454.1 257.143 1454.1 M257.143 1450.39 Q262.953 1450.39 266.009 1455 Q269.087 1459.58 269.087 1468.33 Q269.087 1477.06 266.009 1481.67 Q262.953 1486.25 257.143 1486.25 Q251.333 1486.25 248.254 1481.67 Q245.199 1477.06 245.199 1468.33 Q245.199 1459.58 248.254 1455 Q251.333 1450.39 257.143 1450.39 Z" fill="#000000" fill-rule="nonzero" fill-opacity="1" /><path clip-path="url(#clip830)" d="M277.305 1479.7 L282.189 1479.7 L282.189 1485.58 L277.305 1485.58 L277.305 1479.7 Z" fill="#000000" fill-rule="nonzero" fill-opacity="1" /><path clip-path="url(#clip830)" d="M302.374 1454.1 Q298.763 1454.1 296.935 1457.66 Q295.129 1461.2 295.129 1468.33 Q295.129 1475.44 296.935 1479.01 Q298.763 1482.55 302.374 1482.55 Q306.009 1482.55 307.814 1479.01 Q309.643 1475.44 309.643 1468.33 Q309.643 1461.2 307.814 1457.66 Q306.009 1454.1 302.374 1454.1 M302.374 1450.39 Q308.184 1450.39 311.24 1455 Q314.319 1459.58 314.319 1468.33 Q314.319 1477.06 311.24 1481.67 Q308.184 1486.25 302.374 1486.25 Q296.564 1486.25 293.485 1481.67 Q290.43 1477.06 290.43 1468.33 Q290.43 1459.58 293.485 1455 Q296.564 1450.39 302.374 1450.39 Z" fill="#000000" fill-rule="nonzero" fill-opacity="1" /><path clip-path="url(#clip830)" d="M754.65 1481.64 L770.969 1481.64 L770.969 1485.58 L749.025 1485.58 L749.025 1481.64 Q751.687 1478.89 756.27 1474.26 Q760.876 1469.61 762.057 1468.27 Q764.302 1465.74 765.182 1464.01 Q766.085 1462.25 766.085 1460.56 Q766.085 1457.8 764.14 1456.07 Q762.219 1454.33 759.117 1454.33 Q756.918 1454.33 754.464 1455.09 Q752.034 1455.86 749.256 1457.41 L749.256 1452.69 Q752.08 1451.55 754.534 1450.97 Q756.988 1450.39 759.025 1450.39 Q764.395 1450.39 767.589 1453.08 Q770.784 1455.77 770.784 1460.26 Q770.784 1462.39 769.974 1464.31 Q769.187 1466.2 767.08 1468.8 Q766.501 1469.47 763.4 1472.69 Q760.298 1475.88 754.65 1481.64 Z" fill="#000000" fill-rule="nonzero" fill-opacity="1" /><path clip-path="url(#clip830)" d="M780.784 1479.7 L785.668 1479.7 L785.668 1485.58 L780.784 1485.58 L780.784 1479.7 Z" fill="#000000" fill-rule="nonzero" fill-opacity="1" /><path clip-path="url(#clip830)" d="M795.899 1451.02 L814.256 1451.02 L814.256 1454.96 L800.182 1454.96 L800.182 1463.43 Q801.2 1463.08 802.219 1462.92 Q803.237 1462.73 804.256 1462.73 Q810.043 1462.73 813.422 1465.9 Q816.802 1469.08 816.802 1474.49 Q816.802 1480.07 813.33 1483.17 Q809.858 1486.25 803.538 1486.25 Q801.362 1486.25 799.094 1485.88 Q796.848 1485.51 794.441 1484.77 L794.441 1480.07 Q796.524 1481.2 798.747 1481.76 Q800.969 1482.32 803.446 1482.32 Q807.45 1482.32 809.788 1480.21 Q812.126 1478.1 812.126 1474.49 Q812.126 1470.88 809.788 1468.77 Q807.45 1466.67 803.446 1466.67 Q801.571 1466.67 799.696 1467.08 Q797.844 1467.5 795.899 1468.38 L795.899 1451.02 Z" fill="#000000" fill-rule="nonzero" fill-opacity="1" /><path clip-path="url(#clip830)" d="M1253.23 1451.02 L1271.59 1451.02 L1271.59 1454.96 L1257.51 1454.96 L1257.51 1463.43 Q1258.53 1463.08 1259.55 1462.92 Q1260.57 1462.73 1261.59 1462.73 Q1267.38 1462.73 1270.76 1465.9 Q1274.14 1469.08 1274.14 1474.49 Q1274.14 1480.07 1270.66 1483.17 Q1267.19 1486.25 1260.87 1486.25 Q1258.7 1486.25 1256.43 1485.88 Q1254.18 1485.51 1251.77 1484.77 L1251.77 1480.07 Q1253.86 1481.2 1256.08 1481.76 Q1258.3 1482.32 1260.78 1482.32 Q1264.78 1482.32 1267.12 1480.21 Q1269.46 1478.1 1269.46 1474.49 Q1269.46 1470.88 1267.12 1468.77 Q1264.78 1466.67 1260.78 1466.67 Q1258.9 1466.67 1257.03 1467.08 Q1255.18 1467.5 1253.23 1468.38 L1253.23 1451.02 Z" fill="#000000" fill-rule="nonzero" fill-opacity="1" /><path clip-path="url(#clip830)" d="M1283.35 1479.7 L1288.23 1479.7 L1288.23 1485.58 L1283.35 1485.58 L1283.35 1479.7 Z" fill="#000000" fill-rule="nonzero" fill-opacity="1" /><path clip-path="url(#clip830)" d="M1308.42 1454.1 Q1304.81 1454.1 1302.98 1457.66 Q1301.17 1461.2 1301.17 1468.33 Q1301.17 1475.44 1302.98 1479.01 Q1304.81 1482.55 1308.42 1482.55 Q1312.05 1482.55 1313.86 1479.01 Q1315.69 1475.44 1315.69 1468.33 Q1315.69 1461.2 1313.86 1457.66 Q1312.05 1454.1 1308.42 1454.1 M1308.42 1450.39 Q1314.23 1450.39 1317.28 1455 Q1320.36 1459.58 1320.36 1468.33 Q1320.36 1477.06 1317.28 1481.67 Q1314.23 1486.25 1308.42 1486.25 Q1302.61 1486.25 1299.53 1481.67 Q1296.47 1477.06 1296.47 1468.33 Q1296.47 1459.58 1299.53 1455 Q1302.61 1450.39 1308.42 1450.39 Z" fill="#000000" fill-rule="nonzero" fill-opacity="1" /><path clip-path="url(#clip830)" d="M1755.54 1451.02 L1777.76 1451.02 L1777.76 1453.01 L1765.22 1485.58 L1760.33 1485.58 L1772.14 1454.96 L1755.54 1454.96 L1755.54 1451.02 Z" fill="#000000" fill-rule="nonzero" fill-opacity="1" /><path clip-path="url(#clip830)" d="M1786.88 1479.7 L1791.77 1479.7 L1791.77 1485.58 L1786.88 1485.58 L1786.88 1479.7 Z" fill="#000000" fill-rule="nonzero" fill-opacity="1" /><path clip-path="url(#clip830)" d="M1802 1451.02 L1820.36 1451.02 L1820.36 1454.96 L1806.28 1454.96 L1806.28 1463.43 Q1807.3 1463.08 1808.32 1462.92 Q1809.34 1462.73 1810.36 1462.73 Q1816.14 1462.73 1819.52 1465.9 Q1822.9 1469.08 1822.9 1474.49 Q1822.9 1480.07 1819.43 1483.17 Q1815.96 1486.25 1809.64 1486.25 Q1807.46 1486.25 1805.19 1485.88 Q1802.95 1485.51 1800.54 1484.77 L1800.54 1480.07 Q1802.63 1481.2 1804.85 1481.76 Q1807.07 1482.32 1809.55 1482.32 Q1813.55 1482.32 1815.89 1480.21 Q1818.23 1478.1 1818.23 1474.49 Q1818.23 1470.88 1815.89 1468.77 Q1813.55 1466.67 1809.55 1466.67 Q1807.67 1466.67 1805.8 1467.08 Q1803.94 1467.5 1802 1468.38 L1802 1451.02 Z" fill="#000000" fill-rule="nonzero" fill-opacity="1" /><path clip-path="url(#clip830)" d="M2244.45 1481.64 L2252.09 1481.64 L2252.09 1455.28 L2243.78 1456.95 L2243.78 1452.69 L2252.04 1451.02 L2256.72 1451.02 L2256.72 1481.64 L2264.36 1481.64 L2264.36 1485.58 L2244.45 1485.58 L2244.45 1481.64 Z" fill="#000000" fill-rule="nonzero" fill-opacity="1" /><path clip-path="url(#clip830)" d="M2283.8 1454.1 Q2280.19 1454.1 2278.36 1457.66 Q2276.56 1461.2 2276.56 1468.33 Q2276.56 1475.44 2278.36 1479.01 Q2280.19 1482.55 2283.8 1482.55 Q2287.44 1482.55 2289.24 1479.01 Q2291.07 1475.44 2291.07 1468.33 Q2291.07 1461.2 2289.24 1457.66 Q2287.44 1454.1 2283.8 1454.1 M2283.8 1450.39 Q2289.61 1450.39 2292.67 1455 Q2295.75 1459.58 2295.75 1468.33 Q2295.75 1477.06 2292.67 1481.67 Q2289.61 1486.25 2283.8 1486.25 Q2277.99 1486.25 2274.91 1481.67 Q2271.86 1477.06 2271.86 1468.33 Q2271.86 1459.58 2274.91 1455 Q2277.99 1450.39 2283.8 1450.39 Z" fill="#000000" fill-rule="nonzero" fill-opacity="1" /><path clip-path="url(#clip830)" d="M2303.96 1479.7 L2308.85 1479.7 L2308.85 1485.58 L2303.96 1485.58 L2303.96 1479.7 Z" fill="#000000" fill-rule="nonzero" fill-opacity="1" /><path clip-path="url(#clip830)" d="M2329.03 1454.1 Q2325.42 1454.1 2323.59 1457.66 Q2321.79 1461.2 2321.79 1468.33 Q2321.79 1475.44 2323.59 1479.01 Q2325.42 1482.55 2329.03 1482.55 Q2332.67 1482.55 2334.47 1479.01 Q2336.3 1475.44 2336.3 1468.33 Q2336.3 1461.2 2334.47 1457.66 Q2332.67 1454.1 2329.03 1454.1 M2329.03 1450.39 Q2334.84 1450.39 2337.9 1455 Q2340.98 1459.58 2340.98 1468.33 Q2340.98 1477.06 2337.9 1481.67 Q2334.84 1486.25 2329.03 1486.25 Q2323.22 1486.25 2320.14 1481.67 Q2317.09 1477.06 2317.09 1468.33 Q2317.09 1459.58 2320.14 1455 Q2323.22 1450.39 2329.03 1450.39 Z" fill="#000000" fill-rule="nonzero" fill-opacity="1" /><path clip-path="url(#clip830)" d="M1285.13 1522.27 L1285.13 1532.4 L1297.19 1532.4 L1297.19 1536.95 L1285.13 1536.95 L1285.13 1556.3 Q1285.13 1560.66 1286.31 1561.9 Q1287.52 1563.14 1291.18 1563.14 L1297.19 1563.14 L1297.19 1568.04 L1291.18 1568.04 Q1284.4 1568.04 1281.82 1565.53 Q1279.24 1562.98 1279.24 1556.3 L1279.24 1536.95 L1274.94 1536.95 L1274.94 1532.4 L1279.24 1532.4 L1279.24 1522.27 L1285.13 1522.27 Z" fill="#000000" fill-rule="nonzero" fill-opacity="1" /><polyline clip-path="url(#clip832)" style="stroke:#000000; stroke-linecap:round; stroke-linejoin:round; stroke-width:2; stroke-opacity:0.1; fill:none" points="219.38,1408.62 2352.76,1408.62 "/>
<polyline clip-path="url(#clip832)" style="stroke:#000000; stroke-linecap:round; stroke-linejoin:round; stroke-width:2; stroke-opacity:0.1; fill:none" points="219.38,1153.98 2352.76,1153.98 "/>
<polyline clip-path="url(#clip832)" style="stroke:#000000; stroke-linecap:round; stroke-linejoin:round; stroke-width:2; stroke-opacity:0.1; fill:none" points="219.38,899.335 2352.76,899.335 "/>
<polyline clip-path="url(#clip832)" style="stroke:#000000; stroke-linecap:round; stroke-linejoin:round; stroke-width:2; stroke-opacity:0.1; fill:none" points="219.38,644.695 2352.76,644.695 "/>
<polyline clip-path="url(#clip832)" style="stroke:#000000; stroke-linecap:round; stroke-linejoin:round; stroke-width:2; stroke-opacity:0.1; fill:none" points="219.38,390.054 2352.76,390.054 "/>
<polyline clip-path="url(#clip832)" style="stroke:#000000; stroke-linecap:round; stroke-linejoin:round; stroke-width:2; stroke-opacity:0.1; fill:none" points="219.38,135.413 2352.76,135.413 "/>
<polyline clip-path="url(#clip830)" style="stroke:#000000; stroke-linecap:round; stroke-linejoin:round; stroke-width:4; stroke-opacity:1; fill:none" points="219.38,1423.18 219.38,47.2441 "/>
<polyline clip-path="url(#clip830)" style="stroke:#000000; stroke-linecap:round; stroke-linejoin:round; stroke-width:4; stroke-opacity:1; fill:none" points="219.38,1408.62 238.278,1408.62 "/>
<polyline clip-path="url(#clip830)" style="stroke:#000000; stroke-linecap:round; stroke-linejoin:round; stroke-width:4; stroke-opacity:1; fill:none" points="219.38,1153.98 238.278,1153.98 "/>
<polyline clip-path="url(#clip830)" style="stroke:#000000; stroke-linecap:round; stroke-linejoin:round; stroke-width:4; stroke-opacity:1; fill:none" points="219.38,899.335 238.278,899.335 "/>
<polyline clip-path="url(#clip830)" style="stroke:#000000; stroke-linecap:round; stroke-linejoin:round; stroke-width:4; stroke-opacity:1; fill:none" points="219.38,644.695 238.278,644.695 "/>
<polyline clip-path="url(#clip830)" style="stroke:#000000; stroke-linecap:round; stroke-linejoin:round; stroke-width:4; stroke-opacity:1; fill:none" points="219.38,390.054 238.278,390.054 "/>
<polyline clip-path="url(#clip830)" style="stroke:#000000; stroke-linecap:round; stroke-linejoin:round; stroke-width:4; stroke-opacity:1; fill:none" points="219.38,135.413 238.278,135.413 "/>
<path clip-path="url(#clip830)" d="M126.205 1394.42 Q122.593 1394.42 120.765 1397.98 Q118.959 1401.52 118.959 1408.65 Q118.959 1415.76 120.765 1419.32 Q122.593 1422.86 126.205 1422.86 Q129.839 1422.86 131.644 1419.32 Q133.473 1415.76 133.473 1408.65 Q133.473 1401.52 131.644 1397.98 Q129.839 1394.42 126.205 1394.42 M126.205 1390.71 Q132.015 1390.71 135.07 1395.32 Q138.149 1399.9 138.149 1408.65 Q138.149 1417.38 135.07 1421.98 Q132.015 1426.57 126.205 1426.57 Q120.394 1426.57 117.316 1421.98 Q114.26 1417.38 114.26 1408.65 Q114.26 1399.9 117.316 1395.32 Q120.394 1390.71 126.205 1390.71 Z" fill="#000000" fill-rule="nonzero" fill-opacity="1" /><path clip-path="url(#clip830)" d="M146.366 1420.02 L151.251 1420.02 L151.251 1425.9 L146.366 1425.9 L146.366 1420.02 Z" fill="#000000" fill-rule="nonzero" fill-opacity="1" /><path clip-path="url(#clip830)" d="M171.436 1394.42 Q167.825 1394.42 165.996 1397.98 Q164.19 1401.52 164.19 1408.65 Q164.19 1415.76 165.996 1419.32 Q167.825 1422.86 171.436 1422.86 Q175.07 1422.86 176.876 1419.32 Q178.704 1415.76 178.704 1408.65 Q178.704 1401.52 176.876 1397.98 Q175.07 1394.42 171.436 1394.42 M171.436 1390.71 Q177.246 1390.71 180.301 1395.32 Q183.38 1399.9 183.38 1408.65 Q183.38 1417.38 180.301 1421.98 Q177.246 1426.57 171.436 1426.57 Q165.626 1426.57 162.547 1421.98 Q159.491 1417.38 159.491 1408.65 Q159.491 1399.9 162.547 1395.32 Q165.626 1390.71 171.436 1390.71 Z" fill="#000000" fill-rule="nonzero" fill-opacity="1" /><path clip-path="url(#clip830)" d="M127.2 1139.77 Q123.589 1139.77 121.76 1143.34 Q119.955 1146.88 119.955 1154.01 Q119.955 1161.12 121.76 1164.68 Q123.589 1168.22 127.2 1168.22 Q130.834 1168.22 132.64 1164.68 Q134.468 1161.12 134.468 1154.01 Q134.468 1146.88 132.64 1143.34 Q130.834 1139.77 127.2 1139.77 M127.2 1136.07 Q133.01 1136.07 136.066 1140.68 Q139.144 1145.26 139.144 1154.01 Q139.144 1162.74 136.066 1167.34 Q133.01 1171.93 127.2 1171.93 Q121.39 1171.93 118.311 1167.34 Q115.256 1162.74 115.256 1154.01 Q115.256 1145.26 118.311 1140.68 Q121.39 1136.07 127.2 1136.07 Z" fill="#000000" fill-rule="nonzero" fill-opacity="1" /><path clip-path="url(#clip830)" d="M147.362 1165.38 L152.246 1165.38 L152.246 1171.26 L147.362 1171.26 L147.362 1165.38 Z" fill="#000000" fill-rule="nonzero" fill-opacity="1" /><path clip-path="url(#clip830)" d="M162.477 1136.7 L180.834 1136.7 L180.834 1140.63 L166.76 1140.63 L166.76 1149.1 Q167.778 1148.76 168.797 1148.59 Q169.815 1148.41 170.834 1148.41 Q176.621 1148.41 180.001 1151.58 Q183.38 1154.75 183.38 1160.17 Q183.38 1165.75 179.908 1168.85 Q176.436 1171.93 170.116 1171.93 Q167.94 1171.93 165.672 1171.56 Q163.427 1171.19 161.019 1170.45 L161.019 1165.75 Q163.102 1166.88 165.325 1167.44 Q167.547 1167.99 170.024 1167.99 Q174.028 1167.99 176.366 1165.89 Q178.704 1163.78 178.704 1160.17 Q178.704 1156.56 176.366 1154.45 Q174.028 1152.34 170.024 1152.34 Q168.149 1152.34 166.274 1152.76 Q164.422 1153.18 162.477 1154.06 L162.477 1136.7 Z" fill="#000000" fill-rule="nonzero" fill-opacity="1" /><path clip-path="url(#clip830)" d="M117.015 912.68 L124.654 912.68 L124.654 886.315 L116.343 887.981 L116.343 883.722 L124.607 882.055 L129.283 882.055 L129.283 912.68 L136.922 912.68 L136.922 916.615 L117.015 916.615 L117.015 912.68 Z" fill="#000000" fill-rule="nonzero" fill-opacity="1" /><path clip-path="url(#clip830)" d="M146.366 910.736 L151.251 910.736 L151.251 916.615 L146.366 916.615 L146.366 910.736 Z" fill="#000000" fill-rule="nonzero" fill-opacity="1" /><path clip-path="url(#clip830)" d="M171.436 885.134 Q167.825 885.134 165.996 888.699 Q164.19 892.24 164.19 899.37 Q164.19 906.476 165.996 910.041 Q167.825 913.583 171.436 913.583 Q175.07 913.583 176.876 910.041 Q178.704 906.476 178.704 899.37 Q178.704 892.24 176.876 888.699 Q175.07 885.134 171.436 885.134 M171.436 881.43 Q177.246 881.43 180.301 886.037 Q183.38 890.62 183.38 899.37 Q183.38 908.097 180.301 912.703 Q177.246 917.287 171.436 917.287 Q165.626 917.287 162.547 912.703 Q159.491 908.097 159.491 899.37 Q159.491 890.62 162.547 886.037 Q165.626 881.43 171.436 881.43 Z" fill="#000000" fill-rule="nonzero" fill-opacity="1" /><path clip-path="url(#clip830)" d="M118.01 658.039 L125.649 658.039 L125.649 631.674 L117.339 633.34 L117.339 629.081 L125.603 627.415 L130.279 627.415 L130.279 658.039 L137.917 658.039 L137.917 661.975 L118.01 661.975 L118.01 658.039 Z" fill="#000000" fill-rule="nonzero" fill-opacity="1" /><path clip-path="url(#clip830)" d="M147.362 656.095 L152.246 656.095 L152.246 661.975 L147.362 661.975 L147.362 656.095 Z" fill="#000000" fill-rule="nonzero" fill-opacity="1" /><path clip-path="url(#clip830)" d="M162.477 627.415 L180.834 627.415 L180.834 631.35 L166.76 631.35 L166.76 639.822 Q167.778 639.475 168.797 639.313 Q169.815 639.127 170.834 639.127 Q176.621 639.127 180.001 642.299 Q183.38 645.47 183.38 650.887 Q183.38 656.465 179.908 659.567 Q176.436 662.646 170.116 662.646 Q167.94 662.646 165.672 662.276 Q163.427 661.905 161.019 661.164 L161.019 656.465 Q163.102 657.6 165.325 658.155 Q167.547 658.711 170.024 658.711 Q174.028 658.711 176.366 656.604 Q178.704 654.498 178.704 650.887 Q178.704 647.276 176.366 645.169 Q174.028 643.063 170.024 643.063 Q168.149 643.063 166.274 643.479 Q164.422 643.896 162.477 644.776 L162.477 627.415 Z" fill="#000000" fill-rule="nonzero" fill-opacity="1" /><path clip-path="url(#clip830)" d="M120.232 403.399 L136.552 403.399 L136.552 407.334 L114.607 407.334 L114.607 403.399 Q117.269 400.644 121.853 396.015 Q126.459 391.362 127.64 390.019 Q129.885 387.496 130.765 385.76 Q131.667 384.001 131.667 382.311 Q131.667 379.556 129.723 377.82 Q127.802 376.084 124.7 376.084 Q122.501 376.084 120.047 376.848 Q117.617 377.612 114.839 379.163 L114.839 374.441 Q117.663 373.306 120.117 372.728 Q122.57 372.149 124.607 372.149 Q129.978 372.149 133.172 374.834 Q136.367 377.519 136.367 382.01 Q136.367 384.14 135.556 386.061 Q134.769 387.959 132.663 390.552 Q132.084 391.223 128.982 394.44 Q125.88 397.635 120.232 403.399 Z" fill="#000000" fill-rule="nonzero" fill-opacity="1" /><path clip-path="url(#clip830)" d="M146.366 401.454 L151.251 401.454 L151.251 407.334 L146.366 407.334 L146.366 401.454 Z" fill="#000000" fill-rule="nonzero" fill-opacity="1" /><path clip-path="url(#clip830)" d="M171.436 375.853 Q167.825 375.853 165.996 379.417 Q164.19 382.959 164.19 390.089 Q164.19 397.195 165.996 400.76 Q167.825 404.302 171.436 404.302 Q175.07 404.302 176.876 400.76 Q178.704 397.195 178.704 390.089 Q178.704 382.959 176.876 379.417 Q175.07 375.853 171.436 375.853 M171.436 372.149 Q177.246 372.149 180.301 376.755 Q183.38 381.339 183.38 390.089 Q183.38 398.815 180.301 403.422 Q177.246 408.005 171.436 408.005 Q165.626 408.005 162.547 403.422 Q159.491 398.815 159.491 390.089 Q159.491 381.339 162.547 376.755 Q165.626 372.149 171.436 372.149 Z" fill="#000000" fill-rule="nonzero" fill-opacity="1" /><path clip-path="url(#clip830)" d="M121.228 148.758 L137.547 148.758 L137.547 152.693 L115.603 152.693 L115.603 148.758 Q118.265 146.003 122.848 141.374 Q127.455 136.721 128.635 135.379 Q130.88 132.855 131.76 131.119 Q132.663 129.36 132.663 127.67 Q132.663 124.916 130.718 123.179 Q128.797 121.443 125.695 121.443 Q123.496 121.443 121.043 122.207 Q118.612 122.971 115.834 124.522 L115.834 119.8 Q118.658 118.666 121.112 118.087 Q123.566 117.508 125.603 117.508 Q130.973 117.508 134.167 120.193 Q137.362 122.879 137.362 127.369 Q137.362 129.499 136.552 131.42 Q135.765 133.318 133.658 135.911 Q133.08 136.582 129.978 139.8 Q126.876 142.994 121.228 148.758 Z" fill="#000000" fill-rule="nonzero" fill-opacity="1" /><path clip-path="url(#clip830)" d="M147.362 146.814 L152.246 146.814 L152.246 152.693 L147.362 152.693 L147.362 146.814 Z" fill="#000000" fill-rule="nonzero" fill-opacity="1" /><path clip-path="url(#clip830)" d="M162.477 118.133 L180.834 118.133 L180.834 122.068 L166.76 122.068 L166.76 130.541 Q167.778 130.193 168.797 130.031 Q169.815 129.846 170.834 129.846 Q176.621 129.846 180.001 133.017 Q183.38 136.189 183.38 141.605 Q183.38 147.184 179.908 150.286 Q176.436 153.365 170.116 153.365 Q167.94 153.365 165.672 152.994 Q163.427 152.624 161.019 151.883 L161.019 147.184 Q163.102 148.318 165.325 148.874 Q167.547 149.429 170.024 149.429 Q174.028 149.429 176.366 147.323 Q178.704 145.216 178.704 141.605 Q178.704 137.994 176.366 135.888 Q174.028 133.781 170.024 133.781 Q168.149 133.781 166.274 134.198 Q164.422 134.615 162.477 135.494 L162.477 118.133 Z" fill="#000000" fill-rule="nonzero" fill-opacity="1" /><path clip-path="url(#clip830)" d="M20.8447 948.702 Q20.8447 955.704 26.0645 959.842 Q31.2844 963.948 40.2919 963.948 Q49.2675 963.948 54.4874 959.842 Q59.7073 955.704 59.7073 948.702 Q59.7073 941.7 54.4874 937.626 Q49.2675 933.52 40.2919 933.52 Q31.2844 933.52 26.0645 937.626 Q20.8447 941.7 20.8447 948.702 M15.6248 948.702 Q15.6248 938.708 22.3406 932.724 Q29.0246 926.74 40.2919 926.74 Q51.5274 926.74 58.2432 932.724 Q64.9272 938.708 64.9272 948.702 Q64.9272 958.728 58.2432 964.743 Q51.5592 970.727 40.2919 970.727 Q29.0246 970.727 22.3406 964.743 Q15.6248 958.728 15.6248 948.702 Z" fill="#000000" fill-rule="nonzero" fill-opacity="1" /><path clip-path="url(#clip830)" d="M49.9359 917.542 L28.3562 917.542 L28.3562 911.685 L49.7131 911.685 Q54.7739 911.685 57.3202 909.712 Q59.8346 907.739 59.8346 903.792 Q59.8346 899.049 56.8109 896.312 Q53.7872 893.543 48.5673 893.543 L28.3562 893.543 L28.3562 887.687 L64.0042 887.687 L64.0042 893.543 L58.5296 893.543 Q61.7762 895.676 63.3676 898.508 Q64.9272 901.309 64.9272 905.033 Q64.9272 911.176 61.1078 914.359 Q57.2883 917.542 49.9359 917.542 M27.4968 902.805 L27.4968 902.805 Z" fill="#000000" fill-rule="nonzero" fill-opacity="1" /><path clip-path="url(#clip830)" d="M18.2347 869.831 L28.3562 869.831 L28.3562 857.768 L32.9077 857.768 L32.9077 869.831 L52.2594 869.831 Q56.6199 869.831 57.8613 868.653 Q59.1026 867.444 59.1026 863.783 L59.1026 857.768 L64.0042 857.768 L64.0042 863.783 Q64.0042 870.563 61.4897 873.141 Q58.9434 875.719 52.2594 875.719 L32.9077 875.719 L32.9077 880.016 L28.3562 880.016 L28.3562 875.719 L18.2347 875.719 L18.2347 869.831 Z" fill="#000000" fill-rule="nonzero" fill-opacity="1" /><path clip-path="url(#clip830)" d="M58.657 844.4 L77.5631 844.4 L77.5631 850.288 L28.3562 850.288 L28.3562 844.4 L33.7671 844.4 Q30.5842 842.554 29.0564 839.753 Q27.4968 836.92 27.4968 833.005 Q27.4968 826.512 32.6531 822.47 Q37.8093 818.396 46.212 818.396 Q54.6147 818.396 59.771 822.47 Q64.9272 826.512 64.9272 833.005 Q64.9272 836.92 63.3994 839.753 Q61.8398 842.554 58.657 844.4 M46.212 824.475 Q39.7508 824.475 36.0905 827.149 Q32.3984 829.79 32.3984 834.437 Q32.3984 839.084 36.0905 841.758 Q39.7508 844.4 46.212 844.4 Q52.6732 844.4 56.3653 841.758 Q60.0256 839.084 60.0256 834.437 Q60.0256 829.79 56.3653 827.149 Q52.6732 824.475 46.212 824.475 Z" fill="#000000" fill-rule="nonzero" fill-opacity="1" /><path clip-path="url(#clip830)" d="M49.9359 809.293 L28.3562 809.293 L28.3562 803.436 L49.7131 803.436 Q54.7739 803.436 57.3202 801.463 Q59.8346 799.49 59.8346 795.543 Q59.8346 790.801 56.8109 788.063 Q53.7872 785.294 48.5673 785.294 L28.3562 785.294 L28.3562 779.438 L64.0042 779.438 L64.0042 785.294 L58.5296 785.294 Q61.7762 787.427 63.3676 790.259 Q64.9272 793.06 64.9272 796.784 Q64.9272 802.927 61.1078 806.11 Q57.2883 809.293 49.9359 809.293 M27.4968 794.556 L27.4968 794.556 Z" fill="#000000" fill-rule="nonzero" fill-opacity="1" /><path clip-path="url(#clip830)" d="M18.2347 761.582 L28.3562 761.582 L28.3562 749.519 L32.9077 749.519 L32.9077 761.582 L52.2594 761.582 Q56.6199 761.582 57.8613 760.404 Q59.1026 759.195 59.1026 755.534 L59.1026 749.519 L64.0042 749.519 L64.0042 755.534 Q64.0042 762.314 61.4897 764.892 Q58.9434 767.47 52.2594 767.47 L32.9077 767.47 L32.9077 771.767 L28.3562 771.767 L28.3562 767.47 L18.2347 767.47 L18.2347 761.582 Z" fill="#000000" fill-rule="nonzero" fill-opacity="1" /><path clip-path="url(#clip830)" d="M21.7677 735.132 L39.6235 735.132 L39.6235 727.048 Q39.6235 722.56 37.3 720.109 Q34.9765 717.659 30.6797 717.659 Q26.4147 717.659 24.0912 720.109 Q21.7677 722.56 21.7677 727.048 L21.7677 735.132 M16.4842 741.562 L16.4842 727.048 Q16.4842 719.059 20.1126 714.985 Q23.7092 710.879 30.6797 710.879 Q37.7138 710.879 41.3104 714.985 Q44.907 719.059 44.907 727.048 L44.907 735.132 L64.0042 735.132 L64.0042 741.562 L16.4842 741.562 Z" fill="#000000" fill-rule="nonzero" fill-opacity="1" /><path clip-path="url(#clip830)" d="M32.4621 691.018 Q32.4621 695.729 36.1542 698.466 Q39.8145 701.203 46.212 701.203 Q52.6095 701.203 56.3017 698.498 Q59.9619 695.761 59.9619 691.018 Q59.9619 686.339 56.2698 683.602 Q52.5777 680.865 46.212 680.865 Q39.8781 680.865 36.186 683.602 Q32.4621 686.339 32.4621 691.018 M27.4968 691.018 Q27.4968 683.379 32.4621 679.019 Q37.4273 674.658 46.212 674.658 Q54.9649 674.658 59.9619 679.019 Q64.9272 683.379 64.9272 691.018 Q64.9272 698.689 59.9619 703.049 Q54.9649 707.378 46.212 707.378 Q37.4273 707.378 32.4621 703.049 Q27.4968 698.689 27.4968 691.018 Z" fill="#000000" fill-rule="nonzero" fill-opacity="1" /><path clip-path="url(#clip830)" d="M29.4065 642.225 L34.9447 642.225 Q33.6716 644.708 33.035 647.381 Q32.3984 650.055 32.3984 652.919 Q32.3984 657.28 33.7352 659.476 Q35.072 661.64 37.7456 661.64 Q39.7826 661.64 40.9603 660.081 Q42.1061 658.521 43.1565 653.81 L43.6021 651.805 Q44.9389 645.567 47.3897 642.957 Q49.8086 640.315 54.1691 640.315 Q59.1344 640.315 62.0308 644.262 Q64.9272 648.177 64.9272 655.052 Q64.9272 657.916 64.3543 661.036 Q63.8132 664.123 62.6992 667.56 L56.6518 667.56 Q58.3387 664.314 59.198 661.163 Q60.0256 658.012 60.0256 654.924 Q60.0256 650.787 58.6251 648.559 Q57.1929 646.331 54.6147 646.331 Q52.2276 646.331 50.9545 647.954 Q49.6813 649.545 48.5037 654.988 L48.0262 657.025 Q46.8804 662.468 44.5251 664.887 Q42.138 667.306 38.0002 667.306 Q32.9713 667.306 30.2341 663.741 Q27.4968 660.176 27.4968 653.62 Q27.4968 650.373 27.9743 647.508 Q28.4517 644.644 29.4065 642.225 Z" fill="#000000" fill-rule="nonzero" fill-opacity="1" /><path clip-path="url(#clip830)" d="M28.3562 630.989 L28.3562 625.133 L64.0042 625.133 L64.0042 630.989 L28.3562 630.989 M14.479 630.989 L14.479 625.133 L21.895 625.133 L21.895 630.989 L14.479 630.989 Z" fill="#000000" fill-rule="nonzero" fill-opacity="1" /><path clip-path="url(#clip830)" d="M18.2347 607.086 L28.3562 607.086 L28.3562 595.023 L32.9077 595.023 L32.9077 607.086 L52.2594 607.086 Q56.6199 607.086 57.8613 605.909 Q59.1026 604.699 59.1026 601.039 L59.1026 595.023 L64.0042 595.023 L64.0042 601.039 Q64.0042 607.818 61.4897 610.396 Q58.9434 612.974 52.2594 612.974 L32.9077 612.974 L32.9077 617.271 L28.3562 617.271 L28.3562 612.974 L18.2347 612.974 L18.2347 607.086 Z" fill="#000000" fill-rule="nonzero" fill-opacity="1" /><path clip-path="url(#clip830)" d="M28.3562 587.321 L28.3562 581.464 L64.0042 581.464 L64.0042 587.321 L28.3562 587.321 M14.479 587.321 L14.479 581.464 L21.895 581.464 L21.895 587.321 L14.479 587.321 Z" fill="#000000" fill-rule="nonzero" fill-opacity="1" /><path clip-path="url(#clip830)" d="M32.4621 555.397 Q32.4621 560.107 36.1542 562.845 Q39.8145 565.582 46.212 565.582 Q52.6095 565.582 56.3017 562.876 Q59.9619 560.139 59.9619 555.397 Q59.9619 550.718 56.2698 547.981 Q52.5777 545.243 46.212 545.243 Q39.8781 545.243 36.186 547.981 Q32.4621 550.718 32.4621 555.397 M27.4968 555.397 Q27.4968 547.758 32.4621 543.397 Q37.4273 539.037 46.212 539.037 Q54.9649 539.037 59.9619 543.397 Q64.9272 547.758 64.9272 555.397 Q64.9272 563.067 59.9619 567.428 Q54.9649 571.757 46.212 571.757 Q37.4273 571.757 32.4621 567.428 Q27.4968 563.067 27.4968 555.397 Z" fill="#000000" fill-rule="nonzero" fill-opacity="1" /><path clip-path="url(#clip830)" d="M42.4881 499.697 L64.0042 499.697 L64.0042 505.553 L42.679 505.553 Q37.6183 505.553 35.1038 507.527 Q32.5894 509.5 32.5894 513.447 Q32.5894 518.189 35.6131 520.926 Q38.6368 523.664 43.8567 523.664 L64.0042 523.664 L64.0042 529.552 L28.3562 529.552 L28.3562 523.664 L33.8944 523.664 Q30.6797 521.563 29.0883 518.73 Q27.4968 515.866 27.4968 512.142 Q27.4968 505.999 31.3163 502.848 Q35.1038 499.697 42.4881 499.697 Z" fill="#000000" fill-rule="nonzero" fill-opacity="1" /><polyline clip-path="url(#clip832)" style="stroke:#009af9; stroke-linecap:round; stroke-linejoin:round; stroke-width:4; stroke-opacity:1; fill:none" points="279.759,1304.07 299.885,1301.38 320.011,1293.36 340.137,1280.18 360.263,1262.1 380.39,1239.47 400.516,1212.76 420.642,1182.49 440.768,1149.28 460.894,1113.78 481.021,1076.71 501.147,1038.8 521.273,1000.82 541.399,963.529 561.525,927.665 581.652,893.95 601.778,858.183 621.904,821.079 642.03,783.382 662.156,745.845 682.282,709.218 702.409,674.235 722.535,641.594 742.661,611.949 762.787,585.893 782.913,563.946 803.04,546.548 823.166,534.047 843.292,526.692 863.418,524.631 883.544,527.905 903.67,536.448 923.797,550.09 943.923,568.558 964.049,591.482 984.175,618.404 1004.3,648.785 1024.43,682.019 1044.55,717.439 1064.68,754.338 1084.81,791.978 1104.93,829.606 1125.06,866.47 1145.18,901.832 1165.31,934.984 1185.44,970.139 1205.56,1006.59 1225.69,1043.61 1245.82,1080.47 1265.94,1116.41 1286.07,1150.73 1306.19,1182.73 1326.32,1211.78 1346.45,1237.3 1366.57,1258.77 1386.7,1275.77 1406.83,1287.96 1426.95,1295.08 1447.08,1297.01 1467.2,1293.7 1487.33,1285.21 1507.46,1271.73 1527.58,1253.51 1547.71,1230.92 1567.83,1204.41 1587.96,1174.52 1608.09,1141.84 1628.21,1107.02 1648.34,1070.77 1668.47,1033.8 1688.59,996.853 1708.72,960.674 1728.84,925.983 1748.97,893.473 1769.1,858.922 1789.22,823.02 1809.35,786.484 1829.48,750.047 1849.6,714.436 1869.73,680.365 1889.85,648.513 1909.98,619.519 1930.11,593.962 1950.23,572.353 1970.36,555.125 1990.48,542.622 2010.61,535.093 2030.74,532.691 2050.86,535.462 2070.99,543.352 2091.12,556.202 2111.24,573.756 2131.37,595.662 2151.49,621.483 2171.62,650.701 2191.75,682.733 2211.87,716.938 2232,752.631 2252.12,789.1 2272.25,825.614 2292.38,861.443 "/>
<polyline clip-path="url(#clip832)" style="stroke:#e26f46; stroke-linecap:round; stroke-linejoin:round; stroke-width:4; stroke-opacity:1; fill:none" points="279.759,1242.38 299.885,1240.28 320.011,1234.02 340.137,1223.73 360.263,1209.6 380.39,1191.94 400.516,1171.08 420.642,1147.44 440.768,1121.51 460.894,1093.79 481.021,1064.84 501.147,1035.24 521.273,1005.58 541.399,976.46 561.525,948.455 581.652,922.127 601.778,894.197 621.904,865.224 642.03,835.787 662.156,806.475 682.282,777.874 702.409,750.557 722.535,725.068 742.661,701.919 762.787,681.573 782.913,664.435 803.04,650.849 823.166,641.087 843.292,635.344 863.418,633.734 883.544,636.291 903.67,642.962 923.797,653.615 943.923,668.036 964.049,685.937 984.175,706.96 1004.3,730.684 1024.43,756.635 1044.55,784.294 1064.68,813.108 1084.81,842.5 1104.93,871.883 1125.06,900.669 1145.18,928.282 1165.31,954.17 1185.44,981.621 1205.56,1010.09 1225.69,1039 1245.82,1067.77 1265.94,1095.84 1286.07,1122.64 1306.19,1147.63 1326.32,1170.32 1346.45,1190.24 1366.57,1207.01 1386.7,1220.28 1406.83,1229.8 1426.95,1235.36 1447.08,1236.87 1467.2,1234.28 1487.33,1227.66 1507.46,1217.12 1527.58,1202.9 1547.71,1185.26 1567.83,1164.56 1587.96,1141.22 1608.09,1115.7 1628.21,1088.51 1648.34,1060.2 1668.47,1031.33 1688.59,1002.48 1708.72,974.231 1728.84,947.141 1748.97,921.755 1769.1,894.775 1789.22,866.739 1809.35,838.21 1829.48,809.757 1849.6,781.949 1869.73,755.343 1889.85,730.471 1909.98,707.83 1930.11,687.873 1950.23,670.999 1970.36,657.546 1990.48,647.783 2010.61,641.904 2030.74,640.028 2050.86,642.192 2070.99,648.353 2091.12,658.388 2111.24,672.095 2131.37,689.201 2151.49,709.364 2171.62,732.18 2191.75,757.193 2211.87,783.902 2232,811.775 2252.12,840.252 2272.25,868.765 2292.38,896.743 "/>
<polyline clip-path="url(#clip832)" style="stroke:#3da44d; stroke-linecap:round; stroke-linejoin:round; stroke-width:4; stroke-opacity:1; fill:none" points="279.759,1384.24 299.885,1379.77 320.011,1366.46 340.137,1344.57 360.263,1314.54 380.39,1276.97 400.516,1232.61 420.642,1182.35 440.768,1127.2 460.894,1068.25 481.021,1006.69 501.147,943.744 521.273,880.675 541.399,818.744 561.525,759.189 581.652,703.201 601.778,643.807 621.904,582.194 642.03,519.594 662.156,457.26 682.282,396.439 702.409,338.346 722.535,284.143 742.661,234.915 762.787,191.646 782.913,155.202 803.04,126.311 823.166,105.552 843.292,93.3383 863.418,89.9157 883.544,95.3522 903.67,109.539 923.797,132.193 943.923,162.86 964.049,200.927 984.175,245.633 1004.3,296.085 1024.43,351.271 1044.55,410.09 1064.68,471.365 1084.81,533.869 1104.93,596.354 1125.06,657.569 1145.18,716.29 1165.31,771.343 1185.44,829.719 1205.56,890.253 1225.69,951.733 1245.82,1012.93 1265.94,1072.62 1286.07,1129.6 1306.19,1182.75 1326.32,1230.99 1346.45,1273.37 1366.57,1309.02 1386.7,1337.25 1406.83,1357.48 1426.95,1369.32 1447.08,1372.52 1467.2,1367.02 1487.33,1352.93 1507.46,1330.53 1527.58,1300.28 1547.71,1262.77 1567.83,1218.75 1587.96,1169.11 1608.09,1114.84 1628.21,1057.03 1648.34,996.821 1668.47,935.43 1688.59,874.082 1708.72,814.003 1728.84,756.395 1748.97,702.41 1769.1,645.034 1789.22,585.416 1809.35,524.746 1829.48,464.239 1849.6,405.104 1869.73,348.525 1889.85,295.633 1909.98,247.485 1930.11,205.045 1950.23,169.162 1970.36,140.553 1990.48,119.79 2010.61,107.289 2030.74,103.3 2050.86,107.902 2070.99,121.004 2091.12,142.342 2111.24,171.492 2131.37,207.869 2151.49,250.746 2171.62,299.266 2191.75,352.457 2211.87,409.257 2232,468.53 2252.12,529.089 2272.25,589.724 2292.38,649.221 "/>
<polyline clip-path="url(#clip832)" style="stroke:#c271d2; stroke-linecap:round; stroke-linejoin:round; stroke-width:4; stroke-opacity:1; fill:none" points="279.759,522.385 299.885,525.075 320.011,533.091 340.137,546.272 360.263,564.356 380.39,586.981 400.516,613.693 420.642,643.959 440.768,677.173 460.894,712.671 481.021,749.744 501.147,787.649 521.273,825.629 541.399,862.924 561.525,898.788 581.652,932.503 601.778,968.27 621.904,1005.37 642.03,1043.07 662.156,1080.61 682.282,1117.23 702.409,1152.22 722.535,1184.86 742.661,1214.5 762.787,1240.56 782.913,1262.51 803.04,1279.9 823.166,1292.41 843.292,1299.76 863.418,1301.82 883.544,1298.55 903.67,1290 923.797,1276.36 943.923,1257.9 964.049,1234.97 984.175,1208.05 1004.3,1177.67 1024.43,1144.43 1044.55,1109.01 1064.68,1072.11 1084.81,1034.47 1104.93,996.846 1125.06,959.983 1145.18,924.621 1165.31,891.469 1185.44,856.314 1205.56,819.861 1225.69,782.838 1245.82,745.986 1265.94,710.042 1286.07,675.725 1306.19,643.72 1326.32,614.669 1346.45,589.152 1366.57,567.68 1386.7,550.681 1406.83,538.496 1426.95,531.369 1447.08,529.442 1467.2,532.754 1487.33,541.239 1507.46,554.726 1527.58,572.946 1547.71,595.535 1567.83,622.04 1587.96,651.933 1608.09,684.614 1628.21,719.431 1648.34,755.686 1668.47,792.656 1688.59,829.599 1708.72,865.779 1728.84,900.47 1748.97,932.98 1769.1,967.531 1789.22,1003.43 1809.35,1039.97 1829.48,1076.41 1849.6,1112.02 1869.73,1146.09 1889.85,1177.94 1909.98,1206.93 1930.11,1232.49 1950.23,1254.1 1970.36,1271.33 1990.48,1283.83 2010.61,1291.36 2030.74,1293.76 2050.86,1290.99 2070.99,1283.1 2091.12,1270.25 2111.24,1252.7 2131.37,1230.79 2151.49,1204.97 2171.62,1175.75 2191.75,1143.72 2211.87,1109.52 2232,1073.82 2252.12,1037.35 2272.25,1000.84 2292.38,965.01 "/>
<polyline clip-path="url(#clip832)" style="stroke:#ac8d18; stroke-linecap:round; stroke-linejoin:round; stroke-width:4; stroke-opacity:1; fill:none" points="279.759,631.98 299.885,634.081 320.011,640.34 340.137,650.634 360.263,664.755 380.39,682.422 400.516,703.281 420.642,726.915 440.768,752.851 460.894,780.571 481.021,809.52 501.147,839.119 521.273,868.777 541.399,897.9 561.525,925.905 581.652,952.233 601.778,980.162 621.904,1009.14 642.03,1038.57 662.156,1067.88 682.282,1096.49 702.409,1123.8 722.535,1149.29 742.661,1172.44 762.787,1192.79 782.913,1209.92 803.04,1223.51 823.166,1233.27 843.292,1239.02 863.418,1240.63 883.544,1238.07 903.67,1231.4 923.797,1220.74 943.923,1206.32 964.049,1188.42 984.175,1167.4 1004.3,1143.68 1024.43,1117.72 1044.55,1090.07 1064.68,1061.25 1084.81,1031.86 1104.93,1002.48 1125.06,973.691 1145.18,946.078 1165.31,920.19 1185.44,892.738 1205.56,864.273 1225.69,835.363 1245.82,806.586 1265.94,778.518 1286.07,751.72 1306.19,726.729 1326.32,704.043 1346.45,684.118 1366.57,667.35 1386.7,654.076 1406.83,644.562 1426.95,638.996 1447.08,637.492 1467.2,640.078 1487.33,646.703 1507.46,657.235 1527.58,671.462 1547.71,689.102 1567.83,709.799 1587.96,733.142 1608.09,758.662 1628.21,785.849 1648.34,814.16 1668.47,843.029 1688.59,871.877 1708.72,900.129 1728.84,927.219 1748.97,952.605 1769.1,979.585 1789.22,1007.62 1809.35,1036.15 1829.48,1064.6 1849.6,1092.41 1869.73,1119.02 1889.85,1143.89 1909.98,1166.53 1930.11,1186.49 1950.23,1203.36 1970.36,1216.81 1990.48,1226.58 2010.61,1232.46 2030.74,1234.33 2050.86,1232.17 2070.99,1226.01 2091.12,1215.97 2111.24,1202.26 2131.37,1185.16 2151.49,1165 2171.62,1142.18 2191.75,1117.17 2211.87,1090.46 2232,1062.59 2252.12,1034.11 2272.25,1005.59 2292.38,977.616 "/>
<polyline clip-path="url(#clip832)" style="stroke:#00a9ad; stroke-linecap:round; stroke-linejoin:round; stroke-width:4; stroke-opacity:1; fill:none" points="279.759,86.1857 299.885,90.6525 320.011,103.964 340.137,125.853 360.263,155.883 380.39,193.453 400.516,237.81 420.642,288.07 440.768,343.225 460.894,402.173 481.021,463.735 501.147,526.68 521.273,589.749 541.399,651.68 561.525,711.235 581.652,767.223 601.778,826.617 621.904,888.23 642.03,950.83 662.156,1013.16 682.282,1073.99 702.409,1132.08 722.535,1186.28 742.661,1235.51 762.787,1278.78 782.913,1315.22 803.04,1344.11 823.166,1364.87 843.292,1377.09 863.418,1380.51 883.544,1375.07 903.67,1360.88 923.797,1338.23 943.923,1307.56 964.049,1269.5 984.175,1224.79 1004.3,1174.34 1024.43,1119.15 1044.55,1060.33 1064.68,999.059 1084.81,936.555 1104.93,874.07 1125.06,812.855 1145.18,754.134 1165.31,699.081 1185.44,640.704 1205.56,580.171 1225.69,518.691 1245.82,457.495 1265.94,397.807 1286.07,340.82 1306.19,287.674 1326.32,239.432 1346.45,197.059 1366.57,161.401 1386.7,133.174 1406.83,112.94 1426.95,101.105 1447.08,97.9055 1467.2,103.405 1487.33,117.494 1507.46,139.891 1527.58,170.147 1547.71,207.657 1567.83,251.672 1587.96,301.311 1608.09,355.581 1628.21,413.397 1648.34,473.603 1668.47,534.994 1688.59,596.342 1708.72,656.421 1728.84,714.029 1748.97,768.014 1769.1,825.39 1789.22,885.008 1809.35,945.678 1829.48,1006.19 1849.6,1065.32 1869.73,1121.9 1889.85,1174.79 1909.98,1222.94 1930.11,1265.38 1950.23,1301.26 1970.36,1329.87 1990.48,1350.63 2010.61,1363.13 2030.74,1367.12 2050.86,1362.52 2070.99,1349.42 2091.12,1328.08 2111.24,1298.93 2131.37,1262.56 2151.49,1219.68 2171.62,1171.16 2191.75,1117.97 2211.87,1061.17 2232,1001.89 2252.12,941.335 2272.25,880.7 2292.38,821.203 "/>
</svg>
