<?xml version="1.0" encoding="utf-8"?>
<svg xmlns="http://www.w3.org/2000/svg" xmlns:xlink="http://www.w3.org/1999/xlink" width="600" height="400" viewBox="0 0 2400 1600">
<defs>
  <clipPath id="clip970">
    <rect x="0" y="0" width="2400" height="1600"/>
  </clipPath>
</defs>
<path clip-path="url(#clip970)" d="M0 1600 L2400 1600 L2400 0 L0 0  Z" fill="#ffffff" fill-rule="evenodd" fill-opacity="1"/>
<defs>
  <clipPath id="clip971">
    <rect x="480" y="0" width="1681" height="1600"/>
  </clipPath>
</defs>
<path clip-path="url(#clip970)" d="M340.028 1423.18 L2352.76 1423.18 L2352.76 47.2441 L340.028 47.2441  Z" fill="#ffffff" fill-rule="evenodd" fill-opacity="1"/>
<defs>
  <clipPath id="clip972">
    <rect x="340" y="47" width="2014" height="1377"/>
  </clipPath>
</defs>
<polyline clip-path="url(#clip972)" style="stroke:#000000; stroke-linecap:round; stroke-linejoin:round; stroke-width:2; stroke-opacity:0.1; fill:none" points="396.992,1423.18 396.992,47.2441 "/>
<polyline clip-path="url(#clip972)" style="stroke:#000000; stroke-linecap:round; stroke-linejoin:round; stroke-width:2; stroke-opacity:0.1; fill:none" points="856.289,1423.18 856.289,47.2441 "/>
<polyline clip-path="url(#clip972)" style="stroke:#000000; stroke-linecap:round; stroke-linejoin:round; stroke-width:2; stroke-opacity:0.1; fill:none" points="1315.59,1423.18 1315.59,47.2441 "/>
<polyline clip-path="url(#clip972)" style="stroke:#000000; stroke-linecap:round; stroke-linejoin:round; stroke-width:2; stroke-opacity:0.1; fill:none" points="1774.89,1423.18 1774.89,47.2441 "/>
<polyline clip-path="url(#clip972)" style="stroke:#000000; stroke-linecap:round; stroke-linejoin:round; stroke-width:2; stroke-opacity:0.1; fill:none" points="2234.18,1423.18 2234.18,47.2441 "/>
<polyline clip-path="url(#clip970)" style="stroke:#000000; stroke-linecap:round; stroke-linejoin:round; stroke-width:4; stroke-opacity:1; fill:none" points="340.028,1423.18 2352.76,1423.18 "/>
<polyline clip-path="url(#clip970)" style="stroke:#000000; stroke-linecap:round; stroke-linejoin:round; stroke-width:4; stroke-opacity:1; fill:none" points="396.992,1423.18 396.992,1404.28 "/>
<polyline clip-path="url(#clip970)" style="stroke:#000000; stroke-linecap:round; stroke-linejoin:round; stroke-width:4; stroke-opacity:1; fill:none" points="856.289,1423.18 856.289,1404.28 "/>
<polyline clip-path="url(#clip970)" style="stroke:#000000; stroke-linecap:round; stroke-linejoin:round; stroke-width:4; stroke-opacity:1; fill:none" points="1315.59,1423.18 1315.59,1404.28 "/>
<polyline clip-path="url(#clip970)" style="stroke:#000000; stroke-linecap:round; stroke-linejoin:round; stroke-width:4; stroke-opacity:1; fill:none" points="1774.89,1423.18 1774.89,1404.28 "/>
<polyline clip-path="url(#clip970)" style="stroke:#000000; stroke-linecap:round; stroke-linejoin:round; stroke-width:4; stroke-opacity:1; fill:none" points="2234.18,1423.18 2234.18,1404.28 "/>
<path clip-path="url(#clip970)" d="M396.992 1454.1 Q393.381 1454.1 391.552 1457.66 Q389.746 1461.2 389.746 1468.33 Q389.746 1475.44 391.552 1479.01 Q393.381 1482.55 396.992 1482.55 Q400.626 1482.55 402.431 1479.01 Q404.26 1475.44 404.26 1468.33 Q404.26 1461.2 402.431 1457.66 Q400.626 1454.1 396.992 1454.1 M396.992 1450.39 Q402.802 1450.39 405.857 1455 Q408.936 1459.58 408.936 1468.33 Q408.936 1477.06 405.857 1481.67 Q402.802 1486.25 396.992 1486.25 Q391.182 1486.25 388.103 1481.67 Q385.047 1477.06 385.047 1468.33 Q385.047 1459.58 388.103 1455 Q391.182 1450.39 396.992 1450.39 Z" fill="#000000" fill-rule="nonzero" fill-opacity="1" /><path clip-path="url(#clip970)" d="M800.815 1481.64 L808.454 1481.64 L808.454 1455.28 L800.144 1456.95 L800.144 1452.69 L808.408 1451.02 L813.084 1451.02 L813.084 1481.64 L820.723 1481.64 L820.723 1485.58 L800.815 1485.58 L800.815 1481.64 Z" fill="#000000" fill-rule="nonzero" fill-opacity="1" /><path clip-path="url(#clip970)" d="M840.167 1454.1 Q836.556 1454.1 834.727 1457.66 Q832.922 1461.2 832.922 1468.33 Q832.922 1475.44 834.727 1479.01 Q836.556 1482.55 840.167 1482.55 Q843.801 1482.55 845.607 1479.01 Q847.435 1475.44 847.435 1468.33 Q847.435 1461.2 845.607 1457.66 Q843.801 1454.1 840.167 1454.1 M840.167 1450.39 Q845.977 1450.39 849.033 1455 Q852.111 1459.58 852.111 1468.33 Q852.111 1477.06 849.033 1481.67 Q845.977 1486.25 840.167 1486.25 Q834.357 1486.25 831.278 1481.67 Q828.222 1477.06 828.222 1468.33 Q828.222 1459.58 831.278 1455 Q834.357 1450.39 840.167 1450.39 Z" fill="#000000" fill-rule="nonzero" fill-opacity="1" /><path clip-path="url(#clip970)" d="M870.329 1454.1 Q866.718 1454.1 864.889 1457.66 Q863.083 1461.2 863.083 1468.33 Q863.083 1475.44 864.889 1479.01 Q866.718 1482.55 870.329 1482.55 Q873.963 1482.55 875.769 1479.01 Q877.597 1475.44 877.597 1468.33 Q877.597 1461.2 875.769 1457.66 Q873.963 1454.1 870.329 1454.1 M870.329 1450.39 Q876.139 1450.39 879.194 1455 Q882.273 1459.58 882.273 1468.33 Q882.273 1477.06 879.194 1481.67 Q876.139 1486.25 870.329 1486.25 Q864.519 1486.25 861.44 1481.67 Q858.384 1477.06 858.384 1468.33 Q858.384 1459.58 861.44 1455 Q864.519 1450.39 870.329 1450.39 Z" fill="#000000" fill-rule="nonzero" fill-opacity="1" /><path clip-path="url(#clip970)" d="M900.491 1454.1 Q896.88 1454.1 895.051 1457.66 Q893.245 1461.2 893.245 1468.33 Q893.245 1475.44 895.051 1479.01 Q896.88 1482.55 900.491 1482.55 Q904.125 1482.55 905.93 1479.01 Q907.759 1475.44 907.759 1468.33 Q907.759 1461.2 905.93 1457.66 Q904.125 1454.1 900.491 1454.1 M900.491 1450.39 Q906.301 1450.39 909.356 1455 Q912.435 1459.58 912.435 1468.33 Q912.435 1477.06 909.356 1481.67 Q906.301 1486.25 900.491 1486.25 Q894.68 1486.25 891.602 1481.67 Q888.546 1477.06 888.546 1468.33 Q888.546 1459.58 891.602 1455 Q894.68 1450.39 900.491 1450.39 Z" fill="#000000" fill-rule="nonzero" fill-opacity="1" /><path clip-path="url(#clip970)" d="M1264.2 1481.64 L1280.52 1481.64 L1280.52 1485.58 L1258.57 1485.58 L1258.57 1481.64 Q1261.24 1478.89 1265.82 1474.26 Q1270.43 1469.61 1271.61 1468.27 Q1273.85 1465.74 1274.73 1464.01 Q1275.63 1462.25 1275.63 1460.56 Q1275.63 1457.8 1273.69 1456.07 Q1271.77 1454.33 1268.67 1454.33 Q1266.47 1454.33 1264.01 1455.09 Q1261.58 1455.86 1258.81 1457.41 L1258.81 1452.69 Q1261.63 1451.55 1264.08 1450.97 Q1266.54 1450.39 1268.57 1450.39 Q1273.94 1450.39 1277.14 1453.08 Q1280.33 1455.77 1280.33 1460.26 Q1280.33 1462.39 1279.52 1464.31 Q1278.74 1466.2 1276.63 1468.8 Q1276.05 1469.47 1272.95 1472.69 Q1269.85 1475.88 1264.2 1481.64 Z" fill="#000000" fill-rule="nonzero" fill-opacity="1" /><path clip-path="url(#clip970)" d="M1300.33 1454.1 Q1296.72 1454.1 1294.89 1457.66 Q1293.09 1461.2 1293.09 1468.33 Q1293.09 1475.44 1294.89 1479.01 Q1296.72 1482.55 1300.33 1482.55 Q1303.97 1482.55 1305.77 1479.01 Q1307.6 1475.44 1307.6 1468.33 Q1307.6 1461.2 1305.77 1457.66 Q1303.97 1454.1 1300.33 1454.1 M1300.33 1450.39 Q1306.14 1450.39 1309.2 1455 Q1312.28 1459.58 1312.28 1468.33 Q1312.28 1477.06 1309.2 1481.67 Q1306.14 1486.25 1300.33 1486.25 Q1294.52 1486.25 1291.44 1481.67 Q1288.39 1477.06 1288.39 1468.33 Q1288.39 1459.58 1291.44 1455 Q1294.52 1450.39 1300.33 1450.39 Z" fill="#000000" fill-rule="nonzero" fill-opacity="1" /><path clip-path="url(#clip970)" d="M1330.49 1454.1 Q1326.88 1454.1 1325.05 1457.66 Q1323.25 1461.2 1323.25 1468.33 Q1323.25 1475.44 1325.05 1479.01 Q1326.88 1482.55 1330.49 1482.55 Q1334.13 1482.55 1335.93 1479.01 Q1337.76 1475.44 1337.76 1468.33 Q1337.76 1461.2 1335.93 1457.66 Q1334.13 1454.1 1330.49 1454.1 M1330.49 1450.39 Q1336.3 1450.39 1339.36 1455 Q1342.44 1459.58 1342.44 1468.33 Q1342.44 1477.06 1339.36 1481.67 Q1336.3 1486.25 1330.49 1486.25 Q1324.68 1486.25 1321.61 1481.67 Q1318.55 1477.06 1318.55 1468.33 Q1318.55 1459.58 1321.61 1455 Q1324.68 1450.39 1330.49 1450.39 Z" fill="#000000" fill-rule="nonzero" fill-opacity="1" /><path clip-path="url(#clip970)" d="M1360.66 1454.1 Q1357.05 1454.1 1355.22 1457.66 Q1353.41 1461.2 1353.41 1468.33 Q1353.41 1475.44 1355.22 1479.01 Q1357.05 1482.55 1360.66 1482.55 Q1364.29 1482.55 1366.1 1479.01 Q1367.92 1475.44 1367.92 1468.33 Q1367.92 1461.2 1366.1 1457.66 Q1364.29 1454.1 1360.66 1454.1 M1360.66 1450.39 Q1366.47 1450.39 1369.52 1455 Q1372.6 1459.58 1372.6 1468.33 Q1372.6 1477.06 1369.52 1481.67 Q1366.47 1486.25 1360.66 1486.25 Q1354.85 1486.25 1351.77 1481.67 Q1348.71 1477.06 1348.71 1468.33 Q1348.71 1459.58 1351.77 1455 Q1354.85 1450.39 1360.66 1450.39 Z" fill="#000000" fill-rule="nonzero" fill-opacity="1" /><path clip-path="url(#clip970)" d="M1733.57 1466.95 Q1736.92 1467.66 1738.8 1469.93 Q1740.7 1472.2 1740.7 1475.53 Q1740.7 1480.65 1737.18 1483.45 Q1733.66 1486.25 1727.18 1486.25 Q1725 1486.25 1722.69 1485.81 Q1720.39 1485.39 1717.94 1484.54 L1717.94 1480.02 Q1719.89 1481.16 1722.2 1481.74 Q1724.52 1482.32 1727.04 1482.32 Q1731.44 1482.32 1733.73 1480.58 Q1736.04 1478.84 1736.04 1475.53 Q1736.04 1472.48 1733.89 1470.77 Q1731.76 1469.03 1727.94 1469.03 L1723.91 1469.03 L1723.91 1465.19 L1728.13 1465.19 Q1731.58 1465.19 1733.4 1463.82 Q1735.23 1462.43 1735.23 1459.84 Q1735.23 1457.18 1733.33 1455.77 Q1731.46 1454.33 1727.94 1454.33 Q1726.02 1454.33 1723.82 1454.75 Q1721.62 1455.16 1718.98 1456.04 L1718.98 1451.88 Q1721.64 1451.14 1723.96 1450.77 Q1726.3 1450.39 1728.36 1450.39 Q1733.68 1450.39 1736.78 1452.83 Q1739.89 1455.23 1739.89 1459.35 Q1739.89 1462.22 1738.24 1464.21 Q1736.6 1466.18 1733.57 1466.95 Z" fill="#000000" fill-rule="nonzero" fill-opacity="1" /><path clip-path="url(#clip970)" d="M1759.56 1454.1 Q1755.95 1454.1 1754.12 1457.66 Q1752.32 1461.2 1752.32 1468.33 Q1752.32 1475.44 1754.12 1479.01 Q1755.95 1482.55 1759.56 1482.55 Q1763.2 1482.55 1765 1479.01 Q1766.83 1475.44 1766.83 1468.33 Q1766.83 1461.2 1765 1457.66 Q1763.2 1454.1 1759.56 1454.1 M1759.56 1450.39 Q1765.37 1450.39 1768.43 1455 Q1771.51 1459.58 1771.51 1468.33 Q1771.51 1477.06 1768.43 1481.67 Q1765.37 1486.25 1759.56 1486.25 Q1753.75 1486.25 1750.67 1481.67 Q1747.62 1477.06 1747.62 1468.33 Q1747.62 1459.58 1750.67 1455 Q1753.75 1450.39 1759.56 1450.39 Z" fill="#000000" fill-rule="nonzero" fill-opacity="1" /><path clip-path="url(#clip970)" d="M1789.72 1454.1 Q1786.11 1454.1 1784.28 1457.66 Q1782.48 1461.2 1782.48 1468.33 Q1782.48 1475.44 1784.28 1479.01 Q1786.11 1482.55 1789.72 1482.55 Q1793.36 1482.55 1795.16 1479.01 Q1796.99 1475.44 1796.99 1468.33 Q1796.99 1461.2 1795.16 1457.66 Q1793.36 1454.1 1789.72 1454.1 M1789.72 1450.39 Q1795.53 1450.39 1798.59 1455 Q1801.67 1459.58 1801.67 1468.33 Q1801.67 1477.06 1798.59 1481.67 Q1795.53 1486.25 1789.72 1486.25 Q1783.91 1486.25 1780.83 1481.67 Q1777.78 1477.06 1777.78 1468.33 Q1777.78 1459.58 1780.83 1455 Q1783.91 1450.39 1789.72 1450.39 Z" fill="#000000" fill-rule="nonzero" fill-opacity="1" /><path clip-path="url(#clip970)" d="M1819.88 1454.1 Q1816.27 1454.1 1814.45 1457.66 Q1812.64 1461.2 1812.64 1468.33 Q1812.64 1475.44 1814.45 1479.01 Q1816.27 1482.55 1819.88 1482.55 Q1823.52 1482.55 1825.32 1479.01 Q1827.15 1475.44 1827.15 1468.33 Q1827.15 1461.2 1825.32 1457.66 Q1823.52 1454.1 1819.88 1454.1 M1819.88 1450.39 Q1825.7 1450.39 1828.75 1455 Q1831.83 1459.58 1831.83 1468.33 Q1831.83 1477.06 1828.75 1481.67 Q1825.7 1486.25 1819.88 1486.25 Q1814.07 1486.25 1811 1481.67 Q1807.94 1477.06 1807.94 1468.33 Q1807.94 1459.58 1811 1455 Q1814.07 1450.39 1819.88 1450.39 Z" fill="#000000" fill-rule="nonzero" fill-opacity="1" /><path clip-path="url(#clip970)" d="M2192.19 1455.09 L2180.39 1473.54 L2192.19 1473.54 L2192.19 1455.09 M2190.97 1451.02 L2196.85 1451.02 L2196.85 1473.54 L2201.78 1473.54 L2201.78 1477.43 L2196.85 1477.43 L2196.85 1485.58 L2192.19 1485.58 L2192.19 1477.43 L2176.59 1477.43 L2176.59 1472.92 L2190.97 1451.02 Z" fill="#000000" fill-rule="nonzero" fill-opacity="1" /><path clip-path="url(#clip970)" d="M2219.51 1454.1 Q2215.9 1454.1 2214.07 1457.66 Q2212.26 1461.2 2212.26 1468.33 Q2212.26 1475.44 2214.07 1479.01 Q2215.9 1482.55 2219.51 1482.55 Q2223.14 1482.55 2224.95 1479.01 Q2226.78 1475.44 2226.78 1468.33 Q2226.78 1461.2 2224.95 1457.66 Q2223.14 1454.1 2219.51 1454.1 M2219.51 1450.39 Q2225.32 1450.39 2228.37 1455 Q2231.45 1459.58 2231.45 1468.33 Q2231.45 1477.06 2228.37 1481.67 Q2225.32 1486.25 2219.51 1486.25 Q2213.7 1486.25 2210.62 1481.67 Q2207.56 1477.06 2207.56 1468.33 Q2207.56 1459.58 2210.62 1455 Q2213.7 1450.39 2219.51 1450.39 Z" fill="#000000" fill-rule="nonzero" fill-opacity="1" /><path clip-path="url(#clip970)" d="M2249.67 1454.1 Q2246.06 1454.1 2244.23 1457.66 Q2242.42 1461.2 2242.42 1468.33 Q2242.42 1475.44 2244.23 1479.01 Q2246.06 1482.55 2249.67 1482.55 Q2253.3 1482.55 2255.11 1479.01 Q2256.94 1475.44 2256.94 1468.33 Q2256.94 1461.2 2255.11 1457.66 Q2253.3 1454.1 2249.67 1454.1 M2249.67 1450.39 Q2255.48 1450.39 2258.53 1455 Q2261.61 1459.58 2261.61 1468.33 Q2261.61 1477.06 2258.53 1481.67 Q2255.48 1486.25 2249.67 1486.25 Q2243.86 1486.25 2240.78 1481.67 Q2237.72 1477.06 2237.72 1468.33 Q2237.72 1459.58 2240.78 1455 Q2243.86 1450.39 2249.67 1450.39 Z" fill="#000000" fill-rule="nonzero" fill-opacity="1" /><path clip-path="url(#clip970)" d="M2279.83 1454.1 Q2276.22 1454.1 2274.39 1457.66 Q2272.59 1461.2 2272.59 1468.33 Q2272.59 1475.44 2274.39 1479.01 Q2276.22 1482.55 2279.83 1482.55 Q2283.47 1482.55 2285.27 1479.01 Q2287.1 1475.44 2287.1 1468.33 Q2287.1 1461.2 2285.27 1457.66 Q2283.47 1454.1 2279.83 1454.1 M2279.83 1450.39 Q2285.64 1450.39 2288.7 1455 Q2291.78 1459.58 2291.78 1468.33 Q2291.78 1477.06 2288.7 1481.67 Q2285.64 1486.25 2279.83 1486.25 Q2274.02 1486.25 2270.94 1481.67 Q2267.89 1477.06 2267.89 1468.33 Q2267.89 1459.58 2270.94 1455 Q2274.02 1450.39 2279.83 1450.39 Z" fill="#000000" fill-rule="nonzero" fill-opacity="1" /><path clip-path="url(#clip970)" d="M1345.45 1522.27 L1345.45 1532.4 L1357.52 1532.4 L1357.52 1536.95 L1345.45 1536.95 L1345.45 1556.3 Q1345.45 1560.66 1346.63 1561.9 Q1347.84 1563.14 1351.5 1563.14 L1357.52 1563.14 L1357.52 1568.04 L1351.5 1568.04 Q1344.72 1568.04 1342.14 1565.53 Q1339.56 1562.98 1339.56 1556.3 L1339.56 1536.95 L1335.27 1536.95 L1335.27 1532.4 L1339.56 1532.4 L1339.56 1522.27 L1345.45 1522.27 Z" fill="#000000" fill-rule="nonzero" fill-opacity="1" /><polyline clip-path="url(#clip972)" style="stroke:#000000; stroke-linecap:round; stroke-linejoin:round; stroke-width:2; stroke-opacity:0.1; fill:none" points="340.028,1384.24 2352.76,1384.24 "/>
<polyline clip-path="url(#clip972)" style="stroke:#000000; stroke-linecap:round; stroke-linejoin:round; stroke-width:2; stroke-opacity:0.1; fill:none" points="340.028,1113.59 2352.76,1113.59 "/>
<polyline clip-path="url(#clip972)" style="stroke:#000000; stroke-linecap:round; stroke-linejoin:round; stroke-width:2; stroke-opacity:0.1; fill:none" points="340.028,842.949 2352.76,842.949 "/>
<polyline clip-path="url(#clip972)" style="stroke:#000000; stroke-linecap:round; stroke-linejoin:round; stroke-width:2; stroke-opacity:0.1; fill:none" points="340.028,572.304 2352.76,572.304 "/>
<polyline clip-path="url(#clip972)" style="stroke:#000000; stroke-linecap:round; stroke-linejoin:round; stroke-width:2; stroke-opacity:0.1; fill:none" points="340.028,301.659 2352.76,301.659 "/>
<polyline clip-path="url(#clip970)" style="stroke:#000000; stroke-linecap:round; stroke-linejoin:round; stroke-width:4; stroke-opacity:1; fill:none" points="340.028,1423.18 340.028,47.2441 "/>
<polyline clip-path="url(#clip970)" style="stroke:#000000; stroke-linecap:round; stroke-linejoin:round; stroke-width:4; stroke-opacity:1; fill:none" points="340.028,1384.24 358.925,1384.24 "/>
<polyline clip-path="url(#clip970)" style="stroke:#000000; stroke-linecap:round; stroke-linejoin:round; stroke-width:4; stroke-opacity:1; fill:none" points="340.028,1113.59 358.925,1113.59 "/>
<polyline clip-path="url(#clip970)" style="stroke:#000000; stroke-linecap:round; stroke-linejoin:round; stroke-width:4; stroke-opacity:1; fill:none" points="340.028,842.949 358.925,842.949 "/>
<polyline clip-path="url(#clip970)" style="stroke:#000000; stroke-linecap:round; stroke-linejoin:round; stroke-width:4; stroke-opacity:1; fill:none" points="340.028,572.304 358.925,572.304 "/>
<polyline clip-path="url(#clip970)" style="stroke:#000000; stroke-linecap:round; stroke-linejoin:round; stroke-width:4; stroke-opacity:1; fill:none" points="340.028,301.659 358.925,301.659 "/>
<path clip-path="url(#clip970)" d="M126.205 1370.04 Q122.593 1370.04 120.765 1373.6 Q118.959 1377.14 118.959 1384.27 Q118.959 1391.38 120.765 1394.94 Q122.593 1398.49 126.205 1398.49 Q129.839 1398.49 131.644 1394.94 Q133.473 1391.38 133.473 1384.27 Q133.473 1377.14 131.644 1373.6 Q129.839 1370.04 126.205 1370.04 M126.205 1366.33 Q132.015 1366.33 135.07 1370.94 Q138.149 1375.52 138.149 1384.27 Q138.149 1393 135.07 1397.61 Q132.015 1402.19 126.205 1402.19 Q120.394 1402.19 117.316 1397.61 Q114.26 1393 114.26 1384.27 Q114.26 1375.52 117.316 1370.94 Q120.394 1366.33 126.205 1366.33 Z" fill="#000000" fill-rule="nonzero" fill-opacity="1" /><path clip-path="url(#clip970)" d="M146.366 1395.64 L151.251 1395.64 L151.251 1401.52 L146.366 1401.52 L146.366 1395.64 Z" fill="#000000" fill-rule="nonzero" fill-opacity="1" /><path clip-path="url(#clip970)" d="M171.436 1370.04 Q167.825 1370.04 165.996 1373.6 Q164.19 1377.14 164.19 1384.27 Q164.19 1391.38 165.996 1394.94 Q167.825 1398.49 171.436 1398.49 Q175.07 1398.49 176.876 1394.94 Q178.704 1391.38 178.704 1384.27 Q178.704 1377.14 176.876 1373.6 Q175.07 1370.04 171.436 1370.04 M171.436 1366.33 Q177.246 1366.33 180.301 1370.94 Q183.38 1375.52 183.38 1384.27 Q183.38 1393 180.301 1397.61 Q177.246 1402.19 171.436 1402.19 Q165.626 1402.19 162.547 1397.61 Q159.491 1393 159.491 1384.27 Q159.491 1375.52 162.547 1370.94 Q165.626 1366.33 171.436 1366.33 Z" fill="#000000" fill-rule="nonzero" fill-opacity="1" /><path clip-path="url(#clip970)" d="M201.598 1370.04 Q197.987 1370.04 196.158 1373.6 Q194.352 1377.14 194.352 1384.27 Q194.352 1391.38 196.158 1394.94 Q197.987 1398.49 201.598 1398.49 Q205.232 1398.49 207.037 1394.94 Q208.866 1391.38 208.866 1384.27 Q208.866 1377.14 207.037 1373.6 Q205.232 1370.04 201.598 1370.04 M201.598 1366.33 Q207.408 1366.33 210.463 1370.94 Q213.542 1375.52 213.542 1384.27 Q213.542 1393 210.463 1397.61 Q207.408 1402.19 201.598 1402.19 Q195.787 1402.19 192.709 1397.61 Q189.653 1393 189.653 1384.27 Q189.653 1375.52 192.709 1370.94 Q195.787 1366.33 201.598 1366.33 Z" fill="#000000" fill-rule="nonzero" fill-opacity="1" /><path clip-path="url(#clip970)" d="M231.76 1370.04 Q228.148 1370.04 226.32 1373.6 Q224.514 1377.14 224.514 1384.27 Q224.514 1391.38 226.32 1394.94 Q228.148 1398.49 231.76 1398.49 Q235.394 1398.49 237.199 1394.94 Q239.028 1391.38 239.028 1384.27 Q239.028 1377.14 237.199 1373.6 Q235.394 1370.04 231.76 1370.04 M231.76 1366.33 Q237.57 1366.33 240.625 1370.94 Q243.704 1375.52 243.704 1384.27 Q243.704 1393 240.625 1397.61 Q237.57 1402.19 231.76 1402.19 Q225.949 1402.19 222.871 1397.61 Q219.815 1393 219.815 1384.27 Q219.815 1375.52 222.871 1370.94 Q225.949 1366.33 231.76 1366.33 Z" fill="#000000" fill-rule="nonzero" fill-opacity="1" /><path clip-path="url(#clip970)" d="M261.921 1370.04 Q258.31 1370.04 256.482 1373.6 Q254.676 1377.14 254.676 1384.27 Q254.676 1391.38 256.482 1394.94 Q258.31 1398.49 261.921 1398.49 Q265.556 1398.49 267.361 1394.94 Q269.19 1391.38 269.19 1384.27 Q269.19 1377.14 267.361 1373.6 Q265.556 1370.04 261.921 1370.04 M261.921 1366.33 Q267.732 1366.33 270.787 1370.94 Q273.866 1375.52 273.866 1384.27 Q273.866 1393 270.787 1397.61 Q267.732 1402.19 261.921 1402.19 Q256.111 1402.19 253.033 1397.61 Q249.977 1393 249.977 1384.27 Q249.977 1375.52 253.033 1370.94 Q256.111 1366.33 261.921 1366.33 Z" fill="#000000" fill-rule="nonzero" fill-opacity="1" /><path clip-path="url(#clip970)" d="M292.083 1370.04 Q288.472 1370.04 286.643 1373.6 Q284.838 1377.14 284.838 1384.27 Q284.838 1391.38 286.643 1394.94 Q288.472 1398.49 292.083 1398.49 Q295.718 1398.49 297.523 1394.94 Q299.352 1391.38 299.352 1384.27 Q299.352 1377.14 297.523 1373.6 Q295.718 1370.04 292.083 1370.04 M292.083 1366.33 Q297.893 1366.33 300.949 1370.94 Q304.028 1375.52 304.028 1384.27 Q304.028 1393 300.949 1397.61 Q297.893 1402.19 292.083 1402.19 Q286.273 1402.19 283.194 1397.61 Q280.139 1393 280.139 1384.27 Q280.139 1375.52 283.194 1370.94 Q286.273 1366.33 292.083 1366.33 Z" fill="#000000" fill-rule="nonzero" fill-opacity="1" /><path clip-path="url(#clip970)" d="M127.2 1099.39 Q123.589 1099.39 121.76 1102.96 Q119.955 1106.5 119.955 1113.63 Q119.955 1120.73 121.76 1124.3 Q123.589 1127.84 127.2 1127.84 Q130.834 1127.84 132.64 1124.3 Q134.468 1120.73 134.468 1113.63 Q134.468 1106.5 132.64 1102.96 Q130.834 1099.39 127.2 1099.39 M127.2 1095.69 Q133.01 1095.69 136.066 1100.29 Q139.144 1104.88 139.144 1113.63 Q139.144 1122.36 136.066 1126.96 Q133.01 1131.54 127.2 1131.54 Q121.39 1131.54 118.311 1126.96 Q115.256 1122.36 115.256 1113.63 Q115.256 1104.88 118.311 1100.29 Q121.39 1095.69 127.2 1095.69 Z" fill="#000000" fill-rule="nonzero" fill-opacity="1" /><path clip-path="url(#clip970)" d="M147.362 1124.99 L152.246 1124.99 L152.246 1130.87 L147.362 1130.87 L147.362 1124.99 Z" fill="#000000" fill-rule="nonzero" fill-opacity="1" /><path clip-path="url(#clip970)" d="M172.431 1099.39 Q168.82 1099.39 166.991 1102.96 Q165.186 1106.5 165.186 1113.63 Q165.186 1120.73 166.991 1124.3 Q168.82 1127.84 172.431 1127.84 Q176.065 1127.84 177.871 1124.3 Q179.7 1120.73 179.7 1113.63 Q179.7 1106.5 177.871 1102.96 Q176.065 1099.39 172.431 1099.39 M172.431 1095.69 Q178.241 1095.69 181.297 1100.29 Q184.376 1104.88 184.376 1113.63 Q184.376 1122.36 181.297 1126.96 Q178.241 1131.54 172.431 1131.54 Q166.621 1131.54 163.542 1126.96 Q160.487 1122.36 160.487 1113.63 Q160.487 1104.88 163.542 1100.29 Q166.621 1095.69 172.431 1095.69 Z" fill="#000000" fill-rule="nonzero" fill-opacity="1" /><path clip-path="url(#clip970)" d="M202.593 1099.39 Q198.982 1099.39 197.153 1102.96 Q195.348 1106.5 195.348 1113.63 Q195.348 1120.73 197.153 1124.3 Q198.982 1127.84 202.593 1127.84 Q206.227 1127.84 208.033 1124.3 Q209.861 1120.73 209.861 1113.63 Q209.861 1106.5 208.033 1102.96 Q206.227 1099.39 202.593 1099.39 M202.593 1095.69 Q208.403 1095.69 211.459 1100.29 Q214.537 1104.88 214.537 1113.63 Q214.537 1122.36 211.459 1126.96 Q208.403 1131.54 202.593 1131.54 Q196.783 1131.54 193.704 1126.96 Q190.649 1122.36 190.649 1113.63 Q190.649 1104.88 193.704 1100.29 Q196.783 1095.69 202.593 1095.69 Z" fill="#000000" fill-rule="nonzero" fill-opacity="1" /><path clip-path="url(#clip970)" d="M232.755 1099.39 Q229.144 1099.39 227.315 1102.96 Q225.51 1106.5 225.51 1113.63 Q225.51 1120.73 227.315 1124.3 Q229.144 1127.84 232.755 1127.84 Q236.389 1127.84 238.195 1124.3 Q240.023 1120.73 240.023 1113.63 Q240.023 1106.5 238.195 1102.96 Q236.389 1099.39 232.755 1099.39 M232.755 1095.69 Q238.565 1095.69 241.621 1100.29 Q244.699 1104.88 244.699 1113.63 Q244.699 1122.36 241.621 1126.96 Q238.565 1131.54 232.755 1131.54 Q226.945 1131.54 223.866 1126.96 Q220.811 1122.36 220.811 1113.63 Q220.811 1104.88 223.866 1100.29 Q226.945 1095.69 232.755 1095.69 Z" fill="#000000" fill-rule="nonzero" fill-opacity="1" /><path clip-path="url(#clip970)" d="M256.945 1126.94 L273.264 1126.94 L273.264 1130.87 L251.32 1130.87 L251.32 1126.94 Q253.982 1124.18 258.565 1119.55 Q263.171 1114.9 264.352 1113.56 Q266.597 1111.04 267.477 1109.3 Q268.38 1107.54 268.38 1105.85 Q268.38 1103.1 266.435 1101.36 Q264.514 1099.62 261.412 1099.62 Q259.213 1099.62 256.759 1100.39 Q254.329 1101.15 251.551 1102.7 L251.551 1097.98 Q254.375 1096.85 256.829 1096.27 Q259.283 1095.69 261.32 1095.69 Q266.69 1095.69 269.884 1098.37 Q273.079 1101.06 273.079 1105.55 Q273.079 1107.68 272.269 1109.6 Q271.482 1111.5 269.375 1114.09 Q268.796 1114.76 265.695 1117.98 Q262.593 1121.17 256.945 1126.94 Z" fill="#000000" fill-rule="nonzero" fill-opacity="1" /><path clip-path="url(#clip970)" d="M283.125 1096.31 L301.481 1096.31 L301.481 1100.25 L287.407 1100.25 L287.407 1108.72 Q288.426 1108.37 289.444 1108.21 Q290.463 1108.03 291.481 1108.03 Q297.268 1108.03 300.648 1111.2 Q304.028 1114.37 304.028 1119.79 Q304.028 1125.36 300.555 1128.47 Q297.083 1131.54 290.764 1131.54 Q288.588 1131.54 286.319 1131.17 Q284.074 1130.8 281.667 1130.06 L281.667 1125.36 Q283.75 1126.5 285.972 1127.05 Q288.194 1127.61 290.671 1127.61 Q294.676 1127.61 297.014 1125.5 Q299.352 1123.4 299.352 1119.79 Q299.352 1116.17 297.014 1114.07 Q294.676 1111.96 290.671 1111.96 Q288.796 1111.96 286.921 1112.38 Q285.069 1112.79 283.125 1113.67 L283.125 1096.31 Z" fill="#000000" fill-rule="nonzero" fill-opacity="1" /><path clip-path="url(#clip970)" d="M126.205 828.747 Q122.593 828.747 120.765 832.312 Q118.959 835.854 118.959 842.984 Q118.959 850.09 120.765 853.655 Q122.593 857.196 126.205 857.196 Q129.839 857.196 131.644 853.655 Q133.473 850.09 133.473 842.984 Q133.473 835.854 131.644 832.312 Q129.839 828.747 126.205 828.747 M126.205 825.044 Q132.015 825.044 135.07 829.65 Q138.149 834.234 138.149 842.984 Q138.149 851.71 135.07 856.317 Q132.015 860.9 126.205 860.9 Q120.394 860.9 117.316 856.317 Q114.26 851.71 114.26 842.984 Q114.26 834.234 117.316 829.65 Q120.394 825.044 126.205 825.044 Z" fill="#000000" fill-rule="nonzero" fill-opacity="1" /><path clip-path="url(#clip970)" d="M146.366 854.349 L151.251 854.349 L151.251 860.229 L146.366 860.229 L146.366 854.349 Z" fill="#000000" fill-rule="nonzero" fill-opacity="1" /><path clip-path="url(#clip970)" d="M171.436 828.747 Q167.825 828.747 165.996 832.312 Q164.19 835.854 164.19 842.984 Q164.19 850.09 165.996 853.655 Q167.825 857.196 171.436 857.196 Q175.07 857.196 176.876 853.655 Q178.704 850.09 178.704 842.984 Q178.704 835.854 176.876 832.312 Q175.07 828.747 171.436 828.747 M171.436 825.044 Q177.246 825.044 180.301 829.65 Q183.38 834.234 183.38 842.984 Q183.38 851.71 180.301 856.317 Q177.246 860.9 171.436 860.9 Q165.626 860.9 162.547 856.317 Q159.491 851.71 159.491 842.984 Q159.491 834.234 162.547 829.65 Q165.626 825.044 171.436 825.044 Z" fill="#000000" fill-rule="nonzero" fill-opacity="1" /><path clip-path="url(#clip970)" d="M201.598 828.747 Q197.987 828.747 196.158 832.312 Q194.352 835.854 194.352 842.984 Q194.352 850.09 196.158 853.655 Q197.987 857.196 201.598 857.196 Q205.232 857.196 207.037 853.655 Q208.866 850.09 208.866 842.984 Q208.866 835.854 207.037 832.312 Q205.232 828.747 201.598 828.747 M201.598 825.044 Q207.408 825.044 210.463 829.65 Q213.542 834.234 213.542 842.984 Q213.542 851.71 210.463 856.317 Q207.408 860.9 201.598 860.9 Q195.787 860.9 192.709 856.317 Q189.653 851.71 189.653 842.984 Q189.653 834.234 192.709 829.65 Q195.787 825.044 201.598 825.044 Z" fill="#000000" fill-rule="nonzero" fill-opacity="1" /><path clip-path="url(#clip970)" d="M231.76 828.747 Q228.148 828.747 226.32 832.312 Q224.514 835.854 224.514 842.984 Q224.514 850.09 226.32 853.655 Q228.148 857.196 231.76 857.196 Q235.394 857.196 237.199 853.655 Q239.028 850.09 239.028 842.984 Q239.028 835.854 237.199 832.312 Q235.394 828.747 231.76 828.747 M231.76 825.044 Q237.57 825.044 240.625 829.65 Q243.704 834.234 243.704 842.984 Q243.704 851.71 240.625 856.317 Q237.57 860.9 231.76 860.9 Q225.949 860.9 222.871 856.317 Q219.815 851.71 219.815 842.984 Q219.815 834.234 222.871 829.65 Q225.949 825.044 231.76 825.044 Z" fill="#000000" fill-rule="nonzero" fill-opacity="1" /><path clip-path="url(#clip970)" d="M251.968 825.669 L270.324 825.669 L270.324 829.604 L256.25 829.604 L256.25 838.076 Q257.269 837.729 258.287 837.567 Q259.306 837.382 260.324 837.382 Q266.111 837.382 269.491 840.553 Q272.87 843.724 272.87 849.141 Q272.87 854.72 269.398 857.821 Q265.926 860.9 259.607 860.9 Q257.431 860.9 255.162 860.53 Q252.917 860.159 250.509 859.419 L250.509 854.72 Q252.593 855.854 254.815 856.409 Q257.037 856.965 259.514 856.965 Q263.519 856.965 265.857 854.858 Q268.195 852.752 268.195 849.141 Q268.195 845.53 265.857 843.423 Q263.519 841.317 259.514 841.317 Q257.639 841.317 255.764 841.734 Q253.912 842.15 251.968 843.03 L251.968 825.669 Z" fill="#000000" fill-rule="nonzero" fill-opacity="1" /><path clip-path="url(#clip970)" d="M292.083 828.747 Q288.472 828.747 286.643 832.312 Q284.838 835.854 284.838 842.984 Q284.838 850.09 286.643 853.655 Q288.472 857.196 292.083 857.196 Q295.718 857.196 297.523 853.655 Q299.352 850.09 299.352 842.984 Q299.352 835.854 297.523 832.312 Q295.718 828.747 292.083 828.747 M292.083 825.044 Q297.893 825.044 300.949 829.65 Q304.028 834.234 304.028 842.984 Q304.028 851.71 300.949 856.317 Q297.893 860.9 292.083 860.9 Q286.273 860.9 283.194 856.317 Q280.139 851.71 280.139 842.984 Q280.139 834.234 283.194 829.65 Q286.273 825.044 292.083 825.044 Z" fill="#000000" fill-rule="nonzero" fill-opacity="1" /><path clip-path="url(#clip970)" d="M127.2 558.103 Q123.589 558.103 121.76 561.668 Q119.955 565.209 119.955 572.339 Q119.955 579.445 121.76 583.01 Q123.589 586.552 127.2 586.552 Q130.834 586.552 132.64 583.01 Q134.468 579.445 134.468 572.339 Q134.468 565.209 132.64 561.668 Q130.834 558.103 127.2 558.103 M127.2 554.399 Q133.01 554.399 136.066 559.006 Q139.144 563.589 139.144 572.339 Q139.144 581.066 136.066 585.672 Q133.01 590.255 127.2 590.255 Q121.39 590.255 118.311 585.672 Q115.256 581.066 115.256 572.339 Q115.256 563.589 118.311 559.006 Q121.39 554.399 127.2 554.399 Z" fill="#000000" fill-rule="nonzero" fill-opacity="1" /><path clip-path="url(#clip970)" d="M147.362 583.704 L152.246 583.704 L152.246 589.584 L147.362 589.584 L147.362 583.704 Z" fill="#000000" fill-rule="nonzero" fill-opacity="1" /><path clip-path="url(#clip970)" d="M172.431 558.103 Q168.82 558.103 166.991 561.668 Q165.186 565.209 165.186 572.339 Q165.186 579.445 166.991 583.01 Q168.82 586.552 172.431 586.552 Q176.065 586.552 177.871 583.01 Q179.7 579.445 179.7 572.339 Q179.7 565.209 177.871 561.668 Q176.065 558.103 172.431 558.103 M172.431 554.399 Q178.241 554.399 181.297 559.006 Q184.376 563.589 184.376 572.339 Q184.376 581.066 181.297 585.672 Q178.241 590.255 172.431 590.255 Q166.621 590.255 163.542 585.672 Q160.487 581.066 160.487 572.339 Q160.487 563.589 163.542 559.006 Q166.621 554.399 172.431 554.399 Z" fill="#000000" fill-rule="nonzero" fill-opacity="1" /><path clip-path="url(#clip970)" d="M202.593 558.103 Q198.982 558.103 197.153 561.668 Q195.348 565.209 195.348 572.339 Q195.348 579.445 197.153 583.01 Q198.982 586.552 202.593 586.552 Q206.227 586.552 208.033 583.01 Q209.861 579.445 209.861 572.339 Q209.861 565.209 208.033 561.668 Q206.227 558.103 202.593 558.103 M202.593 554.399 Q208.403 554.399 211.459 559.006 Q214.537 563.589 214.537 572.339 Q214.537 581.066 211.459 585.672 Q208.403 590.255 202.593 590.255 Q196.783 590.255 193.704 585.672 Q190.649 581.066 190.649 572.339 Q190.649 563.589 193.704 559.006 Q196.783 554.399 202.593 554.399 Z" fill="#000000" fill-rule="nonzero" fill-opacity="1" /><path clip-path="url(#clip970)" d="M232.755 558.103 Q229.144 558.103 227.315 561.668 Q225.51 565.209 225.51 572.339 Q225.51 579.445 227.315 583.01 Q229.144 586.552 232.755 586.552 Q236.389 586.552 238.195 583.01 Q240.023 579.445 240.023 572.339 Q240.023 565.209 238.195 561.668 Q236.389 558.103 232.755 558.103 M232.755 554.399 Q238.565 554.399 241.621 559.006 Q244.699 563.589 244.699 572.339 Q244.699 581.066 241.621 585.672 Q238.565 590.255 232.755 590.255 Q226.945 590.255 223.866 585.672 Q220.811 581.066 220.811 572.339 Q220.811 563.589 223.866 559.006 Q226.945 554.399 232.755 554.399 Z" fill="#000000" fill-rule="nonzero" fill-opacity="1" /><path clip-path="url(#clip970)" d="M251.736 555.024 L273.958 555.024 L273.958 557.015 L261.412 589.584 L256.528 589.584 L268.333 558.959 L251.736 558.959 L251.736 555.024 Z" fill="#000000" fill-rule="nonzero" fill-opacity="1" /><path clip-path="url(#clip970)" d="M283.125 555.024 L301.481 555.024 L301.481 558.959 L287.407 558.959 L287.407 567.431 Q288.426 567.084 289.444 566.922 Q290.463 566.737 291.481 566.737 Q297.268 566.737 300.648 569.908 Q304.028 573.08 304.028 578.496 Q304.028 584.075 300.555 587.177 Q297.083 590.255 290.764 590.255 Q288.588 590.255 286.319 589.885 Q284.074 589.515 281.667 588.774 L281.667 584.075 Q283.75 585.209 285.972 585.765 Q288.194 586.32 290.671 586.32 Q294.676 586.32 297.014 584.214 Q299.352 582.107 299.352 578.496 Q299.352 574.885 297.014 572.779 Q294.676 570.672 290.671 570.672 Q288.796 570.672 286.921 571.089 Q285.069 571.505 283.125 572.385 L283.125 555.024 Z" fill="#000000" fill-rule="nonzero" fill-opacity="1" /><path clip-path="url(#clip970)" d="M126.205 287.458 Q122.593 287.458 120.765 291.023 Q118.959 294.564 118.959 301.694 Q118.959 308.8 120.765 312.365 Q122.593 315.907 126.205 315.907 Q129.839 315.907 131.644 312.365 Q133.473 308.8 133.473 301.694 Q133.473 294.564 131.644 291.023 Q129.839 287.458 126.205 287.458 M126.205 283.754 Q132.015 283.754 135.07 288.361 Q138.149 292.944 138.149 301.694 Q138.149 310.421 135.07 315.027 Q132.015 319.611 126.205 319.611 Q120.394 319.611 117.316 315.027 Q114.26 310.421 114.26 301.694 Q114.26 292.944 117.316 288.361 Q120.394 283.754 126.205 283.754 Z" fill="#000000" fill-rule="nonzero" fill-opacity="1" /><path clip-path="url(#clip970)" d="M146.366 313.06 L151.251 313.06 L151.251 318.939 L146.366 318.939 L146.366 313.06 Z" fill="#000000" fill-rule="nonzero" fill-opacity="1" /><path clip-path="url(#clip970)" d="M171.436 287.458 Q167.825 287.458 165.996 291.023 Q164.19 294.564 164.19 301.694 Q164.19 308.8 165.996 312.365 Q167.825 315.907 171.436 315.907 Q175.07 315.907 176.876 312.365 Q178.704 308.8 178.704 301.694 Q178.704 294.564 176.876 291.023 Q175.07 287.458 171.436 287.458 M171.436 283.754 Q177.246 283.754 180.301 288.361 Q183.38 292.944 183.38 301.694 Q183.38 310.421 180.301 315.027 Q177.246 319.611 171.436 319.611 Q165.626 319.611 162.547 315.027 Q159.491 310.421 159.491 301.694 Q159.491 292.944 162.547 288.361 Q165.626 283.754 171.436 283.754 Z" fill="#000000" fill-rule="nonzero" fill-opacity="1" /><path clip-path="url(#clip970)" d="M201.598 287.458 Q197.987 287.458 196.158 291.023 Q194.352 294.564 194.352 301.694 Q194.352 308.8 196.158 312.365 Q197.987 315.907 201.598 315.907 Q205.232 315.907 207.037 312.365 Q208.866 308.8 208.866 301.694 Q208.866 294.564 207.037 291.023 Q205.232 287.458 201.598 287.458 M201.598 283.754 Q207.408 283.754 210.463 288.361 Q213.542 292.944 213.542 301.694 Q213.542 310.421 210.463 315.027 Q207.408 319.611 201.598 319.611 Q195.787 319.611 192.709 315.027 Q189.653 310.421 189.653 301.694 Q189.653 292.944 192.709 288.361 Q195.787 283.754 201.598 283.754 Z" fill="#000000" fill-rule="nonzero" fill-opacity="1" /><path clip-path="url(#clip970)" d="M222.57 315.004 L230.209 315.004 L230.209 288.639 L221.898 290.305 L221.898 286.046 L230.162 284.379 L234.838 284.379 L234.838 315.004 L242.477 315.004 L242.477 318.939 L222.57 318.939 L222.57 315.004 Z" fill="#000000" fill-rule="nonzero" fill-opacity="1" /><path clip-path="url(#clip970)" d="M261.921 287.458 Q258.31 287.458 256.482 291.023 Q254.676 294.564 254.676 301.694 Q254.676 308.8 256.482 312.365 Q258.31 315.907 261.921 315.907 Q265.556 315.907 267.361 312.365 Q269.19 308.8 269.19 301.694 Q269.19 294.564 267.361 291.023 Q265.556 287.458 261.921 287.458 M261.921 283.754 Q267.732 283.754 270.787 288.361 Q273.866 292.944 273.866 301.694 Q273.866 310.421 270.787 315.027 Q267.732 319.611 261.921 319.611 Q256.111 319.611 253.033 315.027 Q249.977 310.421 249.977 301.694 Q249.977 292.944 253.033 288.361 Q256.111 283.754 261.921 283.754 Z" fill="#000000" fill-rule="nonzero" fill-opacity="1" /><path clip-path="url(#clip970)" d="M292.083 287.458 Q288.472 287.458 286.643 291.023 Q284.838 294.564 284.838 301.694 Q284.838 308.8 286.643 312.365 Q288.472 315.907 292.083 315.907 Q295.718 315.907 297.523 312.365 Q299.352 308.8 299.352 301.694 Q299.352 294.564 297.523 291.023 Q295.718 287.458 292.083 287.458 M292.083 283.754 Q297.893 283.754 300.949 288.361 Q304.028 292.944 304.028 301.694 Q304.028 310.421 300.949 315.027 Q297.893 319.611 292.083 319.611 Q286.273 319.611 283.194 315.027 Q280.139 310.421 280.139 301.694 Q280.139 292.944 283.194 288.361 Q286.273 283.754 292.083 283.754 Z" fill="#000000" fill-rule="nonzero" fill-opacity="1" /><path clip-path="url(#clip970)" d="M20.8447 1013.82 Q20.8447 1020.83 26.0645 1024.96 Q31.2844 1029.07 40.2919 1029.07 Q49.2675 1029.07 54.4874 1024.96 Q59.7073 1020.83 59.7073 1013.82 Q59.7073 1006.82 54.4874 1002.75 Q49.2675 998.641 40.2919 998.641 Q31.2844 998.641 26.0645 1002.75 Q20.8447 1006.82 20.8447 1013.82 M15.6248 1013.82 Q15.6248 1003.83 22.3406 997.845 Q29.0246 991.861 40.2919 991.861 Q51.5274 991.861 58.2432 997.845 Q64.9272 1003.83 64.9272 1013.82 Q64.9272 1023.85 58.2432 1029.86 Q51.5592 1035.85 40.2919 1035.85 Q29.0246 1035.85 22.3406 1029.86 Q15.6248 1023.85 15.6248 1013.82 Z" fill="#000000" fill-rule="nonzero" fill-opacity="1" /><path clip-path="url(#clip970)" d="M49.9359 982.663 L28.3562 982.663 L28.3562 976.806 L49.7131 976.806 Q54.7739 976.806 57.3202 974.833 Q59.8346 972.86 59.8346 968.913 Q59.8346 964.171 56.8109 961.433 Q53.7872 958.664 48.5673 958.664 L28.3562 958.664 L28.3562 952.808 L64.0042 952.808 L64.0042 958.664 L58.5296 958.664 Q61.7762 960.797 63.3676 963.629 Q64.9272 966.43 64.9272 970.154 Q64.9272 976.297 61.1078 979.48 Q57.2883 982.663 49.9359 982.663 M27.4968 967.926 L27.4968 967.926 Z" fill="#000000" fill-rule="nonzero" fill-opacity="1" /><path clip-path="url(#clip970)" d="M18.2347 934.952 L28.3562 934.952 L28.3562 922.889 L32.9077 922.889 L32.9077 934.952 L52.2594 934.952 Q56.6199 934.952 57.8613 933.774 Q59.1026 932.565 59.1026 928.905 L59.1026 922.889 L64.0042 922.889 L64.0042 928.905 Q64.0042 935.684 61.4897 938.262 Q58.9434 940.84 52.2594 940.84 L32.9077 940.84 L32.9077 945.137 L28.3562 945.137 L28.3562 940.84 L18.2347 940.84 L18.2347 934.952 Z" fill="#000000" fill-rule="nonzero" fill-opacity="1" /><path clip-path="url(#clip970)" d="M58.657 909.521 L77.5631 909.521 L77.5631 915.409 L28.3562 915.409 L28.3562 909.521 L33.7671 909.521 Q30.5842 907.675 29.0564 904.874 Q27.4968 902.041 27.4968 898.126 Q27.4968 891.633 32.6531 887.591 Q37.8093 883.517 46.212 883.517 Q54.6147 883.517 59.771 887.591 Q64.9272 891.633 64.9272 898.126 Q64.9272 902.041 63.3994 904.874 Q61.8398 907.675 58.657 909.521 M46.212 889.596 Q39.7508 889.596 36.0905 892.27 Q32.3984 894.912 32.3984 899.559 Q32.3984 904.206 36.0905 906.879 Q39.7508 909.521 46.212 909.521 Q52.6732 909.521 56.3653 906.879 Q60.0256 904.206 60.0256 899.559 Q60.0256 894.912 56.3653 892.27 Q52.6732 889.596 46.212 889.596 Z" fill="#000000" fill-rule="nonzero" fill-opacity="1" /><path clip-path="url(#clip970)" d="M49.9359 874.414 L28.3562 874.414 L28.3562 868.558 L49.7131 868.558 Q54.7739 868.558 57.3202 866.584 Q59.8346 864.611 59.8346 860.664 Q59.8346 855.922 56.8109 853.184 Q53.7872 850.415 48.5673 850.415 L28.3562 850.415 L28.3562 844.559 L64.0042 844.559 L64.0042 850.415 L58.5296 850.415 Q61.7762 852.548 63.3676 855.381 Q64.9272 858.182 64.9272 861.905 Q64.9272 868.048 61.1078 871.231 Q57.2883 874.414 49.9359 874.414 M27.4968 859.677 L27.4968 859.677 Z" fill="#000000" fill-rule="nonzero" fill-opacity="1" /><path clip-path="url(#clip970)" d="M18.2347 826.703 L28.3562 826.703 L28.3562 814.64 L32.9077 814.64 L32.9077 826.703 L52.2594 826.703 Q56.6199 826.703 57.8613 825.525 Q59.1026 824.316 59.1026 820.656 L59.1026 814.64 L64.0042 814.64 L64.0042 820.656 Q64.0042 827.435 61.4897 830.013 Q58.9434 832.591 52.2594 832.591 L32.9077 832.591 L32.9077 836.888 L28.3562 836.888 L28.3562 832.591 L18.2347 832.591 L18.2347 826.703 Z" fill="#000000" fill-rule="nonzero" fill-opacity="1" /><path clip-path="url(#clip970)" d="M16.4842 813.271 L16.4842 773.072 L21.895 773.072 L21.895 789.941 L64.0042 789.941 L64.0042 796.402 L21.895 796.402 L21.895 813.271 L16.4842 813.271 Z" fill="#000000" fill-rule="nonzero" fill-opacity="1" /><path clip-path="url(#clip970)" d="M32.4621 764.383 Q32.4621 769.093 36.1542 771.831 Q39.8145 774.568 46.212 774.568 Q52.6095 774.568 56.3017 771.863 Q59.9619 769.125 59.9619 764.383 Q59.9619 759.704 56.2698 756.967 Q52.5777 754.23 46.212 754.23 Q39.8781 754.23 36.186 756.967 Q32.4621 759.704 32.4621 764.383 M27.4968 764.383 Q27.4968 756.744 32.4621 752.383 Q37.4273 748.023 46.212 748.023 Q54.9649 748.023 59.9619 752.383 Q64.9272 756.744 64.9272 764.383 Q64.9272 772.053 59.9619 776.414 Q54.9649 780.743 46.212 780.743 Q37.4273 780.743 32.4621 776.414 Q27.4968 772.053 27.4968 764.383 Z" fill="#000000" fill-rule="nonzero" fill-opacity="1" /><path clip-path="url(#clip970)" d="M18.2347 732.522 L28.3562 732.522 L28.3562 720.459 L32.9077 720.459 L32.9077 732.522 L52.2594 732.522 Q56.6199 732.522 57.8613 731.345 Q59.1026 730.135 59.1026 726.475 L59.1026 720.459 L64.0042 720.459 L64.0042 726.475 Q64.0042 733.255 61.4897 735.833 Q58.9434 738.411 52.2594 738.411 L32.9077 738.411 L32.9077 742.708 L28.3562 742.708 L28.3562 738.411 L18.2347 738.411 L18.2347 732.522 Z" fill="#000000" fill-rule="nonzero" fill-opacity="1" /><path clip-path="url(#clip970)" d="M46.0847 696.556 Q46.0847 703.654 47.7079 706.391 Q49.3312 709.128 53.2461 709.128 Q56.3653 709.128 58.2114 707.091 Q60.0256 705.023 60.0256 701.49 Q60.0256 696.62 56.5881 693.692 Q53.1188 690.732 47.3897 690.732 L46.0847 690.732 L46.0847 696.556 M43.6657 684.875 L64.0042 684.875 L64.0042 690.732 L58.5933 690.732 Q61.8398 692.737 63.3994 695.729 Q64.9272 698.721 64.9272 703.049 Q64.9272 708.524 61.8716 711.77 Q58.7843 714.985 53.6281 714.985 Q47.6125 714.985 44.5569 710.975 Q41.5014 706.932 41.5014 698.943 L41.5014 690.732 L40.9285 690.732 Q36.8862 690.732 34.6901 693.405 Q32.4621 696.047 32.4621 700.853 Q32.4621 703.909 33.1941 706.805 Q33.9262 709.701 35.3903 712.375 L29.9795 712.375 Q28.7381 709.16 28.1334 706.137 Q27.4968 703.113 27.4968 700.248 Q27.4968 692.514 31.5072 688.695 Q35.5176 684.875 43.6657 684.875 Z" fill="#000000" fill-rule="nonzero" fill-opacity="1" /><path clip-path="url(#clip970)" d="M14.479 672.812 L14.479 666.956 L64.0042 666.956 L64.0042 672.812 L14.479 672.812 Z" fill="#000000" fill-rule="nonzero" fill-opacity="1" /><path clip-path="url(#clip970)" d="M16.4842 654.447 L16.4842 624.401 L21.895 624.401 L21.895 648.018 L35.9632 648.018 L35.9632 625.388 L41.3741 625.388 L41.3741 648.018 L58.5933 648.018 L58.5933 623.828 L64.0042 623.828 L64.0042 654.447 L16.4842 654.447 Z" fill="#000000" fill-rule="nonzero" fill-opacity="1" /><path clip-path="url(#clip970)" d="M42.4881 583.883 L64.0042 583.883 L64.0042 589.74 L42.679 589.74 Q37.6183 589.74 35.1038 591.713 Q32.5894 593.686 32.5894 597.633 Q32.5894 602.376 35.6131 605.113 Q38.6368 607.85 43.8567 607.85 L64.0042 607.85 L64.0042 613.738 L28.3562 613.738 L28.3562 607.85 L33.8944 607.85 Q30.6797 605.749 29.0883 602.917 Q27.4968 600.052 27.4968 596.328 Q27.4968 590.185 31.3163 587.034 Q35.1038 583.883 42.4881 583.883 Z" fill="#000000" fill-rule="nonzero" fill-opacity="1" /><path clip-path="url(#clip970)" d="M44.7161 541.71 L47.5806 541.71 L47.5806 568.637 Q53.6281 568.255 56.8109 565.009 Q59.9619 561.731 59.9619 555.906 Q59.9619 552.532 59.1344 549.381 Q58.3069 546.198 56.6518 543.079 L62.1899 543.079 Q63.5267 546.23 64.227 549.54 Q64.9272 552.85 64.9272 556.256 Q64.9272 564.786 59.9619 569.783 Q54.9967 574.748 46.5303 574.748 Q37.7774 574.748 32.6531 570.038 Q27.4968 565.295 27.4968 557.275 Q27.4968 550.081 32.1438 545.912 Q36.7589 541.71 44.7161 541.71 M42.9973 547.567 Q38.1912 547.631 35.3266 550.272 Q32.4621 552.882 32.4621 557.211 Q32.4621 562.112 35.2312 565.073 Q38.0002 568.001 43.0292 568.446 L42.9973 547.567 Z" fill="#000000" fill-rule="nonzero" fill-opacity="1" /><path clip-path="url(#clip970)" d="M33.8307 511.441 Q33.2578 512.428 33.0032 513.606 Q32.7167 514.752 32.7167 516.152 Q32.7167 521.117 35.9632 523.791 Q39.1779 526.433 45.2253 526.433 L64.0042 526.433 L64.0042 532.321 L28.3562 532.321 L28.3562 526.433 L33.8944 526.433 Q30.6479 524.587 29.0883 521.627 Q27.4968 518.667 27.4968 514.433 Q27.4968 513.829 27.5923 513.097 Q27.656 512.364 27.8151 511.473 L33.8307 511.441 Z" fill="#000000" fill-rule="nonzero" fill-opacity="1" /><path clip-path="url(#clip970)" d="M45.7664 482.987 Q39.4007 482.987 35.8996 485.629 Q32.3984 488.238 32.3984 492.981 Q32.3984 497.692 35.8996 500.333 Q39.4007 502.943 45.7664 502.943 Q52.1003 502.943 55.6014 500.333 Q59.1026 497.692 59.1026 492.981 Q59.1026 488.238 55.6014 485.629 Q52.1003 482.987 45.7664 482.987 M59.58 477.13 Q68.683 477.13 73.1071 481.173 Q77.5631 485.215 77.5631 493.554 Q77.5631 496.641 77.0857 499.378 Q76.6401 502.116 75.6852 504.694 L69.9879 504.694 Q71.3884 502.116 72.0568 499.601 Q72.7252 497.087 72.7252 494.477 Q72.7252 488.716 69.7015 485.851 Q66.7096 482.987 60.6303 482.987 L57.7339 482.987 Q60.885 484.801 62.4446 487.634 Q64.0042 490.466 64.0042 494.413 Q64.0042 500.97 59.0071 504.98 Q54.01 508.991 45.7664 508.991 Q37.491 508.991 32.4939 504.98 Q27.4968 500.97 27.4968 494.413 Q27.4968 490.466 29.0564 487.634 Q30.616 484.801 33.7671 482.987 L28.3562 482.987 L28.3562 477.13 L59.58 477.13 Z" fill="#000000" fill-rule="nonzero" fill-opacity="1" /><path clip-path="url(#clip970)" d="M67.3143 450.235 Q73.68 452.718 75.6216 455.073 Q77.5631 457.428 77.5631 461.375 L77.5631 466.054 L72.6615 466.054 L72.6615 462.616 Q72.6615 460.198 71.5157 458.861 Q70.3699 457.524 66.1048 455.901 L63.4312 454.85 L28.3562 469.269 L28.3562 463.062 L56.238 451.922 L28.3562 440.782 L28.3562 434.576 L67.3143 450.235 Z" fill="#000000" fill-rule="nonzero" fill-opacity="1" /><polyline clip-path="url(#clip972)" style="stroke:#009af9; stroke-linecap:round; stroke-linejoin:round; stroke-width:4; stroke-opacity:1; fill:none" points="396.992,1384.24 406.486,1384.24 415.98,1384.24 425.474,1384.24 434.968,1384.24 444.462,1384.24 453.956,1384.24 463.45,1384.24 472.944,1384.24 482.438,1384.24 491.932,1384.24 501.426,1384.24 510.92,1384.24 520.414,1384.24 529.908,1384.24 539.402,1384.24 548.896,1384.24 558.39,1384.24 567.884,1384.24 577.378,1384.24 586.872,1384.24 596.366,1384.24 605.86,1384.24 615.354,1384.24 624.848,1384.24 634.342,1384.24 643.836,1384.24 653.33,1384.24 662.824,1384.24 672.318,1384.24 681.812,1384.24 691.306,1384.24 700.8,1384.24 710.294,1384.24 719.788,1384.24 729.282,1384.24 738.776,1384.24 748.27,1384.24 757.764,1384.24 767.258,1384.24 776.752,1384.24 786.246,1384.24 795.74,1384.24 805.234,1384.24 814.728,1384.24 824.222,1384.24 833.716,1384.24 843.21,1384.24 852.704,1384.24 862.198,1384.24 871.692,1384.24 881.186,1384.24 890.68,1384.24 900.174,1384.24 909.668,1384.24 919.162,1384.24 928.656,1384.24 938.15,1384.24 947.644,1384.24 957.138,1384.24 966.632,1384.24 976.126,1384.24 985.62,1384.24 995.114,1384.24 1004.61,1384.24 1014.1,1384.24 1023.6,1384.24 1033.09,1384.24 1042.58,1384.24 1052.08,1384.24 1061.57,1384.24 1071.07,1384.23 1080.56,1384.23 1090.05,1384.23 1099.55,1384.21 1109.04,1384.23 1118.54,1384.21 1128.03,1384.2 1137.52,1384.14 1147.02,1384.2 1156.51,1383.93 1166.01,1382.97 1175.5,1381.62 1184.99,1381.89 1194.49,1381.19 1203.98,1381.2 1213.48,1378.53 1222.97,1379.67 1232.46,1376.81 1241.96,1362.4 1251.45,1342.42 1260.95,1239.03 1270.44,1167.56 1279.93,1161.64 1289.43,1153.06 1298.92,1106.23 1308.42,1122.33 1317.91,1070.75 1327.4,995.275 1336.9,740.052 1346.39,574.01 1355.89,479.609 1365.38,194.57 1374.87,86.1857 1384.37,618.526 1393.86,759.059 1403.36,809.216 1412.85,822.235 1422.34,710.36 1431.84,783.078 1441.33,868.135 1450.83,1027.58 1460.32,951.436 1469.81,966.371 1479.31,900.244 1488.8,1024.88 1498.3,1044.31 1507.79,1063.97 1517.28,1063.35 1526.78,1078.44 1536.27,1080.34 1545.77,1088.13 1555.26,1127.98 1564.75,1150.98 1574.25,1147.48 1583.74,1150.76 1593.24,1156.25 1602.73,1161.7 1612.22,1163.42 1621.72,1179.37 1631.21,1185.89 1640.71,1186.41 1650.2,1193.64 1659.69,1204.14 1669.19,1212.8 1678.68,1222.34 1688.18,1224.51 1697.67,1223.2 1707.16,1225.5 1716.66,1230.06 1726.15,1234.82 1735.65,1249.36 1745.14,1252.35 1754.63,1252.16 1764.13,1252.83 1773.62,1260.44 1783.12,1264.22 1792.61,1270.78 1802.1,1277.63 1811.6,1276.08 1821.09,1276.57 1830.59,1277.45 1840.08,1283.03 1849.57,1289.62 1859.07,1295.13 1868.56,1309.89 1878.06,1310.74 1887.55,1310.44 1897.04,1311.99 1906.54,1314.8 1916.03,1318.05 1925.53,1319.15 1935.02,1319.35 1944.51,1318.96 1954.01,1320.08 1963.5,1321.17 1973,1323.38 1982.49,1331.13 1991.98,1331.69 2001.48,1333.1 2010.97,1333.45 2020.47,1335.29 2029.96,1341.43 2039.45,1343.93 2048.95,1344.45 2058.44,1345.66 2067.94,1345.58 2077.43,1345.74 2086.92,1346.27 2096.42,1347.29 2105.91,1348.58 2115.41,1348.87 2124.9,1349.52 2134.39,1349.58 2143.89,1349.92 2153.38,1351.29 2162.88,1352.12 2172.37,1352.08 2181.86,1352.16 2191.36,1352.63 2200.85,1353.16 2210.35,1354.03 2219.84,1355.17 2229.33,1357.71 2238.83,1358.45 2248.32,1358.63 2257.82,1359.34 2267.31,1360.06 2276.8,1360.75 2286.3,1362.95 2295.79,1363.54 "/>
</svg>
