<?xml version="1.0" encoding="utf-8"?>
<svg xmlns="http://www.w3.org/2000/svg" xmlns:xlink="http://www.w3.org/1999/xlink" width="600" height="400" viewBox="0 0 2400 1600">
<defs>
  <clipPath id="clip560">
    <rect x="0" y="0" width="2400" height="1600"/>
  </clipPath>
</defs>
<path clip-path="url(#clip560)" d="M0 1600 L2400 1600 L2400 0 L0 0  Z" fill="#ffffff" fill-rule="evenodd" fill-opacity="1"/>
<defs>
  <clipPath id="clip561">
    <rect x="480" y="0" width="1681" height="1600"/>
  </clipPath>
</defs>
<path clip-path="url(#clip560)" d="M193.936 1486.45 L2352.76 1486.45 L2352.76 47.2441 L193.936 47.2441  Z" fill="#ffffff" fill-rule="evenodd" fill-opacity="1"/>
<defs>
  <clipPath id="clip562">
    <rect x="193" y="47" width="2160" height="1440"/>
  </clipPath>
</defs>
<polyline clip-path="url(#clip562)" style="stroke:#000000; stroke-linecap:round; stroke-linejoin:round; stroke-width:2; stroke-opacity:0.1; fill:none" points="255.035,1486.45 255.035,47.2441 "/>
<polyline clip-path="url(#clip562)" style="stroke:#000000; stroke-linecap:round; stroke-linejoin:round; stroke-width:2; stroke-opacity:0.1; fill:none" points="933.909,1486.45 933.909,47.2441 "/>
<polyline clip-path="url(#clip562)" style="stroke:#000000; stroke-linecap:round; stroke-linejoin:round; stroke-width:2; stroke-opacity:0.1; fill:none" points="1612.78,1486.45 1612.78,47.2441 "/>
<polyline clip-path="url(#clip562)" style="stroke:#000000; stroke-linecap:round; stroke-linejoin:round; stroke-width:2; stroke-opacity:0.1; fill:none" points="2291.66,1486.45 2291.66,47.2441 "/>
<polyline clip-path="url(#clip562)" style="stroke:#000000; stroke-linecap:round; stroke-linejoin:round; stroke-width:2; stroke-opacity:0.1; fill:none" points="193.936,1328.63 2352.76,1328.63 "/>
<polyline clip-path="url(#clip562)" style="stroke:#000000; stroke-linecap:round; stroke-linejoin:round; stroke-width:2; stroke-opacity:0.1; fill:none" points="193.936,1019.21 2352.76,1019.21 "/>
<polyline clip-path="url(#clip562)" style="stroke:#000000; stroke-linecap:round; stroke-linejoin:round; stroke-width:2; stroke-opacity:0.1; fill:none" points="193.936,709.783 2352.76,709.783 "/>
<polyline clip-path="url(#clip562)" style="stroke:#000000; stroke-linecap:round; stroke-linejoin:round; stroke-width:2; stroke-opacity:0.1; fill:none" points="193.936,400.36 2352.76,400.36 "/>
<polyline clip-path="url(#clip562)" style="stroke:#000000; stroke-linecap:round; stroke-linejoin:round; stroke-width:2; stroke-opacity:0.1; fill:none" points="193.936,90.9377 2352.76,90.9377 "/>
<polyline clip-path="url(#clip560)" style="stroke:#000000; stroke-linecap:round; stroke-linejoin:round; stroke-width:4; stroke-opacity:1; fill:none" points="193.936,1486.45 2352.76,1486.45 "/>
<polyline clip-path="url(#clip560)" style="stroke:#000000; stroke-linecap:round; stroke-linejoin:round; stroke-width:4; stroke-opacity:1; fill:none" points="255.035,1486.45 255.035,1467.55 "/>
<polyline clip-path="url(#clip560)" style="stroke:#000000; stroke-linecap:round; stroke-linejoin:round; stroke-width:4; stroke-opacity:1; fill:none" points="933.909,1486.45 933.909,1467.55 "/>
<polyline clip-path="url(#clip560)" style="stroke:#000000; stroke-linecap:round; stroke-linejoin:round; stroke-width:4; stroke-opacity:1; fill:none" points="1612.78,1486.45 1612.78,1467.55 "/>
<polyline clip-path="url(#clip560)" style="stroke:#000000; stroke-linecap:round; stroke-linejoin:round; stroke-width:4; stroke-opacity:1; fill:none" points="2291.66,1486.45 2291.66,1467.55 "/>
<path clip-path="url(#clip560)" d="M255.035 1517.37 Q251.424 1517.37 249.595 1520.93 Q247.789 1524.47 247.789 1531.6 Q247.789 1538.71 249.595 1542.27 Q251.424 1545.82 255.035 1545.82 Q258.669 1545.82 260.474 1542.27 Q262.303 1538.71 262.303 1531.6 Q262.303 1524.47 260.474 1520.93 Q258.669 1517.37 255.035 1517.37 M255.035 1513.66 Q260.845 1513.66 263.9 1518.27 Q266.979 1522.85 266.979 1531.6 Q266.979 1540.33 263.9 1544.94 Q260.845 1549.52 255.035 1549.52 Q249.225 1549.52 246.146 1544.94 Q243.09 1540.33 243.09 1531.6 Q243.09 1522.85 246.146 1518.27 Q249.225 1513.66 255.035 1513.66 Z" fill="#000000" fill-rule="nonzero" fill-opacity="1" /><path clip-path="url(#clip560)" d="M878.435 1544.91 L886.073 1544.91 L886.073 1518.55 L877.763 1520.21 L877.763 1515.95 L886.027 1514.29 L890.703 1514.29 L890.703 1544.91 L898.342 1544.91 L898.342 1548.85 L878.435 1548.85 L878.435 1544.91 Z" fill="#000000" fill-rule="nonzero" fill-opacity="1" /><path clip-path="url(#clip560)" d="M917.786 1517.37 Q914.175 1517.37 912.346 1520.93 Q910.541 1524.47 910.541 1531.6 Q910.541 1538.71 912.346 1542.27 Q914.175 1545.82 917.786 1545.82 Q921.42 1545.82 923.226 1542.27 Q925.055 1538.71 925.055 1531.6 Q925.055 1524.47 923.226 1520.93 Q921.42 1517.37 917.786 1517.37 M917.786 1513.66 Q923.596 1513.66 926.652 1518.27 Q929.731 1522.85 929.731 1531.6 Q929.731 1540.33 926.652 1544.94 Q923.596 1549.52 917.786 1549.52 Q911.976 1549.52 908.897 1544.94 Q905.842 1540.33 905.842 1531.6 Q905.842 1522.85 908.897 1518.27 Q911.976 1513.66 917.786 1513.66 Z" fill="#000000" fill-rule="nonzero" fill-opacity="1" /><path clip-path="url(#clip560)" d="M947.948 1517.37 Q944.337 1517.37 942.508 1520.93 Q940.703 1524.47 940.703 1531.6 Q940.703 1538.71 942.508 1542.27 Q944.337 1545.82 947.948 1545.82 Q951.582 1545.82 953.388 1542.27 Q955.217 1538.71 955.217 1531.6 Q955.217 1524.47 953.388 1520.93 Q951.582 1517.37 947.948 1517.37 M947.948 1513.66 Q953.758 1513.66 956.814 1518.27 Q959.893 1522.85 959.893 1531.6 Q959.893 1540.33 956.814 1544.94 Q953.758 1549.52 947.948 1549.52 Q942.138 1549.52 939.059 1544.94 Q936.004 1540.33 936.004 1531.6 Q936.004 1522.85 939.059 1518.27 Q942.138 1513.66 947.948 1513.66 Z" fill="#000000" fill-rule="nonzero" fill-opacity="1" /><path clip-path="url(#clip560)" d="M978.11 1517.37 Q974.499 1517.37 972.67 1520.93 Q970.865 1524.47 970.865 1531.6 Q970.865 1538.71 972.67 1542.27 Q974.499 1545.82 978.11 1545.82 Q981.744 1545.82 983.55 1542.27 Q985.378 1538.71 985.378 1531.6 Q985.378 1524.47 983.55 1520.93 Q981.744 1517.37 978.11 1517.37 M978.11 1513.66 Q983.92 1513.66 986.976 1518.27 Q990.054 1522.85 990.054 1531.6 Q990.054 1540.33 986.976 1544.94 Q983.92 1549.52 978.11 1549.52 Q972.3 1549.52 969.221 1544.94 Q966.166 1540.33 966.166 1531.6 Q966.166 1522.85 969.221 1518.27 Q972.3 1513.66 978.11 1513.66 Z" fill="#000000" fill-rule="nonzero" fill-opacity="1" /><path clip-path="url(#clip560)" d="M1561.39 1544.91 L1577.71 1544.91 L1577.71 1548.85 L1555.77 1548.85 L1555.77 1544.91 Q1558.43 1542.16 1563.01 1537.53 Q1567.62 1532.88 1568.8 1531.53 Q1571.05 1529.01 1571.93 1527.27 Q1572.83 1525.51 1572.83 1523.82 Q1572.83 1521.07 1570.89 1519.33 Q1568.96 1517.6 1565.86 1517.6 Q1563.66 1517.6 1561.21 1518.36 Q1558.78 1519.13 1556 1520.68 L1556 1515.95 Q1558.82 1514.82 1561.28 1514.24 Q1563.73 1513.66 1565.77 1513.66 Q1571.14 1513.66 1574.33 1516.35 Q1577.53 1519.03 1577.53 1523.52 Q1577.53 1525.65 1576.72 1527.57 Q1575.93 1529.47 1573.82 1532.07 Q1573.25 1532.74 1570.14 1535.95 Q1567.04 1539.15 1561.39 1544.91 Z" fill="#000000" fill-rule="nonzero" fill-opacity="1" /><path clip-path="url(#clip560)" d="M1597.53 1517.37 Q1593.92 1517.37 1592.09 1520.93 Q1590.28 1524.47 1590.28 1531.6 Q1590.28 1538.71 1592.09 1542.27 Q1593.92 1545.82 1597.53 1545.82 Q1601.16 1545.82 1602.97 1542.27 Q1604.8 1538.71 1604.8 1531.6 Q1604.8 1524.47 1602.97 1520.93 Q1601.16 1517.37 1597.53 1517.37 M1597.53 1513.66 Q1603.34 1513.66 1606.39 1518.27 Q1609.47 1522.85 1609.47 1531.6 Q1609.47 1540.33 1606.39 1544.94 Q1603.34 1549.52 1597.53 1549.52 Q1591.72 1549.52 1588.64 1544.94 Q1585.58 1540.33 1585.58 1531.6 Q1585.58 1522.85 1588.64 1518.27 Q1591.72 1513.66 1597.53 1513.66 Z" fill="#000000" fill-rule="nonzero" fill-opacity="1" /><path clip-path="url(#clip560)" d="M1627.69 1517.37 Q1624.08 1517.37 1622.25 1520.93 Q1620.45 1524.47 1620.45 1531.6 Q1620.45 1538.71 1622.25 1542.27 Q1624.08 1545.82 1627.69 1545.82 Q1631.32 1545.82 1633.13 1542.27 Q1634.96 1538.71 1634.96 1531.6 Q1634.96 1524.47 1633.13 1520.93 Q1631.32 1517.37 1627.69 1517.37 M1627.69 1513.66 Q1633.5 1513.66 1636.56 1518.27 Q1639.63 1522.85 1639.63 1531.6 Q1639.63 1540.33 1636.56 1544.94 Q1633.5 1549.52 1627.69 1549.52 Q1621.88 1549.52 1618.8 1544.94 Q1615.75 1540.33 1615.75 1531.6 Q1615.75 1522.85 1618.8 1518.27 Q1621.88 1513.66 1627.69 1513.66 Z" fill="#000000" fill-rule="nonzero" fill-opacity="1" /><path clip-path="url(#clip560)" d="M1657.85 1517.37 Q1654.24 1517.37 1652.41 1520.93 Q1650.61 1524.47 1650.61 1531.6 Q1650.61 1538.71 1652.41 1542.27 Q1654.24 1545.82 1657.85 1545.82 Q1661.49 1545.82 1663.29 1542.27 Q1665.12 1538.71 1665.12 1531.6 Q1665.12 1524.47 1663.29 1520.93 Q1661.49 1517.37 1657.85 1517.37 M1657.85 1513.66 Q1663.66 1513.66 1666.72 1518.27 Q1669.8 1522.85 1669.8 1531.6 Q1669.8 1540.33 1666.72 1544.94 Q1663.66 1549.52 1657.85 1549.52 Q1652.04 1549.52 1648.96 1544.94 Q1645.91 1540.33 1645.91 1531.6 Q1645.91 1522.85 1648.96 1518.27 Q1652.04 1513.66 1657.85 1513.66 Z" fill="#000000" fill-rule="nonzero" fill-opacity="1" /><path clip-path="url(#clip560)" d="M2250.34 1530.21 Q2253.69 1530.93 2255.57 1533.2 Q2257.47 1535.47 2257.47 1538.8 Q2257.47 1543.92 2253.95 1546.72 Q2250.43 1549.52 2243.95 1549.52 Q2241.77 1549.52 2239.46 1549.08 Q2237.17 1548.66 2234.71 1547.81 L2234.71 1543.29 Q2236.66 1544.43 2238.97 1545.01 Q2241.29 1545.58 2243.81 1545.58 Q2248.21 1545.58 2250.5 1543.85 Q2252.81 1542.11 2252.81 1538.8 Q2252.81 1535.75 2250.66 1534.03 Q2248.53 1532.3 2244.71 1532.3 L2240.69 1532.3 L2240.69 1528.45 L2244.9 1528.45 Q2248.35 1528.45 2250.18 1527.09 Q2252 1525.7 2252 1523.11 Q2252 1520.45 2250.11 1519.03 Q2248.23 1517.6 2244.71 1517.6 Q2242.79 1517.6 2240.59 1518.01 Q2238.39 1518.43 2235.75 1519.31 L2235.75 1515.14 Q2238.42 1514.4 2240.73 1514.03 Q2243.07 1513.66 2245.13 1513.66 Q2250.45 1513.66 2253.56 1516.09 Q2256.66 1518.5 2256.66 1522.62 Q2256.66 1525.49 2255.01 1527.48 Q2253.37 1529.45 2250.34 1530.21 Z" fill="#000000" fill-rule="nonzero" fill-opacity="1" /><path clip-path="url(#clip560)" d="M2276.33 1517.37 Q2272.72 1517.37 2270.89 1520.93 Q2269.09 1524.47 2269.09 1531.6 Q2269.09 1538.71 2270.89 1542.27 Q2272.72 1545.82 2276.33 1545.82 Q2279.97 1545.82 2281.77 1542.27 Q2283.6 1538.71 2283.6 1531.6 Q2283.6 1524.47 2281.77 1520.93 Q2279.97 1517.37 2276.33 1517.37 M2276.33 1513.66 Q2282.14 1513.66 2285.2 1518.27 Q2288.28 1522.85 2288.28 1531.6 Q2288.28 1540.33 2285.2 1544.94 Q2282.14 1549.52 2276.33 1549.52 Q2270.52 1549.52 2267.44 1544.94 Q2264.39 1540.33 2264.39 1531.6 Q2264.39 1522.85 2267.44 1518.27 Q2270.52 1513.66 2276.33 1513.66 Z" fill="#000000" fill-rule="nonzero" fill-opacity="1" /><path clip-path="url(#clip560)" d="M2306.5 1517.37 Q2302.88 1517.37 2301.06 1520.93 Q2299.25 1524.47 2299.25 1531.6 Q2299.25 1538.71 2301.06 1542.27 Q2302.88 1545.82 2306.5 1545.82 Q2310.13 1545.82 2311.93 1542.27 Q2313.76 1538.71 2313.76 1531.6 Q2313.76 1524.47 2311.93 1520.93 Q2310.13 1517.37 2306.5 1517.37 M2306.5 1513.66 Q2312.31 1513.66 2315.36 1518.27 Q2318.44 1522.85 2318.44 1531.6 Q2318.44 1540.33 2315.36 1544.94 Q2312.31 1549.52 2306.5 1549.52 Q2300.68 1549.52 2297.61 1544.94 Q2294.55 1540.33 2294.55 1531.6 Q2294.55 1522.85 2297.61 1518.27 Q2300.68 1513.66 2306.5 1513.66 Z" fill="#000000" fill-rule="nonzero" fill-opacity="1" /><path clip-path="url(#clip560)" d="M2336.66 1517.37 Q2333.05 1517.37 2331.22 1520.93 Q2329.41 1524.47 2329.41 1531.6 Q2329.41 1538.71 2331.22 1542.27 Q2333.05 1545.82 2336.66 1545.82 Q2340.29 1545.82 2342.1 1542.27 Q2343.93 1538.71 2343.93 1531.6 Q2343.93 1524.47 2342.1 1520.93 Q2340.29 1517.37 2336.66 1517.37 M2336.66 1513.66 Q2342.47 1513.66 2345.52 1518.27 Q2348.6 1522.85 2348.6 1531.6 Q2348.6 1540.33 2345.52 1544.94 Q2342.47 1549.52 2336.66 1549.52 Q2330.85 1549.52 2327.77 1544.94 Q2324.71 1540.33 2324.71 1531.6 Q2324.71 1522.85 2327.77 1518.27 Q2330.85 1513.66 2336.66 1513.66 Z" fill="#000000" fill-rule="nonzero" fill-opacity="1" /><polyline clip-path="url(#clip560)" style="stroke:#000000; stroke-linecap:round; stroke-linejoin:round; stroke-width:4; stroke-opacity:1; fill:none" points="193.936,1486.45 193.936,47.2441 "/>
<polyline clip-path="url(#clip560)" style="stroke:#000000; stroke-linecap:round; stroke-linejoin:round; stroke-width:4; stroke-opacity:1; fill:none" points="193.936,1328.63 212.834,1328.63 "/>
<polyline clip-path="url(#clip560)" style="stroke:#000000; stroke-linecap:round; stroke-linejoin:round; stroke-width:4; stroke-opacity:1; fill:none" points="193.936,1019.21 212.834,1019.21 "/>
<polyline clip-path="url(#clip560)" style="stroke:#000000; stroke-linecap:round; stroke-linejoin:round; stroke-width:4; stroke-opacity:1; fill:none" points="193.936,709.783 212.834,709.783 "/>
<polyline clip-path="url(#clip560)" style="stroke:#000000; stroke-linecap:round; stroke-linejoin:round; stroke-width:4; stroke-opacity:1; fill:none" points="193.936,400.36 212.834,400.36 "/>
<polyline clip-path="url(#clip560)" style="stroke:#000000; stroke-linecap:round; stroke-linejoin:round; stroke-width:4; stroke-opacity:1; fill:none" points="193.936,90.9377 212.834,90.9377 "/>
<path clip-path="url(#clip560)" d="M50.9921 1329.08 L80.6679 1329.08 L80.6679 1333.02 L50.9921 1333.02 L50.9921 1329.08 Z" fill="#000000" fill-rule="nonzero" fill-opacity="1" /><path clip-path="url(#clip560)" d="M91.5706 1341.97 L99.2095 1341.97 L99.2095 1315.61 L90.8993 1317.27 L90.8993 1313.02 L99.1632 1311.35 L103.839 1311.35 L103.839 1341.97 L111.478 1341.97 L111.478 1345.91 L91.5706 1345.91 L91.5706 1341.97 Z" fill="#000000" fill-rule="nonzero" fill-opacity="1" /><path clip-path="url(#clip560)" d="M120.922 1340.03 L125.807 1340.03 L125.807 1345.91 L120.922 1345.91 L120.922 1340.03 Z" fill="#000000" fill-rule="nonzero" fill-opacity="1" /><path clip-path="url(#clip560)" d="M145.992 1314.43 Q142.381 1314.43 140.552 1317.99 Q138.746 1321.53 138.746 1328.66 Q138.746 1335.77 140.552 1339.33 Q142.381 1342.88 145.992 1342.88 Q149.626 1342.88 151.431 1339.33 Q153.26 1335.77 153.26 1328.66 Q153.26 1321.53 151.431 1317.99 Q149.626 1314.43 145.992 1314.43 M145.992 1310.72 Q151.802 1310.72 154.857 1315.33 Q157.936 1319.91 157.936 1328.66 Q157.936 1337.39 154.857 1342 Q151.802 1346.58 145.992 1346.58 Q140.181 1346.58 137.103 1342 Q134.047 1337.39 134.047 1328.66 Q134.047 1319.91 137.103 1315.33 Q140.181 1310.72 145.992 1310.72 Z" fill="#000000" fill-rule="nonzero" fill-opacity="1" /><path clip-path="url(#clip560)" d="M51.9875 1019.66 L81.6633 1019.66 L81.6633 1023.59 L51.9875 1023.59 L51.9875 1019.66 Z" fill="#000000" fill-rule="nonzero" fill-opacity="1" /><path clip-path="url(#clip560)" d="M101.756 1005 Q98.1447 1005 96.316 1008.57 Q94.5104 1012.11 94.5104 1019.24 Q94.5104 1026.35 96.316 1029.91 Q98.1447 1033.45 101.756 1033.45 Q105.39 1033.45 107.196 1029.91 Q109.024 1026.35 109.024 1019.24 Q109.024 1012.11 107.196 1008.57 Q105.39 1005 101.756 1005 M101.756 1001.3 Q107.566 1001.3 110.621 1005.91 Q113.7 1010.49 113.7 1019.24 Q113.7 1027.97 110.621 1032.57 Q107.566 1037.16 101.756 1037.16 Q95.9456 1037.16 92.8669 1032.57 Q89.8114 1027.97 89.8114 1019.24 Q89.8114 1010.49 92.8669 1005.91 Q95.9456 1001.3 101.756 1001.3 Z" fill="#000000" fill-rule="nonzero" fill-opacity="1" /><path clip-path="url(#clip560)" d="M121.918 1030.61 L126.802 1030.61 L126.802 1036.49 L121.918 1036.49 L121.918 1030.61 Z" fill="#000000" fill-rule="nonzero" fill-opacity="1" /><path clip-path="url(#clip560)" d="M137.033 1001.93 L155.39 1001.93 L155.39 1005.86 L141.316 1005.86 L141.316 1014.33 Q142.334 1013.99 143.353 1013.82 Q144.371 1013.64 145.39 1013.64 Q151.177 1013.64 154.556 1016.81 Q157.936 1019.98 157.936 1025.4 Q157.936 1030.98 154.464 1034.08 Q150.992 1037.16 144.672 1037.16 Q142.496 1037.16 140.228 1036.79 Q137.982 1036.42 135.575 1035.68 L135.575 1030.98 Q137.658 1032.11 139.881 1032.67 Q142.103 1033.22 144.58 1033.22 Q148.584 1033.22 150.922 1031.12 Q153.26 1029.01 153.26 1025.4 Q153.26 1021.79 150.922 1019.68 Q148.584 1017.57 144.58 1017.57 Q142.705 1017.57 140.83 1017.99 Q138.978 1018.41 137.033 1019.29 L137.033 1001.93 Z" fill="#000000" fill-rule="nonzero" fill-opacity="1" /><path clip-path="url(#clip560)" d="M100.76 695.582 Q97.1493 695.582 95.3206 699.147 Q93.515 702.688 93.515 709.818 Q93.515 716.924 95.3206 720.489 Q97.1493 724.031 100.76 724.031 Q104.395 724.031 106.2 720.489 Q108.029 716.924 108.029 709.818 Q108.029 702.688 106.2 699.147 Q104.395 695.582 100.76 695.582 M100.76 691.878 Q106.571 691.878 109.626 696.485 Q112.705 701.068 112.705 709.818 Q112.705 718.545 109.626 723.151 Q106.571 727.734 100.76 727.734 Q94.9502 727.734 91.8715 723.151 Q88.816 718.545 88.816 709.818 Q88.816 701.068 91.8715 696.485 Q94.9502 691.878 100.76 691.878 Z" fill="#000000" fill-rule="nonzero" fill-opacity="1" /><path clip-path="url(#clip560)" d="M120.922 721.184 L125.807 721.184 L125.807 727.063 L120.922 727.063 L120.922 721.184 Z" fill="#000000" fill-rule="nonzero" fill-opacity="1" /><path clip-path="url(#clip560)" d="M145.992 695.582 Q142.381 695.582 140.552 699.147 Q138.746 702.688 138.746 709.818 Q138.746 716.924 140.552 720.489 Q142.381 724.031 145.992 724.031 Q149.626 724.031 151.431 720.489 Q153.26 716.924 153.26 709.818 Q153.26 702.688 151.431 699.147 Q149.626 695.582 145.992 695.582 M145.992 691.878 Q151.802 691.878 154.857 696.485 Q157.936 701.068 157.936 709.818 Q157.936 718.545 154.857 723.151 Q151.802 727.734 145.992 727.734 Q140.181 727.734 137.103 723.151 Q134.047 718.545 134.047 709.818 Q134.047 701.068 137.103 696.485 Q140.181 691.878 145.992 691.878 Z" fill="#000000" fill-rule="nonzero" fill-opacity="1" /><path clip-path="url(#clip560)" d="M101.756 386.159 Q98.1447 386.159 96.316 389.724 Q94.5104 393.266 94.5104 400.395 Q94.5104 407.502 96.316 411.066 Q98.1447 414.608 101.756 414.608 Q105.39 414.608 107.196 411.066 Q109.024 407.502 109.024 400.395 Q109.024 393.266 107.196 389.724 Q105.39 386.159 101.756 386.159 M101.756 382.455 Q107.566 382.455 110.621 387.062 Q113.7 391.645 113.7 400.395 Q113.7 409.122 110.621 413.728 Q107.566 418.312 101.756 418.312 Q95.9456 418.312 92.8669 413.728 Q89.8114 409.122 89.8114 400.395 Q89.8114 391.645 92.8669 387.062 Q95.9456 382.455 101.756 382.455 Z" fill="#000000" fill-rule="nonzero" fill-opacity="1" /><path clip-path="url(#clip560)" d="M121.918 411.761 L126.802 411.761 L126.802 417.64 L121.918 417.64 L121.918 411.761 Z" fill="#000000" fill-rule="nonzero" fill-opacity="1" /><path clip-path="url(#clip560)" d="M137.033 383.08 L155.39 383.08 L155.39 387.016 L141.316 387.016 L141.316 395.488 Q142.334 395.141 143.353 394.979 Q144.371 394.793 145.39 394.793 Q151.177 394.793 154.556 397.965 Q157.936 401.136 157.936 406.553 Q157.936 412.131 154.464 415.233 Q150.992 418.312 144.672 418.312 Q142.496 418.312 140.228 417.941 Q137.982 417.571 135.575 416.83 L135.575 412.131 Q137.658 413.265 139.881 413.821 Q142.103 414.377 144.58 414.377 Q148.584 414.377 150.922 412.27 Q153.26 410.164 153.26 406.553 Q153.26 402.941 150.922 400.835 Q148.584 398.729 144.58 398.729 Q142.705 398.729 140.83 399.145 Q138.978 399.562 137.033 400.441 L137.033 383.08 Z" fill="#000000" fill-rule="nonzero" fill-opacity="1" /><path clip-path="url(#clip560)" d="M91.5706 104.283 L99.2095 104.283 L99.2095 77.917 L90.8993 79.5836 L90.8993 75.3244 L99.1632 73.6577 L103.839 73.6577 L103.839 104.283 L111.478 104.283 L111.478 108.218 L91.5706 108.218 L91.5706 104.283 Z" fill="#000000" fill-rule="nonzero" fill-opacity="1" /><path clip-path="url(#clip560)" d="M120.922 102.338 L125.807 102.338 L125.807 108.218 L120.922 108.218 L120.922 102.338 Z" fill="#000000" fill-rule="nonzero" fill-opacity="1" /><path clip-path="url(#clip560)" d="M145.992 76.7364 Q142.381 76.7364 140.552 80.3012 Q138.746 83.8429 138.746 90.9725 Q138.746 98.0789 140.552 101.644 Q142.381 105.185 145.992 105.185 Q149.626 105.185 151.431 101.644 Q153.26 98.0789 153.26 90.9725 Q153.26 83.8429 151.431 80.3012 Q149.626 76.7364 145.992 76.7364 M145.992 73.0327 Q151.802 73.0327 154.857 77.6392 Q157.936 82.2225 157.936 90.9725 Q157.936 99.6993 154.857 104.306 Q151.802 108.889 145.992 108.889 Q140.181 108.889 137.103 104.306 Q134.047 99.6993 134.047 90.9725 Q134.047 82.2225 137.103 77.6392 Q140.181 73.0327 145.992 73.0327 Z" fill="#000000" fill-rule="nonzero" fill-opacity="1" /><polyline clip-path="url(#clip562)" style="stroke:#009af9; stroke-linecap:round; stroke-linejoin:round; stroke-width:4; stroke-opacity:1; fill:none" points="255.035,90.9377 255.416,90.9377 259.232,90.9377 297.386,90.9377 479.315,90.9377 773.446,90.9377 964.321,90.9377 1054.93,90.9377 1105.41,90.9377 1145.22,90.9371 1180.47,90.9343 1214.36,90.9303 1251.51,91.0004 1282.24,91.5393 1312.05,93.9474 1345.53,103.844 1381.6,136.217 1409.13,190.051 1433.81,287.254 1448.41,417.834 1462.11,604.48 1470.66,736.461 1478.41,851.278 1485.78,953.889 1493.86,161.55 1504.99,189.731 1516.99,218.514 1528.01,235.105 1540.86,238.368 1555.64,222.267 1571.94,188.955 1589.55,149.147 1605.28,120.143 1622.81,99.648 1640.93,90.1614 1657.48,87.9763 1674.88,88.5202 1693.25,89.6984 1710.21,90.4499 1727.63,90.8135 1746.43,90.9349 1763.67,90.9512 1781.1,90.9463 1800.07,90.9407 1817.43,90.9385 1834.91,90.9379 1853.98,90.9377 1871.36,90.9377 1888.92,90.9377 1908.02,90.9377 1925.36,90.9377 1943.03,90.9377 1962.15,90.9377 1979.42,90.9377 1997.21,90.9377 2016.31,90.9377 2033.51,90.9377 2051.42,90.9377 2070.5,90.9377 2087.6,90.9377 2105.65,90.9377 2124.69,90.9377 2141.7,90.9377 2159.87,90.9377 2178.87,90.9377 2195.77,90.9377 2214.07,90.9377 2233.02,90.9377 2249.83,90.9377 2268.23,90.9377 2287.14,90.9377 2291.66,90.9377 "/>
<polyline clip-path="url(#clip562)" style="stroke:#e26f46; stroke-linecap:round; stroke-linejoin:round; stroke-width:4; stroke-opacity:1; fill:none" points="255.035,90.9377 255.394,90.9377 258.991,90.9377 294.962,90.9377 401.959,90.9377 553.882,90.9377 697.077,90.9377 764.498,90.9377 810.817,90.9376 851.736,90.9363 888.667,90.9313 926.322,90.9402 961.299,91.1854 992.088,92.5333 1023.84,98.1248 1063.61,123.122 1090.74,164.285 1115.3,233.121 1134.97,350.874 1139.07,405.201 1144.25,291.846 1148.38,224.747 1152.23,178.376 1156.07,146.05 1160.48,123.067 1166.77,109.991 1173.25,113.116 1181.11,130.104 1189.87,156.665 1200.04,187.96 1210.19,212.676 1221.33,227.633 1234.65,227.304 1249.83,207.138 1266.42,172.482 1283.63,136.549 1299.85,111.136 1317.53,95.2669 1335.47,89.0455 1350.9,88.1482 1368.86,88.9986 1387.05,90.0365 1403.2,90.5989 1421.4,90.8702 1439.95,90.9434 1456.5,90.9494 1474.76,90.9438 1493.48,90.9397 1510.18,90.9382 1528.51,90.9378 1547.32,90.9377 1564.05,90.9377 1582.45,90.9377 1601.29,90.9377 1617.98,90.9377 1636.47,90.9377 1655.3,90.9377 1671.94,90.9377 1690.51,90.9377 1709.32,90.9377 1725.87,90.9377 1744.53,90.9377 1763.3,90.9377 1779.77,90.9377 1798.5,90.9377 1817.24,90.9377 1833.64,90.9377 1852.43,90.9377 1871.13,90.9377 1887.46,90.9377 1906.31,90.9377 1924.97,90.9377 1941.23,90.9377 1960.13,90.9377 1978.76,90.9377 1994.96,90.9377 2013.9,90.9377 2032.5,90.9377 2048.66,90.9377 2067.63,90.9377 2086.2,90.9377 2102.32,90.9377 2121.32,90.9377 2139.86,90.9377 2155.95,90.9377 2174.97,90.9377 2193.5,90.9377 2209.55,90.9377 2228.59,90.9377 2247.1,90.9377 2263.13,90.9377 2282.19,90.9377 2291.66,90.9377 "/>
<polyline clip-path="url(#clip562)" style="stroke:#3da44d; stroke-linecap:round; stroke-linejoin:round; stroke-width:4; stroke-opacity:1; fill:none" points="255.035,90.9377 255.403,90.9377 259.091,90.9377 295.967,90.9377 427.419,90.9377 624.502,90.9377 798.817,90.9377 880.114,90.9377 925.201,90.9376 963.009,90.9368 997.205,90.9337 1030.7,90.9314 1066.21,91.0234 1096.2,91.6409 1125.82,94.3121 1159.92,105.44 1194.36,138.223 1221.45,192.714 1245.82,291.435 1260.21,423.824 1271.59,186.778 1281.76,122.862 1293.49,118.203 1301.73,136.217 1308.27,155.476 1317.28,182.877 1328.14,210.232 1339.58,1378.29 1351.55,1417.84 1364.12,1434.67 1376.72,1431.72 1389.23,1415.85 1405.73,1386.19 1422.34,1357.12 1440.55,1334.2 1458.57,1322.66 1474.5,1319.72 1492.97,1321.11 1511.46,1324.14 1527.63,1326.44 1546.23,1328.06 1564.99,1328.74 1581.48,1328.87 1600.09,1328.81 1618.91,1328.72 1635.5,1328.67 1654.12,1328.64 1672.95,1328.63 1689.52,1328.63 1708.18,1328.63 1726.99,1328.63 1743.5,1328.63 1762.21,1328.63 1780.98,1328.63 1797.42,1328.63 1816.19,1328.63 1834.92,1328.63 1851.28,1328.63 1870.11,1328.63 1888.8,1328.63 1905.1,1328.63 1923.97,1328.63 1942.62,1328.63 1958.86,1328.63 1977.78,1328.63 1996.4,1328.63 2012.58,1328.63 2031.54,1328.63 2050.12,1328.63 2066.26,1328.63 2085.25,1328.63 2103.81,1328.63 2119.91,1328.63 2138.92,1328.63 2157.46,1328.63 2173.53,1328.63 2192.56,1328.63 2211.09,1328.63 2227.13,1328.63 2246.18,1328.63 2264.69,1328.63 2280.71,1328.63 2291.66,1328.63 "/>
<polyline clip-path="url(#clip562)" style="stroke:#c271d2; stroke-linecap:round; stroke-linejoin:round; stroke-width:4; stroke-opacity:1; fill:none" points="255.035,90.9377 255.412,90.9377 259.182,90.9377 296.882,90.9377 458.21,90.9377 712.323,90.9377 901.01,90.9377 986.372,90.9377 1040.79,90.9376 1081.06,90.9368 1117.98,90.933 1152.66,90.9315 1189.07,91.0596 1219.95,91.8851 1250.49,95.4082 1286.01,110.067 1319.03,147.477 1345.82,209.125 1367.37,310.371 1380.85,449.019 1393.15,622.324 1402.43,763.935 1410.64,883.073 1418.2,985.221 1426.35,1085.4 1437.06,1199.44 1447.54,1290.17 1459.55,1367.75 1473.31,1422.43 1489.32,1445.45 1506.79,1434.07 1524.96,1401.23 1541.94,1367.46 1560.85,1338.38 1579.96,1322.5 1596.57,1318.1 1615.33,1319.36 1634.35,1322.98 1650.94,1325.86 1669.59,1327.89 1688.62,1328.76 1705.3,1328.94 1723.92,1328.87 1742.88,1328.75 1759.54,1328.68 1778.16,1328.64 1797.06,1328.63 1813.65,1328.63 1832.32,1328.63 1851.16,1328.63 1867.67,1328.63 1886.39,1328.63 1905.17,1328.63 1921.6,1328.63 1940.38,1328.63 1959.11,1328.63 1975.46,1328.63 1994.3,1328.63 2012.98,1328.63 2029.27,1328.63 2048.16,1328.63 2066.8,1328.63 2083.02,1328.63 2101.95,1328.63 2120.56,1328.63 2136.74,1328.63 2155.7,1328.63 2174.28,1328.63 2190.41,1328.63 2209.4,1328.63 2227.96,1328.63 2244.05,1328.63 2263.07,1328.63 2281.6,1328.63 2291.66,1328.63 "/>
<polyline clip-path="url(#clip562)" style="stroke:#ac8d18; stroke-linecap:round; stroke-linejoin:round; stroke-width:4; stroke-opacity:1; fill:none" points="255.035,90.9377 255.399,90.9377 259.047,90.9377 295.526,90.9377 415.35,90.9377 590.743,90.9377 752.529,90.9377 827.702,90.9377 871.413,90.9376 912.459,90.9366 948.384,90.9325 985.138,90.9342 1020.54,91.0977 1051.1,92.079 1081.98,96.2186 1119.59,114.474 1151.72,156.06 1178.12,224.102 1198.82,338.924 1211.56,487.229 1223.09,154.423 1234.19,118.236 1246.63,133.333 1259.61,170.626 1274.66,210.265 1286.52,227.351 1300.4,227.83 1316.47,1426.03 1330,1415.37 1343.7,1394.75 1356.28,1373.32 1370.45,1351.63 1388.97,1331.91 1406.37,1322.98 1422.59,1320.92 1441,1322.44 1459.06,1325.02 1474.86,1326.9 1493.52,1328.22 1512.04,1328.74 1528.29,1328.83 1547.01,1328.77 1565.68,1328.7 1582.08,1328.66 1600.82,1328.63 1619.54,1328.63 1635.96,1328.63 1654.73,1328.63 1673.45,1328.63 1689.84,1328.63 1708.64,1328.63 1727.34,1328.63 1743.68,1328.63 1762.53,1328.63 1781.2,1328.63 1797.48,1328.63 1816.37,1328.63 1835,1328.63 1851.23,1328.63 1870.16,1328.63 1888.77,1328.63 1904.94,1328.63 1923.9,1328.63 1942.49,1328.63 1958.62,1328.63 1977.61,1328.63 1996.17,1328.63 2012.26,1328.63 2031.28,1328.63 2049.81,1328.63 2065.88,1328.63 2084.91,1328.63 2103.43,1328.63 2119.47,1328.63 2138.52,1328.63 2157.02,1328.63 2173.04,1328.63 2192.11,1328.63 2210.6,1328.63 2226.6,1328.63 2245.67,1328.63 2264.16,1328.63 2280.15,1328.63 2291.66,1328.63 "/>
<polyline clip-path="url(#clip562)" style="stroke:#00a9ad; stroke-linecap:round; stroke-linejoin:round; stroke-width:4; stroke-opacity:1; fill:none" points="255.035,90.9377 255.423,90.9377 259.31,90.9377 298.18,90.9377 520.533,90.9377 893.69,90.9377 1099.09,90.9377 1183.97,90.9377 1233.07,90.9376 1272.29,90.9366 1307.48,90.9328 1341.68,90.9331 1377,91.0684 1407.23,91.895 1437.42,95.3772 1473.36,110.276 1506.08,147.511 1532.69,208.647 1554.21,309.132 1567.72,446.951 1580.04,620.28 1592.13,127.192 1604.47,133.35 1617.66,168.293 1632.56,208.321 1645.13,1372.22 1659.98,1422.03 1674.31,1436.98 1688.53,1428.28 1702.15,1407.11 1718.25,1376.94 1736.21,1347.61 1755.03,1328.19 1772.58,1320.52 1790.01,1319.71 1808.97,1322.35 1826.76,1325.29 1843.95,1327.34 1863.12,1328.5 1881.04,1328.85 1898.08,1328.86 1917.31,1328.77 1935.23,1328.69 1952.21,1328.65 1971.47,1328.63 1989.32,1328.63 2006.32,1328.63 2025.58,1328.63 2043.36,1328.63 2060.42,1328.63 2079.68,1328.63 2097.38,1328.63 2114.54,1328.63 2133.78,1328.63 2151.4,1328.63 2168.68,1328.63 2187.9,1328.63 2205.44,1328.63 2222.84,1328.63 2242.05,1328.63 2259.51,1328.63 2277.03,1328.63 2291.66,1328.63 "/>
<polyline clip-path="url(#clip562)" style="stroke:#ed5d92; stroke-linecap:round; stroke-linejoin:round; stroke-width:4; stroke-opacity:1; fill:none" points="255.035,90.9377 255.386,90.9377 258.9,90.9377 292.757,90.9377 381.374,90.9377 502.673,90.9377 615.124,90.9377 672.817,90.9377 715.256,90.9376 752.995,90.9364 787.976,90.932 824.532,90.9377 858.356,91.1272 888.357,92.1891 919.197,96.6171 956.403,115.524 987.491,156.483 1013.62,223.984 1034.21,337.542 1046.91,484.466 1058.42,652.708 1068.96,129.701 1081.25,135.629 1093.79,168.046 1108.29,206.876 1120.42,227.078 1134.05,231.023 1149.37,214.127 1166.51,179.521 1184.63,140.765 1201.12,113.616 1219.1,96.2604 1237.42,89.2423 1253.36,88.1242 1271.36,88.941 1289.73,90.0041 1306.08,90.5876 1324.26,90.8667 1342.91,90.9432 1359.55,90.9496 1377.78,90.944 1396.56,90.9397 1413.3,90.9383 1431.62,90.9378 1450.45,90.9377 1467.2,90.9377 1485.6,90.9377 1504.45,90.9377 1521.15,90.9377 1539.64,90.9377 1558.48,90.9377 1575.11,90.9377 1593.68,90.9377 1612.5,90.9377 1629.05,90.9377 1647.71,90.9377 1666.48,90.9377 1682.96,90.9377 1701.69,90.9377 1720.42,90.9377 1736.82,90.9377 1755.62,90.9377 1774.32,90.9377 1790.64,90.9377 1809.49,90.9377 1828.16,90.9377 1844.42,90.9377 1863.32,90.9377 1881.95,90.9377 1898.15,90.9377 1917.09,90.9377 1935.69,90.9377 1951.85,90.9377 1970.82,90.9377 1989.39,90.9377 2005.51,90.9377 2024.51,90.9377 2043.06,90.9377 2059.14,90.9377 2078.16,90.9377 2096.69,90.9377 2112.74,90.9377 2131.78,90.9377 2150.3,90.9377 2166.33,90.9377 2185.38,90.9377 2203.88,90.9377 2219.89,90.9377 2238.96,90.9377 2257.45,90.9377 2273.44,90.9377 2291.66,90.9377 "/>
<polyline clip-path="url(#clip562)" style="stroke:#c68125; stroke-linecap:round; stroke-linejoin:round; stroke-width:4; stroke-opacity:1; fill:none" points="255.035,90.9377 255.403,90.9377 259.089,90.9377 295.942,90.9377 426.702,90.9377 622.484,90.9377 796.173,90.9377 877.121,90.9377 922.131,90.9376 959.9,90.9368 994.085,90.9337 1027.57,90.9314 1063.07,91.0227 1093.06,91.6372 1122.66,94.2963 1156.73,105.365 1191.19,138.056 1218.29,192.428 1242.66,290.801 1257.08,422.845 1270.55,607.28 1279.18,740.325 1286.94,854.844 1294.3,957.02 1302.37,1059.49 1312.81,1175.46 1323.12,1270.1 1334.81,1352.23 1348.06,1412.89 1363.6,1444.15 1380.73,1440 1398.91,1410.1 1415.39,1376.59 1433.99,1344.84 1453.18,1325.25 1470.66,1318.45 1488.91,1318.62 1508.11,1322.07 1525.48,1325.29 1543.53,1327.54 1562.76,1328.66 1580.13,1328.93 1598.11,1328.9 1617.31,1328.77 1634.59,1328.69 1652.59,1328.64 1671.74,1328.63 1688.9,1328.63 1706.98,1328.63 1726.07,1328.63 1743.11,1328.63 1761.3,1328.63 1780.33,1328.63 1797.26,1328.63 1815.55,1328.63 1834.53,1328.63 1851.35,1328.63 1869.76,1328.63 1888.68,1328.63 1905.4,1328.63 1923.9,1328.63 1942.77,1328.63 1959.4,1328.63 1978,1328.63 1996.82,1328.63 2013.35,1328.63 2032.03,1328.63 2050.8,1328.63 2067.24,1328.63 2086,1328.63 2104.73,1328.63 2121.09,1328.63 2139.91,1328.63 2158.6,1328.63 2174.9,1328.63 2193.77,1328.63 2212.42,1328.63 2228.65,1328.63 2247.57,1328.63 2266.19,1328.63 2282.37,1328.63 2291.66,1328.63 "/>
<polyline clip-path="url(#clip562)" style="stroke:#00a98d; stroke-linecap:round; stroke-linejoin:round; stroke-width:4; stroke-opacity:1; fill:none" points="255.035,90.9377 255.417,90.9377 259.241,90.9377 297.484,90.9377 483.816,90.9377 786.539,90.9377 978.154,90.9377 1069.18,90.9377 1119.78,90.9376 1159.61,90.9371 1194.86,90.9342 1228.78,90.9303 1265.89,91.0031 1296.6,91.5551 1326.43,94.0131 1360.03,104.131 1395.93,136.771 1423.41,190.961 1448.06,289.16 1462.57,420.769 1476.15,606.458 1484.76,739.245 1492.53,854.009 1499.9,956.411 1507.98,1059.14 1518.41,1175.23 1528.73,1270.01 1540.43,1352.29 1553.68,1412.97 1569.22,1444.25 1586.35,1440.09 1604.53,1410.16 1621.01,1376.62 1639.62,1344.84 1658.8,1325.25 1676.28,1318.44 1694.54,1318.61 1713.73,1322.07 1731.11,1325.29 1749.15,1327.54 1768.38,1328.66 1785.75,1328.93 1803.73,1328.9 1822.93,1328.77 1840.21,1328.69 1858.21,1328.64 1877.36,1328.63 1894.52,1328.63 1912.6,1328.63 1931.69,1328.63 1948.74,1328.63 1966.92,1328.63 1985.95,1328.63 2002.88,1328.63 2021.17,1328.63 2040.15,1328.63 2056.97,1328.63 2075.38,1328.63 2094.3,1328.63 2111.02,1328.63 2129.52,1328.63 2148.4,1328.63 2165.02,1328.63 2183.62,1328.63 2202.44,1328.63 2218.96,1328.63 2237.65,1328.63 2256.42,1328.63 2272.86,1328.63 2291.62,1328.63 2291.66,1328.63 "/>
<polyline clip-path="url(#clip562)" style="stroke:#8e971d; stroke-linecap:round; stroke-linejoin:round; stroke-width:4; stroke-opacity:1; fill:none" points="255.035,90.9377 255.39,90.9377 258.938,90.9377 294.427,90.9377 391.058,90.9377 524.437,90.9377 649.73,90.9377 710.548,90.9377 754.429,90.9376 793.249,90.9364 828.95,90.9319 865.839,90.938 900.117,91.1405 930.392,92.2744 961.517,97.0018 999.316,117.35 1030.23,160.074 1056.33,230.805 1076.57,350.864 1080.66,404.487 1085.87,290.873 1090.01,223.847 1093.86,177.614 1097.71,145.484 1102.11,122.725 1108.39,109.861 1114.87,113.114 1122.74,130.228 1131.51,156.88 1141.69,188.215 1151.84,212.846 1162.99,227.742 1176.32,227.289 1191.51,206.993 1208.11,172.263 1225.31,1374.52 1238.66,1355.66 1253.32,1339.27 1267.11,1329.25 1280.42,1324.2 1296.69,1322.51 1314.64,1323.71 1332.47,1325.76 1348.2,1327.25 1366.45,1328.28 1384.82,1328.7 1401.15,1328.78 1419.59,1328.74 1438.25,1328.68 1454.82,1328.65 1473.33,1328.63 1492.1,1328.63 1508.72,1328.63 1527.28,1328.63 1546.08,1328.63 1562.68,1328.63 1581.3,1328.63 1600.09,1328.63 1616.62,1328.63 1635.3,1328.63 1654.07,1328.63 1670.53,1328.63 1689.28,1328.63 1708.01,1328.63 1724.39,1328.63 1743.2,1328.63 1761.89,1328.63 1778.21,1328.63 1797.07,1328.63 1815.72,1328.63 1831.98,1328.63 1850.89,1328.63 1869.51,1328.63 1885.71,1328.63 1904.65,1328.63 1923.25,1328.63 1939.4,1328.63 1958.37,1328.63 1976.94,1328.63 1993.05,1328.63 2012.06,1328.63 2030.6,1328.63 2046.68,1328.63 2065.71,1328.63 2084.23,1328.63 2100.28,1328.63 2119.33,1328.63 2137.84,1328.63 2153.86,1328.63 2172.92,1328.63 2191.42,1328.63 2207.43,1328.63 2226.5,1328.63 2244.98,1328.63 2260.98,1328.63 2280.05,1328.63 2291.66,1328.63 "/>
<polyline clip-path="url(#clip562)" style="stroke:#00a8cb; stroke-linecap:round; stroke-linejoin:round; stroke-width:4; stroke-opacity:1; fill:none" points="255.035,90.9377 255.403,90.9377 259.087,90.9377 295.928,90.9377 426.302,90.9377 621.359,90.9377 794.692,90.9377 875.445,90.9377 920.411,90.9376 958.159,90.9368 992.338,90.9337 1025.81,90.9314 1061.31,91.0224 1091.3,91.6351 1120.9,94.2873 1154.94,105.323 1189.41,137.962 1216.52,192.268 1240.9,290.445 1255.33,422.295 1268.82,606.888 1277.44,739.765 1285.2,854.279 1292.55,956.488 1300.62,1059.02 1311.06,1175.05 1321.37,1269.77 1333.05,1351.98 1346.29,1412.74 1361.83,1444.12 1378.96,1440.09 1397.13,1410.24 1413.63,1376.69 1432.23,1344.92 1451.42,1325.29 1468.91,1318.46 1487.15,1318.61 1506.35,1322.06 1523.73,1325.28 1541.77,1327.53 1561.01,1328.66 1578.38,1328.93 1596.36,1328.9 1615.55,1328.77 1632.84,1328.69 1650.84,1328.64 1669.98,1328.63 1687.15,1328.63 1705.23,1328.63 1724.32,1328.63 1741.37,1328.63 1759.54,1328.63 1778.58,1328.63 1795.52,1328.63 1813.8,1328.63 1832.78,1328.63 1849.61,1328.63 1868.01,1328.63 1886.93,1328.63 1903.66,1328.63 1922.16,1328.63 1941.03,1328.63 1957.66,1328.63 1976.25,1328.63 1995.07,1328.63 2011.61,1328.63 2030.29,1328.63 2049.06,1328.63 2065.51,1328.63 2084.26,1328.63 2102.99,1328.63 2119.36,1328.63 2138.18,1328.63 2156.87,1328.63 2173.17,1328.63 2192.04,1328.63 2210.69,1328.63 2226.93,1328.63 2245.84,1328.63 2264.46,1328.63 2280.64,1328.63 2291.66,1328.63 "/>
<polyline clip-path="url(#clip562)" style="stroke:#9b7fe8; stroke-linecap:round; stroke-linejoin:round; stroke-width:4; stroke-opacity:1; fill:none" points="255.035,90.9377 255.412,90.9377 259.189,90.9377 296.96,90.9377 461.252,90.9377 721.096,90.9377 910.136,90.9377 996.521,90.9377 1051.27,90.9376 1091.64,90.9367 1128.6,90.933 1163.32,90.9315 1199.79,91.0609 1230.69,91.8935 1261.26,95.4457 1296.84,110.243 1329.84,147.851 1356.62,209.797 1378.14,311.664 1391.58,450.84 1403.83,623.836 1414.17,781.544 1422.96,907.337 1430.89,1012.21 1439.3,1112.28 1450.17,1223.15 1460.76,1309.5 1473.3,1383.31 1487.56,1431.08 1504.11,1445.42 1521.89,1427.05 1539.85,1392.41 1557.5,1358.62 1576.64,1332.73 1595.44,1320.46 1612.46,1318 1631.62,1320.37 1650.21,1323.99 1666.66,1326.55 1685.82,1328.25 1704.4,1328.86 1720.45,1328.93 1739.62,1328.84 1758.14,1328.73 1773.92,1328.67 1793.1,1328.63 1811.58,1328.63 1827.36,1328.63 1846.54,1328.63 1864.99,1328.63 1880.81,1328.63 1899.97,1328.63 1918.41,1328.63 1934.27,1328.63 1953.42,1328.63 1971.85,1328.63 1987.73,1328.63 2006.87,1328.63 2025.3,1328.63 2041.2,1328.63 2060.33,1328.63 2078.77,1328.63 2094.68,1328.63 2113.81,1328.63 2132.24,1328.63 2148.17,1328.63 2167.29,1328.63 2185.72,1328.63 2201.65,1328.63 2220.77,1328.63 2239.21,1328.63 2255.14,1328.63 2274.26,1328.63 2291.66,1328.63 "/>
<polyline clip-path="url(#clip562)" style="stroke:#608cf6; stroke-linecap:round; stroke-linejoin:round; stroke-width:4; stroke-opacity:1; fill:none" points="255.035,90.9377 255.409,90.9377 259.154,90.9377 296.6,90.9377 447.793,90.9377 682.394,90.9377 868.706,90.9377 959.275,90.9377 1006.39,90.9376 1045.12,90.9368 1079.54,90.9334 1113.31,90.9319 1149.01,91.0374 1179.16,91.7247 1208.97,94.6663 1243.93,107.169 1277.98,142.067 1304.89,199.356 1329.17,306.69 1343.01,447.166 1355.76,626.569 1365.02,768.024 1373.19,886.207 1380.75,988.339 1388.93,1088.51 1399.6,1201.69 1410.08,1292.01 1422.15,1369.34 1435.95,1423.36 1452,1445.61 1469.49,1433.56 1487.65,1400.49 1504.69,1366.66 1523.63,1337.82 1542.72,1322.27 1559.23,1318.07 1578.03,1319.41 1597.02,1323.05 1613.54,1325.9 1632.24,1327.91 1651.24,1328.77 1667.86,1328.94 1686.52,1328.87 1705.45,1328.75 1722.06,1328.68 1740.73,1328.64 1759.61,1328.63 1776.15,1328.63 1794.86,1328.63 1813.67,1328.63 1830.14,1328.63 1848.9,1328.63 1867.66,1328.63 1884.05,1328.63 1902.86,1328.63 1921.57,1328.63 1937.89,1328.63 1956.75,1328.63 1975.42,1328.63 1991.68,1328.63 2010.58,1328.63 2029.21,1328.63 2045.41,1328.63 2064.36,1328.63 2082.96,1328.63 2099.11,1328.63 2118.09,1328.63 2136.66,1328.63 2152.77,1328.63 2171.77,1328.63 2190.32,1328.63 2206.4,1328.63 2225.43,1328.63 2243.95,1328.63 2260,1328.63 2279.05,1328.63 2291.66,1328.63 "/>
<polyline clip-path="url(#clip562)" style="stroke:#f05f73; stroke-linecap:round; stroke-linejoin:round; stroke-width:4; stroke-opacity:1; fill:none" points="255.035,90.9377 255.414,90.9377 259.211,90.9377 297.173,90.9377 469.983,90.9377 746.355,90.9377 936.188,90.9377 1025.07,90.9377 1080.62,90.9376 1121.25,90.9367 1158.28,90.9329 1193.13,90.9317 1229.69,91.066 1260.65,91.9245 1291.29,95.5788 1327.1,110.856 1359.97,149.083 1386.72,211.991 1408.11,315.845 1421.42,456.651 1433.53,628.717 1445.25,127.801 1457.59,133.989 1470.63,168.342 1485.44,208.044 1497.92,227.96 1511.76,230.408 1527.32,211.643 1544.64,175.864 1562.83,137.44 1579.6,111.023 1597.72,94.954 1615.99,88.8991 1631.67,88.1487 1649.89,89.0716 1668.17,90.0958 1684.18,90.6265 1702.62,90.8813 1721.16,90.9454 1737.49,90.9493 1756,90.9434 1774.65,90.9395 1791.12,90.9382 1809.7,90.9378 1828.41,90.9377 1844.9,90.9377 1863.54,90.9377 1882.27,90.9377 1898.73,90.9377 1917.44,90.9377 1936.16,90.9377 1952.58,90.9377 1971.34,90.9377 1990.04,90.9377 2006.4,90.9377 2025.22,90.9377 2043.89,90.9377 2060.18,90.9377 2079.06,90.9377 2097.7,90.9377 2113.93,90.9377 2132.85,90.9377 2151.46,90.9377 2167.65,90.9377 2186.6,90.9377 2205.19,90.9377 2221.32,90.9377 2240.31,90.9377 2258.87,90.9377 2274.97,90.9377 2291.66,90.9377 "/>
<polyline clip-path="url(#clip562)" style="stroke:#dd64b5; stroke-linecap:round; stroke-linejoin:round; stroke-width:4; stroke-opacity:1; fill:none" points="255.035,90.9377 255.414,90.9377 259.209,90.9377 297.158,90.9377 469.316,90.9377 744.421,90.9377 934.194,90.9377 1022.92,90.9377 1078.41,90.9376 1119.02,90.9367 1156.04,90.9329 1190.89,90.9317 1227.44,91.0655 1258.4,91.9217 1289.04,95.5669 1324.83,110.802 1357.71,148.977 1384.46,211.803 1405.86,315.49 1419.18,456.162 1431.3,628.304 1441.68,786.271 1449.76,901.907 1457.27,1001.91 1465.31,1098.89 1475.89,1209.33 1486.28,1297.23 1498.33,1372.64 1512.23,1425.11 1528.36,1445.48 1545.88,1432.03 1563.99,1398.63 1581.14,1364.86 1600.11,1336.69 1619.14,1321.87 1635.43,1318.07 1654.31,1319.57 1673.24,1323.21 1689.59,1325.99 1708.38,1327.96 1727.33,1328.78 1743.82,1328.94 1762.57,1328.86 1781.45,1328.75 1797.96,1328.68 1816.7,1328.64 1835.53,1328.63 1851.99,1328.63 1870.77,1328.63 1889.54,1328.63 1905.94,1328.63 1924.75,1328.63 1943.47,1328.63 1959.8,1328.63 1978.66,1328.63 1997.34,1328.63 2013.61,1328.63 2032.51,1328.63 2051.15,1328.63 2067.36,1328.63 2086.3,1328.63 2104.9,1328.63 2121.07,1328.63 2140.04,1328.63 2158.61,1328.63 2174.73,1328.63 2193.73,1328.63 2212.29,1328.63 2228.37,1328.63 2247.39,1328.63 2265.92,1328.63 2281.98,1328.63 2291.66,1328.63 "/>
<polyline clip-path="url(#clip562)" style="stroke:#6b9e32; stroke-linecap:round; stroke-linejoin:round; stroke-width:4; stroke-opacity:1; fill:none" points="255.035,90.9377 255.411,90.9377 259.173,90.9377 296.796,90.9377 454.923,90.9377 702.86,90.9377 891.075,90.9377 984.6,90.9377 1032.35,90.9376 1071.33,90.9368 1105.79,90.9334 1139.64,90.932 1175.41,91.0405 1205.6,91.7438 1235.46,94.7476 1270.64,107.586 1304.62,143.013 1331.49,201.011 1355.76,310.664 1369.5,453.145 1382.11,631.802 1391.53,775.378 1399.91,895.99 1407.58,998.66 1415.83,1098.48 1426.61,1210.91 1437.16,1299.73 1449.4,1375.41 1463.4,1426.84 1479.64,1445.72 1497.26,1430.92 1515.35,1397.04 1532.67,1363.13 1551.7,1335.52 1570.69,1321.41 1587.22,1317.99 1606.2,1319.78 1625.05,1323.44 1641.18,1326.13 1660.1,1328.04 1678.97,1328.81 1695.25,1328.94 1714.14,1328.86 1732.94,1328.74 1749.26,1328.67 1768.14,1328.64 1786.89,1328.63 1803.19,1328.63 1822.08,1328.63 1840.78,1328.63 1857.03,1328.63 1875.95,1328.63 1894.6,1328.63 1910.81,1328.63 1929.75,1328.63 1948.37,1328.63 1964.53,1328.63 1983.51,1328.63 2002.09,1328.63 2018.21,1328.63 2037.21,1328.63 2055.77,1328.63 2071.86,1328.63 2090.88,1328.63 2109.42,1328.63 2125.48,1328.63 2144.51,1328.63 2163.03,1328.63 2179.07,1328.63 2198.12,1328.63 2216.63,1328.63 2232.64,1328.63 2251.71,1328.63 2270.2,1328.63 2286.2,1328.63 2291.66,1328.63 "/>
<polyline clip-path="url(#clip562)" style="stroke:#009af9; stroke-linecap:round; stroke-linejoin:round; stroke-width:4; stroke-opacity:1; fill:none" points="255.035,90.9377 255.417,90.9377 259.237,90.9377 297.445,90.9377 481.988,90.9377 781.219,90.9377 972.511,90.9377 1063.4,90.9377 1113.96,90.9376 1153.79,90.9371 1189.04,90.9343 1222.94,90.9303 1260.07,91.0019 1290.8,91.5482 1320.62,93.9847 1354.17,104.007 1390.14,136.535 1417.64,190.574 1442.31,288.351 1456.86,419.524 1470.49,605.612 1479.07,738.051 1486.83,852.832 1494.2,955.32 1502.28,1058.21 1512.71,1174.42 1523.02,1269.36 1534.72,1351.82 1547.95,1412.68 1563.48,1444.21 1580.6,1440.27 1598.78,1410.44 1615.28,1376.83 1633.88,1344.99 1653.07,1325.31 1670.57,1318.45 1688.81,1318.59 1708.01,1322.05 1725.4,1325.27 1743.43,1327.53 1762.67,1328.65 1780.06,1328.93 1798.02,1328.9 1817.22,1328.77 1834.51,1328.69 1852.5,1328.64 1871.65,1328.63 1888.83,1328.63 1906.89,1328.63 1925.99,1328.63 1943.04,1328.63 1961.21,1328.63 1980.25,1328.63 1997.19,1328.63 2015.47,1328.63 2034.45,1328.63 2051.29,1328.63 2069.68,1328.63 2088.61,1328.63 2105.34,1328.63 2123.83,1328.63 2142.71,1328.63 2159.34,1328.63 2177.93,1328.63 2196.75,1328.63 2213.29,1328.63 2231.97,1328.63 2250.74,1328.63 2267.19,1328.63 2285.94,1328.63 2291.66,1328.63 "/>
<polyline clip-path="url(#clip562)" style="stroke:#e26f46; stroke-linecap:round; stroke-linejoin:round; stroke-width:4; stroke-opacity:1; fill:none" points="255.035,90.9377 255.41,90.9377 259.165,90.9377 296.713,90.9377 451.853,90.9377 694.037,90.9377 881.603,90.9377 973.859,90.9377 1021.33,90.9376 1060.21,90.9368 1094.65,90.9334 1128.47,90.9319 1164.21,91.0394 1194.38,91.737 1224.22,94.7182 1259.31,107.433 1293.32,142.656 1320.2,200.382 1344.47,309.137 1358.25,450.852 1370.91,629.773 1380.27,772.526 1388.56,892.126 1396.19,994.565 1404.41,1094.51 1415.14,1207.24 1425.66,1296.67 1437.84,1373.01 1451.75,1425.48 1467.92,1445.71 1485.49,1432 1503.61,1398.41 1520.82,1364.51 1539.82,1336.41 1558.85,1321.73 1575.21,1318.02 1594.13,1319.61 1613.04,1323.26 1629.34,1326.02 1648.17,1327.98 1667.09,1328.79 1683.53,1328.94 1702.32,1328.86 1721.18,1328.74 1737.64,1328.68 1756.42,1328.64 1775.23,1328.63 1791.64,1328.63 1810.45,1328.63 1829.21,1328.63 1845.56,1328.63 1864.41,1328.63 1883.11,1328.63 1899.4,1328.63 1918.29,1328.63 1936.95,1328.63 1953.18,1328.63 1972.11,1328.63 1990.73,1328.63 2006.91,1328.63 2025.87,1328.63 2044.46,1328.63 2060.6,1328.63 2079.59,1328.63 2098.15,1328.63 2114.25,1328.63 2133.27,1328.63 2151.81,1328.63 2167.88,1328.63 2186.91,1328.63 2205.43,1328.63 2221.48,1328.63 2240.52,1328.63 2259.03,1328.63 2275.05,1328.63 2291.66,1328.63 "/>
<polyline clip-path="url(#clip562)" style="stroke:#3da44d; stroke-linecap:round; stroke-linejoin:round; stroke-width:4; stroke-opacity:1; fill:none" points="255.035,90.9377 255.415,90.9377 259.213,90.9377 297.199,90.9377 471.074,90.9377 749.519,90.9377 939.452,90.9377 1028.6,90.9377 1084.23,90.9376 1124.88,90.9367 1161.92,90.9329 1196.79,90.9317 1233.35,91.0668 1264.32,91.9293 1294.97,95.5991 1330.81,110.949 1363.66,149.262 1390.39,212.305 1411.77,316.441 1425.06,457.469 1437.15,629.412 1447.54,787.442 1455.65,903.52 1463.18,1003.59 1471.23,1100.5 1481.83,1210.87 1492.24,1298.53 1504.31,1373.66 1518.24,1425.69 1534.41,1445.49 1551.95,1431.59 1570.05,1398.05 1587.24,1364.27 1606.23,1336.31 1625.24,1321.73 1641.61,1318.05 1660.52,1319.65 1679.42,1323.28 1695.71,1326.03 1714.54,1327.99 1733.46,1328.79 1749.89,1328.94 1768.68,1328.86 1787.54,1328.74 1803.99,1328.68 1822.78,1328.64 1841.58,1328.63 1857.99,1328.63 1876.8,1328.63 1895.55,1328.63 1911.9,1328.63 1930.75,1328.63 1949.45,1328.63 1965.74,1328.63 1984.63,1328.63 2003.29,1328.63 2019.52,1328.63 2038.45,1328.63 2057.07,1328.63 2073.25,1328.63 2092.21,1328.63 2110.8,1328.63 2126.94,1328.63 2145.92,1328.63 2164.49,1328.63 2180.59,1328.63 2199.6,1328.63 2218.14,1328.63 2234.21,1328.63 2253.24,1328.63 2271.76,1328.63 2287.8,1328.63 2291.66,1328.63 "/>
<polyline clip-path="url(#clip562)" style="stroke:#c271d2; stroke-linecap:round; stroke-linejoin:round; stroke-width:4; stroke-opacity:1; fill:none" points="255.035,90.9377 255.398,90.9377 259.031,90.9377 295.365,90.9377 411.304,90.9377 579.531,90.9377 736.172,90.9377 809.133,90.9377 852.336,90.9376 892.823,90.9367 928.468,90.9327 964.979,90.9334 1000.31,91.083 1030.76,91.9961 1061.46,95.8678 1098.27,112.619 1130.76,152.505 1157.24,217.616 1178.31,326.444 1191.32,470.868 1203.12,641.03 1214.2,128.857 1226.52,134.749 1239.29,168.024 1253.94,207.287 1266.23,227.408 1279.96,230.725 1295.39,213.022 1312.61,177.894 1330.77,139.266 1347.39,112.433 1365.43,95.6574 1383.74,89.0795 1399.49,88.1329 1417.6,88.9966 1435.93,90.0439 1452.14,90.6045 1470.43,90.8732 1489.04,90.9442 1505.55,90.9495 1523.9,90.9437 1542.63,90.9396 1559.25,90.9382 1577.69,90.9378 1596.47,90.9377 1613.11,90.9377 1631.62,90.9377 1650.42,90.9377 1667.02,90.9377 1685.6,90.9377 1704.39,90.9377 1720.93,90.9377 1739.59,90.9377 1758.36,90.9377 1774.82,90.9377 1793.56,90.9377 1812.29,90.9377 1828.68,90.9377 1847.48,90.9377 1866.17,90.9377 1882.5,90.9377 1901.35,90.9377 1920.01,90.9377 1936.27,90.9377 1955.17,90.9377 1973.79,90.9377 1990,90.9377 2008.94,90.9377 2027.54,90.9377 2043.69,90.9377 2062.67,90.9377 2081.24,90.9377 2097.35,90.9377 2116.35,90.9377 2134.9,90.9377 2150.98,90.9377 2170.01,90.9377 2188.54,90.9377 2204.59,90.9377 2223.63,90.9377 2242.14,90.9377 2258.17,90.9377 2277.23,90.9377 2291.66,90.9377 "/>
</svg>
