<?xml version="1.0" encoding="utf-8"?>
<svg xmlns="http://www.w3.org/2000/svg" xmlns:xlink="http://www.w3.org/1999/xlink" width="600" height="400" viewBox="0 0 2400 1600">
<defs>
  <clipPath id="clip430">
    <rect x="0" y="0" width="2400" height="1600"/>
  </clipPath>
</defs>
<path clip-path="url(#clip430)" d="M0 1600 L2400 1600 L2400 0 L0 0  Z" fill="#ffffff" fill-rule="evenodd" fill-opacity="1"/>
<defs>
  <clipPath id="clip431">
    <rect x="480" y="0" width="1681" height="1600"/>
  </clipPath>
</defs>
<path clip-path="url(#clip430)" d="M249.542 1423.18 L2352.76 1423.18 L2352.76 47.2441 L249.542 47.2441  Z" fill="#ffffff" fill-rule="evenodd" fill-opacity="1"/>
<defs>
  <clipPath id="clip432">
    <rect x="249" y="47" width="2104" height="1377"/>
  </clipPath>
</defs>
<polyline clip-path="url(#clip432)" style="stroke:#000000; stroke-linecap:round; stroke-linejoin:round; stroke-width:2; stroke-opacity:0.1; fill:none" points="309.067,1423.18 309.067,47.2441 "/>
<polyline clip-path="url(#clip432)" style="stroke:#000000; stroke-linecap:round; stroke-linejoin:round; stroke-width:2; stroke-opacity:0.1; fill:none" points="970.455,1423.18 970.455,47.2441 "/>
<polyline clip-path="url(#clip432)" style="stroke:#000000; stroke-linecap:round; stroke-linejoin:round; stroke-width:2; stroke-opacity:0.1; fill:none" points="1631.84,1423.18 1631.84,47.2441 "/>
<polyline clip-path="url(#clip432)" style="stroke:#000000; stroke-linecap:round; stroke-linejoin:round; stroke-width:2; stroke-opacity:0.1; fill:none" points="2293.23,1423.18 2293.23,47.2441 "/>
<polyline clip-path="url(#clip430)" style="stroke:#000000; stroke-linecap:round; stroke-linejoin:round; stroke-width:4; stroke-opacity:1; fill:none" points="249.542,1423.18 2352.76,1423.18 "/>
<polyline clip-path="url(#clip430)" style="stroke:#000000; stroke-linecap:round; stroke-linejoin:round; stroke-width:4; stroke-opacity:1; fill:none" points="309.067,1423.18 309.067,1404.28 "/>
<polyline clip-path="url(#clip430)" style="stroke:#000000; stroke-linecap:round; stroke-linejoin:round; stroke-width:4; stroke-opacity:1; fill:none" points="970.455,1423.18 970.455,1404.28 "/>
<polyline clip-path="url(#clip430)" style="stroke:#000000; stroke-linecap:round; stroke-linejoin:round; stroke-width:4; stroke-opacity:1; fill:none" points="1631.84,1423.18 1631.84,1404.28 "/>
<polyline clip-path="url(#clip430)" style="stroke:#000000; stroke-linecap:round; stroke-linejoin:round; stroke-width:4; stroke-opacity:1; fill:none" points="2293.23,1423.18 2293.23,1404.28 "/>
<path clip-path="url(#clip430)" d="M309.067 1454.1 Q305.456 1454.1 303.627 1457.66 Q301.822 1461.2 301.822 1468.33 Q301.822 1475.44 303.627 1479.01 Q305.456 1482.55 309.067 1482.55 Q312.701 1482.55 314.507 1479.01 Q316.335 1475.44 316.335 1468.33 Q316.335 1461.2 314.507 1457.66 Q312.701 1454.1 309.067 1454.1 M309.067 1450.39 Q314.877 1450.39 317.933 1455 Q321.011 1459.58 321.011 1468.33 Q321.011 1477.06 317.933 1481.67 Q314.877 1486.25 309.067 1486.25 Q303.257 1486.25 300.178 1481.67 Q297.123 1477.06 297.123 1468.33 Q297.123 1459.58 300.178 1455 Q303.257 1450.39 309.067 1450.39 Z" fill="#000000" fill-rule="nonzero" fill-opacity="1" /><path clip-path="url(#clip430)" d="M914.981 1481.64 L922.62 1481.64 L922.62 1455.28 L914.309 1456.95 L914.309 1452.69 L922.573 1451.02 L927.249 1451.02 L927.249 1481.64 L934.888 1481.64 L934.888 1485.58 L914.981 1485.58 L914.981 1481.64 Z" fill="#000000" fill-rule="nonzero" fill-opacity="1" /><path clip-path="url(#clip430)" d="M954.332 1454.1 Q950.721 1454.1 948.893 1457.66 Q947.087 1461.2 947.087 1468.33 Q947.087 1475.44 948.893 1479.01 Q950.721 1482.55 954.332 1482.55 Q957.967 1482.55 959.772 1479.01 Q961.601 1475.44 961.601 1468.33 Q961.601 1461.2 959.772 1457.66 Q957.967 1454.1 954.332 1454.1 M954.332 1450.39 Q960.143 1450.39 963.198 1455 Q966.277 1459.58 966.277 1468.33 Q966.277 1477.06 963.198 1481.67 Q960.143 1486.25 954.332 1486.25 Q948.522 1486.25 945.444 1481.67 Q942.388 1477.06 942.388 1468.33 Q942.388 1459.58 945.444 1455 Q948.522 1450.39 954.332 1450.39 Z" fill="#000000" fill-rule="nonzero" fill-opacity="1" /><path clip-path="url(#clip430)" d="M984.494 1454.1 Q980.883 1454.1 979.054 1457.66 Q977.249 1461.2 977.249 1468.33 Q977.249 1475.44 979.054 1479.01 Q980.883 1482.55 984.494 1482.55 Q988.128 1482.55 989.934 1479.01 Q991.763 1475.44 991.763 1468.33 Q991.763 1461.2 989.934 1457.66 Q988.128 1454.1 984.494 1454.1 M984.494 1450.39 Q990.304 1450.39 993.36 1455 Q996.439 1459.58 996.439 1468.33 Q996.439 1477.06 993.36 1481.67 Q990.304 1486.25 984.494 1486.25 Q978.684 1486.25 975.605 1481.67 Q972.55 1477.06 972.55 1468.33 Q972.55 1459.58 975.605 1455 Q978.684 1450.39 984.494 1450.39 Z" fill="#000000" fill-rule="nonzero" fill-opacity="1" /><path clip-path="url(#clip430)" d="M1014.66 1454.1 Q1011.05 1454.1 1009.22 1457.66 Q1007.41 1461.2 1007.41 1468.33 Q1007.41 1475.44 1009.22 1479.01 Q1011.05 1482.55 1014.66 1482.55 Q1018.29 1482.55 1020.1 1479.01 Q1021.92 1475.44 1021.92 1468.33 Q1021.92 1461.2 1020.1 1457.66 Q1018.29 1454.1 1014.66 1454.1 M1014.66 1450.39 Q1020.47 1450.39 1023.52 1455 Q1026.6 1459.58 1026.6 1468.33 Q1026.6 1477.06 1023.52 1481.67 Q1020.47 1486.25 1014.66 1486.25 Q1008.85 1486.25 1005.77 1481.67 Q1002.71 1477.06 1002.71 1468.33 Q1002.71 1459.58 1005.77 1455 Q1008.85 1450.39 1014.66 1450.39 Z" fill="#000000" fill-rule="nonzero" fill-opacity="1" /><path clip-path="url(#clip430)" d="M1580.45 1481.64 L1596.77 1481.64 L1596.77 1485.58 L1574.83 1485.58 L1574.83 1481.64 Q1577.49 1478.89 1582.07 1474.26 Q1586.68 1469.61 1587.86 1468.27 Q1590.11 1465.74 1590.99 1464.01 Q1591.89 1462.25 1591.89 1460.56 Q1591.89 1457.8 1589.95 1456.07 Q1588.02 1454.33 1584.92 1454.33 Q1582.72 1454.33 1580.27 1455.09 Q1577.84 1455.86 1575.06 1457.41 L1575.06 1452.69 Q1577.88 1451.55 1580.34 1450.97 Q1582.79 1450.39 1584.83 1450.39 Q1590.2 1450.39 1593.39 1453.08 Q1596.59 1455.77 1596.59 1460.26 Q1596.59 1462.39 1595.78 1464.31 Q1594.99 1466.2 1592.88 1468.8 Q1592.31 1469.47 1589.2 1472.69 Q1586.1 1475.88 1580.45 1481.64 Z" fill="#000000" fill-rule="nonzero" fill-opacity="1" /><path clip-path="url(#clip430)" d="M1616.59 1454.1 Q1612.98 1454.1 1611.15 1457.66 Q1609.34 1461.2 1609.34 1468.33 Q1609.34 1475.44 1611.15 1479.01 Q1612.98 1482.55 1616.59 1482.55 Q1620.22 1482.55 1622.03 1479.01 Q1623.86 1475.44 1623.86 1468.33 Q1623.86 1461.2 1622.03 1457.66 Q1620.22 1454.1 1616.59 1454.1 M1616.59 1450.39 Q1622.4 1450.39 1625.45 1455 Q1628.53 1459.58 1628.53 1468.33 Q1628.53 1477.06 1625.45 1481.67 Q1622.4 1486.25 1616.59 1486.25 Q1610.78 1486.25 1607.7 1481.67 Q1604.64 1477.06 1604.64 1468.33 Q1604.64 1459.58 1607.7 1455 Q1610.78 1450.39 1616.59 1450.39 Z" fill="#000000" fill-rule="nonzero" fill-opacity="1" /><path clip-path="url(#clip430)" d="M1646.75 1454.1 Q1643.14 1454.1 1641.31 1457.66 Q1639.5 1461.2 1639.5 1468.33 Q1639.5 1475.44 1641.31 1479.01 Q1643.14 1482.55 1646.75 1482.55 Q1650.38 1482.55 1652.19 1479.01 Q1654.02 1475.44 1654.02 1468.33 Q1654.02 1461.2 1652.19 1457.66 Q1650.38 1454.1 1646.75 1454.1 M1646.75 1450.39 Q1652.56 1450.39 1655.62 1455 Q1658.69 1459.58 1658.69 1468.33 Q1658.69 1477.06 1655.62 1481.67 Q1652.56 1486.25 1646.75 1486.25 Q1640.94 1486.25 1637.86 1481.67 Q1634.81 1477.06 1634.81 1468.33 Q1634.81 1459.58 1637.86 1455 Q1640.94 1450.39 1646.75 1450.39 Z" fill="#000000" fill-rule="nonzero" fill-opacity="1" /><path clip-path="url(#clip430)" d="M1676.91 1454.1 Q1673.3 1454.1 1671.47 1457.66 Q1669.67 1461.2 1669.67 1468.33 Q1669.67 1475.44 1671.47 1479.01 Q1673.3 1482.55 1676.91 1482.55 Q1680.55 1482.55 1682.35 1479.01 Q1684.18 1475.44 1684.18 1468.33 Q1684.18 1461.2 1682.35 1457.66 Q1680.55 1454.1 1676.91 1454.1 M1676.91 1450.39 Q1682.72 1450.39 1685.78 1455 Q1688.86 1459.58 1688.86 1468.33 Q1688.86 1477.06 1685.78 1481.67 Q1682.72 1486.25 1676.91 1486.25 Q1671.1 1486.25 1668.02 1481.67 Q1664.97 1477.06 1664.97 1468.33 Q1664.97 1459.58 1668.02 1455 Q1671.1 1450.39 1676.91 1450.39 Z" fill="#000000" fill-rule="nonzero" fill-opacity="1" /><path clip-path="url(#clip430)" d="M2251.91 1466.95 Q2255.27 1467.66 2257.14 1469.93 Q2259.04 1472.2 2259.04 1475.53 Q2259.04 1480.65 2255.52 1483.45 Q2252 1486.25 2245.52 1486.25 Q2243.35 1486.25 2241.03 1485.81 Q2238.74 1485.39 2236.29 1484.54 L2236.29 1480.02 Q2238.23 1481.16 2240.55 1481.74 Q2242.86 1482.32 2245.38 1482.32 Q2249.78 1482.32 2252.07 1480.58 Q2254.39 1478.84 2254.39 1475.53 Q2254.39 1472.48 2252.24 1470.77 Q2250.11 1469.03 2246.29 1469.03 L2242.26 1469.03 L2242.26 1465.19 L2246.47 1465.19 Q2249.92 1465.19 2251.75 1463.82 Q2253.58 1462.43 2253.58 1459.84 Q2253.58 1457.18 2251.68 1455.77 Q2249.81 1454.33 2246.29 1454.33 Q2244.37 1454.33 2242.17 1454.75 Q2239.97 1455.16 2237.33 1456.04 L2237.33 1451.88 Q2239.99 1451.14 2242.31 1450.77 Q2244.64 1450.39 2246.7 1450.39 Q2252.03 1450.39 2255.13 1452.83 Q2258.23 1455.23 2258.23 1459.35 Q2258.23 1462.22 2256.59 1464.21 Q2254.94 1466.18 2251.91 1466.95 Z" fill="#000000" fill-rule="nonzero" fill-opacity="1" /><path clip-path="url(#clip430)" d="M2277.91 1454.1 Q2274.3 1454.1 2272.47 1457.66 Q2270.66 1461.2 2270.66 1468.33 Q2270.66 1475.44 2272.47 1479.01 Q2274.3 1482.55 2277.91 1482.55 Q2281.54 1482.55 2283.35 1479.01 Q2285.18 1475.44 2285.18 1468.33 Q2285.18 1461.2 2283.35 1457.66 Q2281.54 1454.1 2277.91 1454.1 M2277.91 1450.39 Q2283.72 1450.39 2286.77 1455 Q2289.85 1459.58 2289.85 1468.33 Q2289.85 1477.06 2286.77 1481.67 Q2283.72 1486.25 2277.91 1486.25 Q2272.1 1486.25 2269.02 1481.67 Q2265.96 1477.06 2265.96 1468.33 Q2265.96 1459.58 2269.02 1455 Q2272.1 1450.39 2277.91 1450.39 Z" fill="#000000" fill-rule="nonzero" fill-opacity="1" /><path clip-path="url(#clip430)" d="M2308.07 1454.1 Q2304.46 1454.1 2302.63 1457.66 Q2300.82 1461.2 2300.82 1468.33 Q2300.82 1475.44 2302.63 1479.01 Q2304.46 1482.55 2308.07 1482.55 Q2311.7 1482.55 2313.51 1479.01 Q2315.34 1475.44 2315.34 1468.33 Q2315.34 1461.2 2313.51 1457.66 Q2311.7 1454.1 2308.07 1454.1 M2308.07 1450.39 Q2313.88 1450.39 2316.93 1455 Q2320.01 1459.58 2320.01 1468.33 Q2320.01 1477.06 2316.93 1481.67 Q2313.88 1486.25 2308.07 1486.25 Q2302.26 1486.25 2299.18 1481.67 Q2296.12 1477.06 2296.12 1468.33 Q2296.12 1459.58 2299.18 1455 Q2302.26 1450.39 2308.07 1450.39 Z" fill="#000000" fill-rule="nonzero" fill-opacity="1" /><path clip-path="url(#clip430)" d="M2338.23 1454.1 Q2334.62 1454.1 2332.79 1457.66 Q2330.99 1461.2 2330.99 1468.33 Q2330.99 1475.44 2332.79 1479.01 Q2334.62 1482.55 2338.23 1482.55 Q2341.86 1482.55 2343.67 1479.01 Q2345.5 1475.44 2345.5 1468.33 Q2345.5 1461.2 2343.67 1457.66 Q2341.86 1454.1 2338.23 1454.1 M2338.23 1450.39 Q2344.04 1450.39 2347.1 1455 Q2350.18 1459.58 2350.18 1468.33 Q2350.18 1477.06 2347.1 1481.67 Q2344.04 1486.25 2338.23 1486.25 Q2332.42 1486.25 2329.34 1481.67 Q2326.29 1477.06 2326.29 1468.33 Q2326.29 1459.58 2329.34 1455 Q2332.42 1450.39 2338.23 1450.39 Z" fill="#000000" fill-rule="nonzero" fill-opacity="1" /><path clip-path="url(#clip430)" d="M1142.12 1520.52 L1182.32 1520.52 L1182.32 1525.93 L1165.45 1525.93 L1165.45 1568.04 L1158.99 1568.04 L1158.99 1525.93 L1142.12 1525.93 L1142.12 1520.52 Z" fill="#000000" fill-rule="nonzero" fill-opacity="1" /><path clip-path="url(#clip430)" d="M1186.26 1532.4 L1192.12 1532.4 L1192.12 1568.04 L1186.26 1568.04 L1186.26 1532.4 M1186.26 1518.52 L1192.12 1518.52 L1192.12 1525.93 L1186.26 1525.93 L1186.26 1518.52 Z" fill="#000000" fill-rule="nonzero" fill-opacity="1" /><path clip-path="url(#clip430)" d="M1232.13 1539.24 Q1234.32 1535.29 1237.38 1533.41 Q1240.44 1531.54 1244.57 1531.54 Q1250.14 1531.54 1253.17 1535.45 Q1256.19 1539.33 1256.19 1546.53 L1256.19 1568.04 L1250.3 1568.04 L1250.3 1546.72 Q1250.3 1541.59 1248.49 1539.11 Q1246.67 1536.63 1242.95 1536.63 Q1238.4 1536.63 1235.76 1539.65 Q1233.12 1542.68 1233.12 1547.9 L1233.12 1568.04 L1227.23 1568.04 L1227.23 1546.72 Q1227.23 1541.56 1225.41 1539.11 Q1223.6 1536.63 1219.81 1536.63 Q1215.32 1536.63 1212.68 1539.68 Q1210.04 1542.71 1210.04 1547.9 L1210.04 1568.04 L1204.15 1568.04 L1204.15 1532.4 L1210.04 1532.4 L1210.04 1537.93 Q1212.04 1534.66 1214.85 1533.1 Q1217.65 1531.54 1221.5 1531.54 Q1225.38 1531.54 1228.09 1533.51 Q1230.82 1535.48 1232.13 1539.24 Z" fill="#000000" fill-rule="nonzero" fill-opacity="1" /><path clip-path="url(#clip430)" d="M1298.36 1548.76 L1298.36 1551.62 L1271.44 1551.62 Q1271.82 1557.67 1275.07 1560.85 Q1278.34 1564 1284.17 1564 Q1287.54 1564 1290.69 1563.17 Q1293.88 1562.35 1297 1560.69 L1297 1566.23 Q1293.84 1567.57 1290.53 1568.27 Q1287.22 1568.97 1283.82 1568.97 Q1275.29 1568.97 1270.29 1564 Q1265.33 1559.04 1265.33 1550.57 Q1265.33 1541.82 1270.04 1536.69 Q1274.78 1531.54 1282.8 1531.54 Q1289.99 1531.54 1294.16 1536.18 Q1298.36 1540.8 1298.36 1548.76 M1292.51 1547.04 Q1292.44 1542.23 1289.8 1539.37 Q1287.19 1536.5 1282.86 1536.5 Q1277.96 1536.5 1275 1539.27 Q1272.07 1542.04 1271.63 1547.07 L1292.51 1547.04 Z" fill="#000000" fill-rule="nonzero" fill-opacity="1" /><path clip-path="url(#clip430)" d="M1339.1 1520.52 L1344.52 1520.52 L1327.96 1574.09 L1322.55 1574.09 L1339.1 1520.52 Z" fill="#000000" fill-rule="nonzero" fill-opacity="1" /><path clip-path="url(#clip430)" d="M1366.86 1550.12 Q1359.76 1550.12 1357.02 1551.75 Q1354.29 1553.37 1354.29 1557.29 Q1354.29 1560.4 1356.32 1562.25 Q1358.39 1564.07 1361.93 1564.07 Q1366.8 1564.07 1369.72 1560.63 Q1372.68 1557.16 1372.68 1551.43 L1372.68 1550.12 L1366.86 1550.12 M1378.54 1547.71 L1378.54 1568.04 L1372.68 1568.04 L1372.68 1562.63 Q1370.68 1565.88 1367.69 1567.44 Q1364.69 1568.97 1360.37 1568.97 Q1354.89 1568.97 1351.64 1565.91 Q1348.43 1562.82 1348.43 1557.67 Q1348.43 1551.65 1352.44 1548.6 Q1356.48 1545.54 1364.47 1545.54 L1372.68 1545.54 L1372.68 1544.97 Q1372.68 1540.93 1370.01 1538.73 Q1367.37 1536.5 1362.56 1536.5 Q1359.51 1536.5 1356.61 1537.23 Q1353.71 1537.97 1351.04 1539.43 L1351.04 1534.02 Q1354.25 1532.78 1357.28 1532.17 Q1360.3 1531.54 1363.17 1531.54 Q1370.9 1531.54 1374.72 1535.55 Q1378.54 1539.56 1378.54 1547.71 Z" fill="#000000" fill-rule="nonzero" fill-opacity="1" /><path clip-path="url(#clip430)" d="M1391.43 1559.96 L1398.15 1559.96 L1398.15 1568.04 L1391.43 1568.04 L1391.43 1559.96 Z" fill="#000000" fill-rule="nonzero" fill-opacity="1" /><path clip-path="url(#clip430)" d="M1410.72 1553.98 L1410.72 1532.4 L1416.58 1532.4 L1416.58 1553.75 Q1416.58 1558.81 1418.55 1561.36 Q1420.52 1563.87 1424.47 1563.87 Q1429.21 1563.87 1431.95 1560.85 Q1434.72 1557.83 1434.72 1552.61 L1434.72 1532.4 L1440.57 1532.4 L1440.57 1568.04 L1434.72 1568.04 L1434.72 1562.57 Q1432.58 1565.82 1429.75 1567.41 Q1426.95 1568.97 1423.23 1568.97 Q1417.08 1568.97 1413.9 1565.15 Q1410.72 1561.33 1410.72 1553.98 M1425.46 1531.54 L1425.46 1531.54 Z" fill="#000000" fill-rule="nonzero" fill-opacity="1" /><path clip-path="url(#clip430)" d="M1453.46 1559.96 L1460.18 1559.96 L1460.18 1568.04 L1453.46 1568.04 L1453.46 1559.96 Z" fill="#000000" fill-rule="nonzero" fill-opacity="1" /><polyline clip-path="url(#clip432)" style="stroke:#000000; stroke-linecap:round; stroke-linejoin:round; stroke-width:2; stroke-opacity:0.1; fill:none" points="249.542,1367.17 2352.76,1367.17 "/>
<polyline clip-path="url(#clip432)" style="stroke:#000000; stroke-linecap:round; stroke-linejoin:round; stroke-width:2; stroke-opacity:0.1; fill:none" points="249.542,1047.06 2352.76,1047.06 "/>
<polyline clip-path="url(#clip432)" style="stroke:#000000; stroke-linecap:round; stroke-linejoin:round; stroke-width:2; stroke-opacity:0.1; fill:none" points="249.542,726.95 2352.76,726.95 "/>
<polyline clip-path="url(#clip432)" style="stroke:#000000; stroke-linecap:round; stroke-linejoin:round; stroke-width:2; stroke-opacity:0.1; fill:none" points="249.542,406.84 2352.76,406.84 "/>
<polyline clip-path="url(#clip432)" style="stroke:#000000; stroke-linecap:round; stroke-linejoin:round; stroke-width:2; stroke-opacity:0.1; fill:none" points="249.542,86.7305 2352.76,86.7305 "/>
<polyline clip-path="url(#clip430)" style="stroke:#000000; stroke-linecap:round; stroke-linejoin:round; stroke-width:4; stroke-opacity:1; fill:none" points="249.542,1423.18 249.542,47.2441 "/>
<polyline clip-path="url(#clip430)" style="stroke:#000000; stroke-linecap:round; stroke-linejoin:round; stroke-width:4; stroke-opacity:1; fill:none" points="249.542,1367.17 268.44,1367.17 "/>
<polyline clip-path="url(#clip430)" style="stroke:#000000; stroke-linecap:round; stroke-linejoin:round; stroke-width:4; stroke-opacity:1; fill:none" points="249.542,1047.06 268.44,1047.06 "/>
<polyline clip-path="url(#clip430)" style="stroke:#000000; stroke-linecap:round; stroke-linejoin:round; stroke-width:4; stroke-opacity:1; fill:none" points="249.542,726.95 268.44,726.95 "/>
<polyline clip-path="url(#clip430)" style="stroke:#000000; stroke-linecap:round; stroke-linejoin:round; stroke-width:4; stroke-opacity:1; fill:none" points="249.542,406.84 268.44,406.84 "/>
<polyline clip-path="url(#clip430)" style="stroke:#000000; stroke-linecap:round; stroke-linejoin:round; stroke-width:4; stroke-opacity:1; fill:none" points="249.542,86.7305 268.44,86.7305 "/>
<path clip-path="url(#clip430)" d="M126.205 1352.97 Q122.593 1352.97 120.765 1356.53 Q118.959 1360.08 118.959 1367.2 Q118.959 1374.31 120.765 1377.88 Q122.593 1381.42 126.205 1381.42 Q129.839 1381.42 131.644 1377.88 Q133.473 1374.31 133.473 1367.2 Q133.473 1360.08 131.644 1356.53 Q129.839 1352.97 126.205 1352.97 M126.205 1349.27 Q132.015 1349.27 135.07 1353.87 Q138.149 1358.46 138.149 1367.2 Q138.149 1375.93 135.07 1380.54 Q132.015 1385.12 126.205 1385.12 Q120.394 1385.12 117.316 1380.54 Q114.26 1375.93 114.26 1367.2 Q114.26 1358.46 117.316 1353.87 Q120.394 1349.27 126.205 1349.27 Z" fill="#000000" fill-rule="nonzero" fill-opacity="1" /><path clip-path="url(#clip430)" d="M146.366 1378.57 L151.251 1378.57 L151.251 1384.45 L146.366 1384.45 L146.366 1378.57 Z" fill="#000000" fill-rule="nonzero" fill-opacity="1" /><path clip-path="url(#clip430)" d="M171.436 1352.97 Q167.825 1352.97 165.996 1356.53 Q164.19 1360.08 164.19 1367.2 Q164.19 1374.31 165.996 1377.88 Q167.825 1381.42 171.436 1381.42 Q175.07 1381.42 176.876 1377.88 Q178.704 1374.31 178.704 1367.2 Q178.704 1360.08 176.876 1356.53 Q175.07 1352.97 171.436 1352.97 M171.436 1349.27 Q177.246 1349.27 180.301 1353.87 Q183.38 1358.46 183.38 1367.2 Q183.38 1375.93 180.301 1380.54 Q177.246 1385.12 171.436 1385.12 Q165.626 1385.12 162.547 1380.54 Q159.491 1375.93 159.491 1367.2 Q159.491 1358.46 162.547 1353.87 Q165.626 1349.27 171.436 1349.27 Z" fill="#000000" fill-rule="nonzero" fill-opacity="1" /><path clip-path="url(#clip430)" d="M201.598 1352.97 Q197.987 1352.97 196.158 1356.53 Q194.352 1360.08 194.352 1367.2 Q194.352 1374.31 196.158 1377.88 Q197.987 1381.42 201.598 1381.42 Q205.232 1381.42 207.037 1377.88 Q208.866 1374.31 208.866 1367.2 Q208.866 1360.08 207.037 1356.53 Q205.232 1352.97 201.598 1352.97 M201.598 1349.27 Q207.408 1349.27 210.463 1353.87 Q213.542 1358.46 213.542 1367.2 Q213.542 1375.93 210.463 1380.54 Q207.408 1385.12 201.598 1385.12 Q195.787 1385.12 192.709 1380.54 Q189.653 1375.93 189.653 1367.2 Q189.653 1358.46 192.709 1353.87 Q195.787 1349.27 201.598 1349.27 Z" fill="#000000" fill-rule="nonzero" fill-opacity="1" /><path clip-path="url(#clip430)" d="M127.2 1032.86 Q123.589 1032.86 121.76 1036.42 Q119.955 1039.97 119.955 1047.1 Q119.955 1054.2 121.76 1057.77 Q123.589 1061.31 127.2 1061.31 Q130.834 1061.31 132.64 1057.77 Q134.468 1054.2 134.468 1047.1 Q134.468 1039.97 132.64 1036.42 Q130.834 1032.86 127.2 1032.86 M127.2 1029.16 Q133.01 1029.16 136.066 1033.76 Q139.144 1038.35 139.144 1047.1 Q139.144 1055.82 136.066 1060.43 Q133.01 1065.01 127.2 1065.01 Q121.39 1065.01 118.311 1060.43 Q115.256 1055.82 115.256 1047.1 Q115.256 1038.35 118.311 1033.76 Q121.39 1029.16 127.2 1029.16 Z" fill="#000000" fill-rule="nonzero" fill-opacity="1" /><path clip-path="url(#clip430)" d="M147.362 1058.46 L152.246 1058.46 L152.246 1064.34 L147.362 1064.34 L147.362 1058.46 Z" fill="#000000" fill-rule="nonzero" fill-opacity="1" /><path clip-path="url(#clip430)" d="M166.459 1060.41 L182.778 1060.41 L182.778 1064.34 L160.834 1064.34 L160.834 1060.41 Q163.496 1057.65 168.079 1053.02 Q172.686 1048.37 173.866 1047.03 Q176.112 1044.5 176.991 1042.77 Q177.894 1041.01 177.894 1039.32 Q177.894 1036.56 175.95 1034.83 Q174.028 1033.09 170.927 1033.09 Q168.727 1033.09 166.274 1033.85 Q163.843 1034.62 161.065 1036.17 L161.065 1031.45 Q163.89 1030.31 166.343 1029.73 Q168.797 1029.16 170.834 1029.16 Q176.204 1029.16 179.399 1031.84 Q182.593 1034.53 182.593 1039.02 Q182.593 1041.15 181.783 1043.07 Q180.996 1044.97 178.889 1047.56 Q178.311 1048.23 175.209 1051.45 Q172.107 1054.64 166.459 1060.41 Z" fill="#000000" fill-rule="nonzero" fill-opacity="1" /><path clip-path="url(#clip430)" d="M192.639 1029.78 L210.996 1029.78 L210.996 1033.72 L196.922 1033.72 L196.922 1042.19 Q197.94 1041.84 198.959 1041.68 Q199.977 1041.49 200.996 1041.49 Q206.783 1041.49 210.162 1044.66 Q213.542 1047.84 213.542 1053.25 Q213.542 1058.83 210.07 1061.93 Q206.598 1065.01 200.278 1065.01 Q198.102 1065.01 195.834 1064.64 Q193.588 1064.27 191.181 1063.53 L191.181 1058.83 Q193.264 1059.97 195.487 1060.52 Q197.709 1061.08 200.186 1061.08 Q204.19 1061.08 206.528 1058.97 Q208.866 1056.86 208.866 1053.25 Q208.866 1049.64 206.528 1047.53 Q204.19 1045.43 200.186 1045.43 Q198.311 1045.43 196.436 1045.85 Q194.584 1046.26 192.639 1047.14 L192.639 1029.78 Z" fill="#000000" fill-rule="nonzero" fill-opacity="1" /><path clip-path="url(#clip430)" d="M126.205 712.749 Q122.593 712.749 120.765 716.314 Q118.959 719.855 118.959 726.985 Q118.959 734.092 120.765 737.656 Q122.593 741.198 126.205 741.198 Q129.839 741.198 131.644 737.656 Q133.473 734.092 133.473 726.985 Q133.473 719.855 131.644 716.314 Q129.839 712.749 126.205 712.749 M126.205 709.045 Q132.015 709.045 135.07 713.652 Q138.149 718.235 138.149 726.985 Q138.149 735.712 135.07 740.318 Q132.015 744.902 126.205 744.902 Q120.394 744.902 117.316 740.318 Q114.26 735.712 114.26 726.985 Q114.26 718.235 117.316 713.652 Q120.394 709.045 126.205 709.045 Z" fill="#000000" fill-rule="nonzero" fill-opacity="1" /><path clip-path="url(#clip430)" d="M146.366 738.351 L151.251 738.351 L151.251 744.23 L146.366 744.23 L146.366 738.351 Z" fill="#000000" fill-rule="nonzero" fill-opacity="1" /><path clip-path="url(#clip430)" d="M161.482 709.67 L179.839 709.67 L179.839 713.606 L165.765 713.606 L165.765 722.078 Q166.783 721.73 167.802 721.568 Q168.82 721.383 169.839 721.383 Q175.626 721.383 179.005 724.555 Q182.385 727.726 182.385 733.142 Q182.385 738.721 178.913 741.823 Q175.44 744.902 169.121 744.902 Q166.945 744.902 164.677 744.531 Q162.431 744.161 160.024 743.42 L160.024 738.721 Q162.107 739.855 164.329 740.411 Q166.552 740.966 169.028 740.966 Q173.033 740.966 175.371 738.86 Q177.709 736.754 177.709 733.142 Q177.709 729.531 175.371 727.425 Q173.033 725.318 169.028 725.318 Q167.153 725.318 165.278 725.735 Q163.427 726.152 161.482 727.031 L161.482 709.67 Z" fill="#000000" fill-rule="nonzero" fill-opacity="1" /><path clip-path="url(#clip430)" d="M201.598 712.749 Q197.987 712.749 196.158 716.314 Q194.352 719.855 194.352 726.985 Q194.352 734.092 196.158 737.656 Q197.987 741.198 201.598 741.198 Q205.232 741.198 207.037 737.656 Q208.866 734.092 208.866 726.985 Q208.866 719.855 207.037 716.314 Q205.232 712.749 201.598 712.749 M201.598 709.045 Q207.408 709.045 210.463 713.652 Q213.542 718.235 213.542 726.985 Q213.542 735.712 210.463 740.318 Q207.408 744.902 201.598 744.902 Q195.787 744.902 192.709 740.318 Q189.653 735.712 189.653 726.985 Q189.653 718.235 192.709 713.652 Q195.787 709.045 201.598 709.045 Z" fill="#000000" fill-rule="nonzero" fill-opacity="1" /><path clip-path="url(#clip430)" d="M127.2 392.639 Q123.589 392.639 121.76 396.204 Q119.955 399.746 119.955 406.875 Q119.955 413.982 121.76 417.546 Q123.589 421.088 127.2 421.088 Q130.834 421.088 132.64 417.546 Q134.468 413.982 134.468 406.875 Q134.468 399.746 132.64 396.204 Q130.834 392.639 127.2 392.639 M127.2 388.935 Q133.01 388.935 136.066 393.542 Q139.144 398.125 139.144 406.875 Q139.144 415.602 136.066 420.208 Q133.01 424.792 127.2 424.792 Q121.39 424.792 118.311 420.208 Q115.256 415.602 115.256 406.875 Q115.256 398.125 118.311 393.542 Q121.39 388.935 127.2 388.935 Z" fill="#000000" fill-rule="nonzero" fill-opacity="1" /><path clip-path="url(#clip430)" d="M147.362 418.241 L152.246 418.241 L152.246 424.12 L147.362 424.12 L147.362 418.241 Z" fill="#000000" fill-rule="nonzero" fill-opacity="1" /><path clip-path="url(#clip430)" d="M161.251 389.56 L183.473 389.56 L183.473 391.551 L170.927 424.12 L166.042 424.12 L177.848 393.496 L161.251 393.496 L161.251 389.56 Z" fill="#000000" fill-rule="nonzero" fill-opacity="1" /><path clip-path="url(#clip430)" d="M192.639 389.56 L210.996 389.56 L210.996 393.496 L196.922 393.496 L196.922 401.968 Q197.94 401.621 198.959 401.458 Q199.977 401.273 200.996 401.273 Q206.783 401.273 210.162 404.445 Q213.542 407.616 213.542 413.033 Q213.542 418.611 210.07 421.713 Q206.598 424.792 200.278 424.792 Q198.102 424.792 195.834 424.421 Q193.588 424.051 191.181 423.31 L191.181 418.611 Q193.264 419.745 195.487 420.301 Q197.709 420.857 200.186 420.857 Q204.19 420.857 206.528 418.75 Q208.866 416.644 208.866 413.033 Q208.866 409.421 206.528 407.315 Q204.19 405.208 200.186 405.208 Q198.311 405.208 196.436 405.625 Q194.584 406.042 192.639 406.921 L192.639 389.56 Z" fill="#000000" fill-rule="nonzero" fill-opacity="1" /><path clip-path="url(#clip430)" d="M117.015 100.075 L124.654 100.075 L124.654 73.7097 L116.343 75.3764 L116.343 71.1171 L124.607 69.4505 L129.283 69.4505 L129.283 100.075 L136.922 100.075 L136.922 104.01 L117.015 104.01 L117.015 100.075 Z" fill="#000000" fill-rule="nonzero" fill-opacity="1" /><path clip-path="url(#clip430)" d="M146.366 98.1309 L151.251 98.1309 L151.251 104.01 L146.366 104.01 L146.366 98.1309 Z" fill="#000000" fill-rule="nonzero" fill-opacity="1" /><path clip-path="url(#clip430)" d="M171.436 72.5291 Q167.825 72.5291 165.996 76.0939 Q164.19 79.6356 164.19 86.7652 Q164.19 93.8716 165.996 97.4364 Q167.825 100.978 171.436 100.978 Q175.07 100.978 176.876 97.4364 Q178.704 93.8716 178.704 86.7652 Q178.704 79.6356 176.876 76.0939 Q175.07 72.5291 171.436 72.5291 M171.436 68.8255 Q177.246 68.8255 180.301 73.4319 Q183.38 78.0152 183.38 86.7652 Q183.38 95.492 180.301 100.098 Q177.246 104.682 171.436 104.682 Q165.626 104.682 162.547 100.098 Q159.491 95.492 159.491 86.7652 Q159.491 78.0152 162.547 73.4319 Q165.626 68.8255 171.436 68.8255 Z" fill="#000000" fill-rule="nonzero" fill-opacity="1" /><path clip-path="url(#clip430)" d="M201.598 72.5291 Q197.987 72.5291 196.158 76.0939 Q194.352 79.6356 194.352 86.7652 Q194.352 93.8716 196.158 97.4364 Q197.987 100.978 201.598 100.978 Q205.232 100.978 207.037 97.4364 Q208.866 93.8716 208.866 86.7652 Q208.866 79.6356 207.037 76.0939 Q205.232 72.5291 201.598 72.5291 M201.598 68.8255 Q207.408 68.8255 210.463 73.4319 Q213.542 78.0152 213.542 86.7652 Q213.542 95.492 210.463 100.098 Q207.408 104.682 201.598 104.682 Q195.787 104.682 192.709 100.098 Q189.653 95.492 189.653 86.7652 Q189.653 78.0152 192.709 73.4319 Q195.787 68.8255 201.598 68.8255 Z" fill="#000000" fill-rule="nonzero" fill-opacity="1" /><path clip-path="url(#clip430)" d="M21.7677 894.052 L39.6235 894.052 L39.6235 885.968 Q39.6235 881.48 37.3 879.029 Q34.9765 876.578 30.6797 876.578 Q26.4147 876.578 24.0912 879.029 Q21.7677 881.48 21.7677 885.968 L21.7677 894.052 M16.4842 900.482 L16.4842 885.968 Q16.4842 877.979 20.1126 873.905 Q23.7092 869.799 30.6797 869.799 Q37.7138 869.799 41.3104 873.905 Q44.907 877.979 44.907 885.968 L44.907 894.052 L64.0042 894.052 L64.0042 900.482 L16.4842 900.482 Z" fill="#000000" fill-rule="nonzero" fill-opacity="1" /><path clip-path="url(#clip430)" d="M32.4621 849.938 Q32.4621 854.649 36.1542 857.386 Q39.8145 860.123 46.212 860.123 Q52.6095 860.123 56.3017 857.418 Q59.9619 854.68 59.9619 849.938 Q59.9619 845.259 56.2698 842.522 Q52.5777 839.785 46.212 839.785 Q39.8781 839.785 36.186 842.522 Q32.4621 845.259 32.4621 849.938 M27.4968 849.938 Q27.4968 842.299 32.4621 837.939 Q37.4273 833.578 46.212 833.578 Q54.9649 833.578 59.9619 837.939 Q64.9272 842.299 64.9272 849.938 Q64.9272 857.609 59.9619 861.969 Q54.9649 866.298 46.212 866.298 Q37.4273 866.298 32.4621 861.969 Q27.4968 857.609 27.4968 849.938 Z" fill="#000000" fill-rule="nonzero" fill-opacity="1" /><path clip-path="url(#clip430)" d="M58.657 818.205 L77.5631 818.205 L77.5631 824.093 L28.3562 824.093 L28.3562 818.205 L33.7671 818.205 Q30.5842 816.359 29.0564 813.558 Q27.4968 810.725 27.4968 806.81 Q27.4968 800.317 32.6531 796.275 Q37.8093 792.201 46.212 792.201 Q54.6147 792.201 59.771 796.275 Q64.9272 800.317 64.9272 806.81 Q64.9272 810.725 63.3994 813.558 Q61.8398 816.359 58.657 818.205 M46.212 798.28 Q39.7508 798.28 36.0905 800.954 Q32.3984 803.596 32.3984 808.243 Q32.3984 812.89 36.0905 815.563 Q39.7508 818.205 46.212 818.205 Q52.6732 818.205 56.3653 815.563 Q60.0256 812.89 60.0256 808.243 Q60.0256 803.596 56.3653 800.954 Q52.6732 798.28 46.212 798.28 Z" fill="#000000" fill-rule="nonzero" fill-opacity="1" /><path clip-path="url(#clip430)" d="M49.9359 783.098 L28.3562 783.098 L28.3562 777.242 L49.7131 777.242 Q54.7739 777.242 57.3202 775.268 Q59.8346 773.295 59.8346 769.348 Q59.8346 764.606 56.8109 761.868 Q53.7872 759.099 48.5673 759.099 L28.3562 759.099 L28.3562 753.243 L64.0042 753.243 L64.0042 759.099 L58.5296 759.099 Q61.7762 761.232 63.3676 764.065 Q64.9272 766.865 64.9272 770.589 Q64.9272 776.732 61.1078 779.915 Q57.2883 783.098 49.9359 783.098 M27.4968 768.361 L27.4968 768.361 Z" fill="#000000" fill-rule="nonzero" fill-opacity="1" /><path clip-path="url(#clip430)" d="M14.479 741.18 L14.479 735.323 L64.0042 735.323 L64.0042 741.18 L14.479 741.18 Z" fill="#000000" fill-rule="nonzero" fill-opacity="1" /><path clip-path="url(#clip430)" d="M46.0847 706.869 Q46.0847 713.966 47.7079 716.704 Q49.3312 719.441 53.2461 719.441 Q56.3653 719.441 58.2114 717.404 Q60.0256 715.335 60.0256 711.802 Q60.0256 706.932 56.5881 704.004 Q53.1188 701.044 47.3897 701.044 L46.0847 701.044 L46.0847 706.869 M43.6657 695.188 L64.0042 695.188 L64.0042 701.044 L58.5933 701.044 Q61.8398 703.049 63.3994 706.041 Q64.9272 709.033 64.9272 713.362 Q64.9272 718.836 61.8716 722.083 Q58.7843 725.297 53.6281 725.297 Q47.6125 725.297 44.5569 721.287 Q41.5014 717.245 41.5014 709.256 L41.5014 701.044 L40.9285 701.044 Q36.8862 701.044 34.6901 703.718 Q32.4621 706.359 32.4621 711.166 Q32.4621 714.221 33.1941 717.117 Q33.9262 720.014 35.3903 722.687 L29.9795 722.687 Q28.7381 719.473 28.1334 716.449 Q27.4968 713.425 27.4968 710.561 Q27.4968 702.826 31.5072 699.007 Q35.5176 695.188 43.6657 695.188 Z" fill="#000000" fill-rule="nonzero" fill-opacity="1" /><path clip-path="url(#clip430)" d="M18.2347 677.332 L28.3562 677.332 L28.3562 665.269 L32.9077 665.269 L32.9077 677.332 L52.2594 677.332 Q56.6199 677.332 57.8613 676.154 Q59.1026 674.945 59.1026 671.284 L59.1026 665.269 L64.0042 665.269 L64.0042 671.284 Q64.0042 678.064 61.4897 680.642 Q58.9434 683.22 52.2594 683.22 L32.9077 683.22 L32.9077 687.517 L28.3562 687.517 L28.3562 683.22 L18.2347 683.22 L18.2347 677.332 Z" fill="#000000" fill-rule="nonzero" fill-opacity="1" /><path clip-path="url(#clip430)" d="M28.3562 657.566 L28.3562 651.71 L64.0042 651.71 L64.0042 657.566 L28.3562 657.566 M14.479 657.566 L14.479 651.71 L21.895 651.71 L21.895 657.566 L14.479 657.566 Z" fill="#000000" fill-rule="nonzero" fill-opacity="1" /><path clip-path="url(#clip430)" d="M32.4621 625.642 Q32.4621 630.353 36.1542 633.09 Q39.8145 635.827 46.212 635.827 Q52.6095 635.827 56.3017 633.122 Q59.9619 630.385 59.9619 625.642 Q59.9619 620.963 56.2698 618.226 Q52.5777 615.489 46.212 615.489 Q39.8781 615.489 36.186 618.226 Q32.4621 620.963 32.4621 625.642 M27.4968 625.642 Q27.4968 618.003 32.4621 613.643 Q37.4273 609.282 46.212 609.282 Q54.9649 609.282 59.9619 613.643 Q64.9272 618.003 64.9272 625.642 Q64.9272 633.313 59.9619 637.673 Q54.9649 642.002 46.212 642.002 Q37.4273 642.002 32.4621 637.673 Q27.4968 633.313 27.4968 625.642 Z" fill="#000000" fill-rule="nonzero" fill-opacity="1" /><path clip-path="url(#clip430)" d="M42.4881 569.942 L64.0042 569.942 L64.0042 575.799 L42.679 575.799 Q37.6183 575.799 35.1038 577.772 Q32.5894 579.745 32.5894 583.692 Q32.5894 588.435 35.6131 591.172 Q38.6368 593.909 43.8567 593.909 L64.0042 593.909 L64.0042 599.797 L28.3562 599.797 L28.3562 593.909 L33.8944 593.909 Q30.6797 591.809 29.0883 588.976 Q27.4968 586.111 27.4968 582.387 Q27.4968 576.244 31.3163 573.093 Q35.1038 569.942 42.4881 569.942 Z" fill="#000000" fill-rule="nonzero" fill-opacity="1" /><polyline clip-path="url(#clip432)" style="stroke:#009af9; stroke-linecap:round; stroke-linejoin:round; stroke-width:4; stroke-opacity:1; fill:none" points="309.067,86.7305 342.136,86.7305 375.206,86.7305 408.275,86.7305 441.345,86.7305 474.414,86.7305 507.483,86.7305 540.553,86.7305 573.622,86.7305 606.692,86.7305 639.761,86.7305 672.83,86.7305 705.9,86.7305 738.969,86.7305 772.039,86.7299 805.108,86.705 838.177,86.1857 871.247,99.393 904.316,92.9624 937.386,91.8535 970.455,87.9853 1003.52,86.4828 1036.59,100.764 1069.66,148.798 1102.73,275.902 1135.8,339.966 1168.87,438.702 1201.94,555.496 1235.01,621.42 1268.08,695.383 1301.15,780.183 1334.22,859.742 1367.29,910.873 1400.36,907.257 1433.43,932.451 1466.5,934.94 1499.57,932.337 1532.63,920.544 1565.7,914.753 1598.77,924.897 1631.84,936.441 1664.91,932.72 1697.98,948.755 1731.05,1027.14 1764.12,1072.63 1797.19,1131.89 1830.26,1166.45 1863.33,1188.84 1896.4,1198.78 1929.47,1225.38 1962.54,1300.5 1995.61,1307.62 2028.68,1314.11 2061.75,1315.92 2094.81,1315.96 2127.88,1315.95 2160.95,1315.95 2194.02,1315.95 2227.09,1315.95 2260.16,1315.95 2293.23,1315.95 "/>
<polyline clip-path="url(#clip432)" style="stroke:#e26f46; stroke-linecap:round; stroke-linejoin:round; stroke-width:4; stroke-opacity:1; fill:none" points="309.067,1367.17 342.136,1367.17 375.206,1367.17 408.275,1367.17 441.345,1367.17 474.414,1367.17 507.483,1367.17 540.553,1367.17 573.622,1367.17 606.692,1367.17 639.761,1367.17 672.83,1367.17 705.9,1367.17 738.969,1367.17 772.039,1367.17 805.108,1367.2 838.177,1367.72 871.247,1354.51 904.316,1360.94 937.386,1362.05 970.455,1365.92 1003.52,1367.42 1036.59,1353.14 1069.66,1305.1 1102.73,1178 1135.8,1113.94 1168.87,1015.2 1201.94,898.405 1235.01,832.48 1268.08,758.518 1301.15,673.718 1334.22,594.159 1367.29,543.028 1400.36,546.66 1433.43,521.984 1466.5,522.076 1499.57,522.08 1532.63,522.08 1565.7,522.08 1598.77,522.08 1631.84,522.08 1664.91,522.08 1697.98,522.08 1731.05,522.08 1764.12,522.08 1797.19,522.08 1830.26,522.08 1863.33,522.08 1896.4,522.08 1929.47,522.08 1962.54,522.08 1995.61,522.08 2028.68,522.08 2061.75,522.08 2094.81,522.08 2127.88,522.08 2160.95,522.08 2194.02,522.08 2227.09,522.08 2260.16,522.08 2293.23,522.08 "/>
<polyline clip-path="url(#clip432)" style="stroke:#3da44d; stroke-linecap:round; stroke-linejoin:round; stroke-width:4; stroke-opacity:1; fill:none" points="309.067,1367.17 342.136,1367.17 375.206,1367.17 408.275,1367.17 441.345,1367.17 474.414,1367.17 507.483,1367.17 540.553,1367.17 573.622,1367.17 606.692,1367.17 639.761,1367.17 672.83,1367.17 705.9,1367.17 738.969,1367.17 772.039,1367.17 805.108,1367.17 838.177,1367.17 871.247,1367.17 904.316,1367.17 937.386,1367.17 970.455,1367.17 1003.52,1367.17 1036.59,1367.17 1069.66,1367.17 1102.73,1367.17 1135.8,1367.17 1168.87,1367.17 1201.94,1367.17 1235.01,1367.17 1268.08,1367.17 1301.15,1367.17 1334.22,1367.17 1367.29,1367.17 1400.36,1367.15 1433.43,1366.64 1466.5,1364.05 1499.57,1366.65 1532.63,1378.45 1565.7,1384.24 1598.77,1374.09 1631.84,1362.55 1664.91,1366.27 1697.98,1350.24 1731.05,1271.85 1764.12,1226.36 1797.19,1167.1 1830.26,1132.54 1863.33,1110.15 1896.4,1100.21 1929.47,1073.61 1962.54,998.496 1995.61,991.372 2028.68,984.876 2061.75,983.076 2094.81,983.03 2127.88,983.037 2160.95,983.038 2194.02,983.038 2227.09,983.038 2260.16,983.038 2293.23,983.038 "/>
<path clip-path="url(#clip430)" d="M1908.53 300.469 L2282.65 300.469 L2282.65 93.1086 L1908.53 93.1086  Z" fill="#ffffff" fill-rule="evenodd" fill-opacity="1"/>
<polyline clip-path="url(#clip430)" style="stroke:#000000; stroke-linecap:round; stroke-linejoin:round; stroke-width:4; stroke-opacity:1; fill:none" points="1908.53,300.469 2282.65,300.469 2282.65,93.1086 1908.53,93.1086 1908.53,300.469 "/>
<polyline clip-path="url(#clip430)" style="stroke:#009af9; stroke-linecap:round; stroke-linejoin:round; stroke-width:4; stroke-opacity:1; fill:none" points="1931.9,144.949 2072.12,144.949 "/>
<path clip-path="url(#clip430)" d="M2117.73 128.803 L2117.73 133.363 Q2115.07 132.09 2112.71 131.465 Q2110.35 130.84 2108.15 130.84 Q2104.33 130.84 2102.24 132.321 Q2100.18 133.803 2100.18 136.534 Q2100.18 138.826 2101.55 140.007 Q2102.94 141.164 2106.78 141.882 L2109.6 142.46 Q2114.84 143.456 2117.31 145.979 Q2119.81 148.479 2119.81 152.692 Q2119.81 157.715 2116.43 160.307 Q2113.08 162.9 2106.57 162.9 Q2104.12 162.9 2101.34 162.344 Q2098.59 161.789 2095.62 160.701 L2095.62 155.886 Q2098.47 157.483 2101.2 158.293 Q2103.93 159.104 2106.57 159.104 Q2110.58 159.104 2112.75 157.53 Q2114.93 155.956 2114.93 153.039 Q2114.93 150.493 2113.35 149.057 Q2111.8 147.622 2108.24 146.905 L2105.39 146.349 Q2100.16 145.307 2097.82 143.085 Q2095.48 140.863 2095.48 136.905 Q2095.48 132.321 2098.7 129.682 Q2101.94 127.044 2107.61 127.044 Q2110.04 127.044 2112.57 127.483 Q2115.09 127.923 2117.73 128.803 Z" fill="#000000" fill-rule="nonzero" fill-opacity="1" /><path clip-path="url(#clip430)" d="M2131.13 128.942 L2131.13 136.303 L2139.91 136.303 L2139.91 139.613 L2131.13 139.613 L2131.13 153.687 Q2131.13 156.858 2131.99 157.761 Q2132.87 158.664 2135.53 158.664 L2139.91 158.664 L2139.91 162.229 L2135.53 162.229 Q2130.6 162.229 2128.72 160.4 Q2126.85 158.548 2126.85 153.687 L2126.85 139.613 L2123.72 139.613 L2123.72 136.303 L2126.85 136.303 L2126.85 128.942 L2131.13 128.942 Z" fill="#000000" fill-rule="nonzero" fill-opacity="1" /><path clip-path="url(#clip430)" d="M2157.29 149.196 Q2152.13 149.196 2150.14 150.377 Q2148.15 151.557 2148.15 154.405 Q2148.15 156.673 2149.63 158.016 Q2151.13 159.335 2153.7 159.335 Q2157.24 159.335 2159.37 156.835 Q2161.53 154.312 2161.53 150.145 L2161.53 149.196 L2157.29 149.196 M2165.78 147.437 L2165.78 162.229 L2161.53 162.229 L2161.53 158.293 Q2160.07 160.655 2157.89 161.789 Q2155.72 162.9 2152.57 162.9 Q2148.59 162.9 2146.22 160.678 Q2143.89 158.432 2143.89 154.682 Q2143.89 150.307 2146.8 148.085 Q2149.74 145.863 2155.55 145.863 L2161.53 145.863 L2161.53 145.446 Q2161.53 142.507 2159.58 140.909 Q2157.66 139.289 2154.16 139.289 Q2151.94 139.289 2149.84 139.821 Q2147.73 140.354 2145.78 141.419 L2145.78 137.483 Q2148.12 136.581 2150.32 136.141 Q2152.52 135.678 2154.6 135.678 Q2160.23 135.678 2163.01 138.594 Q2165.78 141.511 2165.78 147.437 Z" fill="#000000" fill-rule="nonzero" fill-opacity="1" /><path clip-path="url(#clip430)" d="M2178.77 128.942 L2178.77 136.303 L2187.54 136.303 L2187.54 139.613 L2178.77 139.613 L2178.77 153.687 Q2178.77 156.858 2179.63 157.761 Q2180.51 158.664 2183.17 158.664 L2187.54 158.664 L2187.54 162.229 L2183.17 162.229 Q2178.24 162.229 2176.36 160.4 Q2174.49 158.548 2174.49 153.687 L2174.49 139.613 L2171.36 139.613 L2171.36 136.303 L2174.49 136.303 L2174.49 128.942 L2178.77 128.942 Z" fill="#000000" fill-rule="nonzero" fill-opacity="1" /><path clip-path="url(#clip430)" d="M2215.32 148.201 L2215.32 150.284 L2195.74 150.284 Q2196.02 154.682 2198.38 156.997 Q2200.76 159.289 2205 159.289 Q2207.45 159.289 2209.74 158.687 Q2212.06 158.085 2214.33 156.881 L2214.33 160.909 Q2212.03 161.881 2209.63 162.391 Q2207.22 162.9 2204.74 162.9 Q2198.54 162.9 2194.91 159.289 Q2191.29 155.678 2191.29 149.52 Q2191.29 143.155 2194.72 139.428 Q2198.17 135.678 2204 135.678 Q2209.23 135.678 2212.27 139.057 Q2215.32 142.414 2215.32 148.201 M2211.06 146.951 Q2211.02 143.456 2209.09 141.372 Q2207.2 139.289 2204.05 139.289 Q2200.48 139.289 2198.33 141.303 Q2196.2 143.317 2195.88 146.974 L2211.06 146.951 Z" fill="#000000" fill-rule="nonzero" fill-opacity="1" /><path clip-path="url(#clip430)" d="M2238.79 158.293 L2246.43 158.293 L2246.43 131.928 L2238.12 133.595 L2238.12 129.335 L2246.39 127.669 L2251.06 127.669 L2251.06 158.293 L2258.7 158.293 L2258.7 162.229 L2238.79 162.229 L2238.79 158.293 Z" fill="#000000" fill-rule="nonzero" fill-opacity="1" /><polyline clip-path="url(#clip430)" style="stroke:#e26f46; stroke-linecap:round; stroke-linejoin:round; stroke-width:4; stroke-opacity:1; fill:none" points="1931.9,196.789 2072.12,196.789 "/>
<path clip-path="url(#clip430)" d="M2117.73 180.643 L2117.73 185.203 Q2115.07 183.93 2112.71 183.305 Q2110.35 182.68 2108.15 182.68 Q2104.33 182.68 2102.24 184.161 Q2100.18 185.643 2100.18 188.374 Q2100.18 190.666 2101.55 191.847 Q2102.94 193.004 2106.78 193.722 L2109.6 194.3 Q2114.84 195.296 2117.31 197.819 Q2119.81 200.319 2119.81 204.532 Q2119.81 209.555 2116.43 212.147 Q2113.08 214.74 2106.57 214.74 Q2104.12 214.74 2101.34 214.184 Q2098.59 213.629 2095.62 212.541 L2095.62 207.726 Q2098.47 209.323 2101.2 210.133 Q2103.93 210.944 2106.57 210.944 Q2110.58 210.944 2112.75 209.37 Q2114.93 207.796 2114.93 204.879 Q2114.93 202.333 2113.35 200.897 Q2111.8 199.462 2108.24 198.745 L2105.39 198.189 Q2100.16 197.147 2097.82 194.925 Q2095.48 192.703 2095.48 188.745 Q2095.48 184.161 2098.7 181.522 Q2101.94 178.884 2107.61 178.884 Q2110.04 178.884 2112.57 179.323 Q2115.09 179.763 2117.73 180.643 Z" fill="#000000" fill-rule="nonzero" fill-opacity="1" /><path clip-path="url(#clip430)" d="M2131.13 180.782 L2131.13 188.143 L2139.91 188.143 L2139.91 191.453 L2131.13 191.453 L2131.13 205.527 Q2131.13 208.698 2131.99 209.601 Q2132.87 210.504 2135.53 210.504 L2139.91 210.504 L2139.91 214.069 L2135.53 214.069 Q2130.6 214.069 2128.72 212.24 Q2126.85 210.388 2126.85 205.527 L2126.85 191.453 L2123.72 191.453 L2123.72 188.143 L2126.85 188.143 L2126.85 180.782 L2131.13 180.782 Z" fill="#000000" fill-rule="nonzero" fill-opacity="1" /><path clip-path="url(#clip430)" d="M2157.29 201.036 Q2152.13 201.036 2150.14 202.217 Q2148.15 203.397 2148.15 206.245 Q2148.15 208.513 2149.63 209.856 Q2151.13 211.175 2153.7 211.175 Q2157.24 211.175 2159.37 208.675 Q2161.53 206.152 2161.53 201.985 L2161.53 201.036 L2157.29 201.036 M2165.78 199.277 L2165.78 214.069 L2161.53 214.069 L2161.53 210.133 Q2160.07 212.495 2157.89 213.629 Q2155.72 214.74 2152.57 214.74 Q2148.59 214.74 2146.22 212.518 Q2143.89 210.272 2143.89 206.522 Q2143.89 202.147 2146.8 199.925 Q2149.74 197.703 2155.55 197.703 L2161.53 197.703 L2161.53 197.286 Q2161.53 194.347 2159.58 192.749 Q2157.66 191.129 2154.16 191.129 Q2151.94 191.129 2149.84 191.661 Q2147.73 192.194 2145.78 193.259 L2145.78 189.323 Q2148.12 188.421 2150.32 187.981 Q2152.52 187.518 2154.6 187.518 Q2160.23 187.518 2163.01 190.434 Q2165.78 193.351 2165.78 199.277 Z" fill="#000000" fill-rule="nonzero" fill-opacity="1" /><path clip-path="url(#clip430)" d="M2178.77 180.782 L2178.77 188.143 L2187.54 188.143 L2187.54 191.453 L2178.77 191.453 L2178.77 205.527 Q2178.77 208.698 2179.63 209.601 Q2180.51 210.504 2183.17 210.504 L2187.54 210.504 L2187.54 214.069 L2183.17 214.069 Q2178.24 214.069 2176.36 212.24 Q2174.49 210.388 2174.49 205.527 L2174.49 191.453 L2171.36 191.453 L2171.36 188.143 L2174.49 188.143 L2174.49 180.782 L2178.77 180.782 Z" fill="#000000" fill-rule="nonzero" fill-opacity="1" /><path clip-path="url(#clip430)" d="M2215.32 200.041 L2215.32 202.124 L2195.74 202.124 Q2196.02 206.522 2198.38 208.837 Q2200.76 211.129 2205 211.129 Q2207.45 211.129 2209.74 210.527 Q2212.06 209.925 2214.33 208.721 L2214.33 212.749 Q2212.03 213.721 2209.63 214.231 Q2207.22 214.74 2204.74 214.74 Q2198.54 214.74 2194.91 211.129 Q2191.29 207.518 2191.29 201.36 Q2191.29 194.995 2194.72 191.268 Q2198.17 187.518 2204 187.518 Q2209.23 187.518 2212.27 190.897 Q2215.32 194.254 2215.32 200.041 M2211.06 198.791 Q2211.02 195.296 2209.09 193.212 Q2207.2 191.129 2204.05 191.129 Q2200.48 191.129 2198.33 193.143 Q2196.2 195.157 2195.88 198.814 L2211.06 198.791 Z" fill="#000000" fill-rule="nonzero" fill-opacity="1" /><path clip-path="url(#clip430)" d="M2242.01 210.133 L2258.33 210.133 L2258.33 214.069 L2236.39 214.069 L2236.39 210.133 Q2239.05 207.379 2243.63 202.749 Q2248.24 198.096 2249.42 196.754 Q2251.66 194.231 2252.54 192.495 Q2253.45 190.735 2253.45 189.046 Q2253.45 186.291 2251.5 184.555 Q2249.58 182.819 2246.48 182.819 Q2244.28 182.819 2241.83 183.583 Q2239.4 184.347 2236.62 185.897 L2236.62 181.175 Q2239.44 180.041 2241.9 179.462 Q2244.35 178.884 2246.39 178.884 Q2251.76 178.884 2254.95 181.569 Q2258.15 184.254 2258.15 188.745 Q2258.15 190.874 2257.34 192.796 Q2256.55 194.694 2254.44 197.286 Q2253.86 197.958 2250.76 201.175 Q2247.66 204.37 2242.01 210.133 Z" fill="#000000" fill-rule="nonzero" fill-opacity="1" /><polyline clip-path="url(#clip430)" style="stroke:#3da44d; stroke-linecap:round; stroke-linejoin:round; stroke-width:4; stroke-opacity:1; fill:none" points="1931.9,248.629 2072.12,248.629 "/>
<path clip-path="url(#clip430)" d="M2117.73 232.483 L2117.73 237.043 Q2115.07 235.77 2112.71 235.145 Q2110.35 234.52 2108.15 234.52 Q2104.33 234.52 2102.24 236.001 Q2100.18 237.483 2100.18 240.214 Q2100.18 242.506 2101.55 243.687 Q2102.94 244.844 2106.78 245.562 L2109.6 246.14 Q2114.84 247.136 2117.31 249.659 Q2119.81 252.159 2119.81 256.372 Q2119.81 261.395 2116.43 263.987 Q2113.08 266.58 2106.57 266.58 Q2104.12 266.58 2101.34 266.024 Q2098.59 265.469 2095.62 264.381 L2095.62 259.566 Q2098.47 261.163 2101.2 261.973 Q2103.93 262.784 2106.57 262.784 Q2110.58 262.784 2112.75 261.21 Q2114.93 259.636 2114.93 256.719 Q2114.93 254.173 2113.35 252.737 Q2111.8 251.302 2108.24 250.585 L2105.39 250.029 Q2100.16 248.987 2097.82 246.765 Q2095.48 244.543 2095.48 240.585 Q2095.48 236.001 2098.7 233.362 Q2101.94 230.724 2107.61 230.724 Q2110.04 230.724 2112.57 231.163 Q2115.09 231.603 2117.73 232.483 Z" fill="#000000" fill-rule="nonzero" fill-opacity="1" /><path clip-path="url(#clip430)" d="M2131.13 232.622 L2131.13 239.983 L2139.91 239.983 L2139.91 243.293 L2131.13 243.293 L2131.13 257.367 Q2131.13 260.538 2131.99 261.441 Q2132.87 262.344 2135.53 262.344 L2139.91 262.344 L2139.91 265.909 L2135.53 265.909 Q2130.6 265.909 2128.72 264.08 Q2126.85 262.228 2126.85 257.367 L2126.85 243.293 L2123.72 243.293 L2123.72 239.983 L2126.85 239.983 L2126.85 232.622 L2131.13 232.622 Z" fill="#000000" fill-rule="nonzero" fill-opacity="1" /><path clip-path="url(#clip430)" d="M2157.29 252.876 Q2152.13 252.876 2150.14 254.057 Q2148.15 255.237 2148.15 258.085 Q2148.15 260.353 2149.63 261.696 Q2151.13 263.015 2153.7 263.015 Q2157.24 263.015 2159.37 260.515 Q2161.53 257.992 2161.53 253.825 L2161.53 252.876 L2157.29 252.876 M2165.78 251.117 L2165.78 265.909 L2161.53 265.909 L2161.53 261.973 Q2160.07 264.335 2157.89 265.469 Q2155.72 266.58 2152.57 266.58 Q2148.59 266.58 2146.22 264.358 Q2143.89 262.112 2143.89 258.362 Q2143.89 253.987 2146.8 251.765 Q2149.74 249.543 2155.55 249.543 L2161.53 249.543 L2161.53 249.126 Q2161.53 246.187 2159.58 244.589 Q2157.66 242.969 2154.16 242.969 Q2151.94 242.969 2149.84 243.501 Q2147.73 244.034 2145.78 245.099 L2145.78 241.163 Q2148.12 240.261 2150.32 239.821 Q2152.52 239.358 2154.6 239.358 Q2160.23 239.358 2163.01 242.274 Q2165.78 245.191 2165.78 251.117 Z" fill="#000000" fill-rule="nonzero" fill-opacity="1" /><path clip-path="url(#clip430)" d="M2178.77 232.622 L2178.77 239.983 L2187.54 239.983 L2187.54 243.293 L2178.77 243.293 L2178.77 257.367 Q2178.77 260.538 2179.63 261.441 Q2180.51 262.344 2183.17 262.344 L2187.54 262.344 L2187.54 265.909 L2183.17 265.909 Q2178.24 265.909 2176.36 264.08 Q2174.49 262.228 2174.49 257.367 L2174.49 243.293 L2171.36 243.293 L2171.36 239.983 L2174.49 239.983 L2174.49 232.622 L2178.77 232.622 Z" fill="#000000" fill-rule="nonzero" fill-opacity="1" /><path clip-path="url(#clip430)" d="M2215.32 251.881 L2215.32 253.964 L2195.74 253.964 Q2196.02 258.362 2198.38 260.677 Q2200.76 262.969 2205 262.969 Q2207.45 262.969 2209.74 262.367 Q2212.06 261.765 2214.33 260.561 L2214.33 264.589 Q2212.03 265.561 2209.63 266.071 Q2207.22 266.58 2204.74 266.58 Q2198.54 266.58 2194.91 262.969 Q2191.29 259.358 2191.29 253.2 Q2191.29 246.835 2194.72 243.108 Q2198.17 239.358 2204 239.358 Q2209.23 239.358 2212.27 242.737 Q2215.32 246.094 2215.32 251.881 M2211.06 250.631 Q2211.02 247.136 2209.09 245.052 Q2207.2 242.969 2204.05 242.969 Q2200.48 242.969 2198.33 244.983 Q2196.2 246.997 2195.88 250.654 L2211.06 250.631 Z" fill="#000000" fill-rule="nonzero" fill-opacity="1" /><path clip-path="url(#clip430)" d="M2252.15 247.274 Q2255.51 247.992 2257.38 250.261 Q2259.28 252.529 2259.28 255.862 Q2259.28 260.978 2255.76 263.779 Q2252.24 266.58 2245.76 266.58 Q2243.59 266.58 2241.27 266.14 Q2238.98 265.723 2236.53 264.867 L2236.53 260.353 Q2238.47 261.487 2240.78 262.066 Q2243.1 262.645 2245.62 262.645 Q2250.02 262.645 2252.31 260.909 Q2254.63 259.173 2254.63 255.862 Q2254.63 252.807 2252.47 251.094 Q2250.34 249.358 2246.53 249.358 L2242.5 249.358 L2242.5 245.515 L2246.71 245.515 Q2250.16 245.515 2251.99 244.149 Q2253.82 242.761 2253.82 240.168 Q2253.82 237.506 2251.92 236.094 Q2250.04 234.659 2246.53 234.659 Q2244.6 234.659 2242.4 235.075 Q2240.21 235.492 2237.57 236.372 L2237.57 232.205 Q2240.23 231.464 2242.54 231.094 Q2244.88 230.724 2246.94 230.724 Q2252.27 230.724 2255.37 233.154 Q2258.47 235.562 2258.47 239.682 Q2258.47 242.552 2256.83 244.543 Q2255.18 246.511 2252.15 247.274 Z" fill="#000000" fill-rule="nonzero" fill-opacity="1" /></svg>
