<?xml version="1.0" encoding="utf-8"?>
<svg xmlns="http://www.w3.org/2000/svg" xmlns:xlink="http://www.w3.org/1999/xlink" width="600" height="400" viewBox="0 0 2400 1600">
<defs>
  <clipPath id="clip150">
    <rect x="0" y="0" width="2400" height="1600"/>
  </clipPath>
</defs>
<path clip-path="url(#clip150)" d="M0 1600 L2400 1600 L2400 0 L0 0  Z" fill="#ffffff" fill-rule="evenodd" fill-opacity="1"/>
<defs>
  <clipPath id="clip151">
    <rect x="480" y="0" width="1681" height="1600"/>
  </clipPath>
</defs>
<path clip-path="url(#clip150)" d="M250.028 1423.18 L2352.76 1423.18 L2352.76 47.2441 L250.028 47.2441  Z" fill="#ffffff" fill-rule="evenodd" fill-opacity="1"/>
<defs>
  <clipPath id="clip152">
    <rect x="250" y="47" width="2104" height="1377"/>
  </clipPath>
</defs>
<polyline clip-path="url(#clip152)" style="stroke:#000000; stroke-linecap:round; stroke-linejoin:round; stroke-width:2; stroke-opacity:0.1; fill:none" points="250.028,1423.18 250.028,47.2441 "/>
<polyline clip-path="url(#clip152)" style="stroke:#000000; stroke-linecap:round; stroke-linejoin:round; stroke-width:2; stroke-opacity:0.1; fill:none" points="670.574,1423.18 670.574,47.2441 "/>
<polyline clip-path="url(#clip152)" style="stroke:#000000; stroke-linecap:round; stroke-linejoin:round; stroke-width:2; stroke-opacity:0.1; fill:none" points="1091.12,1423.18 1091.12,47.2441 "/>
<polyline clip-path="url(#clip152)" style="stroke:#000000; stroke-linecap:round; stroke-linejoin:round; stroke-width:2; stroke-opacity:0.1; fill:none" points="1511.66,1423.18 1511.66,47.2441 "/>
<polyline clip-path="url(#clip152)" style="stroke:#000000; stroke-linecap:round; stroke-linejoin:round; stroke-width:2; stroke-opacity:0.1; fill:none" points="1932.21,1423.18 1932.21,47.2441 "/>
<polyline clip-path="url(#clip152)" style="stroke:#000000; stroke-linecap:round; stroke-linejoin:round; stroke-width:2; stroke-opacity:0.1; fill:none" points="2352.76,1423.18 2352.76,47.2441 "/>
<polyline clip-path="url(#clip150)" style="stroke:#000000; stroke-linecap:round; stroke-linejoin:round; stroke-width:4; stroke-opacity:1; fill:none" points="250.028,1423.18 2352.76,1423.18 "/>
<polyline clip-path="url(#clip150)" style="stroke:#000000; stroke-linecap:round; stroke-linejoin:round; stroke-width:4; stroke-opacity:1; fill:none" points="250.028,1423.18 250.028,1404.28 "/>
<polyline clip-path="url(#clip150)" style="stroke:#000000; stroke-linecap:round; stroke-linejoin:round; stroke-width:4; stroke-opacity:1; fill:none" points="670.574,1423.18 670.574,1404.28 "/>
<polyline clip-path="url(#clip150)" style="stroke:#000000; stroke-linecap:round; stroke-linejoin:round; stroke-width:4; stroke-opacity:1; fill:none" points="1091.12,1423.18 1091.12,1404.28 "/>
<polyline clip-path="url(#clip150)" style="stroke:#000000; stroke-linecap:round; stroke-linejoin:round; stroke-width:4; stroke-opacity:1; fill:none" points="1511.66,1423.18 1511.66,1404.28 "/>
<polyline clip-path="url(#clip150)" style="stroke:#000000; stroke-linecap:round; stroke-linejoin:round; stroke-width:4; stroke-opacity:1; fill:none" points="1932.21,1423.18 1932.21,1404.28 "/>
<polyline clip-path="url(#clip150)" style="stroke:#000000; stroke-linecap:round; stroke-linejoin:round; stroke-width:4; stroke-opacity:1; fill:none" points="2352.76,1423.18 2352.76,1404.28 "/>
<path clip-path="url(#clip150)" d="M244.681 1481.64 L261 1481.64 L261 1485.58 L239.056 1485.58 L239.056 1481.64 Q241.718 1478.89 246.301 1474.26 Q250.908 1469.61 252.088 1468.27 Q254.334 1465.74 255.213 1464.01 Q256.116 1462.25 256.116 1460.56 Q256.116 1457.8 254.172 1456.07 Q252.25 1454.33 249.149 1454.33 Q246.949 1454.33 244.496 1455.09 Q242.065 1455.86 239.287 1457.41 L239.287 1452.69 Q242.112 1451.55 244.565 1450.97 Q247.019 1450.39 249.056 1450.39 Q254.426 1450.39 257.621 1453.08 Q260.815 1455.77 260.815 1460.26 Q260.815 1462.39 260.005 1464.31 Q259.218 1466.2 257.111 1468.8 Q256.533 1469.47 253.431 1472.69 Q250.329 1475.88 244.681 1481.64 Z" fill="#000000" fill-rule="nonzero" fill-opacity="1" /><path clip-path="url(#clip150)" d="M673.583 1455.09 L661.777 1473.54 L673.583 1473.54 L673.583 1455.09 M672.356 1451.02 L678.236 1451.02 L678.236 1473.54 L683.166 1473.54 L683.166 1477.43 L678.236 1477.43 L678.236 1485.58 L673.583 1485.58 L673.583 1477.43 L657.981 1477.43 L657.981 1472.92 L672.356 1451.02 Z" fill="#000000" fill-rule="nonzero" fill-opacity="1" /><path clip-path="url(#clip150)" d="M1091.52 1466.44 Q1088.38 1466.44 1086.52 1468.59 Q1084.7 1470.74 1084.7 1474.49 Q1084.7 1478.22 1086.52 1480.39 Q1088.38 1482.55 1091.52 1482.55 Q1094.67 1482.55 1096.5 1480.39 Q1098.35 1478.22 1098.35 1474.49 Q1098.35 1470.74 1096.5 1468.59 Q1094.67 1466.44 1091.52 1466.44 M1100.81 1451.78 L1100.81 1456.04 Q1099.05 1455.21 1097.24 1454.77 Q1095.46 1454.33 1093.7 1454.33 Q1089.07 1454.33 1086.62 1457.45 Q1084.19 1460.58 1083.84 1466.9 Q1085.2 1464.89 1087.27 1463.82 Q1089.33 1462.73 1091.8 1462.73 Q1097.01 1462.73 1100.02 1465.9 Q1103.05 1469.05 1103.05 1474.49 Q1103.05 1479.82 1099.9 1483.03 Q1096.76 1486.25 1091.52 1486.25 Q1085.53 1486.25 1082.36 1481.67 Q1079.19 1477.06 1079.19 1468.33 Q1079.19 1460.14 1083.08 1455.28 Q1086.96 1450.39 1093.52 1450.39 Q1095.27 1450.39 1097.06 1450.74 Q1098.86 1451.09 1100.81 1451.78 Z" fill="#000000" fill-rule="nonzero" fill-opacity="1" /><path clip-path="url(#clip150)" d="M1511.66 1469.17 Q1508.33 1469.17 1506.41 1470.95 Q1504.51 1472.73 1504.51 1475.86 Q1504.51 1478.98 1506.41 1480.77 Q1508.33 1482.55 1511.66 1482.55 Q1515 1482.55 1516.92 1480.77 Q1518.84 1478.96 1518.84 1475.86 Q1518.84 1472.73 1516.92 1470.95 Q1515.02 1469.17 1511.66 1469.17 M1506.99 1467.18 Q1503.98 1466.44 1502.29 1464.38 Q1500.62 1462.32 1500.62 1459.35 Q1500.62 1455.21 1503.56 1452.8 Q1506.53 1450.39 1511.66 1450.39 Q1516.83 1450.39 1519.77 1452.8 Q1522.71 1455.21 1522.71 1459.35 Q1522.71 1462.32 1521.02 1464.38 Q1519.35 1466.44 1516.36 1467.18 Q1519.74 1467.96 1521.62 1470.26 Q1523.52 1472.55 1523.52 1475.86 Q1523.52 1480.88 1520.44 1483.57 Q1517.38 1486.25 1511.66 1486.25 Q1505.95 1486.25 1502.87 1483.57 Q1499.81 1480.88 1499.81 1475.86 Q1499.81 1472.55 1501.71 1470.26 Q1503.61 1467.96 1506.99 1467.18 M1505.28 1459.79 Q1505.28 1462.48 1506.94 1463.98 Q1508.63 1465.49 1511.66 1465.49 Q1514.67 1465.49 1516.36 1463.98 Q1518.08 1462.48 1518.08 1459.79 Q1518.08 1457.11 1516.36 1455.6 Q1514.67 1454.1 1511.66 1454.1 Q1508.63 1454.1 1506.94 1455.6 Q1505.28 1457.11 1505.28 1459.79 Z" fill="#000000" fill-rule="nonzero" fill-opacity="1" /><path clip-path="url(#clip150)" d="M1906.9 1481.64 L1914.54 1481.64 L1914.54 1455.28 L1906.23 1456.95 L1906.23 1452.69 L1914.49 1451.02 L1919.17 1451.02 L1919.17 1481.64 L1926.81 1481.64 L1926.81 1485.58 L1906.9 1485.58 L1906.9 1481.64 Z" fill="#000000" fill-rule="nonzero" fill-opacity="1" /><path clip-path="url(#clip150)" d="M1946.25 1454.1 Q1942.64 1454.1 1940.81 1457.66 Q1939 1461.2 1939 1468.33 Q1939 1475.44 1940.81 1479.01 Q1942.64 1482.55 1946.25 1482.55 Q1949.88 1482.55 1951.69 1479.01 Q1953.52 1475.44 1953.52 1468.33 Q1953.52 1461.2 1951.69 1457.66 Q1949.88 1454.1 1946.25 1454.1 M1946.25 1450.39 Q1952.06 1450.39 1955.12 1455 Q1958.19 1459.58 1958.19 1468.33 Q1958.19 1477.06 1955.12 1481.67 Q1952.06 1486.25 1946.25 1486.25 Q1940.44 1486.25 1937.36 1481.67 Q1934.31 1477.06 1934.31 1468.33 Q1934.31 1459.58 1937.36 1455 Q1940.44 1450.39 1946.25 1450.39 Z" fill="#000000" fill-rule="nonzero" fill-opacity="1" /><path clip-path="url(#clip150)" d="M2328.24 1481.64 L2335.88 1481.64 L2335.88 1455.28 L2327.57 1456.95 L2327.57 1452.69 L2335.83 1451.02 L2340.51 1451.02 L2340.51 1481.64 L2348.15 1481.64 L2348.15 1485.58 L2328.24 1485.58 L2328.24 1481.64 Z" fill="#000000" fill-rule="nonzero" fill-opacity="1" /><path clip-path="url(#clip150)" d="M2361.62 1481.64 L2377.94 1481.64 L2377.94 1485.58 L2356 1485.58 L2356 1481.64 Q2358.66 1478.89 2363.24 1474.26 Q2367.85 1469.61 2369.03 1468.27 Q2371.27 1465.74 2372.15 1464.01 Q2373.06 1462.25 2373.06 1460.56 Q2373.06 1457.8 2371.11 1456.07 Q2369.19 1454.33 2366.09 1454.33 Q2363.89 1454.33 2361.44 1455.09 Q2359.01 1455.86 2356.23 1457.41 L2356.23 1452.69 Q2359.05 1451.55 2361.51 1450.97 Q2363.96 1450.39 2366 1450.39 Q2371.37 1450.39 2374.56 1453.08 Q2377.76 1455.77 2377.76 1460.26 Q2377.76 1462.39 2376.95 1464.31 Q2376.16 1466.2 2374.05 1468.8 Q2373.47 1469.47 2370.37 1472.69 Q2367.27 1475.88 2361.62 1481.64 Z" fill="#000000" fill-rule="nonzero" fill-opacity="1" /><path clip-path="url(#clip150)" d="M915.789 1520.52 L924.447 1520.52 L945.517 1560.28 L945.517 1520.52 L951.756 1520.52 L951.756 1568.04 L943.098 1568.04 L922.028 1528.29 L922.028 1568.04 L915.789 1568.04 L915.789 1520.52 Z" fill="#000000" fill-rule="nonzero" fill-opacity="1" /><path clip-path="url(#clip150)" d="M963.691 1553.98 L963.691 1532.4 L969.548 1532.4 L969.548 1553.75 Q969.548 1558.81 971.521 1561.36 Q973.494 1563.87 977.441 1563.87 Q982.184 1563.87 984.921 1560.85 Q987.69 1557.83 987.69 1552.61 L987.69 1532.4 L993.546 1532.4 L993.546 1568.04 L987.69 1568.04 L987.69 1562.57 Q985.557 1565.82 982.725 1567.41 Q979.924 1568.97 976.2 1568.97 Q970.057 1568.97 966.874 1565.15 Q963.691 1561.33 963.691 1553.98 M978.428 1531.54 L978.428 1531.54 Z" fill="#000000" fill-rule="nonzero" fill-opacity="1" /><path clip-path="url(#clip150)" d="M1031.26 1533.76 L1031.26 1539.24 Q1028.78 1537.87 1026.27 1537.2 Q1023.78 1536.5 1021.24 1536.5 Q1015.54 1536.5 1012.39 1540.13 Q1009.24 1543.73 1009.24 1550.25 Q1009.24 1556.78 1012.39 1560.4 Q1015.54 1564 1021.24 1564 Q1023.78 1564 1026.27 1563.33 Q1028.78 1562.63 1031.26 1561.26 L1031.26 1566.68 Q1028.81 1567.82 1026.17 1568.39 Q1023.56 1568.97 1020.6 1568.97 Q1012.55 1568.97 1007.81 1563.91 Q1003.06 1558.85 1003.06 1550.25 Q1003.06 1541.53 1007.84 1536.53 Q1012.64 1531.54 1020.98 1531.54 Q1023.69 1531.54 1026.27 1532.11 Q1028.84 1532.65 1031.26 1533.76 Z" fill="#000000" fill-rule="nonzero" fill-opacity="1" /><path clip-path="url(#clip150)" d="M1041.45 1518.52 L1047.3 1518.52 L1047.3 1568.04 L1041.45 1568.04 L1041.45 1518.52 Z" fill="#000000" fill-rule="nonzero" fill-opacity="1" /><path clip-path="url(#clip150)" d="M1090.05 1548.76 L1090.05 1551.62 L1063.12 1551.62 Q1063.51 1557.67 1066.75 1560.85 Q1070.03 1564 1075.86 1564 Q1079.23 1564 1082.38 1563.17 Q1085.56 1562.35 1088.68 1560.69 L1088.68 1566.23 Q1085.53 1567.57 1082.22 1568.27 Q1078.91 1568.97 1075.5 1568.97 Q1066.97 1568.97 1061.98 1564 Q1057.01 1559.04 1057.01 1550.57 Q1057.01 1541.82 1061.72 1536.69 Q1066.47 1531.54 1074.49 1531.54 Q1081.68 1531.54 1085.85 1536.18 Q1090.05 1540.8 1090.05 1548.76 M1084.19 1547.04 Q1084.13 1542.23 1081.49 1539.37 Q1078.88 1536.5 1074.55 1536.5 Q1069.65 1536.5 1066.69 1539.27 Q1063.76 1542.04 1063.31 1547.07 L1084.19 1547.04 Z" fill="#000000" fill-rule="nonzero" fill-opacity="1" /><path clip-path="url(#clip150)" d="M1115.86 1550.12 Q1108.77 1550.12 1106.03 1551.75 Q1103.29 1553.37 1103.29 1557.29 Q1103.29 1560.4 1105.33 1562.25 Q1107.4 1564.07 1110.93 1564.07 Q1115.8 1564.07 1118.73 1560.63 Q1121.69 1557.16 1121.69 1551.43 L1121.69 1550.12 L1115.86 1550.12 M1127.54 1547.71 L1127.54 1568.04 L1121.69 1568.04 L1121.69 1562.63 Q1119.68 1565.88 1116.69 1567.44 Q1113.7 1568.97 1109.37 1568.97 Q1103.9 1568.97 1100.65 1565.91 Q1097.43 1562.82 1097.43 1557.67 Q1097.43 1551.65 1101.45 1548.6 Q1105.49 1545.54 1113.48 1545.54 L1121.69 1545.54 L1121.69 1544.97 Q1121.69 1540.93 1119.01 1538.73 Q1116.37 1536.5 1111.57 1536.5 Q1108.51 1536.5 1105.61 1537.23 Q1102.72 1537.97 1100.04 1539.43 L1100.04 1534.02 Q1103.26 1532.78 1106.28 1532.17 Q1109.31 1531.54 1112.17 1531.54 Q1119.91 1531.54 1123.73 1535.55 Q1127.54 1539.56 1127.54 1547.71 Z" fill="#000000" fill-rule="nonzero" fill-opacity="1" /><path clip-path="url(#clip150)" d="M1160.26 1537.87 Q1159.28 1537.3 1158.1 1537.04 Q1156.95 1536.76 1155.55 1536.76 Q1150.59 1536.76 1147.91 1540 Q1145.27 1543.22 1145.27 1549.27 L1145.27 1568.04 L1139.38 1568.04 L1139.38 1532.4 L1145.27 1532.4 L1145.27 1537.93 Q1147.12 1534.69 1150.08 1533.13 Q1153.04 1531.54 1157.27 1531.54 Q1157.88 1531.54 1158.61 1531.63 Q1159.34 1531.7 1160.23 1531.85 L1160.26 1537.87 Z" fill="#000000" fill-rule="nonzero" fill-opacity="1" /><path clip-path="url(#clip150)" d="M1212.78 1533.76 L1212.78 1539.24 Q1210.3 1537.87 1207.78 1537.2 Q1205.3 1536.5 1202.76 1536.5 Q1197.06 1536.5 1193.91 1540.13 Q1190.76 1543.73 1190.76 1550.25 Q1190.76 1556.78 1193.91 1560.4 Q1197.06 1564 1202.76 1564 Q1205.3 1564 1207.78 1563.33 Q1210.3 1562.63 1212.78 1561.26 L1212.78 1566.68 Q1210.33 1567.82 1207.69 1568.39 Q1205.08 1568.97 1202.12 1568.97 Q1194.07 1568.97 1189.32 1563.91 Q1184.58 1558.85 1184.58 1550.25 Q1184.58 1541.53 1189.36 1536.53 Q1194.16 1531.54 1202.5 1531.54 Q1205.21 1531.54 1207.78 1532.11 Q1210.36 1532.65 1212.78 1533.76 Z" fill="#000000" fill-rule="nonzero" fill-opacity="1" /><path clip-path="url(#clip150)" d="M1236.78 1536.5 Q1232.07 1536.5 1229.33 1540.19 Q1226.59 1543.85 1226.59 1550.25 Q1226.59 1556.65 1229.3 1560.34 Q1232.04 1564 1236.78 1564 Q1241.46 1564 1244.2 1560.31 Q1246.93 1556.62 1246.93 1550.25 Q1246.93 1543.92 1244.2 1540.23 Q1241.46 1536.5 1236.78 1536.5 M1236.78 1531.54 Q1244.42 1531.54 1248.78 1536.5 Q1253.14 1541.47 1253.14 1550.25 Q1253.14 1559 1248.78 1564 Q1244.42 1568.97 1236.78 1568.97 Q1229.11 1568.97 1224.75 1564 Q1220.42 1559 1220.42 1550.25 Q1220.42 1541.47 1224.75 1536.5 Q1229.11 1531.54 1236.78 1531.54 Z" fill="#000000" fill-rule="nonzero" fill-opacity="1" /><path clip-path="url(#clip150)" d="M1276.66 1536.5 Q1271.95 1536.5 1269.21 1540.19 Q1266.48 1543.85 1266.48 1550.25 Q1266.48 1556.65 1269.18 1560.34 Q1271.92 1564 1276.66 1564 Q1281.34 1564 1284.08 1560.31 Q1286.81 1556.62 1286.81 1550.25 Q1286.81 1543.92 1284.08 1540.23 Q1281.34 1536.5 1276.66 1536.5 M1276.66 1531.54 Q1284.3 1531.54 1288.66 1536.5 Q1293.02 1541.47 1293.02 1550.25 Q1293.02 1559 1288.66 1564 Q1284.3 1568.97 1276.66 1568.97 Q1268.99 1568.97 1264.63 1564 Q1260.3 1559 1260.3 1550.25 Q1260.3 1541.47 1264.63 1536.5 Q1268.99 1531.54 1276.66 1531.54 Z" fill="#000000" fill-rule="nonzero" fill-opacity="1" /><path clip-path="url(#clip150)" d="M1323.39 1537.87 Q1322.4 1537.3 1321.22 1537.04 Q1320.08 1536.76 1318.67 1536.76 Q1313.71 1536.76 1311.04 1540 Q1308.39 1543.22 1308.39 1549.27 L1308.39 1568.04 L1302.51 1568.04 L1302.51 1532.4 L1308.39 1532.4 L1308.39 1537.93 Q1310.24 1534.69 1313.2 1533.13 Q1316.16 1531.54 1320.39 1531.54 Q1321 1531.54 1321.73 1531.63 Q1322.46 1531.7 1323.35 1531.85 L1323.39 1537.87 Z" fill="#000000" fill-rule="nonzero" fill-opacity="1" /><path clip-path="url(#clip150)" d="M1351.84 1537.81 L1351.84 1518.52 L1357.7 1518.52 L1357.7 1568.04 L1351.84 1568.04 L1351.84 1562.7 Q1349.99 1565.88 1347.16 1567.44 Q1344.36 1568.97 1340.41 1568.97 Q1333.95 1568.97 1329.88 1563.81 Q1325.84 1558.65 1325.84 1550.25 Q1325.84 1541.85 1329.88 1536.69 Q1333.95 1531.54 1340.41 1531.54 Q1344.36 1531.54 1347.16 1533.1 Q1349.99 1534.62 1351.84 1537.81 M1331.88 1550.25 Q1331.88 1556.71 1334.53 1560.4 Q1337.2 1564.07 1341.85 1564.07 Q1346.49 1564.07 1349.17 1560.4 Q1351.84 1556.71 1351.84 1550.25 Q1351.84 1543.79 1349.17 1540.13 Q1346.49 1536.44 1341.85 1536.44 Q1337.2 1536.44 1334.53 1540.13 Q1331.88 1543.79 1331.88 1550.25 Z" fill="#000000" fill-rule="nonzero" fill-opacity="1" /><path clip-path="url(#clip150)" d="M1369.76 1532.4 L1375.62 1532.4 L1375.62 1568.04 L1369.76 1568.04 L1369.76 1532.4 M1369.76 1518.52 L1375.62 1518.52 L1375.62 1525.93 L1369.76 1525.93 L1369.76 1518.52 Z" fill="#000000" fill-rule="nonzero" fill-opacity="1" /><path clip-path="url(#clip150)" d="M1417.5 1546.53 L1417.5 1568.04 L1411.65 1568.04 L1411.65 1546.72 Q1411.65 1541.66 1409.67 1539.14 Q1407.7 1536.63 1403.75 1536.63 Q1399.01 1536.63 1396.27 1539.65 Q1393.54 1542.68 1393.54 1547.9 L1393.54 1568.04 L1387.65 1568.04 L1387.65 1532.4 L1393.54 1532.4 L1393.54 1537.93 Q1395.64 1534.72 1398.47 1533.13 Q1401.33 1531.54 1405.06 1531.54 Q1411.2 1531.54 1414.35 1535.36 Q1417.5 1539.14 1417.5 1546.53 Z" fill="#000000" fill-rule="nonzero" fill-opacity="1" /><path clip-path="url(#clip150)" d="M1445.38 1550.12 Q1438.29 1550.12 1435.55 1551.75 Q1432.81 1553.37 1432.81 1557.29 Q1432.81 1560.4 1434.85 1562.25 Q1436.92 1564.07 1440.45 1564.07 Q1445.32 1564.07 1448.25 1560.63 Q1451.21 1557.16 1451.21 1551.43 L1451.21 1550.12 L1445.38 1550.12 M1457.07 1547.71 L1457.07 1568.04 L1451.21 1568.04 L1451.21 1562.63 Q1449.2 1565.88 1446.21 1567.44 Q1443.22 1568.97 1438.89 1568.97 Q1433.42 1568.97 1430.17 1565.91 Q1426.96 1562.82 1426.96 1557.67 Q1426.96 1551.65 1430.97 1548.6 Q1435.01 1545.54 1443 1545.54 L1451.21 1545.54 L1451.21 1544.97 Q1451.21 1540.93 1448.54 1538.73 Q1445.89 1536.5 1441.09 1536.5 Q1438.03 1536.5 1435.14 1537.23 Q1432.24 1537.97 1429.57 1539.43 L1429.57 1534.02 Q1432.78 1532.78 1435.8 1532.17 Q1438.83 1531.54 1441.69 1531.54 Q1449.43 1531.54 1453.25 1535.55 Q1457.07 1539.56 1457.07 1547.71 Z" fill="#000000" fill-rule="nonzero" fill-opacity="1" /><path clip-path="url(#clip150)" d="M1474.92 1522.27 L1474.92 1532.4 L1486.98 1532.4 L1486.98 1536.95 L1474.92 1536.95 L1474.92 1556.3 Q1474.92 1560.66 1476.1 1561.9 Q1477.31 1563.14 1480.97 1563.14 L1486.98 1563.14 L1486.98 1568.04 L1480.97 1568.04 Q1474.19 1568.04 1471.61 1565.53 Q1469.03 1562.98 1469.03 1556.3 L1469.03 1536.95 L1464.74 1536.95 L1464.74 1532.4 L1469.03 1532.4 L1469.03 1522.27 L1474.92 1522.27 Z" fill="#000000" fill-rule="nonzero" fill-opacity="1" /><path clip-path="url(#clip150)" d="M1525.18 1548.76 L1525.18 1551.62 L1498.25 1551.62 Q1498.63 1557.67 1501.88 1560.85 Q1505.16 1564 1510.98 1564 Q1514.36 1564 1517.51 1563.17 Q1520.69 1562.35 1523.81 1560.69 L1523.81 1566.23 Q1520.66 1567.57 1517.35 1568.27 Q1514.04 1568.97 1510.63 1568.97 Q1502.1 1568.97 1497.11 1564 Q1492.14 1559.04 1492.14 1550.57 Q1492.14 1541.82 1496.85 1536.69 Q1501.59 1531.54 1509.61 1531.54 Q1516.81 1531.54 1520.98 1536.18 Q1525.18 1540.8 1525.18 1548.76 M1519.32 1547.04 Q1519.26 1542.23 1516.62 1539.37 Q1514.01 1536.5 1509.68 1536.5 Q1504.78 1536.5 1501.82 1539.27 Q1498.89 1542.04 1498.44 1547.07 L1519.32 1547.04 Z" fill="#000000" fill-rule="nonzero" fill-opacity="1" /><path clip-path="url(#clip150)" d="M1565.92 1520.52 L1571.33 1520.52 L1554.78 1574.09 L1549.37 1574.09 L1565.92 1520.52 Z" fill="#000000" fill-rule="nonzero" fill-opacity="1" /><path clip-path="url(#clip150)" d="M1593.67 1550.12 Q1586.58 1550.12 1583.84 1551.75 Q1581.1 1553.37 1581.1 1557.29 Q1581.1 1560.4 1583.14 1562.25 Q1585.21 1564.07 1588.74 1564.07 Q1593.61 1564.07 1596.54 1560.63 Q1599.5 1557.16 1599.5 1551.43 L1599.5 1550.12 L1593.67 1550.12 M1605.35 1547.71 L1605.35 1568.04 L1599.5 1568.04 L1599.5 1562.63 Q1597.49 1565.88 1594.5 1567.44 Q1591.51 1568.97 1587.18 1568.97 Q1581.71 1568.97 1578.46 1565.91 Q1575.24 1562.82 1575.24 1557.67 Q1575.24 1551.65 1579.26 1548.6 Q1583.3 1545.54 1591.29 1545.54 L1599.5 1545.54 L1599.5 1544.97 Q1599.5 1540.93 1596.82 1538.73 Q1594.18 1536.5 1589.38 1536.5 Q1586.32 1536.5 1583.42 1537.23 Q1580.53 1537.97 1577.85 1539.43 L1577.85 1534.02 Q1581.07 1532.78 1584.09 1532.17 Q1587.12 1531.54 1589.98 1531.54 Q1597.72 1531.54 1601.54 1535.55 Q1605.35 1539.56 1605.35 1547.71 Z" fill="#000000" fill-rule="nonzero" fill-opacity="1" /><path clip-path="url(#clip150)" d="M1618.25 1559.96 L1624.96 1559.96 L1624.96 1568.04 L1618.25 1568.04 L1618.25 1559.96 Z" fill="#000000" fill-rule="nonzero" fill-opacity="1" /><path clip-path="url(#clip150)" d="M1637.53 1553.98 L1637.53 1532.4 L1643.39 1532.4 L1643.39 1553.75 Q1643.39 1558.81 1645.36 1561.36 Q1647.34 1563.87 1651.28 1563.87 Q1656.03 1563.87 1658.76 1560.85 Q1661.53 1557.83 1661.53 1552.61 L1661.53 1532.4 L1667.39 1532.4 L1667.39 1568.04 L1661.53 1568.04 L1661.53 1562.57 Q1659.4 1565.82 1656.57 1567.41 Q1653.77 1568.97 1650.04 1568.97 Q1643.9 1568.97 1640.72 1565.15 Q1637.53 1561.33 1637.53 1553.98 M1652.27 1531.54 L1652.27 1531.54 Z" fill="#000000" fill-rule="nonzero" fill-opacity="1" /><path clip-path="url(#clip150)" d="M1680.28 1559.96 L1686.99 1559.96 L1686.99 1568.04 L1680.28 1568.04 L1680.28 1559.96 Z" fill="#000000" fill-rule="nonzero" fill-opacity="1" /><polyline clip-path="url(#clip152)" style="stroke:#000000; stroke-linecap:round; stroke-linejoin:round; stroke-width:2; stroke-opacity:0.1; fill:none" points="250.028,1423.18 2352.76,1423.18 "/>
<polyline clip-path="url(#clip152)" style="stroke:#000000; stroke-linecap:round; stroke-linejoin:round; stroke-width:2; stroke-opacity:0.1; fill:none" points="250.028,1193.86 2352.76,1193.86 "/>
<polyline clip-path="url(#clip152)" style="stroke:#000000; stroke-linecap:round; stroke-linejoin:round; stroke-width:2; stroke-opacity:0.1; fill:none" points="250.028,964.535 2352.76,964.535 "/>
<polyline clip-path="url(#clip152)" style="stroke:#000000; stroke-linecap:round; stroke-linejoin:round; stroke-width:2; stroke-opacity:0.1; fill:none" points="250.028,735.212 2352.76,735.212 "/>
<polyline clip-path="url(#clip152)" style="stroke:#000000; stroke-linecap:round; stroke-linejoin:round; stroke-width:2; stroke-opacity:0.1; fill:none" points="250.028,505.889 2352.76,505.889 "/>
<polyline clip-path="url(#clip152)" style="stroke:#000000; stroke-linecap:round; stroke-linejoin:round; stroke-width:2; stroke-opacity:0.1; fill:none" points="250.028,276.567 2352.76,276.567 "/>
<polyline clip-path="url(#clip150)" style="stroke:#000000; stroke-linecap:round; stroke-linejoin:round; stroke-width:4; stroke-opacity:1; fill:none" points="250.028,1423.18 250.028,47.2441 "/>
<polyline clip-path="url(#clip150)" style="stroke:#000000; stroke-linecap:round; stroke-linejoin:round; stroke-width:4; stroke-opacity:1; fill:none" points="250.028,1423.18 268.926,1423.18 "/>
<polyline clip-path="url(#clip150)" style="stroke:#000000; stroke-linecap:round; stroke-linejoin:round; stroke-width:4; stroke-opacity:1; fill:none" points="250.028,1193.86 268.926,1193.86 "/>
<polyline clip-path="url(#clip150)" style="stroke:#000000; stroke-linecap:round; stroke-linejoin:round; stroke-width:4; stroke-opacity:1; fill:none" points="250.028,964.535 268.926,964.535 "/>
<polyline clip-path="url(#clip150)" style="stroke:#000000; stroke-linecap:round; stroke-linejoin:round; stroke-width:4; stroke-opacity:1; fill:none" points="250.028,735.212 268.926,735.212 "/>
<polyline clip-path="url(#clip150)" style="stroke:#000000; stroke-linecap:round; stroke-linejoin:round; stroke-width:4; stroke-opacity:1; fill:none" points="250.028,505.889 268.926,505.889 "/>
<polyline clip-path="url(#clip150)" style="stroke:#000000; stroke-linecap:round; stroke-linejoin:round; stroke-width:4; stroke-opacity:1; fill:none" points="250.028,276.567 268.926,276.567 "/>
<path clip-path="url(#clip150)" d="M126.691 1408.98 Q123.08 1408.98 121.251 1412.54 Q119.445 1416.08 119.445 1423.21 Q119.445 1430.32 121.251 1433.89 Q123.08 1437.43 126.691 1437.43 Q130.325 1437.43 132.13 1433.89 Q133.959 1430.32 133.959 1423.21 Q133.959 1416.08 132.13 1412.54 Q130.325 1408.98 126.691 1408.98 M126.691 1405.27 Q132.501 1405.27 135.556 1409.88 Q138.635 1414.46 138.635 1423.21 Q138.635 1431.94 135.556 1436.55 Q132.501 1441.13 126.691 1441.13 Q120.88 1441.13 117.802 1436.55 Q114.746 1431.94 114.746 1423.21 Q114.746 1414.46 117.802 1409.88 Q120.88 1405.27 126.691 1405.27 Z" fill="#000000" fill-rule="nonzero" fill-opacity="1" /><path clip-path="url(#clip150)" d="M146.853 1434.58 L151.737 1434.58 L151.737 1440.46 L146.853 1440.46 L146.853 1434.58 Z" fill="#000000" fill-rule="nonzero" fill-opacity="1" /><path clip-path="url(#clip150)" d="M171.922 1408.98 Q168.311 1408.98 166.482 1412.54 Q164.677 1416.08 164.677 1423.21 Q164.677 1430.32 166.482 1433.89 Q168.311 1437.43 171.922 1437.43 Q175.556 1437.43 177.362 1433.89 Q179.19 1430.32 179.19 1423.21 Q179.19 1416.08 177.362 1412.54 Q175.556 1408.98 171.922 1408.98 M171.922 1405.27 Q177.732 1405.27 180.788 1409.88 Q183.866 1414.46 183.866 1423.21 Q183.866 1431.94 180.788 1436.55 Q177.732 1441.13 171.922 1441.13 Q166.112 1441.13 163.033 1436.55 Q159.978 1431.94 159.978 1423.21 Q159.978 1414.46 163.033 1409.88 Q166.112 1405.27 171.922 1405.27 Z" fill="#000000" fill-rule="nonzero" fill-opacity="1" /><path clip-path="url(#clip150)" d="M202.084 1408.98 Q198.473 1408.98 196.644 1412.54 Q194.838 1416.08 194.838 1423.21 Q194.838 1430.32 196.644 1433.89 Q198.473 1437.43 202.084 1437.43 Q205.718 1437.43 207.524 1433.89 Q209.352 1430.32 209.352 1423.21 Q209.352 1416.08 207.524 1412.54 Q205.718 1408.98 202.084 1408.98 M202.084 1405.27 Q207.894 1405.27 210.949 1409.88 Q214.028 1414.46 214.028 1423.21 Q214.028 1431.94 210.949 1436.55 Q207.894 1441.13 202.084 1441.13 Q196.274 1441.13 193.195 1436.55 Q190.139 1431.94 190.139 1423.21 Q190.139 1414.46 193.195 1409.88 Q196.274 1405.27 202.084 1405.27 Z" fill="#000000" fill-rule="nonzero" fill-opacity="1" /><path clip-path="url(#clip150)" d="M127.917 1179.66 Q124.306 1179.66 122.478 1183.22 Q120.672 1186.76 120.672 1193.89 Q120.672 1201 122.478 1204.56 Q124.306 1208.1 127.917 1208.1 Q131.552 1208.1 133.357 1204.56 Q135.186 1201 135.186 1193.89 Q135.186 1186.76 133.357 1183.22 Q131.552 1179.66 127.917 1179.66 M127.917 1175.95 Q133.728 1175.95 136.783 1180.56 Q139.862 1185.14 139.862 1193.89 Q139.862 1202.62 136.783 1207.23 Q133.728 1211.81 127.917 1211.81 Q122.107 1211.81 119.029 1207.23 Q115.973 1202.62 115.973 1193.89 Q115.973 1185.14 119.029 1180.56 Q122.107 1175.95 127.917 1175.95 Z" fill="#000000" fill-rule="nonzero" fill-opacity="1" /><path clip-path="url(#clip150)" d="M148.079 1205.26 L152.964 1205.26 L152.964 1211.14 L148.079 1211.14 L148.079 1205.26 Z" fill="#000000" fill-rule="nonzero" fill-opacity="1" /><path clip-path="url(#clip150)" d="M173.149 1179.66 Q169.538 1179.66 167.709 1183.22 Q165.903 1186.76 165.903 1193.89 Q165.903 1201 167.709 1204.56 Q169.538 1208.1 173.149 1208.1 Q176.783 1208.1 178.589 1204.56 Q180.417 1201 180.417 1193.89 Q180.417 1186.76 178.589 1183.22 Q176.783 1179.66 173.149 1179.66 M173.149 1175.95 Q178.959 1175.95 182.014 1180.56 Q185.093 1185.14 185.093 1193.89 Q185.093 1202.62 182.014 1207.23 Q178.959 1211.81 173.149 1211.81 Q167.339 1211.81 164.26 1207.23 Q161.204 1202.62 161.204 1193.89 Q161.204 1185.14 164.26 1180.56 Q167.339 1175.95 173.149 1175.95 Z" fill="#000000" fill-rule="nonzero" fill-opacity="1" /><path clip-path="url(#clip150)" d="M194.121 1207.2 L201.76 1207.2 L201.76 1180.84 L193.45 1182.5 L193.45 1178.24 L201.713 1176.58 L206.389 1176.58 L206.389 1207.2 L214.028 1207.2 L214.028 1211.14 L194.121 1211.14 L194.121 1207.2 Z" fill="#000000" fill-rule="nonzero" fill-opacity="1" /><path clip-path="url(#clip150)" d="M128.288 950.333 Q124.677 950.333 122.848 953.898 Q121.043 957.44 121.043 964.569 Q121.043 971.676 122.848 975.241 Q124.677 978.782 128.288 978.782 Q131.922 978.782 133.728 975.241 Q135.556 971.676 135.556 964.569 Q135.556 957.44 133.728 953.898 Q131.922 950.333 128.288 950.333 M128.288 946.63 Q134.098 946.63 137.154 951.236 Q140.232 955.819 140.232 964.569 Q140.232 973.296 137.154 977.903 Q134.098 982.486 128.288 982.486 Q122.478 982.486 119.399 977.903 Q116.343 973.296 116.343 964.569 Q116.343 955.819 119.399 951.236 Q122.478 946.63 128.288 946.63 Z" fill="#000000" fill-rule="nonzero" fill-opacity="1" /><path clip-path="url(#clip150)" d="M148.45 975.935 L153.334 975.935 L153.334 981.815 L148.45 981.815 L148.45 975.935 Z" fill="#000000" fill-rule="nonzero" fill-opacity="1" /><path clip-path="url(#clip150)" d="M173.519 950.333 Q169.908 950.333 168.079 953.898 Q166.274 957.44 166.274 964.569 Q166.274 971.676 168.079 975.241 Q169.908 978.782 173.519 978.782 Q177.153 978.782 178.959 975.241 Q180.788 971.676 180.788 964.569 Q180.788 957.44 178.959 953.898 Q177.153 950.333 173.519 950.333 M173.519 946.63 Q179.329 946.63 182.385 951.236 Q185.463 955.819 185.463 964.569 Q185.463 973.296 182.385 977.903 Q179.329 982.486 173.519 982.486 Q167.709 982.486 164.63 977.903 Q161.575 973.296 161.575 964.569 Q161.575 955.819 164.63 951.236 Q167.709 946.63 173.519 946.63 Z" fill="#000000" fill-rule="nonzero" fill-opacity="1" /><path clip-path="url(#clip150)" d="M197.709 977.879 L214.028 977.879 L214.028 981.815 L192.084 981.815 L192.084 977.879 Q194.746 975.125 199.329 970.495 Q203.936 965.842 205.116 964.5 Q207.362 961.977 208.241 960.241 Q209.144 958.481 209.144 956.792 Q209.144 954.037 207.199 952.301 Q205.278 950.565 202.176 950.565 Q199.977 950.565 197.524 951.329 Q195.093 952.093 192.315 953.643 L192.315 948.921 Q195.139 947.787 197.593 947.208 Q200.047 946.63 202.084 946.63 Q207.454 946.63 210.649 949.315 Q213.843 952 213.843 956.491 Q213.843 958.62 213.033 960.542 Q212.246 962.44 210.139 965.032 Q209.561 965.704 206.459 968.921 Q203.357 972.116 197.709 977.879 Z" fill="#000000" fill-rule="nonzero" fill-opacity="1" /><path clip-path="url(#clip150)" d="M127.339 721.011 Q123.728 721.011 121.899 724.575 Q120.093 728.117 120.093 735.247 Q120.093 742.353 121.899 745.918 Q123.728 749.46 127.339 749.46 Q130.973 749.46 132.779 745.918 Q134.607 742.353 134.607 735.247 Q134.607 728.117 132.779 724.575 Q130.973 721.011 127.339 721.011 M127.339 717.307 Q133.149 717.307 136.204 721.913 Q139.283 726.497 139.283 735.247 Q139.283 743.973 136.204 748.58 Q133.149 753.163 127.339 753.163 Q121.529 753.163 118.45 748.58 Q115.394 743.973 115.394 735.247 Q115.394 726.497 118.45 721.913 Q121.529 717.307 127.339 717.307 Z" fill="#000000" fill-rule="nonzero" fill-opacity="1" /><path clip-path="url(#clip150)" d="M147.501 746.612 L152.385 746.612 L152.385 752.492 L147.501 752.492 L147.501 746.612 Z" fill="#000000" fill-rule="nonzero" fill-opacity="1" /><path clip-path="url(#clip150)" d="M172.57 721.011 Q168.959 721.011 167.13 724.575 Q165.325 728.117 165.325 735.247 Q165.325 742.353 167.13 745.918 Q168.959 749.46 172.57 749.46 Q176.204 749.46 178.01 745.918 Q179.839 742.353 179.839 735.247 Q179.839 728.117 178.01 724.575 Q176.204 721.011 172.57 721.011 M172.57 717.307 Q178.38 717.307 181.436 721.913 Q184.514 726.497 184.514 735.247 Q184.514 743.973 181.436 748.58 Q178.38 753.163 172.57 753.163 Q166.76 753.163 163.681 748.58 Q160.626 743.973 160.626 735.247 Q160.626 726.497 163.681 721.913 Q166.76 717.307 172.57 717.307 Z" fill="#000000" fill-rule="nonzero" fill-opacity="1" /><path clip-path="url(#clip150)" d="M206.899 733.858 Q210.255 734.575 212.13 736.844 Q214.028 739.112 214.028 742.446 Q214.028 747.561 210.51 750.362 Q206.991 753.163 200.51 753.163 Q198.334 753.163 196.019 752.723 Q193.727 752.307 191.274 751.45 L191.274 746.936 Q193.218 748.071 195.533 748.649 Q197.848 749.228 200.371 749.228 Q204.769 749.228 207.061 747.492 Q209.375 745.756 209.375 742.446 Q209.375 739.39 207.223 737.677 Q205.093 735.941 201.274 735.941 L197.246 735.941 L197.246 732.099 L201.459 732.099 Q204.908 732.099 206.737 730.733 Q208.565 729.344 208.565 726.751 Q208.565 724.089 206.667 722.677 Q204.792 721.242 201.274 721.242 Q199.352 721.242 197.153 721.659 Q194.954 722.075 192.315 722.955 L192.315 718.788 Q194.977 718.048 197.292 717.677 Q199.63 717.307 201.69 717.307 Q207.014 717.307 210.116 719.738 Q213.218 722.145 213.218 726.265 Q213.218 729.136 211.574 731.126 Q209.931 733.094 206.899 733.858 Z" fill="#000000" fill-rule="nonzero" fill-opacity="1" /><path clip-path="url(#clip150)" d="M126.205 491.688 Q122.593 491.688 120.765 495.253 Q118.959 498.794 118.959 505.924 Q118.959 513.031 120.765 516.595 Q122.593 520.137 126.205 520.137 Q129.839 520.137 131.644 516.595 Q133.473 513.031 133.473 505.924 Q133.473 498.794 131.644 495.253 Q129.839 491.688 126.205 491.688 M126.205 487.984 Q132.015 487.984 135.07 492.591 Q138.149 497.174 138.149 505.924 Q138.149 514.651 135.07 519.257 Q132.015 523.841 126.205 523.841 Q120.394 523.841 117.316 519.257 Q114.26 514.651 114.26 505.924 Q114.26 497.174 117.316 492.591 Q120.394 487.984 126.205 487.984 Z" fill="#000000" fill-rule="nonzero" fill-opacity="1" /><path clip-path="url(#clip150)" d="M146.366 517.29 L151.251 517.29 L151.251 523.169 L146.366 523.169 L146.366 517.29 Z" fill="#000000" fill-rule="nonzero" fill-opacity="1" /><path clip-path="url(#clip150)" d="M171.436 491.688 Q167.825 491.688 165.996 495.253 Q164.19 498.794 164.19 505.924 Q164.19 513.031 165.996 516.595 Q167.825 520.137 171.436 520.137 Q175.07 520.137 176.876 516.595 Q178.704 513.031 178.704 505.924 Q178.704 498.794 176.876 495.253 Q175.07 491.688 171.436 491.688 M171.436 487.984 Q177.246 487.984 180.301 492.591 Q183.38 497.174 183.38 505.924 Q183.38 514.651 180.301 519.257 Q177.246 523.841 171.436 523.841 Q165.626 523.841 162.547 519.257 Q159.491 514.651 159.491 505.924 Q159.491 497.174 162.547 492.591 Q165.626 487.984 171.436 487.984 Z" fill="#000000" fill-rule="nonzero" fill-opacity="1" /><path clip-path="url(#clip150)" d="M204.445 492.683 L192.639 511.132 L204.445 511.132 L204.445 492.683 M203.218 488.609 L209.098 488.609 L209.098 511.132 L214.028 511.132 L214.028 515.021 L209.098 515.021 L209.098 523.169 L204.445 523.169 L204.445 515.021 L188.843 515.021 L188.843 510.507 L203.218 488.609 Z" fill="#000000" fill-rule="nonzero" fill-opacity="1" /><path clip-path="url(#clip150)" d="M127.686 262.365 Q124.075 262.365 122.246 265.93 Q120.441 269.472 120.441 276.601 Q120.441 283.708 122.246 287.273 Q124.075 290.814 127.686 290.814 Q131.32 290.814 133.126 287.273 Q134.954 283.708 134.954 276.601 Q134.954 269.472 133.126 265.93 Q131.32 262.365 127.686 262.365 M127.686 258.662 Q133.496 258.662 136.552 263.268 Q139.63 267.851 139.63 276.601 Q139.63 285.328 136.552 289.935 Q133.496 294.518 127.686 294.518 Q121.876 294.518 118.797 289.935 Q115.742 285.328 115.742 276.601 Q115.742 267.851 118.797 263.268 Q121.876 258.662 127.686 258.662 Z" fill="#000000" fill-rule="nonzero" fill-opacity="1" /><path clip-path="url(#clip150)" d="M147.848 287.967 L152.732 287.967 L152.732 293.847 L147.848 293.847 L147.848 287.967 Z" fill="#000000" fill-rule="nonzero" fill-opacity="1" /><path clip-path="url(#clip150)" d="M172.917 262.365 Q169.306 262.365 167.477 265.93 Q165.672 269.472 165.672 276.601 Q165.672 283.708 167.477 287.273 Q169.306 290.814 172.917 290.814 Q176.551 290.814 178.357 287.273 Q180.186 283.708 180.186 276.601 Q180.186 269.472 178.357 265.93 Q176.551 262.365 172.917 262.365 M172.917 258.662 Q178.727 258.662 181.783 263.268 Q184.862 267.851 184.862 276.601 Q184.862 285.328 181.783 289.935 Q178.727 294.518 172.917 294.518 Q167.107 294.518 164.028 289.935 Q160.973 285.328 160.973 276.601 Q160.973 267.851 164.028 263.268 Q167.107 258.662 172.917 258.662 Z" fill="#000000" fill-rule="nonzero" fill-opacity="1" /><path clip-path="url(#clip150)" d="M193.125 259.287 L211.482 259.287 L211.482 263.222 L197.408 263.222 L197.408 271.694 Q198.426 271.347 199.445 271.185 Q200.463 271 201.482 271 Q207.269 271 210.649 274.171 Q214.028 277.342 214.028 282.759 Q214.028 288.337 210.556 291.439 Q207.084 294.518 200.764 294.518 Q198.588 294.518 196.32 294.148 Q194.075 293.777 191.667 293.037 L191.667 288.337 Q193.75 289.472 195.973 290.027 Q198.195 290.583 200.672 290.583 Q204.676 290.583 207.014 288.476 Q209.352 286.37 209.352 282.759 Q209.352 279.148 207.014 277.041 Q204.676 274.935 200.672 274.935 Q198.797 274.935 196.922 275.351 Q195.07 275.768 193.125 276.648 L193.125 259.287 Z" fill="#000000" fill-rule="nonzero" fill-opacity="1" /><path clip-path="url(#clip150)" d="M21.7677 1071.46 L39.6235 1071.46 L39.6235 1063.38 Q39.6235 1058.89 37.3 1056.44 Q34.9765 1053.99 30.6797 1053.99 Q26.4147 1053.99 24.0912 1056.44 Q21.7677 1058.89 21.7677 1063.38 L21.7677 1071.46 M16.4842 1077.89 L16.4842 1063.38 Q16.4842 1055.39 20.1126 1051.32 Q23.7092 1047.21 30.6797 1047.21 Q37.7138 1047.21 41.3104 1051.32 Q44.907 1055.39 44.907 1063.38 L44.907 1071.46 L64.0042 1071.46 L64.0042 1077.89 L16.4842 1077.89 Z" fill="#000000" fill-rule="nonzero" fill-opacity="1" /><path clip-path="url(#clip150)" d="M32.4621 1027.35 Q32.4621 1032.06 36.1542 1034.8 Q39.8145 1037.54 46.212 1037.54 Q52.6095 1037.54 56.3017 1034.83 Q59.9619 1032.09 59.9619 1027.35 Q59.9619 1022.67 56.2698 1019.93 Q52.5777 1017.2 46.212 1017.2 Q39.8781 1017.2 36.186 1019.93 Q32.4621 1022.67 32.4621 1027.35 M27.4968 1027.35 Q27.4968 1019.71 32.4621 1015.35 Q37.4273 1010.99 46.212 1010.99 Q54.9649 1010.99 59.9619 1015.35 Q64.9272 1019.71 64.9272 1027.35 Q64.9272 1035.02 59.9619 1039.38 Q54.9649 1043.71 46.212 1043.71 Q37.4273 1043.71 32.4621 1039.38 Q27.4968 1035.02 27.4968 1027.35 Z" fill="#000000" fill-rule="nonzero" fill-opacity="1" /><path clip-path="url(#clip150)" d="M18.2347 995.49 L28.3562 995.49 L28.3562 983.427 L32.9077 983.427 L32.9077 995.49 L52.2594 995.49 Q56.6199 995.49 57.8613 994.312 Q59.1026 993.103 59.1026 989.442 L59.1026 983.427 L64.0042 983.427 L64.0042 989.442 Q64.0042 996.222 61.4897 998.8 Q58.9434 1001.38 52.2594 1001.38 L32.9077 1001.38 L32.9077 1005.67 L28.3562 1005.67 L28.3562 1001.38 L18.2347 1001.38 L18.2347 995.49 Z" fill="#000000" fill-rule="nonzero" fill-opacity="1" /><path clip-path="url(#clip150)" d="M44.7161 945.233 L47.5806 945.233 L47.5806 972.159 Q53.6281 971.778 56.8109 968.531 Q59.9619 965.253 59.9619 959.428 Q59.9619 956.054 59.1344 952.903 Q58.3069 949.72 56.6518 946.601 L62.1899 946.601 Q63.5267 949.752 64.227 953.062 Q64.9272 956.373 64.9272 959.778 Q64.9272 968.308 59.9619 973.305 Q54.9967 978.271 46.5303 978.271 Q37.7774 978.271 32.6531 973.56 Q27.4968 968.817 27.4968 960.797 Q27.4968 953.603 32.1438 949.434 Q36.7589 945.233 44.7161 945.233 M42.9973 951.089 Q38.1912 951.153 35.3266 953.794 Q32.4621 956.404 32.4621 960.733 Q32.4621 965.635 35.2312 968.595 Q38.0002 971.523 43.0292 971.969 L42.9973 951.089 Z" fill="#000000" fill-rule="nonzero" fill-opacity="1" /><path clip-path="url(#clip150)" d="M42.4881 905.988 L64.0042 905.988 L64.0042 911.844 L42.679 911.844 Q37.6183 911.844 35.1038 913.818 Q32.5894 915.791 32.5894 919.738 Q32.5894 924.48 35.6131 927.218 Q38.6368 929.955 43.8567 929.955 L64.0042 929.955 L64.0042 935.843 L28.3562 935.843 L28.3562 929.955 L33.8944 929.955 Q30.6797 927.854 29.0883 925.021 Q27.4968 922.157 27.4968 918.433 Q27.4968 912.29 31.3163 909.139 Q35.1038 905.988 42.4881 905.988 Z" fill="#000000" fill-rule="nonzero" fill-opacity="1" /><path clip-path="url(#clip150)" d="M18.2347 888.514 L28.3562 888.514 L28.3562 876.451 L32.9077 876.451 L32.9077 888.514 L52.2594 888.514 Q56.6199 888.514 57.8613 887.336 Q59.1026 886.127 59.1026 882.467 L59.1026 876.451 L64.0042 876.451 L64.0042 882.467 Q64.0042 889.246 61.4897 891.824 Q58.9434 894.402 52.2594 894.402 L32.9077 894.402 L32.9077 898.699 L28.3562 898.699 L28.3562 894.402 L18.2347 894.402 L18.2347 888.514 Z" fill="#000000" fill-rule="nonzero" fill-opacity="1" /><path clip-path="url(#clip150)" d="M28.3562 868.749 L28.3562 862.892 L64.0042 862.892 L64.0042 868.749 L28.3562 868.749 M14.479 868.749 L14.479 862.892 L21.895 862.892 L21.895 868.749 L14.479 868.749 Z" fill="#000000" fill-rule="nonzero" fill-opacity="1" /><path clip-path="url(#clip150)" d="M46.0847 834.437 Q46.0847 841.535 47.7079 844.272 Q49.3312 847.01 53.2461 847.01 Q56.3653 847.01 58.2114 844.973 Q60.0256 842.904 60.0256 839.371 Q60.0256 834.501 56.5881 831.573 Q53.1188 828.613 47.3897 828.613 L46.0847 828.613 L46.0847 834.437 M43.6657 822.756 L64.0042 822.756 L64.0042 828.613 L58.5933 828.613 Q61.8398 830.618 63.3994 833.61 Q64.9272 836.602 64.9272 840.93 Q64.9272 846.405 61.8716 849.651 Q58.7843 852.866 53.6281 852.866 Q47.6125 852.866 44.5569 848.856 Q41.5014 844.814 41.5014 836.825 L41.5014 828.613 L40.9285 828.613 Q36.8862 828.613 34.6901 831.286 Q32.4621 833.928 32.4621 838.734 Q32.4621 841.79 33.1941 844.686 Q33.9262 847.583 35.3903 850.256 L29.9795 850.256 Q28.7381 847.042 28.1334 844.018 Q27.4968 840.994 27.4968 838.13 Q27.4968 830.395 31.5072 826.576 Q35.5176 822.756 43.6657 822.756 Z" fill="#000000" fill-rule="nonzero" fill-opacity="1" /><path clip-path="url(#clip150)" d="M14.479 810.693 L14.479 804.837 L64.0042 804.837 L64.0042 810.693 L14.479 810.693 Z" fill="#000000" fill-rule="nonzero" fill-opacity="1" /><path clip-path="url(#clip150)" d="M44.7161 741.371 L47.5806 741.371 L47.5806 768.298 Q53.6281 767.916 56.8109 764.669 Q59.9619 761.391 59.9619 755.566 Q59.9619 752.192 59.1344 749.041 Q58.3069 745.859 56.6518 742.739 L62.1899 742.739 Q63.5267 745.89 64.227 749.201 Q64.9272 752.511 64.9272 755.916 Q64.9272 764.446 59.9619 769.444 Q54.9967 774.409 46.5303 774.409 Q37.7774 774.409 32.6531 769.698 Q27.4968 764.956 27.4968 756.935 Q27.4968 749.742 32.1438 745.572 Q36.7589 741.371 44.7161 741.371 M42.9973 747.227 Q38.1912 747.291 35.3266 749.933 Q32.4621 752.543 32.4621 756.871 Q32.4621 761.773 35.2312 764.733 Q38.0002 767.661 43.0292 768.107 L42.9973 747.227 Z" fill="#000000" fill-rule="nonzero" fill-opacity="1" /><path clip-path="url(#clip150)" d="M42.4881 702.126 L64.0042 702.126 L64.0042 707.983 L42.679 707.983 Q37.6183 707.983 35.1038 709.956 Q32.5894 711.929 32.5894 715.876 Q32.5894 720.619 35.6131 723.356 Q38.6368 726.093 43.8567 726.093 L64.0042 726.093 L64.0042 731.981 L28.3562 731.981 L28.3562 726.093 L33.8944 726.093 Q30.6797 723.992 29.0883 721.16 Q27.4968 718.295 27.4968 714.571 Q27.4968 708.428 31.3163 705.277 Q35.1038 702.126 42.4881 702.126 Z" fill="#000000" fill-rule="nonzero" fill-opacity="1" /><path clip-path="url(#clip150)" d="M44.7161 659.953 L47.5806 659.953 L47.5806 686.88 Q53.6281 686.498 56.8109 683.252 Q59.9619 679.974 59.9619 674.149 Q59.9619 670.775 59.1344 667.624 Q58.3069 664.441 56.6518 661.322 L62.1899 661.322 Q63.5267 664.473 64.227 667.783 Q64.9272 671.093 64.9272 674.499 Q64.9272 683.029 59.9619 688.026 Q54.9967 692.991 46.5303 692.991 Q37.7774 692.991 32.6531 688.281 Q27.4968 683.538 27.4968 675.518 Q27.4968 668.324 32.1438 664.155 Q36.7589 659.953 44.7161 659.953 M42.9973 665.81 Q38.1912 665.874 35.3266 668.515 Q32.4621 671.125 32.4621 675.454 Q32.4621 680.355 35.2312 683.316 Q38.0002 686.244 43.0292 686.689 L42.9973 665.81 Z" fill="#000000" fill-rule="nonzero" fill-opacity="1" /><path clip-path="url(#clip150)" d="M33.8307 629.684 Q33.2578 630.671 33.0032 631.849 Q32.7167 632.995 32.7167 634.395 Q32.7167 639.36 35.9632 642.034 Q39.1779 644.676 45.2253 644.676 L64.0042 644.676 L64.0042 650.564 L28.3562 650.564 L28.3562 644.676 L33.8944 644.676 Q30.6479 642.83 29.0883 639.87 Q27.4968 636.91 27.4968 632.676 Q27.4968 632.072 27.5923 631.34 Q27.656 630.607 27.8151 629.716 L33.8307 629.684 Z" fill="#000000" fill-rule="nonzero" fill-opacity="1" /><path clip-path="url(#clip150)" d="M45.7664 601.23 Q39.4007 601.23 35.8996 603.872 Q32.3984 606.481 32.3984 611.224 Q32.3984 615.935 35.8996 618.576 Q39.4007 621.186 45.7664 621.186 Q52.1003 621.186 55.6014 618.576 Q59.1026 615.935 59.1026 611.224 Q59.1026 606.481 55.6014 603.872 Q52.1003 601.23 45.7664 601.23 M59.58 595.373 Q68.683 595.373 73.1071 599.416 Q77.5631 603.458 77.5631 611.797 Q77.5631 614.884 77.0857 617.621 Q76.6401 620.359 75.6852 622.937 L69.9879 622.937 Q71.3884 620.359 72.0568 617.844 Q72.7252 615.33 72.7252 612.72 Q72.7252 606.959 69.7015 604.094 Q66.7096 601.23 60.6303 601.23 L57.7339 601.23 Q60.885 603.044 62.4446 605.877 Q64.0042 608.709 64.0042 612.656 Q64.0042 619.213 59.0071 623.223 Q54.01 627.234 45.7664 627.234 Q37.491 627.234 32.4939 623.223 Q27.4968 619.213 27.4968 612.656 Q27.4968 608.709 29.0564 605.877 Q30.616 603.044 33.7671 601.23 L28.3562 601.23 L28.3562 595.373 L59.58 595.373 Z" fill="#000000" fill-rule="nonzero" fill-opacity="1" /><path clip-path="url(#clip150)" d="M67.3143 568.478 Q73.68 570.961 75.6216 573.316 Q77.5631 575.671 77.5631 579.618 L77.5631 584.297 L72.6615 584.297 L72.6615 580.859 Q72.6615 578.441 71.5157 577.104 Q70.3699 575.767 66.1048 574.144 L63.4312 573.093 L28.3562 587.512 L28.3562 581.305 L56.238 570.165 L28.3562 559.025 L28.3562 552.819 L67.3143 568.478 Z" fill="#000000" fill-rule="nonzero" fill-opacity="1" /><path clip-path="url(#clip150)" d="M16.4842 513.606 L16.4842 508.195 L70.0516 524.746 L70.0516 530.157 L16.4842 513.606 Z" fill="#000000" fill-rule="nonzero" fill-opacity="1" /><path clip-path="url(#clip150)" d="M46.0847 485.851 Q46.0847 492.949 47.7079 495.686 Q49.3312 498.424 53.2461 498.424 Q56.3653 498.424 58.2114 496.387 Q60.0256 494.318 60.0256 490.785 Q60.0256 485.915 56.5881 482.987 Q53.1188 480.027 47.3897 480.027 L46.0847 480.027 L46.0847 485.851 M43.6657 474.17 L64.0042 474.17 L64.0042 480.027 L58.5933 480.027 Q61.8398 482.032 63.3994 485.024 Q64.9272 488.016 64.9272 492.344 Q64.9272 497.819 61.8716 501.065 Q58.7843 504.28 53.6281 504.28 Q47.6125 504.28 44.5569 500.27 Q41.5014 496.227 41.5014 488.238 L41.5014 480.027 L40.9285 480.027 Q36.8862 480.027 34.6901 482.7 Q32.4621 485.342 32.4621 490.148 Q32.4621 493.204 33.1941 496.1 Q33.9262 498.997 35.3903 501.67 L29.9795 501.67 Q28.7381 498.455 28.1334 495.432 Q27.4968 492.408 27.4968 489.543 Q27.4968 481.809 31.5072 477.99 Q35.5176 474.17 43.6657 474.17 Z" fill="#000000" fill-rule="nonzero" fill-opacity="1" /><path clip-path="url(#clip150)" d="M55.9197 461.28 L55.9197 454.564 L64.0042 454.564 L64.0042 461.28 L55.9197 461.28 Z" fill="#000000" fill-rule="nonzero" fill-opacity="1" /><path clip-path="url(#clip150)" d="M49.9359 441.992 L28.3562 441.992 L28.3562 436.135 L49.7131 436.135 Q54.7739 436.135 57.3202 434.162 Q59.8346 432.188 59.8346 428.242 Q59.8346 423.499 56.8109 420.762 Q53.7872 417.993 48.5673 417.993 L28.3562 417.993 L28.3562 412.136 L64.0042 412.136 L64.0042 417.993 L58.5296 417.993 Q61.7762 420.125 63.3676 422.958 Q64.9272 425.759 64.9272 429.483 Q64.9272 435.626 61.1078 438.809 Q57.2883 441.992 49.9359 441.992 M27.4968 427.255 L27.4968 427.255 Z" fill="#000000" fill-rule="nonzero" fill-opacity="1" /><path clip-path="url(#clip150)" d="M55.9197 399.246 L55.9197 392.53 L64.0042 392.53 L64.0042 399.246 L55.9197 399.246 Z" fill="#000000" fill-rule="nonzero" fill-opacity="1" /><polyline clip-path="url(#clip152)" style="stroke:#009af9; stroke-linecap:round; stroke-linejoin:round; stroke-width:4; stroke-opacity:1; fill:none" points="250.028,275.672 260.595,324.56 271.161,370.729 281.728,414.302 292.294,455.398 302.86,494.128 313.427,530.6 323.993,564.919 334.56,597.184 345.126,627.489 355.693,655.925 366.259,682.579 376.826,707.535 387.392,730.872 397.959,752.667 408.525,772.994 419.092,791.921 429.658,809.517 440.225,825.844 450.791,840.966 461.358,854.94 471.924,867.822 482.491,879.666 493.057,890.525 503.623,900.446 514.19,909.478 524.756,917.664 535.323,925.049 545.889,931.672 556.456,937.574 567.022,942.793 577.589,947.363 588.155,951.32 598.722,954.696 609.288,957.522 619.855,959.829 630.421,961.645 640.988,962.997 651.554,963.912 662.121,964.414 672.687,964.527 683.253,964.274 693.82,963.676 704.386,962.755 714.953,961.529 725.519,960.017 736.086,958.238 746.652,956.208 757.219,953.944 767.785,951.461 778.352,948.774 788.918,945.897 799.485,942.843 810.051,939.626 820.618,936.256 831.184,932.746 841.751,929.107 852.317,925.349 862.883,921.483 873.45,917.516 884.016,913.459 894.583,909.319 905.149,905.106 915.716,900.826 926.282,896.487 936.849,892.095 947.415,887.658 957.982,883.181 968.548,878.67 979.115,874.131 989.681,869.569 1000.25,864.988 1010.81,860.394 1021.38,855.791 1031.95,851.183 1042.51,846.573 1053.08,841.967 1063.65,837.366 1074.21,832.775 1084.78,828.196 1095.35,823.632 1105.91,819.086 1116.48,814.561 1127.05,810.058 1137.61,805.581 1148.18,801.13 1158.74,796.709 1169.31,792.318 1179.88,787.959 1190.44,783.634 1201.01,779.345 1211.58,775.092 1222.14,770.877 1232.71,766.701 1243.28,762.565 1253.84,758.469 1264.41,754.415 1274.98,750.404 1285.54,746.435 1296.11,742.51 1306.68,738.63 1317.24,734.794 1327.81,731.002 1338.37,727.257 1348.94,723.556 1359.51,719.902 1370.07,716.294 1380.64,712.732 1391.21,709.216 1401.77,705.746 1412.34,702.323 1422.91,698.946 1433.47,695.615 1444.04,692.331 1454.61,689.092 1465.17,685.9 1475.74,682.753 1486.31,679.651 1496.87,676.595 1507.44,673.584 1518,670.617 1528.57,667.695 1539.14,664.817 1549.7,661.983 1560.27,659.192 1570.84,656.444 1581.4,653.74 1591.97,651.077 1602.54,648.456 1613.1,645.877 1623.67,643.34 1634.24,640.842 1644.8,638.386 1655.37,635.969 1665.94,633.591 1676.5,631.253 1687.07,628.953 1697.63,626.691 1708.2,624.467 1718.77,622.28 1729.33,620.129 1739.9,618.015 1750.47,615.937 1761.03,613.894 1771.6,611.886 1782.17,609.912 1792.73,607.973 1803.3,606.066 1813.87,604.193 1824.43,602.352 1835,600.544 1845.57,598.767 1856.13,597.021 1866.7,595.305 1877.26,593.621 1887.83,591.965 1898.4,590.34 1908.96,588.743 1919.53,587.175 1930.1,585.634 1940.66,584.122 1951.23,582.636 1961.8,581.177 1972.36,579.745 1982.93,578.338 1993.5,576.957 2004.06,575.601 2014.63,574.27 2025.2,572.963 2035.76,571.68 2046.33,570.42 2056.89,569.184 2067.46,567.97 2078.03,566.779 2088.59,565.609 2099.16,564.462 2109.73,563.335 2120.29,562.229 2130.86,561.144 2141.43,560.079 2151.99,559.034 2162.56,558.008 2173.13,557.002 2183.69,556.014 2194.26,555.045 2204.83,554.094 2215.39,553.161 2225.96,552.245 2236.52,551.347 2247.09,550.465 2257.66,549.6 2268.22,548.752 2278.79,547.92 2289.36,547.103 2299.92,546.302 2310.49,545.516 2321.06,544.744 2331.62,543.988 2342.19,543.246 2352.76,542.518 "/>
<polyline clip-path="url(#clip152)" style="stroke:#e26f46; stroke-linecap:round; stroke-linejoin:round; stroke-width:4; stroke-opacity:1; fill:none" points="250.028,-6205.7 260.595,-5607.37 271.161,-5051.54 281.728,-4535.37 292.294,-4056.2 302.86,-3611.55 313.427,-3199.1 323.993,-2816.7 334.56,-2462.3 345.126,-2134.02 355.693,-1830.09 366.259,-1548.85 376.826,-1288.75 387.392,-1048.35 397.959,-826.294 408.525,-621.329 419.092,-432.274 429.658,-258.027 440.225,-97.5599 450.791,50.0872 461.358,185.811 471.924,310.449 482.491,424.782 493.057,529.539 503.623,625.403 514.19,713.007 524.756,792.946 535.323,865.772 545.889,932 556.456,992.113 567.022,1046.56 577.589,1095.76 588.155,1140.09 598.722,1179.94 609.288,1215.62 619.855,1247.47 630.421,1275.76 640.988,1300.79 651.554,1322.79 662.121,1342.02 672.687,1358.68 683.253,1372.98 693.82,1385.12 704.386,1395.27 714.953,1403.6 725.519,1410.26 736.086,1415.39 746.652,1419.13 757.219,1421.59 767.785,1422.9 778.352,1423.15 788.918,1422.45 799.485,1420.88 810.051,1418.53 820.618,1415.47 831.184,1411.79 841.751,1407.54 852.317,1402.79 862.883,1397.59 873.45,1391.99 884.016,1386.05 894.583,1379.81 905.149,1373.3 915.716,1366.58 926.282,1359.66 936.849,1352.59 947.415,1345.38 957.982,1338.08 968.548,1330.7 979.115,1323.26 989.681,1315.79 1000.25,1308.3 1010.81,1300.81 1021.38,1293.34 1031.95,1285.9 1042.51,1278.5 1053.08,1271.15 1063.65,1263.86 1074.21,1256.65 1084.78,1249.52 1095.35,1242.47 1105.91,1235.51 1116.48,1228.66 1127.05,1221.91 1137.61,1215.26 1148.18,1208.73 1158.74,1202.3 1169.31,1196 1179.88,1189.81 1190.44,1183.75 1201.01,1177.8 1211.58,1171.97 1222.14,1166.27 1232.71,1160.69 1243.28,1155.23 1253.84,1149.9 1264.41,1144.68 1274.98,1139.59 1285.54,1134.62 1296.11,1129.76 1306.68,1125.02 1317.24,1120.4 1327.81,1115.89 1338.37,1111.5 1348.94,1107.22 1359.51,1103.04 1370.07,1098.98 1380.64,1095.02 1391.21,1091.16 1401.77,1087.41 1412.34,1083.76 1422.91,1080.21 1433.47,1076.75 1444.04,1073.39 1454.61,1070.12 1465.17,1066.94 1475.74,1063.85 1486.31,1060.85 1496.87,1057.93 1507.44,1055.09 1518,1052.34 1528.57,1049.66 1539.14,1047.06 1549.7,1044.54 1560.27,1042.09 1570.84,1039.71 1581.4,1037.39 1591.97,1035.15 1602.54,1032.97 1613.1,1030.86 1623.67,1028.81 1634.24,1026.82 1644.8,1024.89 1655.37,1023.01 1665.94,1021.2 1676.5,1019.43 1687.07,1017.72 1697.63,1016.07 1708.2,1014.46 1718.77,1012.9 1729.33,1011.39 1739.9,1009.92 1750.47,1008.5 1761.03,1007.12 1771.6,1005.78 1782.17,1004.49 1792.73,1003.23 1803.3,1002.02 1813.87,1000.84 1824.43,999.693 1835,998.585 1845.57,997.511 1856.13,996.47 1866.7,995.462 1877.26,994.485 1887.83,993.538 1898.4,992.621 1908.96,991.732 1919.53,990.871 1930.1,990.037 1940.66,989.228 1951.23,988.445 1961.8,987.687 1972.36,986.952 1982.93,986.241 1993.5,985.551 2004.06,984.884 2014.63,984.237 2025.2,983.61 2035.76,983.004 2046.33,982.416 2056.89,981.847 2067.46,981.296 2078.03,980.762 2088.59,980.245 2099.16,979.745 2109.73,979.26 2120.29,978.79 2130.86,978.336 2141.43,977.895 2151.99,977.469 2162.56,977.056 2173.13,976.657 2183.69,976.27 2194.26,975.895 2204.83,975.532 2215.39,975.181 2225.96,974.841 2236.52,974.511 2247.09,974.192 2257.66,973.883 2268.22,973.585 2278.79,973.295 2289.36,973.015 2299.92,972.744 2310.49,972.481 2321.06,972.227 2331.62,971.981 2342.19,971.742 2352.76,971.511 "/>
<polyline clip-path="url(#clip152)" style="stroke:#3da44d; stroke-linecap:round; stroke-linejoin:round; stroke-width:4; stroke-opacity:1; fill:none" points="250.028,-9722.69 260.595,-8993.57 271.161,-8312.42 281.728,-7676.13 292.294,-7081.82 302.86,-6526.77 313.427,-6008.44 323.993,-5524.47 334.56,-5072.62 345.126,-4650.82 355.693,-4257.12 366.259,-3889.7 376.826,-3546.85 387.392,-3226.97 397.959,-2928.57 408.525,-2650.26 419.092,-2390.71 429.658,-2148.71 440.225,-1923.12 450.791,-1712.85 461.358,-1516.91 471.924,-1334.36 482.491,-1164.31 493.057,-1005.95 503.623,-858.509 514.19,-721.264 524.756,-593.543 535.323,-474.717 545.889,-364.198 556.456,-261.434 567.022,-165.911 577.589,-77.1464 588.155,5.3096 598.722,81.8785 609.288,152.954 619.855,218.905 630.421,280.076 640.988,336.787 651.554,389.341 662.121,438.019 672.687,483.083 683.253,524.78 693.82,563.338 704.386,598.973 714.953,631.884 725.519,662.26 736.086,690.275 746.652,716.092 757.219,739.865 767.785,761.735 778.352,781.837 788.918,800.293 799.485,817.221 810.051,832.728 820.618,846.916 831.184,859.879 841.751,871.704 852.317,882.475 862.883,892.267 873.45,901.152 884.016,909.197 894.583,916.464 905.149,923.01 915.716,928.89 926.282,934.153 936.849,938.847 947.415,943.016 957.982,946.699 968.548,949.935 979.115,952.759 989.681,955.203 1000.25,957.298 1010.81,959.073 1021.38,960.553 1031.95,961.763 1042.51,962.726 1053.08,963.463 1063.65,963.994 1074.21,964.337 1084.78,964.508 1095.35,964.523 1105.91,964.397 1116.48,964.143 1127.05,963.775 1137.61,963.302 1148.18,962.736 1158.74,962.086 1169.31,961.363 1179.88,960.574 1190.44,959.726 1201.01,958.828 1211.58,957.885 1222.14,956.904 1232.71,955.89 1243.28,954.849 1253.84,953.785 1264.41,952.702 1274.98,951.604 1285.54,950.495 1296.11,949.379 1306.68,948.258 1317.24,947.134 1327.81,946.011 1338.37,944.891 1348.94,943.775 1359.51,942.666 1370.07,941.565 1380.64,940.474 1391.21,939.394 1401.77,938.326 1412.34,937.27 1422.91,936.229 1433.47,935.203 1444.04,934.193 1454.61,933.198 1465.17,932.221 1475.74,931.26 1486.31,930.317 1496.87,929.392 1507.44,928.485 1518,927.595 1528.57,926.724 1539.14,925.872 1549.7,925.037 1560.27,924.222 1570.84,923.424 1581.4,922.644 1591.97,921.883 1602.54,921.14 1613.1,920.414 1623.67,919.706 1634.24,919.015 1644.8,918.342 1655.37,917.685 1665.94,917.045 1676.5,916.422 1687.07,915.814 1697.63,915.223 1708.2,914.647 1718.77,914.086 1729.33,913.541 1739.9,913.01 1750.47,912.494 1761.03,911.992 1771.6,911.503 1782.17,911.029 1792.73,910.567 1803.3,910.119 1813.87,909.683 1824.43,909.259 1835,908.847 1845.57,908.448 1856.13,908.059 1866.7,907.682 1877.26,907.316 1887.83,906.961 1898.4,906.616 1908.96,906.281 1919.53,905.955 1930.1,905.64 1940.66,905.334 1951.23,905.036 1961.8,904.748 1972.36,904.468 1982.93,904.197 1993.5,903.934 2004.06,903.679 2014.63,903.431 2025.2,903.191 2035.76,902.958 2046.33,902.732 2056.89,902.513 2067.46,902.301 2078.03,902.095 2088.59,901.896 2099.16,901.702 2109.73,901.515 2120.29,901.333 2130.86,901.157 2141.43,900.986 2151.99,900.821 2162.56,900.66 2173.13,900.505 2183.69,900.355 2194.26,900.209 2204.83,900.067 2215.39,899.93 2225.96,899.798 2236.52,899.669 2247.09,899.545 2257.66,899.424 2268.22,899.307 2278.79,899.194 2289.36,899.084 2299.92,898.978 2310.49,898.875 2321.06,898.775 2331.62,898.679 2342.19,898.585 2352.76,898.495 "/>
<polyline clip-path="url(#clip152)" style="stroke:#c271d2; stroke-linecap:round; stroke-linejoin:round; stroke-width:4; stroke-opacity:1; fill:none" points="250.028,1423.18 260.595,1423.18 271.161,1423.18 281.728,1423.18 292.294,1423.18 302.86,1423.18 313.427,1423.18 323.993,1423.18 334.56,1423.18 345.126,1423.18 355.693,1423.18 366.259,1423.18 376.826,1423.18 387.392,1423.18 397.959,1423.18 408.525,1423.18 419.092,1423.18 429.658,1423.17 440.225,1423.14 450.791,1422.98 461.358,1422.4 471.924,1420.62 482.491,1416.03 493.057,1406.18 503.623,1388.78 514.19,1363.97 524.756,1336.48 535.323,1315.17 545.889,1308.7 556.456,1319.95 567.022,1343.98 577.589,1371.49 588.155,1394.48 598.722,1409.62 609.288,1417.73 619.855,1421.32 630.421,1422.64 640.988,1423.05 651.554,1423.15 662.121,1423.17 672.687,1423.18 683.253,1423.18 693.82,1423.18 704.386,1423.18 714.953,1423.18 725.519,1423.18 736.086,1423.18 746.652,1423.18 757.219,1423.18 767.785,1423.18 778.352,1423.18 788.918,1423.18 799.485,1423.18 810.051,1423.18 820.618,1423.18 831.184,1423.18 841.751,1423.18 852.317,1423.18 862.883,1423.18 873.45,1423.18 884.016,1423.18 894.583,1423.18 905.149,1423.18 915.716,1423.18 926.282,1423.18 936.849,1423.18 947.415,1423.18 957.982,1423.18 968.548,1423.18 979.115,1423.18 989.681,1423.18 1000.25,1423.18 1010.81,1423.18 1021.38,1423.18 1031.95,1423.18 1042.51,1423.18 1053.08,1423.18 1063.65,1423.18 1074.21,1423.18 1084.78,1423.18 1095.35,1423.18 1105.91,1423.18 1116.48,1423.18 1127.05,1423.18 1137.61,1423.18 1148.18,1423.18 1158.74,1423.18 1169.31,1423.18 1179.88,1423.18 1190.44,1423.18 1201.01,1423.18 1211.58,1423.18 1222.14,1423.18 1232.71,1423.18 1243.28,1423.18 1253.84,1423.18 1264.41,1423.18 1274.98,1423.18 1285.54,1423.18 1296.11,1423.18 1306.68,1423.18 1317.24,1423.18 1327.81,1423.18 1338.37,1423.18 1348.94,1423.18 1359.51,1423.18 1370.07,1423.18 1380.64,1423.18 1391.21,1423.18 1401.77,1423.18 1412.34,1423.18 1422.91,1423.18 1433.47,1423.18 1444.04,1423.18 1454.61,1423.18 1465.17,1423.18 1475.74,1423.18 1486.31,1423.18 1496.87,1423.18 1507.44,1423.18 1518,1423.18 1528.57,1423.18 1539.14,1423.18 1549.7,1423.18 1560.27,1423.18 1570.84,1423.18 1581.4,1423.18 1591.97,1423.18 1602.54,1423.18 1613.1,1423.18 1623.67,1423.18 1634.24,1423.18 1644.8,1423.18 1655.37,1423.18 1665.94,1423.18 1676.5,1423.18 1687.07,1423.18 1697.63,1423.18 1708.2,1423.18 1718.77,1423.18 1729.33,1423.18 1739.9,1423.18 1750.47,1423.18 1761.03,1423.18 1771.6,1423.18 1782.17,1423.18 1792.73,1423.18 1803.3,1423.18 1813.87,1423.18 1824.43,1423.18 1835,1423.18 1845.57,1423.18 1856.13,1423.18 1866.7,1423.18 1877.26,1423.18 1887.83,1423.18 1898.4,1423.18 1908.96,1423.18 1919.53,1423.18 1930.1,1423.18 1940.66,1423.18 1951.23,1423.18 1961.8,1423.18 1972.36,1423.18 1982.93,1423.18 1993.5,1423.18 2004.06,1423.18 2014.63,1423.18 2025.2,1423.18 2035.76,1423.18 2046.33,1423.18 2056.89,1423.18 2067.46,1423.18 2078.03,1423.18 2088.59,1423.18 2099.16,1423.18 2109.73,1423.18 2120.29,1423.18 2130.86,1423.18 2141.43,1423.18 2151.99,1423.18 2162.56,1423.18 2173.13,1423.18 2183.69,1423.18 2194.26,1423.18 2204.83,1423.18 2215.39,1423.18 2225.96,1423.18 2236.52,1423.18 2247.09,1423.18 2257.66,1423.18 2268.22,1423.18 2278.79,1423.18 2289.36,1423.18 2299.92,1423.18 2310.49,1423.18 2321.06,1423.18 2331.62,1423.18 2342.19,1423.18 2352.76,1423.18 "/>
<polyline clip-path="url(#clip152)" style="stroke:#ac8d18; stroke-linecap:round; stroke-linejoin:round; stroke-width:4; stroke-opacity:1; fill:none" points="250.028,1423.18 260.595,1423.18 271.161,1423.18 281.728,1423.18 292.294,1423.18 302.86,1423.18 313.427,1423.18 323.993,1423.18 334.56,1423.18 345.126,1423.18 355.693,1423.18 366.259,1423.18 376.826,1423.18 387.392,1423.18 397.959,1423.18 408.525,1423.18 419.092,1423.18 429.658,1423.18 440.225,1423.18 450.791,1423.18 461.358,1423.18 471.924,1423.18 482.491,1423.18 493.057,1423.18 503.623,1423.18 514.19,1423.18 524.756,1423.18 535.323,1423.18 545.889,1423.18 556.456,1423.18 567.022,1423.18 577.589,1423.18 588.155,1423.18 598.722,1423.18 609.288,1423.18 619.855,1423.18 630.421,1423.18 640.988,1423.18 651.554,1423.18 662.121,1423.18 672.687,1423.18 683.253,1423.18 693.82,1423.18 704.386,1423.18 714.953,1423.18 725.519,1423.18 736.086,1423.18 746.652,1423.18 757.219,1423.18 767.785,1423.18 778.352,1423.18 788.918,1423.18 799.485,1423.18 810.051,1423.18 820.618,1423.18 831.184,1423.18 841.751,1423.18 852.317,1423.18 862.883,1423.18 873.45,1423.18 884.016,1423.18 894.583,1423.18 905.149,1423.18 915.716,1423.18 926.282,1423.18 936.849,1423.18 947.415,1423.18 957.982,1423.18 968.548,1423.18 979.115,1423.18 989.681,1423.18 1000.25,1423.18 1010.81,1423.18 1021.38,1423.18 1031.95,1423.18 1042.51,1423.18 1053.08,1423.18 1063.65,1423.18 1074.21,1423.18 1084.78,1423.18 1095.35,1423.18 1105.91,1423.18 1116.48,1423.18 1127.05,1423.18 1137.61,1423.18 1148.18,1423.18 1158.74,1423.18 1169.31,1423.18 1179.88,1423.18 1190.44,1423.18 1201.01,1423.18 1211.58,1423.18 1222.14,1423.18 1232.71,1423.18 1243.28,1423.18 1253.84,1423.18 1264.41,1423.18 1274.98,1423.18 1285.54,1423.18 1296.11,1423.18 1306.68,1423.18 1317.24,1423.18 1327.81,1423.18 1338.37,1423.18 1348.94,1423.18 1359.51,1423.18 1370.07,1423.18 1380.64,1423.18 1391.21,1423.18 1401.77,1423.18 1412.34,1423.18 1422.91,1423.18 1433.47,1423.18 1444.04,1423.18 1454.61,1423.18 1465.17,1423.18 1475.74,1423.18 1486.31,1423.18 1496.87,1423.18 1507.44,1423.18 1518,1423.18 1528.57,1423.18 1539.14,1423.18 1549.7,1423.18 1560.27,1423.18 1570.84,1423.18 1581.4,1423.18 1591.97,1423.18 1602.54,1423.18 1613.1,1423.18 1623.67,1423.18 1634.24,1423.18 1644.8,1423.18 1655.37,1423.18 1665.94,1423.18 1676.5,1423.18 1687.07,1423.18 1697.63,1423.18 1708.2,1423.18 1718.77,1423.18 1729.33,1423.18 1739.9,1423.18 1750.47,1423.18 1761.03,1423.18 1771.6,1423.18 1782.17,1423.18 1792.73,1423.18 1803.3,1423.18 1813.87,1423.18 1824.43,1423.18 1835,1423.18 1845.57,1423.18 1856.13,1423.18 1866.7,1423.18 1877.26,1423.18 1887.83,1423.18 1898.4,1423.18 1908.96,1423.18 1919.53,1423.18 1930.1,1423.18 1940.66,1423.18 1951.23,1423.18 1961.8,1423.18 1972.36,1423.18 1982.93,1423.18 1993.5,1423.18 2004.06,1423.18 2014.63,1423.18 2025.2,1423.18 2035.76,1423.18 2046.33,1423.18 2056.89,1423.18 2067.46,1423.18 2078.03,1423.18 2088.59,1423.18 2099.16,1423.18 2109.73,1423.18 2120.29,1423.18 2130.86,1423.18 2141.43,1423.18 2151.99,1423.18 2162.56,1423.18 2173.13,1423.18 2183.69,1423.18 2194.26,1423.18 2204.83,1423.18 2215.39,1423.18 2225.96,1423.18 2236.52,1423.18 2247.09,1423.18 2257.66,1423.18 2268.22,1423.18 2278.79,1423.18 2289.36,1423.18 2299.92,1423.18 2310.49,1423.18 2321.06,1423.18 2331.62,1423.18 2342.19,1423.18 2352.76,1423.18 "/>
<polyline clip-path="url(#clip152)" style="stroke:#00a9ad; stroke-linecap:round; stroke-linejoin:round; stroke-width:4; stroke-opacity:1; fill:none" points="250.028,1423.18 260.595,1423.18 271.161,1423.18 281.728,1423.18 292.294,1423.18 302.86,1423.18 313.427,1423.18 323.993,1423.18 334.56,1423.18 345.126,1423.18 355.693,1423.18 366.259,1423.18 376.826,1423.18 387.392,1423.18 397.959,1423.18 408.525,1423.18 419.092,1423.18 429.658,1423.18 440.225,1423.18 450.791,1423.18 461.358,1423.18 471.924,1423.18 482.491,1423.18 493.057,1423.18 503.623,1423.18 514.19,1423.18 524.756,1423.18 535.323,1423.18 545.889,1423.18 556.456,1423.18 567.022,1423.18 577.589,1423.18 588.155,1423.18 598.722,1423.18 609.288,1423.18 619.855,1423.18 630.421,1423.18 640.988,1423.18 651.554,1423.18 662.121,1423.18 672.687,1423.18 683.253,1423.18 693.82,1423.18 704.386,1423.18 714.953,1423.18 725.519,1423.18 736.086,1423.18 746.652,1423.18 757.219,1423.17 767.785,1423.15 778.352,1423.04 788.918,1422.61 799.485,1421.24 810.051,1417.53 820.618,1409.2 831.184,1393.76 841.751,1370.52 852.317,1342.97 862.883,1319.25 873.45,1308.62 884.016,1315.74 894.583,1337.45 905.149,1364.98 915.716,1389.57 926.282,1406.67 936.849,1416.28 947.415,1420.72 957.982,1422.44 968.548,1422.99 979.115,1423.14 989.681,1423.17 1000.25,1423.18 1010.81,1423.18 1021.38,1423.18 1031.95,1423.18 1042.51,1423.18 1053.08,1423.18 1063.65,1423.18 1074.21,1423.18 1084.78,1423.18 1095.35,1423.18 1105.91,1423.18 1116.48,1423.18 1127.05,1423.18 1137.61,1423.18 1148.18,1423.18 1158.74,1423.18 1169.31,1423.18 1179.88,1423.18 1190.44,1423.18 1201.01,1423.18 1211.58,1423.18 1222.14,1423.18 1232.71,1423.18 1243.28,1423.18 1253.84,1423.18 1264.41,1423.18 1274.98,1423.18 1285.54,1423.18 1296.11,1423.18 1306.68,1423.18 1317.24,1423.18 1327.81,1423.18 1338.37,1423.18 1348.94,1423.18 1359.51,1423.18 1370.07,1423.18 1380.64,1423.18 1391.21,1423.18 1401.77,1423.18 1412.34,1423.18 1422.91,1423.18 1433.47,1423.18 1444.04,1423.18 1454.61,1423.18 1465.17,1423.18 1475.74,1423.18 1486.31,1423.18 1496.87,1423.18 1507.44,1423.18 1518,1423.18 1528.57,1423.18 1539.14,1423.18 1549.7,1423.18 1560.27,1423.18 1570.84,1423.18 1581.4,1423.18 1591.97,1423.18 1602.54,1423.18 1613.1,1423.18 1623.67,1423.18 1634.24,1423.18 1644.8,1423.18 1655.37,1423.18 1665.94,1423.18 1676.5,1423.18 1687.07,1423.18 1697.63,1423.18 1708.2,1423.18 1718.77,1423.18 1729.33,1423.18 1739.9,1423.18 1750.47,1423.18 1761.03,1423.18 1771.6,1423.18 1782.17,1423.18 1792.73,1423.18 1803.3,1423.18 1813.87,1423.18 1824.43,1423.18 1835,1423.18 1845.57,1423.18 1856.13,1423.18 1866.7,1423.18 1877.26,1423.18 1887.83,1423.18 1898.4,1423.18 1908.96,1423.18 1919.53,1423.18 1930.1,1423.18 1940.66,1423.18 1951.23,1423.18 1961.8,1423.18 1972.36,1423.18 1982.93,1423.18 1993.5,1423.18 2004.06,1423.18 2014.63,1423.18 2025.2,1423.18 2035.76,1423.18 2046.33,1423.18 2056.89,1423.18 2067.46,1423.18 2078.03,1423.18 2088.59,1423.18 2099.16,1423.18 2109.73,1423.18 2120.29,1423.18 2130.86,1423.18 2141.43,1423.18 2151.99,1423.18 2162.56,1423.18 2173.13,1423.18 2183.69,1423.18 2194.26,1423.18 2204.83,1423.18 2215.39,1423.18 2225.96,1423.18 2236.52,1423.18 2247.09,1423.18 2257.66,1423.18 2268.22,1423.18 2278.79,1423.18 2289.36,1423.18 2299.92,1423.18 2310.49,1423.18 2321.06,1423.18 2331.62,1423.18 2342.19,1423.18 2352.76,1423.18 "/>
<path clip-path="url(#clip150)" d="M1794.73 455.989 L2282.66 455.989 L2282.66 93.1086 L1794.73 93.1086  Z" fill="#ffffff" fill-rule="evenodd" fill-opacity="1"/>
<polyline clip-path="url(#clip150)" style="stroke:#000000; stroke-linecap:round; stroke-linejoin:round; stroke-width:4; stroke-opacity:1; fill:none" points="1794.73,455.989 2282.66,455.989 2282.66,93.1086 1794.73,93.1086 1794.73,455.989 "/>
<polyline clip-path="url(#clip150)" style="stroke:#009af9; stroke-linecap:round; stroke-linejoin:round; stroke-width:4; stroke-opacity:1; fill:none" points="1818.1,144.949 1958.28,144.949 "/>
<path clip-path="url(#clip150)" d="M2003.89 128.803 L2003.89 133.363 Q2001.22 132.09 1998.86 131.465 Q1996.5 130.84 1994.3 130.84 Q1990.48 130.84 1988.4 132.321 Q1986.34 133.803 1986.34 136.534 Q1986.34 138.826 1987.71 140.007 Q1989.09 141.164 1992.94 141.882 L1995.76 142.46 Q2000.99 143.456 2003.47 145.979 Q2005.97 148.479 2005.97 152.692 Q2005.97 157.715 2002.59 160.307 Q1999.23 162.9 1992.73 162.9 Q1990.28 162.9 1987.5 162.344 Q1984.74 161.789 1981.78 160.701 L1981.78 155.886 Q1984.63 157.483 1987.36 158.293 Q1990.09 159.104 1992.73 159.104 Q1996.73 159.104 1998.91 157.53 Q2001.09 155.956 2001.09 153.039 Q2001.09 150.493 1999.51 149.057 Q1997.96 147.622 1994.4 146.905 L1991.55 146.349 Q1986.32 145.307 1983.98 143.085 Q1981.64 140.863 1981.64 136.905 Q1981.64 132.321 1984.86 129.682 Q1988.1 127.044 1993.77 127.044 Q1996.2 127.044 1998.72 127.483 Q2001.25 127.923 2003.89 128.803 Z" fill="#000000" fill-rule="nonzero" fill-opacity="1" /><path clip-path="url(#clip150)" d="M2017.29 128.942 L2017.29 136.303 L2026.06 136.303 L2026.06 139.613 L2017.29 139.613 L2017.29 153.687 Q2017.29 156.858 2018.15 157.761 Q2019.02 158.664 2021.69 158.664 L2026.06 158.664 L2026.06 162.229 L2021.69 162.229 Q2016.76 162.229 2014.88 160.4 Q2013.01 158.548 2013.01 153.687 L2013.01 139.613 L2009.88 139.613 L2009.88 136.303 L2013.01 136.303 L2013.01 128.942 L2017.29 128.942 Z" fill="#000000" fill-rule="nonzero" fill-opacity="1" /><path clip-path="url(#clip150)" d="M2043.45 149.196 Q2038.28 149.196 2036.29 150.377 Q2034.3 151.557 2034.3 154.405 Q2034.3 156.673 2035.78 158.016 Q2037.29 159.335 2039.86 159.335 Q2043.4 159.335 2045.53 156.835 Q2047.68 154.312 2047.68 150.145 L2047.68 149.196 L2043.45 149.196 M2051.94 147.437 L2051.94 162.229 L2047.68 162.229 L2047.68 158.293 Q2046.22 160.655 2044.05 161.789 Q2041.87 162.9 2038.72 162.9 Q2034.74 162.9 2032.38 160.678 Q2030.04 158.432 2030.04 154.682 Q2030.04 150.307 2032.96 148.085 Q2035.9 145.863 2041.71 145.863 L2047.68 145.863 L2047.68 145.446 Q2047.68 142.507 2045.74 140.909 Q2043.82 139.289 2040.32 139.289 Q2038.1 139.289 2035.99 139.821 Q2033.89 140.354 2031.94 141.419 L2031.94 137.483 Q2034.28 136.581 2036.48 136.141 Q2038.68 135.678 2040.76 135.678 Q2046.39 135.678 2049.16 138.594 Q2051.94 141.511 2051.94 147.437 Z" fill="#000000" fill-rule="nonzero" fill-opacity="1" /><path clip-path="url(#clip150)" d="M2064.93 128.942 L2064.93 136.303 L2073.7 136.303 L2073.7 139.613 L2064.93 139.613 L2064.93 153.687 Q2064.93 156.858 2065.78 157.761 Q2066.66 158.664 2069.33 158.664 L2073.7 158.664 L2073.7 162.229 L2069.33 162.229 Q2064.39 162.229 2062.52 160.4 Q2060.64 158.548 2060.64 153.687 L2060.64 139.613 L2057.52 139.613 L2057.52 136.303 L2060.64 136.303 L2060.64 128.942 L2064.93 128.942 Z" fill="#000000" fill-rule="nonzero" fill-opacity="1" /><path clip-path="url(#clip150)" d="M2101.48 148.201 L2101.48 150.284 L2081.89 150.284 Q2082.17 154.682 2084.53 156.997 Q2086.92 159.289 2091.15 159.289 Q2093.61 159.289 2095.9 158.687 Q2098.21 158.085 2100.48 156.881 L2100.48 160.909 Q2098.19 161.881 2095.78 162.391 Q2093.38 162.9 2090.9 162.9 Q2084.7 162.9 2081.06 159.289 Q2077.45 155.678 2077.45 149.52 Q2077.45 143.155 2080.88 139.428 Q2084.33 135.678 2090.16 135.678 Q2095.39 135.678 2098.42 139.057 Q2101.48 142.414 2101.48 148.201 M2097.22 146.951 Q2097.17 143.456 2095.25 141.372 Q2093.35 139.289 2090.21 139.289 Q2086.64 139.289 2084.49 141.303 Q2082.36 143.317 2082.03 146.974 L2097.22 146.951 Z" fill="#000000" fill-rule="nonzero" fill-opacity="1" /><path clip-path="url(#clip150)" d="M2124.95 158.293 L2132.59 158.293 L2132.59 131.928 L2124.28 133.595 L2124.28 129.335 L2132.54 127.669 L2137.22 127.669 L2137.22 158.293 L2144.86 158.293 L2144.86 162.229 L2124.95 162.229 L2124.95 158.293 Z" fill="#000000" fill-rule="nonzero" fill-opacity="1" /><polyline clip-path="url(#clip150)" style="stroke:#e26f46; stroke-linecap:round; stroke-linejoin:round; stroke-width:4; stroke-opacity:1; fill:none" points="1818.1,196.789 1958.28,196.789 "/>
<path clip-path="url(#clip150)" d="M2003.89 180.643 L2003.89 185.203 Q2001.22 183.93 1998.86 183.305 Q1996.5 182.68 1994.3 182.68 Q1990.48 182.68 1988.4 184.161 Q1986.34 185.643 1986.34 188.374 Q1986.34 190.666 1987.71 191.847 Q1989.09 193.004 1992.94 193.722 L1995.76 194.3 Q2000.99 195.296 2003.47 197.819 Q2005.97 200.319 2005.97 204.532 Q2005.97 209.555 2002.59 212.147 Q1999.23 214.74 1992.73 214.74 Q1990.28 214.74 1987.5 214.184 Q1984.74 213.629 1981.78 212.541 L1981.78 207.726 Q1984.63 209.323 1987.36 210.133 Q1990.09 210.944 1992.73 210.944 Q1996.73 210.944 1998.91 209.37 Q2001.09 207.796 2001.09 204.879 Q2001.09 202.333 1999.51 200.897 Q1997.96 199.462 1994.4 198.745 L1991.55 198.189 Q1986.32 197.147 1983.98 194.925 Q1981.64 192.703 1981.64 188.745 Q1981.64 184.161 1984.86 181.522 Q1988.1 178.884 1993.77 178.884 Q1996.2 178.884 1998.72 179.323 Q2001.25 179.763 2003.89 180.643 Z" fill="#000000" fill-rule="nonzero" fill-opacity="1" /><path clip-path="url(#clip150)" d="M2017.29 180.782 L2017.29 188.143 L2026.06 188.143 L2026.06 191.453 L2017.29 191.453 L2017.29 205.527 Q2017.29 208.698 2018.15 209.601 Q2019.02 210.504 2021.69 210.504 L2026.06 210.504 L2026.06 214.069 L2021.69 214.069 Q2016.76 214.069 2014.88 212.24 Q2013.01 210.388 2013.01 205.527 L2013.01 191.453 L2009.88 191.453 L2009.88 188.143 L2013.01 188.143 L2013.01 180.782 L2017.29 180.782 Z" fill="#000000" fill-rule="nonzero" fill-opacity="1" /><path clip-path="url(#clip150)" d="M2043.45 201.036 Q2038.28 201.036 2036.29 202.217 Q2034.3 203.397 2034.3 206.245 Q2034.3 208.513 2035.78 209.856 Q2037.29 211.175 2039.86 211.175 Q2043.4 211.175 2045.53 208.675 Q2047.68 206.152 2047.68 201.985 L2047.68 201.036 L2043.45 201.036 M2051.94 199.277 L2051.94 214.069 L2047.68 214.069 L2047.68 210.133 Q2046.22 212.495 2044.05 213.629 Q2041.87 214.74 2038.72 214.74 Q2034.74 214.74 2032.38 212.518 Q2030.04 210.272 2030.04 206.522 Q2030.04 202.147 2032.96 199.925 Q2035.9 197.703 2041.71 197.703 L2047.68 197.703 L2047.68 197.286 Q2047.68 194.347 2045.74 192.749 Q2043.82 191.129 2040.32 191.129 Q2038.1 191.129 2035.99 191.661 Q2033.89 192.194 2031.94 193.259 L2031.94 189.323 Q2034.28 188.421 2036.48 187.981 Q2038.68 187.518 2040.76 187.518 Q2046.39 187.518 2049.16 190.434 Q2051.94 193.351 2051.94 199.277 Z" fill="#000000" fill-rule="nonzero" fill-opacity="1" /><path clip-path="url(#clip150)" d="M2064.93 180.782 L2064.93 188.143 L2073.7 188.143 L2073.7 191.453 L2064.93 191.453 L2064.93 205.527 Q2064.93 208.698 2065.78 209.601 Q2066.66 210.504 2069.33 210.504 L2073.7 210.504 L2073.7 214.069 L2069.33 214.069 Q2064.39 214.069 2062.52 212.24 Q2060.64 210.388 2060.64 205.527 L2060.64 191.453 L2057.52 191.453 L2057.52 188.143 L2060.64 188.143 L2060.64 180.782 L2064.93 180.782 Z" fill="#000000" fill-rule="nonzero" fill-opacity="1" /><path clip-path="url(#clip150)" d="M2101.48 200.041 L2101.48 202.124 L2081.89 202.124 Q2082.17 206.522 2084.53 208.837 Q2086.92 211.129 2091.15 211.129 Q2093.61 211.129 2095.9 210.527 Q2098.21 209.925 2100.48 208.721 L2100.48 212.749 Q2098.19 213.721 2095.78 214.231 Q2093.38 214.74 2090.9 214.74 Q2084.7 214.74 2081.06 211.129 Q2077.45 207.518 2077.45 201.36 Q2077.45 194.995 2080.88 191.268 Q2084.33 187.518 2090.16 187.518 Q2095.39 187.518 2098.42 190.897 Q2101.48 194.254 2101.48 200.041 M2097.22 198.791 Q2097.17 195.296 2095.25 193.212 Q2093.35 191.129 2090.21 191.129 Q2086.64 191.129 2084.49 193.143 Q2082.36 195.157 2082.03 198.814 L2097.22 198.791 Z" fill="#000000" fill-rule="nonzero" fill-opacity="1" /><path clip-path="url(#clip150)" d="M2128.17 210.133 L2144.49 210.133 L2144.49 214.069 L2122.54 214.069 L2122.54 210.133 Q2125.2 207.379 2129.79 202.749 Q2134.39 198.096 2135.58 196.754 Q2137.82 194.231 2138.7 192.495 Q2139.6 190.735 2139.6 189.046 Q2139.6 186.291 2137.66 184.555 Q2135.74 182.819 2132.64 182.819 Q2130.44 182.819 2127.98 183.583 Q2125.55 184.347 2122.77 185.897 L2122.77 181.175 Q2125.6 180.041 2128.05 179.462 Q2130.51 178.884 2132.54 178.884 Q2137.91 178.884 2141.11 181.569 Q2144.3 184.254 2144.3 188.745 Q2144.3 190.874 2143.49 192.796 Q2142.7 194.694 2140.6 197.286 Q2140.02 197.958 2136.92 201.175 Q2133.82 204.37 2128.17 210.133 Z" fill="#000000" fill-rule="nonzero" fill-opacity="1" /><polyline clip-path="url(#clip150)" style="stroke:#3da44d; stroke-linecap:round; stroke-linejoin:round; stroke-width:4; stroke-opacity:1; fill:none" points="1818.1,248.629 1958.28,248.629 "/>
<path clip-path="url(#clip150)" d="M2003.89 232.483 L2003.89 237.043 Q2001.22 235.77 1998.86 235.145 Q1996.5 234.52 1994.3 234.52 Q1990.48 234.52 1988.4 236.001 Q1986.34 237.483 1986.34 240.214 Q1986.34 242.506 1987.71 243.687 Q1989.09 244.844 1992.94 245.562 L1995.76 246.14 Q2000.99 247.136 2003.47 249.659 Q2005.97 252.159 2005.97 256.372 Q2005.97 261.395 2002.59 263.987 Q1999.23 266.58 1992.73 266.58 Q1990.28 266.58 1987.5 266.024 Q1984.74 265.469 1981.78 264.381 L1981.78 259.566 Q1984.63 261.163 1987.36 261.973 Q1990.09 262.784 1992.73 262.784 Q1996.73 262.784 1998.91 261.21 Q2001.09 259.636 2001.09 256.719 Q2001.09 254.173 1999.51 252.737 Q1997.96 251.302 1994.4 250.585 L1991.55 250.029 Q1986.32 248.987 1983.98 246.765 Q1981.64 244.543 1981.64 240.585 Q1981.64 236.001 1984.86 233.362 Q1988.1 230.724 1993.77 230.724 Q1996.2 230.724 1998.72 231.163 Q2001.25 231.603 2003.89 232.483 Z" fill="#000000" fill-rule="nonzero" fill-opacity="1" /><path clip-path="url(#clip150)" d="M2017.29 232.622 L2017.29 239.983 L2026.06 239.983 L2026.06 243.293 L2017.29 243.293 L2017.29 257.367 Q2017.29 260.538 2018.15 261.441 Q2019.02 262.344 2021.69 262.344 L2026.06 262.344 L2026.06 265.909 L2021.69 265.909 Q2016.76 265.909 2014.88 264.08 Q2013.01 262.228 2013.01 257.367 L2013.01 243.293 L2009.88 243.293 L2009.88 239.983 L2013.01 239.983 L2013.01 232.622 L2017.29 232.622 Z" fill="#000000" fill-rule="nonzero" fill-opacity="1" /><path clip-path="url(#clip150)" d="M2043.45 252.876 Q2038.28 252.876 2036.29 254.057 Q2034.3 255.237 2034.3 258.085 Q2034.3 260.353 2035.78 261.696 Q2037.29 263.015 2039.86 263.015 Q2043.4 263.015 2045.53 260.515 Q2047.68 257.992 2047.68 253.825 L2047.68 252.876 L2043.45 252.876 M2051.94 251.117 L2051.94 265.909 L2047.68 265.909 L2047.68 261.973 Q2046.22 264.335 2044.05 265.469 Q2041.87 266.58 2038.72 266.58 Q2034.74 266.58 2032.38 264.358 Q2030.04 262.112 2030.04 258.362 Q2030.04 253.987 2032.96 251.765 Q2035.9 249.543 2041.71 249.543 L2047.68 249.543 L2047.68 249.126 Q2047.68 246.187 2045.74 244.589 Q2043.82 242.969 2040.32 242.969 Q2038.1 242.969 2035.99 243.501 Q2033.89 244.034 2031.94 245.099 L2031.94 241.163 Q2034.28 240.261 2036.48 239.821 Q2038.68 239.358 2040.76 239.358 Q2046.39 239.358 2049.16 242.274 Q2051.94 245.191 2051.94 251.117 Z" fill="#000000" fill-rule="nonzero" fill-opacity="1" /><path clip-path="url(#clip150)" d="M2064.93 232.622 L2064.93 239.983 L2073.7 239.983 L2073.7 243.293 L2064.93 243.293 L2064.93 257.367 Q2064.93 260.538 2065.78 261.441 Q2066.66 262.344 2069.33 262.344 L2073.7 262.344 L2073.7 265.909 L2069.33 265.909 Q2064.39 265.909 2062.52 264.08 Q2060.64 262.228 2060.64 257.367 L2060.64 243.293 L2057.52 243.293 L2057.52 239.983 L2060.64 239.983 L2060.64 232.622 L2064.93 232.622 Z" fill="#000000" fill-rule="nonzero" fill-opacity="1" /><path clip-path="url(#clip150)" d="M2101.48 251.881 L2101.48 253.964 L2081.89 253.964 Q2082.17 258.362 2084.53 260.677 Q2086.92 262.969 2091.15 262.969 Q2093.61 262.969 2095.9 262.367 Q2098.21 261.765 2100.48 260.561 L2100.48 264.589 Q2098.19 265.561 2095.78 266.071 Q2093.38 266.58 2090.9 266.58 Q2084.7 266.58 2081.06 262.969 Q2077.45 259.358 2077.45 253.2 Q2077.45 246.835 2080.88 243.108 Q2084.33 239.358 2090.16 239.358 Q2095.39 239.358 2098.42 242.737 Q2101.48 246.094 2101.48 251.881 M2097.22 250.631 Q2097.17 247.136 2095.25 245.052 Q2093.35 242.969 2090.21 242.969 Q2086.64 242.969 2084.49 244.983 Q2082.36 246.997 2082.03 250.654 L2097.22 250.631 Z" fill="#000000" fill-rule="nonzero" fill-opacity="1" /><path clip-path="url(#clip150)" d="M2138.31 247.274 Q2141.66 247.992 2143.54 250.261 Q2145.44 252.529 2145.44 255.862 Q2145.44 260.978 2141.92 263.779 Q2138.4 266.58 2131.92 266.58 Q2129.74 266.58 2127.43 266.14 Q2125.14 265.723 2122.68 264.867 L2122.68 260.353 Q2124.63 261.487 2126.94 262.066 Q2129.26 262.645 2131.78 262.645 Q2136.18 262.645 2138.47 260.909 Q2140.78 259.173 2140.78 255.862 Q2140.78 252.807 2138.63 251.094 Q2136.5 249.358 2132.68 249.358 L2128.65 249.358 L2128.65 245.515 L2132.87 245.515 Q2136.32 245.515 2138.14 244.149 Q2139.97 242.761 2139.97 240.168 Q2139.97 237.506 2138.08 236.094 Q2136.2 234.659 2132.68 234.659 Q2130.76 234.659 2128.56 235.075 Q2126.36 235.492 2123.72 236.372 L2123.72 232.205 Q2126.39 231.464 2128.7 231.094 Q2131.04 230.724 2133.1 230.724 Q2138.42 230.724 2141.52 233.154 Q2144.63 235.562 2144.63 239.682 Q2144.63 242.552 2142.98 244.543 Q2141.34 246.511 2138.31 247.274 Z" fill="#000000" fill-rule="nonzero" fill-opacity="1" /><polyline clip-path="url(#clip150)" style="stroke:#c271d2; stroke-linecap:round; stroke-linejoin:round; stroke-width:4; stroke-opacity:1; fill:none" points="1818.1,300.469 1958.28,300.469 "/>
<path clip-path="url(#clip150)" d="M2009.51 285.851 L2009.51 290.781 Q2007.15 288.582 2004.46 287.494 Q2001.8 286.406 1998.79 286.406 Q1992.87 286.406 1989.72 290.04 Q1986.57 293.652 1986.57 300.503 Q1986.57 307.332 1989.72 310.966 Q1992.87 314.577 1998.79 314.577 Q2001.8 314.577 2004.46 313.489 Q2007.15 312.401 2009.51 310.202 L2009.51 315.087 Q2007.06 316.753 2004.3 317.587 Q2001.57 318.42 1998.52 318.42 Q1990.67 318.42 1986.15 313.628 Q1981.64 308.813 1981.64 300.503 Q1981.64 292.17 1986.15 287.378 Q1990.67 282.564 1998.52 282.564 Q2001.62 282.564 2004.35 283.397 Q2007.1 284.207 2009.51 285.851 Z" fill="#000000" fill-rule="nonzero" fill-opacity="1" /><path clip-path="url(#clip150)" d="M2026.59 294.809 Q2023.17 294.809 2021.18 297.494 Q2019.19 300.156 2019.19 304.809 Q2019.19 309.462 2021.15 312.147 Q2023.15 314.809 2026.59 314.809 Q2030 314.809 2031.99 312.124 Q2033.98 309.438 2033.98 304.809 Q2033.98 300.202 2031.99 297.517 Q2030 294.809 2026.59 294.809 M2026.59 291.198 Q2032.15 291.198 2035.32 294.809 Q2038.49 298.42 2038.49 304.809 Q2038.49 311.175 2035.32 314.809 Q2032.15 318.42 2026.59 318.42 Q2021.02 318.42 2017.84 314.809 Q2014.7 311.175 2014.7 304.809 Q2014.7 298.42 2017.84 294.809 Q2021.02 291.198 2026.59 291.198 Z" fill="#000000" fill-rule="nonzero" fill-opacity="1" /><path clip-path="url(#clip150)" d="M2045.11 307.517 L2045.11 291.823 L2049.37 291.823 L2049.37 307.355 Q2049.37 311.036 2050.81 312.888 Q2052.24 314.716 2055.11 314.716 Q2058.56 314.716 2060.55 312.517 Q2062.57 310.318 2062.57 306.522 L2062.57 291.823 L2066.83 291.823 L2066.83 317.749 L2062.57 317.749 L2062.57 313.767 Q2061.02 316.128 2058.96 317.286 Q2056.92 318.42 2054.21 318.42 Q2049.74 318.42 2047.43 315.642 Q2045.11 312.864 2045.11 307.517 M2055.83 291.198 L2055.83 291.198 Z" fill="#000000" fill-rule="nonzero" fill-opacity="1" /><path clip-path="url(#clip150)" d="M2079.72 313.86 L2079.72 327.61 L2075.44 327.61 L2075.44 291.823 L2079.72 291.823 L2079.72 295.758 Q2081.06 293.443 2083.1 292.332 Q2085.16 291.198 2088.01 291.198 Q2092.73 291.198 2095.67 294.948 Q2098.63 298.698 2098.63 304.809 Q2098.63 310.92 2095.67 314.67 Q2092.73 318.42 2088.01 318.42 Q2085.16 318.42 2083.1 317.309 Q2081.06 316.175 2079.72 313.86 M2094.21 304.809 Q2094.21 300.11 2092.27 297.448 Q2090.34 294.763 2086.96 294.763 Q2083.58 294.763 2081.64 297.448 Q2079.72 300.11 2079.72 304.809 Q2079.72 309.508 2081.64 312.193 Q2083.58 314.855 2086.96 314.855 Q2090.34 314.855 2092.27 312.193 Q2094.21 309.508 2094.21 304.809 Z" fill="#000000" fill-rule="nonzero" fill-opacity="1" /><path clip-path="url(#clip150)" d="M2105.69 281.73 L2109.95 281.73 L2109.95 317.749 L2105.69 317.749 L2105.69 281.73 Z" fill="#000000" fill-rule="nonzero" fill-opacity="1" /><path clip-path="url(#clip150)" d="M2118.86 291.823 L2123.12 291.823 L2123.12 317.749 L2118.86 317.749 L2118.86 291.823 M2118.86 281.73 L2123.12 281.73 L2123.12 287.124 L2118.86 287.124 L2118.86 281.73 Z" fill="#000000" fill-rule="nonzero" fill-opacity="1" /><path clip-path="url(#clip150)" d="M2153.58 302.101 L2153.58 317.749 L2149.33 317.749 L2149.33 302.239 Q2149.33 298.559 2147.89 296.73 Q2146.45 294.902 2143.58 294.902 Q2140.14 294.902 2138.14 297.101 Q2136.15 299.3 2136.15 303.096 L2136.15 317.749 L2131.87 317.749 L2131.87 291.823 L2136.15 291.823 L2136.15 295.851 Q2137.68 293.513 2139.74 292.355 Q2141.83 291.198 2144.53 291.198 Q2149 291.198 2151.29 293.976 Q2153.58 296.73 2153.58 302.101 Z" fill="#000000" fill-rule="nonzero" fill-opacity="1" /><path clip-path="url(#clip150)" d="M2179.14 304.485 Q2179.14 299.855 2177.22 297.309 Q2175.32 294.763 2171.87 294.763 Q2168.45 294.763 2166.52 297.309 Q2164.63 299.855 2164.63 304.485 Q2164.63 309.091 2166.52 311.638 Q2168.45 314.184 2171.87 314.184 Q2175.32 314.184 2177.22 311.638 Q2179.14 309.091 2179.14 304.485 M2183.4 314.531 Q2183.4 321.151 2180.46 324.369 Q2177.52 327.61 2171.45 327.61 Q2169.21 327.61 2167.22 327.262 Q2165.23 326.938 2163.35 326.244 L2163.35 322.1 Q2165.23 323.119 2167.06 323.605 Q2168.89 324.091 2170.78 324.091 Q2174.97 324.091 2177.06 321.892 Q2179.14 319.716 2179.14 315.295 L2179.14 313.188 Q2177.82 315.48 2175.76 316.614 Q2173.7 317.749 2170.83 317.749 Q2166.06 317.749 2163.14 314.114 Q2160.23 310.48 2160.23 304.485 Q2160.23 298.466 2163.14 294.832 Q2166.06 291.198 2170.83 291.198 Q2173.7 291.198 2175.76 292.332 Q2177.82 293.466 2179.14 295.758 L2179.14 291.823 L2183.4 291.823 L2183.4 314.531 Z" fill="#000000" fill-rule="nonzero" fill-opacity="1" /><path clip-path="url(#clip150)" d="M2208.65 313.813 L2216.29 313.813 L2216.29 287.448 L2207.98 289.115 L2207.98 284.855 L2216.25 283.189 L2220.92 283.189 L2220.92 313.813 L2228.56 313.813 L2228.56 317.749 L2208.65 317.749 L2208.65 313.813 Z" fill="#000000" fill-rule="nonzero" fill-opacity="1" /><path clip-path="url(#clip150)" d="M2242.03 313.813 L2258.35 313.813 L2258.35 317.749 L2236.41 317.749 L2236.41 313.813 Q2239.07 311.059 2243.65 306.429 Q2248.26 301.776 2249.44 300.434 Q2251.69 297.911 2252.57 296.175 Q2253.47 294.415 2253.47 292.726 Q2253.47 289.971 2251.52 288.235 Q2249.6 286.499 2246.5 286.499 Q2244.3 286.499 2241.85 287.263 Q2239.42 288.027 2236.64 289.577 L2236.64 284.855 Q2239.46 283.721 2241.92 283.142 Q2244.37 282.564 2246.41 282.564 Q2251.78 282.564 2254.97 285.249 Q2258.17 287.934 2258.17 292.425 Q2258.17 294.554 2257.36 296.476 Q2256.57 298.374 2254.46 300.966 Q2253.88 301.638 2250.78 304.855 Q2247.68 308.05 2242.03 313.813 Z" fill="#000000" fill-rule="nonzero" fill-opacity="1" /><polyline clip-path="url(#clip150)" style="stroke:#ac8d18; stroke-linecap:round; stroke-linejoin:round; stroke-width:4; stroke-opacity:1; fill:none" points="1818.1,352.309 1958.28,352.309 "/>
<path clip-path="url(#clip150)" d="M2009.51 337.691 L2009.51 342.621 Q2007.15 340.422 2004.46 339.334 Q2001.8 338.246 1998.79 338.246 Q1992.87 338.246 1989.72 341.88 Q1986.57 345.492 1986.57 352.343 Q1986.57 359.172 1989.72 362.806 Q1992.87 366.417 1998.79 366.417 Q2001.8 366.417 2004.46 365.329 Q2007.15 364.241 2009.51 362.042 L2009.51 366.927 Q2007.06 368.593 2004.3 369.427 Q2001.57 370.26 1998.52 370.26 Q1990.67 370.26 1986.15 365.468 Q1981.64 360.653 1981.64 352.343 Q1981.64 344.01 1986.15 339.218 Q1990.67 334.404 1998.52 334.404 Q2001.62 334.404 2004.35 335.237 Q2007.1 336.047 2009.51 337.691 Z" fill="#000000" fill-rule="nonzero" fill-opacity="1" /><path clip-path="url(#clip150)" d="M2026.59 346.649 Q2023.17 346.649 2021.18 349.334 Q2019.19 351.996 2019.19 356.649 Q2019.19 361.302 2021.15 363.987 Q2023.15 366.649 2026.59 366.649 Q2030 366.649 2031.99 363.964 Q2033.98 361.278 2033.98 356.649 Q2033.98 352.042 2031.99 349.357 Q2030 346.649 2026.59 346.649 M2026.59 343.038 Q2032.15 343.038 2035.32 346.649 Q2038.49 350.26 2038.49 356.649 Q2038.49 363.015 2035.32 366.649 Q2032.15 370.26 2026.59 370.26 Q2021.02 370.26 2017.84 366.649 Q2014.7 363.015 2014.7 356.649 Q2014.7 350.26 2017.84 346.649 Q2021.02 343.038 2026.59 343.038 Z" fill="#000000" fill-rule="nonzero" fill-opacity="1" /><path clip-path="url(#clip150)" d="M2045.11 359.357 L2045.11 343.663 L2049.37 343.663 L2049.37 359.195 Q2049.37 362.876 2050.81 364.728 Q2052.24 366.556 2055.11 366.556 Q2058.56 366.556 2060.55 364.357 Q2062.57 362.158 2062.57 358.362 L2062.57 343.663 L2066.83 343.663 L2066.83 369.589 L2062.57 369.589 L2062.57 365.607 Q2061.02 367.968 2058.96 369.126 Q2056.92 370.26 2054.21 370.26 Q2049.74 370.26 2047.43 367.482 Q2045.11 364.704 2045.11 359.357 M2055.83 343.038 L2055.83 343.038 Z" fill="#000000" fill-rule="nonzero" fill-opacity="1" /><path clip-path="url(#clip150)" d="M2079.72 365.7 L2079.72 379.45 L2075.44 379.45 L2075.44 343.663 L2079.72 343.663 L2079.72 347.598 Q2081.06 345.283 2083.1 344.172 Q2085.16 343.038 2088.01 343.038 Q2092.73 343.038 2095.67 346.788 Q2098.63 350.538 2098.63 356.649 Q2098.63 362.76 2095.67 366.51 Q2092.73 370.26 2088.01 370.26 Q2085.16 370.26 2083.1 369.149 Q2081.06 368.015 2079.72 365.7 M2094.21 356.649 Q2094.21 351.95 2092.27 349.288 Q2090.34 346.603 2086.96 346.603 Q2083.58 346.603 2081.64 349.288 Q2079.72 351.95 2079.72 356.649 Q2079.72 361.348 2081.64 364.033 Q2083.58 366.695 2086.96 366.695 Q2090.34 366.695 2092.27 364.033 Q2094.21 361.348 2094.21 356.649 Z" fill="#000000" fill-rule="nonzero" fill-opacity="1" /><path clip-path="url(#clip150)" d="M2105.69 333.57 L2109.95 333.57 L2109.95 369.589 L2105.69 369.589 L2105.69 333.57 Z" fill="#000000" fill-rule="nonzero" fill-opacity="1" /><path clip-path="url(#clip150)" d="M2118.86 343.663 L2123.12 343.663 L2123.12 369.589 L2118.86 369.589 L2118.86 343.663 M2118.86 333.57 L2123.12 333.57 L2123.12 338.964 L2118.86 338.964 L2118.86 333.57 Z" fill="#000000" fill-rule="nonzero" fill-opacity="1" /><path clip-path="url(#clip150)" d="M2153.58 353.941 L2153.58 369.589 L2149.33 369.589 L2149.33 354.079 Q2149.33 350.399 2147.89 348.57 Q2146.45 346.742 2143.58 346.742 Q2140.14 346.742 2138.14 348.941 Q2136.15 351.14 2136.15 354.936 L2136.15 369.589 L2131.87 369.589 L2131.87 343.663 L2136.15 343.663 L2136.15 347.691 Q2137.68 345.353 2139.74 344.195 Q2141.83 343.038 2144.53 343.038 Q2149 343.038 2151.29 345.816 Q2153.58 348.57 2153.58 353.941 Z" fill="#000000" fill-rule="nonzero" fill-opacity="1" /><path clip-path="url(#clip150)" d="M2179.14 356.325 Q2179.14 351.695 2177.22 349.149 Q2175.32 346.603 2171.87 346.603 Q2168.45 346.603 2166.52 349.149 Q2164.63 351.695 2164.63 356.325 Q2164.63 360.931 2166.52 363.478 Q2168.45 366.024 2171.87 366.024 Q2175.32 366.024 2177.22 363.478 Q2179.14 360.931 2179.14 356.325 M2183.4 366.371 Q2183.4 372.991 2180.46 376.209 Q2177.52 379.45 2171.45 379.45 Q2169.21 379.45 2167.22 379.102 Q2165.23 378.778 2163.35 378.084 L2163.35 373.94 Q2165.23 374.959 2167.06 375.445 Q2168.89 375.931 2170.78 375.931 Q2174.97 375.931 2177.06 373.732 Q2179.14 371.556 2179.14 367.135 L2179.14 365.028 Q2177.82 367.32 2175.76 368.454 Q2173.7 369.589 2170.83 369.589 Q2166.06 369.589 2163.14 365.954 Q2160.23 362.32 2160.23 356.325 Q2160.23 350.306 2163.14 346.672 Q2166.06 343.038 2170.83 343.038 Q2173.7 343.038 2175.76 344.172 Q2177.82 345.306 2179.14 347.598 L2179.14 343.663 L2183.4 343.663 L2183.4 366.371 Z" fill="#000000" fill-rule="nonzero" fill-opacity="1" /><path clip-path="url(#clip150)" d="M2211.87 365.653 L2228.19 365.653 L2228.19 369.589 L2206.25 369.589 L2206.25 365.653 Q2208.91 362.899 2213.49 358.269 Q2218.1 353.616 2219.28 352.274 Q2221.52 349.751 2222.4 348.015 Q2223.31 346.255 2223.31 344.566 Q2223.31 341.811 2221.36 340.075 Q2219.44 338.339 2216.34 338.339 Q2214.14 338.339 2211.69 339.103 Q2209.26 339.867 2206.48 341.417 L2206.48 336.695 Q2209.3 335.561 2211.76 334.982 Q2214.21 334.404 2216.25 334.404 Q2221.62 334.404 2224.81 337.089 Q2228.01 339.774 2228.01 344.265 Q2228.01 346.394 2227.2 348.316 Q2226.41 350.214 2224.3 352.806 Q2223.72 353.478 2220.62 356.695 Q2217.52 359.89 2211.87 365.653 Z" fill="#000000" fill-rule="nonzero" fill-opacity="1" /><path clip-path="url(#clip150)" d="M2252.17 350.954 Q2255.53 351.672 2257.4 353.941 Q2259.3 356.209 2259.3 359.542 Q2259.3 364.658 2255.78 367.459 Q2252.26 370.26 2245.78 370.26 Q2243.61 370.26 2241.29 369.82 Q2239 369.403 2236.55 368.547 L2236.55 364.033 Q2238.49 365.167 2240.81 365.746 Q2243.12 366.325 2245.64 366.325 Q2250.04 366.325 2252.33 364.589 Q2254.65 362.853 2254.65 359.542 Q2254.65 356.487 2252.5 354.774 Q2250.37 353.038 2246.55 353.038 L2242.52 353.038 L2242.52 349.195 L2246.73 349.195 Q2250.18 349.195 2252.01 347.829 Q2253.84 346.441 2253.84 343.848 Q2253.84 341.186 2251.94 339.774 Q2250.07 338.339 2246.55 338.339 Q2244.63 338.339 2242.43 338.755 Q2240.23 339.172 2237.59 340.052 L2237.59 335.885 Q2240.25 335.144 2242.57 334.774 Q2244.9 334.404 2246.96 334.404 Q2252.29 334.404 2255.39 336.834 Q2258.49 339.242 2258.49 343.362 Q2258.49 346.232 2256.85 348.223 Q2255.2 350.191 2252.17 350.954 Z" fill="#000000" fill-rule="nonzero" fill-opacity="1" /><polyline clip-path="url(#clip150)" style="stroke:#00a9ad; stroke-linecap:round; stroke-linejoin:round; stroke-width:4; stroke-opacity:1; fill:none" points="1818.1,404.149 1958.28,404.149 "/>
<path clip-path="url(#clip150)" d="M2009.51 389.531 L2009.51 394.461 Q2007.15 392.262 2004.46 391.174 Q2001.8 390.086 1998.79 390.086 Q1992.87 390.086 1989.72 393.72 Q1986.57 397.332 1986.57 404.183 Q1986.57 411.012 1989.72 414.646 Q1992.87 418.257 1998.79 418.257 Q2001.8 418.257 2004.46 417.169 Q2007.15 416.081 2009.51 413.882 L2009.51 418.767 Q2007.06 420.433 2004.3 421.267 Q2001.57 422.1 1998.52 422.1 Q1990.67 422.1 1986.15 417.308 Q1981.64 412.493 1981.64 404.183 Q1981.64 395.85 1986.15 391.058 Q1990.67 386.244 1998.52 386.244 Q2001.62 386.244 2004.35 387.077 Q2007.1 387.887 2009.51 389.531 Z" fill="#000000" fill-rule="nonzero" fill-opacity="1" /><path clip-path="url(#clip150)" d="M2026.59 398.489 Q2023.17 398.489 2021.18 401.174 Q2019.19 403.836 2019.19 408.489 Q2019.19 413.142 2021.15 415.827 Q2023.15 418.489 2026.59 418.489 Q2030 418.489 2031.99 415.804 Q2033.98 413.118 2033.98 408.489 Q2033.98 403.882 2031.99 401.197 Q2030 398.489 2026.59 398.489 M2026.59 394.878 Q2032.15 394.878 2035.32 398.489 Q2038.49 402.1 2038.49 408.489 Q2038.49 414.855 2035.32 418.489 Q2032.15 422.1 2026.59 422.1 Q2021.02 422.1 2017.84 418.489 Q2014.7 414.855 2014.7 408.489 Q2014.7 402.1 2017.84 398.489 Q2021.02 394.878 2026.59 394.878 Z" fill="#000000" fill-rule="nonzero" fill-opacity="1" /><path clip-path="url(#clip150)" d="M2045.11 411.197 L2045.11 395.503 L2049.37 395.503 L2049.37 411.035 Q2049.37 414.716 2050.81 416.568 Q2052.24 418.396 2055.11 418.396 Q2058.56 418.396 2060.55 416.197 Q2062.57 413.998 2062.57 410.202 L2062.57 395.503 L2066.83 395.503 L2066.83 421.429 L2062.57 421.429 L2062.57 417.447 Q2061.02 419.808 2058.96 420.966 Q2056.92 422.1 2054.21 422.1 Q2049.74 422.1 2047.43 419.322 Q2045.11 416.544 2045.11 411.197 M2055.83 394.878 L2055.83 394.878 Z" fill="#000000" fill-rule="nonzero" fill-opacity="1" /><path clip-path="url(#clip150)" d="M2079.72 417.54 L2079.72 431.29 L2075.44 431.29 L2075.44 395.503 L2079.72 395.503 L2079.72 399.438 Q2081.06 397.123 2083.1 396.012 Q2085.16 394.878 2088.01 394.878 Q2092.73 394.878 2095.67 398.628 Q2098.63 402.378 2098.63 408.489 Q2098.63 414.6 2095.67 418.35 Q2092.73 422.1 2088.01 422.1 Q2085.16 422.1 2083.1 420.989 Q2081.06 419.855 2079.72 417.54 M2094.21 408.489 Q2094.21 403.79 2092.27 401.128 Q2090.34 398.443 2086.96 398.443 Q2083.58 398.443 2081.64 401.128 Q2079.72 403.79 2079.72 408.489 Q2079.72 413.188 2081.64 415.873 Q2083.58 418.535 2086.96 418.535 Q2090.34 418.535 2092.27 415.873 Q2094.21 413.188 2094.21 408.489 Z" fill="#000000" fill-rule="nonzero" fill-opacity="1" /><path clip-path="url(#clip150)" d="M2105.69 385.41 L2109.95 385.41 L2109.95 421.429 L2105.69 421.429 L2105.69 385.41 Z" fill="#000000" fill-rule="nonzero" fill-opacity="1" /><path clip-path="url(#clip150)" d="M2118.86 395.503 L2123.12 395.503 L2123.12 421.429 L2118.86 421.429 L2118.86 395.503 M2118.86 385.41 L2123.12 385.41 L2123.12 390.804 L2118.86 390.804 L2118.86 385.41 Z" fill="#000000" fill-rule="nonzero" fill-opacity="1" /><path clip-path="url(#clip150)" d="M2153.58 405.781 L2153.58 421.429 L2149.33 421.429 L2149.33 405.919 Q2149.33 402.239 2147.89 400.41 Q2146.45 398.582 2143.58 398.582 Q2140.14 398.582 2138.14 400.781 Q2136.15 402.98 2136.15 406.776 L2136.15 421.429 L2131.87 421.429 L2131.87 395.503 L2136.15 395.503 L2136.15 399.531 Q2137.68 397.193 2139.74 396.035 Q2141.83 394.878 2144.53 394.878 Q2149 394.878 2151.29 397.656 Q2153.58 400.41 2153.58 405.781 Z" fill="#000000" fill-rule="nonzero" fill-opacity="1" /><path clip-path="url(#clip150)" d="M2179.14 408.165 Q2179.14 403.535 2177.22 400.989 Q2175.32 398.443 2171.87 398.443 Q2168.45 398.443 2166.52 400.989 Q2164.63 403.535 2164.63 408.165 Q2164.63 412.771 2166.52 415.318 Q2168.45 417.864 2171.87 417.864 Q2175.32 417.864 2177.22 415.318 Q2179.14 412.771 2179.14 408.165 M2183.4 418.211 Q2183.4 424.831 2180.46 428.049 Q2177.52 431.29 2171.45 431.29 Q2169.21 431.29 2167.22 430.942 Q2165.23 430.618 2163.35 429.924 L2163.35 425.78 Q2165.23 426.799 2167.06 427.285 Q2168.89 427.771 2170.78 427.771 Q2174.97 427.771 2177.06 425.572 Q2179.14 423.396 2179.14 418.975 L2179.14 416.868 Q2177.82 419.16 2175.76 420.294 Q2173.7 421.429 2170.83 421.429 Q2166.06 421.429 2163.14 417.794 Q2160.23 414.16 2160.23 408.165 Q2160.23 402.146 2163.14 398.512 Q2166.06 394.878 2170.83 394.878 Q2173.7 394.878 2175.76 396.012 Q2177.82 397.146 2179.14 399.438 L2179.14 395.503 L2183.4 395.503 L2183.4 418.211 Z" fill="#000000" fill-rule="nonzero" fill-opacity="1" /><path clip-path="url(#clip150)" d="M2208.65 417.493 L2216.29 417.493 L2216.29 391.128 L2207.98 392.795 L2207.98 388.535 L2216.25 386.869 L2220.92 386.869 L2220.92 417.493 L2228.56 417.493 L2228.56 421.429 L2208.65 421.429 L2208.65 417.493 Z" fill="#000000" fill-rule="nonzero" fill-opacity="1" /><path clip-path="url(#clip150)" d="M2252.17 402.794 Q2255.53 403.512 2257.4 405.781 Q2259.3 408.049 2259.3 411.382 Q2259.3 416.498 2255.78 419.299 Q2252.26 422.1 2245.78 422.1 Q2243.61 422.1 2241.29 421.66 Q2239 421.243 2236.55 420.387 L2236.55 415.873 Q2238.49 417.007 2240.81 417.586 Q2243.12 418.165 2245.64 418.165 Q2250.04 418.165 2252.33 416.429 Q2254.65 414.693 2254.65 411.382 Q2254.65 408.327 2252.5 406.614 Q2250.37 404.878 2246.55 404.878 L2242.52 404.878 L2242.52 401.035 L2246.73 401.035 Q2250.18 401.035 2252.01 399.669 Q2253.84 398.281 2253.84 395.688 Q2253.84 393.026 2251.94 391.614 Q2250.07 390.179 2246.55 390.179 Q2244.63 390.179 2242.43 390.595 Q2240.23 391.012 2237.59 391.892 L2237.59 387.725 Q2240.25 386.984 2242.57 386.614 Q2244.9 386.244 2246.96 386.244 Q2252.29 386.244 2255.39 388.674 Q2258.49 391.082 2258.49 395.202 Q2258.49 398.072 2256.85 400.063 Q2255.2 402.031 2252.17 402.794 Z" fill="#000000" fill-rule="nonzero" fill-opacity="1" /></svg>
