<?xml version="1.0" encoding="utf-8"?>
<svg xmlns="http://www.w3.org/2000/svg" xmlns:xlink="http://www.w3.org/1999/xlink" width="600" height="400" viewBox="0 0 2400 1600">
<defs>
  <clipPath id="clip550">
    <rect x="0" y="0" width="2400" height="1600"/>
  </clipPath>
</defs>
<path clip-path="url(#clip550)" d="M0 1600 L2400 1600 L2400 0 L0 0  Z" fill="#ffffff" fill-rule="evenodd" fill-opacity="1"/>
<defs>
  <clipPath id="clip551">
    <rect x="480" y="0" width="1681" height="1600"/>
  </clipPath>
</defs>
<path clip-path="url(#clip550)" d="M286.371 1423.18 L2352.76 1423.18 L2352.76 47.2441 L286.371 47.2441  Z" fill="#ffffff" fill-rule="evenodd" fill-opacity="1"/>
<defs>
  <clipPath id="clip552">
    <rect x="286" y="47" width="2067" height="1377"/>
  </clipPath>
</defs>
<polyline clip-path="url(#clip552)" style="stroke:#000000; stroke-linecap:round; stroke-linejoin:round; stroke-width:2; stroke-opacity:0.1; fill:none" points="344.853,1423.18 344.853,47.2441 "/>
<polyline clip-path="url(#clip552)" style="stroke:#000000; stroke-linecap:round; stroke-linejoin:round; stroke-width:2; stroke-opacity:0.1; fill:none" points="832.208,1423.18 832.208,47.2441 "/>
<polyline clip-path="url(#clip552)" style="stroke:#000000; stroke-linecap:round; stroke-linejoin:round; stroke-width:2; stroke-opacity:0.1; fill:none" points="1319.56,1423.18 1319.56,47.2441 "/>
<polyline clip-path="url(#clip552)" style="stroke:#000000; stroke-linecap:round; stroke-linejoin:round; stroke-width:2; stroke-opacity:0.1; fill:none" points="1806.92,1423.18 1806.92,47.2441 "/>
<polyline clip-path="url(#clip552)" style="stroke:#000000; stroke-linecap:round; stroke-linejoin:round; stroke-width:2; stroke-opacity:0.1; fill:none" points="2294.27,1423.18 2294.27,47.2441 "/>
<polyline clip-path="url(#clip550)" style="stroke:#000000; stroke-linecap:round; stroke-linejoin:round; stroke-width:4; stroke-opacity:1; fill:none" points="286.371,1423.18 2352.76,1423.18 "/>
<polyline clip-path="url(#clip550)" style="stroke:#000000; stroke-linecap:round; stroke-linejoin:round; stroke-width:4; stroke-opacity:1; fill:none" points="344.853,1423.18 344.853,1404.28 "/>
<polyline clip-path="url(#clip550)" style="stroke:#000000; stroke-linecap:round; stroke-linejoin:round; stroke-width:4; stroke-opacity:1; fill:none" points="832.208,1423.18 832.208,1404.28 "/>
<polyline clip-path="url(#clip550)" style="stroke:#000000; stroke-linecap:round; stroke-linejoin:round; stroke-width:4; stroke-opacity:1; fill:none" points="1319.56,1423.18 1319.56,1404.28 "/>
<polyline clip-path="url(#clip550)" style="stroke:#000000; stroke-linecap:round; stroke-linejoin:round; stroke-width:4; stroke-opacity:1; fill:none" points="1806.92,1423.18 1806.92,1404.28 "/>
<polyline clip-path="url(#clip550)" style="stroke:#000000; stroke-linecap:round; stroke-linejoin:round; stroke-width:4; stroke-opacity:1; fill:none" points="2294.27,1423.18 2294.27,1404.28 "/>
<path clip-path="url(#clip550)" d="M322.238 1454.1 Q318.626 1454.1 316.798 1457.66 Q314.992 1461.2 314.992 1468.33 Q314.992 1475.44 316.798 1479.01 Q318.626 1482.55 322.238 1482.55 Q325.872 1482.55 327.677 1479.01 Q329.506 1475.44 329.506 1468.33 Q329.506 1461.2 327.677 1457.66 Q325.872 1454.1 322.238 1454.1 M322.238 1450.39 Q328.048 1450.39 331.103 1455 Q334.182 1459.58 334.182 1468.33 Q334.182 1477.06 331.103 1481.67 Q328.048 1486.25 322.238 1486.25 Q316.427 1486.25 313.349 1481.67 Q310.293 1477.06 310.293 1468.33 Q310.293 1459.58 313.349 1455 Q316.427 1450.39 322.238 1450.39 Z" fill="#000000" fill-rule="nonzero" fill-opacity="1" /><path clip-path="url(#clip550)" d="M342.399 1479.7 L347.284 1479.7 L347.284 1485.58 L342.399 1485.58 L342.399 1479.7 Z" fill="#000000" fill-rule="nonzero" fill-opacity="1" /><path clip-path="url(#clip550)" d="M367.469 1454.1 Q363.858 1454.1 362.029 1457.66 Q360.223 1461.2 360.223 1468.33 Q360.223 1475.44 362.029 1479.01 Q363.858 1482.55 367.469 1482.55 Q371.103 1482.55 372.909 1479.01 Q374.737 1475.44 374.737 1468.33 Q374.737 1461.2 372.909 1457.66 Q371.103 1454.1 367.469 1454.1 M367.469 1450.39 Q373.279 1450.39 376.334 1455 Q379.413 1459.58 379.413 1468.33 Q379.413 1477.06 376.334 1481.67 Q373.279 1486.25 367.469 1486.25 Q361.659 1486.25 358.58 1481.67 Q355.524 1477.06 355.524 1468.33 Q355.524 1459.58 358.58 1455 Q361.659 1450.39 367.469 1450.39 Z" fill="#000000" fill-rule="nonzero" fill-opacity="1" /><path clip-path="url(#clip550)" d="M803.944 1481.64 L820.264 1481.64 L820.264 1485.58 L798.319 1485.58 L798.319 1481.64 Q800.981 1478.89 805.565 1474.26 Q810.171 1469.61 811.352 1468.27 Q813.597 1465.74 814.477 1464.01 Q815.38 1462.25 815.38 1460.56 Q815.38 1457.8 813.435 1456.07 Q811.514 1454.33 808.412 1454.33 Q806.213 1454.33 803.759 1455.09 Q801.329 1455.86 798.551 1457.41 L798.551 1452.69 Q801.375 1451.55 803.829 1450.97 Q806.282 1450.39 808.319 1450.39 Q813.69 1450.39 816.884 1453.08 Q820.079 1455.77 820.079 1460.26 Q820.079 1462.39 819.268 1464.31 Q818.481 1466.2 816.375 1468.8 Q815.796 1469.47 812.694 1472.69 Q809.593 1475.88 803.944 1481.64 Z" fill="#000000" fill-rule="nonzero" fill-opacity="1" /><path clip-path="url(#clip550)" d="M830.079 1479.7 L834.963 1479.7 L834.963 1485.58 L830.079 1485.58 L830.079 1479.7 Z" fill="#000000" fill-rule="nonzero" fill-opacity="1" /><path clip-path="url(#clip550)" d="M845.194 1451.02 L863.551 1451.02 L863.551 1454.96 L849.477 1454.96 L849.477 1463.43 Q850.495 1463.08 851.514 1462.92 Q852.532 1462.73 853.551 1462.73 Q859.338 1462.73 862.717 1465.9 Q866.097 1469.08 866.097 1474.49 Q866.097 1480.07 862.625 1483.17 Q859.152 1486.25 852.833 1486.25 Q850.657 1486.25 848.389 1485.88 Q846.143 1485.51 843.736 1484.77 L843.736 1480.07 Q845.819 1481.2 848.041 1481.76 Q850.264 1482.32 852.74 1482.32 Q856.745 1482.32 859.083 1480.21 Q861.421 1478.1 861.421 1474.49 Q861.421 1470.88 859.083 1468.77 Q856.745 1466.67 852.74 1466.67 Q850.865 1466.67 848.991 1467.08 Q847.139 1467.5 845.194 1468.38 L845.194 1451.02 Z" fill="#000000" fill-rule="nonzero" fill-opacity="1" /><path clip-path="url(#clip550)" d="M1286.73 1451.02 L1305.08 1451.02 L1305.08 1454.96 L1291.01 1454.96 L1291.01 1463.43 Q1292.03 1463.08 1293.05 1462.92 Q1294.07 1462.73 1295.08 1462.73 Q1300.87 1462.73 1304.25 1465.9 Q1307.63 1469.08 1307.63 1474.49 Q1307.63 1480.07 1304.16 1483.17 Q1300.69 1486.25 1294.37 1486.25 Q1292.19 1486.25 1289.92 1485.88 Q1287.68 1485.51 1285.27 1484.77 L1285.27 1480.07 Q1287.35 1481.2 1289.57 1481.76 Q1291.8 1482.32 1294.27 1482.32 Q1298.28 1482.32 1300.62 1480.21 Q1302.95 1478.1 1302.95 1474.49 Q1302.95 1470.88 1300.62 1468.77 Q1298.28 1466.67 1294.27 1466.67 Q1292.4 1466.67 1290.52 1467.08 Q1288.67 1467.5 1286.73 1468.38 L1286.73 1451.02 Z" fill="#000000" fill-rule="nonzero" fill-opacity="1" /><path clip-path="url(#clip550)" d="M1316.84 1479.7 L1321.73 1479.7 L1321.73 1485.58 L1316.84 1485.58 L1316.84 1479.7 Z" fill="#000000" fill-rule="nonzero" fill-opacity="1" /><path clip-path="url(#clip550)" d="M1341.91 1454.1 Q1338.3 1454.1 1336.47 1457.66 Q1334.67 1461.2 1334.67 1468.33 Q1334.67 1475.44 1336.47 1479.01 Q1338.3 1482.55 1341.91 1482.55 Q1345.55 1482.55 1347.35 1479.01 Q1349.18 1475.44 1349.18 1468.33 Q1349.18 1461.2 1347.35 1457.66 Q1345.55 1454.1 1341.91 1454.1 M1341.91 1450.39 Q1347.72 1450.39 1350.78 1455 Q1353.86 1459.58 1353.86 1468.33 Q1353.86 1477.06 1350.78 1481.67 Q1347.72 1486.25 1341.91 1486.25 Q1336.1 1486.25 1333.02 1481.67 Q1329.97 1477.06 1329.97 1468.33 Q1329.97 1459.58 1333.02 1455 Q1336.1 1450.39 1341.91 1450.39 Z" fill="#000000" fill-rule="nonzero" fill-opacity="1" /><path clip-path="url(#clip550)" d="M1773.24 1451.02 L1795.46 1451.02 L1795.46 1453.01 L1782.91 1485.58 L1778.03 1485.58 L1789.84 1454.96 L1773.24 1454.96 L1773.24 1451.02 Z" fill="#000000" fill-rule="nonzero" fill-opacity="1" /><path clip-path="url(#clip550)" d="M1804.58 1479.7 L1809.46 1479.7 L1809.46 1485.58 L1804.58 1485.58 L1804.58 1479.7 Z" fill="#000000" fill-rule="nonzero" fill-opacity="1" /><path clip-path="url(#clip550)" d="M1819.7 1451.02 L1838.05 1451.02 L1838.05 1454.96 L1823.98 1454.96 L1823.98 1463.43 Q1825 1463.08 1826.02 1462.92 Q1827.03 1462.73 1828.05 1462.73 Q1833.84 1462.73 1837.22 1465.9 Q1840.6 1469.08 1840.6 1474.49 Q1840.6 1480.07 1837.13 1483.17 Q1833.65 1486.25 1827.33 1486.25 Q1825.16 1486.25 1822.89 1485.88 Q1820.65 1485.51 1818.24 1484.77 L1818.24 1480.07 Q1820.32 1481.2 1822.54 1481.76 Q1824.77 1482.32 1827.24 1482.32 Q1831.25 1482.32 1833.58 1480.21 Q1835.92 1478.1 1835.92 1474.49 Q1835.92 1470.88 1833.58 1468.77 Q1831.25 1466.67 1827.24 1466.67 Q1825.37 1466.67 1823.49 1467.08 Q1821.64 1467.5 1819.7 1468.38 L1819.7 1451.02 Z" fill="#000000" fill-rule="nonzero" fill-opacity="1" /><path clip-path="url(#clip550)" d="M2246.35 1481.64 L2253.98 1481.64 L2253.98 1455.28 L2245.67 1456.95 L2245.67 1452.69 L2253.94 1451.02 L2258.61 1451.02 L2258.61 1481.64 L2266.25 1481.64 L2266.25 1485.58 L2246.35 1485.58 L2246.35 1481.64 Z" fill="#000000" fill-rule="nonzero" fill-opacity="1" /><path clip-path="url(#clip550)" d="M2285.7 1454.1 Q2282.09 1454.1 2280.26 1457.66 Q2278.45 1461.2 2278.45 1468.33 Q2278.45 1475.44 2280.26 1479.01 Q2282.09 1482.55 2285.7 1482.55 Q2289.33 1482.55 2291.14 1479.01 Q2292.97 1475.44 2292.97 1468.33 Q2292.97 1461.2 2291.14 1457.66 Q2289.33 1454.1 2285.7 1454.1 M2285.7 1450.39 Q2291.51 1450.39 2294.56 1455 Q2297.64 1459.58 2297.64 1468.33 Q2297.64 1477.06 2294.56 1481.67 Q2291.51 1486.25 2285.7 1486.25 Q2279.89 1486.25 2276.81 1481.67 Q2273.75 1477.06 2273.75 1468.33 Q2273.75 1459.58 2276.81 1455 Q2279.89 1450.39 2285.7 1450.39 Z" fill="#000000" fill-rule="nonzero" fill-opacity="1" /><path clip-path="url(#clip550)" d="M2305.86 1479.7 L2310.74 1479.7 L2310.74 1485.58 L2305.86 1485.58 L2305.86 1479.7 Z" fill="#000000" fill-rule="nonzero" fill-opacity="1" /><path clip-path="url(#clip550)" d="M2330.93 1454.1 Q2327.32 1454.1 2325.49 1457.66 Q2323.68 1461.2 2323.68 1468.33 Q2323.68 1475.44 2325.49 1479.01 Q2327.32 1482.55 2330.93 1482.55 Q2334.56 1482.55 2336.37 1479.01 Q2338.2 1475.44 2338.2 1468.33 Q2338.2 1461.2 2336.37 1457.66 Q2334.56 1454.1 2330.93 1454.1 M2330.93 1450.39 Q2336.74 1450.39 2339.79 1455 Q2342.87 1459.58 2342.87 1468.33 Q2342.87 1477.06 2339.79 1481.67 Q2336.74 1486.25 2330.93 1486.25 Q2325.12 1486.25 2322.04 1481.67 Q2318.98 1477.06 2318.98 1468.33 Q2318.98 1459.58 2322.04 1455 Q2325.12 1450.39 2330.93 1450.39 Z" fill="#000000" fill-rule="nonzero" fill-opacity="1" /><path clip-path="url(#clip550)" d="M1318.62 1522.27 L1318.62 1532.4 L1330.69 1532.4 L1330.69 1536.95 L1318.62 1536.95 L1318.62 1556.3 Q1318.62 1560.66 1319.8 1561.9 Q1321.01 1563.14 1324.67 1563.14 L1330.69 1563.14 L1330.69 1568.04 L1324.67 1568.04 Q1317.89 1568.04 1315.31 1565.53 Q1312.74 1562.98 1312.74 1556.3 L1312.74 1536.95 L1308.44 1536.95 L1308.44 1532.4 L1312.74 1532.4 L1312.74 1522.27 L1318.62 1522.27 Z" fill="#000000" fill-rule="nonzero" fill-opacity="1" /><polyline clip-path="url(#clip552)" style="stroke:#000000; stroke-linecap:round; stroke-linejoin:round; stroke-width:2; stroke-opacity:0.1; fill:none" points="286.371,1201.73 2352.76,1201.73 "/>
<polyline clip-path="url(#clip552)" style="stroke:#000000; stroke-linecap:round; stroke-linejoin:round; stroke-width:2; stroke-opacity:0.1; fill:none" points="286.371,888.95 2352.76,888.95 "/>
<polyline clip-path="url(#clip552)" style="stroke:#000000; stroke-linecap:round; stroke-linejoin:round; stroke-width:2; stroke-opacity:0.1; fill:none" points="286.371,576.17 2352.76,576.17 "/>
<polyline clip-path="url(#clip552)" style="stroke:#000000; stroke-linecap:round; stroke-linejoin:round; stroke-width:2; stroke-opacity:0.1; fill:none" points="286.371,263.39 2352.76,263.39 "/>
<polyline clip-path="url(#clip550)" style="stroke:#000000; stroke-linecap:round; stroke-linejoin:round; stroke-width:4; stroke-opacity:1; fill:none" points="286.371,1423.18 286.371,47.2441 "/>
<polyline clip-path="url(#clip550)" style="stroke:#000000; stroke-linecap:round; stroke-linejoin:round; stroke-width:4; stroke-opacity:1; fill:none" points="286.371,1201.73 305.268,1201.73 "/>
<polyline clip-path="url(#clip550)" style="stroke:#000000; stroke-linecap:round; stroke-linejoin:round; stroke-width:4; stroke-opacity:1; fill:none" points="286.371,888.95 305.268,888.95 "/>
<polyline clip-path="url(#clip550)" style="stroke:#000000; stroke-linecap:round; stroke-linejoin:round; stroke-width:4; stroke-opacity:1; fill:none" points="286.371,576.17 305.268,576.17 "/>
<polyline clip-path="url(#clip550)" style="stroke:#000000; stroke-linecap:round; stroke-linejoin:round; stroke-width:4; stroke-opacity:1; fill:none" points="286.371,263.39 305.268,263.39 "/>
<path clip-path="url(#clip550)" d="M114.26 1202.18 L143.936 1202.18 L143.936 1206.12 L114.26 1206.12 L114.26 1202.18 Z" fill="#000000" fill-rule="nonzero" fill-opacity="1" /><path clip-path="url(#clip550)" d="M164.028 1187.53 Q160.417 1187.53 158.589 1191.09 Q156.783 1194.64 156.783 1201.76 Q156.783 1208.87 158.589 1212.44 Q160.417 1215.98 164.028 1215.98 Q167.663 1215.98 169.468 1212.44 Q171.297 1208.87 171.297 1201.76 Q171.297 1194.64 169.468 1191.09 Q167.663 1187.53 164.028 1187.53 M164.028 1183.83 Q169.839 1183.83 172.894 1188.43 Q175.973 1193.02 175.973 1201.76 Q175.973 1210.49 172.894 1215.1 Q169.839 1219.68 164.028 1219.68 Q158.218 1219.68 155.14 1215.1 Q152.084 1210.49 152.084 1201.76 Q152.084 1193.02 155.14 1188.43 Q158.218 1183.83 164.028 1183.83 Z" fill="#000000" fill-rule="nonzero" fill-opacity="1" /><path clip-path="url(#clip550)" d="M184.19 1213.13 L189.075 1213.13 L189.075 1219.01 L184.19 1219.01 L184.19 1213.13 Z" fill="#000000" fill-rule="nonzero" fill-opacity="1" /><path clip-path="url(#clip550)" d="M203.287 1215.08 L219.607 1215.08 L219.607 1219.01 L197.662 1219.01 L197.662 1215.08 Q200.325 1212.32 204.908 1207.69 Q209.514 1203.04 210.695 1201.7 Q212.94 1199.17 213.82 1197.44 Q214.723 1195.68 214.723 1193.99 Q214.723 1191.23 212.778 1189.5 Q210.857 1187.76 207.755 1187.76 Q205.556 1187.76 203.102 1188.52 Q200.672 1189.29 197.894 1190.84 L197.894 1186.12 Q200.718 1184.98 203.172 1184.4 Q205.625 1183.83 207.662 1183.83 Q213.033 1183.83 216.227 1186.51 Q219.422 1189.2 219.422 1193.69 Q219.422 1195.82 218.611 1197.74 Q217.824 1199.64 215.718 1202.23 Q215.139 1202.9 212.037 1206.12 Q208.936 1209.31 203.287 1215.08 Z" fill="#000000" fill-rule="nonzero" fill-opacity="1" /><path clip-path="url(#clip550)" d="M229.468 1184.45 L247.824 1184.45 L247.824 1188.39 L233.75 1188.39 L233.75 1196.86 Q234.769 1196.51 235.787 1196.35 Q236.806 1196.16 237.824 1196.16 Q243.611 1196.16 246.991 1199.33 Q250.371 1202.51 250.371 1207.92 Q250.371 1213.5 246.898 1216.6 Q243.426 1219.68 237.107 1219.68 Q234.931 1219.68 232.662 1219.31 Q230.417 1218.94 228.01 1218.2 L228.01 1213.5 Q230.093 1214.64 232.315 1215.19 Q234.537 1215.75 237.014 1215.75 Q241.019 1215.75 243.357 1213.64 Q245.695 1211.53 245.695 1207.92 Q245.695 1204.31 243.357 1202.2 Q241.019 1200.1 237.014 1200.1 Q235.139 1200.1 233.264 1200.51 Q231.412 1200.93 229.468 1201.81 L229.468 1184.45 Z" fill="#000000" fill-rule="nonzero" fill-opacity="1" /><path clip-path="url(#clip550)" d="M163.033 874.749 Q159.422 874.749 157.593 878.314 Q155.788 881.855 155.788 888.985 Q155.788 896.091 157.593 899.656 Q159.422 903.198 163.033 903.198 Q166.667 903.198 168.473 899.656 Q170.302 896.091 170.302 888.985 Q170.302 881.855 168.473 878.314 Q166.667 874.749 163.033 874.749 M163.033 871.045 Q168.843 871.045 171.899 875.652 Q174.977 880.235 174.977 888.985 Q174.977 897.712 171.899 902.318 Q168.843 906.901 163.033 906.901 Q157.223 906.901 154.144 902.318 Q151.089 897.712 151.089 888.985 Q151.089 880.235 154.144 875.652 Q157.223 871.045 163.033 871.045 Z" fill="#000000" fill-rule="nonzero" fill-opacity="1" /><path clip-path="url(#clip550)" d="M183.195 900.35 L188.079 900.35 L188.079 906.23 L183.195 906.23 L183.195 900.35 Z" fill="#000000" fill-rule="nonzero" fill-opacity="1" /><path clip-path="url(#clip550)" d="M208.264 874.749 Q204.653 874.749 202.824 878.314 Q201.019 881.855 201.019 888.985 Q201.019 896.091 202.824 899.656 Q204.653 903.198 208.264 903.198 Q211.899 903.198 213.704 899.656 Q215.533 896.091 215.533 888.985 Q215.533 881.855 213.704 878.314 Q211.899 874.749 208.264 874.749 M208.264 871.045 Q214.074 871.045 217.13 875.652 Q220.209 880.235 220.209 888.985 Q220.209 897.712 217.13 902.318 Q214.074 906.901 208.264 906.901 Q202.454 906.901 199.375 902.318 Q196.32 897.712 196.32 888.985 Q196.32 880.235 199.375 875.652 Q202.454 871.045 208.264 871.045 Z" fill="#000000" fill-rule="nonzero" fill-opacity="1" /><path clip-path="url(#clip550)" d="M238.426 874.749 Q234.815 874.749 232.986 878.314 Q231.181 881.855 231.181 888.985 Q231.181 896.091 232.986 899.656 Q234.815 903.198 238.426 903.198 Q242.06 903.198 243.866 899.656 Q245.695 896.091 245.695 888.985 Q245.695 881.855 243.866 878.314 Q242.06 874.749 238.426 874.749 M238.426 871.045 Q244.236 871.045 247.292 875.652 Q250.371 880.235 250.371 888.985 Q250.371 897.712 247.292 902.318 Q244.236 906.901 238.426 906.901 Q232.616 906.901 229.537 902.318 Q226.482 897.712 226.482 888.985 Q226.482 880.235 229.537 875.652 Q232.616 871.045 238.426 871.045 Z" fill="#000000" fill-rule="nonzero" fill-opacity="1" /><path clip-path="url(#clip550)" d="M164.028 561.969 Q160.417 561.969 158.589 565.533 Q156.783 569.075 156.783 576.205 Q156.783 583.311 158.589 586.876 Q160.417 590.418 164.028 590.418 Q167.663 590.418 169.468 586.876 Q171.297 583.311 171.297 576.205 Q171.297 569.075 169.468 565.533 Q167.663 561.969 164.028 561.969 M164.028 558.265 Q169.839 558.265 172.894 562.871 Q175.973 567.455 175.973 576.205 Q175.973 584.931 172.894 589.538 Q169.839 594.121 164.028 594.121 Q158.218 594.121 155.14 589.538 Q152.084 584.931 152.084 576.205 Q152.084 567.455 155.14 562.871 Q158.218 558.265 164.028 558.265 Z" fill="#000000" fill-rule="nonzero" fill-opacity="1" /><path clip-path="url(#clip550)" d="M184.19 587.57 L189.075 587.57 L189.075 593.45 L184.19 593.45 L184.19 587.57 Z" fill="#000000" fill-rule="nonzero" fill-opacity="1" /><path clip-path="url(#clip550)" d="M203.287 589.515 L219.607 589.515 L219.607 593.45 L197.662 593.45 L197.662 589.515 Q200.325 586.76 204.908 582.131 Q209.514 577.478 210.695 576.135 Q212.94 573.612 213.82 571.876 Q214.723 570.117 214.723 568.427 Q214.723 565.672 212.778 563.936 Q210.857 562.2 207.755 562.2 Q205.556 562.2 203.102 562.964 Q200.672 563.728 197.894 565.279 L197.894 560.557 Q200.718 559.422 203.172 558.844 Q205.625 558.265 207.662 558.265 Q213.033 558.265 216.227 560.95 Q219.422 563.635 219.422 568.126 Q219.422 570.256 218.611 572.177 Q217.824 574.075 215.718 576.668 Q215.139 577.339 212.037 580.556 Q208.936 583.751 203.287 589.515 Z" fill="#000000" fill-rule="nonzero" fill-opacity="1" /><path clip-path="url(#clip550)" d="M229.468 558.89 L247.824 558.89 L247.824 562.825 L233.75 562.825 L233.75 571.297 Q234.769 570.95 235.787 570.788 Q236.806 570.603 237.824 570.603 Q243.611 570.603 246.991 573.774 Q250.371 576.945 250.371 582.362 Q250.371 587.941 246.898 591.043 Q243.426 594.121 237.107 594.121 Q234.931 594.121 232.662 593.751 Q230.417 593.38 228.01 592.64 L228.01 587.941 Q230.093 589.075 232.315 589.63 Q234.537 590.186 237.014 590.186 Q241.019 590.186 243.357 588.08 Q245.695 585.973 245.695 582.362 Q245.695 578.751 243.357 576.644 Q241.019 574.538 237.014 574.538 Q235.139 574.538 233.264 574.955 Q231.412 575.371 229.468 576.251 L229.468 558.89 Z" fill="#000000" fill-rule="nonzero" fill-opacity="1" /><path clip-path="url(#clip550)" d="M163.033 249.188 Q159.422 249.188 157.593 252.753 Q155.788 256.295 155.788 263.424 Q155.788 270.531 157.593 274.096 Q159.422 277.637 163.033 277.637 Q166.667 277.637 168.473 274.096 Q170.302 270.531 170.302 263.424 Q170.302 256.295 168.473 252.753 Q166.667 249.188 163.033 249.188 M163.033 245.485 Q168.843 245.485 171.899 250.091 Q174.977 254.675 174.977 263.424 Q174.977 272.151 171.899 276.758 Q168.843 281.341 163.033 281.341 Q157.223 281.341 154.144 276.758 Q151.089 272.151 151.089 263.424 Q151.089 254.675 154.144 250.091 Q157.223 245.485 163.033 245.485 Z" fill="#000000" fill-rule="nonzero" fill-opacity="1" /><path clip-path="url(#clip550)" d="M183.195 274.79 L188.079 274.79 L188.079 280.67 L183.195 280.67 L183.195 274.79 Z" fill="#000000" fill-rule="nonzero" fill-opacity="1" /><path clip-path="url(#clip550)" d="M198.311 246.11 L216.667 246.11 L216.667 250.045 L202.593 250.045 L202.593 258.517 Q203.612 258.17 204.63 258.008 Q205.649 257.823 206.667 257.823 Q212.454 257.823 215.834 260.994 Q219.213 264.165 219.213 269.582 Q219.213 275.161 215.741 278.262 Q212.269 281.341 205.949 281.341 Q203.774 281.341 201.505 280.971 Q199.26 280.6 196.852 279.86 L196.852 275.161 Q198.936 276.295 201.158 276.85 Q203.38 277.406 205.857 277.406 Q209.861 277.406 212.199 275.299 Q214.537 273.193 214.537 269.582 Q214.537 265.971 212.199 263.864 Q209.861 261.758 205.857 261.758 Q203.982 261.758 202.107 262.174 Q200.255 262.591 198.311 263.471 L198.311 246.11 Z" fill="#000000" fill-rule="nonzero" fill-opacity="1" /><path clip-path="url(#clip550)" d="M238.426 249.188 Q234.815 249.188 232.986 252.753 Q231.181 256.295 231.181 263.424 Q231.181 270.531 232.986 274.096 Q234.815 277.637 238.426 277.637 Q242.06 277.637 243.866 274.096 Q245.695 270.531 245.695 263.424 Q245.695 256.295 243.866 252.753 Q242.06 249.188 238.426 249.188 M238.426 245.485 Q244.236 245.485 247.292 250.091 Q250.371 254.675 250.371 263.424 Q250.371 272.151 247.292 276.758 Q244.236 281.341 238.426 281.341 Q232.616 281.341 229.537 276.758 Q226.482 272.151 226.482 263.424 Q226.482 254.675 229.537 250.091 Q232.616 245.485 238.426 245.485 Z" fill="#000000" fill-rule="nonzero" fill-opacity="1" /><path clip-path="url(#clip550)" d="M20.8447 948.702 Q20.8447 955.704 26.0645 959.842 Q31.2844 963.948 40.2919 963.948 Q49.2675 963.948 54.4874 959.842 Q59.7073 955.704 59.7073 948.702 Q59.7073 941.7 54.4874 937.626 Q49.2675 933.52 40.2919 933.52 Q31.2844 933.52 26.0645 937.626 Q20.8447 941.7 20.8447 948.702 M15.6248 948.702 Q15.6248 938.708 22.3406 932.724 Q29.0246 926.74 40.2919 926.74 Q51.5274 926.74 58.2432 932.724 Q64.9272 938.708 64.9272 948.702 Q64.9272 958.728 58.2432 964.743 Q51.5592 970.727 40.2919 970.727 Q29.0246 970.727 22.3406 964.743 Q15.6248 958.728 15.6248 948.702 Z" fill="#000000" fill-rule="nonzero" fill-opacity="1" /><path clip-path="url(#clip550)" d="M49.9359 917.542 L28.3562 917.542 L28.3562 911.685 L49.7131 911.685 Q54.7739 911.685 57.3202 909.712 Q59.8346 907.739 59.8346 903.792 Q59.8346 899.049 56.8109 896.312 Q53.7872 893.543 48.5673 893.543 L28.3562 893.543 L28.3562 887.687 L64.0042 887.687 L64.0042 893.543 L58.5296 893.543 Q61.7762 895.676 63.3676 898.508 Q64.9272 901.309 64.9272 905.033 Q64.9272 911.176 61.1078 914.359 Q57.2883 917.542 49.9359 917.542 M27.4968 902.805 L27.4968 902.805 Z" fill="#000000" fill-rule="nonzero" fill-opacity="1" /><path clip-path="url(#clip550)" d="M18.2347 869.831 L28.3562 869.831 L28.3562 857.768 L32.9077 857.768 L32.9077 869.831 L52.2594 869.831 Q56.6199 869.831 57.8613 868.653 Q59.1026 867.444 59.1026 863.783 L59.1026 857.768 L64.0042 857.768 L64.0042 863.783 Q64.0042 870.563 61.4897 873.141 Q58.9434 875.719 52.2594 875.719 L32.9077 875.719 L32.9077 880.016 L28.3562 880.016 L28.3562 875.719 L18.2347 875.719 L18.2347 869.831 Z" fill="#000000" fill-rule="nonzero" fill-opacity="1" /><path clip-path="url(#clip550)" d="M58.657 844.4 L77.5631 844.4 L77.5631 850.288 L28.3562 850.288 L28.3562 844.4 L33.7671 844.4 Q30.5842 842.554 29.0564 839.753 Q27.4968 836.92 27.4968 833.005 Q27.4968 826.512 32.6531 822.47 Q37.8093 818.396 46.212 818.396 Q54.6147 818.396 59.771 822.47 Q64.9272 826.512 64.9272 833.005 Q64.9272 836.92 63.3994 839.753 Q61.8398 842.554 58.657 844.4 M46.212 824.475 Q39.7508 824.475 36.0905 827.149 Q32.3984 829.79 32.3984 834.437 Q32.3984 839.084 36.0905 841.758 Q39.7508 844.4 46.212 844.4 Q52.6732 844.4 56.3653 841.758 Q60.0256 839.084 60.0256 834.437 Q60.0256 829.79 56.3653 827.149 Q52.6732 824.475 46.212 824.475 Z" fill="#000000" fill-rule="nonzero" fill-opacity="1" /><path clip-path="url(#clip550)" d="M49.9359 809.293 L28.3562 809.293 L28.3562 803.436 L49.7131 803.436 Q54.7739 803.436 57.3202 801.463 Q59.8346 799.49 59.8346 795.543 Q59.8346 790.801 56.8109 788.063 Q53.7872 785.294 48.5673 785.294 L28.3562 785.294 L28.3562 779.438 L64.0042 779.438 L64.0042 785.294 L58.5296 785.294 Q61.7762 787.427 63.3676 790.259 Q64.9272 793.06 64.9272 796.784 Q64.9272 802.927 61.1078 806.11 Q57.2883 809.293 49.9359 809.293 M27.4968 794.556 L27.4968 794.556 Z" fill="#000000" fill-rule="nonzero" fill-opacity="1" /><path clip-path="url(#clip550)" d="M18.2347 761.582 L28.3562 761.582 L28.3562 749.519 L32.9077 749.519 L32.9077 761.582 L52.2594 761.582 Q56.6199 761.582 57.8613 760.404 Q59.1026 759.195 59.1026 755.534 L59.1026 749.519 L64.0042 749.519 L64.0042 755.534 Q64.0042 762.314 61.4897 764.892 Q58.9434 767.47 52.2594 767.47 L32.9077 767.47 L32.9077 771.767 L28.3562 771.767 L28.3562 767.47 L18.2347 767.47 L18.2347 761.582 Z" fill="#000000" fill-rule="nonzero" fill-opacity="1" /><path clip-path="url(#clip550)" d="M21.7677 735.132 L39.6235 735.132 L39.6235 727.048 Q39.6235 722.56 37.3 720.109 Q34.9765 717.659 30.6797 717.659 Q26.4147 717.659 24.0912 720.109 Q21.7677 722.56 21.7677 727.048 L21.7677 735.132 M16.4842 741.562 L16.4842 727.048 Q16.4842 719.059 20.1126 714.985 Q23.7092 710.879 30.6797 710.879 Q37.7138 710.879 41.3104 714.985 Q44.907 719.059 44.907 727.048 L44.907 735.132 L64.0042 735.132 L64.0042 741.562 L16.4842 741.562 Z" fill="#000000" fill-rule="nonzero" fill-opacity="1" /><path clip-path="url(#clip550)" d="M32.4621 691.018 Q32.4621 695.729 36.1542 698.466 Q39.8145 701.203 46.212 701.203 Q52.6095 701.203 56.3017 698.498 Q59.9619 695.761 59.9619 691.018 Q59.9619 686.339 56.2698 683.602 Q52.5777 680.865 46.212 680.865 Q39.8781 680.865 36.186 683.602 Q32.4621 686.339 32.4621 691.018 M27.4968 691.018 Q27.4968 683.379 32.4621 679.019 Q37.4273 674.658 46.212 674.658 Q54.9649 674.658 59.9619 679.019 Q64.9272 683.379 64.9272 691.018 Q64.9272 698.689 59.9619 703.049 Q54.9649 707.378 46.212 707.378 Q37.4273 707.378 32.4621 703.049 Q27.4968 698.689 27.4968 691.018 Z" fill="#000000" fill-rule="nonzero" fill-opacity="1" /><path clip-path="url(#clip550)" d="M29.4065 642.225 L34.9447 642.225 Q33.6716 644.708 33.035 647.381 Q32.3984 650.055 32.3984 652.919 Q32.3984 657.28 33.7352 659.476 Q35.072 661.64 37.7456 661.64 Q39.7826 661.64 40.9603 660.081 Q42.1061 658.521 43.1565 653.81 L43.6021 651.805 Q44.9389 645.567 47.3897 642.957 Q49.8086 640.315 54.1691 640.315 Q59.1344 640.315 62.0308 644.262 Q64.9272 648.177 64.9272 655.052 Q64.9272 657.916 64.3543 661.036 Q63.8132 664.123 62.6992 667.56 L56.6518 667.56 Q58.3387 664.314 59.198 661.163 Q60.0256 658.012 60.0256 654.924 Q60.0256 650.787 58.6251 648.559 Q57.1929 646.331 54.6147 646.331 Q52.2276 646.331 50.9545 647.954 Q49.6813 649.545 48.5037 654.988 L48.0262 657.025 Q46.8804 662.468 44.5251 664.887 Q42.138 667.306 38.0002 667.306 Q32.9713 667.306 30.2341 663.741 Q27.4968 660.176 27.4968 653.62 Q27.4968 650.373 27.9743 647.508 Q28.4517 644.644 29.4065 642.225 Z" fill="#000000" fill-rule="nonzero" fill-opacity="1" /><path clip-path="url(#clip550)" d="M28.3562 630.989 L28.3562 625.133 L64.0042 625.133 L64.0042 630.989 L28.3562 630.989 M14.479 630.989 L14.479 625.133 L21.895 625.133 L21.895 630.989 L14.479 630.989 Z" fill="#000000" fill-rule="nonzero" fill-opacity="1" /><path clip-path="url(#clip550)" d="M18.2347 607.086 L28.3562 607.086 L28.3562 595.023 L32.9077 595.023 L32.9077 607.086 L52.2594 607.086 Q56.6199 607.086 57.8613 605.909 Q59.1026 604.699 59.1026 601.039 L59.1026 595.023 L64.0042 595.023 L64.0042 601.039 Q64.0042 607.818 61.4897 610.396 Q58.9434 612.974 52.2594 612.974 L32.9077 612.974 L32.9077 617.271 L28.3562 617.271 L28.3562 612.974 L18.2347 612.974 L18.2347 607.086 Z" fill="#000000" fill-rule="nonzero" fill-opacity="1" /><path clip-path="url(#clip550)" d="M28.3562 587.321 L28.3562 581.464 L64.0042 581.464 L64.0042 587.321 L28.3562 587.321 M14.479 587.321 L14.479 581.464 L21.895 581.464 L21.895 587.321 L14.479 587.321 Z" fill="#000000" fill-rule="nonzero" fill-opacity="1" /><path clip-path="url(#clip550)" d="M32.4621 555.397 Q32.4621 560.107 36.1542 562.845 Q39.8145 565.582 46.212 565.582 Q52.6095 565.582 56.3017 562.876 Q59.9619 560.139 59.9619 555.397 Q59.9619 550.718 56.2698 547.981 Q52.5777 545.243 46.212 545.243 Q39.8781 545.243 36.186 547.981 Q32.4621 550.718 32.4621 555.397 M27.4968 555.397 Q27.4968 547.758 32.4621 543.397 Q37.4273 539.037 46.212 539.037 Q54.9649 539.037 59.9619 543.397 Q64.9272 547.758 64.9272 555.397 Q64.9272 563.067 59.9619 567.428 Q54.9649 571.757 46.212 571.757 Q37.4273 571.757 32.4621 567.428 Q27.4968 563.067 27.4968 555.397 Z" fill="#000000" fill-rule="nonzero" fill-opacity="1" /><path clip-path="url(#clip550)" d="M42.4881 499.697 L64.0042 499.697 L64.0042 505.553 L42.679 505.553 Q37.6183 505.553 35.1038 507.527 Q32.5894 509.5 32.5894 513.447 Q32.5894 518.189 35.6131 520.926 Q38.6368 523.664 43.8567 523.664 L64.0042 523.664 L64.0042 529.552 L28.3562 529.552 L28.3562 523.664 L33.8944 523.664 Q30.6797 521.563 29.0883 518.73 Q27.4968 515.866 27.4968 512.142 Q27.4968 505.999 31.3163 502.848 Q35.1038 499.697 42.4881 499.697 Z" fill="#000000" fill-rule="nonzero" fill-opacity="1" /><polyline clip-path="url(#clip552)" style="stroke:#009af9; stroke-linecap:round; stroke-linejoin:round; stroke-width:4; stroke-opacity:1; fill:none" points="344.853,553.227 364.347,553.24 383.842,553.278 403.336,553.34 422.83,553.426 442.324,553.533 461.818,553.659 481.313,553.802 500.807,553.959 520.301,554.127 539.795,554.302 559.289,554.482 578.784,554.661 598.278,554.838 617.772,555.007 637.266,555.167 656.76,555.313 676.255,555.443 695.749,555.554 715.243,555.643 734.737,555.71 754.231,555.753 773.726,555.771 793.22,555.763 812.714,555.73 832.208,555.672 851.702,555.591 871.197,555.488 890.691,555.366 910.185,555.226 929.679,555.071 949.173,554.905 968.668,554.731 988.162,554.552 1007.66,554.372 1027.15,554.195 1046.64,554.024 1066.14,553.862 1085.63,553.713 1105.13,553.58 1124.62,553.465 1144.12,553.371 1163.61,553.299 1183.1,553.252 1202.6,553.229 1222.09,553.232 1241.59,553.26 1261.08,553.313 1280.57,553.39 1300.07,553.488 1319.56,553.607 1339.06,553.744 1358.55,553.896 1378.05,554.06 1397.54,554.233 1417.03,554.411 1436.53,554.591 1456.02,554.769 1475.52,554.942 1495.01,555.106 1514.51,555.257 1534,555.394 1553.49,555.512 1572.99,555.611 1592.48,555.687 1611.98,555.739 1631.47,555.767 1650.96,555.769 1670.46,555.746 1689.95,555.698 1709.45,555.626 1728.94,555.531 1748.44,555.416 1767.93,555.282 1787.42,555.133 1806.92,554.971 1826.41,554.8 1845.91,554.623 1865.4,554.443 1884.9,554.264 1904.39,554.09 1923.88,553.924 1943.38,553.77 1962.87,553.63 1982.37,553.508 2001.86,553.405 2021.35,553.325 2040.85,553.268 2060.34,553.235 2079.84,553.228 2099.33,553.246 2118.83,553.289 2138.32,553.357 2157.81,553.447 2177.31,553.559 2196.8,553.689 2216.3,553.835 2235.79,553.995 2255.28,554.165 2274.78,554.341 2294.27,554.521 "/>
<polyline clip-path="url(#clip552)" style="stroke:#e26f46; stroke-linecap:round; stroke-linejoin:round; stroke-width:4; stroke-opacity:1; fill:none" points="344.853,578.258 364.347,578.438 383.842,578.975 403.336,579.857 422.83,581.067 442.324,582.581 461.818,584.368 481.313,586.394 500.807,588.616 520.301,590.992 539.795,593.473 559.289,596.009 578.784,598.551 598.278,601.047 617.772,603.447 637.266,605.703 656.76,607.77 676.255,609.607 695.749,611.177 715.243,612.449 734.737,613.397 754.231,614.002 773.726,614.253 793.22,614.143 812.714,613.676 832.208,612.86 851.702,611.713 871.197,610.256 890.691,608.519 910.185,606.538 929.679,604.35 949.173,602.001 968.668,599.537 988.162,597.007 1007.66,594.463 1027.15,591.954 1046.64,589.531 1066.14,587.243 1085.63,585.136 1105.13,583.25 1124.62,581.625 1144.12,580.293 1163.61,579.28 1183.1,578.606 1202.6,578.286 1222.09,578.325 1241.59,578.723 1261.08,579.471 1280.57,580.555 1300.07,581.953 1319.56,583.638 1339.06,585.575 1358.55,587.725 1378.05,590.046 1397.54,592.492 1417.03,595.012 1436.53,597.558 1456.02,600.078 1475.52,602.521 1495.01,604.839 1514.51,606.985 1534,608.917 1553.49,610.596 1572.99,611.988 1592.48,613.066 1611.98,613.807 1631.47,614.197 1650.96,614.229 1670.46,613.901 1689.95,613.22 1709.45,612.2 1728.94,610.862 1748.44,609.231 1767.93,607.341 1787.42,605.229 1806.92,602.938 1826.41,600.513 1845.91,598.003 1865.4,595.458 1884.9,592.929 1904.39,590.467 1923.88,588.121 1943.38,585.937 1962.87,583.96 1982.37,582.229 2001.86,580.778 2021.35,579.637 2040.85,578.829 2060.34,578.369 2079.84,578.267 2099.33,578.524 2118.83,579.137 2138.32,580.092 2157.81,581.37 2177.31,582.946 2196.8,584.788 2216.3,586.86 2235.79,589.119 2255.28,591.522 2274.78,594.019 2294.27,596.561 "/>
<polyline clip-path="url(#clip552)" style="stroke:#3da44d; stroke-linecap:round; stroke-linejoin:round; stroke-width:4; stroke-opacity:1; fill:none" points="344.853,1384.24 364.347,1383.69 383.842,1382.06 403.336,1379.37 422.83,1375.68 442.324,1371.07 461.818,1365.63 481.313,1359.46 500.807,1352.69 520.301,1345.45 539.795,1337.9 559.289,1330.17 578.784,1322.43 598.278,1314.83 617.772,1307.52 637.266,1300.65 656.76,1294.35 676.255,1288.76 695.749,1283.98 715.243,1280.1 734.737,1277.21 754.231,1275.37 773.726,1274.61 793.22,1274.94 812.714,1276.37 832.208,1278.85 851.702,1282.34 871.197,1286.78 890.691,1292.07 910.185,1298.11 929.679,1304.77 949.173,1311.92 968.668,1319.43 988.162,1327.13 1007.66,1334.88 1027.15,1342.52 1046.64,1349.9 1066.14,1356.87 1085.63,1363.29 1105.13,1369.03 1124.62,1373.98 1144.12,1378.04 1163.61,1381.13 1183.1,1383.18 1202.6,1384.15 1222.09,1384.04 1241.59,1382.82 1261.08,1380.54 1280.57,1377.24 1300.07,1372.98 1319.56,1367.85 1339.06,1361.95 1358.55,1355.41 1378.05,1348.34 1397.54,1340.89 1417.03,1333.21 1436.53,1325.46 1456.02,1317.78 1475.52,1310.34 1495.01,1303.28 1514.51,1296.74 1534,1290.86 1553.49,1285.75 1572.99,1281.51 1592.48,1278.22 1611.98,1275.97 1631.47,1274.78 1650.96,1274.68 1670.46,1275.68 1689.95,1277.75 1709.45,1280.86 1728.94,1284.94 1748.44,1289.9 1767.93,1295.66 1787.42,1302.09 1806.92,1309.07 1826.41,1316.46 1845.91,1324.1 1865.4,1331.85 1884.9,1339.55 1904.39,1347.05 1923.88,1354.2 1943.38,1360.85 1962.87,1366.87 1982.37,1372.14 2001.86,1376.56 2021.35,1380.04 2040.85,1382.5 2060.34,1383.9 2079.84,1384.21 2099.33,1383.43 2118.83,1381.56 2138.32,1378.65 2157.81,1374.76 2177.31,1369.96 2196.8,1364.35 2216.3,1358.04 2235.79,1351.16 2255.28,1343.84 2274.78,1336.24 2294.27,1328.49 "/>
<polyline clip-path="url(#clip552)" style="stroke:#c271d2; stroke-linecap:round; stroke-linejoin:round; stroke-width:4; stroke-opacity:1; fill:none" points="344.853,583.345 364.347,583.332 383.842,583.294 403.336,583.232 422.83,583.146 442.324,583.039 461.818,582.913 481.313,582.77 500.807,582.613 520.301,582.445 539.795,582.269 559.289,582.09 578.784,581.911 598.278,581.734 617.772,581.565 637.266,581.405 656.76,581.259 676.255,581.129 695.749,581.018 715.243,580.928 734.737,580.861 754.231,580.819 773.726,580.801 793.22,580.809 812.714,580.842 832.208,580.899 851.702,580.98 871.197,581.083 890.691,581.206 910.185,581.346 929.679,581.501 949.173,581.667 968.668,581.841 988.162,582.02 1007.66,582.199 1027.15,582.377 1046.64,582.548 1066.14,582.71 1085.63,582.859 1105.13,582.992 1124.62,583.107 1144.12,583.201 1163.61,583.272 1183.1,583.32 1202.6,583.343 1222.09,583.34 1241.59,583.312 1261.08,583.259 1280.57,583.182 1300.07,583.083 1319.56,582.964 1339.06,582.828 1358.55,582.676 1378.05,582.512 1397.54,582.339 1417.03,582.161 1436.53,581.981 1456.02,581.803 1475.52,581.63 1495.01,581.466 1514.51,581.315 1534,581.178 1553.49,581.059 1572.99,580.961 1592.48,580.885 1611.98,580.832 1631.47,580.805 1650.96,580.803 1670.46,580.826 1689.95,580.874 1709.45,580.946 1728.94,581.041 1748.44,581.156 1767.93,581.289 1787.42,581.439 1806.92,581.601 1826.41,581.772 1845.91,581.949 1865.4,582.129 1884.9,582.308 1904.39,582.482 1923.88,582.648 1943.38,582.802 1962.87,582.942 1982.37,583.064 2001.86,583.167 2021.35,583.247 2040.85,583.304 2060.34,583.337 2079.84,583.344 2099.33,583.326 2118.83,583.283 2138.32,583.215 2157.81,583.125 2177.31,583.013 2196.8,582.883 2216.3,582.737 2235.79,582.577 2255.28,582.407 2274.78,582.231 2294.27,582.051 "/>
<polyline clip-path="url(#clip552)" style="stroke:#ac8d18; stroke-linecap:round; stroke-linejoin:round; stroke-width:4; stroke-opacity:1; fill:none" points="344.853,1004.44 364.347,1004.26 383.842,1003.73 403.336,1002.84 422.83,1001.63 442.324,1000.12 461.818,998.333 481.313,996.308 500.807,994.085 520.301,991.71 539.795,989.229 559.289,986.692 578.784,984.151 598.278,981.655 617.772,979.255 637.266,976.999 656.76,974.932 676.255,973.095 695.749,971.524 715.243,970.253 734.737,969.305 754.231,968.699 773.726,968.449 793.22,968.559 812.714,969.026 832.208,969.842 851.702,970.989 871.197,972.446 890.691,974.182 910.185,976.164 929.679,978.352 949.173,980.701 968.668,983.165 988.162,985.694 1007.66,988.239 1027.15,990.748 1046.64,993.17 1066.14,995.458 1085.63,997.566 1105.13,999.451 1124.62,1001.08 1144.12,1002.41 1163.61,1003.42 1183.1,1004.1 1202.6,1004.42 1222.09,1004.38 1241.59,1003.98 1261.08,1003.23 1280.57,1002.15 1300.07,1000.75 1319.56,999.064 1339.06,997.127 1358.55,994.977 1378.05,992.656 1397.54,990.21 1417.03,987.689 1436.53,985.144 1456.02,982.624 1475.52,980.181 1495.01,977.863 1514.51,975.716 1534,973.784 1553.49,972.106 1572.99,970.714 1592.48,969.636 1611.98,968.895 1631.47,968.504 1650.96,968.473 1670.46,968.801 1689.95,969.481 1709.45,970.501 1728.94,971.84 1748.44,973.471 1767.93,975.361 1787.42,977.473 1806.92,979.764 1826.41,982.189 1845.91,984.699 1865.4,987.244 1884.9,989.772 1904.39,992.235 1923.88,994.581 1943.38,996.765 1962.87,998.742 1982.37,1000.47 2001.86,1001.92 2021.35,1003.06 2040.85,1003.87 2060.34,1004.33 2079.84,1004.44 2099.33,1004.18 2118.83,1003.56 2138.32,1002.61 2157.81,1001.33 2177.31,999.756 2196.8,997.914 2216.3,995.842 2235.79,993.582 2255.28,991.18 2274.78,988.683 2294.27,986.141 "/>
<polyline clip-path="url(#clip552)" style="stroke:#00a9ad; stroke-linecap:round; stroke-linejoin:round; stroke-width:4; stroke-opacity:1; fill:none" points="344.853,86.1857 364.347,86.7339 383.842,88.3677 403.336,91.0544 422.83,94.7402 442.324,99.3514 461.818,104.796 481.313,110.964 500.807,117.734 520.301,124.969 539.795,132.525 559.289,140.251 578.784,147.992 598.278,155.593 617.772,162.903 637.266,169.775 656.76,176.071 676.255,181.667 695.749,186.449 715.243,190.322 734.737,193.21 754.231,195.053 773.726,195.815 793.22,195.482 812.714,194.059 832.208,191.575 851.702,188.079 871.197,183.643 890.691,178.353 910.185,172.317 929.679,165.655 949.173,158.5 968.668,150.995 988.162,143.29 1007.66,135.54 1027.15,127.899 1046.64,120.521 1066.14,113.552 1085.63,107.133 1105.13,101.391 1124.62,96.4411 1144.12,92.3829 1163.61,89.2973 1183.1,87.246 1202.6,86.2699 1222.09,86.3887 1241.59,87.6 1261.08,89.8794 1280.57,93.1815 1300.07,97.4402 1319.56,102.57 1339.06,108.469 1358.55,115.019 1378.05,122.088 1397.54,129.537 1417.03,137.214 1436.53,144.968 1456.02,152.642 1475.52,160.084 1495.01,167.144 1514.51,173.681 1534,179.566 1553.49,184.679 1572.99,188.918 1592.48,192.2 1611.98,194.458 1631.47,195.647 1650.96,195.743 1670.46,194.744 1689.95,192.671 1709.45,189.565 1728.94,185.488 1748.44,180.521 1767.93,174.763 1787.42,168.331 1806.92,161.353 1826.41,153.967 1845.91,146.323 1865.4,138.572 1884.9,130.87 1904.39,123.371 1923.88,116.224 1943.38,109.574 1962.87,103.552 1982.37,98.279 2001.86,93.8609 2021.35,90.3858 2040.85,87.9233 2060.34,86.5225 2079.84,86.2114 2099.33,86.9964 2118.83,88.8616 2138.32,91.7698 2157.81,95.6629 2177.31,100.463 2196.8,106.074 2216.3,112.384 2235.79,119.266 2255.28,126.583 2274.78,134.189 2294.27,141.931 "/>
</svg>
