<?xml version="1.0" encoding="utf-8"?>
<svg xmlns="http://www.w3.org/2000/svg" xmlns:xlink="http://www.w3.org/1999/xlink" width="600" height="400" viewBox="0 0 2400 1600">
<defs>
  <clipPath id="clip390">
    <rect x="0" y="0" width="2400" height="1600"/>
  </clipPath>
</defs>
<path clip-path="url(#clip390)" d="M0 1600 L2400 1600 L2400 0 L0 0  Z" fill="#ffffff" fill-rule="evenodd" fill-opacity="1"/>
<defs>
  <clipPath id="clip391">
    <rect x="480" y="0" width="1681" height="1600"/>
  </clipPath>
</defs>
<path clip-path="url(#clip390)" d="M257.204 1423.18 L2352.76 1423.18 L2352.76 47.2441 L257.204 47.2441  Z" fill="#ffffff" fill-rule="evenodd" fill-opacity="1"/>
<defs>
  <clipPath id="clip392">
    <rect x="257" y="47" width="2097" height="1377"/>
  </clipPath>
</defs>
<polyline clip-path="url(#clip392)" style="stroke:#000000; stroke-linecap:round; stroke-linejoin:round; stroke-width:2; stroke-opacity:0.1; fill:none" points="316.512,1423.18 316.512,47.2441 "/>
<polyline clip-path="url(#clip392)" style="stroke:#000000; stroke-linecap:round; stroke-linejoin:round; stroke-width:2; stroke-opacity:0.1; fill:none" points="711.899,1423.18 711.899,47.2441 "/>
<polyline clip-path="url(#clip392)" style="stroke:#000000; stroke-linecap:round; stroke-linejoin:round; stroke-width:2; stroke-opacity:0.1; fill:none" points="1107.29,1423.18 1107.29,47.2441 "/>
<polyline clip-path="url(#clip392)" style="stroke:#000000; stroke-linecap:round; stroke-linejoin:round; stroke-width:2; stroke-opacity:0.1; fill:none" points="1502.67,1423.18 1502.67,47.2441 "/>
<polyline clip-path="url(#clip392)" style="stroke:#000000; stroke-linecap:round; stroke-linejoin:round; stroke-width:2; stroke-opacity:0.1; fill:none" points="1898.06,1423.18 1898.06,47.2441 "/>
<polyline clip-path="url(#clip392)" style="stroke:#000000; stroke-linecap:round; stroke-linejoin:round; stroke-width:2; stroke-opacity:0.1; fill:none" points="2293.45,1423.18 2293.45,47.2441 "/>
<polyline clip-path="url(#clip390)" style="stroke:#000000; stroke-linecap:round; stroke-linejoin:round; stroke-width:4; stroke-opacity:1; fill:none" points="257.204,1423.18 2352.76,1423.18 "/>
<polyline clip-path="url(#clip390)" style="stroke:#000000; stroke-linecap:round; stroke-linejoin:round; stroke-width:4; stroke-opacity:1; fill:none" points="316.512,1423.18 316.512,1404.28 "/>
<polyline clip-path="url(#clip390)" style="stroke:#000000; stroke-linecap:round; stroke-linejoin:round; stroke-width:4; stroke-opacity:1; fill:none" points="711.899,1423.18 711.899,1404.28 "/>
<polyline clip-path="url(#clip390)" style="stroke:#000000; stroke-linecap:round; stroke-linejoin:round; stroke-width:4; stroke-opacity:1; fill:none" points="1107.29,1423.18 1107.29,1404.28 "/>
<polyline clip-path="url(#clip390)" style="stroke:#000000; stroke-linecap:round; stroke-linejoin:round; stroke-width:4; stroke-opacity:1; fill:none" points="1502.67,1423.18 1502.67,1404.28 "/>
<polyline clip-path="url(#clip390)" style="stroke:#000000; stroke-linecap:round; stroke-linejoin:round; stroke-width:4; stroke-opacity:1; fill:none" points="1898.06,1423.18 1898.06,1404.28 "/>
<polyline clip-path="url(#clip390)" style="stroke:#000000; stroke-linecap:round; stroke-linejoin:round; stroke-width:4; stroke-opacity:1; fill:none" points="2293.45,1423.18 2293.45,1404.28 "/>
<path clip-path="url(#clip390)" d="M316.512 1454.1 Q312.901 1454.1 311.072 1457.66 Q309.267 1461.2 309.267 1468.33 Q309.267 1475.44 311.072 1479.01 Q312.901 1482.55 316.512 1482.55 Q320.146 1482.55 321.952 1479.01 Q323.781 1475.44 323.781 1468.33 Q323.781 1461.2 321.952 1457.66 Q320.146 1454.1 316.512 1454.1 M316.512 1450.39 Q322.322 1450.39 325.378 1455 Q328.456 1459.58 328.456 1468.33 Q328.456 1477.06 325.378 1481.67 Q322.322 1486.25 316.512 1486.25 Q310.702 1486.25 307.623 1481.67 Q304.568 1477.06 304.568 1468.33 Q304.568 1459.58 307.623 1455 Q310.702 1450.39 316.512 1450.39 Z" fill="#000000" fill-rule="nonzero" fill-opacity="1" /><path clip-path="url(#clip390)" d="M686.587 1481.64 L694.226 1481.64 L694.226 1455.28 L685.916 1456.95 L685.916 1452.69 L694.179 1451.02 L698.855 1451.02 L698.855 1481.64 L706.494 1481.64 L706.494 1485.58 L686.587 1485.58 L686.587 1481.64 Z" fill="#000000" fill-rule="nonzero" fill-opacity="1" /><path clip-path="url(#clip390)" d="M725.939 1454.1 Q722.327 1454.1 720.499 1457.66 Q718.693 1461.2 718.693 1468.33 Q718.693 1475.44 720.499 1479.01 Q722.327 1482.55 725.939 1482.55 Q729.573 1482.55 731.378 1479.01 Q733.207 1475.44 733.207 1468.33 Q733.207 1461.2 731.378 1457.66 Q729.573 1454.1 725.939 1454.1 M725.939 1450.39 Q731.749 1450.39 734.804 1455 Q737.883 1459.58 737.883 1468.33 Q737.883 1477.06 734.804 1481.67 Q731.749 1486.25 725.939 1486.25 Q720.128 1486.25 717.05 1481.67 Q713.994 1477.06 713.994 1468.33 Q713.994 1459.58 717.05 1455 Q720.128 1450.39 725.939 1450.39 Z" fill="#000000" fill-rule="nonzero" fill-opacity="1" /><path clip-path="url(#clip390)" d="M1086.06 1481.64 L1102.38 1481.64 L1102.38 1485.58 L1080.43 1485.58 L1080.43 1481.64 Q1083.1 1478.89 1087.68 1474.26 Q1092.29 1469.61 1093.47 1468.27 Q1095.71 1465.74 1096.59 1464.01 Q1097.49 1462.25 1097.49 1460.56 Q1097.49 1457.8 1095.55 1456.07 Q1093.63 1454.33 1090.53 1454.33 Q1088.33 1454.33 1085.87 1455.09 Q1083.44 1455.86 1080.67 1457.41 L1080.67 1452.69 Q1083.49 1451.55 1085.94 1450.97 Q1088.4 1450.39 1090.43 1450.39 Q1095.8 1450.39 1099 1453.08 Q1102.19 1455.77 1102.19 1460.26 Q1102.19 1462.39 1101.38 1464.31 Q1100.6 1466.2 1098.49 1468.8 Q1097.91 1469.47 1094.81 1472.69 Q1091.71 1475.88 1086.06 1481.64 Z" fill="#000000" fill-rule="nonzero" fill-opacity="1" /><path clip-path="url(#clip390)" d="M1122.19 1454.1 Q1118.58 1454.1 1116.75 1457.66 Q1114.95 1461.2 1114.95 1468.33 Q1114.95 1475.44 1116.75 1479.01 Q1118.58 1482.55 1122.19 1482.55 Q1125.83 1482.55 1127.63 1479.01 Q1129.46 1475.44 1129.46 1468.33 Q1129.46 1461.2 1127.63 1457.66 Q1125.83 1454.1 1122.19 1454.1 M1122.19 1450.39 Q1128 1450.39 1131.06 1455 Q1134.14 1459.58 1134.14 1468.33 Q1134.14 1477.06 1131.06 1481.67 Q1128 1486.25 1122.19 1486.25 Q1116.38 1486.25 1113.3 1481.67 Q1110.25 1477.06 1110.25 1468.33 Q1110.25 1459.58 1113.3 1455 Q1116.38 1450.39 1122.19 1450.39 Z" fill="#000000" fill-rule="nonzero" fill-opacity="1" /><path clip-path="url(#clip390)" d="M1491.52 1466.95 Q1494.87 1467.66 1496.75 1469.93 Q1498.65 1472.2 1498.65 1475.53 Q1498.65 1480.65 1495.13 1483.45 Q1491.61 1486.25 1485.13 1486.25 Q1482.95 1486.25 1480.64 1485.81 Q1478.34 1485.39 1475.89 1484.54 L1475.89 1480.02 Q1477.84 1481.16 1480.15 1481.74 Q1482.47 1482.32 1484.99 1482.32 Q1489.39 1482.32 1491.68 1480.58 Q1493.99 1478.84 1493.99 1475.53 Q1493.99 1472.48 1491.84 1470.77 Q1489.71 1469.03 1485.89 1469.03 L1481.86 1469.03 L1481.86 1465.19 L1486.08 1465.19 Q1489.53 1465.19 1491.35 1463.82 Q1493.18 1462.43 1493.18 1459.84 Q1493.18 1457.18 1491.28 1455.77 Q1489.41 1454.33 1485.89 1454.33 Q1483.97 1454.33 1481.77 1454.75 Q1479.57 1455.16 1476.93 1456.04 L1476.93 1451.88 Q1479.59 1451.14 1481.91 1450.77 Q1484.25 1450.39 1486.31 1450.39 Q1491.63 1450.39 1494.73 1452.83 Q1497.84 1455.23 1497.84 1459.35 Q1497.84 1462.22 1496.19 1464.21 Q1494.55 1466.18 1491.52 1466.95 Z" fill="#000000" fill-rule="nonzero" fill-opacity="1" /><path clip-path="url(#clip390)" d="M1517.51 1454.1 Q1513.9 1454.1 1512.07 1457.66 Q1510.27 1461.2 1510.27 1468.33 Q1510.27 1475.44 1512.07 1479.01 Q1513.9 1482.55 1517.51 1482.55 Q1521.15 1482.55 1522.95 1479.01 Q1524.78 1475.44 1524.78 1468.33 Q1524.78 1461.2 1522.95 1457.66 Q1521.15 1454.1 1517.51 1454.1 M1517.51 1450.39 Q1523.32 1450.39 1526.38 1455 Q1529.46 1459.58 1529.46 1468.33 Q1529.46 1477.06 1526.38 1481.67 Q1523.32 1486.25 1517.51 1486.25 Q1511.7 1486.25 1508.62 1481.67 Q1505.57 1477.06 1505.57 1468.33 Q1505.57 1459.58 1508.62 1455 Q1511.7 1450.39 1517.51 1450.39 Z" fill="#000000" fill-rule="nonzero" fill-opacity="1" /><path clip-path="url(#clip390)" d="M1886.23 1455.09 L1874.43 1473.54 L1886.23 1473.54 L1886.23 1455.09 M1885.01 1451.02 L1890.88 1451.02 L1890.88 1473.54 L1895.82 1473.54 L1895.82 1477.43 L1890.88 1477.43 L1890.88 1485.58 L1886.23 1485.58 L1886.23 1477.43 L1870.63 1477.43 L1870.63 1472.92 L1885.01 1451.02 Z" fill="#000000" fill-rule="nonzero" fill-opacity="1" /><path clip-path="url(#clip390)" d="M1913.55 1454.1 Q1909.94 1454.1 1908.11 1457.66 Q1906.3 1461.2 1906.3 1468.33 Q1906.3 1475.44 1908.11 1479.01 Q1909.94 1482.55 1913.55 1482.55 Q1917.18 1482.55 1918.99 1479.01 Q1920.82 1475.44 1920.82 1468.33 Q1920.82 1461.2 1918.99 1457.66 Q1917.18 1454.1 1913.55 1454.1 M1913.55 1450.39 Q1919.36 1450.39 1922.41 1455 Q1925.49 1459.58 1925.49 1468.33 Q1925.49 1477.06 1922.41 1481.67 Q1919.36 1486.25 1913.55 1486.25 Q1907.74 1486.25 1904.66 1481.67 Q1901.6 1477.06 1901.6 1468.33 Q1901.6 1459.58 1904.66 1455 Q1907.74 1450.39 1913.55 1450.39 Z" fill="#000000" fill-rule="nonzero" fill-opacity="1" /><path clip-path="url(#clip390)" d="M2268.15 1451.02 L2286.5 1451.02 L2286.5 1454.96 L2272.43 1454.96 L2272.43 1463.43 Q2273.45 1463.08 2274.47 1462.92 Q2275.48 1462.73 2276.5 1462.73 Q2282.29 1462.73 2285.67 1465.9 Q2289.05 1469.08 2289.05 1474.49 Q2289.05 1480.07 2285.58 1483.17 Q2282.11 1486.25 2275.79 1486.25 Q2273.61 1486.25 2271.34 1485.88 Q2269.1 1485.51 2266.69 1484.77 L2266.69 1480.07 Q2268.77 1481.2 2270.99 1481.76 Q2273.22 1482.32 2275.69 1482.32 Q2279.7 1482.32 2282.04 1480.21 Q2284.37 1478.1 2284.37 1474.49 Q2284.37 1470.88 2282.04 1468.77 Q2279.7 1466.67 2275.69 1466.67 Q2273.82 1466.67 2271.94 1467.08 Q2270.09 1467.5 2268.15 1468.38 L2268.15 1451.02 Z" fill="#000000" fill-rule="nonzero" fill-opacity="1" /><path clip-path="url(#clip390)" d="M2308.26 1454.1 Q2304.65 1454.1 2302.82 1457.66 Q2301.02 1461.2 2301.02 1468.33 Q2301.02 1475.44 2302.82 1479.01 Q2304.65 1482.55 2308.26 1482.55 Q2311.9 1482.55 2313.7 1479.01 Q2315.53 1475.44 2315.53 1468.33 Q2315.53 1461.2 2313.7 1457.66 Q2311.9 1454.1 2308.26 1454.1 M2308.26 1450.39 Q2314.07 1450.39 2317.13 1455 Q2320.21 1459.58 2320.21 1468.33 Q2320.21 1477.06 2317.13 1481.67 Q2314.07 1486.25 2308.26 1486.25 Q2302.45 1486.25 2299.37 1481.67 Q2296.32 1477.06 2296.32 1468.33 Q2296.32 1459.58 2299.37 1455 Q2302.45 1450.39 2308.26 1450.39 Z" fill="#000000" fill-rule="nonzero" fill-opacity="1" /><path clip-path="url(#clip390)" d="M1304.04 1522.27 L1304.04 1532.4 L1316.1 1532.4 L1316.1 1536.95 L1304.04 1536.95 L1304.04 1556.3 Q1304.04 1560.66 1305.22 1561.9 Q1306.43 1563.14 1310.09 1563.14 L1316.1 1563.14 L1316.1 1568.04 L1310.09 1568.04 Q1303.31 1568.04 1300.73 1565.53 Q1298.15 1562.98 1298.15 1556.3 L1298.15 1536.95 L1293.86 1536.95 L1293.86 1532.4 L1298.15 1532.4 L1298.15 1522.27 L1304.04 1522.27 Z" fill="#000000" fill-rule="nonzero" fill-opacity="1" /><polyline clip-path="url(#clip392)" style="stroke:#000000; stroke-linecap:round; stroke-linejoin:round; stroke-width:2; stroke-opacity:0.1; fill:none" points="257.204,1285.38 2352.76,1285.38 "/>
<polyline clip-path="url(#clip392)" style="stroke:#000000; stroke-linecap:round; stroke-linejoin:round; stroke-width:2; stroke-opacity:0.1; fill:none" points="257.204,1010.29 2352.76,1010.29 "/>
<polyline clip-path="url(#clip392)" style="stroke:#000000; stroke-linecap:round; stroke-linejoin:round; stroke-width:2; stroke-opacity:0.1; fill:none" points="257.204,735.208 2352.76,735.208 "/>
<polyline clip-path="url(#clip392)" style="stroke:#000000; stroke-linecap:round; stroke-linejoin:round; stroke-width:2; stroke-opacity:0.1; fill:none" points="257.204,460.123 2352.76,460.123 "/>
<polyline clip-path="url(#clip392)" style="stroke:#000000; stroke-linecap:round; stroke-linejoin:round; stroke-width:2; stroke-opacity:0.1; fill:none" points="257.204,185.038 2352.76,185.038 "/>
<polyline clip-path="url(#clip390)" style="stroke:#000000; stroke-linecap:round; stroke-linejoin:round; stroke-width:4; stroke-opacity:1; fill:none" points="257.204,1423.18 257.204,47.2441 "/>
<polyline clip-path="url(#clip390)" style="stroke:#000000; stroke-linecap:round; stroke-linejoin:round; stroke-width:4; stroke-opacity:1; fill:none" points="257.204,1285.38 276.102,1285.38 "/>
<polyline clip-path="url(#clip390)" style="stroke:#000000; stroke-linecap:round; stroke-linejoin:round; stroke-width:4; stroke-opacity:1; fill:none" points="257.204,1010.29 276.102,1010.29 "/>
<polyline clip-path="url(#clip390)" style="stroke:#000000; stroke-linecap:round; stroke-linejoin:round; stroke-width:4; stroke-opacity:1; fill:none" points="257.204,735.208 276.102,735.208 "/>
<polyline clip-path="url(#clip390)" style="stroke:#000000; stroke-linecap:round; stroke-linejoin:round; stroke-width:4; stroke-opacity:1; fill:none" points="257.204,460.123 276.102,460.123 "/>
<polyline clip-path="url(#clip390)" style="stroke:#000000; stroke-linecap:round; stroke-linejoin:round; stroke-width:4; stroke-opacity:1; fill:none" points="257.204,185.038 276.102,185.038 "/>
<path clip-path="url(#clip390)" d="M114.26 1285.83 L143.936 1285.83 L143.936 1289.77 L114.26 1289.77 L114.26 1285.83 Z" fill="#000000" fill-rule="nonzero" fill-opacity="1" /><path clip-path="url(#clip390)" d="M154.075 1268.1 L172.431 1268.1 L172.431 1272.03 L158.357 1272.03 L158.357 1280.51 Q159.376 1280.16 160.394 1280 Q161.413 1279.81 162.431 1279.81 Q168.218 1279.81 171.598 1282.98 Q174.977 1286.15 174.977 1291.57 Q174.977 1297.15 171.505 1300.25 Q168.033 1303.33 161.714 1303.33 Q159.538 1303.33 157.269 1302.96 Q155.024 1302.59 152.616 1301.85 L152.616 1297.15 Q154.7 1298.28 156.922 1298.84 Q159.144 1299.4 161.621 1299.4 Q165.626 1299.4 167.964 1297.29 Q170.302 1295.18 170.302 1291.57 Q170.302 1287.96 167.964 1285.85 Q165.626 1283.75 161.621 1283.75 Q159.746 1283.75 157.871 1284.16 Q156.019 1284.58 154.075 1285.46 L154.075 1268.1 Z" fill="#000000" fill-rule="nonzero" fill-opacity="1" /><path clip-path="url(#clip390)" d="M184.19 1296.78 L189.075 1296.78 L189.075 1302.66 L184.19 1302.66 L184.19 1296.78 Z" fill="#000000" fill-rule="nonzero" fill-opacity="1" /><path clip-path="url(#clip390)" d="M209.26 1271.18 Q205.649 1271.18 203.82 1274.74 Q202.014 1278.28 202.014 1285.41 Q202.014 1292.52 203.82 1296.09 Q205.649 1299.63 209.26 1299.63 Q212.894 1299.63 214.699 1296.09 Q216.528 1292.52 216.528 1285.41 Q216.528 1278.28 214.699 1274.74 Q212.894 1271.18 209.26 1271.18 M209.26 1267.47 Q215.07 1267.47 218.125 1272.08 Q221.204 1276.66 221.204 1285.41 Q221.204 1294.14 218.125 1298.75 Q215.07 1303.33 209.26 1303.33 Q203.449 1303.33 200.371 1298.75 Q197.315 1294.14 197.315 1285.41 Q197.315 1276.66 200.371 1272.08 Q203.449 1267.47 209.26 1267.47 Z" fill="#000000" fill-rule="nonzero" fill-opacity="1" /><path clip-path="url(#clip390)" d="M115.256 1010.75 L144.931 1010.75 L144.931 1014.68 L115.256 1014.68 L115.256 1010.75 Z" fill="#000000" fill-rule="nonzero" fill-opacity="1" /><path clip-path="url(#clip390)" d="M159.052 1023.64 L175.371 1023.64 L175.371 1027.57 L153.427 1027.57 L153.427 1023.64 Q156.089 1020.88 160.672 1016.25 Q165.278 1011.6 166.459 1010.26 Q168.704 1007.74 169.584 1006 Q170.487 1004.24 170.487 1002.55 Q170.487 999.796 168.542 998.06 Q166.621 996.324 163.519 996.324 Q161.32 996.324 158.866 997.088 Q156.436 997.852 153.658 999.403 L153.658 994.681 Q156.482 993.546 158.936 992.968 Q161.39 992.389 163.427 992.389 Q168.797 992.389 171.991 995.074 Q175.186 997.759 175.186 1002.25 Q175.186 1004.38 174.376 1006.3 Q173.589 1008.2 171.482 1010.79 Q170.903 1011.46 167.802 1014.68 Q164.7 1017.87 159.052 1023.64 Z" fill="#000000" fill-rule="nonzero" fill-opacity="1" /><path clip-path="url(#clip390)" d="M185.186 1021.69 L190.07 1021.69 L190.07 1027.57 L185.186 1027.57 L185.186 1021.69 Z" fill="#000000" fill-rule="nonzero" fill-opacity="1" /><path clip-path="url(#clip390)" d="M200.301 993.014 L218.658 993.014 L218.658 996.949 L204.584 996.949 L204.584 1005.42 Q205.602 1005.07 206.621 1004.91 Q207.639 1004.73 208.658 1004.73 Q214.445 1004.73 217.824 1007.9 Q221.204 1011.07 221.204 1016.49 Q221.204 1022.06 217.732 1025.17 Q214.26 1028.25 207.94 1028.25 Q205.764 1028.25 203.496 1027.87 Q201.25 1027.5 198.843 1026.76 L198.843 1022.06 Q200.926 1023.2 203.149 1023.75 Q205.371 1024.31 207.848 1024.31 Q211.852 1024.31 214.19 1022.2 Q216.528 1020.1 216.528 1016.49 Q216.528 1012.87 214.19 1010.77 Q211.852 1008.66 207.848 1008.66 Q205.973 1008.66 204.098 1009.08 Q202.246 1009.5 200.301 1010.37 L200.301 993.014 Z" fill="#000000" fill-rule="nonzero" fill-opacity="1" /><path clip-path="url(#clip390)" d="M164.028 721.007 Q160.417 721.007 158.589 724.572 Q156.783 728.114 156.783 735.243 Q156.783 742.35 158.589 745.914 Q160.417 749.456 164.028 749.456 Q167.663 749.456 169.468 745.914 Q171.297 742.35 171.297 735.243 Q171.297 728.114 169.468 724.572 Q167.663 721.007 164.028 721.007 M164.028 717.303 Q169.839 717.303 172.894 721.91 Q175.973 726.493 175.973 735.243 Q175.973 743.97 172.894 748.576 Q169.839 753.16 164.028 753.16 Q158.218 753.16 155.14 748.576 Q152.084 743.97 152.084 735.243 Q152.084 726.493 155.14 721.91 Q158.218 717.303 164.028 717.303 Z" fill="#000000" fill-rule="nonzero" fill-opacity="1" /><path clip-path="url(#clip390)" d="M184.19 746.609 L189.075 746.609 L189.075 752.488 L184.19 752.488 L184.19 746.609 Z" fill="#000000" fill-rule="nonzero" fill-opacity="1" /><path clip-path="url(#clip390)" d="M209.26 721.007 Q205.649 721.007 203.82 724.572 Q202.014 728.114 202.014 735.243 Q202.014 742.35 203.82 745.914 Q205.649 749.456 209.26 749.456 Q212.894 749.456 214.699 745.914 Q216.528 742.35 216.528 735.243 Q216.528 728.114 214.699 724.572 Q212.894 721.007 209.26 721.007 M209.26 717.303 Q215.07 717.303 218.125 721.91 Q221.204 726.493 221.204 735.243 Q221.204 743.97 218.125 748.576 Q215.07 753.16 209.26 753.16 Q203.449 753.16 200.371 748.576 Q197.315 743.97 197.315 735.243 Q197.315 726.493 200.371 721.91 Q203.449 717.303 209.26 717.303 Z" fill="#000000" fill-rule="nonzero" fill-opacity="1" /><path clip-path="url(#clip390)" d="M159.052 473.468 L175.371 473.468 L175.371 477.403 L153.427 477.403 L153.427 473.468 Q156.089 470.713 160.672 466.084 Q165.278 461.431 166.459 460.088 Q168.704 457.565 169.584 455.829 Q170.487 454.07 170.487 452.38 Q170.487 449.625 168.542 447.889 Q166.621 446.153 163.519 446.153 Q161.32 446.153 158.866 446.917 Q156.436 447.681 153.658 449.232 L153.658 444.51 Q156.482 443.375 158.936 442.797 Q161.39 442.218 163.427 442.218 Q168.797 442.218 171.991 444.903 Q175.186 447.588 175.186 452.079 Q175.186 454.209 174.376 456.13 Q173.589 458.028 171.482 460.621 Q170.903 461.292 167.802 464.51 Q164.7 467.704 159.052 473.468 Z" fill="#000000" fill-rule="nonzero" fill-opacity="1" /><path clip-path="url(#clip390)" d="M185.186 471.523 L190.07 471.523 L190.07 477.403 L185.186 477.403 L185.186 471.523 Z" fill="#000000" fill-rule="nonzero" fill-opacity="1" /><path clip-path="url(#clip390)" d="M200.301 442.843 L218.658 442.843 L218.658 446.778 L204.584 446.778 L204.584 455.25 Q205.602 454.903 206.621 454.741 Q207.639 454.556 208.658 454.556 Q214.445 454.556 217.824 457.727 Q221.204 460.898 221.204 466.315 Q221.204 471.894 217.732 474.996 Q214.26 478.074 207.94 478.074 Q205.764 478.074 203.496 477.704 Q201.25 477.334 198.843 476.593 L198.843 471.894 Q200.926 473.028 203.149 473.584 Q205.371 474.139 207.848 474.139 Q211.852 474.139 214.19 472.033 Q216.528 469.926 216.528 466.315 Q216.528 462.704 214.19 460.598 Q211.852 458.491 207.848 458.491 Q205.973 458.491 204.098 458.908 Q202.246 459.324 200.301 460.204 L200.301 442.843 Z" fill="#000000" fill-rule="nonzero" fill-opacity="1" /><path clip-path="url(#clip390)" d="M154.075 167.758 L172.431 167.758 L172.431 171.693 L158.357 171.693 L158.357 180.165 Q159.376 179.818 160.394 179.656 Q161.413 179.47 162.431 179.47 Q168.218 179.47 171.598 182.642 Q174.977 185.813 174.977 191.23 Q174.977 196.808 171.505 199.91 Q168.033 202.989 161.714 202.989 Q159.538 202.989 157.269 202.618 Q155.024 202.248 152.616 201.507 L152.616 196.808 Q154.7 197.943 156.922 198.498 Q159.144 199.054 161.621 199.054 Q165.626 199.054 167.964 196.947 Q170.302 194.841 170.302 191.23 Q170.302 187.619 167.964 185.512 Q165.626 183.406 161.621 183.406 Q159.746 183.406 157.871 183.822 Q156.019 184.239 154.075 185.119 L154.075 167.758 Z" fill="#000000" fill-rule="nonzero" fill-opacity="1" /><path clip-path="url(#clip390)" d="M184.19 196.438 L189.075 196.438 L189.075 202.318 L184.19 202.318 L184.19 196.438 Z" fill="#000000" fill-rule="nonzero" fill-opacity="1" /><path clip-path="url(#clip390)" d="M209.26 170.836 Q205.649 170.836 203.82 174.401 Q202.014 177.943 202.014 185.072 Q202.014 192.179 203.82 195.743 Q205.649 199.285 209.26 199.285 Q212.894 199.285 214.699 195.743 Q216.528 192.179 216.528 185.072 Q216.528 177.943 214.699 174.401 Q212.894 170.836 209.26 170.836 M209.26 167.133 Q215.07 167.133 218.125 171.739 Q221.204 176.322 221.204 185.072 Q221.204 193.799 218.125 198.406 Q215.07 202.989 209.26 202.989 Q203.449 202.989 200.371 198.406 Q197.315 193.799 197.315 185.072 Q197.315 176.322 200.371 171.739 Q203.449 167.133 209.26 167.133 Z" fill="#000000" fill-rule="nonzero" fill-opacity="1" /><path clip-path="url(#clip390)" d="M20.8447 951.455 Q20.8447 958.457 26.0645 962.595 Q31.2844 966.701 40.2919 966.701 Q49.2675 966.701 54.4874 962.595 Q59.7073 958.457 59.7073 951.455 Q59.7073 944.453 54.4874 940.379 Q49.2675 936.273 40.2919 936.273 Q31.2844 936.273 26.0645 940.379 Q20.8447 944.453 20.8447 951.455 M15.6248 951.455 Q15.6248 941.461 22.3406 935.477 Q29.0246 929.493 40.2919 929.493 Q51.5274 929.493 58.2432 935.477 Q64.9272 941.461 64.9272 951.455 Q64.9272 961.481 58.2432 967.497 Q51.5592 973.48 40.2919 973.48 Q29.0246 973.48 22.3406 967.497 Q15.6248 961.481 15.6248 951.455 Z" fill="#000000" fill-rule="nonzero" fill-opacity="1" /><path clip-path="url(#clip390)" d="M49.9359 920.295 L28.3562 920.295 L28.3562 914.438 L49.7131 914.438 Q54.7739 914.438 57.3202 912.465 Q59.8346 910.492 59.8346 906.545 Q59.8346 901.803 56.8109 899.065 Q53.7872 896.296 48.5673 896.296 L28.3562 896.296 L28.3562 890.44 L64.0042 890.44 L64.0042 896.296 L58.5296 896.296 Q61.7762 898.429 63.3676 901.261 Q64.9272 904.062 64.9272 907.786 Q64.9272 913.929 61.1078 917.112 Q57.2883 920.295 49.9359 920.295 M27.4968 905.558 L27.4968 905.558 Z" fill="#000000" fill-rule="nonzero" fill-opacity="1" /><path clip-path="url(#clip390)" d="M18.2347 872.584 L28.3562 872.584 L28.3562 860.521 L32.9077 860.521 L32.9077 872.584 L52.2594 872.584 Q56.6199 872.584 57.8613 871.406 Q59.1026 870.197 59.1026 866.536 L59.1026 860.521 L64.0042 860.521 L64.0042 866.536 Q64.0042 873.316 61.4897 875.894 Q58.9434 878.472 52.2594 878.472 L32.9077 878.472 L32.9077 882.769 L28.3562 882.769 L28.3562 878.472 L18.2347 878.472 L18.2347 872.584 Z" fill="#000000" fill-rule="nonzero" fill-opacity="1" /><path clip-path="url(#clip390)" d="M58.657 847.153 L77.5631 847.153 L77.5631 853.041 L28.3562 853.041 L28.3562 847.153 L33.7671 847.153 Q30.5842 845.307 29.0564 842.506 Q27.4968 839.673 27.4968 835.758 Q27.4968 829.265 32.6531 825.223 Q37.8093 821.149 46.212 821.149 Q54.6147 821.149 59.771 825.223 Q64.9272 829.265 64.9272 835.758 Q64.9272 839.673 63.3994 842.506 Q61.8398 845.307 58.657 847.153 M46.212 827.228 Q39.7508 827.228 36.0905 829.902 Q32.3984 832.544 32.3984 837.191 Q32.3984 841.838 36.0905 844.511 Q39.7508 847.153 46.212 847.153 Q52.6732 847.153 56.3653 844.511 Q60.0256 841.838 60.0256 837.191 Q60.0256 832.544 56.3653 829.902 Q52.6732 827.228 46.212 827.228 Z" fill="#000000" fill-rule="nonzero" fill-opacity="1" /><path clip-path="url(#clip390)" d="M49.9359 812.046 L28.3562 812.046 L28.3562 806.19 L49.7131 806.19 Q54.7739 806.19 57.3202 804.216 Q59.8346 802.243 59.8346 798.296 Q59.8346 793.554 56.8109 790.816 Q53.7872 788.047 48.5673 788.047 L28.3562 788.047 L28.3562 782.191 L64.0042 782.191 L64.0042 788.047 L58.5296 788.047 Q61.7762 790.18 63.3676 793.013 Q64.9272 795.813 64.9272 799.537 Q64.9272 805.68 61.1078 808.863 Q57.2883 812.046 49.9359 812.046 M27.4968 797.309 L27.4968 797.309 Z" fill="#000000" fill-rule="nonzero" fill-opacity="1" /><path clip-path="url(#clip390)" d="M18.2347 764.335 L28.3562 764.335 L28.3562 752.272 L32.9077 752.272 L32.9077 764.335 L52.2594 764.335 Q56.6199 764.335 57.8613 763.157 Q59.1026 761.948 59.1026 758.288 L59.1026 752.272 L64.0042 752.272 L64.0042 758.288 Q64.0042 765.067 61.4897 767.645 Q58.9434 770.223 52.2594 770.223 L32.9077 770.223 L32.9077 774.52 L28.3562 774.52 L28.3562 770.223 L18.2347 770.223 L18.2347 764.335 Z" fill="#000000" fill-rule="nonzero" fill-opacity="1" /><path clip-path="url(#clip390)" d="M64.0042 732.061 L16.4842 750.203 L16.4842 743.487 L56.4926 728.432 L16.4842 713.346 L16.4842 706.662 L64.0042 724.772 L64.0042 732.061 Z" fill="#000000" fill-rule="nonzero" fill-opacity="1" /><path clip-path="url(#clip390)" d="M44.7161 674.547 L47.5806 674.547 L47.5806 701.474 Q53.6281 701.092 56.8109 697.845 Q59.9619 694.567 59.9619 688.742 Q59.9619 685.368 59.1344 682.217 Q58.3069 679.035 56.6518 675.915 L62.1899 675.915 Q63.5267 679.066 64.227 682.377 Q64.9272 685.687 64.9272 689.092 Q64.9272 697.622 59.9619 702.62 Q54.9967 707.585 46.5303 707.585 Q37.7774 707.585 32.6531 702.874 Q27.4968 698.132 27.4968 690.111 Q27.4968 682.918 32.1438 678.748 Q36.7589 674.547 44.7161 674.547 M42.9973 680.403 Q38.1912 680.467 35.3266 683.109 Q32.4621 685.719 32.4621 690.047 Q32.4621 694.949 35.2312 697.909 Q38.0002 700.837 43.0292 701.283 L42.9973 680.403 Z" fill="#000000" fill-rule="nonzero" fill-opacity="1" /><path clip-path="url(#clip390)" d="M14.479 664.935 L14.479 659.078 L64.0042 659.078 L64.0042 664.935 L14.479 664.935 Z" fill="#000000" fill-rule="nonzero" fill-opacity="1" /><path clip-path="url(#clip390)" d="M32.4621 633.011 Q32.4621 637.721 36.1542 640.458 Q39.8145 643.196 46.212 643.196 Q52.6095 643.196 56.3017 640.49 Q59.9619 637.753 59.9619 633.011 Q59.9619 628.332 56.2698 625.595 Q52.5777 622.857 46.212 622.857 Q39.8781 622.857 36.186 625.595 Q32.4621 628.332 32.4621 633.011 M27.4968 633.011 Q27.4968 625.372 32.4621 621.011 Q37.4273 616.651 46.212 616.651 Q54.9649 616.651 59.9619 621.011 Q64.9272 625.372 64.9272 633.011 Q64.9272 640.681 59.9619 645.042 Q54.9649 649.37 46.212 649.37 Q37.4273 649.37 32.4621 645.042 Q27.4968 640.681 27.4968 633.011 Z" fill="#000000" fill-rule="nonzero" fill-opacity="1" /><path clip-path="url(#clip390)" d="M29.7248 581.289 L35.1993 581.289 Q33.8307 583.772 33.1623 586.286 Q32.4621 588.769 32.4621 591.315 Q32.4621 597.012 36.0905 600.164 Q39.6872 603.315 46.212 603.315 Q52.7369 603.315 56.3653 600.164 Q59.9619 597.012 59.9619 591.315 Q59.9619 588.769 59.2935 586.286 Q58.5933 583.772 57.2247 581.289 L62.6355 581.289 Q63.7814 583.74 64.3543 586.382 Q64.9272 588.992 64.9272 591.952 Q64.9272 600.004 59.8664 604.747 Q54.8057 609.489 46.212 609.489 Q37.491 609.489 32.4939 604.715 Q27.4968 599.909 27.4968 591.57 Q27.4968 588.864 28.0697 586.286 Q28.6108 583.708 29.7248 581.289 Z" fill="#000000" fill-rule="nonzero" fill-opacity="1" /><path clip-path="url(#clip390)" d="M28.3562 571.104 L28.3562 565.248 L64.0042 565.248 L64.0042 571.104 L28.3562 571.104 M14.479 571.104 L14.479 565.248 L21.895 565.248 L21.895 571.104 L14.479 571.104 Z" fill="#000000" fill-rule="nonzero" fill-opacity="1" /><path clip-path="url(#clip390)" d="M18.2347 547.201 L28.3562 547.201 L28.3562 535.138 L32.9077 535.138 L32.9077 547.201 L52.2594 547.201 Q56.6199 547.201 57.8613 546.023 Q59.1026 544.814 59.1026 541.153 L59.1026 535.138 L64.0042 535.138 L64.0042 541.153 Q64.0042 547.933 61.4897 550.511 Q58.9434 553.089 52.2594 553.089 L32.9077 553.089 L32.9077 557.386 L28.3562 557.386 L28.3562 553.089 L18.2347 553.089 L18.2347 547.201 Z" fill="#000000" fill-rule="nonzero" fill-opacity="1" /><path clip-path="url(#clip390)" d="M67.3143 512.603 Q73.68 515.086 75.6216 517.441 Q77.5631 519.796 77.5631 523.743 L77.5631 528.422 L72.6615 528.422 L72.6615 524.985 Q72.6615 522.566 71.5157 521.229 Q70.3699 519.892 66.1048 518.269 L63.4312 517.218 L28.3562 531.637 L28.3562 525.43 L56.238 514.29 L28.3562 503.15 L28.3562 496.944 L67.3143 512.603 Z" fill="#000000" fill-rule="nonzero" fill-opacity="1" /><polyline clip-path="url(#clip392)" style="stroke:#009af9; stroke-linecap:round; stroke-linejoin:round; stroke-width:4; stroke-opacity:1; fill:none" points="316.512,680.898 320.466,681.521 324.42,682.874 328.374,684.94 332.328,687.689 336.281,691.085 340.235,695.081 344.189,699.623 348.143,704.649 352.097,710.091 356.051,715.875 360.005,721.922 363.959,728.149 367.912,734.473 371.866,740.807 375.82,747.064 379.774,753.16 383.728,759.012 387.682,764.54 391.636,769.669 395.59,774.329 399.543,778.457 403.497,781.997 407.451,784.9 411.405,787.126 415.359,788.647 419.313,789.44 423.267,789.496 427.221,788.812 431.174,787.4 435.128,785.277 439.082,782.474 443.036,779.027 446.99,774.984 450.944,770.4 454.898,765.337 458.851,759.864 462.805,754.055 466.759,747.991 470.713,741.752 474.667,735.424 478.621,729.094 482.575,722.846 486.529,716.767 490.482,710.939 494.436,705.44 498.39,700.347 502.344,695.728 506.298,691.647 510.252,688.158 514.206,685.309 518.16,683.139 522.113,681.678 526.067,680.945 530.021,680.95 533.975,681.693 537.929,683.165 541.883,685.344 545.837,688.202 549.791,691.7 553.744,695.789 557.698,700.415 561.652,705.514 565.606,711.018 569.56,716.85 573.514,722.932 577.468,729.181 581.421,735.513 585.375,741.84 589.329,748.076 593.283,754.138 597.237,759.942 601.191,765.41 605.145,770.467 609.099,775.044 613.052,779.079 617.006,782.517 620.96,785.312 624.914,787.425 628.868,788.827 632.822,789.5 636.776,789.434 640.73,788.63 644.683,787.1 648.637,784.864 652.591,781.952 656.545,778.404 660.499,774.268 664.453,769.601 668.407,764.466 672.361,758.933 676.314,753.077 680.268,746.978 684.222,740.719 688.176,734.385 692.13,728.062 696.084,721.836 700.038,715.792 703.992,710.013 707.945,704.576 711.899,699.556 715.853,695.021 719.807,691.033 723.761,687.646 727.715,684.906 731.669,682.85 735.622,681.507 739.576,680.895 743.53,681.021 747.484,681.885 751.438,683.474 755.392,685.767 759.346,688.733 763.3,692.331 767.253,696.512 771.207,701.22 775.161,706.391 779.115,711.953 783.069,717.832 787.023,723.947 790.977,730.216 794.931,736.552 798.884,742.87 802.838,749.084 806.792,755.109 810.746,760.864 814.7,766.269 818.654,771.252 822.608,775.744 826.562,779.685 830.515,783.02 834.469,785.706 838.423,787.704 842.377,788.988 846.331,789.54 850.285,789.353 854.239,788.429 858.192,786.781 862.146,784.432 866.1,781.413 870.054,777.765 874.008,773.538 877.962,768.79 881.916,763.584 885.87,757.993 889.823,752.092 893.777,745.961 897.731,739.683 901.685,733.345 905.639,727.032 909.593,720.831 913.547,714.825 917.501,709.096 921.454,703.723 925.408,698.778 929.362,694.329 933.316,690.435 937.27,687.151 941.224,684.521 945.178,682.581 949.132,681.356 953.085,680.865 957.039,681.112 960.993,682.096 964.947,683.802 968.901,686.208 972.855,689.28 976.809,692.978 980.763,697.249 984.716,702.038 988.67,707.277 992.624,712.897 996.578,718.82 1000.53,724.966 1004.49,731.252 1008.44,737.591 1012.39,743.898 1016.35,750.087 1020.3,756.073 1024.26,761.775 1028.21,767.116 1032.16,772.023 1036.12,776.429 1040.07,780.274 1044.02,783.506 1047.98,786.081 1051.93,787.964 1055.89,789.129 1059.84,789.56 1063.79,789.252 1067.75,788.208 1071.7,786.444 1075.66,783.982 1079.61,780.857 1083.56,777.11 1087.52,772.794 1091.47,767.966 1095.42,762.692 1099.38,757.045 1103.33,751.1 1107.29,744.94 1111.24,738.647 1115.19,732.307 1119.15,726.006 1123.1,719.831 1127.06,713.865 1131.01,708.189 1134.96,702.881 1138.92,698.013 1142.87,693.651 1146.83,689.854 1150.78,686.675 1154.73,684.155 1158.69,682.331 1162.64,681.225 1166.59,680.855 1170.55,681.223 1174.5,682.327 1178.46,684.149 1182.41,686.667 1186.36,689.845 1190.32,693.64 1194.27,698 1198.23,702.867 1202.18,708.174 1206.13,713.849 1210.09,719.814 1214.04,725.989 1217.99,732.289 1221.95,738.629 1225.9,744.923 1229.86,751.084 1233.81,757.029 1237.76,762.677 1241.72,767.952 1245.67,772.781 1249.63,777.099 1253.58,780.847 1257.53,783.974 1261.49,786.438 1265.44,788.204 1269.4,789.25 1273.35,789.56 1277.3,789.131 1281.26,787.968 1285.21,786.087 1289.16,783.514 1293.12,780.284 1297.07,776.44 1301.03,772.036 1304.98,767.13 1308.93,761.791 1312.89,756.089 1316.84,750.103 1320.8,743.915 1324.75,737.608 1328.7,731.269 1332.66,724.983 1336.61,718.837 1340.56,712.913 1344.52,707.292 1348.47,702.051 1352.43,697.262 1356.38,692.988 1360.33,689.29 1364.29,686.215 1368.24,683.808 1372.2,682.1 1376.15,681.114 1380.1,680.864 1384.06,681.354 1388.01,682.577 1391.97,684.515 1395.92,687.143 1399.87,690.426 1403.83,694.317 1407.78,698.765 1411.73,703.709 1415.69,709.081 1419.64,714.809 1423.6,720.814 1427.55,727.015 1431.5,733.328 1435.46,739.666 1439.41,745.944 1443.37,752.075 1447.32,757.977 1451.27,763.57 1455.23,768.776 1459.18,773.526 1463.13,777.754 1467.09,781.403 1471.04,784.424 1475,786.776 1478.95,788.425 1482.9,789.351 1486.86,789.54 1490.81,788.99 1494.77,787.708 1498.72,785.712 1502.67,783.029 1506.63,779.695 1510.58,775.755 1514.54,771.265 1518.49,766.283 1522.44,760.879 1526.4,755.125 1530.35,749.101 1534.3,742.887 1538.26,736.569 1542.21,730.233 1546.17,723.964 1550.12,717.848 1554.07,711.969 1558.03,706.405 1561.98,701.234 1565.94,696.524 1569.89,692.341 1573.84,688.742 1577.8,685.774 1581.75,683.479 1585.7,681.888 1589.66,681.022 1593.61,680.894 1597.57,681.505 1601.52,682.846 1605.47,684.899 1609.43,687.638 1613.38,691.023 1617.34,695.009 1621.29,699.543 1625.24,704.562 1629.2,709.997 1633.15,715.776 1637.11,721.819 1641.06,728.044 1645.01,734.367 1648.97,740.701 1652.92,746.961 1656.87,753.06 1660.83,758.917 1664.78,764.451 1668.74,769.587 1672.69,774.256 1676.64,778.393 1680.6,781.943 1684.55,784.857 1688.51,787.095 1692.46,788.627 1696.41,789.433 1700.37,789.501 1704.32,788.83 1708.27,787.429 1712.23,785.318 1716.18,782.526 1720.14,779.089 1724.09,775.056 1728.04,770.48 1732,765.425 1735.95,759.958 1739.91,754.154 1743.86,748.093 1747.81,741.857 1751.77,735.53 1755.72,729.199 1759.68,722.949 1763.63,716.866 1767.58,711.033 1771.54,705.529 1775.49,700.428 1779.44,695.801 1783.4,691.71 1787.35,688.211 1791.31,685.351 1795.26,683.17 1799.21,681.696 1803.17,680.951 1807.12,680.944 1811.08,681.675 1815.03,683.134 1818.98,685.302 1822.94,688.149 1826.89,691.636 1830.84,695.717 1834.8,700.334 1838.75,705.426 1842.71,710.923 1846.66,716.751 1850.61,722.829 1854.57,729.076 1858.52,735.407 1862.48,741.735 1866.43,747.974 1870.38,754.039 1874.34,759.848 1878.29,765.322 1882.25,770.386 1886.2,774.972 1890.15,779.017 1894.11,782.465 1898.06,785.271 1902.01,787.395 1905.97,788.809 1909.92,789.495 1913.88,789.441 1917.83,788.65 1921.78,787.131 1925.74,784.907 1929.69,782.005 1933.65,778.468 1937.6,774.341 1941.55,769.683 1945.51,764.555 1949.46,759.028 1953.41,753.177 1957.37,747.081 1961.32,740.824 1965.28,734.49 1969.23,728.166 1973.18,721.938 1977.14,715.891 1981.09,710.106 1985.05,704.663 1989,699.636 1992.95,695.092 1996.91,691.095 2000.86,687.697 2004.82,684.946 2008.77,682.879 2012.72,681.524 2016.68,680.899 2020.63,681.013 2024.58,681.864 2028.54,683.442 2032.49,685.723 2036.45,688.678 2040.4,692.266 2044.35,696.438 2048.31,701.138 2052.26,706.301 2056.22,711.858 2060.17,717.732 2064.12,723.844 2068.08,730.11 2072.03,736.446 2075.98,742.766 2079.94,748.982 2083.89,755.011 2087.85,760.77 2091.8,766.182 2095.75,771.172 2099.71,775.673 2103.66,779.624 2107.62,782.97 2111.57,785.666 2115.52,787.676 2119.48,788.972 2123.43,789.537 2127.39,789.362 2131.34,788.45 2135.29,786.814 2139.25,784.476 2143.2,781.468 2147.15,777.83 2151.11,773.613 2155.06,768.873 2159.02,763.674 2162.97,758.089 2166.92,752.192 2170.88,746.064 2174.83,739.789 2178.79,733.451 2182.74,727.137 2186.69,720.933 2190.65,714.923 2194.6,709.189 2198.55,703.809 2202.51,698.856 2206.46,694.398 2210.42,690.495 2214.37,687.201 2218.32,684.56 2222.28,682.607 2226.23,681.371 2230.19,680.867 2234.14,681.102 2238.09,682.074 2242.05,683.768 2246,686.162 2249.96,689.224 2253.91,692.911 2257.86,697.174 2261.82,701.954 2265.77,707.187 2269.72,712.801 2273.68,718.719 2277.63,724.862 2281.59,731.146 2285.54,737.485 2289.49,743.794 2293.45,749.985 "/>
<polyline clip-path="url(#clip392)" style="stroke:#e26f46; stroke-linecap:round; stroke-linejoin:round; stroke-width:4; stroke-opacity:1; fill:none" points="316.512,780.815 320.466,802.664 324.42,824.436 328.374,846.106 332.328,867.649 336.281,889.042 340.235,910.258 344.189,931.275 348.143,952.067 352.097,972.612 356.051,992.886 360.005,1012.87 363.959,1032.53 367.912,1051.85 371.866,1070.81 375.82,1089.39 379.774,1107.57 383.728,1125.32 387.682,1142.62 391.636,1159.46 395.59,1175.81 399.543,1191.66 403.497,1206.99 407.451,1221.78 411.405,1236.02 415.359,1249.68 419.313,1262.76 423.267,1275.23 427.221,1287.09 431.174,1298.32 435.128,1308.9 439.082,1318.83 443.036,1328.09 446.99,1336.68 450.944,1344.57 454.898,1351.78 458.851,1358.28 462.805,1364.06 466.759,1369.13 470.713,1373.48 474.667,1377.1 478.621,1379.98 482.575,1382.13 486.529,1383.54 490.482,1384.21 494.436,1384.13 498.39,1383.32 502.344,1381.77 506.298,1379.47 510.252,1376.45 514.206,1372.69 518.16,1368.2 522.113,1362.99 526.067,1357.06 530.021,1350.43 533.975,1343.09 537.929,1335.05 541.883,1326.34 545.837,1316.94 549.791,1306.88 553.744,1296.17 557.698,1284.82 561.652,1272.85 565.606,1260.25 569.56,1247.06 573.514,1233.28 577.468,1218.94 581.421,1204.04 585.375,1188.61 589.329,1172.66 593.283,1156.21 597.237,1139.28 601.191,1121.89 605.145,1104.05 609.099,1085.8 613.052,1067.14 617.006,1048.11 620.96,1028.72 624.914,1008.99 628.868,988.953 632.822,968.624 636.776,948.029 640.73,927.191 644.683,906.133 648.637,884.881 652.591,863.457 656.545,841.887 660.499,820.195 664.453,798.406 668.407,776.545 672.361,754.637 676.314,732.707 680.268,710.779 684.222,688.88 688.176,667.033 692.13,645.264 696.084,623.598 700.038,602.059 703.992,580.672 707.945,559.462 711.899,538.453 715.853,517.668 719.807,497.131 723.761,476.866 727.715,456.897 731.669,437.245 735.622,417.933 739.576,398.984 743.53,380.418 747.484,362.258 751.438,344.523 755.392,327.235 759.346,310.412 763.3,294.074 767.253,278.241 771.207,262.929 775.161,248.156 779.115,233.939 783.069,220.295 787.023,207.238 790.977,194.785 794.931,182.948 798.884,171.742 802.838,161.18 806.792,151.273 810.746,142.032 814.7,133.469 818.654,125.593 822.608,118.414 826.562,111.938 830.515,106.174 834.469,101.128 838.423,96.8068 842.377,93.214 846.331,90.3544 850.285,88.231 854.239,86.8464 858.192,86.2021 862.146,86.2989 866.1,87.1366 870.054,88.7143 874.008,91.0302 877.962,94.0816 881.916,97.865 885.87,102.376 889.823,107.61 893.777,113.56 897.731,120.221 901.685,127.583 905.639,135.639 909.593,144.38 913.547,153.796 917.501,163.875 921.454,174.607 925.408,185.978 929.362,197.977 933.316,210.59 937.27,223.801 941.224,237.597 945.178,251.96 949.132,266.875 953.085,282.325 957.039,298.293 960.993,314.759 964.947,331.705 968.901,349.112 972.855,366.959 976.809,385.228 980.763,403.895 984.716,422.941 988.67,442.344 992.624,462.081 996.578,482.13 1000.53,502.468 1004.49,523.072 1008.44,543.918 1012.39,564.982 1016.35,586.241 1020.3,607.669 1024.26,629.244 1028.21,650.939 1032.16,672.731 1036.12,694.594 1040.07,716.503 1044.02,738.434 1047.98,760.361 1051.93,782.259 1055.89,804.104 1059.84,825.87 1063.79,847.532 1067.75,869.066 1071.7,890.447 1075.66,911.651 1079.61,932.654 1083.56,953.431 1087.52,973.959 1091.47,994.214 1095.42,1014.17 1099.38,1033.81 1103.33,1053.11 1107.29,1072.05 1111.24,1090.6 1115.19,1108.75 1119.15,1126.47 1123.1,1143.74 1127.06,1160.55 1131.01,1176.87 1134.96,1192.69 1138.92,1207.98 1142.87,1222.74 1146.83,1236.94 1150.78,1250.56 1154.73,1263.6 1158.69,1276.03 1162.64,1287.85 1166.59,1299.03 1170.55,1309.57 1174.5,1319.46 1178.46,1328.68 1182.41,1337.22 1186.36,1345.07 1190.32,1352.23 1194.27,1358.68 1198.23,1364.42 1202.18,1369.44 1206.13,1373.74 1210.09,1377.31 1214.04,1380.14 1217.99,1382.24 1221.95,1383.6 1225.9,1384.22 1229.86,1384.1 1233.81,1383.24 1237.76,1381.64 1241.72,1379.3 1245.67,1376.22 1249.63,1372.41 1253.58,1367.88 1257.53,1362.62 1261.49,1356.65 1265.44,1349.96 1269.4,1342.58 1273.35,1334.5 1277.3,1325.74 1281.26,1316.3 1285.21,1306.2 1289.16,1295.45 1293.12,1284.05 1297.07,1272.03 1301.03,1259.4 1304.98,1246.17 1308.93,1232.36 1312.89,1217.97 1316.84,1203.04 1320.8,1187.57 1324.75,1171.59 1328.7,1155.11 1332.66,1138.15 1336.61,1120.72 1340.56,1102.86 1344.52,1084.58 1348.47,1065.9 1352.43,1046.84 1356.38,1027.43 1360.33,1007.68 1364.29,987.62 1368.24,967.273 1372.2,946.661 1376.15,925.808 1380.1,904.736 1384.06,883.472 1388.01,862.038 1391.97,840.459 1395.92,818.76 1399.87,796.966 1403.83,775.101 1407.78,753.19 1411.73,731.259 1415.69,709.333 1419.64,687.436 1423.6,665.594 1427.55,643.831 1431.5,622.172 1435.46,600.643 1439.41,579.267 1443.37,558.069 1447.32,537.074 1451.27,516.304 1455.23,495.785 1459.18,475.539 1463.13,455.59 1467.09,435.96 1471.04,416.671 1475,397.746 1478.95,379.207 1482.9,361.074 1486.86,343.368 1490.81,326.11 1494.77,309.319 1498.72,293.014 1502.67,277.214 1506.63,261.937 1510.58,247.2 1514.54,233.021 1518.49,219.415 1522.44,206.398 1526.4,193.984 1530.35,182.189 1534.3,171.025 1538.26,160.506 1542.21,150.642 1546.17,141.446 1550.12,132.928 1554.07,125.098 1558.03,117.964 1561.98,111.536 1565.94,105.819 1569.89,100.821 1573.84,96.5472 1577.8,93.0027 1581.75,90.1915 1585.7,88.1169 1589.66,86.7811 1593.61,86.1857 1597.57,86.3313 1601.52,87.2179 1605.47,88.8444 1609.43,91.2089 1613.38,94.3087 1617.34,98.1404 1621.29,102.699 1625.24,107.981 1629.2,113.978 1633.15,120.685 1637.11,128.093 1641.06,136.195 1645.01,144.981 1648.97,154.44 1652.92,164.563 1656.87,175.338 1660.83,186.751 1664.78,198.791 1668.74,211.443 1672.69,224.694 1676.64,238.527 1680.6,252.927 1684.55,267.879 1688.51,283.363 1692.46,299.364 1696.41,315.862 1700.37,332.839 1704.32,350.276 1708.27,368.152 1712.23,386.447 1716.18,405.141 1720.14,424.211 1724.09,443.637 1728.04,463.395 1732,483.464 1735.95,503.82 1739.91,524.44 1743.86,545.301 1747.81,566.379 1751.77,587.65 1755.72,609.089 1759.68,630.672 1763.63,652.375 1767.58,674.172 1771.54,696.038 1775.49,717.95 1779.44,739.881 1783.4,761.807 1787.35,783.703 1791.31,805.543 1795.26,827.303 1799.21,848.957 1803.17,870.482 1807.12,891.852 1811.08,913.044 1815.03,934.032 1818.98,954.794 1822.94,975.304 1826.89,995.541 1830.84,1015.48 1834.8,1035.1 1838.75,1054.38 1842.71,1073.29 1846.66,1091.81 1850.61,1109.93 1854.57,1127.63 1858.52,1144.87 1862.48,1161.64 1866.43,1177.93 1870.38,1193.72 1874.34,1208.98 1878.29,1223.69 1882.25,1237.85 1886.2,1251.44 1890.15,1264.44 1894.11,1276.83 1898.06,1288.61 1902.01,1299.75 1905.97,1310.25 1909.92,1320.09 1913.88,1329.26 1917.83,1337.76 1921.78,1345.57 1925.74,1352.68 1929.69,1359.08 1933.65,1364.77 1937.6,1369.75 1941.55,1374 1945.51,1377.52 1949.46,1380.31 1953.41,1382.36 1957.37,1383.67 1961.32,1384.24 1965.28,1384.07 1969.23,1383.16 1973.18,1381.51 1977.14,1379.12 1981.09,1375.99 1985.05,1372.14 1989,1367.55 1992.95,1362.25 1996.91,1356.23 2000.86,1349.5 2004.82,1342.07 2008.77,1333.94 2012.72,1325.13 2016.68,1315.65 2020.63,1305.51 2024.58,1294.71 2028.54,1283.28 2032.49,1271.22 2036.45,1258.55 2040.4,1245.28 2044.35,1231.42 2048.31,1217 2052.26,1202.04 2056.22,1186.53 2060.17,1170.52 2064.12,1154 2068.08,1137.01 2072.03,1119.56 2075.98,1101.67 2079.94,1083.36 2083.89,1064.65 2087.85,1045.57 2091.8,1026.13 2095.75,1006.36 2099.71,986.286 2103.66,965.921 2107.62,945.292 2111.57,924.424 2115.52,903.339 2119.48,882.062 2123.43,860.618 2127.39,839.031 2131.34,817.325 2135.29,795.525 2139.25,773.656 2143.2,751.744 2147.15,729.812 2151.11,707.887 2155.06,685.993 2159.02,664.155 2162.97,642.398 2166.92,620.747 2170.88,599.227 2174.83,577.862 2178.79,556.677 2182.74,535.696 2186.69,514.942 2190.65,494.44 2194.6,474.213 2198.55,454.284 2202.51,434.676 2206.46,415.411 2210.42,396.511 2214.37,377.998 2218.32,359.892 2222.28,342.215 2226.23,324.987 2230.19,308.228 2234.14,291.955 2238.09,276.189 2242.05,260.948 2246,246.247 2249.96,232.105 2253.91,218.537 2257.86,205.56 2261.82,193.187 2265.77,181.433 2269.72,170.311 2273.68,159.834 2277.63,150.015 2281.59,140.863 2285.54,132.39 2289.49,124.606 2293.45,117.518 "/>
<polyline clip-path="url(#clip392)" style="stroke:#3da44d; stroke-linecap:round; stroke-linejoin:round; stroke-width:4; stroke-opacity:1; fill:none" points="316.512,737.742 320.466,745.089 324.42,752.301 328.374,759.281 332.328,765.934 336.281,772.168 340.235,777.9 344.189,783.05 348.143,787.55 352.097,791.338 356.051,794.361 360.005,796.581 363.959,797.965 367.912,798.495 371.866,798.164 375.82,796.977 379.774,794.949 383.728,792.108 387.682,788.494 391.636,784.154 395.59,779.148 399.543,773.545 403.497,767.42 407.451,760.857 411.405,753.944 415.359,746.777 419.313,739.453 423.267,732.07 427.221,724.731 431.174,717.534 435.128,710.577 439.082,703.955 443.036,697.759 446.99,692.072 450.944,686.973 454.898,682.529 458.851,678.802 462.805,675.843 466.759,673.691 470.713,672.377 474.667,671.917 478.621,672.318 482.575,673.575 486.529,675.671 490.482,678.576 494.436,682.252 498.39,686.649 502.344,691.706 506.298,697.355 510.252,703.52 514.206,710.115 518.16,717.052 522.113,724.235 526.067,731.568 530.021,738.951 533.975,746.283 537.929,753.464 541.883,760.396 545.837,766.986 549.791,773.144 553.744,778.785 557.698,783.834 561.652,788.221 565.606,791.887 569.56,794.781 573.514,796.865 577.468,798.11 581.421,798.5 585.375,798.028 589.329,796.701 593.283,794.538 597.237,791.568 601.191,787.831 605.145,783.378 609.099,778.269 613.052,772.575 617.006,766.372 620.96,759.745 624.914,752.785 628.868,745.585 632.822,738.244 636.776,730.862 640.73,723.539 644.683,716.374 648.637,709.466 652.591,702.909 656.545,696.79 660.499,691.195 664.453,686.198 668.407,681.868 672.361,678.263 676.314,675.434 680.268,673.418 684.222,672.242 688.176,671.923 692.13,672.466 696.084,673.862 700.038,676.092 703.992,679.127 707.945,682.925 711.899,687.434 715.853,692.593 719.807,698.332 723.761,704.573 727.715,711.231 731.669,718.215 735.622,725.43 739.576,732.778 743.53,740.159 747.484,747.473 751.438,754.62 755.392,761.502 759.346,768.027 763.3,774.106 767.253,779.655 771.207,784.6 775.161,788.873 779.115,792.415 783.069,795.179 787.023,797.127 790.977,798.233 794.931,798.481 798.884,797.869 802.838,796.404 806.792,794.106 810.746,791.007 814.7,787.148 818.654,782.584 822.608,777.374 826.562,771.591 830.515,765.313 834.469,758.625 838.423,751.618 842.377,744.389 846.331,737.034 850.285,729.655 854.239,722.351 858.192,715.222 862.146,708.365 866.1,701.873 870.054,695.835 874.008,690.333 877.962,685.441 881.916,681.226 885.87,677.746 889.823,675.047 893.777,673.167 897.731,672.131 901.685,671.953 905.639,672.636 909.593,674.171 913.547,676.535 917.501,679.698 921.454,683.617 925.408,688.237 929.362,693.496 933.316,699.323 937.27,705.638 941.224,712.355 945.178,719.384 949.132,726.627 953.085,733.988 957.039,741.365 960.993,748.658 964.947,755.768 968.901,762.599 972.855,769.057 976.809,775.054 980.763,780.509 984.716,785.348 988.67,789.505 992.624,792.923 996.578,795.555 1000.53,797.367 1004.49,798.333 1008.44,798.44 1012.39,797.687 1016.35,796.083 1020.3,793.652 1024.26,790.425 1028.21,786.447 1032.16,781.772 1036.12,776.464 1040.07,770.594 1044.02,764.242 1047.98,757.496 1051.93,750.446 1055.89,743.189 1059.84,735.824 1063.79,728.45 1067.75,721.168 1071.7,714.077 1075.66,707.274 1079.61,700.85 1083.56,694.895 1087.52,689.487 1091.47,684.702 1095.42,680.604 1099.38,677.249 1103.33,674.682 1107.29,672.939 1111.24,672.043 1115.19,672.006 1119.15,672.83 1123.1,674.502 1127.06,677 1131.01,680.29 1134.96,684.327 1138.92,689.057 1142.87,694.414 1146.83,700.327 1150.78,706.714 1154.73,713.489 1158.69,720.559 1162.64,727.828 1166.59,735.198 1170.55,742.568 1174.5,749.838 1178.46,756.909 1182.41,763.685 1186.36,770.073 1190.32,775.987 1194.27,781.346 1198.23,786.078 1202.18,790.117 1206.13,793.409 1210.09,795.909 1214.04,797.584 1217.99,798.409 1221.95,798.375 1225.9,797.482 1229.86,795.741 1233.81,793.176 1237.76,789.823 1241.72,785.727 1245.67,780.944 1249.63,775.538 1253.58,769.583 1257.53,763.161 1261.49,756.359 1265.44,749.269 1269.4,741.987 1273.35,734.613 1277.3,727.248 1281.26,719.99 1285.21,712.94 1289.16,706.193 1293.12,699.84 1297.07,693.969 1301.03,688.658 1304.98,683.982 1308.93,680.002 1312.89,676.773 1316.84,674.339 1320.8,672.734 1324.75,671.978 1328.7,672.083 1332.66,673.046 1336.61,674.856 1340.56,677.486 1344.52,680.902 1348.47,685.057 1352.43,689.894 1356.38,695.347 1360.33,701.343 1364.29,707.8 1368.24,714.63 1372.2,721.739 1376.15,729.032 1380.1,736.409 1384.06,743.769 1388.01,751.014 1391.97,758.043 1395.92,764.761 1399.87,771.077 1403.83,776.905 1407.78,782.166 1411.73,786.789 1415.69,790.709 1419.64,793.874 1423.6,796.241 1427.55,797.778 1431.5,798.463 1435.46,798.287 1439.41,797.254 1443.37,795.376 1447.32,792.68 1451.27,789.202 1455.23,784.989 1459.18,780.099 1463.13,774.598 1467.09,768.561 1471.04,762.07 1475,755.214 1478.95,748.086 1482.9,740.782 1486.86,733.403 1490.81,726.048 1494.77,718.818 1498.72,711.811 1502.67,705.122 1506.63,698.843 1510.58,693.058 1514.54,687.847 1518.49,683.28 1522.44,679.42 1526.4,676.318 1530.35,674.018 1534.3,672.551 1538.26,671.936 1542.21,672.182 1546.17,673.285 1550.12,675.231 1554.07,677.993 1558.03,681.534 1561.98,685.804 1565.94,690.747 1569.89,696.295 1573.84,702.372 1577.8,708.896 1581.75,715.778 1585.7,722.924 1589.66,730.238 1593.61,737.619 1597.57,744.967 1601.52,752.183 1605.47,759.167 1609.43,765.826 1613.38,772.068 1617.34,777.809 1621.29,782.97 1625.24,787.481 1629.2,791.281 1633.15,794.318 1637.11,796.55 1641.06,797.949 1645.01,798.493 1648.97,798.177 1652.92,797.004 1656.87,794.99 1660.83,792.162 1664.78,788.56 1668.74,784.232 1672.69,779.237 1676.64,773.643 1680.6,767.526 1684.55,760.969 1688.51,754.062 1692.46,746.898 1696.41,739.575 1700.37,732.193 1704.32,724.852 1708.27,717.652 1712.23,710.69 1716.18,704.063 1720.14,697.858 1724.09,692.163 1728.04,687.052 1732,682.597 1735.95,678.858 1739.91,675.886 1743.86,673.72 1747.81,672.391 1751.77,671.917 1755.72,672.304 1759.68,673.547 1763.63,675.629 1767.58,678.521 1771.54,682.185 1775.49,686.57 1779.44,691.617 1783.4,697.257 1787.35,703.413 1791.31,710.002 1795.26,716.934 1799.21,724.114 1803.17,731.446 1807.12,738.828 1811.08,746.162 1815.03,753.346 1818.98,760.284 1822.94,766.88 1826.89,773.045 1830.84,778.696 1834.8,783.755 1838.75,788.154 1842.71,791.832 1846.66,794.74 1850.61,796.837 1854.57,798.097 1858.52,798.5 1862.48,798.043 1866.43,796.73 1870.38,794.581 1874.34,791.624 1878.29,787.899 1882.25,783.457 1886.2,778.359 1890.15,772.674 1894.11,766.479 1898.06,759.859 1902.01,752.903 1905.97,745.706 1909.92,738.367 1913.88,730.985 1917.83,723.66 1921.78,716.492 1925.74,709.579 1929.69,703.014 1933.65,696.888 1937.6,691.283 1941.55,686.276 1945.51,681.934 1949.46,678.317 1953.41,675.475 1957.37,673.445 1961.32,672.255 1965.28,671.922 1969.23,672.45 1973.18,673.831 1977.14,676.048 1981.09,679.07 1985.05,682.856 1989,687.354 1992.95,692.502 1996.91,698.232 2000.86,704.466 2004.82,711.117 2008.77,718.096 2012.72,725.308 2016.68,732.655 2020.63,740.036 2024.58,747.352 2028.54,754.502 2032.49,761.39 2036.45,767.922 2040.4,774.009 2044.35,779.568 2048.31,784.523 2052.26,788.807 2056.22,792.362 2060.17,795.14 2064.12,797.102 2068.08,798.222 2072.03,798.484 2075.98,797.886 2079.94,796.435 2083.89,794.151 2087.85,791.065 2091.8,787.219 2095.75,782.665 2099.71,777.466 2103.66,771.691 2107.62,765.421 2111.57,758.739 2115.52,751.737 2119.48,744.511 2123.43,737.157 2127.39,729.777 2131.34,722.472 2135.29,715.339 2139.25,708.477 2143.2,701.978 2147.15,695.932 2151.11,690.42 2155.06,685.517 2159.02,681.29 2162.97,677.797 2166.92,675.085 2170.88,673.191 2174.83,672.141 2178.79,671.949 2182.74,672.618 2186.69,674.138 2190.65,676.489 2194.6,679.639 2198.55,683.546 2202.51,688.155 2206.46,693.404 2210.42,699.222 2214.37,705.529 2218.32,712.241 2222.28,719.265 2226.23,726.506 2230.19,733.865 2234.14,741.242 2238.09,748.538 2242.05,755.652 2246,762.488 2249.96,768.953 2253.91,774.958 2257.86,780.423 2261.82,785.273 2265.77,789.441 2269.72,792.872 2273.68,795.518 2277.63,797.344 2281.59,798.324 2285.54,798.445 2289.49,797.706 2293.45,796.117 "/>
<polyline clip-path="url(#clip392)" style="stroke:#c271d2; stroke-linecap:round; stroke-linejoin:round; stroke-width:4; stroke-opacity:1; fill:none" points="316.512,953.958 320.466,953.312 324.42,952.418 328.374,951.275 332.328,949.886 336.281,948.251 340.235,946.374 344.189,944.255 348.143,941.898 352.097,939.304 356.051,936.478 360.005,933.421 363.959,930.139 367.912,926.633 371.866,922.91 375.82,918.972 379.774,914.824 383.728,910.471 387.682,905.917 391.636,901.169 395.59,896.232 399.543,891.11 403.497,885.811 407.451,880.34 411.405,874.703 415.359,868.906 419.313,862.957 423.267,856.862 427.221,850.628 431.174,844.263 435.128,837.773 439.082,831.165 443.036,824.449 446.99,817.63 450.944,810.717 454.898,803.718 458.851,796.641 462.805,789.493 466.759,782.284 470.713,775.021 474.667,767.712 478.621,760.366 482.575,752.992 486.529,745.597 490.482,738.191 494.436,730.781 498.39,723.376 502.344,715.984 506.298,708.615 510.252,701.276 514.206,693.975 518.16,686.722 522.113,679.524 526.067,672.39 530.021,665.327 533.975,658.344 537.929,651.449 541.883,644.65 545.837,637.954 549.791,631.369 553.744,624.902 557.698,618.562 561.652,612.354 565.606,606.287 569.56,600.368 573.514,594.602 577.468,588.997 581.421,583.558 585.375,578.293 589.329,573.207 593.283,568.306 597.237,563.596 601.191,559.081 605.145,554.768 609.099,550.66 613.052,546.764 617.006,543.082 620.96,539.62 624.914,536.381 628.868,533.37 632.822,530.588 636.776,528.041 640.73,525.73 644.683,523.658 648.637,521.827 652.591,520.241 656.545,518.9 660.499,517.805 664.453,516.959 668.407,516.362 672.361,516.016 676.314,515.919 680.268,516.073 684.222,516.477 688.176,517.13 692.13,518.033 696.084,519.184 700.038,520.581 703.992,522.224 707.945,524.109 711.899,526.236 715.853,528.601 719.807,531.202 723.761,534.036 727.715,537.1 731.669,540.39 735.622,543.903 739.576,547.634 743.53,551.579 747.484,555.734 751.438,560.093 755.392,564.653 759.346,569.407 763.3,574.351 767.253,579.479 771.207,584.784 775.161,590.261 779.115,595.903 783.069,601.705 787.023,607.659 790.977,613.758 794.931,619.997 798.884,626.366 802.838,632.861 806.792,639.472 810.746,646.192 814.7,653.014 818.654,659.93 822.608,666.931 826.562,674.011 830.515,681.161 834.469,688.372 838.423,695.637 842.377,702.947 846.331,710.293 850.285,717.669 854.239,725.064 858.192,732.471 862.146,739.881 866.1,747.285 870.054,754.676 874.008,762.045 877.962,769.383 881.916,776.682 885.87,783.933 889.823,791.129 893.777,798.262 897.731,805.322 901.685,812.302 905.639,819.194 909.593,825.99 913.547,832.682 917.501,839.264 921.454,845.726 925.408,852.062 929.362,858.265 933.316,864.327 937.27,870.242 941.224,876.003 945.178,881.603 949.132,887.035 953.085,892.295 957.039,897.375 960.993,902.269 964.947,906.973 968.901,911.481 972.855,915.788 976.809,919.889 980.763,923.778 984.716,927.452 988.67,930.907 992.624,934.139 996.578,937.143 1000.53,939.916 1004.49,942.456 1008.44,944.759 1012.39,946.823 1016.35,948.646 1020.3,950.224 1024.26,951.557 1028.21,952.644 1032.16,953.481 1036.12,954.07 1040.07,954.409 1044.02,954.497 1047.98,954.335 1051.93,953.923 1055.89,953.261 1059.84,952.35 1063.79,951.191 1067.75,949.785 1071.7,948.135 1075.66,946.241 1079.61,944.107 1083.56,941.734 1087.52,939.125 1091.47,936.283 1095.42,933.212 1099.38,929.914 1103.33,926.394 1107.29,922.656 1111.24,918.704 1115.19,914.543 1119.15,910.176 1123.1,905.61 1127.06,900.849 1131.01,895.9 1134.96,890.766 1138.92,885.455 1142.87,879.973 1146.83,874.325 1150.78,868.518 1154.73,862.559 1158.69,856.455 1162.64,850.212 1166.59,843.838 1170.55,837.34 1174.5,830.725 1178.46,824.002 1182.41,817.176 1186.36,810.258 1190.32,803.253 1194.27,796.171 1198.23,789.019 1202.18,781.806 1206.13,774.54 1210.09,767.228 1214.04,759.881 1217.99,752.505 1221.95,745.109 1225.9,737.702 1229.86,730.292 1233.81,722.887 1237.76,715.497 1241.72,708.129 1245.67,700.793 1249.63,693.495 1253.58,686.245 1257.53,679.051 1261.49,671.921 1265.44,664.864 1269.4,657.886 1273.35,650.997 1277.3,644.204 1281.26,637.515 1285.21,630.938 1289.16,624.48 1293.12,618.148 1297.07,611.95 1301.03,605.892 1304.98,599.982 1308.93,594.227 1312.89,588.632 1316.84,583.205 1320.8,577.952 1324.75,572.878 1328.7,567.989 1332.66,563.292 1336.61,558.79 1340.56,554.49 1344.52,550.397 1348.47,546.514 1352.43,542.847 1356.38,539.399 1360.33,536.176 1364.29,533.179 1368.24,530.413 1372.2,527.881 1376.15,525.586 1380.1,523.53 1384.06,521.715 1388.01,520.145 1391.97,518.82 1395.92,517.742 1399.87,516.912 1403.83,516.332 1407.78,516.001 1411.73,515.921 1415.69,516.092 1419.64,516.512 1423.6,517.182 1427.55,518.101 1431.5,519.268 1435.46,520.682 1439.41,522.341 1443.37,524.242 1447.32,526.385 1451.27,528.766 1455.23,531.382 1459.18,534.232 1463.13,537.31 1467.09,540.615 1471.04,544.142 1475,547.888 1478.95,551.847 1482.9,556.015 1486.86,560.388 1490.81,564.961 1494.77,569.728 1498.72,574.684 1502.67,579.823 1506.63,585.14 1510.58,590.628 1514.54,596.281 1518.49,602.093 1522.44,608.057 1526.4,614.166 1530.35,620.413 1534.3,626.791 1538.26,633.293 1542.21,639.912 1546.17,646.639 1550.12,653.467 1554.07,660.389 1558.03,667.396 1561.98,674.481 1565.94,681.635 1569.89,688.85 1573.84,696.118 1577.8,703.43 1581.75,710.779 1585.7,718.156 1589.66,725.552 1593.61,732.96 1597.57,740.37 1601.52,747.774 1605.47,755.163 1609.43,762.53 1613.38,769.866 1617.34,777.162 1621.29,784.41 1625.24,791.602 1629.2,798.73 1633.15,805.785 1637.11,812.759 1641.06,819.645 1645.01,826.435 1648.97,833.12 1652.92,839.694 1656.87,846.148 1660.83,852.476 1664.78,858.669 1668.74,864.722 1672.69,870.627 1676.64,876.377 1680.6,881.966 1684.55,887.388 1688.51,892.635 1692.46,897.703 1696.41,902.586 1700.37,907.277 1704.32,911.772 1708.27,916.065 1712.23,920.152 1716.18,924.027 1720.14,927.687 1724.09,931.127 1728.04,934.344 1732,937.333 1735.95,940.091 1739.91,942.616 1743.86,944.903 1747.81,946.951 1751.77,948.757 1755.72,950.32 1759.68,951.637 1763.63,952.706 1767.58,953.528 1771.54,954.1 1775.49,954.422 1779.44,954.494 1783.4,954.315 1787.35,953.887 1791.31,953.208 1795.26,952.281 1799.21,951.106 1803.17,949.684 1807.12,948.017 1811.08,946.108 1815.03,943.957 1818.98,941.569 1822.94,938.944 1826.89,936.087 1830.84,933.001 1834.8,929.689 1838.75,926.154 1842.71,922.402 1846.66,918.436 1850.61,914.261 1854.57,909.881 1858.52,905.302 1862.48,900.529 1866.43,895.566 1870.38,890.421 1874.34,885.099 1878.29,879.605 1882.25,873.946 1886.2,868.13 1890.15,862.161 1894.11,856.047 1898.06,849.796 1902.01,843.413 1905.97,836.907 1909.92,830.285 1913.88,823.554 1917.83,816.723 1921.78,809.798 1925.74,802.788 1929.69,795.701 1933.65,788.545 1937.6,781.328 1941.55,774.059 1945.51,766.745 1949.46,759.395 1953.41,752.017 1957.37,744.62 1961.32,737.213 1965.28,729.803 1969.23,722.399 1973.18,715.01 1977.14,707.644 1981.09,700.31 1985.05,693.015 1989,685.769 1992.95,678.578 1996.91,671.453 2000.86,664.401 2004.82,657.429 2008.77,650.546 2012.72,643.76 2016.68,637.078 2020.63,630.508 2024.58,624.058 2028.54,617.735 2032.49,611.545 2036.45,605.498 2040.4,599.598 2044.35,593.853 2048.31,588.269 2052.26,582.853 2056.22,577.611 2060.17,572.549 2064.12,567.673 2068.08,562.988 2072.03,558.5 2075.98,554.214 2079.94,550.134 2083.89,546.265 2087.85,542.613 2091.8,539.18 2095.75,535.971 2099.71,532.989 2103.66,530.239 2107.62,527.722 2111.57,525.442 2115.52,523.402 2119.48,521.604 2123.43,520.05 2127.39,518.741 2131.34,517.679 2135.29,516.866 2139.25,516.302 2143.2,515.988 2147.15,515.925 2151.11,516.112 2155.06,516.549 2159.02,517.235 2162.97,518.171 2166.92,519.354 2170.88,520.784 2174.83,522.459 2178.79,524.376 2182.74,526.534 2186.69,528.931 2190.65,531.563 2194.6,534.428 2198.55,537.522 2202.51,540.841 2206.46,544.383 2210.42,548.142 2214.37,552.115 2218.32,556.297 2222.28,560.684 2226.23,565.269 2230.19,570.049 2234.14,575.017 2238.09,580.169 2242.05,585.497 2246,590.996 2249.96,596.66 2253.91,602.482 2257.86,608.456 2261.82,614.574 2265.77,620.83 2269.72,627.217 2273.68,633.727 2277.63,640.352 2281.59,647.087 2285.54,653.921 2289.49,660.849 2293.45,667.861 "/>
</svg>
