<?xml version="1.0" encoding="utf-8"?>
<svg xmlns="http://www.w3.org/2000/svg" xmlns:xlink="http://www.w3.org/1999/xlink" width="600" height="400" viewBox="0 0 2400 1600">
<defs>
  <clipPath id="clip390">
    <rect x="0" y="0" width="2400" height="1600"/>
  </clipPath>
</defs>
<path clip-path="url(#clip390)" d="M0 1600 L2400 1600 L2400 0 L0 0  Z" fill="#ffffff" fill-rule="evenodd" fill-opacity="1"/>
<defs>
  <clipPath id="clip391">
    <rect x="480" y="0" width="1681" height="1600"/>
  </clipPath>
</defs>
<path clip-path="url(#clip390)" d="M249.542 1423.18 L2352.76 1423.18 L2352.76 47.2441 L249.542 47.2441  Z" fill="#ffffff" fill-rule="evenodd" fill-opacity="1"/>
<defs>
  <clipPath id="clip392">
    <rect x="249" y="47" width="2104" height="1377"/>
  </clipPath>
</defs>
<polyline clip-path="url(#clip392)" style="stroke:#000000; stroke-linecap:round; stroke-linejoin:round; stroke-width:2; stroke-opacity:0.1; fill:none" points="309.067,1423.18 309.067,47.2441 "/>
<polyline clip-path="url(#clip392)" style="stroke:#000000; stroke-linecap:round; stroke-linejoin:round; stroke-width:2; stroke-opacity:0.1; fill:none" points="970.455,1423.18 970.455,47.2441 "/>
<polyline clip-path="url(#clip392)" style="stroke:#000000; stroke-linecap:round; stroke-linejoin:round; stroke-width:2; stroke-opacity:0.1; fill:none" points="1631.84,1423.18 1631.84,47.2441 "/>
<polyline clip-path="url(#clip392)" style="stroke:#000000; stroke-linecap:round; stroke-linejoin:round; stroke-width:2; stroke-opacity:0.1; fill:none" points="2293.23,1423.18 2293.23,47.2441 "/>
<polyline clip-path="url(#clip390)" style="stroke:#000000; stroke-linecap:round; stroke-linejoin:round; stroke-width:4; stroke-opacity:1; fill:none" points="249.542,1423.18 2352.76,1423.18 "/>
<polyline clip-path="url(#clip390)" style="stroke:#000000; stroke-linecap:round; stroke-linejoin:round; stroke-width:4; stroke-opacity:1; fill:none" points="309.067,1423.18 309.067,1404.28 "/>
<polyline clip-path="url(#clip390)" style="stroke:#000000; stroke-linecap:round; stroke-linejoin:round; stroke-width:4; stroke-opacity:1; fill:none" points="970.455,1423.18 970.455,1404.28 "/>
<polyline clip-path="url(#clip390)" style="stroke:#000000; stroke-linecap:round; stroke-linejoin:round; stroke-width:4; stroke-opacity:1; fill:none" points="1631.84,1423.18 1631.84,1404.28 "/>
<polyline clip-path="url(#clip390)" style="stroke:#000000; stroke-linecap:round; stroke-linejoin:round; stroke-width:4; stroke-opacity:1; fill:none" points="2293.23,1423.18 2293.23,1404.28 "/>
<path clip-path="url(#clip390)" d="M309.067 1454.1 Q305.456 1454.1 303.627 1457.66 Q301.822 1461.2 301.822 1468.33 Q301.822 1475.44 303.627 1479.01 Q305.456 1482.55 309.067 1482.55 Q312.701 1482.55 314.507 1479.01 Q316.335 1475.44 316.335 1468.33 Q316.335 1461.2 314.507 1457.66 Q312.701 1454.1 309.067 1454.1 M309.067 1450.39 Q314.877 1450.39 317.933 1455 Q321.011 1459.58 321.011 1468.33 Q321.011 1477.06 317.933 1481.67 Q314.877 1486.25 309.067 1486.25 Q303.257 1486.25 300.178 1481.67 Q297.123 1477.06 297.123 1468.33 Q297.123 1459.58 300.178 1455 Q303.257 1450.39 309.067 1450.39 Z" fill="#000000" fill-rule="nonzero" fill-opacity="1" /><path clip-path="url(#clip390)" d="M914.981 1481.64 L922.62 1481.64 L922.62 1455.28 L914.309 1456.95 L914.309 1452.69 L922.573 1451.02 L927.249 1451.02 L927.249 1481.64 L934.888 1481.64 L934.888 1485.58 L914.981 1485.58 L914.981 1481.64 Z" fill="#000000" fill-rule="nonzero" fill-opacity="1" /><path clip-path="url(#clip390)" d="M954.332 1454.1 Q950.721 1454.1 948.893 1457.66 Q947.087 1461.2 947.087 1468.33 Q947.087 1475.44 948.893 1479.01 Q950.721 1482.55 954.332 1482.55 Q957.967 1482.55 959.772 1479.01 Q961.601 1475.44 961.601 1468.33 Q961.601 1461.2 959.772 1457.66 Q957.967 1454.1 954.332 1454.1 M954.332 1450.39 Q960.143 1450.39 963.198 1455 Q966.277 1459.58 966.277 1468.33 Q966.277 1477.06 963.198 1481.67 Q960.143 1486.25 954.332 1486.25 Q948.522 1486.25 945.444 1481.67 Q942.388 1477.06 942.388 1468.33 Q942.388 1459.58 945.444 1455 Q948.522 1450.39 954.332 1450.39 Z" fill="#000000" fill-rule="nonzero" fill-opacity="1" /><path clip-path="url(#clip390)" d="M984.494 1454.1 Q980.883 1454.1 979.054 1457.66 Q977.249 1461.2 977.249 1468.33 Q977.249 1475.44 979.054 1479.01 Q980.883 1482.55 984.494 1482.55 Q988.128 1482.55 989.934 1479.01 Q991.763 1475.44 991.763 1468.33 Q991.763 1461.2 989.934 1457.66 Q988.128 1454.1 984.494 1454.1 M984.494 1450.39 Q990.304 1450.39 993.36 1455 Q996.439 1459.58 996.439 1468.33 Q996.439 1477.06 993.36 1481.67 Q990.304 1486.25 984.494 1486.25 Q978.684 1486.25 975.605 1481.67 Q972.55 1477.06 972.55 1468.33 Q972.55 1459.58 975.605 1455 Q978.684 1450.39 984.494 1450.39 Z" fill="#000000" fill-rule="nonzero" fill-opacity="1" /><path clip-path="url(#clip390)" d="M1014.66 1454.1 Q1011.05 1454.1 1009.22 1457.66 Q1007.41 1461.2 1007.41 1468.33 Q1007.41 1475.44 1009.22 1479.01 Q1011.05 1482.55 1014.66 1482.55 Q1018.29 1482.55 1020.1 1479.01 Q1021.92 1475.44 1021.92 1468.33 Q1021.92 1461.2 1020.1 1457.66 Q1018.29 1454.1 1014.66 1454.1 M1014.66 1450.39 Q1020.47 1450.39 1023.52 1455 Q1026.6 1459.58 1026.6 1468.33 Q1026.6 1477.06 1023.52 1481.67 Q1020.47 1486.25 1014.66 1486.25 Q1008.85 1486.25 1005.77 1481.67 Q1002.71 1477.06 1002.71 1468.33 Q1002.71 1459.58 1005.77 1455 Q1008.85 1450.39 1014.66 1450.39 Z" fill="#000000" fill-rule="nonzero" fill-opacity="1" /><path clip-path="url(#clip390)" d="M1580.45 1481.64 L1596.77 1481.64 L1596.77 1485.58 L1574.83 1485.58 L1574.83 1481.64 Q1577.49 1478.89 1582.07 1474.26 Q1586.68 1469.61 1587.86 1468.27 Q1590.11 1465.74 1590.99 1464.01 Q1591.89 1462.25 1591.89 1460.56 Q1591.89 1457.8 1589.95 1456.07 Q1588.02 1454.33 1584.92 1454.33 Q1582.72 1454.33 1580.27 1455.09 Q1577.84 1455.86 1575.06 1457.41 L1575.06 1452.69 Q1577.88 1451.55 1580.34 1450.97 Q1582.79 1450.39 1584.83 1450.39 Q1590.2 1450.39 1593.39 1453.08 Q1596.59 1455.77 1596.59 1460.26 Q1596.59 1462.39 1595.78 1464.31 Q1594.99 1466.2 1592.88 1468.8 Q1592.31 1469.47 1589.2 1472.69 Q1586.1 1475.88 1580.45 1481.64 Z" fill="#000000" fill-rule="nonzero" fill-opacity="1" /><path clip-path="url(#clip390)" d="M1616.59 1454.1 Q1612.98 1454.1 1611.15 1457.66 Q1609.34 1461.2 1609.34 1468.33 Q1609.34 1475.44 1611.15 1479.01 Q1612.98 1482.55 1616.59 1482.55 Q1620.22 1482.55 1622.03 1479.01 Q1623.86 1475.44 1623.86 1468.33 Q1623.86 1461.2 1622.03 1457.66 Q1620.22 1454.1 1616.59 1454.1 M1616.59 1450.39 Q1622.4 1450.39 1625.45 1455 Q1628.53 1459.58 1628.53 1468.33 Q1628.53 1477.06 1625.45 1481.67 Q1622.4 1486.25 1616.59 1486.25 Q1610.78 1486.25 1607.7 1481.67 Q1604.64 1477.06 1604.64 1468.33 Q1604.64 1459.58 1607.7 1455 Q1610.78 1450.39 1616.59 1450.39 Z" fill="#000000" fill-rule="nonzero" fill-opacity="1" /><path clip-path="url(#clip390)" d="M1646.75 1454.1 Q1643.14 1454.1 1641.31 1457.66 Q1639.5 1461.2 1639.5 1468.33 Q1639.5 1475.44 1641.31 1479.01 Q1643.14 1482.55 1646.75 1482.55 Q1650.38 1482.55 1652.19 1479.01 Q1654.02 1475.44 1654.02 1468.33 Q1654.02 1461.2 1652.19 1457.66 Q1650.38 1454.1 1646.75 1454.1 M1646.75 1450.39 Q1652.56 1450.39 1655.62 1455 Q1658.69 1459.58 1658.69 1468.33 Q1658.69 1477.06 1655.62 1481.67 Q1652.56 1486.25 1646.75 1486.25 Q1640.94 1486.25 1637.86 1481.67 Q1634.81 1477.06 1634.81 1468.33 Q1634.81 1459.58 1637.86 1455 Q1640.94 1450.39 1646.75 1450.39 Z" fill="#000000" fill-rule="nonzero" fill-opacity="1" /><path clip-path="url(#clip390)" d="M1676.91 1454.1 Q1673.3 1454.1 1671.47 1457.66 Q1669.67 1461.2 1669.67 1468.33 Q1669.67 1475.44 1671.47 1479.01 Q1673.3 1482.55 1676.91 1482.55 Q1680.55 1482.55 1682.35 1479.01 Q1684.18 1475.44 1684.18 1468.33 Q1684.18 1461.2 1682.35 1457.66 Q1680.55 1454.1 1676.91 1454.1 M1676.91 1450.39 Q1682.72 1450.39 1685.78 1455 Q1688.86 1459.58 1688.86 1468.33 Q1688.86 1477.06 1685.78 1481.67 Q1682.72 1486.25 1676.91 1486.25 Q1671.1 1486.25 1668.02 1481.67 Q1664.97 1477.06 1664.97 1468.33 Q1664.97 1459.58 1668.02 1455 Q1671.1 1450.39 1676.91 1450.39 Z" fill="#000000" fill-rule="nonzero" fill-opacity="1" /><path clip-path="url(#clip390)" d="M2251.91 1466.95 Q2255.27 1467.66 2257.14 1469.93 Q2259.04 1472.2 2259.04 1475.53 Q2259.04 1480.65 2255.52 1483.45 Q2252 1486.25 2245.52 1486.25 Q2243.35 1486.25 2241.03 1485.81 Q2238.74 1485.39 2236.29 1484.54 L2236.29 1480.02 Q2238.23 1481.16 2240.55 1481.74 Q2242.86 1482.32 2245.38 1482.32 Q2249.78 1482.32 2252.07 1480.58 Q2254.39 1478.84 2254.39 1475.53 Q2254.39 1472.48 2252.24 1470.77 Q2250.11 1469.03 2246.29 1469.03 L2242.26 1469.03 L2242.26 1465.19 L2246.47 1465.19 Q2249.92 1465.19 2251.75 1463.82 Q2253.58 1462.43 2253.58 1459.84 Q2253.58 1457.18 2251.68 1455.77 Q2249.81 1454.33 2246.29 1454.33 Q2244.37 1454.33 2242.17 1454.75 Q2239.97 1455.16 2237.33 1456.04 L2237.33 1451.88 Q2239.99 1451.14 2242.31 1450.77 Q2244.64 1450.39 2246.7 1450.39 Q2252.03 1450.39 2255.13 1452.83 Q2258.23 1455.23 2258.23 1459.35 Q2258.23 1462.22 2256.59 1464.21 Q2254.94 1466.18 2251.91 1466.95 Z" fill="#000000" fill-rule="nonzero" fill-opacity="1" /><path clip-path="url(#clip390)" d="M2277.91 1454.1 Q2274.3 1454.1 2272.47 1457.66 Q2270.66 1461.2 2270.66 1468.33 Q2270.66 1475.44 2272.47 1479.01 Q2274.3 1482.55 2277.91 1482.55 Q2281.54 1482.55 2283.35 1479.01 Q2285.18 1475.44 2285.18 1468.33 Q2285.18 1461.2 2283.35 1457.66 Q2281.54 1454.1 2277.91 1454.1 M2277.91 1450.39 Q2283.72 1450.39 2286.77 1455 Q2289.85 1459.58 2289.85 1468.33 Q2289.85 1477.06 2286.77 1481.67 Q2283.72 1486.25 2277.91 1486.25 Q2272.1 1486.25 2269.02 1481.67 Q2265.96 1477.06 2265.96 1468.33 Q2265.96 1459.58 2269.02 1455 Q2272.1 1450.39 2277.91 1450.39 Z" fill="#000000" fill-rule="nonzero" fill-opacity="1" /><path clip-path="url(#clip390)" d="M2308.07 1454.1 Q2304.46 1454.1 2302.63 1457.66 Q2300.82 1461.2 2300.82 1468.33 Q2300.82 1475.44 2302.63 1479.01 Q2304.46 1482.55 2308.07 1482.55 Q2311.7 1482.55 2313.51 1479.01 Q2315.34 1475.44 2315.34 1468.33 Q2315.34 1461.2 2313.51 1457.66 Q2311.7 1454.1 2308.07 1454.1 M2308.07 1450.39 Q2313.88 1450.39 2316.93 1455 Q2320.01 1459.58 2320.01 1468.33 Q2320.01 1477.06 2316.93 1481.67 Q2313.88 1486.25 2308.07 1486.25 Q2302.26 1486.25 2299.18 1481.67 Q2296.12 1477.06 2296.12 1468.33 Q2296.12 1459.58 2299.18 1455 Q2302.26 1450.39 2308.07 1450.39 Z" fill="#000000" fill-rule="nonzero" fill-opacity="1" /><path clip-path="url(#clip390)" d="M2338.23 1454.1 Q2334.62 1454.1 2332.79 1457.66 Q2330.99 1461.2 2330.99 1468.33 Q2330.99 1475.44 2332.79 1479.01 Q2334.62 1482.55 2338.23 1482.55 Q2341.86 1482.55 2343.67 1479.01 Q2345.5 1475.44 2345.5 1468.33 Q2345.5 1461.2 2343.67 1457.66 Q2341.86 1454.1 2338.23 1454.1 M2338.23 1450.39 Q2344.04 1450.39 2347.1 1455 Q2350.18 1459.58 2350.18 1468.33 Q2350.18 1477.06 2347.1 1481.67 Q2344.04 1486.25 2338.23 1486.25 Q2332.42 1486.25 2329.34 1481.67 Q2326.29 1477.06 2326.29 1468.33 Q2326.29 1459.58 2329.34 1455 Q2332.42 1450.39 2338.23 1450.39 Z" fill="#000000" fill-rule="nonzero" fill-opacity="1" /><path clip-path="url(#clip390)" d="M1300.21 1522.27 L1300.21 1532.4 L1312.27 1532.4 L1312.27 1536.95 L1300.21 1536.95 L1300.21 1556.3 Q1300.21 1560.66 1301.39 1561.9 Q1302.6 1563.14 1306.26 1563.14 L1312.27 1563.14 L1312.27 1568.04 L1306.26 1568.04 Q1299.48 1568.04 1296.9 1565.53 Q1294.32 1562.98 1294.32 1556.3 L1294.32 1536.95 L1290.02 1536.95 L1290.02 1532.4 L1294.32 1532.4 L1294.32 1522.27 L1300.21 1522.27 Z" fill="#000000" fill-rule="nonzero" fill-opacity="1" /><polyline clip-path="url(#clip392)" style="stroke:#000000; stroke-linecap:round; stroke-linejoin:round; stroke-width:2; stroke-opacity:0.1; fill:none" points="249.542,1361.41 2352.76,1361.41 "/>
<polyline clip-path="url(#clip392)" style="stroke:#000000; stroke-linecap:round; stroke-linejoin:round; stroke-width:2; stroke-opacity:0.1; fill:none" points="249.542,1048.31 2352.76,1048.31 "/>
<polyline clip-path="url(#clip392)" style="stroke:#000000; stroke-linecap:round; stroke-linejoin:round; stroke-width:2; stroke-opacity:0.1; fill:none" points="249.542,735.212 2352.76,735.212 "/>
<polyline clip-path="url(#clip392)" style="stroke:#000000; stroke-linecap:round; stroke-linejoin:round; stroke-width:2; stroke-opacity:0.1; fill:none" points="249.542,422.115 2352.76,422.115 "/>
<polyline clip-path="url(#clip392)" style="stroke:#000000; stroke-linecap:round; stroke-linejoin:round; stroke-width:2; stroke-opacity:0.1; fill:none" points="249.542,109.017 2352.76,109.017 "/>
<polyline clip-path="url(#clip390)" style="stroke:#000000; stroke-linecap:round; stroke-linejoin:round; stroke-width:4; stroke-opacity:1; fill:none" points="249.542,1423.18 249.542,47.2441 "/>
<polyline clip-path="url(#clip390)" style="stroke:#000000; stroke-linecap:round; stroke-linejoin:round; stroke-width:4; stroke-opacity:1; fill:none" points="249.542,1361.41 268.44,1361.41 "/>
<polyline clip-path="url(#clip390)" style="stroke:#000000; stroke-linecap:round; stroke-linejoin:round; stroke-width:4; stroke-opacity:1; fill:none" points="249.542,1048.31 268.44,1048.31 "/>
<polyline clip-path="url(#clip390)" style="stroke:#000000; stroke-linecap:round; stroke-linejoin:round; stroke-width:4; stroke-opacity:1; fill:none" points="249.542,735.212 268.44,735.212 "/>
<polyline clip-path="url(#clip390)" style="stroke:#000000; stroke-linecap:round; stroke-linejoin:round; stroke-width:4; stroke-opacity:1; fill:none" points="249.542,422.115 268.44,422.115 "/>
<polyline clip-path="url(#clip390)" style="stroke:#000000; stroke-linecap:round; stroke-linejoin:round; stroke-width:4; stroke-opacity:1; fill:none" points="249.542,109.017 268.44,109.017 "/>
<path clip-path="url(#clip390)" d="M126.205 1347.21 Q122.593 1347.21 120.765 1350.77 Q118.959 1354.31 118.959 1361.44 Q118.959 1368.55 120.765 1372.11 Q122.593 1375.65 126.205 1375.65 Q129.839 1375.65 131.644 1372.11 Q133.473 1368.55 133.473 1361.44 Q133.473 1354.31 131.644 1350.77 Q129.839 1347.21 126.205 1347.21 M126.205 1343.5 Q132.015 1343.5 135.07 1348.11 Q138.149 1352.69 138.149 1361.44 Q138.149 1370.17 135.07 1374.77 Q132.015 1379.36 126.205 1379.36 Q120.394 1379.36 117.316 1374.77 Q114.26 1370.17 114.26 1361.44 Q114.26 1352.69 117.316 1348.11 Q120.394 1343.5 126.205 1343.5 Z" fill="#000000" fill-rule="nonzero" fill-opacity="1" /><path clip-path="url(#clip390)" d="M146.366 1372.81 L151.251 1372.81 L151.251 1378.69 L146.366 1378.69 L146.366 1372.81 Z" fill="#000000" fill-rule="nonzero" fill-opacity="1" /><path clip-path="url(#clip390)" d="M171.436 1347.21 Q167.825 1347.21 165.996 1350.77 Q164.19 1354.31 164.19 1361.44 Q164.19 1368.55 165.996 1372.11 Q167.825 1375.65 171.436 1375.65 Q175.07 1375.65 176.876 1372.11 Q178.704 1368.55 178.704 1361.44 Q178.704 1354.31 176.876 1350.77 Q175.07 1347.21 171.436 1347.21 M171.436 1343.5 Q177.246 1343.5 180.301 1348.11 Q183.38 1352.69 183.38 1361.44 Q183.38 1370.17 180.301 1374.77 Q177.246 1379.36 171.436 1379.36 Q165.626 1379.36 162.547 1374.77 Q159.491 1370.17 159.491 1361.44 Q159.491 1352.69 162.547 1348.11 Q165.626 1343.5 171.436 1343.5 Z" fill="#000000" fill-rule="nonzero" fill-opacity="1" /><path clip-path="url(#clip390)" d="M201.598 1347.21 Q197.987 1347.21 196.158 1350.77 Q194.352 1354.31 194.352 1361.44 Q194.352 1368.55 196.158 1372.11 Q197.987 1375.65 201.598 1375.65 Q205.232 1375.65 207.037 1372.11 Q208.866 1368.55 208.866 1361.44 Q208.866 1354.31 207.037 1350.77 Q205.232 1347.21 201.598 1347.21 M201.598 1343.5 Q207.408 1343.5 210.463 1348.11 Q213.542 1352.69 213.542 1361.44 Q213.542 1370.17 210.463 1374.77 Q207.408 1379.36 201.598 1379.36 Q195.787 1379.36 192.709 1374.77 Q189.653 1370.17 189.653 1361.44 Q189.653 1352.69 192.709 1348.11 Q195.787 1343.5 201.598 1343.5 Z" fill="#000000" fill-rule="nonzero" fill-opacity="1" /><path clip-path="url(#clip390)" d="M127.2 1034.11 Q123.589 1034.11 121.76 1037.67 Q119.955 1041.21 119.955 1048.34 Q119.955 1055.45 121.76 1059.02 Q123.589 1062.56 127.2 1062.56 Q130.834 1062.56 132.64 1059.02 Q134.468 1055.45 134.468 1048.34 Q134.468 1041.21 132.64 1037.67 Q130.834 1034.11 127.2 1034.11 M127.2 1030.4 Q133.01 1030.4 136.066 1035.01 Q139.144 1039.59 139.144 1048.34 Q139.144 1057.07 136.066 1061.68 Q133.01 1066.26 127.2 1066.26 Q121.39 1066.26 118.311 1061.68 Q115.256 1057.07 115.256 1048.34 Q115.256 1039.59 118.311 1035.01 Q121.39 1030.4 127.2 1030.4 Z" fill="#000000" fill-rule="nonzero" fill-opacity="1" /><path clip-path="url(#clip390)" d="M147.362 1059.71 L152.246 1059.71 L152.246 1065.59 L147.362 1065.59 L147.362 1059.71 Z" fill="#000000" fill-rule="nonzero" fill-opacity="1" /><path clip-path="url(#clip390)" d="M166.459 1061.65 L182.778 1061.65 L182.778 1065.59 L160.834 1065.59 L160.834 1061.65 Q163.496 1058.9 168.079 1054.27 Q172.686 1049.62 173.866 1048.27 Q176.112 1045.75 176.991 1044.02 Q177.894 1042.26 177.894 1040.57 Q177.894 1037.81 175.95 1036.08 Q174.028 1034.34 170.927 1034.34 Q168.727 1034.34 166.274 1035.1 Q163.843 1035.87 161.065 1037.42 L161.065 1032.7 Q163.89 1031.56 166.343 1030.98 Q168.797 1030.4 170.834 1030.4 Q176.204 1030.4 179.399 1033.09 Q182.593 1035.77 182.593 1040.27 Q182.593 1042.4 181.783 1044.32 Q180.996 1046.21 178.889 1048.81 Q178.311 1049.48 175.209 1052.7 Q172.107 1055.89 166.459 1061.65 Z" fill="#000000" fill-rule="nonzero" fill-opacity="1" /><path clip-path="url(#clip390)" d="M192.639 1031.03 L210.996 1031.03 L210.996 1034.96 L196.922 1034.96 L196.922 1043.44 Q197.94 1043.09 198.959 1042.93 Q199.977 1042.74 200.996 1042.74 Q206.783 1042.74 210.162 1045.91 Q213.542 1049.08 213.542 1054.5 Q213.542 1060.08 210.07 1063.18 Q206.598 1066.26 200.278 1066.26 Q198.102 1066.26 195.834 1065.89 Q193.588 1065.52 191.181 1064.78 L191.181 1060.08 Q193.264 1061.21 195.487 1061.77 Q197.709 1062.33 200.186 1062.33 Q204.19 1062.33 206.528 1060.22 Q208.866 1058.11 208.866 1054.5 Q208.866 1050.89 206.528 1048.78 Q204.19 1046.68 200.186 1046.68 Q198.311 1046.68 196.436 1047.09 Q194.584 1047.51 192.639 1048.39 L192.639 1031.03 Z" fill="#000000" fill-rule="nonzero" fill-opacity="1" /><path clip-path="url(#clip390)" d="M126.205 721.011 Q122.593 721.011 120.765 724.575 Q118.959 728.117 118.959 735.247 Q118.959 742.353 120.765 745.918 Q122.593 749.46 126.205 749.46 Q129.839 749.46 131.644 745.918 Q133.473 742.353 133.473 735.247 Q133.473 728.117 131.644 724.575 Q129.839 721.011 126.205 721.011 M126.205 717.307 Q132.015 717.307 135.07 721.913 Q138.149 726.497 138.149 735.247 Q138.149 743.973 135.07 748.58 Q132.015 753.163 126.205 753.163 Q120.394 753.163 117.316 748.58 Q114.26 743.973 114.26 735.247 Q114.26 726.497 117.316 721.913 Q120.394 717.307 126.205 717.307 Z" fill="#000000" fill-rule="nonzero" fill-opacity="1" /><path clip-path="url(#clip390)" d="M146.366 746.612 L151.251 746.612 L151.251 752.492 L146.366 752.492 L146.366 746.612 Z" fill="#000000" fill-rule="nonzero" fill-opacity="1" /><path clip-path="url(#clip390)" d="M161.482 717.932 L179.839 717.932 L179.839 721.867 L165.765 721.867 L165.765 730.339 Q166.783 729.992 167.802 729.83 Q168.82 729.645 169.839 729.645 Q175.626 729.645 179.005 732.816 Q182.385 735.987 182.385 741.404 Q182.385 746.983 178.913 750.085 Q175.44 753.163 169.121 753.163 Q166.945 753.163 164.677 752.793 Q162.431 752.423 160.024 751.682 L160.024 746.983 Q162.107 748.117 164.329 748.673 Q166.552 749.228 169.028 749.228 Q173.033 749.228 175.371 747.122 Q177.709 745.015 177.709 741.404 Q177.709 737.793 175.371 735.687 Q173.033 733.58 169.028 733.58 Q167.153 733.58 165.278 733.997 Q163.427 734.413 161.482 735.293 L161.482 717.932 Z" fill="#000000" fill-rule="nonzero" fill-opacity="1" /><path clip-path="url(#clip390)" d="M201.598 721.011 Q197.987 721.011 196.158 724.575 Q194.352 728.117 194.352 735.247 Q194.352 742.353 196.158 745.918 Q197.987 749.46 201.598 749.46 Q205.232 749.46 207.037 745.918 Q208.866 742.353 208.866 735.247 Q208.866 728.117 207.037 724.575 Q205.232 721.011 201.598 721.011 M201.598 717.307 Q207.408 717.307 210.463 721.913 Q213.542 726.497 213.542 735.247 Q213.542 743.973 210.463 748.58 Q207.408 753.163 201.598 753.163 Q195.787 753.163 192.709 748.58 Q189.653 743.973 189.653 735.247 Q189.653 726.497 192.709 721.913 Q195.787 717.307 201.598 717.307 Z" fill="#000000" fill-rule="nonzero" fill-opacity="1" /><path clip-path="url(#clip390)" d="M127.2 407.913 Q123.589 407.913 121.76 411.478 Q119.955 415.02 119.955 422.149 Q119.955 429.256 121.76 432.821 Q123.589 436.362 127.2 436.362 Q130.834 436.362 132.64 432.821 Q134.468 429.256 134.468 422.149 Q134.468 415.02 132.64 411.478 Q130.834 407.913 127.2 407.913 M127.2 404.21 Q133.01 404.21 136.066 408.816 Q139.144 413.399 139.144 422.149 Q139.144 430.876 136.066 435.483 Q133.01 440.066 127.2 440.066 Q121.39 440.066 118.311 435.483 Q115.256 430.876 115.256 422.149 Q115.256 413.399 118.311 408.816 Q121.39 404.21 127.2 404.21 Z" fill="#000000" fill-rule="nonzero" fill-opacity="1" /><path clip-path="url(#clip390)" d="M147.362 433.515 L152.246 433.515 L152.246 439.395 L147.362 439.395 L147.362 433.515 Z" fill="#000000" fill-rule="nonzero" fill-opacity="1" /><path clip-path="url(#clip390)" d="M161.251 404.835 L183.473 404.835 L183.473 406.825 L170.927 439.395 L166.042 439.395 L177.848 408.77 L161.251 408.77 L161.251 404.835 Z" fill="#000000" fill-rule="nonzero" fill-opacity="1" /><path clip-path="url(#clip390)" d="M192.639 404.835 L210.996 404.835 L210.996 408.77 L196.922 408.77 L196.922 417.242 Q197.94 416.895 198.959 416.733 Q199.977 416.547 200.996 416.547 Q206.783 416.547 210.162 419.719 Q213.542 422.89 213.542 428.307 Q213.542 433.885 210.07 436.987 Q206.598 440.066 200.278 440.066 Q198.102 440.066 195.834 439.695 Q193.588 439.325 191.181 438.584 L191.181 433.885 Q193.264 435.02 195.487 435.575 Q197.709 436.131 200.186 436.131 Q204.19 436.131 206.528 434.024 Q208.866 431.918 208.866 428.307 Q208.866 424.696 206.528 422.589 Q204.19 420.483 200.186 420.483 Q198.311 420.483 196.436 420.899 Q194.584 421.316 192.639 422.196 L192.639 404.835 Z" fill="#000000" fill-rule="nonzero" fill-opacity="1" /><path clip-path="url(#clip390)" d="M117.015 122.362 L124.654 122.362 L124.654 95.9964 L116.343 97.6631 L116.343 93.4038 L124.607 91.7372 L129.283 91.7372 L129.283 122.362 L136.922 122.362 L136.922 126.297 L117.015 126.297 L117.015 122.362 Z" fill="#000000" fill-rule="nonzero" fill-opacity="1" /><path clip-path="url(#clip390)" d="M146.366 120.418 L151.251 120.418 L151.251 126.297 L146.366 126.297 L146.366 120.418 Z" fill="#000000" fill-rule="nonzero" fill-opacity="1" /><path clip-path="url(#clip390)" d="M171.436 94.8158 Q167.825 94.8158 165.996 98.3806 Q164.19 101.922 164.19 109.052 Q164.19 116.158 165.996 119.723 Q167.825 123.265 171.436 123.265 Q175.07 123.265 176.876 119.723 Q178.704 116.158 178.704 109.052 Q178.704 101.922 176.876 98.3806 Q175.07 94.8158 171.436 94.8158 M171.436 91.1122 Q177.246 91.1122 180.301 95.7186 Q183.38 100.302 183.38 109.052 Q183.38 117.779 180.301 122.385 Q177.246 126.968 171.436 126.968 Q165.626 126.968 162.547 122.385 Q159.491 117.779 159.491 109.052 Q159.491 100.302 162.547 95.7186 Q165.626 91.1122 171.436 91.1122 Z" fill="#000000" fill-rule="nonzero" fill-opacity="1" /><path clip-path="url(#clip390)" d="M201.598 94.8158 Q197.987 94.8158 196.158 98.3806 Q194.352 101.922 194.352 109.052 Q194.352 116.158 196.158 119.723 Q197.987 123.265 201.598 123.265 Q205.232 123.265 207.037 119.723 Q208.866 116.158 208.866 109.052 Q208.866 101.922 207.037 98.3806 Q205.232 94.8158 201.598 94.8158 M201.598 91.1122 Q207.408 91.1122 210.463 95.7186 Q213.542 100.302 213.542 109.052 Q213.542 117.779 210.463 122.385 Q207.408 126.968 201.598 126.968 Q195.787 126.968 192.709 122.385 Q189.653 117.779 189.653 109.052 Q189.653 100.302 192.709 95.7186 Q195.787 91.1122 201.598 91.1122 Z" fill="#000000" fill-rule="nonzero" fill-opacity="1" /><path clip-path="url(#clip390)" d="M20.8447 1127.58 Q20.8447 1134.58 26.0645 1138.72 Q31.2844 1142.82 40.2919 1142.82 Q49.2675 1142.82 54.4874 1138.72 Q59.7073 1134.58 59.7073 1127.58 Q59.7073 1120.58 54.4874 1116.5 Q49.2675 1112.4 40.2919 1112.4 Q31.2844 1112.4 26.0645 1116.5 Q20.8447 1120.58 20.8447 1127.58 M15.6248 1127.58 Q15.6248 1117.58 22.3406 1111.6 Q29.0246 1105.62 40.2919 1105.62 Q51.5274 1105.62 58.2432 1111.6 Q64.9272 1117.58 64.9272 1127.58 Q64.9272 1137.6 58.2432 1143.62 Q51.5592 1149.6 40.2919 1149.6 Q29.0246 1149.6 22.3406 1143.62 Q15.6248 1137.6 15.6248 1127.58 Z" fill="#000000" fill-rule="nonzero" fill-opacity="1" /><path clip-path="url(#clip390)" d="M49.9359 1096.42 L28.3562 1096.42 L28.3562 1090.56 L49.7131 1090.56 Q54.7739 1090.56 57.3202 1088.59 Q59.8346 1086.61 59.8346 1082.67 Q59.8346 1077.93 56.8109 1075.19 Q53.7872 1072.42 48.5673 1072.42 L28.3562 1072.42 L28.3562 1066.56 L64.0042 1066.56 L64.0042 1072.42 L58.5296 1072.42 Q61.7762 1074.55 63.3676 1077.38 Q64.9272 1080.19 64.9272 1083.91 Q64.9272 1090.05 61.1078 1093.24 Q57.2883 1096.42 49.9359 1096.42 M27.4968 1081.68 L27.4968 1081.68 Z" fill="#000000" fill-rule="nonzero" fill-opacity="1" /><path clip-path="url(#clip390)" d="M18.2347 1048.71 L28.3562 1048.71 L28.3562 1036.64 L32.9077 1036.64 L32.9077 1048.71 L52.2594 1048.71 Q56.6199 1048.71 57.8613 1047.53 Q59.1026 1046.32 59.1026 1042.66 L59.1026 1036.64 L64.0042 1036.64 L64.0042 1042.66 Q64.0042 1049.44 61.4897 1052.02 Q58.9434 1054.6 52.2594 1054.6 L32.9077 1054.6 L32.9077 1058.89 L28.3562 1058.89 L28.3562 1054.6 L18.2347 1054.6 L18.2347 1048.71 Z" fill="#000000" fill-rule="nonzero" fill-opacity="1" /><path clip-path="url(#clip390)" d="M58.657 1023.28 L77.5631 1023.28 L77.5631 1029.16 L28.3562 1029.16 L28.3562 1023.28 L33.7671 1023.28 Q30.5842 1021.43 29.0564 1018.63 Q27.4968 1015.8 27.4968 1011.88 Q27.4968 1005.39 32.6531 1001.35 Q37.8093 997.272 46.212 997.272 Q54.6147 997.272 59.771 1001.35 Q64.9272 1005.39 64.9272 1011.88 Q64.9272 1015.8 63.3994 1018.63 Q61.8398 1021.43 58.657 1023.28 M46.212 1003.35 Q39.7508 1003.35 36.0905 1006.03 Q32.3984 1008.67 32.3984 1013.31 Q32.3984 1017.96 36.0905 1020.63 Q39.7508 1023.28 46.212 1023.28 Q52.6732 1023.28 56.3653 1020.63 Q60.0256 1017.96 60.0256 1013.31 Q60.0256 1008.67 56.3653 1006.03 Q52.6732 1003.35 46.212 1003.35 Z" fill="#000000" fill-rule="nonzero" fill-opacity="1" /><path clip-path="url(#clip390)" d="M49.9359 988.169 L28.3562 988.169 L28.3562 982.313 L49.7131 982.313 Q54.7739 982.313 57.3202 980.339 Q59.8346 978.366 59.8346 974.419 Q59.8346 969.677 56.8109 966.94 Q53.7872 964.171 48.5673 964.171 L28.3562 964.171 L28.3562 958.314 L64.0042 958.314 L64.0042 964.171 L58.5296 964.171 Q61.7762 966.303 63.3676 969.136 Q64.9272 971.937 64.9272 975.661 Q64.9272 981.804 61.1078 984.986 Q57.2883 988.169 49.9359 988.169 M27.4968 973.433 L27.4968 973.433 Z" fill="#000000" fill-rule="nonzero" fill-opacity="1" /><path clip-path="url(#clip390)" d="M18.2347 940.458 L28.3562 940.458 L28.3562 928.395 L32.9077 928.395 L32.9077 940.458 L52.2594 940.458 Q56.6199 940.458 57.8613 939.281 Q59.1026 938.071 59.1026 934.411 L59.1026 928.395 L64.0042 928.395 L64.0042 934.411 Q64.0042 941.19 61.4897 943.768 Q58.9434 946.347 52.2594 946.347 L32.9077 946.347 L32.9077 950.643 L28.3562 950.643 L28.3562 946.347 L18.2347 946.347 L18.2347 940.458 Z" fill="#000000" fill-rule="nonzero" fill-opacity="1" /><path clip-path="url(#clip390)" d="M21.7677 914.009 L58.7206 914.009 L58.7206 906.243 Q58.7206 896.408 54.2646 891.856 Q49.8086 887.273 40.1964 887.273 Q30.6479 887.273 26.2237 891.856 Q21.7677 896.408 21.7677 906.243 L21.7677 914.009 M16.4842 920.438 L16.4842 907.229 Q16.4842 893.416 22.2451 886.955 Q27.9743 880.493 40.1964 880.493 Q52.4822 880.493 58.2432 886.986 Q64.0042 893.479 64.0042 907.229 L64.0042 920.438 L16.4842 920.438 Z" fill="#000000" fill-rule="nonzero" fill-opacity="1" /><path clip-path="url(#clip390)" d="M28.3562 870.499 L28.3562 864.643 L64.0042 864.643 L64.0042 870.499 L28.3562 870.499 M14.479 870.499 L14.479 864.643 L21.895 864.643 L21.895 870.499 L14.479 870.499 Z" fill="#000000" fill-rule="nonzero" fill-opacity="1" /><path clip-path="url(#clip390)" d="M46.0847 836.188 Q46.0847 843.286 47.7079 846.023 Q49.3312 848.76 53.2461 848.76 Q56.3653 848.76 58.2114 846.723 Q60.0256 844.654 60.0256 841.121 Q60.0256 836.252 56.5881 833.323 Q53.1188 830.363 47.3897 830.363 L46.0847 830.363 L46.0847 836.188 M43.6657 824.507 L64.0042 824.507 L64.0042 830.363 L58.5933 830.363 Q61.8398 832.369 63.3994 835.36 Q64.9272 838.352 64.9272 842.681 Q64.9272 848.156 61.8716 851.402 Q58.7843 854.617 53.6281 854.617 Q47.6125 854.617 44.5569 850.606 Q41.5014 846.564 41.5014 838.575 L41.5014 830.363 L40.9285 830.363 Q36.8862 830.363 34.6901 833.037 Q32.4621 835.679 32.4621 840.485 Q32.4621 843.54 33.1941 846.437 Q33.9262 849.333 35.3903 852.007 L29.9795 852.007 Q28.7381 848.792 28.1334 845.768 Q27.4968 842.745 27.4968 839.88 Q27.4968 832.146 31.5072 828.326 Q35.5176 824.507 43.6657 824.507 Z" fill="#000000" fill-rule="nonzero" fill-opacity="1" /><path clip-path="url(#clip390)" d="M46.212 786.854 Q39.7508 786.854 36.0905 789.527 Q32.3984 792.169 32.3984 796.816 Q32.3984 801.463 36.0905 804.137 Q39.7508 806.778 46.212 806.778 Q52.6732 806.778 56.3653 804.137 Q60.0256 801.463 60.0256 796.816 Q60.0256 792.169 56.3653 789.527 Q52.6732 786.854 46.212 786.854 M33.7671 806.778 Q30.5842 804.932 29.0564 802.131 Q27.4968 799.299 27.4968 795.384 Q27.4968 788.891 32.6531 784.849 Q37.8093 780.775 46.212 780.775 Q54.6147 780.775 59.771 784.849 Q64.9272 788.891 64.9272 795.384 Q64.9272 799.299 63.3994 802.131 Q61.8398 804.932 58.657 806.778 L64.0042 806.778 L64.0042 812.667 L14.479 812.667 L14.479 806.778 L33.7671 806.778 Z" fill="#000000" fill-rule="nonzero" fill-opacity="1" /><path clip-path="url(#clip390)" d="M46.0847 754.866 Q46.0847 761.964 47.7079 764.701 Q49.3312 767.438 53.2461 767.438 Q56.3653 767.438 58.2114 765.401 Q60.0256 763.332 60.0256 759.8 Q60.0256 754.93 56.5881 752.002 Q53.1188 749.041 47.3897 749.041 L46.0847 749.041 L46.0847 754.866 M43.6657 743.185 L64.0042 743.185 L64.0042 749.041 L58.5933 749.041 Q61.8398 751.047 63.3994 754.039 Q64.9272 757.03 64.9272 761.359 Q64.9272 766.834 61.8716 770.08 Q58.7843 773.295 53.6281 773.295 Q47.6125 773.295 44.5569 769.284 Q41.5014 765.242 41.5014 757.253 L41.5014 749.041 L40.9285 749.041 Q36.8862 749.041 34.6901 751.715 Q32.4621 754.357 32.4621 759.163 Q32.4621 762.218 33.1941 765.115 Q33.9262 768.011 35.3903 770.685 L29.9795 770.685 Q28.7381 767.47 28.1334 764.446 Q27.4968 761.423 27.4968 758.558 Q27.4968 750.824 31.5072 747.004 Q35.5176 743.185 43.6657 743.185 Z" fill="#000000" fill-rule="nonzero" fill-opacity="1" /><path clip-path="url(#clip390)" d="M18.2347 725.329 L28.3562 725.329 L28.3562 713.266 L32.9077 713.266 L32.9077 725.329 L52.2594 725.329 Q56.6199 725.329 57.8613 724.152 Q59.1026 722.942 59.1026 719.282 L59.1026 713.266 L64.0042 713.266 L64.0042 719.282 Q64.0042 726.061 61.4897 728.639 Q58.9434 731.217 52.2594 731.217 L32.9077 731.217 L32.9077 735.514 L28.3562 735.514 L28.3562 731.217 L18.2347 731.217 L18.2347 725.329 Z" fill="#000000" fill-rule="nonzero" fill-opacity="1" /><path clip-path="url(#clip390)" d="M28.3562 705.564 L28.3562 699.707 L64.0042 699.707 L64.0042 705.564 L28.3562 705.564 M14.479 705.564 L14.479 699.707 L21.895 699.707 L21.895 705.564 L14.479 705.564 Z" fill="#000000" fill-rule="nonzero" fill-opacity="1" /><path clip-path="url(#clip390)" d="M29.7248 661.799 L35.1993 661.799 Q33.8307 664.282 33.1623 666.797 Q32.4621 669.279 32.4621 671.825 Q32.4621 677.523 36.0905 680.674 Q39.6872 683.825 46.212 683.825 Q52.7369 683.825 56.3653 680.674 Q59.9619 677.523 59.9619 671.825 Q59.9619 669.279 59.2935 666.797 Q58.5933 664.282 57.2247 661.799 L62.6355 661.799 Q63.7814 664.25 64.3543 666.892 Q64.9272 669.502 64.9272 672.462 Q64.9272 680.515 59.8664 685.257 Q54.8057 690 46.212 690 Q37.491 690 32.4939 685.225 Q27.4968 680.419 27.4968 672.08 Q27.4968 669.375 28.0697 666.797 Q28.6108 664.218 29.7248 661.799 Z" fill="#000000" fill-rule="nonzero" fill-opacity="1" /><path clip-path="url(#clip390)" d="M21.7677 644.93 L39.6235 644.93 L39.6235 636.846 Q39.6235 632.358 37.3 629.907 Q34.9765 627.456 30.6797 627.456 Q26.4147 627.456 24.0912 629.907 Q21.7677 632.358 21.7677 636.846 L21.7677 644.93 M16.4842 651.36 L16.4842 636.846 Q16.4842 628.857 20.1126 624.783 Q23.7092 620.677 30.6797 620.677 Q37.7138 620.677 41.3104 624.783 Q44.907 628.857 44.907 636.846 L44.907 644.93 L64.0042 644.93 L64.0042 651.36 L16.4842 651.36 Z" fill="#000000" fill-rule="nonzero" fill-opacity="1" /><path clip-path="url(#clip390)" d="M32.4621 600.816 Q32.4621 605.527 36.1542 608.264 Q39.8145 611.001 46.212 611.001 Q52.6095 611.001 56.3017 608.296 Q59.9619 605.558 59.9619 600.816 Q59.9619 596.137 56.2698 593.4 Q52.5777 590.663 46.212 590.663 Q39.8781 590.663 36.186 593.4 Q32.4621 596.137 32.4621 600.816 M27.4968 600.816 Q27.4968 593.177 32.4621 588.817 Q37.4273 584.456 46.212 584.456 Q54.9649 584.456 59.9619 588.817 Q64.9272 593.177 64.9272 600.816 Q64.9272 608.487 59.9619 612.847 Q54.9649 617.176 46.212 617.176 Q37.4273 617.176 32.4621 612.847 Q27.4968 608.487 27.4968 600.816 Z" fill="#000000" fill-rule="nonzero" fill-opacity="1" /><path clip-path="url(#clip390)" d="M58.657 569.083 L77.5631 569.083 L77.5631 574.971 L28.3562 574.971 L28.3562 569.083 L33.7671 569.083 Q30.5842 567.237 29.0564 564.436 Q27.4968 561.603 27.4968 557.688 Q27.4968 551.195 32.6531 547.153 Q37.8093 543.079 46.212 543.079 Q54.6147 543.079 59.771 547.153 Q64.9272 551.195 64.9272 557.688 Q64.9272 561.603 63.3994 564.436 Q61.8398 567.237 58.657 569.083 M46.212 549.158 Q39.7508 549.158 36.0905 551.832 Q32.3984 554.474 32.3984 559.121 Q32.3984 563.768 36.0905 566.441 Q39.7508 569.083 46.212 569.083 Q52.6732 569.083 56.3653 566.441 Q60.0256 563.768 60.0256 559.121 Q60.0256 554.474 56.3653 551.832 Q52.6732 549.158 46.212 549.158 Z" fill="#000000" fill-rule="nonzero" fill-opacity="1" /><path clip-path="url(#clip390)" d="M49.9359 533.976 L28.3562 533.976 L28.3562 528.12 L49.7131 528.12 Q54.7739 528.12 57.3202 526.146 Q59.8346 524.173 59.8346 520.226 Q59.8346 515.484 56.8109 512.746 Q53.7872 509.977 48.5673 509.977 L28.3562 509.977 L28.3562 504.121 L64.0042 504.121 L64.0042 509.977 L58.5296 509.977 Q61.7762 512.11 63.3676 514.943 Q64.9272 517.744 64.9272 521.467 Q64.9272 527.61 61.1078 530.793 Q57.2883 533.976 49.9359 533.976 M27.4968 519.239 L27.4968 519.239 Z" fill="#000000" fill-rule="nonzero" fill-opacity="1" /><path clip-path="url(#clip390)" d="M14.479 492.058 L14.479 486.201 L64.0042 486.201 L64.0042 492.058 L14.479 492.058 Z" fill="#000000" fill-rule="nonzero" fill-opacity="1" /><path clip-path="url(#clip390)" d="M46.0847 457.747 Q46.0847 464.844 47.7079 467.582 Q49.3312 470.319 53.2461 470.319 Q56.3653 470.319 58.2114 468.282 Q60.0256 466.213 60.0256 462.68 Q60.0256 457.81 56.5881 454.882 Q53.1188 451.922 47.3897 451.922 L46.0847 451.922 L46.0847 457.747 M43.6657 446.066 L64.0042 446.066 L64.0042 451.922 L58.5933 451.922 Q61.8398 453.927 63.3994 456.919 Q64.9272 459.911 64.9272 464.24 Q64.9272 469.714 61.8716 472.961 Q58.7843 476.175 53.6281 476.175 Q47.6125 476.175 44.5569 472.165 Q41.5014 468.123 41.5014 460.134 L41.5014 451.922 L40.9285 451.922 Q36.8862 451.922 34.6901 454.596 Q32.4621 457.237 32.4621 462.044 Q32.4621 465.099 33.1941 467.996 Q33.9262 470.892 35.3903 473.566 L29.9795 473.566 Q28.7381 470.351 28.1334 467.327 Q27.4968 464.303 27.4968 461.439 Q27.4968 453.705 31.5072 449.885 Q35.5176 446.066 43.6657 446.066 Z" fill="#000000" fill-rule="nonzero" fill-opacity="1" /><path clip-path="url(#clip390)" d="M18.2347 428.21 L28.3562 428.21 L28.3562 416.147 L32.9077 416.147 L32.9077 428.21 L52.2594 428.21 Q56.6199 428.21 57.8613 427.032 Q59.1026 425.823 59.1026 422.162 L59.1026 416.147 L64.0042 416.147 L64.0042 422.162 Q64.0042 428.942 61.4897 431.52 Q58.9434 434.098 52.2594 434.098 L32.9077 434.098 L32.9077 438.395 L28.3562 438.395 L28.3562 434.098 L18.2347 434.098 L18.2347 428.21 Z" fill="#000000" fill-rule="nonzero" fill-opacity="1" /><path clip-path="url(#clip390)" d="M28.3562 408.444 L28.3562 402.588 L64.0042 402.588 L64.0042 408.444 L28.3562 408.444 M14.479 408.444 L14.479 402.588 L21.895 402.588 L21.895 408.444 L14.479 408.444 Z" fill="#000000" fill-rule="nonzero" fill-opacity="1" /><path clip-path="url(#clip390)" d="M32.4621 376.52 Q32.4621 381.231 36.1542 383.968 Q39.8145 386.705 46.212 386.705 Q52.6095 386.705 56.3017 384 Q59.9619 381.263 59.9619 376.52 Q59.9619 371.842 56.2698 369.104 Q52.5777 366.367 46.212 366.367 Q39.8781 366.367 36.186 369.104 Q32.4621 371.842 32.4621 376.52 M27.4968 376.52 Q27.4968 368.881 32.4621 364.521 Q37.4273 360.16 46.212 360.16 Q54.9649 360.16 59.9619 364.521 Q64.9272 368.881 64.9272 376.52 Q64.9272 384.191 59.9619 388.551 Q54.9649 392.88 46.212 392.88 Q37.4273 392.88 32.4621 388.551 Q27.4968 384.191 27.4968 376.52 Z" fill="#000000" fill-rule="nonzero" fill-opacity="1" /><path clip-path="url(#clip390)" d="M42.4881 320.82 L64.0042 320.82 L64.0042 326.677 L42.679 326.677 Q37.6183 326.677 35.1038 328.65 Q32.5894 330.624 32.5894 334.57 Q32.5894 339.313 35.6131 342.05 Q38.6368 344.787 43.8567 344.787 L64.0042 344.787 L64.0042 350.676 L28.3562 350.676 L28.3562 344.787 L33.8944 344.787 Q30.6797 342.687 29.0883 339.854 Q27.4968 336.989 27.4968 333.265 Q27.4968 327.122 31.3163 323.971 Q35.1038 320.82 42.4881 320.82 Z" fill="#000000" fill-rule="nonzero" fill-opacity="1" /><polyline clip-path="url(#clip392)" style="stroke:#009af9; stroke-linecap:round; stroke-linejoin:round; stroke-width:4; stroke-opacity:1; fill:none" points="309.067,1361.41 315.681,1361.41 322.295,1361.41 328.909,1361.41 335.522,1361.41 342.136,1361.41 348.75,1361.41 355.364,1361.41 361.978,1361.41 368.592,1361.41 375.206,1361.41 381.82,1361.41 388.434,1361.41 395.047,1361.41 401.661,1361.41 408.275,1361.41 414.889,1361.41 421.503,1361.41 428.117,1361.41 434.731,1361.41 441.345,1361.41 447.958,1361.41 454.572,1361.41 461.186,1361.41 467.8,1361.41 474.414,1361.41 481.028,1361.41 487.642,1361.41 494.256,1361.41 500.869,1361.41 507.483,1361.41 514.097,1361.41 520.711,1361.41 527.325,1361.41 533.939,1361.41 540.553,1361.41 547.167,1361.41 553.781,1361.41 560.394,1361.41 567.008,1361.41 573.622,1361.41 580.236,1361.41 586.85,1361.41 593.464,1361.41 600.078,1361.41 606.692,1361.41 613.305,1361.41 619.919,1361.41 626.533,1361.41 633.147,1361.41 639.761,1361.41 646.375,1361.41 652.989,1361.41 659.603,1361.41 666.216,1361.41 672.83,1361.41 679.444,1361.4 686.058,1361.39 692.672,1361.38 699.286,1361.36 705.9,1361.34 712.514,1361.31 719.128,1361.28 725.741,1361.24 732.355,1361.21 738.969,1361.17 745.583,1361.13 752.197,1361.11 758.811,1361.11 765.425,1361.13 772.039,1361.19 778.652,1361.29 785.266,1361.45 791.88,1361.67 798.494,1361.95 805.108,1362.3 811.722,1362.71 818.336,1363.18 824.95,1363.69 831.563,1364.21 838.177,1364.71 844.791,1365.15 851.405,1365.49 858.019,1365.68 864.633,1365.67 871.247,1365.39 877.861,1364.81 884.475,1363.87 891.088,1362.55 897.702,1360.82 904.316,1358.66 910.93,1356.09 917.544,1353.12 924.158,1349.78 930.772,1346.14 937.386,1342.23 943.999,1338.13 950.613,1333.9 957.227,1329.62 963.841,1325.37 970.455,1321.26 977.069,1317.44 983.683,1314.14 990.297,1297.89 996.91,1307.98 1003.52,1320.48 1010.14,1332.39 1016.75,1342.78 1023.37,1351.45 1029.98,1358.56 1036.59,1364.32 1043.21,1368.9 1049.82,1372.43 1056.44,1374.98 1063.05,1376.55 1069.66,1377.17 1076.28,1376.8 1082.89,1375.43 1089.5,1373.04 1096.12,1369.58 1102.73,1365.06 1109.35,1359.45 1115.96,1352.78 1122.57,1345.06 1129.19,1336.38 1135.8,1326.83 1142.42,1316.54 1149.03,1305.72 1155.64,1294.62 1162.26,1283.63 1168.87,1273.3 1175.49,1264.42 1182.1,1257.99 1188.71,1255.22 1195.33,1256.16 1201.94,1260.46 1208.55,1267.79 1215.17,1277.83 1221.78,1290.27 1228.4,1304.7 1235.01,1320.6 1241.62,1337.3 1248.24,1353.93 1254.85,1369.41 1261.47,1382.38 1268.08,1369.35 1274.69,1380.76 1281.31,1384.24 1287.92,1376.15 1294.54,1355.05 1301.15,1323.06 1307.76,1282.37 1314.38,1234.81 1320.99,1182.66 1327.6,1126.36 1334.22,1066.33 1340.83,1004.16 1347.45,961.914 1354.06,902.842 1360.67,859.796 1367.29,818.831 1373.9,781.22 1380.52,749.058 1387.13,747.697 1393.74,737.827 1400.36,734.684 1406.97,676.026 1413.58,721.283 1420.2,740.983 1426.81,763.908 1433.43,788.629 1440.04,813.558 1446.65,837.3 1453.27,858.477 1459.88,875.743 1466.5,888.132 1473.11,870.699 1479.72,929.862 1486.34,937.852 1492.95,939.561 1499.57,934.485 1506.18,923.586 1512.79,907.637 1519.41,887.121 1526.02,862.263 1532.63,833.182 1539.25,800.136 1545.86,764.135 1552.48,727.56 1559.09,692.141 1565.7,658.748 1572.32,570.367 1578.93,544.792 1585.55,523.642 1592.16,506.493 1598.77,473.091 1605.39,473.124 1612,479.129 1618.62,488.869 1625.23,500.034 1631.84,511.674 1638.46,523.389 1645.07,534.913 1651.68,545.542 1658.3,554.881 1664.91,562.664 1671.53,568.817 1678.14,573.355 1684.75,576.349 1691.37,577.908 1697.98,578.182 1704.6,577.345 1711.21,575.596 1717.82,573.146 1724.44,570.206 1731.05,566.978 1737.67,563.646 1744.28,560.368 1750.89,557.274 1757.51,554.461 1764.12,551.997 1770.73,487.354 1777.35,485.628 1783.96,484.289 1790.58,483.315 1797.19,482.666 1803.8,482.297 1810.42,482.159 1817.03,482.199 1823.65,482.369 1830.26,482.624 1836.87,482.928 1843.49,483.248 1850.1,483.562 1856.71,483.851 1863.33,484.105 1869.94,484.319 1876.56,484.49 1883.17,484.622 1889.78,484.717 1896.4,484.78 1903.01,484.819 1909.63,484.838 1916.24,484.842 1922.85,484.837 1929.47,484.826 1936.08,484.812 1942.7,484.797 1949.31,484.783 1955.92,484.771 1962.54,484.76 1969.15,484.751 1975.76,484.745 1982.38,484.74 1988.99,484.737 1995.61,484.735 2002.22,484.733 2008.83,484.733 2015.45,484.732 2022.06,484.732 2028.68,484.733 2035.29,484.733 2041.9,484.733 2048.52,484.733 2055.13,484.734 2061.75,484.734 2068.36,484.734 2074.97,484.734 2081.59,484.734 2088.2,484.734 2094.81,484.734 2101.43,484.734 2108.04,484.734 2114.66,484.734 2121.27,484.734 2127.88,484.734 2134.5,484.734 2141.11,484.734 2147.73,484.734 2154.34,484.734 2160.95,484.734 2167.57,484.734 2174.18,484.734 2180.8,484.734 2187.41,484.734 2194.02,484.734 2200.64,484.734 2207.25,484.734 2213.86,484.734 2220.48,484.734 2227.09,484.734 2233.71,484.734 2240.32,484.734 2246.93,484.734 2253.55,484.734 2260.16,484.734 2266.78,484.734 2273.39,484.734 2280,484.734 2286.62,484.734 2293.23,484.734 "/>
<polyline clip-path="url(#clip392)" style="stroke:#e26f46; stroke-linecap:round; stroke-linejoin:round; stroke-width:4; stroke-opacity:1; fill:none" points="309.067,109.017 315.681,109.017 322.295,109.017 328.909,109.017 335.522,109.017 342.136,109.017 348.75,109.017 355.364,109.017 361.978,109.017 368.592,109.017 375.206,109.017 381.82,109.017 388.434,109.017 395.047,109.017 401.661,109.017 408.275,109.017 414.889,109.017 421.503,109.017 428.117,109.017 434.731,109.017 441.345,109.017 447.958,109.017 454.572,109.017 461.186,109.017 467.8,109.017 474.414,109.017 481.028,109.017 487.642,109.017 494.256,109.017 500.869,109.017 507.483,109.017 514.097,109.017 520.711,109.017 527.325,109.017 533.939,109.017 540.553,109.017 547.167,109.017 553.781,109.017 560.394,109.017 567.008,109.017 573.622,109.017 580.236,109.017 586.85,109.017 593.464,109.017 600.078,109.016 606.692,109.016 613.305,109.015 619.919,109.015 626.533,109.014 633.147,109.013 639.761,109.012 646.375,109.011 652.989,109.01 659.603,109.011 666.216,109.012 672.83,109.015 679.444,109.021 686.058,109.03 692.672,109.042 699.286,109.06 705.9,109.082 712.514,109.11 719.128,109.143 725.741,109.18 732.355,109.219 738.969,109.257 745.583,109.29 752.197,109.312 758.811,109.315 765.425,109.293 772.039,109.235 778.652,109.132 785.266,108.975 791.88,108.758 798.494,108.474 805.108,108.124 811.722,107.709 818.336,107.241 824.95,106.735 831.563,106.217 838.177,105.716 844.791,105.272 851.405,104.931 858.019,104.742 864.633,104.758 871.247,105.032 877.861,105.614 884.475,106.549 891.088,107.872 897.702,109.606 904.316,111.763 910.93,114.337 917.544,117.307 924.158,120.64 930.772,124.288 937.386,128.195 943.999,132.297 950.613,136.523 957.227,140.803 963.841,145.05 970.455,149.159 977.069,152.979 983.683,156.283 990.297,172.537 996.91,162.442 1003.52,149.947 1010.14,138.035 1016.75,127.646 1023.37,118.97 1029.98,111.863 1036.59,106.106 1043.21,101.521 1049.82,97.9898 1056.44,95.4487 1063.05,93.87 1069.66,93.2561 1076.28,93.6209 1082.89,94.9893 1089.5,97.3873 1096.12,100.84 1102.73,105.366 1109.35,110.973 1115.96,117.648 1122.57,125.359 1129.19,134.041 1135.8,143.595 1142.42,153.881 1149.03,164.705 1155.64,175.8 1162.26,186.791 1168.87,197.12 1175.49,206.002 1182.1,212.429 1188.71,215.209 1195.33,214.267 1201.94,209.961 1208.55,202.632 1215.17,192.59 1221.78,180.154 1228.4,165.724 1235.01,149.821 1241.62,133.124 1248.24,116.493 1254.85,101.012 1261.47,88.0448 1268.08,101.075 1274.69,89.6594 1281.31,86.1857 1287.92,94.2765 1294.54,115.37 1301.15,147.368 1307.76,188.049 1314.38,235.611 1320.99,287.767 1327.6,344.065 1334.22,404.099 1340.83,466.264 1347.45,508.51 1354.06,567.582 1360.67,610.628 1367.29,651.593 1373.9,689.204 1380.52,721.366 1387.13,722.727 1393.74,732.597 1400.36,735.74 1406.97,794.398 1413.58,749.141 1420.2,729.441 1426.81,706.516 1433.43,681.795 1440.04,656.866 1446.65,633.124 1453.27,611.947 1459.88,594.681 1466.5,582.292 1473.11,599.725 1479.72,540.562 1486.34,532.572 1492.95,530.863 1499.57,535.939 1506.18,546.838 1512.79,562.787 1519.41,583.303 1526.02,608.16 1532.63,637.242 1539.25,670.288 1545.86,706.289 1552.48,742.864 1559.09,778.283 1565.7,811.676 1572.32,900.057 1578.93,925.632 1585.55,946.782 1592.16,963.931 1598.77,997.333 1605.39,997.299 1612,991.295 1618.62,981.555 1625.23,970.39 1631.84,958.75 1638.46,947.035 1645.07,935.511 1651.68,924.882 1658.3,915.543 1664.91,907.76 1671.53,901.607 1678.14,897.069 1684.75,894.075 1691.37,892.515 1697.98,892.242 1704.6,893.079 1711.21,894.828 1717.82,897.278 1724.44,900.218 1731.05,903.446 1737.67,906.778 1744.28,910.056 1750.89,913.15 1757.51,915.963 1764.12,918.427 1770.73,983.07 1777.35,984.796 1783.96,986.135 1790.58,987.109 1797.19,987.758 1803.8,988.126 1810.42,988.265 1817.03,988.225 1823.65,988.055 1830.26,987.8 1836.87,987.496 1843.49,987.176 1850.1,986.862 1856.71,986.573 1863.33,986.319 1869.94,986.105 1876.56,985.933 1883.17,985.802 1889.78,985.707 1896.4,985.644 1903.01,985.605 1909.63,985.586 1916.24,985.582 1922.85,985.587 1929.47,985.598 1936.08,985.612 1942.7,985.627 1949.31,985.641 1955.92,985.653 1962.54,985.664 1969.15,985.673 1975.76,985.679 1982.38,985.684 1988.99,985.687 1995.61,985.689 2002.22,985.691 2008.83,985.691 2015.45,985.692 2022.06,985.691 2028.68,985.691 2035.29,985.691 2041.9,985.691 2048.52,985.691 2055.13,985.69 2061.75,985.69 2068.36,985.69 2074.97,985.69 2081.59,985.69 2088.2,985.69 2094.81,985.69 2101.43,985.69 2108.04,985.69 2114.66,985.69 2121.27,985.69 2127.88,985.69 2134.5,985.69 2141.11,985.69 2147.73,985.69 2154.34,985.69 2160.95,985.69 2167.57,985.69 2174.18,985.69 2180.8,985.69 2187.41,985.69 2194.02,985.69 2200.64,985.69 2207.25,985.69 2213.86,985.69 2220.48,985.69 2227.09,985.69 2233.71,985.69 2240.32,985.69 2246.93,985.69 2253.55,985.69 2260.16,985.69 2266.78,985.69 2273.39,985.69 2280,985.69 2286.62,985.69 2293.23,985.69 "/>
</svg>
