<?xml version="1.0" encoding="utf-8"?>
<svg xmlns="http://www.w3.org/2000/svg" xmlns:xlink="http://www.w3.org/1999/xlink" width="600" height="400" viewBox="0 0 2400 1600">
<defs>
  <clipPath id="clip290">
    <rect x="0" y="0" width="2400" height="1600"/>
  </clipPath>
</defs>
<path clip-path="url(#clip290)" d="M0 1600 L2400 1600 L2400 0 L0 0  Z" fill="#ffffff" fill-rule="evenodd" fill-opacity="1"/>
<defs>
  <clipPath id="clip291">
    <rect x="480" y="0" width="1681" height="1600"/>
  </clipPath>
</defs>
<path clip-path="url(#clip290)" d="M279.704 1423.18 L2352.76 1423.18 L2352.76 47.2441 L279.704 47.2441  Z" fill="#ffffff" fill-rule="evenodd" fill-opacity="1"/>
<defs>
  <clipPath id="clip292">
    <rect x="279" y="47" width="2074" height="1377"/>
  </clipPath>
</defs>
<polyline clip-path="url(#clip292)" style="stroke:#000000; stroke-linecap:round; stroke-linejoin:round; stroke-width:2; stroke-opacity:0.1; fill:none" points="337.397,1423.18 337.397,47.2441 "/>
<polyline clip-path="url(#clip292)" style="stroke:#000000; stroke-linecap:round; stroke-linejoin:round; stroke-width:2; stroke-opacity:0.1; fill:none" points="826.569,1423.18 826.569,47.2441 "/>
<polyline clip-path="url(#clip292)" style="stroke:#000000; stroke-linecap:round; stroke-linejoin:round; stroke-width:2; stroke-opacity:0.1; fill:none" points="1315.74,1423.18 1315.74,47.2441 "/>
<polyline clip-path="url(#clip292)" style="stroke:#000000; stroke-linecap:round; stroke-linejoin:round; stroke-width:2; stroke-opacity:0.1; fill:none" points="1804.91,1423.18 1804.91,47.2441 "/>
<polyline clip-path="url(#clip292)" style="stroke:#000000; stroke-linecap:round; stroke-linejoin:round; stroke-width:2; stroke-opacity:0.1; fill:none" points="2294.08,1423.18 2294.08,47.2441 "/>
<polyline clip-path="url(#clip290)" style="stroke:#000000; stroke-linecap:round; stroke-linejoin:round; stroke-width:4; stroke-opacity:1; fill:none" points="279.704,1423.18 2352.76,1423.18 "/>
<polyline clip-path="url(#clip290)" style="stroke:#000000; stroke-linecap:round; stroke-linejoin:round; stroke-width:4; stroke-opacity:1; fill:none" points="337.397,1423.18 337.397,1404.28 "/>
<polyline clip-path="url(#clip290)" style="stroke:#000000; stroke-linecap:round; stroke-linejoin:round; stroke-width:4; stroke-opacity:1; fill:none" points="826.569,1423.18 826.569,1404.28 "/>
<polyline clip-path="url(#clip290)" style="stroke:#000000; stroke-linecap:round; stroke-linejoin:round; stroke-width:4; stroke-opacity:1; fill:none" points="1315.74,1423.18 1315.74,1404.28 "/>
<polyline clip-path="url(#clip290)" style="stroke:#000000; stroke-linecap:round; stroke-linejoin:round; stroke-width:4; stroke-opacity:1; fill:none" points="1804.91,1423.18 1804.91,1404.28 "/>
<polyline clip-path="url(#clip290)" style="stroke:#000000; stroke-linecap:round; stroke-linejoin:round; stroke-width:4; stroke-opacity:1; fill:none" points="2294.08,1423.18 2294.08,1404.28 "/>
<path clip-path="url(#clip290)" d="M337.397 1454.1 Q333.786 1454.1 331.957 1457.66 Q330.152 1461.2 330.152 1468.33 Q330.152 1475.44 331.957 1479.01 Q333.786 1482.55 337.397 1482.55 Q341.031 1482.55 342.837 1479.01 Q344.665 1475.44 344.665 1468.33 Q344.665 1461.2 342.837 1457.66 Q341.031 1454.1 337.397 1454.1 M337.397 1450.39 Q343.207 1450.39 346.263 1455 Q349.341 1459.58 349.341 1468.33 Q349.341 1477.06 346.263 1481.67 Q343.207 1486.25 337.397 1486.25 Q331.587 1486.25 328.508 1481.67 Q325.452 1477.06 325.452 1468.33 Q325.452 1459.58 328.508 1455 Q331.587 1450.39 337.397 1450.39 Z" fill="#000000" fill-rule="nonzero" fill-opacity="1" /><path clip-path="url(#clip290)" d="M786.187 1451.02 L804.543 1451.02 L804.543 1454.96 L790.469 1454.96 L790.469 1463.43 Q791.488 1463.08 792.506 1462.92 Q793.525 1462.73 794.543 1462.73 Q800.331 1462.73 803.71 1465.9 Q807.09 1469.08 807.09 1474.49 Q807.09 1480.07 803.618 1483.17 Q800.145 1486.25 793.826 1486.25 Q791.65 1486.25 789.381 1485.88 Q787.136 1485.51 784.729 1484.77 L784.729 1480.07 Q786.812 1481.2 789.034 1481.76 Q791.256 1482.32 793.733 1482.32 Q797.738 1482.32 800.076 1480.21 Q802.414 1478.1 802.414 1474.49 Q802.414 1470.88 800.076 1468.77 Q797.738 1466.67 793.733 1466.67 Q791.858 1466.67 789.983 1467.08 Q788.131 1467.5 786.187 1468.38 L786.187 1451.02 Z" fill="#000000" fill-rule="nonzero" fill-opacity="1" /><path clip-path="url(#clip290)" d="M826.303 1454.1 Q822.691 1454.1 820.863 1457.66 Q819.057 1461.2 819.057 1468.33 Q819.057 1475.44 820.863 1479.01 Q822.691 1482.55 826.303 1482.55 Q829.937 1482.55 831.742 1479.01 Q833.571 1475.44 833.571 1468.33 Q833.571 1461.2 831.742 1457.66 Q829.937 1454.1 826.303 1454.1 M826.303 1450.39 Q832.113 1450.39 835.168 1455 Q838.247 1459.58 838.247 1468.33 Q838.247 1477.06 835.168 1481.67 Q832.113 1486.25 826.303 1486.25 Q820.492 1486.25 817.414 1481.67 Q814.358 1477.06 814.358 1468.33 Q814.358 1459.58 817.414 1455 Q820.492 1450.39 826.303 1450.39 Z" fill="#000000" fill-rule="nonzero" fill-opacity="1" /><path clip-path="url(#clip290)" d="M856.464 1454.1 Q852.853 1454.1 851.025 1457.66 Q849.219 1461.2 849.219 1468.33 Q849.219 1475.44 851.025 1479.01 Q852.853 1482.55 856.464 1482.55 Q860.099 1482.55 861.904 1479.01 Q863.733 1475.44 863.733 1468.33 Q863.733 1461.2 861.904 1457.66 Q860.099 1454.1 856.464 1454.1 M856.464 1450.39 Q862.275 1450.39 865.33 1455 Q868.409 1459.58 868.409 1468.33 Q868.409 1477.06 865.33 1481.67 Q862.275 1486.25 856.464 1486.25 Q850.654 1486.25 847.576 1481.67 Q844.52 1477.06 844.52 1468.33 Q844.52 1459.58 847.576 1455 Q850.654 1450.39 856.464 1450.39 Z" fill="#000000" fill-rule="nonzero" fill-opacity="1" /><path clip-path="url(#clip290)" d="M1260.27 1481.64 L1267.91 1481.64 L1267.91 1455.28 L1259.6 1456.95 L1259.6 1452.69 L1267.86 1451.02 L1272.53 1451.02 L1272.53 1481.64 L1280.17 1481.64 L1280.17 1485.58 L1260.27 1485.58 L1260.27 1481.64 Z" fill="#000000" fill-rule="nonzero" fill-opacity="1" /><path clip-path="url(#clip290)" d="M1299.62 1454.1 Q1296.01 1454.1 1294.18 1457.66 Q1292.37 1461.2 1292.37 1468.33 Q1292.37 1475.44 1294.18 1479.01 Q1296.01 1482.55 1299.62 1482.55 Q1303.25 1482.55 1305.06 1479.01 Q1306.89 1475.44 1306.89 1468.33 Q1306.89 1461.2 1305.06 1457.66 Q1303.25 1454.1 1299.62 1454.1 M1299.62 1450.39 Q1305.43 1450.39 1308.48 1455 Q1311.56 1459.58 1311.56 1468.33 Q1311.56 1477.06 1308.48 1481.67 Q1305.43 1486.25 1299.62 1486.25 Q1293.81 1486.25 1290.73 1481.67 Q1287.67 1477.06 1287.67 1468.33 Q1287.67 1459.58 1290.73 1455 Q1293.81 1450.39 1299.62 1450.39 Z" fill="#000000" fill-rule="nonzero" fill-opacity="1" /><path clip-path="url(#clip290)" d="M1329.78 1454.1 Q1326.17 1454.1 1324.34 1457.66 Q1322.53 1461.2 1322.53 1468.33 Q1322.53 1475.44 1324.34 1479.01 Q1326.17 1482.55 1329.78 1482.55 Q1333.41 1482.55 1335.22 1479.01 Q1337.05 1475.44 1337.05 1468.33 Q1337.05 1461.2 1335.22 1457.66 Q1333.41 1454.1 1329.78 1454.1 M1329.78 1450.39 Q1335.59 1450.39 1338.65 1455 Q1341.72 1459.58 1341.72 1468.33 Q1341.72 1477.06 1338.65 1481.67 Q1335.59 1486.25 1329.78 1486.25 Q1323.97 1486.25 1320.89 1481.67 Q1317.84 1477.06 1317.84 1468.33 Q1317.84 1459.58 1320.89 1455 Q1323.97 1450.39 1329.78 1450.39 Z" fill="#000000" fill-rule="nonzero" fill-opacity="1" /><path clip-path="url(#clip290)" d="M1359.94 1454.1 Q1356.33 1454.1 1354.5 1457.66 Q1352.7 1461.2 1352.7 1468.33 Q1352.7 1475.44 1354.5 1479.01 Q1356.33 1482.55 1359.94 1482.55 Q1363.58 1482.55 1365.38 1479.01 Q1367.21 1475.44 1367.21 1468.33 Q1367.21 1461.2 1365.38 1457.66 Q1363.58 1454.1 1359.94 1454.1 M1359.94 1450.39 Q1365.75 1450.39 1368.81 1455 Q1371.89 1459.58 1371.89 1468.33 Q1371.89 1477.06 1368.81 1481.67 Q1365.75 1486.25 1359.94 1486.25 Q1354.13 1486.25 1351.05 1481.67 Q1348 1477.06 1348 1468.33 Q1348 1459.58 1351.05 1455 Q1354.13 1450.39 1359.94 1450.39 Z" fill="#000000" fill-rule="nonzero" fill-opacity="1" /><path clip-path="url(#clip290)" d="M1749.44 1481.64 L1757.08 1481.64 L1757.08 1455.28 L1748.77 1456.95 L1748.77 1452.69 L1757.03 1451.02 L1761.71 1451.02 L1761.71 1481.64 L1769.35 1481.64 L1769.35 1485.58 L1749.44 1485.58 L1749.44 1481.64 Z" fill="#000000" fill-rule="nonzero" fill-opacity="1" /><path clip-path="url(#clip290)" d="M1778.84 1451.02 L1797.19 1451.02 L1797.19 1454.96 L1783.12 1454.96 L1783.12 1463.43 Q1784.14 1463.08 1785.16 1462.92 Q1786.17 1462.73 1787.19 1462.73 Q1792.98 1462.73 1796.36 1465.9 Q1799.74 1469.08 1799.74 1474.49 Q1799.74 1480.07 1796.27 1483.17 Q1792.79 1486.25 1786.48 1486.25 Q1784.3 1486.25 1782.03 1485.88 Q1779.79 1485.51 1777.38 1484.77 L1777.38 1480.07 Q1779.46 1481.2 1781.68 1481.76 Q1783.91 1482.32 1786.38 1482.32 Q1790.39 1482.32 1792.73 1480.21 Q1795.06 1478.1 1795.06 1474.49 Q1795.06 1470.88 1792.73 1468.77 Q1790.39 1466.67 1786.38 1466.67 Q1784.51 1466.67 1782.63 1467.08 Q1780.78 1467.5 1778.84 1468.38 L1778.84 1451.02 Z" fill="#000000" fill-rule="nonzero" fill-opacity="1" /><path clip-path="url(#clip290)" d="M1818.95 1454.1 Q1815.34 1454.1 1813.51 1457.66 Q1811.71 1461.2 1811.71 1468.33 Q1811.71 1475.44 1813.51 1479.01 Q1815.34 1482.55 1818.95 1482.55 Q1822.59 1482.55 1824.39 1479.01 Q1826.22 1475.44 1826.22 1468.33 Q1826.22 1461.2 1824.39 1457.66 Q1822.59 1454.1 1818.95 1454.1 M1818.95 1450.39 Q1824.76 1450.39 1827.82 1455 Q1830.9 1459.58 1830.9 1468.33 Q1830.9 1477.06 1827.82 1481.67 Q1824.76 1486.25 1818.95 1486.25 Q1813.14 1486.25 1810.06 1481.67 Q1807.01 1477.06 1807.01 1468.33 Q1807.01 1459.58 1810.06 1455 Q1813.14 1450.39 1818.95 1450.39 Z" fill="#000000" fill-rule="nonzero" fill-opacity="1" /><path clip-path="url(#clip290)" d="M1849.11 1454.1 Q1845.5 1454.1 1843.67 1457.66 Q1841.87 1461.2 1841.87 1468.33 Q1841.87 1475.44 1843.67 1479.01 Q1845.5 1482.55 1849.11 1482.55 Q1852.75 1482.55 1854.55 1479.01 Q1856.38 1475.44 1856.38 1468.33 Q1856.38 1461.2 1854.55 1457.66 Q1852.75 1454.1 1849.11 1454.1 M1849.11 1450.39 Q1854.92 1450.39 1857.98 1455 Q1861.06 1459.58 1861.06 1468.33 Q1861.06 1477.06 1857.98 1481.67 Q1854.92 1486.25 1849.11 1486.25 Q1843.3 1486.25 1840.22 1481.67 Q1837.17 1477.06 1837.17 1468.33 Q1837.17 1459.58 1840.22 1455 Q1843.3 1450.39 1849.11 1450.39 Z" fill="#000000" fill-rule="nonzero" fill-opacity="1" /><path clip-path="url(#clip290)" d="M2242.7 1481.64 L2259.02 1481.64 L2259.02 1485.58 L2237.07 1485.58 L2237.07 1481.64 Q2239.73 1478.89 2244.32 1474.26 Q2248.92 1469.61 2250.1 1468.27 Q2252.35 1465.74 2253.23 1464.01 Q2254.13 1462.25 2254.13 1460.56 Q2254.13 1457.8 2252.19 1456.07 Q2250.27 1454.33 2247.16 1454.33 Q2244.96 1454.33 2242.51 1455.09 Q2240.08 1455.86 2237.3 1457.41 L2237.3 1452.69 Q2240.13 1451.55 2242.58 1450.97 Q2245.03 1450.39 2247.07 1450.39 Q2252.44 1450.39 2255.64 1453.08 Q2258.83 1455.77 2258.83 1460.26 Q2258.83 1462.39 2258.02 1464.31 Q2257.23 1466.2 2255.13 1468.8 Q2254.55 1469.47 2251.45 1472.69 Q2248.34 1475.88 2242.7 1481.64 Z" fill="#000000" fill-rule="nonzero" fill-opacity="1" /><path clip-path="url(#clip290)" d="M2278.83 1454.1 Q2275.22 1454.1 2273.39 1457.66 Q2271.58 1461.2 2271.58 1468.33 Q2271.58 1475.44 2273.39 1479.01 Q2275.22 1482.55 2278.83 1482.55 Q2282.46 1482.55 2284.27 1479.01 Q2286.1 1475.44 2286.1 1468.33 Q2286.1 1461.2 2284.27 1457.66 Q2282.46 1454.1 2278.83 1454.1 M2278.83 1450.39 Q2284.64 1450.39 2287.7 1455 Q2290.77 1459.58 2290.77 1468.33 Q2290.77 1477.06 2287.7 1481.67 Q2284.64 1486.25 2278.83 1486.25 Q2273.02 1486.25 2269.94 1481.67 Q2266.89 1477.06 2266.89 1468.33 Q2266.89 1459.58 2269.94 1455 Q2273.02 1450.39 2278.83 1450.39 Z" fill="#000000" fill-rule="nonzero" fill-opacity="1" /><path clip-path="url(#clip290)" d="M2308.99 1454.1 Q2305.38 1454.1 2303.55 1457.66 Q2301.75 1461.2 2301.75 1468.33 Q2301.75 1475.44 2303.55 1479.01 Q2305.38 1482.55 2308.99 1482.55 Q2312.63 1482.55 2314.43 1479.01 Q2316.26 1475.44 2316.26 1468.33 Q2316.26 1461.2 2314.43 1457.66 Q2312.63 1454.1 2308.99 1454.1 M2308.99 1450.39 Q2314.8 1450.39 2317.86 1455 Q2320.94 1459.58 2320.94 1468.33 Q2320.94 1477.06 2317.86 1481.67 Q2314.8 1486.25 2308.99 1486.25 Q2303.18 1486.25 2300.1 1481.67 Q2297.05 1477.06 2297.05 1468.33 Q2297.05 1459.58 2300.1 1455 Q2303.18 1450.39 2308.99 1450.39 Z" fill="#000000" fill-rule="nonzero" fill-opacity="1" /><path clip-path="url(#clip290)" d="M2339.15 1454.1 Q2335.54 1454.1 2333.71 1457.66 Q2331.91 1461.2 2331.91 1468.33 Q2331.91 1475.44 2333.71 1479.01 Q2335.54 1482.55 2339.15 1482.55 Q2342.79 1482.55 2344.59 1479.01 Q2346.42 1475.44 2346.42 1468.33 Q2346.42 1461.2 2344.59 1457.66 Q2342.79 1454.1 2339.15 1454.1 M2339.15 1450.39 Q2344.96 1450.39 2348.02 1455 Q2351.1 1459.58 2351.1 1468.33 Q2351.1 1477.06 2348.02 1481.67 Q2344.96 1486.25 2339.15 1486.25 Q2333.34 1486.25 2330.26 1481.67 Q2327.21 1477.06 2327.21 1468.33 Q2327.21 1459.58 2330.26 1455 Q2333.34 1450.39 2339.15 1450.39 Z" fill="#000000" fill-rule="nonzero" fill-opacity="1" /><path clip-path="url(#clip290)" d="M1276.54 1522.08 L1276.54 1528.35 Q1272.88 1526.6 1269.63 1525.74 Q1266.39 1524.88 1263.36 1524.88 Q1258.11 1524.88 1255.25 1526.92 Q1252.41 1528.96 1252.41 1532.71 Q1252.41 1535.87 1254.29 1537.49 Q1256.2 1539.08 1261.48 1540.07 L1265.37 1540.86 Q1272.56 1542.23 1275.97 1545.7 Q1279.4 1549.14 1279.4 1554.93 Q1279.4 1561.84 1274.76 1565.4 Q1270.14 1568.97 1261.2 1568.97 Q1257.82 1568.97 1254.01 1568.2 Q1250.22 1567.44 1246.14 1565.94 L1246.14 1559.32 Q1250.06 1561.52 1253.81 1562.63 Q1257.57 1563.75 1261.2 1563.75 Q1266.7 1563.75 1269.7 1561.58 Q1272.69 1559.42 1272.69 1555.41 Q1272.69 1551.91 1270.52 1549.93 Q1268.39 1547.96 1263.49 1546.97 L1259.58 1546.21 Q1252.38 1544.78 1249.17 1541.72 Q1245.95 1538.67 1245.95 1533.22 Q1245.95 1526.92 1250.38 1523.29 Q1254.83 1519.66 1262.63 1519.66 Q1265.97 1519.66 1269.44 1520.27 Q1272.91 1520.87 1276.54 1522.08 Z" fill="#000000" fill-rule="nonzero" fill-opacity="1" /><path clip-path="url(#clip290)" d="M1294.97 1522.27 L1294.97 1532.4 L1307.03 1532.4 L1307.03 1536.95 L1294.97 1536.95 L1294.97 1556.3 Q1294.97 1560.66 1296.15 1561.9 Q1297.36 1563.14 1301.02 1563.14 L1307.03 1563.14 L1307.03 1568.04 L1301.02 1568.04 Q1294.24 1568.04 1291.66 1565.53 Q1289.08 1562.98 1289.08 1556.3 L1289.08 1536.95 L1284.78 1536.95 L1284.78 1532.4 L1289.08 1532.4 L1289.08 1522.27 L1294.97 1522.27 Z" fill="#000000" fill-rule="nonzero" fill-opacity="1" /><path clip-path="url(#clip290)" d="M1345.23 1548.76 L1345.23 1551.62 L1318.3 1551.62 Q1318.68 1557.67 1321.93 1560.85 Q1325.21 1564 1331.03 1564 Q1334.4 1564 1337.56 1563.17 Q1340.74 1562.35 1343.86 1560.69 L1343.86 1566.23 Q1340.71 1567.57 1337.4 1568.27 Q1334.09 1568.97 1330.68 1568.97 Q1322.15 1568.97 1317.15 1564 Q1312.19 1559.04 1312.19 1550.57 Q1312.19 1541.82 1316.9 1536.69 Q1321.64 1531.54 1329.66 1531.54 Q1336.85 1531.54 1341.02 1536.18 Q1345.23 1540.8 1345.23 1548.76 M1339.37 1547.04 Q1339.31 1542.23 1336.66 1539.37 Q1334.05 1536.5 1329.73 1536.5 Q1324.82 1536.5 1321.86 1539.27 Q1318.94 1542.04 1318.49 1547.07 L1339.37 1547.04 Z" fill="#000000" fill-rule="nonzero" fill-opacity="1" /><path clip-path="url(#clip290)" d="M1360.5 1562.7 L1360.5 1581.6 L1354.62 1581.6 L1354.62 1532.4 L1360.5 1532.4 L1360.5 1537.81 Q1362.35 1534.62 1365.15 1533.1 Q1367.98 1531.54 1371.9 1531.54 Q1378.39 1531.54 1382.43 1536.69 Q1386.51 1541.85 1386.51 1550.25 Q1386.51 1558.65 1382.43 1563.81 Q1378.39 1568.97 1371.9 1568.97 Q1367.98 1568.97 1365.15 1567.44 Q1362.35 1565.88 1360.5 1562.7 M1380.43 1550.25 Q1380.43 1543.79 1377.75 1540.13 Q1375.11 1536.44 1370.47 1536.44 Q1365.82 1536.44 1363.15 1540.13 Q1360.5 1543.79 1360.5 1550.25 Q1360.5 1556.71 1363.15 1560.4 Q1365.82 1564.07 1370.47 1564.07 Q1375.11 1564.07 1377.75 1560.4 Q1380.43 1556.71 1380.43 1550.25 Z" fill="#000000" fill-rule="nonzero" fill-opacity="1" /><polyline clip-path="url(#clip292)" style="stroke:#000000; stroke-linecap:round; stroke-linejoin:round; stroke-width:2; stroke-opacity:0.1; fill:none" points="279.704,1366.9 2352.76,1366.9 "/>
<polyline clip-path="url(#clip292)" style="stroke:#000000; stroke-linecap:round; stroke-linejoin:round; stroke-width:2; stroke-opacity:0.1; fill:none" points="279.704,1164.35 2352.76,1164.35 "/>
<polyline clip-path="url(#clip292)" style="stroke:#000000; stroke-linecap:round; stroke-linejoin:round; stroke-width:2; stroke-opacity:0.1; fill:none" points="279.704,961.791 2352.76,961.791 "/>
<polyline clip-path="url(#clip292)" style="stroke:#000000; stroke-linecap:round; stroke-linejoin:round; stroke-width:2; stroke-opacity:0.1; fill:none" points="279.704,759.233 2352.76,759.233 "/>
<polyline clip-path="url(#clip292)" style="stroke:#000000; stroke-linecap:round; stroke-linejoin:round; stroke-width:2; stroke-opacity:0.1; fill:none" points="279.704,556.676 2352.76,556.676 "/>
<polyline clip-path="url(#clip292)" style="stroke:#000000; stroke-linecap:round; stroke-linejoin:round; stroke-width:2; stroke-opacity:0.1; fill:none" points="279.704,354.119 2352.76,354.119 "/>
<polyline clip-path="url(#clip292)" style="stroke:#000000; stroke-linecap:round; stroke-linejoin:round; stroke-width:2; stroke-opacity:0.1; fill:none" points="279.704,151.562 2352.76,151.562 "/>
<polyline clip-path="url(#clip290)" style="stroke:#000000; stroke-linecap:round; stroke-linejoin:round; stroke-width:4; stroke-opacity:1; fill:none" points="279.704,1423.18 279.704,47.2441 "/>
<polyline clip-path="url(#clip290)" style="stroke:#000000; stroke-linecap:round; stroke-linejoin:round; stroke-width:4; stroke-opacity:1; fill:none" points="279.704,1366.9 298.602,1366.9 "/>
<polyline clip-path="url(#clip290)" style="stroke:#000000; stroke-linecap:round; stroke-linejoin:round; stroke-width:4; stroke-opacity:1; fill:none" points="279.704,1164.35 298.602,1164.35 "/>
<polyline clip-path="url(#clip290)" style="stroke:#000000; stroke-linecap:round; stroke-linejoin:round; stroke-width:4; stroke-opacity:1; fill:none" points="279.704,961.791 298.602,961.791 "/>
<polyline clip-path="url(#clip290)" style="stroke:#000000; stroke-linecap:round; stroke-linejoin:round; stroke-width:4; stroke-opacity:1; fill:none" points="279.704,759.233 298.602,759.233 "/>
<polyline clip-path="url(#clip290)" style="stroke:#000000; stroke-linecap:round; stroke-linejoin:round; stroke-width:4; stroke-opacity:1; fill:none" points="279.704,556.676 298.602,556.676 "/>
<polyline clip-path="url(#clip290)" style="stroke:#000000; stroke-linecap:round; stroke-linejoin:round; stroke-width:4; stroke-opacity:1; fill:none" points="279.704,354.119 298.602,354.119 "/>
<polyline clip-path="url(#clip290)" style="stroke:#000000; stroke-linecap:round; stroke-linejoin:round; stroke-width:4; stroke-opacity:1; fill:none" points="279.704,151.562 298.602,151.562 "/>
<path clip-path="url(#clip290)" d="M127.2 1352.7 Q123.589 1352.7 121.76 1356.27 Q119.955 1359.81 119.955 1366.94 Q119.955 1374.05 121.76 1377.61 Q123.589 1381.15 127.2 1381.15 Q130.834 1381.15 132.64 1377.61 Q134.468 1374.05 134.468 1366.94 Q134.468 1359.81 132.64 1356.27 Q130.834 1352.7 127.2 1352.7 M127.2 1349 Q133.01 1349 136.066 1353.61 Q139.144 1358.19 139.144 1366.94 Q139.144 1375.67 136.066 1380.27 Q133.01 1384.86 127.2 1384.86 Q121.39 1384.86 118.311 1380.27 Q115.256 1375.67 115.256 1366.94 Q115.256 1358.19 118.311 1353.61 Q121.39 1349 127.2 1349 Z" fill="#000000" fill-rule="nonzero" fill-opacity="1" /><path clip-path="url(#clip290)" d="M147.362 1378.31 L152.246 1378.31 L152.246 1384.18 L147.362 1384.18 L147.362 1378.31 Z" fill="#000000" fill-rule="nonzero" fill-opacity="1" /><path clip-path="url(#clip290)" d="M162.57 1383.47 L162.57 1379.21 Q164.329 1380.04 166.135 1380.48 Q167.94 1380.92 169.677 1380.92 Q174.306 1380.92 176.737 1377.82 Q179.19 1374.69 179.538 1368.35 Q178.195 1370.34 176.135 1371.41 Q174.075 1372.47 171.575 1372.47 Q166.39 1372.47 163.357 1369.35 Q160.348 1366.2 160.348 1360.76 Q160.348 1355.43 163.496 1352.22 Q166.644 1349 171.876 1349 Q177.871 1349 181.019 1353.61 Q184.19 1358.19 184.19 1366.94 Q184.19 1375.11 180.301 1379.99 Q176.436 1384.86 169.885 1384.86 Q168.126 1384.86 166.32 1384.51 Q164.515 1384.16 162.57 1383.47 M171.876 1368.81 Q175.024 1368.81 176.852 1366.66 Q178.704 1364.51 178.704 1360.76 Q178.704 1357.03 176.852 1354.88 Q175.024 1352.7 171.876 1352.7 Q168.727 1352.7 166.876 1354.88 Q165.047 1357.03 165.047 1360.76 Q165.047 1364.51 166.876 1366.66 Q168.727 1368.81 171.876 1368.81 Z" fill="#000000" fill-rule="nonzero" fill-opacity="1" /><path clip-path="url(#clip290)" d="M196.621 1380.25 L212.94 1380.25 L212.94 1384.18 L190.996 1384.18 L190.996 1380.25 Q193.658 1377.49 198.241 1372.87 Q202.848 1368.21 204.028 1366.87 Q206.274 1364.35 207.153 1362.61 Q208.056 1360.85 208.056 1359.16 Q208.056 1356.41 206.112 1354.67 Q204.19 1352.93 201.088 1352.93 Q198.889 1352.93 196.436 1353.7 Q194.005 1354.46 191.227 1356.01 L191.227 1351.29 Q194.051 1350.16 196.505 1349.58 Q198.959 1349 200.996 1349 Q206.366 1349 209.561 1351.68 Q212.755 1354.37 212.755 1358.86 Q212.755 1360.99 211.945 1362.91 Q211.158 1364.81 209.051 1367.4 Q208.473 1368.07 205.371 1371.29 Q202.269 1374.49 196.621 1380.25 Z" fill="#000000" fill-rule="nonzero" fill-opacity="1" /><path clip-path="url(#clip290)" d="M222.801 1349.62 L241.158 1349.62 L241.158 1353.56 L227.084 1353.56 L227.084 1362.03 Q228.102 1361.68 229.121 1361.52 Q230.139 1361.34 231.158 1361.34 Q236.945 1361.34 240.324 1364.51 Q243.704 1367.68 243.704 1373.1 Q243.704 1378.68 240.232 1381.78 Q236.76 1384.86 230.44 1384.86 Q228.264 1384.86 225.996 1384.49 Q223.75 1384.12 221.343 1383.37 L221.343 1378.68 Q223.426 1379.81 225.648 1380.37 Q227.871 1380.92 230.347 1380.92 Q234.352 1380.92 236.69 1378.81 Q239.028 1376.71 239.028 1373.1 Q239.028 1369.49 236.69 1367.38 Q234.352 1365.27 230.347 1365.27 Q228.473 1365.27 226.598 1365.69 Q224.746 1366.11 222.801 1366.99 L222.801 1349.62 Z" fill="#000000" fill-rule="nonzero" fill-opacity="1" /><path clip-path="url(#clip290)" d="M126.205 1150.15 Q122.593 1150.15 120.765 1153.71 Q118.959 1157.25 118.959 1164.38 Q118.959 1171.49 120.765 1175.05 Q122.593 1178.6 126.205 1178.6 Q129.839 1178.6 131.644 1175.05 Q133.473 1171.49 133.473 1164.38 Q133.473 1157.25 131.644 1153.71 Q129.839 1150.15 126.205 1150.15 M126.205 1146.44 Q132.015 1146.44 135.07 1151.05 Q138.149 1155.63 138.149 1164.38 Q138.149 1173.11 135.07 1177.72 Q132.015 1182.3 126.205 1182.3 Q120.394 1182.3 117.316 1177.72 Q114.26 1173.11 114.26 1164.38 Q114.26 1155.63 117.316 1151.05 Q120.394 1146.44 126.205 1146.44 Z" fill="#000000" fill-rule="nonzero" fill-opacity="1" /><path clip-path="url(#clip290)" d="M146.366 1175.75 L151.251 1175.75 L151.251 1181.63 L146.366 1181.63 L146.366 1175.75 Z" fill="#000000" fill-rule="nonzero" fill-opacity="1" /><path clip-path="url(#clip290)" d="M161.575 1180.91 L161.575 1176.65 Q163.334 1177.48 165.14 1177.92 Q166.945 1178.36 168.681 1178.36 Q173.311 1178.36 175.741 1175.26 Q178.195 1172.14 178.542 1165.79 Q177.2 1167.79 175.139 1168.85 Q173.079 1169.91 170.579 1169.91 Q165.394 1169.91 162.362 1166.79 Q159.353 1163.64 159.353 1158.2 Q159.353 1152.88 162.501 1149.66 Q165.649 1146.44 170.88 1146.44 Q176.876 1146.44 180.024 1151.05 Q183.195 1155.63 183.195 1164.38 Q183.195 1172.55 179.306 1177.44 Q175.44 1182.3 168.889 1182.3 Q167.13 1182.3 165.325 1181.95 Q163.519 1181.6 161.575 1180.91 M170.88 1166.26 Q174.028 1166.26 175.857 1164.1 Q177.709 1161.95 177.709 1158.2 Q177.709 1154.47 175.857 1152.32 Q174.028 1150.15 170.88 1150.15 Q167.732 1150.15 165.88 1152.32 Q164.052 1154.47 164.052 1158.2 Q164.052 1161.95 165.88 1164.1 Q167.732 1166.26 170.88 1166.26 Z" fill="#000000" fill-rule="nonzero" fill-opacity="1" /><path clip-path="url(#clip290)" d="M191.644 1147.07 L210 1147.07 L210 1151 L195.926 1151 L195.926 1159.47 Q196.945 1159.13 197.963 1158.97 Q198.982 1158.78 200 1158.78 Q205.787 1158.78 209.167 1161.95 Q212.547 1165.12 212.547 1170.54 Q212.547 1176.12 209.074 1179.22 Q205.602 1182.3 199.283 1182.3 Q197.107 1182.3 194.838 1181.93 Q192.593 1181.56 190.186 1180.82 L190.186 1176.12 Q192.269 1177.25 194.491 1177.81 Q196.713 1178.36 199.19 1178.36 Q203.195 1178.36 205.533 1176.26 Q207.871 1174.15 207.871 1170.54 Q207.871 1166.93 205.533 1164.82 Q203.195 1162.72 199.19 1162.72 Q197.315 1162.72 195.44 1163.13 Q193.588 1163.55 191.644 1164.43 L191.644 1147.07 Z" fill="#000000" fill-rule="nonzero" fill-opacity="1" /><path clip-path="url(#clip290)" d="M231.76 1150.15 Q228.148 1150.15 226.32 1153.71 Q224.514 1157.25 224.514 1164.38 Q224.514 1171.49 226.32 1175.05 Q228.148 1178.6 231.76 1178.6 Q235.394 1178.6 237.199 1175.05 Q239.028 1171.49 239.028 1164.38 Q239.028 1157.25 237.199 1153.71 Q235.394 1150.15 231.76 1150.15 M231.76 1146.44 Q237.57 1146.44 240.625 1151.05 Q243.704 1155.63 243.704 1164.38 Q243.704 1173.11 240.625 1177.72 Q237.57 1182.3 231.76 1182.3 Q225.949 1182.3 222.871 1177.72 Q219.815 1173.11 219.815 1164.38 Q219.815 1155.63 222.871 1151.05 Q225.949 1146.44 231.76 1146.44 Z" fill="#000000" fill-rule="nonzero" fill-opacity="1" /><path clip-path="url(#clip290)" d="M127.2 947.589 Q123.589 947.589 121.76 951.154 Q119.955 954.696 119.955 961.825 Q119.955 968.932 121.76 972.496 Q123.589 976.038 127.2 976.038 Q130.834 976.038 132.64 972.496 Q134.468 968.932 134.468 961.825 Q134.468 954.696 132.64 951.154 Q130.834 947.589 127.2 947.589 M127.2 943.886 Q133.01 943.886 136.066 948.492 Q139.144 953.075 139.144 961.825 Q139.144 970.552 136.066 975.158 Q133.01 979.742 127.2 979.742 Q121.39 979.742 118.311 975.158 Q115.256 970.552 115.256 961.825 Q115.256 953.075 118.311 948.492 Q121.39 943.886 127.2 943.886 Z" fill="#000000" fill-rule="nonzero" fill-opacity="1" /><path clip-path="url(#clip290)" d="M147.362 973.191 L152.246 973.191 L152.246 979.071 L147.362 979.071 L147.362 973.191 Z" fill="#000000" fill-rule="nonzero" fill-opacity="1" /><path clip-path="url(#clip290)" d="M162.57 978.353 L162.57 974.094 Q164.329 974.927 166.135 975.367 Q167.94 975.807 169.677 975.807 Q174.306 975.807 176.737 972.705 Q179.19 969.58 179.538 963.237 Q178.195 965.228 176.135 966.293 Q174.075 967.358 171.575 967.358 Q166.39 967.358 163.357 964.233 Q160.348 961.084 160.348 955.645 Q160.348 950.321 163.496 947.103 Q166.644 943.886 171.876 943.886 Q177.871 943.886 181.019 948.492 Q184.19 953.075 184.19 961.825 Q184.19 969.996 180.301 974.881 Q176.436 979.742 169.885 979.742 Q168.126 979.742 166.32 979.395 Q164.515 979.047 162.57 978.353 M171.876 963.7 Q175.024 963.7 176.852 961.547 Q178.704 959.395 178.704 955.645 Q178.704 951.918 176.852 949.765 Q175.024 947.589 171.876 947.589 Q168.727 947.589 166.876 949.765 Q165.047 951.918 165.047 955.645 Q165.047 959.395 166.876 961.547 Q168.727 963.7 171.876 963.7 Z" fill="#000000" fill-rule="nonzero" fill-opacity="1" /><path clip-path="url(#clip290)" d="M191.413 944.511 L213.635 944.511 L213.635 946.501 L201.088 979.071 L196.204 979.071 L208.01 948.446 L191.413 948.446 L191.413 944.511 Z" fill="#000000" fill-rule="nonzero" fill-opacity="1" /><path clip-path="url(#clip290)" d="M222.801 944.511 L241.158 944.511 L241.158 948.446 L227.084 948.446 L227.084 956.918 Q228.102 956.571 229.121 956.409 Q230.139 956.223 231.158 956.223 Q236.945 956.223 240.324 959.395 Q243.704 962.566 243.704 967.983 Q243.704 973.561 240.232 976.663 Q236.76 979.742 230.44 979.742 Q228.264 979.742 225.996 979.371 Q223.75 979.001 221.343 978.26 L221.343 973.561 Q223.426 974.696 225.648 975.251 Q227.871 975.807 230.347 975.807 Q234.352 975.807 236.69 973.7 Q239.028 971.594 239.028 967.983 Q239.028 964.372 236.69 962.265 Q234.352 960.159 230.347 960.159 Q228.473 960.159 226.598 960.575 Q224.746 960.992 222.801 961.872 L222.801 944.511 Z" fill="#000000" fill-rule="nonzero" fill-opacity="1" /><path clip-path="url(#clip290)" d="M117.015 772.578 L124.654 772.578 L124.654 746.213 L116.343 747.879 L116.343 743.62 L124.607 741.953 L129.283 741.953 L129.283 772.578 L136.922 772.578 L136.922 776.513 L117.015 776.513 L117.015 772.578 Z" fill="#000000" fill-rule="nonzero" fill-opacity="1" /><path clip-path="url(#clip290)" d="M146.366 770.634 L151.251 770.634 L151.251 776.513 L146.366 776.513 L146.366 770.634 Z" fill="#000000" fill-rule="nonzero" fill-opacity="1" /><path clip-path="url(#clip290)" d="M171.436 745.032 Q167.825 745.032 165.996 748.597 Q164.19 752.139 164.19 759.268 Q164.19 766.375 165.996 769.939 Q167.825 773.481 171.436 773.481 Q175.07 773.481 176.876 769.939 Q178.704 766.375 178.704 759.268 Q178.704 752.139 176.876 748.597 Q175.07 745.032 171.436 745.032 M171.436 741.328 Q177.246 741.328 180.301 745.935 Q183.38 750.518 183.38 759.268 Q183.38 767.995 180.301 772.601 Q177.246 777.185 171.436 777.185 Q165.626 777.185 162.547 772.601 Q159.491 767.995 159.491 759.268 Q159.491 750.518 162.547 745.935 Q165.626 741.328 171.436 741.328 Z" fill="#000000" fill-rule="nonzero" fill-opacity="1" /><path clip-path="url(#clip290)" d="M201.598 745.032 Q197.987 745.032 196.158 748.597 Q194.352 752.139 194.352 759.268 Q194.352 766.375 196.158 769.939 Q197.987 773.481 201.598 773.481 Q205.232 773.481 207.037 769.939 Q208.866 766.375 208.866 759.268 Q208.866 752.139 207.037 748.597 Q205.232 745.032 201.598 745.032 M201.598 741.328 Q207.408 741.328 210.463 745.935 Q213.542 750.518 213.542 759.268 Q213.542 767.995 210.463 772.601 Q207.408 777.185 201.598 777.185 Q195.787 777.185 192.709 772.601 Q189.653 767.995 189.653 759.268 Q189.653 750.518 192.709 745.935 Q195.787 741.328 201.598 741.328 Z" fill="#000000" fill-rule="nonzero" fill-opacity="1" /><path clip-path="url(#clip290)" d="M231.76 745.032 Q228.148 745.032 226.32 748.597 Q224.514 752.139 224.514 759.268 Q224.514 766.375 226.32 769.939 Q228.148 773.481 231.76 773.481 Q235.394 773.481 237.199 769.939 Q239.028 766.375 239.028 759.268 Q239.028 752.139 237.199 748.597 Q235.394 745.032 231.76 745.032 M231.76 741.328 Q237.57 741.328 240.625 745.935 Q243.704 750.518 243.704 759.268 Q243.704 767.995 240.625 772.601 Q237.57 777.185 231.76 777.185 Q225.949 777.185 222.871 772.601 Q219.815 767.995 219.815 759.268 Q219.815 750.518 222.871 745.935 Q225.949 741.328 231.76 741.328 Z" fill="#000000" fill-rule="nonzero" fill-opacity="1" /><path clip-path="url(#clip290)" d="M118.01 570.021 L125.649 570.021 L125.649 543.655 L117.339 545.322 L117.339 541.063 L125.603 539.396 L130.279 539.396 L130.279 570.021 L137.917 570.021 L137.917 573.956 L118.01 573.956 L118.01 570.021 Z" fill="#000000" fill-rule="nonzero" fill-opacity="1" /><path clip-path="url(#clip290)" d="M147.362 568.077 L152.246 568.077 L152.246 573.956 L147.362 573.956 L147.362 568.077 Z" fill="#000000" fill-rule="nonzero" fill-opacity="1" /><path clip-path="url(#clip290)" d="M172.431 542.475 Q168.82 542.475 166.991 546.04 Q165.186 549.581 165.186 556.711 Q165.186 563.817 166.991 567.382 Q168.82 570.924 172.431 570.924 Q176.065 570.924 177.871 567.382 Q179.7 563.817 179.7 556.711 Q179.7 549.581 177.871 546.04 Q176.065 542.475 172.431 542.475 M172.431 538.771 Q178.241 538.771 181.297 543.378 Q184.376 547.961 184.376 556.711 Q184.376 565.438 181.297 570.044 Q178.241 574.628 172.431 574.628 Q166.621 574.628 163.542 570.044 Q160.487 565.438 160.487 556.711 Q160.487 547.961 163.542 543.378 Q166.621 538.771 172.431 538.771 Z" fill="#000000" fill-rule="nonzero" fill-opacity="1" /><path clip-path="url(#clip290)" d="M196.621 570.021 L212.94 570.021 L212.94 573.956 L190.996 573.956 L190.996 570.021 Q193.658 567.266 198.241 562.637 Q202.848 557.984 204.028 556.642 Q206.274 554.118 207.153 552.382 Q208.056 550.623 208.056 548.933 Q208.056 546.179 206.112 544.443 Q204.19 542.706 201.088 542.706 Q198.889 542.706 196.436 543.47 Q194.005 544.234 191.227 545.785 L191.227 541.063 Q194.051 539.929 196.505 539.35 Q198.959 538.771 200.996 538.771 Q206.366 538.771 209.561 541.456 Q212.755 544.142 212.755 548.632 Q212.755 550.762 211.945 552.683 Q211.158 554.581 209.051 557.174 Q208.473 557.845 205.371 561.063 Q202.269 564.257 196.621 570.021 Z" fill="#000000" fill-rule="nonzero" fill-opacity="1" /><path clip-path="url(#clip290)" d="M222.801 539.396 L241.158 539.396 L241.158 543.331 L227.084 543.331 L227.084 551.804 Q228.102 551.456 229.121 551.294 Q230.139 551.109 231.158 551.109 Q236.945 551.109 240.324 554.28 Q243.704 557.452 243.704 562.868 Q243.704 568.447 240.232 571.549 Q236.76 574.628 230.44 574.628 Q228.264 574.628 225.996 574.257 Q223.75 573.887 221.343 573.146 L221.343 568.447 Q223.426 569.581 225.648 570.137 Q227.871 570.692 230.347 570.692 Q234.352 570.692 236.69 568.586 Q239.028 566.479 239.028 562.868 Q239.028 559.257 236.69 557.151 Q234.352 555.044 230.347 555.044 Q228.473 555.044 226.598 555.461 Q224.746 555.878 222.801 556.757 L222.801 539.396 Z" fill="#000000" fill-rule="nonzero" fill-opacity="1" /><path clip-path="url(#clip290)" d="M117.015 367.464 L124.654 367.464 L124.654 341.098 L116.343 342.765 L116.343 338.506 L124.607 336.839 L129.283 336.839 L129.283 367.464 L136.922 367.464 L136.922 371.399 L117.015 371.399 L117.015 367.464 Z" fill="#000000" fill-rule="nonzero" fill-opacity="1" /><path clip-path="url(#clip290)" d="M146.366 365.52 L151.251 365.52 L151.251 371.399 L146.366 371.399 L146.366 365.52 Z" fill="#000000" fill-rule="nonzero" fill-opacity="1" /><path clip-path="url(#clip290)" d="M171.436 339.918 Q167.825 339.918 165.996 343.483 Q164.19 347.024 164.19 354.154 Q164.19 361.26 165.996 364.825 Q167.825 368.367 171.436 368.367 Q175.07 368.367 176.876 364.825 Q178.704 361.26 178.704 354.154 Q178.704 347.024 176.876 343.483 Q175.07 339.918 171.436 339.918 M171.436 336.214 Q177.246 336.214 180.301 340.821 Q183.38 345.404 183.38 354.154 Q183.38 362.881 180.301 367.487 Q177.246 372.07 171.436 372.07 Q165.626 372.07 162.547 367.487 Q159.491 362.881 159.491 354.154 Q159.491 345.404 162.547 340.821 Q165.626 336.214 171.436 336.214 Z" fill="#000000" fill-rule="nonzero" fill-opacity="1" /><path clip-path="url(#clip290)" d="M191.644 336.839 L210 336.839 L210 340.774 L195.926 340.774 L195.926 349.246 Q196.945 348.899 197.963 348.737 Q198.982 348.552 200 348.552 Q205.787 348.552 209.167 351.723 Q212.547 354.895 212.547 360.311 Q212.547 365.89 209.074 368.992 Q205.602 372.07 199.283 372.07 Q197.107 372.07 194.838 371.7 Q192.593 371.33 190.186 370.589 L190.186 365.89 Q192.269 367.024 194.491 367.58 Q196.713 368.135 199.19 368.135 Q203.195 368.135 205.533 366.029 Q207.871 363.922 207.871 360.311 Q207.871 356.7 205.533 354.594 Q203.195 352.487 199.19 352.487 Q197.315 352.487 195.44 352.904 Q193.588 353.321 191.644 354.2 L191.644 336.839 Z" fill="#000000" fill-rule="nonzero" fill-opacity="1" /><path clip-path="url(#clip290)" d="M231.76 339.918 Q228.148 339.918 226.32 343.483 Q224.514 347.024 224.514 354.154 Q224.514 361.26 226.32 364.825 Q228.148 368.367 231.76 368.367 Q235.394 368.367 237.199 364.825 Q239.028 361.26 239.028 354.154 Q239.028 347.024 237.199 343.483 Q235.394 339.918 231.76 339.918 M231.76 336.214 Q237.57 336.214 240.625 340.821 Q243.704 345.404 243.704 354.154 Q243.704 362.881 240.625 367.487 Q237.57 372.07 231.76 372.07 Q225.949 372.07 222.871 367.487 Q219.815 362.881 219.815 354.154 Q219.815 345.404 222.871 340.821 Q225.949 336.214 231.76 336.214 Z" fill="#000000" fill-rule="nonzero" fill-opacity="1" /><path clip-path="url(#clip290)" d="M118.01 164.907 L125.649 164.907 L125.649 138.541 L117.339 140.208 L117.339 135.949 L125.603 134.282 L130.279 134.282 L130.279 164.907 L137.917 164.907 L137.917 168.842 L118.01 168.842 L118.01 164.907 Z" fill="#000000" fill-rule="nonzero" fill-opacity="1" /><path clip-path="url(#clip290)" d="M147.362 162.962 L152.246 162.962 L152.246 168.842 L147.362 168.842 L147.362 162.962 Z" fill="#000000" fill-rule="nonzero" fill-opacity="1" /><path clip-path="url(#clip290)" d="M172.431 137.361 Q168.82 137.361 166.991 140.926 Q165.186 144.467 165.186 151.597 Q165.186 158.703 166.991 162.268 Q168.82 165.81 172.431 165.81 Q176.065 165.81 177.871 162.268 Q179.7 158.703 179.7 151.597 Q179.7 144.467 177.871 140.926 Q176.065 137.361 172.431 137.361 M172.431 133.657 Q178.241 133.657 181.297 138.263 Q184.376 142.847 184.376 151.597 Q184.376 160.324 181.297 164.93 Q178.241 169.513 172.431 169.513 Q166.621 169.513 163.542 164.93 Q160.487 160.324 160.487 151.597 Q160.487 142.847 163.542 138.263 Q166.621 133.657 172.431 133.657 Z" fill="#000000" fill-rule="nonzero" fill-opacity="1" /><path clip-path="url(#clip290)" d="M191.413 134.282 L213.635 134.282 L213.635 136.273 L201.088 168.842 L196.204 168.842 L208.01 138.217 L191.413 138.217 L191.413 134.282 Z" fill="#000000" fill-rule="nonzero" fill-opacity="1" /><path clip-path="url(#clip290)" d="M222.801 134.282 L241.158 134.282 L241.158 138.217 L227.084 138.217 L227.084 146.689 Q228.102 146.342 229.121 146.18 Q230.139 145.995 231.158 145.995 Q236.945 145.995 240.324 149.166 Q243.704 152.337 243.704 157.754 Q243.704 163.333 240.232 166.435 Q236.76 169.513 230.44 169.513 Q228.264 169.513 225.996 169.143 Q223.75 168.773 221.343 168.032 L221.343 163.333 Q223.426 164.467 225.648 165.023 Q227.871 165.578 230.347 165.578 Q234.352 165.578 236.69 163.472 Q239.028 161.365 239.028 157.754 Q239.028 154.143 236.69 152.037 Q234.352 149.93 230.347 149.93 Q228.473 149.93 226.598 150.347 Q224.746 150.763 222.801 151.643 L222.801 134.282 Z" fill="#000000" fill-rule="nonzero" fill-opacity="1" /><path clip-path="url(#clip290)" d="M41.3104 920.709 L58.7206 920.709 L58.7206 910.396 Q58.7206 905.208 56.5881 902.726 Q54.4238 900.211 49.9996 900.211 Q45.5436 900.211 43.4429 902.726 Q41.3104 905.208 41.3104 910.396 L41.3104 920.709 M21.7677 920.709 L36.0905 920.709 L36.0905 911.192 Q36.0905 906.481 34.34 904.19 Q32.5576 901.866 28.9291 901.866 Q25.3325 901.866 23.5501 904.19 Q21.7677 906.481 21.7677 911.192 L21.7677 920.709 M16.4842 927.138 L16.4842 910.715 Q16.4842 903.362 19.5397 899.384 Q22.5952 895.405 28.2289 895.405 Q32.5894 895.405 35.1675 897.442 Q37.7456 899.479 38.3822 903.426 Q39.4007 898.683 42.6472 896.073 Q45.8619 893.432 50.6998 893.432 Q57.0655 893.432 60.5348 897.76 Q64.0042 902.089 64.0042 910.078 L64.0042 927.138 L16.4842 927.138 Z" fill="#000000" fill-rule="nonzero" fill-opacity="1" /><path clip-path="url(#clip290)" d="M32.4621 868.86 Q32.4621 873.571 36.1542 876.308 Q39.8145 879.045 46.212 879.045 Q52.6095 879.045 56.3017 876.34 Q59.9619 873.602 59.9619 868.86 Q59.9619 864.181 56.2698 861.444 Q52.5777 858.707 46.212 858.707 Q39.8781 858.707 36.186 861.444 Q32.4621 864.181 32.4621 868.86 M27.4968 868.86 Q27.4968 861.221 32.4621 856.861 Q37.4273 852.5 46.212 852.5 Q54.9649 852.5 59.9619 856.861 Q64.9272 861.221 64.9272 868.86 Q64.9272 876.531 59.9619 880.891 Q54.9649 885.22 46.212 885.22 Q37.4273 885.22 32.4621 880.891 Q27.4968 876.531 27.4968 868.86 Z" fill="#000000" fill-rule="nonzero" fill-opacity="1" /><path clip-path="url(#clip290)" d="M42.4881 813.16 L64.0042 813.16 L64.0042 819.016 L42.679 819.016 Q37.6183 819.016 35.1038 820.99 Q32.5894 822.963 32.5894 826.91 Q32.5894 831.652 35.6131 834.39 Q38.6368 837.127 43.8567 837.127 L64.0042 837.127 L64.0042 843.015 L28.3562 843.015 L28.3562 837.127 L33.8944 837.127 Q30.6797 835.026 29.0883 832.194 Q27.4968 829.329 27.4968 825.605 Q27.4968 819.462 31.3163 816.311 Q35.1038 813.16 42.4881 813.16 Z" fill="#000000" fill-rule="nonzero" fill-opacity="1" /><path clip-path="url(#clip290)" d="M33.7671 778.021 L14.479 778.021 L14.479 772.165 L64.0042 772.165 L64.0042 778.021 L58.657 778.021 Q61.8398 779.867 63.3994 782.7 Q64.9272 785.501 64.9272 789.448 Q64.9272 795.909 59.771 799.983 Q54.6147 804.025 46.212 804.025 Q37.8093 804.025 32.6531 799.983 Q27.4968 795.909 27.4968 789.448 Q27.4968 785.501 29.0564 782.7 Q30.5842 779.867 33.7671 778.021 M46.212 797.978 Q52.6732 797.978 56.3653 795.336 Q60.0256 792.662 60.0256 788.016 Q60.0256 783.369 56.3653 780.695 Q52.6732 778.021 46.212 778.021 Q39.7508 778.021 36.0905 780.695 Q32.3984 783.369 32.3984 788.016 Q32.3984 792.662 36.0905 795.336 Q39.7508 797.978 46.212 797.978 Z" fill="#000000" fill-rule="nonzero" fill-opacity="1" /><path clip-path="url(#clip290)" d="M14.479 739.382 L14.479 733.525 L64.0042 733.525 L64.0042 739.382 L14.479 739.382 Z" fill="#000000" fill-rule="nonzero" fill-opacity="1" /><path clip-path="url(#clip290)" d="M44.7161 690.779 L47.5806 690.779 L47.5806 717.706 Q53.6281 717.324 56.8109 714.078 Q59.9619 710.799 59.9619 704.975 Q59.9619 701.601 59.1344 698.45 Q58.3069 695.267 56.6518 692.148 L62.1899 692.148 Q63.5267 695.299 64.227 698.609 Q64.9272 701.919 64.9272 705.325 Q64.9272 713.855 59.9619 718.852 Q54.9967 723.817 46.5303 723.817 Q37.7774 723.817 32.6531 719.107 Q27.4968 714.364 27.4968 706.343 Q27.4968 699.15 32.1438 694.981 Q36.7589 690.779 44.7161 690.779 M42.9973 696.636 Q38.1912 696.699 35.3266 699.341 Q32.4621 701.951 32.4621 706.28 Q32.4621 711.181 35.2312 714.141 Q38.0002 717.07 43.0292 717.515 L42.9973 696.636 Z" fill="#000000" fill-rule="nonzero" fill-opacity="1" /><path clip-path="url(#clip290)" d="M42.4881 651.535 L64.0042 651.535 L64.0042 657.391 L42.679 657.391 Q37.6183 657.391 35.1038 659.365 Q32.5894 661.338 32.5894 665.285 Q32.5894 670.027 35.6131 672.764 Q38.6368 675.502 43.8567 675.502 L64.0042 675.502 L64.0042 681.39 L28.3562 681.39 L28.3562 675.502 L33.8944 675.502 Q30.6797 673.401 29.0883 670.568 Q27.4968 667.704 27.4968 663.98 Q27.4968 657.837 31.3163 654.686 Q35.1038 651.535 42.4881 651.535 Z" fill="#000000" fill-rule="nonzero" fill-opacity="1" /><path clip-path="url(#clip290)" d="M45.7664 616.396 Q39.4007 616.396 35.8996 619.038 Q32.3984 621.648 32.3984 626.39 Q32.3984 631.101 35.8996 633.743 Q39.4007 636.353 45.7664 636.353 Q52.1003 636.353 55.6014 633.743 Q59.1026 631.101 59.1026 626.39 Q59.1026 621.648 55.6014 619.038 Q52.1003 616.396 45.7664 616.396 M59.58 610.54 Q68.683 610.54 73.1071 614.582 Q77.5631 618.624 77.5631 626.963 Q77.5631 630.05 77.0857 632.788 Q76.6401 635.525 75.6852 638.103 L69.9879 638.103 Q71.3884 635.525 72.0568 633.011 Q72.7252 630.496 72.7252 627.886 Q72.7252 622.125 69.7015 619.261 Q66.7096 616.396 60.6303 616.396 L57.7339 616.396 Q60.885 618.21 62.4446 621.043 Q64.0042 623.876 64.0042 627.822 Q64.0042 634.379 59.0071 638.39 Q54.01 642.4 45.7664 642.4 Q37.491 642.4 32.4939 638.39 Q27.4968 634.379 27.4968 627.822 Q27.4968 623.876 29.0564 621.043 Q30.616 618.21 33.7671 616.396 L28.3562 616.396 L28.3562 610.54 L59.58 610.54 Z" fill="#000000" fill-rule="nonzero" fill-opacity="1" /><path clip-path="url(#clip290)" d="M18.2347 592.684 L28.3562 592.684 L28.3562 580.621 L32.9077 580.621 L32.9077 592.684 L52.2594 592.684 Q56.6199 592.684 57.8613 591.506 Q59.1026 590.297 59.1026 586.636 L59.1026 580.621 L64.0042 580.621 L64.0042 586.636 Q64.0042 593.416 61.4897 595.994 Q58.9434 598.572 52.2594 598.572 L32.9077 598.572 L32.9077 602.869 L28.3562 602.869 L28.3562 598.572 L18.2347 598.572 L18.2347 592.684 Z" fill="#000000" fill-rule="nonzero" fill-opacity="1" /><path clip-path="url(#clip290)" d="M42.4881 543.286 L64.0042 543.286 L64.0042 549.142 L42.679 549.142 Q37.6183 549.142 35.1038 551.116 Q32.5894 553.089 32.5894 557.036 Q32.5894 561.778 35.6131 564.516 Q38.6368 567.253 43.8567 567.253 L64.0042 567.253 L64.0042 573.141 L14.479 573.141 L14.479 567.253 L33.8944 567.253 Q30.6797 565.152 29.0883 562.319 Q27.4968 559.455 27.4968 555.731 Q27.4968 549.588 31.3163 546.437 Q35.1038 543.286 42.4881 543.286 Z" fill="#000000" fill-rule="nonzero" fill-opacity="1" /><polyline clip-path="url(#clip292)" style="stroke:#009af9; stroke-linecap:round; stroke-linejoin:round; stroke-width:4; stroke-opacity:1; fill:none" points="338.375,671.466 339.354,514.888 340.332,403.79 341.31,426.135 342.289,456.459 343.267,471.56 344.245,471.56 345.224,318.194 346.202,318.194 347.18,372.717 348.159,521.101 349.137,631.547 350.115,631.547 351.094,761.407 352.072,584.992 353.05,584.992 354.029,802.426 355.007,628.348 355.985,549.11 356.964,623.753 357.942,511.161 358.92,632.452 359.899,704.211 360.877,822.098 361.855,931.533 362.834,750.645 363.812,654.113 364.79,579.331 365.769,557.221 366.747,683.092 367.726,683.092 368.704,475.89 369.682,475.89 370.661,698.56 371.639,703.276 372.617,704.158 373.596,825.709 374.574,715.803 375.552,575.797 376.531,696.885 377.509,480.577 378.487,480.577 379.466,594.123 380.444,594.123 381.422,711.638 382.401,806.924 383.379,620.154 384.357,535.175 385.336,656.475 386.314,645.043 387.292,618.782 388.271,601.689 389.249,762.894 390.227,693.863 391.206,767.637 392.184,590.609 393.162,462.775 394.141,730.213 395.119,808.08 396.097,750.592 397.076,711.41 398.054,711.41 399.033,595.812 400.011,774.758 400.989,770.134 401.968,616.101 402.946,760.23 403.924,888.38 404.903,704.848 405.881,618.192 406.859,618.192 407.838,726.82 408.816,772.802 409.794,946.972 410.773,946.972 411.751,946.972 412.729,946.972 413.708,719.384 414.686,679.429 415.664,679.429 416.643,679.429 417.621,518.518 418.599,511.447 419.578,719.939 420.556,593.133 421.534,733.755 422.513,710.769 423.491,851.515 424.469,939.563 425.448,947.225 426.426,793.515 427.404,778.333 428.383,794.614 429.361,1001.08 430.34,1001.08 431.318,1069.72 432.296,1074.19 433.275,841.998 434.253,947.844 435.231,1129.07 436.21,966.212 437.188,966.212 438.166,966.212 439.145,864.668 440.123,926.958 441.101,1021.91 442.08,779.573 443.058,801.87 444.036,855.783 445.015,974.112 445.993,1100.06 446.971,1011.22 447.95,918.604 448.928,941.824 449.906,1111.11 450.885,1111.11 451.863,909.472 452.841,1100.84 453.82,1121.42 454.798,977.774 455.776,1072.83 456.755,847.023 457.733,794.947 458.711,800.222 459.69,696.435 460.668,791.707 461.647,867.072 462.625,982.12 463.603,982.12 464.582,931.652 465.56,773.36 466.538,758.052 467.517,786.855 468.495,921.169 469.473,893.93 470.452,752.174 471.43,781.393 472.408,649.766 473.387,555.413 474.365,562.708 475.343,602.08 476.322,723.527 477.3,610.877 478.278,610.877 479.257,610.156 480.235,674.173 481.213,780.651 482.192,867.096 483.17,867.096 484.148,743.547 485.127,740.147 486.105,740.147 487.083,753.759 488.062,721.466 489.04,577.206 490.018,827.835 490.997,827.835 491.975,762.207 492.954,776.912 493.932,572.447 494.91,368.846 495.889,326.71 496.867,340.439 497.845,524.375 498.824,731.07 499.802,714.67 500.78,596.531 501.759,737.781 502.737,826.135 503.715,832.01 504.694,722.524 505.672,914.525 506.65,914.525 507.629,747.904 508.607,786.627 509.585,841.674 510.564,644.591 511.542,644.591 512.52,746.883 513.499,805.51 514.477,711.461 515.455,707.329 516.434,693.766 517.412,563.862 518.39,749.4 519.369,882.405 520.347,1022.09 521.325,967.332 522.304,1137.48 523.282,1137.48 524.261,1133.76 525.239,1037.81 526.217,1231.93 527.196,1231.93 528.174,1228.73 529.152,1228.73 530.131,1128.76 531.109,903.045 532.087,778.854 533.066,778.854 534.044,630.022 535.022,756.656 536.001,806.054 536.979,880.994 537.957,855.263 538.936,623.716 539.914,680.378 540.892,696.166 541.871,543.495 542.849,583.141 543.827,432.535 544.806,432.535 545.784,328.48 546.762,328.48 547.741,328.48 548.719,230.64 549.697,368.129 550.676,447.301 551.654,596.879 552.633,504.14 553.611,518.701 554.589,562.869 555.568,716.573 556.546,716.573 557.524,687.376 558.503,590.948 559.481,695.937 560.459,837.504 561.438,837.504 562.416,1099.68 563.394,992.384 564.373,849.205 565.351,674.282 566.329,762.954 567.308,762.954 568.286,535.298 569.264,502.194 570.243,574.793 571.221,773.478 572.199,827.427 573.178,931.031 574.156,833.003 575.134,682.824 576.113,682.824 577.091,773.928 578.069,844.558 579.048,844.558 580.026,989.273 581.004,989.273 581.983,955.525 582.961,739.407 583.94,664.917 584.918,778.155 585.896,778.155 586.875,778.155 587.853,722.535 588.831,801.67 589.81,796.116 590.788,936.613 591.766,916.713 592.745,916.713 593.723,984.998 594.701,1013.76 595.68,765.95 596.658,559.18 597.636,447.581 598.615,455.549 599.593,426.698 600.571,408.528 601.55,437.576 602.528,460.397 603.506,536.717 604.485,355.015 605.463,318.486 606.441,220.428 607.42,220.428 608.398,428.287 609.376,500.071 610.355,603.333 611.333,603.333 612.311,463.834 613.29,536.622 614.268,536.622 615.247,672.934 616.225,861.794 617.203,739.597 618.182,652.63 619.16,503.857 620.138,430.824 621.117,358.102 622.095,545.676 623.073,545.676 624.052,680.968 625.03,912.528 626.008,731.239 626.987,860.638 627.965,693.234 628.943,782.203 629.922,822.864 630.9,833.599 631.878,878.341 632.857,751.462 633.835,832.518 634.813,808.299 635.792,711.714 636.77,711.714 637.748,740.601 638.727,497.455 639.705,441.18 640.683,441.18 641.662,577.692 642.64,684.772 643.618,684.772 644.597,861.025 645.575,861.025 646.554,910.984 647.532,828.965 648.51,1011.53 649.489,1186.04 650.467,1151.45 651.445,1319.58 652.424,1280.6 653.402,1235.37 654.38,1235.37 655.359,1179.03 656.337,1098.17 657.315,1098.17 658.294,1031.69 659.272,1031.69 660.25,1031.69 661.229,780.539 662.207,493.854 663.185,485.904 664.164,485.904 665.142,582.365 666.12,414.501 667.099,467.611 668.077,447.875 669.055,447.875 670.034,281.221 671.012,305.621 671.99,289.936 672.969,345.722 673.947,555.425 674.925,711.272 675.904,711.272 676.882,711.272 677.861,711.272 678.839,609.849 679.817,602.742 680.796,748.738 681.774,748.738 682.752,954.96 683.731,785.263 684.709,914.452 685.687,914.452 686.666,914.452 687.644,800.395 688.622,897.848 689.601,897.848 690.579,923.994 691.557,923.994 692.536,923.994 693.514,1026.28 694.492,786.316 695.471,843.913 696.449,734.906 697.427,875.996 698.406,875.996 699.384,834.151 700.362,761.408 701.341,751.48 702.319,871.778 703.297,795.878 704.276,731.468 705.254,553.429 706.232,640.875 707.211,640.875 708.189,640.875 709.168,634.002 710.146,686.047 711.124,727.996 712.103,535.013 713.081,795.004 714.059,795.004 715.038,754.049 716.016,814.773 716.994,720.831 717.973,678.613 718.951,724.048 719.929,468.388 720.908,468.388 721.886,571.922 722.864,460.496 723.843,382.016 724.821,245.395 725.799,312.443 726.778,325.37 727.756,349.477 728.734,438.634 729.713,573.189 730.691,573.189 731.669,775.772 732.648,775.772 733.626,786.355 734.604,674.596 735.583,637.885 736.561,901.731 737.539,896.307 738.518,797.115 739.496,624.964 740.475,597.835 741.453,723.751 742.431,863.638 743.41,694.892 744.388,563.912 745.366,563.912 746.345,563.912 747.323,652.022 748.301,652.022 749.28,731.245 750.258,799.661 751.236,893.663 752.215,1123.97 753.193,1123.97 754.171,1174.5 755.15,1193.77 756.128,1084.05 757.106,952.298 758.085,736.121 759.063,844.651 760.041,829.304 761.02,993.536 761.998,951.771 762.976,1155.4 763.955,1024.72 764.933,840.043 765.911,825.566 766.89,825.566 767.868,822.06 768.847,976.95 769.825,832.688 770.803,602.074 771.782,652.436 772.76,830.75 773.738,911.711 774.717,1050.65 775.695,1050.65 776.673,985.435 777.652,865.536 778.63,794.718 779.608,750.399 780.587,547.967 781.565,771.202 782.543,578.451 783.522,521.081 784.5,523.152 785.478,613.164 786.457,641.69 787.435,693.251 788.413,858.116 789.392,755.981 790.37,531.89 791.348,396.316 792.327,456.218 793.305,299.661 794.283,491.683 795.262,644.149 796.24,539.516 797.218,524.425 798.197,597.574 799.175,597.574 800.154,561.579 801.132,569.018 802.11,746.202 803.089,503.75 804.067,360.943 805.045,565.06 806.024,583.364 807.002,609.963 807.98,618.124 808.959,617.848 809.937,459.36 810.915,509.372 811.894,570.227 812.872,689.144 813.85,518.972 814.829,806.005 815.807,572.925 816.785,542.266 817.764,630.723 818.742,551.636 819.72,671.22 820.699,633.316 821.677,637.891 822.655,770.214 823.634,646.973 824.612,395.471 825.59,487.879 826.569,721.327 827.547,720.354 828.525,575.99 829.504,575.99 830.482,729.559 831.461,681.212 832.439,810.53 833.417,810.53 834.396,676.898 835.374,611.964 836.352,426.895 837.331,402.219 838.309,402.219 839.287,664.843 840.266,749.308 841.244,627.823 842.222,523.096 843.201,523.096 844.179,684.232 845.157,718.257 846.136,760.527 847.114,611.51 848.092,479.956 849.071,625.842 850.049,493.07 851.027,541.396 852.006,424.939 852.984,473.297 853.962,504.776 854.941,504.776 855.919,547.841 856.897,547.841 857.876,772.338 858.854,687.932 859.832,709.045 860.811,725.316 861.789,1009.12 862.768,1188.91 863.746,1049.76 864.724,1003.31 865.703,1020.99 866.681,1142.04 867.659,1015.43 868.638,1208.47 869.616,1208.47 870.594,1092.89 871.573,1092.89 872.551,885.352 873.529,805.983 874.508,805.983 875.486,805.983 876.464,853.496 877.443,921.747 878.421,792.192 879.399,792.192 880.378,594.023 881.356,518.39 882.334,517.364 883.313,517.364 884.291,517.364 885.269,574.574 886.248,643.962 887.226,744.49 888.204,931.064 889.183,931.064 890.161,867.355 891.139,868.77 892.118,880.395 893.096,880.395 894.075,880.395 895.053,954.425 896.031,999.29 897.01,794.541 897.988,980.61 898.966,910.906 899.945,769.879 900.923,857.026 901.901,635.89 902.88,662.714 903.858,759.774 904.836,737.624 905.815,816.25 906.793,535.538 907.771,535.538 908.75,535.538 909.728,586.052 910.706,657.235 911.685,763.89 912.663,567.049 913.641,597.317 914.62,597.317 915.598,444.068 916.576,328.492 917.555,512.784 918.533,748.355 919.511,574.788 920.49,574.788 921.468,707.759 922.446,669.884 923.425,765.809 924.403,541.102 925.382,501.173 926.36,449.41 927.338,670.487 928.317,573.077 929.295,453.379 930.273,453.379 931.252,536.723 932.23,406.045 933.208,417.442 934.187,644.063 935.165,366.105 936.143,376.861 937.122,408.573 938.1,408.573 939.078,273.49 940.057,164.72 941.035,262.071 942.013,262.071 942.992,262.071 943.97,466.137 944.948,527.265 945.927,291.907 946.905,261.755 947.883,261.755 948.862,309.357 949.84,309.357 950.818,285.614 951.797,285.614 952.775,290.549 953.753,370.647 954.732,370.865 955.71,427.351 956.689,339.281 957.667,454.388 958.645,340.671 959.624,340.671 960.602,556.049 961.58,556.049 962.559,650.428 963.537,718.922 964.515,655.744 965.494,553.768 966.472,457.615 967.45,457.615 968.429,367.422 969.407,329.126 970.385,446.359 971.364,516.319 972.342,516.319 973.32,661.836 974.299,480.048 975.277,480.048 976.255,545.793 977.234,739.48 978.212,711.615 979.19,711.615 980.169,711.615 981.147,685.108 982.125,755.191 983.104,778.396 984.082,765.102 985.061,885.36 986.039,1052.58 987.017,923.637 987.996,967.319 988.974,1015.35 989.952,1015.35 990.931,1178.18 991.909,1178.18 992.887,1178.18 993.866,1093.04 994.844,1261.25 995.822,1056.51 996.801,1177.11 997.779,1024 998.757,842.309 999.736,588.965 1000.71,587.494 1001.69,642.122 1002.67,482.623 1003.65,506.083 1004.63,418.233 1005.61,418.233 1006.58,444.59 1007.56,444.59 1008.54,498.783 1009.52,498.783 1010.5,753.048 1011.48,859.011 1012.45,1007.13 1013.43,1000.3 1014.41,1000.3 1015.39,1054.56 1016.37,929.227 1017.35,1019.09 1018.32,845.659 1019.3,845.659 1020.28,827.101 1021.26,828.286 1022.24,752.581 1023.22,759.172 1024.19,704.316 1025.17,901.877 1026.15,673.315 1027.13,569.753 1028.11,651.154 1029.09,614.863 1030.06,441.051 1031.04,398.512 1032.02,332.715 1033,127.827 1033.98,127.827 1034.96,86.1857 1035.93,136.817 1036.91,363.247 1037.89,363.247 1038.87,491.85 1039.85,522.436 1040.83,522.436 1041.8,478.017 1042.78,753.291 1043.76,753.291 1044.74,818.031 1045.72,521.815 1046.7,822.124 1047.67,822.124 1048.65,913.066 1049.63,852.759 1050.61,852.759 1051.59,631.321 1052.57,641.117 1053.54,568.214 1054.52,672.118 1055.5,738.626 1056.48,799.805 1057.46,945.018 1058.44,770.177 1059.41,770.177 1060.39,549.966 1061.37,693.133 1062.35,693.133 1063.33,705.427 1064.31,864.565 1065.28,708.292 1066.26,935.785 1067.24,853.894 1068.22,604.794 1069.2,758.1 1070.18,886.384 1071.15,951.666 1072.13,964.32 1073.11,1042.93 1074.09,743.305 1075.07,653.144 1076.05,767.962 1077.02,919.674 1078,1003.83 1078.98,971.342 1079.96,971.342 1080.94,790.25 1081.92,510.533 1082.89,530.135 1083.87,546.775 1084.85,639.385 1085.83,650.664 1086.81,714.927 1087.79,553.955 1088.76,627.321 1089.74,760.056 1090.72,948.2 1091.7,906.979 1092.68,906.979 1093.66,1094.47 1094.64,958.574 1095.61,958.574 1096.59,1051.09 1097.57,848.271 1098.55,867.951 1099.53,608.581 1100.51,632.483 1101.48,631.846 1102.46,668.097 1103.44,572.501 1104.42,428.947 1105.4,583.006 1106.38,686.5 1107.35,665.776 1108.33,498.035 1109.31,552.554 1110.29,552.554 1111.27,638.691 1112.25,724.421 1113.22,731.337 1114.2,952.624 1115.18,1010.64 1116.16,1052.04 1117.14,1063.45 1118.12,1063.45 1119.09,1089.85 1120.07,970.12 1121.05,1045.16 1122.03,1083.94 1123.01,1051.41 1123.99,943.879 1124.96,978.709 1125.94,960.112 1126.92,916.809 1127.9,949.412 1128.88,883.532 1129.86,1045.62 1130.83,1045.62 1131.81,1044.72 1132.79,964.458 1133.77,934.404 1134.75,665.975 1135.73,725.834 1136.7,518.904 1137.68,626.324 1138.66,572.266 1139.64,691.166 1140.62,860.723 1141.6,1055.62 1142.57,1055.62 1143.55,985.61 1144.53,774.922 1145.51,840.129 1146.49,535.291 1147.47,365.827 1148.44,365.827 1149.42,446.003 1150.4,392.832 1151.38,548.835 1152.36,548.835 1153.34,548.835 1154.31,610.641 1155.29,615.88 1156.27,770.747 1157.25,871.57 1158.23,871.57 1159.21,923.21 1160.18,849.264 1161.16,971.694 1162.14,871.477 1163.12,701.831 1164.1,777.7 1165.08,847.921 1166.05,802.065 1167.03,968.546 1168.01,1048.37 1168.99,917.256 1169.97,783.191 1170.95,598.925 1171.92,546.437 1172.9,473.997 1173.88,406.162 1174.86,321.258 1175.84,348.268 1176.82,348.268 1177.79,348.268 1178.77,464.366 1179.75,464.366 1180.73,732.325 1181.71,858.446 1182.69,749.015 1183.66,935.578 1184.64,935.578 1185.62,1034.79 1186.6,1220.93 1187.58,1033.56 1188.56,1138.18 1189.53,1129.39 1190.51,1264.66 1191.49,1243.31 1192.47,1187.29 1193.45,1211.66 1194.43,1382.61 1195.4,1229.73 1196.38,1187.16 1197.36,1126.39 1198.34,1126.39 1199.32,1102.2 1200.3,799.647 1201.27,816.366 1202.25,923.444 1203.23,1122.88 1204.21,1047.89 1205.19,861.926 1206.17,857.815 1207.14,1023.82 1208.12,895.484 1209.1,1116.26 1210.08,1116.26 1211.06,1116.26 1212.04,1050.18 1213.01,1048.47 1213.99,1039.88 1214.97,887.074 1215.95,816.645 1216.93,968.981 1217.91,895.049 1218.88,899.215 1219.86,792.149 1220.84,826.781 1221.82,715.872 1222.8,661.076 1223.78,499.093 1224.75,456.417 1225.73,656.536 1226.71,656.536 1227.69,576.437 1228.67,701.687 1229.65,771.238 1230.62,652.499 1231.6,734.095 1232.58,589.488 1233.56,432.708 1234.54,432.708 1235.52,432.708 1236.49,466.796 1237.47,381.239 1238.45,474.854 1239.43,640.546 1240.41,777.745 1241.39,629.102 1242.36,675.928 1243.34,846.313 1244.32,599.291 1245.3,591.655 1246.28,432.141 1247.26,668.022 1248.24,543.702 1249.21,619.91 1250.19,684.438 1251.17,684.438 1252.15,721.361 1253.13,784.138 1254.11,711.129 1255.08,878.315 1256.06,740.698 1257.04,524.589 1258.02,511.016 1259,267.366 1259.98,344.423 1260.95,407.688 1261.93,254.376 1262.91,300.482 1263.89,300.482 1264.87,441.267 1265.85,327.536 1266.82,327.536 1267.8,327.536 1268.78,332.801 1269.76,395.089 1270.74,395.089 1271.72,303.342 1272.69,343.063 1273.67,115.62 1274.65,115.62 1275.63,115.62 1276.61,193.706 1277.59,175.469 1278.56,175.469 1279.54,90.5744 1280.52,163.532 1281.5,318.206 1282.48,502.71 1283.46,721.332 1284.43,511.304 1285.41,524.044 1286.39,524.044 1287.37,673.038 1288.35,550.545 1289.33,665.552 1290.3,634.293 1291.28,774.563 1292.26,689.178 1293.24,926.894 1294.22,1035.42 1295.2,812.597 1296.17,788.207 1297.15,788.207 1298.13,954.326 1299.11,1190.89 1300.09,988.305 1301.07,905.273 1302.04,926.248 1303.02,978.833 1304,1179.53 1304.98,984.046 1305.96,818.413 1306.94,813.563 1307.91,913.7 1308.89,913.7 1309.87,771.846 1310.85,713.645 1311.83,698.677 1312.81,733.138 1313.78,512.647 1314.76,435.548 1315.74,631.583 1316.72,631.583 1317.7,757.709 1318.68,934.474 1319.65,794.73 1320.63,609.715 1321.61,820.178 1322.59,820.178 1323.57,591.006 1324.55,496.571 1325.52,496.571 1326.5,487.627 1327.48,622.338 1328.46,771.872 1329.44,699.69 1330.42,672.478 1331.39,884.081 1332.37,889.293 1333.35,889.293 1334.33,770.3 1335.31,875.46 1336.29,751.781 1337.26,751.781 1338.24,879.866 1339.22,744.899 1340.2,566.243 1341.18,493.141 1342.16,580.031 1343.13,756.77 1344.11,666.898 1345.09,716.075 1346.07,634.179 1347.05,643.372 1348.03,755.515 1349,586.125 1349.98,518.634 1350.96,518.634 1351.94,552.775 1352.92,566.246 1353.9,514.759 1354.87,670.627 1355.85,819.085 1356.83,819.085 1357.81,1002 1358.79,880.225 1359.77,872.058 1360.74,872.058 1361.72,872.058 1362.7,872.058 1363.68,696.649 1364.66,504.571 1365.64,318.944 1366.61,318.944 1367.59,341.425 1368.57,514.735 1369.55,552.793 1370.53,381.339 1371.51,534.54 1372.48,364.255 1373.46,570.082 1374.44,796.44 1375.42,819.932 1376.4,679.422 1377.38,676.869 1378.35,463.479 1379.33,354.024 1380.31,354.024 1381.29,354.024 1382.27,133.84 1383.25,249.21 1384.22,329.547 1385.2,314.84 1386.18,351.464 1387.16,351.464 1388.14,351.464 1389.12,533.071 1390.09,467.812 1391.07,364.189 1392.05,307.033 1393.03,223.34 1394.01,201.56 1394.99,201.56 1395.96,440.012 1396.94,336.888 1397.92,336.888 1398.9,430.815 1399.88,303.371 1400.86,303.371 1401.83,242.894 1402.81,242.894 1403.79,210.354 1404.77,429.343 1405.75,566.016 1406.73,736.07 1407.71,935.302 1408.68,826.255 1409.66,970.36 1410.64,1105.72 1411.62,853.674 1412.6,882.251 1413.58,888.21 1414.55,961.314 1415.53,961.314 1416.51,961.314 1417.49,961.314 1418.47,961.314 1419.45,1083.52 1420.42,914.377 1421.4,1089.28 1422.38,997.194 1423.36,1041.47 1424.34,976.742 1425.32,976.742 1426.29,976.742 1427.27,943.618 1428.25,793.648 1429.23,703.288 1430.21,788.925 1431.19,788.925 1432.16,702.671 1433.14,768.041 1434.12,639.397 1435.1,765.902 1436.08,748.935 1437.06,631.987 1438.03,562.688 1439.01,738.851 1439.99,833.669 1440.97,744.831 1441.95,754.165 1442.93,561.122 1443.9,561.122 1444.88,567.781 1445.86,567.781 1446.84,621.426 1447.82,516.924 1448.8,516.924 1449.77,660.635 1450.75,660.635 1451.73,773.586 1452.71,890.549 1453.69,890.549 1454.67,1002.26 1455.64,870.648 1456.62,879.805 1457.6,879.805 1458.58,705.175 1459.56,773.158 1460.54,771.376 1461.51,598.264 1462.49,615.26 1463.47,601.138 1464.45,625.287 1465.43,647.392 1466.41,506.984 1467.38,583.767 1468.36,732.994 1469.34,612.811 1470.32,759.135 1471.3,759.135 1472.28,796.968 1473.25,681.742 1474.23,747.417 1475.21,876.973 1476.19,666.292 1477.17,848.904 1478.15,766.363 1479.12,619.876 1480.1,589.311 1481.08,548.674 1482.06,760.721 1483.04,798.391 1484.02,830.496 1484.99,644.513 1485.97,610.574 1486.95,575.849 1487.93,676.764 1488.91,676.764 1489.89,676.764 1490.86,676.764 1491.84,490.939 1492.82,641.179 1493.8,641.179 1494.78,641.179 1495.76,550.713 1496.73,594.982 1497.71,463.087 1498.69,414.251 1499.67,552.156 1500.65,588.409 1501.63,673.325 1502.6,756.061 1503.58,726.264 1504.56,548.699 1505.54,548.699 1506.52,681.777 1507.5,846.588 1508.47,801.752 1509.45,683.977 1510.43,908.348 1511.41,789.191 1512.39,895.991 1513.37,766.117 1514.34,754.887 1515.32,852.057 1516.3,677.153 1517.28,682.062 1518.26,831.101 1519.24,952.842 1520.21,1006 1521.19,842.764 1522.17,795.466 1523.15,697.281 1524.13,843.663 1525.11,843.663 1526.08,965.531 1527.06,783.468 1528.04,746.436 1529.02,894.704 1530,983.236 1530.98,856.039 1531.95,979.416 1532.93,1125.37 1533.91,960.66 1534.89,711.557 1535.87,682.517 1536.85,682.517 1537.82,713.014 1538.8,855.347 1539.78,646.851 1540.76,826.879 1541.74,911.572 1542.72,680.139 1543.69,680.139 1544.67,669.089 1545.65,556.633 1546.63,740.825 1547.61,759.65 1548.59,848.247 1549.56,859.246 1550.54,1037.94 1551.52,1107.26 1552.5,1063.77 1553.48,989.324 1554.46,1021.73 1555.43,1165.27 1556.41,1123.06 1557.39,1262.35 1558.37,1205.08 1559.35,1053.49 1560.33,1056.65 1561.31,1124.69 1562.28,979.137 1563.26,903.017 1564.24,782.392 1565.22,962.821 1566.2,962.821 1567.18,808.22 1568.15,758.274 1569.13,758.274 1570.11,635.351 1571.09,609.099 1572.07,714.59 1573.05,949.044 1574.02,991.711 1575,795.634 1575.98,639.543 1576.96,734.946 1577.94,525.578 1578.92,603.689 1579.89,520.932 1580.87,441.016 1581.85,688.353 1582.83,925.889 1583.81,752.952 1584.79,668.219 1585.76,533.072 1586.74,595.433 1587.72,645.556 1588.7,680.395 1589.68,628.381 1590.66,418.47 1591.63,229.118 1592.61,187.138 1593.59,187.138 1594.57,188.028 1595.55,193.508 1596.53,163.642 1597.5,323.13 1598.48,532.987 1599.46,298.003 1600.44,298.003 1601.42,375.951 1602.4,310.233 1603.37,310.233 1604.35,512.582 1605.33,512.582 1606.31,512.582 1607.29,512.582 1608.27,519.19 1609.24,656.993 1610.22,673.272 1611.2,751.287 1612.18,751.647 1613.16,835.035 1614.14,852.076 1615.11,816.642 1616.09,764.527 1617.07,676.691 1618.05,644.994 1619.03,795.101 1620.01,707.261 1620.98,857.174 1621.96,990.223 1622.94,862.655 1623.92,946.597 1624.9,946.597 1625.88,816.993 1626.85,865.715 1627.83,964.777 1628.81,1022.96 1629.79,1022.96 1630.77,746.736 1631.75,860.754 1632.72,969.885 1633.7,838.555 1634.68,884.649 1635.66,740.724 1636.64,862.783 1637.62,1019.17 1638.59,1224.84 1639.57,1224.84 1640.55,1224.84 1641.53,1217.78 1642.51,1330 1643.49,1328.83 1644.46,1309.19 1645.44,1307.03 1646.42,1309.98 1647.4,1309.98 1648.38,1307.13 1649.36,1311.93 1650.33,1082.01 1651.31,951.059 1652.29,1017.39 1653.27,1017.39 1654.25,1024.75 1655.23,1024.75 1656.2,805.692 1657.18,680.915 1658.16,645.283 1659.14,645.283 1660.12,768.237 1661.1,817.715 1662.07,1076.56 1663.05,1137.09 1664.03,1137.09 1665.01,995.507 1665.99,859.453 1666.97,758.323 1667.94,833.134 1668.92,603.247 1669.9,789.802 1670.88,915.061 1671.86,835.545 1672.84,839.503 1673.81,830.192 1674.79,831.929 1675.77,618.146 1676.75,805.991 1677.73,934.511 1678.71,860.249 1679.68,1068.35 1680.66,1228.26 1681.64,983.656 1682.62,943.854 1683.6,943.854 1684.58,1118.52 1685.55,1180.77 1686.53,1230.09 1687.51,1372.65 1688.49,1372.65 1689.47,1372.65 1690.45,1372.65 1691.42,1144.99 1692.4,957.27 1693.38,957.27 1694.36,1139.35 1695.34,1003.06 1696.32,1003.06 1697.29,895.37 1698.27,901.092 1699.25,839.465 1700.23,976.252 1701.21,884.484 1702.19,765.28 1703.16,765.28 1704.14,704.282 1705.12,540.193 1706.1,314.964 1707.08,314.964 1708.06,448.271 1709.03,453.622 1710.01,712.559 1710.99,592.587 1711.97,592.587 1712.95,731.534 1713.93,706.44 1714.91,790.586 1715.88,793.001 1716.86,807.618 1717.84,942.089 1718.82,875.474 1719.8,696.888 1720.78,477.156 1721.75,560.829 1722.73,398.387 1723.71,398.387 1724.69,398.387 1725.67,398.387 1726.65,474.47 1727.62,520.846 1728.6,520.846 1729.58,520.846 1730.56,709.771 1731.54,475.738 1732.52,688.323 1733.49,727.86 1734.47,566.195 1735.45,815.27 1736.43,815.27 1737.41,966.323 1738.39,966.323 1739.36,925.662 1740.34,926.654 1741.32,1063.59 1742.3,1063.59 1743.28,1109.92 1744.26,1147.98 1745.23,1043.91 1746.21,1044.64 1747.19,1044.64 1748.17,894.616 1749.15,1051.88 1750.13,1232.01 1751.1,1232.01 1752.08,1326.85 1753.06,1217.13 1754.04,1217.13 1755.02,1217.13 1756,1217.13 1756.97,1217.13 1757.95,1217.13 1758.93,1217.13 1759.91,1217.13 1760.89,1217.13 1761.87,1345.46 1762.84,1345.46 1763.82,1345.46 1764.8,1204.57 1765.78,1204.57 1766.76,1204.57 1767.74,1097.4 1768.71,1127.66 1769.69,1168.29 1770.67,1198.94 1771.65,1198.94 1772.63,1295.76 1773.61,1120.89 1774.58,1063.39 1775.56,990.973 1776.54,785.672 1777.52,786.741 1778.5,714.433 1779.48,864.041 1780.45,721.401 1781.43,759.774 1782.41,807.446 1783.39,759.859 1784.37,942.935 1785.35,1053.26 1786.32,945.023 1787.3,828.769 1788.28,964.521 1789.26,992.553 1790.24,859.162 1791.22,823.775 1792.19,823.775 1793.17,823.775 1794.15,823.775 1795.13,676.99 1796.11,585.347 1797.09,459.37 1798.06,395.976 1799.04,395.976 1800.02,340.055 1801,206.897 1801.98,206.897 1802.96,216.654 1803.93,255.312 1804.91,298.298 1805.89,316.042 1806.87,425.827 1807.85,284.981 1808.83,284.981 1809.8,284.981 1810.78,284.981 1811.76,371.763 1812.74,532.193 1813.72,596.439 1814.7,835.022 1815.67,870.157 1816.65,769.242 1817.63,595.004 1818.61,791.039 1819.59,791.039 1820.57,791.039 1821.54,791.039 1822.52,666.788 1823.5,751.318 1824.48,840.659 1825.46,651.29 1826.44,694.242 1827.41,694.242 1828.39,894.398 1829.37,894.398 1830.35,948.877 1831.33,854.304 1832.31,693.636 1833.28,772.822 1834.26,736 1835.24,916.86 1836.22,768.684 1837.2,818.293 1838.18,877.055 1839.15,814.872 1840.13,832.726 1841.11,762.895 1842.09,731.948 1843.07,667.047 1844.05,835.12 1845.02,725.125 1846,899.308 1846.98,964.976 1847.96,918.319 1848.94,918.319 1849.92,975.53 1850.89,1183.19 1851.87,1134.82 1852.85,1067.16 1853.83,1067.16 1854.81,1152.98 1855.79,1195.21 1856.76,1107.16 1857.74,1000.42 1858.72,782.54 1859.7,714.523 1860.68,658.069 1861.66,452.215 1862.63,581.776 1863.61,581.776 1864.59,796.108 1865.57,606.333 1866.55,731.932 1867.53,546.686 1868.51,521.015 1869.48,627.891 1870.46,869.998 1871.44,713.145 1872.42,818.375 1873.4,1000.36 1874.38,1000.36 1875.35,1000.36 1876.33,972.69 1877.31,804.328 1878.29,984.923 1879.27,977.834 1880.25,1128.6 1881.22,916.155 1882.2,854.295 1883.18,629.834 1884.16,732.411 1885.14,732.411 1886.12,585.809 1887.09,608.365 1888.07,529.834 1889.05,529.834 1890.03,529.834 1891.01,366.497 1891.99,351.873 1892.96,582.827 1893.94,729.648 1894.92,729.648 1895.9,729.648 1896.88,669.915 1897.86,669.915 1898.83,746.823 1899.81,631.066 1900.79,830.893 1901.77,830.893 1902.75,967.602 1903.73,967.602 1904.7,1143.44 1905.68,1284.02 1906.66,1088.92 1907.64,1156.42 1908.62,1153.82 1909.6,1083.47 1910.57,912.994 1911.55,968.354 1912.53,1051.3 1913.51,908.139 1914.49,701.04 1915.47,531.463 1916.44,531.463 1917.42,629.79 1918.4,551.681 1919.38,431.762 1920.36,431.762 1921.34,431.762 1922.31,441.275 1923.29,576.796 1924.27,576.796 1925.25,438.208 1926.23,565.1 1927.21,459.109 1928.18,459.109 1929.16,511.176 1930.14,460.326 1931.12,642.1 1932.1,776.663 1933.08,776.663 1934.05,875.243 1935.03,886.71 1936.01,868.787 1936.99,868.787 1937.97,920.829 1938.95,900.187 1939.92,914.247 1940.9,864.687 1941.88,824.796 1942.86,1025.81 1943.84,1166.76 1944.82,1261.69 1945.79,1261.69 1946.77,1166.26 1947.75,1166.26 1948.73,1004.25 1949.71,1137.32 1950.69,1007.68 1951.66,989.446 1952.64,932.883 1953.62,662.245 1954.6,812.561 1955.58,975.102 1956.56,963.908 1957.53,839.363 1958.51,860.616 1959.49,841.07 1960.47,997.494 1961.45,932.096 1962.43,733.671 1963.4,649.432 1964.38,720.341 1965.36,637.524 1966.34,571.802 1967.32,571.802 1968.3,612.128 1969.27,600.004 1970.25,773.984 1971.23,673.526 1972.21,817.886 1973.19,907.816 1974.17,761.169 1975.14,986.442 1976.12,890.15 1977.1,735.237 1978.08,537.81 1979.06,559.938 1980.04,756.644 1981.01,660.762 1981.99,660.762 1982.97,631.397 1983.95,733.459 1984.93,895.116 1985.91,1021.6 1986.88,1055.23 1987.86,1238.38 1988.84,1223.6 1989.82,1286.26 1990.8,1238.1 1991.78,996.991 1992.75,1053.98 1993.73,881.569 1994.71,775.285 1995.69,798.583 1996.67,791.396 1997.65,601.868 1998.62,570.561 1999.6,470.503 2000.58,470.503 2001.56,470.503 2002.54,406.624 2003.52,454.496 2004.49,490.13 2005.47,402.666 2006.45,555.006 2007.43,555.006 2008.41,512.897 2009.39,644.49 2010.36,644.49 2011.34,795.075 2012.32,783.241 2013.3,621.846 2014.28,810.853 2015.26,810.853 2016.23,575.769 2017.21,574.519 2018.19,593.547 2019.17,405.58 2020.15,339.205 2021.13,478.555 2022.11,491.508 2023.08,418.046 2024.06,399.86 2025.04,399.86 2026.02,541.877 2027,584.296 2027.98,519.79 2028.95,526.666 2029.93,412.899 2030.91,473.144 2031.89,486.566 2032.87,426.488 2033.85,545.505 2034.82,715.464 2035.8,902.861 2036.78,751.285 2037.76,863.065 2038.74,787.384 2039.72,787.384 2040.69,743.927 2041.67,827.623 2042.65,587.222 2043.63,647.202 2044.61,717.195 2045.59,624.056 2046.56,499.783 2047.54,504.211 2048.52,385.87 2049.5,479.851 2050.48,441.346 2051.46,463.174 2052.43,388.074 2053.41,398.719 2054.39,489.258 2055.37,298.176 2056.35,341.592 2057.33,444.582 2058.3,479.886 2059.28,479.886 2060.26,587.802 2061.24,662.669 2062.22,470.167 2063.2,443.95 2064.17,585.214 2065.15,585.214 2066.13,494.685 2067.11,494.685 2068.09,494.685 2069.07,654.81 2070.04,630.235 2071.02,728.375 2072,508.155 2072.98,508.155 2073.96,318.355 2074.94,318.355 2075.91,359.056 2076.89,359.056 2077.87,359.056 2078.85,359.056 2079.83,359.056 2080.81,433.476 2081.78,379.848 2082.76,439.09 2083.74,508.286 2084.72,571.864 2085.7,427.493 2086.68,427.493 2087.65,603.222 2088.63,689.355 2089.61,801.635 2090.59,666.417 2091.57,739.446 2092.55,871.118 2093.52,588.004 2094.5,486.98 2095.48,643.548 2096.46,438.731 2097.44,525.922 2098.42,597.976 2099.39,695.358 2100.37,470.477 2101.35,612.777 2102.33,594.395 2103.31,503.234 2104.29,511.465 2105.26,507.514 2106.24,490.663 2107.22,719.813 2108.2,578.847 2109.18,595.156 2110.16,490.864 2111.13,490.864 2112.11,520.237 2113.09,567.833 2114.07,455.475 2115.05,491.292 2116.03,633.598 2117,758.72 2117.98,758.72 2118.96,810.444 2119.94,810.444 2120.92,736.734 2121.9,752.275 2122.87,896.855 2123.85,720.846 2124.83,576.656 2125.81,684.813 2126.79,773.406 2127.77,823.53 2128.74,822.944 2129.72,871.746 2130.7,662.349 2131.68,885.116 2132.66,1046.72 2133.64,948.453 2134.61,918.82 2135.59,1015.44 2136.57,929.289 2137.55,802.936 2138.53,662.549 2139.51,650.76 2140.48,650.76 2141.46,620.012 2142.44,574.662 2143.42,800.538 2144.4,795.951 2145.38,720.323 2146.35,740.594 2147.33,616.474 2148.31,831.008 2149.29,955.541 2150.27,701.95 2151.25,701.95 2152.22,701.95 2153.2,715.097 2154.18,822.205 2155.16,850.131 2156.14,1042.36 2157.12,878.107 2158.09,663.322 2159.07,511.482 2160.05,726.903 2161.03,740.324 2162.01,621.224 2162.99,491.346 2163.96,491.346 2164.94,491.346 2165.92,491.346 2166.9,593.949 2167.88,485.396 2168.86,510.149 2169.83,628.507 2170.81,874.89 2171.79,1068.73 2172.77,1143.35 2173.75,1139.1 2174.73,1205.06 2175.71,1239.52 2176.68,1239.52 2177.66,1384.24 2178.64,1182.76 2179.62,1182.76 2180.6,1182.76 2181.58,1213.98 2182.55,1142.22 2183.53,1191.41 2184.51,1191.41 2185.49,991.534 2186.47,991.534 2187.45,981.921 2188.42,882.751 2189.4,882.751 2190.38,980.013 2191.36,1001.47 2192.34,1110.27 2193.32,1048.23 2194.29,1048.23 2195.27,1089.64 2196.25,933.172 2197.23,968.682 2198.21,854.298 2199.19,733.404 2200.16,568.082 2201.14,690.801 2202.12,662.122 2203.1,638.968 2204.08,662.743 2205.06,521.899 2206.03,409.638 2207.01,564.448 2207.99,632.007 2208.97,822.354 2209.95,951.606 2210.93,825.09 2211.9,758.848 2212.88,900.373 2213.86,778.156 2214.84,568.151 2215.82,781.01 2216.8,586.807 2217.77,645.857 2218.75,650.471 2219.73,604.449 2220.71,487.398 2221.69,487.398 2222.67,426.705 2223.64,371.206 2224.62,643.468 2225.6,734.129 2226.58,696.7 2227.56,696.7 2228.54,763.997 2229.51,853.049 2230.49,889.239 2231.47,889.239 2232.45,674.166 2233.43,439.683 2234.41,500.288 2235.38,500.288 2236.36,434.317 2237.34,579.111 2238.32,515.808 2239.3,461.747 2240.28,461.747 2241.25,276.084 2242.23,293.355 2243.21,293.355 2244.19,434.93 2245.17,542.362 2246.15,542.362 2247.12,766.833 2248.1,766.833 2249.08,555.874 2250.06,503.684 2251.04,497.488 2252.02,703.175 2252.99,938.21 2253.97,729.276 2254.95,519.598 2255.93,438.099 2256.91,357.818 2257.89,357.818 2258.86,433.291 2259.84,358.418 2260.82,358.418 2261.8,525.276 2262.78,357.046 2263.76,357.046 2264.73,423.699 2265.71,423.699 2266.69,681.734 2267.67,773.205 2268.65,600.361 2269.63,755.196 2270.6,692.284 2271.58,810.626 2272.56,775.484 2273.54,653.748 2274.52,672.854 2275.5,751.927 2276.47,707.537 2277.45,649.869 2278.43,766.41 2279.41,694.405 2280.39,855.797 2281.37,618.129 2282.34,452.271 2283.32,668.067 2284.3,684.876 2285.28,539.016 2286.26,539.016 2287.24,666.086 2288.21,813.87 2289.19,948.209 2290.17,775.552 2291.15,864.956 2292.13,857.098 2293.11,622.764 2294.08,736.86 "/>
<path clip-path="url(#clip290)" d="M2023.92 196.789 L2283.65 196.789 L2283.65 93.1086 L2023.92 93.1086  Z" fill="#ffffff" fill-rule="evenodd" fill-opacity="1"/>
<polyline clip-path="url(#clip290)" style="stroke:#000000; stroke-linecap:round; stroke-linejoin:round; stroke-width:4; stroke-opacity:1; fill:none" points="2023.92,196.789 2283.65,196.789 2283.65,93.1086 2023.92,93.1086 2023.92,196.789 "/>
<polyline clip-path="url(#clip290)" style="stroke:#009af9; stroke-linecap:round; stroke-linejoin:round; stroke-width:4; stroke-opacity:1; fill:none" points="2046.95,144.949 2185.16,144.949 "/>
<path clip-path="url(#clip290)" d="M2222.03 164.636 Q2220.23 169.266 2218.51 170.678 Q2216.8 172.09 2213.93 172.09 L2210.53 172.09 L2210.53 168.525 L2213.03 168.525 Q2214.79 168.525 2215.76 167.692 Q2216.73 166.858 2217.91 163.756 L2218.68 161.812 L2208.19 136.303 L2212.7 136.303 L2220.81 156.581 L2228.91 136.303 L2233.42 136.303 L2222.03 164.636 Z" fill="#000000" fill-rule="nonzero" fill-opacity="1" /><path clip-path="url(#clip290)" d="M2240.71 158.293 L2248.35 158.293 L2248.35 131.928 L2240.04 133.595 L2240.04 129.335 L2248.31 127.669 L2252.98 127.669 L2252.98 158.293 L2260.62 158.293 L2260.62 162.229 L2240.71 162.229 L2240.71 158.293 Z" fill="#000000" fill-rule="nonzero" fill-opacity="1" /></svg>
