<?xml version="1.0" encoding="utf-8"?>
<svg xmlns="http://www.w3.org/2000/svg" xmlns:xlink="http://www.w3.org/1999/xlink" width="600" height="400" viewBox="0 0 2400 1600">
<defs>
  <clipPath id="clip310">
    <rect x="0" y="0" width="2400" height="1600"/>
  </clipPath>
</defs>
<path clip-path="url(#clip310)" d="M0 1600 L2400 1600 L2400 0 L0 0  Z" fill="#ffffff" fill-rule="evenodd" fill-opacity="1"/>
<defs>
  <clipPath id="clip311">
    <rect x="480" y="0" width="1681" height="1600"/>
  </clipPath>
</defs>
<path clip-path="url(#clip310)" d="M249.195 1423.18 L2352.76 1423.18 L2352.76 47.2441 L249.195 47.2441  Z" fill="#ffffff" fill-rule="evenodd" fill-opacity="1"/>
<defs>
  <clipPath id="clip312">
    <rect x="249" y="47" width="2105" height="1377"/>
  </clipPath>
</defs>
<polyline clip-path="url(#clip312)" style="stroke:#000000; stroke-linecap:round; stroke-linejoin:round; stroke-width:2; stroke-opacity:0.1; fill:none" points="308.73,1423.18 308.73,47.2441 "/>
<polyline clip-path="url(#clip312)" style="stroke:#000000; stroke-linecap:round; stroke-linejoin:round; stroke-width:2; stroke-opacity:0.1; fill:none" points="804.852,1423.18 804.852,47.2441 "/>
<polyline clip-path="url(#clip312)" style="stroke:#000000; stroke-linecap:round; stroke-linejoin:round; stroke-width:2; stroke-opacity:0.1; fill:none" points="1300.98,1423.18 1300.98,47.2441 "/>
<polyline clip-path="url(#clip312)" style="stroke:#000000; stroke-linecap:round; stroke-linejoin:round; stroke-width:2; stroke-opacity:0.1; fill:none" points="1797.1,1423.18 1797.1,47.2441 "/>
<polyline clip-path="url(#clip312)" style="stroke:#000000; stroke-linecap:round; stroke-linejoin:round; stroke-width:2; stroke-opacity:0.1; fill:none" points="2293.22,1423.18 2293.22,47.2441 "/>
<polyline clip-path="url(#clip310)" style="stroke:#000000; stroke-linecap:round; stroke-linejoin:round; stroke-width:4; stroke-opacity:1; fill:none" points="249.195,1423.18 2352.76,1423.18 "/>
<polyline clip-path="url(#clip310)" style="stroke:#000000; stroke-linecap:round; stroke-linejoin:round; stroke-width:4; stroke-opacity:1; fill:none" points="308.73,1423.18 308.73,1404.28 "/>
<polyline clip-path="url(#clip310)" style="stroke:#000000; stroke-linecap:round; stroke-linejoin:round; stroke-width:4; stroke-opacity:1; fill:none" points="804.852,1423.18 804.852,1404.28 "/>
<polyline clip-path="url(#clip310)" style="stroke:#000000; stroke-linecap:round; stroke-linejoin:round; stroke-width:4; stroke-opacity:1; fill:none" points="1300.98,1423.18 1300.98,1404.28 "/>
<polyline clip-path="url(#clip310)" style="stroke:#000000; stroke-linecap:round; stroke-linejoin:round; stroke-width:4; stroke-opacity:1; fill:none" points="1797.1,1423.18 1797.1,1404.28 "/>
<polyline clip-path="url(#clip310)" style="stroke:#000000; stroke-linecap:round; stroke-linejoin:round; stroke-width:4; stroke-opacity:1; fill:none" points="2293.22,1423.18 2293.22,1404.28 "/>
<path clip-path="url(#clip310)" d="M308.73 1454.1 Q305.118 1454.1 303.29 1457.66 Q301.484 1461.2 301.484 1468.33 Q301.484 1475.44 303.29 1479.01 Q305.118 1482.55 308.73 1482.55 Q312.364 1482.55 314.169 1479.01 Q315.998 1475.44 315.998 1468.33 Q315.998 1461.2 314.169 1457.66 Q312.364 1454.1 308.73 1454.1 M308.73 1450.39 Q314.54 1450.39 317.595 1455 Q320.674 1459.58 320.674 1468.33 Q320.674 1477.06 317.595 1481.67 Q314.54 1486.25 308.73 1486.25 Q302.919 1486.25 299.841 1481.67 Q296.785 1477.06 296.785 1468.33 Q296.785 1459.58 299.841 1455 Q302.919 1450.39 308.73 1450.39 Z" fill="#000000" fill-rule="nonzero" fill-opacity="1" /><path clip-path="url(#clip310)" d="M764.471 1451.02 L782.827 1451.02 L782.827 1454.96 L768.753 1454.96 L768.753 1463.43 Q769.772 1463.08 770.79 1462.92 Q771.809 1462.73 772.827 1462.73 Q778.614 1462.73 781.994 1465.9 Q785.373 1469.08 785.373 1474.49 Q785.373 1480.07 781.901 1483.17 Q778.429 1486.25 772.11 1486.25 Q769.934 1486.25 767.665 1485.88 Q765.42 1485.51 763.012 1484.77 L763.012 1480.07 Q765.096 1481.2 767.318 1481.76 Q769.54 1482.32 772.017 1482.32 Q776.022 1482.32 778.36 1480.21 Q780.697 1478.1 780.697 1474.49 Q780.697 1470.88 778.36 1468.77 Q776.022 1466.67 772.017 1466.67 Q770.142 1466.67 768.267 1467.08 Q766.415 1467.5 764.471 1468.38 L764.471 1451.02 Z" fill="#000000" fill-rule="nonzero" fill-opacity="1" /><path clip-path="url(#clip310)" d="M804.586 1454.1 Q800.975 1454.1 799.146 1457.66 Q797.341 1461.2 797.341 1468.33 Q797.341 1475.44 799.146 1479.01 Q800.975 1482.55 804.586 1482.55 Q808.22 1482.55 810.026 1479.01 Q811.855 1475.44 811.855 1468.33 Q811.855 1461.2 810.026 1457.66 Q808.22 1454.1 804.586 1454.1 M804.586 1450.39 Q810.396 1450.39 813.452 1455 Q816.531 1459.58 816.531 1468.33 Q816.531 1477.06 813.452 1481.67 Q810.396 1486.25 804.586 1486.25 Q798.776 1486.25 795.697 1481.67 Q792.642 1477.06 792.642 1468.33 Q792.642 1459.58 795.697 1455 Q798.776 1450.39 804.586 1450.39 Z" fill="#000000" fill-rule="nonzero" fill-opacity="1" /><path clip-path="url(#clip310)" d="M834.748 1454.1 Q831.137 1454.1 829.308 1457.66 Q827.503 1461.2 827.503 1468.33 Q827.503 1475.44 829.308 1479.01 Q831.137 1482.55 834.748 1482.55 Q838.382 1482.55 840.188 1479.01 Q842.017 1475.44 842.017 1468.33 Q842.017 1461.2 840.188 1457.66 Q838.382 1454.1 834.748 1454.1 M834.748 1450.39 Q840.558 1450.39 843.614 1455 Q846.693 1459.58 846.693 1468.33 Q846.693 1477.06 843.614 1481.67 Q840.558 1486.25 834.748 1486.25 Q828.938 1486.25 825.859 1481.67 Q822.804 1477.06 822.804 1468.33 Q822.804 1459.58 825.859 1455 Q828.938 1450.39 834.748 1450.39 Z" fill="#000000" fill-rule="nonzero" fill-opacity="1" /><path clip-path="url(#clip310)" d="M1245.5 1481.64 L1253.14 1481.64 L1253.14 1455.28 L1244.83 1456.95 L1244.83 1452.69 L1253.09 1451.02 L1257.77 1451.02 L1257.77 1481.64 L1265.41 1481.64 L1265.41 1485.58 L1245.5 1485.58 L1245.5 1481.64 Z" fill="#000000" fill-rule="nonzero" fill-opacity="1" /><path clip-path="url(#clip310)" d="M1284.85 1454.1 Q1281.24 1454.1 1279.41 1457.66 Q1277.61 1461.2 1277.61 1468.33 Q1277.61 1475.44 1279.41 1479.01 Q1281.24 1482.55 1284.85 1482.55 Q1288.49 1482.55 1290.29 1479.01 Q1292.12 1475.44 1292.12 1468.33 Q1292.12 1461.2 1290.29 1457.66 Q1288.49 1454.1 1284.85 1454.1 M1284.85 1450.39 Q1290.66 1450.39 1293.72 1455 Q1296.8 1459.58 1296.8 1468.33 Q1296.8 1477.06 1293.72 1481.67 Q1290.66 1486.25 1284.85 1486.25 Q1279.04 1486.25 1275.96 1481.67 Q1272.91 1477.06 1272.91 1468.33 Q1272.91 1459.58 1275.96 1455 Q1279.04 1450.39 1284.85 1450.39 Z" fill="#000000" fill-rule="nonzero" fill-opacity="1" /><path clip-path="url(#clip310)" d="M1315.01 1454.1 Q1311.4 1454.1 1309.57 1457.66 Q1307.77 1461.2 1307.77 1468.33 Q1307.77 1475.44 1309.57 1479.01 Q1311.4 1482.55 1315.01 1482.55 Q1318.65 1482.55 1320.45 1479.01 Q1322.28 1475.44 1322.28 1468.33 Q1322.28 1461.2 1320.45 1457.66 Q1318.65 1454.1 1315.01 1454.1 M1315.01 1450.39 Q1320.82 1450.39 1323.88 1455 Q1326.96 1459.58 1326.96 1468.33 Q1326.96 1477.06 1323.88 1481.67 Q1320.82 1486.25 1315.01 1486.25 Q1309.2 1486.25 1306.13 1481.67 Q1303.07 1477.06 1303.07 1468.33 Q1303.07 1459.58 1306.13 1455 Q1309.2 1450.39 1315.01 1450.39 Z" fill="#000000" fill-rule="nonzero" fill-opacity="1" /><path clip-path="url(#clip310)" d="M1345.18 1454.1 Q1341.57 1454.1 1339.74 1457.66 Q1337.93 1461.2 1337.93 1468.33 Q1337.93 1475.44 1339.74 1479.01 Q1341.57 1482.55 1345.18 1482.55 Q1348.81 1482.55 1350.62 1479.01 Q1352.44 1475.44 1352.44 1468.33 Q1352.44 1461.2 1350.62 1457.66 Q1348.81 1454.1 1345.18 1454.1 M1345.18 1450.39 Q1350.99 1450.39 1354.04 1455 Q1357.12 1459.58 1357.12 1468.33 Q1357.12 1477.06 1354.04 1481.67 Q1350.99 1486.25 1345.18 1486.25 Q1339.37 1486.25 1336.29 1481.67 Q1333.23 1477.06 1333.23 1468.33 Q1333.23 1459.58 1336.29 1455 Q1339.37 1450.39 1345.18 1450.39 Z" fill="#000000" fill-rule="nonzero" fill-opacity="1" /><path clip-path="url(#clip310)" d="M1741.62 1481.64 L1749.26 1481.64 L1749.26 1455.28 L1740.95 1456.95 L1740.95 1452.69 L1749.22 1451.02 L1753.89 1451.02 L1753.89 1481.64 L1761.53 1481.64 L1761.53 1485.58 L1741.62 1485.58 L1741.62 1481.64 Z" fill="#000000" fill-rule="nonzero" fill-opacity="1" /><path clip-path="url(#clip310)" d="M1771.02 1451.02 L1789.38 1451.02 L1789.38 1454.96 L1775.3 1454.96 L1775.3 1463.43 Q1776.32 1463.08 1777.34 1462.92 Q1778.36 1462.73 1779.38 1462.73 Q1785.17 1462.73 1788.55 1465.9 Q1791.92 1469.08 1791.92 1474.49 Q1791.92 1480.07 1788.45 1483.17 Q1784.98 1486.25 1778.66 1486.25 Q1776.48 1486.25 1774.22 1485.88 Q1771.97 1485.51 1769.56 1484.77 L1769.56 1480.07 Q1771.65 1481.2 1773.87 1481.76 Q1776.09 1482.32 1778.57 1482.32 Q1782.57 1482.32 1784.91 1480.21 Q1787.25 1478.1 1787.25 1474.49 Q1787.25 1470.88 1784.91 1468.77 Q1782.57 1466.67 1778.57 1466.67 Q1776.69 1466.67 1774.82 1467.08 Q1772.97 1467.5 1771.02 1468.38 L1771.02 1451.02 Z" fill="#000000" fill-rule="nonzero" fill-opacity="1" /><path clip-path="url(#clip310)" d="M1811.14 1454.1 Q1807.53 1454.1 1805.7 1457.66 Q1803.89 1461.2 1803.89 1468.33 Q1803.89 1475.44 1805.7 1479.01 Q1807.53 1482.55 1811.14 1482.55 Q1814.77 1482.55 1816.58 1479.01 Q1818.41 1475.44 1818.41 1468.33 Q1818.41 1461.2 1816.58 1457.66 Q1814.77 1454.1 1811.14 1454.1 M1811.14 1450.39 Q1816.95 1450.39 1820 1455 Q1823.08 1459.58 1823.08 1468.33 Q1823.08 1477.06 1820 1481.67 Q1816.95 1486.25 1811.14 1486.25 Q1805.33 1486.25 1802.25 1481.67 Q1799.19 1477.06 1799.19 1468.33 Q1799.19 1459.58 1802.25 1455 Q1805.33 1450.39 1811.14 1450.39 Z" fill="#000000" fill-rule="nonzero" fill-opacity="1" /><path clip-path="url(#clip310)" d="M1841.3 1454.1 Q1837.69 1454.1 1835.86 1457.66 Q1834.05 1461.2 1834.05 1468.33 Q1834.05 1475.44 1835.86 1479.01 Q1837.69 1482.55 1841.3 1482.55 Q1844.93 1482.55 1846.74 1479.01 Q1848.57 1475.44 1848.57 1468.33 Q1848.57 1461.2 1846.74 1457.66 Q1844.93 1454.1 1841.3 1454.1 M1841.3 1450.39 Q1847.11 1450.39 1850.17 1455 Q1853.24 1459.58 1853.24 1468.33 Q1853.24 1477.06 1850.17 1481.67 Q1847.11 1486.25 1841.3 1486.25 Q1835.49 1486.25 1832.41 1481.67 Q1829.36 1477.06 1829.36 1468.33 Q1829.36 1459.58 1832.41 1455 Q1835.49 1450.39 1841.3 1450.39 Z" fill="#000000" fill-rule="nonzero" fill-opacity="1" /><path clip-path="url(#clip310)" d="M2241.83 1481.64 L2258.15 1481.64 L2258.15 1485.58 L2236.21 1485.58 L2236.21 1481.64 Q2238.87 1478.89 2243.45 1474.26 Q2248.06 1469.61 2249.24 1468.27 Q2251.49 1465.74 2252.36 1464.01 Q2253.27 1462.25 2253.27 1460.56 Q2253.27 1457.8 2251.32 1456.07 Q2249.4 1454.33 2246.3 1454.33 Q2244.1 1454.33 2241.65 1455.09 Q2239.22 1455.86 2236.44 1457.41 L2236.44 1452.69 Q2239.26 1451.55 2241.72 1450.97 Q2244.17 1450.39 2246.21 1450.39 Q2251.58 1450.39 2254.77 1453.08 Q2257.97 1455.77 2257.97 1460.26 Q2257.97 1462.39 2257.16 1464.31 Q2256.37 1466.2 2254.26 1468.8 Q2253.68 1469.47 2250.58 1472.69 Q2247.48 1475.88 2241.83 1481.64 Z" fill="#000000" fill-rule="nonzero" fill-opacity="1" /><path clip-path="url(#clip310)" d="M2277.97 1454.1 Q2274.36 1454.1 2272.53 1457.66 Q2270.72 1461.2 2270.72 1468.33 Q2270.72 1475.44 2272.53 1479.01 Q2274.36 1482.55 2277.97 1482.55 Q2281.6 1482.55 2283.41 1479.01 Q2285.24 1475.44 2285.24 1468.33 Q2285.24 1461.2 2283.41 1457.66 Q2281.6 1454.1 2277.97 1454.1 M2277.97 1450.39 Q2283.78 1450.39 2286.83 1455 Q2289.91 1459.58 2289.91 1468.33 Q2289.91 1477.06 2286.83 1481.67 Q2283.78 1486.25 2277.97 1486.25 Q2272.16 1486.25 2269.08 1481.67 Q2266.02 1477.06 2266.02 1468.33 Q2266.02 1459.58 2269.08 1455 Q2272.16 1450.39 2277.97 1450.39 Z" fill="#000000" fill-rule="nonzero" fill-opacity="1" /><path clip-path="url(#clip310)" d="M2308.13 1454.1 Q2304.52 1454.1 2302.69 1457.66 Q2300.88 1461.2 2300.88 1468.33 Q2300.88 1475.44 2302.69 1479.01 Q2304.52 1482.55 2308.13 1482.55 Q2311.76 1482.55 2313.57 1479.01 Q2315.4 1475.44 2315.4 1468.33 Q2315.4 1461.2 2313.57 1457.66 Q2311.76 1454.1 2308.13 1454.1 M2308.13 1450.39 Q2313.94 1450.39 2316.99 1455 Q2320.07 1459.58 2320.07 1468.33 Q2320.07 1477.06 2316.99 1481.67 Q2313.94 1486.25 2308.13 1486.25 Q2302.32 1486.25 2299.24 1481.67 Q2296.18 1477.06 2296.18 1468.33 Q2296.18 1459.58 2299.24 1455 Q2302.32 1450.39 2308.13 1450.39 Z" fill="#000000" fill-rule="nonzero" fill-opacity="1" /><path clip-path="url(#clip310)" d="M2338.29 1454.1 Q2334.68 1454.1 2332.85 1457.66 Q2331.05 1461.2 2331.05 1468.33 Q2331.05 1475.44 2332.85 1479.01 Q2334.68 1482.55 2338.29 1482.55 Q2341.92 1482.55 2343.73 1479.01 Q2345.56 1475.44 2345.56 1468.33 Q2345.56 1461.2 2343.73 1457.66 Q2341.92 1454.1 2338.29 1454.1 M2338.29 1450.39 Q2344.1 1450.39 2347.16 1455 Q2350.23 1459.58 2350.23 1468.33 Q2350.23 1477.06 2347.16 1481.67 Q2344.1 1486.25 2338.29 1486.25 Q2332.48 1486.25 2329.4 1481.67 Q2326.35 1477.06 2326.35 1468.33 Q2326.35 1459.58 2329.4 1455 Q2332.48 1450.39 2338.29 1450.39 Z" fill="#000000" fill-rule="nonzero" fill-opacity="1" /><path clip-path="url(#clip310)" d="M1300.04 1522.27 L1300.04 1532.4 L1312.1 1532.4 L1312.1 1536.95 L1300.04 1536.95 L1300.04 1556.3 Q1300.04 1560.66 1301.21 1561.9 Q1302.42 1563.14 1306.08 1563.14 L1312.1 1563.14 L1312.1 1568.04 L1306.08 1568.04 Q1299.3 1568.04 1296.73 1565.53 Q1294.15 1562.98 1294.15 1556.3 L1294.15 1536.95 L1289.85 1536.95 L1289.85 1532.4 L1294.15 1532.4 L1294.15 1522.27 L1300.04 1522.27 Z" fill="#000000" fill-rule="nonzero" fill-opacity="1" /><polyline clip-path="url(#clip312)" style="stroke:#000000; stroke-linecap:round; stroke-linejoin:round; stroke-width:2; stroke-opacity:0.1; fill:none" points="249.195,1384.24 2352.76,1384.24 "/>
<polyline clip-path="url(#clip312)" style="stroke:#000000; stroke-linecap:round; stroke-linejoin:round; stroke-width:2; stroke-opacity:0.1; fill:none" points="249.195,1059.73 2352.76,1059.73 "/>
<polyline clip-path="url(#clip312)" style="stroke:#000000; stroke-linecap:round; stroke-linejoin:round; stroke-width:2; stroke-opacity:0.1; fill:none" points="249.195,735.212 2352.76,735.212 "/>
<polyline clip-path="url(#clip312)" style="stroke:#000000; stroke-linecap:round; stroke-linejoin:round; stroke-width:2; stroke-opacity:0.1; fill:none" points="249.195,410.699 2352.76,410.699 "/>
<polyline clip-path="url(#clip312)" style="stroke:#000000; stroke-linecap:round; stroke-linejoin:round; stroke-width:2; stroke-opacity:0.1; fill:none" points="249.195,86.1857 2352.76,86.1857 "/>
<polyline clip-path="url(#clip310)" style="stroke:#000000; stroke-linecap:round; stroke-linejoin:round; stroke-width:4; stroke-opacity:1; fill:none" points="249.195,1423.18 249.195,47.2441 "/>
<polyline clip-path="url(#clip310)" style="stroke:#000000; stroke-linecap:round; stroke-linejoin:round; stroke-width:4; stroke-opacity:1; fill:none" points="249.195,1384.24 268.092,1384.24 "/>
<polyline clip-path="url(#clip310)" style="stroke:#000000; stroke-linecap:round; stroke-linejoin:round; stroke-width:4; stroke-opacity:1; fill:none" points="249.195,1059.73 268.092,1059.73 "/>
<polyline clip-path="url(#clip310)" style="stroke:#000000; stroke-linecap:round; stroke-linejoin:round; stroke-width:4; stroke-opacity:1; fill:none" points="249.195,735.212 268.092,735.212 "/>
<polyline clip-path="url(#clip310)" style="stroke:#000000; stroke-linecap:round; stroke-linejoin:round; stroke-width:4; stroke-opacity:1; fill:none" points="249.195,410.699 268.092,410.699 "/>
<polyline clip-path="url(#clip310)" style="stroke:#000000; stroke-linecap:round; stroke-linejoin:round; stroke-width:4; stroke-opacity:1; fill:none" points="249.195,86.1857 268.092,86.1857 "/>
<path clip-path="url(#clip310)" d="M116.668 1397.58 L124.306 1397.58 L124.306 1371.22 L115.996 1372.88 L115.996 1368.62 L124.26 1366.96 L128.936 1366.96 L128.936 1397.58 L136.575 1397.58 L136.575 1401.52 L116.668 1401.52 L116.668 1397.58 Z" fill="#000000" fill-rule="nonzero" fill-opacity="1" /><path clip-path="url(#clip310)" d="M146.019 1395.64 L150.903 1395.64 L150.903 1401.52 L146.019 1401.52 L146.019 1395.64 Z" fill="#000000" fill-rule="nonzero" fill-opacity="1" /><path clip-path="url(#clip310)" d="M171.089 1370.04 Q167.477 1370.04 165.649 1373.6 Q163.843 1377.14 163.843 1384.27 Q163.843 1391.38 165.649 1394.94 Q167.477 1398.49 171.089 1398.49 Q174.723 1398.49 176.528 1394.94 Q178.357 1391.38 178.357 1384.27 Q178.357 1377.14 176.528 1373.6 Q174.723 1370.04 171.089 1370.04 M171.089 1366.33 Q176.899 1366.33 179.954 1370.94 Q183.033 1375.52 183.033 1384.27 Q183.033 1393 179.954 1397.61 Q176.899 1402.19 171.089 1402.19 Q165.278 1402.19 162.2 1397.61 Q159.144 1393 159.144 1384.27 Q159.144 1375.52 162.2 1370.94 Q165.278 1366.33 171.089 1366.33 Z" fill="#000000" fill-rule="nonzero" fill-opacity="1" /><path clip-path="url(#clip310)" d="M201.25 1370.04 Q197.639 1370.04 195.811 1373.6 Q194.005 1377.14 194.005 1384.27 Q194.005 1391.38 195.811 1394.94 Q197.639 1398.49 201.25 1398.49 Q204.885 1398.49 206.69 1394.94 Q208.519 1391.38 208.519 1384.27 Q208.519 1377.14 206.69 1373.6 Q204.885 1370.04 201.25 1370.04 M201.25 1366.33 Q207.061 1366.33 210.116 1370.94 Q213.195 1375.52 213.195 1384.27 Q213.195 1393 210.116 1397.61 Q207.061 1402.19 201.25 1402.19 Q195.44 1402.19 192.362 1397.61 Q189.306 1393 189.306 1384.27 Q189.306 1375.52 192.362 1370.94 Q195.44 1366.33 201.25 1366.33 Z" fill="#000000" fill-rule="nonzero" fill-opacity="1" /><path clip-path="url(#clip310)" d="M117.663 1073.07 L125.302 1073.07 L125.302 1046.7 L116.992 1048.37 L116.992 1044.11 L125.255 1042.45 L129.931 1042.45 L129.931 1073.07 L137.57 1073.07 L137.57 1077.01 L117.663 1077.01 L117.663 1073.07 Z" fill="#000000" fill-rule="nonzero" fill-opacity="1" /><path clip-path="url(#clip310)" d="M147.015 1071.13 L151.899 1071.13 L151.899 1077.01 L147.015 1077.01 L147.015 1071.13 Z" fill="#000000" fill-rule="nonzero" fill-opacity="1" /><path clip-path="url(#clip310)" d="M166.112 1073.07 L182.431 1073.07 L182.431 1077.01 L160.487 1077.01 L160.487 1073.07 Q163.149 1070.32 167.732 1065.69 Q172.339 1061.03 173.519 1059.69 Q175.764 1057.17 176.644 1055.43 Q177.547 1053.67 177.547 1051.98 Q177.547 1049.23 175.602 1047.49 Q173.681 1045.76 170.579 1045.76 Q168.38 1045.76 165.927 1046.52 Q163.496 1047.28 160.718 1048.83 L160.718 1044.11 Q163.542 1042.98 165.996 1042.4 Q168.45 1041.82 170.487 1041.82 Q175.857 1041.82 179.051 1044.51 Q182.246 1047.19 182.246 1051.68 Q182.246 1053.81 181.436 1055.73 Q180.649 1057.63 178.542 1060.22 Q177.964 1060.89 174.862 1064.11 Q171.76 1067.31 166.112 1073.07 Z" fill="#000000" fill-rule="nonzero" fill-opacity="1" /><path clip-path="url(#clip310)" d="M192.292 1042.45 L210.649 1042.45 L210.649 1046.38 L196.575 1046.38 L196.575 1054.85 Q197.593 1054.51 198.612 1054.34 Q199.63 1054.16 200.649 1054.16 Q206.436 1054.16 209.815 1057.33 Q213.195 1060.5 213.195 1065.92 Q213.195 1071.5 209.723 1074.6 Q206.25 1077.68 199.931 1077.68 Q197.755 1077.68 195.487 1077.31 Q193.241 1076.94 190.834 1076.19 L190.834 1071.5 Q192.917 1072.63 195.139 1073.19 Q197.362 1073.74 199.838 1073.74 Q203.843 1073.74 206.181 1071.63 Q208.519 1069.53 208.519 1065.92 Q208.519 1062.31 206.181 1060.2 Q203.843 1058.09 199.838 1058.09 Q197.963 1058.09 196.088 1058.51 Q194.237 1058.93 192.292 1059.81 L192.292 1042.45 Z" fill="#000000" fill-rule="nonzero" fill-opacity="1" /><path clip-path="url(#clip310)" d="M116.668 748.557 L124.306 748.557 L124.306 722.191 L115.996 723.858 L115.996 719.599 L124.26 717.932 L128.936 717.932 L128.936 748.557 L136.575 748.557 L136.575 752.492 L116.668 752.492 L116.668 748.557 Z" fill="#000000" fill-rule="nonzero" fill-opacity="1" /><path clip-path="url(#clip310)" d="M146.019 746.612 L150.903 746.612 L150.903 752.492 L146.019 752.492 L146.019 746.612 Z" fill="#000000" fill-rule="nonzero" fill-opacity="1" /><path clip-path="url(#clip310)" d="M161.135 717.932 L179.491 717.932 L179.491 721.867 L165.417 721.867 L165.417 730.339 Q166.436 729.992 167.454 729.83 Q168.473 729.645 169.491 729.645 Q175.278 729.645 178.658 732.816 Q182.038 735.987 182.038 741.404 Q182.038 746.983 178.565 750.085 Q175.093 753.163 168.774 753.163 Q166.598 753.163 164.329 752.793 Q162.084 752.423 159.677 751.682 L159.677 746.983 Q161.76 748.117 163.982 748.673 Q166.204 749.228 168.681 749.228 Q172.686 749.228 175.024 747.122 Q177.362 745.015 177.362 741.404 Q177.362 737.793 175.024 735.687 Q172.686 733.58 168.681 733.58 Q166.806 733.58 164.931 733.997 Q163.079 734.413 161.135 735.293 L161.135 717.932 Z" fill="#000000" fill-rule="nonzero" fill-opacity="1" /><path clip-path="url(#clip310)" d="M201.25 721.011 Q197.639 721.011 195.811 724.575 Q194.005 728.117 194.005 735.247 Q194.005 742.353 195.811 745.918 Q197.639 749.46 201.25 749.46 Q204.885 749.46 206.69 745.918 Q208.519 742.353 208.519 735.247 Q208.519 728.117 206.69 724.575 Q204.885 721.011 201.25 721.011 M201.25 717.307 Q207.061 717.307 210.116 721.913 Q213.195 726.497 213.195 735.247 Q213.195 743.973 210.116 748.58 Q207.061 753.163 201.25 753.163 Q195.44 753.163 192.362 748.58 Q189.306 743.973 189.306 735.247 Q189.306 726.497 192.362 721.913 Q195.44 717.307 201.25 717.307 Z" fill="#000000" fill-rule="nonzero" fill-opacity="1" /><path clip-path="url(#clip310)" d="M117.663 424.044 L125.302 424.044 L125.302 397.678 L116.992 399.345 L116.992 395.085 L125.255 393.419 L129.931 393.419 L129.931 424.044 L137.57 424.044 L137.57 427.979 L117.663 427.979 L117.663 424.044 Z" fill="#000000" fill-rule="nonzero" fill-opacity="1" /><path clip-path="url(#clip310)" d="M147.015 422.099 L151.899 422.099 L151.899 427.979 L147.015 427.979 L147.015 422.099 Z" fill="#000000" fill-rule="nonzero" fill-opacity="1" /><path clip-path="url(#clip310)" d="M160.903 393.419 L183.126 393.419 L183.126 395.41 L170.579 427.979 L165.695 427.979 L177.501 397.354 L160.903 397.354 L160.903 393.419 Z" fill="#000000" fill-rule="nonzero" fill-opacity="1" /><path clip-path="url(#clip310)" d="M192.292 393.419 L210.649 393.419 L210.649 397.354 L196.575 397.354 L196.575 405.826 Q197.593 405.479 198.612 405.317 Q199.63 405.132 200.649 405.132 Q206.436 405.132 209.815 408.303 Q213.195 411.474 213.195 416.891 Q213.195 422.47 209.723 425.571 Q206.25 428.65 199.931 428.65 Q197.755 428.65 195.487 428.28 Q193.241 427.909 190.834 427.169 L190.834 422.47 Q192.917 423.604 195.139 424.159 Q197.362 424.715 199.838 424.715 Q203.843 424.715 206.181 422.608 Q208.519 420.502 208.519 416.891 Q208.519 413.28 206.181 411.173 Q203.843 409.067 199.838 409.067 Q197.963 409.067 196.088 409.484 Q194.237 409.9 192.292 410.78 L192.292 393.419 Z" fill="#000000" fill-rule="nonzero" fill-opacity="1" /><path clip-path="url(#clip310)" d="M119.885 99.5305 L136.204 99.5305 L136.204 103.466 L114.26 103.466 L114.26 99.5305 Q116.922 96.7759 121.505 92.1463 Q126.112 87.4935 127.292 86.151 Q129.538 83.6278 130.417 81.8917 Q131.32 80.1325 131.32 78.4427 Q131.32 75.688 129.376 73.9519 Q127.455 72.2158 124.353 72.2158 Q122.154 72.2158 119.7 72.9797 Q117.269 73.7436 114.492 75.2945 L114.492 70.5723 Q117.316 69.4381 119.769 68.8594 Q122.223 68.2807 124.26 68.2807 Q129.63 68.2807 132.825 70.9658 Q136.019 73.651 136.019 78.1417 Q136.019 80.2714 135.209 82.1926 Q134.422 84.0908 132.316 86.6834 Q131.737 87.3546 128.635 90.5722 Q125.533 93.7667 119.885 99.5305 Z" fill="#000000" fill-rule="nonzero" fill-opacity="1" /><path clip-path="url(#clip310)" d="M146.019 97.5861 L150.903 97.5861 L150.903 103.466 L146.019 103.466 L146.019 97.5861 Z" fill="#000000" fill-rule="nonzero" fill-opacity="1" /><path clip-path="url(#clip310)" d="M171.089 71.9844 Q167.477 71.9844 165.649 75.5492 Q163.843 79.0908 163.843 86.2204 Q163.843 93.3268 165.649 96.8916 Q167.477 100.433 171.089 100.433 Q174.723 100.433 176.528 96.8916 Q178.357 93.3268 178.357 86.2204 Q178.357 79.0908 176.528 75.5492 Q174.723 71.9844 171.089 71.9844 M171.089 68.2807 Q176.899 68.2807 179.954 72.8871 Q183.033 77.4704 183.033 86.2204 Q183.033 94.9472 179.954 99.5537 Q176.899 104.137 171.089 104.137 Q165.278 104.137 162.2 99.5537 Q159.144 94.9472 159.144 86.2204 Q159.144 77.4704 162.2 72.8871 Q165.278 68.2807 171.089 68.2807 Z" fill="#000000" fill-rule="nonzero" fill-opacity="1" /><path clip-path="url(#clip310)" d="M201.25 71.9844 Q197.639 71.9844 195.811 75.5492 Q194.005 79.0908 194.005 86.2204 Q194.005 93.3268 195.811 96.8916 Q197.639 100.433 201.25 100.433 Q204.885 100.433 206.69 96.8916 Q208.519 93.3268 208.519 86.2204 Q208.519 79.0908 206.69 75.5492 Q204.885 71.9844 201.25 71.9844 M201.25 68.2807 Q207.061 68.2807 210.116 72.8871 Q213.195 77.4704 213.195 86.2204 Q213.195 94.9472 210.116 99.5537 Q207.061 104.137 201.25 104.137 Q195.44 104.137 192.362 99.5537 Q189.306 94.9472 189.306 86.2204 Q189.306 77.4704 192.362 72.8871 Q195.44 68.2807 201.25 68.2807 Z" fill="#000000" fill-rule="nonzero" fill-opacity="1" /><path clip-path="url(#clip310)" d="M20.8447 1043.73 Q20.8447 1050.73 26.0645 1054.87 Q31.2844 1058.97 40.2919 1058.97 Q49.2675 1058.97 54.4874 1054.87 Q59.7073 1050.73 59.7073 1043.73 Q59.7073 1036.72 54.4874 1032.65 Q49.2675 1028.54 40.2919 1028.54 Q31.2844 1028.54 26.0645 1032.65 Q20.8447 1036.72 20.8447 1043.73 M15.6248 1043.73 Q15.6248 1033.73 22.3406 1027.75 Q29.0246 1021.76 40.2919 1021.76 Q51.5274 1021.76 58.2432 1027.75 Q64.9272 1033.73 64.9272 1043.73 Q64.9272 1053.75 58.2432 1059.77 Q51.5592 1065.75 40.2919 1065.75 Q29.0246 1065.75 22.3406 1059.77 Q15.6248 1053.75 15.6248 1043.73 Z" fill="#000000" fill-rule="nonzero" fill-opacity="1" /><path clip-path="url(#clip310)" d="M49.9359 1012.57 L28.3562 1012.57 L28.3562 1006.71 L49.7131 1006.71 Q54.7739 1006.71 57.3202 1004.74 Q59.8346 1002.76 59.8346 998.816 Q59.8346 994.073 56.8109 991.336 Q53.7872 988.567 48.5673 988.567 L28.3562 988.567 L28.3562 982.711 L64.0042 982.711 L64.0042 988.567 L58.5296 988.567 Q61.7762 990.7 63.3676 993.532 Q64.9272 996.333 64.9272 1000.06 Q64.9272 1006.2 61.1078 1009.38 Q57.2883 1012.57 49.9359 1012.57 M27.4968 997.829 L27.4968 997.829 Z" fill="#000000" fill-rule="nonzero" fill-opacity="1" /><path clip-path="url(#clip310)" d="M18.2347 964.855 L28.3562 964.855 L28.3562 952.792 L32.9077 952.792 L32.9077 964.855 L52.2594 964.855 Q56.6199 964.855 57.8613 963.677 Q59.1026 962.468 59.1026 958.807 L59.1026 952.792 L64.0042 952.792 L64.0042 958.807 Q64.0042 965.587 61.4897 968.165 Q58.9434 970.743 52.2594 970.743 L32.9077 970.743 L32.9077 975.04 L28.3562 975.04 L28.3562 970.743 L18.2347 970.743 L18.2347 964.855 Z" fill="#000000" fill-rule="nonzero" fill-opacity="1" /><path clip-path="url(#clip310)" d="M58.657 939.424 L77.5631 939.424 L77.5631 945.312 L28.3562 945.312 L28.3562 939.424 L33.7671 939.424 Q30.5842 937.578 29.0564 934.777 Q27.4968 931.944 27.4968 928.029 Q27.4968 921.536 32.6531 917.494 Q37.8093 913.42 46.212 913.42 Q54.6147 913.42 59.771 917.494 Q64.9272 921.536 64.9272 928.029 Q64.9272 931.944 63.3994 934.777 Q61.8398 937.578 58.657 939.424 M46.212 919.499 Q39.7508 919.499 36.0905 922.173 Q32.3984 924.815 32.3984 929.462 Q32.3984 934.108 36.0905 936.782 Q39.7508 939.424 46.212 939.424 Q52.6732 939.424 56.3653 936.782 Q60.0256 934.108 60.0256 929.462 Q60.0256 924.815 56.3653 922.173 Q52.6732 919.499 46.212 919.499 Z" fill="#000000" fill-rule="nonzero" fill-opacity="1" /><path clip-path="url(#clip310)" d="M49.9359 904.317 L28.3562 904.317 L28.3562 898.461 L49.7131 898.461 Q54.7739 898.461 57.3202 896.487 Q59.8346 894.514 59.8346 890.567 Q59.8346 885.825 56.8109 883.087 Q53.7872 880.318 48.5673 880.318 L28.3562 880.318 L28.3562 874.462 L64.0042 874.462 L64.0042 880.318 L58.5296 880.318 Q61.7762 882.451 63.3676 885.284 Q64.9272 888.084 64.9272 891.808 Q64.9272 897.951 61.1078 901.134 Q57.2883 904.317 49.9359 904.317 M27.4968 889.58 L27.4968 889.58 Z" fill="#000000" fill-rule="nonzero" fill-opacity="1" /><path clip-path="url(#clip310)" d="M18.2347 856.606 L28.3562 856.606 L28.3562 844.543 L32.9077 844.543 L32.9077 856.606 L52.2594 856.606 Q56.6199 856.606 57.8613 855.428 Q59.1026 854.219 59.1026 850.559 L59.1026 844.543 L64.0042 844.543 L64.0042 850.559 Q64.0042 857.338 61.4897 859.916 Q58.9434 862.494 52.2594 862.494 L32.9077 862.494 L32.9077 866.791 L28.3562 866.791 L28.3562 862.494 L18.2347 862.494 L18.2347 856.606 Z" fill="#000000" fill-rule="nonzero" fill-opacity="1" /><path clip-path="url(#clip310)" d="M21.7677 830.156 L58.7206 830.156 L58.7206 822.39 Q58.7206 812.555 54.2646 808.004 Q49.8086 803.421 40.1964 803.421 Q30.6479 803.421 26.2237 808.004 Q21.7677 812.555 21.7677 822.39 L21.7677 830.156 M16.4842 836.586 L16.4842 823.377 Q16.4842 809.563 22.2451 803.102 Q27.9743 796.641 40.1964 796.641 Q52.4822 796.641 58.2432 803.134 Q64.0042 809.627 64.0042 823.377 L64.0042 836.586 L16.4842 836.586 Z" fill="#000000" fill-rule="nonzero" fill-opacity="1" /><path clip-path="url(#clip310)" d="M28.3562 786.647 L28.3562 780.79 L64.0042 780.79 L64.0042 786.647 L28.3562 786.647 M14.479 786.647 L14.479 780.79 L21.895 780.79 L21.895 786.647 L14.479 786.647 Z" fill="#000000" fill-rule="nonzero" fill-opacity="1" /><path clip-path="url(#clip310)" d="M29.4065 745.811 L34.9447 745.811 Q33.6716 748.293 33.035 750.967 Q32.3984 753.641 32.3984 756.505 Q32.3984 760.866 33.7352 763.062 Q35.072 765.226 37.7456 765.226 Q39.7826 765.226 40.9603 763.667 Q42.1061 762.107 43.1565 757.396 L43.6021 755.391 Q44.9389 749.153 47.3897 746.543 Q49.8086 743.901 54.1691 743.901 Q59.1344 743.901 62.0308 747.848 Q64.9272 751.763 64.9272 758.638 Q64.9272 761.502 64.3543 764.622 Q63.8132 767.709 62.6992 771.146 L56.6518 771.146 Q58.3387 767.9 59.198 764.749 Q60.0256 761.598 60.0256 758.51 Q60.0256 754.373 58.6251 752.145 Q57.1929 749.917 54.6147 749.917 Q52.2276 749.917 50.9545 751.54 Q49.6813 753.131 48.5037 758.574 L48.0262 760.611 Q46.8804 766.054 44.5251 768.473 Q42.138 770.892 38.0002 770.892 Q32.9713 770.892 30.2341 767.327 Q27.4968 763.762 27.4968 757.205 Q27.4968 753.959 27.9743 751.094 Q28.4517 748.23 29.4065 745.811 Z" fill="#000000" fill-rule="nonzero" fill-opacity="1" /><path clip-path="url(#clip310)" d="M29.7248 708.922 L35.1993 708.922 Q33.8307 711.404 33.1623 713.919 Q32.4621 716.401 32.4621 718.948 Q32.4621 724.645 36.0905 727.796 Q39.6872 730.947 46.212 730.947 Q52.7369 730.947 56.3653 727.796 Q59.9619 724.645 59.9619 718.948 Q59.9619 716.401 59.2935 713.919 Q58.5933 711.404 57.2247 708.922 L62.6355 708.922 Q63.7814 711.372 64.3543 714.014 Q64.9272 716.624 64.9272 719.584 Q64.9272 727.637 59.8664 732.379 Q54.8057 737.122 46.212 737.122 Q37.491 737.122 32.4939 732.347 Q27.4968 727.541 27.4968 719.202 Q27.4968 716.497 28.0697 713.919 Q28.6108 711.341 29.7248 708.922 Z" fill="#000000" fill-rule="nonzero" fill-opacity="1" /><path clip-path="url(#clip310)" d="M33.8307 678.08 Q33.2578 679.066 33.0032 680.244 Q32.7167 681.39 32.7167 682.79 Q32.7167 687.756 35.9632 690.429 Q39.1779 693.071 45.2253 693.071 L64.0042 693.071 L64.0042 698.959 L28.3562 698.959 L28.3562 693.071 L33.8944 693.071 Q30.6479 691.225 29.0883 688.265 Q27.4968 685.305 27.4968 681.072 Q27.4968 680.467 27.5923 679.735 Q27.656 679.003 27.8151 678.112 L33.8307 678.08 Z" fill="#000000" fill-rule="nonzero" fill-opacity="1" /><path clip-path="url(#clip310)" d="M44.7161 642.877 L47.5806 642.877 L47.5806 669.804 Q53.6281 669.422 56.8109 666.176 Q59.9619 662.898 59.9619 657.073 Q59.9619 653.699 59.1344 650.548 Q58.3069 647.365 56.6518 644.246 L62.1899 644.246 Q63.5267 647.397 64.227 650.707 Q64.9272 654.017 64.9272 657.423 Q64.9272 665.953 59.9619 670.95 Q54.9967 675.915 46.5303 675.915 Q37.7774 675.915 32.6531 671.205 Q27.4968 666.462 27.4968 658.442 Q27.4968 651.248 32.1438 647.079 Q36.7589 642.877 44.7161 642.877 M42.9973 648.734 Q38.1912 648.798 35.3266 651.439 Q32.4621 654.049 32.4621 658.378 Q32.4621 663.279 35.2312 666.24 Q38.0002 669.168 43.0292 669.613 L42.9973 648.734 Z" fill="#000000" fill-rule="nonzero" fill-opacity="1" /><path clip-path="url(#clip310)" d="M18.2347 627.472 L28.3562 627.472 L28.3562 615.409 L32.9077 615.409 L32.9077 627.472 L52.2594 627.472 Q56.6199 627.472 57.8613 626.295 Q59.1026 625.085 59.1026 621.425 L59.1026 615.409 L64.0042 615.409 L64.0042 621.425 Q64.0042 628.204 61.4897 630.783 Q58.9434 633.361 52.2594 633.361 L32.9077 633.361 L32.9077 637.658 L28.3562 637.658 L28.3562 633.361 L18.2347 633.361 L18.2347 627.472 Z" fill="#000000" fill-rule="nonzero" fill-opacity="1" /><path clip-path="url(#clip310)" d="M44.7161 577.215 L47.5806 577.215 L47.5806 604.142 Q53.6281 603.76 56.8109 600.514 Q59.9619 597.235 59.9619 591.411 Q59.9619 588.037 59.1344 584.886 Q58.3069 581.703 56.6518 578.584 L62.1899 578.584 Q63.5267 581.735 64.227 585.045 Q64.9272 588.355 64.9272 591.761 Q64.9272 600.291 59.9619 605.288 Q54.9967 610.253 46.5303 610.253 Q37.7774 610.253 32.6531 605.543 Q27.4968 600.8 27.4968 592.779 Q27.4968 585.586 32.1438 581.416 Q36.7589 577.215 44.7161 577.215 M42.9973 583.072 Q38.1912 583.135 35.3266 585.777 Q32.4621 588.387 32.4621 592.716 Q32.4621 597.617 35.2312 600.577 Q38.0002 603.505 43.0292 603.951 L42.9973 583.072 Z" fill="#000000" fill-rule="nonzero" fill-opacity="1" /><path clip-path="url(#clip310)" d="M18.0438 538.862 L24.314 538.862 Q22.5634 542.522 21.704 545.769 Q20.8447 549.015 20.8447 552.039 Q20.8447 557.29 22.8817 560.155 Q24.9187 562.988 28.6745 562.988 Q31.8255 562.988 33.4488 561.11 Q35.0402 559.2 36.0269 553.917 L36.8226 550.034 Q38.1912 542.84 41.6605 539.435 Q45.098 535.997 50.8908 535.997 Q57.7976 535.997 61.3624 540.644 Q64.9272 545.259 64.9272 554.203 Q64.9272 557.577 64.1633 561.396 Q63.3994 565.184 61.9035 569.258 L55.2831 569.258 Q57.4793 565.343 58.5933 561.587 Q59.7073 557.832 59.7073 554.203 Q59.7073 548.697 57.543 545.705 Q55.3786 542.713 51.3682 542.713 Q47.8671 542.713 45.8937 544.877 Q43.9204 547.01 42.9337 551.911 L42.1698 555.826 Q40.7375 563.02 37.682 566.234 Q34.6264 569.449 29.1837 569.449 Q22.8817 569.449 19.2532 565.025 Q15.6248 560.569 15.6248 552.771 Q15.6248 549.429 16.2295 545.96 Q16.8343 542.49 18.0438 538.862 Z" fill="#000000" fill-rule="nonzero" fill-opacity="1" /><path clip-path="url(#clip310)" d="M18.2347 520.433 L28.3562 520.433 L28.3562 508.37 L32.9077 508.37 L32.9077 520.433 L52.2594 520.433 Q56.6199 520.433 57.8613 519.255 Q59.1026 518.046 59.1026 514.386 L59.1026 508.37 L64.0042 508.37 L64.0042 514.386 Q64.0042 521.165 61.4897 523.743 Q58.9434 526.321 52.2594 526.321 L32.9077 526.321 L32.9077 530.618 L28.3562 530.618 L28.3562 526.321 L18.2347 526.321 L18.2347 520.433 Z" fill="#000000" fill-rule="nonzero" fill-opacity="1" /><path clip-path="url(#clip310)" d="M46.0847 484.467 Q46.0847 491.565 47.7079 494.302 Q49.3312 497.039 53.2461 497.039 Q56.3653 497.039 58.2114 495.002 Q60.0256 492.933 60.0256 489.4 Q60.0256 484.53 56.5881 481.602 Q53.1188 478.642 47.3897 478.642 L46.0847 478.642 L46.0847 484.467 M43.6657 472.786 L64.0042 472.786 L64.0042 478.642 L58.5933 478.642 Q61.8398 480.647 63.3994 483.639 Q64.9272 486.631 64.9272 490.96 Q64.9272 496.434 61.8716 499.681 Q58.7843 502.896 53.6281 502.896 Q47.6125 502.896 44.5569 498.885 Q41.5014 494.843 41.5014 486.854 L41.5014 478.642 L40.9285 478.642 Q36.8862 478.642 34.6901 481.316 Q32.4621 483.958 32.4621 488.764 Q32.4621 491.819 33.1941 494.716 Q33.9262 497.612 35.3903 500.286 L29.9795 500.286 Q28.7381 497.071 28.1334 494.047 Q27.4968 491.023 27.4968 488.159 Q27.4968 480.425 31.5072 476.605 Q35.5176 472.786 43.6657 472.786 Z" fill="#000000" fill-rule="nonzero" fill-opacity="1" /><path clip-path="url(#clip310)" d="M18.2347 454.93 L28.3562 454.93 L28.3562 442.867 L32.9077 442.867 L32.9077 454.93 L52.2594 454.93 Q56.6199 454.93 57.8613 453.752 Q59.1026 452.543 59.1026 448.882 L59.1026 442.867 L64.0042 442.867 L64.0042 448.882 Q64.0042 455.662 61.4897 458.24 Q58.9434 460.818 52.2594 460.818 L32.9077 460.818 L32.9077 465.115 L28.3562 465.115 L28.3562 460.818 L18.2347 460.818 L18.2347 454.93 Z" fill="#000000" fill-rule="nonzero" fill-opacity="1" /><path clip-path="url(#clip310)" d="M44.7161 404.673 L47.5806 404.673 L47.5806 431.6 Q53.6281 431.218 56.8109 427.971 Q59.9619 424.693 59.9619 418.868 Q59.9619 415.494 59.1344 412.343 Q58.3069 409.16 56.6518 406.041 L62.1899 406.041 Q63.5267 409.192 64.227 412.502 Q64.9272 415.813 64.9272 419.218 Q64.9272 427.748 59.9619 432.745 Q54.9967 437.711 46.5303 437.711 Q37.7774 437.711 32.6531 433 Q27.4968 428.258 27.4968 420.237 Q27.4968 413.044 32.1438 408.874 Q36.7589 404.673 44.7161 404.673 M42.9973 410.529 Q38.1912 410.593 35.3266 413.235 Q32.4621 415.844 32.4621 420.173 Q32.4621 425.075 35.2312 428.035 Q38.0002 430.963 43.0292 431.409 L42.9973 410.529 Z" fill="#000000" fill-rule="nonzero" fill-opacity="1" /><polyline clip-path="url(#clip312)" style="stroke:#009af9; stroke-linecap:round; stroke-linejoin:round; stroke-width:4; stroke-opacity:1; fill:none" points="308.73,1384.24 308.917,1384.24 310.483,1384.24 314.536,1384.24 320.911,1384.24 328.986,1384.24 352.605,1384.24 382.328,1384.24 411.978,1384.24 443.371,1384.24 476.192,1384.24 510.626,1384.24 546.612,1384.24 584.545,1384.24 625.758,1384.24 670.982,1384.24 711.859,1384.24 752.055,1384.24 794.315,1384.24 834.151,1384.24 874.762,1384.24 914.843,1384.24 956.986,1384.24 997.907,1384.24 1025.36,1384.24 1049.28,1384.24 1073.69,1384.24 1090.07,1384.24 1104.45,1384.24 1120.18,1384.24 1134.13,1384.24 1146.36,1384.24 1158.43,1384.24 1168.67,1384.24 1178.69,1384.24 1187.54,1384.24 1195.87,1384.24 1203.39,1384.24 1210.42,1384.24 1216.83,1384.24 1222.78,1384.24 1228.31,1384.24 1233.39,1384.24 1238.18,1384.24 1242.69,1384.24 1246.85,1384.24 1250.88,1384.24 1254.54,1384.24 1258.13,1384.24 1261.33,1384.24 1264.54,1384.24 1267.54,1384.24 1270.34,1384.24 1273.1,1384.24 1275.56,1384.24 1278.14,1384.24 1280.52,1384.24 1282.81,1384.24 1285.19,1384.24 1287.22,1384.24 1289.42,1384.24 1291.63,1384.24 1293.51,1384.24 1295.64,1384.24 1297.69,1384.24 1299.53,1384.24 1301.59,1384.24 1303.49,1384.24 1305.31,1384.24 1307.3,1384.24 1309.08,1384.24 1310.89,1384.24 1312.81,1384.24 1314.48,1384.24 1316.27,1384.24 1318.13,1384.24 1319.71,1384.24 1321.49,1384.24 1323.29,1384.24 1324.79,1384.24 1326.56,1384.24 1328.3,1384.24 1329.75,1384.24 1331.5,1384.24 1333.2,1384.24 1334.64,1384.24 1336.36,1384.24 1338.02,1384.24 1339.45,1384.24 1341.16,1384.24 1342.77,1384.24 1344.2,1384.24 1345.89,1384.24 1347.47,1384.24 1348.9,1384.24 1350.56,1384.24 1352.11,1384.24 1353.55,1384.24 1355.19,1384.24 1356.71,1384.24 1358.15,1384.24 1359.77,1384.24 1361.26,1384.24 1362.71,1384.24 1364.31,1384.24 1365.77,1384.24 1367.22,1384.24 1368.81,1384.24 1370.24,1384.24 1371.7,1384.24 1373.27,1384.24 1374.68,1384.24 1376.14,1384.24 1377.7,1384.24 1379.07,1384.24 1380.55,1384.24 1382.08,1384.24 1383.44,1384.24 1384.91,1384.24 1386.43,1384.24 1387.76,1384.24 1389.24,1384.24 1390.75,1384.24 1392.06,1384.24 1393.54,1384.24 1395.03,1384.24 1396.32,1384.24 1397.81,1384.24 1399.28,1384.24 1400.56,1384.24 1402.04,1384.24 1403.51,1384.24 1404.76,1384.24 1406.25,1384.24 1407.7,1384.24 1408.95,1384.24 1410.43,1384.24 1411.87,1384.24 1413.11,1384.24 1414.59,1384.24 1416.02,1384.24 1417.25,1384.24 1418.72,1384.24 1420.15,1384.24 1421.37,1384.24 1422.84,1384.24 1424.26,1384.24 1425.48,1384.24 1426.94,1384.24 1428.36,1384.24 1429.57,1384.24 1431.03,1384.24 1432.44,1384.24 1433.65,1384.24 1435.11,1384.24 1436.51,1384.24 1437.71,1384.24 1439.17,1384.24 1440.57,1384.24 1441.77,1384.24 1443.22,1384.24 1444.62,1384.24 1445.82,1384.24 1447.27,1384.24 1448.66,1384.24 1449.85,1384.24 1451.3,1384.24 1452.69,1384.24 1453.88,1384.24 1455.33,1384.24 1456.71,1384.24 1457.9,1384.24 1459.34,1384.24 1460.73,1384.24 1461.92,1384.24 1463.36,1384.24 1464.74,1384.24 1465.93,1384.24 1467.36,1384.24 1468.74,1384.24 1469.93,1384.24 1471.36,1384.24 1472.74,1384.24 1473.92,1384.24 1475.35,1384.24 1476.73,1384.24 1477.91,1384.24 1479.34,1384.24 1480.72,1384.24 1481.9,1384.24 1483.33,1384.24 1484.7,1384.24 1485.88,1384.24 1487.31,1384.24 1488.68,1384.24 1489.86,1384.24 1491.28,1384.24 1492.65,1384.24 1493.83,1384.24 1495.25,1384.24 1496.62,1384.24 1497.8,1384.24 1499.22,1384.24 1500.59,1384.24 1501.76,1384.24 1503.18,1384.24 1504.55,1384.24 1505.73,1384.24 1507.14,1384.24 1508.51,1384.24 1509.68,1384.24 1511.1,1384.24 1512.46,1384.24 1513.64,1384.24 1515.05,1384.24 1516.42,1384.24 1517.59,1384.24 1519.01,1384.24 1520.37,1384.24 1521.54,1384.24 1522.95,1384.24 1524.32,1384.24 1525.49,1384.24 1526.9,1384.24 1528.26,1384.24 1529.44,1384.24 1530.85,1384.24 1532.21,1384.24 1533.38,1384.24 1534.79,1384.24 1536.15,1384.24 1537.32,1384.24 1538.73,1384.24 1540.09,1384.24 1541.26,1384.24 1542.67,1384.24 1544.03,1384.24 1545.2,1384.24 1546.6,1384.24 1547.96,1384.24 1549.13,1384.24 1550.54,1384.24 1551.9,1384.24 1553.07,1384.24 1554.47,1384.24 1555.83,1384.24 1557,1384.24 1558.41,1384.24 1559.76,1384.24 1560.93,1384.24 1562.34,1384.24 1563.69,1384.24 1564.86,1384.24 1566.27,1384.24 1567.62,1384.24 1568.79,1384.24 1570.19,1384.24 1571.55,1384.24 1572.72,1384.24 1574.12,1384.24 1575.48,1384.24 1576.65,1384.24 1578.05,1384.24 1579.4,1384.24 1580.57,1384.24 1581.97,1384.24 1583.33,1384.24 1584.5,1384.24 1585.9,1384.24 1587.25,1384.24 1588.42,1384.24 1589.82,1384.24 1591.17,1384.24 1592.34,1384.24 1593.74,1384.24 1595.1,1384.24 1596.27,1384.24 1597.67,1384.24 1599.02,1384.24 1600.19,1384.24 1601.59,1384.24 1602.94,1384.24 1604.11,1384.24 1605.51,1384.24 1606.86,1384.24 1608.03,1384.24 1609.43,1384.24 1610.78,1384.24 1611.95,1384.24 1613.35,1384.24 1614.7,1384.24 1615.87,1384.24 1617.27,1384.24 1618.62,1384.24 1619.78,1384.24 1621.18,1384.24 1622.54,1384.24 1623.7,1384.24 1625.1,1384.24 1626.45,1384.24 1627.62,1384.24 1629.02,1384.24 1630.37,1384.24 1631.54,1384.24 1632.94,1384.24 1634.29,1384.24 1635.45,1384.24 1636.85,1384.24 1638.2,1384.24 1639.37,1384.24 1640.77,1384.24 1642.12,1384.24 1643.29,1384.24 1644.68,1384.24 1646.03,1384.24 1647.2,1384.24 1648.6,1384.24 1649.95,1384.24 1651.12,1384.24 1652.51,1384.24 1653.86,1384.24 1655.03,1384.24 1656.43,1384.24 1657.78,1384.24 1658.94,1384.24 1660.34,1384.24 1661.69,1384.24 1662.86,1384.24 1664.26,1384.24 1665.61,1384.24 1666.77,1384.24 1668.17,1384.24 1669.52,1384.24 1670.69,1384.24 1672.08,1384.24 1673.43,1384.24 1674.6,1384.24 1676,1384.24 1677.35,1384.24 1678.51,1384.24 1679.91,1384.24 1681.26,1384.24 1682.43,1384.24 1683.82,1384.24 1685.17,1384.24 1686.34,1384.24 1687.74,1384.24 1689.09,1384.24 1690.25,1384.24 1691.65,1384.24 1693,1384.24 1694.16,1384.24 1695.56,1384.24 1696.91,1384.24 1698.08,1384.24 1699.47,1384.24 1700.82,1384.24 1701.99,1384.24 1703.39,1384.24 1704.74,1384.24 1705.9,1384.24 1707.3,1384.24 1708.65,1384.24 1709.81,1384.24 1711.21,1384.24 1712.56,1384.24 1713.72,1384.24 1715.12,1384.24 1716.47,1384.24 1717.64,1384.24 1719.03,1384.24 1720.38,1384.24 1721.55,1384.24 1722.94,1384.24 1724.29,1384.24 1725.46,1384.24 1726.86,1384.24 1728.2,1384.24 1729.37,1384.24 1730.77,1384.24 1732.12,1384.24 1733.28,1384.24 1734.68,1384.24 1736.03,1384.24 1737.19,1384.24 1738.59,1384.24 1739.94,1384.24 1741.1,1384.24 1742.5,1384.24 1743.85,1384.24 1745.02,1384.24 1746.41,1384.24 1747.76,1384.24 1748.93,1384.24 1750.32,1384.24 1751.67,1384.24 1752.84,1384.24 1754.23,1384.24 1755.58,1384.24 1756.75,1384.24 1758.14,1384.24 1759.49,1384.24 1760.66,1384.24 1762.05,1384.24 1763.4,1384.24 1764.57,1384.24 1765.97,1384.24 1767.31,1384.24 1768.48,1384.24 1769.88,1384.24 1771.22,1384.24 1772.39,1384.24 1773.79,1384.24 1775.14,1384.24 1776.3,1384.24 1777.7,1384.24 1779.05,1384.24 1780.21,1384.24 1781.61,1384.24 1782.96,1384.24 1784.12,1384.24 1785.52,1384.24 1786.87,1384.24 1788.03,1384.24 1789.43,1384.24 1790.78,1384.24 1791.94,1384.24 1793.34,1384.24 1794.69,1384.24 1795.85,1384.24 1797.25,1384.24 1798.6,1384.24 1799.76,1384.24 1801.16,1384.24 1802.51,1384.24 1803.67,1384.24 1805.07,1384.24 1806.42,1384.24 1807.58,1384.24 1808.98,1384.24 1810.33,1384.24 1811.49,1384.24 1812.89,1384.24 1814.24,1384.24 1815.4,1384.24 1816.8,1384.24 1818.15,1384.24 1819.31,1384.24 1820.71,1384.24 1822.06,1384.24 1823.23,1384.24 1824.62,1384.24 1825.97,1384.24 1827.14,1384.24 1828.53,1384.24 1829.88,1384.24 1831.05,1384.24 1832.44,1384.24 1833.79,1384.24 1834.96,1384.24 1836.35,1384.24 1837.7,1384.24 1838.87,1384.24 1840.26,1384.24 1841.61,1384.24 1842.78,1384.24 1844.17,1384.24 1845.52,1384.24 1846.69,1384.24 1848.08,1384.24 1849.43,1384.24 1850.6,1384.24 1851.99,1384.24 1853.34,1384.24 1854.51,1384.24 1855.9,1384.24 1857.25,1384.24 1858.42,1384.24 1859.81,1384.24 1861.16,1384.24 1862.33,1384.24 1863.72,1384.24 1865.07,1384.24 1866.24,1384.24 1867.63,1384.24 1868.98,1384.24 1870.15,1384.24 1871.54,1384.24 1872.89,1384.24 1874.06,1384.24 1875.45,1384.24 1876.8,1384.24 1877.97,1384.24 1879.36,1384.24 1880.71,1384.24 1881.88,1384.24 1883.27,1384.24 1884.62,1384.24 1885.79,1384.24 1887.18,1384.24 1888.53,1384.24 1889.7,1384.24 1891.09,1384.24 1892.44,1384.24 1893.61,1384.24 1895,1384.24 1896.35,1384.24 1897.52,1384.24 1898.91,1384.24 1900.26,1384.24 1901.43,1384.24 1902.82,1384.24 1904.17,1384.24 1905.34,1384.24 1906.73,1384.24 1908.08,1384.24 1909.25,1384.24 1910.64,1384.24 1911.99,1384.24 1913.16,1384.24 1914.55,1384.24 1915.9,1384.24 1917.07,1384.24 1918.46,1384.24 1919.81,1384.24 1920.97,1384.24 1922.37,1384.24 1923.72,1384.24 1924.88,1384.24 1926.28,1384.24 1927.63,1384.24 1928.79,1384.24 1930.19,1384.24 1931.54,1384.24 1932.7,1384.24 1934.1,1384.24 1935.45,1384.24 1936.61,1384.24 1938.01,1384.24 1939.36,1384.24 1940.52,1384.24 1941.92,1384.24 1943.27,1384.24 1944.43,1384.24 1945.83,1384.24 1947.18,1384.24 1948.34,1384.24 1949.74,1384.24 1951.09,1384.24 1952.25,1384.24 1953.65,1384.24 1955,1384.24 1956.16,1384.24 1957.56,1384.24 1958.91,1384.24 1960.07,1384.24 1961.47,1384.24 1962.82,1384.24 1963.98,1384.24 1965.38,1384.24 1966.73,1384.24 1967.89,1384.24 1969.29,1384.24 1970.64,1384.24 1971.8,1384.24 1973.2,1384.24 1974.55,1384.24 1975.71,1384.24 1977.11,1384.24 1978.46,1384.24 1979.62,1384.24 1981.02,1384.24 1982.37,1384.24 1983.53,1384.24 1984.93,1384.24 1986.28,1384.24 1987.44,1384.24 1988.84,1384.24 1990.19,1384.24 1991.35,1384.24 1992.75,1384.24 1994.1,1384.24 1995.26,1384.24 1996.66,1384.24 1998.01,1384.24 1999.17,1384.24 2000.57,1384.24 2001.92,1384.24 2003.08,1384.24 2004.48,1384.24 2005.83,1384.24 2006.99,1384.24 2008.39,1384.24 2009.74,1384.24 2010.9,1384.24 2012.3,1384.24 2013.65,1384.24 2014.81,1384.24 2016.21,1384.24 2017.56,1384.24 2018.72,1384.24 2020.12,1384.24 2021.47,1384.24 2022.63,1384.24 2024.03,1384.24 2025.38,1384.24 2026.54,1384.24 2027.94,1384.24 2029.29,1384.24 2030.45,1384.24 2031.85,1384.24 2033.2,1384.24 2034.36,1384.24 2035.76,1384.24 2037.1,1384.24 2038.27,1384.24 2039.67,1384.24 2041.01,1384.24 2042.18,1384.24 2043.58,1384.24 2044.92,1384.24 2046.09,1384.24 2047.49,1384.24 2048.83,1384.24 2050,1384.24 2051.4,1384.24 2052.74,1384.24 2053.91,1384.24 2055.31,1384.24 2056.65,1384.24 2057.82,1384.24 2059.22,1384.24 2060.56,1384.24 2061.73,1384.24 2063.13,1384.24 2064.47,1384.24 2065.64,1384.24 2067.04,1384.24 2068.38,1384.24 2069.55,1384.24 2070.94,1384.24 2072.29,1384.24 2073.46,1384.24 2074.85,1384.24 2076.2,1384.24 2077.37,1384.24 2078.76,1384.24 2080.11,1384.24 2081.28,1384.24 2082.67,1384.24 2084.02,1384.24 2085.19,1384.24 2086.58,1384.24 2087.93,1384.24 2089.1,1384.24 2090.49,1384.24 2091.84,1384.24 2093.01,1384.24 2094.4,1384.24 2095.75,1384.24 2096.92,1384.24 2098.31,1384.24 2099.66,1384.24 2100.83,1384.24 2102.22,1384.24 2103.57,1384.24 2104.74,1384.24 2106.13,1384.24 2107.48,1384.24 2108.65,1384.24 2110.04,1384.24 2111.39,1384.24 2112.56,1384.24 2113.95,1384.24 2115.3,1384.24 2116.47,1384.24 2117.86,1384.24 2119.21,1384.24 2120.38,1384.24 2121.77,1384.24 2123.12,1384.24 2124.29,1384.24 2125.68,1384.24 2127.03,1384.24 2128.2,1384.24 2129.59,1384.24 2130.94,1384.24 2132.11,1384.24 2133.5,1384.24 2134.85,1384.24 2136.02,1384.24 2137.41,1384.24 2138.76,1384.24 2139.93,1384.24 2141.32,1384.24 2142.67,1384.24 2143.84,1384.24 2145.23,1384.24 2146.58,1384.24 2147.75,1384.24 2149.14,1384.24 2150.49,1384.24 2151.66,1384.24 2153.05,1384.24 2154.4,1384.24 2155.57,1384.24 2156.96,1384.24 2158.31,1384.24 2159.48,1384.24 2160.87,1384.24 2162.22,1384.24 2163.39,1384.24 2164.78,1384.24 2166.13,1384.24 2167.3,1384.24 2168.69,1384.24 2170.04,1384.24 2171.2,1384.24 2172.6,1384.24 2173.95,1384.24 2175.11,1384.24 2176.51,1384.24 2177.86,1384.24 2179.02,1384.24 2180.42,1384.24 2181.77,1384.24 2182.93,1384.24 2184.33,1384.24 2185.68,1384.24 2186.84,1384.24 2188.24,1384.24 2189.59,1384.24 2190.75,1384.24 2192.15,1384.24 2193.5,1384.24 2194.66,1384.24 2196.06,1384.24 2197.41,1384.24 2198.57,1384.24 2199.97,1384.24 2201.32,1384.24 2202.48,1384.24 2203.88,1384.24 2205.23,1384.24 2206.39,1384.24 2207.79,1384.24 2209.14,1384.24 2210.3,1384.24 2211.7,1384.24 2213.05,1384.24 2214.21,1384.24 2215.61,1384.24 2216.96,1384.24 2218.12,1384.24 2219.52,1384.24 2220.87,1384.24 2222.03,1384.24 2223.43,1384.24 2224.78,1384.24 2225.94,1384.24 2227.34,1384.24 2228.69,1384.24 2229.85,1384.24 2231.25,1384.24 2232.6,1384.24 2233.76,1384.24 2235.16,1384.24 2236.51,1384.24 2237.67,1384.24 2239.07,1384.24 2240.42,1384.24 2241.58,1384.24 2242.98,1384.24 2244.33,1384.24 2245.49,1384.24 2246.89,1384.24 2248.24,1384.24 2249.4,1384.24 2250.8,1384.24 2252.15,1384.24 2253.31,1384.24 2254.71,1384.24 2256.06,1384.24 2257.22,1384.24 2258.62,1384.24 2259.97,1384.24 2261.13,1384.24 2262.53,1384.24 2263.87,1384.24 2265.04,1384.24 2266.44,1384.24 2267.78,1384.24 2268.95,1384.24 2270.35,1384.24 2271.69,1384.24 2272.86,1384.24 2274.26,1384.24 2275.6,1384.24 2276.77,1384.24 2278.17,1384.24 2279.51,1384.24 2280.68,1384.24 2282.08,1384.24 2283.42,1384.24 2284.59,1384.24 2285.99,1384.24 2287.33,1384.24 2288.5,1384.24 2289.9,1384.24 2291.24,1384.24 2292.41,1384.24 2293.22,1384.24 "/>
</svg>
