<?xml version="1.0" encoding="utf-8"?>
<svg xmlns="http://www.w3.org/2000/svg" xmlns:xlink="http://www.w3.org/1999/xlink" width="600" height="400" viewBox="0 0 2400 1600">
<defs>
  <clipPath id="clip830">
    <rect x="0" y="0" width="2400" height="1600"/>
  </clipPath>
</defs>
<path clip-path="url(#clip830)" d="M0 1600 L2400 1600 L2400 0 L0 0  Z" fill="#ffffff" fill-rule="evenodd" fill-opacity="1"/>
<defs>
  <clipPath id="clip831">
    <rect x="480" y="0" width="1681" height="1600"/>
  </clipPath>
</defs>
<path clip-path="url(#clip830)" d="M210.746 1423.18 L2352.76 1423.18 L2352.76 47.2441 L210.746 47.2441  Z" fill="#ffffff" fill-rule="evenodd" fill-opacity="1"/>
<defs>
  <clipPath id="clip832">
    <rect x="210" y="47" width="2143" height="1377"/>
  </clipPath>
</defs>
<polyline clip-path="url(#clip832)" style="stroke:#000000; stroke-linecap:round; stroke-linejoin:round; stroke-width:2; stroke-opacity:0.1; fill:none" points="271.369,1423.18 271.369,47.2441 "/>
<polyline clip-path="url(#clip832)" style="stroke:#000000; stroke-linecap:round; stroke-linejoin:round; stroke-width:2; stroke-opacity:0.1; fill:none" points="776.56,1423.18 776.56,47.2441 "/>
<polyline clip-path="url(#clip832)" style="stroke:#000000; stroke-linecap:round; stroke-linejoin:round; stroke-width:2; stroke-opacity:0.1; fill:none" points="1281.75,1423.18 1281.75,47.2441 "/>
<polyline clip-path="url(#clip832)" style="stroke:#000000; stroke-linecap:round; stroke-linejoin:round; stroke-width:2; stroke-opacity:0.1; fill:none" points="1786.94,1423.18 1786.94,47.2441 "/>
<polyline clip-path="url(#clip832)" style="stroke:#000000; stroke-linecap:round; stroke-linejoin:round; stroke-width:2; stroke-opacity:0.1; fill:none" points="2292.13,1423.18 2292.13,47.2441 "/>
<polyline clip-path="url(#clip830)" style="stroke:#000000; stroke-linecap:round; stroke-linejoin:round; stroke-width:4; stroke-opacity:1; fill:none" points="210.746,1423.18 2352.76,1423.18 "/>
<polyline clip-path="url(#clip830)" style="stroke:#000000; stroke-linecap:round; stroke-linejoin:round; stroke-width:4; stroke-opacity:1; fill:none" points="271.369,1423.18 271.369,1404.28 "/>
<polyline clip-path="url(#clip830)" style="stroke:#000000; stroke-linecap:round; stroke-linejoin:round; stroke-width:4; stroke-opacity:1; fill:none" points="776.56,1423.18 776.56,1404.28 "/>
<polyline clip-path="url(#clip830)" style="stroke:#000000; stroke-linecap:round; stroke-linejoin:round; stroke-width:4; stroke-opacity:1; fill:none" points="1281.75,1423.18 1281.75,1404.28 "/>
<polyline clip-path="url(#clip830)" style="stroke:#000000; stroke-linecap:round; stroke-linejoin:round; stroke-width:4; stroke-opacity:1; fill:none" points="1786.94,1423.18 1786.94,1404.28 "/>
<polyline clip-path="url(#clip830)" style="stroke:#000000; stroke-linecap:round; stroke-linejoin:round; stroke-width:4; stroke-opacity:1; fill:none" points="2292.13,1423.18 2292.13,1404.28 "/>
<path clip-path="url(#clip830)" d="M248.753 1454.1 Q245.142 1454.1 243.313 1457.66 Q241.508 1461.2 241.508 1468.33 Q241.508 1475.44 243.313 1479.01 Q245.142 1482.55 248.753 1482.55 Q252.387 1482.55 254.193 1479.01 Q256.022 1475.44 256.022 1468.33 Q256.022 1461.2 254.193 1457.66 Q252.387 1454.1 248.753 1454.1 M248.753 1450.39 Q254.563 1450.39 257.619 1455 Q260.698 1459.58 260.698 1468.33 Q260.698 1477.06 257.619 1481.67 Q254.563 1486.25 248.753 1486.25 Q242.943 1486.25 239.864 1481.67 Q236.809 1477.06 236.809 1468.33 Q236.809 1459.58 239.864 1455 Q242.943 1450.39 248.753 1450.39 Z" fill="#000000" fill-rule="nonzero" fill-opacity="1" /><path clip-path="url(#clip830)" d="M268.915 1479.7 L273.799 1479.7 L273.799 1485.58 L268.915 1485.58 L268.915 1479.7 Z" fill="#000000" fill-rule="nonzero" fill-opacity="1" /><path clip-path="url(#clip830)" d="M293.984 1454.1 Q290.373 1454.1 288.545 1457.66 Q286.739 1461.2 286.739 1468.33 Q286.739 1475.44 288.545 1479.01 Q290.373 1482.55 293.984 1482.55 Q297.619 1482.55 299.424 1479.01 Q301.253 1475.44 301.253 1468.33 Q301.253 1461.2 299.424 1457.66 Q297.619 1454.1 293.984 1454.1 M293.984 1450.39 Q299.795 1450.39 302.85 1455 Q305.929 1459.58 305.929 1468.33 Q305.929 1477.06 302.85 1481.67 Q299.795 1486.25 293.984 1486.25 Q288.174 1486.25 285.096 1481.67 Q282.04 1477.06 282.04 1468.33 Q282.04 1459.58 285.096 1455 Q288.174 1450.39 293.984 1450.39 Z" fill="#000000" fill-rule="nonzero" fill-opacity="1" /><path clip-path="url(#clip830)" d="M748.296 1481.64 L764.616 1481.64 L764.616 1485.58 L742.671 1485.58 L742.671 1481.64 Q745.333 1478.89 749.917 1474.26 Q754.523 1469.61 755.704 1468.27 Q757.949 1465.74 758.829 1464.01 Q759.731 1462.25 759.731 1460.56 Q759.731 1457.8 757.787 1456.07 Q755.866 1454.33 752.764 1454.33 Q750.565 1454.33 748.111 1455.09 Q745.68 1455.86 742.903 1457.41 L742.903 1452.69 Q745.727 1451.55 748.18 1450.97 Q750.634 1450.39 752.671 1450.39 Q758.041 1450.39 761.236 1453.08 Q764.43 1455.77 764.43 1460.26 Q764.43 1462.39 763.62 1464.31 Q762.833 1466.2 760.727 1468.8 Q760.148 1469.47 757.046 1472.69 Q753.944 1475.88 748.296 1481.64 Z" fill="#000000" fill-rule="nonzero" fill-opacity="1" /><path clip-path="url(#clip830)" d="M774.43 1479.7 L779.315 1479.7 L779.315 1485.58 L774.43 1485.58 L774.43 1479.7 Z" fill="#000000" fill-rule="nonzero" fill-opacity="1" /><path clip-path="url(#clip830)" d="M789.546 1451.02 L807.902 1451.02 L807.902 1454.96 L793.828 1454.96 L793.828 1463.43 Q794.847 1463.08 795.865 1462.92 Q796.884 1462.73 797.902 1462.73 Q803.689 1462.73 807.069 1465.9 Q810.449 1469.08 810.449 1474.49 Q810.449 1480.07 806.976 1483.17 Q803.504 1486.25 797.185 1486.25 Q795.009 1486.25 792.74 1485.88 Q790.495 1485.51 788.088 1484.77 L788.088 1480.07 Q790.171 1481.2 792.393 1481.76 Q794.615 1482.32 797.092 1482.32 Q801.097 1482.32 803.435 1480.21 Q805.773 1478.1 805.773 1474.49 Q805.773 1470.88 803.435 1468.77 Q801.097 1466.67 797.092 1466.67 Q795.217 1466.67 793.342 1467.08 Q791.49 1467.5 789.546 1468.38 L789.546 1451.02 Z" fill="#000000" fill-rule="nonzero" fill-opacity="1" /><path clip-path="url(#clip830)" d="M1248.92 1451.02 L1267.27 1451.02 L1267.27 1454.96 L1253.2 1454.96 L1253.2 1463.43 Q1254.22 1463.08 1255.23 1462.92 Q1256.25 1462.73 1257.27 1462.73 Q1263.06 1462.73 1266.44 1465.9 Q1269.82 1469.08 1269.82 1474.49 Q1269.82 1480.07 1266.35 1483.17 Q1262.87 1486.25 1256.55 1486.25 Q1254.38 1486.25 1252.11 1485.88 Q1249.86 1485.51 1247.46 1484.77 L1247.46 1480.07 Q1249.54 1481.2 1251.76 1481.76 Q1253.98 1482.32 1256.46 1482.32 Q1260.47 1482.32 1262.8 1480.21 Q1265.14 1478.1 1265.14 1474.49 Q1265.14 1470.88 1262.8 1468.77 Q1260.47 1466.67 1256.46 1466.67 Q1254.59 1466.67 1252.71 1467.08 Q1250.86 1467.5 1248.92 1468.38 L1248.92 1451.02 Z" fill="#000000" fill-rule="nonzero" fill-opacity="1" /><path clip-path="url(#clip830)" d="M1279.03 1479.7 L1283.92 1479.7 L1283.92 1485.58 L1279.03 1485.58 L1279.03 1479.7 Z" fill="#000000" fill-rule="nonzero" fill-opacity="1" /><path clip-path="url(#clip830)" d="M1304.1 1454.1 Q1300.49 1454.1 1298.66 1457.66 Q1296.86 1461.2 1296.86 1468.33 Q1296.86 1475.44 1298.66 1479.01 Q1300.49 1482.55 1304.1 1482.55 Q1307.73 1482.55 1309.54 1479.01 Q1311.37 1475.44 1311.37 1468.33 Q1311.37 1461.2 1309.54 1457.66 Q1307.73 1454.1 1304.1 1454.1 M1304.1 1450.39 Q1309.91 1450.39 1312.97 1455 Q1316.04 1459.58 1316.04 1468.33 Q1316.04 1477.06 1312.97 1481.67 Q1309.91 1486.25 1304.1 1486.25 Q1298.29 1486.25 1295.21 1481.67 Q1292.16 1477.06 1292.16 1468.33 Q1292.16 1459.58 1295.21 1455 Q1298.29 1450.39 1304.1 1450.39 Z" fill="#000000" fill-rule="nonzero" fill-opacity="1" /><path clip-path="url(#clip830)" d="M1753.26 1451.02 L1775.48 1451.02 L1775.48 1453.01 L1762.94 1485.58 L1758.05 1485.58 L1769.86 1454.96 L1753.26 1454.96 L1753.26 1451.02 Z" fill="#000000" fill-rule="nonzero" fill-opacity="1" /><path clip-path="url(#clip830)" d="M1784.6 1479.7 L1789.49 1479.7 L1789.49 1485.58 L1784.6 1485.58 L1784.6 1479.7 Z" fill="#000000" fill-rule="nonzero" fill-opacity="1" /><path clip-path="url(#clip830)" d="M1799.72 1451.02 L1818.08 1451.02 L1818.08 1454.96 L1804 1454.96 L1804 1463.43 Q1805.02 1463.08 1806.04 1462.92 Q1807.06 1462.73 1808.08 1462.73 Q1813.86 1462.73 1817.24 1465.9 Q1820.62 1469.08 1820.62 1474.49 Q1820.62 1480.07 1817.15 1483.17 Q1813.68 1486.25 1807.36 1486.25 Q1805.18 1486.25 1802.91 1485.88 Q1800.67 1485.51 1798.26 1484.77 L1798.26 1480.07 Q1800.34 1481.2 1802.57 1481.76 Q1804.79 1482.32 1807.27 1482.32 Q1811.27 1482.32 1813.61 1480.21 Q1815.95 1478.1 1815.95 1474.49 Q1815.95 1470.88 1813.61 1468.77 Q1811.27 1466.67 1807.27 1466.67 Q1805.39 1466.67 1803.52 1467.08 Q1801.66 1467.5 1799.72 1468.38 L1799.72 1451.02 Z" fill="#000000" fill-rule="nonzero" fill-opacity="1" /><path clip-path="url(#clip830)" d="M2244.2 1481.64 L2251.84 1481.64 L2251.84 1455.28 L2243.53 1456.95 L2243.53 1452.69 L2251.8 1451.02 L2256.47 1451.02 L2256.47 1481.64 L2264.11 1481.64 L2264.11 1485.58 L2244.2 1485.58 L2244.2 1481.64 Z" fill="#000000" fill-rule="nonzero" fill-opacity="1" /><path clip-path="url(#clip830)" d="M2283.56 1454.1 Q2279.95 1454.1 2278.12 1457.66 Q2276.31 1461.2 2276.31 1468.33 Q2276.31 1475.44 2278.12 1479.01 Q2279.95 1482.55 2283.56 1482.55 Q2287.19 1482.55 2289 1479.01 Q2290.83 1475.44 2290.83 1468.33 Q2290.83 1461.2 2289 1457.66 Q2287.19 1454.1 2283.56 1454.1 M2283.56 1450.39 Q2289.37 1450.39 2292.42 1455 Q2295.5 1459.58 2295.5 1468.33 Q2295.5 1477.06 2292.42 1481.67 Q2289.37 1486.25 2283.56 1486.25 Q2277.75 1486.25 2274.67 1481.67 Q2271.61 1477.06 2271.61 1468.33 Q2271.61 1459.58 2274.67 1455 Q2277.75 1450.39 2283.56 1450.39 Z" fill="#000000" fill-rule="nonzero" fill-opacity="1" /><path clip-path="url(#clip830)" d="M2303.72 1479.7 L2308.6 1479.7 L2308.6 1485.58 L2303.72 1485.58 L2303.72 1479.7 Z" fill="#000000" fill-rule="nonzero" fill-opacity="1" /><path clip-path="url(#clip830)" d="M2328.79 1454.1 Q2325.18 1454.1 2323.35 1457.66 Q2321.54 1461.2 2321.54 1468.33 Q2321.54 1475.44 2323.35 1479.01 Q2325.18 1482.55 2328.79 1482.55 Q2332.42 1482.55 2334.23 1479.01 Q2336.06 1475.44 2336.06 1468.33 Q2336.06 1461.2 2334.23 1457.66 Q2332.42 1454.1 2328.79 1454.1 M2328.79 1450.39 Q2334.6 1450.39 2337.65 1455 Q2340.73 1459.58 2340.73 1468.33 Q2340.73 1477.06 2337.65 1481.67 Q2334.6 1486.25 2328.79 1486.25 Q2322.98 1486.25 2319.9 1481.67 Q2316.84 1477.06 2316.84 1468.33 Q2316.84 1459.58 2319.9 1455 Q2322.98 1450.39 2328.79 1450.39 Z" fill="#000000" fill-rule="nonzero" fill-opacity="1" /><path clip-path="url(#clip830)" d="M1280.81 1522.27 L1280.81 1532.4 L1292.87 1532.4 L1292.87 1536.95 L1280.81 1536.95 L1280.81 1556.3 Q1280.81 1560.66 1281.99 1561.9 Q1283.2 1563.14 1286.86 1563.14 L1292.87 1563.14 L1292.87 1568.04 L1286.86 1568.04 Q1280.08 1568.04 1277.5 1565.53 Q1274.92 1562.98 1274.92 1556.3 L1274.92 1536.95 L1270.63 1536.95 L1270.63 1532.4 L1274.92 1532.4 L1274.92 1522.27 L1280.81 1522.27 Z" fill="#000000" fill-rule="nonzero" fill-opacity="1" /><polyline clip-path="url(#clip832)" style="stroke:#000000; stroke-linecap:round; stroke-linejoin:round; stroke-width:2; stroke-opacity:0.1; fill:none" points="210.746,1320.98 2352.76,1320.98 "/>
<polyline clip-path="url(#clip832)" style="stroke:#000000; stroke-linecap:round; stroke-linejoin:round; stroke-width:2; stroke-opacity:0.1; fill:none" points="210.746,1004.29 2352.76,1004.29 "/>
<polyline clip-path="url(#clip832)" style="stroke:#000000; stroke-linecap:round; stroke-linejoin:round; stroke-width:2; stroke-opacity:0.1; fill:none" points="210.746,687.603 2352.76,687.603 "/>
<polyline clip-path="url(#clip832)" style="stroke:#000000; stroke-linecap:round; stroke-linejoin:round; stroke-width:2; stroke-opacity:0.1; fill:none" points="210.746,370.912 2352.76,370.912 "/>
<polyline clip-path="url(#clip832)" style="stroke:#000000; stroke-linecap:round; stroke-linejoin:round; stroke-width:2; stroke-opacity:0.1; fill:none" points="210.746,54.2205 2352.76,54.2205 "/>
<polyline clip-path="url(#clip830)" style="stroke:#000000; stroke-linecap:round; stroke-linejoin:round; stroke-width:4; stroke-opacity:1; fill:none" points="210.746,1423.18 210.746,47.2441 "/>
<polyline clip-path="url(#clip830)" style="stroke:#000000; stroke-linecap:round; stroke-linejoin:round; stroke-width:4; stroke-opacity:1; fill:none" points="210.746,1320.98 229.644,1320.98 "/>
<polyline clip-path="url(#clip830)" style="stroke:#000000; stroke-linecap:round; stroke-linejoin:round; stroke-width:4; stroke-opacity:1; fill:none" points="210.746,1004.29 229.644,1004.29 "/>
<polyline clip-path="url(#clip830)" style="stroke:#000000; stroke-linecap:round; stroke-linejoin:round; stroke-width:4; stroke-opacity:1; fill:none" points="210.746,687.603 229.644,687.603 "/>
<polyline clip-path="url(#clip830)" style="stroke:#000000; stroke-linecap:round; stroke-linejoin:round; stroke-width:4; stroke-opacity:1; fill:none" points="210.746,370.912 229.644,370.912 "/>
<polyline clip-path="url(#clip830)" style="stroke:#000000; stroke-linecap:round; stroke-linejoin:round; stroke-width:4; stroke-opacity:1; fill:none" points="210.746,54.2205 229.644,54.2205 "/>
<path clip-path="url(#clip830)" d="M114.26 1321.44 L143.936 1321.44 L143.936 1325.37 L114.26 1325.37 L114.26 1321.44 Z" fill="#000000" fill-rule="nonzero" fill-opacity="1" /><path clip-path="url(#clip830)" d="M154.839 1334.33 L162.477 1334.33 L162.477 1307.96 L154.167 1309.63 L154.167 1305.37 L162.431 1303.7 L167.107 1303.7 L167.107 1334.33 L174.746 1334.33 L174.746 1338.26 L154.839 1338.26 L154.839 1334.33 Z" fill="#000000" fill-rule="nonzero" fill-opacity="1" /><path clip-path="url(#clip830)" d="M162.802 990.092 Q159.19 990.092 157.362 993.657 Q155.556 997.199 155.556 1004.33 Q155.556 1011.43 157.362 1015 Q159.19 1018.54 162.802 1018.54 Q166.436 1018.54 168.241 1015 Q170.07 1011.43 170.07 1004.33 Q170.07 997.199 168.241 993.657 Q166.436 990.092 162.802 990.092 M162.802 986.389 Q168.612 986.389 171.667 990.995 Q174.746 995.578 174.746 1004.33 Q174.746 1013.06 171.667 1017.66 Q168.612 1022.24 162.802 1022.24 Q156.991 1022.24 153.913 1017.66 Q150.857 1013.06 150.857 1004.33 Q150.857 995.578 153.913 990.995 Q156.991 986.389 162.802 986.389 Z" fill="#000000" fill-rule="nonzero" fill-opacity="1" /><path clip-path="url(#clip830)" d="M154.839 700.947 L162.477 700.947 L162.477 674.582 L154.167 676.248 L154.167 671.989 L162.431 670.323 L167.107 670.323 L167.107 700.947 L174.746 700.947 L174.746 704.883 L154.839 704.883 L154.839 700.947 Z" fill="#000000" fill-rule="nonzero" fill-opacity="1" /><path clip-path="url(#clip830)" d="M158.427 384.256 L174.746 384.256 L174.746 388.192 L152.802 388.192 L152.802 384.256 Q155.464 381.502 160.047 376.872 Q164.653 372.219 165.834 370.877 Q168.079 368.354 168.959 366.618 Q169.862 364.858 169.862 363.169 Q169.862 360.414 167.917 358.678 Q165.996 356.942 162.894 356.942 Q160.695 356.942 158.241 357.706 Q155.811 358.469 153.033 360.02 L153.033 355.298 Q155.857 354.164 158.311 353.585 Q160.765 353.007 162.802 353.007 Q168.172 353.007 171.366 355.692 Q174.561 358.377 174.561 362.868 Q174.561 364.997 173.751 366.919 Q172.964 368.817 170.857 371.409 Q170.278 372.081 167.177 375.298 Q164.075 378.493 158.427 384.256 Z" fill="#000000" fill-rule="nonzero" fill-opacity="1" /><path clip-path="url(#clip830)" d="M167.616 52.8664 Q170.973 53.584 172.848 55.8525 Q174.746 58.121 174.746 61.4543 Q174.746 66.57 171.227 69.3709 Q167.709 72.1718 161.227 72.1718 Q159.052 72.1718 156.737 71.732 Q154.445 71.3154 151.991 70.4589 L151.991 65.945 Q153.936 67.0793 156.251 67.658 Q158.565 68.2367 161.089 68.2367 Q165.487 68.2367 167.778 66.5006 Q170.093 64.7645 170.093 61.4543 Q170.093 58.3988 167.94 56.6858 Q165.811 54.9497 161.991 54.9497 L157.964 54.9497 L157.964 51.1071 L162.177 51.1071 Q165.626 51.1071 167.454 49.7414 Q169.283 48.3525 169.283 45.7599 Q169.283 43.0979 167.385 41.6859 Q165.51 40.2507 161.991 40.2507 Q160.07 40.2507 157.871 40.6674 Q155.672 41.084 153.033 41.9637 L153.033 37.797 Q155.695 37.0563 158.01 36.6859 Q160.348 36.3155 162.408 36.3155 Q167.732 36.3155 170.834 38.7461 Q173.936 41.1535 173.936 45.2738 Q173.936 48.1442 172.292 50.1349 Q170.649 52.1025 167.616 52.8664 Z" fill="#000000" fill-rule="nonzero" fill-opacity="1" /><path clip-path="url(#clip830)" d="M20.8447 948.702 Q20.8447 955.704 26.0645 959.842 Q31.2844 963.948 40.2919 963.948 Q49.2675 963.948 54.4874 959.842 Q59.7073 955.704 59.7073 948.702 Q59.7073 941.7 54.4874 937.626 Q49.2675 933.52 40.2919 933.52 Q31.2844 933.52 26.0645 937.626 Q20.8447 941.7 20.8447 948.702 M15.6248 948.702 Q15.6248 938.708 22.3406 932.724 Q29.0246 926.74 40.2919 926.74 Q51.5274 926.74 58.2432 932.724 Q64.9272 938.708 64.9272 948.702 Q64.9272 958.728 58.2432 964.743 Q51.5592 970.727 40.2919 970.727 Q29.0246 970.727 22.3406 964.743 Q15.6248 958.728 15.6248 948.702 Z" fill="#000000" fill-rule="nonzero" fill-opacity="1" /><path clip-path="url(#clip830)" d="M49.9359 917.542 L28.3562 917.542 L28.3562 911.685 L49.7131 911.685 Q54.7739 911.685 57.3202 909.712 Q59.8346 907.739 59.8346 903.792 Q59.8346 899.049 56.8109 896.312 Q53.7872 893.543 48.5673 893.543 L28.3562 893.543 L28.3562 887.687 L64.0042 887.687 L64.0042 893.543 L58.5296 893.543 Q61.7762 895.676 63.3676 898.508 Q64.9272 901.309 64.9272 905.033 Q64.9272 911.176 61.1078 914.359 Q57.2883 917.542 49.9359 917.542 M27.4968 902.805 L27.4968 902.805 Z" fill="#000000" fill-rule="nonzero" fill-opacity="1" /><path clip-path="url(#clip830)" d="M18.2347 869.831 L28.3562 869.831 L28.3562 857.768 L32.9077 857.768 L32.9077 869.831 L52.2594 869.831 Q56.6199 869.831 57.8613 868.653 Q59.1026 867.444 59.1026 863.783 L59.1026 857.768 L64.0042 857.768 L64.0042 863.783 Q64.0042 870.563 61.4897 873.141 Q58.9434 875.719 52.2594 875.719 L32.9077 875.719 L32.9077 880.016 L28.3562 880.016 L28.3562 875.719 L18.2347 875.719 L18.2347 869.831 Z" fill="#000000" fill-rule="nonzero" fill-opacity="1" /><path clip-path="url(#clip830)" d="M58.657 844.4 L77.5631 844.4 L77.5631 850.288 L28.3562 850.288 L28.3562 844.4 L33.7671 844.4 Q30.5842 842.554 29.0564 839.753 Q27.4968 836.92 27.4968 833.005 Q27.4968 826.512 32.6531 822.47 Q37.8093 818.396 46.212 818.396 Q54.6147 818.396 59.771 822.47 Q64.9272 826.512 64.9272 833.005 Q64.9272 836.92 63.3994 839.753 Q61.8398 842.554 58.657 844.4 M46.212 824.475 Q39.7508 824.475 36.0905 827.149 Q32.3984 829.79 32.3984 834.437 Q32.3984 839.084 36.0905 841.758 Q39.7508 844.4 46.212 844.4 Q52.6732 844.4 56.3653 841.758 Q60.0256 839.084 60.0256 834.437 Q60.0256 829.79 56.3653 827.149 Q52.6732 824.475 46.212 824.475 Z" fill="#000000" fill-rule="nonzero" fill-opacity="1" /><path clip-path="url(#clip830)" d="M49.9359 809.293 L28.3562 809.293 L28.3562 803.436 L49.7131 803.436 Q54.7739 803.436 57.3202 801.463 Q59.8346 799.49 59.8346 795.543 Q59.8346 790.801 56.8109 788.063 Q53.7872 785.294 48.5673 785.294 L28.3562 785.294 L28.3562 779.438 L64.0042 779.438 L64.0042 785.294 L58.5296 785.294 Q61.7762 787.427 63.3676 790.259 Q64.9272 793.06 64.9272 796.784 Q64.9272 802.927 61.1078 806.11 Q57.2883 809.293 49.9359 809.293 M27.4968 794.556 L27.4968 794.556 Z" fill="#000000" fill-rule="nonzero" fill-opacity="1" /><path clip-path="url(#clip830)" d="M18.2347 761.582 L28.3562 761.582 L28.3562 749.519 L32.9077 749.519 L32.9077 761.582 L52.2594 761.582 Q56.6199 761.582 57.8613 760.404 Q59.1026 759.195 59.1026 755.534 L59.1026 749.519 L64.0042 749.519 L64.0042 755.534 Q64.0042 762.314 61.4897 764.892 Q58.9434 767.47 52.2594 767.47 L32.9077 767.47 L32.9077 771.767 L28.3562 771.767 L28.3562 767.47 L18.2347 767.47 L18.2347 761.582 Z" fill="#000000" fill-rule="nonzero" fill-opacity="1" /><path clip-path="url(#clip830)" d="M21.7677 735.132 L39.6235 735.132 L39.6235 727.048 Q39.6235 722.56 37.3 720.109 Q34.9765 717.659 30.6797 717.659 Q26.4147 717.659 24.0912 720.109 Q21.7677 722.56 21.7677 727.048 L21.7677 735.132 M16.4842 741.562 L16.4842 727.048 Q16.4842 719.059 20.1126 714.985 Q23.7092 710.879 30.6797 710.879 Q37.7138 710.879 41.3104 714.985 Q44.907 719.059 44.907 727.048 L44.907 735.132 L64.0042 735.132 L64.0042 741.562 L16.4842 741.562 Z" fill="#000000" fill-rule="nonzero" fill-opacity="1" /><path clip-path="url(#clip830)" d="M32.4621 691.018 Q32.4621 695.729 36.1542 698.466 Q39.8145 701.203 46.212 701.203 Q52.6095 701.203 56.3017 698.498 Q59.9619 695.761 59.9619 691.018 Q59.9619 686.339 56.2698 683.602 Q52.5777 680.865 46.212 680.865 Q39.8781 680.865 36.186 683.602 Q32.4621 686.339 32.4621 691.018 M27.4968 691.018 Q27.4968 683.379 32.4621 679.019 Q37.4273 674.658 46.212 674.658 Q54.9649 674.658 59.9619 679.019 Q64.9272 683.379 64.9272 691.018 Q64.9272 698.689 59.9619 703.049 Q54.9649 707.378 46.212 707.378 Q37.4273 707.378 32.4621 703.049 Q27.4968 698.689 27.4968 691.018 Z" fill="#000000" fill-rule="nonzero" fill-opacity="1" /><path clip-path="url(#clip830)" d="M29.4065 642.225 L34.9447 642.225 Q33.6716 644.708 33.035 647.381 Q32.3984 650.055 32.3984 652.919 Q32.3984 657.28 33.7352 659.476 Q35.072 661.64 37.7456 661.64 Q39.7826 661.64 40.9603 660.081 Q42.1061 658.521 43.1565 653.81 L43.6021 651.805 Q44.9389 645.567 47.3897 642.957 Q49.8086 640.315 54.1691 640.315 Q59.1344 640.315 62.0308 644.262 Q64.9272 648.177 64.9272 655.052 Q64.9272 657.916 64.3543 661.036 Q63.8132 664.123 62.6992 667.56 L56.6518 667.56 Q58.3387 664.314 59.198 661.163 Q60.0256 658.012 60.0256 654.924 Q60.0256 650.787 58.6251 648.559 Q57.1929 646.331 54.6147 646.331 Q52.2276 646.331 50.9545 647.954 Q49.6813 649.545 48.5037 654.988 L48.0262 657.025 Q46.8804 662.468 44.5251 664.887 Q42.138 667.306 38.0002 667.306 Q32.9713 667.306 30.2341 663.741 Q27.4968 660.176 27.4968 653.62 Q27.4968 650.373 27.9743 647.508 Q28.4517 644.644 29.4065 642.225 Z" fill="#000000" fill-rule="nonzero" fill-opacity="1" /><path clip-path="url(#clip830)" d="M28.3562 630.989 L28.3562 625.133 L64.0042 625.133 L64.0042 630.989 L28.3562 630.989 M14.479 630.989 L14.479 625.133 L21.895 625.133 L21.895 630.989 L14.479 630.989 Z" fill="#000000" fill-rule="nonzero" fill-opacity="1" /><path clip-path="url(#clip830)" d="M18.2347 607.086 L28.3562 607.086 L28.3562 595.023 L32.9077 595.023 L32.9077 607.086 L52.2594 607.086 Q56.6199 607.086 57.8613 605.909 Q59.1026 604.699 59.1026 601.039 L59.1026 595.023 L64.0042 595.023 L64.0042 601.039 Q64.0042 607.818 61.4897 610.396 Q58.9434 612.974 52.2594 612.974 L32.9077 612.974 L32.9077 617.271 L28.3562 617.271 L28.3562 612.974 L18.2347 612.974 L18.2347 607.086 Z" fill="#000000" fill-rule="nonzero" fill-opacity="1" /><path clip-path="url(#clip830)" d="M28.3562 587.321 L28.3562 581.464 L64.0042 581.464 L64.0042 587.321 L28.3562 587.321 M14.479 587.321 L14.479 581.464 L21.895 581.464 L21.895 587.321 L14.479 587.321 Z" fill="#000000" fill-rule="nonzero" fill-opacity="1" /><path clip-path="url(#clip830)" d="M32.4621 555.397 Q32.4621 560.107 36.1542 562.845 Q39.8145 565.582 46.212 565.582 Q52.6095 565.582 56.3017 562.876 Q59.9619 560.139 59.9619 555.397 Q59.9619 550.718 56.2698 547.981 Q52.5777 545.243 46.212 545.243 Q39.8781 545.243 36.186 547.981 Q32.4621 550.718 32.4621 555.397 M27.4968 555.397 Q27.4968 547.758 32.4621 543.397 Q37.4273 539.037 46.212 539.037 Q54.9649 539.037 59.9619 543.397 Q64.9272 547.758 64.9272 555.397 Q64.9272 563.067 59.9619 567.428 Q54.9649 571.757 46.212 571.757 Q37.4273 571.757 32.4621 567.428 Q27.4968 563.067 27.4968 555.397 Z" fill="#000000" fill-rule="nonzero" fill-opacity="1" /><path clip-path="url(#clip830)" d="M42.4881 499.697 L64.0042 499.697 L64.0042 505.553 L42.679 505.553 Q37.6183 505.553 35.1038 507.527 Q32.5894 509.5 32.5894 513.447 Q32.5894 518.189 35.6131 520.926 Q38.6368 523.664 43.8567 523.664 L64.0042 523.664 L64.0042 529.552 L28.3562 529.552 L28.3562 523.664 L33.8944 523.664 Q30.6797 521.563 29.0883 518.73 Q27.4968 515.866 27.4968 512.142 Q27.4968 505.999 31.3163 502.848 Q35.1038 499.697 42.4881 499.697 Z" fill="#000000" fill-rule="nonzero" fill-opacity="1" /><polyline clip-path="url(#clip832)" style="stroke:#009af9; stroke-linecap:round; stroke-linejoin:round; stroke-width:4; stroke-opacity:1; fill:none" points="271.369,991.708 291.577,988.524 311.784,979.038 331.992,963.438 352.199,942.036 372.407,915.261 392.615,883.648 412.822,847.83 433.03,808.522 453.238,766.511 473.445,722.637 493.653,677.777 513.861,632.83 534.068,588.693 554.276,546.249 574.483,506.348 594.691,464.41 614.899,421.275 635.106,377.805 655.314,334.869 675.522,293.327 695.729,254.008 715.937,217.7 736.145,185.129 756.352,156.945 776.56,133.714 796.768,115.898 816.975,103.855 837.183,97.8261 857.39,97.9309 877.598,104.168 897.806,116.411 918.013,134.418 938.221,157.826 958.429,186.169 978.636,218.879 998.844,255.301 1019.05,294.709 1039.26,336.312 1059.47,379.281 1079.67,422.754 1099.88,465.862 1120.09,507.744 1140.3,547.562 1160.51,589.895 1180.71,633.898 1200.92,678.691 1221.13,723.377 1241.34,767.062 1261.54,808.874 1281.75,847.975 1301.96,883.584 1322.17,914.989 1342.37,941.562 1362.58,962.77 1382.79,978.19 1403,987.514 1423.2,990.555 1443.41,987.252 1463.62,977.671 1483.83,962.004 1504.03,940.564 1524.24,913.781 1544.45,882.189 1564.66,846.42 1584.87,807.191 1605.07,765.284 1625.28,721.54 1645.49,676.832 1665.7,632.054 1685.9,588.103 1706.11,545.857 1726.32,506.161 1746.53,464.433 1766.73,421.506 1786.94,378.24 1807.15,335.5 1827.36,294.14 1847.56,254.988 1867.77,218.827 1887.98,186.38 1908.19,158.296 1928.4,135.136 1948.6,117.365 1968.81,105.337 1989.02,99.2921 2009.23,99.3524 2029.43,105.516 2049.64,117.66 2069.85,135.542 2090.06,158.803 2110.26,186.979 2130.47,219.505 2150.68,255.733 2170.89,294.936 2191.09,336.331 2211.3,379.09 2231.51,422.358 2251.72,465.269 2271.93,506.965 2292.13,546.613 "/>
<polyline clip-path="url(#clip832)" style="stroke:#e26f46; stroke-linecap:round; stroke-linejoin:round; stroke-width:4; stroke-opacity:1; fill:none" points="271.369,1384.24 291.577,1382.31 311.784,1376.56 331.992,1367.1 352.199,1354.12 372.407,1337.89 392.615,1318.72 412.822,1297 433.03,1273.17 453.238,1247.69 473.445,1221.09 493.653,1193.89 513.861,1166.64 534.068,1139.88 554.276,1114.14 574.483,1089.95 594.691,1064.52 614.899,1038.37 635.106,1012.01 655.314,985.974 675.522,960.786 695.729,936.946 715.937,914.931 736.145,895.182 756.352,878.093 776.56,864.007 796.768,853.205 816.975,845.903 837.183,842.247 857.39,842.311 877.598,846.092 897.806,853.516 918.013,864.434 938.221,878.627 958.429,895.812 978.636,915.645 998.844,937.73 1019.05,961.624 1039.26,986.85 1059.47,1012.9 1079.67,1039.26 1099.88,1065.4 1120.09,1090.79 1140.3,1114.94 1160.51,1140.61 1180.71,1167.29 1200.92,1194.45 1221.13,1221.54 1241.34,1248.03 1261.54,1273.38 1281.75,1297.09 1301.96,1318.68 1322.17,1337.72 1342.37,1353.83 1362.58,1366.69 1382.79,1376.04 1403,1381.7 1423.2,1383.54 1443.41,1381.54 1463.62,1375.73 1483.83,1366.23 1504.03,1353.23 1524.24,1336.99 1544.45,1317.83 1564.66,1296.15 1584.87,1272.36 1605.07,1246.95 1625.28,1220.43 1645.49,1193.32 1665.7,1166.17 1685.9,1139.52 1706.11,1113.9 1726.32,1089.83 1746.53,1064.53 1766.73,1038.51 1786.94,1012.27 1807.15,986.357 1827.36,961.279 1847.56,937.54 1867.77,915.614 1887.98,895.94 1908.19,878.912 1928.4,864.87 1948.6,854.094 1968.81,846.801 1989.02,843.136 2009.23,843.172 2029.43,846.91 2049.64,854.273 2069.85,865.115 2090.06,879.219 2110.26,896.303 2130.47,916.025 2150.68,937.991 2170.89,961.761 2191.09,986.861 2211.3,1012.79 2231.51,1039.02 2251.72,1065.04 2271.93,1090.32 2292.13,1114.36 "/>
<polyline clip-path="url(#clip832)" style="stroke:#3da44d; stroke-linecap:round; stroke-linejoin:round; stroke-width:4; stroke-opacity:1; fill:none" points="271.369,187.712 291.577,188.163 311.784,189.507 331.992,191.717 352.199,194.749 372.407,198.542 392.615,203.021 412.822,208.095 433.03,213.664 453.238,219.615 473.445,225.831 493.653,232.186 513.861,238.553 534.068,244.806 554.276,250.819 574.483,256.471 594.691,262.413 614.899,268.523 635.106,274.682 655.314,280.764 675.522,286.649 695.729,292.219 715.937,297.363 736.145,301.977 756.352,305.97 776.56,309.261 796.768,311.785 816.975,313.491 837.183,314.345 857.39,314.33 877.598,313.447 897.806,311.712 918.013,309.161 938.221,305.845 958.429,301.83 978.636,297.196 998.844,292.036 1019.05,286.453 1039.26,280.56 1059.47,274.472 1079.67,268.314 1099.88,262.207 1120.09,256.274 1140.3,250.633 1160.51,244.636 1180.71,238.402 1200.92,232.056 1221.13,225.726 1241.34,219.537 1261.54,213.614 1281.75,208.074 1301.96,203.03 1322.17,198.581 1342.37,194.816 1362.58,191.812 1382.79,189.627 1403,188.306 1423.2,187.876 1443.41,188.344 1463.62,189.701 1483.83,191.92 1504.03,194.958 1524.24,198.752 1544.45,203.227 1564.66,208.295 1584.87,213.852 1605.07,219.789 1625.28,225.986 1645.49,232.32 1665.7,238.663 1685.9,244.889 1706.11,250.874 1726.32,256.498 1746.53,262.409 1766.73,268.491 1786.94,274.62 1807.15,280.675 1827.36,286.534 1847.56,292.08 1867.77,297.203 1887.98,301.8 1908.19,305.779 1928.4,309.059 1948.6,311.577 1968.81,313.281 1989.02,314.137 2009.23,314.129 2029.43,313.256 2049.64,311.535 2069.85,309.002 2090.06,305.707 2110.26,301.715 2130.47,297.107 2150.68,291.975 2170.89,286.421 2191.09,280.557 2211.3,274.5 2231.51,268.37 2251.72,262.291 2271.93,256.384 2292.13,250.767 "/>
<polyline clip-path="url(#clip832)" style="stroke:#c271d2; stroke-linecap:round; stroke-linejoin:round; stroke-width:4; stroke-opacity:1; fill:none" points="271.369,86.1857 291.577,89.3691 311.784,98.8557 331.992,114.456 352.199,135.857 372.407,162.632 392.615,194.245 412.822,230.064 433.03,269.372 453.238,311.383 473.445,355.257 493.653,400.116 513.861,445.064 534.068,489.201 554.276,531.645 574.483,571.546 594.691,613.483 614.899,656.619 635.106,700.089 655.314,743.025 675.522,784.567 695.729,823.885 715.937,860.193 736.145,892.765 756.352,920.948 776.56,944.18 796.768,961.995 816.975,974.038 837.183,980.067 857.39,979.963 877.598,973.726 897.806,961.482 918.013,943.476 938.221,920.067 958.429,891.725 978.636,859.015 998.844,822.592 1019.05,783.185 1039.26,741.581 1059.47,698.613 1079.67,655.14 1099.88,612.031 1120.09,570.15 1140.3,530.332 1160.51,487.998 1180.71,443.995 1200.92,399.203 1221.13,354.517 1241.34,310.831 1261.54,269.02 1281.75,229.918 1301.96,194.309 1322.17,162.904 1342.37,136.332 1362.58,115.124 1382.79,99.7033 1403,90.3795 1423.2,87.3387 1443.41,90.6418 1463.62,100.223 1483.83,115.889 1504.03,137.329 1524.24,164.113 1544.45,195.705 1564.66,231.473 1584.87,270.703 1605.07,312.609 1625.28,356.354 1645.49,401.062 1665.7,445.839 1685.9,489.79 1706.11,532.036 1726.32,571.732 1746.53,613.461 1766.73,656.387 1786.94,699.653 1807.15,742.394 1827.36,783.753 1847.56,822.905 1867.77,859.067 1887.98,891.514 1908.19,919.598 1928.4,942.757 1948.6,960.529 1968.81,972.557 1989.02,978.601 2009.23,978.541 2029.43,972.377 2049.64,960.233 2069.85,942.352 2090.06,919.091 2110.26,890.915 2130.47,858.388 2150.68,822.161 2170.89,782.958 2191.09,741.563 2211.3,698.804 2231.51,655.536 2251.72,612.625 2271.93,570.928 2292.13,531.281 "/>
<polyline clip-path="url(#clip832)" style="stroke:#ac8d18; stroke-linecap:round; stroke-linejoin:round; stroke-width:4; stroke-opacity:1; fill:none" points="271.369,835.189 291.577,837.119 311.784,842.871 331.992,852.33 352.199,865.307 372.407,881.541 392.615,900.709 412.822,922.427 433.03,946.261 453.238,971.734 473.445,998.336 493.653,1025.54 513.861,1052.79 534.068,1079.55 554.276,1105.29 574.483,1129.48 594.691,1154.91 614.899,1181.06 635.106,1207.42 655.314,1233.45 675.522,1258.64 695.729,1282.48 715.937,1304.5 736.145,1324.25 756.352,1341.33 776.56,1355.42 796.768,1366.22 816.975,1373.52 837.183,1377.18 857.39,1377.12 877.598,1373.34 897.806,1365.91 918.013,1354.99 938.221,1340.8 958.429,1323.62 978.636,1303.78 998.844,1281.7 1019.05,1257.8 1039.26,1232.58 1059.47,1206.52 1079.67,1180.17 1099.88,1154.03 1120.09,1128.63 1140.3,1104.49 1160.51,1078.82 1180.71,1052.14 1200.92,1024.98 1221.13,997.888 1241.34,971.399 1261.54,946.048 1281.75,922.339 1301.96,900.748 1322.17,881.706 1342.37,865.594 1362.58,852.735 1382.79,843.385 1403,837.732 1423.2,835.888 1443.41,837.891 1463.62,843.7 1483.83,853.199 1504.03,866.199 1524.24,882.439 1544.45,901.594 1564.66,923.282 1584.87,947.068 1605.07,972.477 1625.28,999.001 1645.49,1026.11 1665.7,1053.26 1685.9,1079.91 1706.11,1105.52 1726.32,1129.59 1746.53,1154.89 1766.73,1180.92 1786.94,1207.16 1807.15,1233.07 1827.36,1258.15 1847.56,1281.89 1867.77,1303.81 1887.98,1323.49 1908.19,1340.52 1928.4,1354.56 1948.6,1365.33 1968.81,1372.63 1989.02,1376.29 2009.23,1376.25 2029.43,1372.52 2049.64,1365.15 2069.85,1354.31 2090.06,1340.21 2110.26,1323.12 2130.47,1303.4 2150.68,1281.44 2170.89,1257.67 2191.09,1232.57 2211.3,1206.64 2231.51,1180.41 2251.72,1154.39 2271.93,1129.11 2292.13,1105.07 "/>
<polyline clip-path="url(#clip832)" style="stroke:#00a9ad; stroke-linecap:round; stroke-linejoin:round; stroke-width:4; stroke-opacity:1; fill:none" points="271.369,315.994 291.577,315.543 311.784,314.199 331.992,311.989 352.199,308.957 372.407,305.164 392.615,300.686 412.822,295.611 433.03,290.043 453.238,284.091 473.445,277.876 493.653,271.521 513.861,265.153 534.068,258.9 554.276,252.888 574.483,247.235 594.691,241.294 614.899,235.183 635.106,229.025 655.314,222.942 675.522,217.057 695.729,211.487 715.937,206.343 736.145,201.729 756.352,197.737 776.56,194.445 796.768,191.922 816.975,190.216 837.183,189.361 857.39,189.376 877.598,190.26 897.806,191.994 918.013,194.545 938.221,197.861 958.429,201.877 978.636,206.51 998.844,211.67 1019.05,217.253 1039.26,223.147 1059.47,229.234 1079.67,235.393 1099.88,241.5 1120.09,247.433 1140.3,253.074 1160.51,259.071 1180.71,265.305 1200.92,271.65 1221.13,277.981 1241.34,284.169 1261.54,290.093 1281.75,295.632 1301.96,300.677 1322.17,305.126 1342.37,308.89 1362.58,311.895 1382.79,314.079 1403,315.4 1423.2,315.831 1443.41,315.363 1463.62,314.006 1483.83,311.786 1504.03,308.749 1524.24,304.954 1544.45,300.479 1564.66,295.412 1584.87,289.854 1605.07,283.918 1625.28,277.72 1645.49,271.387 1665.7,265.043 1685.9,258.817 1706.11,252.832 1726.32,247.209 1746.53,241.297 1766.73,235.216 1786.94,229.087 1807.15,223.032 1827.36,217.172 1847.56,211.626 1867.77,206.503 1887.98,201.906 1908.19,197.928 1928.4,194.647 1948.6,192.129 1968.81,190.425 1989.02,189.569 2009.23,189.578 2029.43,190.451 2049.64,192.171 2069.85,194.704 2090.06,198 2110.26,201.991 2130.47,206.599 2150.68,211.731 2170.89,217.285 2191.09,223.149 2211.3,229.207 2231.51,235.336 2251.72,241.416 2271.93,247.322 2292.13,252.939 "/>
</svg>
