<?xml version="1.0" encoding="utf-8"?>
<svg xmlns="http://www.w3.org/2000/svg" xmlns:xlink="http://www.w3.org/1999/xlink" width="600" height="400" viewBox="0 0 2400 1600">
<defs>
  <clipPath id="clip370">
    <rect x="0" y="0" width="2400" height="1600"/>
  </clipPath>
</defs>
<path clip-path="url(#clip370)" d="M0 1600 L2400 1600 L2400 0 L0 0  Z" fill="#ffffff" fill-rule="evenodd" fill-opacity="1"/>
<defs>
  <clipPath id="clip371">
    <rect x="480" y="0" width="1681" height="1600"/>
  </clipPath>
</defs>
<path clip-path="url(#clip370)" d="M257.204 1423.18 L2352.76 1423.18 L2352.76 47.2441 L257.204 47.2441  Z" fill="#ffffff" fill-rule="evenodd" fill-opacity="1"/>
<defs>
  <clipPath id="clip372">
    <rect x="257" y="47" width="2097" height="1377"/>
  </clipPath>
</defs>
<polyline clip-path="url(#clip372)" style="stroke:#000000; stroke-linecap:round; stroke-linejoin:round; stroke-width:2; stroke-opacity:0.1; fill:none" points="316.512,1423.18 316.512,47.2441 "/>
<polyline clip-path="url(#clip372)" style="stroke:#000000; stroke-linecap:round; stroke-linejoin:round; stroke-width:2; stroke-opacity:0.1; fill:none" points="810.746,1423.18 810.746,47.2441 "/>
<polyline clip-path="url(#clip372)" style="stroke:#000000; stroke-linecap:round; stroke-linejoin:round; stroke-width:2; stroke-opacity:0.1; fill:none" points="1304.98,1423.18 1304.98,47.2441 "/>
<polyline clip-path="url(#clip372)" style="stroke:#000000; stroke-linecap:round; stroke-linejoin:round; stroke-width:2; stroke-opacity:0.1; fill:none" points="1799.21,1423.18 1799.21,47.2441 "/>
<polyline clip-path="url(#clip372)" style="stroke:#000000; stroke-linecap:round; stroke-linejoin:round; stroke-width:2; stroke-opacity:0.1; fill:none" points="2293.45,1423.18 2293.45,47.2441 "/>
<polyline clip-path="url(#clip370)" style="stroke:#000000; stroke-linecap:round; stroke-linejoin:round; stroke-width:4; stroke-opacity:1; fill:none" points="257.204,1423.18 2352.76,1423.18 "/>
<polyline clip-path="url(#clip370)" style="stroke:#000000; stroke-linecap:round; stroke-linejoin:round; stroke-width:4; stroke-opacity:1; fill:none" points="316.512,1423.18 316.512,1404.28 "/>
<polyline clip-path="url(#clip370)" style="stroke:#000000; stroke-linecap:round; stroke-linejoin:round; stroke-width:4; stroke-opacity:1; fill:none" points="810.746,1423.18 810.746,1404.28 "/>
<polyline clip-path="url(#clip370)" style="stroke:#000000; stroke-linecap:round; stroke-linejoin:round; stroke-width:4; stroke-opacity:1; fill:none" points="1304.98,1423.18 1304.98,1404.28 "/>
<polyline clip-path="url(#clip370)" style="stroke:#000000; stroke-linecap:round; stroke-linejoin:round; stroke-width:4; stroke-opacity:1; fill:none" points="1799.21,1423.18 1799.21,1404.28 "/>
<polyline clip-path="url(#clip370)" style="stroke:#000000; stroke-linecap:round; stroke-linejoin:round; stroke-width:4; stroke-opacity:1; fill:none" points="2293.45,1423.18 2293.45,1404.28 "/>
<path clip-path="url(#clip370)" d="M293.896 1454.1 Q290.285 1454.1 288.457 1457.66 Q286.651 1461.2 286.651 1468.33 Q286.651 1475.44 288.457 1479.01 Q290.285 1482.55 293.896 1482.55 Q297.531 1482.55 299.336 1479.01 Q301.165 1475.44 301.165 1468.33 Q301.165 1461.2 299.336 1457.66 Q297.531 1454.1 293.896 1454.1 M293.896 1450.39 Q299.707 1450.39 302.762 1455 Q305.841 1459.58 305.841 1468.33 Q305.841 1477.06 302.762 1481.67 Q299.707 1486.25 293.896 1486.25 Q288.086 1486.25 285.008 1481.67 Q281.952 1477.06 281.952 1468.33 Q281.952 1459.58 285.008 1455 Q288.086 1450.39 293.896 1450.39 Z" fill="#000000" fill-rule="nonzero" fill-opacity="1" /><path clip-path="url(#clip370)" d="M314.058 1479.7 L318.943 1479.7 L318.943 1485.58 L314.058 1485.58 L314.058 1479.7 Z" fill="#000000" fill-rule="nonzero" fill-opacity="1" /><path clip-path="url(#clip370)" d="M339.128 1454.1 Q335.517 1454.1 333.688 1457.66 Q331.882 1461.2 331.882 1468.33 Q331.882 1475.44 333.688 1479.01 Q335.517 1482.55 339.128 1482.55 Q342.762 1482.55 344.568 1479.01 Q346.396 1475.44 346.396 1468.33 Q346.396 1461.2 344.568 1457.66 Q342.762 1454.1 339.128 1454.1 M339.128 1450.39 Q344.938 1450.39 347.993 1455 Q351.072 1459.58 351.072 1468.33 Q351.072 1477.06 347.993 1481.67 Q344.938 1486.25 339.128 1486.25 Q333.318 1486.25 330.239 1481.67 Q327.183 1477.06 327.183 1468.33 Q327.183 1459.58 330.239 1455 Q333.318 1450.39 339.128 1450.39 Z" fill="#000000" fill-rule="nonzero" fill-opacity="1" /><path clip-path="url(#clip370)" d="M782.482 1481.64 L798.802 1481.64 L798.802 1485.58 L776.857 1485.58 L776.857 1481.64 Q779.519 1478.89 784.103 1474.26 Q788.709 1469.61 789.89 1468.27 Q792.135 1465.74 793.015 1464.01 Q793.917 1462.25 793.917 1460.56 Q793.917 1457.8 791.973 1456.07 Q790.052 1454.33 786.95 1454.33 Q784.751 1454.33 782.297 1455.09 Q779.867 1455.86 777.089 1457.41 L777.089 1452.69 Q779.913 1451.55 782.367 1450.97 Q784.82 1450.39 786.857 1450.39 Q792.228 1450.39 795.422 1453.08 Q798.616 1455.77 798.616 1460.26 Q798.616 1462.39 797.806 1464.31 Q797.019 1466.2 794.913 1468.8 Q794.334 1469.47 791.232 1472.69 Q788.13 1475.88 782.482 1481.64 Z" fill="#000000" fill-rule="nonzero" fill-opacity="1" /><path clip-path="url(#clip370)" d="M808.616 1479.7 L813.501 1479.7 L813.501 1485.58 L808.616 1485.58 L808.616 1479.7 Z" fill="#000000" fill-rule="nonzero" fill-opacity="1" /><path clip-path="url(#clip370)" d="M823.732 1451.02 L842.088 1451.02 L842.088 1454.96 L828.014 1454.96 L828.014 1463.43 Q829.033 1463.08 830.051 1462.92 Q831.07 1462.73 832.089 1462.73 Q837.876 1462.73 841.255 1465.9 Q844.635 1469.08 844.635 1474.49 Q844.635 1480.07 841.163 1483.17 Q837.69 1486.25 831.371 1486.25 Q829.195 1486.25 826.927 1485.88 Q824.681 1485.51 822.274 1484.77 L822.274 1480.07 Q824.357 1481.2 826.579 1481.76 Q828.801 1482.32 831.278 1482.32 Q835.283 1482.32 837.621 1480.21 Q839.959 1478.1 839.959 1474.49 Q839.959 1470.88 837.621 1468.77 Q835.283 1466.67 831.278 1466.67 Q829.403 1466.67 827.528 1467.08 Q825.677 1467.5 823.732 1468.38 L823.732 1451.02 Z" fill="#000000" fill-rule="nonzero" fill-opacity="1" /><path clip-path="url(#clip370)" d="M1272.14 1451.02 L1290.5 1451.02 L1290.5 1454.96 L1276.43 1454.96 L1276.43 1463.43 Q1277.45 1463.08 1278.46 1462.92 Q1279.48 1462.73 1280.5 1462.73 Q1286.29 1462.73 1289.67 1465.9 Q1293.05 1469.08 1293.05 1474.49 Q1293.05 1480.07 1289.57 1483.17 Q1286.1 1486.25 1279.78 1486.25 Q1277.61 1486.25 1275.34 1485.88 Q1273.09 1485.51 1270.69 1484.77 L1270.69 1480.07 Q1272.77 1481.2 1274.99 1481.76 Q1277.21 1482.32 1279.69 1482.32 Q1283.7 1482.32 1286.03 1480.21 Q1288.37 1478.1 1288.37 1474.49 Q1288.37 1470.88 1286.03 1468.77 Q1283.7 1466.67 1279.69 1466.67 Q1277.82 1466.67 1275.94 1467.08 Q1274.09 1467.5 1272.14 1468.38 L1272.14 1451.02 Z" fill="#000000" fill-rule="nonzero" fill-opacity="1" /><path clip-path="url(#clip370)" d="M1302.26 1479.7 L1307.14 1479.7 L1307.14 1485.58 L1302.26 1485.58 L1302.26 1479.7 Z" fill="#000000" fill-rule="nonzero" fill-opacity="1" /><path clip-path="url(#clip370)" d="M1327.33 1454.1 Q1323.72 1454.1 1321.89 1457.66 Q1320.08 1461.2 1320.08 1468.33 Q1320.08 1475.44 1321.89 1479.01 Q1323.72 1482.55 1327.33 1482.55 Q1330.96 1482.55 1332.77 1479.01 Q1334.6 1475.44 1334.6 1468.33 Q1334.6 1461.2 1332.77 1457.66 Q1330.96 1454.1 1327.33 1454.1 M1327.33 1450.39 Q1333.14 1450.39 1336.2 1455 Q1339.27 1459.58 1339.27 1468.33 Q1339.27 1477.06 1336.2 1481.67 Q1333.14 1486.25 1327.33 1486.25 Q1321.52 1486.25 1318.44 1481.67 Q1315.39 1477.06 1315.39 1468.33 Q1315.39 1459.58 1318.44 1455 Q1321.52 1450.39 1327.33 1450.39 Z" fill="#000000" fill-rule="nonzero" fill-opacity="1" /><path clip-path="url(#clip370)" d="M1765.53 1451.02 L1787.76 1451.02 L1787.76 1453.01 L1775.21 1485.58 L1770.33 1485.58 L1782.13 1454.96 L1765.53 1454.96 L1765.53 1451.02 Z" fill="#000000" fill-rule="nonzero" fill-opacity="1" /><path clip-path="url(#clip370)" d="M1796.88 1479.7 L1801.76 1479.7 L1801.76 1485.58 L1796.88 1485.58 L1796.88 1479.7 Z" fill="#000000" fill-rule="nonzero" fill-opacity="1" /><path clip-path="url(#clip370)" d="M1811.99 1451.02 L1830.35 1451.02 L1830.35 1454.96 L1816.27 1454.96 L1816.27 1463.43 Q1817.29 1463.08 1818.31 1462.92 Q1819.33 1462.73 1820.35 1462.73 Q1826.14 1462.73 1829.51 1465.9 Q1832.89 1469.08 1832.89 1474.49 Q1832.89 1480.07 1829.42 1483.17 Q1825.95 1486.25 1819.63 1486.25 Q1817.45 1486.25 1815.19 1485.88 Q1812.94 1485.51 1810.53 1484.77 L1810.53 1480.07 Q1812.62 1481.2 1814.84 1481.76 Q1817.06 1482.32 1819.54 1482.32 Q1823.54 1482.32 1825.88 1480.21 Q1828.22 1478.1 1828.22 1474.49 Q1828.22 1470.88 1825.88 1468.77 Q1823.54 1466.67 1819.54 1466.67 Q1817.66 1466.67 1815.79 1467.08 Q1813.94 1467.5 1811.99 1468.38 L1811.99 1451.02 Z" fill="#000000" fill-rule="nonzero" fill-opacity="1" /><path clip-path="url(#clip370)" d="M2245.52 1481.64 L2253.16 1481.64 L2253.16 1455.28 L2244.85 1456.95 L2244.85 1452.69 L2253.11 1451.02 L2257.79 1451.02 L2257.79 1481.64 L2265.43 1481.64 L2265.43 1485.58 L2245.52 1485.58 L2245.52 1481.64 Z" fill="#000000" fill-rule="nonzero" fill-opacity="1" /><path clip-path="url(#clip370)" d="M2284.87 1454.1 Q2281.26 1454.1 2279.43 1457.66 Q2277.63 1461.2 2277.63 1468.33 Q2277.63 1475.44 2279.43 1479.01 Q2281.26 1482.55 2284.87 1482.55 Q2288.51 1482.55 2290.31 1479.01 Q2292.14 1475.44 2292.14 1468.33 Q2292.14 1461.2 2290.31 1457.66 Q2288.51 1454.1 2284.87 1454.1 M2284.87 1450.39 Q2290.68 1450.39 2293.74 1455 Q2296.82 1459.58 2296.82 1468.33 Q2296.82 1477.06 2293.74 1481.67 Q2290.68 1486.25 2284.87 1486.25 Q2279.06 1486.25 2275.98 1481.67 Q2272.93 1477.06 2272.93 1468.33 Q2272.93 1459.58 2275.98 1455 Q2279.06 1450.39 2284.87 1450.39 Z" fill="#000000" fill-rule="nonzero" fill-opacity="1" /><path clip-path="url(#clip370)" d="M2305.03 1479.7 L2309.92 1479.7 L2309.92 1485.58 L2305.03 1485.58 L2305.03 1479.7 Z" fill="#000000" fill-rule="nonzero" fill-opacity="1" /><path clip-path="url(#clip370)" d="M2330.1 1454.1 Q2326.49 1454.1 2324.66 1457.66 Q2322.86 1461.2 2322.86 1468.33 Q2322.86 1475.44 2324.66 1479.01 Q2326.49 1482.55 2330.1 1482.55 Q2333.74 1482.55 2335.54 1479.01 Q2337.37 1475.44 2337.37 1468.33 Q2337.37 1461.2 2335.54 1457.66 Q2333.74 1454.1 2330.1 1454.1 M2330.1 1450.39 Q2335.91 1450.39 2338.97 1455 Q2342.05 1459.58 2342.05 1468.33 Q2342.05 1477.06 2338.97 1481.67 Q2335.91 1486.25 2330.1 1486.25 Q2324.29 1486.25 2321.21 1481.67 Q2318.16 1477.06 2318.16 1468.33 Q2318.16 1459.58 2321.21 1455 Q2324.29 1450.39 2330.1 1450.39 Z" fill="#000000" fill-rule="nonzero" fill-opacity="1" /><path clip-path="url(#clip370)" d="M1304.04 1522.27 L1304.04 1532.4 L1316.1 1532.4 L1316.1 1536.95 L1304.04 1536.95 L1304.04 1556.3 Q1304.04 1560.66 1305.22 1561.9 Q1306.43 1563.14 1310.09 1563.14 L1316.1 1563.14 L1316.1 1568.04 L1310.09 1568.04 Q1303.31 1568.04 1300.73 1565.53 Q1298.15 1562.98 1298.15 1556.3 L1298.15 1536.95 L1293.86 1536.95 L1293.86 1532.4 L1298.15 1532.4 L1298.15 1522.27 L1304.04 1522.27 Z" fill="#000000" fill-rule="nonzero" fill-opacity="1" /><polyline clip-path="url(#clip372)" style="stroke:#000000; stroke-linecap:round; stroke-linejoin:round; stroke-width:2; stroke-opacity:0.1; fill:none" points="257.204,1242.69 2352.76,1242.69 "/>
<polyline clip-path="url(#clip372)" style="stroke:#000000; stroke-linecap:round; stroke-linejoin:round; stroke-width:2; stroke-opacity:0.1; fill:none" points="257.204,1045.76 2352.76,1045.76 "/>
<polyline clip-path="url(#clip372)" style="stroke:#000000; stroke-linecap:round; stroke-linejoin:round; stroke-width:2; stroke-opacity:0.1; fill:none" points="257.204,848.829 2352.76,848.829 "/>
<polyline clip-path="url(#clip372)" style="stroke:#000000; stroke-linecap:round; stroke-linejoin:round; stroke-width:2; stroke-opacity:0.1; fill:none" points="257.204,651.897 2352.76,651.897 "/>
<polyline clip-path="url(#clip372)" style="stroke:#000000; stroke-linecap:round; stroke-linejoin:round; stroke-width:2; stroke-opacity:0.1; fill:none" points="257.204,454.964 2352.76,454.964 "/>
<polyline clip-path="url(#clip372)" style="stroke:#000000; stroke-linecap:round; stroke-linejoin:round; stroke-width:2; stroke-opacity:0.1; fill:none" points="257.204,258.032 2352.76,258.032 "/>
<polyline clip-path="url(#clip372)" style="stroke:#000000; stroke-linecap:round; stroke-linejoin:round; stroke-width:2; stroke-opacity:0.1; fill:none" points="257.204,61.0999 2352.76,61.0999 "/>
<polyline clip-path="url(#clip370)" style="stroke:#000000; stroke-linecap:round; stroke-linejoin:round; stroke-width:4; stroke-opacity:1; fill:none" points="257.204,1423.18 257.204,47.2441 "/>
<polyline clip-path="url(#clip370)" style="stroke:#000000; stroke-linecap:round; stroke-linejoin:round; stroke-width:4; stroke-opacity:1; fill:none" points="257.204,1242.69 276.102,1242.69 "/>
<polyline clip-path="url(#clip370)" style="stroke:#000000; stroke-linecap:round; stroke-linejoin:round; stroke-width:4; stroke-opacity:1; fill:none" points="257.204,1045.76 276.102,1045.76 "/>
<polyline clip-path="url(#clip370)" style="stroke:#000000; stroke-linecap:round; stroke-linejoin:round; stroke-width:4; stroke-opacity:1; fill:none" points="257.204,848.829 276.102,848.829 "/>
<polyline clip-path="url(#clip370)" style="stroke:#000000; stroke-linecap:round; stroke-linejoin:round; stroke-width:4; stroke-opacity:1; fill:none" points="257.204,651.897 276.102,651.897 "/>
<polyline clip-path="url(#clip370)" style="stroke:#000000; stroke-linecap:round; stroke-linejoin:round; stroke-width:4; stroke-opacity:1; fill:none" points="257.204,454.964 276.102,454.964 "/>
<polyline clip-path="url(#clip370)" style="stroke:#000000; stroke-linecap:round; stroke-linejoin:round; stroke-width:4; stroke-opacity:1; fill:none" points="257.204,258.032 276.102,258.032 "/>
<polyline clip-path="url(#clip370)" style="stroke:#000000; stroke-linecap:round; stroke-linejoin:round; stroke-width:4; stroke-opacity:1; fill:none" points="257.204,61.0999 276.102,61.0999 "/>
<path clip-path="url(#clip370)" d="M115.256 1243.14 L144.931 1243.14 L144.931 1247.08 L115.256 1247.08 L115.256 1243.14 Z" fill="#000000" fill-rule="nonzero" fill-opacity="1" /><path clip-path="url(#clip370)" d="M155.834 1256.04 L163.473 1256.04 L163.473 1229.67 L155.163 1231.34 L155.163 1227.08 L163.427 1225.41 L168.102 1225.41 L168.102 1256.04 L175.741 1256.04 L175.741 1259.97 L155.834 1259.97 L155.834 1256.04 Z" fill="#000000" fill-rule="nonzero" fill-opacity="1" /><path clip-path="url(#clip370)" d="M185.186 1254.09 L190.07 1254.09 L190.07 1259.97 L185.186 1259.97 L185.186 1254.09 Z" fill="#000000" fill-rule="nonzero" fill-opacity="1" /><path clip-path="url(#clip370)" d="M200.301 1225.41 L218.658 1225.41 L218.658 1229.35 L204.584 1229.35 L204.584 1237.82 Q205.602 1237.47 206.621 1237.31 Q207.639 1237.13 208.658 1237.13 Q214.445 1237.13 217.824 1240.3 Q221.204 1243.47 221.204 1248.89 Q221.204 1254.46 217.732 1257.57 Q214.26 1260.64 207.94 1260.64 Q205.764 1260.64 203.496 1260.27 Q201.25 1259.9 198.843 1259.16 L198.843 1254.46 Q200.926 1255.6 203.149 1256.15 Q205.371 1256.71 207.848 1256.71 Q211.852 1256.71 214.19 1254.6 Q216.528 1252.5 216.528 1248.89 Q216.528 1245.27 214.19 1243.17 Q211.852 1241.06 207.848 1241.06 Q205.973 1241.06 204.098 1241.48 Q202.246 1241.89 200.301 1242.77 L200.301 1225.41 Z" fill="#000000" fill-rule="nonzero" fill-opacity="1" /><path clip-path="url(#clip370)" d="M114.26 1046.21 L143.936 1046.21 L143.936 1050.15 L114.26 1050.15 L114.26 1046.21 Z" fill="#000000" fill-rule="nonzero" fill-opacity="1" /><path clip-path="url(#clip370)" d="M154.839 1059.11 L162.477 1059.11 L162.477 1032.74 L154.167 1034.41 L154.167 1030.15 L162.431 1028.48 L167.107 1028.48 L167.107 1059.11 L174.746 1059.11 L174.746 1063.04 L154.839 1063.04 L154.839 1059.11 Z" fill="#000000" fill-rule="nonzero" fill-opacity="1" /><path clip-path="url(#clip370)" d="M184.19 1057.16 L189.075 1057.16 L189.075 1063.04 L184.19 1063.04 L184.19 1057.16 Z" fill="#000000" fill-rule="nonzero" fill-opacity="1" /><path clip-path="url(#clip370)" d="M209.26 1031.56 Q205.649 1031.56 203.82 1035.12 Q202.014 1038.67 202.014 1045.8 Q202.014 1052.9 203.82 1056.47 Q205.649 1060.01 209.26 1060.01 Q212.894 1060.01 214.699 1056.47 Q216.528 1052.9 216.528 1045.8 Q216.528 1038.67 214.699 1035.12 Q212.894 1031.56 209.26 1031.56 M209.26 1027.86 Q215.07 1027.86 218.125 1032.46 Q221.204 1037.05 221.204 1045.8 Q221.204 1054.52 218.125 1059.13 Q215.07 1063.71 209.26 1063.71 Q203.449 1063.71 200.371 1059.13 Q197.315 1054.52 197.315 1045.8 Q197.315 1037.05 200.371 1032.46 Q203.449 1027.86 209.26 1027.86 Z" fill="#000000" fill-rule="nonzero" fill-opacity="1" /><path clip-path="url(#clip370)" d="M115.256 849.28 L144.931 849.28 L144.931 853.215 L115.256 853.215 L115.256 849.28 Z" fill="#000000" fill-rule="nonzero" fill-opacity="1" /><path clip-path="url(#clip370)" d="M165.024 834.628 Q161.413 834.628 159.584 838.192 Q157.778 841.734 157.778 848.864 Q157.778 855.97 159.584 859.535 Q161.413 863.076 165.024 863.076 Q168.658 863.076 170.464 859.535 Q172.292 855.97 172.292 848.864 Q172.292 841.734 170.464 838.192 Q168.658 834.628 165.024 834.628 M165.024 830.924 Q170.834 830.924 173.889 835.53 Q176.968 840.114 176.968 848.864 Q176.968 857.59 173.889 862.197 Q170.834 866.78 165.024 866.78 Q159.214 866.78 156.135 862.197 Q153.079 857.59 153.079 848.864 Q153.079 840.114 156.135 835.53 Q159.214 830.924 165.024 830.924 Z" fill="#000000" fill-rule="nonzero" fill-opacity="1" /><path clip-path="url(#clip370)" d="M185.186 860.229 L190.07 860.229 L190.07 866.109 L185.186 866.109 L185.186 860.229 Z" fill="#000000" fill-rule="nonzero" fill-opacity="1" /><path clip-path="url(#clip370)" d="M200.301 831.549 L218.658 831.549 L218.658 835.484 L204.584 835.484 L204.584 843.956 Q205.602 843.609 206.621 843.447 Q207.639 843.262 208.658 843.262 Q214.445 843.262 217.824 846.433 Q221.204 849.604 221.204 855.021 Q221.204 860.6 217.732 863.701 Q214.26 866.78 207.94 866.78 Q205.764 866.78 203.496 866.41 Q201.25 866.039 198.843 865.299 L198.843 860.6 Q200.926 861.734 203.149 862.289 Q205.371 862.845 207.848 862.845 Q211.852 862.845 214.19 860.739 Q216.528 858.632 216.528 855.021 Q216.528 851.41 214.19 849.303 Q211.852 847.197 207.848 847.197 Q205.973 847.197 204.098 847.614 Q202.246 848.03 200.301 848.91 L200.301 831.549 Z" fill="#000000" fill-rule="nonzero" fill-opacity="1" /><path clip-path="url(#clip370)" d="M164.028 637.695 Q160.417 637.695 158.589 641.26 Q156.783 644.802 156.783 651.931 Q156.783 659.038 158.589 662.603 Q160.417 666.144 164.028 666.144 Q167.663 666.144 169.468 662.603 Q171.297 659.038 171.297 651.931 Q171.297 644.802 169.468 641.26 Q167.663 637.695 164.028 637.695 M164.028 633.992 Q169.839 633.992 172.894 638.598 Q175.973 643.181 175.973 651.931 Q175.973 660.658 172.894 665.265 Q169.839 669.848 164.028 669.848 Q158.218 669.848 155.14 665.265 Q152.084 660.658 152.084 651.931 Q152.084 643.181 155.14 638.598 Q158.218 633.992 164.028 633.992 Z" fill="#000000" fill-rule="nonzero" fill-opacity="1" /><path clip-path="url(#clip370)" d="M184.19 663.297 L189.075 663.297 L189.075 669.177 L184.19 669.177 L184.19 663.297 Z" fill="#000000" fill-rule="nonzero" fill-opacity="1" /><path clip-path="url(#clip370)" d="M209.26 637.695 Q205.649 637.695 203.82 641.26 Q202.014 644.802 202.014 651.931 Q202.014 659.038 203.82 662.603 Q205.649 666.144 209.26 666.144 Q212.894 666.144 214.699 662.603 Q216.528 659.038 216.528 651.931 Q216.528 644.802 214.699 641.26 Q212.894 637.695 209.26 637.695 M209.26 633.992 Q215.07 633.992 218.125 638.598 Q221.204 643.181 221.204 651.931 Q221.204 660.658 218.125 665.265 Q215.07 669.848 209.26 669.848 Q203.449 669.848 200.371 665.265 Q197.315 660.658 197.315 651.931 Q197.315 643.181 200.371 638.598 Q203.449 633.992 209.26 633.992 Z" fill="#000000" fill-rule="nonzero" fill-opacity="1" /><path clip-path="url(#clip370)" d="M165.024 440.763 Q161.413 440.763 159.584 444.328 Q157.778 447.87 157.778 454.999 Q157.778 462.106 159.584 465.67 Q161.413 469.212 165.024 469.212 Q168.658 469.212 170.464 465.67 Q172.292 462.106 172.292 454.999 Q172.292 447.87 170.464 444.328 Q168.658 440.763 165.024 440.763 M165.024 437.059 Q170.834 437.059 173.889 441.666 Q176.968 446.249 176.968 454.999 Q176.968 463.726 173.889 468.332 Q170.834 472.916 165.024 472.916 Q159.214 472.916 156.135 468.332 Q153.079 463.726 153.079 454.999 Q153.079 446.249 156.135 441.666 Q159.214 437.059 165.024 437.059 Z" fill="#000000" fill-rule="nonzero" fill-opacity="1" /><path clip-path="url(#clip370)" d="M185.186 466.365 L190.07 466.365 L190.07 472.244 L185.186 472.244 L185.186 466.365 Z" fill="#000000" fill-rule="nonzero" fill-opacity="1" /><path clip-path="url(#clip370)" d="M200.301 437.684 L218.658 437.684 L218.658 441.62 L204.584 441.62 L204.584 450.092 Q205.602 449.745 206.621 449.582 Q207.639 449.397 208.658 449.397 Q214.445 449.397 217.824 452.569 Q221.204 455.74 221.204 461.156 Q221.204 466.735 217.732 469.837 Q214.26 472.916 207.94 472.916 Q205.764 472.916 203.496 472.545 Q201.25 472.175 198.843 471.434 L198.843 466.735 Q200.926 467.869 203.149 468.425 Q205.371 468.981 207.848 468.981 Q211.852 468.981 214.19 466.874 Q216.528 464.768 216.528 461.156 Q216.528 457.545 214.19 455.439 Q211.852 453.332 207.848 453.332 Q205.973 453.332 204.098 453.749 Q202.246 454.166 200.301 455.045 L200.301 437.684 Z" fill="#000000" fill-rule="nonzero" fill-opacity="1" /><path clip-path="url(#clip370)" d="M154.839 271.377 L162.477 271.377 L162.477 245.011 L154.167 246.678 L154.167 242.419 L162.431 240.752 L167.107 240.752 L167.107 271.377 L174.746 271.377 L174.746 275.312 L154.839 275.312 L154.839 271.377 Z" fill="#000000" fill-rule="nonzero" fill-opacity="1" /><path clip-path="url(#clip370)" d="M184.19 269.433 L189.075 269.433 L189.075 275.312 L184.19 275.312 L184.19 269.433 Z" fill="#000000" fill-rule="nonzero" fill-opacity="1" /><path clip-path="url(#clip370)" d="M209.26 243.831 Q205.649 243.831 203.82 247.396 Q202.014 250.937 202.014 258.067 Q202.014 265.173 203.82 268.738 Q205.649 272.28 209.26 272.28 Q212.894 272.28 214.699 268.738 Q216.528 265.173 216.528 258.067 Q216.528 250.937 214.699 247.396 Q212.894 243.831 209.26 243.831 M209.26 240.127 Q215.07 240.127 218.125 244.734 Q221.204 249.317 221.204 258.067 Q221.204 266.794 218.125 271.4 Q215.07 275.983 209.26 275.983 Q203.449 275.983 200.371 271.4 Q197.315 266.794 197.315 258.067 Q197.315 249.317 200.371 244.734 Q203.449 240.127 209.26 240.127 Z" fill="#000000" fill-rule="nonzero" fill-opacity="1" /><path clip-path="url(#clip370)" d="M155.834 74.4448 L163.473 74.4448 L163.473 48.0792 L155.163 49.7458 L155.163 45.4866 L163.427 43.8199 L168.102 43.8199 L168.102 74.4448 L175.741 74.4448 L175.741 78.3799 L155.834 78.3799 L155.834 74.4448 Z" fill="#000000" fill-rule="nonzero" fill-opacity="1" /><path clip-path="url(#clip370)" d="M185.186 72.5003 L190.07 72.5003 L190.07 78.3799 L185.186 78.3799 L185.186 72.5003 Z" fill="#000000" fill-rule="nonzero" fill-opacity="1" /><path clip-path="url(#clip370)" d="M200.301 43.8199 L218.658 43.8199 L218.658 47.7551 L204.584 47.7551 L204.584 56.2273 Q205.602 55.88 206.621 55.718 Q207.639 55.5328 208.658 55.5328 Q214.445 55.5328 217.824 58.7041 Q221.204 61.8754 221.204 67.292 Q221.204 72.8707 217.732 75.9725 Q214.26 79.0512 207.94 79.0512 Q205.764 79.0512 203.496 78.6808 Q201.25 78.3105 198.843 77.5697 L198.843 72.8707 Q200.926 74.0049 203.149 74.5605 Q205.371 75.116 207.848 75.116 Q211.852 75.116 214.19 73.0096 Q216.528 70.9031 216.528 67.292 Q216.528 63.6809 214.19 61.5745 Q211.852 59.468 207.848 59.468 Q205.973 59.468 204.098 59.8846 Q202.246 60.3013 200.301 61.1809 L200.301 43.8199 Z" fill="#000000" fill-rule="nonzero" fill-opacity="1" /><path clip-path="url(#clip370)" d="M20.8447 948.702 Q20.8447 955.704 26.0645 959.842 Q31.2844 963.948 40.2919 963.948 Q49.2675 963.948 54.4874 959.842 Q59.7073 955.704 59.7073 948.702 Q59.7073 941.7 54.4874 937.626 Q49.2675 933.52 40.2919 933.52 Q31.2844 933.52 26.0645 937.626 Q20.8447 941.7 20.8447 948.702 M15.6248 948.702 Q15.6248 938.708 22.3406 932.724 Q29.0246 926.74 40.2919 926.74 Q51.5274 926.74 58.2432 932.724 Q64.9272 938.708 64.9272 948.702 Q64.9272 958.728 58.2432 964.743 Q51.5592 970.727 40.2919 970.727 Q29.0246 970.727 22.3406 964.743 Q15.6248 958.728 15.6248 948.702 Z" fill="#000000" fill-rule="nonzero" fill-opacity="1" /><path clip-path="url(#clip370)" d="M49.9359 917.542 L28.3562 917.542 L28.3562 911.685 L49.7131 911.685 Q54.7739 911.685 57.3202 909.712 Q59.8346 907.739 59.8346 903.792 Q59.8346 899.049 56.8109 896.312 Q53.7872 893.543 48.5673 893.543 L28.3562 893.543 L28.3562 887.687 L64.0042 887.687 L64.0042 893.543 L58.5296 893.543 Q61.7762 895.676 63.3676 898.508 Q64.9272 901.309 64.9272 905.033 Q64.9272 911.176 61.1078 914.359 Q57.2883 917.542 49.9359 917.542 M27.4968 902.805 L27.4968 902.805 Z" fill="#000000" fill-rule="nonzero" fill-opacity="1" /><path clip-path="url(#clip370)" d="M18.2347 869.831 L28.3562 869.831 L28.3562 857.768 L32.9077 857.768 L32.9077 869.831 L52.2594 869.831 Q56.6199 869.831 57.8613 868.653 Q59.1026 867.444 59.1026 863.783 L59.1026 857.768 L64.0042 857.768 L64.0042 863.783 Q64.0042 870.563 61.4897 873.141 Q58.9434 875.719 52.2594 875.719 L32.9077 875.719 L32.9077 880.016 L28.3562 880.016 L28.3562 875.719 L18.2347 875.719 L18.2347 869.831 Z" fill="#000000" fill-rule="nonzero" fill-opacity="1" /><path clip-path="url(#clip370)" d="M58.657 844.4 L77.5631 844.4 L77.5631 850.288 L28.3562 850.288 L28.3562 844.4 L33.7671 844.4 Q30.5842 842.554 29.0564 839.753 Q27.4968 836.92 27.4968 833.005 Q27.4968 826.512 32.6531 822.47 Q37.8093 818.396 46.212 818.396 Q54.6147 818.396 59.771 822.47 Q64.9272 826.512 64.9272 833.005 Q64.9272 836.92 63.3994 839.753 Q61.8398 842.554 58.657 844.4 M46.212 824.475 Q39.7508 824.475 36.0905 827.149 Q32.3984 829.79 32.3984 834.437 Q32.3984 839.084 36.0905 841.758 Q39.7508 844.4 46.212 844.4 Q52.6732 844.4 56.3653 841.758 Q60.0256 839.084 60.0256 834.437 Q60.0256 829.79 56.3653 827.149 Q52.6732 824.475 46.212 824.475 Z" fill="#000000" fill-rule="nonzero" fill-opacity="1" /><path clip-path="url(#clip370)" d="M49.9359 809.293 L28.3562 809.293 L28.3562 803.436 L49.7131 803.436 Q54.7739 803.436 57.3202 801.463 Q59.8346 799.49 59.8346 795.543 Q59.8346 790.801 56.8109 788.063 Q53.7872 785.294 48.5673 785.294 L28.3562 785.294 L28.3562 779.438 L64.0042 779.438 L64.0042 785.294 L58.5296 785.294 Q61.7762 787.427 63.3676 790.259 Q64.9272 793.06 64.9272 796.784 Q64.9272 802.927 61.1078 806.11 Q57.2883 809.293 49.9359 809.293 M27.4968 794.556 L27.4968 794.556 Z" fill="#000000" fill-rule="nonzero" fill-opacity="1" /><path clip-path="url(#clip370)" d="M18.2347 761.582 L28.3562 761.582 L28.3562 749.519 L32.9077 749.519 L32.9077 761.582 L52.2594 761.582 Q56.6199 761.582 57.8613 760.404 Q59.1026 759.195 59.1026 755.534 L59.1026 749.519 L64.0042 749.519 L64.0042 755.534 Q64.0042 762.314 61.4897 764.892 Q58.9434 767.47 52.2594 767.47 L32.9077 767.47 L32.9077 771.767 L28.3562 771.767 L28.3562 767.47 L18.2347 767.47 L18.2347 761.582 Z" fill="#000000" fill-rule="nonzero" fill-opacity="1" /><path clip-path="url(#clip370)" d="M21.7677 735.132 L39.6235 735.132 L39.6235 727.048 Q39.6235 722.56 37.3 720.109 Q34.9765 717.659 30.6797 717.659 Q26.4147 717.659 24.0912 720.109 Q21.7677 722.56 21.7677 727.048 L21.7677 735.132 M16.4842 741.562 L16.4842 727.048 Q16.4842 719.059 20.1126 714.985 Q23.7092 710.879 30.6797 710.879 Q37.7138 710.879 41.3104 714.985 Q44.907 719.059 44.907 727.048 L44.907 735.132 L64.0042 735.132 L64.0042 741.562 L16.4842 741.562 Z" fill="#000000" fill-rule="nonzero" fill-opacity="1" /><path clip-path="url(#clip370)" d="M32.4621 691.018 Q32.4621 695.729 36.1542 698.466 Q39.8145 701.203 46.212 701.203 Q52.6095 701.203 56.3017 698.498 Q59.9619 695.761 59.9619 691.018 Q59.9619 686.339 56.2698 683.602 Q52.5777 680.865 46.212 680.865 Q39.8781 680.865 36.186 683.602 Q32.4621 686.339 32.4621 691.018 M27.4968 691.018 Q27.4968 683.379 32.4621 679.019 Q37.4273 674.658 46.212 674.658 Q54.9649 674.658 59.9619 679.019 Q64.9272 683.379 64.9272 691.018 Q64.9272 698.689 59.9619 703.049 Q54.9649 707.378 46.212 707.378 Q37.4273 707.378 32.4621 703.049 Q27.4968 698.689 27.4968 691.018 Z" fill="#000000" fill-rule="nonzero" fill-opacity="1" /><path clip-path="url(#clip370)" d="M29.4065 642.225 L34.9447 642.225 Q33.6716 644.708 33.035 647.381 Q32.3984 650.055 32.3984 652.919 Q32.3984 657.28 33.7352 659.476 Q35.072 661.64 37.7456 661.64 Q39.7826 661.64 40.9603 660.081 Q42.1061 658.521 43.1565 653.81 L43.6021 651.805 Q44.9389 645.567 47.3897 642.957 Q49.8086 640.315 54.1691 640.315 Q59.1344 640.315 62.0308 644.262 Q64.9272 648.177 64.9272 655.052 Q64.9272 657.916 64.3543 661.036 Q63.8132 664.123 62.6992 667.56 L56.6518 667.56 Q58.3387 664.314 59.198 661.163 Q60.0256 658.012 60.0256 654.924 Q60.0256 650.787 58.6251 648.559 Q57.1929 646.331 54.6147 646.331 Q52.2276 646.331 50.9545 647.954 Q49.6813 649.545 48.5037 654.988 L48.0262 657.025 Q46.8804 662.468 44.5251 664.887 Q42.138 667.306 38.0002 667.306 Q32.9713 667.306 30.2341 663.741 Q27.4968 660.176 27.4968 653.62 Q27.4968 650.373 27.9743 647.508 Q28.4517 644.644 29.4065 642.225 Z" fill="#000000" fill-rule="nonzero" fill-opacity="1" /><path clip-path="url(#clip370)" d="M28.3562 630.989 L28.3562 625.133 L64.0042 625.133 L64.0042 630.989 L28.3562 630.989 M14.479 630.989 L14.479 625.133 L21.895 625.133 L21.895 630.989 L14.479 630.989 Z" fill="#000000" fill-rule="nonzero" fill-opacity="1" /><path clip-path="url(#clip370)" d="M18.2347 607.086 L28.3562 607.086 L28.3562 595.023 L32.9077 595.023 L32.9077 607.086 L52.2594 607.086 Q56.6199 607.086 57.8613 605.909 Q59.1026 604.699 59.1026 601.039 L59.1026 595.023 L64.0042 595.023 L64.0042 601.039 Q64.0042 607.818 61.4897 610.396 Q58.9434 612.974 52.2594 612.974 L32.9077 612.974 L32.9077 617.271 L28.3562 617.271 L28.3562 612.974 L18.2347 612.974 L18.2347 607.086 Z" fill="#000000" fill-rule="nonzero" fill-opacity="1" /><path clip-path="url(#clip370)" d="M28.3562 587.321 L28.3562 581.464 L64.0042 581.464 L64.0042 587.321 L28.3562 587.321 M14.479 587.321 L14.479 581.464 L21.895 581.464 L21.895 587.321 L14.479 587.321 Z" fill="#000000" fill-rule="nonzero" fill-opacity="1" /><path clip-path="url(#clip370)" d="M32.4621 555.397 Q32.4621 560.107 36.1542 562.845 Q39.8145 565.582 46.212 565.582 Q52.6095 565.582 56.3017 562.876 Q59.9619 560.139 59.9619 555.397 Q59.9619 550.718 56.2698 547.981 Q52.5777 545.243 46.212 545.243 Q39.8781 545.243 36.186 547.981 Q32.4621 550.718 32.4621 555.397 M27.4968 555.397 Q27.4968 547.758 32.4621 543.397 Q37.4273 539.037 46.212 539.037 Q54.9649 539.037 59.9619 543.397 Q64.9272 547.758 64.9272 555.397 Q64.9272 563.067 59.9619 567.428 Q54.9649 571.757 46.212 571.757 Q37.4273 571.757 32.4621 567.428 Q27.4968 563.067 27.4968 555.397 Z" fill="#000000" fill-rule="nonzero" fill-opacity="1" /><path clip-path="url(#clip370)" d="M42.4881 499.697 L64.0042 499.697 L64.0042 505.553 L42.679 505.553 Q37.6183 505.553 35.1038 507.527 Q32.5894 509.5 32.5894 513.447 Q32.5894 518.189 35.6131 520.926 Q38.6368 523.664 43.8567 523.664 L64.0042 523.664 L64.0042 529.552 L28.3562 529.552 L28.3562 523.664 L33.8944 523.664 Q30.6797 521.563 29.0883 518.73 Q27.4968 515.866 27.4968 512.142 Q27.4968 505.999 31.3163 502.848 Q35.1038 499.697 42.4881 499.697 Z" fill="#000000" fill-rule="nonzero" fill-opacity="1" /><polyline clip-path="url(#clip372)" style="stroke:#009af9; stroke-linecap:round; stroke-linejoin:round; stroke-width:4; stroke-opacity:1; fill:none" points="316.512,841.431 336.281,841.469 356.051,841.581 375.82,841.767 395.59,842.022 415.359,842.341 435.128,842.717 454.898,843.144 474.667,843.612 494.436,844.113 514.206,844.635 533.975,845.169 553.744,845.705 573.514,846.23 593.283,846.736 613.052,847.211 632.822,847.711 652.591,848.225 672.361,848.744 692.13,849.256 711.899,849.753 731.669,850.223 751.438,850.657 771.207,851.047 790.977,851.385 810.746,851.664 830.515,851.879 850.285,852.025 870.054,852.099 889.823,852.1 909.593,852.028 929.362,851.884 949.132,851.671 968.901,851.393 988.67,851.057 1008.44,850.668 1028.21,850.235 1047.98,849.765 1067.75,849.27 1087.52,848.757 1107.29,848.239 1127.06,847.724 1146.83,847.224 1166.59,846.748 1186.36,846.241 1206.13,845.714 1225.9,845.178 1245.67,844.642 1265.44,844.118 1285.21,843.615 1304.98,843.145 1324.75,842.717 1344.52,842.338 1364.29,842.018 1384.06,841.761 1403.83,841.574 1423.6,841.459 1443.37,841.42 1463.13,841.457 1482.9,841.569 1502.67,841.754 1522.44,842.008 1542.21,842.327 1561.98,842.704 1581.75,843.131 1601.52,843.6 1621.29,844.101 1641.06,844.625 1660.83,845.16 1680.6,845.697 1700.37,846.225 1720.14,846.732 1739.91,847.209 1759.68,847.711 1779.44,848.227 1799.21,848.748 1818.98,849.262 1838.75,849.76 1858.52,850.232 1878.29,850.668 1898.06,851.059 1917.83,851.398 1937.6,851.677 1957.37,851.892 1977.14,852.038 1996.91,852.112 2016.68,852.113 2036.45,852.04 2056.22,851.895 2075.98,851.681 2095.75,851.402 2115.52,851.064 2135.29,850.674 2155.06,850.239 2174.83,849.768 2194.6,849.27 2214.37,848.756 2234.14,848.235 2253.91,847.719 2273.68,847.217 2293.45,846.739 "/>
<polyline clip-path="url(#clip372)" style="stroke:#e26f46; stroke-linecap:round; stroke-linejoin:round; stroke-width:4; stroke-opacity:1; fill:none" points="316.512,306.959 336.281,307.877 356.051,310.616 375.82,315.118 395.59,321.295 415.359,329.023 435.128,338.148 454.898,348.486 474.667,359.831 494.436,371.957 514.206,384.62 533.975,397.568 553.744,410.541 573.514,423.28 593.283,435.53 613.052,447.047 632.822,459.159 652.591,471.626 672.361,484.197 692.13,496.62 711.899,508.649 731.669,520.041 751.438,530.57 771.207,540.024 790.977,548.215 810.746,554.978 830.515,560.179 850.285,563.713 870.054,565.51 889.823,565.533 909.593,563.783 929.362,560.294 949.132,555.137 968.901,548.413 988.67,540.258 1008.44,530.835 1028.21,520.333 1047.98,508.96 1067.75,496.946 1087.52,484.529 1107.29,471.959 1127.06,459.486 1146.83,447.361 1166.59,435.826 1186.36,423.551 1206.13,410.781 1225.9,397.773 1245.67,384.787 1265.44,372.081 1285.21,359.91 1304.98,348.519 1324.75,338.133 1344.52,328.962 1364.29,321.188 1384.06,314.968 1403.83,310.425 1423.6,307.65 1443.37,306.699 1463.13,307.591 1482.9,310.308 1502.67,314.795 1522.44,320.964 1542.21,328.69 1561.98,337.819 1581.75,348.168 1601.52,359.531 1621.29,371.68 1641.06,384.373 1660.83,397.355 1680.6,410.366 1700.37,423.147 1720.14,435.442 1739.91,447.005 1759.68,459.164 1779.44,471.678 1799.21,484.295 1818.98,496.763 1838.75,508.832 1858.52,520.262 1878.29,530.824 1898.06,540.306 1917.83,548.519 1937.6,555.298 1957.37,560.509 1977.14,564.046 1996.91,565.84 2016.68,565.853 2036.45,564.087 2056.22,560.576 2075.98,555.39 2095.75,548.633 2115.52,540.441 2135.29,530.977 2155.06,520.43 2174.83,509.011 2194.6,496.95 2214.37,484.486 2234.14,471.87 2253.91,459.353 2273.68,447.186 2293.45,435.612 "/>
<polyline clip-path="url(#clip372)" style="stroke:#3da44d; stroke-linecap:round; stroke-linejoin:round; stroke-width:4; stroke-opacity:1; fill:none" points="316.512,1382.95 336.281,1378.41 356.051,1364.86 375.82,1342.57 395.59,1312 415.359,1273.76 435.128,1228.6 454.898,1177.44 474.667,1121.29 494.436,1061.28 514.206,998.616 533.975,934.54 553.744,870.337 573.514,807.292 593.283,746.667 613.052,689.673 632.822,629.729 652.591,568.034 672.361,505.822 692.13,444.338 711.899,384.81 731.669,328.43 751.438,276.326 771.207,229.538 790.977,189.004 810.746,155.533 830.515,129.795 850.285,112.305 870.054,103.413 889.823,103.296 909.593,111.957 929.362,129.223 949.132,154.748 968.901,188.022 988.67,228.379 1008.44,275.012 1028.21,326.989 1047.98,383.27 1067.75,442.729 1087.52,504.177 1107.29,566.385 1127.06,628.11 1146.83,688.116 1166.59,745.204 1186.36,805.952 1206.13,869.146 1225.9,933.521 1245.67,997.791 1265.44,1060.67 1285.21,1120.9 1304.98,1177.28 1324.75,1228.67 1344.52,1274.06 1364.29,1312.53 1384.06,1343.32 1403.83,1365.8 1423.6,1379.53 1443.37,1384.24 1463.13,1379.82 1482.9,1366.38 1502.67,1344.17 1522.44,1313.64 1542.21,1275.41 1561.98,1230.23 1581.75,1179.01 1601.52,1122.78 1621.29,1062.65 1641.06,999.839 1660.83,935.593 1680.6,871.201 1700.37,807.95 1720.14,747.104 1739.91,689.88 1759.68,629.703 1779.44,567.776 1799.21,505.337 1818.98,443.635 1838.75,383.903 1858.52,327.338 1878.29,275.07 1898.06,228.143 1917.83,187.498 1937.6,153.947 1957.37,128.16 1977.14,110.654 1996.91,101.779 2016.68,101.712 2036.45,110.454 2056.22,127.831 2075.98,153.495 2095.75,186.933 2115.52,227.476 2135.29,274.313 2155.06,326.508 2174.83,383.016 2194.6,442.708 2214.37,504.39 2234.14,566.827 2253.91,628.771 2273.68,688.984 2293.45,746.261 "/>
<polyline clip-path="url(#clip372)" style="stroke:#c271d2; stroke-linecap:round; stroke-linejoin:round; stroke-width:4; stroke-opacity:1; fill:none" points="316.512,852.232 336.281,852.194 356.051,852.081 375.82,851.895 395.59,851.64 415.359,851.321 435.128,850.945 454.898,850.518 474.667,850.05 494.436,849.55 514.206,849.027 533.975,848.493 553.744,847.958 573.514,847.432 593.283,846.927 613.052,846.451 632.822,845.952 652.591,845.437 672.361,844.919 692.13,844.406 711.899,843.91 731.669,843.44 751.438,843.005 771.207,842.615 790.977,842.277 810.746,841.998 830.515,841.783 850.285,841.638 870.054,841.564 889.823,841.563 909.593,841.635 929.362,841.779 949.132,841.992 968.901,842.269 988.67,842.605 1008.44,842.994 1028.21,843.428 1047.98,843.897 1067.75,844.393 1087.52,844.905 1107.29,845.424 1127.06,845.938 1146.83,846.438 1166.59,846.914 1186.36,847.421 1206.13,847.948 1225.9,848.485 1245.67,849.02 1265.44,849.545 1285.21,850.047 1304.98,850.517 1324.75,850.945 1344.52,851.324 1364.29,851.645 1384.06,851.901 1403.83,852.089 1423.6,852.203 1443.37,852.242 1463.13,852.206 1482.9,852.094 1502.67,851.908 1522.44,851.654 1542.21,851.335 1561.98,850.958 1581.75,850.531 1601.52,850.062 1621.29,849.561 1641.06,849.037 1660.83,848.502 1680.6,847.965 1700.37,847.438 1720.14,846.93 1739.91,846.453 1759.68,845.951 1779.44,845.435 1799.21,844.915 1818.98,844.4 1838.75,843.902 1858.52,843.43 1878.29,842.995 1898.06,842.603 1917.83,842.265 1937.6,841.985 1957.37,841.77 1977.14,841.624 1996.91,841.55 2016.68,841.549 2036.45,841.622 2056.22,841.767 2075.98,841.981 2095.75,842.26 2115.52,842.598 2135.29,842.988 2155.06,843.424 2174.83,843.895 2194.6,844.392 2214.37,844.907 2234.14,845.427 2253.91,845.944 2273.68,846.446 2293.45,846.923 "/>
<polyline clip-path="url(#clip372)" style="stroke:#ac8d18; stroke-linecap:round; stroke-linejoin:round; stroke-width:4; stroke-opacity:1; fill:none" points="316.512,568.731 336.281,567.812 356.051,565.074 375.82,560.571 395.59,554.394 415.359,546.666 435.128,537.542 454.898,527.204 474.667,515.858 494.436,503.733 514.206,491.07 533.975,478.122 553.744,465.149 573.514,452.41 593.283,440.159 613.052,428.643 632.822,416.53 652.591,404.064 672.361,391.493 692.13,379.069 711.899,367.041 731.669,355.648 751.438,345.12 771.207,335.666 790.977,327.475 810.746,320.712 830.515,315.511 850.285,311.977 870.054,310.18 889.823,310.156 909.593,311.906 929.362,315.395 949.132,320.553 968.901,327.276 988.67,335.431 1008.44,344.854 1028.21,355.357 1047.98,366.729 1067.75,378.744 1087.52,391.161 1107.29,403.731 1127.06,416.203 1146.83,428.328 1166.59,439.864 1186.36,452.139 1206.13,464.908 1225.9,477.916 1245.67,490.903 1265.44,503.609 1285.21,515.779 1304.98,527.171 1324.75,537.556 1344.52,546.728 1364.29,554.501 1384.06,560.722 1403.83,565.265 1423.6,568.04 1443.37,568.991 1463.13,568.099 1482.9,565.382 1502.67,560.894 1522.44,554.726 1542.21,547 1561.98,537.871 1581.75,527.521 1601.52,516.158 1621.29,504.009 1641.06,491.317 1660.83,478.335 1680.6,465.324 1700.37,452.543 1720.14,440.248 1739.91,428.685 1759.68,416.525 1779.44,404.012 1799.21,391.395 1818.98,378.927 1838.75,366.857 1858.52,355.427 1878.29,344.866 1898.06,335.384 1917.83,327.171 1937.6,320.391 1957.37,315.181 1977.14,311.643 1996.91,309.85 2016.68,309.836 2036.45,311.603 2056.22,315.114 2075.98,320.3 2095.75,327.056 2115.52,335.249 2135.29,344.713 2155.06,355.26 2174.83,366.678 2194.6,378.74 2214.37,391.204 2234.14,403.82 2253.91,416.337 2273.68,428.504 2293.45,440.077 "/>
<polyline clip-path="url(#clip372)" style="stroke:#00a9ad; stroke-linecap:round; stroke-linejoin:round; stroke-width:4; stroke-opacity:1; fill:none" points="316.512,87.471 336.281,92.0181 356.051,105.569 375.82,127.852 395.59,158.421 415.359,196.666 435.128,241.822 454.898,292.984 474.667,349.131 494.436,409.139 514.206,471.808 533.975,535.884 553.744,600.087 573.514,663.131 593.283,723.757 613.052,780.751 632.822,840.695 652.591,902.39 672.361,964.602 692.13,1026.09 711.899,1085.61 731.669,1141.99 751.438,1194.1 771.207,1240.89 790.977,1281.42 810.746,1314.89 830.515,1340.63 850.285,1358.12 870.054,1367.01 889.823,1367.13 909.593,1358.47 929.362,1341.2 949.132,1315.68 968.901,1282.4 988.67,1242.05 1008.44,1195.41 1028.21,1143.44 1047.98,1087.15 1067.75,1027.7 1087.52,966.247 1107.29,904.038 1127.06,842.314 1146.83,782.308 1166.59,725.22 1186.36,664.472 1206.13,601.278 1225.9,536.903 1245.67,472.633 1265.44,409.754 1285.21,349.524 1304.98,293.147 1324.75,241.751 1344.52,196.363 1364.29,157.892 1384.06,127.107 1403.83,104.624 1423.6,90.8919 1443.37,86.1857 1463.13,90.5995 1482.9,104.045 1502.67,126.254 1522.44,156.781 1542.21,195.016 1561.98,240.195 1581.75,291.413 1601.52,347.647 1621.29,407.772 1641.06,470.585 1660.83,534.83 1680.6,599.223 1700.37,662.474 1720.14,723.32 1739.91,780.544 1759.68,840.721 1779.44,902.648 1799.21,965.087 1818.98,1026.79 1838.75,1086.52 1858.52,1143.09 1878.29,1195.35 1898.06,1242.28 1917.83,1282.93 1937.6,1316.48 1957.37,1342.26 1977.14,1359.77 1996.91,1368.65 2016.68,1368.71 2036.45,1359.97 2056.22,1342.59 2075.98,1316.93 2095.75,1283.49 2115.52,1242.95 2135.29,1196.11 2155.06,1143.92 2174.83,1087.41 2194.6,1027.72 2214.37,966.034 2234.14,903.597 2253.91,841.653 2273.68,781.44 2293.45,724.163 "/>
</svg>
