<?xml version="1.0" encoding="UTF-8"?>
<svg xmlns="http://www.w3.org/2000/svg" xmlns:xlink="http://www.w3.org/1999/xlink" width="610pt" height="610pt" viewBox="0 0 610 610" version="1.1">
<defs>
<clipPath id="clip1">
  <path d="M 5 5 L 605 5 L 605 605 L 5 605 Z M 5 5 "/>
</clipPath>
<clipPath id="clip2">
  <path d="M 605 305 L 604.628906 413.386719 L 603.515625 447.839844 L 601.65625 472.648438 L 599.039063 492.546875 L 595.648438 509.292969 L 591.464844 523.746094 L 586.46875 536.394531 L 580.617188 547.554688 L 573.867188 557.429688 L 566.164063 566.164063 L 557.429688 573.867188 L 547.554688 580.617188 L 536.394531 586.46875 L 523.746094 591.464844 L 509.292969 595.648438 L 492.546875 599.039063 L 472.648438 601.65625 L 447.839844 603.515625 L 413.386719 604.628906 L 305 605 L 196.613281 604.628906 L 162.160156 603.515625 L 137.351563 601.65625 L 117.453125 599.039063 L 100.707031 595.648438 L 86.253906 591.464844 L 73.605469 586.46875 L 62.445313 580.617188 L 52.570313 573.867188 L 43.835938 566.164063 L 36.132813 557.429688 L 29.382813 547.554688 L 23.53125 536.394531 L 18.535156 523.746094 L 14.351563 509.292969 L 10.960938 492.546875 L 8.34375 472.648438 L 6.484375 447.839844 L 5.371094 413.386719 L 5 305 L 5.371094 196.613281 L 6.484375 162.160156 L 8.34375 137.351563 L 10.960938 117.453125 L 14.351563 100.707031 L 18.535156 86.253906 L 23.53125 73.605469 L 29.382813 62.445313 L 36.132813 52.570313 L 43.835938 43.835938 L 52.570313 36.132813 L 62.445313 29.382813 L 73.605469 23.53125 L 86.253906 18.535156 L 100.707031 14.351563 L 117.453125 10.960938 L 137.351563 8.34375 L 162.160156 6.484375 L 196.613281 5.371094 L 305 5 L 413.386719 5.371094 L 447.839844 6.484375 L 472.648438 8.34375 L 492.546875 10.960938 L 509.292969 14.351563 L 523.746094 18.535156 L 536.394531 23.53125 L 547.554688 29.382813 L 557.429688 36.132813 L 566.164063 43.835938 L 573.867188 52.570313 L 580.617188 62.445313 L 586.46875 73.605469 L 591.464844 86.253906 L 595.648438 100.707031 L 599.039063 117.453125 L 601.65625 137.351563 L 603.515625 162.160156 L 604.628906 196.613281 Z M 605 305 "/>
</clipPath>
<clipPath id="clip3">
  <path d="M 5 5 L 305 5 L 305 484 L 5 484 Z M 5 5 "/>
</clipPath>
<clipPath id="clip4">
  <path d="M 605 305 L 604.628906 413.386719 L 603.515625 447.839844 L 601.65625 472.648438 L 599.039063 492.546875 L 595.648438 509.292969 L 591.464844 523.746094 L 586.46875 536.394531 L 580.617188 547.554688 L 573.867188 557.429688 L 566.164063 566.164063 L 557.429688 573.867188 L 547.554688 580.617188 L 536.394531 586.46875 L 523.746094 591.464844 L 509.292969 595.648438 L 492.546875 599.039063 L 472.648438 601.65625 L 447.839844 603.515625 L 413.386719 604.628906 L 305 605 L 196.613281 604.628906 L 162.160156 603.515625 L 137.351563 601.65625 L 117.453125 599.039063 L 100.707031 595.648438 L 86.253906 591.464844 L 73.605469 586.46875 L 62.445313 580.617188 L 52.570313 573.867188 L 43.835938 566.164063 L 36.132813 557.429688 L 29.382813 547.554688 L 23.53125 536.394531 L 18.535156 523.746094 L 14.351563 509.292969 L 10.960938 492.546875 L 8.34375 472.648438 L 6.484375 447.839844 L 5.371094 413.386719 L 5 305 L 5.371094 196.613281 L 6.484375 162.160156 L 8.34375 137.351563 L 10.960938 117.453125 L 14.351563 100.707031 L 18.535156 86.253906 L 23.53125 73.605469 L 29.382813 62.445313 L 36.132813 52.570313 L 43.835938 43.835938 L 52.570313 36.132813 L 62.445313 29.382813 L 73.605469 23.53125 L 86.253906 18.535156 L 100.707031 14.351563 L 117.453125 10.960938 L 137.351563 8.34375 L 162.160156 6.484375 L 196.613281 5.371094 L 305 5 L 413.386719 5.371094 L 447.839844 6.484375 L 472.648438 8.34375 L 492.546875 10.960938 L 509.292969 14.351563 L 523.746094 18.535156 L 536.394531 23.53125 L 547.554688 29.382813 L 557.429688 36.132813 L 566.164063 43.835938 L 573.867188 52.570313 L 580.617188 62.445313 L 586.46875 73.605469 L 591.464844 86.253906 L 595.648438 100.707031 L 599.039063 117.453125 L 601.65625 137.351563 L 603.515625 162.160156 L 604.628906 196.613281 Z M 605 305 "/>
</clipPath>
<clipPath id="clip5">
  <path d="M 5 5 L 447 5 L 447 605 L 5 605 Z M 5 5 "/>
</clipPath>
<clipPath id="clip6">
  <path d="M 605 305 L 604.628906 413.386719 L 603.515625 447.839844 L 601.65625 472.648438 L 599.039063 492.546875 L 595.648438 509.292969 L 591.464844 523.746094 L 586.46875 536.394531 L 580.617188 547.554688 L 573.867188 557.429688 L 566.164063 566.164063 L 557.429688 573.867188 L 547.554688 580.617188 L 536.394531 586.46875 L 523.746094 591.464844 L 509.292969 595.648438 L 492.546875 599.039063 L 472.648438 601.65625 L 447.839844 603.515625 L 413.386719 604.628906 L 305 605 L 196.613281 604.628906 L 162.160156 603.515625 L 137.351563 601.65625 L 117.453125 599.039063 L 100.707031 595.648438 L 86.253906 591.464844 L 73.605469 586.46875 L 62.445313 580.617188 L 52.570313 573.867188 L 43.835938 566.164063 L 36.132813 557.429688 L 29.382813 547.554688 L 23.53125 536.394531 L 18.535156 523.746094 L 14.351563 509.292969 L 10.960938 492.546875 L 8.34375 472.648438 L 6.484375 447.839844 L 5.371094 413.386719 L 5 305 L 5.371094 196.613281 L 6.484375 162.160156 L 8.34375 137.351563 L 10.960938 117.453125 L 14.351563 100.707031 L 18.535156 86.253906 L 23.53125 73.605469 L 29.382813 62.445313 L 36.132813 52.570313 L 43.835938 43.835938 L 52.570313 36.132813 L 62.445313 29.382813 L 73.605469 23.53125 L 86.253906 18.535156 L 100.707031 14.351563 L 117.453125 10.960938 L 137.351563 8.34375 L 162.160156 6.484375 L 196.613281 5.371094 L 305 5 L 413.386719 5.371094 L 447.839844 6.484375 L 472.648438 8.34375 L 492.546875 10.960938 L 509.292969 14.351563 L 523.746094 18.535156 L 536.394531 23.53125 L 547.554688 29.382813 L 557.429688 36.132813 L 566.164063 43.835938 L 573.867188 52.570313 L 580.617188 62.445313 L 586.46875 73.605469 L 591.464844 86.253906 L 595.648438 100.707031 L 599.039063 117.453125 L 601.65625 137.351563 L 603.515625 162.160156 L 604.628906 196.613281 Z M 605 305 "/>
</clipPath>
<clipPath id="clip7">
  <path d="M 305 5 L 605 5 L 605 428 L 305 428 Z M 305 5 "/>
</clipPath>
<clipPath id="clip8">
  <path d="M 605 305 L 604.628906 413.386719 L 603.515625 447.839844 L 601.65625 472.648438 L 599.039063 492.546875 L 595.648438 509.292969 L 591.464844 523.746094 L 586.46875 536.394531 L 580.617188 547.554688 L 573.867188 557.429688 L 566.164063 566.164063 L 557.429688 573.867188 L 547.554688 580.617188 L 536.394531 586.46875 L 523.746094 591.464844 L 509.292969 595.648438 L 492.546875 599.039063 L 472.648438 601.65625 L 447.839844 603.515625 L 413.386719 604.628906 L 305 605 L 196.613281 604.628906 L 162.160156 603.515625 L 137.351563 601.65625 L 117.453125 599.039063 L 100.707031 595.648438 L 86.253906 591.464844 L 73.605469 586.46875 L 62.445313 580.617188 L 52.570313 573.867188 L 43.835938 566.164063 L 36.132813 557.429688 L 29.382813 547.554688 L 23.53125 536.394531 L 18.535156 523.746094 L 14.351563 509.292969 L 10.960938 492.546875 L 8.34375 472.648438 L 6.484375 447.839844 L 5.371094 413.386719 L 5 305 L 5.371094 196.613281 L 6.484375 162.160156 L 8.34375 137.351563 L 10.960938 117.453125 L 14.351563 100.707031 L 18.535156 86.253906 L 23.53125 73.605469 L 29.382813 62.445313 L 36.132813 52.570313 L 43.835938 43.835938 L 52.570313 36.132813 L 62.445313 29.382813 L 73.605469 23.53125 L 86.253906 18.535156 L 100.707031 14.351563 L 117.453125 10.960938 L 137.351563 8.34375 L 162.160156 6.484375 L 196.613281 5.371094 L 305 5 L 413.386719 5.371094 L 447.839844 6.484375 L 472.648438 8.34375 L 492.546875 10.960938 L 509.292969 14.351563 L 523.746094 18.535156 L 536.394531 23.53125 L 547.554688 29.382813 L 557.429688 36.132813 L 566.164063 43.835938 L 573.867188 52.570313 L 580.617188 62.445313 L 586.46875 73.605469 L 591.464844 86.253906 L 595.648438 100.707031 L 599.039063 117.453125 L 601.65625 137.351563 L 603.515625 162.160156 L 604.628906 196.613281 Z M 605 305 "/>
</clipPath>
<clipPath id="clip9">
  <path d="M 163 5 L 605 5 L 605 570 L 163 570 Z M 163 5 "/>
</clipPath>
<clipPath id="clip10">
  <path d="M 605 305 L 604.628906 413.386719 L 603.515625 447.839844 L 601.65625 472.648438 L 599.039063 492.546875 L 595.648438 509.292969 L 591.464844 523.746094 L 586.46875 536.394531 L 580.617188 547.554688 L 573.867188 557.429688 L 566.164063 566.164063 L 557.429688 573.867188 L 547.554688 580.617188 L 536.394531 586.46875 L 523.746094 591.464844 L 509.292969 595.648438 L 492.546875 599.039063 L 472.648438 601.65625 L 447.839844 603.515625 L 413.386719 604.628906 L 305 605 L 196.613281 604.628906 L 162.160156 603.515625 L 137.351563 601.65625 L 117.453125 599.039063 L 100.707031 595.648438 L 86.253906 591.464844 L 73.605469 586.46875 L 62.445313 580.617188 L 52.570313 573.867188 L 43.835938 566.164063 L 36.132813 557.429688 L 29.382813 547.554688 L 23.53125 536.394531 L 18.535156 523.746094 L 14.351563 509.292969 L 10.960938 492.546875 L 8.34375 472.648438 L 6.484375 447.839844 L 5.371094 413.386719 L 5 305 L 5.371094 196.613281 L 6.484375 162.160156 L 8.34375 137.351563 L 10.960938 117.453125 L 14.351563 100.707031 L 18.535156 86.253906 L 23.53125 73.605469 L 29.382813 62.445313 L 36.132813 52.570313 L 43.835938 43.835938 L 52.570313 36.132813 L 62.445313 29.382813 L 73.605469 23.53125 L 86.253906 18.535156 L 100.707031 14.351563 L 117.453125 10.960938 L 137.351563 8.34375 L 162.160156 6.484375 L 196.613281 5.371094 L 305 5 L 413.386719 5.371094 L 447.839844 6.484375 L 472.648438 8.34375 L 492.546875 10.960938 L 509.292969 14.351563 L 523.746094 18.535156 L 536.394531 23.53125 L 547.554688 29.382813 L 557.429688 36.132813 L 566.164063 43.835938 L 573.867188 52.570313 L 580.617188 62.445313 L 586.46875 73.605469 L 591.464844 86.253906 L 595.648438 100.707031 L 599.039063 117.453125 L 601.65625 137.351563 L 603.515625 162.160156 L 604.628906 196.613281 Z M 605 305 "/>
</clipPath>
<clipPath id="clip11">
  <path d="M 155 5 L 455 5 L 455 365 L 155 365 Z M 155 5 "/>
</clipPath>
<clipPath id="clip12">
  <path d="M 605 305 L 604.628906 413.386719 L 603.515625 447.839844 L 601.65625 472.648438 L 599.039063 492.546875 L 595.648438 509.292969 L 591.464844 523.746094 L 586.46875 536.394531 L 580.617188 547.554688 L 573.867188 557.429688 L 566.164063 566.164063 L 557.429688 573.867188 L 547.554688 580.617188 L 536.394531 586.46875 L 523.746094 591.464844 L 509.292969 595.648438 L 492.546875 599.039063 L 472.648438 601.65625 L 447.839844 603.515625 L 413.386719 604.628906 L 305 605 L 196.613281 604.628906 L 162.160156 603.515625 L 137.351563 601.65625 L 117.453125 599.039063 L 100.707031 595.648438 L 86.253906 591.464844 L 73.605469 586.46875 L 62.445313 580.617188 L 52.570313 573.867188 L 43.835938 566.164063 L 36.132813 557.429688 L 29.382813 547.554688 L 23.53125 536.394531 L 18.535156 523.746094 L 14.351563 509.292969 L 10.960938 492.546875 L 8.34375 472.648438 L 6.484375 447.839844 L 5.371094 413.386719 L 5 305 L 5.371094 196.613281 L 6.484375 162.160156 L 8.34375 137.351563 L 10.960938 117.453125 L 14.351563 100.707031 L 18.535156 86.253906 L 23.53125 73.605469 L 29.382813 62.445313 L 36.132813 52.570313 L 43.835938 43.835938 L 52.570313 36.132813 L 62.445313 29.382813 L 73.605469 23.53125 L 86.253906 18.535156 L 100.707031 14.351563 L 117.453125 10.960938 L 137.351563 8.34375 L 162.160156 6.484375 L 196.613281 5.371094 L 305 5 L 413.386719 5.371094 L 447.839844 6.484375 L 472.648438 8.34375 L 492.546875 10.960938 L 509.292969 14.351563 L 523.746094 18.535156 L 536.394531 23.53125 L 547.554688 29.382813 L 557.429688 36.132813 L 566.164063 43.835938 L 573.867188 52.570313 L 580.617188 62.445313 L 586.46875 73.605469 L 591.464844 86.253906 L 595.648438 100.707031 L 599.039063 117.453125 L 601.65625 137.351563 L 603.515625 162.160156 L 604.628906 196.613281 Z M 605 305 "/>
</clipPath>
<clipPath id="clip13">
  <path d="M 13 5 L 597 5 L 597 507 L 13 507 Z M 13 5 "/>
</clipPath>
<clipPath id="clip14">
  <path d="M 605 305 L 604.628906 413.386719 L 603.515625 447.839844 L 601.65625 472.648438 L 599.039063 492.546875 L 595.648438 509.292969 L 591.464844 523.746094 L 586.46875 536.394531 L 580.617188 547.554688 L 573.867188 557.429688 L 566.164063 566.164063 L 557.429688 573.867188 L 547.554688 580.617188 L 536.394531 586.46875 L 523.746094 591.464844 L 509.292969 595.648438 L 492.546875 599.039063 L 472.648438 601.65625 L 447.839844 603.515625 L 413.386719 604.628906 L 305 605 L 196.613281 604.628906 L 162.160156 603.515625 L 137.351563 601.65625 L 117.453125 599.039063 L 100.707031 595.648438 L 86.253906 591.464844 L 73.605469 586.46875 L 62.445313 580.617188 L 52.570313 573.867188 L 43.835938 566.164063 L 36.132813 557.429688 L 29.382813 547.554688 L 23.53125 536.394531 L 18.535156 523.746094 L 14.351563 509.292969 L 10.960938 492.546875 L 8.34375 472.648438 L 6.484375 447.839844 L 5.371094 413.386719 L 5 305 L 5.371094 196.613281 L 6.484375 162.160156 L 8.34375 137.351563 L 10.960938 117.453125 L 14.351563 100.707031 L 18.535156 86.253906 L 23.53125 73.605469 L 29.382813 62.445313 L 36.132813 52.570313 L 43.835938 43.835938 L 52.570313 36.132813 L 62.445313 29.382813 L 73.605469 23.53125 L 86.253906 18.535156 L 100.707031 14.351563 L 117.453125 10.960938 L 137.351563 8.34375 L 162.160156 6.484375 L 196.613281 5.371094 L 305 5 L 413.386719 5.371094 L 447.839844 6.484375 L 472.648438 8.34375 L 492.546875 10.960938 L 509.292969 14.351563 L 523.746094 18.535156 L 536.394531 23.53125 L 547.554688 29.382813 L 557.429688 36.132813 L 566.164063 43.835938 L 573.867188 52.570313 L 580.617188 62.445313 L 586.46875 73.605469 L 591.464844 86.253906 L 595.648438 100.707031 L 599.039063 117.453125 L 601.65625 137.351563 L 603.515625 162.160156 L 604.628906 196.613281 Z M 605 305 "/>
</clipPath>
</defs>
<g id="surface1">
<g clip-path="url(#clip1)" clip-rule="nonzero">
<g clip-path="url(#clip2)" clip-rule="nonzero">
<rect x="0" y="0" width="610" height="610" style="fill:rgb(25.1%,38.8%,84.7%);fill-opacity:1;stroke:none;"/>
</g>
</g>
<g clip-path="url(#clip3)" clip-rule="nonzero">
<g clip-path="url(#clip4)" clip-rule="nonzero">
<path style=" stroke:none;fill-rule:nonzero;fill:rgb(79.6%,23.5%,20%);fill-opacity:1;" d="M 5 5 C 35 405 65 605 240 405 C 270 370.714844 285 365 305 365 C 225 365 175 105 155 5 L 5 5 "/>
</g>
</g>
<g clip-path="url(#clip5)" clip-rule="nonzero">
<g clip-path="url(#clip6)" clip-rule="nonzero">
<path style="fill:none;stroke-width:10;stroke-linecap:butt;stroke-linejoin:miter;stroke:rgb(100%,100%,100%);stroke-opacity:1;stroke-miterlimit:10;" d="M 5 5 C 35 405 65 605 240 405 C 270 370.714844 285 365 305 365 C 225 365 175 105 155 5 L 5 5 "/>
</g>
</g>
<g clip-path="url(#clip7)" clip-rule="nonzero">
<g clip-path="url(#clip8)" clip-rule="nonzero">
<path style=" stroke:none;fill-rule:nonzero;fill:rgb(58.4%,34.5%,69.8%);fill-opacity:1;" d="M 605 5 C 705 305 450 496.429688 370 405 C 340 370.714844 325 365 305 365 C 385 365 435 105 455 5 L 605 5 "/>
</g>
</g>
<g clip-path="url(#clip9)" clip-rule="nonzero">
<g clip-path="url(#clip10)" clip-rule="nonzero">
<path style="fill:none;stroke-width:10;stroke-linecap:butt;stroke-linejoin:miter;stroke:rgb(100%,100%,100%);stroke-opacity:1;stroke-miterlimit:10;" d="M 605 5 C 705 305 450 496.429688 370 405 C 340 370.714844 325 365 305 365 C 385 365 435 105 455 5 L 605 5 "/>
</g>
</g>
<g clip-path="url(#clip11)" clip-rule="nonzero">
<g clip-path="url(#clip12)" clip-rule="nonzero">
<path style=" stroke:none;fill-rule:nonzero;fill:rgb(22%,59.6%,14.9%);fill-opacity:1;" d="M 155 5 L 455 5 C 435 105 385 365 305 365 C 225 365 175 105 155 5 "/>
</g>
</g>
<g clip-path="url(#clip13)" clip-rule="nonzero">
<g clip-path="url(#clip14)" clip-rule="nonzero">
<path style="fill:none;stroke-width:10;stroke-linecap:butt;stroke-linejoin:miter;stroke:rgb(100%,100%,100%);stroke-opacity:1;stroke-miterlimit:10;" d="M 155 5 L 455 5 C 435 105 385 365 305 365 C 225 365 175 105 155 5 "/>
</g>
</g>
<path style="fill:none;stroke-width:10;stroke-linecap:butt;stroke-linejoin:miter;stroke:rgb(100%,100%,100%);stroke-opacity:1;stroke-miterlimit:10;" d="M 605 305 L 604.628906 413.386719 L 603.515625 447.839844 L 601.65625 472.648438 L 599.039063 492.546875 L 595.648438 509.292969 L 591.464844 523.746094 L 586.46875 536.394531 L 580.617188 547.554688 L 573.867188 557.429688 L 566.164063 566.164063 L 557.429688 573.867188 L 547.554688 580.617188 L 536.394531 586.46875 L 523.746094 591.464844 L 509.292969 595.648438 L 492.546875 599.039063 L 472.648438 601.65625 L 447.839844 603.515625 L 413.386719 604.628906 L 305 605 L 196.613281 604.628906 L 162.160156 603.515625 L 137.351563 601.65625 L 117.453125 599.039063 L 100.707031 595.648438 L 86.253906 591.464844 L 73.605469 586.46875 L 62.445313 580.617188 L 52.570313 573.867188 L 43.835938 566.164063 L 36.132813 557.429688 L 29.382813 547.554688 L 23.53125 536.394531 L 18.535156 523.746094 L 14.351563 509.292969 L 10.960938 492.546875 L 8.34375 472.648438 L 6.484375 447.839844 L 5.371094 413.386719 L 5 305 L 5.371094 196.613281 L 6.484375 162.160156 L 8.34375 137.351563 L 10.960938 117.453125 L 14.351563 100.707031 L 18.535156 86.253906 L 23.53125 73.605469 L 29.382813 62.445313 L 36.132813 52.570313 L 43.835938 43.835938 L 52.570313 36.132813 L 62.445313 29.382813 L 73.605469 23.53125 L 86.253906 18.535156 L 100.707031 14.351563 L 117.453125 10.960938 L 137.351563 8.34375 L 162.160156 6.484375 L 196.613281 5.371094 L 305 5 L 413.386719 5.371094 L 447.839844 6.484375 L 472.648438 8.34375 L 492.546875 10.960938 L 509.292969 14.351563 L 523.746094 18.535156 L 536.394531 23.53125 L 547.554688 29.382813 L 557.429688 36.132813 L 566.164063 43.835938 L 573.867188 52.570313 L 580.617188 62.445313 L 586.46875 73.605469 L 591.464844 86.253906 L 595.648438 100.707031 L 599.039063 117.453125 L 601.65625 137.351563 L 603.515625 162.160156 L 604.628906 196.613281 Z M 605 305 "/>
</g>
</svg>
