<?xml version="1.0" encoding="utf-8"?>
<svg xmlns="http://www.w3.org/2000/svg" xmlns:xlink="http://www.w3.org/1999/xlink" width="600" height="400" viewBox="0 0 2400 1600">
<defs>
  <clipPath id="clip030">
    <rect x="0" y="0" width="2400" height="1600"/>
  </clipPath>
</defs>
<path clip-path="url(#clip030)" d="M0 1600 L2400 1600 L2400 0 L0 0  Z" fill="#ffffff" fill-rule="evenodd" fill-opacity="1"/>
<defs>
  <clipPath id="clip031">
    <rect x="480" y="0" width="1681" height="1600"/>
  </clipPath>
</defs>
<path clip-path="url(#clip030)" d="M257.204 1423.18 L2352.76 1423.18 L2352.76 47.2441 L257.204 47.2441  Z" fill="#ffffff" fill-rule="evenodd" fill-opacity="1"/>
<defs>
  <clipPath id="clip032">
    <rect x="257" y="47" width="2097" height="1377"/>
  </clipPath>
</defs>
<polyline clip-path="url(#clip032)" style="stroke:#000000; stroke-linecap:round; stroke-linejoin:round; stroke-width:2; stroke-opacity:0.1; fill:none" points="316.512,1423.18 316.512,47.2441 "/>
<polyline clip-path="url(#clip032)" style="stroke:#000000; stroke-linecap:round; stroke-linejoin:round; stroke-width:2; stroke-opacity:0.1; fill:none" points="711.899,1423.18 711.899,47.2441 "/>
<polyline clip-path="url(#clip032)" style="stroke:#000000; stroke-linecap:round; stroke-linejoin:round; stroke-width:2; stroke-opacity:0.1; fill:none" points="1107.29,1423.18 1107.29,47.2441 "/>
<polyline clip-path="url(#clip032)" style="stroke:#000000; stroke-linecap:round; stroke-linejoin:round; stroke-width:2; stroke-opacity:0.1; fill:none" points="1502.67,1423.18 1502.67,47.2441 "/>
<polyline clip-path="url(#clip032)" style="stroke:#000000; stroke-linecap:round; stroke-linejoin:round; stroke-width:2; stroke-opacity:0.1; fill:none" points="1898.06,1423.18 1898.06,47.2441 "/>
<polyline clip-path="url(#clip032)" style="stroke:#000000; stroke-linecap:round; stroke-linejoin:round; stroke-width:2; stroke-opacity:0.1; fill:none" points="2293.45,1423.18 2293.45,47.2441 "/>
<polyline clip-path="url(#clip030)" style="stroke:#000000; stroke-linecap:round; stroke-linejoin:round; stroke-width:4; stroke-opacity:1; fill:none" points="257.204,1423.18 2352.76,1423.18 "/>
<polyline clip-path="url(#clip030)" style="stroke:#000000; stroke-linecap:round; stroke-linejoin:round; stroke-width:4; stroke-opacity:1; fill:none" points="316.512,1423.18 316.512,1404.28 "/>
<polyline clip-path="url(#clip030)" style="stroke:#000000; stroke-linecap:round; stroke-linejoin:round; stroke-width:4; stroke-opacity:1; fill:none" points="711.899,1423.18 711.899,1404.28 "/>
<polyline clip-path="url(#clip030)" style="stroke:#000000; stroke-linecap:round; stroke-linejoin:round; stroke-width:4; stroke-opacity:1; fill:none" points="1107.29,1423.18 1107.29,1404.28 "/>
<polyline clip-path="url(#clip030)" style="stroke:#000000; stroke-linecap:round; stroke-linejoin:round; stroke-width:4; stroke-opacity:1; fill:none" points="1502.67,1423.18 1502.67,1404.28 "/>
<polyline clip-path="url(#clip030)" style="stroke:#000000; stroke-linecap:round; stroke-linejoin:round; stroke-width:4; stroke-opacity:1; fill:none" points="1898.06,1423.18 1898.06,1404.28 "/>
<polyline clip-path="url(#clip030)" style="stroke:#000000; stroke-linecap:round; stroke-linejoin:round; stroke-width:4; stroke-opacity:1; fill:none" points="2293.45,1423.18 2293.45,1404.28 "/>
<path clip-path="url(#clip030)" d="M316.512 1454.1 Q312.901 1454.1 311.072 1457.66 Q309.267 1461.2 309.267 1468.33 Q309.267 1475.44 311.072 1479.01 Q312.901 1482.55 316.512 1482.55 Q320.146 1482.55 321.952 1479.01 Q323.781 1475.44 323.781 1468.33 Q323.781 1461.2 321.952 1457.66 Q320.146 1454.1 316.512 1454.1 M316.512 1450.39 Q322.322 1450.39 325.378 1455 Q328.456 1459.58 328.456 1468.33 Q328.456 1477.06 325.378 1481.67 Q322.322 1486.25 316.512 1486.25 Q310.702 1486.25 307.623 1481.67 Q304.568 1477.06 304.568 1468.33 Q304.568 1459.58 307.623 1455 Q310.702 1450.39 316.512 1450.39 Z" fill="#000000" fill-rule="nonzero" fill-opacity="1" /><path clip-path="url(#clip030)" d="M686.587 1481.64 L694.226 1481.64 L694.226 1455.28 L685.916 1456.95 L685.916 1452.69 L694.179 1451.02 L698.855 1451.02 L698.855 1481.64 L706.494 1481.64 L706.494 1485.58 L686.587 1485.58 L686.587 1481.64 Z" fill="#000000" fill-rule="nonzero" fill-opacity="1" /><path clip-path="url(#clip030)" d="M725.939 1454.1 Q722.327 1454.1 720.499 1457.66 Q718.693 1461.2 718.693 1468.33 Q718.693 1475.44 720.499 1479.01 Q722.327 1482.55 725.939 1482.55 Q729.573 1482.55 731.378 1479.01 Q733.207 1475.44 733.207 1468.33 Q733.207 1461.2 731.378 1457.66 Q729.573 1454.1 725.939 1454.1 M725.939 1450.39 Q731.749 1450.39 734.804 1455 Q737.883 1459.58 737.883 1468.33 Q737.883 1477.06 734.804 1481.67 Q731.749 1486.25 725.939 1486.25 Q720.128 1486.25 717.05 1481.67 Q713.994 1477.06 713.994 1468.33 Q713.994 1459.58 717.05 1455 Q720.128 1450.39 725.939 1450.39 Z" fill="#000000" fill-rule="nonzero" fill-opacity="1" /><path clip-path="url(#clip030)" d="M1086.06 1481.64 L1102.38 1481.64 L1102.38 1485.58 L1080.43 1485.58 L1080.43 1481.64 Q1083.1 1478.89 1087.68 1474.26 Q1092.29 1469.61 1093.47 1468.27 Q1095.71 1465.74 1096.59 1464.01 Q1097.49 1462.25 1097.49 1460.56 Q1097.49 1457.8 1095.55 1456.07 Q1093.63 1454.33 1090.53 1454.33 Q1088.33 1454.33 1085.87 1455.09 Q1083.44 1455.86 1080.67 1457.41 L1080.67 1452.69 Q1083.49 1451.55 1085.94 1450.97 Q1088.4 1450.39 1090.43 1450.39 Q1095.8 1450.39 1099 1453.08 Q1102.19 1455.77 1102.19 1460.26 Q1102.19 1462.39 1101.38 1464.31 Q1100.6 1466.2 1098.49 1468.8 Q1097.91 1469.47 1094.81 1472.69 Q1091.71 1475.88 1086.06 1481.64 Z" fill="#000000" fill-rule="nonzero" fill-opacity="1" /><path clip-path="url(#clip030)" d="M1122.19 1454.1 Q1118.58 1454.1 1116.75 1457.66 Q1114.95 1461.2 1114.95 1468.33 Q1114.95 1475.44 1116.75 1479.01 Q1118.58 1482.55 1122.19 1482.55 Q1125.83 1482.55 1127.63 1479.01 Q1129.46 1475.44 1129.46 1468.33 Q1129.46 1461.2 1127.63 1457.66 Q1125.83 1454.1 1122.19 1454.1 M1122.19 1450.39 Q1128 1450.39 1131.06 1455 Q1134.14 1459.58 1134.14 1468.33 Q1134.14 1477.06 1131.06 1481.67 Q1128 1486.25 1122.19 1486.25 Q1116.38 1486.25 1113.3 1481.67 Q1110.25 1477.06 1110.25 1468.33 Q1110.25 1459.58 1113.3 1455 Q1116.38 1450.39 1122.19 1450.39 Z" fill="#000000" fill-rule="nonzero" fill-opacity="1" /><path clip-path="url(#clip030)" d="M1491.52 1466.95 Q1494.87 1467.66 1496.75 1469.93 Q1498.65 1472.2 1498.65 1475.53 Q1498.65 1480.65 1495.13 1483.45 Q1491.61 1486.25 1485.13 1486.25 Q1482.95 1486.25 1480.64 1485.81 Q1478.34 1485.39 1475.89 1484.54 L1475.89 1480.02 Q1477.84 1481.16 1480.15 1481.74 Q1482.47 1482.32 1484.99 1482.32 Q1489.39 1482.32 1491.68 1480.58 Q1493.99 1478.84 1493.99 1475.53 Q1493.99 1472.48 1491.84 1470.77 Q1489.71 1469.03 1485.89 1469.03 L1481.86 1469.03 L1481.86 1465.19 L1486.08 1465.19 Q1489.53 1465.19 1491.35 1463.82 Q1493.18 1462.43 1493.18 1459.84 Q1493.18 1457.18 1491.28 1455.77 Q1489.41 1454.33 1485.89 1454.33 Q1483.97 1454.33 1481.77 1454.75 Q1479.57 1455.16 1476.93 1456.04 L1476.93 1451.88 Q1479.59 1451.14 1481.91 1450.77 Q1484.25 1450.39 1486.31 1450.39 Q1491.63 1450.39 1494.73 1452.83 Q1497.84 1455.23 1497.84 1459.35 Q1497.84 1462.22 1496.19 1464.21 Q1494.55 1466.18 1491.52 1466.95 Z" fill="#000000" fill-rule="nonzero" fill-opacity="1" /><path clip-path="url(#clip030)" d="M1517.51 1454.1 Q1513.9 1454.1 1512.07 1457.66 Q1510.27 1461.2 1510.27 1468.33 Q1510.27 1475.44 1512.07 1479.01 Q1513.9 1482.55 1517.51 1482.55 Q1521.15 1482.55 1522.95 1479.01 Q1524.78 1475.44 1524.78 1468.33 Q1524.78 1461.2 1522.95 1457.66 Q1521.15 1454.1 1517.51 1454.1 M1517.51 1450.39 Q1523.32 1450.39 1526.38 1455 Q1529.46 1459.58 1529.46 1468.33 Q1529.46 1477.06 1526.38 1481.67 Q1523.32 1486.25 1517.51 1486.25 Q1511.7 1486.25 1508.62 1481.67 Q1505.57 1477.06 1505.57 1468.33 Q1505.57 1459.58 1508.62 1455 Q1511.7 1450.39 1517.51 1450.39 Z" fill="#000000" fill-rule="nonzero" fill-opacity="1" /><path clip-path="url(#clip030)" d="M1886.23 1455.09 L1874.43 1473.54 L1886.23 1473.54 L1886.23 1455.09 M1885.01 1451.02 L1890.88 1451.02 L1890.88 1473.54 L1895.82 1473.54 L1895.82 1477.43 L1890.88 1477.43 L1890.88 1485.58 L1886.23 1485.58 L1886.23 1477.43 L1870.63 1477.43 L1870.63 1472.92 L1885.01 1451.02 Z" fill="#000000" fill-rule="nonzero" fill-opacity="1" /><path clip-path="url(#clip030)" d="M1913.55 1454.1 Q1909.94 1454.1 1908.11 1457.66 Q1906.3 1461.2 1906.3 1468.33 Q1906.3 1475.44 1908.11 1479.01 Q1909.94 1482.55 1913.55 1482.55 Q1917.18 1482.55 1918.99 1479.01 Q1920.82 1475.44 1920.82 1468.33 Q1920.82 1461.2 1918.99 1457.66 Q1917.18 1454.1 1913.55 1454.1 M1913.55 1450.39 Q1919.36 1450.39 1922.41 1455 Q1925.49 1459.58 1925.49 1468.33 Q1925.49 1477.06 1922.41 1481.67 Q1919.36 1486.25 1913.55 1486.25 Q1907.74 1486.25 1904.66 1481.67 Q1901.6 1477.06 1901.6 1468.33 Q1901.6 1459.58 1904.66 1455 Q1907.74 1450.39 1913.55 1450.39 Z" fill="#000000" fill-rule="nonzero" fill-opacity="1" /><path clip-path="url(#clip030)" d="M2268.15 1451.02 L2286.5 1451.02 L2286.5 1454.96 L2272.43 1454.96 L2272.43 1463.43 Q2273.45 1463.08 2274.47 1462.92 Q2275.48 1462.73 2276.5 1462.73 Q2282.29 1462.73 2285.67 1465.9 Q2289.05 1469.08 2289.05 1474.49 Q2289.05 1480.07 2285.58 1483.17 Q2282.11 1486.25 2275.79 1486.25 Q2273.61 1486.25 2271.34 1485.88 Q2269.1 1485.51 2266.69 1484.77 L2266.69 1480.07 Q2268.77 1481.2 2270.99 1481.76 Q2273.22 1482.32 2275.69 1482.32 Q2279.7 1482.32 2282.04 1480.21 Q2284.37 1478.1 2284.37 1474.49 Q2284.37 1470.88 2282.04 1468.77 Q2279.7 1466.67 2275.69 1466.67 Q2273.82 1466.67 2271.94 1467.08 Q2270.09 1467.5 2268.15 1468.38 L2268.15 1451.02 Z" fill="#000000" fill-rule="nonzero" fill-opacity="1" /><path clip-path="url(#clip030)" d="M2308.26 1454.1 Q2304.65 1454.1 2302.82 1457.66 Q2301.02 1461.2 2301.02 1468.33 Q2301.02 1475.44 2302.82 1479.01 Q2304.65 1482.55 2308.26 1482.55 Q2311.9 1482.55 2313.7 1479.01 Q2315.53 1475.44 2315.53 1468.33 Q2315.53 1461.2 2313.7 1457.66 Q2311.9 1454.1 2308.26 1454.1 M2308.26 1450.39 Q2314.07 1450.39 2317.13 1455 Q2320.21 1459.58 2320.21 1468.33 Q2320.21 1477.06 2317.13 1481.67 Q2314.07 1486.25 2308.26 1486.25 Q2302.45 1486.25 2299.37 1481.67 Q2296.32 1477.06 2296.32 1468.33 Q2296.32 1459.58 2299.37 1455 Q2302.45 1450.39 2308.26 1450.39 Z" fill="#000000" fill-rule="nonzero" fill-opacity="1" /><path clip-path="url(#clip030)" d="M1304.04 1522.27 L1304.04 1532.4 L1316.1 1532.4 L1316.1 1536.95 L1304.04 1536.95 L1304.04 1556.3 Q1304.04 1560.66 1305.22 1561.9 Q1306.43 1563.14 1310.09 1563.14 L1316.1 1563.14 L1316.1 1568.04 L1310.09 1568.04 Q1303.31 1568.04 1300.73 1565.53 Q1298.15 1562.98 1298.15 1556.3 L1298.15 1536.95 L1293.86 1536.95 L1293.86 1532.4 L1298.15 1532.4 L1298.15 1522.27 L1304.04 1522.27 Z" fill="#000000" fill-rule="nonzero" fill-opacity="1" /><polyline clip-path="url(#clip032)" style="stroke:#000000; stroke-linecap:round; stroke-linejoin:round; stroke-width:2; stroke-opacity:0.1; fill:none" points="257.204,1414.07 2352.76,1414.07 "/>
<polyline clip-path="url(#clip032)" style="stroke:#000000; stroke-linecap:round; stroke-linejoin:round; stroke-width:2; stroke-opacity:0.1; fill:none" points="257.204,1074.64 2352.76,1074.64 "/>
<polyline clip-path="url(#clip032)" style="stroke:#000000; stroke-linecap:round; stroke-linejoin:round; stroke-width:2; stroke-opacity:0.1; fill:none" points="257.204,735.21 2352.76,735.21 "/>
<polyline clip-path="url(#clip032)" style="stroke:#000000; stroke-linecap:round; stroke-linejoin:round; stroke-width:2; stroke-opacity:0.1; fill:none" points="257.204,395.782 2352.76,395.782 "/>
<polyline clip-path="url(#clip032)" style="stroke:#000000; stroke-linecap:round; stroke-linejoin:round; stroke-width:2; stroke-opacity:0.1; fill:none" points="257.204,56.3541 2352.76,56.3541 "/>
<polyline clip-path="url(#clip030)" style="stroke:#000000; stroke-linecap:round; stroke-linejoin:round; stroke-width:4; stroke-opacity:1; fill:none" points="257.204,1423.18 257.204,47.2441 "/>
<polyline clip-path="url(#clip030)" style="stroke:#000000; stroke-linecap:round; stroke-linejoin:round; stroke-width:4; stroke-opacity:1; fill:none" points="257.204,1414.07 276.102,1414.07 "/>
<polyline clip-path="url(#clip030)" style="stroke:#000000; stroke-linecap:round; stroke-linejoin:round; stroke-width:4; stroke-opacity:1; fill:none" points="257.204,1074.64 276.102,1074.64 "/>
<polyline clip-path="url(#clip030)" style="stroke:#000000; stroke-linecap:round; stroke-linejoin:round; stroke-width:4; stroke-opacity:1; fill:none" points="257.204,735.21 276.102,735.21 "/>
<polyline clip-path="url(#clip030)" style="stroke:#000000; stroke-linecap:round; stroke-linejoin:round; stroke-width:4; stroke-opacity:1; fill:none" points="257.204,395.782 276.102,395.782 "/>
<polyline clip-path="url(#clip030)" style="stroke:#000000; stroke-linecap:round; stroke-linejoin:round; stroke-width:4; stroke-opacity:1; fill:none" points="257.204,56.3541 276.102,56.3541 "/>
<path clip-path="url(#clip030)" d="M114.26 1414.52 L143.936 1414.52 L143.936 1418.45 L114.26 1418.45 L114.26 1414.52 Z" fill="#000000" fill-rule="nonzero" fill-opacity="1" /><path clip-path="url(#clip030)" d="M154.839 1427.41 L162.477 1427.41 L162.477 1401.04 L154.167 1402.71 L154.167 1398.45 L162.431 1396.79 L167.107 1396.79 L167.107 1427.41 L174.746 1427.41 L174.746 1431.35 L154.839 1431.35 L154.839 1427.41 Z" fill="#000000" fill-rule="nonzero" fill-opacity="1" /><path clip-path="url(#clip030)" d="M184.19 1425.47 L189.075 1425.47 L189.075 1431.35 L184.19 1431.35 L184.19 1425.47 Z" fill="#000000" fill-rule="nonzero" fill-opacity="1" /><path clip-path="url(#clip030)" d="M209.26 1399.86 Q205.649 1399.86 203.82 1403.43 Q202.014 1406.97 202.014 1414.1 Q202.014 1421.21 203.82 1424.77 Q205.649 1428.31 209.26 1428.31 Q212.894 1428.31 214.699 1424.77 Q216.528 1421.21 216.528 1414.1 Q216.528 1406.97 214.699 1403.43 Q212.894 1399.86 209.26 1399.86 M209.26 1396.16 Q215.07 1396.16 218.125 1400.77 Q221.204 1405.35 221.204 1414.1 Q221.204 1422.83 218.125 1427.43 Q215.07 1432.02 209.26 1432.02 Q203.449 1432.02 200.371 1427.43 Q197.315 1422.83 197.315 1414.1 Q197.315 1405.35 200.371 1400.77 Q203.449 1396.16 209.26 1396.16 Z" fill="#000000" fill-rule="nonzero" fill-opacity="1" /><path clip-path="url(#clip030)" d="M115.256 1075.09 L144.931 1075.09 L144.931 1079.02 L115.256 1079.02 L115.256 1075.09 Z" fill="#000000" fill-rule="nonzero" fill-opacity="1" /><path clip-path="url(#clip030)" d="M165.024 1060.44 Q161.413 1060.44 159.584 1064 Q157.778 1067.54 157.778 1074.67 Q157.778 1081.78 159.584 1085.34 Q161.413 1088.89 165.024 1088.89 Q168.658 1088.89 170.464 1085.34 Q172.292 1081.78 172.292 1074.67 Q172.292 1067.54 170.464 1064 Q168.658 1060.44 165.024 1060.44 M165.024 1056.73 Q170.834 1056.73 173.889 1061.34 Q176.968 1065.92 176.968 1074.67 Q176.968 1083.4 173.889 1088.01 Q170.834 1092.59 165.024 1092.59 Q159.214 1092.59 156.135 1088.01 Q153.079 1083.4 153.079 1074.67 Q153.079 1065.92 156.135 1061.34 Q159.214 1056.73 165.024 1056.73 Z" fill="#000000" fill-rule="nonzero" fill-opacity="1" /><path clip-path="url(#clip030)" d="M185.186 1086.04 L190.07 1086.04 L190.07 1091.92 L185.186 1091.92 L185.186 1086.04 Z" fill="#000000" fill-rule="nonzero" fill-opacity="1" /><path clip-path="url(#clip030)" d="M200.301 1057.36 L218.658 1057.36 L218.658 1061.29 L204.584 1061.29 L204.584 1069.77 Q205.602 1069.42 206.621 1069.26 Q207.639 1069.07 208.658 1069.07 Q214.445 1069.07 217.824 1072.24 Q221.204 1075.41 221.204 1080.83 Q221.204 1086.41 217.732 1089.51 Q214.26 1092.59 207.94 1092.59 Q205.764 1092.59 203.496 1092.22 Q201.25 1091.85 198.843 1091.11 L198.843 1086.41 Q200.926 1087.54 203.149 1088.1 Q205.371 1088.65 207.848 1088.65 Q211.852 1088.65 214.19 1086.55 Q216.528 1084.44 216.528 1080.83 Q216.528 1077.22 214.19 1075.11 Q211.852 1073.01 207.848 1073.01 Q205.973 1073.01 204.098 1073.42 Q202.246 1073.84 200.301 1074.72 L200.301 1057.36 Z" fill="#000000" fill-rule="nonzero" fill-opacity="1" /><path clip-path="url(#clip030)" d="M164.028 721.009 Q160.417 721.009 158.589 724.573 Q156.783 728.115 156.783 735.245 Q156.783 742.351 158.589 745.916 Q160.417 749.457 164.028 749.457 Q167.663 749.457 169.468 745.916 Q171.297 742.351 171.297 735.245 Q171.297 728.115 169.468 724.573 Q167.663 721.009 164.028 721.009 M164.028 717.305 Q169.839 717.305 172.894 721.911 Q175.973 726.495 175.973 735.245 Q175.973 743.971 172.894 748.578 Q169.839 753.161 164.028 753.161 Q158.218 753.161 155.14 748.578 Q152.084 743.971 152.084 735.245 Q152.084 726.495 155.14 721.911 Q158.218 717.305 164.028 717.305 Z" fill="#000000" fill-rule="nonzero" fill-opacity="1" /><path clip-path="url(#clip030)" d="M184.19 746.61 L189.075 746.61 L189.075 752.49 L184.19 752.49 L184.19 746.61 Z" fill="#000000" fill-rule="nonzero" fill-opacity="1" /><path clip-path="url(#clip030)" d="M209.26 721.009 Q205.649 721.009 203.82 724.573 Q202.014 728.115 202.014 735.245 Q202.014 742.351 203.82 745.916 Q205.649 749.457 209.26 749.457 Q212.894 749.457 214.699 745.916 Q216.528 742.351 216.528 735.245 Q216.528 728.115 214.699 724.573 Q212.894 721.009 209.26 721.009 M209.26 717.305 Q215.07 717.305 218.125 721.911 Q221.204 726.495 221.204 735.245 Q221.204 743.971 218.125 748.578 Q215.07 753.161 209.26 753.161 Q203.449 753.161 200.371 748.578 Q197.315 743.971 197.315 735.245 Q197.315 726.495 200.371 721.911 Q203.449 717.305 209.26 717.305 Z" fill="#000000" fill-rule="nonzero" fill-opacity="1" /><path clip-path="url(#clip030)" d="M165.024 381.581 Q161.413 381.581 159.584 385.145 Q157.778 388.687 157.778 395.817 Q157.778 402.923 159.584 406.488 Q161.413 410.03 165.024 410.03 Q168.658 410.03 170.464 406.488 Q172.292 402.923 172.292 395.817 Q172.292 388.687 170.464 385.145 Q168.658 381.581 165.024 381.581 M165.024 377.877 Q170.834 377.877 173.889 382.483 Q176.968 387.067 176.968 395.817 Q176.968 404.544 173.889 409.15 Q170.834 413.733 165.024 413.733 Q159.214 413.733 156.135 409.15 Q153.079 404.544 153.079 395.817 Q153.079 387.067 156.135 382.483 Q159.214 377.877 165.024 377.877 Z" fill="#000000" fill-rule="nonzero" fill-opacity="1" /><path clip-path="url(#clip030)" d="M185.186 407.182 L190.07 407.182 L190.07 413.062 L185.186 413.062 L185.186 407.182 Z" fill="#000000" fill-rule="nonzero" fill-opacity="1" /><path clip-path="url(#clip030)" d="M200.301 378.502 L218.658 378.502 L218.658 382.437 L204.584 382.437 L204.584 390.909 Q205.602 390.562 206.621 390.4 Q207.639 390.215 208.658 390.215 Q214.445 390.215 217.824 393.386 Q221.204 396.557 221.204 401.974 Q221.204 407.553 217.732 410.655 Q214.26 413.733 207.94 413.733 Q205.764 413.733 203.496 413.363 Q201.25 412.993 198.843 412.252 L198.843 407.553 Q200.926 408.687 203.149 409.243 Q205.371 409.798 207.848 409.798 Q211.852 409.798 214.19 407.692 Q216.528 405.585 216.528 401.974 Q216.528 398.363 214.19 396.257 Q211.852 394.15 207.848 394.15 Q205.973 394.15 204.098 394.567 Q202.246 394.983 200.301 395.863 L200.301 378.502 Z" fill="#000000" fill-rule="nonzero" fill-opacity="1" /><path clip-path="url(#clip030)" d="M154.839 69.699 L162.477 69.699 L162.477 43.3334 L154.167 45 L154.167 40.7408 L162.431 39.0741 L167.107 39.0741 L167.107 69.699 L174.746 69.699 L174.746 73.6341 L154.839 73.6341 L154.839 69.699 Z" fill="#000000" fill-rule="nonzero" fill-opacity="1" /><path clip-path="url(#clip030)" d="M184.19 67.7545 L189.075 67.7545 L189.075 73.6341 L184.19 73.6341 L184.19 67.7545 Z" fill="#000000" fill-rule="nonzero" fill-opacity="1" /><path clip-path="url(#clip030)" d="M209.26 42.1528 Q205.649 42.1528 203.82 45.7176 Q202.014 49.2593 202.014 56.3889 Q202.014 63.4953 203.82 67.0601 Q205.649 70.6017 209.26 70.6017 Q212.894 70.6017 214.699 67.0601 Q216.528 63.4953 216.528 56.3889 Q216.528 49.2593 214.699 45.7176 Q212.894 42.1528 209.26 42.1528 M209.26 38.4491 Q215.07 38.4491 218.125 43.0556 Q221.204 47.6389 221.204 56.3889 Q221.204 65.1157 218.125 69.7221 Q215.07 74.3054 209.26 74.3054 Q203.449 74.3054 200.371 69.7221 Q197.315 65.1157 197.315 56.3889 Q197.315 47.6389 200.371 43.0556 Q203.449 38.4491 209.26 38.4491 Z" fill="#000000" fill-rule="nonzero" fill-opacity="1" /><path clip-path="url(#clip030)" d="M20.8447 951.455 Q20.8447 958.457 26.0645 962.595 Q31.2844 966.701 40.2919 966.701 Q49.2675 966.701 54.4874 962.595 Q59.7073 958.457 59.7073 951.455 Q59.7073 944.453 54.4874 940.379 Q49.2675 936.273 40.2919 936.273 Q31.2844 936.273 26.0645 940.379 Q20.8447 944.453 20.8447 951.455 M15.6248 951.455 Q15.6248 941.461 22.3406 935.477 Q29.0246 929.493 40.2919 929.493 Q51.5274 929.493 58.2432 935.477 Q64.9272 941.461 64.9272 951.455 Q64.9272 961.481 58.2432 967.497 Q51.5592 973.48 40.2919 973.48 Q29.0246 973.48 22.3406 967.497 Q15.6248 961.481 15.6248 951.455 Z" fill="#000000" fill-rule="nonzero" fill-opacity="1" /><path clip-path="url(#clip030)" d="M49.9359 920.295 L28.3562 920.295 L28.3562 914.438 L49.7131 914.438 Q54.7739 914.438 57.3202 912.465 Q59.8346 910.492 59.8346 906.545 Q59.8346 901.803 56.8109 899.065 Q53.7872 896.296 48.5673 896.296 L28.3562 896.296 L28.3562 890.44 L64.0042 890.44 L64.0042 896.296 L58.5296 896.296 Q61.7762 898.429 63.3676 901.261 Q64.9272 904.062 64.9272 907.786 Q64.9272 913.929 61.1078 917.112 Q57.2883 920.295 49.9359 920.295 M27.4968 905.558 L27.4968 905.558 Z" fill="#000000" fill-rule="nonzero" fill-opacity="1" /><path clip-path="url(#clip030)" d="M18.2347 872.584 L28.3562 872.584 L28.3562 860.521 L32.9077 860.521 L32.9077 872.584 L52.2594 872.584 Q56.6199 872.584 57.8613 871.406 Q59.1026 870.197 59.1026 866.536 L59.1026 860.521 L64.0042 860.521 L64.0042 866.536 Q64.0042 873.316 61.4897 875.894 Q58.9434 878.472 52.2594 878.472 L32.9077 878.472 L32.9077 882.769 L28.3562 882.769 L28.3562 878.472 L18.2347 878.472 L18.2347 872.584 Z" fill="#000000" fill-rule="nonzero" fill-opacity="1" /><path clip-path="url(#clip030)" d="M58.657 847.153 L77.5631 847.153 L77.5631 853.041 L28.3562 853.041 L28.3562 847.153 L33.7671 847.153 Q30.5842 845.307 29.0564 842.506 Q27.4968 839.673 27.4968 835.758 Q27.4968 829.265 32.6531 825.223 Q37.8093 821.149 46.212 821.149 Q54.6147 821.149 59.771 825.223 Q64.9272 829.265 64.9272 835.758 Q64.9272 839.673 63.3994 842.506 Q61.8398 845.307 58.657 847.153 M46.212 827.228 Q39.7508 827.228 36.0905 829.902 Q32.3984 832.544 32.3984 837.191 Q32.3984 841.838 36.0905 844.511 Q39.7508 847.153 46.212 847.153 Q52.6732 847.153 56.3653 844.511 Q60.0256 841.838 60.0256 837.191 Q60.0256 832.544 56.3653 829.902 Q52.6732 827.228 46.212 827.228 Z" fill="#000000" fill-rule="nonzero" fill-opacity="1" /><path clip-path="url(#clip030)" d="M49.9359 812.046 L28.3562 812.046 L28.3562 806.19 L49.7131 806.19 Q54.7739 806.19 57.3202 804.216 Q59.8346 802.243 59.8346 798.296 Q59.8346 793.554 56.8109 790.816 Q53.7872 788.047 48.5673 788.047 L28.3562 788.047 L28.3562 782.191 L64.0042 782.191 L64.0042 788.047 L58.5296 788.047 Q61.7762 790.18 63.3676 793.013 Q64.9272 795.813 64.9272 799.537 Q64.9272 805.68 61.1078 808.863 Q57.2883 812.046 49.9359 812.046 M27.4968 797.309 L27.4968 797.309 Z" fill="#000000" fill-rule="nonzero" fill-opacity="1" /><path clip-path="url(#clip030)" d="M18.2347 764.335 L28.3562 764.335 L28.3562 752.272 L32.9077 752.272 L32.9077 764.335 L52.2594 764.335 Q56.6199 764.335 57.8613 763.157 Q59.1026 761.948 59.1026 758.288 L59.1026 752.272 L64.0042 752.272 L64.0042 758.288 Q64.0042 765.067 61.4897 767.645 Q58.9434 770.223 52.2594 770.223 L32.9077 770.223 L32.9077 774.52 L28.3562 774.52 L28.3562 770.223 L18.2347 770.223 L18.2347 764.335 Z" fill="#000000" fill-rule="nonzero" fill-opacity="1" /><path clip-path="url(#clip030)" d="M64.0042 732.061 L16.4842 750.203 L16.4842 743.487 L56.4926 728.432 L16.4842 713.346 L16.4842 706.662 L64.0042 724.772 L64.0042 732.061 Z" fill="#000000" fill-rule="nonzero" fill-opacity="1" /><path clip-path="url(#clip030)" d="M44.7161 674.547 L47.5806 674.547 L47.5806 701.474 Q53.6281 701.092 56.8109 697.845 Q59.9619 694.567 59.9619 688.742 Q59.9619 685.368 59.1344 682.217 Q58.3069 679.035 56.6518 675.915 L62.1899 675.915 Q63.5267 679.066 64.227 682.377 Q64.9272 685.687 64.9272 689.092 Q64.9272 697.622 59.9619 702.62 Q54.9967 707.585 46.5303 707.585 Q37.7774 707.585 32.6531 702.874 Q27.4968 698.132 27.4968 690.111 Q27.4968 682.918 32.1438 678.748 Q36.7589 674.547 44.7161 674.547 M42.9973 680.403 Q38.1912 680.467 35.3266 683.109 Q32.4621 685.719 32.4621 690.047 Q32.4621 694.949 35.2312 697.909 Q38.0002 700.837 43.0292 701.283 L42.9973 680.403 Z" fill="#000000" fill-rule="nonzero" fill-opacity="1" /><path clip-path="url(#clip030)" d="M14.479 664.935 L14.479 659.078 L64.0042 659.078 L64.0042 664.935 L14.479 664.935 Z" fill="#000000" fill-rule="nonzero" fill-opacity="1" /><path clip-path="url(#clip030)" d="M32.4621 633.011 Q32.4621 637.721 36.1542 640.458 Q39.8145 643.196 46.212 643.196 Q52.6095 643.196 56.3017 640.49 Q59.9619 637.753 59.9619 633.011 Q59.9619 628.332 56.2698 625.595 Q52.5777 622.857 46.212 622.857 Q39.8781 622.857 36.186 625.595 Q32.4621 628.332 32.4621 633.011 M27.4968 633.011 Q27.4968 625.372 32.4621 621.011 Q37.4273 616.651 46.212 616.651 Q54.9649 616.651 59.9619 621.011 Q64.9272 625.372 64.9272 633.011 Q64.9272 640.681 59.9619 645.042 Q54.9649 649.37 46.212 649.37 Q37.4273 649.37 32.4621 645.042 Q27.4968 640.681 27.4968 633.011 Z" fill="#000000" fill-rule="nonzero" fill-opacity="1" /><path clip-path="url(#clip030)" d="M29.7248 581.289 L35.1993 581.289 Q33.8307 583.772 33.1623 586.286 Q32.4621 588.769 32.4621 591.315 Q32.4621 597.012 36.0905 600.164 Q39.6872 603.315 46.212 603.315 Q52.7369 603.315 56.3653 600.164 Q59.9619 597.012 59.9619 591.315 Q59.9619 588.769 59.2935 586.286 Q58.5933 583.772 57.2247 581.289 L62.6355 581.289 Q63.7814 583.74 64.3543 586.382 Q64.9272 588.992 64.9272 591.952 Q64.9272 600.004 59.8664 604.747 Q54.8057 609.489 46.212 609.489 Q37.491 609.489 32.4939 604.715 Q27.4968 599.909 27.4968 591.57 Q27.4968 588.864 28.0697 586.286 Q28.6108 583.708 29.7248 581.289 Z" fill="#000000" fill-rule="nonzero" fill-opacity="1" /><path clip-path="url(#clip030)" d="M28.3562 571.104 L28.3562 565.248 L64.0042 565.248 L64.0042 571.104 L28.3562 571.104 M14.479 571.104 L14.479 565.248 L21.895 565.248 L21.895 571.104 L14.479 571.104 Z" fill="#000000" fill-rule="nonzero" fill-opacity="1" /><path clip-path="url(#clip030)" d="M18.2347 547.201 L28.3562 547.201 L28.3562 535.138 L32.9077 535.138 L32.9077 547.201 L52.2594 547.201 Q56.6199 547.201 57.8613 546.023 Q59.1026 544.814 59.1026 541.153 L59.1026 535.138 L64.0042 535.138 L64.0042 541.153 Q64.0042 547.933 61.4897 550.511 Q58.9434 553.089 52.2594 553.089 L32.9077 553.089 L32.9077 557.386 L28.3562 557.386 L28.3562 553.089 L18.2347 553.089 L18.2347 547.201 Z" fill="#000000" fill-rule="nonzero" fill-opacity="1" /><path clip-path="url(#clip030)" d="M67.3143 512.603 Q73.68 515.086 75.6216 517.441 Q77.5631 519.796 77.5631 523.743 L77.5631 528.422 L72.6615 528.422 L72.6615 524.985 Q72.6615 522.566 71.5157 521.229 Q70.3699 519.892 66.1048 518.269 L63.4312 517.218 L28.3562 531.637 L28.3562 525.43 L56.238 514.29 L28.3562 503.15 L28.3562 496.944 L67.3143 512.603 Z" fill="#000000" fill-rule="nonzero" fill-opacity="1" /><polyline clip-path="url(#clip032)" style="stroke:#009af9; stroke-linecap:round; stroke-linejoin:round; stroke-width:4; stroke-opacity:1; fill:none" points="316.512,627.01 320.466,575.002 324.42,525.174 328.374,478.203 332.328,434.729 336.281,395.343 340.235,360.581 344.189,330.917 348.143,306.753 352.097,288.419 356.051,276.163 360.005,270.153 363.959,270.47 367.912,277.111 371.866,289.984 375.82,308.915 379.774,333.646 383.728,363.84 387.682,399.088 391.636,438.908 395.59,482.76 399.543,530.046 403.497,580.124 407.451,632.312 411.405,685.899 415.359,740.158 419.313,794.35 423.267,847.737 427.221,899.592 431.174,949.212 435.128,995.919 439.082,1039.08 443.036,1078.11 446.99,1112.47 450.944,1141.69 454.898,1165.39 458.851,1183.24 462.805,1194.99 466.759,1200.48 470.713,1199.64 474.667,1192.49 478.621,1179.11 482.575,1159.69 486.529,1134.5 490.482,1103.87 494.436,1068.23 498.39,1028.06 502.344,983.906 506.298,936.366 510.252,886.089 514.206,833.76 518.16,780.089 522.113,725.808 526.067,671.655 530.021,618.367 533.975,566.668 537.929,517.262 541.883,470.822 545.837,427.979 549.791,389.316 553.744,355.359 557.698,326.57 561.652,303.341 565.606,285.988 569.56,274.747 573.514,269.771 577.468,271.127 581.421,278.797 585.375,292.678 589.329,312.579 593.283,338.23 597.237,369.283 601.191,405.314 605.145,445.834 609.099,490.291 613.052,538.08 617.006,588.551 620.96,641.017 624.914,694.766 628.868,749.064 632.822,803.174 636.776,856.359 640.73,907.896 644.683,957.083 648.637,1003.25 652.591,1045.77 656.545,1084.07 660.499,1117.62 664.453,1145.97 668.407,1168.73 672.361,1185.59 676.314,1196.32 680.268,1200.78 684.222,1198.9 688.176,1190.72 692.13,1176.33 696.084,1155.95 700.038,1129.84 703.992,1098.37 707.945,1061.95 711.899,1021.08 715.853,976.33 719.807,928.296 723.761,877.635 727.715,825.036 731.669,771.215 735.622,716.905 739.576,662.843 743.53,609.766 747.484,558.395 751.438,509.431 755.392,463.538 759.346,421.341 763.3,383.415 767.253,350.275 771.207,322.373 775.161,300.087 779.115,283.722 783.069,273.499 787.023,269.558 790.977,271.953 794.931,280.651 798.884,295.533 802.838,316.397 806.792,342.96 810.746,374.859 814.7,411.661 818.654,452.865 822.608,497.911 826.562,546.185 830.515,597.032 834.469,649.758 838.423,703.646 842.377,757.965 846.331,811.973 850.285,864.937 854.239,916.137 858.192,964.874 862.146,1010.49 866.1,1052.35 870.054,1089.91 874.008,1122.63 877.962,1150.09 881.916,1171.9 885.87,1187.77 889.823,1197.48 893.777,1200.9 897.731,1197.99 901.685,1188.78 905.639,1173.4 909.593,1152.06 913.547,1125.04 917.501,1092.72 921.454,1055.54 925.408,1014 929.362,968.665 933.316,920.155 937.27,869.129 941.224,816.28 945.178,762.328 949.132,708.008 953.085,654.057 957.039,601.211 960.993,550.187 964.947,501.682 968.901,456.353 972.855,414.818 976.809,377.643 980.763,345.333 984.716,318.327 988.67,296.993 992.624,281.621 996.578,272.42 1000.53,269.517 1004.49,272.949 1008.44,282.67 1012.39,298.549 1016.35,320.369 1020.3,347.833 1024.26,380.567 1028.21,418.127 1032.16,460 1036.12,505.619 1040.07,554.36 1044.02,605.563 1047.98,658.529 1051.93,712.539 1055.89,766.857 1059.84,820.744 1063.79,873.468 1067.75,924.311 1071.7,972.581 1075.66,1017.62 1079.61,1058.82 1083.56,1095.61 1087.52,1127.51 1091.47,1154.06 1095.42,1174.91 1099.38,1189.79 1103.33,1198.48 1107.29,1200.86 1111.24,1196.91 1115.19,1186.68 1119.15,1170.3 1123.1,1148.01 1127.06,1120.1 1131.01,1086.95 1134.96,1049.02 1138.92,1006.81 1142.87,960.916 1146.83,911.947 1150.78,860.573 1154.73,807.494 1158.69,753.431 1162.64,699.121 1166.59,645.301 1170.55,592.705 1174.5,542.047 1178.46,494.018 1182.41,449.27 1186.36,408.413 1190.32,372.002 1194.27,340.532 1198.23,314.433 1202.18,294.058 1206.13,279.686 1210.09,271.511 1214.04,269.645 1217.99,274.114 1221.95,284.856 1225.9,301.725 1229.86,324.492 1233.81,352.848 1237.76,386.405 1241.72,424.708 1245.67,467.236 1249.63,513.41 1253.58,562.602 1257.53,614.142 1261.49,667.329 1265.44,721.44 1269.4,775.738 1273.35,829.484 1277.3,881.948 1281.26,932.416 1285.21,980.201 1289.16,1024.65 1293.12,1065.16 1297.07,1101.19 1301.03,1132.23 1304.98,1157.88 1308.93,1177.77 1312.89,1191.64 1316.84,1199.3 1320.8,1200.65 1324.75,1195.66 1328.7,1184.41 1332.66,1167.05 1336.61,1143.81 1340.56,1115.01 1344.52,1081.05 1348.47,1042.38 1352.43,999.529 1356.38,953.083 1360.33,903.674 1364.29,851.972 1368.24,798.682 1372.2,744.528 1376.15,690.247 1380.1,636.578 1384.06,584.251 1388.01,533.978 1391.97,486.443 1395.92,442.292 1399.87,402.127 1403.83,366.493 1407.78,335.877 1411.73,310.693 1415.69,291.285 1419.64,277.917 1423.6,270.771 1427.55,269.944 1431.5,275.447 1435.46,287.206 1439.41,305.06 1443.37,328.766 1447.32,358.002 1451.27,392.371 1455.23,431.404 1459.18,474.57 1463.13,521.283 1467.09,570.906 1471.04,622.765 1475,676.153 1478.95,730.345 1482.9,784.604 1486.86,838.19 1490.81,890.375 1494.77,940.449 1498.72,987.731 1502.67,1031.58 1506.63,1071.39 1510.58,1106.63 1514.54,1136.82 1518.49,1161.54 1522.44,1180.46 1526.4,1193.32 1530.35,1199.95 1534.3,1200.26 1538.26,1194.24 1542.21,1181.98 1546.17,1163.63 1550.12,1139.46 1554.07,1109.79 1558.03,1075.02 1561.98,1035.63 1565.94,992.147 1569.89,945.171 1573.84,895.339 1577.8,843.328 1581.75,789.846 1585.7,735.621 1589.66,681.39 1593.61,627.891 1597.57,575.852 1601.52,525.982 1605.47,478.958 1609.43,435.421 1613.38,395.963 1617.34,361.12 1621.29,331.367 1625.24,307.109 1629.2,288.675 1633.15,276.316 1637.11,270.201 1641.06,270.413 1645.01,276.949 1648.97,289.72 1652.92,308.551 1656.87,333.188 1660.83,363.295 1664.78,398.461 1668.74,438.21 1672.69,481.999 1676.64,529.233 1680.6,579.27 1684.55,631.429 1688.51,684.999 1692.46,739.253 1696.41,793.451 1700.37,846.858 1704.32,898.745 1708.27,948.407 1712.23,995.168 1716.18,1038.39 1720.14,1077.49 1724.09,1111.94 1728.04,1141.25 1732,1165.04 1735.95,1182.99 1739.91,1194.84 1743.86,1200.44 1747.81,1199.71 1751.77,1192.66 1755.72,1179.38 1759.68,1160.06 1763.63,1134.97 1767.58,1104.43 1771.54,1068.87 1775.49,1028.77 1779.44,984.671 1783.4,937.182 1787.35,886.946 1791.31,834.644 1795.26,780.99 1799.21,726.713 1803.17,672.552 1807.12,619.243 1811.08,567.512 1815.03,518.063 1818.98,471.568 1822.94,428.66 1826.89,389.923 1830.84,355.883 1834.8,327.005 1838.75,303.681 1842.71,286.228 1846.66,274.883 1850.61,269.802 1854.57,271.052 1858.52,278.618 1862.48,292.396 1866.43,312.199 1870.38,337.758 1874.34,368.723 1878.29,404.676 1882.25,445.125 1886.2,489.521 1890.15,537.26 1894.11,587.692 1898.06,640.131 1902.01,693.864 1905.97,748.159 1909.92,802.278 1913.88,855.485 1917.83,907.055 1921.78,956.287 1925.74,1002.51 1929.69,1045.1 1933.65,1083.47 1937.6,1117.1 1941.55,1145.54 1945.51,1168.39 1949.46,1185.35 1953.41,1196.19 1957.37,1200.75 1961.32,1198.98 1965.28,1190.9 1969.23,1176.62 1973.18,1156.34 1977.14,1130.32 1981.09,1098.93 1985.05,1062.59 1989,1021.8 1992.95,977.104 1996.91,929.12 2000.86,878.497 2004.82,825.924 2008.77,772.118 2012.72,717.809 2016.68,663.737 2020.63,610.638 2024.58,559.233 2028.54,510.223 2032.49,464.274 2036.45,422.011 2040.4,384.009 2044.35,350.786 2048.31,322.793 2052.26,300.411 2056.22,283.945 2060.17,273.618 2064.12,269.572 2068.08,271.861 2072.03,280.455 2075.98,295.235 2079.94,316.002 2083.89,342.472 2087.85,374.286 2091.8,411.011 2095.75,452.146 2099.71,497.133 2103.66,545.358 2107.62,596.167 2111.57,648.868 2115.52,702.743 2119.48,757.06 2123.43,811.08 2127.39,864.068 2131.34,915.302 2135.29,964.086 2139.25,1009.76 2143.2,1051.69 2147.15,1089.32 2151.11,1122.13 2155.06,1149.68 2159.02,1171.58 2162.97,1187.55 2166.92,1197.37 2170.88,1200.9 2174.83,1198.09 2178.79,1188.98 2182.74,1173.7 2186.69,1152.46 2190.65,1125.54 2194.6,1093.3 2198.55,1056.2 2202.51,1014.72 2206.46,969.448 2210.42,920.986 2214.37,869.996 2218.32,817.171 2222.28,763.232 2226.23,708.912 2230.19,654.949 2234.14,602.078 2238.09,551.019 2242.05,502.465 2246,457.079 2249.96,415.476 2253.91,378.224 2257.86,345.828 2261.82,318.731 2265.77,297.3 2269.72,281.827 2273.68,272.522 2277.63,269.513 2281.59,272.84 2285.54,282.458 2289.49,298.235 2293.45,319.958 "/>
<polyline clip-path="url(#clip032)" style="stroke:#e26f46; stroke-linecap:round; stroke-linejoin:round; stroke-width:4; stroke-opacity:1; fill:none" points="316.512,544.892 320.466,565.965 324.42,587.232 328.374,608.667 332.328,630.247 336.281,651.947 340.235,673.742 344.189,695.607 348.143,717.517 352.097,739.447 356.051,761.373 360.005,783.269 363.959,805.109 367.912,826.87 371.866,848.527 375.82,870.054 379.774,891.427 383.728,912.621 387.682,933.613 391.636,954.379 395.59,974.894 399.543,995.136 403.497,1015.08 407.451,1034.71 411.405,1053.99 415.359,1072.91 419.313,1091.44 423.267,1109.57 427.221,1127.27 431.174,1144.52 435.128,1161.3 439.082,1177.6 443.036,1193.4 446.99,1208.66 450.944,1223.39 454.898,1237.57 458.851,1251.16 462.805,1264.17 466.759,1276.58 470.713,1288.36 474.667,1299.52 478.621,1310.03 482.575,1319.88 486.529,1329.07 490.482,1337.58 494.436,1345.4 498.39,1352.52 502.344,1358.94 506.298,1364.65 510.252,1369.64 514.206,1373.9 518.16,1377.44 522.113,1380.24 526.067,1382.3 530.021,1383.63 533.975,1384.22 537.929,1384.06 541.883,1383.16 545.837,1381.53 549.791,1379.15 553.744,1376.04 557.698,1372.2 561.652,1367.64 565.606,1362.34 569.56,1356.34 573.514,1349.62 577.468,1342.2 581.421,1334.09 585.375,1325.3 589.329,1315.83 593.283,1305.7 597.237,1294.92 601.191,1283.5 605.145,1271.45 609.099,1258.79 613.052,1245.53 617.006,1231.69 620.96,1217.28 624.914,1202.33 628.868,1186.83 632.822,1170.83 636.776,1154.32 640.73,1137.34 644.683,1119.9 648.637,1102.02 652.591,1083.72 656.545,1065.02 660.499,1045.94 664.453,1026.52 668.407,1006.75 672.361,986.681 676.314,966.322 680.268,945.699 684.222,924.835 688.176,903.756 692.13,882.483 696.084,861.043 700.038,839.458 703.992,817.755 707.945,795.958 711.899,774.091 715.853,752.179 719.807,730.249 723.761,708.324 727.715,686.429 731.669,664.591 735.622,642.833 739.576,621.18 743.53,599.658 747.484,578.291 751.438,557.102 755.392,536.117 759.346,515.36 763.3,494.853 767.253,474.621 771.207,454.686 775.161,435.072 779.115,415.8 783.069,396.893 787.023,378.373 790.977,360.26 794.931,342.575 798.884,325.338 802.838,308.569 806.792,292.288 810.746,276.512 814.7,261.26 818.654,246.549 822.608,232.396 826.562,218.817 830.515,205.828 834.469,193.444 838.423,181.678 842.377,170.544 846.331,160.054 850.285,150.222 854.239,141.057 858.192,132.571 862.146,124.773 866.1,117.672 870.054,111.276 874.008,105.592 877.962,100.628 881.916,96.3877 885.87,92.8771 889.823,90.1 893.777,88.0594 897.731,86.7578 901.685,86.1966 905.639,86.3765 909.593,87.2972 913.547,88.9578 917.501,91.3562 921.454,94.4898 925.408,98.355 929.362,102.947 933.316,108.262 937.27,114.292 941.224,121.031 945.178,128.472 949.132,136.605 953.085,145.421 957.039,154.912 960.993,165.064 964.947,175.868 968.901,187.311 972.855,199.379 976.809,212.059 980.763,225.336 984.716,239.195 988.67,253.621 992.624,268.597 996.578,284.105 1000.53,300.129 1004.49,316.649 1008.44,333.648 1012.39,351.104 1016.35,369 1020.3,387.313 1024.26,406.024 1028.21,425.111 1032.16,444.551 1036.12,464.324 1040.07,484.406 1044.02,504.774 1047.98,525.405 1051.93,546.276 1055.89,567.363 1059.84,588.641 1063.79,610.087 1067.75,631.676 1071.7,653.382 1075.66,675.183 1079.61,697.051 1083.56,718.964 1087.52,740.895 1091.47,762.819 1095.42,784.712 1099.38,806.548 1103.33,828.303 1107.29,849.952 1111.24,871.469 1115.19,892.831 1119.15,914.013 1123.1,934.991 1127.06,955.741 1131.01,976.239 1134.96,996.461 1138.92,1016.39 1142.87,1035.99 1146.83,1055.25 1150.78,1074.14 1154.73,1092.65 1158.69,1110.75 1162.64,1128.42 1166.59,1145.64 1170.55,1162.4 1174.5,1178.66 1178.46,1194.42 1182.41,1209.65 1186.36,1224.35 1190.32,1238.48 1194.27,1252.04 1198.23,1265.01 1202.18,1277.37 1206.13,1289.12 1210.09,1300.23 1214.04,1310.7 1217.99,1320.51 1221.95,1329.65 1225.9,1338.12 1229.86,1345.89 1233.81,1352.97 1237.76,1359.34 1241.72,1365 1245.67,1369.94 1249.63,1374.16 1253.58,1377.65 1257.53,1380.4 1261.49,1382.41 1265.44,1383.69 1269.4,1384.23 1273.35,1384.02 1277.3,1383.08 1281.26,1381.39 1285.21,1378.97 1289.16,1375.81 1293.12,1371.92 1297.07,1367.31 1301.03,1361.97 1304.98,1355.92 1308.93,1349.15 1312.89,1341.69 1316.84,1333.53 1320.8,1324.7 1324.75,1315.18 1328.7,1305.01 1332.66,1294.18 1336.61,1282.72 1340.56,1270.63 1344.52,1257.93 1348.47,1244.64 1352.43,1230.76 1356.38,1216.31 1360.33,1201.32 1364.29,1185.79 1368.24,1169.75 1372.2,1153.22 1376.15,1136.2 1380.1,1118.73 1384.06,1100.82 1388.01,1082.5 1391.97,1063.77 1395.92,1044.67 1399.87,1025.22 1403.83,1005.44 1407.78,985.346 1411.73,964.969 1415.69,944.329 1419.64,923.451 1423.6,902.357 1427.55,881.073 1431.5,859.622 1435.46,838.029 1439.41,816.319 1443.37,794.516 1447.32,772.646 1451.27,750.732 1455.23,728.801 1459.18,706.878 1463.13,684.986 1467.09,663.152 1471.04,641.4 1475,619.756 1478.95,598.243 1482.9,576.887 1486.86,555.711 1490.81,534.74 1494.77,513.998 1498.72,493.509 1502.67,473.296 1506.63,453.382 1510.58,433.789 1514.54,414.541 1518.49,395.659 1522.44,377.165 1526.4,359.079 1530.35,341.423 1534.3,324.217 1538.26,307.48 1542.21,291.231 1546.17,275.489 1550.12,260.272 1554.07,245.598 1558.03,231.482 1561.98,217.942 1565.94,204.992 1569.89,192.648 1573.84,180.923 1577.8,169.831 1581.75,159.385 1585.7,149.596 1589.66,140.476 1593.61,132.035 1597.57,124.283 1601.52,117.228 1605.47,110.879 1609.43,105.243 1613.38,100.326 1617.34,96.1335 1621.29,92.6712 1625.24,89.9426 1629.2,87.9508 1633.15,86.698 1637.11,86.1857 1641.06,86.4144 1645.01,87.384 1648.97,89.0933 1652.92,91.5404 1656.87,94.7224 1660.83,98.6357 1664.78,103.276 1668.74,108.638 1672.69,114.715 1676.64,121.501 1680.6,128.987 1684.55,137.166 1688.51,146.027 1692.46,155.561 1696.41,165.757 1700.37,176.604 1704.32,188.088 1708.27,200.197 1712.23,212.917 1716.18,226.233 1720.14,240.13 1724.09,254.593 1728.04,269.604 1732,285.147 1735.95,301.204 1739.91,317.756 1743.86,334.786 1747.81,352.272 1751.77,370.196 1755.72,388.536 1759.68,407.272 1763.63,426.383 1767.58,445.846 1771.54,465.64 1775.49,485.741 1779.44,506.128 1783.4,526.776 1787.35,547.662 1791.31,568.762 1795.26,590.052 1799.21,611.508 1803.17,633.105 1807.12,654.818 1811.08,676.624 1815.03,698.496 1818.98,720.411 1822.94,742.342 1826.89,764.265 1830.84,786.155 1834.8,807.987 1838.75,829.735 1842.71,851.376 1846.66,872.884 1850.61,894.235 1854.57,915.404 1858.52,936.368 1862.48,957.101 1866.43,977.582 1870.38,997.786 1874.34,1017.69 1878.29,1037.27 1882.25,1056.51 1886.2,1075.38 1890.15,1093.86 1894.11,1111.93 1898.06,1129.57 1902.01,1146.76 1905.97,1163.48 1909.92,1179.72 1913.88,1195.44 1917.83,1210.64 1921.78,1225.3 1925.74,1239.39 1929.69,1252.91 1933.65,1265.84 1937.6,1278.17 1941.55,1289.87 1945.51,1300.94 1949.46,1311.37 1953.41,1321.14 1957.37,1330.23 1961.32,1338.65 1965.28,1346.38 1969.23,1353.41 1973.18,1359.74 1977.14,1365.35 1981.09,1370.24 1985.05,1374.41 1989,1377.85 1992.95,1380.55 1996.91,1382.52 2000.86,1383.75 2004.82,1384.24 2008.77,1383.99 2012.72,1382.99 2016.68,1381.26 2020.63,1378.79 2024.58,1375.58 2028.54,1371.64 2032.49,1366.98 2036.45,1361.59 2040.4,1355.49 2044.35,1348.68 2048.31,1341.17 2052.26,1332.97 2056.22,1324.09 2060.17,1314.53 2064.12,1304.31 2068.08,1293.45 2072.03,1281.94 2075.98,1269.81 2079.94,1257.07 2083.89,1243.74 2087.85,1229.82 2091.8,1215.34 2095.75,1200.31 2099.71,1184.75 2103.66,1168.68 2107.62,1152.11 2111.57,1135.06 2115.52,1117.56 2119.48,1099.63 2123.43,1081.27 2127.39,1062.52 2131.34,1043.4 2135.29,1023.93 2139.25,1004.12 2143.2,984.01 2147.15,963.615 2151.11,942.959 2155.06,922.065 2159.02,900.958 2162.97,879.662 2166.92,858.202 2170.88,836.6 2174.83,814.883 2178.79,793.075 2182.74,771.201 2186.69,749.285 2190.65,727.354 2194.6,705.432 2198.55,683.543 2202.51,661.714 2206.46,639.969 2210.42,618.332 2214.37,596.829 2218.32,575.483 2222.28,554.32 2226.23,533.364 2230.19,512.638 2234.14,492.167 2238.09,471.972 2242.05,452.079 2246,432.508 2249.96,413.284 2253.91,394.427 2257.86,375.959 2261.82,357.901 2265.77,340.274 2269.72,323.098 2273.68,306.392 2277.63,290.176 2281.59,274.469 2285.54,259.287 2289.49,244.649 2293.45,230.571 "/>
<polyline clip-path="url(#clip032)" style="stroke:#3da44d; stroke-linecap:round; stroke-linejoin:round; stroke-width:4; stroke-opacity:1; fill:none" points="316.512,207.768 320.466,226.027 324.42,251.214 328.374,282.986 332.328,320.911 336.281,364.473 340.235,413.079 344.189,466.067 348.143,522.718 352.097,582.26 356.051,643.882 360.005,706.747 363.959,770 367.912,832.779 371.866,894.23 375.82,953.518 379.774,1009.84 383.728,1062.42 387.682,1110.55 391.636,1153.57 395.59,1190.9 399.543,1222.03 403.497,1246.54 407.451,1264.09 411.405,1274.44 415.359,1277.46 419.313,1273.1 423.267,1261.42 427.221,1242.59 431.174,1216.84 435.128,1184.55 439.082,1146.14 443.036,1102.14 446.99,1053.15 450.944,999.838 454.898,942.921 458.851,883.177 462.805,821.421 466.759,758.492 470.713,695.246 474.667,632.544 478.621,571.238 482.575,512.164 486.529,456.124 490.482,403.881 494.436,356.147 498.39,313.569 502.344,276.729 506.298,246.126 510.252,222.178 514.206,205.209 518.16,195.452 522.113,193.039 526.067,198.002 530.021,210.274 533.975,229.688 537.929,255.981 541.883,288.793 545.837,327.679 549.791,372.11 553.744,421.481 557.698,475.121 561.652,532.299 565.606,592.238 569.56,654.123 573.514,717.11 577.468,780.344 581.421,842.964 585.375,904.117 589.329,962.973 593.283,1018.73 597.237,1070.63 601.191,1117.96 605.145,1160.09 609.099,1196.44 613.052,1226.51 617.006,1249.9 620.96,1266.28 624.914,1275.44 628.868,1277.25 632.822,1271.69 636.776,1258.82 640.73,1238.83 644.683,1211.99 648.637,1178.66 652.591,1139.3 656.545,1094.44 660.499,1044.69 664.453,990.736 668.407,933.302 672.361,873.172 676.314,811.165 680.268,748.125 684.222,684.91 688.176,622.378 692.13,561.382 696.084,502.751 700.038,447.282 703.992,395.731 707.945,348.799 711.899,307.124 715.853,271.274 719.807,241.735 723.761,218.911 727.715,203.112 731.669,194.551 735.622,193.347 739.576,199.516 743.53,212.972 747.484,233.534 751.438,260.922 755.392,294.763 759.346,334.596 763.3,379.88 767.253,429.999 771.207,484.27 775.161,541.955 779.115,602.269 783.069,664.393 787.023,727.48 790.977,790.672 794.931,853.109 798.884,913.942 802.838,972.344 806.792,1027.52 810.746,1078.72 814.7,1125.24 818.654,1166.46 822.608,1201.81 826.562,1230.81 830.515,1253.07 834.469,1268.28 838.423,1276.24 842.377,1276.84 846.331,1270.07 850.285,1256.03 854.239,1234.89 858.192,1206.96 862.146,1172.61 866.1,1132.31 870.054,1086.61 874.008,1036.12 877.962,981.541 881.916,923.61 885.87,863.116 889.823,800.882 893.777,737.754 897.731,674.592 901.685,612.254 905.639,551.589 909.593,493.423 913.547,438.546 917.501,387.705 921.454,341.593 925.408,300.836 929.362,265.988 933.316,237.525 937.27,215.834 941.224,201.208 945.178,193.848 949.132,193.854 953.085,201.225 957.039,215.862 960.993,237.564 964.947,266.037 968.901,300.894 972.855,341.66 976.809,387.78 980.763,438.628 984.716,493.51 988.67,551.681 992.624,612.349 996.578,674.689 1000.53,737.852 1004.49,800.979 1008.44,863.211 1012.39,923.702 1016.35,981.628 1020.3,1036.2 1024.26,1086.68 1028.21,1132.38 1032.16,1172.67 1036.12,1207.01 1040.07,1234.93 1044.02,1256.05 1047.98,1270.09 1051.93,1276.85 1055.89,1276.24 1059.84,1268.27 1063.79,1253.04 1067.75,1230.77 1071.7,1201.76 1075.66,1166.4 1079.61,1125.17 1083.56,1078.64 1087.52,1027.44 1091.47,972.256 1095.42,913.85 1099.38,853.014 1103.33,790.574 1107.29,727.382 1111.24,664.296 1115.19,602.175 1119.15,541.864 1123.1,484.183 1127.06,429.918 1131.01,379.806 1134.96,334.53 1138.92,294.706 1142.87,260.875 1146.83,233.497 1150.78,212.946 1154.73,199.5 1158.69,193.343 1162.64,194.559 1166.59,203.13 1170.55,218.941 1174.5,241.776 1178.46,271.324 1182.41,307.184 1186.36,348.868 1190.32,395.807 1194.27,447.365 1198.23,502.839 1202.18,561.474 1206.13,622.474 1210.09,685.007 1214.04,748.223 1217.99,811.262 1221.95,873.267 1225.9,933.393 1229.86,990.822 1233.81,1044.77 1237.76,1094.51 1241.72,1139.37 1245.67,1178.72 1249.63,1212.04 1253.58,1238.87 1257.53,1258.85 1261.49,1271.7 1265.44,1277.25 1269.4,1275.43 1273.35,1266.26 1277.3,1249.87 1281.26,1226.47 1285.21,1196.39 1289.16,1160.03 1293.12,1117.9 1297.07,1070.55 1301.03,1018.65 1304.98,962.884 1308.93,904.024 1312.89,842.868 1316.84,780.247 1320.8,717.012 1324.75,654.026 1328.7,592.144 1332.66,532.209 1336.61,475.035 1340.56,421.402 1344.52,372.038 1348.47,327.615 1352.43,288.737 1356.38,255.935 1360.33,229.653 1364.29,210.249 1368.24,197.989 1372.2,193.037 1376.15,195.462 1380.1,205.23 1384.06,222.209 1388.01,246.168 1391.97,276.781 1395.92,313.631 1399.87,356.217 1403.83,403.959 1407.78,456.208 1411.73,512.253 1415.69,571.331 1419.64,632.64 1423.6,695.343 1427.55,758.59 1431.5,821.518 1435.46,883.271 1439.41,943.011 1443.37,999.923 1447.32,1053.23 1451.27,1102.22 1455.23,1146.21 1459.18,1184.61 1463.13,1216.89 1467.09,1242.62 1471.04,1261.45 1475,1273.11 1478.95,1277.46 1482.9,1274.43 1486.86,1264.07 1490.81,1246.51 1494.77,1221.99 1498.72,1190.85 1502.67,1153.51 1506.63,1110.48 1510.58,1062.34 1514.54,1009.75 1518.49,953.429 1522.44,894.137 1526.4,832.683 1530.35,769.902 1534.3,706.65 1538.26,643.786 1542.21,582.166 1546.17,522.628 1550.12,465.983 1554.07,413 1558.03,364.402 1561.98,320.848 1565.94,282.932 1569.89,251.17 1573.84,225.993 1577.8,207.745 1581.75,196.673 1585.7,192.928 1589.66,196.562 1593.61,207.524 1597.57,225.665 1601.52,250.739 1605.47,282.405 1609.43,320.232 1613.38,363.704 1617.34,412.231 1621.29,465.153 1625.24,521.748 1629.2,581.248 1633.15,642.843 1637.11,705.695 1641.06,768.948 1645.01,831.742 1648.97,893.222 1652.92,952.553 1656.87,1008.93 1660.83,1061.58 1664.78,1109.79 1668.74,1152.9 1672.69,1190.33 1676.64,1221.57 1680.6,1246.19 1684.55,1263.85 1688.51,1274.33 1692.46,1277.47 1696.41,1273.23 1700.37,1261.68 1704.32,1242.96 1708.27,1217.33 1712.23,1185.14 1716.18,1146.83 1720.14,1102.92 1724.09,1054.01 1728.04,1000.76 1732,943.894 1735.95,884.192 1739.91,822.462 1743.86,759.545 1747.81,696.298 1751.77,633.579 1755.72,572.244 1759.68,513.125 1763.63,457.029 1767.58,404.717 1771.54,356.901 1775.49,314.233 1779.44,277.293 1783.4,246.582 1787.35,222.52 1791.31,205.434 1795.26,195.555 1799.21,193.018 1803.17,197.859 1807.12,210.01 1811.08,229.308 1815.03,255.488 1818.98,288.195 1822.94,326.984 1826.89,371.328 1830.84,420.622 1834.8,474.196 1838.75,531.322 1842.71,591.222 1846.66,653.08 1850.61,716.056 1854.57,779.293 1858.52,841.93 1862.48,903.115 1866.43,962.016 1870.38,1017.83 1874.34,1069.8 1878.29,1117.22 1882.25,1159.44 1886.2,1195.88 1890.15,1226.06 1894.11,1249.57 1898.06,1266.07 1902.01,1275.35 1905.97,1277.28 1909.92,1271.84 1913.88,1259.09 1917.83,1239.22 1921.78,1212.49 1925.74,1179.27 1929.69,1140 1933.65,1095.23 1937.6,1045.56 1941.55,991.666 1945.51,934.283 1949.46,874.191 1953.41,812.209 1957.37,749.179 1961.32,685.96 1965.28,623.41 1969.23,562.381 1973.18,503.704 1977.14,448.176 1981.09,396.554 1985.05,349.539 1989,307.772 1992.95,271.821 1996.91,242.174 2000.86,219.235 2004.82,203.316 2008.77,194.634 2012.72,193.307 2016.68,199.353 2020.63,212.689 2024.58,233.135 2028.54,260.412 2032.49,294.149 2036.45,333.886 2040.4,379.084 2044.35,429.128 2048.31,483.335 2052.26,540.97 2056.22,601.247 2060.17,663.348 2064.12,726.425 2068.08,789.623 2072.03,852.08 2075.98,912.947 2079.94,971.395 2083.89,1026.63 2087.85,1077.9 2091.8,1124.51 2095.75,1165.82 2099.71,1201.27 2103.66,1230.38 2107.62,1252.76 2111.57,1268.09 2115.52,1276.17 2119.48,1276.89 2123.43,1270.25 2127.39,1256.32 2131.34,1235.3 2135.29,1207.48 2139.25,1173.23 2143.2,1133.03 2147.15,1087.41 2151.11,1037 2155.06,982.48 2159.02,924.599 2162.97,864.141 2166.92,801.928 2170.88,738.808 2174.83,675.64 2178.79,613.281 2182.74,552.582 2186.69,494.367 2190.65,439.429 2194.6,388.515 2198.55,342.319 2202.51,301.468 2206.46,266.518 2210.42,237.945 2214.37,216.138 2218.32,201.393 2222.28,193.911 2226.23,193.794 2230.19,201.043 2234.14,215.559 2238.09,237.146 2242.05,265.51 2246,300.264 2249.96,340.935 2253.91,386.971 2257.86,437.745 2261.82,492.567 2265.77,550.689 2269.72,611.322 2273.68,673.641 2277.63,736.797 2281.59,799.932 2285.54,862.186 2289.49,922.713 2293.45,980.688 "/>
<polyline clip-path="url(#clip032)" style="stroke:#c271d2; stroke-linecap:round; stroke-linejoin:round; stroke-width:4; stroke-opacity:1; fill:none" points="316.512,944.855 320.466,946.908 324.42,948.719 328.374,950.286 332.328,951.608 336.281,952.683 340.235,953.509 344.189,954.086 348.143,954.413 352.097,954.49 356.051,954.316 360.005,953.893 363.959,953.219 367.912,952.297 371.866,951.126 375.82,949.71 379.774,948.048 383.728,946.143 387.682,943.998 391.636,941.614 395.59,938.994 399.543,936.142 403.497,933.06 407.451,929.752 411.405,926.222 415.359,922.474 419.313,918.513 423.267,914.342 427.221,909.966 431.174,905.391 435.128,900.622 439.082,895.663 443.036,890.522 446.99,885.203 450.944,879.713 454.898,874.058 458.851,868.244 462.805,862.278 466.759,856.168 470.713,849.919 474.667,843.539 478.621,837.036 482.575,830.416 486.529,823.688 490.482,816.858 494.436,809.935 498.39,802.927 502.344,795.842 506.298,788.688 510.252,781.472 514.206,774.203 518.16,766.89 522.113,759.541 526.067,752.164 530.021,744.768 533.975,737.361 537.929,729.951 541.883,722.548 545.837,715.158 549.791,707.792 553.744,700.457 557.698,693.162 561.652,685.915 565.606,678.724 569.56,671.597 573.514,664.543 577.468,657.57 581.421,650.685 585.375,643.897 589.329,637.214 593.283,630.642 597.237,624.189 601.191,617.864 605.145,611.672 609.099,605.621 613.052,599.719 617.006,593.971 620.96,588.384 624.914,582.965 628.868,577.72 632.822,572.654 636.776,567.774 640.73,563.086 644.683,558.594 648.637,554.303 652.591,550.22 656.545,546.347 660.499,542.69 664.453,539.253 668.407,536.04 672.361,533.054 676.314,530.298 680.268,527.777 684.222,525.493 688.176,523.448 692.13,521.645 696.084,520.086 700.038,518.772 703.992,517.706 707.945,516.888 711.899,516.319 715.853,516 719.807,515.932 723.761,516.113 727.715,516.545 731.669,517.227 735.622,518.158 739.576,519.336 743.53,520.761 747.484,522.431 751.438,524.343 755.392,526.497 759.346,528.889 763.3,531.516 767.253,534.376 771.207,537.465 775.161,540.78 779.115,544.317 783.069,548.073 787.023,552.041 790.977,556.219 794.931,560.601 798.884,565.183 802.838,569.959 806.792,574.923 810.746,580.071 814.7,585.395 818.654,590.891 822.608,596.551 826.562,602.37 830.515,608.341 834.469,614.456 838.423,620.709 842.377,627.093 846.331,633.601 850.285,640.224 854.239,646.956 858.192,653.789 862.146,660.714 866.1,667.725 870.054,674.813 874.008,681.969 877.962,689.187 881.916,696.457 885.87,703.771 889.823,711.121 893.777,718.499 897.731,725.896 901.685,733.303 905.639,740.713 909.593,748.116 913.547,755.505 917.501,762.87 921.454,770.204 925.408,777.498 929.362,784.743 933.316,791.932 937.27,799.057 941.224,806.108 945.178,813.078 949.132,819.96 953.085,826.744 957.039,833.425 960.993,839.993 964.947,846.441 968.901,852.762 972.855,858.95 976.809,864.996 980.763,870.893 984.716,876.636 988.67,882.217 992.624,887.631 996.578,892.87 1000.53,897.929 1004.49,902.803 1008.44,907.485 1012.39,911.971 1016.35,916.254 1020.3,920.331 1024.26,924.197 1028.21,927.847 1032.16,931.276 1036.12,934.482 1040.07,937.461 1044.02,940.208 1047.98,942.722 1051.93,944.998 1055.89,947.035 1059.84,948.83 1063.79,950.381 1067.75,951.687 1071.7,952.745 1075.66,953.555 1079.61,954.115 1083.56,954.426 1087.52,954.486 1091.47,954.296 1095.42,953.856 1099.38,953.166 1103.33,952.227 1107.29,951.041 1111.24,949.608 1115.19,947.93 1119.15,946.009 1123.1,943.848 1127.06,941.448 1131.01,938.813 1134.96,935.945 1138.92,932.849 1142.87,929.526 1146.83,925.982 1150.78,922.22 1154.73,918.244 1158.69,914.059 1162.64,909.67 1166.59,905.082 1170.55,900.3 1174.5,895.329 1178.46,890.176 1182.41,884.846 1186.36,879.345 1190.32,873.679 1194.27,867.855 1198.23,861.879 1202.18,855.759 1206.13,849.502 1210.09,843.114 1214.04,836.602 1217.99,829.975 1221.95,823.24 1225.9,816.404 1229.86,809.475 1233.81,802.462 1237.76,795.372 1241.72,788.213 1245.67,780.994 1249.63,773.722 1253.58,766.407 1257.53,759.055 1261.49,751.677 1265.44,744.28 1269.4,736.872 1273.35,729.462 1277.3,722.059 1281.26,714.672 1285.21,707.307 1289.16,699.974 1293.12,692.682 1297.07,685.438 1301.03,678.251 1304.98,671.129 1308.93,664.08 1312.89,657.113 1316.84,650.234 1320.8,643.453 1324.75,636.776 1328.7,630.212 1332.66,623.768 1336.61,617.451 1340.56,611.268 1344.52,605.227 1348.47,599.334 1352.43,593.597 1356.38,588.021 1360.33,582.613 1364.29,577.38 1368.24,572.326 1372.2,567.459 1376.15,562.783 1380.1,558.304 1384.06,554.028 1388.01,549.957 1391.97,546.099 1395.92,542.456 1399.87,539.034 1403.83,535.835 1407.78,532.865 1411.73,530.125 1415.69,527.619 1419.64,525.351 1423.6,523.322 1427.55,521.535 1431.5,519.992 1435.46,518.694 1439.41,517.644 1443.37,516.843 1447.32,516.29 1451.27,515.988 1455.23,515.936 1459.18,516.134 1463.13,516.583 1467.09,517.281 1471.04,518.228 1475,519.422 1478.95,520.864 1482.9,522.549 1486.86,524.478 1490.81,526.647 1494.77,529.055 1498.72,531.698 1502.67,534.573 1506.63,537.677 1510.58,541.007 1514.54,544.559 1518.49,548.328 1522.44,552.311 1526.4,556.502 1530.35,560.898 1534.3,565.492 1538.26,570.281 1542.21,575.257 1546.17,580.417 1550.12,585.753 1554.07,591.26 1558.03,596.931 1561.98,602.76 1565.94,608.74 1569.89,614.865 1573.84,621.127 1577.8,627.519 1581.75,634.034 1585.7,640.665 1589.66,647.404 1593.61,654.243 1597.57,661.174 1601.52,668.19 1605.47,675.283 1609.43,682.444 1613.38,689.665 1617.34,696.938 1621.29,704.255 1625.24,711.607 1629.2,718.987 1633.15,726.384 1637.11,733.792 1641.06,741.202 1645.01,748.604 1648.97,755.992 1652.92,763.355 1656.87,770.687 1660.83,777.977 1664.78,785.22 1668.74,792.405 1672.69,799.524 1676.64,806.57 1680.6,813.535 1684.55,820.411 1688.51,827.189 1692.46,833.862 1696.41,840.422 1700.37,846.862 1704.32,853.175 1708.27,859.353 1712.23,865.389 1716.18,871.277 1720.14,877.009 1724.09,882.58 1728.04,887.982 1732,893.21 1735.95,898.257 1739.91,903.118 1743.86,907.787 1747.81,912.26 1751.77,916.53 1755.72,920.593 1759.68,924.444 1763.63,928.08 1767.58,931.495 1771.54,934.686 1775.49,937.649 1779.44,940.381 1783.4,942.879 1787.35,945.14 1791.31,947.161 1795.26,948.94 1799.21,950.475 1803.17,951.764 1807.12,952.806 1811.08,953.599 1815.03,954.143 1818.98,954.438 1822.94,954.481 1826.89,954.275 1830.84,953.818 1834.8,953.112 1838.75,952.156 1842.71,950.954 1846.66,949.504 1850.61,947.81 1854.57,945.874 1858.52,943.697 1862.48,941.281 1866.43,938.631 1870.38,935.748 1874.34,932.636 1878.29,929.299 1882.25,925.74 1886.2,921.964 1890.15,917.974 1894.11,913.776 1898.06,909.374 1902.01,904.773 1905.97,899.978 1909.92,894.995 1913.88,889.83 1917.83,884.488 1921.78,878.976 1925.74,873.299 1929.69,867.465 1933.65,861.48 1937.6,855.351 1941.55,849.084 1945.51,842.688 1949.46,836.168 1953.41,829.534 1957.37,822.792 1961.32,815.95 1965.28,809.015 1969.23,801.997 1973.18,794.902 1977.14,787.739 1981.09,780.515 1985.05,773.241 1989,765.922 1992.95,758.569 1996.91,751.189 2000.86,743.791 2004.82,736.383 2008.77,728.974 2012.72,721.571 2016.68,714.185 2020.63,706.822 2024.58,699.492 2028.54,692.202 2032.49,684.962 2036.45,677.779 2040.4,670.662 2044.35,663.618 2048.31,656.656 2052.26,649.784 2056.22,643.009 2060.17,636.34 2064.12,629.783 2068.08,623.347 2072.03,617.039 2075.98,610.865 2079.94,604.834 2083.89,598.951 2087.85,593.224 2091.8,587.659 2095.75,582.263 2099.71,577.041 2103.66,571.999 2107.62,567.145 2111.57,562.482 2115.52,558.016 2119.48,553.752 2123.43,549.696 2127.39,545.852 2131.34,542.224 2135.29,538.816 2139.25,535.632 2143.2,532.677 2147.15,529.952 2151.11,527.462 2155.06,525.209 2159.02,523.196 2162.97,521.425 2166.92,519.898 2170.88,518.617 2174.83,517.584 2178.79,516.798 2182.74,516.263 2186.69,515.977 2190.65,515.941 2194.6,516.156 2198.55,516.621 2202.51,517.336 2206.46,518.299 2210.42,519.51 2214.37,520.967 2218.32,522.669 2222.28,524.614 2226.23,526.799 2230.19,529.222 2234.14,531.88 2238.09,534.771 2242.05,537.89 2246,541.235 2249.96,544.801 2253.91,548.584 2257.86,552.581 2261.82,556.786 2265.77,561.195 2269.72,565.802 2273.68,570.603 2277.63,575.592 2281.59,580.763 2285.54,586.111 2289.49,591.629 2293.45,597.31 "/>
</svg>
