<?xml version="1.0" encoding="utf-8"?>
<svg xmlns="http://www.w3.org/2000/svg" xmlns:xlink="http://www.w3.org/1999/xlink" width="600" height="400" viewBox="0 0 2400 1600">
<defs>
  <clipPath id="clip380">
    <rect x="0" y="0" width="2400" height="1600"/>
  </clipPath>
</defs>
<path clip-path="url(#clip380)" d="M0 1600 L2400 1600 L2400 8.88178e-14 L0 8.88178e-14  Z" fill="#ffffff" fill-rule="evenodd" fill-opacity="1"/>
<defs>
  <clipPath id="clip381">
    <rect x="480" y="0" width="1681" height="1600"/>
  </clipPath>
</defs>
<path clip-path="url(#clip380)" d="M279.704 1423.18 L2352.76 1423.18 L2352.76 47.2441 L279.704 47.2441  Z" fill="#ffffff" fill-rule="evenodd" fill-opacity="1"/>
<defs>
  <clipPath id="clip382">
    <rect x="279" y="47" width="2074" height="1377"/>
  </clipPath>
</defs>
<polyline clip-path="url(#clip382)" style="stroke:#000000; stroke-linecap:round; stroke-linejoin:round; stroke-width:2; stroke-opacity:0.1; fill:none" points="336.418,1423.18 336.418,47.2441 "/>
<polyline clip-path="url(#clip382)" style="stroke:#000000; stroke-linecap:round; stroke-linejoin:round; stroke-width:2; stroke-opacity:0.1; fill:none" points="825.834,1423.18 825.834,47.2441 "/>
<polyline clip-path="url(#clip382)" style="stroke:#000000; stroke-linecap:round; stroke-linejoin:round; stroke-width:2; stroke-opacity:0.1; fill:none" points="1315.25,1423.18 1315.25,47.2441 "/>
<polyline clip-path="url(#clip382)" style="stroke:#000000; stroke-linecap:round; stroke-linejoin:round; stroke-width:2; stroke-opacity:0.1; fill:none" points="1804.67,1423.18 1804.67,47.2441 "/>
<polyline clip-path="url(#clip382)" style="stroke:#000000; stroke-linecap:round; stroke-linejoin:round; stroke-width:2; stroke-opacity:0.1; fill:none" points="2294.08,1423.18 2294.08,47.2441 "/>
<polyline clip-path="url(#clip380)" style="stroke:#000000; stroke-linecap:round; stroke-linejoin:round; stroke-width:4; stroke-opacity:1; fill:none" points="279.704,1423.18 2352.76,1423.18 "/>
<polyline clip-path="url(#clip380)" style="stroke:#000000; stroke-linecap:round; stroke-linejoin:round; stroke-width:4; stroke-opacity:1; fill:none" points="336.418,1423.18 336.418,1404.28 "/>
<polyline clip-path="url(#clip380)" style="stroke:#000000; stroke-linecap:round; stroke-linejoin:round; stroke-width:4; stroke-opacity:1; fill:none" points="825.834,1423.18 825.834,1404.28 "/>
<polyline clip-path="url(#clip380)" style="stroke:#000000; stroke-linecap:round; stroke-linejoin:round; stroke-width:4; stroke-opacity:1; fill:none" points="1315.25,1423.18 1315.25,1404.28 "/>
<polyline clip-path="url(#clip380)" style="stroke:#000000; stroke-linecap:round; stroke-linejoin:round; stroke-width:4; stroke-opacity:1; fill:none" points="1804.67,1423.18 1804.67,1404.28 "/>
<polyline clip-path="url(#clip380)" style="stroke:#000000; stroke-linecap:round; stroke-linejoin:round; stroke-width:4; stroke-opacity:1; fill:none" points="2294.08,1423.18 2294.08,1404.28 "/>
<path clip-path="url(#clip380)" d="M336.418 1454.1 Q332.806 1454.1 330.978 1457.66 Q329.172 1461.2 329.172 1468.33 Q329.172 1475.44 330.978 1479.01 Q332.806 1482.55 336.418 1482.55 Q340.052 1482.55 341.857 1479.01 Q343.686 1475.44 343.686 1468.33 Q343.686 1461.2 341.857 1457.66 Q340.052 1454.1 336.418 1454.1 M336.418 1450.39 Q342.228 1450.39 345.283 1455 Q348.362 1459.58 348.362 1468.33 Q348.362 1477.06 345.283 1481.67 Q342.228 1486.25 336.418 1486.25 Q330.607 1486.25 327.529 1481.67 Q324.473 1477.06 324.473 1468.33 Q324.473 1459.58 327.529 1455 Q330.607 1450.39 336.418 1450.39 Z" fill="#000000" fill-rule="nonzero" fill-opacity="1" /><path clip-path="url(#clip380)" d="M789.527 1481.64 L805.846 1481.64 L805.846 1485.58 L783.902 1485.58 L783.902 1481.64 Q786.564 1478.89 791.147 1474.26 Q795.753 1469.61 796.934 1468.27 Q799.179 1465.74 800.059 1464.01 Q800.962 1462.25 800.962 1460.56 Q800.962 1457.8 799.017 1456.07 Q797.096 1454.33 793.994 1454.33 Q791.795 1454.33 789.341 1455.09 Q786.911 1455.86 784.133 1457.41 L784.133 1452.69 Q786.957 1451.55 789.411 1450.97 Q791.865 1450.39 793.902 1450.39 Q799.272 1450.39 802.466 1453.08 Q805.661 1455.77 805.661 1460.26 Q805.661 1462.39 804.851 1464.31 Q804.064 1466.2 801.957 1468.8 Q801.378 1469.47 798.277 1472.69 Q795.175 1475.88 789.527 1481.64 Z" fill="#000000" fill-rule="nonzero" fill-opacity="1" /><path clip-path="url(#clip380)" d="M815.707 1451.02 L834.063 1451.02 L834.063 1454.96 L819.989 1454.96 L819.989 1463.43 Q821.008 1463.08 822.026 1462.92 Q823.045 1462.73 824.063 1462.73 Q829.85 1462.73 833.23 1465.9 Q836.61 1469.08 836.61 1474.49 Q836.61 1480.07 833.138 1483.17 Q829.665 1486.25 823.346 1486.25 Q821.17 1486.25 818.901 1485.88 Q816.656 1485.51 814.249 1484.77 L814.249 1480.07 Q816.332 1481.2 818.554 1481.76 Q820.776 1482.32 823.253 1482.32 Q827.258 1482.32 829.596 1480.21 Q831.934 1478.1 831.934 1474.49 Q831.934 1470.88 829.596 1468.77 Q827.258 1466.67 823.253 1466.67 Q821.378 1466.67 819.503 1467.08 Q817.651 1467.5 815.707 1468.38 L815.707 1451.02 Z" fill="#000000" fill-rule="nonzero" fill-opacity="1" /><path clip-path="url(#clip380)" d="M855.823 1454.1 Q852.211 1454.1 850.383 1457.66 Q848.577 1461.2 848.577 1468.33 Q848.577 1475.44 850.383 1479.01 Q852.211 1482.55 855.823 1482.55 Q859.457 1482.55 861.262 1479.01 Q863.091 1475.44 863.091 1468.33 Q863.091 1461.2 861.262 1457.66 Q859.457 1454.1 855.823 1454.1 M855.823 1450.39 Q861.633 1450.39 864.688 1455 Q867.767 1459.58 867.767 1468.33 Q867.767 1477.06 864.688 1481.67 Q861.633 1486.25 855.823 1486.25 Q850.012 1486.25 846.934 1481.67 Q843.878 1477.06 843.878 1468.33 Q843.878 1459.58 846.934 1455 Q850.012 1450.39 855.823 1450.39 Z" fill="#000000" fill-rule="nonzero" fill-opacity="1" /><path clip-path="url(#clip380)" d="M1274.87 1451.02 L1293.23 1451.02 L1293.23 1454.96 L1279.15 1454.96 L1279.15 1463.43 Q1280.17 1463.08 1281.19 1462.92 Q1282.21 1462.73 1283.23 1462.73 Q1289.01 1462.73 1292.39 1465.9 Q1295.77 1469.08 1295.77 1474.49 Q1295.77 1480.07 1292.3 1483.17 Q1288.83 1486.25 1282.51 1486.25 Q1280.33 1486.25 1278.06 1485.88 Q1275.82 1485.51 1273.41 1484.77 L1273.41 1480.07 Q1275.49 1481.2 1277.72 1481.76 Q1279.94 1482.32 1282.42 1482.32 Q1286.42 1482.32 1288.76 1480.21 Q1291.1 1478.1 1291.1 1474.49 Q1291.1 1470.88 1288.76 1468.77 Q1286.42 1466.67 1282.42 1466.67 Q1280.54 1466.67 1278.67 1467.08 Q1276.81 1467.5 1274.87 1468.38 L1274.87 1451.02 Z" fill="#000000" fill-rule="nonzero" fill-opacity="1" /><path clip-path="url(#clip380)" d="M1314.98 1454.1 Q1311.37 1454.1 1309.55 1457.66 Q1307.74 1461.2 1307.74 1468.33 Q1307.74 1475.44 1309.55 1479.01 Q1311.37 1482.55 1314.98 1482.55 Q1318.62 1482.55 1320.42 1479.01 Q1322.25 1475.44 1322.25 1468.33 Q1322.25 1461.2 1320.42 1457.66 Q1318.62 1454.1 1314.98 1454.1 M1314.98 1450.39 Q1320.8 1450.39 1323.85 1455 Q1326.93 1459.58 1326.93 1468.33 Q1326.93 1477.06 1323.85 1481.67 Q1320.8 1486.25 1314.98 1486.25 Q1309.17 1486.25 1306.1 1481.67 Q1303.04 1477.06 1303.04 1468.33 Q1303.04 1459.58 1306.1 1455 Q1309.17 1450.39 1314.98 1450.39 Z" fill="#000000" fill-rule="nonzero" fill-opacity="1" /><path clip-path="url(#clip380)" d="M1345.15 1454.1 Q1341.54 1454.1 1339.71 1457.66 Q1337.9 1461.2 1337.9 1468.33 Q1337.9 1475.44 1339.71 1479.01 Q1341.54 1482.55 1345.15 1482.55 Q1348.78 1482.55 1350.59 1479.01 Q1352.42 1475.44 1352.42 1468.33 Q1352.42 1461.2 1350.59 1457.66 Q1348.78 1454.1 1345.15 1454.1 M1345.15 1450.39 Q1350.96 1450.39 1354.01 1455 Q1357.09 1459.58 1357.09 1468.33 Q1357.09 1477.06 1354.01 1481.67 Q1350.96 1486.25 1345.15 1486.25 Q1339.34 1486.25 1336.26 1481.67 Q1333.2 1477.06 1333.2 1468.33 Q1333.2 1459.58 1336.26 1455 Q1339.34 1450.39 1345.15 1450.39 Z" fill="#000000" fill-rule="nonzero" fill-opacity="1" /><path clip-path="url(#clip380)" d="M1762.94 1451.02 L1785.17 1451.02 L1785.17 1453.01 L1772.62 1485.58 L1767.74 1485.58 L1779.54 1454.96 L1762.94 1454.96 L1762.94 1451.02 Z" fill="#000000" fill-rule="nonzero" fill-opacity="1" /><path clip-path="url(#clip380)" d="M1794.33 1451.02 L1812.69 1451.02 L1812.69 1454.96 L1798.61 1454.96 L1798.61 1463.43 Q1799.63 1463.08 1800.65 1462.92 Q1801.67 1462.73 1802.69 1462.73 Q1808.48 1462.73 1811.86 1465.9 Q1815.23 1469.08 1815.23 1474.49 Q1815.23 1480.07 1811.76 1483.17 Q1808.29 1486.25 1801.97 1486.25 Q1799.8 1486.25 1797.53 1485.88 Q1795.28 1485.51 1792.87 1484.77 L1792.87 1480.07 Q1794.96 1481.2 1797.18 1481.76 Q1799.4 1482.32 1801.88 1482.32 Q1805.88 1482.32 1808.22 1480.21 Q1810.56 1478.1 1810.56 1474.49 Q1810.56 1470.88 1808.22 1468.77 Q1805.88 1466.67 1801.88 1466.67 Q1800 1466.67 1798.13 1467.08 Q1796.28 1467.5 1794.33 1468.38 L1794.33 1451.02 Z" fill="#000000" fill-rule="nonzero" fill-opacity="1" /><path clip-path="url(#clip380)" d="M1834.45 1454.1 Q1830.84 1454.1 1829.01 1457.66 Q1827.2 1461.2 1827.2 1468.33 Q1827.2 1475.44 1829.01 1479.01 Q1830.84 1482.55 1834.45 1482.55 Q1838.08 1482.55 1839.89 1479.01 Q1841.72 1475.44 1841.72 1468.33 Q1841.72 1461.2 1839.89 1457.66 Q1838.08 1454.1 1834.45 1454.1 M1834.45 1450.39 Q1840.26 1450.39 1843.31 1455 Q1846.39 1459.58 1846.39 1468.33 Q1846.39 1477.06 1843.31 1481.67 Q1840.26 1486.25 1834.45 1486.25 Q1828.64 1486.25 1825.56 1481.67 Q1822.5 1477.06 1822.5 1468.33 Q1822.5 1459.58 1825.56 1455 Q1828.64 1450.39 1834.45 1450.39 Z" fill="#000000" fill-rule="nonzero" fill-opacity="1" /><path clip-path="url(#clip380)" d="M2238.61 1481.64 L2246.25 1481.64 L2246.25 1455.28 L2237.94 1456.95 L2237.94 1452.69 L2246.2 1451.02 L2250.88 1451.02 L2250.88 1481.64 L2258.52 1481.64 L2258.52 1485.58 L2238.61 1485.58 L2238.61 1481.64 Z" fill="#000000" fill-rule="nonzero" fill-opacity="1" /><path clip-path="url(#clip380)" d="M2277.96 1454.1 Q2274.35 1454.1 2272.52 1457.66 Q2270.72 1461.2 2270.72 1468.33 Q2270.72 1475.44 2272.52 1479.01 Q2274.35 1482.55 2277.96 1482.55 Q2281.6 1482.55 2283.4 1479.01 Q2285.23 1475.44 2285.23 1468.33 Q2285.23 1461.2 2283.4 1457.66 Q2281.6 1454.1 2277.96 1454.1 M2277.96 1450.39 Q2283.77 1450.39 2286.83 1455 Q2289.91 1459.58 2289.91 1468.33 Q2289.91 1477.06 2286.83 1481.67 Q2283.77 1486.25 2277.96 1486.25 Q2272.15 1486.25 2269.07 1481.67 Q2266.02 1477.06 2266.02 1468.33 Q2266.02 1459.58 2269.07 1455 Q2272.15 1450.39 2277.96 1450.39 Z" fill="#000000" fill-rule="nonzero" fill-opacity="1" /><path clip-path="url(#clip380)" d="M2308.12 1454.1 Q2304.51 1454.1 2302.68 1457.66 Q2300.88 1461.2 2300.88 1468.33 Q2300.88 1475.44 2302.68 1479.01 Q2304.51 1482.55 2308.12 1482.55 Q2311.76 1482.55 2313.56 1479.01 Q2315.39 1475.44 2315.39 1468.33 Q2315.39 1461.2 2313.56 1457.66 Q2311.76 1454.1 2308.12 1454.1 M2308.12 1450.39 Q2313.93 1450.39 2316.99 1455 Q2320.07 1459.58 2320.07 1468.33 Q2320.07 1477.06 2316.99 1481.67 Q2313.93 1486.25 2308.12 1486.25 Q2302.31 1486.25 2299.24 1481.67 Q2296.18 1477.06 2296.18 1468.33 Q2296.18 1459.58 2299.24 1455 Q2302.31 1450.39 2308.12 1450.39 Z" fill="#000000" fill-rule="nonzero" fill-opacity="1" /><path clip-path="url(#clip380)" d="M2338.29 1454.1 Q2334.67 1454.1 2332.85 1457.66 Q2331.04 1461.2 2331.04 1468.33 Q2331.04 1475.44 2332.85 1479.01 Q2334.67 1482.55 2338.29 1482.55 Q2341.92 1482.55 2343.73 1479.01 Q2345.55 1475.44 2345.55 1468.33 Q2345.55 1461.2 2343.73 1457.66 Q2341.92 1454.1 2338.29 1454.1 M2338.29 1450.39 Q2344.1 1450.39 2347.15 1455 Q2350.23 1459.58 2350.23 1468.33 Q2350.23 1477.06 2347.15 1481.67 Q2344.1 1486.25 2338.29 1486.25 Q2332.48 1486.25 2329.4 1481.67 Q2326.34 1477.06 2326.34 1468.33 Q2326.34 1459.58 2329.4 1455 Q2332.48 1450.39 2338.29 1450.39 Z" fill="#000000" fill-rule="nonzero" fill-opacity="1" /><path clip-path="url(#clip380)" d="M1276.54 1522.08 L1276.54 1528.35 Q1272.88 1526.6 1269.63 1525.74 Q1266.39 1524.88 1263.36 1524.88 Q1258.11 1524.88 1255.25 1526.92 Q1252.41 1528.96 1252.41 1532.71 Q1252.41 1535.87 1254.29 1537.49 Q1256.2 1539.08 1261.48 1540.07 L1265.37 1540.86 Q1272.56 1542.23 1275.97 1545.7 Q1279.4 1549.14 1279.4 1554.93 Q1279.4 1561.84 1274.76 1565.4 Q1270.14 1568.97 1261.2 1568.97 Q1257.82 1568.97 1254.01 1568.2 Q1250.22 1567.44 1246.14 1565.94 L1246.14 1559.32 Q1250.06 1561.52 1253.81 1562.63 Q1257.57 1563.75 1261.2 1563.75 Q1266.7 1563.75 1269.7 1561.58 Q1272.69 1559.42 1272.69 1555.41 Q1272.69 1551.91 1270.52 1549.93 Q1268.39 1547.96 1263.49 1546.97 L1259.58 1546.21 Q1252.38 1544.78 1249.17 1541.72 Q1245.95 1538.67 1245.95 1533.22 Q1245.95 1526.92 1250.38 1523.29 Q1254.83 1519.66 1262.63 1519.66 Q1265.97 1519.66 1269.44 1520.27 Q1272.91 1520.87 1276.54 1522.08 Z" fill="#000000" fill-rule="nonzero" fill-opacity="1" /><path clip-path="url(#clip380)" d="M1294.97 1522.27 L1294.97 1532.4 L1307.03 1532.4 L1307.03 1536.95 L1294.97 1536.95 L1294.97 1556.3 Q1294.97 1560.66 1296.15 1561.9 Q1297.36 1563.14 1301.02 1563.14 L1307.03 1563.14 L1307.03 1568.04 L1301.02 1568.04 Q1294.24 1568.04 1291.66 1565.53 Q1289.08 1562.98 1289.08 1556.3 L1289.08 1536.95 L1284.78 1536.95 L1284.78 1532.4 L1289.08 1532.4 L1289.08 1522.27 L1294.97 1522.27 Z" fill="#000000" fill-rule="nonzero" fill-opacity="1" /><path clip-path="url(#clip380)" d="M1345.23 1548.76 L1345.23 1551.62 L1318.3 1551.62 Q1318.68 1557.67 1321.93 1560.85 Q1325.21 1564 1331.03 1564 Q1334.4 1564 1337.56 1563.17 Q1340.74 1562.35 1343.86 1560.69 L1343.86 1566.23 Q1340.71 1567.57 1337.4 1568.27 Q1334.09 1568.97 1330.68 1568.97 Q1322.15 1568.97 1317.15 1564 Q1312.19 1559.04 1312.19 1550.57 Q1312.19 1541.82 1316.9 1536.69 Q1321.64 1531.54 1329.66 1531.54 Q1336.85 1531.54 1341.02 1536.18 Q1345.23 1540.8 1345.23 1548.76 M1339.37 1547.04 Q1339.31 1542.23 1336.66 1539.37 Q1334.05 1536.5 1329.73 1536.5 Q1324.82 1536.5 1321.86 1539.27 Q1318.94 1542.04 1318.49 1547.07 L1339.37 1547.04 Z" fill="#000000" fill-rule="nonzero" fill-opacity="1" /><path clip-path="url(#clip380)" d="M1360.5 1562.7 L1360.5 1581.6 L1354.62 1581.6 L1354.62 1532.4 L1360.5 1532.4 L1360.5 1537.81 Q1362.35 1534.62 1365.15 1533.1 Q1367.98 1531.54 1371.9 1531.54 Q1378.39 1531.54 1382.43 1536.69 Q1386.51 1541.85 1386.51 1550.25 Q1386.51 1558.65 1382.43 1563.81 Q1378.39 1568.97 1371.9 1568.97 Q1367.98 1568.97 1365.15 1567.44 Q1362.35 1565.88 1360.5 1562.7 M1380.43 1550.25 Q1380.43 1543.79 1377.75 1540.13 Q1375.11 1536.44 1370.47 1536.44 Q1365.82 1536.44 1363.15 1540.13 Q1360.5 1543.79 1360.5 1550.25 Q1360.5 1556.71 1363.15 1560.4 Q1365.82 1564.07 1370.47 1564.07 Q1375.11 1564.07 1377.75 1560.4 Q1380.43 1556.71 1380.43 1550.25 Z" fill="#000000" fill-rule="nonzero" fill-opacity="1" /><polyline clip-path="url(#clip382)" style="stroke:#000000; stroke-linecap:round; stroke-linejoin:round; stroke-width:2; stroke-opacity:0.1; fill:none" points="279.704,1250.76 2352.76,1250.76 "/>
<polyline clip-path="url(#clip382)" style="stroke:#000000; stroke-linecap:round; stroke-linejoin:round; stroke-width:2; stroke-opacity:0.1; fill:none" points="279.704,1073.4 2352.76,1073.4 "/>
<polyline clip-path="url(#clip382)" style="stroke:#000000; stroke-linecap:round; stroke-linejoin:round; stroke-width:2; stroke-opacity:0.1; fill:none" points="279.704,896.035 2352.76,896.035 "/>
<polyline clip-path="url(#clip382)" style="stroke:#000000; stroke-linecap:round; stroke-linejoin:round; stroke-width:2; stroke-opacity:0.1; fill:none" points="279.704,718.673 2352.76,718.673 "/>
<polyline clip-path="url(#clip382)" style="stroke:#000000; stroke-linecap:round; stroke-linejoin:round; stroke-width:2; stroke-opacity:0.1; fill:none" points="279.704,541.311 2352.76,541.311 "/>
<polyline clip-path="url(#clip382)" style="stroke:#000000; stroke-linecap:round; stroke-linejoin:round; stroke-width:2; stroke-opacity:0.1; fill:none" points="279.704,363.95 2352.76,363.95 "/>
<polyline clip-path="url(#clip382)" style="stroke:#000000; stroke-linecap:round; stroke-linejoin:round; stroke-width:2; stroke-opacity:0.1; fill:none" points="279.704,186.588 2352.76,186.588 "/>
<polyline clip-path="url(#clip380)" style="stroke:#000000; stroke-linecap:round; stroke-linejoin:round; stroke-width:4; stroke-opacity:1; fill:none" points="279.704,1423.18 279.704,47.2441 "/>
<polyline clip-path="url(#clip380)" style="stroke:#000000; stroke-linecap:round; stroke-linejoin:round; stroke-width:4; stroke-opacity:1; fill:none" points="279.704,1250.76 298.602,1250.76 "/>
<polyline clip-path="url(#clip380)" style="stroke:#000000; stroke-linecap:round; stroke-linejoin:round; stroke-width:4; stroke-opacity:1; fill:none" points="279.704,1073.4 298.602,1073.4 "/>
<polyline clip-path="url(#clip380)" style="stroke:#000000; stroke-linecap:round; stroke-linejoin:round; stroke-width:4; stroke-opacity:1; fill:none" points="279.704,896.035 298.602,896.035 "/>
<polyline clip-path="url(#clip380)" style="stroke:#000000; stroke-linecap:round; stroke-linejoin:round; stroke-width:4; stroke-opacity:1; fill:none" points="279.704,718.673 298.602,718.673 "/>
<polyline clip-path="url(#clip380)" style="stroke:#000000; stroke-linecap:round; stroke-linejoin:round; stroke-width:4; stroke-opacity:1; fill:none" points="279.704,541.311 298.602,541.311 "/>
<polyline clip-path="url(#clip380)" style="stroke:#000000; stroke-linecap:round; stroke-linejoin:round; stroke-width:4; stroke-opacity:1; fill:none" points="279.704,363.95 298.602,363.95 "/>
<polyline clip-path="url(#clip380)" style="stroke:#000000; stroke-linecap:round; stroke-linejoin:round; stroke-width:4; stroke-opacity:1; fill:none" points="279.704,186.588 298.602,186.588 "/>
<path clip-path="url(#clip380)" d="M127.2 1236.56 Q123.589 1236.56 121.76 1240.12 Q119.955 1243.66 119.955 1250.79 Q119.955 1257.9 121.76 1261.47 Q123.589 1265.01 127.2 1265.01 Q130.834 1265.01 132.64 1261.47 Q134.468 1257.9 134.468 1250.79 Q134.468 1243.66 132.64 1240.12 Q130.834 1236.56 127.2 1236.56 M127.2 1232.85 Q133.01 1232.85 136.066 1237.46 Q139.144 1242.04 139.144 1250.79 Q139.144 1259.52 136.066 1264.13 Q133.01 1268.71 127.2 1268.71 Q121.39 1268.71 118.311 1264.13 Q115.256 1259.52 115.256 1250.79 Q115.256 1242.04 118.311 1237.46 Q121.39 1232.85 127.2 1232.85 Z" fill="#000000" fill-rule="nonzero" fill-opacity="1" /><path clip-path="url(#clip380)" d="M147.362 1262.16 L152.246 1262.16 L152.246 1268.04 L147.362 1268.04 L147.362 1262.16 Z" fill="#000000" fill-rule="nonzero" fill-opacity="1" /><path clip-path="url(#clip380)" d="M162.57 1267.32 L162.57 1263.06 Q164.329 1263.9 166.135 1264.34 Q167.94 1264.78 169.677 1264.78 Q174.306 1264.78 176.737 1261.67 Q179.19 1258.55 179.538 1252.21 Q178.195 1254.2 176.135 1255.26 Q174.075 1256.33 171.575 1256.33 Q166.39 1256.33 163.357 1253.2 Q160.348 1250.05 160.348 1244.61 Q160.348 1239.29 163.496 1236.07 Q166.644 1232.85 171.876 1232.85 Q177.871 1232.85 181.019 1237.46 Q184.19 1242.04 184.19 1250.79 Q184.19 1258.97 180.301 1263.85 Q176.436 1268.71 169.885 1268.71 Q168.126 1268.71 166.32 1268.36 Q164.515 1268.02 162.57 1267.32 M171.876 1252.67 Q175.024 1252.67 176.852 1250.52 Q178.704 1248.36 178.704 1244.61 Q178.704 1240.89 176.852 1238.73 Q175.024 1236.56 171.876 1236.56 Q168.727 1236.56 166.876 1238.73 Q165.047 1240.89 165.047 1244.61 Q165.047 1248.36 166.876 1250.52 Q168.727 1252.67 171.876 1252.67 Z" fill="#000000" fill-rule="nonzero" fill-opacity="1" /><path clip-path="url(#clip380)" d="M196.621 1264.1 L212.94 1264.1 L212.94 1268.04 L190.996 1268.04 L190.996 1264.1 Q193.658 1261.35 198.241 1256.72 Q202.848 1252.07 204.028 1250.72 Q206.274 1248.2 207.153 1246.47 Q208.056 1244.71 208.056 1243.02 Q208.056 1240.26 206.112 1238.53 Q204.19 1236.79 201.088 1236.79 Q198.889 1236.79 196.436 1237.55 Q194.005 1238.32 191.227 1239.87 L191.227 1235.15 Q194.051 1234.01 196.505 1233.43 Q198.959 1232.85 200.996 1232.85 Q206.366 1232.85 209.561 1235.54 Q212.755 1238.22 212.755 1242.72 Q212.755 1244.84 211.945 1246.77 Q211.158 1248.66 209.051 1251.26 Q208.473 1251.93 205.371 1255.15 Q202.269 1258.34 196.621 1264.1 Z" fill="#000000" fill-rule="nonzero" fill-opacity="1" /><path clip-path="url(#clip380)" d="M222.801 1233.48 L241.158 1233.48 L241.158 1237.41 L227.084 1237.41 L227.084 1245.89 Q228.102 1245.54 229.121 1245.38 Q230.139 1245.19 231.158 1245.19 Q236.945 1245.19 240.324 1248.36 Q243.704 1251.53 243.704 1256.95 Q243.704 1262.53 240.232 1265.63 Q236.76 1268.71 230.44 1268.71 Q228.264 1268.71 225.996 1268.34 Q223.75 1267.97 221.343 1267.23 L221.343 1262.53 Q223.426 1263.66 225.648 1264.22 Q227.871 1264.78 230.347 1264.78 Q234.352 1264.78 236.69 1262.67 Q239.028 1260.56 239.028 1256.95 Q239.028 1253.34 236.69 1251.23 Q234.352 1249.13 230.347 1249.13 Q228.473 1249.13 226.598 1249.54 Q224.746 1249.96 222.801 1250.84 L222.801 1233.48 Z" fill="#000000" fill-rule="nonzero" fill-opacity="1" /><path clip-path="url(#clip380)" d="M126.205 1059.2 Q122.593 1059.2 120.765 1062.76 Q118.959 1066.3 118.959 1073.43 Q118.959 1080.54 120.765 1084.1 Q122.593 1087.64 126.205 1087.64 Q129.839 1087.64 131.644 1084.1 Q133.473 1080.54 133.473 1073.43 Q133.473 1066.3 131.644 1062.76 Q129.839 1059.2 126.205 1059.2 M126.205 1055.49 Q132.015 1055.49 135.07 1060.1 Q138.149 1064.68 138.149 1073.43 Q138.149 1082.16 135.07 1086.77 Q132.015 1091.35 126.205 1091.35 Q120.394 1091.35 117.316 1086.77 Q114.26 1082.16 114.26 1073.43 Q114.26 1064.68 117.316 1060.1 Q120.394 1055.49 126.205 1055.49 Z" fill="#000000" fill-rule="nonzero" fill-opacity="1" /><path clip-path="url(#clip380)" d="M146.366 1084.8 L151.251 1084.8 L151.251 1090.68 L146.366 1090.68 L146.366 1084.8 Z" fill="#000000" fill-rule="nonzero" fill-opacity="1" /><path clip-path="url(#clip380)" d="M161.575 1089.96 L161.575 1085.7 Q163.334 1086.53 165.14 1086.97 Q166.945 1087.41 168.681 1087.41 Q173.311 1087.41 175.741 1084.31 Q178.195 1081.19 178.542 1074.84 Q177.2 1076.83 175.139 1077.9 Q173.079 1078.96 170.579 1078.96 Q165.394 1078.96 162.362 1075.84 Q159.353 1072.69 159.353 1067.25 Q159.353 1061.93 162.501 1058.71 Q165.649 1055.49 170.88 1055.49 Q176.876 1055.49 180.024 1060.1 Q183.195 1064.68 183.195 1073.43 Q183.195 1081.6 179.306 1086.49 Q175.44 1091.35 168.889 1091.35 Q167.13 1091.35 165.325 1091 Q163.519 1090.65 161.575 1089.96 M170.88 1075.31 Q174.028 1075.31 175.857 1073.15 Q177.709 1071 177.709 1067.25 Q177.709 1063.52 175.857 1061.37 Q174.028 1059.2 170.88 1059.2 Q167.732 1059.2 165.88 1061.37 Q164.052 1063.52 164.052 1067.25 Q164.052 1071 165.88 1073.15 Q167.732 1075.31 170.88 1075.31 Z" fill="#000000" fill-rule="nonzero" fill-opacity="1" /><path clip-path="url(#clip380)" d="M191.644 1056.12 L210 1056.12 L210 1060.05 L195.926 1060.05 L195.926 1068.52 Q196.945 1068.18 197.963 1068.02 Q198.982 1067.83 200 1067.83 Q205.787 1067.83 209.167 1071 Q212.547 1074.17 212.547 1079.59 Q212.547 1085.17 209.074 1088.27 Q205.602 1091.35 199.283 1091.35 Q197.107 1091.35 194.838 1090.98 Q192.593 1090.61 190.186 1089.87 L190.186 1085.17 Q192.269 1086.3 194.491 1086.86 Q196.713 1087.41 199.19 1087.41 Q203.195 1087.41 205.533 1085.31 Q207.871 1083.2 207.871 1079.59 Q207.871 1075.98 205.533 1073.87 Q203.195 1071.77 199.19 1071.77 Q197.315 1071.77 195.44 1072.18 Q193.588 1072.6 191.644 1073.48 L191.644 1056.12 Z" fill="#000000" fill-rule="nonzero" fill-opacity="1" /><path clip-path="url(#clip380)" d="M231.76 1059.2 Q228.148 1059.2 226.32 1062.76 Q224.514 1066.3 224.514 1073.43 Q224.514 1080.54 226.32 1084.1 Q228.148 1087.64 231.76 1087.64 Q235.394 1087.64 237.199 1084.1 Q239.028 1080.54 239.028 1073.43 Q239.028 1066.3 237.199 1062.76 Q235.394 1059.2 231.76 1059.2 M231.76 1055.49 Q237.57 1055.49 240.625 1060.1 Q243.704 1064.68 243.704 1073.43 Q243.704 1082.16 240.625 1086.77 Q237.57 1091.35 231.76 1091.35 Q225.949 1091.35 222.871 1086.77 Q219.815 1082.16 219.815 1073.43 Q219.815 1064.68 222.871 1060.1 Q225.949 1055.49 231.76 1055.49 Z" fill="#000000" fill-rule="nonzero" fill-opacity="1" /><path clip-path="url(#clip380)" d="M127.2 881.834 Q123.589 881.834 121.76 885.399 Q119.955 888.94 119.955 896.07 Q119.955 903.177 121.76 906.741 Q123.589 910.283 127.2 910.283 Q130.834 910.283 132.64 906.741 Q134.468 903.177 134.468 896.07 Q134.468 888.94 132.64 885.399 Q130.834 881.834 127.2 881.834 M127.2 878.13 Q133.01 878.13 136.066 882.737 Q139.144 887.32 139.144 896.07 Q139.144 904.797 136.066 909.403 Q133.01 913.987 127.2 913.987 Q121.39 913.987 118.311 909.403 Q115.256 904.797 115.256 896.07 Q115.256 887.32 118.311 882.737 Q121.39 878.13 127.2 878.13 Z" fill="#000000" fill-rule="nonzero" fill-opacity="1" /><path clip-path="url(#clip380)" d="M147.362 907.436 L152.246 907.436 L152.246 913.315 L147.362 913.315 L147.362 907.436 Z" fill="#000000" fill-rule="nonzero" fill-opacity="1" /><path clip-path="url(#clip380)" d="M162.57 912.598 L162.57 908.339 Q164.329 909.172 166.135 909.612 Q167.94 910.051 169.677 910.051 Q174.306 910.051 176.737 906.95 Q179.19 903.825 179.538 897.482 Q178.195 899.473 176.135 900.538 Q174.075 901.602 171.575 901.602 Q166.39 901.602 163.357 898.477 Q160.348 895.329 160.348 889.89 Q160.348 884.566 163.496 881.348 Q166.644 878.13 171.876 878.13 Q177.871 878.13 181.019 882.737 Q184.19 887.32 184.19 896.07 Q184.19 904.241 180.301 909.126 Q176.436 913.987 169.885 913.987 Q168.126 913.987 166.32 913.639 Q164.515 913.292 162.57 912.598 M171.876 897.945 Q175.024 897.945 176.852 895.792 Q178.704 893.64 178.704 889.89 Q178.704 886.163 176.852 884.01 Q175.024 881.834 171.876 881.834 Q168.727 881.834 166.876 884.01 Q165.047 886.163 165.047 889.89 Q165.047 893.64 166.876 895.792 Q168.727 897.945 171.876 897.945 Z" fill="#000000" fill-rule="nonzero" fill-opacity="1" /><path clip-path="url(#clip380)" d="M191.413 878.755 L213.635 878.755 L213.635 880.746 L201.088 913.315 L196.204 913.315 L208.01 882.691 L191.413 882.691 L191.413 878.755 Z" fill="#000000" fill-rule="nonzero" fill-opacity="1" /><path clip-path="url(#clip380)" d="M222.801 878.755 L241.158 878.755 L241.158 882.691 L227.084 882.691 L227.084 891.163 Q228.102 890.815 229.121 890.653 Q230.139 890.468 231.158 890.468 Q236.945 890.468 240.324 893.64 Q243.704 896.811 243.704 902.227 Q243.704 907.806 240.232 910.908 Q236.76 913.987 230.44 913.987 Q228.264 913.987 225.996 913.616 Q223.75 913.246 221.343 912.505 L221.343 907.806 Q223.426 908.94 225.648 909.496 Q227.871 910.051 230.347 910.051 Q234.352 910.051 236.69 907.945 Q239.028 905.839 239.028 902.227 Q239.028 898.616 236.69 896.51 Q234.352 894.403 230.347 894.403 Q228.473 894.403 226.598 894.82 Q224.746 895.237 222.801 896.116 L222.801 878.755 Z" fill="#000000" fill-rule="nonzero" fill-opacity="1" /><path clip-path="url(#clip380)" d="M117.015 732.018 L124.654 732.018 L124.654 705.653 L116.343 707.319 L116.343 703.06 L124.607 701.393 L129.283 701.393 L129.283 732.018 L136.922 732.018 L136.922 735.953 L117.015 735.953 L117.015 732.018 Z" fill="#000000" fill-rule="nonzero" fill-opacity="1" /><path clip-path="url(#clip380)" d="M146.366 730.074 L151.251 730.074 L151.251 735.953 L146.366 735.953 L146.366 730.074 Z" fill="#000000" fill-rule="nonzero" fill-opacity="1" /><path clip-path="url(#clip380)" d="M171.436 704.472 Q167.825 704.472 165.996 708.037 Q164.19 711.579 164.19 718.708 Q164.19 725.815 165.996 729.379 Q167.825 732.921 171.436 732.921 Q175.07 732.921 176.876 729.379 Q178.704 725.815 178.704 718.708 Q178.704 711.579 176.876 708.037 Q175.07 704.472 171.436 704.472 M171.436 700.768 Q177.246 700.768 180.301 705.375 Q183.38 709.958 183.38 718.708 Q183.38 727.435 180.301 732.041 Q177.246 736.625 171.436 736.625 Q165.626 736.625 162.547 732.041 Q159.491 727.435 159.491 718.708 Q159.491 709.958 162.547 705.375 Q165.626 700.768 171.436 700.768 Z" fill="#000000" fill-rule="nonzero" fill-opacity="1" /><path clip-path="url(#clip380)" d="M201.598 704.472 Q197.987 704.472 196.158 708.037 Q194.352 711.579 194.352 718.708 Q194.352 725.815 196.158 729.379 Q197.987 732.921 201.598 732.921 Q205.232 732.921 207.037 729.379 Q208.866 725.815 208.866 718.708 Q208.866 711.579 207.037 708.037 Q205.232 704.472 201.598 704.472 M201.598 700.768 Q207.408 700.768 210.463 705.375 Q213.542 709.958 213.542 718.708 Q213.542 727.435 210.463 732.041 Q207.408 736.625 201.598 736.625 Q195.787 736.625 192.709 732.041 Q189.653 727.435 189.653 718.708 Q189.653 709.958 192.709 705.375 Q195.787 700.768 201.598 700.768 Z" fill="#000000" fill-rule="nonzero" fill-opacity="1" /><path clip-path="url(#clip380)" d="M231.76 704.472 Q228.148 704.472 226.32 708.037 Q224.514 711.579 224.514 718.708 Q224.514 725.815 226.32 729.379 Q228.148 732.921 231.76 732.921 Q235.394 732.921 237.199 729.379 Q239.028 725.815 239.028 718.708 Q239.028 711.579 237.199 708.037 Q235.394 704.472 231.76 704.472 M231.76 700.768 Q237.57 700.768 240.625 705.375 Q243.704 709.958 243.704 718.708 Q243.704 727.435 240.625 732.041 Q237.57 736.625 231.76 736.625 Q225.949 736.625 222.871 732.041 Q219.815 727.435 219.815 718.708 Q219.815 709.958 222.871 705.375 Q225.949 700.768 231.76 700.768 Z" fill="#000000" fill-rule="nonzero" fill-opacity="1" /><path clip-path="url(#clip380)" d="M118.01 554.656 L125.649 554.656 L125.649 528.291 L117.339 529.957 L117.339 525.698 L125.603 524.031 L130.279 524.031 L130.279 554.656 L137.917 554.656 L137.917 558.591 L118.01 558.591 L118.01 554.656 Z" fill="#000000" fill-rule="nonzero" fill-opacity="1" /><path clip-path="url(#clip380)" d="M147.362 552.712 L152.246 552.712 L152.246 558.591 L147.362 558.591 L147.362 552.712 Z" fill="#000000" fill-rule="nonzero" fill-opacity="1" /><path clip-path="url(#clip380)" d="M172.431 527.11 Q168.82 527.11 166.991 530.675 Q165.186 534.217 165.186 541.346 Q165.186 548.453 166.991 552.017 Q168.82 555.559 172.431 555.559 Q176.065 555.559 177.871 552.017 Q179.7 548.453 179.7 541.346 Q179.7 534.217 177.871 530.675 Q176.065 527.11 172.431 527.11 M172.431 523.406 Q178.241 523.406 181.297 528.013 Q184.376 532.596 184.376 541.346 Q184.376 550.073 181.297 554.679 Q178.241 559.263 172.431 559.263 Q166.621 559.263 163.542 554.679 Q160.487 550.073 160.487 541.346 Q160.487 532.596 163.542 528.013 Q166.621 523.406 172.431 523.406 Z" fill="#000000" fill-rule="nonzero" fill-opacity="1" /><path clip-path="url(#clip380)" d="M196.621 554.656 L212.94 554.656 L212.94 558.591 L190.996 558.591 L190.996 554.656 Q193.658 551.902 198.241 547.272 Q202.848 542.619 204.028 541.277 Q206.274 538.754 207.153 537.018 Q208.056 535.258 208.056 533.568 Q208.056 530.814 206.112 529.078 Q204.19 527.342 201.088 527.342 Q198.889 527.342 196.436 528.106 Q194.005 528.869 191.227 530.42 L191.227 525.698 Q194.051 524.564 196.505 523.985 Q198.959 523.406 200.996 523.406 Q206.366 523.406 209.561 526.092 Q212.755 528.777 212.755 533.268 Q212.755 535.397 211.945 537.318 Q211.158 539.217 209.051 541.809 Q208.473 542.48 205.371 545.698 Q202.269 548.892 196.621 554.656 Z" fill="#000000" fill-rule="nonzero" fill-opacity="1" /><path clip-path="url(#clip380)" d="M222.801 524.031 L241.158 524.031 L241.158 527.967 L227.084 527.967 L227.084 536.439 Q228.102 536.092 229.121 535.93 Q230.139 535.744 231.158 535.744 Q236.945 535.744 240.324 538.916 Q243.704 542.087 243.704 547.504 Q243.704 553.082 240.232 556.184 Q236.76 559.263 230.44 559.263 Q228.264 559.263 225.996 558.892 Q223.75 558.522 221.343 557.781 L221.343 553.082 Q223.426 554.216 225.648 554.772 Q227.871 555.328 230.347 555.328 Q234.352 555.328 236.69 553.221 Q239.028 551.115 239.028 547.504 Q239.028 543.892 236.69 541.786 Q234.352 539.68 230.347 539.68 Q228.473 539.68 226.598 540.096 Q224.746 540.513 222.801 541.392 L222.801 524.031 Z" fill="#000000" fill-rule="nonzero" fill-opacity="1" /><path clip-path="url(#clip380)" d="M117.015 377.294 L124.654 377.294 L124.654 350.929 L116.343 352.595 L116.343 348.336 L124.607 346.67 L129.283 346.67 L129.283 377.294 L136.922 377.294 L136.922 381.23 L117.015 381.23 L117.015 377.294 Z" fill="#000000" fill-rule="nonzero" fill-opacity="1" /><path clip-path="url(#clip380)" d="M146.366 375.35 L151.251 375.35 L151.251 381.23 L146.366 381.23 L146.366 375.35 Z" fill="#000000" fill-rule="nonzero" fill-opacity="1" /><path clip-path="url(#clip380)" d="M171.436 349.748 Q167.825 349.748 165.996 353.313 Q164.19 356.855 164.19 363.984 Q164.19 371.091 165.996 374.655 Q167.825 378.197 171.436 378.197 Q175.07 378.197 176.876 374.655 Q178.704 371.091 178.704 363.984 Q178.704 356.855 176.876 353.313 Q175.07 349.748 171.436 349.748 M171.436 346.045 Q177.246 346.045 180.301 350.651 Q183.38 355.234 183.38 363.984 Q183.38 372.711 180.301 377.318 Q177.246 381.901 171.436 381.901 Q165.626 381.901 162.547 377.318 Q159.491 372.711 159.491 363.984 Q159.491 355.234 162.547 350.651 Q165.626 346.045 171.436 346.045 Z" fill="#000000" fill-rule="nonzero" fill-opacity="1" /><path clip-path="url(#clip380)" d="M191.644 346.67 L210 346.67 L210 350.605 L195.926 350.605 L195.926 359.077 Q196.945 358.73 197.963 358.568 Q198.982 358.382 200 358.382 Q205.787 358.382 209.167 361.554 Q212.547 364.725 212.547 370.142 Q212.547 375.72 209.074 378.822 Q205.602 381.901 199.283 381.901 Q197.107 381.901 194.838 381.53 Q192.593 381.16 190.186 380.419 L190.186 375.72 Q192.269 376.855 194.491 377.41 Q196.713 377.966 199.19 377.966 Q203.195 377.966 205.533 375.859 Q207.871 373.753 207.871 370.142 Q207.871 366.531 205.533 364.424 Q203.195 362.318 199.19 362.318 Q197.315 362.318 195.44 362.734 Q193.588 363.151 191.644 364.031 L191.644 346.67 Z" fill="#000000" fill-rule="nonzero" fill-opacity="1" /><path clip-path="url(#clip380)" d="M231.76 349.748 Q228.148 349.748 226.32 353.313 Q224.514 356.855 224.514 363.984 Q224.514 371.091 226.32 374.655 Q228.148 378.197 231.76 378.197 Q235.394 378.197 237.199 374.655 Q239.028 371.091 239.028 363.984 Q239.028 356.855 237.199 353.313 Q235.394 349.748 231.76 349.748 M231.76 346.045 Q237.57 346.045 240.625 350.651 Q243.704 355.234 243.704 363.984 Q243.704 372.711 240.625 377.318 Q237.57 381.901 231.76 381.901 Q225.949 381.901 222.871 377.318 Q219.815 372.711 219.815 363.984 Q219.815 355.234 222.871 350.651 Q225.949 346.045 231.76 346.045 Z" fill="#000000" fill-rule="nonzero" fill-opacity="1" /><path clip-path="url(#clip380)" d="M118.01 199.932 L125.649 199.932 L125.649 173.567 L117.339 175.233 L117.339 170.974 L125.603 169.308 L130.279 169.308 L130.279 199.932 L137.917 199.932 L137.917 203.868 L118.01 203.868 L118.01 199.932 Z" fill="#000000" fill-rule="nonzero" fill-opacity="1" /><path clip-path="url(#clip380)" d="M147.362 197.988 L152.246 197.988 L152.246 203.868 L147.362 203.868 L147.362 197.988 Z" fill="#000000" fill-rule="nonzero" fill-opacity="1" /><path clip-path="url(#clip380)" d="M172.431 172.386 Q168.82 172.386 166.991 175.951 Q165.186 179.493 165.186 186.622 Q165.186 193.729 166.991 197.294 Q168.82 200.835 172.431 200.835 Q176.065 200.835 177.871 197.294 Q179.7 193.729 179.7 186.622 Q179.7 179.493 177.871 175.951 Q176.065 172.386 172.431 172.386 M172.431 168.683 Q178.241 168.683 181.297 173.289 Q184.376 177.872 184.376 186.622 Q184.376 195.349 181.297 199.956 Q178.241 204.539 172.431 204.539 Q166.621 204.539 163.542 199.956 Q160.487 195.349 160.487 186.622 Q160.487 177.872 163.542 173.289 Q166.621 168.683 172.431 168.683 Z" fill="#000000" fill-rule="nonzero" fill-opacity="1" /><path clip-path="url(#clip380)" d="M191.413 169.308 L213.635 169.308 L213.635 171.298 L201.088 203.868 L196.204 203.868 L208.01 173.243 L191.413 173.243 L191.413 169.308 Z" fill="#000000" fill-rule="nonzero" fill-opacity="1" /><path clip-path="url(#clip380)" d="M222.801 169.308 L241.158 169.308 L241.158 173.243 L227.084 173.243 L227.084 181.715 Q228.102 181.368 229.121 181.206 Q230.139 181.02 231.158 181.02 Q236.945 181.02 240.324 184.192 Q243.704 187.363 243.704 192.78 Q243.704 198.358 240.232 201.46 Q236.76 204.539 230.44 204.539 Q228.264 204.539 225.996 204.169 Q223.75 203.798 221.343 203.057 L221.343 198.358 Q223.426 199.493 225.648 200.048 Q227.871 200.604 230.347 200.604 Q234.352 200.604 236.69 198.497 Q239.028 196.391 239.028 192.78 Q239.028 189.169 236.69 187.062 Q234.352 184.956 230.347 184.956 Q228.473 184.956 226.598 185.372 Q224.746 185.789 222.801 186.669 L222.801 169.308 Z" fill="#000000" fill-rule="nonzero" fill-opacity="1" /><path clip-path="url(#clip380)" d="M41.3104 920.709 L58.7206 920.709 L58.7206 910.396 Q58.7206 905.208 56.5881 902.726 Q54.4238 900.211 49.9996 900.211 Q45.5436 900.211 43.4429 902.726 Q41.3104 905.208 41.3104 910.396 L41.3104 920.709 M21.7677 920.709 L36.0905 920.709 L36.0905 911.192 Q36.0905 906.481 34.34 904.19 Q32.5576 901.866 28.9291 901.866 Q25.3325 901.866 23.5501 904.19 Q21.7677 906.481 21.7677 911.192 L21.7677 920.709 M16.4842 927.138 L16.4842 910.715 Q16.4842 903.362 19.5397 899.384 Q22.5952 895.405 28.2289 895.405 Q32.5894 895.405 35.1675 897.442 Q37.7456 899.479 38.3822 903.426 Q39.4007 898.683 42.6472 896.073 Q45.8619 893.432 50.6998 893.432 Q57.0655 893.432 60.5348 897.76 Q64.0042 902.089 64.0042 910.078 L64.0042 927.138 L16.4842 927.138 Z" fill="#000000" fill-rule="nonzero" fill-opacity="1" /><path clip-path="url(#clip380)" d="M32.4621 868.86 Q32.4621 873.571 36.1542 876.308 Q39.8145 879.045 46.212 879.045 Q52.6095 879.045 56.3017 876.34 Q59.9619 873.602 59.9619 868.86 Q59.9619 864.181 56.2698 861.444 Q52.5777 858.707 46.212 858.707 Q39.8781 858.707 36.186 861.444 Q32.4621 864.181 32.4621 868.86 M27.4968 868.86 Q27.4968 861.221 32.4621 856.861 Q37.4273 852.5 46.212 852.5 Q54.9649 852.5 59.9619 856.861 Q64.9272 861.221 64.9272 868.86 Q64.9272 876.531 59.9619 880.891 Q54.9649 885.22 46.212 885.22 Q37.4273 885.22 32.4621 880.891 Q27.4968 876.531 27.4968 868.86 Z" fill="#000000" fill-rule="nonzero" fill-opacity="1" /><path clip-path="url(#clip380)" d="M42.4881 813.16 L64.0042 813.16 L64.0042 819.016 L42.679 819.016 Q37.6183 819.016 35.1038 820.99 Q32.5894 822.963 32.5894 826.91 Q32.5894 831.652 35.6131 834.39 Q38.6368 837.127 43.8567 837.127 L64.0042 837.127 L64.0042 843.015 L28.3562 843.015 L28.3562 837.127 L33.8944 837.127 Q30.6797 835.026 29.0883 832.194 Q27.4968 829.329 27.4968 825.605 Q27.4968 819.462 31.3163 816.311 Q35.1038 813.16 42.4881 813.16 Z" fill="#000000" fill-rule="nonzero" fill-opacity="1" /><path clip-path="url(#clip380)" d="M33.7671 778.021 L14.479 778.021 L14.479 772.165 L64.0042 772.165 L64.0042 778.021 L58.657 778.021 Q61.8398 779.867 63.3994 782.7 Q64.9272 785.501 64.9272 789.448 Q64.9272 795.909 59.771 799.983 Q54.6147 804.025 46.212 804.025 Q37.8093 804.025 32.6531 799.983 Q27.4968 795.909 27.4968 789.448 Q27.4968 785.501 29.0564 782.7 Q30.5842 779.867 33.7671 778.021 M46.212 797.978 Q52.6732 797.978 56.3653 795.336 Q60.0256 792.662 60.0256 788.016 Q60.0256 783.369 56.3653 780.695 Q52.6732 778.021 46.212 778.021 Q39.7508 778.021 36.0905 780.695 Q32.3984 783.369 32.3984 788.016 Q32.3984 792.662 36.0905 795.336 Q39.7508 797.978 46.212 797.978 Z" fill="#000000" fill-rule="nonzero" fill-opacity="1" /><path clip-path="url(#clip380)" d="M14.479 739.382 L14.479 733.525 L64.0042 733.525 L64.0042 739.382 L14.479 739.382 Z" fill="#000000" fill-rule="nonzero" fill-opacity="1" /><path clip-path="url(#clip380)" d="M44.7161 690.779 L47.5806 690.779 L47.5806 717.706 Q53.6281 717.324 56.8109 714.078 Q59.9619 710.799 59.9619 704.975 Q59.9619 701.601 59.1344 698.45 Q58.3069 695.267 56.6518 692.148 L62.1899 692.148 Q63.5267 695.299 64.227 698.609 Q64.9272 701.919 64.9272 705.325 Q64.9272 713.855 59.9619 718.852 Q54.9967 723.817 46.5303 723.817 Q37.7774 723.817 32.6531 719.107 Q27.4968 714.364 27.4968 706.343 Q27.4968 699.15 32.1438 694.981 Q36.7589 690.779 44.7161 690.779 M42.9973 696.636 Q38.1912 696.699 35.3266 699.341 Q32.4621 701.951 32.4621 706.28 Q32.4621 711.181 35.2312 714.141 Q38.0002 717.07 43.0292 717.515 L42.9973 696.636 Z" fill="#000000" fill-rule="nonzero" fill-opacity="1" /><path clip-path="url(#clip380)" d="M42.4881 651.535 L64.0042 651.535 L64.0042 657.391 L42.679 657.391 Q37.6183 657.391 35.1038 659.365 Q32.5894 661.338 32.5894 665.285 Q32.5894 670.027 35.6131 672.764 Q38.6368 675.502 43.8567 675.502 L64.0042 675.502 L64.0042 681.39 L28.3562 681.39 L28.3562 675.502 L33.8944 675.502 Q30.6797 673.401 29.0883 670.568 Q27.4968 667.704 27.4968 663.98 Q27.4968 657.837 31.3163 654.686 Q35.1038 651.535 42.4881 651.535 Z" fill="#000000" fill-rule="nonzero" fill-opacity="1" /><path clip-path="url(#clip380)" d="M45.7664 616.396 Q39.4007 616.396 35.8996 619.038 Q32.3984 621.648 32.3984 626.39 Q32.3984 631.101 35.8996 633.743 Q39.4007 636.353 45.7664 636.353 Q52.1003 636.353 55.6014 633.743 Q59.1026 631.101 59.1026 626.39 Q59.1026 621.648 55.6014 619.038 Q52.1003 616.396 45.7664 616.396 M59.58 610.54 Q68.683 610.54 73.1071 614.582 Q77.5631 618.624 77.5631 626.963 Q77.5631 630.05 77.0857 632.788 Q76.6401 635.525 75.6852 638.103 L69.9879 638.103 Q71.3884 635.525 72.0568 633.011 Q72.7252 630.496 72.7252 627.886 Q72.7252 622.125 69.7015 619.261 Q66.7096 616.396 60.6303 616.396 L57.7339 616.396 Q60.885 618.21 62.4446 621.043 Q64.0042 623.876 64.0042 627.822 Q64.0042 634.379 59.0071 638.39 Q54.01 642.4 45.7664 642.4 Q37.491 642.4 32.4939 638.39 Q27.4968 634.379 27.4968 627.822 Q27.4968 623.876 29.0564 621.043 Q30.616 618.21 33.7671 616.396 L28.3562 616.396 L28.3562 610.54 L59.58 610.54 Z" fill="#000000" fill-rule="nonzero" fill-opacity="1" /><path clip-path="url(#clip380)" d="M18.2347 592.684 L28.3562 592.684 L28.3562 580.621 L32.9077 580.621 L32.9077 592.684 L52.2594 592.684 Q56.6199 592.684 57.8613 591.506 Q59.1026 590.297 59.1026 586.636 L59.1026 580.621 L64.0042 580.621 L64.0042 586.636 Q64.0042 593.416 61.4897 595.994 Q58.9434 598.572 52.2594 598.572 L32.9077 598.572 L32.9077 602.869 L28.3562 602.869 L28.3562 598.572 L18.2347 598.572 L18.2347 592.684 Z" fill="#000000" fill-rule="nonzero" fill-opacity="1" /><path clip-path="url(#clip380)" d="M42.4881 543.286 L64.0042 543.286 L64.0042 549.142 L42.679 549.142 Q37.6183 549.142 35.1038 551.116 Q32.5894 553.089 32.5894 557.036 Q32.5894 561.778 35.6131 564.516 Q38.6368 567.253 43.8567 567.253 L64.0042 567.253 L64.0042 573.141 L14.479 573.141 L14.479 567.253 L33.8944 567.253 Q30.6797 565.152 29.0883 562.319 Q27.4968 559.455 27.4968 555.731 Q27.4968 549.588 31.3163 546.437 Q35.1038 543.286 42.4881 543.286 Z" fill="#000000" fill-rule="nonzero" fill-opacity="1" /><polyline clip-path="url(#clip382)" style="stroke:#009af9; stroke-linecap:round; stroke-linejoin:round; stroke-width:4; stroke-opacity:1; fill:none" points="338.375,620.648 340.333,1054.29 342.291,321.798 344.248,980.339 346.206,794.284 348.164,744.442 350.121,573.07 352.079,658.593 354.037,867.126 355.994,1100.47 357.952,987.587 359.91,911.13 361.867,593.102 363.825,1219.32 365.783,753.218 367.74,444.319 369.698,871.604 371.656,789.914 373.613,672.115 375.571,907.043 377.529,725.23 379.486,542.344 381.444,701.618 383.402,519.78 385.359,697.39 387.317,453.425 389.275,491.574 391.232,536.09 393.19,470.086 395.148,842.865 397.105,399.688 399.063,733.005 401.021,615.783 402.978,586.281 404.936,1001.37 406.894,338.408 408.851,720.697 410.809,943.995 412.767,816.909 414.724,499.31 416.682,1123 418.64,733.64 420.597,377.315 422.555,924.744 424.513,622.715 426.47,308.577 428.428,599.108 430.386,555.754 432.343,1039.5 434.301,791.846 436.259,731.783 438.216,943.117 440.174,834.685 442.132,736.949 444.089,800.886 446.047,1002.58 448.005,831.786 449.962,963.794 451.92,584.958 453.878,787.672 455.835,601.012 457.793,450.004 459.751,689.937 461.708,709.654 463.666,295.833 465.624,757.899 467.581,757.899 469.539,765.022 471.497,479.9 473.454,803.59 475.412,780.762 477.37,686.066 479.327,704.144 481.285,761.16 483.243,746.988 485.2,709.542 487.158,653.687 489.116,581.806 491.073,751.437 493.031,1018.65 494.989,757.817 496.946,838.274 498.904,673.982 500.862,775.729 502.819,317.117 504.777,955.06 506.735,683.946 508.692,329.731 510.65,898.976 512.608,672.615 514.565,424.706 516.523,921.351 518.481,910.168 520.438,571.139 522.396,678.302 524.354,343.419 526.311,1125.46 528.269,807.982 530.227,874.848 532.184,876.503 534.142,1143.75 536.1,624.382 538.057,317.293 540.015,919.45 541.973,812.889 543.93,932.793 545.888,1075.49 547.846,491.142 549.803,197.928 551.761,772.705 553.719,552.838 555.676,712.502 557.634,470.48 559.592,446.305 561.549,784.561 563.507,817.911 565.465,492.911 567.422,406.343 569.38,515.896 571.338,598.067 573.295,634.954 575.253,614.24 577.211,651.802 579.168,946.182 581.126,835.314 583.084,536.475 585.041,536.475 586.999,580.603 588.957,783.996 590.914,666.022 592.872,828.806 594.83,211.528 596.787,820.083 598.745,706.071 600.703,753.859 602.66,753.859 604.618,948.318 606.576,627.698 608.533,851.854 610.491,682.517 612.449,428.604 614.406,745.068 616.364,473.065 618.322,783.914 620.279,1005.66 622.237,817.322 624.195,393.487 626.152,932.779 628.11,1051.07 630.068,693.083 632.025,535.742 633.983,1384.24 635.941,681.304 637.898,823.867 639.856,507.485 641.814,617.308 643.771,780.076 645.729,819.23 647.687,792.122 649.644,644.792 651.602,556.232 653.56,556.232 655.517,673.492 657.475,1024.91 659.433,1029.84 661.39,695.438 663.348,469.373 665.306,402.094 667.263,1014.54 669.221,801.285 671.179,797.83 673.136,630.776 675.094,947.851 677.052,1058.78 679.009,825.402 680.967,791.258 682.925,656.699 684.882,557.567 686.84,559.292 688.798,344.579 690.755,460.314 692.713,695.902 694.671,579.064 696.628,628.312 698.586,659.686 700.544,742.645 702.501,1058.55 704.459,535.064 706.417,1104.64 708.374,718.821 710.332,854.05 712.29,650.321 714.247,727.276 716.205,664.852 718.163,727.293 720.12,787.791 722.078,1106.24 724.036,1215.83 725.993,489.563 727.951,719.984 729.909,508.501 731.866,721.44 733.824,1041.55 735.782,793.58 737.739,793.58 739.697,930.885 741.655,761.262 743.612,661.014 745.57,646.946 747.528,717.191 749.485,734.415 751.443,431.611 753.401,624.449 755.358,436.203 757.316,674.183 759.274,618.197 761.231,563.495 763.189,638.59 765.147,818.309 767.104,846.094 769.062,802.769 771.02,427.815 772.977,657.177 774.935,657.177 776.893,899.031 778.85,311.539 780.808,767.577 782.766,237.214 784.723,936.229 786.681,875.102 788.639,545.525 790.596,590.461 792.554,867.827 794.512,770.813 796.469,445.953 798.427,692.609 800.385,310.237 802.342,528.631 804.3,510.139 806.258,965.011 808.215,669.738 810.173,918.799 812.131,661.947 814.088,112.519 816.046,785.399 818.004,1079.69 819.961,513.78 821.919,326.732 823.877,665.478 825.834,1122.7 827.792,528.64 829.75,732.039 831.707,844.292 833.665,579.267 835.623,719.053 837.58,659.038 839.538,326.534 841.496,675.023 843.453,750.242 845.411,861.738 847.369,780.053 849.326,969.858 851.284,564.072 853.242,503.594 855.199,1139.21 857.157,795.122 859.115,1141.87 861.072,843.769 863.03,805.525 864.988,773.917 866.945,721.099 868.903,540.619 870.861,863.624 872.818,545.42 874.776,229.741 876.734,936.113 878.691,289.851 880.649,895.7 882.607,1019.49 884.564,325.443 886.522,540.297 888.48,732.254 890.437,450.1 892.395,1215.61 894.353,347.144 896.31,997.035 898.268,638.379 900.226,709.513 902.183,814.902 904.141,683.499 906.099,682.253 908.056,810.985 910.014,864.494 911.972,762.977 913.929,922.699 915.887,695.825 917.845,572.432 919.802,565.613 921.76,675.941 923.718,444.83 925.675,408.375 927.633,1119.87 929.591,669.099 931.548,753.71 933.506,756.334 935.464,530.836 937.421,681.145 939.379,582.075 941.337,768.347 943.294,552.851 945.252,942.255 947.21,626.969 949.167,569.353 951.125,1004.28 953.083,1080.04 955.04,561.318 956.998,725.227 958.956,538.344 960.913,568.409 962.871,462.655 964.829,621.396 966.786,1288.79 968.744,666.109 970.702,863.214 972.659,641.724 974.617,554.242 976.575,551.296 978.532,835.747 980.49,801.152 982.448,809.079 984.405,992.699 986.363,1244.78 988.321,722.656 990.278,780.027 992.236,509.118 994.194,902.795 996.151,539.841 998.109,754.976 1000.07,1129.14 1002.02,603.599 1003.98,721.381 1005.94,1076.84 1007.9,749.496 1009.86,1092.87 1011.81,848.145 1013.77,1217.58 1015.73,407.85 1017.69,782.981 1019.64,660.615 1021.6,730.171 1023.56,1006.65 1025.52,966.881 1027.47,577.229 1029.43,903.744 1031.39,640.088 1033.35,821.043 1035.3,691.099 1037.26,839.603 1039.22,346.8 1041.18,423.8 1043.14,715.237 1045.09,636.522 1047.05,623.888 1049.01,570.065 1050.97,967.485 1052.92,743.138 1054.88,524.752 1056.84,738.667 1058.8,835.886 1060.75,712.206 1062.71,736.105 1064.67,583.455 1066.63,711.366 1068.59,797.576 1070.54,668.269 1072.5,658.006 1074.46,852.147 1076.42,936.748 1078.37,635.458 1080.33,791.456 1082.29,764.572 1084.25,860.821 1086.2,879.814 1088.16,86.1857 1090.12,724.549 1092.08,787.932 1094.03,713.454 1095.99,979.863 1097.95,643.397 1099.91,1003.37 1101.87,759.675 1103.82,455.556 1105.78,388.491 1107.74,811.187 1109.7,647.593 1111.65,669.262 1113.61,765.991 1115.57,960.597 1117.53,432.594 1119.48,237.049 1121.44,1029.94 1123.4,530.702 1125.36,741.77 1127.32,853.263 1129.27,448.334 1131.23,708.556 1133.19,585.558 1135.15,903.504 1137.1,776.228 1139.06,504.318 1141.02,782.04 1142.98,789.233 1144.93,362.083 1146.89,532.637 1148.85,626.999 1150.81,866.261 1152.76,1151.9 1154.72,729.57 1156.68,484.975 1158.64,618.713 1160.6,864.741 1162.55,868.276 1164.51,830.848 1166.47,330.299 1168.43,624.613 1170.38,601.216 1172.34,582.376 1174.3,452.683 1176.26,696.228 1178.21,657.532 1180.17,752.707 1182.13,752.707 1184.09,694.895 1186.05,368.126 1188,707.414 1189.96,510.802 1191.92,649.28 1193.88,541.061 1195.83,702.83 1197.79,393.369 1199.75,926.504 1201.71,1042.09 1203.66,667.406 1205.62,475.317 1207.58,904.233 1209.54,853.598 1211.49,663.145 1213.45,663 1215.41,802.402 1217.37,760.846 1219.33,654.397 1221.28,796.038 1223.24,826.438 1225.2,293.687 1227.16,1226.44 1229.11,586.546 1231.07,752.399 1233.03,475.544 1234.99,462.969 1236.94,492.64 1238.9,326.511 1240.86,374.016 1242.82,619.797 1244.78,802.721 1246.73,249.786 1248.69,524.536 1250.65,460.615 1252.61,558.536 1254.56,1021.52 1256.52,979.834 1258.48,428.647 1260.44,996.57 1262.39,460.015 1264.35,632.614 1266.31,305.052 1268.27,620.054 1270.22,745.296 1272.18,983.66 1274.14,597.019 1276.1,543.056 1278.06,394.47 1280.01,905.973 1281.97,809.073 1283.93,769.903 1285.89,634.134 1287.84,513.149 1289.8,548.644 1291.76,681.219 1293.72,787.268 1295.67,672.714 1297.63,1126.66 1299.59,852.986 1301.55,618.023 1303.51,622.702 1305.46,845.922 1307.42,702.347 1309.38,416.005 1311.34,514.199 1313.29,817.611 1315.25,430.811 1317.21,579.563 1319.17,1306.06 1321.12,920.3 1323.08,904.684 1325.04,614.405 1327,814.999 1328.95,1022.69 1330.91,463.151 1332.87,904.746 1334.83,858.413 1336.79,488.94 1338.74,597.374 1340.7,723.463 1342.66,1205.94 1344.62,718.718 1346.57,612.948 1348.53,786.611 1350.49,559.154 1352.45,551.735 1354.4,660.346 1356.36,562.029 1358.32,509.963 1360.28,676.017 1362.24,673.748 1364.19,607.625 1366.15,1061.26 1368.11,391.004 1370.07,491.143 1372.02,1078.5 1373.98,675.877 1375.94,854.239 1377.9,498.262 1379.85,609.625 1381.81,1094.38 1383.77,440.001 1385.73,1040.82 1387.68,580.488 1389.64,943.946 1391.6,525.719 1393.56,787.601 1395.52,787.133 1397.47,916.933 1399.43,661.557 1401.39,693.604 1403.35,609.522 1405.3,881.589 1407.26,598.751 1409.22,962.568 1411.18,1092.15 1413.13,810.511 1415.09,922.678 1417.05,555.399 1419.01,1053.44 1420.97,683.827 1422.92,943.495 1424.88,631.878 1426.84,865.152 1428.8,926.787 1430.75,426.483 1432.71,225.226 1434.67,759.93 1436.63,474.946 1438.58,680.582 1440.54,1126.6 1442.5,924.318 1444.46,929.772 1446.41,881.209 1448.37,799.631 1450.33,682.452 1452.29,271.884 1454.25,928.78 1456.2,1097.69 1458.16,934.79 1460.12,406.71 1462.08,946.348 1464.03,694.47 1465.99,716.922 1467.95,192.585 1469.91,411.861 1471.86,766.899 1473.82,653.979 1475.78,1025.08 1477.74,565.473 1479.7,830.473 1481.65,895.113 1483.61,613.429 1485.57,795.517 1487.53,742.636 1489.48,992.79 1491.44,973.255 1493.4,809.872 1495.36,731.819 1497.31,430.248 1499.27,388.082 1501.23,585.522 1503.19,922.064 1505.14,532.764 1507.1,479.095 1509.06,854.637 1511.02,816.49 1512.98,718.441 1514.93,300.521 1516.89,960.81 1518.85,548.206 1520.81,237.006 1522.76,866.338 1524.72,700.867 1526.68,634.483 1528.64,721.272 1530.59,392.024 1532.55,630.744 1534.51,682.298 1536.47,474.48 1538.43,598.585 1540.38,1107.37 1542.34,997.718 1544.3,1000.23 1546.26,838.816 1548.21,594.796 1550.17,409.133 1552.13,625.945 1554.09,267.891 1556.04,1206.23 1558,471.731 1559.96,786.487 1561.92,1021.26 1563.87,857.755 1565.83,495.001 1567.79,779.807 1569.75,187.236 1571.71,785.746 1573.66,713.501 1575.62,1026.1 1577.58,592.551 1579.54,834.494 1581.49,739.256 1583.45,562.119 1585.41,736.585 1587.37,621.628 1589.32,922.476 1591.28,762.353 1593.24,1001.41 1595.2,534.992 1597.16,885.059 1599.11,577.903 1601.07,957.874 1603.03,736.243 1604.99,512.999 1606.94,626.808 1608.9,1009.15 1610.86,885.69 1612.82,1026.78 1614.77,646.997 1616.73,890.672 1618.69,650.003 1620.65,724.325 1622.6,710.086 1624.56,683.26 1626.52,917.425 1628.48,361.834 1630.44,333.066 1632.39,332.076 1634.35,457.573 1636.31,538.455 1638.27,808.434 1640.22,487.897 1642.18,716.505 1644.14,716.505 1646.1,679.472 1648.05,616.912 1650.01,744.776 1651.97,676.222 1653.93,751.889 1655.89,399.511 1657.84,274.262 1659.8,468.617 1661.76,1030.7 1663.72,1111.4 1665.67,902.031 1667.63,836.419 1669.59,665.677 1671.55,810.18 1673.5,679.64 1675.46,496.54 1677.42,671.902 1679.38,759.033 1681.33,906.044 1683.29,1172.94 1685.25,1023.18 1687.21,426.731 1689.17,742.303 1691.12,668.139 1693.08,1080.4 1695.04,822.06 1697,760.145 1698.95,874.135 1700.91,694.76 1702.87,705.689 1704.83,741.809 1706.78,540.536 1708.74,595.755 1710.7,595.652 1712.66,512.505 1714.62,635.52 1716.57,668.656 1718.53,402.246 1720.49,646.295 1722.45,642.655 1724.4,642.655 1726.36,591.219 1728.32,434.411 1730.28,276.218 1732.23,208.423 1734.19,586.833 1736.15,435.57 1738.11,691.166 1740.06,654.345 1742.02,598.079 1743.98,711.228 1745.94,826.457 1747.9,480.106 1749.85,771.309 1751.81,719.407 1753.77,769.613 1755.73,532.613 1757.68,480.836 1759.64,880.521 1761.6,466.067 1763.56,1016.8 1765.51,691.551 1767.47,695.444 1769.43,374.737 1771.39,398.563 1773.35,465.174 1775.3,914.951 1777.26,798.546 1779.22,708.367 1781.18,815.026 1783.13,931.554 1785.09,717.465 1787.05,425.78 1789.01,645.147 1790.96,739.343 1792.92,966.464 1794.88,804.774 1796.84,299.005 1798.79,651.24 1800.75,787.745 1802.71,443.487 1804.67,618.407 1806.63,754.359 1808.58,1049.66 1810.54,637.233 1812.5,563.175 1814.46,843.936 1816.41,659.571 1818.37,659.63 1820.33,791.627 1822.29,1143.03 1824.24,959.321 1826.2,967.701 1828.16,778.618 1830.12,791.611 1832.08,1026.53 1834.03,908.637 1835.99,646.054 1837.95,603.279 1839.91,830.062 1841.86,603.415 1843.82,681.328 1845.78,695.054 1847.74,765.037 1849.69,572.51 1851.65,1111.57 1853.61,399.623 1855.57,443.984 1857.52,781.222 1859.48,693.915 1861.44,470.147 1863.4,917.76 1865.36,819.869 1867.31,689.065 1869.27,567.932 1871.23,1039.35 1873.19,679.588 1875.14,986.556 1877.1,589.986 1879.06,968.842 1881.02,664.758 1882.97,956.427 1884.93,635.935 1886.89,912.121 1888.85,569.384 1890.81,750.472 1892.76,654.276 1894.72,333.269 1896.68,981.852 1898.64,517.007 1900.59,929.533 1902.55,666.61 1904.51,646.887 1906.47,426.455 1908.42,669.607 1910.38,738.235 1912.34,260.216 1914.3,692.941 1916.25,879.893 1918.21,509.146 1920.17,846.302 1922.13,859.128 1924.09,836.378 1926.04,660.108 1928,872.167 1929.96,620.281 1931.92,294.916 1933.87,221.328 1935.83,395.847 1937.79,826.177 1939.75,771.031 1941.7,480.041 1943.66,840.383 1945.62,335.327 1947.58,538.031 1949.54,498.15 1951.49,875.021 1953.45,399.99 1955.41,1020.65 1957.37,861.168 1959.32,568.04 1961.28,517.766 1963.24,839.754 1965.2,1083.81 1967.15,595.466 1969.11,567.041 1971.07,693.195 1973.03,585.741 1974.98,262.537 1976.94,515.583 1978.9,1092.54 1980.86,486.706 1982.82,579.528 1984.77,703.159 1986.73,602.985 1988.69,465.118 1990.65,988.582 1992.6,614.864 1994.56,679.295 1996.52,176.293 1998.48,675.138 2000.43,464.151 2002.39,315.485 2004.35,1156 2006.31,791.216 2008.27,594.287 2010.22,876.351 2012.18,1305.23 2014.14,877.761 2016.1,823.982 2018.05,703.855 2020.01,658.377 2021.97,490.839 2023.93,466.184 2025.88,671.141 2027.84,1038.19 2029.8,847.386 2031.76,609.426 2033.71,902.332 2035.67,537.189 2037.63,597.47 2039.59,661.609 2041.55,886.962 2043.5,449.759 2045.46,1001.71 2047.42,362.836 2049.38,738.922 2051.33,854.948 2053.29,418.084 2055.25,672.593 2057.21,658.711 2059.16,1183.18 2061.12,774.849 2063.08,835.886 2065.04,567.789 2067,770.712 2068.95,859.098 2070.91,766.428 2072.87,1222.08 2074.83,591.364 2076.78,429.233 2078.74,754.9 2080.7,761.401 2082.66,657.59 2084.61,914.573 2086.57,628.627 2088.53,631.072 2090.49,771.376 2092.44,632.244 2094.4,785.791 2096.36,778.474 2098.32,859.059 2100.28,863.593 2102.23,760.16 2104.19,987.033 2106.15,392.447 2108.11,296.941 2110.06,584.601 2112.02,458.825 2113.98,1048.77 2115.94,949.722 2117.89,777.797 2119.85,735.146 2121.81,840.801 2123.77,558.562 2125.73,701.677 2127.68,688.412 2129.64,557.481 2131.6,686.283 2133.56,819.629 2135.51,508.552 2137.47,553.92 2139.43,773.259 2141.39,770.319 2143.34,680.387 2145.3,641.124 2147.26,737.605 2149.22,925.623 2151.17,916.765 2153.13,614.871 2155.09,1115.77 2157.05,1128.05 2159.01,513.724 2160.96,912.425 2162.92,936.189 2164.88,709.482 2166.84,537.019 2168.79,762.44 2170.75,591.048 2172.71,457.415 2174.67,462.47 2176.62,673.253 2178.58,793.142 2180.54,511.439 2182.5,540.841 2184.46,734.398 2186.41,603.259 2188.37,443.616 2190.33,540.839 2192.29,786.345 2194.24,762.69 2196.2,790.65 2198.16,754.517 2200.12,590.636 2202.07,501.043 2204.03,857.568 2205.99,901.007 2207.95,434.17 2209.9,1190.46 2211.86,495.819 2213.82,700.67 2215.78,502.452 2217.74,805.882 2219.69,326.257 2221.65,959.236 2223.61,409.873 2225.57,655.305 2227.52,1040.63 2229.48,281.739 2231.44,593.306 2233.4,465.369 2235.35,776.005 2237.31,669.194 2239.27,960.446 2241.23,768.725 2243.19,768.725 2245.14,623.784 2247.1,1138.78 2249.06,475.267 2251.02,503.473 2252.97,732.251 2254.93,138.309 2256.89,883.871 2258.85,1090.5 2260.8,371.773 2262.76,655.226 2264.72,727.395 2266.68,1046.99 2268.63,807.295 2270.59,969.452 2272.55,955.537 2274.51,720.237 2276.47,916.348 2278.42,611.273 2280.38,653.913 2282.34,490.114 2284.3,805.105 2286.25,1105.2 2288.21,555.55 2290.17,680.729 2292.13,951.143 2294.08,942.482 "/>
<path clip-path="url(#clip380)" d="M348.806 1377.32 L608.541 1377.32 L608.541 1273.64 L348.806 1273.64  Z" fill="#ffffff" fill-rule="evenodd" fill-opacity="1"/>
<polyline clip-path="url(#clip380)" style="stroke:#000000; stroke-linecap:round; stroke-linejoin:round; stroke-width:4; stroke-opacity:1; fill:none" points="348.806,1377.32 608.541,1377.32 608.541,1273.64 348.806,1273.64 348.806,1377.32 "/>
<polyline clip-path="url(#clip380)" style="stroke:#009af9; stroke-linecap:round; stroke-linejoin:round; stroke-width:4; stroke-opacity:1; fill:none" points="371.84,1325.48 510.043,1325.48 "/>
<path clip-path="url(#clip380)" d="M546.919 1345.16 Q545.114 1349.79 543.401 1351.2 Q541.688 1352.62 538.818 1352.62 L535.415 1352.62 L535.415 1349.05 L537.915 1349.05 Q539.674 1349.05 540.646 1348.22 Q541.619 1347.38 542.799 1344.28 L543.563 1342.34 L533.077 1316.83 L537.591 1316.83 L545.693 1337.11 L553.794 1316.83 L558.308 1316.83 L546.919 1345.16 Z" fill="#000000" fill-rule="nonzero" fill-opacity="1" /><path clip-path="url(#clip380)" d="M565.6 1338.82 L573.239 1338.82 L573.239 1312.45 L564.929 1314.12 L564.929 1309.86 L573.192 1308.2 L577.868 1308.2 L577.868 1338.82 L585.507 1338.82 L585.507 1342.76 L565.6 1342.76 L565.6 1338.82 Z" fill="#000000" fill-rule="nonzero" fill-opacity="1" /></svg>
