<?xml version="1.0" encoding="utf-8"?>
<svg xmlns="http://www.w3.org/2000/svg" xmlns:xlink="http://www.w3.org/1999/xlink" width="600" height="400" viewBox="0 0 2400 1600">
<defs>
  <clipPath id="clip780">
    <rect x="0" y="0" width="2400" height="1600"/>
  </clipPath>
</defs>
<path clip-path="url(#clip780)" d="M0 1600 L2400 1600 L2400 0 L0 0  Z" fill="#ffffff" fill-rule="evenodd" fill-opacity="1"/>
<defs>
  <clipPath id="clip781">
    <rect x="480" y="0" width="1681" height="1600"/>
  </clipPath>
</defs>
<path clip-path="url(#clip780)" d="M219.38 1423.18 L2352.76 1423.18 L2352.76 47.2441 L219.38 47.2441  Z" fill="#ffffff" fill-rule="evenodd" fill-opacity="1"/>
<defs>
  <clipPath id="clip782">
    <rect x="219" y="47" width="2134" height="1377"/>
  </clipPath>
</defs>
<polyline clip-path="url(#clip782)" style="stroke:#000000; stroke-linecap:round; stroke-linejoin:round; stroke-width:2; stroke-opacity:0.1; fill:none" points="279.759,1423.18 279.759,47.2441 "/>
<polyline clip-path="url(#clip782)" style="stroke:#000000; stroke-linecap:round; stroke-linejoin:round; stroke-width:2; stroke-opacity:0.1; fill:none" points="782.913,1423.18 782.913,47.2441 "/>
<polyline clip-path="url(#clip782)" style="stroke:#000000; stroke-linecap:round; stroke-linejoin:round; stroke-width:2; stroke-opacity:0.1; fill:none" points="1286.07,1423.18 1286.07,47.2441 "/>
<polyline clip-path="url(#clip782)" style="stroke:#000000; stroke-linecap:round; stroke-linejoin:round; stroke-width:2; stroke-opacity:0.1; fill:none" points="1789.22,1423.18 1789.22,47.2441 "/>
<polyline clip-path="url(#clip782)" style="stroke:#000000; stroke-linecap:round; stroke-linejoin:round; stroke-width:2; stroke-opacity:0.1; fill:none" points="2292.38,1423.18 2292.38,47.2441 "/>
<polyline clip-path="url(#clip782)" style="stroke:#000000; stroke-linecap:round; stroke-linejoin:round; stroke-width:2; stroke-opacity:0.1; fill:none" points="219.38,1349.21 2352.76,1349.21 "/>
<polyline clip-path="url(#clip782)" style="stroke:#000000; stroke-linecap:round; stroke-linejoin:round; stroke-width:2; stroke-opacity:0.1; fill:none" points="219.38,1101.58 2352.76,1101.58 "/>
<polyline clip-path="url(#clip782)" style="stroke:#000000; stroke-linecap:round; stroke-linejoin:round; stroke-width:2; stroke-opacity:0.1; fill:none" points="219.38,853.937 2352.76,853.937 "/>
<polyline clip-path="url(#clip782)" style="stroke:#000000; stroke-linecap:round; stroke-linejoin:round; stroke-width:2; stroke-opacity:0.1; fill:none" points="219.38,606.299 2352.76,606.299 "/>
<polyline clip-path="url(#clip782)" style="stroke:#000000; stroke-linecap:round; stroke-linejoin:round; stroke-width:2; stroke-opacity:0.1; fill:none" points="219.38,358.66 2352.76,358.66 "/>
<polyline clip-path="url(#clip782)" style="stroke:#000000; stroke-linecap:round; stroke-linejoin:round; stroke-width:2; stroke-opacity:0.1; fill:none" points="219.38,111.021 2352.76,111.021 "/>
<polyline clip-path="url(#clip780)" style="stroke:#000000; stroke-linecap:round; stroke-linejoin:round; stroke-width:4; stroke-opacity:1; fill:none" points="219.38,1423.18 2352.76,1423.18 "/>
<polyline clip-path="url(#clip780)" style="stroke:#000000; stroke-linecap:round; stroke-linejoin:round; stroke-width:4; stroke-opacity:1; fill:none" points="279.759,1423.18 279.759,1404.28 "/>
<polyline clip-path="url(#clip780)" style="stroke:#000000; stroke-linecap:round; stroke-linejoin:round; stroke-width:4; stroke-opacity:1; fill:none" points="782.913,1423.18 782.913,1404.28 "/>
<polyline clip-path="url(#clip780)" style="stroke:#000000; stroke-linecap:round; stroke-linejoin:round; stroke-width:4; stroke-opacity:1; fill:none" points="1286.07,1423.18 1286.07,1404.28 "/>
<polyline clip-path="url(#clip780)" style="stroke:#000000; stroke-linecap:round; stroke-linejoin:round; stroke-width:4; stroke-opacity:1; fill:none" points="1789.22,1423.18 1789.22,1404.28 "/>
<polyline clip-path="url(#clip780)" style="stroke:#000000; stroke-linecap:round; stroke-linejoin:round; stroke-width:4; stroke-opacity:1; fill:none" points="2292.38,1423.18 2292.38,1404.28 "/>
<path clip-path="url(#clip780)" d="M257.143 1454.1 Q253.532 1454.1 251.703 1457.66 Q249.898 1461.2 249.898 1468.33 Q249.898 1475.44 251.703 1479.01 Q253.532 1482.55 257.143 1482.55 Q260.777 1482.55 262.583 1479.01 Q264.412 1475.44 264.412 1468.33 Q264.412 1461.2 262.583 1457.66 Q260.777 1454.1 257.143 1454.1 M257.143 1450.39 Q262.953 1450.39 266.009 1455 Q269.087 1459.58 269.087 1468.33 Q269.087 1477.06 266.009 1481.67 Q262.953 1486.25 257.143 1486.25 Q251.333 1486.25 248.254 1481.67 Q245.199 1477.06 245.199 1468.33 Q245.199 1459.58 248.254 1455 Q251.333 1450.39 257.143 1450.39 Z" fill="#000000" fill-rule="nonzero" fill-opacity="1" /><path clip-path="url(#clip780)" d="M277.305 1479.7 L282.189 1479.7 L282.189 1485.58 L277.305 1485.58 L277.305 1479.7 Z" fill="#000000" fill-rule="nonzero" fill-opacity="1" /><path clip-path="url(#clip780)" d="M302.374 1454.1 Q298.763 1454.1 296.935 1457.66 Q295.129 1461.2 295.129 1468.33 Q295.129 1475.44 296.935 1479.01 Q298.763 1482.55 302.374 1482.55 Q306.009 1482.55 307.814 1479.01 Q309.643 1475.44 309.643 1468.33 Q309.643 1461.2 307.814 1457.66 Q306.009 1454.1 302.374 1454.1 M302.374 1450.39 Q308.184 1450.39 311.24 1455 Q314.319 1459.58 314.319 1468.33 Q314.319 1477.06 311.24 1481.67 Q308.184 1486.25 302.374 1486.25 Q296.564 1486.25 293.485 1481.67 Q290.43 1477.06 290.43 1468.33 Q290.43 1459.58 293.485 1455 Q296.564 1450.39 302.374 1450.39 Z" fill="#000000" fill-rule="nonzero" fill-opacity="1" /><path clip-path="url(#clip780)" d="M754.65 1481.64 L770.969 1481.64 L770.969 1485.58 L749.025 1485.58 L749.025 1481.64 Q751.687 1478.89 756.27 1474.26 Q760.876 1469.61 762.057 1468.27 Q764.302 1465.74 765.182 1464.01 Q766.085 1462.25 766.085 1460.56 Q766.085 1457.8 764.14 1456.07 Q762.219 1454.33 759.117 1454.33 Q756.918 1454.33 754.464 1455.09 Q752.034 1455.86 749.256 1457.41 L749.256 1452.69 Q752.08 1451.55 754.534 1450.97 Q756.988 1450.39 759.025 1450.39 Q764.395 1450.39 767.589 1453.08 Q770.784 1455.77 770.784 1460.26 Q770.784 1462.39 769.974 1464.31 Q769.187 1466.2 767.08 1468.8 Q766.501 1469.47 763.4 1472.69 Q760.298 1475.88 754.65 1481.64 Z" fill="#000000" fill-rule="nonzero" fill-opacity="1" /><path clip-path="url(#clip780)" d="M780.784 1479.7 L785.668 1479.7 L785.668 1485.58 L780.784 1485.58 L780.784 1479.7 Z" fill="#000000" fill-rule="nonzero" fill-opacity="1" /><path clip-path="url(#clip780)" d="M795.899 1451.02 L814.256 1451.02 L814.256 1454.96 L800.182 1454.96 L800.182 1463.43 Q801.2 1463.08 802.219 1462.92 Q803.237 1462.73 804.256 1462.73 Q810.043 1462.73 813.422 1465.9 Q816.802 1469.08 816.802 1474.49 Q816.802 1480.07 813.33 1483.17 Q809.858 1486.25 803.538 1486.25 Q801.362 1486.25 799.094 1485.88 Q796.848 1485.51 794.441 1484.77 L794.441 1480.07 Q796.524 1481.2 798.747 1481.76 Q800.969 1482.32 803.446 1482.32 Q807.45 1482.32 809.788 1480.21 Q812.126 1478.1 812.126 1474.49 Q812.126 1470.88 809.788 1468.77 Q807.45 1466.67 803.446 1466.67 Q801.571 1466.67 799.696 1467.08 Q797.844 1467.5 795.899 1468.38 L795.899 1451.02 Z" fill="#000000" fill-rule="nonzero" fill-opacity="1" /><path clip-path="url(#clip780)" d="M1253.23 1451.02 L1271.59 1451.02 L1271.59 1454.96 L1257.51 1454.96 L1257.51 1463.43 Q1258.53 1463.08 1259.55 1462.92 Q1260.57 1462.73 1261.59 1462.73 Q1267.38 1462.73 1270.76 1465.9 Q1274.14 1469.08 1274.14 1474.49 Q1274.14 1480.07 1270.66 1483.17 Q1267.19 1486.25 1260.87 1486.25 Q1258.7 1486.25 1256.43 1485.88 Q1254.18 1485.51 1251.77 1484.77 L1251.77 1480.07 Q1253.86 1481.2 1256.08 1481.76 Q1258.3 1482.32 1260.78 1482.32 Q1264.78 1482.32 1267.12 1480.21 Q1269.46 1478.1 1269.46 1474.49 Q1269.46 1470.88 1267.12 1468.77 Q1264.78 1466.67 1260.78 1466.67 Q1258.9 1466.67 1257.03 1467.08 Q1255.18 1467.5 1253.23 1468.38 L1253.23 1451.02 Z" fill="#000000" fill-rule="nonzero" fill-opacity="1" /><path clip-path="url(#clip780)" d="M1283.35 1479.7 L1288.23 1479.7 L1288.23 1485.58 L1283.35 1485.58 L1283.35 1479.7 Z" fill="#000000" fill-rule="nonzero" fill-opacity="1" /><path clip-path="url(#clip780)" d="M1308.42 1454.1 Q1304.81 1454.1 1302.98 1457.66 Q1301.17 1461.2 1301.17 1468.33 Q1301.17 1475.44 1302.98 1479.01 Q1304.81 1482.55 1308.42 1482.55 Q1312.05 1482.55 1313.86 1479.01 Q1315.69 1475.44 1315.69 1468.33 Q1315.69 1461.2 1313.86 1457.66 Q1312.05 1454.1 1308.42 1454.1 M1308.42 1450.39 Q1314.23 1450.39 1317.28 1455 Q1320.36 1459.58 1320.36 1468.33 Q1320.36 1477.06 1317.28 1481.67 Q1314.23 1486.25 1308.42 1486.25 Q1302.61 1486.25 1299.53 1481.67 Q1296.47 1477.06 1296.47 1468.33 Q1296.47 1459.58 1299.53 1455 Q1302.61 1450.39 1308.42 1450.39 Z" fill="#000000" fill-rule="nonzero" fill-opacity="1" /><path clip-path="url(#clip780)" d="M1755.54 1451.02 L1777.76 1451.02 L1777.76 1453.01 L1765.22 1485.58 L1760.33 1485.58 L1772.14 1454.96 L1755.54 1454.96 L1755.54 1451.02 Z" fill="#000000" fill-rule="nonzero" fill-opacity="1" /><path clip-path="url(#clip780)" d="M1786.88 1479.7 L1791.77 1479.7 L1791.77 1485.58 L1786.88 1485.58 L1786.88 1479.7 Z" fill="#000000" fill-rule="nonzero" fill-opacity="1" /><path clip-path="url(#clip780)" d="M1802 1451.02 L1820.36 1451.02 L1820.36 1454.96 L1806.28 1454.96 L1806.28 1463.43 Q1807.3 1463.08 1808.32 1462.92 Q1809.34 1462.73 1810.36 1462.73 Q1816.14 1462.73 1819.52 1465.9 Q1822.9 1469.08 1822.9 1474.49 Q1822.9 1480.07 1819.43 1483.17 Q1815.96 1486.25 1809.64 1486.25 Q1807.46 1486.25 1805.19 1485.88 Q1802.95 1485.51 1800.54 1484.77 L1800.54 1480.07 Q1802.63 1481.2 1804.85 1481.76 Q1807.07 1482.32 1809.55 1482.32 Q1813.55 1482.32 1815.89 1480.21 Q1818.23 1478.1 1818.23 1474.49 Q1818.23 1470.88 1815.89 1468.77 Q1813.55 1466.67 1809.55 1466.67 Q1807.67 1466.67 1805.8 1467.08 Q1803.94 1467.5 1802 1468.38 L1802 1451.02 Z" fill="#000000" fill-rule="nonzero" fill-opacity="1" /><path clip-path="url(#clip780)" d="M2244.45 1481.64 L2252.09 1481.64 L2252.09 1455.28 L2243.78 1456.95 L2243.78 1452.69 L2252.04 1451.02 L2256.72 1451.02 L2256.72 1481.64 L2264.36 1481.64 L2264.36 1485.58 L2244.45 1485.58 L2244.45 1481.64 Z" fill="#000000" fill-rule="nonzero" fill-opacity="1" /><path clip-path="url(#clip780)" d="M2283.8 1454.1 Q2280.19 1454.1 2278.36 1457.66 Q2276.56 1461.2 2276.56 1468.33 Q2276.56 1475.44 2278.36 1479.01 Q2280.19 1482.55 2283.8 1482.55 Q2287.44 1482.55 2289.24 1479.01 Q2291.07 1475.44 2291.07 1468.33 Q2291.07 1461.2 2289.24 1457.66 Q2287.44 1454.1 2283.8 1454.1 M2283.8 1450.39 Q2289.61 1450.39 2292.67 1455 Q2295.75 1459.58 2295.75 1468.33 Q2295.75 1477.06 2292.67 1481.67 Q2289.61 1486.25 2283.8 1486.25 Q2277.99 1486.25 2274.91 1481.67 Q2271.86 1477.06 2271.86 1468.33 Q2271.86 1459.58 2274.91 1455 Q2277.99 1450.39 2283.8 1450.39 Z" fill="#000000" fill-rule="nonzero" fill-opacity="1" /><path clip-path="url(#clip780)" d="M2303.96 1479.7 L2308.85 1479.7 L2308.85 1485.58 L2303.96 1485.58 L2303.96 1479.7 Z" fill="#000000" fill-rule="nonzero" fill-opacity="1" /><path clip-path="url(#clip780)" d="M2329.03 1454.1 Q2325.42 1454.1 2323.59 1457.66 Q2321.79 1461.2 2321.79 1468.33 Q2321.79 1475.44 2323.59 1479.01 Q2325.42 1482.55 2329.03 1482.55 Q2332.67 1482.55 2334.47 1479.01 Q2336.3 1475.44 2336.3 1468.33 Q2336.3 1461.2 2334.47 1457.66 Q2332.67 1454.1 2329.03 1454.1 M2329.03 1450.39 Q2334.84 1450.39 2337.9 1455 Q2340.98 1459.58 2340.98 1468.33 Q2340.98 1477.06 2337.9 1481.67 Q2334.84 1486.25 2329.03 1486.25 Q2323.22 1486.25 2320.14 1481.67 Q2317.09 1477.06 2317.09 1468.33 Q2317.09 1459.58 2320.14 1455 Q2323.22 1450.39 2329.03 1450.39 Z" fill="#000000" fill-rule="nonzero" fill-opacity="1" /><path clip-path="url(#clip780)" d="M1285.13 1522.27 L1285.13 1532.4 L1297.19 1532.4 L1297.19 1536.95 L1285.13 1536.95 L1285.13 1556.3 Q1285.13 1560.66 1286.31 1561.9 Q1287.52 1563.14 1291.18 1563.14 L1297.19 1563.14 L1297.19 1568.04 L1291.18 1568.04 Q1284.4 1568.04 1281.82 1565.53 Q1279.24 1562.98 1279.24 1556.3 L1279.24 1536.95 L1274.94 1536.95 L1274.94 1532.4 L1279.24 1532.4 L1279.24 1522.27 L1285.13 1522.27 Z" fill="#000000" fill-rule="nonzero" fill-opacity="1" /><polyline clip-path="url(#clip780)" style="stroke:#000000; stroke-linecap:round; stroke-linejoin:round; stroke-width:4; stroke-opacity:1; fill:none" points="219.38,1423.18 219.38,47.2441 "/>
<polyline clip-path="url(#clip780)" style="stroke:#000000; stroke-linecap:round; stroke-linejoin:round; stroke-width:4; stroke-opacity:1; fill:none" points="219.38,1349.21 238.278,1349.21 "/>
<polyline clip-path="url(#clip780)" style="stroke:#000000; stroke-linecap:round; stroke-linejoin:round; stroke-width:4; stroke-opacity:1; fill:none" points="219.38,1101.58 238.278,1101.58 "/>
<polyline clip-path="url(#clip780)" style="stroke:#000000; stroke-linecap:round; stroke-linejoin:round; stroke-width:4; stroke-opacity:1; fill:none" points="219.38,853.937 238.278,853.937 "/>
<polyline clip-path="url(#clip780)" style="stroke:#000000; stroke-linecap:round; stroke-linejoin:round; stroke-width:4; stroke-opacity:1; fill:none" points="219.38,606.299 238.278,606.299 "/>
<polyline clip-path="url(#clip780)" style="stroke:#000000; stroke-linecap:round; stroke-linejoin:round; stroke-width:4; stroke-opacity:1; fill:none" points="219.38,358.66 238.278,358.66 "/>
<polyline clip-path="url(#clip780)" style="stroke:#000000; stroke-linecap:round; stroke-linejoin:round; stroke-width:4; stroke-opacity:1; fill:none" points="219.38,111.021 238.278,111.021 "/>
<path clip-path="url(#clip780)" d="M126.205 1335.01 Q122.593 1335.01 120.765 1338.58 Q118.959 1342.12 118.959 1349.25 Q118.959 1356.36 120.765 1359.92 Q122.593 1363.46 126.205 1363.46 Q129.839 1363.46 131.644 1359.92 Q133.473 1356.36 133.473 1349.25 Q133.473 1342.12 131.644 1338.58 Q129.839 1335.01 126.205 1335.01 M126.205 1331.31 Q132.015 1331.31 135.07 1335.92 Q138.149 1340.5 138.149 1349.25 Q138.149 1357.98 135.07 1362.58 Q132.015 1367.17 126.205 1367.17 Q120.394 1367.17 117.316 1362.58 Q114.26 1357.98 114.26 1349.25 Q114.26 1340.5 117.316 1335.92 Q120.394 1331.31 126.205 1331.31 Z" fill="#000000" fill-rule="nonzero" fill-opacity="1" /><path clip-path="url(#clip780)" d="M146.366 1360.62 L151.251 1360.62 L151.251 1366.49 L146.366 1366.49 L146.366 1360.62 Z" fill="#000000" fill-rule="nonzero" fill-opacity="1" /><path clip-path="url(#clip780)" d="M171.436 1335.01 Q167.825 1335.01 165.996 1338.58 Q164.19 1342.12 164.19 1349.25 Q164.19 1356.36 165.996 1359.92 Q167.825 1363.46 171.436 1363.46 Q175.07 1363.46 176.876 1359.92 Q178.704 1356.36 178.704 1349.25 Q178.704 1342.12 176.876 1338.58 Q175.07 1335.01 171.436 1335.01 M171.436 1331.31 Q177.246 1331.31 180.301 1335.92 Q183.38 1340.5 183.38 1349.25 Q183.38 1357.98 180.301 1362.58 Q177.246 1367.17 171.436 1367.17 Q165.626 1367.17 162.547 1362.58 Q159.491 1357.98 159.491 1349.25 Q159.491 1340.5 162.547 1335.92 Q165.626 1331.31 171.436 1331.31 Z" fill="#000000" fill-rule="nonzero" fill-opacity="1" /><path clip-path="url(#clip780)" d="M127.2 1087.37 Q123.589 1087.37 121.76 1090.94 Q119.955 1094.48 119.955 1101.61 Q119.955 1108.72 121.76 1112.28 Q123.589 1115.82 127.2 1115.82 Q130.834 1115.82 132.64 1112.28 Q134.468 1108.72 134.468 1101.61 Q134.468 1094.48 132.64 1090.94 Q130.834 1087.37 127.2 1087.37 M127.2 1083.67 Q133.01 1083.67 136.066 1088.28 Q139.144 1092.86 139.144 1101.61 Q139.144 1110.34 136.066 1114.94 Q133.01 1119.53 127.2 1119.53 Q121.39 1119.53 118.311 1114.94 Q115.256 1110.34 115.256 1101.61 Q115.256 1092.86 118.311 1088.28 Q121.39 1083.67 127.2 1083.67 Z" fill="#000000" fill-rule="nonzero" fill-opacity="1" /><path clip-path="url(#clip780)" d="M147.362 1112.98 L152.246 1112.98 L152.246 1118.86 L147.362 1118.86 L147.362 1112.98 Z" fill="#000000" fill-rule="nonzero" fill-opacity="1" /><path clip-path="url(#clip780)" d="M162.477 1084.3 L180.834 1084.3 L180.834 1088.23 L166.76 1088.23 L166.76 1096.7 Q167.778 1096.36 168.797 1096.19 Q169.815 1096.01 170.834 1096.01 Q176.621 1096.01 180.001 1099.18 Q183.38 1102.35 183.38 1107.77 Q183.38 1113.35 179.908 1116.45 Q176.436 1119.53 170.116 1119.53 Q167.94 1119.53 165.672 1119.16 Q163.427 1118.79 161.019 1118.05 L161.019 1113.35 Q163.102 1114.48 165.325 1115.04 Q167.547 1115.59 170.024 1115.59 Q174.028 1115.59 176.366 1113.49 Q178.704 1111.38 178.704 1107.77 Q178.704 1104.16 176.366 1102.05 Q174.028 1099.94 170.024 1099.94 Q168.149 1099.94 166.274 1100.36 Q164.422 1100.78 162.477 1101.66 L162.477 1084.3 Z" fill="#000000" fill-rule="nonzero" fill-opacity="1" /><path clip-path="url(#clip780)" d="M117.015 867.282 L124.654 867.282 L124.654 840.916 L116.343 842.583 L116.343 838.324 L124.607 836.657 L129.283 836.657 L129.283 867.282 L136.922 867.282 L136.922 871.217 L117.015 871.217 L117.015 867.282 Z" fill="#000000" fill-rule="nonzero" fill-opacity="1" /><path clip-path="url(#clip780)" d="M146.366 865.338 L151.251 865.338 L151.251 871.217 L146.366 871.217 L146.366 865.338 Z" fill="#000000" fill-rule="nonzero" fill-opacity="1" /><path clip-path="url(#clip780)" d="M171.436 839.736 Q167.825 839.736 165.996 843.301 Q164.19 846.842 164.19 853.972 Q164.19 861.078 165.996 864.643 Q167.825 868.185 171.436 868.185 Q175.07 868.185 176.876 864.643 Q178.704 861.078 178.704 853.972 Q178.704 846.842 176.876 843.301 Q175.07 839.736 171.436 839.736 M171.436 836.032 Q177.246 836.032 180.301 840.639 Q183.38 845.222 183.38 853.972 Q183.38 862.699 180.301 867.305 Q177.246 871.889 171.436 871.889 Q165.626 871.889 162.547 867.305 Q159.491 862.699 159.491 853.972 Q159.491 845.222 162.547 840.639 Q165.626 836.032 171.436 836.032 Z" fill="#000000" fill-rule="nonzero" fill-opacity="1" /><path clip-path="url(#clip780)" d="M118.01 619.643 L125.649 619.643 L125.649 593.278 L117.339 594.944 L117.339 590.685 L125.603 589.019 L130.279 589.019 L130.279 619.643 L137.917 619.643 L137.917 623.579 L118.01 623.579 L118.01 619.643 Z" fill="#000000" fill-rule="nonzero" fill-opacity="1" /><path clip-path="url(#clip780)" d="M147.362 617.699 L152.246 617.699 L152.246 623.579 L147.362 623.579 L147.362 617.699 Z" fill="#000000" fill-rule="nonzero" fill-opacity="1" /><path clip-path="url(#clip780)" d="M162.477 589.019 L180.834 589.019 L180.834 592.954 L166.76 592.954 L166.76 601.426 Q167.778 601.079 168.797 600.917 Q169.815 600.731 170.834 600.731 Q176.621 600.731 180.001 603.903 Q183.38 607.074 183.38 612.491 Q183.38 618.069 179.908 621.171 Q176.436 624.25 170.116 624.25 Q167.94 624.25 165.672 623.879 Q163.427 623.509 161.019 622.768 L161.019 618.069 Q163.102 619.204 165.325 619.759 Q167.547 620.315 170.024 620.315 Q174.028 620.315 176.366 618.208 Q178.704 616.102 178.704 612.491 Q178.704 608.88 176.366 606.773 Q174.028 604.667 170.024 604.667 Q168.149 604.667 166.274 605.083 Q164.422 605.5 162.477 606.38 L162.477 589.019 Z" fill="#000000" fill-rule="nonzero" fill-opacity="1" /><path clip-path="url(#clip780)" d="M120.232 372.005 L136.552 372.005 L136.552 375.94 L114.607 375.94 L114.607 372.005 Q117.269 369.25 121.853 364.62 Q126.459 359.968 127.64 358.625 Q129.885 356.102 130.765 354.366 Q131.667 352.607 131.667 350.917 Q131.667 348.162 129.723 346.426 Q127.802 344.69 124.7 344.69 Q122.501 344.69 120.047 345.454 Q117.617 346.218 114.839 347.769 L114.839 343.046 Q117.663 341.912 120.117 341.333 Q122.57 340.755 124.607 340.755 Q129.978 340.755 133.172 343.44 Q136.367 346.125 136.367 350.616 Q136.367 352.745 135.556 354.667 Q134.769 356.565 132.663 359.157 Q132.084 359.829 128.982 363.046 Q125.88 366.241 120.232 372.005 Z" fill="#000000" fill-rule="nonzero" fill-opacity="1" /><path clip-path="url(#clip780)" d="M146.366 370.06 L151.251 370.06 L151.251 375.94 L146.366 375.94 L146.366 370.06 Z" fill="#000000" fill-rule="nonzero" fill-opacity="1" /><path clip-path="url(#clip780)" d="M171.436 344.458 Q167.825 344.458 165.996 348.023 Q164.19 351.565 164.19 358.695 Q164.19 365.801 165.996 369.366 Q167.825 372.907 171.436 372.907 Q175.07 372.907 176.876 369.366 Q178.704 365.801 178.704 358.695 Q178.704 351.565 176.876 348.023 Q175.07 344.458 171.436 344.458 M171.436 340.755 Q177.246 340.755 180.301 345.361 Q183.38 349.945 183.38 358.695 Q183.38 367.421 180.301 372.028 Q177.246 376.611 171.436 376.611 Q165.626 376.611 162.547 372.028 Q159.491 367.421 159.491 358.695 Q159.491 349.945 162.547 345.361 Q165.626 340.755 171.436 340.755 Z" fill="#000000" fill-rule="nonzero" fill-opacity="1" /><path clip-path="url(#clip780)" d="M121.228 124.366 L137.547 124.366 L137.547 128.301 L115.603 128.301 L115.603 124.366 Q118.265 121.611 122.848 116.982 Q127.455 112.329 128.635 110.986 Q130.88 108.463 131.76 106.727 Q132.663 104.968 132.663 103.278 Q132.663 100.523 130.718 98.7873 Q128.797 97.0512 125.695 97.0512 Q123.496 97.0512 121.043 97.8151 Q118.612 98.579 115.834 100.13 L115.834 95.4077 Q118.658 94.2735 121.112 93.6948 Q123.566 93.1161 125.603 93.1161 Q130.973 93.1161 134.167 95.8013 Q137.362 98.4864 137.362 102.977 Q137.362 105.107 136.552 107.028 Q135.765 108.926 133.658 111.519 Q133.08 112.19 129.978 115.408 Q126.876 118.602 121.228 124.366 Z" fill="#000000" fill-rule="nonzero" fill-opacity="1" /><path clip-path="url(#clip780)" d="M147.362 122.421 L152.246 122.421 L152.246 128.301 L147.362 128.301 L147.362 122.421 Z" fill="#000000" fill-rule="nonzero" fill-opacity="1" /><path clip-path="url(#clip780)" d="M162.477 93.7411 L180.834 93.7411 L180.834 97.6762 L166.76 97.6762 L166.76 106.148 Q167.778 105.801 168.797 105.639 Q169.815 105.454 170.834 105.454 Q176.621 105.454 180.001 108.625 Q183.38 111.797 183.38 117.213 Q183.38 122.792 179.908 125.894 Q176.436 128.972 170.116 128.972 Q167.94 128.972 165.672 128.602 Q163.427 128.232 161.019 127.491 L161.019 122.792 Q163.102 123.926 165.325 124.482 Q167.547 125.037 170.024 125.037 Q174.028 125.037 176.366 122.931 Q178.704 120.824 178.704 117.213 Q178.704 113.602 176.366 111.496 Q174.028 109.389 170.024 109.389 Q168.149 109.389 166.274 109.806 Q164.422 110.222 162.477 111.102 L162.477 93.7411 Z" fill="#000000" fill-rule="nonzero" fill-opacity="1" /><path clip-path="url(#clip780)" d="M20.8447 948.702 Q20.8447 955.704 26.0645 959.842 Q31.2844 963.948 40.2919 963.948 Q49.2675 963.948 54.4874 959.842 Q59.7073 955.704 59.7073 948.702 Q59.7073 941.7 54.4874 937.626 Q49.2675 933.52 40.2919 933.52 Q31.2844 933.52 26.0645 937.626 Q20.8447 941.7 20.8447 948.702 M15.6248 948.702 Q15.6248 938.708 22.3406 932.724 Q29.0246 926.74 40.2919 926.74 Q51.5274 926.74 58.2432 932.724 Q64.9272 938.708 64.9272 948.702 Q64.9272 958.728 58.2432 964.743 Q51.5592 970.727 40.2919 970.727 Q29.0246 970.727 22.3406 964.743 Q15.6248 958.728 15.6248 948.702 Z" fill="#000000" fill-rule="nonzero" fill-opacity="1" /><path clip-path="url(#clip780)" d="M49.9359 917.542 L28.3562 917.542 L28.3562 911.685 L49.7131 911.685 Q54.7739 911.685 57.3202 909.712 Q59.8346 907.739 59.8346 903.792 Q59.8346 899.049 56.8109 896.312 Q53.7872 893.543 48.5673 893.543 L28.3562 893.543 L28.3562 887.687 L64.0042 887.687 L64.0042 893.543 L58.5296 893.543 Q61.7762 895.676 63.3676 898.508 Q64.9272 901.309 64.9272 905.033 Q64.9272 911.176 61.1078 914.359 Q57.2883 917.542 49.9359 917.542 M27.4968 902.805 L27.4968 902.805 Z" fill="#000000" fill-rule="nonzero" fill-opacity="1" /><path clip-path="url(#clip780)" d="M18.2347 869.831 L28.3562 869.831 L28.3562 857.768 L32.9077 857.768 L32.9077 869.831 L52.2594 869.831 Q56.6199 869.831 57.8613 868.653 Q59.1026 867.444 59.1026 863.783 L59.1026 857.768 L64.0042 857.768 L64.0042 863.783 Q64.0042 870.563 61.4897 873.141 Q58.9434 875.719 52.2594 875.719 L32.9077 875.719 L32.9077 880.016 L28.3562 880.016 L28.3562 875.719 L18.2347 875.719 L18.2347 869.831 Z" fill="#000000" fill-rule="nonzero" fill-opacity="1" /><path clip-path="url(#clip780)" d="M58.657 844.4 L77.5631 844.4 L77.5631 850.288 L28.3562 850.288 L28.3562 844.4 L33.7671 844.4 Q30.5842 842.554 29.0564 839.753 Q27.4968 836.92 27.4968 833.005 Q27.4968 826.512 32.6531 822.47 Q37.8093 818.396 46.212 818.396 Q54.6147 818.396 59.771 822.47 Q64.9272 826.512 64.9272 833.005 Q64.9272 836.92 63.3994 839.753 Q61.8398 842.554 58.657 844.4 M46.212 824.475 Q39.7508 824.475 36.0905 827.149 Q32.3984 829.79 32.3984 834.437 Q32.3984 839.084 36.0905 841.758 Q39.7508 844.4 46.212 844.4 Q52.6732 844.4 56.3653 841.758 Q60.0256 839.084 60.0256 834.437 Q60.0256 829.79 56.3653 827.149 Q52.6732 824.475 46.212 824.475 Z" fill="#000000" fill-rule="nonzero" fill-opacity="1" /><path clip-path="url(#clip780)" d="M49.9359 809.293 L28.3562 809.293 L28.3562 803.436 L49.7131 803.436 Q54.7739 803.436 57.3202 801.463 Q59.8346 799.49 59.8346 795.543 Q59.8346 790.801 56.8109 788.063 Q53.7872 785.294 48.5673 785.294 L28.3562 785.294 L28.3562 779.438 L64.0042 779.438 L64.0042 785.294 L58.5296 785.294 Q61.7762 787.427 63.3676 790.259 Q64.9272 793.06 64.9272 796.784 Q64.9272 802.927 61.1078 806.11 Q57.2883 809.293 49.9359 809.293 M27.4968 794.556 L27.4968 794.556 Z" fill="#000000" fill-rule="nonzero" fill-opacity="1" /><path clip-path="url(#clip780)" d="M18.2347 761.582 L28.3562 761.582 L28.3562 749.519 L32.9077 749.519 L32.9077 761.582 L52.2594 761.582 Q56.6199 761.582 57.8613 760.404 Q59.1026 759.195 59.1026 755.534 L59.1026 749.519 L64.0042 749.519 L64.0042 755.534 Q64.0042 762.314 61.4897 764.892 Q58.9434 767.47 52.2594 767.47 L32.9077 767.47 L32.9077 771.767 L28.3562 771.767 L28.3562 767.47 L18.2347 767.47 L18.2347 761.582 Z" fill="#000000" fill-rule="nonzero" fill-opacity="1" /><path clip-path="url(#clip780)" d="M21.7677 735.132 L39.6235 735.132 L39.6235 727.048 Q39.6235 722.56 37.3 720.109 Q34.9765 717.659 30.6797 717.659 Q26.4147 717.659 24.0912 720.109 Q21.7677 722.56 21.7677 727.048 L21.7677 735.132 M16.4842 741.562 L16.4842 727.048 Q16.4842 719.059 20.1126 714.985 Q23.7092 710.879 30.6797 710.879 Q37.7138 710.879 41.3104 714.985 Q44.907 719.059 44.907 727.048 L44.907 735.132 L64.0042 735.132 L64.0042 741.562 L16.4842 741.562 Z" fill="#000000" fill-rule="nonzero" fill-opacity="1" /><path clip-path="url(#clip780)" d="M32.4621 691.018 Q32.4621 695.729 36.1542 698.466 Q39.8145 701.203 46.212 701.203 Q52.6095 701.203 56.3017 698.498 Q59.9619 695.761 59.9619 691.018 Q59.9619 686.339 56.2698 683.602 Q52.5777 680.865 46.212 680.865 Q39.8781 680.865 36.186 683.602 Q32.4621 686.339 32.4621 691.018 M27.4968 691.018 Q27.4968 683.379 32.4621 679.019 Q37.4273 674.658 46.212 674.658 Q54.9649 674.658 59.9619 679.019 Q64.9272 683.379 64.9272 691.018 Q64.9272 698.689 59.9619 703.049 Q54.9649 707.378 46.212 707.378 Q37.4273 707.378 32.4621 703.049 Q27.4968 698.689 27.4968 691.018 Z" fill="#000000" fill-rule="nonzero" fill-opacity="1" /><path clip-path="url(#clip780)" d="M29.4065 642.225 L34.9447 642.225 Q33.6716 644.708 33.035 647.381 Q32.3984 650.055 32.3984 652.919 Q32.3984 657.28 33.7352 659.476 Q35.072 661.64 37.7456 661.64 Q39.7826 661.64 40.9603 660.081 Q42.1061 658.521 43.1565 653.81 L43.6021 651.805 Q44.9389 645.567 47.3897 642.957 Q49.8086 640.315 54.1691 640.315 Q59.1344 640.315 62.0308 644.262 Q64.9272 648.177 64.9272 655.052 Q64.9272 657.916 64.3543 661.036 Q63.8132 664.123 62.6992 667.56 L56.6518 667.56 Q58.3387 664.314 59.198 661.163 Q60.0256 658.012 60.0256 654.924 Q60.0256 650.787 58.6251 648.559 Q57.1929 646.331 54.6147 646.331 Q52.2276 646.331 50.9545 647.954 Q49.6813 649.545 48.5037 654.988 L48.0262 657.025 Q46.8804 662.468 44.5251 664.887 Q42.138 667.306 38.0002 667.306 Q32.9713 667.306 30.2341 663.741 Q27.4968 660.176 27.4968 653.62 Q27.4968 650.373 27.9743 647.508 Q28.4517 644.644 29.4065 642.225 Z" fill="#000000" fill-rule="nonzero" fill-opacity="1" /><path clip-path="url(#clip780)" d="M28.3562 630.989 L28.3562 625.133 L64.0042 625.133 L64.0042 630.989 L28.3562 630.989 M14.479 630.989 L14.479 625.133 L21.895 625.133 L21.895 630.989 L14.479 630.989 Z" fill="#000000" fill-rule="nonzero" fill-opacity="1" /><path clip-path="url(#clip780)" d="M18.2347 607.086 L28.3562 607.086 L28.3562 595.023 L32.9077 595.023 L32.9077 607.086 L52.2594 607.086 Q56.6199 607.086 57.8613 605.909 Q59.1026 604.699 59.1026 601.039 L59.1026 595.023 L64.0042 595.023 L64.0042 601.039 Q64.0042 607.818 61.4897 610.396 Q58.9434 612.974 52.2594 612.974 L32.9077 612.974 L32.9077 617.271 L28.3562 617.271 L28.3562 612.974 L18.2347 612.974 L18.2347 607.086 Z" fill="#000000" fill-rule="nonzero" fill-opacity="1" /><path clip-path="url(#clip780)" d="M28.3562 587.321 L28.3562 581.464 L64.0042 581.464 L64.0042 587.321 L28.3562 587.321 M14.479 587.321 L14.479 581.464 L21.895 581.464 L21.895 587.321 L14.479 587.321 Z" fill="#000000" fill-rule="nonzero" fill-opacity="1" /><path clip-path="url(#clip780)" d="M32.4621 555.397 Q32.4621 560.107 36.1542 562.845 Q39.8145 565.582 46.212 565.582 Q52.6095 565.582 56.3017 562.876 Q59.9619 560.139 59.9619 555.397 Q59.9619 550.718 56.2698 547.981 Q52.5777 545.243 46.212 545.243 Q39.8781 545.243 36.186 547.981 Q32.4621 550.718 32.4621 555.397 M27.4968 555.397 Q27.4968 547.758 32.4621 543.397 Q37.4273 539.037 46.212 539.037 Q54.9649 539.037 59.9619 543.397 Q64.9272 547.758 64.9272 555.397 Q64.9272 563.067 59.9619 567.428 Q54.9649 571.757 46.212 571.757 Q37.4273 571.757 32.4621 567.428 Q27.4968 563.067 27.4968 555.397 Z" fill="#000000" fill-rule="nonzero" fill-opacity="1" /><path clip-path="url(#clip780)" d="M42.4881 499.697 L64.0042 499.697 L64.0042 505.553 L42.679 505.553 Q37.6183 505.553 35.1038 507.527 Q32.5894 509.5 32.5894 513.447 Q32.5894 518.189 35.6131 520.926 Q38.6368 523.664 43.8567 523.664 L64.0042 523.664 L64.0042 529.552 L28.3562 529.552 L28.3562 523.664 L33.8944 523.664 Q30.6797 521.563 29.0883 518.73 Q27.4968 515.866 27.4968 512.142 Q27.4968 505.999 31.3163 502.848 Q35.1038 499.697 42.4881 499.697 Z" fill="#000000" fill-rule="nonzero" fill-opacity="1" /><polyline clip-path="url(#clip782)" style="stroke:#009af9; stroke-linecap:round; stroke-linejoin:round; stroke-width:4; stroke-opacity:1; fill:none" points="279.759,1383.23 299.885,1378.98 320.011,1366.31 340.137,1345.48 360.263,1316.9 380.39,1281.15 400.516,1238.94 420.642,1191.11 440.768,1138.62 460.894,1082.52 481.021,1023.93 501.147,964.031 521.273,904.011 541.399,845.073 561.525,788.397 581.652,735.116 601.778,686.295 621.904,633.973 642.03,579.198 662.156,523.065 682.282,466.696 702.409,411.218 722.535,357.742 742.661,307.336 762.787,261.01 782.913,219.689 803.04,184.199 823.166,155.251 843.292,133.424 863.418,119.154 883.544,112.726 903.67,114.27 923.797,123.753 943.923,140.988 964.049,165.628 984.175,197.181 1004.3,235.016 1024.43,278.376 1044.55,326.395 1064.68,378.111 1084.81,432.49 1104.93,488.445 1125.06,544.857 1145.18,600.598 1165.31,654.552 1185.44,705.64 1205.56,752.842 1225.69,804.149 1245.82,858.536 1265.94,914.915 1286.07,972.159 1306.19,1029.12 1326.32,1084.67 1346.45,1137.68 1366.57,1187.1 1386.7,1231.94 1406.83,1271.31 1426.95,1304.41 1447.08,1330.59 1467.2,1349.32 1487.33,1360.23 1507.46,1363.09 1527.58,1357.85 1547.71,1344.62 1567.83,1323.66 1587.96,1295.39 1608.09,1260.38 1628.21,1219.32 1648.34,1173.03 1668.47,1122.45 1688.59,1068.58 1708.72,1012.51 1728.84,955.344 1748.97,898.236 1769.1,842.325 1789.22,788.731 1809.35,738.525 1829.48,692.712 1849.6,643.27 1869.73,591.187 1889.85,537.507 1909.98,483.302 1930.11,429.657 1950.23,377.644 1970.36,328.304 1990.48,282.624 2010.61,241.516 2030.74,205.804 2050.86,176.202 2070.99,153.3 2091.12,137.559 2111.24,129.292 2131.37,128.664 2151.49,135.689 2171.62,150.226 2191.75,171.984 2211.87,200.528 2232,235.287 2252.12,275.565 2272.25,320.558 2292.38,369.366 "/>
<polyline clip-path="url(#clip782)" style="stroke:#e26f46; stroke-linecap:round; stroke-linejoin:round; stroke-width:4; stroke-opacity:1; fill:none" points="279.759,764.612 299.885,766.642 320.011,772.694 340.137,782.646 360.263,796.298 380.39,813.378 400.516,833.545 420.642,856.394 440.768,881.469 460.894,908.269 481.021,936.257 501.147,964.873 521.273,993.546 541.399,1021.7 561.525,1048.78 581.652,1074.23 601.778,1097.55 621.904,1122.55 642.03,1148.72 662.156,1175.53 682.282,1202.46 702.409,1228.96 722.535,1254.51 742.661,1278.59 762.787,1300.72 782.913,1320.46 803.04,1337.42 823.166,1351.24 843.292,1361.67 863.418,1368.49 883.544,1371.56 903.67,1370.82 923.797,1366.29 943.923,1358.06 964.049,1346.29 984.175,1331.21 1004.3,1313.14 1024.43,1292.42 1044.55,1269.49 1064.68,1244.78 1084.81,1218.8 1104.93,1192.07 1125.06,1165.12 1145.18,1138.49 1165.31,1112.72 1185.44,1088.31 1205.56,1065.76 1225.69,1041.25 1245.82,1015.27 1265.94,988.337 1286.07,960.99 1306.19,933.778 1326.32,907.243 1346.45,881.918 1366.57,858.308 1386.7,836.885 1406.83,818.079 1426.95,802.265 1447.08,789.759 1467.2,780.812 1487.33,775.603 1507.46,774.235 1527.58,776.736 1547.71,783.056 1567.83,793.069 1587.96,806.574 1608.09,823.302 1628.21,842.917 1648.34,865.028 1668.47,889.191 1688.59,914.925 1708.72,941.714 1728.84,969.023 1748.97,996.305 1769.1,1023.01 1789.22,1048.62 1809.35,1072.6 1829.48,1094.49 1849.6,1118.11 1869.73,1142.99 1889.85,1168.63 1909.98,1194.53 1930.11,1220.15 1950.23,1245 1970.36,1268.57 1990.48,1290.4 2010.61,1310.03 2030.74,1327.09 2050.86,1341.24 2070.99,1352.18 2091.12,1359.7 2111.24,1363.65 2131.37,1363.95 2151.49,1360.59 2171.62,1353.64 2191.75,1343.25 2211.87,1329.61 2232,1313.01 2252.12,1293.77 2272.25,1272.27 2292.38,1248.96 "/>
<polyline clip-path="url(#clip782)" style="stroke:#3da44d; stroke-linecap:round; stroke-linejoin:round; stroke-width:4; stroke-opacity:1; fill:none" points="279.759,1272.79 299.885,1272.85 320.011,1273.04 340.137,1273.36 360.263,1273.8 380.39,1274.34 400.516,1274.98 420.642,1275.71 440.768,1276.51 460.894,1277.36 481.021,1278.25 501.147,1279.17 521.273,1280.08 541.399,1280.98 561.525,1281.84 581.652,1282.65 601.778,1283.39 621.904,1284.19 642.03,1285.02 662.156,1285.88 682.282,1286.73 702.409,1287.58 722.535,1288.39 742.661,1289.16 762.787,1289.86 782.913,1290.49 803.04,1291.03 823.166,1291.47 843.292,1291.8 863.418,1292.02 883.544,1292.12 903.67,1292.1 923.797,1291.95 943.923,1291.69 964.049,1291.31 984.175,1290.83 1004.3,1290.26 1024.43,1289.6 1044.55,1288.87 1064.68,1288.08 1084.81,1287.25 1104.93,1286.4 1125.06,1285.54 1145.18,1284.7 1165.31,1283.87 1185.44,1283.1 1205.56,1282.38 1225.69,1281.6 1245.82,1280.77 1265.94,1279.91 1286.07,1279.04 1306.19,1278.18 1326.32,1277.33 1346.45,1276.52 1366.57,1275.77 1386.7,1275.09 1406.83,1274.49 1426.95,1273.99 1447.08,1273.59 1467.2,1273.3 1487.33,1273.14 1507.46,1273.09 1527.58,1273.17 1547.71,1273.37 1567.83,1273.69 1587.96,1274.12 1608.09,1274.66 1628.21,1275.28 1648.34,1275.99 1668.47,1276.76 1688.59,1277.57 1708.72,1278.43 1728.84,1279.3 1748.97,1280.17 1769.1,1281.02 1789.22,1281.83 1809.35,1282.6 1829.48,1283.29 1849.6,1284.05 1869.73,1284.84 1889.85,1285.66 1909.98,1286.48 1930.11,1287.3 1950.23,1288.09 1970.36,1288.84 1990.48,1289.53 2010.61,1290.16 2030.74,1290.7 2050.86,1291.15 2070.99,1291.5 2091.12,1291.74 2111.24,1291.87 2131.37,1291.88 2151.49,1291.77 2171.62,1291.55 2191.75,1291.22 2211.87,1290.78 2232,1290.25 2252.12,1289.64 2272.25,1288.96 2292.38,1288.21 "/>
<polyline clip-path="url(#clip782)" style="stroke:#c271d2; stroke-linecap:round; stroke-linejoin:round; stroke-width:4; stroke-opacity:1; fill:none" points="279.759,86.1857 299.885,90.4366 320.011,103.104 340.137,123.936 360.263,152.514 380.39,188.267 400.516,230.481 420.642,278.311 440.768,330.8 460.894,386.899 481.021,445.485 501.147,505.387 521.273,565.407 541.399,624.345 561.525,681.021 581.652,734.302 601.778,783.123 621.904,835.445 642.03,890.22 662.156,946.353 682.282,1002.72 702.409,1058.2 722.535,1111.68 742.661,1162.08 762.787,1208.41 782.913,1249.73 803.04,1285.22 823.166,1314.17 843.292,1335.99 863.418,1350.26 883.544,1356.69 903.67,1355.15 923.797,1345.66 943.923,1328.43 964.049,1303.79 984.175,1272.24 1004.3,1234.4 1024.43,1191.04 1044.55,1143.02 1064.68,1091.31 1084.81,1036.93 1104.93,980.972 1125.06,924.561 1145.18,868.82 1165.31,814.866 1185.44,763.777 1205.56,716.576 1225.69,665.269 1245.82,610.882 1265.94,554.502 1286.07,497.259 1306.19,440.296 1326.32,384.752 1346.45,331.739 1366.57,282.317 1386.7,237.474 1406.83,198.107 1426.95,165.004 1447.08,138.826 1467.2,120.098 1487.33,109.192 1507.46,106.329 1527.58,111.565 1547.71,124.795 1567.83,145.754 1587.96,174.025 1608.09,209.04 1628.21,250.1 1648.34,296.383 1668.47,346.965 1688.59,400.833 1708.72,456.91 1728.84,514.074 1748.97,571.182 1769.1,627.093 1789.22,680.687 1809.35,730.892 1829.48,776.706 1849.6,826.148 1869.73,878.23 1889.85,931.911 1909.98,986.115 1930.11,1039.76 1950.23,1091.77 1970.36,1141.11 1990.48,1186.79 2010.61,1227.9 2030.74,1263.61 2050.86,1293.22 2070.99,1316.12 2091.12,1331.86 2111.24,1340.13 2131.37,1340.75 2151.49,1333.73 2171.62,1319.19 2191.75,1297.43 2211.87,1268.89 2232,1234.13 2252.12,1193.85 2272.25,1148.86 2292.38,1100.05 "/>
<polyline clip-path="url(#clip782)" style="stroke:#ac8d18; stroke-linecap:round; stroke-linejoin:round; stroke-width:4; stroke-opacity:1; fill:none" points="279.759,1384.24 299.885,1382.21 320.011,1376.16 340.137,1366.2 360.263,1352.55 380.39,1335.47 400.516,1315.31 420.642,1292.46 440.768,1267.38 460.894,1240.58 481.021,1212.59 501.147,1183.98 521.273,1155.3 541.399,1127.15 561.525,1100.07 581.652,1074.62 601.778,1051.3 621.904,1026.3 642.03,1000.13 662.156,973.318 682.282,946.389 702.409,919.887 722.535,894.34 742.661,870.26 762.787,848.129 782.913,828.389 803.04,811.435 823.166,797.606 843.292,787.178 863.418,780.361 883.544,777.291 903.67,778.028 923.797,782.559 943.923,790.792 964.049,802.563 984.175,817.636 1004.3,835.711 1024.43,856.425 1044.55,879.365 1064.68,904.07 1084.81,930.049 1104.93,956.78 1125.06,983.729 1145.18,1010.36 1165.31,1036.13 1185.44,1060.54 1205.56,1083.09 1225.69,1107.6 1245.82,1133.58 1265.94,1160.51 1286.07,1187.86 1306.19,1215.07 1326.32,1241.61 1346.45,1266.93 1366.57,1290.54 1386.7,1311.96 1406.83,1330.77 1426.95,1346.59 1447.08,1359.09 1467.2,1368.04 1487.33,1373.25 1507.46,1374.62 1527.58,1372.11 1547.71,1365.79 1567.83,1355.78 1587.96,1342.28 1608.09,1325.55 1628.21,1305.93 1648.34,1283.82 1668.47,1259.66 1688.59,1233.92 1708.72,1207.14 1728.84,1179.83 1748.97,1152.55 1769.1,1125.84 1789.22,1100.23 1809.35,1076.25 1829.48,1054.36 1849.6,1030.74 1869.73,1005.86 1889.85,980.218 1909.98,954.323 1930.11,928.695 1950.23,903.848 1970.36,880.277 1990.48,858.454 2010.61,838.816 2030.74,821.756 2050.86,807.614 2070.99,796.674 2091.12,789.154 2111.24,785.204 2131.37,784.905 2151.49,788.261 2171.62,795.205 2191.75,805.599 2211.87,819.235 2232,835.84 2252.12,855.082 2272.25,876.576 2292.38,899.893 "/>
<polyline clip-path="url(#clip782)" style="stroke:#00a9ad; stroke-linecap:round; stroke-linejoin:round; stroke-width:4; stroke-opacity:1; fill:none" points="279.759,1292.52 299.885,1292.46 320.011,1292.27 340.137,1291.95 360.263,1291.51 380.39,1290.97 400.516,1290.33 420.642,1289.6 440.768,1288.8 460.894,1287.95 481.021,1287.06 501.147,1286.14 521.273,1285.23 541.399,1284.33 561.525,1283.47 581.652,1282.66 601.778,1281.92 621.904,1281.12 642.03,1280.29 662.156,1279.43 682.282,1278.58 702.409,1277.73 722.535,1276.92 742.661,1276.15 762.787,1275.45 782.913,1274.82 803.04,1274.28 823.166,1273.84 843.292,1273.51 863.418,1273.29 883.544,1273.19 903.67,1273.21 923.797,1273.36 943.923,1273.62 964.049,1274 984.175,1274.48 1004.3,1275.05 1024.43,1275.71 1044.55,1276.44 1064.68,1277.23 1084.81,1278.06 1104.93,1278.91 1125.06,1279.77 1145.18,1280.61 1165.31,1281.44 1185.44,1282.21 1205.56,1282.93 1225.69,1283.71 1245.82,1284.54 1265.94,1285.4 1286.07,1286.27 1306.19,1287.13 1326.32,1287.98 1346.45,1288.79 1366.57,1289.54 1386.7,1290.22 1406.83,1290.82 1426.95,1291.32 1447.08,1291.72 1467.2,1292.01 1487.33,1292.17 1507.46,1292.22 1527.58,1292.14 1547.71,1291.94 1567.83,1291.62 1587.96,1291.19 1608.09,1290.65 1628.21,1290.03 1648.34,1289.32 1668.47,1288.55 1688.59,1287.74 1708.72,1286.88 1728.84,1286.01 1748.97,1285.14 1769.1,1284.29 1789.22,1283.48 1809.35,1282.71 1829.48,1282.02 1849.6,1281.26 1869.73,1280.47 1889.85,1279.65 1909.98,1278.83 1930.11,1278.01 1950.23,1277.22 1970.36,1276.47 1990.48,1275.78 2010.61,1275.15 2030.74,1274.61 2050.86,1274.16 2070.99,1273.81 2091.12,1273.57 2111.24,1273.44 2131.37,1273.43 2151.49,1273.54 2171.62,1273.76 2191.75,1274.09 2211.87,1274.53 2232,1275.06 2252.12,1275.67 2272.25,1276.35 2292.38,1277.1 "/>
</svg>
