<?xml version="1.0" encoding="utf-8"?>
<svg xmlns="http://www.w3.org/2000/svg" xmlns:xlink="http://www.w3.org/1999/xlink" width="600" height="400" viewBox="0 0 2400 1600">
<defs>
  <clipPath id="clip190">
    <rect x="0" y="0" width="2400" height="1600"/>
  </clipPath>
</defs>
<path clip-path="url(#clip190)" d="M0 1600 L2400 1600 L2400 0 L0 0  Z" fill="#ffffff" fill-rule="evenodd" fill-opacity="1"/>
<defs>
  <clipPath id="clip191">
    <rect x="480" y="0" width="1681" height="1600"/>
  </clipPath>
</defs>
<path clip-path="url(#clip190)" d="M257.204 1423.18 L2352.76 1423.18 L2352.76 47.2441 L257.204 47.2441  Z" fill="#ffffff" fill-rule="evenodd" fill-opacity="1"/>
<defs>
  <clipPath id="clip192">
    <rect x="257" y="47" width="2097" height="1377"/>
  </clipPath>
</defs>
<polyline clip-path="url(#clip192)" style="stroke:#000000; stroke-linecap:round; stroke-linejoin:round; stroke-width:2; stroke-opacity:0.1; fill:none" points="316.512,1423.18 316.512,47.2441 "/>
<polyline clip-path="url(#clip192)" style="stroke:#000000; stroke-linecap:round; stroke-linejoin:round; stroke-width:2; stroke-opacity:0.1; fill:none" points="810.746,1423.18 810.746,47.2441 "/>
<polyline clip-path="url(#clip192)" style="stroke:#000000; stroke-linecap:round; stroke-linejoin:round; stroke-width:2; stroke-opacity:0.1; fill:none" points="1304.98,1423.18 1304.98,47.2441 "/>
<polyline clip-path="url(#clip192)" style="stroke:#000000; stroke-linecap:round; stroke-linejoin:round; stroke-width:2; stroke-opacity:0.1; fill:none" points="1799.21,1423.18 1799.21,47.2441 "/>
<polyline clip-path="url(#clip192)" style="stroke:#000000; stroke-linecap:round; stroke-linejoin:round; stroke-width:2; stroke-opacity:0.1; fill:none" points="2293.45,1423.18 2293.45,47.2441 "/>
<polyline clip-path="url(#clip190)" style="stroke:#000000; stroke-linecap:round; stroke-linejoin:round; stroke-width:4; stroke-opacity:1; fill:none" points="257.204,1423.18 2352.76,1423.18 "/>
<polyline clip-path="url(#clip190)" style="stroke:#000000; stroke-linecap:round; stroke-linejoin:round; stroke-width:4; stroke-opacity:1; fill:none" points="316.512,1423.18 316.512,1404.28 "/>
<polyline clip-path="url(#clip190)" style="stroke:#000000; stroke-linecap:round; stroke-linejoin:round; stroke-width:4; stroke-opacity:1; fill:none" points="810.746,1423.18 810.746,1404.28 "/>
<polyline clip-path="url(#clip190)" style="stroke:#000000; stroke-linecap:round; stroke-linejoin:round; stroke-width:4; stroke-opacity:1; fill:none" points="1304.98,1423.18 1304.98,1404.28 "/>
<polyline clip-path="url(#clip190)" style="stroke:#000000; stroke-linecap:round; stroke-linejoin:round; stroke-width:4; stroke-opacity:1; fill:none" points="1799.21,1423.18 1799.21,1404.28 "/>
<polyline clip-path="url(#clip190)" style="stroke:#000000; stroke-linecap:round; stroke-linejoin:round; stroke-width:4; stroke-opacity:1; fill:none" points="2293.45,1423.18 2293.45,1404.28 "/>
<path clip-path="url(#clip190)" d="M293.896 1454.1 Q290.285 1454.1 288.457 1457.66 Q286.651 1461.2 286.651 1468.33 Q286.651 1475.44 288.457 1479.01 Q290.285 1482.55 293.896 1482.55 Q297.531 1482.55 299.336 1479.01 Q301.165 1475.44 301.165 1468.33 Q301.165 1461.2 299.336 1457.66 Q297.531 1454.1 293.896 1454.1 M293.896 1450.39 Q299.707 1450.39 302.762 1455 Q305.841 1459.58 305.841 1468.33 Q305.841 1477.06 302.762 1481.67 Q299.707 1486.25 293.896 1486.25 Q288.086 1486.25 285.008 1481.67 Q281.952 1477.06 281.952 1468.33 Q281.952 1459.58 285.008 1455 Q288.086 1450.39 293.896 1450.39 Z" fill="#000000" fill-rule="nonzero" fill-opacity="1" /><path clip-path="url(#clip190)" d="M314.058 1479.7 L318.943 1479.7 L318.943 1485.58 L314.058 1485.58 L314.058 1479.7 Z" fill="#000000" fill-rule="nonzero" fill-opacity="1" /><path clip-path="url(#clip190)" d="M339.128 1454.1 Q335.517 1454.1 333.688 1457.66 Q331.882 1461.2 331.882 1468.33 Q331.882 1475.44 333.688 1479.01 Q335.517 1482.55 339.128 1482.55 Q342.762 1482.55 344.568 1479.01 Q346.396 1475.44 346.396 1468.33 Q346.396 1461.2 344.568 1457.66 Q342.762 1454.1 339.128 1454.1 M339.128 1450.39 Q344.938 1450.39 347.993 1455 Q351.072 1459.58 351.072 1468.33 Q351.072 1477.06 347.993 1481.67 Q344.938 1486.25 339.128 1486.25 Q333.318 1486.25 330.239 1481.67 Q327.183 1477.06 327.183 1468.33 Q327.183 1459.58 330.239 1455 Q333.318 1450.39 339.128 1450.39 Z" fill="#000000" fill-rule="nonzero" fill-opacity="1" /><path clip-path="url(#clip190)" d="M782.482 1481.64 L798.802 1481.64 L798.802 1485.58 L776.857 1485.58 L776.857 1481.64 Q779.519 1478.89 784.103 1474.26 Q788.709 1469.61 789.89 1468.27 Q792.135 1465.74 793.015 1464.01 Q793.917 1462.25 793.917 1460.56 Q793.917 1457.8 791.973 1456.07 Q790.052 1454.33 786.95 1454.33 Q784.751 1454.33 782.297 1455.09 Q779.867 1455.86 777.089 1457.41 L777.089 1452.69 Q779.913 1451.55 782.367 1450.97 Q784.82 1450.39 786.857 1450.39 Q792.228 1450.39 795.422 1453.08 Q798.616 1455.77 798.616 1460.26 Q798.616 1462.39 797.806 1464.31 Q797.019 1466.2 794.913 1468.8 Q794.334 1469.47 791.232 1472.69 Q788.13 1475.88 782.482 1481.64 Z" fill="#000000" fill-rule="nonzero" fill-opacity="1" /><path clip-path="url(#clip190)" d="M808.616 1479.7 L813.501 1479.7 L813.501 1485.58 L808.616 1485.58 L808.616 1479.7 Z" fill="#000000" fill-rule="nonzero" fill-opacity="1" /><path clip-path="url(#clip190)" d="M823.732 1451.02 L842.088 1451.02 L842.088 1454.96 L828.014 1454.96 L828.014 1463.43 Q829.033 1463.08 830.051 1462.92 Q831.07 1462.73 832.089 1462.73 Q837.876 1462.73 841.255 1465.9 Q844.635 1469.08 844.635 1474.49 Q844.635 1480.07 841.163 1483.17 Q837.69 1486.25 831.371 1486.25 Q829.195 1486.25 826.927 1485.88 Q824.681 1485.51 822.274 1484.77 L822.274 1480.07 Q824.357 1481.2 826.579 1481.76 Q828.801 1482.32 831.278 1482.32 Q835.283 1482.32 837.621 1480.21 Q839.959 1478.1 839.959 1474.49 Q839.959 1470.88 837.621 1468.77 Q835.283 1466.67 831.278 1466.67 Q829.403 1466.67 827.528 1467.08 Q825.677 1467.5 823.732 1468.38 L823.732 1451.02 Z" fill="#000000" fill-rule="nonzero" fill-opacity="1" /><path clip-path="url(#clip190)" d="M1272.14 1451.02 L1290.5 1451.02 L1290.5 1454.96 L1276.43 1454.96 L1276.43 1463.43 Q1277.45 1463.08 1278.46 1462.92 Q1279.48 1462.73 1280.5 1462.73 Q1286.29 1462.73 1289.67 1465.9 Q1293.05 1469.08 1293.05 1474.49 Q1293.05 1480.07 1289.57 1483.17 Q1286.1 1486.25 1279.78 1486.25 Q1277.61 1486.25 1275.34 1485.88 Q1273.09 1485.51 1270.69 1484.77 L1270.69 1480.07 Q1272.77 1481.2 1274.99 1481.76 Q1277.21 1482.32 1279.69 1482.32 Q1283.7 1482.32 1286.03 1480.21 Q1288.37 1478.1 1288.37 1474.49 Q1288.37 1470.88 1286.03 1468.77 Q1283.7 1466.67 1279.69 1466.67 Q1277.82 1466.67 1275.94 1467.08 Q1274.09 1467.5 1272.14 1468.38 L1272.14 1451.02 Z" fill="#000000" fill-rule="nonzero" fill-opacity="1" /><path clip-path="url(#clip190)" d="M1302.26 1479.7 L1307.14 1479.7 L1307.14 1485.58 L1302.26 1485.58 L1302.26 1479.7 Z" fill="#000000" fill-rule="nonzero" fill-opacity="1" /><path clip-path="url(#clip190)" d="M1327.33 1454.1 Q1323.72 1454.1 1321.89 1457.66 Q1320.08 1461.2 1320.08 1468.33 Q1320.08 1475.44 1321.89 1479.01 Q1323.72 1482.55 1327.33 1482.55 Q1330.96 1482.55 1332.77 1479.01 Q1334.6 1475.44 1334.6 1468.33 Q1334.6 1461.2 1332.77 1457.66 Q1330.96 1454.1 1327.33 1454.1 M1327.33 1450.39 Q1333.14 1450.39 1336.2 1455 Q1339.27 1459.58 1339.27 1468.33 Q1339.27 1477.06 1336.2 1481.67 Q1333.14 1486.25 1327.33 1486.25 Q1321.52 1486.25 1318.44 1481.67 Q1315.39 1477.06 1315.39 1468.33 Q1315.39 1459.58 1318.44 1455 Q1321.52 1450.39 1327.33 1450.39 Z" fill="#000000" fill-rule="nonzero" fill-opacity="1" /><path clip-path="url(#clip190)" d="M1765.53 1451.02 L1787.76 1451.02 L1787.76 1453.01 L1775.21 1485.58 L1770.33 1485.58 L1782.13 1454.96 L1765.53 1454.96 L1765.53 1451.02 Z" fill="#000000" fill-rule="nonzero" fill-opacity="1" /><path clip-path="url(#clip190)" d="M1796.88 1479.7 L1801.76 1479.7 L1801.76 1485.58 L1796.88 1485.58 L1796.88 1479.7 Z" fill="#000000" fill-rule="nonzero" fill-opacity="1" /><path clip-path="url(#clip190)" d="M1811.99 1451.02 L1830.35 1451.02 L1830.35 1454.96 L1816.27 1454.96 L1816.27 1463.43 Q1817.29 1463.08 1818.31 1462.92 Q1819.33 1462.73 1820.35 1462.73 Q1826.14 1462.73 1829.51 1465.9 Q1832.89 1469.08 1832.89 1474.49 Q1832.89 1480.07 1829.42 1483.17 Q1825.95 1486.25 1819.63 1486.25 Q1817.45 1486.25 1815.19 1485.88 Q1812.94 1485.51 1810.53 1484.77 L1810.53 1480.07 Q1812.62 1481.2 1814.84 1481.76 Q1817.06 1482.32 1819.54 1482.32 Q1823.54 1482.32 1825.88 1480.21 Q1828.22 1478.1 1828.22 1474.49 Q1828.22 1470.88 1825.88 1468.77 Q1823.54 1466.67 1819.54 1466.67 Q1817.66 1466.67 1815.79 1467.08 Q1813.94 1467.5 1811.99 1468.38 L1811.99 1451.02 Z" fill="#000000" fill-rule="nonzero" fill-opacity="1" /><path clip-path="url(#clip190)" d="M2245.52 1481.64 L2253.16 1481.64 L2253.16 1455.28 L2244.85 1456.95 L2244.85 1452.69 L2253.11 1451.02 L2257.79 1451.02 L2257.79 1481.64 L2265.43 1481.64 L2265.43 1485.58 L2245.52 1485.58 L2245.52 1481.64 Z" fill="#000000" fill-rule="nonzero" fill-opacity="1" /><path clip-path="url(#clip190)" d="M2284.87 1454.1 Q2281.26 1454.1 2279.43 1457.66 Q2277.63 1461.2 2277.63 1468.33 Q2277.63 1475.44 2279.43 1479.01 Q2281.26 1482.55 2284.87 1482.55 Q2288.51 1482.55 2290.31 1479.01 Q2292.14 1475.44 2292.14 1468.33 Q2292.14 1461.2 2290.31 1457.66 Q2288.51 1454.1 2284.87 1454.1 M2284.87 1450.39 Q2290.68 1450.39 2293.74 1455 Q2296.82 1459.58 2296.82 1468.33 Q2296.82 1477.06 2293.74 1481.67 Q2290.68 1486.25 2284.87 1486.25 Q2279.06 1486.25 2275.98 1481.67 Q2272.93 1477.06 2272.93 1468.33 Q2272.93 1459.58 2275.98 1455 Q2279.06 1450.39 2284.87 1450.39 Z" fill="#000000" fill-rule="nonzero" fill-opacity="1" /><path clip-path="url(#clip190)" d="M2305.03 1479.7 L2309.92 1479.7 L2309.92 1485.58 L2305.03 1485.58 L2305.03 1479.7 Z" fill="#000000" fill-rule="nonzero" fill-opacity="1" /><path clip-path="url(#clip190)" d="M2330.1 1454.1 Q2326.49 1454.1 2324.66 1457.66 Q2322.86 1461.2 2322.86 1468.33 Q2322.86 1475.44 2324.66 1479.01 Q2326.49 1482.55 2330.1 1482.55 Q2333.74 1482.55 2335.54 1479.01 Q2337.37 1475.44 2337.37 1468.33 Q2337.37 1461.2 2335.54 1457.66 Q2333.74 1454.1 2330.1 1454.1 M2330.1 1450.39 Q2335.91 1450.39 2338.97 1455 Q2342.05 1459.58 2342.05 1468.33 Q2342.05 1477.06 2338.97 1481.67 Q2335.91 1486.25 2330.1 1486.25 Q2324.29 1486.25 2321.21 1481.67 Q2318.16 1477.06 2318.16 1468.33 Q2318.16 1459.58 2321.21 1455 Q2324.29 1450.39 2330.1 1450.39 Z" fill="#000000" fill-rule="nonzero" fill-opacity="1" /><path clip-path="url(#clip190)" d="M1304.04 1522.27 L1304.04 1532.4 L1316.1 1532.4 L1316.1 1536.95 L1304.04 1536.95 L1304.04 1556.3 Q1304.04 1560.66 1305.22 1561.9 Q1306.43 1563.14 1310.09 1563.14 L1316.1 1563.14 L1316.1 1568.04 L1310.09 1568.04 Q1303.31 1568.04 1300.73 1565.53 Q1298.15 1562.98 1298.15 1556.3 L1298.15 1536.95 L1293.86 1536.95 L1293.86 1532.4 L1298.15 1532.4 L1298.15 1522.27 L1304.04 1522.27 Z" fill="#000000" fill-rule="nonzero" fill-opacity="1" /><polyline clip-path="url(#clip192)" style="stroke:#000000; stroke-linecap:round; stroke-linejoin:round; stroke-width:2; stroke-opacity:0.1; fill:none" points="257.204,1308.13 2352.76,1308.13 "/>
<polyline clip-path="url(#clip192)" style="stroke:#000000; stroke-linecap:round; stroke-linejoin:round; stroke-width:2; stroke-opacity:0.1; fill:none" points="257.204,1122.51 2352.76,1122.51 "/>
<polyline clip-path="url(#clip192)" style="stroke:#000000; stroke-linecap:round; stroke-linejoin:round; stroke-width:2; stroke-opacity:0.1; fill:none" points="257.204,936.886 2352.76,936.886 "/>
<polyline clip-path="url(#clip192)" style="stroke:#000000; stroke-linecap:round; stroke-linejoin:round; stroke-width:2; stroke-opacity:0.1; fill:none" points="257.204,751.265 2352.76,751.265 "/>
<polyline clip-path="url(#clip192)" style="stroke:#000000; stroke-linecap:round; stroke-linejoin:round; stroke-width:2; stroke-opacity:0.1; fill:none" points="257.204,565.643 2352.76,565.643 "/>
<polyline clip-path="url(#clip192)" style="stroke:#000000; stroke-linecap:round; stroke-linejoin:round; stroke-width:2; stroke-opacity:0.1; fill:none" points="257.204,380.022 2352.76,380.022 "/>
<polyline clip-path="url(#clip192)" style="stroke:#000000; stroke-linecap:round; stroke-linejoin:round; stroke-width:2; stroke-opacity:0.1; fill:none" points="257.204,194.4 2352.76,194.4 "/>
<polyline clip-path="url(#clip190)" style="stroke:#000000; stroke-linecap:round; stroke-linejoin:round; stroke-width:4; stroke-opacity:1; fill:none" points="257.204,1423.18 257.204,47.2441 "/>
<polyline clip-path="url(#clip190)" style="stroke:#000000; stroke-linecap:round; stroke-linejoin:round; stroke-width:4; stroke-opacity:1; fill:none" points="257.204,1308.13 276.102,1308.13 "/>
<polyline clip-path="url(#clip190)" style="stroke:#000000; stroke-linecap:round; stroke-linejoin:round; stroke-width:4; stroke-opacity:1; fill:none" points="257.204,1122.51 276.102,1122.51 "/>
<polyline clip-path="url(#clip190)" style="stroke:#000000; stroke-linecap:round; stroke-linejoin:round; stroke-width:4; stroke-opacity:1; fill:none" points="257.204,936.886 276.102,936.886 "/>
<polyline clip-path="url(#clip190)" style="stroke:#000000; stroke-linecap:round; stroke-linejoin:round; stroke-width:4; stroke-opacity:1; fill:none" points="257.204,751.265 276.102,751.265 "/>
<polyline clip-path="url(#clip190)" style="stroke:#000000; stroke-linecap:round; stroke-linejoin:round; stroke-width:4; stroke-opacity:1; fill:none" points="257.204,565.643 276.102,565.643 "/>
<polyline clip-path="url(#clip190)" style="stroke:#000000; stroke-linecap:round; stroke-linejoin:round; stroke-width:4; stroke-opacity:1; fill:none" points="257.204,380.022 276.102,380.022 "/>
<polyline clip-path="url(#clip190)" style="stroke:#000000; stroke-linecap:round; stroke-linejoin:round; stroke-width:4; stroke-opacity:1; fill:none" points="257.204,194.4 276.102,194.4 "/>
<path clip-path="url(#clip190)" d="M115.256 1308.58 L144.931 1308.58 L144.931 1312.52 L115.256 1312.52 L115.256 1308.58 Z" fill="#000000" fill-rule="nonzero" fill-opacity="1" /><path clip-path="url(#clip190)" d="M155.834 1321.47 L163.473 1321.47 L163.473 1295.11 L155.163 1296.78 L155.163 1292.52 L163.427 1290.85 L168.102 1290.85 L168.102 1321.47 L175.741 1321.47 L175.741 1325.41 L155.834 1325.41 L155.834 1321.47 Z" fill="#000000" fill-rule="nonzero" fill-opacity="1" /><path clip-path="url(#clip190)" d="M185.186 1319.53 L190.07 1319.53 L190.07 1325.41 L185.186 1325.41 L185.186 1319.53 Z" fill="#000000" fill-rule="nonzero" fill-opacity="1" /><path clip-path="url(#clip190)" d="M200.301 1290.85 L218.658 1290.85 L218.658 1294.78 L204.584 1294.78 L204.584 1303.26 Q205.602 1302.91 206.621 1302.75 Q207.639 1302.56 208.658 1302.56 Q214.445 1302.56 217.824 1305.73 Q221.204 1308.9 221.204 1314.32 Q221.204 1319.9 217.732 1323 Q214.26 1326.08 207.94 1326.08 Q205.764 1326.08 203.496 1325.71 Q201.25 1325.34 198.843 1324.6 L198.843 1319.9 Q200.926 1321.03 203.149 1321.59 Q205.371 1322.15 207.848 1322.15 Q211.852 1322.15 214.19 1320.04 Q216.528 1317.93 216.528 1314.32 Q216.528 1310.71 214.19 1308.6 Q211.852 1306.5 207.848 1306.5 Q205.973 1306.5 204.098 1306.91 Q202.246 1307.33 200.301 1308.21 L200.301 1290.85 Z" fill="#000000" fill-rule="nonzero" fill-opacity="1" /><path clip-path="url(#clip190)" d="M114.26 1122.96 L143.936 1122.96 L143.936 1126.89 L114.26 1126.89 L114.26 1122.96 Z" fill="#000000" fill-rule="nonzero" fill-opacity="1" /><path clip-path="url(#clip190)" d="M154.839 1135.85 L162.477 1135.85 L162.477 1109.49 L154.167 1111.15 L154.167 1106.89 L162.431 1105.23 L167.107 1105.23 L167.107 1135.85 L174.746 1135.85 L174.746 1139.79 L154.839 1139.79 L154.839 1135.85 Z" fill="#000000" fill-rule="nonzero" fill-opacity="1" /><path clip-path="url(#clip190)" d="M184.19 1133.91 L189.075 1133.91 L189.075 1139.79 L184.19 1139.79 L184.19 1133.91 Z" fill="#000000" fill-rule="nonzero" fill-opacity="1" /><path clip-path="url(#clip190)" d="M209.26 1108.31 Q205.649 1108.31 203.82 1111.87 Q202.014 1115.41 202.014 1122.54 Q202.014 1129.65 203.82 1133.21 Q205.649 1136.76 209.26 1136.76 Q212.894 1136.76 214.699 1133.21 Q216.528 1129.65 216.528 1122.54 Q216.528 1115.41 214.699 1111.87 Q212.894 1108.31 209.26 1108.31 M209.26 1104.6 Q215.07 1104.6 218.125 1109.21 Q221.204 1113.79 221.204 1122.54 Q221.204 1131.27 218.125 1135.88 Q215.07 1140.46 209.26 1140.46 Q203.449 1140.46 200.371 1135.88 Q197.315 1131.27 197.315 1122.54 Q197.315 1113.79 200.371 1109.21 Q203.449 1104.6 209.26 1104.6 Z" fill="#000000" fill-rule="nonzero" fill-opacity="1" /><path clip-path="url(#clip190)" d="M115.256 937.338 L144.931 937.338 L144.931 941.273 L115.256 941.273 L115.256 937.338 Z" fill="#000000" fill-rule="nonzero" fill-opacity="1" /><path clip-path="url(#clip190)" d="M165.024 922.685 Q161.413 922.685 159.584 926.25 Q157.778 929.791 157.778 936.921 Q157.778 944.027 159.584 947.592 Q161.413 951.134 165.024 951.134 Q168.658 951.134 170.464 947.592 Q172.292 944.027 172.292 936.921 Q172.292 929.791 170.464 926.25 Q168.658 922.685 165.024 922.685 M165.024 918.981 Q170.834 918.981 173.889 923.588 Q176.968 928.171 176.968 936.921 Q176.968 945.648 173.889 950.254 Q170.834 954.838 165.024 954.838 Q159.214 954.838 156.135 950.254 Q153.079 945.648 153.079 936.921 Q153.079 928.171 156.135 923.588 Q159.214 918.981 165.024 918.981 Z" fill="#000000" fill-rule="nonzero" fill-opacity="1" /><path clip-path="url(#clip190)" d="M185.186 948.287 L190.07 948.287 L190.07 954.166 L185.186 954.166 L185.186 948.287 Z" fill="#000000" fill-rule="nonzero" fill-opacity="1" /><path clip-path="url(#clip190)" d="M200.301 919.606 L218.658 919.606 L218.658 923.541 L204.584 923.541 L204.584 932.014 Q205.602 931.666 206.621 931.504 Q207.639 931.319 208.658 931.319 Q214.445 931.319 217.824 934.49 Q221.204 937.662 221.204 943.078 Q221.204 948.657 217.732 951.759 Q214.26 954.838 207.94 954.838 Q205.764 954.838 203.496 954.467 Q201.25 954.097 198.843 953.356 L198.843 948.657 Q200.926 949.791 203.149 950.347 Q205.371 950.902 207.848 950.902 Q211.852 950.902 214.19 948.796 Q216.528 946.689 216.528 943.078 Q216.528 939.467 214.19 937.361 Q211.852 935.254 207.848 935.254 Q205.973 935.254 204.098 935.671 Q202.246 936.088 200.301 936.967 L200.301 919.606 Z" fill="#000000" fill-rule="nonzero" fill-opacity="1" /><path clip-path="url(#clip190)" d="M164.028 737.064 Q160.417 737.064 158.589 740.628 Q156.783 744.17 156.783 751.3 Q156.783 758.406 158.589 761.971 Q160.417 765.512 164.028 765.512 Q167.663 765.512 169.468 761.971 Q171.297 758.406 171.297 751.3 Q171.297 744.17 169.468 740.628 Q167.663 737.064 164.028 737.064 M164.028 733.36 Q169.839 733.36 172.894 737.966 Q175.973 742.55 175.973 751.3 Q175.973 760.026 172.894 764.633 Q169.839 769.216 164.028 769.216 Q158.218 769.216 155.14 764.633 Q152.084 760.026 152.084 751.3 Q152.084 742.55 155.14 737.966 Q158.218 733.36 164.028 733.36 Z" fill="#000000" fill-rule="nonzero" fill-opacity="1" /><path clip-path="url(#clip190)" d="M184.19 762.665 L189.075 762.665 L189.075 768.545 L184.19 768.545 L184.19 762.665 Z" fill="#000000" fill-rule="nonzero" fill-opacity="1" /><path clip-path="url(#clip190)" d="M209.26 737.064 Q205.649 737.064 203.82 740.628 Q202.014 744.17 202.014 751.3 Q202.014 758.406 203.82 761.971 Q205.649 765.512 209.26 765.512 Q212.894 765.512 214.699 761.971 Q216.528 758.406 216.528 751.3 Q216.528 744.17 214.699 740.628 Q212.894 737.064 209.26 737.064 M209.26 733.36 Q215.07 733.36 218.125 737.966 Q221.204 742.55 221.204 751.3 Q221.204 760.026 218.125 764.633 Q215.07 769.216 209.26 769.216 Q203.449 769.216 200.371 764.633 Q197.315 760.026 197.315 751.3 Q197.315 742.55 200.371 737.966 Q203.449 733.36 209.26 733.36 Z" fill="#000000" fill-rule="nonzero" fill-opacity="1" /><path clip-path="url(#clip190)" d="M165.024 551.442 Q161.413 551.442 159.584 555.007 Q157.778 558.548 157.778 565.678 Q157.778 572.785 159.584 576.349 Q161.413 579.891 165.024 579.891 Q168.658 579.891 170.464 576.349 Q172.292 572.785 172.292 565.678 Q172.292 558.548 170.464 555.007 Q168.658 551.442 165.024 551.442 M165.024 547.738 Q170.834 547.738 173.889 552.345 Q176.968 556.928 176.968 565.678 Q176.968 574.405 173.889 579.011 Q170.834 583.595 165.024 583.595 Q159.214 583.595 156.135 579.011 Q153.079 574.405 153.079 565.678 Q153.079 556.928 156.135 552.345 Q159.214 547.738 165.024 547.738 Z" fill="#000000" fill-rule="nonzero" fill-opacity="1" /><path clip-path="url(#clip190)" d="M185.186 577.044 L190.07 577.044 L190.07 582.923 L185.186 582.923 L185.186 577.044 Z" fill="#000000" fill-rule="nonzero" fill-opacity="1" /><path clip-path="url(#clip190)" d="M200.301 548.363 L218.658 548.363 L218.658 552.299 L204.584 552.299 L204.584 560.771 Q205.602 560.423 206.621 560.261 Q207.639 560.076 208.658 560.076 Q214.445 560.076 217.824 563.248 Q221.204 566.419 221.204 571.835 Q221.204 577.414 217.732 580.516 Q214.26 583.595 207.94 583.595 Q205.764 583.595 203.496 583.224 Q201.25 582.854 198.843 582.113 L198.843 577.414 Q200.926 578.548 203.149 579.104 Q205.371 579.659 207.848 579.659 Q211.852 579.659 214.19 577.553 Q216.528 575.447 216.528 571.835 Q216.528 568.224 214.19 566.118 Q211.852 564.011 207.848 564.011 Q205.973 564.011 204.098 564.428 Q202.246 564.845 200.301 565.724 L200.301 548.363 Z" fill="#000000" fill-rule="nonzero" fill-opacity="1" /><path clip-path="url(#clip190)" d="M154.839 393.367 L162.477 393.367 L162.477 367.001 L154.167 368.668 L154.167 364.409 L162.431 362.742 L167.107 362.742 L167.107 393.367 L174.746 393.367 L174.746 397.302 L154.839 397.302 L154.839 393.367 Z" fill="#000000" fill-rule="nonzero" fill-opacity="1" /><path clip-path="url(#clip190)" d="M184.19 391.422 L189.075 391.422 L189.075 397.302 L184.19 397.302 L184.19 391.422 Z" fill="#000000" fill-rule="nonzero" fill-opacity="1" /><path clip-path="url(#clip190)" d="M209.26 365.821 Q205.649 365.821 203.82 369.385 Q202.014 372.927 202.014 380.057 Q202.014 387.163 203.82 390.728 Q205.649 394.269 209.26 394.269 Q212.894 394.269 214.699 390.728 Q216.528 387.163 216.528 380.057 Q216.528 372.927 214.699 369.385 Q212.894 365.821 209.26 365.821 M209.26 362.117 Q215.07 362.117 218.125 366.723 Q221.204 371.307 221.204 380.057 Q221.204 388.783 218.125 393.39 Q215.07 397.973 209.26 397.973 Q203.449 397.973 200.371 393.39 Q197.315 388.783 197.315 380.057 Q197.315 371.307 200.371 366.723 Q203.449 362.117 209.26 362.117 Z" fill="#000000" fill-rule="nonzero" fill-opacity="1" /><path clip-path="url(#clip190)" d="M155.834 207.745 L163.473 207.745 L163.473 181.38 L155.163 183.046 L155.163 178.787 L163.427 177.12 L168.102 177.12 L168.102 207.745 L175.741 207.745 L175.741 211.68 L155.834 211.68 L155.834 207.745 Z" fill="#000000" fill-rule="nonzero" fill-opacity="1" /><path clip-path="url(#clip190)" d="M185.186 205.801 L190.07 205.801 L190.07 211.68 L185.186 211.68 L185.186 205.801 Z" fill="#000000" fill-rule="nonzero" fill-opacity="1" /><path clip-path="url(#clip190)" d="M200.301 177.12 L218.658 177.12 L218.658 181.056 L204.584 181.056 L204.584 189.528 Q205.602 189.181 206.621 189.019 Q207.639 188.833 208.658 188.833 Q214.445 188.833 217.824 192.005 Q221.204 195.176 221.204 200.593 Q221.204 206.171 217.732 209.273 Q214.26 212.352 207.94 212.352 Q205.764 212.352 203.496 211.981 Q201.25 211.611 198.843 210.87 L198.843 206.171 Q200.926 207.305 203.149 207.861 Q205.371 208.417 207.848 208.417 Q211.852 208.417 214.19 206.31 Q216.528 204.204 216.528 200.593 Q216.528 196.981 214.19 194.875 Q211.852 192.768 207.848 192.768 Q205.973 192.768 204.098 193.185 Q202.246 193.602 200.301 194.481 L200.301 177.12 Z" fill="#000000" fill-rule="nonzero" fill-opacity="1" /><path clip-path="url(#clip190)" d="M20.8447 948.702 Q20.8447 955.704 26.0645 959.842 Q31.2844 963.948 40.2919 963.948 Q49.2675 963.948 54.4874 959.842 Q59.7073 955.704 59.7073 948.702 Q59.7073 941.7 54.4874 937.626 Q49.2675 933.52 40.2919 933.52 Q31.2844 933.52 26.0645 937.626 Q20.8447 941.7 20.8447 948.702 M15.6248 948.702 Q15.6248 938.708 22.3406 932.724 Q29.0246 926.74 40.2919 926.74 Q51.5274 926.74 58.2432 932.724 Q64.9272 938.708 64.9272 948.702 Q64.9272 958.728 58.2432 964.743 Q51.5592 970.727 40.2919 970.727 Q29.0246 970.727 22.3406 964.743 Q15.6248 958.728 15.6248 948.702 Z" fill="#000000" fill-rule="nonzero" fill-opacity="1" /><path clip-path="url(#clip190)" d="M49.9359 917.542 L28.3562 917.542 L28.3562 911.685 L49.7131 911.685 Q54.7739 911.685 57.3202 909.712 Q59.8346 907.739 59.8346 903.792 Q59.8346 899.049 56.8109 896.312 Q53.7872 893.543 48.5673 893.543 L28.3562 893.543 L28.3562 887.687 L64.0042 887.687 L64.0042 893.543 L58.5296 893.543 Q61.7762 895.676 63.3676 898.508 Q64.9272 901.309 64.9272 905.033 Q64.9272 911.176 61.1078 914.359 Q57.2883 917.542 49.9359 917.542 M27.4968 902.805 L27.4968 902.805 Z" fill="#000000" fill-rule="nonzero" fill-opacity="1" /><path clip-path="url(#clip190)" d="M18.2347 869.831 L28.3562 869.831 L28.3562 857.768 L32.9077 857.768 L32.9077 869.831 L52.2594 869.831 Q56.6199 869.831 57.8613 868.653 Q59.1026 867.444 59.1026 863.783 L59.1026 857.768 L64.0042 857.768 L64.0042 863.783 Q64.0042 870.563 61.4897 873.141 Q58.9434 875.719 52.2594 875.719 L32.9077 875.719 L32.9077 880.016 L28.3562 880.016 L28.3562 875.719 L18.2347 875.719 L18.2347 869.831 Z" fill="#000000" fill-rule="nonzero" fill-opacity="1" /><path clip-path="url(#clip190)" d="M58.657 844.4 L77.5631 844.4 L77.5631 850.288 L28.3562 850.288 L28.3562 844.4 L33.7671 844.4 Q30.5842 842.554 29.0564 839.753 Q27.4968 836.92 27.4968 833.005 Q27.4968 826.512 32.6531 822.47 Q37.8093 818.396 46.212 818.396 Q54.6147 818.396 59.771 822.47 Q64.9272 826.512 64.9272 833.005 Q64.9272 836.92 63.3994 839.753 Q61.8398 842.554 58.657 844.4 M46.212 824.475 Q39.7508 824.475 36.0905 827.149 Q32.3984 829.79 32.3984 834.437 Q32.3984 839.084 36.0905 841.758 Q39.7508 844.4 46.212 844.4 Q52.6732 844.4 56.3653 841.758 Q60.0256 839.084 60.0256 834.437 Q60.0256 829.79 56.3653 827.149 Q52.6732 824.475 46.212 824.475 Z" fill="#000000" fill-rule="nonzero" fill-opacity="1" /><path clip-path="url(#clip190)" d="M49.9359 809.293 L28.3562 809.293 L28.3562 803.436 L49.7131 803.436 Q54.7739 803.436 57.3202 801.463 Q59.8346 799.49 59.8346 795.543 Q59.8346 790.801 56.8109 788.063 Q53.7872 785.294 48.5673 785.294 L28.3562 785.294 L28.3562 779.438 L64.0042 779.438 L64.0042 785.294 L58.5296 785.294 Q61.7762 787.427 63.3676 790.259 Q64.9272 793.06 64.9272 796.784 Q64.9272 802.927 61.1078 806.11 Q57.2883 809.293 49.9359 809.293 M27.4968 794.556 L27.4968 794.556 Z" fill="#000000" fill-rule="nonzero" fill-opacity="1" /><path clip-path="url(#clip190)" d="M18.2347 761.582 L28.3562 761.582 L28.3562 749.519 L32.9077 749.519 L32.9077 761.582 L52.2594 761.582 Q56.6199 761.582 57.8613 760.404 Q59.1026 759.195 59.1026 755.534 L59.1026 749.519 L64.0042 749.519 L64.0042 755.534 Q64.0042 762.314 61.4897 764.892 Q58.9434 767.47 52.2594 767.47 L32.9077 767.47 L32.9077 771.767 L28.3562 771.767 L28.3562 767.47 L18.2347 767.47 L18.2347 761.582 Z" fill="#000000" fill-rule="nonzero" fill-opacity="1" /><path clip-path="url(#clip190)" d="M21.7677 735.132 L39.6235 735.132 L39.6235 727.048 Q39.6235 722.56 37.3 720.109 Q34.9765 717.659 30.6797 717.659 Q26.4147 717.659 24.0912 720.109 Q21.7677 722.56 21.7677 727.048 L21.7677 735.132 M16.4842 741.562 L16.4842 727.048 Q16.4842 719.059 20.1126 714.985 Q23.7092 710.879 30.6797 710.879 Q37.7138 710.879 41.3104 714.985 Q44.907 719.059 44.907 727.048 L44.907 735.132 L64.0042 735.132 L64.0042 741.562 L16.4842 741.562 Z" fill="#000000" fill-rule="nonzero" fill-opacity="1" /><path clip-path="url(#clip190)" d="M32.4621 691.018 Q32.4621 695.729 36.1542 698.466 Q39.8145 701.203 46.212 701.203 Q52.6095 701.203 56.3017 698.498 Q59.9619 695.761 59.9619 691.018 Q59.9619 686.339 56.2698 683.602 Q52.5777 680.865 46.212 680.865 Q39.8781 680.865 36.186 683.602 Q32.4621 686.339 32.4621 691.018 M27.4968 691.018 Q27.4968 683.379 32.4621 679.019 Q37.4273 674.658 46.212 674.658 Q54.9649 674.658 59.9619 679.019 Q64.9272 683.379 64.9272 691.018 Q64.9272 698.689 59.9619 703.049 Q54.9649 707.378 46.212 707.378 Q37.4273 707.378 32.4621 703.049 Q27.4968 698.689 27.4968 691.018 Z" fill="#000000" fill-rule="nonzero" fill-opacity="1" /><path clip-path="url(#clip190)" d="M29.4065 642.225 L34.9447 642.225 Q33.6716 644.708 33.035 647.381 Q32.3984 650.055 32.3984 652.919 Q32.3984 657.28 33.7352 659.476 Q35.072 661.64 37.7456 661.64 Q39.7826 661.64 40.9603 660.081 Q42.1061 658.521 43.1565 653.81 L43.6021 651.805 Q44.9389 645.567 47.3897 642.957 Q49.8086 640.315 54.1691 640.315 Q59.1344 640.315 62.0308 644.262 Q64.9272 648.177 64.9272 655.052 Q64.9272 657.916 64.3543 661.036 Q63.8132 664.123 62.6992 667.56 L56.6518 667.56 Q58.3387 664.314 59.198 661.163 Q60.0256 658.012 60.0256 654.924 Q60.0256 650.787 58.6251 648.559 Q57.1929 646.331 54.6147 646.331 Q52.2276 646.331 50.9545 647.954 Q49.6813 649.545 48.5037 654.988 L48.0262 657.025 Q46.8804 662.468 44.5251 664.887 Q42.138 667.306 38.0002 667.306 Q32.9713 667.306 30.2341 663.741 Q27.4968 660.176 27.4968 653.62 Q27.4968 650.373 27.9743 647.508 Q28.4517 644.644 29.4065 642.225 Z" fill="#000000" fill-rule="nonzero" fill-opacity="1" /><path clip-path="url(#clip190)" d="M28.3562 630.989 L28.3562 625.133 L64.0042 625.133 L64.0042 630.989 L28.3562 630.989 M14.479 630.989 L14.479 625.133 L21.895 625.133 L21.895 630.989 L14.479 630.989 Z" fill="#000000" fill-rule="nonzero" fill-opacity="1" /><path clip-path="url(#clip190)" d="M18.2347 607.086 L28.3562 607.086 L28.3562 595.023 L32.9077 595.023 L32.9077 607.086 L52.2594 607.086 Q56.6199 607.086 57.8613 605.909 Q59.1026 604.699 59.1026 601.039 L59.1026 595.023 L64.0042 595.023 L64.0042 601.039 Q64.0042 607.818 61.4897 610.396 Q58.9434 612.974 52.2594 612.974 L32.9077 612.974 L32.9077 617.271 L28.3562 617.271 L28.3562 612.974 L18.2347 612.974 L18.2347 607.086 Z" fill="#000000" fill-rule="nonzero" fill-opacity="1" /><path clip-path="url(#clip190)" d="M28.3562 587.321 L28.3562 581.464 L64.0042 581.464 L64.0042 587.321 L28.3562 587.321 M14.479 587.321 L14.479 581.464 L21.895 581.464 L21.895 587.321 L14.479 587.321 Z" fill="#000000" fill-rule="nonzero" fill-opacity="1" /><path clip-path="url(#clip190)" d="M32.4621 555.397 Q32.4621 560.107 36.1542 562.845 Q39.8145 565.582 46.212 565.582 Q52.6095 565.582 56.3017 562.876 Q59.9619 560.139 59.9619 555.397 Q59.9619 550.718 56.2698 547.981 Q52.5777 545.243 46.212 545.243 Q39.8781 545.243 36.186 547.981 Q32.4621 550.718 32.4621 555.397 M27.4968 555.397 Q27.4968 547.758 32.4621 543.397 Q37.4273 539.037 46.212 539.037 Q54.9649 539.037 59.9619 543.397 Q64.9272 547.758 64.9272 555.397 Q64.9272 563.067 59.9619 567.428 Q54.9649 571.757 46.212 571.757 Q37.4273 571.757 32.4621 567.428 Q27.4968 563.067 27.4968 555.397 Z" fill="#000000" fill-rule="nonzero" fill-opacity="1" /><path clip-path="url(#clip190)" d="M42.4881 499.697 L64.0042 499.697 L64.0042 505.553 L42.679 505.553 Q37.6183 505.553 35.1038 507.527 Q32.5894 509.5 32.5894 513.447 Q32.5894 518.189 35.6131 520.926 Q38.6368 523.664 43.8567 523.664 L64.0042 523.664 L64.0042 529.552 L28.3562 529.552 L28.3562 523.664 L33.8944 523.664 Q30.6797 521.563 29.0883 518.73 Q27.4968 515.866 27.4968 512.142 Q27.4968 505.999 31.3163 502.848 Q35.1038 499.697 42.4881 499.697 Z" fill="#000000" fill-rule="nonzero" fill-opacity="1" /><polyline clip-path="url(#clip192)" style="stroke:#009af9; stroke-linecap:round; stroke-linejoin:round; stroke-width:4; stroke-opacity:1; fill:none" points="316.512,1355.7 336.281,1352.76 356.051,1344.01 375.82,1329.62 395.59,1309.88 415.359,1285.18 435.128,1256.02 454.898,1222.98 474.667,1186.72 494.436,1147.96 514.206,1107.49 533.975,1066.11 553.744,1024.65 573.514,983.93 593.283,944.778 613.052,907.97 632.822,868.549 652.591,827.304 672.361,785.059 692.13,742.658 711.899,700.951 731.669,660.772 751.438,622.923 771.207,588.161 790.977,557.183 810.746,530.608 830.515,508.966 850.285,492.692 870.054,482.11 889.823,477.432 909.593,478.752 929.362,486.043 949.132,499.159 968.901,517.838 988.67,541.707 1008.44,570.288 1028.21,603.01 1047.98,639.217 1067.75,678.187 1087.52,719.139 1107.29,761.255 1127.06,803.691 1146.83,845.601 1166.59,886.144 1186.36,924.511 1206.13,965.628 1225.9,1008.67 1245.67,1052.79 1265.44,1097.08 1285.21,1140.68 1304.98,1182.71 1324.75,1222.32 1344.52,1258.72 1364.29,1291.19 1384.06,1319.08 1403.83,1341.83 1423.6,1358.98 1443.37,1370.19 1463.13,1375.24 1482.9,1374.03 1502.67,1366.57 1522.44,1353.03 1542.21,1333.66 1561.98,1308.87 1581.75,1279.13 1601.52,1245.06 1621.29,1207.32 1641.06,1166.68 1660.83,1123.94 1680.6,1079.97 1700.37,1035.64 1720.14,991.836 1739.91,949.437 1759.68,909.289 1779.44,866.502 1799.21,821.931 1818.98,776.468 1838.75,731.022 1858.52,686.502 1878.29,643.797 1898.06,603.763 1917.83,567.201 1937.6,534.84 1957.37,507.329 1977.14,485.217 1996.91,468.948 2016.68,458.846 2036.45,455.113 2056.22,457.824 2075.98,466.925 2095.75,482.233 2115.52,503.444 2135.29,530.131 2155.06,561.763 2174.83,597.705 2194.6,637.24 2214.37,679.576 2234.14,723.866 2253.91,769.226 2273.68,814.748 2293.45,859.52 "/>
<polyline clip-path="url(#clip192)" style="stroke:#e26f46; stroke-linecap:round; stroke-linejoin:round; stroke-width:4; stroke-opacity:1; fill:none" points="316.512,728.029 336.281,725.936 356.051,719.7 375.82,709.443 395.59,695.373 415.359,677.77 435.128,656.987 454.898,633.438 474.667,607.596 494.436,579.976 514.206,551.132 533.975,521.639 553.744,492.089 573.514,463.072 593.283,435.168 613.052,408.935 632.822,380.84 652.591,351.445 672.361,321.337 692.13,291.118 711.899,261.394 731.669,232.758 751.438,205.783 771.207,181.009 790.977,158.931 810.746,139.991 830.515,124.567 850.285,112.968 870.054,105.427 889.823,102.093 909.593,103.033 929.362,108.229 949.132,117.577 968.901,130.89 988.67,147.901 1008.44,168.271 1028.21,191.591 1047.98,217.396 1067.75,245.17 1087.52,274.356 1107.29,304.372 1127.06,334.616 1146.83,364.485 1166.59,393.38 1186.36,420.724 1206.13,450.028 1225.9,480.706 1245.67,512.145 1265.44,543.716 1285.21,574.787 1304.98,604.738 1324.75,632.968 1344.52,658.914 1364.29,682.056 1384.06,701.932 1403.83,718.144 1423.6,730.368 1443.37,738.359 1463.13,741.958 1482.9,741.092 1502.67,735.78 1522.44,726.126 1542.21,712.325 1561.98,694.652 1581.75,673.461 1601.52,649.175 1621.29,622.281 1641.06,593.316 1660.83,562.859 1680.6,531.52 1700.37,499.925 1720.14,468.706 1739.91,438.488 1759.68,409.875 1779.44,379.381 1799.21,347.616 1818.98,315.214 1838.75,282.825 1858.52,251.095 1878.29,220.66 1898.06,192.128 1917.83,166.07 1937.6,143.007 1957.37,123.4 1977.14,107.641 1996.91,96.0459 2016.68,88.8461 2036.45,86.1857 2056.22,88.1179 2075.98,94.6041 2095.75,105.515 2115.52,120.631 2135.29,139.651 2155.06,162.195 2174.83,187.811 2194.6,215.987 2214.37,246.159 2234.14,277.725 2253.91,310.053 2273.68,342.496 2293.45,374.405 "/>
<polyline clip-path="url(#clip192)" style="stroke:#3da44d; stroke-linecap:round; stroke-linejoin:round; stroke-width:4; stroke-opacity:1; fill:none" points="316.512,903.312 336.281,902.025 356.051,898.189 375.82,891.881 395.59,883.227 415.359,872.401 435.128,859.618 454.898,845.135 474.667,829.24 494.436,812.253 514.206,794.513 533.975,776.373 553.744,758.199 573.514,740.352 593.283,723.19 613.052,707.055 632.822,689.776 652.591,671.696 672.361,653.179 692.13,634.593 711.899,616.311 731.669,598.699 751.438,582.108 771.207,566.871 790.977,553.292 810.746,541.643 830.515,532.157 850.285,525.023 870.054,520.384 889.823,518.334 909.593,518.912 929.362,522.108 949.132,527.858 968.901,536.046 988.67,546.508 1008.44,559.036 1028.21,573.379 1047.98,589.251 1067.75,606.333 1087.52,624.283 1107.29,642.744 1127.06,661.346 1146.83,679.716 1166.59,697.488 1186.36,714.306 1206.13,732.329 1225.9,751.198 1245.67,770.534 1265.44,789.952 1285.21,809.062 1304.98,827.483 1324.75,844.845 1344.52,860.803 1364.29,875.037 1384.06,887.261 1403.83,897.232 1423.6,904.751 1443.37,909.666 1463.13,911.879 1482.9,911.347 1502.67,908.079 1522.44,902.142 1542.21,893.654 1561.98,882.784 1581.75,869.751 1601.52,854.814 1621.29,838.273 1641.06,820.458 1660.83,801.725 1680.6,782.45 1700.37,763.018 1720.14,743.817 1739.91,725.232 1759.68,707.634 1779.44,688.879 1799.21,669.341 1818.98,649.413 1838.75,629.492 1858.52,609.977 1878.29,591.258 1898.06,573.71 1917.83,557.683 1937.6,543.498 1957.37,531.439 1977.14,521.746 1996.91,514.615 2016.68,510.187 2036.45,508.55 2056.22,509.739 2075.98,513.728 2095.75,520.438 2115.52,529.736 2135.29,541.434 2155.06,555.299 2174.83,571.054 2194.6,588.384 2214.37,606.941 2234.14,626.356 2253.91,646.239 2273.68,666.192 2293.45,685.818 "/>
<polyline clip-path="url(#clip192)" style="stroke:#c271d2; stroke-linecap:round; stroke-linejoin:round; stroke-width:4; stroke-opacity:1; fill:none" points="316.512,483.652 336.281,486.589 356.051,495.34 375.82,509.73 395.59,529.473 415.359,554.172 435.128,583.334 454.898,616.375 474.667,652.635 494.436,691.389 514.206,731.861 533.975,773.243 553.744,814.706 573.514,855.421 593.283,894.573 613.052,931.381 632.822,970.802 652.591,1012.05 672.361,1054.29 692.13,1096.69 711.899,1138.4 731.669,1178.58 751.438,1216.43 771.207,1251.19 790.977,1282.17 810.746,1308.74 830.515,1330.38 850.285,1346.66 870.054,1357.24 889.823,1361.92 909.593,1360.6 929.362,1353.31 949.132,1340.19 968.901,1321.51 988.67,1297.64 1008.44,1269.06 1028.21,1236.34 1047.98,1200.13 1067.75,1161.16 1087.52,1120.21 1107.29,1078.1 1127.06,1035.66 1146.83,993.75 1166.59,953.207 1186.36,914.84 1206.13,873.723 1225.9,830.677 1245.67,786.564 1265.44,742.267 1285.21,698.67 1304.98,656.646 1324.75,617.035 1344.52,580.63 1364.29,548.158 1384.06,520.27 1403.83,497.523 1423.6,480.371 1443.37,469.158 1463.13,464.109 1482.9,465.323 1502.67,472.777 1522.44,486.322 1542.21,505.687 1561.98,530.484 1581.75,560.218 1601.52,594.294 1621.29,632.03 1641.06,672.672 1660.83,715.407 1680.6,759.379 1700.37,803.711 1720.14,847.514 1739.91,889.914 1759.68,930.062 1779.44,972.849 1799.21,1017.42 1818.98,1062.88 1838.75,1108.33 1858.52,1152.85 1878.29,1195.55 1898.06,1235.59 1917.83,1272.15 1937.6,1304.51 1957.37,1332.02 1977.14,1354.13 1996.91,1370.4 2016.68,1380.51 2036.45,1384.24 2056.22,1381.53 2075.98,1372.43 2095.75,1357.12 2115.52,1335.91 2135.29,1309.22 2155.06,1277.59 2174.83,1241.65 2194.6,1202.11 2214.37,1159.78 2234.14,1115.48 2253.91,1070.12 2273.68,1024.6 2293.45,979.831 "/>
<polyline clip-path="url(#clip192)" style="stroke:#ac8d18; stroke-linecap:round; stroke-linejoin:round; stroke-width:4; stroke-opacity:1; fill:none" points="316.512,106.526 336.281,108.618 356.051,114.855 375.82,125.111 395.59,139.182 415.359,156.785 435.128,177.568 454.898,201.117 474.667,226.959 494.436,254.579 514.206,283.423 533.975,312.916 553.744,342.466 573.514,371.483 593.283,399.387 613.052,425.62 632.822,453.715 652.591,483.11 672.361,513.218 692.13,543.437 711.899,573.161 731.669,601.797 751.438,628.772 771.207,653.546 790.977,675.624 810.746,694.564 830.515,709.988 850.285,721.587 870.054,729.128 889.823,732.462 909.593,731.522 929.362,726.326 949.132,716.978 968.901,703.665 988.67,686.654 1008.44,666.284 1028.21,642.964 1047.98,617.159 1067.75,589.385 1087.52,560.199 1107.29,530.183 1127.06,499.939 1146.83,470.07 1166.59,441.175 1186.36,413.831 1206.13,384.527 1225.9,353.849 1245.67,322.41 1265.44,290.839 1285.21,259.768 1304.98,229.817 1324.75,201.587 1344.52,175.641 1364.29,152.499 1384.06,132.623 1403.83,116.411 1423.6,104.187 1443.37,96.1959 1463.13,92.597 1482.9,93.4625 1502.67,98.7751 1522.44,108.428 1542.21,122.23 1561.98,139.903 1581.75,161.094 1601.52,185.379 1621.29,212.274 1641.06,241.239 1660.83,271.696 1680.6,303.035 1700.37,334.63 1720.14,365.849 1739.91,396.067 1759.68,424.68 1779.44,455.174 1799.21,486.939 1818.98,519.341 1838.75,551.73 1858.52,583.459 1878.29,613.894 1898.06,642.426 1917.83,668.485 1937.6,691.548 1957.37,711.155 1977.14,726.914 1996.91,738.509 2016.68,745.709 2036.45,748.369 2056.22,746.437 2075.98,739.951 2095.75,729.04 2115.52,713.924 2135.29,694.904 2155.06,672.36 2174.83,646.744 2194.6,618.568 2214.37,588.395 2234.14,556.83 2253.91,524.502 2273.68,492.059 2293.45,460.15 "/>
<polyline clip-path="url(#clip192)" style="stroke:#00a9ad; stroke-linecap:round; stroke-linejoin:round; stroke-width:4; stroke-opacity:1; fill:none" points="316.512,521.06 336.281,522.348 356.051,526.184 375.82,532.491 395.59,541.145 415.359,551.972 435.128,564.755 454.898,579.238 474.667,595.132 494.436,612.12 514.206,629.86 533.975,647.999 553.744,666.174 573.514,684.021 593.283,701.183 613.052,717.317 632.822,734.597 652.591,752.676 672.361,771.194 692.13,789.78 711.899,808.062 731.669,825.674 751.438,842.265 771.207,857.502 790.977,871.081 810.746,882.73 830.515,892.216 850.285,899.35 870.054,903.988 889.823,906.039 909.593,905.46 929.362,902.265 949.132,896.515 968.901,888.327 988.67,877.865 1008.44,865.336 1028.21,850.993 1047.98,835.122 1067.75,818.04 1087.52,800.089 1107.29,781.628 1127.06,763.027 1146.83,744.656 1166.59,726.885 1186.36,710.067 1206.13,692.044 1225.9,673.175 1245.67,653.839 1265.44,634.421 1285.21,615.311 1304.98,596.89 1324.75,579.527 1344.52,563.569 1364.29,549.336 1384.06,537.111 1403.83,527.14 1423.6,519.622 1443.37,514.707 1463.13,512.494 1482.9,513.026 1502.67,516.293 1522.44,522.231 1542.21,530.719 1561.98,541.589 1581.75,554.622 1601.52,569.559 1621.29,586.1 1641.06,603.915 1660.83,622.647 1680.6,641.922 1700.37,661.355 1720.14,680.555 1739.91,699.141 1759.68,716.739 1779.44,735.494 1799.21,755.031 1818.98,774.96 1838.75,794.88 1858.52,814.396 1878.29,833.114 1898.06,850.663 1917.83,866.69 1937.6,880.875 1957.37,892.934 1977.14,902.626 1996.91,909.758 2016.68,914.186 2036.45,915.822 2056.22,914.634 2075.98,910.645 2095.75,903.934 2115.52,894.637 2135.29,882.939 2155.06,869.073 2174.83,853.318 2194.6,835.989 2214.37,817.431 2234.14,798.017 2253.91,778.134 2273.68,758.18 2293.45,738.555 "/>
</svg>
