<?xml version="1.0" encoding="utf-8"?>
<svg xmlns="http://www.w3.org/2000/svg" xmlns:xlink="http://www.w3.org/1999/xlink" width="600" height="400" viewBox="0 0 2400 1600">
<defs>
  <clipPath id="clip690">
    <rect x="0" y="0" width="2400" height="1600"/>
  </clipPath>
</defs>
<path clip-path="url(#clip690)" d="M0 1600 L2400 1600 L2400 0 L0 0  Z" fill="#ffffff" fill-rule="evenodd" fill-opacity="1"/>
<defs>
  <clipPath id="clip691">
    <rect x="480" y="0" width="1681" height="1600"/>
  </clipPath>
</defs>
<path clip-path="url(#clip690)" d="M249.542 1423.18 L2352.76 1423.18 L2352.76 47.2441 L249.542 47.2441  Z" fill="#ffffff" fill-rule="evenodd" fill-opacity="1"/>
<defs>
  <clipPath id="clip692">
    <rect x="249" y="47" width="2104" height="1377"/>
  </clipPath>
</defs>
<polyline clip-path="url(#clip692)" style="stroke:#000000; stroke-linecap:round; stroke-linejoin:round; stroke-width:2; stroke-opacity:0.1; fill:none" points="307.081,1423.18 307.081,47.2441 "/>
<polyline clip-path="url(#clip692)" style="stroke:#000000; stroke-linecap:round; stroke-linejoin:round; stroke-width:2; stroke-opacity:0.1; fill:none" points="803.618,1423.18 803.618,47.2441 "/>
<polyline clip-path="url(#clip692)" style="stroke:#000000; stroke-linecap:round; stroke-linejoin:round; stroke-width:2; stroke-opacity:0.1; fill:none" points="1300.16,1423.18 1300.16,47.2441 "/>
<polyline clip-path="url(#clip692)" style="stroke:#000000; stroke-linecap:round; stroke-linejoin:round; stroke-width:2; stroke-opacity:0.1; fill:none" points="1796.69,1423.18 1796.69,47.2441 "/>
<polyline clip-path="url(#clip692)" style="stroke:#000000; stroke-linecap:round; stroke-linejoin:round; stroke-width:2; stroke-opacity:0.1; fill:none" points="2293.23,1423.18 2293.23,47.2441 "/>
<polyline clip-path="url(#clip690)" style="stroke:#000000; stroke-linecap:round; stroke-linejoin:round; stroke-width:4; stroke-opacity:1; fill:none" points="249.542,1423.18 2352.76,1423.18 "/>
<polyline clip-path="url(#clip690)" style="stroke:#000000; stroke-linecap:round; stroke-linejoin:round; stroke-width:4; stroke-opacity:1; fill:none" points="307.081,1423.18 307.081,1404.28 "/>
<polyline clip-path="url(#clip690)" style="stroke:#000000; stroke-linecap:round; stroke-linejoin:round; stroke-width:4; stroke-opacity:1; fill:none" points="803.618,1423.18 803.618,1404.28 "/>
<polyline clip-path="url(#clip690)" style="stroke:#000000; stroke-linecap:round; stroke-linejoin:round; stroke-width:4; stroke-opacity:1; fill:none" points="1300.16,1423.18 1300.16,1404.28 "/>
<polyline clip-path="url(#clip690)" style="stroke:#000000; stroke-linecap:round; stroke-linejoin:round; stroke-width:4; stroke-opacity:1; fill:none" points="1796.69,1423.18 1796.69,1404.28 "/>
<polyline clip-path="url(#clip690)" style="stroke:#000000; stroke-linecap:round; stroke-linejoin:round; stroke-width:4; stroke-opacity:1; fill:none" points="2293.23,1423.18 2293.23,1404.28 "/>
<path clip-path="url(#clip690)" d="M307.081 1454.1 Q303.47 1454.1 301.641 1457.66 Q299.835 1461.2 299.835 1468.33 Q299.835 1475.44 301.641 1479.01 Q303.47 1482.55 307.081 1482.55 Q310.715 1482.55 312.521 1479.01 Q314.349 1475.44 314.349 1468.33 Q314.349 1461.2 312.521 1457.66 Q310.715 1454.1 307.081 1454.1 M307.081 1450.39 Q312.891 1450.39 315.946 1455 Q319.025 1459.58 319.025 1468.33 Q319.025 1477.06 315.946 1481.67 Q312.891 1486.25 307.081 1486.25 Q301.271 1486.25 298.192 1481.67 Q295.136 1477.06 295.136 1468.33 Q295.136 1459.58 298.192 1455 Q301.271 1450.39 307.081 1450.39 Z" fill="#000000" fill-rule="nonzero" fill-opacity="1" /><path clip-path="url(#clip690)" d="M767.311 1481.64 L783.63 1481.64 L783.63 1485.58 L761.686 1485.58 L761.686 1481.64 Q764.348 1478.89 768.931 1474.26 Q773.537 1469.61 774.718 1468.27 Q776.963 1465.74 777.843 1464.01 Q778.746 1462.25 778.746 1460.56 Q778.746 1457.8 776.801 1456.07 Q774.88 1454.33 771.778 1454.33 Q769.579 1454.33 767.125 1455.09 Q764.695 1455.86 761.917 1457.41 L761.917 1452.69 Q764.741 1451.55 767.195 1450.97 Q769.649 1450.39 771.686 1450.39 Q777.056 1450.39 780.25 1453.08 Q783.445 1455.77 783.445 1460.26 Q783.445 1462.39 782.635 1464.31 Q781.848 1466.2 779.741 1468.8 Q779.162 1469.47 776.061 1472.69 Q772.959 1475.88 767.311 1481.64 Z" fill="#000000" fill-rule="nonzero" fill-opacity="1" /><path clip-path="url(#clip690)" d="M793.491 1451.02 L811.847 1451.02 L811.847 1454.96 L797.773 1454.96 L797.773 1463.43 Q798.792 1463.08 799.81 1462.92 Q800.829 1462.73 801.848 1462.73 Q807.635 1462.73 811.014 1465.9 Q814.394 1469.08 814.394 1474.49 Q814.394 1480.07 810.922 1483.17 Q807.449 1486.25 801.13 1486.25 Q798.954 1486.25 796.686 1485.88 Q794.44 1485.51 792.033 1484.77 L792.033 1480.07 Q794.116 1481.2 796.338 1481.76 Q798.561 1482.32 801.037 1482.32 Q805.042 1482.32 807.38 1480.21 Q809.718 1478.1 809.718 1474.49 Q809.718 1470.88 807.38 1468.77 Q805.042 1466.67 801.037 1466.67 Q799.162 1466.67 797.287 1467.08 Q795.436 1467.5 793.491 1468.38 L793.491 1451.02 Z" fill="#000000" fill-rule="nonzero" fill-opacity="1" /><path clip-path="url(#clip690)" d="M833.607 1454.1 Q829.996 1454.1 828.167 1457.66 Q826.361 1461.2 826.361 1468.33 Q826.361 1475.44 828.167 1479.01 Q829.996 1482.55 833.607 1482.55 Q837.241 1482.55 839.046 1479.01 Q840.875 1475.44 840.875 1468.33 Q840.875 1461.2 839.046 1457.66 Q837.241 1454.1 833.607 1454.1 M833.607 1450.39 Q839.417 1450.39 842.472 1455 Q845.551 1459.58 845.551 1468.33 Q845.551 1477.06 842.472 1481.67 Q839.417 1486.25 833.607 1486.25 Q827.796 1486.25 824.718 1481.67 Q821.662 1477.06 821.662 1468.33 Q821.662 1459.58 824.718 1455 Q827.796 1450.39 833.607 1450.39 Z" fill="#000000" fill-rule="nonzero" fill-opacity="1" /><path clip-path="url(#clip690)" d="M1259.77 1451.02 L1278.13 1451.02 L1278.13 1454.96 L1264.06 1454.96 L1264.06 1463.43 Q1265.08 1463.08 1266.09 1462.92 Q1267.11 1462.73 1268.13 1462.73 Q1273.92 1462.73 1277.3 1465.9 Q1280.68 1469.08 1280.68 1474.49 Q1280.68 1480.07 1277.2 1483.17 Q1273.73 1486.25 1267.41 1486.25 Q1265.24 1486.25 1262.97 1485.88 Q1260.72 1485.51 1258.32 1484.77 L1258.32 1480.07 Q1260.4 1481.2 1262.62 1481.76 Q1264.84 1482.32 1267.32 1482.32 Q1271.33 1482.32 1273.66 1480.21 Q1276 1478.1 1276 1474.49 Q1276 1470.88 1273.66 1468.77 Q1271.33 1466.67 1267.32 1466.67 Q1265.45 1466.67 1263.57 1467.08 Q1261.72 1467.5 1259.77 1468.38 L1259.77 1451.02 Z" fill="#000000" fill-rule="nonzero" fill-opacity="1" /><path clip-path="url(#clip690)" d="M1299.89 1454.1 Q1296.28 1454.1 1294.45 1457.66 Q1292.64 1461.2 1292.64 1468.33 Q1292.64 1475.44 1294.45 1479.01 Q1296.28 1482.55 1299.89 1482.55 Q1303.52 1482.55 1305.33 1479.01 Q1307.16 1475.44 1307.16 1468.33 Q1307.16 1461.2 1305.33 1457.66 Q1303.52 1454.1 1299.89 1454.1 M1299.89 1450.39 Q1305.7 1450.39 1308.76 1455 Q1311.83 1459.58 1311.83 1468.33 Q1311.83 1477.06 1308.76 1481.67 Q1305.7 1486.25 1299.89 1486.25 Q1294.08 1486.25 1291 1481.67 Q1287.95 1477.06 1287.95 1468.33 Q1287.95 1459.58 1291 1455 Q1294.08 1450.39 1299.89 1450.39 Z" fill="#000000" fill-rule="nonzero" fill-opacity="1" /><path clip-path="url(#clip690)" d="M1330.05 1454.1 Q1326.44 1454.1 1324.61 1457.66 Q1322.81 1461.2 1322.81 1468.33 Q1322.81 1475.44 1324.61 1479.01 Q1326.44 1482.55 1330.05 1482.55 Q1333.69 1482.55 1335.49 1479.01 Q1337.32 1475.44 1337.32 1468.33 Q1337.32 1461.2 1335.49 1457.66 Q1333.69 1454.1 1330.05 1454.1 M1330.05 1450.39 Q1335.86 1450.39 1338.92 1455 Q1342 1459.58 1342 1468.33 Q1342 1477.06 1338.92 1481.67 Q1335.86 1486.25 1330.05 1486.25 Q1324.24 1486.25 1321.16 1481.67 Q1318.11 1477.06 1318.11 1468.33 Q1318.11 1459.58 1321.16 1455 Q1324.24 1450.39 1330.05 1450.39 Z" fill="#000000" fill-rule="nonzero" fill-opacity="1" /><path clip-path="url(#clip690)" d="M1754.97 1451.02 L1777.19 1451.02 L1777.19 1453.01 L1764.64 1485.58 L1759.76 1485.58 L1771.57 1454.96 L1754.97 1454.96 L1754.97 1451.02 Z" fill="#000000" fill-rule="nonzero" fill-opacity="1" /><path clip-path="url(#clip690)" d="M1786.36 1451.02 L1804.71 1451.02 L1804.71 1454.96 L1790.64 1454.96 L1790.64 1463.43 Q1791.66 1463.08 1792.68 1462.92 Q1793.7 1462.73 1794.71 1462.73 Q1800.5 1462.73 1803.88 1465.9 Q1807.26 1469.08 1807.26 1474.49 Q1807.26 1480.07 1803.79 1483.17 Q1800.32 1486.25 1794 1486.25 Q1791.82 1486.25 1789.55 1485.88 Q1787.31 1485.51 1784.9 1484.77 L1784.9 1480.07 Q1786.98 1481.2 1789.21 1481.76 Q1791.43 1482.32 1793.9 1482.32 Q1797.91 1482.32 1800.25 1480.21 Q1802.58 1478.1 1802.58 1474.49 Q1802.58 1470.88 1800.25 1468.77 Q1797.91 1466.67 1793.9 1466.67 Q1792.03 1466.67 1790.15 1467.08 Q1788.3 1467.5 1786.36 1468.38 L1786.36 1451.02 Z" fill="#000000" fill-rule="nonzero" fill-opacity="1" /><path clip-path="url(#clip690)" d="M1826.47 1454.1 Q1822.86 1454.1 1821.03 1457.66 Q1819.23 1461.2 1819.23 1468.33 Q1819.23 1475.44 1821.03 1479.01 Q1822.86 1482.55 1826.47 1482.55 Q1830.11 1482.55 1831.91 1479.01 Q1833.74 1475.44 1833.74 1468.33 Q1833.74 1461.2 1831.91 1457.66 Q1830.11 1454.1 1826.47 1454.1 M1826.47 1450.39 Q1832.28 1450.39 1835.34 1455 Q1838.42 1459.58 1838.42 1468.33 Q1838.42 1477.06 1835.34 1481.67 Q1832.28 1486.25 1826.47 1486.25 Q1820.66 1486.25 1817.58 1481.67 Q1814.53 1477.06 1814.53 1468.33 Q1814.53 1459.58 1817.58 1455 Q1820.66 1450.39 1826.47 1450.39 Z" fill="#000000" fill-rule="nonzero" fill-opacity="1" /><path clip-path="url(#clip690)" d="M2237.76 1481.64 L2245.4 1481.64 L2245.4 1455.28 L2237.09 1456.95 L2237.09 1452.69 L2245.35 1451.02 L2250.03 1451.02 L2250.03 1481.64 L2257.66 1481.64 L2257.66 1485.58 L2237.76 1485.58 L2237.76 1481.64 Z" fill="#000000" fill-rule="nonzero" fill-opacity="1" /><path clip-path="url(#clip690)" d="M2277.11 1454.1 Q2273.5 1454.1 2271.67 1457.66 Q2269.86 1461.2 2269.86 1468.33 Q2269.86 1475.44 2271.67 1479.01 Q2273.5 1482.55 2277.11 1482.55 Q2280.74 1482.55 2282.55 1479.01 Q2284.38 1475.44 2284.38 1468.33 Q2284.38 1461.2 2282.55 1457.66 Q2280.74 1454.1 2277.11 1454.1 M2277.11 1450.39 Q2282.92 1450.39 2285.97 1455 Q2289.05 1459.58 2289.05 1468.33 Q2289.05 1477.06 2285.97 1481.67 Q2282.92 1486.25 2277.11 1486.25 Q2271.3 1486.25 2268.22 1481.67 Q2265.16 1477.06 2265.16 1468.33 Q2265.16 1459.58 2268.22 1455 Q2271.3 1450.39 2277.11 1450.39 Z" fill="#000000" fill-rule="nonzero" fill-opacity="1" /><path clip-path="url(#clip690)" d="M2307.27 1454.1 Q2303.66 1454.1 2301.83 1457.66 Q2300.02 1461.2 2300.02 1468.33 Q2300.02 1475.44 2301.83 1479.01 Q2303.66 1482.55 2307.27 1482.55 Q2310.9 1482.55 2312.71 1479.01 Q2314.54 1475.44 2314.54 1468.33 Q2314.54 1461.2 2312.71 1457.66 Q2310.9 1454.1 2307.27 1454.1 M2307.27 1450.39 Q2313.08 1450.39 2316.14 1455 Q2319.21 1459.58 2319.21 1468.33 Q2319.21 1477.06 2316.14 1481.67 Q2313.08 1486.25 2307.27 1486.25 Q2301.46 1486.25 2298.38 1481.67 Q2295.33 1477.06 2295.33 1468.33 Q2295.33 1459.58 2298.38 1455 Q2301.46 1450.39 2307.27 1450.39 Z" fill="#000000" fill-rule="nonzero" fill-opacity="1" /><path clip-path="url(#clip690)" d="M2337.43 1454.1 Q2333.82 1454.1 2331.99 1457.66 Q2330.19 1461.2 2330.19 1468.33 Q2330.19 1475.44 2331.99 1479.01 Q2333.82 1482.55 2337.43 1482.55 Q2341.07 1482.55 2342.87 1479.01 Q2344.7 1475.44 2344.7 1468.33 Q2344.7 1461.2 2342.87 1457.66 Q2341.07 1454.1 2337.43 1454.1 M2337.43 1450.39 Q2343.24 1450.39 2346.3 1455 Q2349.38 1459.58 2349.38 1468.33 Q2349.38 1477.06 2346.3 1481.67 Q2343.24 1486.25 2337.43 1486.25 Q2331.62 1486.25 2328.54 1481.67 Q2325.49 1477.06 2325.49 1468.33 Q2325.49 1459.58 2328.54 1455 Q2331.62 1450.39 2337.43 1450.39 Z" fill="#000000" fill-rule="nonzero" fill-opacity="1" /><path clip-path="url(#clip690)" d="M1261.46 1522.08 L1261.46 1528.35 Q1257.8 1526.6 1254.55 1525.74 Q1251.31 1524.88 1248.28 1524.88 Q1243.03 1524.88 1240.17 1526.92 Q1237.33 1528.96 1237.33 1532.71 Q1237.33 1535.87 1239.21 1537.49 Q1241.12 1539.08 1246.4 1540.07 L1250.29 1540.86 Q1257.48 1542.23 1260.89 1545.7 Q1264.32 1549.14 1264.32 1554.93 Q1264.32 1561.84 1259.68 1565.4 Q1255.06 1568.97 1246.12 1568.97 Q1242.74 1568.97 1238.92 1568.2 Q1235.14 1567.44 1231.06 1565.94 L1231.06 1559.32 Q1234.98 1561.52 1238.73 1562.63 Q1242.49 1563.75 1246.12 1563.75 Q1251.62 1563.75 1254.62 1561.58 Q1257.61 1559.42 1257.61 1555.41 Q1257.61 1551.91 1255.44 1549.93 Q1253.31 1547.96 1248.41 1546.97 L1244.49 1546.21 Q1237.3 1544.78 1234.09 1541.72 Q1230.87 1538.67 1230.87 1533.22 Q1230.87 1526.92 1235.3 1523.29 Q1239.75 1519.66 1247.55 1519.66 Q1250.89 1519.66 1254.36 1520.27 Q1257.83 1520.87 1261.46 1522.08 Z" fill="#000000" fill-rule="nonzero" fill-opacity="1" /><path clip-path="url(#clip690)" d="M1279.89 1522.27 L1279.89 1532.4 L1291.95 1532.4 L1291.95 1536.95 L1279.89 1536.95 L1279.89 1556.3 Q1279.89 1560.66 1281.07 1561.9 Q1282.27 1563.14 1285.93 1563.14 L1291.95 1563.14 L1291.95 1568.04 L1285.93 1568.04 Q1279.16 1568.04 1276.58 1565.53 Q1274 1562.98 1274 1556.3 L1274 1536.95 L1269.7 1536.95 L1269.7 1532.4 L1274 1532.4 L1274 1522.27 L1279.89 1522.27 Z" fill="#000000" fill-rule="nonzero" fill-opacity="1" /><path clip-path="url(#clip690)" d="M1330.14 1548.76 L1330.14 1551.62 L1303.22 1551.62 Q1303.6 1557.67 1306.85 1560.85 Q1310.12 1564 1315.95 1564 Q1319.32 1564 1322.47 1563.17 Q1325.66 1562.35 1328.78 1560.69 L1328.78 1566.23 Q1325.63 1567.57 1322.31 1568.27 Q1319 1568.97 1315.6 1568.97 Q1307.07 1568.97 1302.07 1564 Q1297.11 1559.04 1297.11 1550.57 Q1297.11 1541.82 1301.82 1536.69 Q1306.56 1531.54 1314.58 1531.54 Q1321.77 1531.54 1325.94 1536.18 Q1330.14 1540.8 1330.14 1548.76 M1324.29 1547.04 Q1324.22 1542.23 1321.58 1539.37 Q1318.97 1536.5 1314.64 1536.5 Q1309.74 1536.5 1306.78 1539.27 Q1303.85 1542.04 1303.41 1547.07 L1324.29 1547.04 Z" fill="#000000" fill-rule="nonzero" fill-opacity="1" /><path clip-path="url(#clip690)" d="M1345.42 1562.7 L1345.42 1581.6 L1339.53 1581.6 L1339.53 1532.4 L1345.42 1532.4 L1345.42 1537.81 Q1347.27 1534.62 1350.07 1533.1 Q1352.9 1531.54 1356.82 1531.54 Q1363.31 1531.54 1367.35 1536.69 Q1371.43 1541.85 1371.43 1550.25 Q1371.43 1558.65 1367.35 1563.81 Q1363.31 1568.97 1356.82 1568.97 Q1352.9 1568.97 1350.07 1567.44 Q1347.27 1565.88 1345.42 1562.7 M1365.35 1550.25 Q1365.35 1543.79 1362.67 1540.13 Q1360.03 1536.44 1355.38 1536.44 Q1350.74 1536.44 1348.06 1540.13 Q1345.42 1543.79 1345.42 1550.25 Q1345.42 1556.71 1348.06 1560.4 Q1350.74 1564.07 1355.38 1564.07 Q1360.03 1564.07 1362.67 1560.4 Q1365.35 1556.71 1365.35 1550.25 Z" fill="#000000" fill-rule="nonzero" fill-opacity="1" /><polyline clip-path="url(#clip692)" style="stroke:#000000; stroke-linecap:round; stroke-linejoin:round; stroke-width:2; stroke-opacity:0.1; fill:none" points="249.542,1394.38 2352.76,1394.38 "/>
<polyline clip-path="url(#clip692)" style="stroke:#000000; stroke-linecap:round; stroke-linejoin:round; stroke-width:2; stroke-opacity:0.1; fill:none" points="249.542,1082.03 2352.76,1082.03 "/>
<polyline clip-path="url(#clip692)" style="stroke:#000000; stroke-linecap:round; stroke-linejoin:round; stroke-width:2; stroke-opacity:0.1; fill:none" points="249.542,769.671 2352.76,769.671 "/>
<polyline clip-path="url(#clip692)" style="stroke:#000000; stroke-linecap:round; stroke-linejoin:round; stroke-width:2; stroke-opacity:0.1; fill:none" points="249.542,457.315 2352.76,457.315 "/>
<polyline clip-path="url(#clip692)" style="stroke:#000000; stroke-linecap:round; stroke-linejoin:round; stroke-width:2; stroke-opacity:0.1; fill:none" points="249.542,144.959 2352.76,144.959 "/>
<polyline clip-path="url(#clip690)" style="stroke:#000000; stroke-linecap:round; stroke-linejoin:round; stroke-width:4; stroke-opacity:1; fill:none" points="249.542,1423.18 249.542,47.2441 "/>
<polyline clip-path="url(#clip690)" style="stroke:#000000; stroke-linecap:round; stroke-linejoin:round; stroke-width:4; stroke-opacity:1; fill:none" points="249.542,1394.38 268.44,1394.38 "/>
<polyline clip-path="url(#clip690)" style="stroke:#000000; stroke-linecap:round; stroke-linejoin:round; stroke-width:4; stroke-opacity:1; fill:none" points="249.542,1082.03 268.44,1082.03 "/>
<polyline clip-path="url(#clip690)" style="stroke:#000000; stroke-linecap:round; stroke-linejoin:round; stroke-width:4; stroke-opacity:1; fill:none" points="249.542,769.671 268.44,769.671 "/>
<polyline clip-path="url(#clip690)" style="stroke:#000000; stroke-linecap:round; stroke-linejoin:round; stroke-width:4; stroke-opacity:1; fill:none" points="249.542,457.315 268.44,457.315 "/>
<polyline clip-path="url(#clip690)" style="stroke:#000000; stroke-linecap:round; stroke-linejoin:round; stroke-width:4; stroke-opacity:1; fill:none" points="249.542,144.959 268.44,144.959 "/>
<path clip-path="url(#clip690)" d="M126.205 1380.18 Q122.593 1380.18 120.765 1383.75 Q118.959 1387.29 118.959 1394.42 Q118.959 1401.52 120.765 1405.09 Q122.593 1408.63 126.205 1408.63 Q129.839 1408.63 131.644 1405.09 Q133.473 1401.52 133.473 1394.42 Q133.473 1387.29 131.644 1383.75 Q129.839 1380.18 126.205 1380.18 M126.205 1376.48 Q132.015 1376.48 135.07 1381.08 Q138.149 1385.67 138.149 1394.42 Q138.149 1403.14 135.07 1407.75 Q132.015 1412.33 126.205 1412.33 Q120.394 1412.33 117.316 1407.75 Q114.26 1403.14 114.26 1394.42 Q114.26 1385.67 117.316 1381.08 Q120.394 1376.48 126.205 1376.48 Z" fill="#000000" fill-rule="nonzero" fill-opacity="1" /><path clip-path="url(#clip690)" d="M146.366 1405.78 L151.251 1405.78 L151.251 1411.66 L146.366 1411.66 L146.366 1405.78 Z" fill="#000000" fill-rule="nonzero" fill-opacity="1" /><path clip-path="url(#clip690)" d="M161.575 1410.94 L161.575 1406.69 Q163.334 1407.52 165.14 1407.96 Q166.945 1408.4 168.681 1408.4 Q173.311 1408.4 175.741 1405.3 Q178.195 1402.17 178.542 1395.83 Q177.2 1397.82 175.139 1398.88 Q173.079 1399.95 170.579 1399.95 Q165.394 1399.95 162.362 1396.82 Q159.353 1393.68 159.353 1388.24 Q159.353 1382.91 162.501 1379.7 Q165.649 1376.48 170.88 1376.48 Q176.876 1376.48 180.024 1381.08 Q183.195 1385.67 183.195 1394.42 Q183.195 1402.59 179.306 1407.47 Q175.44 1412.33 168.889 1412.33 Q167.13 1412.33 165.325 1411.99 Q163.519 1411.64 161.575 1410.94 M170.88 1396.29 Q174.028 1396.29 175.857 1394.14 Q177.709 1391.99 177.709 1388.24 Q177.709 1384.51 175.857 1382.36 Q174.028 1380.18 170.88 1380.18 Q167.732 1380.18 165.88 1382.36 Q164.052 1384.51 164.052 1388.24 Q164.052 1391.99 165.88 1394.14 Q167.732 1396.29 170.88 1396.29 Z" fill="#000000" fill-rule="nonzero" fill-opacity="1" /><path clip-path="url(#clip690)" d="M201.598 1380.18 Q197.987 1380.18 196.158 1383.75 Q194.352 1387.29 194.352 1394.42 Q194.352 1401.52 196.158 1405.09 Q197.987 1408.63 201.598 1408.63 Q205.232 1408.63 207.037 1405.09 Q208.866 1401.52 208.866 1394.42 Q208.866 1387.29 207.037 1383.75 Q205.232 1380.18 201.598 1380.18 M201.598 1376.48 Q207.408 1376.48 210.463 1381.08 Q213.542 1385.67 213.542 1394.42 Q213.542 1403.14 210.463 1407.75 Q207.408 1412.33 201.598 1412.33 Q195.787 1412.33 192.709 1407.75 Q189.653 1403.14 189.653 1394.42 Q189.653 1385.67 192.709 1381.08 Q195.787 1376.48 201.598 1376.48 Z" fill="#000000" fill-rule="nonzero" fill-opacity="1" /><path clip-path="url(#clip690)" d="M127.2 1067.83 Q123.589 1067.83 121.76 1071.39 Q119.955 1074.93 119.955 1082.06 Q119.955 1089.17 121.76 1092.73 Q123.589 1096.27 127.2 1096.27 Q130.834 1096.27 132.64 1092.73 Q134.468 1089.17 134.468 1082.06 Q134.468 1074.93 132.64 1071.39 Q130.834 1067.83 127.2 1067.83 M127.2 1064.12 Q133.01 1064.12 136.066 1068.73 Q139.144 1073.31 139.144 1082.06 Q139.144 1090.79 136.066 1095.39 Q133.01 1099.98 127.2 1099.98 Q121.39 1099.98 118.311 1095.39 Q115.256 1090.79 115.256 1082.06 Q115.256 1073.31 118.311 1068.73 Q121.39 1064.12 127.2 1064.12 Z" fill="#000000" fill-rule="nonzero" fill-opacity="1" /><path clip-path="url(#clip690)" d="M147.362 1093.43 L152.246 1093.43 L152.246 1099.31 L147.362 1099.31 L147.362 1093.43 Z" fill="#000000" fill-rule="nonzero" fill-opacity="1" /><path clip-path="url(#clip690)" d="M162.57 1098.59 L162.57 1094.33 Q164.329 1095.16 166.135 1095.6 Q167.94 1096.04 169.677 1096.04 Q174.306 1096.04 176.737 1092.94 Q179.19 1089.82 179.538 1083.47 Q178.195 1085.46 176.135 1086.53 Q174.075 1087.59 171.575 1087.59 Q166.39 1087.59 163.357 1084.47 Q160.348 1081.32 160.348 1075.88 Q160.348 1070.56 163.496 1067.34 Q166.644 1064.12 171.876 1064.12 Q177.871 1064.12 181.019 1068.73 Q184.19 1073.31 184.19 1082.06 Q184.19 1090.23 180.301 1095.12 Q176.436 1099.98 169.885 1099.98 Q168.126 1099.98 166.32 1099.63 Q164.515 1099.28 162.57 1098.59 M171.876 1083.94 Q175.024 1083.94 176.852 1081.78 Q178.704 1079.63 178.704 1075.88 Q178.704 1072.15 176.852 1070 Q175.024 1067.83 171.876 1067.83 Q168.727 1067.83 166.876 1070 Q165.047 1072.15 165.047 1075.88 Q165.047 1079.63 166.876 1081.78 Q168.727 1083.94 171.876 1083.94 Z" fill="#000000" fill-rule="nonzero" fill-opacity="1" /><path clip-path="url(#clip690)" d="M192.639 1064.75 L210.996 1064.75 L210.996 1068.68 L196.922 1068.68 L196.922 1077.15 Q197.94 1076.81 198.959 1076.64 Q199.977 1076.46 200.996 1076.46 Q206.783 1076.46 210.162 1079.63 Q213.542 1082.8 213.542 1088.22 Q213.542 1093.8 210.07 1096.9 Q206.598 1099.98 200.278 1099.98 Q198.102 1099.98 195.834 1099.61 Q193.588 1099.24 191.181 1098.5 L191.181 1093.8 Q193.264 1094.93 195.487 1095.49 Q197.709 1096.04 200.186 1096.04 Q204.19 1096.04 206.528 1093.94 Q208.866 1091.83 208.866 1088.22 Q208.866 1084.61 206.528 1082.5 Q204.19 1080.39 200.186 1080.39 Q198.311 1080.39 196.436 1080.81 Q194.584 1081.23 192.639 1082.11 L192.639 1064.75 Z" fill="#000000" fill-rule="nonzero" fill-opacity="1" /><path clip-path="url(#clip690)" d="M117.015 783.015 L124.654 783.015 L124.654 756.65 L116.343 758.317 L116.343 754.057 L124.607 752.391 L129.283 752.391 L129.283 783.015 L136.922 783.015 L136.922 786.951 L117.015 786.951 L117.015 783.015 Z" fill="#000000" fill-rule="nonzero" fill-opacity="1" /><path clip-path="url(#clip690)" d="M146.366 781.071 L151.251 781.071 L151.251 786.951 L146.366 786.951 L146.366 781.071 Z" fill="#000000" fill-rule="nonzero" fill-opacity="1" /><path clip-path="url(#clip690)" d="M171.436 755.469 Q167.825 755.469 165.996 759.034 Q164.19 762.576 164.19 769.705 Q164.19 776.812 165.996 780.377 Q167.825 783.918 171.436 783.918 Q175.07 783.918 176.876 780.377 Q178.704 776.812 178.704 769.705 Q178.704 762.576 176.876 759.034 Q175.07 755.469 171.436 755.469 M171.436 751.766 Q177.246 751.766 180.301 756.372 Q183.38 760.955 183.38 769.705 Q183.38 778.432 180.301 783.039 Q177.246 787.622 171.436 787.622 Q165.626 787.622 162.547 783.039 Q159.491 778.432 159.491 769.705 Q159.491 760.955 162.547 756.372 Q165.626 751.766 171.436 751.766 Z" fill="#000000" fill-rule="nonzero" fill-opacity="1" /><path clip-path="url(#clip690)" d="M201.598 755.469 Q197.987 755.469 196.158 759.034 Q194.352 762.576 194.352 769.705 Q194.352 776.812 196.158 780.377 Q197.987 783.918 201.598 783.918 Q205.232 783.918 207.037 780.377 Q208.866 776.812 208.866 769.705 Q208.866 762.576 207.037 759.034 Q205.232 755.469 201.598 755.469 M201.598 751.766 Q207.408 751.766 210.463 756.372 Q213.542 760.955 213.542 769.705 Q213.542 778.432 210.463 783.039 Q207.408 787.622 201.598 787.622 Q195.787 787.622 192.709 783.039 Q189.653 778.432 189.653 769.705 Q189.653 760.955 192.709 756.372 Q195.787 751.766 201.598 751.766 Z" fill="#000000" fill-rule="nonzero" fill-opacity="1" /><path clip-path="url(#clip690)" d="M118.01 470.66 L125.649 470.66 L125.649 444.294 L117.339 445.961 L117.339 441.701 L125.603 440.035 L130.279 440.035 L130.279 470.66 L137.917 470.66 L137.917 474.595 L118.01 474.595 L118.01 470.66 Z" fill="#000000" fill-rule="nonzero" fill-opacity="1" /><path clip-path="url(#clip690)" d="M147.362 468.715 L152.246 468.715 L152.246 474.595 L147.362 474.595 L147.362 468.715 Z" fill="#000000" fill-rule="nonzero" fill-opacity="1" /><path clip-path="url(#clip690)" d="M172.431 443.113 Q168.82 443.113 166.991 446.678 Q165.186 450.22 165.186 457.349 Q165.186 464.456 166.991 468.021 Q168.82 471.562 172.431 471.562 Q176.065 471.562 177.871 468.021 Q179.7 464.456 179.7 457.349 Q179.7 450.22 177.871 446.678 Q176.065 443.113 172.431 443.113 M172.431 439.41 Q178.241 439.41 181.297 444.016 Q184.376 448.6 184.376 457.349 Q184.376 466.076 181.297 470.683 Q178.241 475.266 172.431 475.266 Q166.621 475.266 163.542 470.683 Q160.487 466.076 160.487 457.349 Q160.487 448.6 163.542 444.016 Q166.621 439.41 172.431 439.41 Z" fill="#000000" fill-rule="nonzero" fill-opacity="1" /><path clip-path="url(#clip690)" d="M192.639 440.035 L210.996 440.035 L210.996 443.97 L196.922 443.97 L196.922 452.442 Q197.94 452.095 198.959 451.933 Q199.977 451.748 200.996 451.748 Q206.783 451.748 210.162 454.919 Q213.542 458.09 213.542 463.507 Q213.542 469.086 210.07 472.187 Q206.598 475.266 200.278 475.266 Q198.102 475.266 195.834 474.896 Q193.588 474.525 191.181 473.785 L191.181 469.086 Q193.264 470.22 195.487 470.775 Q197.709 471.331 200.186 471.331 Q204.19 471.331 206.528 469.224 Q208.866 467.118 208.866 463.507 Q208.866 459.896 206.528 457.789 Q204.19 455.683 200.186 455.683 Q198.311 455.683 196.436 456.099 Q194.584 456.516 192.639 457.396 L192.639 440.035 Z" fill="#000000" fill-rule="nonzero" fill-opacity="1" /><path clip-path="url(#clip690)" d="M117.015 158.304 L124.654 158.304 L124.654 131.938 L116.343 133.605 L116.343 129.345 L124.607 127.679 L129.283 127.679 L129.283 158.304 L136.922 158.304 L136.922 162.239 L117.015 162.239 L117.015 158.304 Z" fill="#000000" fill-rule="nonzero" fill-opacity="1" /><path clip-path="url(#clip690)" d="M146.366 156.359 L151.251 156.359 L151.251 162.239 L146.366 162.239 L146.366 156.359 Z" fill="#000000" fill-rule="nonzero" fill-opacity="1" /><path clip-path="url(#clip690)" d="M162.246 158.304 L169.885 158.304 L169.885 131.938 L161.575 133.605 L161.575 129.345 L169.839 127.679 L174.514 127.679 L174.514 158.304 L182.153 158.304 L182.153 162.239 L162.246 162.239 L162.246 158.304 Z" fill="#000000" fill-rule="nonzero" fill-opacity="1" /><path clip-path="url(#clip690)" d="M201.598 130.758 Q197.987 130.758 196.158 134.322 Q194.352 137.864 194.352 144.994 Q194.352 152.1 196.158 155.665 Q197.987 159.206 201.598 159.206 Q205.232 159.206 207.037 155.665 Q208.866 152.1 208.866 144.994 Q208.866 137.864 207.037 134.322 Q205.232 130.758 201.598 130.758 M201.598 127.054 Q207.408 127.054 210.463 131.66 Q213.542 136.244 213.542 144.994 Q213.542 153.72 210.463 158.327 Q207.408 162.91 201.598 162.91 Q195.787 162.91 192.709 158.327 Q189.653 153.72 189.653 144.994 Q189.653 136.244 192.709 131.66 Q195.787 127.054 201.598 127.054 Z" fill="#000000" fill-rule="nonzero" fill-opacity="1" /><path clip-path="url(#clip690)" d="M41.3104 920.709 L58.7206 920.709 L58.7206 910.396 Q58.7206 905.208 56.5881 902.726 Q54.4238 900.211 49.9996 900.211 Q45.5436 900.211 43.4429 902.726 Q41.3104 905.208 41.3104 910.396 L41.3104 920.709 M21.7677 920.709 L36.0905 920.709 L36.0905 911.192 Q36.0905 906.481 34.34 904.19 Q32.5576 901.866 28.9291 901.866 Q25.3325 901.866 23.5501 904.19 Q21.7677 906.481 21.7677 911.192 L21.7677 920.709 M16.4842 927.138 L16.4842 910.715 Q16.4842 903.362 19.5397 899.384 Q22.5952 895.405 28.2289 895.405 Q32.5894 895.405 35.1675 897.442 Q37.7456 899.479 38.3822 903.426 Q39.4007 898.683 42.6472 896.073 Q45.8619 893.432 50.6998 893.432 Q57.0655 893.432 60.5348 897.76 Q64.0042 902.089 64.0042 910.078 L64.0042 927.138 L16.4842 927.138 Z" fill="#000000" fill-rule="nonzero" fill-opacity="1" /><path clip-path="url(#clip690)" d="M32.4621 868.86 Q32.4621 873.571 36.1542 876.308 Q39.8145 879.045 46.212 879.045 Q52.6095 879.045 56.3017 876.34 Q59.9619 873.602 59.9619 868.86 Q59.9619 864.181 56.2698 861.444 Q52.5777 858.707 46.212 858.707 Q39.8781 858.707 36.186 861.444 Q32.4621 864.181 32.4621 868.86 M27.4968 868.86 Q27.4968 861.221 32.4621 856.861 Q37.4273 852.5 46.212 852.5 Q54.9649 852.5 59.9619 856.861 Q64.9272 861.221 64.9272 868.86 Q64.9272 876.531 59.9619 880.891 Q54.9649 885.22 46.212 885.22 Q37.4273 885.22 32.4621 880.891 Q27.4968 876.531 27.4968 868.86 Z" fill="#000000" fill-rule="nonzero" fill-opacity="1" /><path clip-path="url(#clip690)" d="M42.4881 813.16 L64.0042 813.16 L64.0042 819.016 L42.679 819.016 Q37.6183 819.016 35.1038 820.99 Q32.5894 822.963 32.5894 826.91 Q32.5894 831.652 35.6131 834.39 Q38.6368 837.127 43.8567 837.127 L64.0042 837.127 L64.0042 843.015 L28.3562 843.015 L28.3562 837.127 L33.8944 837.127 Q30.6797 835.026 29.0883 832.194 Q27.4968 829.329 27.4968 825.605 Q27.4968 819.462 31.3163 816.311 Q35.1038 813.16 42.4881 813.16 Z" fill="#000000" fill-rule="nonzero" fill-opacity="1" /><path clip-path="url(#clip690)" d="M33.7671 778.021 L14.479 778.021 L14.479 772.165 L64.0042 772.165 L64.0042 778.021 L58.657 778.021 Q61.8398 779.867 63.3994 782.7 Q64.9272 785.501 64.9272 789.448 Q64.9272 795.909 59.771 799.983 Q54.6147 804.025 46.212 804.025 Q37.8093 804.025 32.6531 799.983 Q27.4968 795.909 27.4968 789.448 Q27.4968 785.501 29.0564 782.7 Q30.5842 779.867 33.7671 778.021 M46.212 797.978 Q52.6732 797.978 56.3653 795.336 Q60.0256 792.662 60.0256 788.016 Q60.0256 783.369 56.3653 780.695 Q52.6732 778.021 46.212 778.021 Q39.7508 778.021 36.0905 780.695 Q32.3984 783.369 32.3984 788.016 Q32.3984 792.662 36.0905 795.336 Q39.7508 797.978 46.212 797.978 Z" fill="#000000" fill-rule="nonzero" fill-opacity="1" /><path clip-path="url(#clip690)" d="M14.479 739.382 L14.479 733.525 L64.0042 733.525 L64.0042 739.382 L14.479 739.382 Z" fill="#000000" fill-rule="nonzero" fill-opacity="1" /><path clip-path="url(#clip690)" d="M44.7161 690.779 L47.5806 690.779 L47.5806 717.706 Q53.6281 717.324 56.8109 714.078 Q59.9619 710.799 59.9619 704.975 Q59.9619 701.601 59.1344 698.45 Q58.3069 695.267 56.6518 692.148 L62.1899 692.148 Q63.5267 695.299 64.227 698.609 Q64.9272 701.919 64.9272 705.325 Q64.9272 713.855 59.9619 718.852 Q54.9967 723.817 46.5303 723.817 Q37.7774 723.817 32.6531 719.107 Q27.4968 714.364 27.4968 706.343 Q27.4968 699.15 32.1438 694.981 Q36.7589 690.779 44.7161 690.779 M42.9973 696.636 Q38.1912 696.699 35.3266 699.341 Q32.4621 701.951 32.4621 706.28 Q32.4621 711.181 35.2312 714.141 Q38.0002 717.07 43.0292 717.515 L42.9973 696.636 Z" fill="#000000" fill-rule="nonzero" fill-opacity="1" /><path clip-path="url(#clip690)" d="M42.4881 651.535 L64.0042 651.535 L64.0042 657.391 L42.679 657.391 Q37.6183 657.391 35.1038 659.365 Q32.5894 661.338 32.5894 665.285 Q32.5894 670.027 35.6131 672.764 Q38.6368 675.502 43.8567 675.502 L64.0042 675.502 L64.0042 681.39 L28.3562 681.39 L28.3562 675.502 L33.8944 675.502 Q30.6797 673.401 29.0883 670.568 Q27.4968 667.704 27.4968 663.98 Q27.4968 657.837 31.3163 654.686 Q35.1038 651.535 42.4881 651.535 Z" fill="#000000" fill-rule="nonzero" fill-opacity="1" /><path clip-path="url(#clip690)" d="M45.7664 616.396 Q39.4007 616.396 35.8996 619.038 Q32.3984 621.648 32.3984 626.39 Q32.3984 631.101 35.8996 633.743 Q39.4007 636.353 45.7664 636.353 Q52.1003 636.353 55.6014 633.743 Q59.1026 631.101 59.1026 626.39 Q59.1026 621.648 55.6014 619.038 Q52.1003 616.396 45.7664 616.396 M59.58 610.54 Q68.683 610.54 73.1071 614.582 Q77.5631 618.624 77.5631 626.963 Q77.5631 630.05 77.0857 632.788 Q76.6401 635.525 75.6852 638.103 L69.9879 638.103 Q71.3884 635.525 72.0568 633.011 Q72.7252 630.496 72.7252 627.886 Q72.7252 622.125 69.7015 619.261 Q66.7096 616.396 60.6303 616.396 L57.7339 616.396 Q60.885 618.21 62.4446 621.043 Q64.0042 623.876 64.0042 627.822 Q64.0042 634.379 59.0071 638.39 Q54.01 642.4 45.7664 642.4 Q37.491 642.4 32.4939 638.39 Q27.4968 634.379 27.4968 627.822 Q27.4968 623.876 29.0564 621.043 Q30.616 618.21 33.7671 616.396 L28.3562 616.396 L28.3562 610.54 L59.58 610.54 Z" fill="#000000" fill-rule="nonzero" fill-opacity="1" /><path clip-path="url(#clip690)" d="M18.2347 592.684 L28.3562 592.684 L28.3562 580.621 L32.9077 580.621 L32.9077 592.684 L52.2594 592.684 Q56.6199 592.684 57.8613 591.506 Q59.1026 590.297 59.1026 586.636 L59.1026 580.621 L64.0042 580.621 L64.0042 586.636 Q64.0042 593.416 61.4897 595.994 Q58.9434 598.572 52.2594 598.572 L32.9077 598.572 L32.9077 602.869 L28.3562 602.869 L28.3562 598.572 L18.2347 598.572 L18.2347 592.684 Z" fill="#000000" fill-rule="nonzero" fill-opacity="1" /><path clip-path="url(#clip690)" d="M42.4881 543.286 L64.0042 543.286 L64.0042 549.142 L42.679 549.142 Q37.6183 549.142 35.1038 551.116 Q32.5894 553.089 32.5894 557.036 Q32.5894 561.778 35.6131 564.516 Q38.6368 567.253 43.8567 567.253 L64.0042 567.253 L64.0042 573.141 L14.479 573.141 L14.479 567.253 L33.8944 567.253 Q30.6797 565.152 29.0883 562.319 Q27.4968 559.455 27.4968 555.731 Q27.4968 549.588 31.3163 546.437 Q35.1038 543.286 42.4881 543.286 Z" fill="#000000" fill-rule="nonzero" fill-opacity="1" /><polyline clip-path="url(#clip692)" style="stroke:#009af9; stroke-linecap:round; stroke-linejoin:round; stroke-width:4; stroke-opacity:1; fill:none" points="309.067,1183.01 311.053,874.981 313.039,844.225 315.025,418.672 317.012,537.477 318.998,593.226 320.984,886.788 322.97,1077.24 324.956,959.066 326.942,676.058 328.928,794.415 330.915,1256.65 332.901,543.709 334.887,706.415 336.873,872.861 338.859,734.133 340.845,644.037 342.832,948.014 344.818,718.842 346.804,698.256 348.79,928.952 350.776,866.545 352.762,865.057 354.748,757.929 356.735,1074.56 358.721,716.721 360.707,587.433 362.693,734.448 364.679,717.574 366.665,605.508 368.651,571.49 370.638,616.624 372.624,793.388 374.61,969.161 376.596,1384.24 378.582,986.691 380.568,683.824 382.555,835.594 384.541,547.136 386.527,890.504 388.513,763.911 390.499,537.248 392.485,748.495 394.471,647.731 396.458,902.184 398.444,748.374 400.43,639.638 402.416,798.092 404.402,911.333 406.388,899.107 408.374,379.062 410.361,753.369 412.347,568.149 414.333,491.71 416.319,374.506 418.305,484.669 420.291,600.027 422.278,515.842 424.264,855.211 426.25,1136.16 428.236,1296.37 430.222,527.915 432.208,655.9 434.194,806.936 436.181,752.972 438.167,984.403 440.153,616.86 442.139,547.409 444.125,1053.01 446.111,687.974 448.097,989.058 450.084,682.856 452.07,1123.35 454.056,655.674 456.042,771.572 458.028,762.866 460.014,867.55 462.001,723.012 463.987,851.827 465.973,589.532 467.959,982.789 469.945,668.271 471.931,754.103 473.917,754.103 475.904,709.621 477.89,687.273 479.876,961.513 481.862,655.066 483.848,612.679 485.834,560.187 487.82,756.745 489.807,575.139 491.793,826.811 493.779,1100.99 495.765,876.212 497.751,364.913 499.737,897.887 501.724,346.447 503.71,861.005 505.696,249.222 507.682,1093.13 509.668,728.293 511.654,852.302 513.64,767.921 515.627,1088.43 517.613,833.984 519.599,980.639 521.585,826.472 523.571,960.14 525.557,895.31 527.543,636.54 529.53,728.05 531.516,951.368 533.502,882.845 535.488,706.291 537.474,748.501 539.46,712.052 541.447,819.221 543.433,935.837 545.419,1019.73 547.405,807.324 549.391,803.704 551.377,814.092 553.363,799.968 555.35,834.456 557.336,908.02 559.322,187.24 561.308,895.076 563.294,616.744 565.28,632.501 567.266,755.818 569.253,905.337 571.239,481.106 573.225,897.578 575.211,709.983 577.197,869.745 579.183,788.718 581.17,492.554 583.156,658.347 585.142,837.892 587.128,761.4 589.114,761.4 591.1,696.701 593.086,635.754 595.073,659.823 597.059,718.928 599.045,759.599 601.031,582.06 603.017,612.317 605.003,733.928 606.989,888.298 608.976,865.551 610.962,766.638 612.948,976.655 614.934,865.878 616.92,692.256 618.906,1287.42 620.893,841.555 622.879,678 624.865,732.286 626.851,525.011 628.837,410.652 630.823,794.363 632.809,647.464 634.796,813.88 636.782,740.289 638.768,745.832 640.754,776.572 642.74,833.309 644.726,800.104 646.712,766.007 648.699,796.481 650.685,1022.77 652.671,762.422 654.657,930.17 656.643,760.067 658.629,580.826 660.616,927.111 662.602,450.801 664.588,531.455 666.574,771.922 668.56,1138.07 670.546,1002.82 672.532,1251.93 674.519,984.062 676.505,947.11 678.491,883.806 680.477,826.321 682.463,727.888 684.449,676.434 686.435,633.153 688.422,839.799 690.408,671.955 692.394,989.164 694.38,408.509 696.366,794.768 698.352,685.881 700.339,750.286 702.325,780.373 704.311,780.373 706.297,764.974 708.283,685.964 710.269,1040.56 712.255,547.992 714.242,965.218 716.228,1027.65 718.214,1002.1 720.2,759.241 722.186,759.241 724.172,1117.36 726.158,557.856 728.145,633.905 730.131,608.304 732.117,697.221 734.103,492.022 736.089,772.048 738.075,940.703 740.062,428.913 742.048,882.621 744.034,688.384 746.02,678.675 748.006,750.405 749.992,1093.47 751.978,616.076 753.965,1036.35 755.951,982.097 757.937,770.649 759.923,1089.17 761.909,732.247 763.895,662.548 765.881,969.451 767.868,763.962 769.854,982.278 771.84,853.494 773.826,941.31 775.812,686.696 777.798,706.807 779.785,897.064 781.771,613.308 783.757,558.032 785.743,824.274 787.729,845.69 789.715,596.292 791.701,936.75 793.688,1041.1 795.674,1020.36 797.66,1013.34 799.646,860.93 801.632,845.854 803.618,607.252 805.604,677.046 807.591,791.323 809.577,406.368 811.563,711.135 813.549,446.312 815.535,845.433 817.521,849.539 819.508,845.892 821.494,845.892 823.48,958.349 825.466,664.117 827.452,638.765 829.438,954.906 831.424,637.405 833.411,598.557 835.397,543.303 837.383,805.139 839.369,794.078 841.355,796.499 843.341,904.559 845.328,1014.4 847.314,510.057 849.3,366.214 851.286,712.792 853.272,572.805 855.258,407.509 857.244,993.903 859.231,770.712 861.217,728.321 863.203,805.151 865.189,650.217 867.175,895.826 869.161,1073.64 871.147,660.015 873.134,895.256 875.12,782.803 877.106,641.451 879.092,988.186 881.078,330.498 883.064,700.761 885.051,433.147 887.037,872.76 889.023,938.069 891.009,726.709 892.995,560.274 894.981,452.958 896.967,831.78 898.954,501.409 900.94,591.797 902.926,579.46 904.912,805.978 906.898,605.328 908.884,134.158 910.87,1031.78 912.857,547.686 914.843,721.961 916.829,714.748 918.815,798.859 920.801,625.091 922.787,227.696 924.774,676.803 926.76,954.329 928.746,497.744 930.732,758.416 932.718,870.281 934.704,894.963 936.69,654.928 938.677,727.193 940.663,761.386 942.649,750.837 944.635,918.079 946.621,671.756 948.607,812.85 950.593,616.111 952.58,996.819 954.566,963.229 956.552,708.227 958.538,710.737 960.524,794.403 962.51,616.22 964.497,860.4 966.483,840.163 968.469,468.975 970.455,556.45 972.441,837.922 974.427,770.469 976.413,857.303 978.4,751.231 980.386,815.985 982.372,887.769 984.358,825.898 986.344,530.565 988.33,806.938 990.316,821.989 992.303,774.675 994.289,700.934 996.275,734.864 998.261,748.982 1000.25,1239.41 1002.23,884.476 1004.22,663.515 1006.21,877.138 1008.19,792.221 1010.18,1071.05 1012.16,652.963 1014.15,698.284 1016.14,629.977 1018.12,668.471 1020.11,721.947 1022.09,559.53 1024.08,745.005 1026.07,809.871 1028.05,843.329 1030.04,569.311 1032.03,723.757 1034.01,540.442 1036,1020.51 1037.98,871.27 1039.97,1084.69 1041.96,899.28 1043.94,908.592 1045.93,817.096 1047.91,743.633 1049.9,986.008 1051.89,798.227 1053.87,940.407 1055.86,925.158 1057.85,451.72 1059.83,832.208 1061.82,1071.45 1063.8,572.08 1065.79,750.163 1067.78,831.619 1069.76,770.305 1071.75,691.726 1073.73,785.438 1075.72,724.728 1077.71,600.199 1079.69,568.267 1081.68,1105.88 1083.67,730.179 1085.65,794.128 1087.64,829.532 1089.62,682.814 1091.61,1053.92 1093.6,703.586 1095.58,569.66 1097.57,911.693 1099.55,831.683 1101.54,677.477 1103.53,738.253 1105.51,420.677 1107.5,565.186 1109.49,556.592 1111.47,1016.17 1113.46,598.947 1115.44,338.69 1117.43,805.531 1119.42,550.646 1121.4,706.079 1123.39,1067.47 1125.37,863.578 1127.36,379.091 1129.35,714.377 1131.33,794.041 1133.32,952.308 1135.31,875.128 1137.29,628.089 1139.28,570.115 1141.26,459.368 1143.25,361.977 1145.24,813.88 1147.22,560.391 1149.21,800.773 1151.19,825.068 1153.18,618.663 1155.17,779.819 1157.15,659.742 1159.14,841.073 1161.13,706.217 1163.11,1195.23 1165.1,853.016 1167.08,928.637 1169.07,390.135 1171.06,765.124 1173.04,591.625 1175.03,972.025 1177.01,619.951 1179,851.963 1180.99,707.391 1182.97,989.224 1184.96,906.425 1186.95,753.625 1188.93,1017.63 1190.92,893.04 1192.9,692.383 1194.89,970.482 1196.88,804.725 1198.86,531.165 1200.85,451.734 1202.83,894.863 1204.82,550.755 1206.81,847.896 1208.79,1121.13 1210.78,609.591 1212.77,734.401 1214.75,576.307 1216.74,624.774 1218.72,717.104 1220.71,807.034 1222.7,905.62 1224.68,435.293 1226.67,949.313 1228.65,936.363 1230.64,906.382 1232.63,1009.24 1234.61,563.648 1236.6,1087.16 1238.59,865.239 1240.57,642.136 1242.56,537.551 1244.54,846.698 1246.53,639.606 1248.52,818.609 1250.5,677.566 1252.49,624.729 1254.47,316.065 1256.46,565.799 1258.45,1005.83 1260.43,794.656 1262.42,598.365 1264.41,732.435 1266.39,605.677 1268.38,666.569 1270.36,569.637 1272.35,994.91 1274.34,1112.47 1276.32,774.754 1278.31,1369.77 1280.29,791.132 1282.28,759.797 1284.27,761.547 1286.25,850.014 1288.24,787.208 1290.23,710.041 1292.21,785.94 1294.2,794.001 1296.18,1047.45 1298.17,1080.11 1300.16,337.903 1302.14,703.742 1304.13,761.48 1306.11,801.695 1308.1,450.041 1310.09,643.561 1312.07,904.477 1314.06,777.096 1316.05,842.912 1318.03,884.162 1320.02,840.356 1322,702.696 1323.99,649.734 1325.98,533.213 1327.96,1077.25 1329.95,918.124 1331.93,981.893 1333.92,615.226 1335.91,936.215 1337.89,597.266 1339.88,448.202 1341.87,753.479 1343.85,715.641 1345.84,841.738 1347.82,603.86 1349.81,802.73 1351.8,944.35 1353.78,1046.4 1355.77,720.444 1357.75,819.324 1359.74,903.539 1361.73,952.283 1363.71,515.008 1365.7,706.507 1367.69,586.911 1369.67,849.328 1371.66,1005.96 1373.64,865.312 1375.63,918.889 1377.62,861.856 1379.6,760.696 1381.59,812.374 1383.57,819.122 1385.56,808.355 1387.55,817.881 1389.53,706.688 1391.52,661.22 1393.5,854.029 1395.49,1020.92 1397.48,1048.3 1399.46,1028.21 1401.45,1009.31 1403.44,691.481 1405.42,692.618 1407.41,828.428 1409.39,763.437 1411.38,861.931 1413.37,776.702 1415.35,842.195 1417.34,782.716 1419.32,721.404 1421.31,845.035 1423.3,592.886 1425.28,448.944 1427.27,456.576 1429.26,1143.9 1431.24,1015.81 1433.23,474.225 1435.21,573.481 1437.2,307.66 1439.19,965.819 1441.17,796.347 1443.16,796.347 1445.14,448.523 1447.13,793.714 1449.12,780.864 1451.1,663.88 1453.09,588.365 1455.08,585.743 1457.06,813.101 1459.05,981.025 1461.03,560.69 1463.02,745.838 1465.01,500.892 1466.99,642.762 1468.98,953.303 1470.96,839.925 1472.95,675.42 1474.94,603.879 1476.92,856.673 1478.91,528.807 1480.9,829.429 1482.88,495.962 1484.87,767.281 1486.85,1178.23 1488.84,801.985 1490.83,850.751 1492.81,714.404 1494.8,581.114 1496.78,707.382 1498.77,468.004 1500.76,859.859 1502.74,678.273 1504.73,747.316 1506.72,918.882 1508.7,536.122 1510.69,775.046 1512.67,664.815 1514.66,734.092 1516.65,760.237 1518.63,827.097 1520.62,884.38 1522.6,919.323 1524.59,545.585 1526.58,812.766 1528.56,943.04 1530.55,1097.25 1532.54,969.453 1534.52,966.259 1536.51,611.857 1538.49,907.757 1540.48,955.608 1542.47,739.132 1544.45,1005.71 1546.44,748.787 1548.42,1019.01 1550.41,746.855 1552.4,835.065 1554.38,706.781 1556.37,86.1857 1558.36,663.519 1560.34,962.534 1562.33,515.19 1564.31,1138.42 1566.3,1118.34 1568.29,1073.73 1570.27,876.289 1572.26,476.675 1574.24,750.935 1576.23,532.175 1578.22,1017.29 1580.2,1060.3 1582.19,343.868 1584.18,484.198 1586.16,781.496 1588.15,1043.88 1590.13,848.399 1592.12,754.676 1594.11,774.6 1596.09,1078.73 1598.08,736.641 1600.06,1019.08 1602.05,539.849 1604.04,697.608 1606.02,960.261 1608.01,679.803 1610,634.86 1611.98,1092.38 1613.97,1230.51 1615.95,797.508 1617.94,628.533 1619.93,830.455 1621.91,887.041 1623.9,1023 1625.88,801.485 1627.87,899.965 1629.86,643.212 1631.84,619.534 1633.83,805.076 1635.82,805.076 1637.8,312.985 1639.79,978.119 1641.77,656.229 1643.76,994.476 1645.75,580.753 1647.73,925.401 1649.72,632.715 1651.7,534.627 1653.69,609.79 1655.68,614.477 1657.66,978.758 1659.65,727.193 1661.64,998.342 1663.62,742.439 1665.61,806.893 1667.59,588.169 1669.58,734.044 1671.57,831.267 1673.55,678.889 1675.54,952.436 1677.52,970.306 1679.51,637.32 1681.5,906.224 1683.48,933.886 1685.47,918.555 1687.46,629.201 1689.44,550.031 1691.43,538.956 1693.41,978.143 1695.4,892.884 1697.39,602.956 1699.37,759.067 1701.36,893.022 1703.34,768.14 1705.33,866.68 1707.32,483.239 1709.3,742.09 1711.29,736.054 1713.28,1035.29 1715.26,407.951 1717.25,651.299 1719.23,692.385 1721.22,872.058 1723.21,707.492 1725.19,612.598 1727.18,756.526 1729.16,1172.81 1731.15,602.858 1733.14,690.812 1735.12,984.018 1737.11,581.806 1739.1,1107.46 1741.08,766.11 1743.07,927.6 1745.05,527.908 1747.04,757.421 1749.03,972.915 1751.01,651.148 1753,1151.68 1754.98,871.327 1756.97,805.349 1758.96,882.275 1760.94,865.074 1762.93,823.944 1764.92,948.452 1766.9,589.412 1768.89,692.553 1770.87,1069.82 1772.86,737.134 1774.85,1196.5 1776.83,668.997 1778.82,1130.69 1780.8,913.877 1782.79,1198.45 1784.78,511.955 1786.76,710.617 1788.75,711.577 1790.73,1204.03 1792.72,319.181 1794.71,328.027 1796.69,1088.05 1798.68,725.259 1800.67,588.68 1802.65,854.521 1804.64,333.226 1806.62,736.208 1808.61,792.774 1810.6,729.352 1812.58,521.964 1814.57,367.139 1816.55,907.71 1818.54,728.055 1820.53,766.429 1822.51,1043.97 1824.5,806.24 1826.49,528.791 1828.47,656.26 1830.46,715.558 1832.44,919.482 1834.43,886.524 1836.42,763.519 1838.4,614.175 1840.39,822.134 1842.37,457.918 1844.36,869.555 1846.35,788.402 1848.33,757.865 1850.32,797.321 1852.31,990.923 1854.29,870.043 1856.28,870.105 1858.26,866.304 1860.25,538.376 1862.24,936.09 1864.22,820.497 1866.21,617.397 1868.19,1018.56 1870.18,750.702 1872.17,953.131 1874.15,529.563 1876.14,652.188 1878.13,557.015 1880.11,557.015 1882.1,533.293 1884.08,750.492 1886.07,879.916 1888.06,1129.83 1890.04,718.46 1892.03,719.422 1894.01,673.422 1896,987.221 1897.99,670.609 1899.97,833.328 1901.96,614.964 1903.95,624.316 1905.93,977.16 1907.92,721.246 1909.9,1019.16 1911.89,500.63 1913.88,739.398 1915.86,645.818 1917.85,729.838 1919.83,860.967 1921.82,1029.9 1923.81,855.915 1925.79,683.535 1927.78,617.171 1929.77,792.202 1931.75,730.42 1933.74,899.961 1935.72,561.179 1937.71,511.597 1939.7,798.364 1941.68,836.574 1943.67,571.318 1945.65,672.158 1947.64,685.051 1949.63,951.344 1951.61,611.571 1953.6,569.035 1955.59,766.447 1957.57,1200.35 1959.56,643.499 1961.54,840.374 1963.53,745.176 1965.52,526.959 1967.5,771.788 1969.49,860.098 1971.47,639.292 1973.46,831.31 1975.45,918.15 1977.43,651.031 1979.42,531.385 1981.41,941.362 1983.39,552.227 1985.38,738.487 1987.36,422.13 1989.35,852.574 1991.34,841.244 1993.32,404.682 1995.31,1021.22 1997.29,905.9 1999.28,949.635 2001.27,433.836 2003.25,886.29 2005.24,688.919 2007.23,937.809 2009.21,918.91 2011.2,586.914 2013.18,823.56 2015.17,828.041 2017.16,702.703 2019.14,824.951 2021.13,840.964 2023.11,806.766 2025.1,498.896 2027.09,675.912 2029.07,540.174 2031.06,676.796 2033.05,1137.78 2035.03,660.496 2037.02,765.645 2039,1071.32 2040.99,745.387 2042.98,751.85 2044.96,930.325 2046.95,838.164 2048.93,1084.85 2050.92,844.242 2052.91,737.347 2054.89,689.276 2056.88,1029.64 2058.87,437.634 2060.85,792.545 2062.84,759.122 2064.82,883.541 2066.81,878.937 2068.8,749.679 2070.78,609.676 2072.77,900.558 2074.75,939.802 2076.74,568.322 2078.73,355.638 2080.71,553.383 2082.7,795.235 2084.69,951.081 2086.67,917.652 2088.66,885.837 2090.64,841.154 2092.63,734.247 2094.62,845.777 2096.6,839.507 2098.59,831.789 2100.57,380.058 2102.56,574.983 2104.55,1002.45 2106.53,731.662 2108.52,986.718 2110.51,825.094 2112.49,864.898 2114.48,814.849 2116.46,422.832 2118.45,619.073 2120.44,934.822 2122.42,555.835 2124.41,514.006 2126.39,822.336 2128.38,822.336 2130.37,953.598 2132.35,788.759 2134.34,706.521 2136.33,911.88 2138.31,493.516 2140.3,832.573 2142.28,481.598 2144.27,958.866 2146.26,964.095 2148.24,807.506 2150.23,966.614 2152.21,729.003 2154.2,499.386 2156.19,619.743 2158.17,749.398 2160.16,1018.29 2162.15,707.603 2164.13,503.014 2166.12,721.066 2168.1,323.808 2170.09,767.052 2172.08,869.962 2174.06,974.617 2176.05,591.124 2178.03,581.738 2180.02,613.138 2182.01,991.797 2183.99,851.414 2185.98,800.208 2187.97,443.974 2189.95,701.078 2191.94,694.715 2193.92,508.374 2195.91,833.72 2197.9,491.572 2199.88,1010.52 2201.87,743.642 2203.85,670.354 2205.84,433.54 2207.83,543.445 2209.81,291.928 2211.8,808.442 2213.78,788.778 2215.77,794.741 2217.76,697.639 2219.74,714.284 2221.73,698.819 2223.72,837.9 2225.7,736.111 2227.69,638.84 2229.67,585.827 2231.66,758.161 2233.65,557.817 2235.63,515.748 2237.62,974.183 2239.6,947.819 2241.59,536.548 2243.58,429.277 2245.56,714.879 2247.55,735.544 2249.54,793.324 2251.52,754.864 2253.51,1038.15 2255.49,835.785 2257.48,1057.44 2259.47,883.239 2261.45,670.487 2263.44,867.171 2265.42,705.167 2267.41,747.302 2269.4,889.683 2271.38,832.685 2273.37,943.006 2275.36,653.119 2277.34,788.837 2279.33,710.285 2281.31,605.304 2283.3,573.776 2285.29,360.938 2287.27,853.538 2289.26,853.538 2291.24,510.896 2293.23,804.121 "/>
<path clip-path="url(#clip690)" d="M2019.9 1377.32 L2282.65 1377.32 L2282.65 1273.64 L2019.9 1273.64  Z" fill="#ffffff" fill-rule="evenodd" fill-opacity="1"/>
<polyline clip-path="url(#clip690)" style="stroke:#000000; stroke-linecap:round; stroke-linejoin:round; stroke-width:4; stroke-opacity:1; fill:none" points="2019.9,1377.32 2282.65,1377.32 2282.65,1273.64 2019.9,1273.64 2019.9,1377.32 "/>
<polyline clip-path="url(#clip690)" style="stroke:#009af9; stroke-linecap:round; stroke-linejoin:round; stroke-width:4; stroke-opacity:1; fill:none" points="2043.27,1325.48 2183.48,1325.48 "/>
<path clip-path="url(#clip690)" d="M2220.69 1345.16 Q2218.89 1349.79 2217.17 1351.2 Q2215.46 1352.62 2212.59 1352.62 L2209.19 1352.62 L2209.19 1349.05 L2211.69 1349.05 Q2213.45 1349.05 2214.42 1348.22 Q2215.39 1347.38 2216.57 1344.28 L2217.34 1342.34 L2206.85 1316.83 L2211.36 1316.83 L2219.47 1337.11 L2227.57 1316.83 L2232.08 1316.83 L2220.69 1345.16 Z" fill="#000000" fill-rule="nonzero" fill-opacity="1" /><path clip-path="url(#clip690)" d="M2239.37 1338.82 L2247.01 1338.82 L2247.01 1312.45 L2238.7 1314.12 L2238.7 1309.86 L2246.96 1308.2 L2251.64 1308.2 L2251.64 1338.82 L2259.28 1338.82 L2259.28 1342.76 L2239.37 1342.76 L2239.37 1338.82 Z" fill="#000000" fill-rule="nonzero" fill-opacity="1" /></svg>
