<?xml version="1.0" encoding="utf-8"?>
<svg xmlns="http://www.w3.org/2000/svg" xmlns:xlink="http://www.w3.org/1999/xlink" width="600" height="400" viewBox="0 0 2400 1600">
<defs>
  <clipPath id="clip610">
    <rect x="0" y="0" width="2400" height="1600"/>
  </clipPath>
</defs>
<path clip-path="url(#clip610)" d="M0 1600 L2400 1600 L2400 0 L0 0  Z" fill="#ffffff" fill-rule="evenodd" fill-opacity="1"/>
<defs>
  <clipPath id="clip611">
    <rect x="480" y="0" width="1681" height="1600"/>
  </clipPath>
</defs>
<path clip-path="url(#clip610)" d="M193.936 1486.45 L2352.76 1486.45 L2352.76 47.2441 L193.936 47.2441  Z" fill="#ffffff" fill-rule="evenodd" fill-opacity="1"/>
<defs>
  <clipPath id="clip612">
    <rect x="193" y="47" width="2160" height="1440"/>
  </clipPath>
</defs>
<polyline clip-path="url(#clip612)" style="stroke:#000000; stroke-linecap:round; stroke-linejoin:round; stroke-width:2; stroke-opacity:0.1; fill:none" points="255.035,1486.45 255.035,47.2441 "/>
<polyline clip-path="url(#clip612)" style="stroke:#000000; stroke-linecap:round; stroke-linejoin:round; stroke-width:2; stroke-opacity:0.1; fill:none" points="933.909,1486.45 933.909,47.2441 "/>
<polyline clip-path="url(#clip612)" style="stroke:#000000; stroke-linecap:round; stroke-linejoin:round; stroke-width:2; stroke-opacity:0.1; fill:none" points="1612.78,1486.45 1612.78,47.2441 "/>
<polyline clip-path="url(#clip612)" style="stroke:#000000; stroke-linecap:round; stroke-linejoin:round; stroke-width:2; stroke-opacity:0.1; fill:none" points="2291.66,1486.45 2291.66,47.2441 "/>
<polyline clip-path="url(#clip610)" style="stroke:#000000; stroke-linecap:round; stroke-linejoin:round; stroke-width:4; stroke-opacity:1; fill:none" points="193.936,1486.45 2352.76,1486.45 "/>
<polyline clip-path="url(#clip610)" style="stroke:#000000; stroke-linecap:round; stroke-linejoin:round; stroke-width:4; stroke-opacity:1; fill:none" points="255.035,1486.45 255.035,1467.55 "/>
<polyline clip-path="url(#clip610)" style="stroke:#000000; stroke-linecap:round; stroke-linejoin:round; stroke-width:4; stroke-opacity:1; fill:none" points="933.909,1486.45 933.909,1467.55 "/>
<polyline clip-path="url(#clip610)" style="stroke:#000000; stroke-linecap:round; stroke-linejoin:round; stroke-width:4; stroke-opacity:1; fill:none" points="1612.78,1486.45 1612.78,1467.55 "/>
<polyline clip-path="url(#clip610)" style="stroke:#000000; stroke-linecap:round; stroke-linejoin:round; stroke-width:4; stroke-opacity:1; fill:none" points="2291.66,1486.45 2291.66,1467.55 "/>
<path clip-path="url(#clip610)" d="M255.035 1517.37 Q251.424 1517.37 249.595 1520.93 Q247.789 1524.47 247.789 1531.6 Q247.789 1538.71 249.595 1542.27 Q251.424 1545.82 255.035 1545.82 Q258.669 1545.82 260.474 1542.27 Q262.303 1538.71 262.303 1531.6 Q262.303 1524.47 260.474 1520.93 Q258.669 1517.37 255.035 1517.37 M255.035 1513.66 Q260.845 1513.66 263.9 1518.27 Q266.979 1522.85 266.979 1531.6 Q266.979 1540.33 263.9 1544.94 Q260.845 1549.52 255.035 1549.52 Q249.225 1549.52 246.146 1544.94 Q243.09 1540.33 243.09 1531.6 Q243.09 1522.85 246.146 1518.27 Q249.225 1513.66 255.035 1513.66 Z" fill="#000000" fill-rule="nonzero" fill-opacity="1" /><path clip-path="url(#clip610)" d="M878.435 1544.91 L886.073 1544.91 L886.073 1518.55 L877.763 1520.21 L877.763 1515.95 L886.027 1514.29 L890.703 1514.29 L890.703 1544.91 L898.342 1544.91 L898.342 1548.85 L878.435 1548.85 L878.435 1544.91 Z" fill="#000000" fill-rule="nonzero" fill-opacity="1" /><path clip-path="url(#clip610)" d="M917.786 1517.37 Q914.175 1517.37 912.346 1520.93 Q910.541 1524.47 910.541 1531.6 Q910.541 1538.71 912.346 1542.27 Q914.175 1545.82 917.786 1545.82 Q921.42 1545.82 923.226 1542.27 Q925.055 1538.71 925.055 1531.6 Q925.055 1524.47 923.226 1520.93 Q921.42 1517.37 917.786 1517.37 M917.786 1513.66 Q923.596 1513.66 926.652 1518.27 Q929.731 1522.85 929.731 1531.6 Q929.731 1540.33 926.652 1544.94 Q923.596 1549.52 917.786 1549.52 Q911.976 1549.52 908.897 1544.94 Q905.842 1540.33 905.842 1531.6 Q905.842 1522.85 908.897 1518.27 Q911.976 1513.66 917.786 1513.66 Z" fill="#000000" fill-rule="nonzero" fill-opacity="1" /><path clip-path="url(#clip610)" d="M947.948 1517.37 Q944.337 1517.37 942.508 1520.93 Q940.703 1524.47 940.703 1531.6 Q940.703 1538.71 942.508 1542.27 Q944.337 1545.82 947.948 1545.82 Q951.582 1545.82 953.388 1542.27 Q955.217 1538.71 955.217 1531.6 Q955.217 1524.47 953.388 1520.93 Q951.582 1517.37 947.948 1517.37 M947.948 1513.66 Q953.758 1513.66 956.814 1518.27 Q959.893 1522.85 959.893 1531.6 Q959.893 1540.33 956.814 1544.94 Q953.758 1549.52 947.948 1549.52 Q942.138 1549.52 939.059 1544.94 Q936.004 1540.33 936.004 1531.6 Q936.004 1522.85 939.059 1518.27 Q942.138 1513.66 947.948 1513.66 Z" fill="#000000" fill-rule="nonzero" fill-opacity="1" /><path clip-path="url(#clip610)" d="M978.11 1517.37 Q974.499 1517.37 972.67 1520.93 Q970.865 1524.47 970.865 1531.6 Q970.865 1538.71 972.67 1542.27 Q974.499 1545.82 978.11 1545.82 Q981.744 1545.82 983.55 1542.27 Q985.378 1538.71 985.378 1531.6 Q985.378 1524.47 983.55 1520.93 Q981.744 1517.37 978.11 1517.37 M978.11 1513.66 Q983.92 1513.66 986.976 1518.27 Q990.054 1522.85 990.054 1531.6 Q990.054 1540.33 986.976 1544.94 Q983.92 1549.52 978.11 1549.52 Q972.3 1549.52 969.221 1544.94 Q966.166 1540.33 966.166 1531.6 Q966.166 1522.85 969.221 1518.27 Q972.3 1513.66 978.11 1513.66 Z" fill="#000000" fill-rule="nonzero" fill-opacity="1" /><path clip-path="url(#clip610)" d="M1561.39 1544.91 L1577.71 1544.91 L1577.71 1548.85 L1555.77 1548.85 L1555.77 1544.91 Q1558.43 1542.16 1563.01 1537.53 Q1567.62 1532.88 1568.8 1531.53 Q1571.05 1529.01 1571.93 1527.27 Q1572.83 1525.51 1572.83 1523.82 Q1572.83 1521.07 1570.89 1519.33 Q1568.96 1517.6 1565.86 1517.6 Q1563.66 1517.6 1561.21 1518.36 Q1558.78 1519.13 1556 1520.68 L1556 1515.95 Q1558.82 1514.82 1561.28 1514.24 Q1563.73 1513.66 1565.77 1513.66 Q1571.14 1513.66 1574.33 1516.35 Q1577.53 1519.03 1577.53 1523.52 Q1577.53 1525.65 1576.72 1527.57 Q1575.93 1529.47 1573.82 1532.07 Q1573.25 1532.74 1570.14 1535.95 Q1567.04 1539.15 1561.39 1544.91 Z" fill="#000000" fill-rule="nonzero" fill-opacity="1" /><path clip-path="url(#clip610)" d="M1597.53 1517.37 Q1593.92 1517.37 1592.09 1520.93 Q1590.28 1524.47 1590.28 1531.6 Q1590.28 1538.71 1592.09 1542.27 Q1593.92 1545.82 1597.53 1545.82 Q1601.16 1545.82 1602.97 1542.27 Q1604.8 1538.71 1604.8 1531.6 Q1604.8 1524.47 1602.97 1520.93 Q1601.16 1517.37 1597.53 1517.37 M1597.53 1513.66 Q1603.34 1513.66 1606.39 1518.27 Q1609.47 1522.85 1609.47 1531.6 Q1609.47 1540.33 1606.39 1544.94 Q1603.34 1549.52 1597.53 1549.52 Q1591.72 1549.52 1588.64 1544.94 Q1585.58 1540.33 1585.58 1531.6 Q1585.58 1522.85 1588.64 1518.27 Q1591.72 1513.66 1597.53 1513.66 Z" fill="#000000" fill-rule="nonzero" fill-opacity="1" /><path clip-path="url(#clip610)" d="M1627.69 1517.37 Q1624.08 1517.37 1622.25 1520.93 Q1620.45 1524.47 1620.45 1531.6 Q1620.45 1538.71 1622.25 1542.27 Q1624.08 1545.82 1627.69 1545.82 Q1631.32 1545.82 1633.13 1542.27 Q1634.96 1538.71 1634.96 1531.6 Q1634.96 1524.47 1633.13 1520.93 Q1631.32 1517.37 1627.69 1517.37 M1627.69 1513.66 Q1633.5 1513.66 1636.56 1518.27 Q1639.63 1522.85 1639.63 1531.6 Q1639.63 1540.33 1636.56 1544.94 Q1633.5 1549.52 1627.69 1549.52 Q1621.88 1549.52 1618.8 1544.94 Q1615.75 1540.33 1615.75 1531.6 Q1615.75 1522.85 1618.8 1518.27 Q1621.88 1513.66 1627.69 1513.66 Z" fill="#000000" fill-rule="nonzero" fill-opacity="1" /><path clip-path="url(#clip610)" d="M1657.85 1517.37 Q1654.24 1517.37 1652.41 1520.93 Q1650.61 1524.47 1650.61 1531.6 Q1650.61 1538.71 1652.41 1542.27 Q1654.24 1545.82 1657.85 1545.82 Q1661.49 1545.82 1663.29 1542.27 Q1665.12 1538.71 1665.12 1531.6 Q1665.12 1524.47 1663.29 1520.93 Q1661.49 1517.37 1657.85 1517.37 M1657.85 1513.66 Q1663.66 1513.66 1666.72 1518.27 Q1669.8 1522.85 1669.8 1531.6 Q1669.8 1540.33 1666.72 1544.94 Q1663.66 1549.52 1657.85 1549.52 Q1652.04 1549.52 1648.96 1544.94 Q1645.91 1540.33 1645.91 1531.6 Q1645.91 1522.85 1648.96 1518.27 Q1652.04 1513.66 1657.85 1513.66 Z" fill="#000000" fill-rule="nonzero" fill-opacity="1" /><path clip-path="url(#clip610)" d="M2250.34 1530.21 Q2253.69 1530.93 2255.57 1533.2 Q2257.47 1535.47 2257.47 1538.8 Q2257.47 1543.92 2253.95 1546.72 Q2250.43 1549.52 2243.95 1549.52 Q2241.77 1549.52 2239.46 1549.08 Q2237.17 1548.66 2234.71 1547.81 L2234.71 1543.29 Q2236.66 1544.43 2238.97 1545.01 Q2241.29 1545.58 2243.81 1545.58 Q2248.21 1545.58 2250.5 1543.85 Q2252.81 1542.11 2252.81 1538.8 Q2252.81 1535.75 2250.66 1534.03 Q2248.53 1532.3 2244.71 1532.3 L2240.69 1532.3 L2240.69 1528.45 L2244.9 1528.45 Q2248.35 1528.45 2250.18 1527.09 Q2252 1525.7 2252 1523.11 Q2252 1520.45 2250.11 1519.03 Q2248.23 1517.6 2244.71 1517.6 Q2242.79 1517.6 2240.59 1518.01 Q2238.39 1518.43 2235.75 1519.31 L2235.75 1515.14 Q2238.42 1514.4 2240.73 1514.03 Q2243.07 1513.66 2245.13 1513.66 Q2250.45 1513.66 2253.56 1516.09 Q2256.66 1518.5 2256.66 1522.62 Q2256.66 1525.49 2255.01 1527.48 Q2253.37 1529.45 2250.34 1530.21 Z" fill="#000000" fill-rule="nonzero" fill-opacity="1" /><path clip-path="url(#clip610)" d="M2276.33 1517.37 Q2272.72 1517.37 2270.89 1520.93 Q2269.09 1524.47 2269.09 1531.6 Q2269.09 1538.71 2270.89 1542.27 Q2272.72 1545.82 2276.33 1545.82 Q2279.97 1545.82 2281.77 1542.27 Q2283.6 1538.71 2283.6 1531.6 Q2283.6 1524.47 2281.77 1520.93 Q2279.97 1517.37 2276.33 1517.37 M2276.33 1513.66 Q2282.14 1513.66 2285.2 1518.27 Q2288.28 1522.85 2288.28 1531.6 Q2288.28 1540.33 2285.2 1544.94 Q2282.14 1549.52 2276.33 1549.52 Q2270.52 1549.52 2267.44 1544.94 Q2264.39 1540.33 2264.39 1531.6 Q2264.39 1522.85 2267.44 1518.27 Q2270.52 1513.66 2276.33 1513.66 Z" fill="#000000" fill-rule="nonzero" fill-opacity="1" /><path clip-path="url(#clip610)" d="M2306.5 1517.37 Q2302.88 1517.37 2301.06 1520.93 Q2299.25 1524.47 2299.25 1531.6 Q2299.25 1538.71 2301.06 1542.27 Q2302.88 1545.82 2306.5 1545.82 Q2310.13 1545.82 2311.93 1542.27 Q2313.76 1538.71 2313.76 1531.6 Q2313.76 1524.47 2311.93 1520.93 Q2310.13 1517.37 2306.5 1517.37 M2306.5 1513.66 Q2312.31 1513.66 2315.36 1518.27 Q2318.44 1522.85 2318.44 1531.6 Q2318.44 1540.33 2315.36 1544.94 Q2312.31 1549.52 2306.5 1549.52 Q2300.68 1549.52 2297.61 1544.94 Q2294.55 1540.33 2294.55 1531.6 Q2294.55 1522.85 2297.61 1518.27 Q2300.68 1513.66 2306.5 1513.66 Z" fill="#000000" fill-rule="nonzero" fill-opacity="1" /><path clip-path="url(#clip610)" d="M2336.66 1517.37 Q2333.05 1517.37 2331.22 1520.93 Q2329.41 1524.47 2329.41 1531.6 Q2329.41 1538.71 2331.22 1542.27 Q2333.05 1545.82 2336.66 1545.82 Q2340.29 1545.82 2342.1 1542.27 Q2343.93 1538.71 2343.93 1531.6 Q2343.93 1524.47 2342.1 1520.93 Q2340.29 1517.37 2336.66 1517.37 M2336.66 1513.66 Q2342.47 1513.66 2345.52 1518.27 Q2348.6 1522.85 2348.6 1531.6 Q2348.6 1540.33 2345.52 1544.94 Q2342.47 1549.52 2336.66 1549.52 Q2330.85 1549.52 2327.77 1544.94 Q2324.71 1540.33 2324.71 1531.6 Q2324.71 1522.85 2327.77 1518.27 Q2330.85 1513.66 2336.66 1513.66 Z" fill="#000000" fill-rule="nonzero" fill-opacity="1" /><polyline clip-path="url(#clip612)" style="stroke:#000000; stroke-linecap:round; stroke-linejoin:round; stroke-width:2; stroke-opacity:0.1; fill:none" points="193.936,1474.14 2352.76,1474.14 "/>
<polyline clip-path="url(#clip612)" style="stroke:#000000; stroke-linecap:round; stroke-linejoin:round; stroke-width:2; stroke-opacity:0.1; fill:none" points="193.936,1237.76 2352.76,1237.76 "/>
<polyline clip-path="url(#clip612)" style="stroke:#000000; stroke-linecap:round; stroke-linejoin:round; stroke-width:2; stroke-opacity:0.1; fill:none" points="193.936,1001.39 2352.76,1001.39 "/>
<polyline clip-path="url(#clip612)" style="stroke:#000000; stroke-linecap:round; stroke-linejoin:round; stroke-width:2; stroke-opacity:0.1; fill:none" points="193.936,765.019 2352.76,765.019 "/>
<polyline clip-path="url(#clip612)" style="stroke:#000000; stroke-linecap:round; stroke-linejoin:round; stroke-width:2; stroke-opacity:0.1; fill:none" points="193.936,528.646 2352.76,528.646 "/>
<polyline clip-path="url(#clip612)" style="stroke:#000000; stroke-linecap:round; stroke-linejoin:round; stroke-width:2; stroke-opacity:0.1; fill:none" points="193.936,292.273 2352.76,292.273 "/>
<polyline clip-path="url(#clip612)" style="stroke:#000000; stroke-linecap:round; stroke-linejoin:round; stroke-width:2; stroke-opacity:0.1; fill:none" points="193.936,55.9007 2352.76,55.9007 "/>
<polyline clip-path="url(#clip610)" style="stroke:#000000; stroke-linecap:round; stroke-linejoin:round; stroke-width:4; stroke-opacity:1; fill:none" points="193.936,1486.45 193.936,47.2441 "/>
<polyline clip-path="url(#clip610)" style="stroke:#000000; stroke-linecap:round; stroke-linejoin:round; stroke-width:4; stroke-opacity:1; fill:none" points="193.936,1474.14 212.834,1474.14 "/>
<polyline clip-path="url(#clip610)" style="stroke:#000000; stroke-linecap:round; stroke-linejoin:round; stroke-width:4; stroke-opacity:1; fill:none" points="193.936,1237.76 212.834,1237.76 "/>
<polyline clip-path="url(#clip610)" style="stroke:#000000; stroke-linecap:round; stroke-linejoin:round; stroke-width:4; stroke-opacity:1; fill:none" points="193.936,1001.39 212.834,1001.39 "/>
<polyline clip-path="url(#clip610)" style="stroke:#000000; stroke-linecap:round; stroke-linejoin:round; stroke-width:4; stroke-opacity:1; fill:none" points="193.936,765.019 212.834,765.019 "/>
<polyline clip-path="url(#clip610)" style="stroke:#000000; stroke-linecap:round; stroke-linejoin:round; stroke-width:4; stroke-opacity:1; fill:none" points="193.936,528.646 212.834,528.646 "/>
<polyline clip-path="url(#clip610)" style="stroke:#000000; stroke-linecap:round; stroke-linejoin:round; stroke-width:4; stroke-opacity:1; fill:none" points="193.936,292.273 212.834,292.273 "/>
<polyline clip-path="url(#clip610)" style="stroke:#000000; stroke-linecap:round; stroke-linejoin:round; stroke-width:4; stroke-opacity:1; fill:none" points="193.936,55.9007 212.834,55.9007 "/>
<path clip-path="url(#clip610)" d="M51.9875 1474.59 L81.6633 1474.59 L81.6633 1478.52 L51.9875 1478.52 L51.9875 1474.59 Z" fill="#000000" fill-rule="nonzero" fill-opacity="1" /><path clip-path="url(#clip610)" d="M92.566 1487.48 L100.205 1487.48 L100.205 1461.12 L91.8947 1462.78 L91.8947 1458.52 L100.159 1456.86 L104.834 1456.86 L104.834 1487.48 L112.473 1487.48 L112.473 1491.42 L92.566 1491.42 L92.566 1487.48 Z" fill="#000000" fill-rule="nonzero" fill-opacity="1" /><path clip-path="url(#clip610)" d="M121.918 1485.54 L126.802 1485.54 L126.802 1491.42 L121.918 1491.42 L121.918 1485.54 Z" fill="#000000" fill-rule="nonzero" fill-opacity="1" /><path clip-path="url(#clip610)" d="M137.033 1456.86 L155.39 1456.86 L155.39 1460.79 L141.316 1460.79 L141.316 1469.26 Q142.334 1468.92 143.353 1468.75 Q144.371 1468.57 145.39 1468.57 Q151.177 1468.57 154.556 1471.74 Q157.936 1474.91 157.936 1480.33 Q157.936 1485.91 154.464 1489.01 Q150.992 1492.09 144.672 1492.09 Q142.496 1492.09 140.228 1491.72 Q137.982 1491.35 135.575 1490.61 L135.575 1485.91 Q137.658 1487.04 139.881 1487.6 Q142.103 1488.15 144.58 1488.15 Q148.584 1488.15 150.922 1486.05 Q153.26 1483.94 153.26 1480.33 Q153.26 1476.72 150.922 1474.61 Q148.584 1472.5 144.58 1472.5 Q142.705 1472.5 140.83 1472.92 Q138.978 1473.34 137.033 1474.22 L137.033 1456.86 Z" fill="#000000" fill-rule="nonzero" fill-opacity="1" /><path clip-path="url(#clip610)" d="M50.9921 1238.22 L80.6679 1238.22 L80.6679 1242.15 L50.9921 1242.15 L50.9921 1238.22 Z" fill="#000000" fill-rule="nonzero" fill-opacity="1" /><path clip-path="url(#clip610)" d="M91.5706 1251.11 L99.2095 1251.11 L99.2095 1224.74 L90.8993 1226.41 L90.8993 1222.15 L99.1632 1220.48 L103.839 1220.48 L103.839 1251.11 L111.478 1251.11 L111.478 1255.04 L91.5706 1255.04 L91.5706 1251.11 Z" fill="#000000" fill-rule="nonzero" fill-opacity="1" /><path clip-path="url(#clip610)" d="M120.922 1249.16 L125.807 1249.16 L125.807 1255.04 L120.922 1255.04 L120.922 1249.16 Z" fill="#000000" fill-rule="nonzero" fill-opacity="1" /><path clip-path="url(#clip610)" d="M145.992 1223.56 Q142.381 1223.56 140.552 1227.13 Q138.746 1230.67 138.746 1237.8 Q138.746 1244.91 140.552 1248.47 Q142.381 1252.01 145.992 1252.01 Q149.626 1252.01 151.431 1248.47 Q153.26 1244.91 153.26 1237.8 Q153.26 1230.67 151.431 1227.13 Q149.626 1223.56 145.992 1223.56 M145.992 1219.86 Q151.802 1219.86 154.857 1224.47 Q157.936 1229.05 157.936 1237.8 Q157.936 1246.53 154.857 1251.13 Q151.802 1255.72 145.992 1255.72 Q140.181 1255.72 137.103 1251.13 Q134.047 1246.53 134.047 1237.8 Q134.047 1229.05 137.103 1224.47 Q140.181 1219.86 145.992 1219.86 Z" fill="#000000" fill-rule="nonzero" fill-opacity="1" /><path clip-path="url(#clip610)" d="M51.9875 1001.84 L81.6633 1001.84 L81.6633 1005.78 L51.9875 1005.78 L51.9875 1001.84 Z" fill="#000000" fill-rule="nonzero" fill-opacity="1" /><path clip-path="url(#clip610)" d="M101.756 987.19 Q98.1447 987.19 96.316 990.755 Q94.5104 994.297 94.5104 1001.43 Q94.5104 1008.53 96.316 1012.1 Q98.1447 1015.64 101.756 1015.64 Q105.39 1015.64 107.196 1012.1 Q109.024 1008.53 109.024 1001.43 Q109.024 994.297 107.196 990.755 Q105.39 987.19 101.756 987.19 M101.756 983.487 Q107.566 983.487 110.621 988.093 Q113.7 992.676 113.7 1001.43 Q113.7 1010.15 110.621 1014.76 Q107.566 1019.34 101.756 1019.34 Q95.9456 1019.34 92.8669 1014.76 Q89.8114 1010.15 89.8114 1001.43 Q89.8114 992.676 92.8669 988.093 Q95.9456 983.487 101.756 983.487 Z" fill="#000000" fill-rule="nonzero" fill-opacity="1" /><path clip-path="url(#clip610)" d="M121.918 1012.79 L126.802 1012.79 L126.802 1018.67 L121.918 1018.67 L121.918 1012.79 Z" fill="#000000" fill-rule="nonzero" fill-opacity="1" /><path clip-path="url(#clip610)" d="M137.033 984.112 L155.39 984.112 L155.39 988.047 L141.316 988.047 L141.316 996.519 Q142.334 996.172 143.353 996.01 Q144.371 995.824 145.39 995.824 Q151.177 995.824 154.556 998.996 Q157.936 1002.17 157.936 1007.58 Q157.936 1013.16 154.464 1016.26 Q150.992 1019.34 144.672 1019.34 Q142.496 1019.34 140.228 1018.97 Q137.982 1018.6 135.575 1017.86 L135.575 1013.16 Q137.658 1014.3 139.881 1014.85 Q142.103 1015.41 144.58 1015.41 Q148.584 1015.41 150.922 1013.3 Q153.26 1011.19 153.26 1007.58 Q153.26 1003.97 150.922 1001.87 Q148.584 999.76 144.58 999.76 Q142.705 999.76 140.83 1000.18 Q138.978 1000.59 137.033 1001.47 L137.033 984.112 Z" fill="#000000" fill-rule="nonzero" fill-opacity="1" /><path clip-path="url(#clip610)" d="M100.76 750.817 Q97.1493 750.817 95.3206 754.382 Q93.515 757.924 93.515 765.054 Q93.515 772.16 95.3206 775.725 Q97.1493 779.266 100.76 779.266 Q104.395 779.266 106.2 775.725 Q108.029 772.16 108.029 765.054 Q108.029 757.924 106.2 754.382 Q104.395 750.817 100.76 750.817 M100.76 747.114 Q106.571 747.114 109.626 751.72 Q112.705 756.304 112.705 765.054 Q112.705 773.78 109.626 778.387 Q106.571 782.97 100.76 782.97 Q94.9502 782.97 91.8715 778.387 Q88.816 773.78 88.816 765.054 Q88.816 756.304 91.8715 751.72 Q94.9502 747.114 100.76 747.114 Z" fill="#000000" fill-rule="nonzero" fill-opacity="1" /><path clip-path="url(#clip610)" d="M120.922 776.419 L125.807 776.419 L125.807 782.299 L120.922 782.299 L120.922 776.419 Z" fill="#000000" fill-rule="nonzero" fill-opacity="1" /><path clip-path="url(#clip610)" d="M145.992 750.817 Q142.381 750.817 140.552 754.382 Q138.746 757.924 138.746 765.054 Q138.746 772.16 140.552 775.725 Q142.381 779.266 145.992 779.266 Q149.626 779.266 151.431 775.725 Q153.26 772.16 153.26 765.054 Q153.26 757.924 151.431 754.382 Q149.626 750.817 145.992 750.817 M145.992 747.114 Q151.802 747.114 154.857 751.72 Q157.936 756.304 157.936 765.054 Q157.936 773.78 154.857 778.387 Q151.802 782.97 145.992 782.97 Q140.181 782.97 137.103 778.387 Q134.047 773.78 134.047 765.054 Q134.047 756.304 137.103 751.72 Q140.181 747.114 145.992 747.114 Z" fill="#000000" fill-rule="nonzero" fill-opacity="1" /><path clip-path="url(#clip610)" d="M101.756 514.445 Q98.1447 514.445 96.316 518.01 Q94.5104 521.551 94.5104 528.681 Q94.5104 535.787 96.316 539.352 Q98.1447 542.894 101.756 542.894 Q105.39 542.894 107.196 539.352 Q109.024 535.787 109.024 528.681 Q109.024 521.551 107.196 518.01 Q105.39 514.445 101.756 514.445 M101.756 510.741 Q107.566 510.741 110.621 515.348 Q113.7 519.931 113.7 528.681 Q113.7 537.408 110.621 542.014 Q107.566 546.597 101.756 546.597 Q95.9456 546.597 92.8669 542.014 Q89.8114 537.408 89.8114 528.681 Q89.8114 519.931 92.8669 515.348 Q95.9456 510.741 101.756 510.741 Z" fill="#000000" fill-rule="nonzero" fill-opacity="1" /><path clip-path="url(#clip610)" d="M121.918 540.047 L126.802 540.047 L126.802 545.926 L121.918 545.926 L121.918 540.047 Z" fill="#000000" fill-rule="nonzero" fill-opacity="1" /><path clip-path="url(#clip610)" d="M137.033 511.366 L155.39 511.366 L155.39 515.301 L141.316 515.301 L141.316 523.773 Q142.334 523.426 143.353 523.264 Q144.371 523.079 145.39 523.079 Q151.177 523.079 154.556 526.25 Q157.936 529.422 157.936 534.838 Q157.936 540.417 154.464 543.519 Q150.992 546.597 144.672 546.597 Q142.496 546.597 140.228 546.227 Q137.982 545.857 135.575 545.116 L135.575 540.417 Q137.658 541.551 139.881 542.107 Q142.103 542.662 144.58 542.662 Q148.584 542.662 150.922 540.556 Q153.26 538.449 153.26 534.838 Q153.26 531.227 150.922 529.121 Q148.584 527.014 144.58 527.014 Q142.705 527.014 140.83 527.431 Q138.978 527.848 137.033 528.727 L137.033 511.366 Z" fill="#000000" fill-rule="nonzero" fill-opacity="1" /><path clip-path="url(#clip610)" d="M91.5706 305.618 L99.2095 305.618 L99.2095 279.253 L90.8993 280.919 L90.8993 276.66 L99.1632 274.993 L103.839 274.993 L103.839 305.618 L111.478 305.618 L111.478 309.553 L91.5706 309.553 L91.5706 305.618 Z" fill="#000000" fill-rule="nonzero" fill-opacity="1" /><path clip-path="url(#clip610)" d="M120.922 303.674 L125.807 303.674 L125.807 309.553 L120.922 309.553 L120.922 303.674 Z" fill="#000000" fill-rule="nonzero" fill-opacity="1" /><path clip-path="url(#clip610)" d="M145.992 278.072 Q142.381 278.072 140.552 281.637 Q138.746 285.179 138.746 292.308 Q138.746 299.415 140.552 302.979 Q142.381 306.521 145.992 306.521 Q149.626 306.521 151.431 302.979 Q153.26 299.415 153.26 292.308 Q153.26 285.179 151.431 281.637 Q149.626 278.072 145.992 278.072 M145.992 274.368 Q151.802 274.368 154.857 278.975 Q157.936 283.558 157.936 292.308 Q157.936 301.035 154.857 305.641 Q151.802 310.225 145.992 310.225 Q140.181 310.225 137.103 305.641 Q134.047 301.035 134.047 292.308 Q134.047 283.558 137.103 278.975 Q140.181 274.368 145.992 274.368 Z" fill="#000000" fill-rule="nonzero" fill-opacity="1" /><path clip-path="url(#clip610)" d="M92.566 69.2456 L100.205 69.2456 L100.205 42.88 L91.8947 44.5466 L91.8947 40.2874 L100.159 38.6207 L104.834 38.6207 L104.834 69.2456 L112.473 69.2456 L112.473 73.1807 L92.566 73.1807 L92.566 69.2456 Z" fill="#000000" fill-rule="nonzero" fill-opacity="1" /><path clip-path="url(#clip610)" d="M121.918 67.3011 L126.802 67.3011 L126.802 73.1807 L121.918 73.1807 L121.918 67.3011 Z" fill="#000000" fill-rule="nonzero" fill-opacity="1" /><path clip-path="url(#clip610)" d="M137.033 38.6207 L155.39 38.6207 L155.39 42.5559 L141.316 42.5559 L141.316 51.0281 Q142.334 50.6808 143.353 50.5188 Q144.371 50.3336 145.39 50.3336 Q151.177 50.3336 154.556 53.5049 Q157.936 56.6762 157.936 62.0928 Q157.936 67.6715 154.464 70.7733 Q150.992 73.852 144.672 73.852 Q142.496 73.852 140.228 73.4816 Q137.982 73.1113 135.575 72.3705 L135.575 67.6715 Q137.658 68.8057 139.881 69.3613 Q142.103 69.9169 144.58 69.9169 Q148.584 69.9169 150.922 67.8104 Q153.26 65.7039 153.26 62.0928 Q153.26 58.4817 150.922 56.3753 Q148.584 54.2688 144.58 54.2688 Q142.705 54.2688 140.83 54.6855 Q138.978 55.1021 137.033 55.9817 L137.033 38.6207 Z" fill="#000000" fill-rule="nonzero" fill-opacity="1" /><polyline clip-path="url(#clip612)" style="stroke:#009af9; stroke-linecap:round; stroke-linejoin:round; stroke-width:4; stroke-opacity:1; fill:none" points="255.035,292.273 255.082,292.273 255.551,292.273 257.194,292.273 260.044,292.273 263.691,292.273 275.472,292.273 292.212,292.273 307.306,292.273 322.176,292.273 338.164,292.273 355.776,292.273 373.073,292.273 389.754,292.273 408.902,292.273 427.319,292.273 444.493,292.273 464.355,292.273 483.093,292.273 500.846,292.273 521.036,292.273 539.656,292.273 558.069,292.273 578.335,292.273 596.542,292.273 615.622,292.273 635.792,292.273 653.375,292.273 673.042,292.273 692.997,292.273 709.795,292.273 729.892,292.273 749.554,292.273 766.862,292.273 787.172,292.273 806.369,292.273 824.387,292.273 844.733,292.273 863.34,292.273 882.097,292.273 902.355,292.273 920.279,292.273 939.711,292.273 959.777,292.273 976.932,292.272 996.888,292.27 1016.68,292.264 1033.83,292.259 1054.04,292.266 1073.29,292.32 1090.9,292.462 1109.65,292.756 1126.92,293.113 1143.61,293.317 1159.39,292.951 1174.8,291.469 1190.12,288.287 1204.48,283.494 1217.94,277.763 1232.69,271.488 1247.17,267.98 1261.16,270.622 1274.28,281.892 1289.14,308.313 1303.78,350.06 1317.68,402.611 1332.49,466.931 1347.9,533.239 1363.87,588.529 1381.26,620.097 1396.27,618.01 1411.16,591.129 1425.11,554.448 1436.32,538.441 1443.19,547.271 1449.24,565.105 1455.37,590.769 1461.64,622.59 1467.23,654.299 1473.57,692.805 1483,753.762 1491.6,812.192 1500.24,872.591 1510.53,945.147 1522.05,1024.05 1535.36,1106.86 1550.17,1182.09 1565.33,1236.19 1582.11,1268.87 1600.06,1278.26 1618.11,1271.43 1634.87,1259.54 1653.31,1247.36 1671.29,1239.59 1688.75,1236.09 1707.12,1235.33 1725.25,1235.93 1742.72,1236.74 1760.94,1237.37 1779.2,1237.69 1796.62,1237.79 1814.78,1237.81 1833.05,1237.79 1850.43,1237.78 1868.55,1237.77 1886.81,1237.76 1904.15,1237.76 1922.25,1237.76 1940.5,1237.76 1957.82,1237.76 1975.93,1237.76 1994.15,1237.76 2011.46,1237.76 2029.58,1237.76 2047.79,1237.76 2065.1,1237.76 2083.23,1237.76 2101.42,1237.76 2118.74,1237.76 2136.89,1237.76 2155.06,1237.76 2172.38,1237.76 2190.55,1237.76 2208.71,1237.76 2226.04,1237.76 2244.22,1237.76 2262.36,1237.76 2279.7,1237.76 2291.66,1237.76 "/>
<polyline clip-path="url(#clip612)" style="stroke:#e26f46; stroke-linecap:round; stroke-linejoin:round; stroke-width:4; stroke-opacity:1; fill:none" points="255.035,292.273 255.082,292.273 255.551,292.273 257.194,292.273 260.044,292.273 263.691,292.273 275.472,292.273 292.212,292.273 307.306,292.273 322.176,292.273 338.164,292.273 355.776,292.273 373.073,292.273 389.754,292.273 408.902,292.273 427.319,292.273 444.493,292.273 464.355,292.273 483.093,292.273 500.846,292.273 521.036,292.273 539.656,292.273 558.069,292.273 578.336,292.273 596.543,292.273 615.623,292.273 635.794,292.273 653.379,292.273 673.047,292.273 693.003,292.273 709.805,292.273 729.903,292.273 749.568,292.273 766.874,292.273 787.187,292.273 806.39,292.273 824.404,292.273 844.756,292.273 863.381,292.274 882.136,292.275 902.405,292.278 920.373,292.283 939.797,292.283 959.797,292.258 977.029,292.182 996.278,291.992 1014.37,291.71 1030.73,291.484 1047.51,291.592 1063.11,292.485 1078.7,294.714 1093.66,298.5 1106.9,303.136 1121.49,308.828 1136.15,313.322 1150.25,313.758 1163.47,307.931 1177.99,291.891 1192.75,264.018 1206.82,228.295 1221.3,187.701 1236.75,150.772 1252.32,134.867 1268.45,157.83 1285.38,242.209 1300.64,385.15 1315.44,598.384 1328.66,856.306 1339.24,1084.92 1347.05,1223.55 1352.02,1288.57 1356.58,1334.37 1360.9,1367.22 1367.02,1399.22 1374.83,1420.59 1383.2,1425.47 1390.99,1417.74 1400.52,1396.81 1411.21,1363.63 1423.45,1319.98 1437.25,1271.88 1451.69,1230.64 1466.58,1202.8 1483.69,1189.93 1501.84,1193.6 1519.62,1206.27 1536.89,1220.02 1555.67,1231.56 1573.87,1237.83 1590.65,1240.04 1609.7,1240.13 1628.03,1239.3 1644.31,1238.57 1663.42,1238.01 1681.82,1237.78 1697.95,1237.72 1717.1,1237.72 1735.49,1237.74 1751.57,1237.75 1770.73,1237.76 1789.09,1237.76 1805.14,1237.76 1824.32,1237.76 1842.66,1237.76 1858.69,1237.76 1877.86,1237.76 1896.19,1237.76 1912.21,1237.76 1931.39,1237.76 1949.7,1237.76 1965.72,1237.76 1984.9,1237.76 2003.2,1237.76 2019.22,1237.76 2038.4,1237.76 2056.7,1237.76 2072.72,1237.76 2091.9,1237.76 2110.2,1237.76 2126.21,1237.76 2145.39,1237.76 2163.69,1237.76 2179.71,1237.76 2198.88,1237.76 2217.18,1237.76 2233.2,1237.76 2252.37,1237.76 2270.67,1237.76 2286.69,1237.76 2291.66,1237.76 "/>
<polyline clip-path="url(#clip612)" style="stroke:#3da44d; stroke-linecap:round; stroke-linejoin:round; stroke-width:4; stroke-opacity:1; fill:none" points="255.035,292.273 255.082,292.273 255.551,292.273 257.194,292.273 260.044,292.273 263.691,292.273 275.472,292.273 292.212,292.273 307.306,292.273 322.175,292.273 338.163,292.273 355.775,292.273 373.072,292.273 389.754,292.273 408.902,292.273 427.319,292.273 444.493,292.273 464.355,292.273 483.094,292.273 500.846,292.273 521.037,292.273 539.658,292.273 558.07,292.273 578.337,292.273 596.547,292.273 615.627,292.273 635.8,292.273 653.391,292.273 673.059,292.273 693.018,292.273 709.834,292.273 729.935,292.273 749.607,292.273 766.906,292.273 787.227,292.272 806.449,292.27 824.451,292.269 844.805,292.274 863.458,292.3 882.123,292.373 901.654,292.518 919.258,292.671 936.969,292.684 953.636,292.254 969.717,291.027 985.503,288.706 999.526,285.704 1014.36,282.113 1029.2,279.468 1043.28,279.939 1056.14,285.078 1070.73,298.834 1085.32,322.729 1099.59,355.664 1113.76,394.759 1128.89,437.052 1143.98,470.652 1158.47,485.891 1174.11,476.447 1189.62,439.019 1205.26,379.81 1219.51,322.608 1232.11,294.557 1244.13,327.864 1251.51,395.112 1258.2,473.713 1264.95,557.497 1271.2,633.591 1276.67,697.04 1283.01,765.601 1292.25,856.57 1301.26,935.67 1311.43,1014.62 1322.6,1089.11 1334.57,1154.59 1347,1206.38 1361.52,1246.44 1377.69,1268.28 1393.63,1272.23 1409.77,1265.73 1426.89,1254.64 1445.3,1243.91 1462.41,1237.59 1478.84,1234.9 1497.02,1234.57 1513.85,1235.41 1531.2,1236.46 1549.52,1237.27 1566.38,1237.66 1584.04,1237.82 1602.29,1237.84 1619.44,1237.81 1637.25,1237.79 1655.39,1237.77 1672.69,1237.77 1690.55,1237.76 1708.6,1237.76 1726,1237.76 1743.88,1237.76 1761.87,1237.76 1779.33,1237.76 1797.21,1237.76 1815.16,1237.76 1832.66,1237.76 1850.54,1237.76 1868.46,1237.76 1885.99,1237.76 1903.88,1237.76 1921.76,1237.76 1939.32,1237.76 1957.21,1237.76 1975.06,1237.76 1992.65,1237.76 2010.54,1237.76 2028.37,1237.76 2045.98,1237.76 2063.87,1237.76 2081.67,1237.76 2099.31,1237.76 2117.2,1237.76 2134.97,1237.76 2152.64,1237.76 2170.52,1237.76 2188.27,1237.76 2205.96,1237.76 2223.84,1237.76 2241.56,1237.76 2259.28,1237.76 2277.16,1237.76 2291.66,1237.76 "/>
<polyline clip-path="url(#clip612)" style="stroke:#c271d2; stroke-linecap:round; stroke-linejoin:round; stroke-width:4; stroke-opacity:1; fill:none" points="255.035,292.273 255.082,292.273 255.551,292.273 257.194,292.273 260.044,292.273 263.691,292.273 275.472,292.273 292.212,292.273 307.306,292.273 322.176,292.273 338.164,292.273 355.776,292.273 373.073,292.273 389.754,292.273 408.902,292.273 427.319,292.273 444.493,292.273 464.355,292.273 483.093,292.273 500.846,292.273 521.036,292.273 539.656,292.273 558.069,292.273 578.335,292.273 596.542,292.273 615.622,292.273 635.792,292.273 653.375,292.273 673.043,292.273 692.997,292.273 709.795,292.273 729.892,292.273 749.555,292.273 766.862,292.273 787.173,292.273 806.37,292.273 824.387,292.273 844.734,292.273 863.341,292.273 882.099,292.273 902.357,292.273 920.284,292.273 939.715,292.274 959.782,292.273 976.943,292.272 996.899,292.268 1016.69,292.26 1033.83,292.253 1054,292.263 1073.13,292.338 1090.63,292.529 1108.96,292.909 1125.92,293.372 1142.34,293.658 1157.78,293.284 1172.93,291.63 1188.19,287.957 1202.57,282.314 1215.49,275.763 1230.06,268.098 1244.61,263.005 1258.77,264.514 1272.33,276.066 1287.04,303.754 1301.89,349.79 1315.65,407.437 1330.39,479.77 1345.81,557.392 1361.85,627.091 1378.63,675.052 1392.44,689.734 1406.99,679.944 1420.69,652.461 1430.74,635.951 1435.4,633.538 1439.59,635.261 1443.54,341.381 1448.62,260.021 1453.74,198.014 1459.49,148.26 1465.76,113.275 1473.63,91.4336 1481.06,87.9763 1488.11,96.3341 1496.38,116.628 1505.93,149.049 1516.57,189.96 1530.04,239.482 1544.42,280.532 1558.91,305.425 1574.27,1258.97 1587.37,1262.71 1600.71,1260.39 1613.89,1255.06 1627.03,1249.1 1644.3,1242.6 1660.41,1238.82 1677.56,1236.99 1694.92,1236.62 1711.51,1236.88 1729.23,1237.27 1746.53,1237.56 1763.82,1237.71 1781.82,1237.77 1798.92,1237.78 1816.55,1237.78 1834.58,1237.77 1851.44,1237.77 1869.27,1237.76 1887.25,1237.76 1903.84,1237.76 1921.83,1237.76 1939.69,1237.76 1956.28,1237.76 1974.38,1237.76 1992.1,1237.76 2008.86,1237.76 2027.05,1237.76 2044.62,1237.76 2061.55,1237.76 2079.79,1237.76 2097.23,1237.76 2114.31,1237.76 2132.57,1237.76 2149.88,1237.76 2167.11,1237.76 2185.37,1237.76 2202.55,1237.76 2219.9,1237.76 2238.16,1237.76 2255.2,1237.76 2272.67,1237.76 2290.91,1237.76 2291.66,1237.76 "/>
<polyline clip-path="url(#clip612)" style="stroke:#ac8d18; stroke-linecap:round; stroke-linejoin:round; stroke-width:4; stroke-opacity:1; fill:none" points="255.035,292.273 255.082,292.273 255.551,292.273 257.194,292.273 260.043,292.273 263.69,292.273 275.47,292.273 292.21,292.273 307.304,292.273 322.174,292.273 338.162,292.273 355.774,292.273 373.072,292.273 389.752,292.273 408.901,292.273 427.319,292.273 444.491,292.273 464.355,292.273 483.096,292.273 500.846,292.273 521.038,292.273 539.664,292.273 558.074,292.273 578.344,292.273 596.566,292.273 615.644,292.273 635.824,292.273 653.442,292.274 673.113,292.275 693.085,292.278 709.966,292.281 730.066,292.279 749.702,292.253 766.93,292.181 786.454,292.01 804.476,291.783 821.37,291.64 838.054,291.877 853.889,292.902 869.414,295.145 884.08,298.634 898.04,302.966 912.946,307.654 927.467,310.317 941.227,308.593 954.545,300.542 969.408,281.983 983.931,253.783 998.143,219.262 1012.78,183.089 1028.25,155.372 1043.57,152.495 1059.08,188.489 1076.01,286.069 1090.53,427.412 1105.19,632.86 1118.19,869.465 1129.76,1099.79 1135.52,1198.99 1139.36,1251.48 1142.74,1289.28 1147.2,1328.28 1152.35,1360.3 1157.9,1382.29 1165.68,1396.55 1173.21,1396.87 1181.6,1386.2 1191.1,1364.55 1201.85,1332.79 1213.97,1293.69 1227.28,1253.39 1241.09,1220.24 1256.24,1197.68 1272.25,1189.55 1289.97,1194.82 1307.26,1207.42 1324.7,1221.05 1342.95,1231.96 1361.24,1238.09 1378.27,1240.21 1396.7,1240.22 1415.33,1239.35 1432.06,1238.57 1450.42,1238.02 1469.13,1237.77 1485.68,1237.71 1503.99,1237.72 1522.72,1237.74 1539.1,1237.75 1557.36,1237.76 1576.11,1237.76 1592.39,1237.76 1610.61,1237.76 1629.35,1237.76 1645.68,1237.76 1663.85,1237.76 1682.6,1237.76 1698.98,1237.76 1717.09,1237.76 1735.85,1237.76 1752.29,1237.76 1770.34,1237.76 1789.12,1237.76 1805.6,1237.76 1823.6,1237.76 1842.39,1237.76 1858.92,1237.76 1876.86,1237.76 1895.68,1237.76 1912.25,1237.76 1930.14,1237.76 1948.97,1237.76 1965.58,1237.76 1983.43,1237.76 2002.28,1237.76 2018.92,1237.76 2036.73,1237.76 2055.59,1237.76 2072.26,1237.76 2090.03,1237.76 2108.9,1237.76 2125.61,1237.76 2143.33,1237.76 2162.22,1237.76 2178.96,1237.76 2196.64,1237.76 2215.54,1237.76 2232.31,1237.76 2249.95,1237.76 2268.86,1237.76 2285.66,1237.76 2291.66,1237.76 "/>
<polyline clip-path="url(#clip612)" style="stroke:#00a9ad; stroke-linecap:round; stroke-linejoin:round; stroke-width:4; stroke-opacity:1; fill:none" points="255.035,292.273 255.082,292.273 255.551,292.273 257.194,292.273 260.044,292.273 263.691,292.273 275.472,292.273 292.212,292.273 307.306,292.273 322.176,292.273 338.164,292.273 355.776,292.273 373.073,292.273 389.754,292.273 408.902,292.273 427.319,292.273 444.493,292.273 464.355,292.273 483.093,292.273 500.846,292.273 521.036,292.273 539.656,292.273 558.069,292.273 578.335,292.273 596.542,292.273 615.622,292.273 635.792,292.273 653.375,292.273 673.043,292.273 692.997,292.273 709.795,292.273 729.892,292.273 749.555,292.273 766.862,292.273 787.173,292.273 806.369,292.273 824.387,292.273 844.734,292.273 863.341,292.273 882.099,292.273 902.357,292.273 920.282,292.273 939.714,292.274 959.781,292.273 976.939,292.272 996.895,292.269 1016.69,292.262 1033.83,292.255 1054.02,292.264 1073.19,292.332 1090.73,292.506 1109.19,292.857 1126.25,293.284 1142.75,293.542 1158.28,293.169 1173.51,291.569 1188.8,288.053 1203.17,282.687 1216.27,276.39 1230.9,269.176 1245.42,264.619 1259.53,266.528 1272.97,278.058 1287.74,305.438 1302.52,350.185 1316.17,405.573 1330.95,475.416 1346.19,548.61 1362.24,614.068 1372.49,1402.49 1380.25,1369.91 1387.56,1318.59 1393.46,1259.17 1399.74,1174.62 1409.03,1001.29 1417.17,798.481 1423.6,616.977 1428.81,481.821 1433.1,388.492 1436.91,318.81 1440.87,259.046 1445.7,201.544 1452.7,143.309 1459.45,109.454 1466.93,91.7165 1474.6,90.1832 1482.3,101.393 1490.27,122.623 1499.68,155.395 1511.28,199.967 1525.13,248.894 1539.76,286.945 1554.08,307.884 1569.41,315.092 1585.56,312.187 1602.57,304.927 1618.26,298.798 1634.65,294.669 1651.73,292.656 1668.98,292.049 1686.02,292.028 1703.06,292.136 1720.89,292.221 1738.01,292.259 1754.83,292.271 1773.04,292.274 1789.98,292.274 1806.45,292.274 1824.89,292.273 1841.46,292.273 1858.24,292.273 1876.82,292.273 1893.37,292.273 1910.45,292.273 1929.03,292.273 1945.77,292.273 1963.05,292.273 1981.6,292.273 1998.51,292.273 2015.91,292.273 2034.42,292.273 2051.46,292.273 2068.94,292.273 2087.41,292.273 2104.55,292.273 2122.08,292.273 2140.52,292.273 2157.73,292.273 2175.29,292.273 2193.71,292.273 2210.98,292.273 2228.56,292.273 2246.96,292.273 2264.27,292.273 2281.87,292.273 2291.66,292.273 "/>
<polyline clip-path="url(#clip612)" style="stroke:#ed5d92; stroke-linecap:round; stroke-linejoin:round; stroke-width:4; stroke-opacity:1; fill:none" points="255.035,292.273 255.082,292.273 255.551,292.273 257.194,292.273 260.044,292.273 263.691,292.273 275.472,292.273 292.212,292.273 307.306,292.273 322.176,292.273 338.163,292.273 355.775,292.273 373.072,292.273 389.754,292.273 408.902,292.273 427.319,292.273 444.493,292.273 464.355,292.273 483.093,292.273 500.846,292.273 521.036,292.273 539.657,292.273 558.07,292.273 578.336,292.273 596.544,292.273 615.624,292.273 635.795,292.273 653.382,292.273 673.049,292.273 693.006,292.273 709.811,292.273 729.91,292.273 749.576,292.273 766.881,292.273 787.195,292.273 806.402,292.273 824.414,292.273 844.769,292.273 863.404,292.275 882.156,292.28 902.424,292.291 920.41,292.305 939.76,292.305 959.303,292.231 976.444,292.018 994.529,291.551 1011.34,290.904 1027.44,290.321 1043.2,290.331 1057.73,291.611 1072.84,295.179 1087.62,301.611 1101.33,310.255 1114.89,320.448 1129.72,331.021 1144.17,336.842 1158.3,333.689 1172.11,318.27 1187.34,284.75 1201.95,237.847 1215.6,186.634 1231.52,130.274 1244.3,871.619 1255.02,798.26 1258.71,774.579 1262.03,754.658 1265.12,737.068 1268.48,719.374 1272.63,699.714 1278.96,675.773 1285.62,660.652 1292.15,658.199 1298.09,666.138 1304.33,683.078 1308.79,692.945 1312.8,700.113 1316.76,704.348 1321.11,705.597 1327.94,700.56 1334.45,688.481 1342.24,665.845 1350.8,632.257 1360.05,588.048 1370.14,533.872 1380.98,473.725 1392.9,411.496 1406.57,352.275 1421.76,1242.43 1433.72,1224.14 1446.24,1213.69 1459.52,1210.69 1472.47,1213.29 1489.34,1220.58 1504.88,1227.76 1521.37,1233.62 1539.03,1237.25 1555.56,1238.61 1571.76,1238.82 1590.11,1238.51 1607.44,1238.16 1624.26,1237.92 1642.91,1237.79 1660.63,1237.75 1677.62,1237.75 1696.33,1237.76 1714.2,1237.76 1731.25,1237.76 1750,1237.76 1767.91,1237.76 1784.97,1237.76 1803.74,1237.76 1821.65,1237.76 1838.71,1237.76 1857.5,1237.76 1875.4,1237.76 1892.45,1237.76 1911.25,1237.76 1929.12,1237.76 1946.16,1237.76 1964.99,1237.76 1982.83,1237.76 1999.85,1237.76 2018.69,1237.76 2036.51,1237.76 2053.52,1237.76 2072.37,1237.76 2090.17,1237.76 2107.17,1237.76 2126.03,1237.76 2143.8,1237.76 2160.8,1237.76 2179.67,1237.76 2197.42,1237.76 2214.4,1237.76 2233.28,1237.76 2251.02,1237.76 2267.99,1237.76 2286.88,1237.76 2291.66,1237.76 "/>
<polyline clip-path="url(#clip612)" style="stroke:#c68125; stroke-linecap:round; stroke-linejoin:round; stroke-width:4; stroke-opacity:1; fill:none" points="255.035,292.273 255.082,292.273 255.551,292.273 257.194,292.273 260.044,292.273 263.69,292.273 275.471,292.273 292.211,292.273 307.305,292.273 322.175,292.273 338.162,292.273 355.775,292.273 373.072,292.273 389.753,292.273 408.902,292.273 427.319,292.273 444.492,292.273 464.355,292.273 483.095,292.273 500.846,292.273 521.037,292.273 539.662,292.273 558.073,292.273 578.342,292.273 596.559,292.273 615.637,292.273 635.814,292.273 653.422,292.273 673.091,292.274 693.059,292.274 709.915,292.275 730.022,292.275 749.706,292.268 766.984,292.247 787.187,292.192 806.15,292.111 823.79,292.064 841.963,292.202 858.824,292.746 875.262,293.933 890.522,295.724 905.66,297.923 920.88,299.771 935.202,299.854 948.149,297.11 962.761,289.123 977.303,274.88 991.469,255.31 1005.08,233.601 1019.88,212.167 1034.73,201.228 1048.48,209.137 1063.32,245.68 1078.66,320.327 1094.78,440.905 1111.18,604.272 1124.77,765.254 1139.18,952.067 1152.56,1114.86 1162.17,1195.46 1168.05,1216.96 1171.94,1222.31 1175.42,1222.5 1179.52,1218.91 1184.93,1210.13 1192.62,1193.81 1199.67,1177.97 1207.85,1160.8 1216,1146.39 1224.26,1135.43 1232.56,1128.6 1242.7,1126.21 1254.9,1131.54 1269.34,1147.24 1285.42,1171.76 1300.98,1196.78 1317.57,1219.52 1334.18,1235.2 1352.56,1243.92 1369.13,1245.83 1385.92,1244.52 1403.87,1241.91 1421.48,1239.66 1438.75,1238.28 1457,1237.63 1474.9,1237.49 1492.26,1237.55 1510.55,1237.65 1528.65,1237.72 1546.03,1237.75 1564.29,1237.77 1582.44,1237.77 1599.79,1237.77 1618.06,1237.77 1636.21,1237.76 1653.55,1237.76 1671.82,1237.76 1689.96,1237.76 1707.28,1237.76 1725.57,1237.76 1743.69,1237.76 1761.02,1237.76 1779.33,1237.76 1797.42,1237.76 1814.75,1237.76 1833.08,1237.76 1851.14,1237.76 1868.48,1237.76 1886.84,1237.76 1904.87,1237.76 1922.21,1237.76 1940.6,1237.76 1958.61,1237.76 1975.95,1237.76 1994.37,1237.76 2012.34,1237.76 2029.69,1237.76 2048.13,1237.76 2066.07,1237.76 2083.42,1237.76 2101.89,1237.76 2119.8,1237.76 2137.15,1237.76 2155.64,1237.76 2173.52,1237.76 2190.87,1237.76 2209.38,1237.76 2227.23,1237.76 2244.58,1237.76 2263.11,1237.76 2280.93,1237.76 2291.66,1237.76 "/>
<polyline clip-path="url(#clip612)" style="stroke:#00a98d; stroke-linecap:round; stroke-linejoin:round; stroke-width:4; stroke-opacity:1; fill:none" points="255.035,292.273 255.082,292.273 255.551,292.273 257.194,292.273 260.044,292.273 263.691,292.273 275.472,292.273 292.212,292.273 307.306,292.273 322.176,292.273 338.164,292.273 355.776,292.273 373.073,292.273 389.754,292.273 408.902,292.273 427.319,292.273 444.493,292.273 464.355,292.273 483.093,292.273 500.846,292.273 521.036,292.273 539.656,292.273 558.069,292.273 578.335,292.273 596.542,292.273 615.622,292.273 635.792,292.273 653.375,292.273 673.043,292.273 692.997,292.273 709.795,292.273 729.892,292.273 749.555,292.273 766.863,292.273 787.173,292.273 806.37,292.273 824.387,292.273 844.734,292.273 863.342,292.273 882.099,292.273 902.358,292.273 920.284,292.274 939.716,292.274 959.783,292.273 976.944,292.272 996.9,292.268 1016.7,292.26 1033.83,292.252 1053.99,292.262 1073.11,292.34 1090.6,292.537 1108.88,292.927 1125.81,293.401 1142.21,293.697 1157.62,293.324 1172.73,291.652 1187.99,287.929 1202.38,282.193 1215.25,275.551 1229.8,267.739 1244.37,262.47 1258.53,263.849 1272.13,275.408 1286.83,303.201 1301.69,349.661 1315.49,408.056 1330.21,481.196 1345.69,560.254 1361.72,631.325 1378.41,680.83 1392.21,697.118 1406.7,688.892 1420.35,662.282 1430.29,645.985 1435.21,642.932 1439.71,644.497 1443.71,649.008 1448.36,657.888 1453.97,673.154 1462.12,702.643 1469.28,734.399 1477.78,777.99 1486.13,825.972 1494.19,876.027 1503.25,934.939 1513.52,1002.43 1526.33,1082.58 1541.33,1163.02 1557.35,1225.88 1572.76,1261.8 1589.76,1277.12 1606.72,1274.91 1624.92,1263.38 1641.97,1251.48 1658.53,1242.74 1676.75,1237.4 1693.82,1235.66 1710.95,1235.7 1729.36,1236.45 1746.78,1237.12 1764.23,1237.55 1782.67,1237.75 1800.27,1237.8 1817.82,1237.8 1836.21,1237.78 1853.88,1237.77 1871.46,1237.77 1889.82,1237.76 1907.52,1237.76 1925.09,1237.76 1943.44,1237.76 1961.14,1237.76 1978.71,1237.76 1997.06,1237.76 2014.75,1237.76 2032.31,1237.76 2050.66,1237.76 2068.35,1237.76 2085.9,1237.76 2104.26,1237.76 2121.93,1237.76 2139.49,1237.76 2157.85,1237.76 2175.51,1237.76 2193.06,1237.76 2211.43,1237.76 2229.08,1237.76 2246.63,1237.76 2265,1237.76 2282.64,1237.76 2291.66,1237.76 "/>
<polyline clip-path="url(#clip612)" style="stroke:#8e971d; stroke-linecap:round; stroke-linejoin:round; stroke-width:4; stroke-opacity:1; fill:none" points="255.035,292.273 255.082,292.273 255.551,292.273 257.194,292.273 260.044,292.273 263.69,292.273 275.471,292.273 292.211,292.273 307.305,292.273 322.175,292.273 338.163,292.273 355.775,292.273 373.072,292.273 389.753,292.273 408.902,292.273 427.319,292.273 444.492,292.273 464.355,292.273 483.095,292.273 500.846,292.273 521.037,292.273 539.661,292.273 558.072,292.273 578.341,292.273 596.558,292.273 615.636,292.273 635.813,292.273 653.419,292.273 673.088,292.274 693.055,292.274 709.906,292.275 730.014,292.274 749.697,292.269 766.979,292.253 787.228,292.209 806.282,292.144 824.013,292.107 842.489,292.225 859.561,292.694 876.179,293.723 891.691,295.288 907.012,297.183 922.26,298.681 936.555,298.53 949.892,295.659 964.629,287.859 979.1,274.491 993.158,256.537 1006.47,237.276 1021.36,218.284 1036.06,209.916 1049.83,219.51 1064.74,256.908 1079.97,329.731 1096.14,446.136 1113.17,606.718 1127.31,762.519 1142.07,936.316 1155.75,1084.92 1165.79,1157.97 1170.37,1173.19 1174.42,1177.96 1178.66,1176.29 1183.35,1169.38 1188.92,1157.46 1196,1140.32 1203.03,1123.97 1211.63,1107.1 1219.18,1096.23 1227.79,1088.9 1237.38,1087.32 1248.23,1093.58 1260.3,1109.14 1275.32,1137.22 1290.96,1170.5 1306.8,1201.76 1324.24,1227.84 1342.01,1243.26 1359.79,1248.88 1377.48,1248.19 1395.16,1244.85 1413.16,1241.33 1430.21,1239 1448.18,1237.74 1466.09,1237.35 1482.85,1237.38 1501.04,1237.53 1518.72,1237.66 1535.72,1237.73 1554,1237.76 1571.43,1237.77 1588.61,1237.77 1606.92,1237.77 1624.14,1237.77 1641.47,1237.76 1659.77,1237.76 1676.8,1237.76 1694.27,1237.76 1712.53,1237.76 1729.36,1237.76 1746.96,1237.76 1765.18,1237.76 1781.79,1237.76 1799.52,1237.76 1817.66,1237.76 1834.21,1237.76 1852.06,1237.76 1870.1,1237.76 1886.81,1237.76 1904.75,1237.76 1922.7,1237.76 1939.56,1237.76 1957.57,1237.76 1975.42,1237.76 1992.42,1237.76 2010.47,1237.76 2028.23,1237.76 2045.35,1237.76 2063.44,1237.76 2081.12,1237.76 2098.34,1237.76 2116.44,1237.76 2134.05,1237.76 2151.37,1237.76 2169.47,1237.76 2187.01,1237.76 2204.4,1237.76 2222.51,1237.76 2239.97,1237.76 2257.44,1237.76 2275.55,1237.76 2291.66,1237.76 "/>
<polyline clip-path="url(#clip612)" style="stroke:#00a8cb; stroke-linecap:round; stroke-linejoin:round; stroke-width:4; stroke-opacity:1; fill:none" points="255.035,292.273 255.082,292.273 255.551,292.273 257.194,292.273 260.044,292.273 263.691,292.273 275.472,292.273 292.212,292.273 307.306,292.273 322.176,292.273 338.163,292.273 355.775,292.273 373.072,292.273 389.754,292.273 408.902,292.273 427.319,292.273 444.493,292.273 464.355,292.273 483.093,292.273 500.846,292.273 521.036,292.273 539.657,292.273 558.07,292.273 578.336,292.273 596.545,292.273 615.625,292.273 635.797,292.273 653.385,292.273 673.052,292.273 693.01,292.273 709.819,292.273 729.919,292.273 749.587,292.273 766.889,292.273 787.206,292.273 806.418,292.273 824.427,292.273 844.786,292.273 863.433,292.279 882.178,292.295 902.386,292.331 920.356,292.372 939.33,292.371 957.728,292.193 974.538,291.696 991.486,290.706 1007.2,289.37 1022.86,288.017 1038.04,287.547 1051.58,288.94 1066.03,293.705 1080.84,303.426 1095.05,317.852 1108.45,335.172 1122.82,354.969 1137.66,371.711 1151.76,378.02 1166.19,368.867 1181.6,337.457 1197.2,283.527 1213.31,212.812 1230.43,140.019 1245.8,102.708 1255.56,603.843 1263.93,518.972 1270.08,468.655 1275.47,439.132 1281.65,426.123 1286.87,431.24 1291.66,442.042 1296.7,455.911 1300.8,466.811 1305.3,477.394 1313.37,491.088 1320.74,496.991 1328.24,496.485 1336.67,488.607 1346.46,471.027 1357.74,442.425 1370.47,404.505 1384,364.409 1397.39,330.755 1413.05,303.205 1429.7,288.011 1446.91,283.58 1462.06,284.718 1479.32,287.71 1497.06,290.285 1513.22,291.615 1530.85,292.208 1549.23,292.347 1565.98,292.334 1583.65,292.302 1602.39,292.282 1619.44,292.275 1637.15,292.274 1656.06,292.273 1673.22,292.273 1690.99,292.273 1709.99,292.273 1727.15,292.273 1745,292.273 1764.03,292.273 1781.14,292.273 1799.1,292.273 1818.13,292.273 1835.17,292.273 1853.24,292.273 1872.24,292.273 1889.2,292.273 1907.38,292.273 1926.36,292.273 1943.23,292.273 1961.52,292.273 1980.46,292.273 1997.23,292.273 2015.63,292.273 2034.52,292.273 2051.21,292.273 2069.7,292.273 2088.55,292.273 2105.15,292.273 2123.73,292.273 2142.54,292.273 2159.06,292.273 2177.71,292.273 2196.48,292.273 2212.91,292.273 2231.64,292.273 2250.36,292.273 2266.73,292.273 2285.51,292.273 2291.66,292.273 "/>
<polyline clip-path="url(#clip612)" style="stroke:#9b7fe8; stroke-linecap:round; stroke-linejoin:round; stroke-width:4; stroke-opacity:1; fill:none" points="255.035,292.273 255.082,292.273 255.551,292.273 257.194,292.273 260.044,292.273 263.691,292.273 275.472,292.273 292.212,292.273 307.306,292.273 322.176,292.273 338.164,292.273 355.775,292.273 373.072,292.273 389.754,292.273 408.902,292.273 427.319,292.273 444.493,292.273 464.355,292.273 483.093,292.273 500.846,292.273 521.036,292.273 539.656,292.273 558.069,292.273 578.336,292.273 596.543,292.273 615.623,292.273 635.794,292.273 653.38,292.273 673.047,292.273 693.003,292.273 709.806,292.273 729.904,292.273 749.569,292.273 766.874,292.273 787.187,292.273 806.391,292.273 824.405,292.273 844.757,292.273 863.382,292.274 882.137,292.275 902.406,292.279 920.375,292.283 939.798,292.284 959.788,292.257 977.019,292.176 996.212,291.975 1014.23,291.679 1030.58,291.44 1047.29,291.547 1062.83,292.464 1078.4,294.764 1093.34,298.678 1106.59,303.486 1121.13,309.394 1135.81,314.143 1149.94,314.764 1163.23,308.942 1177.72,292.765 1192.52,264.406 1206.54,228.162 1221.03,186.728 1236.49,148.799 1252.11,131.99 1268.42,155.039 1284.85,237.064 1300.11,380.693 1309.82,996.898 1318.12,1015.16 1324.38,1022.24 1329.72,1017.21 1335.92,994.44 1340.99,966.553 1345.43,937.685 1350.08,904.614 1354.67,870.409 1359.24,835.58 1366.78,777.565 1374.06,721.618 1381.69,663.312 1390.1,600.174 1399.95,529.304 1411.25,455.04 1424.02,384.614 1437.54,329.375 1451.09,294.441 1466.79,275.541 1483.5,272.485 1500.7,277.836 1516,283.884 1533.32,288.963 1551.04,291.612 1567.04,292.454 1584.77,292.579 1603.11,292.456 1619.71,292.353 1637.51,292.297 1656.2,292.277 1673.11,292.273 1690.94,292.273 1709.8,292.273 1726.83,292.273 1744.71,292.273 1763.66,292.273 1780.7,292.273 1798.65,292.273 1817.63,292.273 1834.63,292.273 1852.67,292.273 1871.65,292.273 1888.59,292.273 1906.72,292.273 1925.68,292.273 1942.55,292.273 1960.78,292.273 1979.71,292.273 1996.49,292.273 2014.82,292.273 2033.72,292.273 2050.42,292.273 2068.84,292.273 2087.7,292.273 2104.32,292.273 2122.82,292.273 2141.64,292.273 2158.19,292.273 2176.76,292.273 2195.55,292.273 2212.02,292.273 2230.66,292.273 2249.41,292.273 2265.82,292.273 2284.51,292.273 2291.66,292.273 "/>
<polyline clip-path="url(#clip612)" style="stroke:#608cf6; stroke-linecap:round; stroke-linejoin:round; stroke-width:4; stroke-opacity:1; fill:none" points="255.035,292.273 255.082,292.273 255.551,292.273 257.194,292.273 260.044,292.273 263.691,292.273 275.472,292.273 292.212,292.273 307.306,292.273 322.176,292.273 338.164,292.273 355.776,292.273 373.073,292.273 389.754,292.273 408.902,292.273 427.319,292.273 444.493,292.273 464.355,292.273 483.093,292.273 500.846,292.273 521.036,292.273 539.656,292.273 558.069,292.273 578.335,292.273 596.542,292.273 615.622,292.273 635.793,292.273 653.376,292.273 673.043,292.273 692.998,292.273 709.796,292.273 729.894,292.273 749.557,292.273 766.864,292.273 787.175,292.273 806.372,292.273 824.389,292.273 844.737,292.273 863.346,292.273 882.104,292.273 902.363,292.274 920.295,292.274 939.727,292.274 959.797,292.273 976.97,292.27 996.926,292.261 1016.71,292.243 1033.83,292.228 1053.74,292.249 1072.39,292.393 1089.52,292.744 1106.92,293.395 1123.21,294.191 1139.05,294.772 1154,294.474 1168.47,292.51 1183.54,287.72 1198.02,279.894 1211.45,270.123 1225.38,259.008 1240.18,249.634 1254.6,248.112 1268.74,259.737 1282.92,289.596 1298.2,345.567 1312.8,421.367 1326.96,510.649 1343.39,622.783 1358.28,720.344 1373.73,806.101 1387.15,859.008 1400,880.34 1410.89,869.302 1418.89,847.537 1425.14,831.727 1430.86,820.457 1436.48,814.038 1443.19,812.724 1450.75,819.205 1459.6,836.701 1469.22,866.472 1479.68,909.512 1490.95,964.82 1502.88,1028.58 1516.14,1098.7 1530.96,1167.65 1547.8,1225.67 1562.94,1256.77 1578.35,1270.2 1595.67,1269.77 1613.83,1260.5 1630.59,1250.55 1647.9,1242.6 1665.93,1237.93 1682.89,1236.28 1700.11,1236.18 1718.59,1236.72 1735.12,1237.22 1751.78,1237.56 1770.53,1237.74 1787.45,1237.79 1804.26,1237.79 1823.06,1237.78 1840.2,1237.77 1857.17,1237.77 1875.97,1237.76 1893.23,1237.76 1910.31,1237.76 1929.09,1237.76 1946.44,1237.76 1963.57,1237.76 1982.34,1237.76 1999.74,1237.76 2016.91,1237.76 2035.66,1237.76 2053.11,1237.76 2070.3,1237.76 2089.03,1237.76 2106.5,1237.76 2123.71,1237.76 2142.44,1237.76 2159.92,1237.76 2177.13,1237.76 2195.86,1237.76 2213.36,1237.76 2230.58,1237.76 2249.3,1237.76 2266.81,1237.76 2284.03,1237.76 2291.66,1237.76 "/>
<polyline clip-path="url(#clip612)" style="stroke:#f05f73; stroke-linecap:round; stroke-linejoin:round; stroke-width:4; stroke-opacity:1; fill:none" points="255.035,292.273 255.082,292.273 255.551,292.273 257.194,292.273 260.044,292.273 263.691,292.273 275.472,292.273 292.212,292.273 307.306,292.273 322.176,292.273 338.164,292.273 355.775,292.273 373.072,292.273 389.754,292.273 408.902,292.273 427.319,292.273 444.493,292.273 464.355,292.273 483.093,292.273 500.846,292.273 521.036,292.273 539.656,292.273 558.069,292.273 578.336,292.273 596.543,292.273 615.623,292.273 635.794,292.273 653.38,292.273 673.047,292.273 693.003,292.273 709.806,292.273 729.904,292.273 749.57,292.273 766.875,292.273 787.188,292.273 806.392,292.273 824.406,292.273 844.759,292.273 863.385,292.274 882.139,292.276 902.409,292.28 920.381,292.285 939.8,292.285 959.759,292.254 976.987,292.161 996.045,291.932 1013.88,291.6 1030.21,291.328 1046.76,291.433 1062.17,292.406 1077.69,294.875 1092.59,299.097 1105.89,304.341 1120.32,310.774 1135.05,316.148 1149.24,317.233 1162.69,311.456 1177.11,294.986 1191.98,265.51 1205.97,227.88 1220.45,184.544 1235.96,144.269 1251.69,125.463 1268.37,148.781 1283.98,227.833 1299.15,373.857 1313.68,595.471 1326.74,868.502 1334.82,1052.73 1341.72,1185.7 1347.89,1275.55 1353.04,918.627 1359.63,869.482 1365.62,823.017 1372.79,766.699 1381.27,699.746 1389.04,638.951 1398.25,568.807 1408.77,493.681 1420.73,418.646 1434.16,352.312 1447.1,308.36 1461.93,280.419 1478.06,270.594 1495.25,273.437 1511.61,280.377 1528.02,286.585 1545.69,290.608 1562.81,292.231 1578.98,292.612 1597.39,292.543 1615.04,292.403 1631.21,292.323 1649.93,292.284 1667.92,292.274 1684.22,292.273 1703.1,292.273 1721.24,292.273 1737.59,292.273 1756.54,292.273 1774.76,292.273 1791.12,292.273 1810.13,292.273 1828.37,292.273 1844.74,292.273 1863.78,292.273 1882.03,292.273 1898.41,292.273 1917.47,292.273 1935.7,292.273 1952.09,292.273 1971.17,292.273 1989.39,292.273 2005.77,292.273 2024.86,292.273 2043.06,292.273 2059.45,292.273 2078.56,292.273 2096.73,292.273 2113.11,292.273 2132.23,292.273 2150.39,292.273 2166.77,292.273 2185.9,292.273 2204.04,292.273 2220.41,292.273 2239.55,292.273 2257.68,292.273 2274.04,292.273 2291.66,292.273 "/>
<polyline clip-path="url(#clip612)" style="stroke:#dd64b5; stroke-linecap:round; stroke-linejoin:round; stroke-width:4; stroke-opacity:1; fill:none" points="255.035,292.273 255.082,292.273 255.551,292.273 257.194,292.273 260.044,292.273 263.691,292.273 275.472,292.273 292.212,292.273 307.306,292.273 322.176,292.273 338.164,292.273 355.776,292.273 373.073,292.273 389.754,292.273 408.902,292.273 427.319,292.273 444.493,292.273 464.355,292.273 483.093,292.273 500.846,292.273 521.036,292.273 539.656,292.273 558.069,292.273 578.335,292.273 596.541,292.273 615.621,292.273 635.792,292.273 653.374,292.273 673.041,292.273 692.996,292.273 709.792,292.273 729.888,292.273 749.55,292.273 766.859,292.273 787.168,292.273 806.363,292.273 824.382,292.273 844.726,292.273 863.328,292.273 882.087,292.273 902.341,292.273 920.252,292.273 939.683,292.273 959.742,292.273 976.867,292.273 996.817,292.273 1016.6,292.273 1033.77,292.273 1054.02,292.273 1073.39,292.274 1091.2,292.278 1111.55,292.289 1130.39,292.304 1148.89,292.312 1168.72,292.261 1186.61,292.075 1204.57,291.65 1221.63,290.997 1237.9,290.326 1253.93,290.12 1268.35,291.052 1283.33,294.088 1298.19,300.037 1312.21,308.61 1325.12,318.459 1339.81,329.921 1354.28,337.88 1368.49,337.849 1382.42,325.927 1397.48,296.568 1412.35,251.137 1426.3,198.45 1441.69,139.92 1456.84,97.6389 1472.89,91.1509 1487.61,143.69 1500.38,259.674 1514.23,494.2 1524.38,744.352 1532.68,952.389 1537.77,1059.4 1542.44,1143.12 1547.44,1217.83 1553.4,1288.68 1562.02,1361.2 1570.01,1402.8 1579.15,1426.45 1588.92,1429.64 1599.47,1413.92 1610.63,1382.74 1622.97,1339.32 1636.29,1291.24 1652.5,1242.23 1663.99,1217.9 1675.67,1202.98 1687.93,1196.91 1702.09,1199.14 1718.02,1208.39 1732.85,1218.8 1748.05,1228.08 1764.26,1234.85 1781.25,1238.48 1797.39,1239.56 1815.03,1239.37 1832.72,1238.75 1849.07,1238.24 1866.86,1237.91 1885.45,1237.77 1902.28,1237.73 1920.07,1237.74 1938.88,1237.75 1955.86,1237.76 1973.61,1237.76 1992.54,1237.76 2009.57,1237.76 2027.32,1237.76 2046.3,1237.76 2063.31,1237.76 2081.09,1237.76 2100.08,1237.76 2117.06,1237.76 2134.88,1237.76 2153.87,1237.76 2170.81,1237.76 2188.68,1237.76 2207.65,1237.76 2224.55,1237.76 2242.47,1237.76 2261.44,1237.76 2278.29,1237.76 2291.66,1237.76 "/>
<polyline clip-path="url(#clip612)" style="stroke:#6b9e32; stroke-linecap:round; stroke-linejoin:round; stroke-width:4; stroke-opacity:1; fill:none" points="255.035,292.273 255.082,292.273 255.551,292.273 257.194,292.273 260.044,292.273 263.691,292.273 275.472,292.273 292.212,292.273 307.306,292.273 322.176,292.273 338.164,292.273 355.775,292.273 373.072,292.273 389.754,292.273 408.902,292.273 427.319,292.273 444.493,292.273 464.355,292.273 483.093,292.273 500.846,292.273 521.036,292.273 539.656,292.273 558.069,292.273 578.336,292.273 596.544,292.273 615.624,292.273 635.795,292.273 653.38,292.273 673.048,292.273 693.004,292.273 709.808,292.273 729.906,292.273 749.572,292.273 766.877,292.273 787.191,292.273 806.396,292.273 824.409,292.273 844.763,292.273 863.392,292.274 882.145,292.277 902.416,292.283 920.394,292.291 939.797,292.291 959.645,292.247 976.854,292.115 995.541,291.807 1012.95,291.369 1029.2,290.998 1045.4,291.083 1060.48,292.191 1075.84,295.091 1090.68,300.137 1104.13,306.59 1118.27,314.432 1133.08,321.596 1147.39,324.148 1161.18,318.86 1175.36,302.2 1190.39,270.418 1204.59,228.825 1218.92,181.324 1234.6,134.959 1250.32,110.904 1267.38,132.078 1282.1,208.95 1296.63,358.978 1310.89,602.575 1323.53,898.972 1327.8,1001.95 1331.73,1086.39 1335.7,1161.25 1340.69,1239.91 1346.04,1306.53 1352.47,1365.59 1359.55,1409.01 1367.93,1437.15 1376.33,1445.72 1384.13,1440.11 1392.93,1421.97 1402.91,1390.92 1414.26,1348.3 1428.53,1293.38 1444.25,1242.27 1459.88,1208.51 1476.6,1192.7 1494.1,1193.9 1512.09,1205.57 1528.88,1218.67 1546.54,1229.88 1564.21,1236.67 1581.96,1239.54 1599.8,1239.95 1617.36,1239.34 1635.37,1238.59 1653.13,1238.07 1670.43,1237.82 1688.62,1237.73 1706.26,1237.73 1723.3,1237.74 1741.59,1237.75 1759.07,1237.76 1775.84,1237.76 1794.21,1237.76 1811.49,1237.76 1828.1,1237.76 1846.56,1237.76 1863.57,1237.76 1880.39,1237.76 1898.9,1237.76 1915.63,1237.76 1932.67,1237.76 1951.2,1237.76 1967.62,1237.76 1984.88,1237.76 2003.38,1237.76 2019.96,1237.76 2037.42,1237.76 2055.85,1237.76 2072.61,1237.76 2090.19,1237.76 2108.55,1237.76 2125.47,1237.76 2143.13,1237.76 2161.43,1237.76 2178.47,1237.76 2196.18,1237.76 2214.44,1237.76 2231.57,1237.76 2249.31,1237.76 2267.53,1237.76 2284.73,1237.76 2291.66,1237.76 "/>
<polyline clip-path="url(#clip612)" style="stroke:#009af9; stroke-linecap:round; stroke-linejoin:round; stroke-width:4; stroke-opacity:1; fill:none" points="255.035,292.273 255.082,292.273 255.551,292.273 257.194,292.273 260.044,292.273 263.691,292.273 275.472,292.273 292.212,292.273 307.306,292.273 322.176,292.273 338.164,292.273 355.776,292.273 373.073,292.273 389.754,292.273 408.902,292.273 427.319,292.273 444.493,292.273 464.355,292.273 483.093,292.273 500.846,292.273 521.036,292.273 539.656,292.273 558.069,292.273 578.335,292.273 596.542,292.273 615.622,292.273 635.793,292.273 653.377,292.273 673.044,292.273 692.999,292.273 709.798,292.273 729.895,292.273 749.559,292.273 766.866,292.273 787.177,292.273 806.376,292.273 824.392,292.273 844.74,292.273 863.353,292.273 882.109,292.274 902.371,292.274 920.309,292.274 939.742,292.274 959.815,292.272 977.004,292.265 996.949,292.243 1016.67,292.204 1033.73,292.173 1053.05,292.214 1070.9,292.473 1087.5,293.082 1104.01,294.156 1119.63,295.498 1135.16,296.652 1149.86,296.662 1163.44,294.617 1178.19,288.838 1192.72,278.586 1206.67,264.619 1219.59,249.617 1234.35,233.924 1248.96,226.18 1263.04,233.3 1277.63,262.97 1293.09,324.697 1308.64,419.181 1324.8,546.464 1341.54,698.388 1356.55,840.034 1371.17,968.804 1384.23,1052.71 1394.72,1076.8 1403.37,1060.52 1407.5,1048.87 1411.36,1037.04 1415.35,1025.15 1421.11,1009.7 1428.73,994.031 1436.76,984.344 1444.4,981.858 1453.7,987.437 1464.18,1004.08 1476.17,1034.2 1489.67,1077.55 1504.01,1127.56 1518.05,1173.4 1534.76,1216.76 1552.7,1245.64 1570.62,1257.42 1587.18,1257.66 1605.74,1251.98 1624.26,1245.25 1640.35,1240.81 1659.07,1237.92 1677.84,1236.94 1694.22,1236.93 1712.9,1237.24 1731.75,1237.53 1748.28,1237.68 1766.96,1237.76 1785.8,1237.78 1802.34,1237.78 1821.04,1237.77 1839.85,1237.77 1856.34,1237.76 1875.08,1237.76 1893.85,1237.76 1910.28,1237.76 1929.06,1237.76 1947.79,1237.76 1964.15,1237.76 1982.98,1237.76 2001.67,1237.76 2017.96,1237.76 2036.84,1237.76 2055.49,1237.76 2071.72,1237.76 2090.65,1237.76 2109.26,1237.76 2125.44,1237.76 2144.4,1237.76 2162.99,1237.76 2179.12,1237.76 2198.11,1237.76 2216.67,1237.76 2232.77,1237.76 2251.78,1237.76 2270.32,1237.76 2286.38,1237.76 2291.66,1237.76 "/>
<polyline clip-path="url(#clip612)" style="stroke:#e26f46; stroke-linecap:round; stroke-linejoin:round; stroke-width:4; stroke-opacity:1; fill:none" points="255.035,292.273 255.082,292.273 255.551,292.273 257.194,292.273 260.044,292.273 263.691,292.273 275.472,292.273 292.212,292.273 307.306,292.273 322.176,292.273 338.164,292.273 355.776,292.273 373.073,292.273 389.754,292.273 408.902,292.273 427.319,292.273 444.493,292.273 464.355,292.273 483.093,292.273 500.846,292.273 521.036,292.273 539.656,292.273 558.069,292.273 578.335,292.273 596.541,292.273 615.621,292.273 635.792,292.273 653.374,292.273 673.041,292.273 692.995,292.273 709.791,292.273 729.887,292.273 749.549,292.273 766.857,292.273 787.167,292.273 806.36,292.273 824.38,292.273 844.724,292.273 863.324,292.273 882.083,292.273 902.336,292.273 920.243,292.273 939.673,292.273 959.729,292.273 976.843,292.273 996.791,292.273 1016.57,292.273 1033.74,292.273 1053.99,292.273 1073.35,292.273 1091.17,292.273 1111.51,292.274 1130.32,292.274 1148.88,292.274 1169.17,292.273 1187.34,292.267 1206.59,292.25 1226.66,292.213 1244.11,292.177 1263.34,292.191 1281.56,292.394 1298.06,292.913 1314.93,293.918 1330.6,295.239 1346.22,296.521 1361.25,296.861 1374.53,295.382 1389.1,290.536 1403.79,281.128 1417.88,267.661 1431.09,252.354 1445.57,235.989 1460.32,225.751 1474.41,229.25 1488.85,253.717 1504.26,309.347 1519.79,398.312 1535.71,519.911 1553.07,676.082 1568.38,821.76 1583.29,956.538 1596.59,1048.68 1607.53,1079.49 1614.49,1070.26 1619.22,1057.81 1623.62,1043.86 1627.81,1030.39 1633.78,1012.78 1641.59,994.565 1649.64,982.885 1657.43,978.745 1666.61,982.704 1676.97,997.725 1688.8,1026.36 1702.16,1068.88 1716.51,1119.55 1730.61,1167.07 1747.07,1212.1 1764.94,1243.46 1783.01,1257.25 1799.71,1258.37 1818.15,1252.97 1836.8,1246 1853.3,1241.17 1871.83,1238.08 1890.74,1236.95 1907.42,1236.9 1925.9,1237.2 1944.87,1237.51 1961.65,1237.67 1980.13,1237.76 1999.08,1237.78 2015.83,1237.78 2034.35,1237.77 2053.26,1237.77 2069.93,1237.76 2088.52,1237.76 2107.38,1237.76 2123.96,1237.76 2142.61,1237.76 2161.42,1237.76 2177.92,1237.76 2196.64,1237.76 2215.4,1237.76 2231.82,1237.76 2250.61,1237.76 2269.32,1237.76 2285.66,1237.76 2291.66,1237.76 "/>
<polyline clip-path="url(#clip612)" style="stroke:#3da44d; stroke-linecap:round; stroke-linejoin:round; stroke-width:4; stroke-opacity:1; fill:none" points="255.035,292.273 255.082,292.273 255.551,292.273 257.194,292.273 260.043,292.273 263.69,292.273 275.47,292.273 292.21,292.273 307.304,292.273 322.174,292.273 338.162,292.273 355.774,292.273 373.072,292.273 389.753,292.273 408.901,292.273 427.319,292.273 444.491,292.273 464.355,292.273 483.095,292.273 500.846,292.273 521.038,292.273 539.664,292.273 558.074,292.273 578.344,292.273 596.565,292.273 615.643,292.273 635.822,292.273 653.438,292.274 673.108,292.275 693.08,292.277 709.955,292.279 730.059,292.278 749.715,292.257 766.959,292.2 786.679,292.059 804.925,291.869 821.982,291.754 838.938,291.975 854.957,292.903 870.631,294.921 885.352,298.024 899.573,301.895 914.563,305.908 929.058,307.868 942.658,305.704 956.349,297.273 971.199,279.087 985.679,252.195 999.916,219.754 1014.43,186.939 1029.84,163.146 1044.85,163.713 1059.53,198.686 1076.34,291.97 1090.76,423.882 1105.67,616.237 1118.76,833.484 1131.61,1072.58 1137.64,1176.2 1143.14,1249.83 1149.3,1307.69 1154.21,1338.21 1159.13,1357.88 1164.49,1369.73 1172.2,1373.85 1180.22,1366.77 1189.16,1349.89 1199.26,1323.91 1210.41,1291.53 1222.67,1256.56 1235.77,1224.9 1250.25,1200.8 1266.12,1188.97 1281.82,1190.12 1298.99,1200.65 1316.08,1214.5 1333.95,1227.27 1351.88,1235.73 1369.16,1239.65 1386.92,1240.62 1404.98,1240.02 1422.78,1239.06 1440.58,1238.31 1458.44,1237.89 1476.4,1237.73 1494.19,1237.7 1511.91,1237.72 1529.95,1237.74 1547.69,1237.76 1565.31,1237.76 1583.38,1237.76 1601.07,1237.76 1618.6,1237.76 1636.71,1237.76 1654.35,1237.76 1671.8,1237.76 1689.94,1237.76 1707.54,1237.76 1724.91,1237.76 1743.09,1237.76 1760.64,1237.76 1777.92,1237.76 1796.14,1237.76 1813.63,1237.76 1830.8,1237.76 1849.07,1237.76 1866.49,1237.76 1883.52,1237.76 1901.84,1237.76 1919.16,1237.76 1935.99,1237.76 1954.39,1237.76 1971.54,1237.76 1988.08,1237.76 2006.56,1237.76 2023.46,1237.76 2040.21,1237.76 2058.76,1237.76 2075.36,1237.76 2092.34,1237.76 2110.92,1237.76 2127.4,1237.76 2144.62,1237.76 2163.16,1237.76 2179.82,1237.76 2197.22,1237.76 2215.7,1237.76 2232.53,1237.76 2250.04,1237.76 2268.47,1237.76 2285.44,1237.76 2291.66,1237.76 "/>
<polyline clip-path="url(#clip612)" style="stroke:#c271d2; stroke-linecap:round; stroke-linejoin:round; stroke-width:4; stroke-opacity:1; fill:none" points="255.035,292.273 255.082,292.273 255.551,292.273 257.194,292.273 260.044,292.273 263.691,292.273 275.472,292.273 292.212,292.273 307.306,292.273 322.176,292.273 338.164,292.273 355.776,292.273 373.073,292.273 389.754,292.273 408.902,292.273 427.319,292.273 444.493,292.273 464.355,292.273 483.093,292.273 500.846,292.273 521.036,292.273 539.656,292.273 558.069,292.273 578.335,292.273 596.542,292.273 615.622,292.273 635.792,292.273 653.375,292.273 673.042,292.273 692.997,292.273 709.794,292.273 729.891,292.273 749.553,292.273 766.861,292.273 787.171,292.273 806.367,292.273 824.385,292.273 844.731,292.273 863.337,292.273 882.095,292.273 902.352,292.273 920.272,292.273 939.704,292.273 959.768,292.273 976.915,292.273 996.87,292.272 1016.66,292.269 1033.81,292.266 1054.06,292.27 1073.41,292.299 1091.13,292.38 1110.58,292.558 1128.43,292.78 1145.59,292.889 1162.14,292.566 1178,291.397 1193.66,288.956 1208.04,285.43 1222.26,281.109 1237.23,276.942 1251.64,275.55 1265.2,279.322 1279.02,291.1 1293.88,315.222 1308.31,350.71 1322.56,395.179 1337.31,445.302 1352.77,492.737 1367.99,523.509 1383.32,529.572 1399.84,504.087 1414.39,458.251 1428.82,404.528 1439.26,652.442 1447.23,474.676 1450.59,403.129 1453.65,345.263 1455.98,307.351 1457.79,281.202 1459.74,256.232 1462.19,229.32 1466.66,191.27 1471.39,163.931 1477.57,143.434 1483.96,135.468 1490.4,137.193 1497.92,147.95 1506.61,168.232 1516.52,197.062 1527.57,231.06 1539.64,264.76 1552.47,292.154 1566.88,310.279 1580.96,1255.62 1594.14,1259.59 1607.17,1257.95 1619.89,1253.57 1632.9,1248.28 1649.61,1242.39 1666.83,1238.52 1682.87,1236.85 1698.87,1236.45 1716.95,1236.74 1733.89,1237.17 1750.85,1237.5 1769.21,1237.7 1786.67,1237.77 1803.96,1237.79 1822.37,1237.78 1840.06,1237.77 1857.46,1237.77 1875.89,1237.76 1893.67,1237.76 1911.09,1237.76 1929.53,1237.76 1947.34,1237.76 1964.77,1237.76 1983.21,1237.76 2001.02,1237.76 2018.44,1237.76 2036.9,1237.76 2054.69,1237.76 2072.12,1237.76 2090.59,1237.76 2108.36,1237.76 2125.78,1237.76 2144.26,1237.76 2162.02,1237.76 2179.43,1237.76 2197.93,1237.76 2215.66,1237.76 2233.07,1237.76 2251.58,1237.76 2269.29,1237.76 2286.69,1237.76 2291.66,1237.76 "/>
</svg>
