<?xml version="1.0" encoding="utf-8"?>
<svg xmlns="http://www.w3.org/2000/svg" xmlns:xlink="http://www.w3.org/1999/xlink" width="600" height="400" viewBox="0 0 2400 1600">
<defs>
  <clipPath id="clip150">
    <rect x="0" y="0" width="2400" height="1600"/>
  </clipPath>
</defs>
<path clip-path="url(#clip150)" d="M0 1600 L2400 1600 L2400 0 L0 0  Z" fill="#ffffff" fill-rule="evenodd" fill-opacity="1"/>
<defs>
  <clipPath id="clip151">
    <rect x="480" y="0" width="1681" height="1600"/>
  </clipPath>
</defs>
<path clip-path="url(#clip150)" d="M193.936 1486.45 L2352.76 1486.45 L2352.76 47.2441 L193.936 47.2441  Z" fill="#ffffff" fill-rule="evenodd" fill-opacity="1"/>
<defs>
  <clipPath id="clip152">
    <rect x="193" y="47" width="2160" height="1440"/>
  </clipPath>
</defs>
<polyline clip-path="url(#clip152)" style="stroke:#000000; stroke-linecap:round; stroke-linejoin:round; stroke-width:2; stroke-opacity:0.1; fill:none" points="255.035,1486.45 255.035,47.2441 "/>
<polyline clip-path="url(#clip152)" style="stroke:#000000; stroke-linecap:round; stroke-linejoin:round; stroke-width:2; stroke-opacity:0.1; fill:none" points="933.909,1486.45 933.909,47.2441 "/>
<polyline clip-path="url(#clip152)" style="stroke:#000000; stroke-linecap:round; stroke-linejoin:round; stroke-width:2; stroke-opacity:0.1; fill:none" points="1612.78,1486.45 1612.78,47.2441 "/>
<polyline clip-path="url(#clip152)" style="stroke:#000000; stroke-linecap:round; stroke-linejoin:round; stroke-width:2; stroke-opacity:0.1; fill:none" points="2291.66,1486.45 2291.66,47.2441 "/>
<polyline clip-path="url(#clip150)" style="stroke:#000000; stroke-linecap:round; stroke-linejoin:round; stroke-width:4; stroke-opacity:1; fill:none" points="193.936,1486.45 2352.76,1486.45 "/>
<polyline clip-path="url(#clip150)" style="stroke:#000000; stroke-linecap:round; stroke-linejoin:round; stroke-width:4; stroke-opacity:1; fill:none" points="255.035,1486.45 255.035,1467.55 "/>
<polyline clip-path="url(#clip150)" style="stroke:#000000; stroke-linecap:round; stroke-linejoin:round; stroke-width:4; stroke-opacity:1; fill:none" points="933.909,1486.45 933.909,1467.55 "/>
<polyline clip-path="url(#clip150)" style="stroke:#000000; stroke-linecap:round; stroke-linejoin:round; stroke-width:4; stroke-opacity:1; fill:none" points="1612.78,1486.45 1612.78,1467.55 "/>
<polyline clip-path="url(#clip150)" style="stroke:#000000; stroke-linecap:round; stroke-linejoin:round; stroke-width:4; stroke-opacity:1; fill:none" points="2291.66,1486.45 2291.66,1467.55 "/>
<path clip-path="url(#clip150)" d="M255.035 1517.37 Q251.424 1517.37 249.595 1520.93 Q247.789 1524.47 247.789 1531.6 Q247.789 1538.71 249.595 1542.27 Q251.424 1545.82 255.035 1545.82 Q258.669 1545.82 260.474 1542.27 Q262.303 1538.71 262.303 1531.6 Q262.303 1524.47 260.474 1520.93 Q258.669 1517.37 255.035 1517.37 M255.035 1513.66 Q260.845 1513.66 263.9 1518.27 Q266.979 1522.85 266.979 1531.6 Q266.979 1540.33 263.9 1544.94 Q260.845 1549.52 255.035 1549.52 Q249.225 1549.52 246.146 1544.94 Q243.09 1540.33 243.09 1531.6 Q243.09 1522.85 246.146 1518.27 Q249.225 1513.66 255.035 1513.66 Z" fill="#000000" fill-rule="nonzero" fill-opacity="1" /><path clip-path="url(#clip150)" d="M878.435 1544.91 L886.073 1544.91 L886.073 1518.55 L877.763 1520.21 L877.763 1515.95 L886.027 1514.29 L890.703 1514.29 L890.703 1544.91 L898.342 1544.91 L898.342 1548.85 L878.435 1548.85 L878.435 1544.91 Z" fill="#000000" fill-rule="nonzero" fill-opacity="1" /><path clip-path="url(#clip150)" d="M917.786 1517.37 Q914.175 1517.37 912.346 1520.93 Q910.541 1524.47 910.541 1531.6 Q910.541 1538.71 912.346 1542.27 Q914.175 1545.82 917.786 1545.82 Q921.42 1545.82 923.226 1542.27 Q925.055 1538.71 925.055 1531.6 Q925.055 1524.47 923.226 1520.93 Q921.42 1517.37 917.786 1517.37 M917.786 1513.66 Q923.596 1513.66 926.652 1518.27 Q929.731 1522.85 929.731 1531.6 Q929.731 1540.33 926.652 1544.94 Q923.596 1549.52 917.786 1549.52 Q911.976 1549.52 908.897 1544.94 Q905.842 1540.33 905.842 1531.6 Q905.842 1522.85 908.897 1518.27 Q911.976 1513.66 917.786 1513.66 Z" fill="#000000" fill-rule="nonzero" fill-opacity="1" /><path clip-path="url(#clip150)" d="M947.948 1517.37 Q944.337 1517.37 942.508 1520.93 Q940.703 1524.47 940.703 1531.6 Q940.703 1538.71 942.508 1542.27 Q944.337 1545.82 947.948 1545.82 Q951.582 1545.82 953.388 1542.27 Q955.217 1538.71 955.217 1531.6 Q955.217 1524.47 953.388 1520.93 Q951.582 1517.37 947.948 1517.37 M947.948 1513.66 Q953.758 1513.66 956.814 1518.27 Q959.893 1522.85 959.893 1531.6 Q959.893 1540.33 956.814 1544.94 Q953.758 1549.52 947.948 1549.52 Q942.138 1549.52 939.059 1544.94 Q936.004 1540.33 936.004 1531.6 Q936.004 1522.85 939.059 1518.27 Q942.138 1513.66 947.948 1513.66 Z" fill="#000000" fill-rule="nonzero" fill-opacity="1" /><path clip-path="url(#clip150)" d="M978.11 1517.37 Q974.499 1517.37 972.67 1520.93 Q970.865 1524.47 970.865 1531.6 Q970.865 1538.71 972.67 1542.27 Q974.499 1545.82 978.11 1545.82 Q981.744 1545.82 983.55 1542.27 Q985.378 1538.71 985.378 1531.6 Q985.378 1524.47 983.55 1520.93 Q981.744 1517.37 978.11 1517.37 M978.11 1513.66 Q983.92 1513.66 986.976 1518.27 Q990.054 1522.85 990.054 1531.6 Q990.054 1540.33 986.976 1544.94 Q983.92 1549.52 978.11 1549.52 Q972.3 1549.52 969.221 1544.94 Q966.166 1540.33 966.166 1531.6 Q966.166 1522.85 969.221 1518.27 Q972.3 1513.66 978.11 1513.66 Z" fill="#000000" fill-rule="nonzero" fill-opacity="1" /><path clip-path="url(#clip150)" d="M1561.39 1544.91 L1577.71 1544.91 L1577.71 1548.85 L1555.77 1548.85 L1555.77 1544.91 Q1558.43 1542.16 1563.01 1537.53 Q1567.62 1532.88 1568.8 1531.53 Q1571.05 1529.01 1571.93 1527.27 Q1572.83 1525.51 1572.83 1523.82 Q1572.83 1521.07 1570.89 1519.33 Q1568.96 1517.6 1565.86 1517.6 Q1563.66 1517.6 1561.21 1518.36 Q1558.78 1519.13 1556 1520.68 L1556 1515.95 Q1558.82 1514.82 1561.28 1514.24 Q1563.73 1513.66 1565.77 1513.66 Q1571.14 1513.66 1574.33 1516.35 Q1577.53 1519.03 1577.53 1523.52 Q1577.53 1525.65 1576.72 1527.57 Q1575.93 1529.47 1573.82 1532.07 Q1573.25 1532.74 1570.14 1535.95 Q1567.04 1539.15 1561.39 1544.91 Z" fill="#000000" fill-rule="nonzero" fill-opacity="1" /><path clip-path="url(#clip150)" d="M1597.53 1517.37 Q1593.92 1517.37 1592.09 1520.93 Q1590.28 1524.47 1590.28 1531.6 Q1590.28 1538.71 1592.09 1542.27 Q1593.92 1545.82 1597.53 1545.82 Q1601.16 1545.82 1602.97 1542.27 Q1604.8 1538.71 1604.8 1531.6 Q1604.8 1524.47 1602.97 1520.93 Q1601.16 1517.37 1597.53 1517.37 M1597.53 1513.66 Q1603.34 1513.66 1606.39 1518.27 Q1609.47 1522.85 1609.47 1531.6 Q1609.47 1540.33 1606.39 1544.94 Q1603.34 1549.52 1597.53 1549.52 Q1591.72 1549.52 1588.64 1544.94 Q1585.58 1540.33 1585.58 1531.6 Q1585.58 1522.85 1588.64 1518.27 Q1591.72 1513.66 1597.53 1513.66 Z" fill="#000000" fill-rule="nonzero" fill-opacity="1" /><path clip-path="url(#clip150)" d="M1627.69 1517.37 Q1624.08 1517.37 1622.25 1520.93 Q1620.45 1524.47 1620.45 1531.6 Q1620.45 1538.71 1622.25 1542.27 Q1624.08 1545.82 1627.69 1545.82 Q1631.32 1545.82 1633.13 1542.27 Q1634.96 1538.71 1634.96 1531.6 Q1634.96 1524.47 1633.13 1520.93 Q1631.32 1517.37 1627.69 1517.37 M1627.69 1513.66 Q1633.5 1513.66 1636.56 1518.27 Q1639.63 1522.85 1639.63 1531.6 Q1639.63 1540.33 1636.56 1544.94 Q1633.5 1549.52 1627.69 1549.52 Q1621.88 1549.52 1618.8 1544.94 Q1615.75 1540.33 1615.75 1531.6 Q1615.75 1522.85 1618.8 1518.27 Q1621.88 1513.66 1627.69 1513.66 Z" fill="#000000" fill-rule="nonzero" fill-opacity="1" /><path clip-path="url(#clip150)" d="M1657.85 1517.37 Q1654.24 1517.37 1652.41 1520.93 Q1650.61 1524.47 1650.61 1531.6 Q1650.61 1538.71 1652.41 1542.27 Q1654.24 1545.82 1657.85 1545.82 Q1661.49 1545.82 1663.29 1542.27 Q1665.12 1538.71 1665.12 1531.6 Q1665.12 1524.47 1663.29 1520.93 Q1661.49 1517.37 1657.85 1517.37 M1657.85 1513.66 Q1663.66 1513.66 1666.72 1518.27 Q1669.8 1522.85 1669.8 1531.6 Q1669.8 1540.33 1666.72 1544.94 Q1663.66 1549.52 1657.85 1549.52 Q1652.04 1549.52 1648.96 1544.94 Q1645.91 1540.33 1645.91 1531.6 Q1645.91 1522.85 1648.96 1518.27 Q1652.04 1513.66 1657.85 1513.66 Z" fill="#000000" fill-rule="nonzero" fill-opacity="1" /><path clip-path="url(#clip150)" d="M2250.34 1530.21 Q2253.69 1530.93 2255.57 1533.2 Q2257.47 1535.47 2257.47 1538.8 Q2257.47 1543.92 2253.95 1546.72 Q2250.43 1549.52 2243.95 1549.52 Q2241.77 1549.52 2239.46 1549.08 Q2237.17 1548.66 2234.71 1547.81 L2234.71 1543.29 Q2236.66 1544.43 2238.97 1545.01 Q2241.29 1545.58 2243.81 1545.58 Q2248.21 1545.58 2250.5 1543.85 Q2252.81 1542.11 2252.81 1538.8 Q2252.81 1535.75 2250.66 1534.03 Q2248.53 1532.3 2244.71 1532.3 L2240.69 1532.3 L2240.69 1528.45 L2244.9 1528.45 Q2248.35 1528.45 2250.18 1527.09 Q2252 1525.7 2252 1523.11 Q2252 1520.45 2250.11 1519.03 Q2248.23 1517.6 2244.71 1517.6 Q2242.79 1517.6 2240.59 1518.01 Q2238.39 1518.43 2235.75 1519.31 L2235.75 1515.14 Q2238.42 1514.4 2240.73 1514.03 Q2243.07 1513.66 2245.13 1513.66 Q2250.45 1513.66 2253.56 1516.09 Q2256.66 1518.5 2256.66 1522.62 Q2256.66 1525.49 2255.01 1527.48 Q2253.37 1529.45 2250.34 1530.21 Z" fill="#000000" fill-rule="nonzero" fill-opacity="1" /><path clip-path="url(#clip150)" d="M2276.33 1517.37 Q2272.72 1517.37 2270.89 1520.93 Q2269.09 1524.47 2269.09 1531.6 Q2269.09 1538.71 2270.89 1542.27 Q2272.72 1545.82 2276.33 1545.82 Q2279.97 1545.82 2281.77 1542.27 Q2283.6 1538.71 2283.6 1531.6 Q2283.6 1524.47 2281.77 1520.93 Q2279.97 1517.37 2276.33 1517.37 M2276.33 1513.66 Q2282.14 1513.66 2285.2 1518.27 Q2288.28 1522.85 2288.28 1531.6 Q2288.28 1540.33 2285.2 1544.94 Q2282.14 1549.52 2276.33 1549.52 Q2270.52 1549.52 2267.44 1544.94 Q2264.39 1540.33 2264.39 1531.6 Q2264.39 1522.85 2267.44 1518.27 Q2270.52 1513.66 2276.33 1513.66 Z" fill="#000000" fill-rule="nonzero" fill-opacity="1" /><path clip-path="url(#clip150)" d="M2306.5 1517.37 Q2302.88 1517.37 2301.06 1520.93 Q2299.25 1524.47 2299.25 1531.6 Q2299.25 1538.71 2301.06 1542.27 Q2302.88 1545.82 2306.5 1545.82 Q2310.13 1545.82 2311.93 1542.27 Q2313.76 1538.71 2313.76 1531.6 Q2313.76 1524.47 2311.93 1520.93 Q2310.13 1517.37 2306.5 1517.37 M2306.5 1513.66 Q2312.31 1513.66 2315.36 1518.27 Q2318.44 1522.85 2318.44 1531.6 Q2318.44 1540.33 2315.36 1544.94 Q2312.31 1549.52 2306.5 1549.52 Q2300.68 1549.52 2297.61 1544.94 Q2294.55 1540.33 2294.55 1531.6 Q2294.55 1522.85 2297.61 1518.27 Q2300.68 1513.66 2306.5 1513.66 Z" fill="#000000" fill-rule="nonzero" fill-opacity="1" /><path clip-path="url(#clip150)" d="M2336.66 1517.37 Q2333.05 1517.37 2331.22 1520.93 Q2329.41 1524.47 2329.41 1531.6 Q2329.41 1538.71 2331.22 1542.27 Q2333.05 1545.82 2336.66 1545.82 Q2340.29 1545.82 2342.1 1542.27 Q2343.93 1538.71 2343.93 1531.6 Q2343.93 1524.47 2342.1 1520.93 Q2340.29 1517.37 2336.66 1517.37 M2336.66 1513.66 Q2342.47 1513.66 2345.52 1518.27 Q2348.6 1522.85 2348.6 1531.6 Q2348.6 1540.33 2345.52 1544.94 Q2342.47 1549.52 2336.66 1549.52 Q2330.85 1549.52 2327.77 1544.94 Q2324.71 1540.33 2324.71 1531.6 Q2324.71 1522.85 2327.77 1518.27 Q2330.85 1513.66 2336.66 1513.66 Z" fill="#000000" fill-rule="nonzero" fill-opacity="1" /><polyline clip-path="url(#clip152)" style="stroke:#000000; stroke-linecap:round; stroke-linejoin:round; stroke-width:2; stroke-opacity:0.1; fill:none" points="193.936,1328.62 2352.76,1328.62 "/>
<polyline clip-path="url(#clip152)" style="stroke:#000000; stroke-linecap:round; stroke-linejoin:round; stroke-width:2; stroke-opacity:0.1; fill:none" points="193.936,1019.18 2352.76,1019.18 "/>
<polyline clip-path="url(#clip152)" style="stroke:#000000; stroke-linecap:round; stroke-linejoin:round; stroke-width:2; stroke-opacity:0.1; fill:none" points="193.936,709.739 2352.76,709.739 "/>
<polyline clip-path="url(#clip152)" style="stroke:#000000; stroke-linecap:round; stroke-linejoin:round; stroke-width:2; stroke-opacity:0.1; fill:none" points="193.936,400.298 2352.76,400.298 "/>
<polyline clip-path="url(#clip152)" style="stroke:#000000; stroke-linecap:round; stroke-linejoin:round; stroke-width:2; stroke-opacity:0.1; fill:none" points="193.936,90.857 2352.76,90.857 "/>
<polyline clip-path="url(#clip150)" style="stroke:#000000; stroke-linecap:round; stroke-linejoin:round; stroke-width:4; stroke-opacity:1; fill:none" points="193.936,1486.45 193.936,47.2441 "/>
<polyline clip-path="url(#clip150)" style="stroke:#000000; stroke-linecap:round; stroke-linejoin:round; stroke-width:4; stroke-opacity:1; fill:none" points="193.936,1328.62 212.834,1328.62 "/>
<polyline clip-path="url(#clip150)" style="stroke:#000000; stroke-linecap:round; stroke-linejoin:round; stroke-width:4; stroke-opacity:1; fill:none" points="193.936,1019.18 212.834,1019.18 "/>
<polyline clip-path="url(#clip150)" style="stroke:#000000; stroke-linecap:round; stroke-linejoin:round; stroke-width:4; stroke-opacity:1; fill:none" points="193.936,709.739 212.834,709.739 "/>
<polyline clip-path="url(#clip150)" style="stroke:#000000; stroke-linecap:round; stroke-linejoin:round; stroke-width:4; stroke-opacity:1; fill:none" points="193.936,400.298 212.834,400.298 "/>
<polyline clip-path="url(#clip150)" style="stroke:#000000; stroke-linecap:round; stroke-linejoin:round; stroke-width:4; stroke-opacity:1; fill:none" points="193.936,90.857 212.834,90.857 "/>
<path clip-path="url(#clip150)" d="M50.9921 1329.07 L80.6679 1329.07 L80.6679 1333.01 L50.9921 1333.01 L50.9921 1329.07 Z" fill="#000000" fill-rule="nonzero" fill-opacity="1" /><path clip-path="url(#clip150)" d="M91.5706 1341.97 L99.2095 1341.97 L99.2095 1315.6 L90.8993 1317.27 L90.8993 1313.01 L99.1632 1311.34 L103.839 1311.34 L103.839 1341.97 L111.478 1341.97 L111.478 1345.9 L91.5706 1345.9 L91.5706 1341.97 Z" fill="#000000" fill-rule="nonzero" fill-opacity="1" /><path clip-path="url(#clip150)" d="M120.922 1340.02 L125.807 1340.02 L125.807 1345.9 L120.922 1345.9 L120.922 1340.02 Z" fill="#000000" fill-rule="nonzero" fill-opacity="1" /><path clip-path="url(#clip150)" d="M145.992 1314.42 Q142.381 1314.42 140.552 1317.99 Q138.746 1321.53 138.746 1328.66 Q138.746 1335.76 140.552 1339.33 Q142.381 1342.87 145.992 1342.87 Q149.626 1342.87 151.431 1339.33 Q153.26 1335.76 153.26 1328.66 Q153.26 1321.53 151.431 1317.99 Q149.626 1314.42 145.992 1314.42 M145.992 1310.72 Q151.802 1310.72 154.857 1315.32 Q157.936 1319.91 157.936 1328.66 Q157.936 1337.38 154.857 1341.99 Q151.802 1346.57 145.992 1346.57 Q140.181 1346.57 137.103 1341.99 Q134.047 1337.38 134.047 1328.66 Q134.047 1319.91 137.103 1315.32 Q140.181 1310.72 145.992 1310.72 Z" fill="#000000" fill-rule="nonzero" fill-opacity="1" /><path clip-path="url(#clip150)" d="M51.9875 1019.63 L81.6633 1019.63 L81.6633 1023.57 L51.9875 1023.57 L51.9875 1019.63 Z" fill="#000000" fill-rule="nonzero" fill-opacity="1" /><path clip-path="url(#clip150)" d="M101.756 1004.98 Q98.1447 1004.98 96.316 1008.54 Q94.5104 1012.09 94.5104 1019.22 Q94.5104 1026.32 96.316 1029.89 Q98.1447 1033.43 101.756 1033.43 Q105.39 1033.43 107.196 1029.89 Q109.024 1026.32 109.024 1019.22 Q109.024 1012.09 107.196 1008.54 Q105.39 1004.98 101.756 1004.98 M101.756 1001.28 Q107.566 1001.28 110.621 1005.88 Q113.7 1010.47 113.7 1019.22 Q113.7 1027.94 110.621 1032.55 Q107.566 1037.13 101.756 1037.13 Q95.9456 1037.13 92.8669 1032.55 Q89.8114 1027.94 89.8114 1019.22 Q89.8114 1010.47 92.8669 1005.88 Q95.9456 1001.28 101.756 1001.28 Z" fill="#000000" fill-rule="nonzero" fill-opacity="1" /><path clip-path="url(#clip150)" d="M121.918 1030.58 L126.802 1030.58 L126.802 1036.46 L121.918 1036.46 L121.918 1030.58 Z" fill="#000000" fill-rule="nonzero" fill-opacity="1" /><path clip-path="url(#clip150)" d="M137.033 1001.9 L155.39 1001.9 L155.39 1005.84 L141.316 1005.84 L141.316 1014.31 Q142.334 1013.96 143.353 1013.8 Q144.371 1013.61 145.39 1013.61 Q151.177 1013.61 154.556 1016.78 Q157.936 1019.96 157.936 1025.37 Q157.936 1030.95 154.464 1034.05 Q150.992 1037.13 144.672 1037.13 Q142.496 1037.13 140.228 1036.76 Q137.982 1036.39 135.575 1035.65 L135.575 1030.95 Q137.658 1032.09 139.881 1032.64 Q142.103 1033.2 144.58 1033.2 Q148.584 1033.2 150.922 1031.09 Q153.26 1028.98 153.26 1025.37 Q153.26 1021.76 150.922 1019.65 Q148.584 1017.55 144.58 1017.55 Q142.705 1017.55 140.83 1017.97 Q138.978 1018.38 137.033 1019.26 L137.033 1001.9 Z" fill="#000000" fill-rule="nonzero" fill-opacity="1" /><path clip-path="url(#clip150)" d="M100.76 695.538 Q97.1493 695.538 95.3206 699.103 Q93.515 702.644 93.515 709.774 Q93.515 716.88 95.3206 720.445 Q97.1493 723.987 100.76 723.987 Q104.395 723.987 106.2 720.445 Q108.029 716.88 108.029 709.774 Q108.029 702.644 106.2 699.103 Q104.395 695.538 100.76 695.538 M100.76 691.834 Q106.571 691.834 109.626 696.441 Q112.705 701.024 112.705 709.774 Q112.705 718.501 109.626 723.107 Q106.571 727.691 100.76 727.691 Q94.9502 727.691 91.8715 723.107 Q88.816 718.501 88.816 709.774 Q88.816 701.024 91.8715 696.441 Q94.9502 691.834 100.76 691.834 Z" fill="#000000" fill-rule="nonzero" fill-opacity="1" /><path clip-path="url(#clip150)" d="M120.922 721.14 L125.807 721.14 L125.807 727.019 L120.922 727.019 L120.922 721.14 Z" fill="#000000" fill-rule="nonzero" fill-opacity="1" /><path clip-path="url(#clip150)" d="M145.992 695.538 Q142.381 695.538 140.552 699.103 Q138.746 702.644 138.746 709.774 Q138.746 716.88 140.552 720.445 Q142.381 723.987 145.992 723.987 Q149.626 723.987 151.431 720.445 Q153.26 716.88 153.26 709.774 Q153.26 702.644 151.431 699.103 Q149.626 695.538 145.992 695.538 M145.992 691.834 Q151.802 691.834 154.857 696.441 Q157.936 701.024 157.936 709.774 Q157.936 718.501 154.857 723.107 Q151.802 727.691 145.992 727.691 Q140.181 727.691 137.103 723.107 Q134.047 718.501 134.047 709.774 Q134.047 701.024 137.103 696.441 Q140.181 691.834 145.992 691.834 Z" fill="#000000" fill-rule="nonzero" fill-opacity="1" /><path clip-path="url(#clip150)" d="M101.756 386.097 Q98.1447 386.097 96.316 389.662 Q94.5104 393.203 94.5104 400.333 Q94.5104 407.439 96.316 411.004 Q98.1447 414.546 101.756 414.546 Q105.39 414.546 107.196 411.004 Q109.024 407.439 109.024 400.333 Q109.024 393.203 107.196 389.662 Q105.39 386.097 101.756 386.097 M101.756 382.393 Q107.566 382.393 110.621 387 Q113.7 391.583 113.7 400.333 Q113.7 409.06 110.621 413.666 Q107.566 418.249 101.756 418.249 Q95.9456 418.249 92.8669 413.666 Q89.8114 409.06 89.8114 400.333 Q89.8114 391.583 92.8669 387 Q95.9456 382.393 101.756 382.393 Z" fill="#000000" fill-rule="nonzero" fill-opacity="1" /><path clip-path="url(#clip150)" d="M121.918 411.699 L126.802 411.699 L126.802 417.578 L121.918 417.578 L121.918 411.699 Z" fill="#000000" fill-rule="nonzero" fill-opacity="1" /><path clip-path="url(#clip150)" d="M137.033 383.018 L155.39 383.018 L155.39 386.953 L141.316 386.953 L141.316 395.425 Q142.334 395.078 143.353 394.916 Q144.371 394.731 145.39 394.731 Q151.177 394.731 154.556 397.902 Q157.936 401.074 157.936 406.49 Q157.936 412.069 154.464 415.171 Q150.992 418.249 144.672 418.249 Q142.496 418.249 140.228 417.879 Q137.982 417.509 135.575 416.768 L135.575 412.069 Q137.658 413.203 139.881 413.759 Q142.103 414.314 144.58 414.314 Q148.584 414.314 150.922 412.208 Q153.26 410.101 153.26 406.49 Q153.26 402.879 150.922 400.773 Q148.584 398.666 144.58 398.666 Q142.705 398.666 140.83 399.083 Q138.978 399.5 137.033 400.379 L137.033 383.018 Z" fill="#000000" fill-rule="nonzero" fill-opacity="1" /><path clip-path="url(#clip150)" d="M91.5706 104.202 L99.2095 104.202 L99.2095 77.8362 L90.8993 79.5029 L90.8993 75.2437 L99.1632 73.577 L103.839 73.577 L103.839 104.202 L111.478 104.202 L111.478 108.137 L91.5706 108.137 L91.5706 104.202 Z" fill="#000000" fill-rule="nonzero" fill-opacity="1" /><path clip-path="url(#clip150)" d="M120.922 102.257 L125.807 102.257 L125.807 108.137 L120.922 108.137 L120.922 102.257 Z" fill="#000000" fill-rule="nonzero" fill-opacity="1" /><path clip-path="url(#clip150)" d="M145.992 76.6557 Q142.381 76.6557 140.552 80.2205 Q138.746 83.7621 138.746 90.8917 Q138.746 97.9982 140.552 101.563 Q142.381 105.105 145.992 105.105 Q149.626 105.105 151.431 101.563 Q153.26 97.9982 153.26 90.8917 Q153.26 83.7621 151.431 80.2205 Q149.626 76.6557 145.992 76.6557 M145.992 72.952 Q151.802 72.952 154.857 77.5585 Q157.936 82.1418 157.936 90.8917 Q157.936 99.6185 154.857 104.225 Q151.802 108.808 145.992 108.808 Q140.181 108.808 137.103 104.225 Q134.047 99.6185 134.047 90.8917 Q134.047 82.1418 137.103 77.5585 Q140.181 72.952 145.992 72.952 Z" fill="#000000" fill-rule="nonzero" fill-opacity="1" /><polyline clip-path="url(#clip152)" style="stroke:#009af9; stroke-linecap:round; stroke-linejoin:round; stroke-width:4; stroke-opacity:1; fill:none" points="255.035,90.857 255.413,90.857 259.2,90.857 297.062,90.857 465.367,90.857 732.99,90.857 922.421,90.857 1010.08,90.857 1065.23,90.8569 1105.73,90.856 1142.72,90.8522 1177.51,90.8508 1214.03,90.9823 1244.96,91.826 1275.57,95.4223 1311.25,110.427 1344.2,148.317 1370.97,210.696 1392.43,313.455 1405.81,453.38 1417.99,625.96 1428.36,783.812 1437.24,910.683 1445.21,1015.73 1453.64,1115.66 1464.55,1226.3 1475.16,1312.07 1487.76,1385.23 1502.1,1432.07 1518.7,1445.26 1536.52,1426.03 1554.43,1391.28 1572.16,1357.57 1591.32,1332.1 1610.06,1320.26 1627.18,1318.02 1646.37,1320.5 1664.89,1324.1 1681.49,1326.64 1700.69,1328.29 1719.19,1328.86 1735.44,1328.93 1754.66,1328.82 1773.09,1328.71 1789.12,1328.66 1808.35,1328.63 1826.72,1328.62 1842.62,1328.62 1861.85,1328.62 1880.19,1328.62 1895.98,1328.62 1915.21,1328.62 1933.54,1328.62 1949.23,1328.62 1968.46,1328.62 1986.79,1328.62 2002.48,1328.62 2021.7,1328.62 2040.04,1328.62 2055.78,1328.62 2074.98,1328.62 2093.33,1328.62 2109.12,1328.62 2128.31,1328.62 2146.68,1328.62 2162.5,1328.62 2181.67,1328.62 2200.06,1328.62 2215.91,1328.62 2235.07,1328.62 2253.47,1328.62 2269.35,1328.62 2288.49,1328.62 2291.66,1328.62 "/>
<polyline clip-path="url(#clip152)" style="stroke:#e26f46; stroke-linecap:round; stroke-linejoin:round; stroke-width:4; stroke-opacity:1; fill:none" points="255.035,90.857 255.403,90.857 259.081,90.857 295.87,90.857 424.632,90.857 616.666,90.857 788.465,90.857 868.398,90.857 913.181,90.8569 950.836,90.8561 984.988,90.853 1018.43,90.8506 1053.92,90.9401 1083.89,91.5454 1113.47,94.1687 1147.42,105.064 1181.94,137.487 1209.08,191.512 1233.46,288.874 1247.97,419.911 1261.54,605.205 1270.11,737.402 1277.85,851.926 1285.21,141.371 1296.26,163.912 1307.32,193.963 1319.2,220.973 1331.01,235.017 1344.54,232.811 1360,210.51 1376.92,173.696 1394.5,136.194 1411.13,110.127 1429.03,94.4815 1447.05,88.6532 1462.78,87.9763 1480.95,88.9544 1499.09,89.9996 1514.98,90.5393 1533.43,90.8004 1551.9,90.8654 1568.15,90.8692 1586.69,90.863 1605.29,90.8589 1621.71,90.8575 1640.32,90.8571 1658.99,90.857 1675.45,90.857 1694.12,90.857 1712.82,90.857 1729.26,90.857 1747.99,90.857 1766.69,90.857 1783.09,90.857 1801.87,90.857 1820.56,90.857 1836.89,90.857 1855.73,90.857 1874.39,90.857 1890.67,90.857 1909.55,90.857 1928.18,90.857 1944.4,90.857 1963.33,90.857 1981.94,90.857 1998.11,90.857 2017.07,90.857 2035.65,90.857 2051.78,90.857 2070.77,90.857 2089.32,90.857 2105.42,90.857 2124.43,90.857 2142.97,90.857 2159.03,90.857 2178.06,90.857 2196.58,90.857 2212.62,90.857 2231.67,90.857 2250.17,90.857 2266.19,90.857 2285.26,90.857 2291.66,90.857 "/>
<polyline clip-path="url(#clip152)" style="stroke:#3da44d; stroke-linecap:round; stroke-linejoin:round; stroke-width:4; stroke-opacity:1; fill:none" points="255.035,90.857 255.422,90.857 259.293,90.857 298.008,90.857 510.623,90.857 864.745,90.857 1065.3,90.857 1153.13,90.857 1203.01,90.8569 1242.52,90.8561 1277.7,90.8526 1311.77,90.8507 1347.85,90.9591 1378.24,91.6707 1408.27,94.7252 1443.22,107.565 1477.09,142.881 1504.01,200.978 1517.01,749.428 1523.9,604.245 1530.01,458.703 1535.97,317.781 1543.04,196.3 1549.05,136.106 1555.48,104.277 1560.96,96.4814 1567.02,101.453 1575.96,123.951 1584.27,151.751 1594.75,186.302 1604.87,212.262 1616.15,228.054 1629.6,227.587 1644.89,206.602 1661.59,171.133 1678.7,135.316 1695.07,109.981 1712.83,94.5623 1730.7,88.7614 1746.23,88.0423 1764.31,88.9727 1782.43,90.0008 1798.41,90.539 1816.76,90.798 1835.24,90.8642 1851.6,90.8686 1870.03,90.8628 1888.68,90.8588 1905.2,90.8575 1923.71,90.8571 1942.43,90.857 1958.99,90.857 1977.57,90.857 1996.32,90.857 2012.86,90.857 2031.5,90.857 2050.25,90.857 2066.74,90.857 2085.44,90.857 2104.18,90.857 2120.59,90.857 2139.37,90.857 2158.07,90.857 2174.42,90.857 2193.25,90.857 2211.92,90.857 2228.21,90.857 2247.09,90.857 2265.73,90.857 2281.95,90.857 2291.66,90.857 "/>
<polyline clip-path="url(#clip152)" style="stroke:#c271d2; stroke-linecap:round; stroke-linejoin:round; stroke-width:4; stroke-opacity:1; fill:none" points="255.035,90.857 255.415,90.857 259.218,90.857 297.248,90.857 473.185,90.857 755.641,90.857 945.777,90.857 1035.38,90.857 1091.17,90.8569 1131.86,90.856 1168.92,90.8521 1203.82,90.851 1240.38,90.9879 1271.35,91.8587 1302.03,95.5609 1337.94,111.062 1370.73,149.55 1397.45,212.876 1418.79,317.592 1432.05,459.075 1444.1,630.783 1454.5,788.91 1462.66,905.585 1470.22,1005.75 1478.28,1102.58 1488.91,1212.86 1499.33,1300.21 1511.44,1374.98 1525.42,1426.45 1541.62,1445.51 1559.19,1431 1577.27,1397.31 1594.53,1363.51 1613.53,1335.82 1632.52,1321.54 1648.98,1318.02 1667.92,1319.73 1686.79,1323.38 1702.99,1326.08 1721.87,1328.01 1740.76,1328.79 1757.11,1328.93 1775.95,1328.85 1794.78,1328.74 1811.15,1328.67 1830,1328.63 1848.77,1328.62 1865.11,1328.62 1883.97,1328.62 1902.69,1328.62 1918.98,1328.62 1937.87,1328.62 1956.54,1328.62 1972.79,1328.62 1991.71,1328.62 2010.34,1328.62 2026.54,1328.62 2045.49,1328.62 2064.09,1328.62 2080.24,1328.62 2099.22,1328.62 2117.79,1328.62 2133.9,1328.62 2152.91,1328.62 2171.45,1328.62 2187.53,1328.62 2206.56,1328.62 2225.09,1328.62 2241.13,1328.62 2260.18,1328.62 2278.69,1328.62 2291.66,1328.62 "/>
<polyline clip-path="url(#clip152)" style="stroke:#ac8d18; stroke-linecap:round; stroke-linejoin:round; stroke-width:4; stroke-opacity:1; fill:none" points="255.035,90.857 255.414,90.857 259.208,90.857 297.145,90.857 468.772,90.857 742.847,90.857 932.572,90.857 1021.16,90.857 1076.61,90.8569 1117.2,90.856 1154.22,90.8522 1189.06,90.8509 1225.61,90.9844 1256.56,91.8388 1287.2,95.477 1322.97,110.679 1355.87,148.816 1382.61,211.58 1404.03,315.139 1417.36,455.712 1429.48,627.924 1439.86,785.883 1447.93,901.397 1455.44,1001.39 1463.47,1098.39 1474.05,1208.86 1484.44,1296.84 1496.48,1372.34 1510.36,1424.94 1526.49,1445.47 1544,1432.15 1562.11,1398.79 1579.25,1365.02 1598.21,1336.8 1617.25,1321.9 1633.56,1318.06 1652.44,1319.55 1671.37,1323.19 1687.74,1325.97 1706.52,1327.95 1725.47,1328.77 1741.98,1328.93 1760.71,1328.86 1779.6,1328.74 1796.12,1328.67 1814.86,1328.63 1833.69,1328.62 1850.16,1328.62 1868.93,1328.62 1887.71,1328.62 1904.11,1328.62 1922.92,1328.62 1941.65,1328.62 1957.98,1328.62 1976.84,1328.62 1995.52,1328.62 2011.79,1328.62 2030.69,1328.62 2049.33,1328.62 2065.55,1328.62 2084.48,1328.62 2103.09,1328.62 2119.26,1328.62 2138.23,1328.62 2156.8,1328.62 2172.93,1328.62 2191.92,1328.62 2210.48,1328.62 2226.57,1328.62 2245.59,1328.62 2264.12,1328.62 2280.18,1328.62 2291.66,1328.62 "/>
<polyline clip-path="url(#clip152)" style="stroke:#00a9ad; stroke-linecap:round; stroke-linejoin:round; stroke-width:4; stroke-opacity:1; fill:none" points="255.035,90.857 255.407,90.857 259.126,90.857 296.318,90.857 438.232,90.857 655.106,90.857 837.095,90.857 923.465,90.857 969.67,90.8569 1008.01,90.8561 1042.34,90.8528 1075.99,90.8509 1111.61,90.951 1141.69,91.6101 1171.42,94.4423 1206.01,106.374 1240.21,140.394 1267.19,196.513 1291.5,300.137 1305.55,437.252 1318.55,618.285 1327.55,756.252 1335.48,871.912 1342.92,973.669 1351.02,1074.6 1361.56,1188.94 1371.95,1281.29 1383.81,1360.87 1397.33,1418.28 1413.12,1445.05 1430.44,1436.88 1448.63,1405.23 1465.24,1371.76 1484.03,1341.33 1503.19,1323.7 1520.23,1318.22 1538.77,1318.99 1557.88,1322.56 1574.86,1325.6 1593.24,1327.73 1612.38,1328.71 1629.39,1328.93 1647.73,1328.87 1666.82,1328.75 1683.77,1328.68 1702.13,1328.63 1721.15,1328.62 1738,1328.62 1756.43,1328.62 1775.39,1328.62 1792.13,1328.62 1810.64,1328.62 1829.54,1328.62 1846.18,1328.62 1864.78,1328.62 1883.62,1328.62 1900.16,1328.62 1918.84,1328.62 1937.62,1328.62 1954.08,1328.62 1972.83,1328.62 1991.57,1328.62 2007.95,1328.62 2026.76,1328.62 2045.45,1328.62 2061.76,1328.62 2080.63,1328.62 2099.28,1328.62 2115.53,1328.62 2134.44,1328.62 2153.06,1328.62 2169.25,1328.62 2188.2,1328.62 2206.79,1328.62 2222.94,1328.62 2241.92,1328.62 2260.48,1328.62 2276.59,1328.62 2291.66,1328.62 "/>
<polyline clip-path="url(#clip152)" style="stroke:#ed5d92; stroke-linecap:round; stroke-linejoin:round; stroke-width:4; stroke-opacity:1; fill:none" points="255.035,90.857 255.411,90.857 259.179,90.857 296.857,90.857 457.229,90.857 709.495,90.857 898.053,90.857 983.071,90.857 1037.38,90.8569 1077.61,90.856 1114.53,90.8523 1149.19,90.8508 1185.58,90.9785 1216.45,91.8018 1246.98,95.3162 1282.47,109.934 1315.51,147.283 1342.3,208.839 1363.86,309.895 1377.36,448.382 1389.67,621.797 1398.93,763.204 1407.12,882.085 1414.67,984.178 1422.81,1084.39 1433.51,1198.49 1443.98,1289.37 1455.98,1367.12 1469.72,1422.05 1485.71,1445.41 1503.16,1434.33 1521.34,1401.58 1538.28,1367.83 1557.18,1338.62 1576.3,1322.59 1592.95,1318.1 1611.69,1319.32 1630.72,1322.94 1647.35,1325.83 1665.98,1327.87 1685.02,1328.75 1701.73,1328.93 1720.32,1328.86 1739.29,1328.74 1755.98,1328.67 1774.58,1328.63 1793.49,1328.62 1810.1,1328.62 1828.76,1328.62 1847.6,1328.62 1864.13,1328.62 1882.84,1328.62 1901.63,1328.62 1918.07,1328.62 1936.84,1328.62 1955.58,1328.62 1971.95,1328.62 1990.77,1328.62 2009.46,1328.62 2025.76,1328.62 2044.64,1328.62 2063.29,1328.62 2079.53,1328.62 2098.45,1328.62 2117.06,1328.62 2133.24,1328.62 2152.2,1328.62 2170.79,1328.62 2186.93,1328.62 2205.91,1328.62 2224.47,1328.62 2240.57,1328.62 2259.59,1328.62 2278.12,1328.62 2291.66,1328.62 "/>
<polyline clip-path="url(#clip152)" style="stroke:#c68125; stroke-linecap:round; stroke-linejoin:round; stroke-width:4; stroke-opacity:1; fill:none" points="255.035,90.857 255.418,90.857 259.247,90.857 297.537,90.857 486.345,90.857 793.903,90.857 986.023,90.857 1077.15,90.857 1127.78,90.8569 1167.63,90.8563 1202.87,90.8535 1236.8,90.8496 1273.88,90.9242 1304.57,91.4849 1334.42,93.9761 1368.09,104.24 1403.87,137.048 1431.32,191.465 1455.95,290.303 1470.4,422.566 1483.92,607.689 1492.57,741.02 1500.34,855.784 1507.71,958.072 1515.79,1060.58 1526.24,1176.48 1536.56,1271.02 1548.27,1353.03 1561.54,1413.44 1577.1,1444.32 1594.25,1439.8 1612.43,1409.71 1628.87,1376.29 1647.49,1344.6 1666.67,1325.14 1684.12,1318.42 1702.39,1318.63 1721.58,1322.09 1738.93,1325.3 1756.99,1327.54 1776.22,1328.65 1793.57,1328.93 1811.57,1328.89 1830.76,1328.77 1848.02,1328.68 1866.05,1328.64 1885.19,1328.62 1902.33,1328.62 1920.43,1328.62 1939.52,1328.62 1956.54,1328.62 1974.75,1328.62 1993.77,1328.62 2010.68,1328.62 2029,1328.62 2047.97,1328.62 2064.77,1328.62 2083.19,1328.62 2102.11,1328.62 2118.81,1328.62 2137.33,1328.62 2156.19,1328.62 2172.8,1328.62 2191.41,1328.62 2210.22,1328.62 2226.74,1328.62 2245.44,1328.62 2264.2,1328.62 2280.63,1328.62 2291.66,1328.62 "/>
<polyline clip-path="url(#clip152)" style="stroke:#00a98d; stroke-linecap:round; stroke-linejoin:round; stroke-width:4; stroke-opacity:1; fill:none" points="255.035,90.857 255.402,90.857 259.074,90.857 295.798,90.857 422.6,90.857 610.969,90.857 780.795,90.857 859.717,90.857 904.274,90.8569 941.815,90.8561 975.931,90.853 1009.34,90.8505 1044.81,90.9382 1074.76,91.5341 1104.31,94.1211 1138.16,104.842 1172.74,136.99 1199.91,190.663 1224.31,287.014 1233.44,454.404 1239.77,307.121 1245.39,212.531 1250.72,154.195 1256.08,120.327 1261.46,105.346 1267.23,104.061 1276.12,120.441 1284.06,144.376 1294.08,176.937 1304.68,205.884 1315.28,223.947 1328.13,228.66 1342.97,213.465 1359.25,181.457 1376.68,144.015 1392.34,116.996 1409.79,98.2757 1427.85,89.8564 1444.12,88.067 1461.59,88.66 1479.94,89.7582 1496.75,90.4306 1514.31,90.7531 1533.06,90.8562 1550.19,90.869 1567.77,90.8643 1586.71,90.8595 1603.96,90.8577 1621.6,90.8571 1640.63,90.857 1657.9,90.857 1675.63,90.857 1694.69,90.857 1711.92,90.857 1729.76,90.857 1748.83,90.857 1765.99,90.857 1783.95,90.857 1803,90.857 1820.07,90.857 1838.15,90.857 1857.18,90.857 1874.15,90.857 1892.36,90.857 1911.34,90.857 1928.22,90.857 1946.55,90.857 1965.49,90.857 1982.27,90.857 2000.7,90.857 2019.6,90.857 2036.28,90.857 2054.81,90.857 2073.66,90.857 2090.25,90.857 2108.88,90.857 2127.68,90.857 2144.18,90.857 2162.89,90.857 2181.64,90.857 2198.06,90.857 2216.84,90.857 2235.55,90.857 2251.89,90.857 2270.73,90.857 2289.4,90.857 2291.66,90.857 "/>
<polyline clip-path="url(#clip152)" style="stroke:#8e971d; stroke-linecap:round; stroke-linejoin:round; stroke-width:4; stroke-opacity:1; fill:none" points="255.035,90.857 255.409,90.857 259.157,90.857 296.631,90.857 448.881,90.857 685.512,90.857 872.19,90.857 963.218,90.857 1010.43,90.8568 1049.21,90.856 1083.63,90.8527 1117.41,90.8512 1153.12,90.9572 1183.27,91.6474 1213.09,94.6001 1248.09,107.161 1282.13,142.151 1309.03,199.564 1333.31,307.292 1347.14,448.118 1359.86,627.394 1369.15,769.212 1377.34,133.76 1388.79,149.504 1400.12,179.763 1413.71,213.584 1425.35,230.489 1438.73,232.116 1454,213.559 1470.9,178.546 1488.78,140.137 1505.18,113.181 1523.05,96.0294 1541.26,89.1 1557.08,88.004 1575.05,88.8329 1593.36,89.9077 1609.68,90.4996 1627.83,90.7842 1646.47,90.8625 1663.09,90.8692 1681.31,90.8634 1700.08,90.8591 1716.83,90.8575 1735.13,90.8571 1753.96,90.857 1770.73,90.857 1789.11,90.857 1807.96,90.857 1824.68,90.857 1843.15,90.857 1861.99,90.857 1878.65,90.857 1897.2,90.857 1916.02,90.857 1932.6,90.857 1951.23,90.857 1970.02,90.857 1986.51,90.857 2005.22,90.857 2023.97,90.857 2040.38,90.857 2059.16,90.857 2077.87,90.857 2094.21,90.857 2113.05,90.857 2131.72,90.857 2147.99,90.857 2166.88,90.857 2185.52,90.857 2201.73,90.857 2220.67,90.857 2239.27,90.857 2255.43,90.857 2274.4,90.857 2291.66,90.857 "/>
<polyline clip-path="url(#clip152)" style="stroke:#00a8cb; stroke-linecap:round; stroke-linejoin:round; stroke-width:4; stroke-opacity:1; fill:none" points="255.035,90.857 255.416,90.857 259.234,90.857 297.411,90.857 480.428,90.857 776.682,90.857 967.723,90.857 1058.46,90.857 1108.98,90.8569 1148.8,90.8563 1184.05,90.8536 1217.94,90.8495 1255.08,90.9202 1285.81,91.4622 1315.63,93.8818 1349.14,103.829 1385.17,136.267 1412.69,190.188 1437.36,287.629 1451.94,418.459 1465.61,604.887 1474.17,737.06 1481.93,851.867 1489.3,954.434 1497.38,1057.45 1507.81,1173.78 1518.12,1268.85 1529.81,1351.46 1543.03,1412.46 1558.55,1444.17 1575.66,1440.4 1593.84,1410.65 1610.37,1376.99 1628.95,1345.11 1648.15,1325.35 1665.66,1318.45 1683.9,1318.57 1703.1,1322.02 1720.5,1325.26 1738.52,1327.52 1757.76,1328.65 1775.16,1328.93 1793.11,1328.89 1812.31,1328.77 1829.61,1328.68 1847.59,1328.64 1866.75,1328.62 1883.93,1328.62 1901.99,1328.62 1921.08,1328.62 1938.15,1328.62 1956.31,1328.62 1975.35,1328.62 1992.3,1328.62 2010.57,1328.62 2029.55,1328.62 2046.4,1328.62 2064.78,1328.62 2083.71,1328.62 2100.45,1328.62 2118.93,1328.62 2137.81,1328.62 2154.45,1328.62 2173.03,1328.62 2191.86,1328.62 2208.41,1328.62 2227.08,1328.62 2245.86,1328.62 2262.32,1328.62 2281.06,1328.62 2291.66,1328.62 "/>
<polyline clip-path="url(#clip152)" style="stroke:#9b7fe8; stroke-linecap:round; stroke-linejoin:round; stroke-width:4; stroke-opacity:1; fill:none" points="255.035,90.857 255.425,90.857 259.332,90.857 298.404,90.857 534.301,90.857 933.88,90.857 1146.53,90.857 1226.69,90.857 1274.42,90.8568 1313.15,90.8554 1348.49,90.851 1383.06,90.858 1417.14,91.0566 1447.19,92.1485 1477.83,96.6274 1515.77,116.385 1546.63,158.054 1572.72,226.993 1593.13,343.42 1605.71,492.004 1617.12,659.974 1627.43,814.996 1638.14,963.831 1647.1,1075.73 1655.99,1173.04 1667.92,1280.71 1680.05,1361.72 1693.78,1419.08 1709.62,1444.79 1727.32,1435.38 1745.62,1403.04 1762.52,1369.29 1781.47,1339.56 1800.66,1322.97 1817.5,1318.18 1836.22,1319.26 1855.3,1322.87 1872.05,1325.79 1890.63,1327.84 1909.71,1328.74 1926.5,1328.93 1945.04,1328.86 1964.05,1328.75 1980.8,1328.67 1999.35,1328.63 2018.3,1328.62 2034.96,1328.62 2053.56,1328.62 2072.44,1328.62 2089.01,1328.62 2107.68,1328.62 2126.49,1328.62 2142.98,1328.62 2161.71,1328.62 2180.47,1328.62 2196.87,1328.62 2215.67,1328.62 2234.38,1328.62 2250.71,1328.62 2269.56,1328.62 2288.23,1328.62 2291.66,1328.62 "/>
<polyline clip-path="url(#clip152)" style="stroke:#608cf6; stroke-linecap:round; stroke-linejoin:round; stroke-width:4; stroke-opacity:1; fill:none" points="255.035,90.857 255.411,90.857 259.175,90.857 296.814,90.857 455.585,90.857 704.765,90.857 893.084,90.857 986.882,90.857 1034.69,90.8568 1073.7,90.856 1108.16,90.8526 1142.01,90.8512 1177.8,90.9599 1207.99,91.6643 1237.85,94.6723 1273.04,107.533 1307.03,143.002 1333.9,201.054 1358.16,310.884 1365.75,418.688 1371.82,283.459 1376.97,203.624 1381.84,153.008 1386.76,122.573 1392.42,106.913 1398.43,106.178 1408.17,125.485 1416.22,150.235 1426.4,182.688 1436.9,209.797 1447.87,226.176 1461.08,227.799 1476.19,209.276 1492.71,175.371 1510.05,1376.93 1523.17,1357.99 1537.9,1340.77 1551.69,1330.08 1565.06,1324.5 1581.03,1322.44 1598.91,1323.45 1616.87,1325.52 1632.87,1327.11 1650.96,1328.21 1669.43,1328.67 1686.01,1328.77 1704.24,1328.74 1723,1328.68 1739.8,1328.65 1758.09,1328.63 1776.96,1328.62 1793.79,1328.62 1812.15,1328.62 1831.05,1328.62 1847.84,1328.62 1866.27,1328.62 1885.15,1328.62 1901.86,1328.62 1920.38,1328.62 1939.23,1328.62 1955.86,1328.62 1974.46,1328.62 1993.27,1328.62 2009.81,1328.62 2028.49,1328.62 2047.26,1328.62 2063.71,1328.62 2082.46,1328.62 2101.19,1328.62 2117.57,1328.62 2136.38,1328.62 2155.07,1328.62 2171.37,1328.62 2190.24,1328.62 2208.89,1328.62 2225.14,1328.62 2244.05,1328.62 2262.67,1328.62 2278.86,1328.62 2291.66,1328.62 "/>
<polyline clip-path="url(#clip152)" style="stroke:#f05f73; stroke-linecap:round; stroke-linejoin:round; stroke-width:4; stroke-opacity:1; fill:none" points="255.035,90.857 255.409,90.857 259.154,90.857 296.6,90.857 447.793,90.857 682.394,90.857 868.706,90.857 959.275,90.857 1006.39,90.8568 1045.12,90.856 1079.54,90.8527 1113.31,90.8511 1149.01,90.9567 1179.16,91.644 1208.97,94.5858 1243.93,107.089 1277.98,141.99 1304.89,199.282 1329.17,306.622 1343.01,447.106 1355.76,626.52 1365.02,767.984 1373.19,886.174 1380.75,988.312 1388.93,1088.48 1399.6,1201.68 1410.08,1292 1422.15,1369.34 1435.95,1423.36 1452,1445.61 1469.49,1433.56 1487.65,1400.48 1504.69,1366.65 1523.63,1337.82 1542.72,1322.26 1559.23,1318.06 1578.03,1319.41 1597.02,1323.04 1613.54,1325.89 1632.24,1327.9 1651.24,1328.76 1667.86,1328.93 1686.52,1328.86 1705.45,1328.74 1722.06,1328.67 1740.73,1328.63 1759.61,1328.62 1776.15,1328.62 1794.86,1328.62 1813.67,1328.62 1830.14,1328.62 1848.9,1328.62 1867.66,1328.62 1884.05,1328.62 1902.86,1328.62 1921.57,1328.62 1937.89,1328.62 1956.75,1328.62 1975.42,1328.62 1991.68,1328.62 2010.58,1328.62 2029.21,1328.62 2045.41,1328.62 2064.36,1328.62 2082.96,1328.62 2099.11,1328.62 2118.09,1328.62 2136.66,1328.62 2152.77,1328.62 2171.77,1328.62 2190.32,1328.62 2206.4,1328.62 2225.43,1328.62 2243.95,1328.62 2260,1328.62 2279.05,1328.62 2291.66,1328.62 "/>
<polyline clip-path="url(#clip152)" style="stroke:#dd64b5; stroke-linecap:round; stroke-linejoin:round; stroke-width:4; stroke-opacity:1; fill:none" points="255.035,90.857 255.414,90.857 259.211,90.857 297.173,90.857 469.983,90.857 746.355,90.857 936.188,90.857 1025.07,90.857 1080.62,90.8569 1121.25,90.856 1158.28,90.8522 1193.13,90.8509 1229.69,90.9853 1260.65,91.8438 1291.29,95.4984 1327.1,110.777 1359.97,149.006 1386.72,211.917 1408.11,315.777 1421.42,456.592 1433.53,628.669 1445.25,127.723 1457.59,133.911 1470.63,168.266 1485.44,207.971 1497.92,227.887 1511.76,230.335 1527.32,211.569 1544.64,175.788 1562.83,137.362 1579.6,110.943 1597.72,94.8735 1615.99,88.8182 1631.67,88.0678 1649.89,88.9907 1668.17,90.015 1684.18,90.5457 1702.62,90.8005 1721.16,90.8646 1737.49,90.8685 1756,90.8627 1774.65,90.8588 1791.12,90.8575 1809.7,90.8571 1828.41,90.857 1844.9,90.857 1863.54,90.857 1882.27,90.857 1898.73,90.857 1917.44,90.857 1936.16,90.857 1952.58,90.857 1971.34,90.857 1990.04,90.857 2006.4,90.857 2025.22,90.857 2043.89,90.857 2060.18,90.857 2079.06,90.857 2097.7,90.857 2113.93,90.857 2132.85,90.857 2151.46,90.857 2167.65,90.857 2186.6,90.857 2205.19,90.857 2221.32,90.857 2240.31,90.857 2258.87,90.857 2274.97,90.857 2291.66,90.857 "/>
<polyline clip-path="url(#clip152)" style="stroke:#6b9e32; stroke-linecap:round; stroke-linejoin:round; stroke-width:4; stroke-opacity:1; fill:none" points="255.035,90.857 255.414,90.857 259.209,90.857 297.158,90.857 469.316,90.857 744.421,90.857 934.194,90.857 1022.92,90.857 1078.41,90.8569 1119.02,90.856 1156.04,90.8522 1190.89,90.8509 1227.44,90.9848 1258.4,91.841 1289.04,95.4864 1324.83,110.722 1357.71,148.9 1384.46,211.73 1405.86,315.423 1419.18,456.103 1431.3,628.255 1441.68,786.232 1449.76,901.875 1457.27,1001.89 1465.31,1098.87 1475.89,1209.31 1486.28,1297.22 1498.33,1372.64 1512.23,1425.11 1528.36,1445.48 1545.88,1432.03 1563.99,1398.62 1581.14,1364.85 1600.11,1336.68 1619.14,1321.86 1635.43,1318.06 1654.31,1319.57 1673.24,1323.2 1689.59,1325.98 1708.38,1327.95 1727.33,1328.78 1743.82,1328.93 1762.57,1328.86 1781.45,1328.74 1797.96,1328.67 1816.7,1328.63 1835.53,1328.62 1851.99,1328.62 1870.77,1328.62 1889.54,1328.62 1905.94,1328.62 1924.75,1328.62 1943.47,1328.62 1959.8,1328.62 1978.66,1328.62 1997.34,1328.62 2013.61,1328.62 2032.51,1328.62 2051.15,1328.62 2067.36,1328.62 2086.3,1328.62 2104.9,1328.62 2121.07,1328.62 2140.04,1328.62 2158.61,1328.62 2174.73,1328.62 2193.73,1328.62 2212.29,1328.62 2228.37,1328.62 2247.39,1328.62 2265.92,1328.62 2281.98,1328.62 2291.66,1328.62 "/>
<polyline clip-path="url(#clip152)" style="stroke:#009af9; stroke-linecap:round; stroke-linejoin:round; stroke-width:4; stroke-opacity:1; fill:none" points="255.035,90.857 255.411,90.857 259.173,90.857 296.796,90.857 454.923,90.857 702.86,90.857 891.075,90.857 984.6,90.857 1032.35,90.8568 1071.33,90.856 1105.79,90.8526 1139.64,90.8512 1175.41,90.9598 1205.6,91.6631 1235.46,94.6671 1270.64,107.506 1304.62,142.936 1331.49,200.937 1355.76,310.596 1369.5,453.086 1382.11,631.754 1391.53,775.338 1399.91,895.957 1407.58,998.633 1415.83,1098.46 1426.61,1210.9 1437.16,1299.72 1449.4,1375.41 1463.4,1426.84 1479.64,1445.72 1497.26,1430.92 1515.35,1397.03 1532.67,1363.13 1551.7,1335.52 1570.69,1321.4 1587.22,1317.99 1606.2,1319.78 1625.05,1323.43 1641.18,1326.12 1660.1,1328.03 1678.97,1328.8 1695.25,1328.93 1714.14,1328.85 1732.94,1328.73 1749.26,1328.67 1768.14,1328.63 1786.89,1328.62 1803.19,1328.62 1822.08,1328.62 1840.78,1328.62 1857.03,1328.62 1875.95,1328.62 1894.6,1328.62 1910.81,1328.62 1929.75,1328.62 1948.37,1328.62 1964.53,1328.62 1983.51,1328.62 2002.09,1328.62 2018.21,1328.62 2037.21,1328.62 2055.77,1328.62 2071.86,1328.62 2090.88,1328.62 2109.42,1328.62 2125.48,1328.62 2144.51,1328.62 2163.03,1328.62 2179.07,1328.62 2198.12,1328.62 2216.63,1328.62 2232.64,1328.62 2251.71,1328.62 2270.2,1328.62 2286.2,1328.62 2291.66,1328.62 "/>
<polyline clip-path="url(#clip152)" style="stroke:#e26f46; stroke-linecap:round; stroke-linejoin:round; stroke-width:4; stroke-opacity:1; fill:none" points="255.035,90.857 255.417,90.857 259.237,90.857 297.445,90.857 481.988,90.857 781.219,90.857 972.511,90.857 1063.4,90.857 1113.96,90.8569 1153.79,90.8563 1189.04,90.8535 1222.94,90.8496 1260.07,90.9211 1290.8,91.4675 1320.62,93.9041 1354.17,103.927 1390.14,136.457 1417.64,190.499 1442.31,288.282 1456.86,419.463 1470.49,605.562 1479.07,738.009 1486.83,852.797 1494.2,955.291 1502.28,1058.18 1512.71,1174.41 1523.02,1269.35 1534.72,1351.81 1547.95,1412.68 1563.48,1444.21 1580.6,1440.27 1598.78,1410.43 1615.28,1376.83 1633.88,1344.99 1653.07,1325.3 1670.57,1318.44 1688.81,1318.58 1708.01,1322.04 1725.4,1325.27 1743.43,1327.52 1762.67,1328.65 1780.06,1328.93 1798.02,1328.89 1817.22,1328.77 1834.51,1328.68 1852.5,1328.64 1871.65,1328.62 1888.83,1328.62 1906.89,1328.62 1925.99,1328.62 1943.04,1328.62 1961.21,1328.62 1980.25,1328.62 1997.19,1328.62 2015.47,1328.62 2034.45,1328.62 2051.29,1328.62 2069.68,1328.62 2088.61,1328.62 2105.34,1328.62 2123.83,1328.62 2142.71,1328.62 2159.34,1328.62 2177.93,1328.62 2196.75,1328.62 2213.29,1328.62 2231.97,1328.62 2250.74,1328.62 2267.19,1328.62 2285.94,1328.62 2291.66,1328.62 "/>
<polyline clip-path="url(#clip152)" style="stroke:#3da44d; stroke-linecap:round; stroke-linejoin:round; stroke-width:4; stroke-opacity:1; fill:none" points="255.035,90.857 255.41,90.857 259.165,90.857 296.713,90.857 451.853,90.857 694.037,90.857 881.603,90.857 973.859,90.857 1021.33,90.8568 1060.21,90.856 1094.65,90.8527 1128.47,90.8512 1164.21,90.9587 1194.38,91.6563 1224.22,94.6377 1259.31,107.353 1293.32,142.578 1320.2,200.308 1344.47,309.069 1358.25,450.793 1370.91,629.725 1380.27,772.485 1388.56,892.093 1396.19,994.538 1404.41,1094.49 1415.14,1207.23 1425.66,1296.66 1437.84,1373 1451.75,1425.48 1467.92,1445.71 1485.49,1431.99 1503.61,1398.4 1520.82,1364.51 1539.82,1336.4 1558.85,1321.73 1575.21,1318.01 1594.13,1319.6 1613.04,1323.25 1629.34,1326.01 1648.17,1327.97 1667.09,1328.78 1683.53,1328.93 1702.32,1328.86 1721.18,1328.74 1737.64,1328.67 1756.42,1328.63 1775.23,1328.62 1791.64,1328.62 1810.45,1328.62 1829.21,1328.62 1845.56,1328.62 1864.41,1328.62 1883.11,1328.62 1899.4,1328.62 1918.29,1328.62 1936.95,1328.62 1953.18,1328.62 1972.11,1328.62 1990.73,1328.62 2006.91,1328.62 2025.87,1328.62 2044.46,1328.62 2060.6,1328.62 2079.59,1328.62 2098.15,1328.62 2114.25,1328.62 2133.27,1328.62 2151.81,1328.62 2167.88,1328.62 2186.91,1328.62 2205.43,1328.62 2221.48,1328.62 2240.52,1328.62 2259.03,1328.62 2275.05,1328.62 2291.66,1328.62 "/>
<polyline clip-path="url(#clip152)" style="stroke:#c271d2; stroke-linecap:round; stroke-linejoin:round; stroke-width:4; stroke-opacity:1; fill:none" points="255.035,90.857 255.415,90.857 259.213,90.857 297.199,90.857 471.074,90.857 749.519,90.857 939.452,90.857 1028.6,90.857 1084.23,90.8569 1124.88,90.856 1161.92,90.8522 1196.79,90.851 1233.35,90.9861 1264.32,91.8486 1294.97,95.5187 1330.81,110.869 1363.66,149.184 1390.39,212.232 1411.77,316.374 1425.06,457.41 1437.15,629.364 1447.54,787.403 1455.65,903.488 1463.18,1003.57 1471.23,1100.48 1481.83,1210.85 1492.24,1298.52 1504.31,1373.65 1518.24,1425.69 1534.41,1445.49 1551.95,1431.59 1570.05,1398.05 1587.24,1364.27 1606.23,1336.3 1625.24,1321.72 1641.61,1318.04 1660.52,1319.64 1679.42,1323.28 1695.71,1326.03 1714.54,1327.98 1733.46,1328.78 1749.89,1328.93 1768.68,1328.85 1787.54,1328.74 1803.99,1328.67 1822.78,1328.63 1841.58,1328.62 1857.99,1328.62 1876.8,1328.62 1895.55,1328.62 1911.9,1328.62 1930.75,1328.62 1949.45,1328.62 1965.74,1328.62 1984.63,1328.62 2003.29,1328.62 2019.52,1328.62 2038.45,1328.62 2057.07,1328.62 2073.25,1328.62 2092.21,1328.62 2110.8,1328.62 2126.94,1328.62 2145.92,1328.62 2164.49,1328.62 2180.59,1328.62 2199.6,1328.62 2218.14,1328.62 2234.21,1328.62 2253.24,1328.62 2271.76,1328.62 2287.8,1328.62 2291.66,1328.62 "/>
</svg>
