<?xml version="1.0" encoding="utf-8"?>
<svg xmlns="http://www.w3.org/2000/svg" xmlns:xlink="http://www.w3.org/1999/xlink" width="600" height="400" viewBox="0 0 2400 1600">
<defs>
  <clipPath id="clip210">
    <rect x="0" y="0" width="2400" height="1600"/>
  </clipPath>
</defs>
<path clip-path="url(#clip210)" d="M0 1600 L2400 1600 L2400 0 L0 0  Z" fill="#ffffff" fill-rule="evenodd" fill-opacity="1"/>
<defs>
  <clipPath id="clip211">
    <rect x="480" y="0" width="1681" height="1600"/>
  </clipPath>
</defs>
<path clip-path="url(#clip210)" d="M249.542 1423.18 L2352.76 1423.18 L2352.76 47.2441 L249.542 47.2441  Z" fill="#ffffff" fill-rule="evenodd" fill-opacity="1"/>
<defs>
  <clipPath id="clip212">
    <rect x="249" y="47" width="2104" height="1377"/>
  </clipPath>
</defs>
<polyline clip-path="url(#clip212)" style="stroke:#000000; stroke-linecap:round; stroke-linejoin:round; stroke-width:2; stroke-opacity:0.1; fill:none" points="309.067,1423.18 309.067,47.2441 "/>
<polyline clip-path="url(#clip212)" style="stroke:#000000; stroke-linecap:round; stroke-linejoin:round; stroke-width:2; stroke-opacity:0.1; fill:none" points="970.455,1423.18 970.455,47.2441 "/>
<polyline clip-path="url(#clip212)" style="stroke:#000000; stroke-linecap:round; stroke-linejoin:round; stroke-width:2; stroke-opacity:0.1; fill:none" points="1631.84,1423.18 1631.84,47.2441 "/>
<polyline clip-path="url(#clip212)" style="stroke:#000000; stroke-linecap:round; stroke-linejoin:round; stroke-width:2; stroke-opacity:0.1; fill:none" points="2293.23,1423.18 2293.23,47.2441 "/>
<polyline clip-path="url(#clip210)" style="stroke:#000000; stroke-linecap:round; stroke-linejoin:round; stroke-width:4; stroke-opacity:1; fill:none" points="249.542,1423.18 2352.76,1423.18 "/>
<polyline clip-path="url(#clip210)" style="stroke:#000000; stroke-linecap:round; stroke-linejoin:round; stroke-width:4; stroke-opacity:1; fill:none" points="309.067,1423.18 309.067,1404.28 "/>
<polyline clip-path="url(#clip210)" style="stroke:#000000; stroke-linecap:round; stroke-linejoin:round; stroke-width:4; stroke-opacity:1; fill:none" points="970.455,1423.18 970.455,1404.28 "/>
<polyline clip-path="url(#clip210)" style="stroke:#000000; stroke-linecap:round; stroke-linejoin:round; stroke-width:4; stroke-opacity:1; fill:none" points="1631.84,1423.18 1631.84,1404.28 "/>
<polyline clip-path="url(#clip210)" style="stroke:#000000; stroke-linecap:round; stroke-linejoin:round; stroke-width:4; stroke-opacity:1; fill:none" points="2293.23,1423.18 2293.23,1404.28 "/>
<path clip-path="url(#clip210)" d="M309.067 1454.1 Q305.456 1454.1 303.627 1457.66 Q301.822 1461.2 301.822 1468.33 Q301.822 1475.44 303.627 1479.01 Q305.456 1482.55 309.067 1482.55 Q312.701 1482.55 314.507 1479.01 Q316.335 1475.44 316.335 1468.33 Q316.335 1461.2 314.507 1457.66 Q312.701 1454.1 309.067 1454.1 M309.067 1450.39 Q314.877 1450.39 317.933 1455 Q321.011 1459.58 321.011 1468.33 Q321.011 1477.06 317.933 1481.67 Q314.877 1486.25 309.067 1486.25 Q303.257 1486.25 300.178 1481.67 Q297.123 1477.06 297.123 1468.33 Q297.123 1459.58 300.178 1455 Q303.257 1450.39 309.067 1450.39 Z" fill="#000000" fill-rule="nonzero" fill-opacity="1" /><path clip-path="url(#clip210)" d="M914.981 1481.64 L922.62 1481.64 L922.62 1455.28 L914.309 1456.95 L914.309 1452.69 L922.573 1451.02 L927.249 1451.02 L927.249 1481.64 L934.888 1481.64 L934.888 1485.58 L914.981 1485.58 L914.981 1481.64 Z" fill="#000000" fill-rule="nonzero" fill-opacity="1" /><path clip-path="url(#clip210)" d="M954.332 1454.1 Q950.721 1454.1 948.893 1457.66 Q947.087 1461.2 947.087 1468.33 Q947.087 1475.44 948.893 1479.01 Q950.721 1482.55 954.332 1482.55 Q957.967 1482.55 959.772 1479.01 Q961.601 1475.44 961.601 1468.33 Q961.601 1461.2 959.772 1457.66 Q957.967 1454.1 954.332 1454.1 M954.332 1450.39 Q960.143 1450.39 963.198 1455 Q966.277 1459.58 966.277 1468.33 Q966.277 1477.06 963.198 1481.67 Q960.143 1486.25 954.332 1486.25 Q948.522 1486.25 945.444 1481.67 Q942.388 1477.06 942.388 1468.33 Q942.388 1459.58 945.444 1455 Q948.522 1450.39 954.332 1450.39 Z" fill="#000000" fill-rule="nonzero" fill-opacity="1" /><path clip-path="url(#clip210)" d="M984.494 1454.1 Q980.883 1454.1 979.054 1457.66 Q977.249 1461.2 977.249 1468.33 Q977.249 1475.44 979.054 1479.01 Q980.883 1482.55 984.494 1482.55 Q988.128 1482.55 989.934 1479.01 Q991.763 1475.44 991.763 1468.33 Q991.763 1461.2 989.934 1457.66 Q988.128 1454.1 984.494 1454.1 M984.494 1450.39 Q990.304 1450.39 993.36 1455 Q996.439 1459.58 996.439 1468.33 Q996.439 1477.06 993.36 1481.67 Q990.304 1486.25 984.494 1486.25 Q978.684 1486.25 975.605 1481.67 Q972.55 1477.06 972.55 1468.33 Q972.55 1459.58 975.605 1455 Q978.684 1450.39 984.494 1450.39 Z" fill="#000000" fill-rule="nonzero" fill-opacity="1" /><path clip-path="url(#clip210)" d="M1014.66 1454.1 Q1011.05 1454.1 1009.22 1457.66 Q1007.41 1461.2 1007.41 1468.33 Q1007.41 1475.44 1009.22 1479.01 Q1011.05 1482.55 1014.66 1482.55 Q1018.29 1482.55 1020.1 1479.01 Q1021.92 1475.44 1021.92 1468.33 Q1021.92 1461.2 1020.1 1457.66 Q1018.29 1454.1 1014.66 1454.1 M1014.66 1450.39 Q1020.47 1450.39 1023.52 1455 Q1026.6 1459.58 1026.6 1468.33 Q1026.6 1477.06 1023.52 1481.67 Q1020.47 1486.25 1014.66 1486.25 Q1008.85 1486.25 1005.77 1481.67 Q1002.71 1477.06 1002.71 1468.33 Q1002.71 1459.58 1005.77 1455 Q1008.85 1450.39 1014.66 1450.39 Z" fill="#000000" fill-rule="nonzero" fill-opacity="1" /><path clip-path="url(#clip210)" d="M1580.45 1481.64 L1596.77 1481.64 L1596.77 1485.58 L1574.83 1485.58 L1574.83 1481.64 Q1577.49 1478.89 1582.07 1474.26 Q1586.68 1469.61 1587.86 1468.27 Q1590.11 1465.74 1590.99 1464.01 Q1591.89 1462.25 1591.89 1460.56 Q1591.89 1457.8 1589.95 1456.07 Q1588.02 1454.33 1584.92 1454.33 Q1582.72 1454.33 1580.27 1455.09 Q1577.84 1455.86 1575.06 1457.41 L1575.06 1452.69 Q1577.88 1451.55 1580.34 1450.97 Q1582.79 1450.39 1584.83 1450.39 Q1590.2 1450.39 1593.39 1453.08 Q1596.59 1455.77 1596.59 1460.26 Q1596.59 1462.39 1595.78 1464.31 Q1594.99 1466.2 1592.88 1468.8 Q1592.31 1469.47 1589.2 1472.69 Q1586.1 1475.88 1580.45 1481.64 Z" fill="#000000" fill-rule="nonzero" fill-opacity="1" /><path clip-path="url(#clip210)" d="M1616.59 1454.1 Q1612.98 1454.1 1611.15 1457.66 Q1609.34 1461.2 1609.34 1468.33 Q1609.34 1475.44 1611.15 1479.01 Q1612.98 1482.55 1616.59 1482.55 Q1620.22 1482.55 1622.03 1479.01 Q1623.86 1475.44 1623.86 1468.33 Q1623.86 1461.2 1622.03 1457.66 Q1620.22 1454.1 1616.59 1454.1 M1616.59 1450.39 Q1622.4 1450.39 1625.45 1455 Q1628.53 1459.58 1628.53 1468.33 Q1628.53 1477.06 1625.45 1481.67 Q1622.4 1486.25 1616.59 1486.25 Q1610.78 1486.25 1607.7 1481.67 Q1604.64 1477.06 1604.64 1468.33 Q1604.64 1459.58 1607.7 1455 Q1610.78 1450.39 1616.59 1450.39 Z" fill="#000000" fill-rule="nonzero" fill-opacity="1" /><path clip-path="url(#clip210)" d="M1646.75 1454.1 Q1643.14 1454.1 1641.31 1457.66 Q1639.5 1461.2 1639.5 1468.33 Q1639.5 1475.44 1641.31 1479.01 Q1643.14 1482.55 1646.75 1482.55 Q1650.38 1482.55 1652.19 1479.01 Q1654.02 1475.44 1654.02 1468.33 Q1654.02 1461.2 1652.19 1457.66 Q1650.38 1454.1 1646.75 1454.1 M1646.75 1450.39 Q1652.56 1450.39 1655.62 1455 Q1658.69 1459.58 1658.69 1468.33 Q1658.69 1477.06 1655.62 1481.67 Q1652.56 1486.25 1646.75 1486.25 Q1640.94 1486.25 1637.86 1481.67 Q1634.81 1477.06 1634.81 1468.33 Q1634.81 1459.58 1637.86 1455 Q1640.94 1450.39 1646.75 1450.39 Z" fill="#000000" fill-rule="nonzero" fill-opacity="1" /><path clip-path="url(#clip210)" d="M1676.91 1454.1 Q1673.3 1454.1 1671.47 1457.66 Q1669.67 1461.2 1669.67 1468.33 Q1669.67 1475.44 1671.47 1479.01 Q1673.3 1482.55 1676.91 1482.55 Q1680.55 1482.55 1682.35 1479.01 Q1684.18 1475.44 1684.18 1468.33 Q1684.18 1461.2 1682.35 1457.66 Q1680.55 1454.1 1676.91 1454.1 M1676.91 1450.39 Q1682.72 1450.39 1685.78 1455 Q1688.86 1459.58 1688.86 1468.33 Q1688.86 1477.06 1685.78 1481.67 Q1682.72 1486.25 1676.91 1486.25 Q1671.1 1486.25 1668.02 1481.67 Q1664.97 1477.06 1664.97 1468.33 Q1664.97 1459.58 1668.02 1455 Q1671.1 1450.39 1676.91 1450.39 Z" fill="#000000" fill-rule="nonzero" fill-opacity="1" /><path clip-path="url(#clip210)" d="M2251.91 1466.95 Q2255.27 1467.66 2257.14 1469.93 Q2259.04 1472.2 2259.04 1475.53 Q2259.04 1480.65 2255.52 1483.45 Q2252 1486.25 2245.52 1486.25 Q2243.35 1486.25 2241.03 1485.81 Q2238.74 1485.39 2236.29 1484.54 L2236.29 1480.02 Q2238.23 1481.16 2240.55 1481.74 Q2242.86 1482.32 2245.38 1482.32 Q2249.78 1482.32 2252.07 1480.58 Q2254.39 1478.84 2254.39 1475.53 Q2254.39 1472.48 2252.24 1470.77 Q2250.11 1469.03 2246.29 1469.03 L2242.26 1469.03 L2242.26 1465.19 L2246.47 1465.19 Q2249.92 1465.19 2251.75 1463.82 Q2253.58 1462.43 2253.58 1459.84 Q2253.58 1457.18 2251.68 1455.77 Q2249.81 1454.33 2246.29 1454.33 Q2244.37 1454.33 2242.17 1454.75 Q2239.97 1455.16 2237.33 1456.04 L2237.33 1451.88 Q2239.99 1451.14 2242.31 1450.77 Q2244.64 1450.39 2246.7 1450.39 Q2252.03 1450.39 2255.13 1452.83 Q2258.23 1455.23 2258.23 1459.35 Q2258.23 1462.22 2256.59 1464.21 Q2254.94 1466.18 2251.91 1466.95 Z" fill="#000000" fill-rule="nonzero" fill-opacity="1" /><path clip-path="url(#clip210)" d="M2277.91 1454.1 Q2274.3 1454.1 2272.47 1457.66 Q2270.66 1461.2 2270.66 1468.33 Q2270.66 1475.44 2272.47 1479.01 Q2274.3 1482.55 2277.91 1482.55 Q2281.54 1482.55 2283.35 1479.01 Q2285.18 1475.44 2285.18 1468.33 Q2285.18 1461.2 2283.35 1457.66 Q2281.54 1454.1 2277.91 1454.1 M2277.91 1450.39 Q2283.72 1450.39 2286.77 1455 Q2289.85 1459.58 2289.85 1468.33 Q2289.85 1477.06 2286.77 1481.67 Q2283.72 1486.25 2277.91 1486.25 Q2272.1 1486.25 2269.02 1481.67 Q2265.96 1477.06 2265.96 1468.33 Q2265.96 1459.58 2269.02 1455 Q2272.1 1450.39 2277.91 1450.39 Z" fill="#000000" fill-rule="nonzero" fill-opacity="1" /><path clip-path="url(#clip210)" d="M2308.07 1454.1 Q2304.46 1454.1 2302.63 1457.66 Q2300.82 1461.2 2300.82 1468.33 Q2300.82 1475.44 2302.63 1479.01 Q2304.46 1482.55 2308.07 1482.55 Q2311.7 1482.55 2313.51 1479.01 Q2315.34 1475.44 2315.34 1468.33 Q2315.34 1461.2 2313.51 1457.66 Q2311.7 1454.1 2308.07 1454.1 M2308.07 1450.39 Q2313.88 1450.39 2316.93 1455 Q2320.01 1459.58 2320.01 1468.33 Q2320.01 1477.06 2316.93 1481.67 Q2313.88 1486.25 2308.07 1486.25 Q2302.26 1486.25 2299.18 1481.67 Q2296.12 1477.06 2296.12 1468.33 Q2296.12 1459.58 2299.18 1455 Q2302.26 1450.39 2308.07 1450.39 Z" fill="#000000" fill-rule="nonzero" fill-opacity="1" /><path clip-path="url(#clip210)" d="M2338.23 1454.1 Q2334.62 1454.1 2332.79 1457.66 Q2330.99 1461.2 2330.99 1468.33 Q2330.99 1475.44 2332.79 1479.01 Q2334.62 1482.55 2338.23 1482.55 Q2341.86 1482.55 2343.67 1479.01 Q2345.5 1475.44 2345.5 1468.33 Q2345.5 1461.2 2343.67 1457.66 Q2341.86 1454.1 2338.23 1454.1 M2338.23 1450.39 Q2344.04 1450.39 2347.1 1455 Q2350.18 1459.58 2350.18 1468.33 Q2350.18 1477.06 2347.1 1481.67 Q2344.04 1486.25 2338.23 1486.25 Q2332.42 1486.25 2329.34 1481.67 Q2326.29 1477.06 2326.29 1468.33 Q2326.29 1459.58 2329.34 1455 Q2332.42 1450.39 2338.23 1450.39 Z" fill="#000000" fill-rule="nonzero" fill-opacity="1" /><path clip-path="url(#clip210)" d="M1300.21 1522.27 L1300.21 1532.4 L1312.27 1532.4 L1312.27 1536.95 L1300.21 1536.95 L1300.21 1556.3 Q1300.21 1560.66 1301.39 1561.9 Q1302.6 1563.14 1306.26 1563.14 L1312.27 1563.14 L1312.27 1568.04 L1306.26 1568.04 Q1299.48 1568.04 1296.9 1565.53 Q1294.32 1562.98 1294.32 1556.3 L1294.32 1536.95 L1290.02 1536.95 L1290.02 1532.4 L1294.32 1532.4 L1294.32 1522.27 L1300.21 1522.27 Z" fill="#000000" fill-rule="nonzero" fill-opacity="1" /><polyline clip-path="url(#clip212)" style="stroke:#000000; stroke-linecap:round; stroke-linejoin:round; stroke-width:2; stroke-opacity:0.1; fill:none" points="249.542,1384.24 2352.76,1384.24 "/>
<polyline clip-path="url(#clip212)" style="stroke:#000000; stroke-linecap:round; stroke-linejoin:round; stroke-width:2; stroke-opacity:0.1; fill:none" points="249.542,1059.72 2352.76,1059.72 "/>
<polyline clip-path="url(#clip212)" style="stroke:#000000; stroke-linecap:round; stroke-linejoin:round; stroke-width:2; stroke-opacity:0.1; fill:none" points="249.542,735.212 2352.76,735.212 "/>
<polyline clip-path="url(#clip212)" style="stroke:#000000; stroke-linecap:round; stroke-linejoin:round; stroke-width:2; stroke-opacity:0.1; fill:none" points="249.542,410.699 2352.76,410.699 "/>
<polyline clip-path="url(#clip212)" style="stroke:#000000; stroke-linecap:round; stroke-linejoin:round; stroke-width:2; stroke-opacity:0.1; fill:none" points="249.542,86.1861 2352.76,86.1861 "/>
<polyline clip-path="url(#clip210)" style="stroke:#000000; stroke-linecap:round; stroke-linejoin:round; stroke-width:4; stroke-opacity:1; fill:none" points="249.542,1423.18 249.542,47.2441 "/>
<polyline clip-path="url(#clip210)" style="stroke:#000000; stroke-linecap:round; stroke-linejoin:round; stroke-width:4; stroke-opacity:1; fill:none" points="249.542,1384.24 268.44,1384.24 "/>
<polyline clip-path="url(#clip210)" style="stroke:#000000; stroke-linecap:round; stroke-linejoin:round; stroke-width:4; stroke-opacity:1; fill:none" points="249.542,1059.72 268.44,1059.72 "/>
<polyline clip-path="url(#clip210)" style="stroke:#000000; stroke-linecap:round; stroke-linejoin:round; stroke-width:4; stroke-opacity:1; fill:none" points="249.542,735.212 268.44,735.212 "/>
<polyline clip-path="url(#clip210)" style="stroke:#000000; stroke-linecap:round; stroke-linejoin:round; stroke-width:4; stroke-opacity:1; fill:none" points="249.542,410.699 268.44,410.699 "/>
<polyline clip-path="url(#clip210)" style="stroke:#000000; stroke-linecap:round; stroke-linejoin:round; stroke-width:4; stroke-opacity:1; fill:none" points="249.542,86.1861 268.44,86.1861 "/>
<path clip-path="url(#clip210)" d="M126.205 1370.04 Q122.593 1370.04 120.765 1373.6 Q118.959 1377.14 118.959 1384.27 Q118.959 1391.38 120.765 1394.94 Q122.593 1398.49 126.205 1398.49 Q129.839 1398.49 131.644 1394.94 Q133.473 1391.38 133.473 1384.27 Q133.473 1377.14 131.644 1373.6 Q129.839 1370.04 126.205 1370.04 M126.205 1366.33 Q132.015 1366.33 135.07 1370.94 Q138.149 1375.52 138.149 1384.27 Q138.149 1393 135.07 1397.61 Q132.015 1402.19 126.205 1402.19 Q120.394 1402.19 117.316 1397.61 Q114.26 1393 114.26 1384.27 Q114.26 1375.52 117.316 1370.94 Q120.394 1366.33 126.205 1366.33 Z" fill="#000000" fill-rule="nonzero" fill-opacity="1" /><path clip-path="url(#clip210)" d="M146.366 1395.64 L151.251 1395.64 L151.251 1401.52 L146.366 1401.52 L146.366 1395.64 Z" fill="#000000" fill-rule="nonzero" fill-opacity="1" /><path clip-path="url(#clip210)" d="M171.436 1370.04 Q167.825 1370.04 165.996 1373.6 Q164.19 1377.14 164.19 1384.27 Q164.19 1391.38 165.996 1394.94 Q167.825 1398.49 171.436 1398.49 Q175.07 1398.49 176.876 1394.94 Q178.704 1391.38 178.704 1384.27 Q178.704 1377.14 176.876 1373.6 Q175.07 1370.04 171.436 1370.04 M171.436 1366.33 Q177.246 1366.33 180.301 1370.94 Q183.38 1375.52 183.38 1384.27 Q183.38 1393 180.301 1397.61 Q177.246 1402.19 171.436 1402.19 Q165.626 1402.19 162.547 1397.61 Q159.491 1393 159.491 1384.27 Q159.491 1375.52 162.547 1370.94 Q165.626 1366.33 171.436 1366.33 Z" fill="#000000" fill-rule="nonzero" fill-opacity="1" /><path clip-path="url(#clip210)" d="M201.598 1370.04 Q197.987 1370.04 196.158 1373.6 Q194.352 1377.14 194.352 1384.27 Q194.352 1391.38 196.158 1394.94 Q197.987 1398.49 201.598 1398.49 Q205.232 1398.49 207.037 1394.94 Q208.866 1391.38 208.866 1384.27 Q208.866 1377.14 207.037 1373.6 Q205.232 1370.04 201.598 1370.04 M201.598 1366.33 Q207.408 1366.33 210.463 1370.94 Q213.542 1375.52 213.542 1384.27 Q213.542 1393 210.463 1397.61 Q207.408 1402.19 201.598 1402.19 Q195.787 1402.19 192.709 1397.61 Q189.653 1393 189.653 1384.27 Q189.653 1375.52 192.709 1370.94 Q195.787 1366.33 201.598 1366.33 Z" fill="#000000" fill-rule="nonzero" fill-opacity="1" /><path clip-path="url(#clip210)" d="M127.2 1045.52 Q123.589 1045.52 121.76 1049.09 Q119.955 1052.63 119.955 1059.76 Q119.955 1066.87 121.76 1070.43 Q123.589 1073.97 127.2 1073.97 Q130.834 1073.97 132.64 1070.43 Q134.468 1066.87 134.468 1059.76 Q134.468 1052.63 132.64 1049.09 Q130.834 1045.52 127.2 1045.52 M127.2 1041.82 Q133.01 1041.82 136.066 1046.43 Q139.144 1051.01 139.144 1059.76 Q139.144 1068.49 136.066 1073.09 Q133.01 1077.68 127.2 1077.68 Q121.39 1077.68 118.311 1073.09 Q115.256 1068.49 115.256 1059.76 Q115.256 1051.01 118.311 1046.43 Q121.39 1041.82 127.2 1041.82 Z" fill="#000000" fill-rule="nonzero" fill-opacity="1" /><path clip-path="url(#clip210)" d="M147.362 1071.13 L152.246 1071.13 L152.246 1077 L147.362 1077 L147.362 1071.13 Z" fill="#000000" fill-rule="nonzero" fill-opacity="1" /><path clip-path="url(#clip210)" d="M166.459 1073.07 L182.778 1073.07 L182.778 1077 L160.834 1077 L160.834 1073.07 Q163.496 1070.32 168.079 1065.69 Q172.686 1061.03 173.866 1059.69 Q176.112 1057.17 176.991 1055.43 Q177.894 1053.67 177.894 1051.98 Q177.894 1049.23 175.95 1047.49 Q174.028 1045.76 170.927 1045.76 Q168.727 1045.76 166.274 1046.52 Q163.843 1047.28 161.065 1048.83 L161.065 1044.11 Q163.89 1042.98 166.343 1042.4 Q168.797 1041.82 170.834 1041.82 Q176.204 1041.82 179.399 1044.51 Q182.593 1047.19 182.593 1051.68 Q182.593 1053.81 181.783 1055.73 Q180.996 1057.63 178.889 1060.22 Q178.311 1060.89 175.209 1064.11 Q172.107 1067.31 166.459 1073.07 Z" fill="#000000" fill-rule="nonzero" fill-opacity="1" /><path clip-path="url(#clip210)" d="M192.639 1042.44 L210.996 1042.44 L210.996 1046.38 L196.922 1046.38 L196.922 1054.85 Q197.94 1054.51 198.959 1054.34 Q199.977 1054.16 200.996 1054.16 Q206.783 1054.16 210.162 1057.33 Q213.542 1060.5 213.542 1065.92 Q213.542 1071.5 210.07 1074.6 Q206.598 1077.68 200.278 1077.68 Q198.102 1077.68 195.834 1077.31 Q193.588 1076.94 191.181 1076.19 L191.181 1071.5 Q193.264 1072.63 195.487 1073.19 Q197.709 1073.74 200.186 1073.74 Q204.19 1073.74 206.528 1071.63 Q208.866 1069.53 208.866 1065.92 Q208.866 1062.31 206.528 1060.2 Q204.19 1058.09 200.186 1058.09 Q198.311 1058.09 196.436 1058.51 Q194.584 1058.93 192.639 1059.81 L192.639 1042.44 Z" fill="#000000" fill-rule="nonzero" fill-opacity="1" /><path clip-path="url(#clip210)" d="M126.205 721.011 Q122.593 721.011 120.765 724.575 Q118.959 728.117 118.959 735.247 Q118.959 742.353 120.765 745.918 Q122.593 749.46 126.205 749.46 Q129.839 749.46 131.644 745.918 Q133.473 742.353 133.473 735.247 Q133.473 728.117 131.644 724.575 Q129.839 721.011 126.205 721.011 M126.205 717.307 Q132.015 717.307 135.07 721.913 Q138.149 726.497 138.149 735.247 Q138.149 743.973 135.07 748.58 Q132.015 753.163 126.205 753.163 Q120.394 753.163 117.316 748.58 Q114.26 743.973 114.26 735.247 Q114.26 726.497 117.316 721.913 Q120.394 717.307 126.205 717.307 Z" fill="#000000" fill-rule="nonzero" fill-opacity="1" /><path clip-path="url(#clip210)" d="M146.366 746.612 L151.251 746.612 L151.251 752.492 L146.366 752.492 L146.366 746.612 Z" fill="#000000" fill-rule="nonzero" fill-opacity="1" /><path clip-path="url(#clip210)" d="M161.482 717.932 L179.839 717.932 L179.839 721.867 L165.765 721.867 L165.765 730.339 Q166.783 729.992 167.802 729.83 Q168.82 729.645 169.839 729.645 Q175.626 729.645 179.005 732.816 Q182.385 735.987 182.385 741.404 Q182.385 746.983 178.913 750.085 Q175.44 753.163 169.121 753.163 Q166.945 753.163 164.677 752.793 Q162.431 752.423 160.024 751.682 L160.024 746.983 Q162.107 748.117 164.329 748.673 Q166.552 749.228 169.028 749.228 Q173.033 749.228 175.371 747.122 Q177.709 745.015 177.709 741.404 Q177.709 737.793 175.371 735.687 Q173.033 733.58 169.028 733.58 Q167.153 733.58 165.278 733.997 Q163.427 734.413 161.482 735.293 L161.482 717.932 Z" fill="#000000" fill-rule="nonzero" fill-opacity="1" /><path clip-path="url(#clip210)" d="M201.598 721.011 Q197.987 721.011 196.158 724.575 Q194.352 728.117 194.352 735.247 Q194.352 742.353 196.158 745.918 Q197.987 749.46 201.598 749.46 Q205.232 749.46 207.037 745.918 Q208.866 742.353 208.866 735.247 Q208.866 728.117 207.037 724.575 Q205.232 721.011 201.598 721.011 M201.598 717.307 Q207.408 717.307 210.463 721.913 Q213.542 726.497 213.542 735.247 Q213.542 743.973 210.463 748.58 Q207.408 753.163 201.598 753.163 Q195.787 753.163 192.709 748.58 Q189.653 743.973 189.653 735.247 Q189.653 726.497 192.709 721.913 Q195.787 717.307 201.598 717.307 Z" fill="#000000" fill-rule="nonzero" fill-opacity="1" /><path clip-path="url(#clip210)" d="M127.2 396.498 Q123.589 396.498 121.76 400.063 Q119.955 403.604 119.955 410.734 Q119.955 417.84 121.76 421.405 Q123.589 424.947 127.2 424.947 Q130.834 424.947 132.64 421.405 Q134.468 417.84 134.468 410.734 Q134.468 403.604 132.64 400.063 Q130.834 396.498 127.2 396.498 M127.2 392.794 Q133.01 392.794 136.066 397.4 Q139.144 401.984 139.144 410.734 Q139.144 419.461 136.066 424.067 Q133.01 428.65 127.2 428.65 Q121.39 428.65 118.311 424.067 Q115.256 419.461 115.256 410.734 Q115.256 401.984 118.311 397.4 Q121.39 392.794 127.2 392.794 Z" fill="#000000" fill-rule="nonzero" fill-opacity="1" /><path clip-path="url(#clip210)" d="M147.362 422.099 L152.246 422.099 L152.246 427.979 L147.362 427.979 L147.362 422.099 Z" fill="#000000" fill-rule="nonzero" fill-opacity="1" /><path clip-path="url(#clip210)" d="M161.251 393.419 L183.473 393.419 L183.473 395.41 L170.927 427.979 L166.042 427.979 L177.848 397.354 L161.251 397.354 L161.251 393.419 Z" fill="#000000" fill-rule="nonzero" fill-opacity="1" /><path clip-path="url(#clip210)" d="M192.639 393.419 L210.996 393.419 L210.996 397.354 L196.922 397.354 L196.922 405.826 Q197.94 405.479 198.959 405.317 Q199.977 405.132 200.996 405.132 Q206.783 405.132 210.162 408.303 Q213.542 411.474 213.542 416.891 Q213.542 422.47 210.07 425.572 Q206.598 428.65 200.278 428.65 Q198.102 428.65 195.834 428.28 Q193.588 427.91 191.181 427.169 L191.181 422.47 Q193.264 423.604 195.487 424.16 Q197.709 424.715 200.186 424.715 Q204.19 424.715 206.528 422.609 Q208.866 420.502 208.866 416.891 Q208.866 413.28 206.528 411.174 Q204.19 409.067 200.186 409.067 Q198.311 409.067 196.436 409.484 Q194.584 409.9 192.639 410.78 L192.639 393.419 Z" fill="#000000" fill-rule="nonzero" fill-opacity="1" /><path clip-path="url(#clip210)" d="M117.015 99.5309 L124.654 99.5309 L124.654 73.1653 L116.343 74.832 L116.343 70.5728 L124.607 68.9061 L129.283 68.9061 L129.283 99.5309 L136.922 99.5309 L136.922 103.466 L117.015 103.466 L117.015 99.5309 Z" fill="#000000" fill-rule="nonzero" fill-opacity="1" /><path clip-path="url(#clip210)" d="M146.366 97.5865 L151.251 97.5865 L151.251 103.466 L146.366 103.466 L146.366 97.5865 Z" fill="#000000" fill-rule="nonzero" fill-opacity="1" /><path clip-path="url(#clip210)" d="M171.436 71.9848 Q167.825 71.9848 165.996 75.5496 Q164.19 79.0912 164.19 86.2208 Q164.19 93.3273 165.996 96.8921 Q167.825 100.434 171.436 100.434 Q175.07 100.434 176.876 96.8921 Q178.704 93.3273 178.704 86.2208 Q178.704 79.0912 176.876 75.5496 Q175.07 71.9848 171.436 71.9848 M171.436 68.2811 Q177.246 68.2811 180.301 72.8876 Q183.38 77.4709 183.38 86.2208 Q183.38 94.9476 180.301 99.5541 Q177.246 104.137 171.436 104.137 Q165.626 104.137 162.547 99.5541 Q159.491 94.9476 159.491 86.2208 Q159.491 77.4709 162.547 72.8876 Q165.626 68.2811 171.436 68.2811 Z" fill="#000000" fill-rule="nonzero" fill-opacity="1" /><path clip-path="url(#clip210)" d="M201.598 71.9848 Q197.987 71.9848 196.158 75.5496 Q194.352 79.0912 194.352 86.2208 Q194.352 93.3273 196.158 96.8921 Q197.987 100.434 201.598 100.434 Q205.232 100.434 207.037 96.8921 Q208.866 93.3273 208.866 86.2208 Q208.866 79.0912 207.037 75.5496 Q205.232 71.9848 201.598 71.9848 M201.598 68.2811 Q207.408 68.2811 210.463 72.8876 Q213.542 77.4709 213.542 86.2208 Q213.542 94.9476 210.463 99.5541 Q207.408 104.137 201.598 104.137 Q195.787 104.137 192.709 99.5541 Q189.653 94.9476 189.653 86.2208 Q189.653 77.4709 192.709 72.8876 Q195.787 68.2811 201.598 68.2811 Z" fill="#000000" fill-rule="nonzero" fill-opacity="1" /><path clip-path="url(#clip210)" d="M20.8447 1127.58 Q20.8447 1134.58 26.0645 1138.72 Q31.2844 1142.82 40.2919 1142.82 Q49.2675 1142.82 54.4874 1138.72 Q59.7073 1134.58 59.7073 1127.58 Q59.7073 1120.58 54.4874 1116.5 Q49.2675 1112.4 40.2919 1112.4 Q31.2844 1112.4 26.0645 1116.5 Q20.8447 1120.58 20.8447 1127.58 M15.6248 1127.58 Q15.6248 1117.58 22.3406 1111.6 Q29.0246 1105.62 40.2919 1105.62 Q51.5274 1105.62 58.2432 1111.6 Q64.9272 1117.58 64.9272 1127.58 Q64.9272 1137.6 58.2432 1143.62 Q51.5592 1149.6 40.2919 1149.6 Q29.0246 1149.6 22.3406 1143.62 Q15.6248 1137.6 15.6248 1127.58 Z" fill="#000000" fill-rule="nonzero" fill-opacity="1" /><path clip-path="url(#clip210)" d="M49.9359 1096.42 L28.3562 1096.42 L28.3562 1090.56 L49.7131 1090.56 Q54.7739 1090.56 57.3202 1088.59 Q59.8346 1086.61 59.8346 1082.67 Q59.8346 1077.93 56.8109 1075.19 Q53.7872 1072.42 48.5673 1072.42 L28.3562 1072.42 L28.3562 1066.56 L64.0042 1066.56 L64.0042 1072.42 L58.5296 1072.42 Q61.7762 1074.55 63.3676 1077.38 Q64.9272 1080.19 64.9272 1083.91 Q64.9272 1090.05 61.1078 1093.24 Q57.2883 1096.42 49.9359 1096.42 M27.4968 1081.68 L27.4968 1081.68 Z" fill="#000000" fill-rule="nonzero" fill-opacity="1" /><path clip-path="url(#clip210)" d="M18.2347 1048.71 L28.3562 1048.71 L28.3562 1036.64 L32.9077 1036.64 L32.9077 1048.71 L52.2594 1048.71 Q56.6199 1048.71 57.8613 1047.53 Q59.1026 1046.32 59.1026 1042.66 L59.1026 1036.64 L64.0042 1036.64 L64.0042 1042.66 Q64.0042 1049.44 61.4897 1052.02 Q58.9434 1054.6 52.2594 1054.6 L32.9077 1054.6 L32.9077 1058.89 L28.3562 1058.89 L28.3562 1054.6 L18.2347 1054.6 L18.2347 1048.71 Z" fill="#000000" fill-rule="nonzero" fill-opacity="1" /><path clip-path="url(#clip210)" d="M58.657 1023.28 L77.5631 1023.28 L77.5631 1029.16 L28.3562 1029.16 L28.3562 1023.28 L33.7671 1023.28 Q30.5842 1021.43 29.0564 1018.63 Q27.4968 1015.8 27.4968 1011.88 Q27.4968 1005.39 32.6531 1001.35 Q37.8093 997.272 46.212 997.272 Q54.6147 997.272 59.771 1001.35 Q64.9272 1005.39 64.9272 1011.88 Q64.9272 1015.8 63.3994 1018.63 Q61.8398 1021.43 58.657 1023.28 M46.212 1003.35 Q39.7508 1003.35 36.0905 1006.03 Q32.3984 1008.67 32.3984 1013.31 Q32.3984 1017.96 36.0905 1020.63 Q39.7508 1023.28 46.212 1023.28 Q52.6732 1023.28 56.3653 1020.63 Q60.0256 1017.96 60.0256 1013.31 Q60.0256 1008.67 56.3653 1006.03 Q52.6732 1003.35 46.212 1003.35 Z" fill="#000000" fill-rule="nonzero" fill-opacity="1" /><path clip-path="url(#clip210)" d="M49.9359 988.169 L28.3562 988.169 L28.3562 982.313 L49.7131 982.313 Q54.7739 982.313 57.3202 980.339 Q59.8346 978.366 59.8346 974.419 Q59.8346 969.677 56.8109 966.94 Q53.7872 964.171 48.5673 964.171 L28.3562 964.171 L28.3562 958.314 L64.0042 958.314 L64.0042 964.171 L58.5296 964.171 Q61.7762 966.303 63.3676 969.136 Q64.9272 971.937 64.9272 975.661 Q64.9272 981.804 61.1078 984.986 Q57.2883 988.169 49.9359 988.169 M27.4968 973.433 L27.4968 973.433 Z" fill="#000000" fill-rule="nonzero" fill-opacity="1" /><path clip-path="url(#clip210)" d="M18.2347 940.458 L28.3562 940.458 L28.3562 928.395 L32.9077 928.395 L32.9077 940.458 L52.2594 940.458 Q56.6199 940.458 57.8613 939.281 Q59.1026 938.071 59.1026 934.411 L59.1026 928.395 L64.0042 928.395 L64.0042 934.411 Q64.0042 941.19 61.4897 943.768 Q58.9434 946.347 52.2594 946.347 L32.9077 946.347 L32.9077 950.643 L28.3562 950.643 L28.3562 946.347 L18.2347 946.347 L18.2347 940.458 Z" fill="#000000" fill-rule="nonzero" fill-opacity="1" /><path clip-path="url(#clip210)" d="M21.7677 914.009 L58.7206 914.009 L58.7206 906.243 Q58.7206 896.408 54.2646 891.856 Q49.8086 887.273 40.1964 887.273 Q30.6479 887.273 26.2237 891.856 Q21.7677 896.408 21.7677 906.243 L21.7677 914.009 M16.4842 920.438 L16.4842 907.229 Q16.4842 893.416 22.2451 886.955 Q27.9743 880.493 40.1964 880.493 Q52.4822 880.493 58.2432 886.986 Q64.0042 893.479 64.0042 907.229 L64.0042 920.438 L16.4842 920.438 Z" fill="#000000" fill-rule="nonzero" fill-opacity="1" /><path clip-path="url(#clip210)" d="M28.3562 870.499 L28.3562 864.643 L64.0042 864.643 L64.0042 870.499 L28.3562 870.499 M14.479 870.499 L14.479 864.643 L21.895 864.643 L21.895 870.499 L14.479 870.499 Z" fill="#000000" fill-rule="nonzero" fill-opacity="1" /><path clip-path="url(#clip210)" d="M46.0847 836.188 Q46.0847 843.286 47.7079 846.023 Q49.3312 848.76 53.2461 848.76 Q56.3653 848.76 58.2114 846.723 Q60.0256 844.654 60.0256 841.121 Q60.0256 836.252 56.5881 833.323 Q53.1188 830.363 47.3897 830.363 L46.0847 830.363 L46.0847 836.188 M43.6657 824.507 L64.0042 824.507 L64.0042 830.363 L58.5933 830.363 Q61.8398 832.369 63.3994 835.36 Q64.9272 838.352 64.9272 842.681 Q64.9272 848.156 61.8716 851.402 Q58.7843 854.617 53.6281 854.617 Q47.6125 854.617 44.5569 850.606 Q41.5014 846.564 41.5014 838.575 L41.5014 830.363 L40.9285 830.363 Q36.8862 830.363 34.6901 833.037 Q32.4621 835.679 32.4621 840.485 Q32.4621 843.54 33.1941 846.437 Q33.9262 849.333 35.3903 852.007 L29.9795 852.007 Q28.7381 848.792 28.1334 845.768 Q27.4968 842.745 27.4968 839.88 Q27.4968 832.146 31.5072 828.326 Q35.5176 824.507 43.6657 824.507 Z" fill="#000000" fill-rule="nonzero" fill-opacity="1" /><path clip-path="url(#clip210)" d="M46.212 786.854 Q39.7508 786.854 36.0905 789.527 Q32.3984 792.169 32.3984 796.816 Q32.3984 801.463 36.0905 804.137 Q39.7508 806.778 46.212 806.778 Q52.6732 806.778 56.3653 804.137 Q60.0256 801.463 60.0256 796.816 Q60.0256 792.169 56.3653 789.527 Q52.6732 786.854 46.212 786.854 M33.7671 806.778 Q30.5842 804.932 29.0564 802.131 Q27.4968 799.299 27.4968 795.384 Q27.4968 788.891 32.6531 784.849 Q37.8093 780.775 46.212 780.775 Q54.6147 780.775 59.771 784.849 Q64.9272 788.891 64.9272 795.384 Q64.9272 799.299 63.3994 802.131 Q61.8398 804.932 58.657 806.778 L64.0042 806.778 L64.0042 812.667 L14.479 812.667 L14.479 806.778 L33.7671 806.778 Z" fill="#000000" fill-rule="nonzero" fill-opacity="1" /><path clip-path="url(#clip210)" d="M46.0847 754.866 Q46.0847 761.964 47.7079 764.701 Q49.3312 767.438 53.2461 767.438 Q56.3653 767.438 58.2114 765.401 Q60.0256 763.332 60.0256 759.8 Q60.0256 754.93 56.5881 752.002 Q53.1188 749.041 47.3897 749.041 L46.0847 749.041 L46.0847 754.866 M43.6657 743.185 L64.0042 743.185 L64.0042 749.041 L58.5933 749.041 Q61.8398 751.047 63.3994 754.039 Q64.9272 757.03 64.9272 761.359 Q64.9272 766.834 61.8716 770.08 Q58.7843 773.295 53.6281 773.295 Q47.6125 773.295 44.5569 769.284 Q41.5014 765.242 41.5014 757.253 L41.5014 749.041 L40.9285 749.041 Q36.8862 749.041 34.6901 751.715 Q32.4621 754.357 32.4621 759.163 Q32.4621 762.218 33.1941 765.115 Q33.9262 768.011 35.3903 770.685 L29.9795 770.685 Q28.7381 767.47 28.1334 764.446 Q27.4968 761.423 27.4968 758.558 Q27.4968 750.824 31.5072 747.004 Q35.5176 743.185 43.6657 743.185 Z" fill="#000000" fill-rule="nonzero" fill-opacity="1" /><path clip-path="url(#clip210)" d="M18.2347 725.329 L28.3562 725.329 L28.3562 713.266 L32.9077 713.266 L32.9077 725.329 L52.2594 725.329 Q56.6199 725.329 57.8613 724.152 Q59.1026 722.942 59.1026 719.282 L59.1026 713.266 L64.0042 713.266 L64.0042 719.282 Q64.0042 726.061 61.4897 728.639 Q58.9434 731.217 52.2594 731.217 L32.9077 731.217 L32.9077 735.514 L28.3562 735.514 L28.3562 731.217 L18.2347 731.217 L18.2347 725.329 Z" fill="#000000" fill-rule="nonzero" fill-opacity="1" /><path clip-path="url(#clip210)" d="M28.3562 705.564 L28.3562 699.707 L64.0042 699.707 L64.0042 705.564 L28.3562 705.564 M14.479 705.564 L14.479 699.707 L21.895 699.707 L21.895 705.564 L14.479 705.564 Z" fill="#000000" fill-rule="nonzero" fill-opacity="1" /><path clip-path="url(#clip210)" d="M29.7248 661.799 L35.1993 661.799 Q33.8307 664.282 33.1623 666.797 Q32.4621 669.279 32.4621 671.825 Q32.4621 677.523 36.0905 680.674 Q39.6872 683.825 46.212 683.825 Q52.7369 683.825 56.3653 680.674 Q59.9619 677.523 59.9619 671.825 Q59.9619 669.279 59.2935 666.797 Q58.5933 664.282 57.2247 661.799 L62.6355 661.799 Q63.7814 664.25 64.3543 666.892 Q64.9272 669.502 64.9272 672.462 Q64.9272 680.515 59.8664 685.257 Q54.8057 690 46.212 690 Q37.491 690 32.4939 685.225 Q27.4968 680.419 27.4968 672.08 Q27.4968 669.375 28.0697 666.797 Q28.6108 664.218 29.7248 661.799 Z" fill="#000000" fill-rule="nonzero" fill-opacity="1" /><path clip-path="url(#clip210)" d="M21.7677 644.93 L39.6235 644.93 L39.6235 636.846 Q39.6235 632.358 37.3 629.907 Q34.9765 627.456 30.6797 627.456 Q26.4147 627.456 24.0912 629.907 Q21.7677 632.358 21.7677 636.846 L21.7677 644.93 M16.4842 651.36 L16.4842 636.846 Q16.4842 628.857 20.1126 624.783 Q23.7092 620.677 30.6797 620.677 Q37.7138 620.677 41.3104 624.783 Q44.907 628.857 44.907 636.846 L44.907 644.93 L64.0042 644.93 L64.0042 651.36 L16.4842 651.36 Z" fill="#000000" fill-rule="nonzero" fill-opacity="1" /><path clip-path="url(#clip210)" d="M32.4621 600.816 Q32.4621 605.527 36.1542 608.264 Q39.8145 611.001 46.212 611.001 Q52.6095 611.001 56.3017 608.296 Q59.9619 605.558 59.9619 600.816 Q59.9619 596.137 56.2698 593.4 Q52.5777 590.663 46.212 590.663 Q39.8781 590.663 36.186 593.4 Q32.4621 596.137 32.4621 600.816 M27.4968 600.816 Q27.4968 593.177 32.4621 588.817 Q37.4273 584.456 46.212 584.456 Q54.9649 584.456 59.9619 588.817 Q64.9272 593.177 64.9272 600.816 Q64.9272 608.487 59.9619 612.847 Q54.9649 617.176 46.212 617.176 Q37.4273 617.176 32.4621 612.847 Q27.4968 608.487 27.4968 600.816 Z" fill="#000000" fill-rule="nonzero" fill-opacity="1" /><path clip-path="url(#clip210)" d="M58.657 569.083 L77.5631 569.083 L77.5631 574.971 L28.3562 574.971 L28.3562 569.083 L33.7671 569.083 Q30.5842 567.237 29.0564 564.436 Q27.4968 561.603 27.4968 557.688 Q27.4968 551.195 32.6531 547.153 Q37.8093 543.079 46.212 543.079 Q54.6147 543.079 59.771 547.153 Q64.9272 551.195 64.9272 557.688 Q64.9272 561.603 63.3994 564.436 Q61.8398 567.237 58.657 569.083 M46.212 549.158 Q39.7508 549.158 36.0905 551.832 Q32.3984 554.474 32.3984 559.121 Q32.3984 563.768 36.0905 566.441 Q39.7508 569.083 46.212 569.083 Q52.6732 569.083 56.3653 566.441 Q60.0256 563.768 60.0256 559.121 Q60.0256 554.474 56.3653 551.832 Q52.6732 549.158 46.212 549.158 Z" fill="#000000" fill-rule="nonzero" fill-opacity="1" /><path clip-path="url(#clip210)" d="M49.9359 533.976 L28.3562 533.976 L28.3562 528.12 L49.7131 528.12 Q54.7739 528.12 57.3202 526.146 Q59.8346 524.173 59.8346 520.226 Q59.8346 515.484 56.8109 512.746 Q53.7872 509.977 48.5673 509.977 L28.3562 509.977 L28.3562 504.121 L64.0042 504.121 L64.0042 509.977 L58.5296 509.977 Q61.7762 512.11 63.3676 514.943 Q64.9272 517.744 64.9272 521.467 Q64.9272 527.61 61.1078 530.793 Q57.2883 533.976 49.9359 533.976 M27.4968 519.239 L27.4968 519.239 Z" fill="#000000" fill-rule="nonzero" fill-opacity="1" /><path clip-path="url(#clip210)" d="M14.479 492.058 L14.479 486.201 L64.0042 486.201 L64.0042 492.058 L14.479 492.058 Z" fill="#000000" fill-rule="nonzero" fill-opacity="1" /><path clip-path="url(#clip210)" d="M46.0847 457.747 Q46.0847 464.844 47.7079 467.582 Q49.3312 470.319 53.2461 470.319 Q56.3653 470.319 58.2114 468.282 Q60.0256 466.213 60.0256 462.68 Q60.0256 457.81 56.5881 454.882 Q53.1188 451.922 47.3897 451.922 L46.0847 451.922 L46.0847 457.747 M43.6657 446.066 L64.0042 446.066 L64.0042 451.922 L58.5933 451.922 Q61.8398 453.927 63.3994 456.919 Q64.9272 459.911 64.9272 464.24 Q64.9272 469.714 61.8716 472.961 Q58.7843 476.175 53.6281 476.175 Q47.6125 476.175 44.5569 472.165 Q41.5014 468.123 41.5014 460.134 L41.5014 451.922 L40.9285 451.922 Q36.8862 451.922 34.6901 454.596 Q32.4621 457.237 32.4621 462.044 Q32.4621 465.099 33.1941 467.996 Q33.9262 470.892 35.3903 473.566 L29.9795 473.566 Q28.7381 470.351 28.1334 467.327 Q27.4968 464.303 27.4968 461.439 Q27.4968 453.705 31.5072 449.885 Q35.5176 446.066 43.6657 446.066 Z" fill="#000000" fill-rule="nonzero" fill-opacity="1" /><path clip-path="url(#clip210)" d="M18.2347 428.21 L28.3562 428.21 L28.3562 416.147 L32.9077 416.147 L32.9077 428.21 L52.2594 428.21 Q56.6199 428.21 57.8613 427.032 Q59.1026 425.823 59.1026 422.162 L59.1026 416.147 L64.0042 416.147 L64.0042 422.162 Q64.0042 428.942 61.4897 431.52 Q58.9434 434.098 52.2594 434.098 L32.9077 434.098 L32.9077 438.395 L28.3562 438.395 L28.3562 434.098 L18.2347 434.098 L18.2347 428.21 Z" fill="#000000" fill-rule="nonzero" fill-opacity="1" /><path clip-path="url(#clip210)" d="M28.3562 408.444 L28.3562 402.588 L64.0042 402.588 L64.0042 408.444 L28.3562 408.444 M14.479 408.444 L14.479 402.588 L21.895 402.588 L21.895 408.444 L14.479 408.444 Z" fill="#000000" fill-rule="nonzero" fill-opacity="1" /><path clip-path="url(#clip210)" d="M32.4621 376.52 Q32.4621 381.231 36.1542 383.968 Q39.8145 386.705 46.212 386.705 Q52.6095 386.705 56.3017 384 Q59.9619 381.263 59.9619 376.52 Q59.9619 371.842 56.2698 369.104 Q52.5777 366.367 46.212 366.367 Q39.8781 366.367 36.186 369.104 Q32.4621 371.842 32.4621 376.52 M27.4968 376.52 Q27.4968 368.881 32.4621 364.521 Q37.4273 360.16 46.212 360.16 Q54.9649 360.16 59.9619 364.521 Q64.9272 368.881 64.9272 376.52 Q64.9272 384.191 59.9619 388.551 Q54.9649 392.88 46.212 392.88 Q37.4273 392.88 32.4621 388.551 Q27.4968 384.191 27.4968 376.52 Z" fill="#000000" fill-rule="nonzero" fill-opacity="1" /><path clip-path="url(#clip210)" d="M42.4881 320.82 L64.0042 320.82 L64.0042 326.677 L42.679 326.677 Q37.6183 326.677 35.1038 328.65 Q32.5894 330.624 32.5894 334.57 Q32.5894 339.313 35.6131 342.05 Q38.6368 344.787 43.8567 344.787 L64.0042 344.787 L64.0042 350.676 L28.3562 350.676 L28.3562 344.787 L33.8944 344.787 Q30.6797 342.687 29.0883 339.854 Q27.4968 336.989 27.4968 333.265 Q27.4968 327.122 31.3163 323.971 Q35.1038 320.82 42.4881 320.82 Z" fill="#000000" fill-rule="nonzero" fill-opacity="1" /><polyline clip-path="url(#clip212)" style="stroke:#009af9; stroke-linecap:round; stroke-linejoin:round; stroke-width:4; stroke-opacity:1; fill:none" points="309.067,1384.24 315.681,1384.24 322.295,1384.24 328.909,1384.24 335.522,1384.24 342.136,1384.24 348.75,1384.24 355.364,1384.24 361.978,1384.24 368.592,1384.24 375.206,1384.24 381.82,1384.24 388.434,1384.24 395.047,1384.24 401.661,1384.24 408.275,1384.24 414.889,1384.24 421.503,1384.24 428.117,1384.24 434.731,1384.24 441.345,1384.24 447.958,1384.24 454.572,1384.24 461.186,1384.24 467.8,1384.24 474.414,1384.24 481.028,1384.24 487.642,1384.24 494.256,1384.24 500.869,1384.24 507.483,1384.24 514.097,1384.24 520.711,1384.24 527.325,1384.24 533.939,1384.24 540.553,1384.24 547.167,1384.24 553.781,1384.24 560.394,1384.24 567.008,1384.24 573.622,1384.24 580.236,1384.24 586.85,1384.24 593.464,1384.24 600.078,1384.24 606.692,1384.24 613.305,1384.24 619.919,1384.24 626.533,1384.24 633.147,1384.24 639.761,1384.24 646.375,1384.24 652.989,1384.24 659.603,1384.24 666.216,1384.24 672.83,1384.24 679.444,1384.24 686.058,1384.24 692.672,1384.24 699.286,1384.24 705.9,1384.24 712.514,1384.24 719.128,1384.24 725.741,1384.24 732.355,1384.24 738.969,1384.24 745.583,1384.24 752.197,1384.24 758.811,1384.24 765.425,1384.24 772.039,1384.24 778.652,1384.24 785.266,1384.24 791.88,1384.24 798.494,1384.24 805.108,1384.24 811.722,1384.24 818.336,1384.24 824.95,1384.24 831.563,1384.24 838.177,1384.24 844.791,1384.24 851.405,1384.24 858.019,1384.24 864.633,1384.24 871.247,1384.24 877.861,1384.24 884.475,1384.24 891.088,1384.24 897.702,1384.24 904.316,1384.24 910.93,1384.24 917.544,1384.24 924.158,1384.24 930.772,1384.24 937.386,1384.24 943.999,1384.23 950.613,1384.23 957.227,1384.23 963.841,1384.22 970.455,1384.21 977.069,1384.19 983.683,1384.17 990.297,1384.15 996.91,1384.11 1003.52,1384.06 1010.14,1383.99 1016.75,1383.9 1023.37,1383.79 1029.98,1383.65 1036.59,1383.47 1043.21,1383.25 1049.82,1382.98 1056.44,1382.65 1063.05,1382.25 1069.66,1381.78 1076.28,1381.23 1082.89,1380.58 1089.5,1379.82 1096.12,1378.93 1102.73,1377.88 1109.35,1376.6 1115.96,1374.98 1122.57,1372.79 1129.19,1369.76 1135.8,1365.55 1142.42,1360.58 1149.03,1355.17 1155.64,1349.66 1162.26,1344.27 1168.87,1339.11 1175.49,1334.24 1182.1,1329.69 1188.71,1325.46 1195.33,1321.57 1201.94,1317.99 1208.55,1314.71 1215.17,1311.69 1221.78,1308.89 1228.4,1254.35 1235.01,1254.94 1241.62,1256.19 1248.24,1258.17 1254.85,1260.94 1261.47,1264.56 1268.08,1268.85 1274.69,1221.28 1281.31,1227.25 1287.92,1229.77 1294.54,1228.92 1301.15,1225.96 1307.76,1221.67 1314.38,1216.9 1320.99,1211.25 1327.6,1203.17 1334.22,1189.73 1340.83,1169.52 1347.45,1144.1 1354.06,1114.07 1360.67,1080.46 1367.29,1045.61 1373.9,1009.88 1380.52,1038.66 1387.13,940.983 1393.74,927.135 1400.36,909.872 1406.97,889.752 1413.58,867.2 1420.2,842.078 1426.81,813.39 1433.43,796.163 1440.04,773.743 1446.65,748.73 1453.27,722.681 1459.88,696.621 1466.5,670.26 1473.11,643.489 1479.72,616.622 1486.34,589.815 1492.95,563.958 1499.57,539.733 1506.18,517.614 1512.79,497.88 1519.41,480.343 1526.02,399.978 1532.63,320.797 1539.25,318.839 1545.86,317.34 1552.48,315.622 1559.09,314.105 1565.7,313.115 1572.32,312.824 1578.93,313.283 1585.55,314.455 1592.16,316.257 1598.77,318.577 1605.39,321.283 1612,324.249 1618.62,327.339 1625.23,330.432 1631.84,333.425 1638.46,336.22 1645.07,338.75 1651.68,340.962 1658.3,342.83 1664.91,344.345 1671.53,345.517 1678.14,346.371 1684.75,346.942 1691.37,347.273 1697.98,347.41 1704.6,347.401 1711.21,347.288 1717.82,347.109 1724.44,346.898 1731.05,346.679 1737.67,346.47 1744.28,346.283 1750.89,346.126 1757.51,346 1764.12,345.904 1770.73,345.835 1777.35,345.789 1783.96,345.761 1790.58,345.747 1797.19,345.743 1803.8,345.745 1810.42,345.751 1817.03,345.759 1823.65,345.767 1830.26,345.774 1836.87,345.78 1843.49,345.785 1850.1,345.789 1856.71,345.792 1863.33,345.794 1869.94,345.795 1876.56,345.796 1883.17,345.797 1889.78,345.797 1896.4,345.797 1903.01,345.797 1909.63,345.797 1916.24,345.797 1922.85,345.797 1929.47,345.797 1936.08,345.797 1942.7,345.797 1949.31,345.797 1955.92,345.796 1962.54,345.796 1969.15,345.796 1975.76,345.796 1982.38,345.796 1988.99,345.796 1995.61,345.796 2002.22,345.796 2008.83,345.796 2015.45,345.796 2022.06,345.796 2028.68,345.796 2035.29,345.796 2041.9,345.796 2048.52,345.796 2055.13,345.796 2061.75,345.796 2068.36,345.796 2074.97,345.796 2081.59,345.796 2088.2,345.796 2094.81,345.796 2101.43,345.796 2108.04,345.796 2114.66,345.796 2121.27,345.796 2127.88,345.796 2134.5,345.796 2141.11,345.796 2147.73,345.796 2154.34,345.796 2160.95,345.796 2167.57,345.796 2174.18,345.796 2180.8,345.796 2187.41,345.796 2194.02,345.796 2200.64,345.796 2207.25,345.796 2213.86,345.796 2220.48,345.796 2227.09,345.796 2233.71,345.796 2240.32,345.796 2246.93,345.796 2253.55,345.796 2260.16,345.796 2266.78,345.796 2273.39,345.796 2280,345.796 2286.62,345.796 2293.23,345.796 "/>
<polyline clip-path="url(#clip212)" style="stroke:#e26f46; stroke-linecap:round; stroke-linejoin:round; stroke-width:4; stroke-opacity:1; fill:none" points="309.067,86.1861 315.681,86.1861 322.295,86.1861 328.909,86.1861 335.522,86.1861 342.136,86.1861 348.75,86.1861 355.364,86.1861 361.978,86.1861 368.592,86.1861 375.206,86.1861 381.82,86.1861 388.434,86.1861 395.047,86.1861 401.661,86.1861 408.275,86.1861 414.889,86.1861 421.503,86.1861 428.117,86.1861 434.731,86.1861 441.345,86.1861 447.958,86.1861 454.572,86.1861 461.186,86.1861 467.8,86.1861 474.414,86.1861 481.028,86.1861 487.642,86.1861 494.256,86.1861 500.869,86.1861 507.483,86.1861 514.097,86.1861 520.711,86.1861 527.325,86.1861 533.939,86.1861 540.553,86.1861 547.167,86.1861 553.781,86.1861 560.394,86.1861 567.008,86.1861 573.622,86.1861 580.236,86.1861 586.85,86.1861 593.464,86.1861 600.078,86.1861 606.692,86.1861 613.305,86.1861 619.919,86.1861 626.533,86.1861 633.147,86.1861 639.761,86.1861 646.375,86.1861 652.989,86.1861 659.603,86.1861 666.216,86.1861 672.83,86.1861 679.444,86.1861 686.058,86.1861 692.672,86.1861 699.286,86.1861 705.9,86.1861 712.514,86.1861 719.128,86.1861 725.741,86.1861 732.355,86.1861 738.969,86.1861 745.583,86.1861 752.197,86.1861 758.811,86.1861 765.425,86.1861 772.039,86.1861 778.652,86.1861 785.266,86.1861 791.88,86.1861 798.494,86.1861 805.108,86.1861 811.722,86.1861 818.336,86.1861 824.95,86.1861 831.563,86.1861 838.177,86.1861 844.791,86.186 851.405,86.186 858.019,86.186 864.633,86.186 871.247,86.1859 877.861,86.1859 884.475,86.1858 891.088,86.1857 897.702,86.1857 904.316,86.1857 910.93,86.1857 917.544,86.1859 924.158,86.1862 930.772,86.1869 937.386,86.1881 943.999,86.1901 950.613,86.1932 957.227,86.1979 963.841,86.205 970.455,86.2153 977.069,86.2299 983.683,86.2503 990.297,86.2782 996.91,86.3161 1003.52,86.3669 1010.14,86.4338 1016.75,86.5208 1023.37,86.6329 1029.98,86.7755 1036.59,86.9542 1043.21,87.1755 1049.82,87.4473 1056.44,87.7785 1063.05,88.1758 1069.66,88.6455 1076.28,89.1977 1082.89,89.8475 1089.5,90.6079 1096.12,91.4916 1102.73,92.5409 1109.35,93.8244 1115.96,95.4463 1122.57,97.6314 1129.19,100.66 1135.8,104.869 1142.42,109.839 1149.03,115.256 1155.64,120.767 1162.26,126.157 1168.87,131.311 1175.49,136.182 1182.1,140.735 1188.71,144.959 1195.33,148.857 1201.94,152.436 1208.55,155.715 1215.17,158.73 1221.78,161.535 1228.4,216.073 1235.01,215.484 1241.62,214.229 1248.24,212.255 1254.85,209.488 1261.47,205.868 1268.08,201.57 1274.69,249.148 1281.31,243.176 1287.92,240.654 1294.54,241.508 1301.15,244.468 1307.76,248.749 1314.38,253.528 1320.99,259.177 1327.6,267.257 1334.22,280.691 1340.83,300.905 1347.45,326.326 1354.06,356.352 1360.67,389.966 1367.29,424.818 1373.9,460.542 1380.52,431.768 1387.13,529.441 1393.74,543.289 1400.36,560.551 1406.97,580.671 1413.58,603.224 1420.2,628.346 1426.81,657.034 1433.43,674.261 1440.04,696.681 1446.65,721.694 1453.27,747.742 1459.88,773.803 1466.5,800.164 1473.11,826.935 1479.72,853.802 1486.34,880.609 1492.95,906.466 1499.57,930.69 1506.18,952.81 1512.79,972.544 1519.41,990.081 1526.02,1070.45 1532.63,1149.63 1539.25,1151.58 1545.86,1153.08 1552.48,1154.8 1559.09,1156.32 1565.7,1157.31 1572.32,1157.6 1578.93,1157.14 1585.55,1155.97 1592.16,1154.17 1598.77,1151.85 1605.39,1149.14 1612,1146.18 1618.62,1143.09 1625.23,1139.99 1631.84,1137 1638.46,1134.2 1645.07,1131.67 1651.68,1129.46 1658.3,1127.59 1664.91,1126.08 1671.53,1124.91 1678.14,1124.05 1684.75,1123.48 1691.37,1123.15 1697.98,1123.01 1704.6,1123.02 1711.21,1123.14 1717.82,1123.31 1724.44,1123.53 1731.05,1123.75 1737.67,1123.95 1744.28,1124.14 1750.89,1124.3 1757.51,1124.42 1764.12,1124.52 1770.73,1124.59 1777.35,1124.64 1783.96,1124.66 1790.58,1124.68 1797.19,1124.68 1803.8,1124.68 1810.42,1124.67 1817.03,1124.67 1823.65,1124.66 1830.26,1124.65 1836.87,1124.64 1843.49,1124.64 1850.1,1124.63 1856.71,1124.63 1863.33,1124.63 1869.94,1124.63 1876.56,1124.63 1883.17,1124.63 1889.78,1124.63 1896.4,1124.63 1903.01,1124.63 1909.63,1124.63 1916.24,1124.63 1922.85,1124.63 1929.47,1124.63 1936.08,1124.63 1942.7,1124.63 1949.31,1124.63 1955.92,1124.63 1962.54,1124.63 1969.15,1124.63 1975.76,1124.63 1982.38,1124.63 1988.99,1124.63 1995.61,1124.63 2002.22,1124.63 2008.83,1124.63 2015.45,1124.63 2022.06,1124.63 2028.68,1124.63 2035.29,1124.63 2041.9,1124.63 2048.52,1124.63 2055.13,1124.63 2061.75,1124.63 2068.36,1124.63 2074.97,1124.63 2081.59,1124.63 2088.2,1124.63 2094.81,1124.63 2101.43,1124.63 2108.04,1124.63 2114.66,1124.63 2121.27,1124.63 2127.88,1124.63 2134.5,1124.63 2141.11,1124.63 2147.73,1124.63 2154.34,1124.63 2160.95,1124.63 2167.57,1124.63 2174.18,1124.63 2180.8,1124.63 2187.41,1124.63 2194.02,1124.63 2200.64,1124.63 2207.25,1124.63 2213.86,1124.63 2220.48,1124.63 2227.09,1124.63 2233.71,1124.63 2240.32,1124.63 2246.93,1124.63 2253.55,1124.63 2260.16,1124.63 2266.78,1124.63 2273.39,1124.63 2280,1124.63 2286.62,1124.63 2293.23,1124.63 "/>
</svg>
