<?xml version="1.0" encoding="utf-8"?>
<svg xmlns="http://www.w3.org/2000/svg" xmlns:xlink="http://www.w3.org/1999/xlink" width="600" height="400" viewBox="0 0 2400 1600">
<defs>
  <clipPath id="clip140">
    <rect x="0" y="0" width="2400" height="1600"/>
  </clipPath>
</defs>
<path clip-path="url(#clip140)" d="M0 1600 L2400 1600 L2400 8.88178e-14 L0 8.88178e-14  Z" fill="#ffffff" fill-rule="evenodd" fill-opacity="1"/>
<defs>
  <clipPath id="clip141">
    <rect x="480" y="0" width="1681" height="1600"/>
  </clipPath>
</defs>
<path clip-path="url(#clip140)" d="M249.542 1423.18 L2352.76 1423.18 L2352.76 47.2441 L249.542 47.2441  Z" fill="#ffffff" fill-rule="evenodd" fill-opacity="1"/>
<defs>
  <clipPath id="clip142">
    <rect x="249" y="47" width="2104" height="1377"/>
  </clipPath>
</defs>
<polyline clip-path="url(#clip142)" style="stroke:#000000; stroke-linecap:round; stroke-linejoin:round; stroke-width:2; stroke-opacity:0.1; fill:none" points="358.671,1423.18 358.671,47.2441 "/>
<polyline clip-path="url(#clip142)" style="stroke:#000000; stroke-linecap:round; stroke-linejoin:round; stroke-width:2; stroke-opacity:0.1; fill:none" points="854.712,1423.18 854.712,47.2441 "/>
<polyline clip-path="url(#clip142)" style="stroke:#000000; stroke-linecap:round; stroke-linejoin:round; stroke-width:2; stroke-opacity:0.1; fill:none" points="1350.75,1423.18 1350.75,47.2441 "/>
<polyline clip-path="url(#clip142)" style="stroke:#000000; stroke-linecap:round; stroke-linejoin:round; stroke-width:2; stroke-opacity:0.1; fill:none" points="1846.79,1423.18 1846.79,47.2441 "/>
<polyline clip-path="url(#clip142)" style="stroke:#000000; stroke-linecap:round; stroke-linejoin:round; stroke-width:2; stroke-opacity:0.1; fill:none" points="2342.84,1423.18 2342.84,47.2441 "/>
<polyline clip-path="url(#clip140)" style="stroke:#000000; stroke-linecap:round; stroke-linejoin:round; stroke-width:4; stroke-opacity:1; fill:none" points="249.542,1423.18 2352.76,1423.18 "/>
<polyline clip-path="url(#clip140)" style="stroke:#000000; stroke-linecap:round; stroke-linejoin:round; stroke-width:4; stroke-opacity:1; fill:none" points="358.671,1423.18 358.671,1404.28 "/>
<polyline clip-path="url(#clip140)" style="stroke:#000000; stroke-linecap:round; stroke-linejoin:round; stroke-width:4; stroke-opacity:1; fill:none" points="854.712,1423.18 854.712,1404.28 "/>
<polyline clip-path="url(#clip140)" style="stroke:#000000; stroke-linecap:round; stroke-linejoin:round; stroke-width:4; stroke-opacity:1; fill:none" points="1350.75,1423.18 1350.75,1404.28 "/>
<polyline clip-path="url(#clip140)" style="stroke:#000000; stroke-linecap:round; stroke-linejoin:round; stroke-width:4; stroke-opacity:1; fill:none" points="1846.79,1423.18 1846.79,1404.28 "/>
<polyline clip-path="url(#clip140)" style="stroke:#000000; stroke-linecap:round; stroke-linejoin:round; stroke-width:4; stroke-opacity:1; fill:none" points="2342.84,1423.18 2342.84,1404.28 "/>
<path clip-path="url(#clip140)" d="M333.359 1481.64 L340.998 1481.64 L340.998 1455.28 L332.687 1456.95 L332.687 1452.69 L340.951 1451.02 L345.627 1451.02 L345.627 1481.64 L353.266 1481.64 L353.266 1485.58 L333.359 1485.58 L333.359 1481.64 Z" fill="#000000" fill-rule="nonzero" fill-opacity="1" /><path clip-path="url(#clip140)" d="M372.71 1454.1 Q369.099 1454.1 367.271 1457.66 Q365.465 1461.2 365.465 1468.33 Q365.465 1475.44 367.271 1479.01 Q369.099 1482.55 372.71 1482.55 Q376.345 1482.55 378.15 1479.01 Q379.979 1475.44 379.979 1468.33 Q379.979 1461.2 378.15 1457.66 Q376.345 1454.1 372.71 1454.1 M372.71 1450.39 Q378.52 1450.39 381.576 1455 Q384.655 1459.58 384.655 1468.33 Q384.655 1477.06 381.576 1481.67 Q378.52 1486.25 372.71 1486.25 Q366.9 1486.25 363.821 1481.67 Q360.766 1477.06 360.766 1468.33 Q360.766 1459.58 363.821 1455 Q366.9 1450.39 372.71 1450.39 Z" fill="#000000" fill-rule="nonzero" fill-opacity="1" /><path clip-path="url(#clip140)" d="M833.485 1481.64 L849.805 1481.64 L849.805 1485.58 L827.86 1485.58 L827.86 1481.64 Q830.522 1478.89 835.106 1474.26 Q839.712 1469.61 840.893 1468.27 Q843.138 1465.74 844.018 1464.01 Q844.92 1462.25 844.92 1460.56 Q844.92 1457.8 842.976 1456.07 Q841.055 1454.33 837.953 1454.33 Q835.754 1454.33 833.3 1455.09 Q830.87 1455.86 828.092 1457.41 L828.092 1452.69 Q830.916 1451.55 833.37 1450.97 Q835.823 1450.39 837.86 1450.39 Q843.231 1450.39 846.425 1453.08 Q849.619 1455.77 849.619 1460.26 Q849.619 1462.39 848.809 1464.31 Q848.022 1466.2 845.916 1468.8 Q845.337 1469.47 842.235 1472.69 Q839.133 1475.88 833.485 1481.64 Z" fill="#000000" fill-rule="nonzero" fill-opacity="1" /><path clip-path="url(#clip140)" d="M869.619 1454.1 Q866.008 1454.1 864.18 1457.66 Q862.374 1461.2 862.374 1468.33 Q862.374 1475.44 864.18 1479.01 Q866.008 1482.55 869.619 1482.55 Q873.254 1482.55 875.059 1479.01 Q876.888 1475.44 876.888 1468.33 Q876.888 1461.2 875.059 1457.66 Q873.254 1454.1 869.619 1454.1 M869.619 1450.39 Q875.43 1450.39 878.485 1455 Q881.564 1459.58 881.564 1468.33 Q881.564 1477.06 878.485 1481.67 Q875.43 1486.25 869.619 1486.25 Q863.809 1486.25 860.731 1481.67 Q857.675 1477.06 857.675 1468.33 Q857.675 1459.58 860.731 1455 Q863.809 1450.39 869.619 1450.39 Z" fill="#000000" fill-rule="nonzero" fill-opacity="1" /><path clip-path="url(#clip140)" d="M1339.6 1466.95 Q1342.95 1467.66 1344.83 1469.93 Q1346.73 1472.2 1346.73 1475.53 Q1346.73 1480.65 1343.21 1483.45 Q1339.69 1486.25 1333.21 1486.25 Q1331.03 1486.25 1328.72 1485.81 Q1326.42 1485.39 1323.97 1484.54 L1323.97 1480.02 Q1325.92 1481.16 1328.23 1481.74 Q1330.54 1482.32 1333.07 1482.32 Q1337.47 1482.32 1339.76 1480.58 Q1342.07 1478.84 1342.07 1475.53 Q1342.07 1472.48 1339.92 1470.77 Q1337.79 1469.03 1333.97 1469.03 L1329.94 1469.03 L1329.94 1465.19 L1334.16 1465.19 Q1337.6 1465.19 1339.43 1463.82 Q1341.26 1462.43 1341.26 1459.84 Q1341.26 1457.18 1339.36 1455.77 Q1337.49 1454.33 1333.97 1454.33 Q1332.05 1454.33 1329.85 1454.75 Q1327.65 1455.16 1325.01 1456.04 L1325.01 1451.88 Q1327.67 1451.14 1329.99 1450.77 Q1332.33 1450.39 1334.39 1450.39 Q1339.71 1450.39 1342.81 1452.83 Q1345.92 1455.23 1345.92 1459.35 Q1345.92 1462.22 1344.27 1464.21 Q1342.63 1466.18 1339.6 1466.95 Z" fill="#000000" fill-rule="nonzero" fill-opacity="1" /><path clip-path="url(#clip140)" d="M1365.59 1454.1 Q1361.98 1454.1 1360.15 1457.66 Q1358.35 1461.2 1358.35 1468.33 Q1358.35 1475.44 1360.15 1479.01 Q1361.98 1482.55 1365.59 1482.55 Q1369.23 1482.55 1371.03 1479.01 Q1372.86 1475.44 1372.86 1468.33 Q1372.86 1461.2 1371.03 1457.66 Q1369.23 1454.1 1365.59 1454.1 M1365.59 1450.39 Q1371.4 1450.39 1374.46 1455 Q1377.54 1459.58 1377.54 1468.33 Q1377.54 1477.06 1374.46 1481.67 Q1371.4 1486.25 1365.59 1486.25 Q1359.78 1486.25 1356.7 1481.67 Q1353.65 1477.06 1353.65 1468.33 Q1353.65 1459.58 1356.7 1455 Q1359.78 1450.39 1365.59 1450.39 Z" fill="#000000" fill-rule="nonzero" fill-opacity="1" /><path clip-path="url(#clip140)" d="M1834.97 1455.09 L1823.16 1473.54 L1834.97 1473.54 L1834.97 1455.09 M1833.74 1451.02 L1839.62 1451.02 L1839.62 1473.54 L1844.55 1473.54 L1844.55 1477.43 L1839.62 1477.43 L1839.62 1485.58 L1834.97 1485.58 L1834.97 1477.43 L1819.36 1477.43 L1819.36 1472.92 L1833.74 1451.02 Z" fill="#000000" fill-rule="nonzero" fill-opacity="1" /><path clip-path="url(#clip140)" d="M1862.28 1454.1 Q1858.67 1454.1 1856.84 1457.66 Q1855.03 1461.2 1855.03 1468.33 Q1855.03 1475.44 1856.84 1479.01 Q1858.67 1482.55 1862.28 1482.55 Q1865.91 1482.55 1867.72 1479.01 Q1869.55 1475.44 1869.55 1468.33 Q1869.55 1461.2 1867.72 1457.66 Q1865.91 1454.1 1862.28 1454.1 M1862.28 1450.39 Q1868.09 1450.39 1871.15 1455 Q1874.22 1459.58 1874.22 1468.33 Q1874.22 1477.06 1871.15 1481.67 Q1868.09 1486.25 1862.28 1486.25 Q1856.47 1486.25 1853.39 1481.67 Q1850.34 1477.06 1850.34 1468.33 Q1850.34 1459.58 1853.39 1455 Q1856.47 1450.39 1862.28 1450.39 Z" fill="#000000" fill-rule="nonzero" fill-opacity="1" /><path clip-path="url(#clip140)" d="M2317.53 1451.02 L2335.89 1451.02 L2335.89 1454.96 L2321.82 1454.96 L2321.82 1463.43 Q2322.84 1463.08 2323.85 1462.92 Q2324.87 1462.73 2325.89 1462.73 Q2331.68 1462.73 2335.06 1465.9 Q2338.44 1469.08 2338.44 1474.49 Q2338.44 1480.07 2334.96 1483.17 Q2331.49 1486.25 2325.17 1486.25 Q2323 1486.25 2320.73 1485.88 Q2318.48 1485.51 2316.08 1484.77 L2316.08 1480.07 Q2318.16 1481.2 2320.38 1481.76 Q2322.6 1482.32 2325.08 1482.32 Q2329.09 1482.32 2331.42 1480.21 Q2333.76 1478.1 2333.76 1474.49 Q2333.76 1470.88 2331.42 1468.77 Q2329.09 1466.67 2325.08 1466.67 Q2323.21 1466.67 2321.33 1467.08 Q2319.48 1467.5 2317.53 1468.38 L2317.53 1451.02 Z" fill="#000000" fill-rule="nonzero" fill-opacity="1" /><path clip-path="url(#clip140)" d="M2357.65 1454.1 Q2354.04 1454.1 2352.21 1457.66 Q2350.4 1461.2 2350.4 1468.33 Q2350.4 1475.44 2352.21 1479.01 Q2354.04 1482.55 2357.65 1482.55 Q2361.28 1482.55 2363.09 1479.01 Q2364.92 1475.44 2364.92 1468.33 Q2364.92 1461.2 2363.09 1457.66 Q2361.28 1454.1 2357.65 1454.1 M2357.65 1450.39 Q2363.46 1450.39 2366.52 1455 Q2369.59 1459.58 2369.59 1468.33 Q2369.59 1477.06 2366.52 1481.67 Q2363.46 1486.25 2357.65 1486.25 Q2351.84 1486.25 2348.76 1481.67 Q2345.71 1477.06 2345.71 1468.33 Q2345.71 1459.58 2348.76 1455 Q2351.84 1450.39 2357.65 1450.39 Z" fill="#000000" fill-rule="nonzero" fill-opacity="1" /><path clip-path="url(#clip140)" d="M858.51 1520.52 L864.939 1520.52 L864.939 1568.04 L858.51 1568.04 L858.51 1520.52 Z" fill="#000000" fill-rule="nonzero" fill-opacity="1" /><path clip-path="url(#clip140)" d="M907.112 1546.53 L907.112 1568.04 L901.255 1568.04 L901.255 1546.72 Q901.255 1541.66 899.282 1539.14 Q897.309 1536.63 893.362 1536.63 Q888.619 1536.63 885.882 1539.65 Q883.145 1542.68 883.145 1547.9 L883.145 1568.04 L877.257 1568.04 L877.257 1532.4 L883.145 1532.4 L883.145 1537.93 Q885.246 1534.72 888.078 1533.13 Q890.943 1531.54 894.667 1531.54 Q900.81 1531.54 903.961 1535.36 Q907.112 1539.14 907.112 1546.53 Z" fill="#000000" fill-rule="nonzero" fill-opacity="1" /><path clip-path="url(#clip140)" d="M944.447 1533.76 L944.447 1539.24 Q941.964 1537.87 939.45 1537.2 Q936.967 1536.5 934.421 1536.5 Q928.723 1536.5 925.572 1540.13 Q922.421 1543.73 922.421 1550.25 Q922.421 1556.78 925.572 1560.4 Q928.723 1564 934.421 1564 Q936.967 1564 939.45 1563.33 Q941.964 1562.63 944.447 1561.26 L944.447 1566.68 Q941.996 1567.82 939.354 1568.39 Q936.744 1568.97 933.784 1568.97 Q925.731 1568.97 920.989 1563.91 Q916.247 1558.85 916.247 1550.25 Q916.247 1541.53 921.021 1536.53 Q925.827 1531.54 934.166 1531.54 Q936.871 1531.54 939.45 1532.11 Q942.028 1532.65 944.447 1533.76 Z" fill="#000000" fill-rule="nonzero" fill-opacity="1" /><path clip-path="url(#clip140)" d="M954.632 1532.4 L960.488 1532.4 L960.488 1568.04 L954.632 1568.04 L954.632 1532.4 M954.632 1518.52 L960.488 1518.52 L960.488 1525.93 L954.632 1525.93 L954.632 1518.52 Z" fill="#000000" fill-rule="nonzero" fill-opacity="1" /><path clip-path="url(#clip140)" d="M996.2 1537.81 L996.2 1518.52 L1002.06 1518.52 L1002.06 1568.04 L996.2 1568.04 L996.2 1562.7 Q994.354 1565.88 991.521 1567.44 Q988.72 1568.97 984.773 1568.97 Q978.312 1568.97 974.238 1563.81 Q970.196 1558.65 970.196 1550.25 Q970.196 1541.85 974.238 1536.69 Q978.312 1531.54 984.773 1531.54 Q988.72 1531.54 991.521 1533.1 Q994.354 1534.62 996.2 1537.81 M976.243 1550.25 Q976.243 1556.71 978.885 1560.4 Q981.559 1564.07 986.206 1564.07 Q990.853 1564.07 993.526 1560.4 Q996.2 1556.71 996.2 1550.25 Q996.2 1543.79 993.526 1540.13 Q990.853 1536.44 986.206 1536.44 Q981.559 1536.44 978.885 1540.13 Q976.243 1543.79 976.243 1550.25 Z" fill="#000000" fill-rule="nonzero" fill-opacity="1" /><path clip-path="url(#clip140)" d="M1044.61 1548.76 L1044.61 1551.62 L1017.68 1551.62 Q1018.07 1557.67 1021.31 1560.85 Q1024.59 1564 1030.42 1564 Q1033.79 1564 1036.94 1563.17 Q1040.12 1562.35 1043.24 1560.69 L1043.24 1566.23 Q1040.09 1567.57 1036.78 1568.27 Q1033.47 1568.97 1030.07 1568.97 Q1021.54 1568.97 1016.54 1564 Q1011.57 1559.04 1011.57 1550.57 Q1011.57 1541.82 1016.28 1536.69 Q1021.03 1531.54 1029.05 1531.54 Q1036.24 1531.54 1040.41 1536.18 Q1044.61 1540.8 1044.61 1548.76 M1038.75 1547.04 Q1038.69 1542.23 1036.05 1539.37 Q1033.44 1536.5 1029.11 1536.5 Q1024.21 1536.5 1021.25 1539.27 Q1018.32 1542.04 1017.88 1547.07 L1038.75 1547.04 Z" fill="#000000" fill-rule="nonzero" fill-opacity="1" /><path clip-path="url(#clip140)" d="M1083.86 1546.53 L1083.86 1568.04 L1078 1568.04 L1078 1546.72 Q1078 1541.66 1076.03 1539.14 Q1074.05 1536.63 1070.11 1536.63 Q1065.36 1536.63 1062.63 1539.65 Q1059.89 1542.68 1059.89 1547.9 L1059.89 1568.04 L1054 1568.04 L1054 1532.4 L1059.89 1532.4 L1059.89 1537.93 Q1061.99 1534.72 1064.82 1533.13 Q1067.69 1531.54 1071.41 1531.54 Q1077.55 1531.54 1080.7 1535.36 Q1083.86 1539.14 1083.86 1546.53 Z" fill="#000000" fill-rule="nonzero" fill-opacity="1" /><path clip-path="url(#clip140)" d="M1121.19 1533.76 L1121.19 1539.24 Q1118.71 1537.87 1116.19 1537.2 Q1113.71 1536.5 1111.16 1536.5 Q1105.47 1536.5 1102.32 1540.13 Q1099.17 1543.73 1099.17 1550.25 Q1099.17 1556.78 1102.32 1560.4 Q1105.47 1564 1111.16 1564 Q1113.71 1564 1116.19 1563.33 Q1118.71 1562.63 1121.19 1561.26 L1121.19 1566.68 Q1118.74 1567.82 1116.1 1568.39 Q1113.49 1568.97 1110.53 1568.97 Q1102.48 1568.97 1097.73 1563.91 Q1092.99 1558.85 1092.99 1550.25 Q1092.99 1541.53 1097.76 1536.53 Q1102.57 1531.54 1110.91 1531.54 Q1113.62 1531.54 1116.19 1532.11 Q1118.77 1532.65 1121.19 1533.76 Z" fill="#000000" fill-rule="nonzero" fill-opacity="1" /><path clip-path="url(#clip140)" d="M1161.87 1548.76 L1161.87 1551.62 L1134.94 1551.62 Q1135.32 1557.67 1138.57 1560.85 Q1141.85 1564 1147.67 1564 Q1151.05 1564 1154.2 1563.17 Q1157.38 1562.35 1160.5 1560.69 L1160.5 1566.23 Q1157.35 1567.57 1154.04 1568.27 Q1150.73 1568.97 1147.32 1568.97 Q1138.79 1568.97 1133.79 1564 Q1128.83 1559.04 1128.83 1550.57 Q1128.83 1541.82 1133.54 1536.69 Q1138.28 1531.54 1146.3 1531.54 Q1153.5 1531.54 1157.67 1536.18 Q1161.87 1540.8 1161.87 1548.76 M1156.01 1547.04 Q1155.95 1542.23 1153.31 1539.37 Q1150.7 1536.5 1146.37 1536.5 Q1141.47 1536.5 1138.51 1539.27 Q1135.58 1542.04 1135.13 1547.07 L1156.01 1547.04 Z" fill="#000000" fill-rule="nonzero" fill-opacity="1" /><path clip-path="url(#clip140)" d="M1219.95 1539.24 Q1222.15 1535.29 1225.21 1533.41 Q1228.26 1531.54 1232.4 1531.54 Q1237.97 1531.54 1240.99 1535.45 Q1244.02 1539.33 1244.02 1546.53 L1244.02 1568.04 L1238.13 1568.04 L1238.13 1546.72 Q1238.13 1541.59 1236.31 1539.11 Q1234.5 1536.63 1230.78 1536.63 Q1226.22 1536.63 1223.58 1539.65 Q1220.94 1542.68 1220.94 1547.9 L1220.94 1568.04 L1215.05 1568.04 L1215.05 1546.72 Q1215.05 1541.56 1213.24 1539.11 Q1211.42 1536.63 1207.64 1536.63 Q1203.15 1536.63 1200.51 1539.68 Q1197.87 1542.71 1197.87 1547.9 L1197.87 1568.04 L1191.98 1568.04 L1191.98 1532.4 L1197.87 1532.4 L1197.87 1537.93 Q1199.87 1534.66 1202.67 1533.1 Q1205.47 1531.54 1209.32 1531.54 Q1213.21 1531.54 1215.91 1533.51 Q1218.65 1535.48 1219.95 1539.24 Z" fill="#000000" fill-rule="nonzero" fill-opacity="1" /><path clip-path="url(#clip140)" d="M1269.51 1536.5 Q1264.8 1536.5 1262.06 1540.19 Q1259.33 1543.85 1259.33 1550.25 Q1259.33 1556.65 1262.03 1560.34 Q1264.77 1564 1269.51 1564 Q1274.19 1564 1276.93 1560.31 Q1279.66 1556.62 1279.66 1550.25 Q1279.66 1543.92 1276.93 1540.23 Q1274.19 1536.5 1269.51 1536.5 M1269.51 1531.54 Q1277.15 1531.54 1281.51 1536.5 Q1285.87 1541.47 1285.87 1550.25 Q1285.87 1559 1281.51 1564 Q1277.15 1568.97 1269.51 1568.97 Q1261.84 1568.97 1257.48 1564 Q1253.15 1559 1253.15 1550.25 Q1253.15 1541.47 1257.48 1536.5 Q1261.84 1531.54 1269.51 1531.54 Z" fill="#000000" fill-rule="nonzero" fill-opacity="1" /><path clip-path="url(#clip140)" d="M1323.33 1539.24 Q1325.53 1535.29 1328.59 1533.41 Q1331.64 1531.54 1335.78 1531.54 Q1341.35 1531.54 1344.37 1535.45 Q1347.4 1539.33 1347.4 1546.53 L1347.4 1568.04 L1341.51 1568.04 L1341.51 1546.72 Q1341.51 1541.59 1339.69 1539.11 Q1337.88 1536.63 1334.16 1536.63 Q1329.6 1536.63 1326.96 1539.65 Q1324.32 1542.68 1324.32 1547.9 L1324.32 1568.04 L1318.43 1568.04 L1318.43 1546.72 Q1318.43 1541.56 1316.62 1539.11 Q1314.8 1536.63 1311.02 1536.63 Q1306.53 1536.63 1303.89 1539.68 Q1301.24 1542.71 1301.24 1547.9 L1301.24 1568.04 L1295.36 1568.04 L1295.36 1532.4 L1301.24 1532.4 L1301.24 1537.93 Q1303.25 1534.66 1306.05 1533.1 Q1308.85 1531.54 1312.7 1531.54 Q1316.59 1531.54 1319.29 1533.51 Q1322.03 1535.48 1323.33 1539.24 Z" fill="#000000" fill-rule="nonzero" fill-opacity="1" /><path clip-path="url(#clip140)" d="M1389.57 1548.76 L1389.57 1551.62 L1362.64 1551.62 Q1363.02 1557.67 1366.27 1560.85 Q1369.55 1564 1375.37 1564 Q1378.75 1564 1381.9 1563.17 Q1385.08 1562.35 1388.2 1560.69 L1388.2 1566.23 Q1385.05 1567.57 1381.74 1568.27 Q1378.43 1568.97 1375.02 1568.97 Q1366.49 1568.97 1361.5 1564 Q1356.53 1559.04 1356.53 1550.57 Q1356.53 1541.82 1361.24 1536.69 Q1365.98 1531.54 1374 1531.54 Q1381.2 1531.54 1385.37 1536.18 Q1389.57 1540.8 1389.57 1548.76 M1383.71 1547.04 Q1383.65 1542.23 1381.01 1539.37 Q1378.4 1536.5 1374.07 1536.5 Q1369.17 1536.5 1366.21 1539.27 Q1363.28 1542.04 1362.83 1547.07 L1383.71 1547.04 Z" fill="#000000" fill-rule="nonzero" fill-opacity="1" /><path clip-path="url(#clip140)" d="M1428.81 1546.53 L1428.81 1568.04 L1422.96 1568.04 L1422.96 1546.72 Q1422.96 1541.66 1420.98 1539.14 Q1419.01 1536.63 1415.06 1536.63 Q1410.32 1536.63 1407.58 1539.65 Q1404.85 1542.68 1404.85 1547.9 L1404.85 1568.04 L1398.96 1568.04 L1398.96 1532.4 L1404.85 1532.4 L1404.85 1537.93 Q1406.95 1534.72 1409.78 1533.13 Q1412.64 1531.54 1416.37 1531.54 Q1422.51 1531.54 1425.66 1535.36 Q1428.81 1539.14 1428.81 1546.53 Z" fill="#000000" fill-rule="nonzero" fill-opacity="1" /><path clip-path="url(#clip140)" d="M1446.29 1522.27 L1446.29 1532.4 L1458.35 1532.4 L1458.35 1536.95 L1446.29 1536.95 L1446.29 1556.3 Q1446.29 1560.66 1447.46 1561.9 Q1448.67 1563.14 1452.33 1563.14 L1458.35 1563.14 L1458.35 1568.04 L1452.33 1568.04 Q1445.56 1568.04 1442.98 1565.53 Q1440.4 1562.98 1440.4 1556.3 L1440.4 1536.95 L1436.1 1536.95 L1436.1 1532.4 L1440.4 1532.4 L1440.4 1522.27 L1446.29 1522.27 Z" fill="#000000" fill-rule="nonzero" fill-opacity="1" /><path clip-path="url(#clip140)" d="M1465.45 1553.98 L1465.45 1532.4 L1471.3 1532.4 L1471.3 1553.75 Q1471.3 1558.81 1473.28 1561.36 Q1475.25 1563.87 1479.2 1563.87 Q1483.94 1563.87 1486.68 1560.85 Q1489.45 1557.83 1489.45 1552.61 L1489.45 1532.4 L1495.3 1532.4 L1495.3 1568.04 L1489.45 1568.04 L1489.45 1562.57 Q1487.31 1565.82 1484.48 1567.41 Q1481.68 1568.97 1477.96 1568.97 Q1471.81 1568.97 1468.63 1565.15 Q1465.45 1561.33 1465.45 1553.98 M1480.18 1531.54 L1480.18 1531.54 Z" fill="#000000" fill-rule="nonzero" fill-opacity="1" /><path clip-path="url(#clip140)" d="M1535.12 1539.24 Q1537.32 1535.29 1540.37 1533.41 Q1543.43 1531.54 1547.57 1531.54 Q1553.14 1531.54 1556.16 1535.45 Q1559.18 1539.33 1559.18 1546.53 L1559.18 1568.04 L1553.29 1568.04 L1553.29 1546.72 Q1553.29 1541.59 1551.48 1539.11 Q1549.67 1536.63 1545.94 1536.63 Q1541.39 1536.63 1538.75 1539.65 Q1536.11 1542.68 1536.11 1547.9 L1536.11 1568.04 L1530.22 1568.04 L1530.22 1546.72 Q1530.22 1541.56 1528.4 1539.11 Q1526.59 1536.63 1522.8 1536.63 Q1518.32 1536.63 1515.67 1539.68 Q1513.03 1542.71 1513.03 1547.9 L1513.03 1568.04 L1507.14 1568.04 L1507.14 1532.4 L1513.03 1532.4 L1513.03 1537.93 Q1515.04 1534.66 1517.84 1533.1 Q1520.64 1531.54 1524.49 1531.54 Q1528.37 1531.54 1531.08 1533.51 Q1533.82 1535.48 1535.12 1539.24 Z" fill="#000000" fill-rule="nonzero" fill-opacity="1" /><path clip-path="url(#clip140)" d="M1601.99 1520.52 L1607.4 1520.52 L1590.85 1574.09 L1585.44 1574.09 L1601.99 1520.52 Z" fill="#000000" fill-rule="nonzero" fill-opacity="1" /><path clip-path="url(#clip140)" d="M1650.47 1550.12 Q1643.37 1550.12 1640.63 1551.75 Q1637.89 1553.37 1637.89 1557.29 Q1637.89 1560.4 1639.93 1562.25 Q1642 1564.07 1645.53 1564.07 Q1650.4 1564.07 1653.33 1560.63 Q1656.29 1557.16 1656.29 1551.43 L1656.29 1550.12 L1650.47 1550.12 M1662.15 1547.71 L1662.15 1568.04 L1656.29 1568.04 L1656.29 1562.63 Q1654.29 1565.88 1651.29 1567.44 Q1648.3 1568.97 1643.97 1568.97 Q1638.5 1568.97 1635.25 1565.91 Q1632.04 1562.82 1632.04 1557.67 Q1632.04 1551.65 1636.05 1548.6 Q1640.09 1545.54 1648.08 1545.54 L1656.29 1545.54 L1656.29 1544.97 Q1656.29 1540.93 1653.62 1538.73 Q1650.98 1536.5 1646.17 1536.5 Q1643.11 1536.5 1640.22 1537.23 Q1637.32 1537.97 1634.65 1539.43 L1634.65 1534.02 Q1637.86 1532.78 1640.89 1532.17 Q1643.91 1531.54 1646.78 1531.54 Q1654.51 1531.54 1658.33 1535.55 Q1662.15 1539.56 1662.15 1547.71 Z" fill="#000000" fill-rule="nonzero" fill-opacity="1" /><path clip-path="url(#clip140)" d="M1675.04 1559.96 L1681.75 1559.96 L1681.75 1568.04 L1675.04 1568.04 L1675.04 1559.96 Z" fill="#000000" fill-rule="nonzero" fill-opacity="1" /><path clip-path="url(#clip140)" d="M1694.33 1553.98 L1694.33 1532.4 L1700.18 1532.4 L1700.18 1553.75 Q1700.18 1558.81 1702.16 1561.36 Q1704.13 1563.87 1708.08 1563.87 Q1712.82 1563.87 1715.56 1560.85 Q1718.33 1557.83 1718.33 1552.61 L1718.33 1532.4 L1724.18 1532.4 L1724.18 1568.04 L1718.33 1568.04 L1718.33 1562.57 Q1716.19 1565.82 1713.36 1567.41 Q1710.56 1568.97 1706.84 1568.97 Q1700.69 1568.97 1697.51 1565.15 Q1694.33 1561.33 1694.33 1553.98 M1709.06 1531.54 L1709.06 1531.54 Z" fill="#000000" fill-rule="nonzero" fill-opacity="1" /><path clip-path="url(#clip140)" d="M1737.07 1559.96 L1743.79 1559.96 L1743.79 1568.04 L1737.07 1568.04 L1737.07 1559.96 Z" fill="#000000" fill-rule="nonzero" fill-opacity="1" /><polyline clip-path="url(#clip142)" style="stroke:#000000; stroke-linecap:round; stroke-linejoin:round; stroke-width:2; stroke-opacity:0.1; fill:none" points="249.542,1384.24 2352.76,1384.24 "/>
<polyline clip-path="url(#clip142)" style="stroke:#000000; stroke-linecap:round; stroke-linejoin:round; stroke-width:2; stroke-opacity:0.1; fill:none" points="249.542,1059.73 2352.76,1059.73 "/>
<polyline clip-path="url(#clip142)" style="stroke:#000000; stroke-linecap:round; stroke-linejoin:round; stroke-width:2; stroke-opacity:0.1; fill:none" points="249.542,735.212 2352.76,735.212 "/>
<polyline clip-path="url(#clip142)" style="stroke:#000000; stroke-linecap:round; stroke-linejoin:round; stroke-width:2; stroke-opacity:0.1; fill:none" points="249.542,410.699 2352.76,410.699 "/>
<polyline clip-path="url(#clip142)" style="stroke:#000000; stroke-linecap:round; stroke-linejoin:round; stroke-width:2; stroke-opacity:0.1; fill:none" points="249.542,86.1857 2352.76,86.1857 "/>
<polyline clip-path="url(#clip140)" style="stroke:#000000; stroke-linecap:round; stroke-linejoin:round; stroke-width:4; stroke-opacity:1; fill:none" points="249.542,1423.18 249.542,47.2441 "/>
<polyline clip-path="url(#clip140)" style="stroke:#000000; stroke-linecap:round; stroke-linejoin:round; stroke-width:4; stroke-opacity:1; fill:none" points="249.542,1384.24 268.44,1384.24 "/>
<polyline clip-path="url(#clip140)" style="stroke:#000000; stroke-linecap:round; stroke-linejoin:round; stroke-width:4; stroke-opacity:1; fill:none" points="249.542,1059.73 268.44,1059.73 "/>
<polyline clip-path="url(#clip140)" style="stroke:#000000; stroke-linecap:round; stroke-linejoin:round; stroke-width:4; stroke-opacity:1; fill:none" points="249.542,735.212 268.44,735.212 "/>
<polyline clip-path="url(#clip140)" style="stroke:#000000; stroke-linecap:round; stroke-linejoin:round; stroke-width:4; stroke-opacity:1; fill:none" points="249.542,410.699 268.44,410.699 "/>
<polyline clip-path="url(#clip140)" style="stroke:#000000; stroke-linecap:round; stroke-linejoin:round; stroke-width:4; stroke-opacity:1; fill:none" points="249.542,86.1857 268.44,86.1857 "/>
<path clip-path="url(#clip140)" d="M126.205 1370.04 Q122.593 1370.04 120.765 1373.6 Q118.959 1377.14 118.959 1384.27 Q118.959 1391.38 120.765 1394.94 Q122.593 1398.49 126.205 1398.49 Q129.839 1398.49 131.644 1394.94 Q133.473 1391.38 133.473 1384.27 Q133.473 1377.14 131.644 1373.6 Q129.839 1370.04 126.205 1370.04 M126.205 1366.33 Q132.015 1366.33 135.07 1370.94 Q138.149 1375.52 138.149 1384.27 Q138.149 1393 135.07 1397.61 Q132.015 1402.19 126.205 1402.19 Q120.394 1402.19 117.316 1397.61 Q114.26 1393 114.26 1384.27 Q114.26 1375.52 117.316 1370.94 Q120.394 1366.33 126.205 1366.33 Z" fill="#000000" fill-rule="nonzero" fill-opacity="1" /><path clip-path="url(#clip140)" d="M146.366 1395.64 L151.251 1395.64 L151.251 1401.52 L146.366 1401.52 L146.366 1395.64 Z" fill="#000000" fill-rule="nonzero" fill-opacity="1" /><path clip-path="url(#clip140)" d="M171.436 1370.04 Q167.825 1370.04 165.996 1373.6 Q164.19 1377.14 164.19 1384.27 Q164.19 1391.38 165.996 1394.94 Q167.825 1398.49 171.436 1398.49 Q175.07 1398.49 176.876 1394.94 Q178.704 1391.38 178.704 1384.27 Q178.704 1377.14 176.876 1373.6 Q175.07 1370.04 171.436 1370.04 M171.436 1366.33 Q177.246 1366.33 180.301 1370.94 Q183.38 1375.52 183.38 1384.27 Q183.38 1393 180.301 1397.61 Q177.246 1402.19 171.436 1402.19 Q165.626 1402.19 162.547 1397.61 Q159.491 1393 159.491 1384.27 Q159.491 1375.52 162.547 1370.94 Q165.626 1366.33 171.436 1366.33 Z" fill="#000000" fill-rule="nonzero" fill-opacity="1" /><path clip-path="url(#clip140)" d="M201.598 1370.04 Q197.987 1370.04 196.158 1373.6 Q194.352 1377.14 194.352 1384.27 Q194.352 1391.38 196.158 1394.94 Q197.987 1398.49 201.598 1398.49 Q205.232 1398.49 207.037 1394.94 Q208.866 1391.38 208.866 1384.27 Q208.866 1377.14 207.037 1373.6 Q205.232 1370.04 201.598 1370.04 M201.598 1366.33 Q207.408 1366.33 210.463 1370.94 Q213.542 1375.52 213.542 1384.27 Q213.542 1393 210.463 1397.61 Q207.408 1402.19 201.598 1402.19 Q195.787 1402.19 192.709 1397.61 Q189.653 1393 189.653 1384.27 Q189.653 1375.52 192.709 1370.94 Q195.787 1366.33 201.598 1366.33 Z" fill="#000000" fill-rule="nonzero" fill-opacity="1" /><path clip-path="url(#clip140)" d="M127.2 1045.52 Q123.589 1045.52 121.76 1049.09 Q119.955 1052.63 119.955 1059.76 Q119.955 1066.87 121.76 1070.43 Q123.589 1073.97 127.2 1073.97 Q130.834 1073.97 132.64 1070.43 Q134.468 1066.87 134.468 1059.76 Q134.468 1052.63 132.64 1049.09 Q130.834 1045.52 127.2 1045.52 M127.2 1041.82 Q133.01 1041.82 136.066 1046.43 Q139.144 1051.01 139.144 1059.76 Q139.144 1068.49 136.066 1073.09 Q133.01 1077.68 127.2 1077.68 Q121.39 1077.68 118.311 1073.09 Q115.256 1068.49 115.256 1059.76 Q115.256 1051.01 118.311 1046.43 Q121.39 1041.82 127.2 1041.82 Z" fill="#000000" fill-rule="nonzero" fill-opacity="1" /><path clip-path="url(#clip140)" d="M147.362 1071.13 L152.246 1071.13 L152.246 1077.01 L147.362 1077.01 L147.362 1071.13 Z" fill="#000000" fill-rule="nonzero" fill-opacity="1" /><path clip-path="url(#clip140)" d="M166.459 1073.07 L182.778 1073.07 L182.778 1077.01 L160.834 1077.01 L160.834 1073.07 Q163.496 1070.32 168.079 1065.69 Q172.686 1061.03 173.866 1059.69 Q176.112 1057.17 176.991 1055.43 Q177.894 1053.67 177.894 1051.98 Q177.894 1049.23 175.95 1047.49 Q174.028 1045.76 170.927 1045.76 Q168.727 1045.76 166.274 1046.52 Q163.843 1047.28 161.065 1048.83 L161.065 1044.11 Q163.89 1042.98 166.343 1042.4 Q168.797 1041.82 170.834 1041.82 Q176.204 1041.82 179.399 1044.51 Q182.593 1047.19 182.593 1051.68 Q182.593 1053.81 181.783 1055.73 Q180.996 1057.63 178.889 1060.22 Q178.311 1060.89 175.209 1064.11 Q172.107 1067.31 166.459 1073.07 Z" fill="#000000" fill-rule="nonzero" fill-opacity="1" /><path clip-path="url(#clip140)" d="M192.639 1042.45 L210.996 1042.45 L210.996 1046.38 L196.922 1046.38 L196.922 1054.85 Q197.94 1054.51 198.959 1054.34 Q199.977 1054.16 200.996 1054.16 Q206.783 1054.16 210.162 1057.33 Q213.542 1060.5 213.542 1065.92 Q213.542 1071.5 210.07 1074.6 Q206.598 1077.68 200.278 1077.68 Q198.102 1077.68 195.834 1077.31 Q193.588 1076.94 191.181 1076.19 L191.181 1071.5 Q193.264 1072.63 195.487 1073.19 Q197.709 1073.74 200.186 1073.74 Q204.19 1073.74 206.528 1071.63 Q208.866 1069.53 208.866 1065.92 Q208.866 1062.31 206.528 1060.2 Q204.19 1058.09 200.186 1058.09 Q198.311 1058.09 196.436 1058.51 Q194.584 1058.93 192.639 1059.81 L192.639 1042.45 Z" fill="#000000" fill-rule="nonzero" fill-opacity="1" /><path clip-path="url(#clip140)" d="M126.205 721.011 Q122.593 721.011 120.765 724.575 Q118.959 728.117 118.959 735.247 Q118.959 742.353 120.765 745.918 Q122.593 749.46 126.205 749.46 Q129.839 749.46 131.644 745.918 Q133.473 742.353 133.473 735.247 Q133.473 728.117 131.644 724.575 Q129.839 721.011 126.205 721.011 M126.205 717.307 Q132.015 717.307 135.07 721.913 Q138.149 726.497 138.149 735.247 Q138.149 743.973 135.07 748.58 Q132.015 753.163 126.205 753.163 Q120.394 753.163 117.316 748.58 Q114.26 743.973 114.26 735.247 Q114.26 726.497 117.316 721.913 Q120.394 717.307 126.205 717.307 Z" fill="#000000" fill-rule="nonzero" fill-opacity="1" /><path clip-path="url(#clip140)" d="M146.366 746.612 L151.251 746.612 L151.251 752.492 L146.366 752.492 L146.366 746.612 Z" fill="#000000" fill-rule="nonzero" fill-opacity="1" /><path clip-path="url(#clip140)" d="M161.482 717.932 L179.839 717.932 L179.839 721.867 L165.765 721.867 L165.765 730.339 Q166.783 729.992 167.802 729.83 Q168.82 729.645 169.839 729.645 Q175.626 729.645 179.005 732.816 Q182.385 735.987 182.385 741.404 Q182.385 746.983 178.913 750.085 Q175.44 753.163 169.121 753.163 Q166.945 753.163 164.677 752.793 Q162.431 752.423 160.024 751.682 L160.024 746.983 Q162.107 748.117 164.329 748.673 Q166.552 749.228 169.028 749.228 Q173.033 749.228 175.371 747.122 Q177.709 745.015 177.709 741.404 Q177.709 737.793 175.371 735.687 Q173.033 733.58 169.028 733.58 Q167.153 733.58 165.278 733.997 Q163.427 734.413 161.482 735.293 L161.482 717.932 Z" fill="#000000" fill-rule="nonzero" fill-opacity="1" /><path clip-path="url(#clip140)" d="M201.598 721.011 Q197.987 721.011 196.158 724.575 Q194.352 728.117 194.352 735.247 Q194.352 742.353 196.158 745.918 Q197.987 749.46 201.598 749.46 Q205.232 749.46 207.037 745.918 Q208.866 742.353 208.866 735.247 Q208.866 728.117 207.037 724.575 Q205.232 721.011 201.598 721.011 M201.598 717.307 Q207.408 717.307 210.463 721.913 Q213.542 726.497 213.542 735.247 Q213.542 743.973 210.463 748.58 Q207.408 753.163 201.598 753.163 Q195.787 753.163 192.709 748.58 Q189.653 743.973 189.653 735.247 Q189.653 726.497 192.709 721.913 Q195.787 717.307 201.598 717.307 Z" fill="#000000" fill-rule="nonzero" fill-opacity="1" /><path clip-path="url(#clip140)" d="M127.2 396.498 Q123.589 396.498 121.76 400.062 Q119.955 403.604 119.955 410.734 Q119.955 417.84 121.76 421.405 Q123.589 424.946 127.2 424.946 Q130.834 424.946 132.64 421.405 Q134.468 417.84 134.468 410.734 Q134.468 403.604 132.64 400.062 Q130.834 396.498 127.2 396.498 M127.2 392.794 Q133.01 392.794 136.066 397.4 Q139.144 401.984 139.144 410.734 Q139.144 419.46 136.066 424.067 Q133.01 428.65 127.2 428.65 Q121.39 428.65 118.311 424.067 Q115.256 419.46 115.256 410.734 Q115.256 401.984 118.311 397.4 Q121.39 392.794 127.2 392.794 Z" fill="#000000" fill-rule="nonzero" fill-opacity="1" /><path clip-path="url(#clip140)" d="M147.362 422.099 L152.246 422.099 L152.246 427.979 L147.362 427.979 L147.362 422.099 Z" fill="#000000" fill-rule="nonzero" fill-opacity="1" /><path clip-path="url(#clip140)" d="M161.251 393.419 L183.473 393.419 L183.473 395.41 L170.927 427.979 L166.042 427.979 L177.848 397.354 L161.251 397.354 L161.251 393.419 Z" fill="#000000" fill-rule="nonzero" fill-opacity="1" /><path clip-path="url(#clip140)" d="M192.639 393.419 L210.996 393.419 L210.996 397.354 L196.922 397.354 L196.922 405.826 Q197.94 405.479 198.959 405.317 Q199.977 405.132 200.996 405.132 Q206.783 405.132 210.162 408.303 Q213.542 411.474 213.542 416.891 Q213.542 422.47 210.07 425.571 Q206.598 428.65 200.278 428.65 Q198.102 428.65 195.834 428.28 Q193.588 427.909 191.181 427.169 L191.181 422.47 Q193.264 423.604 195.487 424.159 Q197.709 424.715 200.186 424.715 Q204.19 424.715 206.528 422.608 Q208.866 420.502 208.866 416.891 Q208.866 413.28 206.528 411.173 Q204.19 409.067 200.186 409.067 Q198.311 409.067 196.436 409.484 Q194.584 409.9 192.639 410.78 L192.639 393.419 Z" fill="#000000" fill-rule="nonzero" fill-opacity="1" /><path clip-path="url(#clip140)" d="M117.015 99.5305 L124.654 99.5305 L124.654 73.1649 L116.343 74.8316 L116.343 70.5723 L124.607 68.9057 L129.283 68.9057 L129.283 99.5305 L136.922 99.5305 L136.922 103.466 L117.015 103.466 L117.015 99.5305 Z" fill="#000000" fill-rule="nonzero" fill-opacity="1" /><path clip-path="url(#clip140)" d="M146.366 97.5861 L151.251 97.5861 L151.251 103.466 L146.366 103.466 L146.366 97.5861 Z" fill="#000000" fill-rule="nonzero" fill-opacity="1" /><path clip-path="url(#clip140)" d="M171.436 71.9844 Q167.825 71.9844 165.996 75.5492 Q164.19 79.0908 164.19 86.2204 Q164.19 93.3268 165.996 96.8916 Q167.825 100.433 171.436 100.433 Q175.07 100.433 176.876 96.8916 Q178.704 93.3268 178.704 86.2204 Q178.704 79.0908 176.876 75.5492 Q175.07 71.9844 171.436 71.9844 M171.436 68.2807 Q177.246 68.2807 180.301 72.8871 Q183.38 77.4704 183.38 86.2204 Q183.38 94.9472 180.301 99.5537 Q177.246 104.137 171.436 104.137 Q165.626 104.137 162.547 99.5537 Q159.491 94.9472 159.491 86.2204 Q159.491 77.4704 162.547 72.8871 Q165.626 68.2807 171.436 68.2807 Z" fill="#000000" fill-rule="nonzero" fill-opacity="1" /><path clip-path="url(#clip140)" d="M201.598 71.9844 Q197.987 71.9844 196.158 75.5492 Q194.352 79.0908 194.352 86.2204 Q194.352 93.3268 196.158 96.8916 Q197.987 100.433 201.598 100.433 Q205.232 100.433 207.037 96.8916 Q208.866 93.3268 208.866 86.2204 Q208.866 79.0908 207.037 75.5492 Q205.232 71.9844 201.598 71.9844 M201.598 68.2807 Q207.408 68.2807 210.463 72.8871 Q213.542 77.4704 213.542 86.2204 Q213.542 94.9472 210.463 99.5537 Q207.408 104.137 201.598 104.137 Q195.787 104.137 192.709 99.5537 Q189.653 94.9472 189.653 86.2204 Q189.653 77.4704 192.709 72.8871 Q195.787 68.2807 201.598 68.2807 Z" fill="#000000" fill-rule="nonzero" fill-opacity="1" /><path clip-path="url(#clip140)" d="M18.0438 1053.75 L24.314 1053.75 Q22.5634 1057.41 21.704 1060.66 Q20.8447 1063.91 20.8447 1066.93 Q20.8447 1072.18 22.8817 1075.05 Q24.9187 1077.88 28.6745 1077.88 Q31.8255 1077.88 33.4488 1076 Q35.0402 1074.09 36.0269 1068.81 L36.8226 1064.92 Q38.1912 1057.73 41.6605 1054.32 Q45.098 1050.89 50.8908 1050.89 Q57.7976 1050.89 61.3624 1055.53 Q64.9272 1060.15 64.9272 1069.09 Q64.9272 1072.47 64.1633 1076.29 Q63.3994 1080.07 61.9035 1084.15 L55.2831 1084.15 Q57.4793 1080.23 58.5933 1076.48 Q59.7073 1072.72 59.7073 1069.09 Q59.7073 1063.59 57.543 1060.6 Q55.3786 1057.6 51.3682 1057.6 Q47.8671 1057.6 45.8937 1059.77 Q43.9204 1061.9 42.9337 1066.8 L42.1698 1070.72 Q40.7375 1077.91 37.682 1081.12 Q34.6264 1084.34 29.1837 1084.34 Q22.8817 1084.34 19.2532 1079.91 Q15.6248 1075.46 15.6248 1067.66 Q15.6248 1064.32 16.2295 1060.85 Q16.8343 1057.38 18.0438 1053.75 Z" fill="#000000" fill-rule="nonzero" fill-opacity="1" /><path clip-path="url(#clip140)" d="M29.7248 1015.46 L35.1993 1015.46 Q33.8307 1017.94 33.1623 1020.46 Q32.4621 1022.94 32.4621 1025.49 Q32.4621 1031.19 36.0905 1034.34 Q39.6872 1037.49 46.212 1037.49 Q52.7369 1037.49 56.3653 1034.34 Q59.9619 1031.19 59.9619 1025.49 Q59.9619 1022.94 59.2935 1020.46 Q58.5933 1017.94 57.2247 1015.46 L62.6355 1015.46 Q63.7814 1017.91 64.3543 1020.55 Q64.9272 1023.16 64.9272 1026.12 Q64.9272 1034.18 59.8664 1038.92 Q54.8057 1043.66 46.212 1043.66 Q37.491 1043.66 32.4939 1038.89 Q27.4968 1034.08 27.4968 1025.74 Q27.4968 1023.04 28.0697 1020.46 Q28.6108 1017.88 29.7248 1015.46 Z" fill="#000000" fill-rule="nonzero" fill-opacity="1" /><path clip-path="url(#clip140)" d="M46.0847 989.076 Q46.0847 996.174 47.7079 998.911 Q49.3312 1001.65 53.2461 1001.65 Q56.3653 1001.65 58.2114 999.612 Q60.0256 997.543 60.0256 994.01 Q60.0256 989.14 56.5881 986.212 Q53.1188 983.252 47.3897 983.252 L46.0847 983.252 L46.0847 989.076 M43.6657 977.395 L64.0042 977.395 L64.0042 983.252 L58.5933 983.252 Q61.8398 985.257 63.3994 988.249 Q64.9272 991.241 64.9272 995.569 Q64.9272 1001.04 61.8716 1004.29 Q58.7843 1007.51 53.6281 1007.51 Q47.6125 1007.51 44.5569 1003.49 Q41.5014 999.452 41.5014 991.463 L41.5014 983.252 L40.9285 983.252 Q36.8862 983.252 34.6901 985.925 Q32.4621 988.567 32.4621 993.373 Q32.4621 996.429 33.1941 999.325 Q33.9262 1002.22 35.3903 1004.9 L29.9795 1004.9 Q28.7381 1001.68 28.1334 998.657 Q27.4968 995.633 27.4968 992.768 Q27.4968 985.034 31.5072 981.215 Q35.5176 977.395 43.6657 977.395 Z" fill="#000000" fill-rule="nonzero" fill-opacity="1" /><path clip-path="url(#clip140)" d="M18.2347 959.539 L28.3562 959.539 L28.3562 947.476 L32.9077 947.476 L32.9077 959.539 L52.2594 959.539 Q56.6199 959.539 57.8613 958.362 Q59.1026 957.152 59.1026 953.492 L59.1026 947.476 L64.0042 947.476 L64.0042 953.492 Q64.0042 960.272 61.4897 962.85 Q58.9434 965.428 52.2594 965.428 L32.9077 965.428 L32.9077 969.725 L28.3562 969.725 L28.3562 965.428 L18.2347 965.428 L18.2347 959.539 Z" fill="#000000" fill-rule="nonzero" fill-opacity="1" /><path clip-path="url(#clip140)" d="M18.2347 933.981 L28.3562 933.981 L28.3562 921.918 L32.9077 921.918 L32.9077 933.981 L52.2594 933.981 Q56.6199 933.981 57.8613 932.804 Q59.1026 931.594 59.1026 927.934 L59.1026 921.918 L64.0042 921.918 L64.0042 927.934 Q64.0042 934.713 61.4897 937.291 Q58.9434 939.869 52.2594 939.869 L32.9077 939.869 L32.9077 944.166 L28.3562 944.166 L28.3562 939.869 L18.2347 939.869 L18.2347 933.981 Z" fill="#000000" fill-rule="nonzero" fill-opacity="1" /><path clip-path="url(#clip140)" d="M44.7161 883.724 L47.5806 883.724 L47.5806 910.651 Q53.6281 910.269 56.8109 907.022 Q59.9619 903.744 59.9619 897.919 Q59.9619 894.546 59.1344 891.395 Q58.3069 888.212 56.6518 885.093 L62.1899 885.093 Q63.5267 888.244 64.227 891.554 Q64.9272 894.864 64.9272 898.27 Q64.9272 906.8 59.9619 911.797 Q54.9967 916.762 46.5303 916.762 Q37.7774 916.762 32.6531 912.051 Q27.4968 907.309 27.4968 899.288 Q27.4968 892.095 32.1438 887.925 Q36.7589 883.724 44.7161 883.724 M42.9973 889.58 Q38.1912 889.644 35.3266 892.286 Q32.4621 894.896 32.4621 899.224 Q32.4621 904.126 35.2312 907.086 Q38.0002 910.014 43.0292 910.46 L42.9973 889.58 Z" fill="#000000" fill-rule="nonzero" fill-opacity="1" /><path clip-path="url(#clip140)" d="M33.8307 853.455 Q33.2578 854.442 33.0032 855.619 Q32.7167 856.765 32.7167 858.166 Q32.7167 863.131 35.9632 865.804 Q39.1779 868.446 45.2253 868.446 L64.0042 868.446 L64.0042 874.334 L28.3562 874.334 L28.3562 868.446 L33.8944 868.446 Q30.6479 866.6 29.0883 863.64 Q27.4968 860.68 27.4968 856.447 Q27.4968 855.842 27.5923 855.11 Q27.656 854.378 27.8151 853.487 L33.8307 853.455 Z" fill="#000000" fill-rule="nonzero" fill-opacity="1" /><path clip-path="url(#clip140)" d="M28.3562 847.312 L28.3562 841.456 L64.0042 841.456 L64.0042 847.312 L28.3562 847.312 M14.479 847.312 L14.479 841.456 L21.895 841.456 L21.895 847.312 L14.479 847.312 Z" fill="#000000" fill-rule="nonzero" fill-opacity="1" /><path clip-path="url(#clip140)" d="M42.4881 799.569 L64.0042 799.569 L64.0042 805.426 L42.679 805.426 Q37.6183 805.426 35.1038 807.399 Q32.5894 809.372 32.5894 813.319 Q32.5894 818.062 35.6131 820.799 Q38.6368 823.536 43.8567 823.536 L64.0042 823.536 L64.0042 829.424 L28.3562 829.424 L28.3562 823.536 L33.8944 823.536 Q30.6797 821.435 29.0883 818.603 Q27.4968 815.738 27.4968 812.014 Q27.4968 805.871 31.3163 802.72 Q35.1038 799.569 42.4881 799.569 Z" fill="#000000" fill-rule="nonzero" fill-opacity="1" /><path clip-path="url(#clip140)" d="M45.7664 764.431 Q39.4007 764.431 35.8996 767.072 Q32.3984 769.682 32.3984 774.425 Q32.3984 779.135 35.8996 781.777 Q39.4007 784.387 45.7664 784.387 Q52.1003 784.387 55.6014 781.777 Q59.1026 779.135 59.1026 774.425 Q59.1026 769.682 55.6014 767.072 Q52.1003 764.431 45.7664 764.431 M59.58 758.574 Q68.683 758.574 73.1071 762.616 Q77.5631 766.659 77.5631 774.998 Q77.5631 778.085 77.0857 780.822 Q76.6401 783.56 75.6852 786.138 L69.9879 786.138 Q71.3884 783.56 72.0568 781.045 Q72.7252 778.531 72.7252 775.921 Q72.7252 770.16 69.7015 767.295 Q66.7096 764.431 60.6303 764.431 L57.7339 764.431 Q60.885 766.245 62.4446 769.078 Q64.0042 771.91 64.0042 775.857 Q64.0042 782.414 59.0071 786.424 Q54.01 790.434 45.7664 790.434 Q37.491 790.434 32.4939 786.424 Q27.4968 782.414 27.4968 775.857 Q27.4968 771.91 29.0564 769.078 Q30.616 766.245 33.7671 764.431 L28.3562 764.431 L28.3562 758.574 L59.58 758.574 Z" fill="#000000" fill-rule="nonzero" fill-opacity="1" /><path clip-path="url(#clip140)" d="M58.657 720.125 L77.5631 720.125 L77.5631 726.014 L28.3562 726.014 L28.3562 720.125 L33.7671 720.125 Q30.5842 718.279 29.0564 715.478 Q27.4968 712.646 27.4968 708.731 Q27.4968 702.238 32.6531 698.195 Q37.8093 694.121 46.212 694.121 Q54.6147 694.121 59.771 698.195 Q64.9272 702.238 64.9272 708.731 Q64.9272 712.646 63.3994 715.478 Q61.8398 718.279 58.657 720.125 M46.212 700.201 Q39.7508 700.201 36.0905 702.874 Q32.3984 705.516 32.3984 710.163 Q32.3984 714.81 36.0905 717.483 Q39.7508 720.125 46.212 720.125 Q52.6732 720.125 56.3653 717.483 Q60.0256 714.81 60.0256 710.163 Q60.0256 705.516 56.3653 702.874 Q52.6732 700.201 46.212 700.201 Z" fill="#000000" fill-rule="nonzero" fill-opacity="1" /><path clip-path="url(#clip140)" d="M33.8307 663.757 Q33.2578 664.744 33.0032 665.921 Q32.7167 667.067 32.7167 668.468 Q32.7167 673.433 35.9632 676.106 Q39.1779 678.748 45.2253 678.748 L64.0042 678.748 L64.0042 684.636 L28.3562 684.636 L28.3562 678.748 L33.8944 678.748 Q30.6479 676.902 29.0883 673.942 Q27.4968 670.982 27.4968 666.749 Q27.4968 666.144 27.5923 665.412 Q27.656 664.68 27.8151 663.789 L33.8307 663.757 Z" fill="#000000" fill-rule="nonzero" fill-opacity="1" /><path clip-path="url(#clip140)" d="M32.4621 645.233 Q32.4621 649.943 36.1542 652.681 Q39.8145 655.418 46.212 655.418 Q52.6095 655.418 56.3017 652.712 Q59.9619 649.975 59.9619 645.233 Q59.9619 640.554 56.2698 637.817 Q52.5777 635.079 46.212 635.079 Q39.8781 635.079 36.186 637.817 Q32.4621 640.554 32.4621 645.233 M27.4968 645.233 Q27.4968 637.594 32.4621 633.233 Q37.4273 628.873 46.212 628.873 Q54.9649 628.873 59.9619 633.233 Q64.9272 637.594 64.9272 645.233 Q64.9272 652.903 59.9619 657.264 Q54.9649 661.593 46.212 661.593 Q37.4273 661.593 32.4621 657.264 Q27.4968 652.903 27.4968 645.233 Z" fill="#000000" fill-rule="nonzero" fill-opacity="1" /><path clip-path="url(#clip140)" d="M46.212 593.575 Q39.7508 593.575 36.0905 596.249 Q32.3984 598.89 32.3984 603.537 Q32.3984 608.184 36.0905 610.858 Q39.7508 613.5 46.212 613.5 Q52.6732 613.5 56.3653 610.858 Q60.0256 608.184 60.0256 603.537 Q60.0256 598.89 56.3653 596.249 Q52.6732 593.575 46.212 593.575 M33.7671 613.5 Q30.5842 611.654 29.0564 608.853 Q27.4968 606.02 27.4968 602.105 Q27.4968 595.612 32.6531 591.57 Q37.8093 587.496 46.212 587.496 Q54.6147 587.496 59.771 591.57 Q64.9272 595.612 64.9272 602.105 Q64.9272 606.02 63.3994 608.853 Q61.8398 611.654 58.657 613.5 L64.0042 613.5 L64.0042 619.388 L14.479 619.388 L14.479 613.5 L33.7671 613.5 Z" fill="#000000" fill-rule="nonzero" fill-opacity="1" /><path clip-path="url(#clip140)" d="M46.0847 561.587 Q46.0847 568.685 47.7079 571.422 Q49.3312 574.16 53.2461 574.16 Q56.3653 574.16 58.2114 572.123 Q60.0256 570.054 60.0256 566.521 Q60.0256 561.651 56.5881 558.723 Q53.1188 555.763 47.3897 555.763 L46.0847 555.763 L46.0847 561.587 M43.6657 549.906 L64.0042 549.906 L64.0042 555.763 L58.5933 555.763 Q61.8398 557.768 63.3994 560.76 Q64.9272 563.752 64.9272 568.08 Q64.9272 573.555 61.8716 576.801 Q58.7843 580.016 53.6281 580.016 Q47.6125 580.016 44.5569 576.006 Q41.5014 571.963 41.5014 563.974 L41.5014 555.763 L40.9285 555.763 Q36.8862 555.763 34.6901 558.436 Q32.4621 561.078 32.4621 565.884 Q32.4621 568.94 33.1941 571.836 Q33.9262 574.733 35.3903 577.406 L29.9795 577.406 Q28.7381 574.191 28.1334 571.168 Q27.4968 568.144 27.4968 565.279 Q27.4968 557.545 31.5072 553.726 Q35.5176 549.906 43.6657 549.906 Z" fill="#000000" fill-rule="nonzero" fill-opacity="1" /><path clip-path="url(#clip140)" d="M46.212 512.253 Q39.7508 512.253 36.0905 514.927 Q32.3984 517.568 32.3984 522.215 Q32.3984 526.862 36.0905 529.536 Q39.7508 532.178 46.212 532.178 Q52.6732 532.178 56.3653 529.536 Q60.0256 526.862 60.0256 522.215 Q60.0256 517.568 56.3653 514.927 Q52.6732 512.253 46.212 512.253 M33.7671 532.178 Q30.5842 530.332 29.0564 527.531 Q27.4968 524.698 27.4968 520.783 Q27.4968 514.29 32.6531 510.248 Q37.8093 506.174 46.212 506.174 Q54.6147 506.174 59.771 510.248 Q64.9272 514.29 64.9272 520.783 Q64.9272 524.698 63.3994 527.531 Q61.8398 530.332 58.657 532.178 L64.0042 532.178 L64.0042 538.066 L14.479 538.066 L14.479 532.178 L33.7671 532.178 Z" fill="#000000" fill-rule="nonzero" fill-opacity="1" /><path clip-path="url(#clip140)" d="M28.3562 496.466 L28.3562 490.61 L64.0042 490.61 L64.0042 496.466 L28.3562 496.466 M14.479 496.466 L14.479 490.61 L21.895 490.61 L21.895 496.466 L14.479 496.466 Z" fill="#000000" fill-rule="nonzero" fill-opacity="1" /><path clip-path="url(#clip140)" d="M14.479 478.356 L14.479 472.499 L64.0042 472.499 L64.0042 478.356 L14.479 478.356 Z" fill="#000000" fill-rule="nonzero" fill-opacity="1" /><path clip-path="url(#clip140)" d="M28.3562 460.245 L28.3562 454.389 L64.0042 454.389 L64.0042 460.245 L28.3562 460.245 M14.479 460.245 L14.479 454.389 L21.895 454.389 L21.895 460.245 L14.479 460.245 Z" fill="#000000" fill-rule="nonzero" fill-opacity="1" /><path clip-path="url(#clip140)" d="M18.2347 436.342 L28.3562 436.342 L28.3562 424.279 L32.9077 424.279 L32.9077 436.342 L52.2594 436.342 Q56.6199 436.342 57.8613 435.164 Q59.1026 433.955 59.1026 430.295 L59.1026 424.279 L64.0042 424.279 L64.0042 430.295 Q64.0042 437.074 61.4897 439.652 Q58.9434 442.23 52.2594 442.23 L32.9077 442.23 L32.9077 446.527 L28.3562 446.527 L28.3562 442.23 L18.2347 442.23 L18.2347 436.342 Z" fill="#000000" fill-rule="nonzero" fill-opacity="1" /><path clip-path="url(#clip140)" d="M67.3143 401.744 Q73.68 404.227 75.6216 406.582 Q77.5631 408.938 77.5631 412.884 L77.5631 417.563 L72.6615 417.563 L72.6615 414.126 Q72.6615 411.707 71.5157 410.37 Q70.3699 409.033 66.1048 407.41 L63.4312 406.36 L28.3562 420.778 L28.3562 414.571 L56.238 403.431 L28.3562 392.291 L28.3562 386.085 L67.3143 401.744 Z" fill="#000000" fill-rule="nonzero" fill-opacity="1" /><circle clip-path="url(#clip142)" cx="309.067" cy="1373.85" r="14.4" fill="#ff0000" fill-rule="evenodd" fill-opacity="1" stroke="#000000" stroke-opacity="1" stroke-width="3.2"/>
<circle clip-path="url(#clip142)" cx="408.275" cy="1358.28" r="14.4" fill="#ff0000" fill-rule="evenodd" fill-opacity="1" stroke="#000000" stroke-opacity="1" stroke-width="3.2"/>
<circle clip-path="url(#clip142)" cx="507.483" cy="1384.24" r="14.4" fill="#ff0000" fill-rule="evenodd" fill-opacity="1" stroke="#000000" stroke-opacity="1" stroke-width="3.2"/>
<circle clip-path="url(#clip142)" cx="606.692" cy="1384.24" r="14.4" fill="#ff0000" fill-rule="evenodd" fill-opacity="1" stroke="#000000" stroke-opacity="1" stroke-width="3.2"/>
<circle clip-path="url(#clip142)" cx="705.9" cy="1384.24" r="14.4" fill="#ff0000" fill-rule="evenodd" fill-opacity="1" stroke="#000000" stroke-opacity="1" stroke-width="3.2"/>
<circle clip-path="url(#clip142)" cx="805.108" cy="1384.24" r="14.4" fill="#ff0000" fill-rule="evenodd" fill-opacity="1" stroke="#000000" stroke-opacity="1" stroke-width="3.2"/>
<circle clip-path="url(#clip142)" cx="904.316" cy="1384.24" r="14.4" fill="#ff0000" fill-rule="evenodd" fill-opacity="1" stroke="#000000" stroke-opacity="1" stroke-width="3.2"/>
<circle clip-path="url(#clip142)" cx="1003.52" cy="1384.24" r="14.4" fill="#ff0000" fill-rule="evenodd" fill-opacity="1" stroke="#000000" stroke-opacity="1" stroke-width="3.2"/>
<circle clip-path="url(#clip142)" cx="1102.73" cy="1384.24" r="14.4" fill="#ff0000" fill-rule="evenodd" fill-opacity="1" stroke="#000000" stroke-opacity="1" stroke-width="3.2"/>
<circle clip-path="url(#clip142)" cx="1201.94" cy="1384.24" r="14.4" fill="#ff0000" fill-rule="evenodd" fill-opacity="1" stroke="#000000" stroke-opacity="1" stroke-width="3.2"/>
<circle clip-path="url(#clip142)" cx="1301.15" cy="1384.24" r="14.4" fill="#ff0000" fill-rule="evenodd" fill-opacity="1" stroke="#000000" stroke-opacity="1" stroke-width="3.2"/>
<circle clip-path="url(#clip142)" cx="1400.36" cy="1384.24" r="14.4" fill="#ff0000" fill-rule="evenodd" fill-opacity="1" stroke="#000000" stroke-opacity="1" stroke-width="3.2"/>
<circle clip-path="url(#clip142)" cx="1499.57" cy="1384.24" r="14.4" fill="#ff0000" fill-rule="evenodd" fill-opacity="1" stroke="#000000" stroke-opacity="1" stroke-width="3.2"/>
<circle clip-path="url(#clip142)" cx="1598.77" cy="1384.24" r="14.4" fill="#ff0000" fill-rule="evenodd" fill-opacity="1" stroke="#000000" stroke-opacity="1" stroke-width="3.2"/>
<circle clip-path="url(#clip142)" cx="1697.98" cy="1384.24" r="14.4" fill="#ff0000" fill-rule="evenodd" fill-opacity="1" stroke="#000000" stroke-opacity="1" stroke-width="3.2"/>
<circle clip-path="url(#clip142)" cx="1797.19" cy="1384.24" r="14.4" fill="#ff0000" fill-rule="evenodd" fill-opacity="1" stroke="#000000" stroke-opacity="1" stroke-width="3.2"/>
<circle clip-path="url(#clip142)" cx="1896.4" cy="1384.24" r="14.4" fill="#ff0000" fill-rule="evenodd" fill-opacity="1" stroke="#000000" stroke-opacity="1" stroke-width="3.2"/>
<circle clip-path="url(#clip142)" cx="1995.61" cy="1384.24" r="14.4" fill="#ff0000" fill-rule="evenodd" fill-opacity="1" stroke="#000000" stroke-opacity="1" stroke-width="3.2"/>
<circle clip-path="url(#clip142)" cx="2094.81" cy="1384.24" r="14.4" fill="#ff0000" fill-rule="evenodd" fill-opacity="1" stroke="#000000" stroke-opacity="1" stroke-width="3.2"/>
<circle clip-path="url(#clip142)" cx="2194.02" cy="1384.24" r="14.4" fill="#ff0000" fill-rule="evenodd" fill-opacity="1" stroke="#000000" stroke-opacity="1" stroke-width="3.2"/>
<circle clip-path="url(#clip142)" cx="2293.23" cy="1384.24" r="14.4" fill="#ff0000" fill-rule="evenodd" fill-opacity="1" stroke="#000000" stroke-opacity="1" stroke-width="3.2"/>
<circle clip-path="url(#clip142)" cx="309.067" cy="96.5701" r="14.4" fill="#008000" fill-rule="evenodd" fill-opacity="1" stroke="#000000" stroke-opacity="1" stroke-width="3.2"/>
<circle clip-path="url(#clip142)" cx="408.275" cy="117.339" r="14.4" fill="#008000" fill-rule="evenodd" fill-opacity="1" stroke="#000000" stroke-opacity="1" stroke-width="3.2"/>
<circle clip-path="url(#clip142)" cx="507.483" cy="252.336" r="14.4" fill="#008000" fill-rule="evenodd" fill-opacity="1" stroke="#000000" stroke-opacity="1" stroke-width="3.2"/>
<circle clip-path="url(#clip142)" cx="606.692" cy="286.086" r="14.4" fill="#008000" fill-rule="evenodd" fill-opacity="1" stroke="#000000" stroke-opacity="1" stroke-width="3.2"/>
<circle clip-path="url(#clip142)" cx="705.9" cy="182.242" r="14.4" fill="#008000" fill-rule="evenodd" fill-opacity="1" stroke="#000000" stroke-opacity="1" stroke-width="3.2"/>
<circle clip-path="url(#clip142)" cx="805.108" cy="125.127" r="14.4" fill="#008000" fill-rule="evenodd" fill-opacity="1" stroke="#000000" stroke-opacity="1" stroke-width="3.2"/>
<circle clip-path="url(#clip142)" cx="904.316" cy="153.684" r="14.4" fill="#008000" fill-rule="evenodd" fill-opacity="1" stroke="#000000" stroke-opacity="1" stroke-width="3.2"/>
<circle clip-path="url(#clip142)" cx="1003.52" cy="304.259" r="14.4" fill="#008000" fill-rule="evenodd" fill-opacity="1" stroke="#000000" stroke-opacity="1" stroke-width="3.2"/>
<circle clip-path="url(#clip142)" cx="1102.73" cy="522.331" r="14.4" fill="#008000" fill-rule="evenodd" fill-opacity="1" stroke="#000000" stroke-opacity="1" stroke-width="3.2"/>
<circle clip-path="url(#clip142)" cx="1201.94" cy="784.538" r="14.4" fill="#008000" fill-rule="evenodd" fill-opacity="1" stroke="#000000" stroke-opacity="1" stroke-width="3.2"/>
<circle clip-path="url(#clip142)" cx="1301.15" cy="953.285" r="14.4" fill="#008000" fill-rule="evenodd" fill-opacity="1" stroke="#000000" stroke-opacity="1" stroke-width="3.2"/>
<circle clip-path="url(#clip142)" cx="1400.36" cy="976.65" r="14.4" fill="#008000" fill-rule="evenodd" fill-opacity="1" stroke="#000000" stroke-opacity="1" stroke-width="3.2"/>
<circle clip-path="url(#clip142)" cx="1499.57" cy="935.112" r="14.4" fill="#008000" fill-rule="evenodd" fill-opacity="1" stroke="#000000" stroke-opacity="1" stroke-width="3.2"/>
<circle clip-path="url(#clip142)" cx="1598.77" cy="859.825" r="14.4" fill="#008000" fill-rule="evenodd" fill-opacity="1" stroke="#000000" stroke-opacity="1" stroke-width="3.2"/>
<circle clip-path="url(#clip142)" cx="1697.98" cy="727.424" r="14.4" fill="#008000" fill-rule="evenodd" fill-opacity="1" stroke="#000000" stroke-opacity="1" stroke-width="3.2"/>
<circle clip-path="url(#clip142)" cx="1797.19" cy="519.735" r="14.4" fill="#008000" fill-rule="evenodd" fill-opacity="1" stroke="#000000" stroke-opacity="1" stroke-width="3.2"/>
<circle clip-path="url(#clip142)" cx="1896.4" cy="389.93" r="14.4" fill="#008000" fill-rule="evenodd" fill-opacity="1" stroke="#000000" stroke-opacity="1" stroke-width="3.2"/>
<circle clip-path="url(#clip142)" cx="1995.61" cy="239.356" r="14.4" fill="#008000" fill-rule="evenodd" fill-opacity="1" stroke="#000000" stroke-opacity="1" stroke-width="3.2"/>
<circle clip-path="url(#clip142)" cx="2094.81" cy="161.473" r="14.4" fill="#008000" fill-rule="evenodd" fill-opacity="1" stroke="#000000" stroke-opacity="1" stroke-width="3.2"/>
<circle clip-path="url(#clip142)" cx="2194.02" cy="99.1662" r="14.4" fill="#008000" fill-rule="evenodd" fill-opacity="1" stroke="#000000" stroke-opacity="1" stroke-width="3.2"/>
<circle clip-path="url(#clip142)" cx="2293.23" cy="86.1857" r="14.4" fill="#008000" fill-rule="evenodd" fill-opacity="1" stroke="#000000" stroke-opacity="1" stroke-width="3.2"/>
<circle clip-path="url(#clip142)" cx="309.067" cy="1384.24" r="14.4" fill="#0000ff" fill-rule="evenodd" fill-opacity="1" stroke="#000000" stroke-opacity="1" stroke-width="3.2"/>
<circle clip-path="url(#clip142)" cx="408.275" cy="1379.05" r="14.4" fill="#0000ff" fill-rule="evenodd" fill-opacity="1" stroke="#000000" stroke-opacity="1" stroke-width="3.2"/>
<circle clip-path="url(#clip142)" cx="507.483" cy="1218.09" r="14.4" fill="#0000ff" fill-rule="evenodd" fill-opacity="1" stroke="#000000" stroke-opacity="1" stroke-width="3.2"/>
<circle clip-path="url(#clip142)" cx="606.692" cy="1184.34" r="14.4" fill="#0000ff" fill-rule="evenodd" fill-opacity="1" stroke="#000000" stroke-opacity="1" stroke-width="3.2"/>
<circle clip-path="url(#clip142)" cx="705.9" cy="1288.18" r="14.4" fill="#0000ff" fill-rule="evenodd" fill-opacity="1" stroke="#000000" stroke-opacity="1" stroke-width="3.2"/>
<circle clip-path="url(#clip142)" cx="805.108" cy="1345.3" r="14.4" fill="#0000ff" fill-rule="evenodd" fill-opacity="1" stroke="#000000" stroke-opacity="1" stroke-width="3.2"/>
<circle clip-path="url(#clip142)" cx="904.316" cy="1316.74" r="14.4" fill="#0000ff" fill-rule="evenodd" fill-opacity="1" stroke="#000000" stroke-opacity="1" stroke-width="3.2"/>
<circle clip-path="url(#clip142)" cx="1003.52" cy="1166.17" r="14.4" fill="#0000ff" fill-rule="evenodd" fill-opacity="1" stroke="#000000" stroke-opacity="1" stroke-width="3.2"/>
<circle clip-path="url(#clip142)" cx="1102.73" cy="948.093" r="14.4" fill="#0000ff" fill-rule="evenodd" fill-opacity="1" stroke="#000000" stroke-opacity="1" stroke-width="3.2"/>
<circle clip-path="url(#clip142)" cx="1201.94" cy="685.886" r="14.4" fill="#0000ff" fill-rule="evenodd" fill-opacity="1" stroke="#000000" stroke-opacity="1" stroke-width="3.2"/>
<circle clip-path="url(#clip142)" cx="1301.15" cy="517.139" r="14.4" fill="#0000ff" fill-rule="evenodd" fill-opacity="1" stroke="#000000" stroke-opacity="1" stroke-width="3.2"/>
<circle clip-path="url(#clip142)" cx="1400.36" cy="493.774" r="14.4" fill="#0000ff" fill-rule="evenodd" fill-opacity="1" stroke="#000000" stroke-opacity="1" stroke-width="3.2"/>
<circle clip-path="url(#clip142)" cx="1499.57" cy="535.312" r="14.4" fill="#0000ff" fill-rule="evenodd" fill-opacity="1" stroke="#000000" stroke-opacity="1" stroke-width="3.2"/>
<circle clip-path="url(#clip142)" cx="1598.77" cy="610.599" r="14.4" fill="#0000ff" fill-rule="evenodd" fill-opacity="1" stroke="#000000" stroke-opacity="1" stroke-width="3.2"/>
<circle clip-path="url(#clip142)" cx="1697.98" cy="743" r="14.4" fill="#0000ff" fill-rule="evenodd" fill-opacity="1" stroke="#000000" stroke-opacity="1" stroke-width="3.2"/>
<circle clip-path="url(#clip142)" cx="1797.19" cy="950.689" r="14.4" fill="#0000ff" fill-rule="evenodd" fill-opacity="1" stroke="#000000" stroke-opacity="1" stroke-width="3.2"/>
<circle clip-path="url(#clip142)" cx="1896.4" cy="1080.49" r="14.4" fill="#0000ff" fill-rule="evenodd" fill-opacity="1" stroke="#000000" stroke-opacity="1" stroke-width="3.2"/>
<circle clip-path="url(#clip142)" cx="1995.61" cy="1231.07" r="14.4" fill="#0000ff" fill-rule="evenodd" fill-opacity="1" stroke="#000000" stroke-opacity="1" stroke-width="3.2"/>
<circle clip-path="url(#clip142)" cx="2094.81" cy="1308.95" r="14.4" fill="#0000ff" fill-rule="evenodd" fill-opacity="1" stroke="#000000" stroke-opacity="1" stroke-width="3.2"/>
<circle clip-path="url(#clip142)" cx="2194.02" cy="1371.26" r="14.4" fill="#0000ff" fill-rule="evenodd" fill-opacity="1" stroke="#000000" stroke-opacity="1" stroke-width="3.2"/>
<circle clip-path="url(#clip142)" cx="2293.23" cy="1384.24" r="14.4" fill="#0000ff" fill-rule="evenodd" fill-opacity="1" stroke="#000000" stroke-opacity="1" stroke-width="3.2"/>
<path clip-path="url(#clip140)" d="M319.649 300.469 L584.855 300.469 L584.855 93.1086 L319.649 93.1086  Z" fill="#ffffff" fill-rule="evenodd" fill-opacity="1"/>
<polyline clip-path="url(#clip140)" style="stroke:#000000; stroke-linecap:round; stroke-linejoin:round; stroke-width:4; stroke-opacity:1; fill:none" points="319.649,300.469 584.855,300.469 584.855,93.1086 319.649,93.1086 319.649,300.469 "/>
<circle clip-path="url(#clip140)" cx="413.125" cy="144.949" r="20.48" fill="#ff0000" fill-rule="evenodd" fill-opacity="1" stroke="#000000" stroke-opacity="1" stroke-width="4.55111"/>
<path clip-path="url(#clip140)" d="M522.99 146.025 Q524.495 146.534 525.907 148.201 Q527.342 149.868 528.777 152.784 L533.523 162.229 L528.5 162.229 L524.078 153.363 Q522.365 149.891 520.745 148.756 Q519.148 147.622 516.37 147.622 L511.277 147.622 L511.277 162.229 L506.602 162.229 L506.602 127.669 L517.157 127.669 Q523.083 127.669 526 130.145 Q528.916 132.622 528.916 137.622 Q528.916 140.886 527.388 143.039 Q525.884 145.192 522.99 146.025 M511.277 131.511 L511.277 143.78 L517.157 143.78 Q520.537 143.78 522.25 142.229 Q523.986 140.655 523.986 137.622 Q523.986 134.59 522.25 133.062 Q520.537 131.511 517.157 131.511 L511.277 131.511 Z" fill="#000000" fill-rule="nonzero" fill-opacity="1" /><path clip-path="url(#clip140)" d="M540.768 158.293 L548.407 158.293 L548.407 131.928 L540.097 133.595 L540.097 129.335 L548.361 127.669 L553.036 127.669 L553.036 158.293 L560.675 158.293 L560.675 162.229 L540.768 162.229 L540.768 158.293 Z" fill="#000000" fill-rule="nonzero" fill-opacity="1" /><circle clip-path="url(#clip140)" cx="413.125" cy="196.789" r="20.48" fill="#008000" fill-rule="evenodd" fill-opacity="1" stroke="#000000" stroke-opacity="1" stroke-width="4.55111"/>
<path clip-path="url(#clip140)" d="M506.602 179.509 L535.837 179.509 L535.837 183.444 L523.569 183.444 L523.569 214.069 L518.87 214.069 L518.87 183.444 L506.602 183.444 L506.602 179.509 Z" fill="#000000" fill-rule="nonzero" fill-opacity="1" /><path clip-path="url(#clip140)" d="M541.578 210.133 L549.217 210.133 L549.217 183.768 L540.907 185.435 L540.907 181.175 L549.171 179.509 L553.847 179.509 L553.847 210.133 L561.485 210.133 L561.485 214.069 L541.578 214.069 L541.578 210.133 Z" fill="#000000" fill-rule="nonzero" fill-opacity="1" /><circle clip-path="url(#clip140)" cx="413.125" cy="248.629" r="20.48" fill="#0000ff" fill-rule="evenodd" fill-opacity="1" stroke="#000000" stroke-opacity="1" stroke-width="4.55111"/>
<path clip-path="url(#clip140)" d="M506.602 231.349 L535.837 231.349 L535.837 235.284 L523.569 235.284 L523.569 265.909 L518.87 265.909 L518.87 235.284 L506.602 235.284 L506.602 231.349 Z" fill="#000000" fill-rule="nonzero" fill-opacity="1" /><path clip-path="url(#clip140)" d="M544.796 261.973 L561.115 261.973 L561.115 265.909 L539.171 265.909 L539.171 261.973 Q541.833 259.219 546.416 254.589 Q551.023 249.936 552.203 248.594 Q554.448 246.071 555.328 244.335 Q556.231 242.575 556.231 240.886 Q556.231 238.131 554.286 236.395 Q552.365 234.659 549.263 234.659 Q547.064 234.659 544.611 235.423 Q542.18 236.187 539.402 237.737 L539.402 233.015 Q542.226 231.881 544.68 231.302 Q547.134 230.724 549.171 230.724 Q554.541 230.724 557.735 233.409 Q560.93 236.094 560.93 240.585 Q560.93 242.714 560.12 244.636 Q559.333 246.534 557.226 249.126 Q556.648 249.798 553.546 253.015 Q550.444 256.21 544.796 261.973 Z" fill="#000000" fill-rule="nonzero" fill-opacity="1" /></svg>
