<?xml version="1.0" encoding="utf-8"?>
<svg xmlns="http://www.w3.org/2000/svg" xmlns:xlink="http://www.w3.org/1999/xlink" width="600" height="400" viewBox="0 0 2400 1600">
<defs>
  <clipPath id="clip510">
    <rect x="0" y="0" width="2400" height="1600"/>
  </clipPath>
</defs>
<path clip-path="url(#clip510)" d="M0 1600 L2400 1600 L2400 0 L0 0  Z" fill="#ffffff" fill-rule="evenodd" fill-opacity="1"/>
<defs>
  <clipPath id="clip511">
    <rect x="480" y="0" width="1681" height="1600"/>
  </clipPath>
</defs>
<path clip-path="url(#clip510)" d="M212.459 1423.18 L2352.76 1423.18 L2352.76 47.2441 L212.459 47.2441  Z" fill="#ffffff" fill-rule="evenodd" fill-opacity="1"/>
<defs>
  <clipPath id="clip512">
    <rect x="212" y="47" width="2141" height="1377"/>
  </clipPath>
</defs>
<polyline clip-path="url(#clip512)" style="stroke:#000000; stroke-linecap:round; stroke-linejoin:round; stroke-width:2; stroke-opacity:0.1; fill:none" points="273.033,1423.18 273.033,47.2441 "/>
<polyline clip-path="url(#clip512)" style="stroke:#000000; stroke-linecap:round; stroke-linejoin:round; stroke-width:2; stroke-opacity:0.1; fill:none" points="676.863,1423.18 676.863,47.2441 "/>
<polyline clip-path="url(#clip512)" style="stroke:#000000; stroke-linecap:round; stroke-linejoin:round; stroke-width:2; stroke-opacity:0.1; fill:none" points="1080.69,1423.18 1080.69,47.2441 "/>
<polyline clip-path="url(#clip512)" style="stroke:#000000; stroke-linecap:round; stroke-linejoin:round; stroke-width:2; stroke-opacity:0.1; fill:none" points="1484.52,1423.18 1484.52,47.2441 "/>
<polyline clip-path="url(#clip512)" style="stroke:#000000; stroke-linecap:round; stroke-linejoin:round; stroke-width:2; stroke-opacity:0.1; fill:none" points="1888.35,1423.18 1888.35,47.2441 "/>
<polyline clip-path="url(#clip512)" style="stroke:#000000; stroke-linecap:round; stroke-linejoin:round; stroke-width:2; stroke-opacity:0.1; fill:none" points="2292.18,1423.18 2292.18,47.2441 "/>
<polyline clip-path="url(#clip512)" style="stroke:#000000; stroke-linecap:round; stroke-linejoin:round; stroke-width:2; stroke-opacity:0.1; fill:none" points="212.459,1292.51 2352.76,1292.51 "/>
<polyline clip-path="url(#clip512)" style="stroke:#000000; stroke-linecap:round; stroke-linejoin:round; stroke-width:2; stroke-opacity:0.1; fill:none" points="212.459,1013.86 2352.76,1013.86 "/>
<polyline clip-path="url(#clip512)" style="stroke:#000000; stroke-linecap:round; stroke-linejoin:round; stroke-width:2; stroke-opacity:0.1; fill:none" points="212.459,735.207 2352.76,735.207 "/>
<polyline clip-path="url(#clip512)" style="stroke:#000000; stroke-linecap:round; stroke-linejoin:round; stroke-width:2; stroke-opacity:0.1; fill:none" points="212.459,456.555 2352.76,456.555 "/>
<polyline clip-path="url(#clip512)" style="stroke:#000000; stroke-linecap:round; stroke-linejoin:round; stroke-width:2; stroke-opacity:0.1; fill:none" points="212.459,177.902 2352.76,177.902 "/>
<polyline clip-path="url(#clip510)" style="stroke:#000000; stroke-linecap:round; stroke-linejoin:round; stroke-width:4; stroke-opacity:1; fill:none" points="212.459,1423.18 2352.76,1423.18 "/>
<polyline clip-path="url(#clip510)" style="stroke:#000000; stroke-linecap:round; stroke-linejoin:round; stroke-width:4; stroke-opacity:1; fill:none" points="273.033,1423.18 273.033,1404.28 "/>
<polyline clip-path="url(#clip510)" style="stroke:#000000; stroke-linecap:round; stroke-linejoin:round; stroke-width:4; stroke-opacity:1; fill:none" points="676.863,1423.18 676.863,1404.28 "/>
<polyline clip-path="url(#clip510)" style="stroke:#000000; stroke-linecap:round; stroke-linejoin:round; stroke-width:4; stroke-opacity:1; fill:none" points="1080.69,1423.18 1080.69,1404.28 "/>
<polyline clip-path="url(#clip510)" style="stroke:#000000; stroke-linecap:round; stroke-linejoin:round; stroke-width:4; stroke-opacity:1; fill:none" points="1484.52,1423.18 1484.52,1404.28 "/>
<polyline clip-path="url(#clip510)" style="stroke:#000000; stroke-linecap:round; stroke-linejoin:round; stroke-width:4; stroke-opacity:1; fill:none" points="1888.35,1423.18 1888.35,1404.28 "/>
<polyline clip-path="url(#clip510)" style="stroke:#000000; stroke-linecap:round; stroke-linejoin:round; stroke-width:4; stroke-opacity:1; fill:none" points="2292.18,1423.18 2292.18,1404.28 "/>
<path clip-path="url(#clip510)" d="M273.033 1454.1 Q269.422 1454.1 267.594 1457.66 Q265.788 1461.2 265.788 1468.33 Q265.788 1475.44 267.594 1479.01 Q269.422 1482.55 273.033 1482.55 Q276.668 1482.55 278.473 1479.01 Q280.302 1475.44 280.302 1468.33 Q280.302 1461.2 278.473 1457.66 Q276.668 1454.1 273.033 1454.1 M273.033 1450.39 Q278.843 1450.39 281.899 1455 Q284.978 1459.58 284.978 1468.33 Q284.978 1477.06 281.899 1481.67 Q278.843 1486.25 273.033 1486.25 Q267.223 1486.25 264.145 1481.67 Q261.089 1477.06 261.089 1468.33 Q261.089 1459.58 264.145 1455 Q267.223 1450.39 273.033 1450.39 Z" fill="#000000" fill-rule="nonzero" fill-opacity="1" /><path clip-path="url(#clip510)" d="M651.551 1481.64 L659.189 1481.64 L659.189 1455.28 L650.879 1456.95 L650.879 1452.69 L659.143 1451.02 L663.819 1451.02 L663.819 1481.64 L671.458 1481.64 L671.458 1485.58 L651.551 1485.58 L651.551 1481.64 Z" fill="#000000" fill-rule="nonzero" fill-opacity="1" /><path clip-path="url(#clip510)" d="M690.902 1454.1 Q687.291 1454.1 685.462 1457.66 Q683.657 1461.2 683.657 1468.33 Q683.657 1475.44 685.462 1479.01 Q687.291 1482.55 690.902 1482.55 Q694.536 1482.55 696.342 1479.01 Q698.171 1475.44 698.171 1468.33 Q698.171 1461.2 696.342 1457.66 Q694.536 1454.1 690.902 1454.1 M690.902 1450.39 Q696.712 1450.39 699.768 1455 Q702.847 1459.58 702.847 1468.33 Q702.847 1477.06 699.768 1481.67 Q696.712 1486.25 690.902 1486.25 Q685.092 1486.25 682.013 1481.67 Q678.958 1477.06 678.958 1468.33 Q678.958 1459.58 682.013 1455 Q685.092 1450.39 690.902 1450.39 Z" fill="#000000" fill-rule="nonzero" fill-opacity="1" /><path clip-path="url(#clip510)" d="M1059.47 1481.64 L1075.79 1481.64 L1075.79 1485.58 L1053.84 1485.58 L1053.84 1481.64 Q1056.5 1478.89 1061.09 1474.26 Q1065.69 1469.61 1066.87 1468.27 Q1069.12 1465.74 1070 1464.01 Q1070.9 1462.25 1070.9 1460.56 Q1070.9 1457.8 1068.96 1456.07 Q1067.04 1454.33 1063.93 1454.33 Q1061.73 1454.33 1059.28 1455.09 Q1056.85 1455.86 1054.07 1457.41 L1054.07 1452.69 Q1056.9 1451.55 1059.35 1450.97 Q1061.8 1450.39 1063.84 1450.39 Q1069.21 1450.39 1072.41 1453.08 Q1075.6 1455.77 1075.6 1460.26 Q1075.6 1462.39 1074.79 1464.31 Q1074 1466.2 1071.9 1468.8 Q1071.32 1469.47 1068.22 1472.69 Q1065.11 1475.88 1059.47 1481.64 Z" fill="#000000" fill-rule="nonzero" fill-opacity="1" /><path clip-path="url(#clip510)" d="M1095.6 1454.1 Q1091.99 1454.1 1090.16 1457.66 Q1088.35 1461.2 1088.35 1468.33 Q1088.35 1475.44 1090.16 1479.01 Q1091.99 1482.55 1095.6 1482.55 Q1099.23 1482.55 1101.04 1479.01 Q1102.87 1475.44 1102.87 1468.33 Q1102.87 1461.2 1101.04 1457.66 Q1099.23 1454.1 1095.6 1454.1 M1095.6 1450.39 Q1101.41 1450.39 1104.47 1455 Q1107.54 1459.58 1107.54 1468.33 Q1107.54 1477.06 1104.47 1481.67 Q1101.41 1486.25 1095.6 1486.25 Q1089.79 1486.25 1086.71 1481.67 Q1083.66 1477.06 1083.66 1468.33 Q1083.66 1459.58 1086.71 1455 Q1089.79 1450.39 1095.6 1450.39 Z" fill="#000000" fill-rule="nonzero" fill-opacity="1" /><path clip-path="url(#clip510)" d="M1473.36 1466.95 Q1476.72 1467.66 1478.6 1469.93 Q1480.49 1472.2 1480.49 1475.53 Q1480.49 1480.65 1476.98 1483.45 Q1473.46 1486.25 1466.98 1486.25 Q1464.8 1486.25 1462.49 1485.81 Q1460.19 1485.39 1457.74 1484.54 L1457.74 1480.02 Q1459.68 1481.16 1462 1481.74 Q1464.31 1482.32 1466.84 1482.32 Q1471.24 1482.32 1473.53 1480.58 Q1475.84 1478.84 1475.84 1475.53 Q1475.84 1472.48 1473.69 1470.77 Q1471.56 1469.03 1467.74 1469.03 L1463.71 1469.03 L1463.71 1465.19 L1467.93 1465.19 Q1471.37 1465.19 1473.2 1463.82 Q1475.03 1462.43 1475.03 1459.84 Q1475.03 1457.18 1473.13 1455.77 Q1471.26 1454.33 1467.74 1454.33 Q1465.82 1454.33 1463.62 1454.75 Q1461.42 1455.16 1458.78 1456.04 L1458.78 1451.88 Q1461.44 1451.14 1463.76 1450.77 Q1466.1 1450.39 1468.16 1450.39 Q1473.48 1450.39 1476.58 1452.83 Q1479.68 1455.23 1479.68 1459.35 Q1479.68 1462.22 1478.04 1464.21 Q1476.4 1466.18 1473.36 1466.95 Z" fill="#000000" fill-rule="nonzero" fill-opacity="1" /><path clip-path="url(#clip510)" d="M1499.36 1454.1 Q1495.75 1454.1 1493.92 1457.66 Q1492.11 1461.2 1492.11 1468.33 Q1492.11 1475.44 1493.92 1479.01 Q1495.75 1482.55 1499.36 1482.55 Q1502.99 1482.55 1504.8 1479.01 Q1506.63 1475.44 1506.63 1468.33 Q1506.63 1461.2 1504.8 1457.66 Q1502.99 1454.1 1499.36 1454.1 M1499.36 1450.39 Q1505.17 1450.39 1508.23 1455 Q1511.3 1459.58 1511.3 1468.33 Q1511.3 1477.06 1508.23 1481.67 Q1505.17 1486.25 1499.36 1486.25 Q1493.55 1486.25 1490.47 1481.67 Q1487.42 1477.06 1487.42 1468.33 Q1487.42 1459.58 1490.47 1455 Q1493.55 1450.39 1499.36 1450.39 Z" fill="#000000" fill-rule="nonzero" fill-opacity="1" /><path clip-path="url(#clip510)" d="M1876.52 1455.09 L1864.72 1473.54 L1876.52 1473.54 L1876.52 1455.09 M1875.3 1451.02 L1881.18 1451.02 L1881.18 1473.54 L1886.11 1473.54 L1886.11 1477.43 L1881.18 1477.43 L1881.18 1485.58 L1876.52 1485.58 L1876.52 1477.43 L1860.92 1477.43 L1860.92 1472.92 L1875.3 1451.02 Z" fill="#000000" fill-rule="nonzero" fill-opacity="1" /><path clip-path="url(#clip510)" d="M1903.84 1454.1 Q1900.23 1454.1 1898.4 1457.66 Q1896.59 1461.2 1896.59 1468.33 Q1896.59 1475.44 1898.4 1479.01 Q1900.23 1482.55 1903.84 1482.55 Q1907.47 1482.55 1909.28 1479.01 Q1911.11 1475.44 1911.11 1468.33 Q1911.11 1461.2 1909.28 1457.66 Q1907.47 1454.1 1903.84 1454.1 M1903.84 1450.39 Q1909.65 1450.39 1912.7 1455 Q1915.78 1459.58 1915.78 1468.33 Q1915.78 1477.06 1912.7 1481.67 Q1909.65 1486.25 1903.84 1486.25 Q1898.03 1486.25 1894.95 1481.67 Q1891.89 1477.06 1891.89 1468.33 Q1891.89 1459.58 1894.95 1455 Q1898.03 1450.39 1903.84 1450.39 Z" fill="#000000" fill-rule="nonzero" fill-opacity="1" /><path clip-path="url(#clip510)" d="M2266.88 1451.02 L2285.24 1451.02 L2285.24 1454.96 L2271.16 1454.96 L2271.16 1463.43 Q2272.18 1463.08 2273.2 1462.92 Q2274.22 1462.73 2275.24 1462.73 Q2281.02 1462.73 2284.4 1465.9 Q2287.78 1469.08 2287.78 1474.49 Q2287.78 1480.07 2284.31 1483.17 Q2280.84 1486.25 2274.52 1486.25 Q2272.34 1486.25 2270.08 1485.88 Q2267.83 1485.51 2265.42 1484.77 L2265.42 1480.07 Q2267.51 1481.2 2269.73 1481.76 Q2271.95 1482.32 2274.43 1482.32 Q2278.43 1482.32 2280.77 1480.21 Q2283.11 1478.1 2283.11 1474.49 Q2283.11 1470.88 2280.77 1468.77 Q2278.43 1466.67 2274.43 1466.67 Q2272.55 1466.67 2270.68 1467.08 Q2268.83 1467.5 2266.88 1468.38 L2266.88 1451.02 Z" fill="#000000" fill-rule="nonzero" fill-opacity="1" /><path clip-path="url(#clip510)" d="M2307 1454.1 Q2303.39 1454.1 2301.56 1457.66 Q2299.75 1461.2 2299.75 1468.33 Q2299.75 1475.44 2301.56 1479.01 Q2303.39 1482.55 2307 1482.55 Q2310.63 1482.55 2312.44 1479.01 Q2314.26 1475.44 2314.26 1468.33 Q2314.26 1461.2 2312.44 1457.66 Q2310.63 1454.1 2307 1454.1 M2307 1450.39 Q2312.81 1450.39 2315.86 1455 Q2318.94 1459.58 2318.94 1468.33 Q2318.94 1477.06 2315.86 1481.67 Q2312.81 1486.25 2307 1486.25 Q2301.19 1486.25 2298.11 1481.67 Q2295.05 1477.06 2295.05 1468.33 Q2295.05 1459.58 2298.11 1455 Q2301.19 1450.39 2307 1450.39 Z" fill="#000000" fill-rule="nonzero" fill-opacity="1" /><path clip-path="url(#clip510)" d="M1281.67 1522.27 L1281.67 1532.4 L1293.73 1532.4 L1293.73 1536.95 L1281.67 1536.95 L1281.67 1556.3 Q1281.67 1560.66 1282.85 1561.9 Q1284.06 1563.14 1287.72 1563.14 L1293.73 1563.14 L1293.73 1568.04 L1287.72 1568.04 Q1280.94 1568.04 1278.36 1565.53 Q1275.78 1562.98 1275.78 1556.3 L1275.78 1536.95 L1271.48 1536.95 L1271.48 1532.4 L1275.78 1532.4 L1275.78 1522.27 L1281.67 1522.27 Z" fill="#000000" fill-rule="nonzero" fill-opacity="1" /><polyline clip-path="url(#clip510)" style="stroke:#000000; stroke-linecap:round; stroke-linejoin:round; stroke-width:4; stroke-opacity:1; fill:none" points="212.459,1423.18 212.459,47.2441 "/>
<polyline clip-path="url(#clip510)" style="stroke:#000000; stroke-linecap:round; stroke-linejoin:round; stroke-width:4; stroke-opacity:1; fill:none" points="212.459,1292.51 231.357,1292.51 "/>
<polyline clip-path="url(#clip510)" style="stroke:#000000; stroke-linecap:round; stroke-linejoin:round; stroke-width:4; stroke-opacity:1; fill:none" points="212.459,1013.86 231.357,1013.86 "/>
<polyline clip-path="url(#clip510)" style="stroke:#000000; stroke-linecap:round; stroke-linejoin:round; stroke-width:4; stroke-opacity:1; fill:none" points="212.459,735.207 231.357,735.207 "/>
<polyline clip-path="url(#clip510)" style="stroke:#000000; stroke-linecap:round; stroke-linejoin:round; stroke-width:4; stroke-opacity:1; fill:none" points="212.459,456.555 231.357,456.555 "/>
<polyline clip-path="url(#clip510)" style="stroke:#000000; stroke-linecap:round; stroke-linejoin:round; stroke-width:4; stroke-opacity:1; fill:none" points="212.459,177.902 231.357,177.902 "/>
<path clip-path="url(#clip510)" d="M114.26 1292.96 L143.936 1292.96 L143.936 1296.9 L114.26 1296.9 L114.26 1292.96 Z" fill="#000000" fill-rule="nonzero" fill-opacity="1" /><path clip-path="url(#clip510)" d="M166.876 1279.31 L155.07 1297.76 L166.876 1297.76 L166.876 1279.31 M165.649 1275.23 L171.528 1275.23 L171.528 1297.76 L176.459 1297.76 L176.459 1301.64 L171.528 1301.64 L171.528 1309.79 L166.876 1309.79 L166.876 1301.64 L151.274 1301.64 L151.274 1297.13 L165.649 1275.23 Z" fill="#000000" fill-rule="nonzero" fill-opacity="1" /><path clip-path="url(#clip510)" d="M116.343 1014.31 L146.019 1014.31 L146.019 1018.25 L116.343 1018.25 L116.343 1014.31 Z" fill="#000000" fill-rule="nonzero" fill-opacity="1" /><path clip-path="url(#clip510)" d="M160.14 1027.2 L176.459 1027.2 L176.459 1031.14 L154.515 1031.14 L154.515 1027.2 Q157.177 1024.45 161.76 1019.82 Q166.366 1015.17 167.547 1013.83 Q169.792 1011.3 170.672 1009.57 Q171.575 1007.81 171.575 1006.12 Q171.575 1003.36 169.63 1001.63 Q167.709 999.89 164.607 999.89 Q162.408 999.89 159.954 1000.65 Q157.524 1001.42 154.746 1002.97 L154.746 998.247 Q157.57 997.112 160.024 996.534 Q162.477 995.955 164.515 995.955 Q169.885 995.955 173.079 998.64 Q176.274 1001.33 176.274 1005.82 Q176.274 1007.95 175.464 1009.87 Q174.677 1011.77 172.57 1014.36 Q171.991 1015.03 168.889 1018.25 Q165.788 1021.44 160.14 1027.2 Z" fill="#000000" fill-rule="nonzero" fill-opacity="1" /><path clip-path="url(#clip510)" d="M164.515 721.006 Q160.903 721.006 159.075 724.571 Q157.269 728.113 157.269 735.242 Q157.269 742.349 159.075 745.913 Q160.903 749.455 164.515 749.455 Q168.149 749.455 169.954 745.913 Q171.783 742.349 171.783 735.242 Q171.783 728.113 169.954 724.571 Q168.149 721.006 164.515 721.006 M164.515 717.302 Q170.325 717.302 173.38 721.909 Q176.459 726.492 176.459 735.242 Q176.459 743.969 173.38 748.575 Q170.325 753.159 164.515 753.159 Q158.704 753.159 155.626 748.575 Q152.57 743.969 152.57 735.242 Q152.57 726.492 155.626 721.909 Q158.704 717.302 164.515 717.302 Z" fill="#000000" fill-rule="nonzero" fill-opacity="1" /><path clip-path="url(#clip510)" d="M160.14 469.9 L176.459 469.9 L176.459 473.835 L154.515 473.835 L154.515 469.9 Q157.177 467.145 161.76 462.515 Q166.366 457.863 167.547 456.52 Q169.792 453.997 170.672 452.261 Q171.575 450.502 171.575 448.812 Q171.575 446.057 169.63 444.321 Q167.709 442.585 164.607 442.585 Q162.408 442.585 159.954 443.349 Q157.524 444.113 154.746 445.664 L154.746 440.941 Q157.57 439.807 160.024 439.228 Q162.477 438.65 164.515 438.65 Q169.885 438.65 173.079 441.335 Q176.274 444.02 176.274 448.511 Q176.274 450.64 175.464 452.562 Q174.677 454.46 172.57 457.052 Q171.991 457.724 168.889 460.941 Q165.788 464.136 160.14 469.9 Z" fill="#000000" fill-rule="nonzero" fill-opacity="1" /><path clip-path="url(#clip510)" d="M166.876 164.696 L155.07 183.145 L166.876 183.145 L166.876 164.696 M165.649 160.622 L171.528 160.622 L171.528 183.145 L176.459 183.145 L176.459 187.034 L171.528 187.034 L171.528 195.182 L166.876 195.182 L166.876 187.034 L151.274 187.034 L151.274 182.52 L165.649 160.622 Z" fill="#000000" fill-rule="nonzero" fill-opacity="1" /><path clip-path="url(#clip510)" d="M20.8447 951.455 Q20.8447 958.457 26.0645 962.595 Q31.2844 966.701 40.2919 966.701 Q49.2675 966.701 54.4874 962.595 Q59.7073 958.457 59.7073 951.455 Q59.7073 944.453 54.4874 940.379 Q49.2675 936.273 40.2919 936.273 Q31.2844 936.273 26.0645 940.379 Q20.8447 944.453 20.8447 951.455 M15.6248 951.455 Q15.6248 941.461 22.3406 935.477 Q29.0246 929.493 40.2919 929.493 Q51.5274 929.493 58.2432 935.477 Q64.9272 941.461 64.9272 951.455 Q64.9272 961.481 58.2432 967.497 Q51.5592 973.48 40.2919 973.48 Q29.0246 973.48 22.3406 967.497 Q15.6248 961.481 15.6248 951.455 Z" fill="#000000" fill-rule="nonzero" fill-opacity="1" /><path clip-path="url(#clip510)" d="M49.9359 920.295 L28.3562 920.295 L28.3562 914.438 L49.7131 914.438 Q54.7739 914.438 57.3202 912.465 Q59.8346 910.492 59.8346 906.545 Q59.8346 901.803 56.8109 899.065 Q53.7872 896.296 48.5673 896.296 L28.3562 896.296 L28.3562 890.44 L64.0042 890.44 L64.0042 896.296 L58.5296 896.296 Q61.7762 898.429 63.3676 901.261 Q64.9272 904.062 64.9272 907.786 Q64.9272 913.929 61.1078 917.112 Q57.2883 920.295 49.9359 920.295 M27.4968 905.558 L27.4968 905.558 Z" fill="#000000" fill-rule="nonzero" fill-opacity="1" /><path clip-path="url(#clip510)" d="M18.2347 872.584 L28.3562 872.584 L28.3562 860.521 L32.9077 860.521 L32.9077 872.584 L52.2594 872.584 Q56.6199 872.584 57.8613 871.406 Q59.1026 870.197 59.1026 866.536 L59.1026 860.521 L64.0042 860.521 L64.0042 866.536 Q64.0042 873.316 61.4897 875.894 Q58.9434 878.472 52.2594 878.472 L32.9077 878.472 L32.9077 882.769 L28.3562 882.769 L28.3562 878.472 L18.2347 878.472 L18.2347 872.584 Z" fill="#000000" fill-rule="nonzero" fill-opacity="1" /><path clip-path="url(#clip510)" d="M58.657 847.153 L77.5631 847.153 L77.5631 853.041 L28.3562 853.041 L28.3562 847.153 L33.7671 847.153 Q30.5842 845.307 29.0564 842.506 Q27.4968 839.673 27.4968 835.758 Q27.4968 829.265 32.6531 825.223 Q37.8093 821.149 46.212 821.149 Q54.6147 821.149 59.771 825.223 Q64.9272 829.265 64.9272 835.758 Q64.9272 839.673 63.3994 842.506 Q61.8398 845.307 58.657 847.153 M46.212 827.228 Q39.7508 827.228 36.0905 829.902 Q32.3984 832.544 32.3984 837.191 Q32.3984 841.838 36.0905 844.511 Q39.7508 847.153 46.212 847.153 Q52.6732 847.153 56.3653 844.511 Q60.0256 841.838 60.0256 837.191 Q60.0256 832.544 56.3653 829.902 Q52.6732 827.228 46.212 827.228 Z" fill="#000000" fill-rule="nonzero" fill-opacity="1" /><path clip-path="url(#clip510)" d="M49.9359 812.046 L28.3562 812.046 L28.3562 806.19 L49.7131 806.19 Q54.7739 806.19 57.3202 804.216 Q59.8346 802.243 59.8346 798.296 Q59.8346 793.554 56.8109 790.816 Q53.7872 788.047 48.5673 788.047 L28.3562 788.047 L28.3562 782.191 L64.0042 782.191 L64.0042 788.047 L58.5296 788.047 Q61.7762 790.18 63.3676 793.013 Q64.9272 795.813 64.9272 799.537 Q64.9272 805.68 61.1078 808.863 Q57.2883 812.046 49.9359 812.046 M27.4968 797.309 L27.4968 797.309 Z" fill="#000000" fill-rule="nonzero" fill-opacity="1" /><path clip-path="url(#clip510)" d="M18.2347 764.335 L28.3562 764.335 L28.3562 752.272 L32.9077 752.272 L32.9077 764.335 L52.2594 764.335 Q56.6199 764.335 57.8613 763.157 Q59.1026 761.948 59.1026 758.288 L59.1026 752.272 L64.0042 752.272 L64.0042 758.288 Q64.0042 765.067 61.4897 767.645 Q58.9434 770.223 52.2594 770.223 L32.9077 770.223 L32.9077 774.52 L28.3562 774.52 L28.3562 770.223 L18.2347 770.223 L18.2347 764.335 Z" fill="#000000" fill-rule="nonzero" fill-opacity="1" /><path clip-path="url(#clip510)" d="M64.0042 732.061 L16.4842 750.203 L16.4842 743.487 L56.4926 728.432 L16.4842 713.346 L16.4842 706.662 L64.0042 724.772 L64.0042 732.061 Z" fill="#000000" fill-rule="nonzero" fill-opacity="1" /><path clip-path="url(#clip510)" d="M44.7161 674.547 L47.5806 674.547 L47.5806 701.474 Q53.6281 701.092 56.8109 697.845 Q59.9619 694.567 59.9619 688.742 Q59.9619 685.368 59.1344 682.217 Q58.3069 679.035 56.6518 675.915 L62.1899 675.915 Q63.5267 679.066 64.227 682.377 Q64.9272 685.687 64.9272 689.092 Q64.9272 697.622 59.9619 702.62 Q54.9967 707.585 46.5303 707.585 Q37.7774 707.585 32.6531 702.874 Q27.4968 698.132 27.4968 690.111 Q27.4968 682.918 32.1438 678.748 Q36.7589 674.547 44.7161 674.547 M42.9973 680.403 Q38.1912 680.467 35.3266 683.109 Q32.4621 685.719 32.4621 690.047 Q32.4621 694.949 35.2312 697.909 Q38.0002 700.837 43.0292 701.283 L42.9973 680.403 Z" fill="#000000" fill-rule="nonzero" fill-opacity="1" /><path clip-path="url(#clip510)" d="M14.479 664.935 L14.479 659.078 L64.0042 659.078 L64.0042 664.935 L14.479 664.935 Z" fill="#000000" fill-rule="nonzero" fill-opacity="1" /><path clip-path="url(#clip510)" d="M32.4621 633.011 Q32.4621 637.721 36.1542 640.458 Q39.8145 643.196 46.212 643.196 Q52.6095 643.196 56.3017 640.49 Q59.9619 637.753 59.9619 633.011 Q59.9619 628.332 56.2698 625.595 Q52.5777 622.857 46.212 622.857 Q39.8781 622.857 36.186 625.595 Q32.4621 628.332 32.4621 633.011 M27.4968 633.011 Q27.4968 625.372 32.4621 621.011 Q37.4273 616.651 46.212 616.651 Q54.9649 616.651 59.9619 621.011 Q64.9272 625.372 64.9272 633.011 Q64.9272 640.681 59.9619 645.042 Q54.9649 649.37 46.212 649.37 Q37.4273 649.37 32.4621 645.042 Q27.4968 640.681 27.4968 633.011 Z" fill="#000000" fill-rule="nonzero" fill-opacity="1" /><path clip-path="url(#clip510)" d="M29.7248 581.289 L35.1993 581.289 Q33.8307 583.772 33.1623 586.286 Q32.4621 588.769 32.4621 591.315 Q32.4621 597.012 36.0905 600.164 Q39.6872 603.315 46.212 603.315 Q52.7369 603.315 56.3653 600.164 Q59.9619 597.012 59.9619 591.315 Q59.9619 588.769 59.2935 586.286 Q58.5933 583.772 57.2247 581.289 L62.6355 581.289 Q63.7814 583.74 64.3543 586.382 Q64.9272 588.992 64.9272 591.952 Q64.9272 600.004 59.8664 604.747 Q54.8057 609.489 46.212 609.489 Q37.491 609.489 32.4939 604.715 Q27.4968 599.909 27.4968 591.57 Q27.4968 588.864 28.0697 586.286 Q28.6108 583.708 29.7248 581.289 Z" fill="#000000" fill-rule="nonzero" fill-opacity="1" /><path clip-path="url(#clip510)" d="M28.3562 571.104 L28.3562 565.248 L64.0042 565.248 L64.0042 571.104 L28.3562 571.104 M14.479 571.104 L14.479 565.248 L21.895 565.248 L21.895 571.104 L14.479 571.104 Z" fill="#000000" fill-rule="nonzero" fill-opacity="1" /><path clip-path="url(#clip510)" d="M18.2347 547.201 L28.3562 547.201 L28.3562 535.138 L32.9077 535.138 L32.9077 547.201 L52.2594 547.201 Q56.6199 547.201 57.8613 546.023 Q59.1026 544.814 59.1026 541.153 L59.1026 535.138 L64.0042 535.138 L64.0042 541.153 Q64.0042 547.933 61.4897 550.511 Q58.9434 553.089 52.2594 553.089 L32.9077 553.089 L32.9077 557.386 L28.3562 557.386 L28.3562 553.089 L18.2347 553.089 L18.2347 547.201 Z" fill="#000000" fill-rule="nonzero" fill-opacity="1" /><path clip-path="url(#clip510)" d="M67.3143 512.603 Q73.68 515.086 75.6216 517.441 Q77.5631 519.796 77.5631 523.743 L77.5631 528.422 L72.6615 528.422 L72.6615 524.985 Q72.6615 522.566 71.5157 521.229 Q70.3699 519.892 66.1048 518.269 L63.4312 517.218 L28.3562 531.637 L28.3562 525.43 L56.238 514.29 L28.3562 503.15 L28.3562 496.944 L67.3143 512.603 Z" fill="#000000" fill-rule="nonzero" fill-opacity="1" /><polyline clip-path="url(#clip512)" style="stroke:#009af9; stroke-linecap:round; stroke-linejoin:round; stroke-width:4; stroke-opacity:1; fill:none" points="273.033,970.015 277.072,980.478 281.11,987.605 285.148,991.297 289.187,991.505 293.225,988.225 297.263,981.504 301.301,971.431 305.34,958.144 309.378,941.824 313.416,922.693 317.455,901.011 321.493,877.074 325.531,851.206 329.569,823.76 333.608,795.109 337.646,765.643 341.684,735.762 345.723,705.875 349.761,676.386 353.799,647.698 357.838,620.2 361.876,594.268 365.914,570.252 369.952,548.481 373.991,529.251 378.029,512.823 382.067,499.42 386.106,489.225 390.144,482.378 394.182,478.97 398.221,479.048 402.259,482.612 406.297,489.612 410.335,499.954 414.374,513.497 418.412,530.056 422.45,549.406 426.489,571.284 430.527,595.393 434.565,621.404 438.603,648.963 442.642,677.696 446.68,707.211 450.718,737.107 454.757,766.977 458.795,796.415 462.833,825.02 466.872,852.403 470.91,878.192 474.948,902.035 478.986,923.609 483.025,942.619 487.063,958.807 491.101,971.953 495.14,981.878 499.178,988.447 503.216,991.57 507.255,991.205 511.293,987.358 515.331,980.079 519.369,969.469 523.408,955.672 527.446,938.875 531.484,919.307 535.523,897.235 539.561,872.957 543.599,846.806 547.637,819.136 551.676,790.325 555.714,760.763 559.752,730.854 563.791,701.004 567.829,671.619 571.867,643.1 575.906,615.833 579.944,590.191 583.982,566.522 588.02,545.148 592.059,526.36 596.097,510.413 600.135,497.525 604.174,487.871 608.212,481.582 612.25,478.743 616.289,479.394 620.327,483.526 624.365,491.081 628.403,501.959 632.442,516.009 636.48,533.042 640.518,552.826 644.557,575.091 648.595,599.535 652.633,625.824 656.671,653.602 660.71,682.49 664.748,712.095 668.786,742.015 672.825,771.842 676.863,801.171 680.901,829.602 684.94,856.749 688.978,882.242 693.016,905.735 697.054,926.907 701.093,945.472 705.131,961.175 709.169,973.805 713.208,983.187 717.246,989.196 721.284,991.75 725.323,990.813 729.361,986.398 733.399,978.565 737.437,967.422 741.476,953.119 745.514,935.851 749.552,915.854 753.591,893.398 757.629,868.791 761.667,842.365 765.705,814.482 769.744,785.521 773.782,755.874 777.82,725.947 781.859,696.145 785.897,666.875 789.935,638.535 793.974,611.51 798.012,586.168 802.05,562.854 806.088,541.885 810.127,523.546 814.165,508.086 818.203,495.717 822.242,486.607 826.28,480.878 830.318,478.61 834.357,479.834 838.395,484.531 842.433,492.64 846.471,504.048 850.51,518.602 854.548,536.103 858.586,556.313 862.625,578.956 866.663,603.726 870.701,630.284 874.739,658.27 878.778,687.303 882.816,716.988 886.854,746.92 890.893,776.693 894.931,805.902 898.969,834.149 903.008,861.05 907.046,886.238 911.084,909.372 915.122,930.136 919.161,948.248 923.199,963.461 927.237,975.569 931.276,984.406 935.314,989.853 939.352,991.836 943.391,990.326 947.429,985.346 951.467,976.963 955.505,965.29 959.544,950.486 963.582,932.754 967.62,912.334 971.659,889.504 975.697,864.575 979.735,837.886 983.773,809.799 987.812,780.698 991.85,750.978 995.888,721.043 999.927,691.301 1003.96,662.157 1008,634.006 1012.04,607.232 1016.08,582.199 1020.12,559.248 1024.16,538.692 1028.19,520.809 1032.23,505.842 1036.27,493.997 1040.31,485.433 1044.35,480.268 1048.39,478.572 1052.42,480.367 1056.46,485.629 1060.5,494.287 1064.54,506.223 1068.58,521.274 1072.62,539.236 1076.65,559.865 1080.69,582.879 1084.73,607.965 1088.77,634.783 1092.81,662.967 1096.85,692.134 1100.88,721.887 1104.92,751.822 1108.96,781.53 1113,810.608 1117.04,838.66 1121.08,865.304 1125.11,890.179 1129.15,912.945 1133.19,933.293 1137.23,950.945 1141.27,965.663 1145.31,977.245 1149.34,985.534 1153.38,990.417 1157.42,991.827 1161.46,989.747 1165.5,984.203 1169.54,975.271 1173.57,963.073 1177.61,947.775 1181.65,929.585 1185.69,908.75 1189.73,885.554 1193.76,860.312 1197.8,833.368 1201.84,805.089 1205.88,775.859 1209.92,746.076 1213.96,716.145 1217.99,686.473 1222.03,657.464 1226.07,629.514 1230.11,603.001 1234.15,578.287 1238.19,555.708 1242.22,535.571 1246.26,518.15 1250.3,503.682 1254.34,492.365 1258.38,484.352 1262.42,479.751 1266.45,478.627 1270.49,480.993 1274.53,486.818 1278.57,496.022 1282.61,508.481 1286.65,524.025 1290.68,542.442 1294.72,563.481 1298.76,586.857 1302.8,612.251 1306.84,639.319 1310.88,667.691 1314.91,696.981 1318.95,726.792 1322.99,756.717 1327.03,786.349 1331.07,815.286 1335.11,843.133 1339.14,869.512 1343.18,894.063 1347.22,916.453 1351.26,936.377 1355.3,953.564 1359.34,967.781 1363.37,978.833 1367.41,986.57 1371.45,990.887 1375.49,991.726 1379.53,989.074 1383.56,982.968 1387.6,973.492 1391.64,960.773 1395.68,944.986 1399.72,926.344 1403.76,905.102 1407.79,881.548 1411.83,856.003 1415.87,828.815 1419.91,800.353 1423.95,771.005 1427.99,741.17 1432.02,711.253 1436.06,681.663 1440.1,652.801 1444.14,625.06 1448.18,598.818 1452.22,574.431 1456.25,552.232 1460.29,532.523 1464.33,515.571 1468.37,501.607 1472.41,490.822 1476.45,483.362 1480.48,479.328 1484.52,478.776 1488.56,481.712 1492.6,488.098 1496.64,497.845 1500.68,510.822 1504.71,526.852 1508.75,545.717 1512.79,567.16 1516.83,590.889 1520.87,616.582 1524.91,643.889 1528.94,672.439 1532.98,701.842 1537.02,731.699 1541.06,761.604 1545.1,791.15 1549.13,819.935 1553.17,847.567 1557.21,873.67 1561.25,897.889 1565.29,919.895 1569.33,939.388 1573.36,956.104 1577.4,969.813 1581.44,980.331 1585.48,987.514 1589.52,991.264 1593.56,991.53 1597.59,988.308 1601.63,981.643 1605.67,971.626 1609.71,958.391 1613.75,942.12 1617.79,923.034 1621.82,901.392 1625.86,877.489 1629.9,851.651 1633.94,824.228 1637.98,795.594 1642.02,766.138 1646.05,736.261 1650.09,706.371 1654.13,676.872 1658.17,648.167 1662.21,620.647 1666.25,594.685 1670.28,570.635 1674.32,548.824 1678.36,529.549 1682.4,513.072 1686.44,499.617 1690.48,489.368 1694.51,482.464 1698.55,478.998 1702.59,479.018 1706.63,482.524 1710.67,489.468 1714.71,499.755 1718.74,513.246 1722.78,529.756 1726.82,549.062 1730.86,570.901 1734.9,594.975 1738.93,620.957 1742.97,648.493 1747.01,677.209 1751.05,706.715 1755.09,736.608 1759.13,766.482 1763.16,795.93 1767.2,824.552 1771.24,851.959 1775.28,877.777 1779.32,901.656 1783.36,923.27 1787.39,942.325 1791.43,958.562 1795.47,971.76 1799.51,981.74 1803.55,988.365 1807.59,991.547 1811.62,991.24 1815.66,987.45 1819.7,980.228 1823.74,969.673 1827.78,955.927 1831.82,939.178 1835.85,919.655 1839.89,897.621 1843.93,873.378 1847.97,847.255 1852.01,819.608 1856.05,790.812 1860.08,761.26 1864.12,731.353 1868.16,701.498 1872.2,672.103 1876.24,643.566 1880.28,616.275 1884.31,590.603 1888.35,566.899 1892.39,545.484 1896.43,526.65 1900.47,510.654 1904.51,497.714 1908.54,488.004 1912.58,481.658 1916.62,478.762 1920.66,479.355 1924.7,483.428 1928.73,490.928 1932.77,501.751 1936.81,515.75 1940.85,532.735 1944.89,552.475 1948.93,574.701 1952.96,599.111 1957,625.373 1961.04,653.129 1965.08,682.002 1969.12,711.598 1973.16,741.516 1977.19,771.348 1981.23,800.688 1985.27,829.138 1989.31,856.309 1993.35,881.833 1997.39,905.361 2001.42,926.575 2005.46,945.185 2009.5,960.938 2013.54,973.62 2017.58,983.058 2021.62,989.124 2025.65,991.736 2029.69,990.857 2033.73,986.5 2037.77,978.723 2041.81,967.634 2045.85,953.382 2049.88,936.162 2053.92,916.208 2057.96,893.791 2062,869.216 2066.04,842.819 2070.08,814.957 2074.11,786.01 2078.15,756.372 2082.19,726.446 2086.23,696.639 2090.27,667.356 2094.3,638.997 2098.34,611.947 2102.38,586.575 2106.42,563.224 2110.46,542.213 2114.5,523.828 2118.53,508.319 2122.57,495.897 2126.61,486.731 2130.65,480.946 2134.69,478.62 2138.73,479.785 2142.76,484.425 2146.8,492.477 2150.84,503.832 2154.88,518.335 2158.92,535.788 2162.96,555.955 2166.99,578.561 2171.03,603.298 2175.07,629.829 2179.11,657.795 2183.15,686.813 2187.19,716.49 2191.22,746.422 2195.26,776.201 2199.3,805.422 2203.34,833.688 2207.38,860.614 2211.42,885.834 2215.45,909.005 2219.49,929.811 2223.53,947.969 2227.57,963.232 2231.61,975.393 2235.65,984.286 2239.68,989.791 2243.72,991.831 2247.76,990.38 2251.8,985.457 2255.84,977.129 2259.88,965.51 2263.91,950.758 2267.95,933.072 2271.99,912.695 2276.03,889.903 2280.07,865.006 2284.1,838.343 2288.14,810.277 2292.18,781.189 "/>
<polyline clip-path="url(#clip512)" style="stroke:#e26f46; stroke-linecap:round; stroke-linejoin:round; stroke-width:4; stroke-opacity:1; fill:none" points="273.033,691.295 277.072,713.2 281.11,735.13 285.148,757.059 289.187,778.964 293.225,800.819 297.263,822.599 301.301,844.28 305.34,865.835 309.378,887.242 313.416,908.475 317.455,929.51 321.493,950.323 325.531,970.891 329.569,991.189 333.608,1011.2 337.646,1030.89 341.684,1050.24 345.723,1069.23 349.761,1087.85 353.799,1106.06 357.838,1123.84 361.876,1141.18 365.914,1158.06 369.952,1174.46 373.991,1190.35 378.029,1205.73 382.067,1220.57 386.106,1234.85 390.144,1248.56 394.182,1261.69 398.221,1274.22 402.259,1286.13 406.297,1297.41 410.335,1308.05 414.374,1318.03 418.412,1327.35 422.45,1335.99 426.489,1343.95 430.527,1351.21 434.565,1357.77 438.603,1363.62 442.642,1368.75 446.68,1373.16 450.718,1376.84 454.757,1379.78 458.795,1381.99 462.833,1383.47 466.872,1384.2 470.91,1384.19 474.948,1383.44 478.986,1381.95 483.025,1379.72 487.063,1376.75 491.101,1373.05 495.14,1368.63 499.178,1363.48 503.216,1357.61 507.255,1351.03 511.293,1343.75 515.331,1335.78 519.369,1327.12 523.408,1317.78 527.446,1307.78 531.484,1297.12 535.523,1285.83 539.561,1273.9 543.599,1261.36 547.637,1248.22 551.676,1234.49 555.714,1220.19 559.752,1205.34 563.791,1189.95 567.829,1174.04 571.867,1157.63 575.906,1140.74 579.944,1123.39 583.982,1105.59 588.02,1087.37 592.059,1068.75 596.097,1049.74 600.135,1030.38 604.174,1010.68 608.212,990.667 612.25,970.361 616.289,949.787 620.327,928.968 624.365,907.927 628.403,886.69 632.442,865.279 636.48,843.72 640.518,822.036 644.557,800.254 648.595,778.398 652.633,756.492 656.671,734.562 660.71,712.632 664.748,690.728 668.786,668.876 672.825,647.098 676.863,625.422 680.901,603.871 684.94,582.47 688.978,561.243 693.016,540.215 697.054,519.409 701.093,498.85 705.131,478.561 709.169,458.565 713.208,438.884 717.246,419.542 721.284,400.561 725.323,381.961 729.361,363.765 733.399,345.993 737.437,328.666 741.476,311.802 745.514,295.423 749.552,279.545 753.591,264.187 757.629,249.368 761.667,235.103 765.705,221.409 769.744,208.302 773.782,195.796 777.82,183.907 781.859,172.647 785.897,162.029 789.935,152.066 793.974,142.768 798.012,134.147 802.05,126.213 806.088,118.973 810.127,112.438 814.165,106.613 818.203,101.506 822.242,97.1229 826.28,93.4682 830.318,90.5463 834.357,88.3605 838.395,86.9133 842.433,86.2063 846.471,86.2403 850.51,87.0154 854.548,88.5306 858.586,90.7841 862.625,93.7735 866.663,97.4954 870.701,101.945 874.739,107.118 878.778,113.009 882.816,119.609 886.854,126.913 890.893,134.911 894.931,143.594 898.969,152.954 903.008,162.977 907.046,173.655 911.084,184.973 915.122,196.92 919.161,209.481 923.199,222.643 927.237,236.39 931.276,250.707 935.314,265.576 939.352,280.982 943.391,296.907 947.429,313.332 951.467,330.239 955.505,347.608 959.544,365.42 963.582,383.654 967.62,402.289 971.659,421.305 975.697,440.679 979.735,460.389 983.773,480.413 987.812,500.728 991.85,521.311 995.888,542.138 999.927,563.185 1003.96,584.429 1008,605.845 1012.04,627.409 1016.08,649.096 1020.12,670.881 1024.16,692.739 1028.19,714.646 1032.23,736.577 1036.27,758.506 1040.31,780.408 1044.35,802.259 1048.39,824.033 1052.42,845.706 1056.46,867.253 1060.5,888.649 1064.54,909.869 1068.58,930.89 1072.62,951.688 1076.65,972.239 1080.69,992.519 1084.73,1012.5 1088.77,1032.17 1092.81,1051.5 1096.85,1070.47 1100.88,1089.06 1104.92,1107.24 1108.96,1125 1113,1142.31 1117.04,1159.16 1121.08,1175.52 1125.11,1191.39 1129.15,1206.73 1133.19,1221.53 1137.23,1235.77 1141.27,1249.45 1145.31,1262.54 1149.34,1275.02 1153.38,1286.89 1157.42,1298.13 1161.46,1308.73 1165.5,1318.67 1169.54,1327.94 1173.57,1336.54 1177.61,1344.45 1181.65,1351.67 1185.69,1358.18 1189.73,1363.98 1193.76,1369.06 1197.8,1373.42 1201.84,1377.05 1205.88,1379.95 1209.92,1382.11 1213.96,1383.54 1217.99,1384.22 1222.03,1384.16 1226.07,1383.36 1230.11,1381.82 1234.15,1379.54 1238.19,1376.53 1242.22,1372.78 1246.26,1368.31 1250.3,1363.11 1254.34,1357.2 1258.38,1350.58 1262.42,1343.25 1266.45,1335.23 1270.49,1326.52 1274.53,1317.14 1278.57,1307.1 1282.61,1296.4 1286.65,1285.06 1290.68,1273.09 1294.72,1260.51 1298.76,1247.33 1302.8,1233.56 1306.84,1219.23 1310.88,1204.34 1314.91,1188.92 1318.95,1172.97 1322.99,1156.53 1327.03,1139.61 1331.07,1122.23 1335.11,1104.4 1339.14,1086.15 1343.18,1067.5 1347.22,1048.48 1351.26,1029.09 1355.3,1009.37 1359.34,989.336 1363.37,969.012 1367.41,948.421 1371.45,927.586 1375.49,906.532 1379.53,885.282 1383.56,863.86 1387.6,842.292 1391.64,820.602 1395.68,798.814 1399.72,776.953 1403.76,755.045 1407.79,733.114 1411.83,711.186 1415.87,689.285 1419.91,667.436 1423.95,645.665 1427.99,623.996 1432.02,602.454 1436.06,581.063 1440.1,559.849 1444.14,538.834 1448.18,518.044 1452.22,497.502 1456.25,477.232 1460.29,457.256 1464.33,437.597 1468.37,418.278 1472.41,399.321 1476.45,380.748 1480.48,362.579 1484.52,344.836 1488.56,327.538 1492.6,310.706 1496.64,294.359 1500.68,278.515 1504.71,263.193 1508.75,248.409 1512.79,234.182 1516.83,220.526 1520.87,207.458 1524.91,194.993 1528.94,183.144 1532.98,171.926 1537.02,161.351 1541.06,151.431 1545.1,142.178 1549.13,133.602 1553.17,125.713 1557.21,118.52 1561.25,112.031 1565.29,106.254 1569.33,101.195 1573.36,96.8592 1577.4,93.2528 1581.44,90.3794 1585.48,88.2422 1589.52,86.8438 1593.56,86.1857 1597.59,86.2686 1601.63,87.0926 1605.67,88.6565 1609.71,90.9588 1613.75,93.9966 1617.79,97.7666 1621.82,102.264 1625.86,107.485 1629.9,113.422 1633.94,120.07 1637.98,127.419 1642.02,135.463 1646.05,144.191 1650.09,153.595 1654.13,163.662 1658.17,174.382 1662.21,185.742 1666.25,197.73 1670.28,210.332 1674.32,223.532 1678.36,237.318 1682.4,251.671 1686.44,266.577 1690.48,282.017 1694.51,297.976 1698.55,314.433 1702.59,331.371 1706.63,348.77 1710.67,366.61 1714.71,384.871 1718.74,403.533 1722.78,422.573 1726.82,441.969 1730.86,461.701 1734.9,481.745 1738.93,502.078 1742.97,522.678 1747.01,543.52 1751.05,564.581 1755.09,585.837 1759.13,607.264 1763.16,628.836 1767.2,650.531 1771.24,672.321 1775.28,694.184 1779.32,716.093 1783.36,738.024 1787.39,759.952 1791.43,781.852 1795.47,803.699 1799.51,825.467 1803.55,847.132 1807.59,868.67 1811.62,890.055 1815.66,911.263 1819.7,932.27 1823.74,953.052 1827.78,973.586 1831.82,993.847 1835.85,1013.81 1839.89,1033.46 1843.93,1052.77 1847.97,1071.71 1852.01,1090.27 1856.05,1108.43 1860.08,1126.16 1864.12,1143.44 1868.16,1160.26 1872.2,1176.59 1876.24,1192.41 1880.28,1207.72 1884.31,1222.48 1888.35,1236.69 1892.39,1250.33 1896.43,1263.38 1900.47,1275.82 1904.51,1287.65 1908.54,1298.85 1912.58,1309.4 1916.62,1319.3 1920.66,1328.53 1924.7,1337.08 1928.73,1344.95 1932.77,1352.12 1936.81,1358.59 1940.85,1364.34 1944.89,1369.37 1948.93,1373.69 1952.96,1377.27 1957,1380.12 1961.04,1382.23 1965.08,1383.6 1969.12,1384.24 1973.16,1384.13 1977.19,1383.28 1981.23,1381.69 1985.27,1379.37 1989.31,1376.31 1993.35,1372.51 1997.39,1367.99 2001.42,1362.75 2005.46,1356.78 2009.5,1350.11 2013.54,1342.74 2017.58,1334.67 2021.62,1325.92 2025.65,1316.5 2029.69,1306.41 2033.73,1295.67 2037.77,1284.29 2041.81,1272.28 2045.85,1259.66 2049.88,1246.44 2053.92,1232.63 2057.96,1218.26 2062,1203.34 2066.04,1187.88 2070.08,1171.9 2074.11,1155.43 2078.15,1138.48 2082.19,1121.06 2086.23,1103.21 2090.27,1084.93 2094.3,1066.26 2098.34,1047.21 2102.38,1027.8 2106.42,1008.06 2110.46,988.003 2114.5,967.661 2118.53,947.053 2122.57,926.203 2126.61,905.135 2130.65,883.873 2134.69,862.441 2138.73,840.864 2142.76,819.167 2146.8,797.373 2150.84,775.509 2154.88,753.598 2158.92,731.667 2162.96,709.739 2166.99,687.841 2171.03,665.997 2175.07,644.231 2179.11,622.57 2183.15,601.037 2187.19,579.657 2191.22,558.456 2195.26,537.455 2199.3,516.681 2203.34,496.156 2207.38,475.904 2211.42,455.948 2215.45,436.312 2219.49,417.016 2223.53,398.084 2227.57,379.536 2231.61,361.395 2235.65,343.68 2239.68,326.413 2243.72,309.612 2247.76,293.298 2251.8,277.488 2255.84,262.2 2259.88,247.453 2263.91,233.263 2267.95,219.645 2271.99,206.617 2276.03,194.192 2280.07,182.384 2284.1,171.208 2288.14,160.676 2292.18,150.8 "/>
<polyline clip-path="url(#clip512)" style="stroke:#3da44d; stroke-linecap:round; stroke-linejoin:round; stroke-width:4; stroke-opacity:1; fill:none" points="273.033,855.813 277.072,823.155 281.11,789.299 285.148,754.708 289.187,719.851 293.225,685.203 297.263,651.236 301.301,618.411 305.34,587.175 309.378,557.953 313.416,531.143 317.455,507.109 321.493,486.179 325.531,468.637 329.569,454.721 333.608,444.622 337.646,438.477 341.684,436.369 345.723,438.327 349.761,444.323 353.799,454.278 357.838,468.055 361.876,485.467 365.914,506.276 369.952,530.2 373.991,556.914 378.029,586.053 382.067,617.222 386.106,649.996 390.144,683.929 394.182,718.56 398.221,753.418 402.259,788.027 406.297,821.918 410.335,854.63 414.374,885.716 418.412,914.755 422.45,941.351 426.489,965.142 430.527,985.805 434.565,1003.06 438.603,1016.67 442.642,1026.45 446.68,1032.26 450.718,1034.04 454.757,1031.75 458.795,1025.42 462.833,1015.15 466.872,1001.07 470.91,983.367 474.948,962.291 478.986,938.126 483.025,911.199 487.063,881.878 491.101,850.562 495.14,817.676 499.178,783.668 503.216,749 507.255,714.145 511.293,679.577 515.331,645.765 519.369,613.171 523.408,582.237 527.446,553.384 531.484,527.004 535.523,503.458 539.561,483.065 543.599,466.102 547.637,452.801 551.676,443.342 555.714,437.853 559.752,436.411 563.791,439.034 567.829,445.687 571.867,456.278 575.906,470.665 579.944,488.651 583.982,509.992 588.02,534.397 592.059,561.533 596.097,591.033 600.135,622.495 604.174,655.49 608.212,689.569 612.25,724.27 616.289,759.119 620.327,793.643 624.365,827.372 628.403,859.847 632.442,890.626 636.48,919.291 640.518,945.451 644.557,968.751 648.595,988.873 652.633,1005.54 656.671,1018.54 660.71,1027.67 664.748,1032.83 668.786,1033.94 672.825,1030.99 676.863,1024.01 680.901,1013.1 684.94,998.408 688.978,980.137 693.016,958.534 697.054,933.893 701.093,906.548 705.131,876.872 709.169,845.268 713.208,812.167 717.246,778.019 721.284,743.288 725.323,708.448 729.361,673.971 733.399,640.328 737.437,607.976 741.476,577.354 745.514,548.881 749.552,522.942 753.591,499.892 757.629,480.043 761.667,463.666 765.705,450.983 769.744,442.167 773.782,437.339 777.82,436.563 781.859,439.85 785.897,447.156 789.935,458.381 793.974,473.372 798.012,491.926 802.05,513.79 806.088,538.666 810.127,566.217 814.165,596.066 818.203,627.809 822.242,661.013 826.28,695.226 830.318,729.984 834.357,764.812 838.395,799.238 842.433,832.792 846.471,865.019 850.51,895.48 854.548,923.76 858.586,949.475 862.625,972.274 866.663,991.848 870.701,1007.93 874.739,1020.3 878.778,1028.79 882.816,1033.29 886.854,1033.74 890.893,1030.12 894.931,1022.48 898.969,1010.94 903.008,995.653 907.046,976.818 911.084,954.695 915.122,929.587 919.161,901.833 923.199,871.813 927.237,839.934 931.276,806.63 935.314,772.354 939.352,737.573 943.391,702.76 947.429,668.388 951.467,634.926 955.505,602.827 959.544,572.53 963.582,544.446 967.62,518.958 971.659,496.412 975.697,477.114 979.735,461.329 983.773,449.269 987.812,441.1 991.85,436.933 995.888,436.824 999.927,440.774 1003.96,448.73 1008,460.585 1012.04,476.175 1016.08,495.29 1020.12,517.669 1024.16,543.008 1028.19,570.962 1032.23,601.15 1036.27,633.162 1040.31,666.563 1044.35,700.898 1048.39,735.7 1052.42,770.494 1056.46,804.809 1060.5,838.177 1064.54,870.144 1068.58,900.275 1072.62,928.16 1076.65,953.42 1080.69,975.711 1084.73,994.729 1088.77,1010.22 1092.81,1021.96 1096.85,1029.81 1100.88,1033.64 1104.92,1033.42 1108.96,1029.14 1113,1020.86 1117.04,1008.69 1121.08,992.803 1125.11,973.41 1129.15,950.776 1133.19,925.21 1137.23,897.058 1141.27,866.704 1145.31,834.562 1149.34,801.067 1153.38,766.676 1157.42,731.857 1161.46,697.084 1165.5,662.829 1169.54,629.56 1173.57,597.727 1177.61,567.765 1181.65,540.081 1185.69,515.053 1189.73,493.019 1193.76,474.28 1197.8,459.092 1201.84,447.66 1205.88,440.141 1209.92,436.636 1213.96,437.194 1217.99,441.806 1222.03,450.41 1226.07,462.889 1230.11,479.073 1234.15,498.742 1238.19,521.628 1242.22,547.42 1246.26,575.767 1250.3,606.283 1254.34,638.553 1258.38,672.139 1262.42,706.582 1266.45,741.415 1270.49,776.164 1274.53,810.355 1278.57,843.524 1282.61,875.219 1286.65,905.009 1290.68,932.489 1294.72,957.285 1298.76,979.059 1302.8,997.516 1306.84,1012.4 1310.88,1023.52 1314.91,1030.71 1318.95,1033.89 1322.99,1033 1327.03,1028.05 1331.07,1019.13 1335.11,1006.34 1339.14,989.858 1343.18,969.915 1347.22,946.778 1351.26,920.763 1355.3,892.224 1359.34,861.548 1363.37,829.153 1367.41,795.48 1371.45,760.986 1375.49,726.143 1379.53,691.422 1383.56,657.297 1387.6,624.232 1391.64,592.677 1395.68,563.062 1399.72,535.788 1403.76,511.228 1407.79,489.715 1411.83,471.542 1415.87,456.956 1419.91,446.157 1423.95,439.29 1427.99,436.449 1432.02,437.673 1436.06,442.945 1440.1,452.193 1444.14,465.292 1448.18,482.064 1452.22,502.28 1456.25,525.664 1460.29,551.9 1464.33,580.63 1468.37,611.463 1472.41,643.979 1476.45,677.737 1480.48,712.277 1484.52,747.129 1488.56,781.818 1492.6,815.873 1496.64,848.831 1500.68,880.243 1504.71,909.682 1508.75,936.746 1512.79,961.069 1516.83,982.319 1520.87,1000.21 1524.91,1014.49 1528.94,1024.97 1532.98,1031.51 1537.02,1034.02 1541.06,1032.46 1545.1,1026.86 1549.13,1017.29 1553.17,1003.88 1557.21,986.82 1561.25,966.334 1565.29,942.703 1569.33,916.249 1573.36,887.332 1577.4,856.345 1581.44,823.71 1585.48,789.87 1589.52,755.287 1593.56,720.431 1597.59,685.776 1601.63,651.793 1605.67,618.946 1609.71,587.68 1613.75,558.421 1617.79,531.568 1621.82,507.485 1625.86,486.5 1629.9,468.9 1633.94,454.922 1637.98,444.759 1642.02,438.547 1646.05,436.371 1650.09,438.261 1654.13,444.191 1658.17,454.08 1662.21,467.795 1666.25,485.148 1670.28,505.903 1674.32,529.778 1678.36,556.448 1682.4,585.55 1686.44,616.688 1690.48,649.439 1694.51,683.357 1698.55,717.98 1702.59,752.838 1706.63,787.455 1710.67,821.362 1714.71,854.097 1718.74,885.214 1722.78,914.29 1726.82,940.93 1730.86,964.77 1734.9,985.488 1738.93,1002.8 1742.97,1016.47 1747.01,1026.32 1751.05,1032.2 1755.09,1034.04 1759.13,1031.82 1763.16,1025.56 1767.2,1015.35 1771.24,1001.33 1775.28,983.691 1779.32,962.669 1783.36,938.552 1787.39,911.668 1791.43,882.384 1795.47,851.098 1799.51,818.234 1803.55,784.241 1807.59,749.581 1811.62,714.725 1815.66,680.148 1819.7,646.32 1823.74,613.701 1827.78,582.736 1831.82,553.845 1835.85,527.422 1839.89,503.825 1843.93,483.377 1847.97,466.355 1852.01,452.991 1856.05,443.467 1860.08,437.912 1864.12,436.402 1868.16,438.957 1872.2,445.543 1876.24,456.07 1880.28,470.395 1884.31,488.323 1888.35,509.61 1892.39,533.967 1896.43,561.061 1900.47,590.525 1904.51,621.957 1908.54,654.93 1912.58,688.995 1916.62,723.689 1920.66,758.54 1924.7,793.073 1928.73,826.819 1932.77,859.319 1936.81,890.13 1940.85,918.833 1944.89,945.038 1948.93,968.388 1952.96,988.565 1957,1005.3 1961.04,1018.35 1965.08,1027.55 1969.12,1032.78 1973.16,1033.96 1977.19,1031.07 1981.23,1024.16 1985.27,1013.31 1989.31,998.683 1993.35,980.47 1997.39,958.92 2001.42,934.326 2005.46,907.023 2009.5,877.383 2013.54,845.808 2017.58,812.728 2021.62,778.594 2025.65,743.869 2029.69,709.027 2033.73,674.54 2037.77,640.879 2041.81,608.502 2045.85,577.848 2049.88,549.335 2053.92,523.352 2057.96,500.25 2062,480.346 2066.04,463.909 2070.08,451.163 2074.11,442.282 2078.15,437.386 2082.19,436.542 2086.23,439.762 2090.27,447.002 2094.3,458.163 2098.34,473.093 2102.38,491.589 2106.42,513.4 2110.46,538.229 2114.5,565.738 2118.53,595.552 2122.57,627.267 2126.61,660.45 2130.65,694.651 2134.69,729.403 2138.73,764.234 2142.76,798.67 2146.8,832.243 2150.84,864.496 2154.88,894.989 2158.92,923.309 2162.96,949.069 2166.99,971.92 2171.03,991.55 2175.07,1007.69 2179.11,1020.13 2183.15,1028.69 2187.19,1033.25 2191.22,1033.76 2195.26,1030.21 2199.3,1022.64 2203.34,1011.17 2207.38,995.938 2211.42,977.159 2215.45,955.089 2219.49,930.028 2223.53,902.315 2227.57,872.329 2231.61,840.478 2235.65,807.194 2239.68,772.931 2243.72,738.154 2247.76,703.338 2251.8,668.955 2255.84,635.473 2259.88,603.348 2263.91,573.018 2267.95,544.894 2271.99,519.359 2276.03,496.761 2280.07,477.408 2284.1,461.562 2288.14,449.439 2292.18,441.204 "/>
<polyline clip-path="url(#clip512)" style="stroke:#c271d2; stroke-linecap:round; stroke-linejoin:round; stroke-width:4; stroke-opacity:1; fill:none" points="273.033,954.003 277.072,954.379 281.11,954.506 285.148,954.381 289.187,954.007 293.225,953.382 297.263,952.509 301.301,951.387 305.34,950.019 309.378,948.405 313.416,946.548 317.455,944.449 321.493,942.112 325.531,939.538 329.569,936.731 333.608,933.694 337.646,930.43 341.684,926.944 345.723,923.238 349.761,919.318 353.799,915.187 357.838,910.851 361.876,906.315 365.914,901.583 369.952,896.661 373.991,891.555 378.029,886.27 382.067,880.813 386.106,875.189 390.144,869.406 394.182,863.469 398.221,857.386 402.259,851.164 406.297,844.809 410.335,838.329 414.374,831.731 418.412,825.023 422.45,818.212 426.489,811.307 430.527,804.314 434.565,797.243 438.603,790.101 442.642,782.897 446.68,775.637 450.718,768.332 454.757,760.989 458.795,753.616 462.833,746.223 466.872,738.817 470.91,731.406 474.948,724 478.986,716.607 483.025,709.235 487.063,701.893 491.101,694.589 495.14,687.331 499.178,680.128 503.216,672.988 507.255,665.918 511.293,658.928 515.331,652.025 519.369,645.217 523.408,638.512 527.446,631.917 531.484,625.44 535.523,619.088 539.561,612.869 543.599,606.79 547.637,600.857 551.676,595.078 555.714,589.459 559.752,584.006 563.791,578.726 567.829,573.624 571.867,568.707 575.906,563.98 579.944,559.449 583.982,555.118 588.02,550.993 592.059,547.078 596.097,543.378 600.135,539.897 604.174,536.639 608.212,533.608 612.25,530.807 616.289,528.24 620.327,525.908 624.365,523.816 628.403,521.965 632.442,520.358 636.48,518.996 640.518,517.88 644.557,517.013 648.595,516.395 652.633,516.027 656.671,515.909 660.71,516.042 664.748,516.425 668.786,517.057 672.825,517.939 676.863,519.069 680.901,520.446 684.94,522.067 688.978,523.933 693.016,526.039 697.054,528.384 701.093,530.966 705.131,533.78 709.169,536.825 713.208,540.096 717.246,543.59 721.284,547.303 725.323,551.23 729.361,555.367 733.399,559.71 737.437,564.253 741.476,568.991 745.514,573.919 749.552,579.032 753.591,584.322 757.629,589.785 761.667,595.414 765.705,601.203 769.744,607.144 773.782,613.232 777.82,619.459 781.859,625.818 785.897,632.302 789.935,638.904 793.974,645.615 798.012,652.429 802.05,659.337 806.088,666.333 810.127,673.406 814.165,680.55 818.203,687.757 822.242,695.018 826.28,702.324 830.318,709.669 834.357,717.042 838.395,724.436 842.433,731.843 846.471,739.253 850.51,746.659 854.548,754.051 858.586,761.422 862.625,768.763 866.663,776.066 870.701,783.322 874.739,790.524 878.778,797.662 882.816,804.729 886.854,811.716 890.893,818.616 894.931,825.421 898.969,832.122 903.008,838.714 907.046,845.186 911.084,851.534 915.122,857.748 919.161,863.823 923.199,869.751 927.237,875.525 931.276,881.139 935.314,886.586 939.352,891.86 943.391,896.956 947.429,901.867 951.467,906.587 955.505,911.112 959.544,915.436 963.582,919.555 967.62,923.462 971.659,927.155 975.697,930.629 979.735,933.879 983.773,936.903 987.812,939.696 991.85,942.256 995.888,944.579 999.927,946.664 1003.96,948.507 1008,950.106 1012.04,951.46 1016.08,952.567 1020.12,953.426 1024.16,954.036 1028.19,954.396 1032.23,954.505 1036.27,954.364 1040.31,953.973 1044.35,953.332 1048.39,952.442 1052.42,951.304 1056.46,949.92 1060.5,948.29 1064.54,946.417 1068.58,944.302 1072.62,941.949 1076.65,939.36 1080.69,936.538 1084.73,933.486 1088.77,930.207 1092.81,926.706 1096.85,922.986 1100.88,919.052 1104.92,914.907 1108.96,910.558 1113,906.008 1117.04,901.264 1121.08,896.33 1125.11,891.211 1129.15,885.915 1133.19,880.447 1137.23,874.812 1141.27,869.019 1145.31,863.072 1149.34,856.98 1153.38,850.748 1157.42,844.385 1161.46,837.897 1165.5,831.291 1169.54,824.576 1173.57,817.759 1177.61,810.848 1181.65,803.85 1185.69,796.774 1189.73,789.628 1193.76,782.419 1197.8,775.157 1201.84,767.849 1205.88,760.503 1209.92,753.129 1213.96,745.734 1217.99,738.328 1222.03,730.917 1226.07,723.512 1230.11,716.12 1234.15,708.75 1238.19,701.41 1242.22,694.108 1246.26,686.854 1250.3,679.655 1254.34,672.519 1258.38,665.454 1262.42,658.47 1266.45,651.573 1270.49,644.771 1274.53,638.073 1278.57,631.486 1282.61,625.017 1286.65,618.674 1290.68,612.464 1294.72,606.394 1298.76,600.471 1302.8,594.702 1306.84,589.094 1310.88,583.652 1314.91,578.383 1318.95,573.294 1322.99,568.389 1327.03,563.675 1331.07,559.157 1335.11,554.839 1339.14,550.728 1343.18,546.827 1347.22,543.142 1351.26,539.675 1355.3,536.432 1359.34,533.416 1363.37,530.63 1367.41,528.078 1371.45,525.763 1375.49,523.686 1379.53,521.851 1383.56,520.26 1387.6,518.914 1391.64,517.815 1395.68,516.965 1399.72,516.363 1403.76,516.012 1407.79,515.91 1411.83,516.06 1415.87,516.459 1419.91,517.108 1423.95,518.006 1427.99,519.152 1432.02,520.545 1436.06,522.183 1440.1,524.064 1444.14,526.186 1448.18,528.547 1452.22,531.144 1456.25,533.974 1460.29,537.034 1464.33,540.32 1468.37,543.828 1472.41,547.555 1476.45,551.497 1480.48,555.648 1484.52,560.004 1488.56,564.56 1492.6,569.311 1496.64,574.251 1500.68,579.375 1504.71,584.678 1508.75,590.152 1512.79,595.791 1516.83,601.59 1520.87,607.541 1524.91,613.639 1528.94,619.874 1532.98,626.242 1537.02,632.734 1541.06,639.343 1545.1,646.062 1549.13,652.882 1553.17,659.797 1557.21,666.797 1561.25,673.876 1565.29,681.024 1569.33,688.235 1573.36,695.499 1577.4,702.808 1581.44,710.154 1585.48,717.53 1589.52,724.925 1593.56,732.332 1597.59,739.742 1601.63,747.147 1605.67,754.538 1609.71,761.908 1613.75,769.247 1617.79,776.547 1621.82,783.799 1625.86,790.997 1629.9,798.13 1633.94,805.192 1637.98,812.174 1642.02,819.068 1646.05,825.866 1650.09,832.561 1654.13,839.144 1658.17,845.609 1662.21,851.948 1666.25,858.154 1670.28,864.219 1674.32,870.137 1678.36,875.9 1682.4,881.503 1686.44,886.939 1690.48,892.202 1694.51,897.286 1698.55,902.184 1702.59,906.892 1706.63,911.404 1710.67,915.714 1714.71,919.819 1718.74,923.713 1722.78,927.391 1726.82,930.85 1730.86,934.086 1734.9,937.094 1738.93,939.872 1742.97,942.417 1747.01,944.724 1751.05,946.793 1755.09,948.62 1759.13,950.203 1763.16,951.541 1767.2,952.631 1771.24,953.474 1775.28,954.067 1779.32,954.41 1783.36,954.504 1787.39,954.346 1791.43,953.939 1795.47,953.281 1799.51,952.375 1803.55,951.221 1807.59,949.82 1811.62,948.174 1815.66,946.285 1819.7,944.154 1823.74,941.786 1827.78,939.181 1831.82,936.343 1835.85,933.276 1839.89,929.983 1843.93,926.467 1847.97,922.733 1852.01,918.785 1856.05,914.627 1860.08,910.264 1864.12,905.701 1868.16,900.944 1872.2,895.997 1876.24,890.867 1880.28,885.559 1884.31,880.08 1888.35,874.435 1892.39,868.631 1896.43,862.675 1900.47,856.573 1904.51,850.332 1908.54,843.96 1912.58,837.464 1916.62,830.852 1920.66,824.13 1924.7,817.306 1928.73,810.389 1932.77,803.386 1936.81,796.305 1940.85,789.154 1944.89,781.941 1948.93,774.676 1952.96,767.365 1957,760.017 1961.04,752.642 1965.08,745.246 1969.12,737.839 1973.16,730.428 1977.19,723.024 1981.23,715.633 1985.27,708.264 1989.31,700.927 1993.35,693.628 1997.39,686.377 2001.42,679.182 2005.46,672.05 2009.5,664.991 2013.54,658.012 2017.58,651.121 2021.62,644.326 2025.65,637.635 2029.69,631.055 2033.73,624.594 2037.77,618.26 2041.81,612.059 2045.85,605.998 2049.88,600.086 2053.92,594.327 2057.96,588.729 2062,583.299 2066.04,578.042 2070.08,572.964 2074.11,568.072 2078.15,563.371 2082.19,558.866 2086.23,554.562 2090.27,550.464 2094.3,546.577 2098.34,542.906 2102.38,539.454 2106.42,536.226 2110.46,533.225 2114.5,530.455 2118.53,527.918 2122.57,525.618 2126.61,523.558 2130.65,521.739 2134.69,520.164 2138.73,518.834 2142.76,517.752 2146.8,516.917 2150.84,516.332 2154.88,515.997 2158.92,515.913 2162.96,516.078 2166.99,516.494 2171.03,517.16 2175.07,518.074 2179.11,519.237 2183.15,520.646 2187.19,522.3 2191.22,524.197 2195.26,526.335 2199.3,528.711 2203.34,531.324 2207.38,534.169 2211.42,537.244 2215.45,540.545 2219.49,544.068 2223.53,547.809 2227.57,551.764 2231.61,555.929 2235.65,560.298 2239.68,564.867 2243.72,569.631 2247.76,574.584 2251.8,579.72 2255.84,585.034 2259.88,590.519 2263.91,596.169 2267.95,601.978 2271.99,607.939 2276.03,614.046 2280.07,620.291 2284.1,626.667 2288.14,633.167 2292.18,639.783 "/>
</svg>
